%
M48
M72
T01C0.0118
T02C0.0315
T03C0.0320
T04C0.0354
T05C0.0400
T06C0.0591
T07C0.0827
%
T01
X7000Y8140
X8050Y8700
X10150Y8770
X8050Y6390
X11900Y6040
X10500Y12410
X11130Y15980
T02
X14500Y14020
X14500Y13020
X14500Y12020
X14500Y11020
X15500Y10520
X15500Y11520
X15500Y12520
X15500Y13520
T03
X14690Y16350
X14690Y18250
T04
X12190Y10800
T05
X12190Y11800
X12190Y12800
X12190Y13800
X12190Y15800
X11690Y18800
X10690Y18800
X9690Y18800
X8690Y18800
X7690Y18800
X6690Y18800
X6890Y15690
X6890Y14690
X6890Y13690
X6890Y12690
X7890Y12690
X7890Y13690
X7890Y14690
X7890Y15690
X6190Y9800
X6190Y8800
X6190Y7800
X6190Y6800
X15320Y7000
X15320Y6000
X15320Y8000
T06
X15356Y14658
T07
X5090Y5800
X16690Y5800
X16690Y19600
X4990Y19500
M30
