G75*
%MOIN*%
%OFA0B0*%
%FSLAX24Y24*%
%IPPOS*%
%LPD*%
%AMOC8*
5,1,8,0,0,1.08239X$1,22.5*
%
%ADD10C,0.0000*%
%ADD11C,0.0060*%
%ADD12C,0.0010*%
%ADD13C,0.0160*%
%ADD14C,0.0050*%
%ADD15C,0.0020*%
%ADD16R,0.0050X0.0200*%
%ADD17C,0.0080*%
%ADD18C,0.0040*%
D10*
X000789Y000523D02*
X000789Y000523D01*
X000789Y000523D01*
X000789Y000523D01*
X000789Y000523D01*
X000789Y000523D01*
X000789Y000523D01*
X000789Y000523D01*
X000789Y000524D01*
X000789Y000524D01*
X000789Y000524D01*
X000789Y000524D01*
X000789Y000524D01*
X000789Y000524D01*
X000789Y000524D01*
X000789Y000524D01*
X000789Y000524D01*
X000789Y000524D01*
X000789Y000524D01*
X000789Y000524D01*
X000789Y000524D01*
X000789Y000524D01*
X000789Y000524D01*
X000789Y000524D01*
X000789Y000524D01*
X000789Y000523D01*
X000789Y000523D01*
X000789Y000525D02*
X000789Y000525D01*
X000789Y000525D01*
X000789Y000525D01*
X000789Y000525D01*
X000789Y000525D01*
X000789Y000525D01*
X000789Y000525D01*
X000789Y000525D01*
X000789Y000525D01*
X000789Y000525D01*
X000789Y000525D01*
X000789Y000525D01*
X000789Y000525D01*
X000789Y000525D01*
X000789Y000525D01*
X000789Y000525D01*
X000789Y000525D01*
X000789Y000525D01*
X000789Y000525D01*
X000789Y000525D01*
X000789Y000525D01*
X000789Y000525D01*
X000789Y000525D01*
X000789Y000525D01*
X000789Y000525D01*
X000789Y000525D01*
X000789Y000525D01*
X000789Y000526D02*
X000789Y000526D01*
X000789Y000526D01*
X000789Y000526D01*
X000789Y000526D01*
X000789Y000526D01*
X000789Y000526D01*
X000789Y000526D01*
X000789Y000526D01*
X000789Y000526D01*
X000789Y000526D01*
X000789Y000526D01*
X000789Y000526D01*
X000789Y000526D01*
X000789Y000526D01*
X000789Y000526D01*
X000789Y000526D01*
X000789Y000526D01*
X000789Y000526D01*
X000789Y000526D01*
X000789Y000526D01*
X000789Y000526D01*
X000300Y002528D02*
X000300Y002528D01*
X000300Y002529D01*
X000300Y002529D01*
X000300Y002529D01*
X000300Y002529D01*
X000300Y002529D01*
X000300Y002529D01*
X000300Y002529D01*
X000300Y002529D01*
X000300Y002529D01*
X000300Y002529D01*
X000300Y002529D01*
X000300Y002529D01*
X000300Y002529D01*
X000300Y002529D01*
X000300Y002529D01*
X000300Y002529D01*
X000300Y002529D01*
X000300Y002529D01*
X000300Y002529D01*
X000300Y002529D01*
X000300Y002529D01*
X000300Y002529D01*
X000300Y002528D01*
X000300Y002529D02*
X000300Y002530D01*
X000300Y002530D01*
X000300Y002530D01*
X000300Y002530D01*
X000300Y002530D01*
X000300Y002530D01*
X000300Y002530D01*
X000300Y002530D01*
X000300Y002530D01*
X000300Y002530D01*
X000300Y002530D01*
X000300Y002530D01*
X000300Y002530D01*
X000300Y002530D01*
X000300Y002530D01*
X000300Y002530D01*
X000300Y002530D01*
X000300Y002530D01*
X000300Y002530D01*
X000300Y002530D01*
X000300Y002530D01*
X000300Y002530D01*
X000300Y002530D01*
X000300Y002530D01*
X000300Y002530D01*
X000300Y002530D01*
X000300Y002530D01*
X000300Y002530D01*
X000300Y002530D01*
X000300Y002531D02*
X000300Y002531D01*
X000300Y002531D01*
X000300Y002531D01*
X000300Y002531D01*
X000300Y002531D01*
X000300Y002531D01*
X000300Y002531D01*
X000300Y002531D01*
X000300Y002531D01*
X000300Y002531D01*
X000300Y002531D01*
X000300Y002531D01*
X000300Y002531D01*
X000300Y002531D01*
X000300Y002531D01*
X000300Y002531D01*
X000300Y002531D01*
X000300Y002531D01*
X000300Y002531D01*
X000300Y002531D01*
X000300Y002531D01*
X004881Y010549D02*
X004881Y010549D01*
X004881Y010549D01*
X004881Y010549D01*
X004881Y010550D01*
X004881Y010550D01*
X004881Y010550D01*
X004881Y010550D01*
X004881Y010550D01*
X004881Y010550D01*
X004881Y010550D01*
X004881Y010550D01*
X004881Y010550D01*
X004881Y010550D01*
X004881Y010550D01*
X004881Y010550D01*
X004881Y010550D01*
X004881Y010550D01*
X004881Y010550D01*
X004881Y010550D01*
X004881Y010550D01*
X004881Y010550D01*
X004881Y010550D01*
X004881Y010550D01*
X004881Y010549D01*
X004881Y010550D01*
X004881Y010550D01*
X004881Y010551D02*
X004881Y010551D01*
X004881Y010551D01*
X004881Y010551D01*
X004881Y010551D01*
X004881Y010551D01*
X004881Y010551D01*
X004881Y010551D01*
X004881Y010551D01*
X004881Y010551D01*
X004881Y010551D01*
X004881Y010551D01*
X004881Y010551D01*
X004881Y010551D01*
X004881Y010551D01*
X004881Y010551D01*
X004881Y010551D01*
X004881Y010551D01*
X004881Y010551D01*
X004881Y010551D01*
X004881Y010551D01*
X004881Y010551D01*
X004881Y010551D01*
X004881Y010551D01*
X004881Y010551D01*
X004881Y010551D01*
X004881Y010551D01*
X004881Y010551D01*
X004881Y010552D02*
X004881Y010552D01*
X004881Y010552D01*
X004881Y010552D01*
X004881Y010552D01*
X004881Y010552D01*
X004881Y010552D01*
X004881Y010552D01*
X004881Y010552D01*
X004881Y010552D01*
X004881Y010552D01*
X004881Y010552D01*
X004881Y010552D01*
X004881Y010552D01*
X004881Y010552D01*
X004881Y010552D01*
X004881Y010552D01*
X004881Y010552D01*
X004881Y010552D01*
X004881Y010552D01*
X004881Y010552D01*
X004881Y010552D01*
X005237Y017724D02*
X005237Y017724D01*
X005237Y017724D01*
X005237Y017724D01*
X005237Y017724D01*
X005237Y017724D01*
X005237Y017724D01*
X005237Y017724D01*
X005237Y017724D01*
X005237Y017724D01*
X005237Y017724D01*
X005237Y017724D01*
X005237Y017724D01*
X005237Y017724D01*
X005237Y017724D01*
X005237Y017724D01*
X005237Y017724D01*
X005237Y017724D01*
X005237Y017724D01*
X005237Y017724D01*
X005237Y017724D01*
X005237Y017724D01*
X005237Y017724D01*
X005237Y017725D02*
X005237Y017725D01*
X005237Y017725D01*
X005237Y017725D01*
X005237Y017725D01*
X005237Y017725D01*
X005237Y017725D01*
X005237Y017725D01*
X005237Y017725D01*
X005237Y017725D01*
X005237Y017725D01*
X005237Y017725D01*
X005237Y017725D01*
X005237Y017725D01*
X005237Y017725D01*
X005237Y017725D01*
X005237Y017725D01*
X005237Y017725D01*
X005237Y017725D01*
X005237Y017725D01*
X005237Y017725D01*
X005237Y017726D01*
X005237Y017726D01*
X005237Y017726D01*
X005237Y017726D01*
X005237Y017726D01*
X005237Y017726D01*
X005237Y017726D01*
X005237Y017726D01*
X005237Y017726D01*
X005237Y017726D01*
X005237Y017726D01*
X005237Y017726D01*
X005237Y017726D01*
X005237Y017726D01*
X005237Y017726D01*
X005237Y017726D01*
X005237Y017726D01*
X005237Y017726D01*
X005237Y017726D01*
X005237Y017727D01*
X005237Y017726D02*
X005237Y017726D01*
X005237Y017726D01*
X005237Y017726D01*
X005237Y017726D01*
X005237Y017726D01*
X005237Y017725D01*
X005237Y017725D01*
X005237Y017725D01*
X005237Y017725D01*
X005237Y017726D01*
X005237Y017726D01*
X005237Y017724D02*
X005237Y017724D01*
D11*
X005162Y017737D02*
X004522Y017737D01*
X004735Y017524D01*
X004629Y017306D02*
X005056Y016879D01*
X005162Y016986D01*
X005162Y017199D01*
X005056Y017306D01*
X004629Y017306D01*
X004522Y017199D01*
X004522Y016986D01*
X004629Y016879D01*
X005056Y016879D01*
X005162Y016662D02*
X005162Y016234D01*
X004735Y016662D01*
X004629Y016662D01*
X004522Y016555D01*
X004522Y016341D01*
X004629Y016234D01*
X004629Y015372D02*
X004522Y015266D01*
X004522Y015052D01*
X004629Y014945D01*
X004735Y014945D01*
X004842Y015052D01*
X004842Y015266D01*
X004949Y015372D01*
X005056Y015372D01*
X005162Y015266D01*
X005162Y015052D01*
X005056Y014945D01*
X005162Y014728D02*
X005162Y014301D01*
X004522Y014301D01*
X004522Y014728D01*
X004842Y014514D02*
X004842Y014301D01*
X004842Y014083D02*
X004949Y013977D01*
X004949Y013656D01*
X005162Y013656D02*
X004522Y013656D01*
X004522Y013977D01*
X004629Y014083D01*
X004842Y014083D01*
X004949Y013870D02*
X005162Y014083D01*
X005162Y013439D02*
X004735Y013439D01*
X004522Y013225D01*
X004735Y013012D01*
X005162Y013012D01*
X004842Y013012D02*
X004842Y013439D01*
X005162Y012150D02*
X004522Y012150D01*
X004522Y011723D02*
X005162Y012150D01*
X005162Y011723D02*
X004522Y011723D01*
X004735Y011505D02*
X005162Y011505D01*
X004842Y011505D02*
X004842Y011078D01*
X004735Y011078D02*
X004522Y011292D01*
X004735Y011505D01*
X004735Y011078D02*
X005162Y011078D01*
X005056Y010861D02*
X005162Y010754D01*
X005162Y010540D01*
X005056Y010434D01*
X004629Y010434D01*
X004522Y010540D01*
X004522Y010754D01*
X004629Y010861D01*
X004842Y010216D02*
X004842Y009789D01*
X004522Y009571D02*
X004522Y009144D01*
X005162Y009144D01*
X005162Y008927D02*
X004949Y008713D01*
X004949Y008820D02*
X004949Y008500D01*
X005162Y008500D02*
X004522Y008500D01*
X004522Y008820D01*
X004629Y008927D01*
X004842Y008927D01*
X004949Y008820D01*
X004842Y009144D02*
X004842Y009358D01*
X006640Y012190D02*
X008140Y012190D01*
X008390Y012440D01*
X008390Y012940D01*
X008140Y013190D01*
X008390Y013440D01*
X008390Y013940D01*
X008140Y014190D01*
X008390Y014440D01*
X008390Y014940D01*
X008140Y015190D01*
X008390Y015440D01*
X008390Y015940D01*
X008140Y016190D01*
X006640Y016190D01*
X006390Y015940D01*
X006390Y015440D01*
X006640Y015190D01*
X006390Y014940D01*
X006390Y014440D01*
X006640Y014190D01*
X006390Y013940D01*
X006390Y013440D01*
X006640Y013190D01*
X006390Y012940D01*
X006390Y012440D01*
X006640Y012190D01*
X009110Y010140D02*
X009110Y005840D01*
X009112Y005817D01*
X009117Y005794D01*
X009126Y005772D01*
X009139Y005752D01*
X009154Y005734D01*
X009172Y005719D01*
X009192Y005706D01*
X009214Y005697D01*
X009237Y005692D01*
X009260Y005690D01*
X011900Y005690D01*
X011923Y005692D01*
X011946Y005697D01*
X011968Y005706D01*
X011988Y005719D01*
X012006Y005734D01*
X012021Y005752D01*
X012034Y005772D01*
X012043Y005794D01*
X012048Y005817D01*
X012050Y005840D01*
X012050Y010140D01*
X012048Y010163D01*
X012043Y010186D01*
X012034Y010208D01*
X012021Y010228D01*
X012006Y010246D01*
X011988Y010261D01*
X011968Y010274D01*
X011946Y010283D01*
X011923Y010288D01*
X011900Y010290D01*
X009260Y010290D01*
X009237Y010288D01*
X009214Y010283D01*
X009192Y010274D01*
X009172Y010261D01*
X009154Y010246D01*
X009139Y010228D01*
X009126Y010208D01*
X009117Y010186D01*
X009112Y010163D01*
X009110Y010140D01*
X010080Y005690D02*
X010082Y005734D01*
X010088Y005777D01*
X010097Y005819D01*
X010110Y005861D01*
X010127Y005901D01*
X010147Y005940D01*
X010170Y005977D01*
X010197Y006011D01*
X010226Y006044D01*
X010259Y006073D01*
X010293Y006100D01*
X010330Y006123D01*
X010369Y006143D01*
X010409Y006160D01*
X010451Y006173D01*
X010493Y006182D01*
X010536Y006188D01*
X010580Y006190D01*
X010624Y006188D01*
X010667Y006182D01*
X010709Y006173D01*
X010751Y006160D01*
X010791Y006143D01*
X010830Y006123D01*
X010867Y006100D01*
X010901Y006073D01*
X010934Y006044D01*
X010963Y006011D01*
X010990Y005977D01*
X011013Y005940D01*
X011033Y005901D01*
X011050Y005861D01*
X011063Y005819D01*
X011072Y005777D01*
X011078Y005734D01*
X011080Y005690D01*
X014040Y016100D02*
X014040Y018500D01*
X013636Y018159D02*
X013636Y017922D01*
X013163Y017922D02*
X013163Y018159D01*
X014390Y017550D02*
X014690Y017550D01*
X014690Y017800D01*
X014690Y017550D02*
X014990Y017550D01*
X014990Y017400D02*
X014990Y017200D01*
X014390Y017200D01*
X014390Y017400D01*
X014990Y017400D01*
X014990Y017050D02*
X014690Y017050D01*
X014690Y016800D01*
X014690Y017050D02*
X014390Y017050D01*
X013646Y016709D02*
X013646Y016472D01*
X013173Y016472D02*
X013173Y016709D01*
X014040Y016100D02*
X014042Y016050D01*
X014048Y016001D01*
X014057Y015952D01*
X014070Y015904D01*
X014087Y015857D01*
X014107Y015812D01*
X014131Y015768D01*
X014158Y015726D01*
X014189Y015686D01*
X014222Y015649D01*
X014258Y015615D01*
X014296Y015583D01*
X014337Y015554D01*
X014379Y015529D01*
X014424Y015507D01*
X014470Y015488D01*
X014518Y015473D01*
X014566Y015462D01*
X014615Y015454D01*
X014665Y015450D01*
X014715Y015450D01*
X014765Y015454D01*
X014814Y015462D01*
X014862Y015473D01*
X014910Y015488D01*
X014956Y015507D01*
X015001Y015529D01*
X015043Y015554D01*
X015084Y015583D01*
X015122Y015615D01*
X015158Y015649D01*
X015191Y015686D01*
X015222Y015726D01*
X015249Y015768D01*
X015273Y015812D01*
X015293Y015857D01*
X015310Y015904D01*
X015323Y015952D01*
X015332Y016001D01*
X015338Y016050D01*
X015340Y016100D01*
X015340Y018500D01*
X015338Y018550D01*
X015332Y018599D01*
X015323Y018648D01*
X015310Y018696D01*
X015293Y018743D01*
X015273Y018788D01*
X015249Y018832D01*
X015222Y018874D01*
X015191Y018914D01*
X015158Y018951D01*
X015122Y018985D01*
X015084Y019017D01*
X015043Y019046D01*
X015001Y019071D01*
X014956Y019093D01*
X014910Y019112D01*
X014862Y019127D01*
X014814Y019138D01*
X014765Y019146D01*
X014715Y019150D01*
X014665Y019150D01*
X014615Y019146D01*
X014566Y019138D01*
X014518Y019127D01*
X014470Y019112D01*
X014424Y019093D01*
X014379Y019071D01*
X014337Y019046D01*
X014296Y019017D01*
X014258Y018985D01*
X014222Y018951D01*
X014189Y018914D01*
X014158Y018874D01*
X014131Y018832D01*
X014107Y018788D01*
X014087Y018743D01*
X014070Y018696D01*
X014057Y018648D01*
X014048Y018599D01*
X014042Y018550D01*
X014040Y018500D01*
X009698Y017587D02*
X009461Y017587D01*
X009461Y017114D02*
X009698Y017114D01*
X005162Y017524D02*
X005162Y017951D01*
X004842Y018168D02*
X004842Y018595D01*
X005162Y018488D02*
X004522Y018488D01*
X004842Y018168D01*
D12*
X009590Y016996D02*
X009590Y016896D01*
X009615Y016870D01*
X009665Y016870D01*
X009690Y016896D01*
X009737Y016896D02*
X009762Y016870D01*
X009812Y016870D01*
X009837Y016896D01*
X009837Y016946D01*
X009812Y016971D01*
X009787Y016971D01*
X009737Y016946D01*
X009737Y017021D01*
X009837Y017021D01*
X009690Y016996D02*
X009665Y017021D01*
X009615Y017021D01*
X009590Y016996D01*
X010045Y016961D02*
X010070Y016935D01*
X010120Y016935D01*
X010145Y016961D01*
X010145Y016986D01*
X010120Y017011D01*
X010095Y017011D01*
X010120Y017011D02*
X010145Y017036D01*
X010145Y017061D01*
X010120Y017086D01*
X010070Y017086D01*
X010045Y017061D01*
X010192Y016961D02*
X010217Y016961D01*
X010217Y016935D01*
X010192Y016935D01*
X010192Y016961D01*
X010265Y016961D02*
X010291Y016935D01*
X010341Y016935D01*
X010366Y016961D01*
X010366Y016986D01*
X010341Y017011D01*
X010316Y017011D01*
X010341Y017011D02*
X010366Y017036D01*
X010366Y017061D01*
X010341Y017086D01*
X010291Y017086D01*
X010265Y017061D01*
X010413Y017086D02*
X010413Y016986D01*
X010463Y016935D01*
X010513Y016986D01*
X010513Y017086D01*
X012919Y017771D02*
X012944Y017745D01*
X013044Y017745D01*
X013070Y017771D01*
X013070Y017821D01*
X013044Y017846D01*
X013070Y017893D02*
X013070Y017993D01*
X013070Y017943D02*
X012919Y017943D01*
X012969Y017893D01*
X012944Y017846D02*
X012919Y017821D01*
X012919Y017771D01*
X013764Y016848D02*
X013739Y016823D01*
X013739Y016773D01*
X013764Y016748D01*
X013764Y016701D02*
X013739Y016676D01*
X013739Y016626D01*
X013764Y016601D01*
X013864Y016601D01*
X013890Y016626D01*
X013890Y016676D01*
X013864Y016701D01*
X013890Y016748D02*
X013789Y016848D01*
X013764Y016848D01*
X013890Y016848D02*
X013890Y016748D01*
D13*
X013840Y016100D02*
X013840Y018500D01*
X013842Y018557D01*
X013848Y018613D01*
X013857Y018669D01*
X013870Y018725D01*
X013887Y018779D01*
X013907Y018832D01*
X013931Y018883D01*
X013959Y018933D01*
X013989Y018981D01*
X014023Y019027D01*
X014060Y019070D01*
X014099Y019111D01*
X014141Y019149D01*
X014186Y019184D01*
X014233Y019216D01*
X014282Y019245D01*
X014332Y019271D01*
X014385Y019293D01*
X014438Y019312D01*
X014493Y019327D01*
X014549Y019338D01*
X014605Y019346D01*
X014662Y019350D01*
X014718Y019350D01*
X014775Y019346D01*
X014831Y019338D01*
X014887Y019327D01*
X014942Y019312D01*
X014995Y019293D01*
X015048Y019271D01*
X015098Y019245D01*
X015147Y019216D01*
X015194Y019184D01*
X015239Y019149D01*
X015281Y019111D01*
X015320Y019070D01*
X015357Y019027D01*
X015391Y018981D01*
X015421Y018933D01*
X015449Y018883D01*
X015473Y018832D01*
X015493Y018779D01*
X015510Y018725D01*
X015523Y018669D01*
X015532Y018613D01*
X015538Y018557D01*
X015540Y018500D01*
X015540Y016100D01*
X015538Y016043D01*
X015532Y015987D01*
X015523Y015931D01*
X015510Y015875D01*
X015493Y015821D01*
X015473Y015768D01*
X015449Y015717D01*
X015421Y015667D01*
X015391Y015619D01*
X015357Y015573D01*
X015320Y015530D01*
X015281Y015489D01*
X015239Y015451D01*
X015194Y015416D01*
X015147Y015384D01*
X015098Y015355D01*
X015048Y015329D01*
X014995Y015307D01*
X014942Y015288D01*
X014887Y015273D01*
X014831Y015262D01*
X014775Y015254D01*
X014718Y015250D01*
X014662Y015250D01*
X014605Y015254D01*
X014549Y015262D01*
X014493Y015273D01*
X014438Y015288D01*
X014385Y015307D01*
X014332Y015329D01*
X014282Y015355D01*
X014233Y015384D01*
X014186Y015416D01*
X014141Y015451D01*
X014099Y015489D01*
X014060Y015530D01*
X014023Y015573D01*
X013989Y015619D01*
X013959Y015667D01*
X013931Y015717D01*
X013907Y015768D01*
X013887Y015821D01*
X013870Y015875D01*
X013857Y015931D01*
X013848Y015987D01*
X013842Y016043D01*
X013840Y016100D01*
D14*
X013615Y016086D02*
X013615Y015786D01*
X013615Y015936D02*
X013164Y015936D01*
X013314Y015786D01*
X013239Y015626D02*
X013164Y015551D01*
X013164Y015401D01*
X013239Y015325D01*
X013539Y015325D01*
X013615Y015401D01*
X013615Y015551D01*
X013539Y015626D01*
X013239Y015626D01*
X013464Y015476D02*
X013615Y015626D01*
X014015Y014633D02*
X014409Y014633D01*
X014409Y014436D01*
X015590Y014436D01*
X015590Y014633D01*
X015984Y014633D01*
X015984Y009908D01*
X015590Y009908D01*
X015590Y010105D01*
X014409Y010105D01*
X014409Y009908D01*
X014015Y009908D01*
X014015Y014633D01*
X009115Y014599D02*
X008664Y014599D01*
X008889Y014374D01*
X008889Y014674D01*
X008664Y014834D02*
X009115Y014834D01*
X009115Y015135D01*
X009039Y015295D02*
X009115Y015370D01*
X009115Y015520D01*
X009039Y015595D01*
X008739Y015595D01*
X009039Y015295D01*
X008739Y015295D01*
X008664Y015370D01*
X008664Y015520D01*
X008739Y015595D01*
X008814Y015755D02*
X008664Y015905D01*
X009115Y015905D01*
X009115Y015755D02*
X009115Y016055D01*
X009115Y014214D02*
X009115Y013914D01*
X008814Y014214D01*
X008739Y014214D01*
X008664Y014139D01*
X008664Y013989D01*
X008739Y013914D01*
X008664Y013753D02*
X008664Y013453D01*
X009115Y013453D01*
X009115Y013293D02*
X008964Y013143D01*
X008964Y013218D02*
X008889Y013293D01*
X008739Y013293D01*
X008664Y013218D01*
X008664Y012993D01*
X009115Y012993D01*
X008964Y012993D02*
X008964Y013218D01*
X008889Y013453D02*
X008889Y013603D01*
X009115Y012833D02*
X008664Y012833D01*
X008664Y012532D02*
X009115Y012833D01*
X009115Y012532D02*
X008664Y012532D01*
X008907Y005566D02*
X008832Y005491D01*
X008832Y005191D01*
X008907Y005115D01*
X009057Y005115D01*
X009132Y005191D01*
X009292Y005191D02*
X009367Y005115D01*
X009517Y005115D01*
X009592Y005191D01*
X009592Y005491D01*
X009517Y005566D01*
X009367Y005566D01*
X009292Y005491D01*
X009292Y005191D01*
X009132Y005491D02*
X009057Y005566D01*
X008907Y005566D01*
X008672Y005040D02*
X008371Y005040D01*
X008211Y005115D02*
X008211Y005566D01*
X007911Y005566D02*
X008211Y005115D01*
X007911Y005115D02*
X007911Y005566D01*
X007751Y005416D02*
X007751Y005115D01*
X007751Y005341D02*
X007451Y005341D01*
X007451Y005416D02*
X007601Y005566D01*
X007751Y005416D01*
X007451Y005416D02*
X007451Y005115D01*
X007290Y005191D02*
X007215Y005115D01*
X007065Y005115D01*
X006990Y005191D01*
X006990Y005491D01*
X007065Y005566D01*
X007215Y005566D01*
X007290Y005491D01*
X009753Y005566D02*
X009753Y005115D01*
X010053Y005115D02*
X009753Y005566D01*
X010053Y005566D02*
X010053Y005115D01*
X010363Y005115D02*
X010363Y005566D01*
X010213Y005566D02*
X010513Y005566D01*
X010673Y005566D02*
X010899Y005566D01*
X010974Y005491D01*
X010974Y005341D01*
X010899Y005266D01*
X010673Y005266D01*
X010823Y005266D02*
X010974Y005115D01*
X011134Y005191D02*
X011209Y005115D01*
X011359Y005115D01*
X011434Y005191D01*
X011434Y005491D01*
X011359Y005566D01*
X011209Y005566D01*
X011134Y005491D01*
X011134Y005191D01*
X011594Y005115D02*
X011594Y005566D01*
X011594Y005115D02*
X011894Y005115D01*
X010673Y005115D02*
X010673Y005566D01*
X016064Y007249D02*
X016139Y007174D01*
X016439Y007174D01*
X016515Y007249D01*
X016515Y007400D01*
X016439Y007475D01*
X016515Y007635D02*
X016214Y007635D01*
X016064Y007785D01*
X016214Y007935D01*
X016515Y007935D01*
X016515Y008095D02*
X016064Y008095D01*
X016515Y008395D01*
X016064Y008395D01*
X016289Y007935D02*
X016289Y007635D01*
X016139Y007475D02*
X016064Y007400D01*
X016064Y007249D01*
X016590Y007014D02*
X016590Y006714D01*
D15*
X011910Y005690D02*
X011910Y010290D01*
D16*
X012075Y009990D03*
X012075Y009490D03*
X012075Y008990D03*
X012075Y008490D03*
X012075Y007990D03*
X012075Y007490D03*
X012075Y006990D03*
X012075Y006490D03*
X012075Y005990D03*
X009085Y005990D03*
X009085Y006490D03*
X009085Y006990D03*
X009085Y007490D03*
X009085Y007990D03*
X009085Y008490D03*
X009085Y008990D03*
X009085Y009490D03*
X009085Y009990D03*
D17*
X009830Y015911D02*
X009830Y016250D01*
X010284Y016400D02*
X010495Y016400D01*
X010950Y016250D02*
X010950Y015911D01*
X015070Y008500D02*
X014820Y008250D01*
X014820Y007750D01*
X015070Y007500D01*
X014820Y007250D01*
X014820Y006750D01*
X015070Y006500D01*
X014820Y006250D01*
X014820Y005750D01*
X015070Y005500D01*
X015570Y005500D01*
X015820Y005750D01*
X015820Y006250D01*
X015570Y006500D01*
X015820Y006750D01*
X015820Y007250D01*
X015570Y007500D01*
X015820Y007750D01*
X015820Y008250D01*
X015570Y008500D01*
X015070Y008500D01*
D18*
X016277Y013075D02*
X016200Y013151D01*
X016200Y013305D01*
X016277Y013382D01*
X016354Y013535D02*
X016200Y013689D01*
X016354Y013842D01*
X016661Y013842D01*
X016661Y013995D02*
X016200Y013995D01*
X016661Y014302D01*
X016200Y014302D01*
X016430Y013842D02*
X016430Y013535D01*
X016354Y013535D02*
X016661Y013535D01*
X016584Y013382D02*
X016661Y013305D01*
X016661Y013151D01*
X016584Y013075D01*
X016277Y013075D01*
M02*
