G75*
%MOIN*%
%OFA0B0*%
%FSLAX24Y24*%
%IPPOS*%
%LPD*%
%AMOC8*
5,1,8,0,0,1.08239X$1,22.5*
%
%ADD10R,0.0870X0.0240*%
%ADD11C,0.0480*%
%ADD12R,0.0472X0.0315*%
%ADD13R,0.0315X0.0472*%
%ADD14C,0.0740*%
%ADD15C,0.0531*%
%ADD16OC8,0.0740*%
%ADD17C,0.0560*%
%ADD18C,0.0059*%
%ADD19C,0.0236*%
%ADD20C,0.0160*%
%ADD21C,0.1227*%
D10*
X009680Y006840D03*
X009680Y007340D03*
X009680Y007840D03*
X009680Y008340D03*
X011740Y008340D03*
X011740Y007840D03*
X011740Y007340D03*
X011740Y006840D03*
D11*
X014690Y016350D03*
X014690Y018250D03*
D12*
X007560Y007775D03*
X007560Y007066D03*
D13*
X013325Y007830D03*
X014034Y007830D03*
D14*
X015320Y008000D03*
X015320Y007000D03*
X015320Y006000D03*
X012190Y011800D03*
X012190Y012800D03*
X012190Y013800D03*
X012190Y015800D03*
X011690Y018800D03*
X010690Y018800D03*
X009690Y018800D03*
X008690Y018800D03*
X007690Y018800D03*
X006690Y018800D03*
X006190Y009800D03*
X006190Y008800D03*
X006190Y007800D03*
X006190Y006800D03*
D15*
X012190Y010800D03*
D16*
X007890Y012690D03*
X007890Y013690D03*
X007890Y014690D03*
X007890Y015690D03*
X006890Y015690D03*
X006890Y014690D03*
X006890Y013690D03*
X006890Y012690D03*
D17*
X014500Y013020D03*
X014500Y014020D03*
X015500Y013520D03*
X015500Y012520D03*
X015500Y011520D03*
X015500Y010520D03*
X014500Y011020D03*
X014500Y012020D03*
D18*
X014560Y012060D01*
X014910Y012410D01*
X015190Y012410D01*
X015260Y012480D01*
X015470Y012480D01*
X015500Y012520D01*
X015470Y013180D02*
X015400Y013180D01*
X014840Y012620D01*
X014490Y012620D01*
X013720Y011850D01*
X013650Y011850D01*
X013650Y013600D01*
X012530Y014720D01*
X011130Y014720D01*
X011130Y015980D01*
X011830Y013740D02*
X012180Y013740D01*
X012190Y013800D01*
X011830Y013740D02*
X010500Y012410D01*
X010710Y011850D02*
X012180Y011850D01*
X012190Y011800D01*
X012040Y010940D02*
X010430Y010940D01*
X008190Y013180D01*
X006720Y013180D01*
X006370Y013530D01*
X006370Y014090D01*
X006440Y014090D01*
X006860Y014510D01*
X006860Y014650D01*
X006890Y014690D01*
X007890Y014690D02*
X007910Y014650D01*
X010710Y011850D01*
X010220Y010380D02*
X012320Y010380D01*
X012740Y010800D01*
X012740Y012760D01*
X012250Y012760D01*
X012190Y012800D01*
X013650Y011780D02*
X013650Y010450D01*
X013930Y010450D01*
X014500Y011020D01*
X013930Y010450D02*
X012460Y008980D01*
X011060Y008980D01*
X010640Y008560D01*
X010640Y007370D01*
X009730Y007370D01*
X009680Y007340D01*
X009660Y007300D01*
X009590Y007230D01*
X008890Y007230D01*
X008050Y006390D01*
X008120Y006110D02*
X009100Y007090D01*
X010290Y007090D01*
X010570Y006810D01*
X011690Y006810D01*
X011740Y006840D01*
X011830Y007230D02*
X011760Y007300D01*
X011740Y007340D01*
X011830Y007230D02*
X012810Y007230D01*
X014000Y006040D01*
X015260Y006040D01*
X015320Y006000D01*
X015320Y007000D02*
X015260Y007020D01*
X014840Y007020D01*
X014070Y007790D01*
X014034Y007830D01*
X013370Y007860D02*
X013325Y007830D01*
X013300Y007790D01*
X011760Y007790D01*
X011740Y007840D01*
X011760Y006180D02*
X010850Y006180D01*
X010220Y006810D01*
X009730Y006810D01*
X009680Y006840D01*
X009680Y008340D02*
X009730Y008350D01*
X010150Y008770D01*
X010220Y010380D02*
X007910Y012690D01*
X007890Y012690D01*
X007000Y009750D02*
X006230Y009750D01*
X006190Y009800D01*
X007000Y009750D02*
X008050Y008700D01*
X007000Y008140D02*
X006720Y007860D01*
X006230Y007860D01*
X006190Y007800D01*
X007560Y007066D02*
X007560Y006110D01*
X008120Y006110D01*
X011760Y006180D02*
X011900Y006040D01*
X013370Y007860D02*
X015260Y009750D01*
X015820Y009750D01*
X016240Y010170D01*
X016240Y011360D01*
X015820Y011360D01*
X015610Y011570D01*
X015540Y011570D01*
X015500Y011520D01*
X015470Y013180D02*
X015470Y013460D01*
X015500Y013520D01*
X013720Y011850D02*
X013650Y011780D01*
X012190Y010800D02*
X012180Y010800D01*
X012040Y010940D01*
D19*
X010500Y012410D03*
X011130Y015980D03*
X010150Y008770D03*
X008050Y008700D03*
X007000Y008140D03*
X008050Y006390D03*
X011900Y006040D03*
D20*
X011988Y005690D02*
X014788Y005690D01*
X014802Y005655D02*
X014754Y005771D01*
X013946Y005771D01*
X013847Y005812D01*
X013771Y005888D01*
X012698Y006961D01*
X012414Y006961D01*
X012414Y006673D01*
X012378Y006585D01*
X012310Y006517D01*
X012222Y006480D01*
X011257Y006480D01*
X011169Y006517D01*
X011145Y006541D01*
X010870Y006541D01*
X010961Y006450D01*
X011813Y006450D01*
X011912Y006409D01*
X011923Y006399D01*
X011971Y006399D01*
X012102Y006344D01*
X012203Y006243D01*
X012258Y006112D01*
X012258Y005969D01*
X012203Y005838D01*
X012102Y005737D01*
X011971Y005682D01*
X011828Y005682D01*
X011697Y005737D01*
X011596Y005838D01*
X011566Y005911D01*
X010796Y005911D01*
X010697Y005952D01*
X010167Y006482D01*
X010166Y006482D01*
X010167Y006482D02*
X010162Y006480D01*
X009197Y006480D01*
X009109Y006517D01*
X009041Y006585D01*
X009022Y006631D01*
X008272Y005882D01*
X008173Y005841D01*
X007506Y005841D01*
X007407Y005882D01*
X007331Y005958D01*
X007290Y006057D01*
X007290Y006669D01*
X007276Y006669D01*
X007187Y006705D01*
X007120Y006773D01*
X007083Y006861D01*
X007083Y007271D01*
X007120Y007360D01*
X007187Y007427D01*
X007249Y007453D01*
X007213Y007473D01*
X007179Y007507D01*
X007156Y007548D01*
X007143Y007594D01*
X007143Y007775D01*
X007559Y007775D01*
X007559Y007775D01*
X007559Y008112D01*
X007358Y008112D01*
X007358Y008212D01*
X007303Y008343D01*
X007202Y008444D01*
X007071Y008499D01*
X006928Y008499D01*
X006797Y008444D01*
X006696Y008343D01*
X006641Y008212D01*
X006641Y008211D01*
X006552Y008300D01*
X006707Y008455D01*
X006799Y008679D01*
X006799Y008922D01*
X006707Y009146D01*
X006552Y009300D01*
X006707Y009455D01*
X006717Y009481D01*
X006888Y009481D01*
X007691Y008677D01*
X007691Y008629D01*
X007746Y008498D01*
X007847Y008397D01*
X007978Y008342D01*
X008121Y008342D01*
X008252Y008397D01*
X008353Y008498D01*
X008408Y008629D01*
X008408Y008772D01*
X008353Y008903D01*
X008252Y009004D01*
X008121Y009059D01*
X008073Y009059D01*
X007228Y009903D01*
X007152Y009979D01*
X007053Y010020D01*
X006759Y010020D01*
X006707Y010146D01*
X006535Y010318D01*
X006311Y010410D01*
X006068Y010410D01*
X005844Y010318D01*
X005672Y010146D01*
X005580Y009922D01*
X005580Y009679D01*
X005672Y009455D01*
X005827Y009300D01*
X005672Y009146D01*
X005580Y008922D01*
X005580Y008679D01*
X005672Y008455D01*
X005827Y008300D01*
X005672Y008146D01*
X005580Y007922D01*
X005580Y007679D01*
X005672Y007455D01*
X005827Y007300D01*
X005672Y007146D01*
X005580Y006922D01*
X005580Y006679D01*
X005672Y006455D01*
X005844Y006283D01*
X006068Y006190D01*
X006311Y006190D01*
X006535Y006283D01*
X006707Y006455D01*
X006799Y006679D01*
X006799Y006922D01*
X006707Y007146D01*
X006552Y007300D01*
X006707Y007455D01*
X006763Y007591D01*
X006773Y007591D01*
X006872Y007632D01*
X006948Y007708D01*
X007023Y007782D01*
X007071Y007782D01*
X007143Y007812D01*
X007143Y007775D01*
X007559Y007775D01*
X007560Y007775D01*
X007976Y007775D01*
X007976Y007956D01*
X007963Y008002D01*
X007940Y008043D01*
X007906Y008076D01*
X007865Y008100D01*
X007819Y008112D01*
X007560Y008112D01*
X007560Y007775D01*
X007560Y007775D01*
X007976Y007775D01*
X007976Y007594D01*
X007963Y007548D01*
X007940Y007507D01*
X007906Y007473D01*
X007870Y007453D01*
X007932Y007427D01*
X007999Y007360D01*
X008036Y007271D01*
X008036Y006861D01*
X007999Y006773D01*
X007973Y006746D01*
X007978Y006749D01*
X008026Y006749D01*
X008661Y007383D01*
X008737Y007459D01*
X008836Y007500D01*
X009005Y007500D01*
X009005Y007508D01*
X009041Y007596D01*
X009084Y007639D01*
X009077Y007651D01*
X009065Y007697D01*
X009065Y007840D01*
X009679Y007840D01*
X009679Y007841D01*
X009064Y007841D01*
X009065Y007984D01*
X009077Y008030D01*
X009084Y008042D01*
X009041Y008085D01*
X009005Y008173D01*
X009005Y008508D01*
X009041Y008596D01*
X009109Y008664D01*
X009197Y008700D01*
X009698Y008700D01*
X009791Y008794D01*
X009791Y008842D01*
X009846Y008973D01*
X009947Y009074D01*
X010078Y009129D01*
X010221Y009129D01*
X010352Y009074D01*
X010453Y008973D01*
X010508Y008842D01*
X010508Y008810D01*
X010907Y009209D01*
X011006Y009250D01*
X012348Y009250D01*
X013414Y010316D01*
X013380Y010397D01*
X013380Y013489D01*
X012418Y014451D01*
X011076Y014451D01*
X010977Y014492D01*
X010901Y014568D01*
X010860Y014667D01*
X010860Y015744D01*
X010826Y015778D01*
X010771Y015909D01*
X010771Y016052D01*
X010826Y016183D01*
X010927Y016284D01*
X011058Y016339D01*
X011201Y016339D01*
X011332Y016284D01*
X011433Y016183D01*
X011488Y016052D01*
X011488Y015909D01*
X011433Y015778D01*
X011399Y015744D01*
X011399Y014990D01*
X012583Y014990D01*
X012682Y014949D01*
X013802Y013829D01*
X013878Y013753D01*
X013919Y013654D01*
X013919Y012431D01*
X014136Y012648D01*
X014059Y012726D01*
X013980Y012917D01*
X013980Y013124D01*
X014059Y013315D01*
X014205Y013461D01*
X014396Y013540D01*
X014603Y013540D01*
X014794Y013461D01*
X014940Y013315D01*
X015003Y013165D01*
X015061Y013223D01*
X015059Y013226D01*
X014980Y013417D01*
X014980Y013624D01*
X015059Y013815D01*
X015205Y013961D01*
X015396Y014040D01*
X015603Y014040D01*
X015794Y013961D01*
X015940Y013815D01*
X016019Y013624D01*
X016019Y013417D01*
X015940Y013226D01*
X015794Y013080D01*
X015704Y013042D01*
X015698Y013028D01*
X015679Y013009D01*
X015794Y012961D01*
X015940Y012815D01*
X016019Y012624D01*
X016019Y012417D01*
X015940Y012226D01*
X015794Y012080D01*
X015651Y012020D01*
X015794Y011961D01*
X015940Y011815D01*
X016017Y011630D01*
X016293Y011630D01*
X016392Y011589D01*
X016468Y011513D01*
X016509Y011414D01*
X016509Y010117D01*
X016468Y010018D01*
X016392Y009942D01*
X016392Y009942D01*
X016048Y009598D01*
X016048Y009598D01*
X015972Y009522D01*
X015873Y009481D01*
X015371Y009481D01*
X014197Y008307D01*
X014239Y008307D01*
X014327Y008270D01*
X014395Y008203D01*
X014431Y008114D01*
X014431Y007810D01*
X014849Y007392D01*
X014957Y007500D01*
X014802Y007655D01*
X014710Y007879D01*
X014710Y008122D01*
X014802Y008346D01*
X014974Y008518D01*
X015198Y008610D01*
X015441Y008610D01*
X015665Y008518D01*
X015837Y008346D01*
X015929Y008122D01*
X015929Y007879D01*
X015837Y007655D01*
X015682Y007500D01*
X015837Y007346D01*
X015929Y007122D01*
X015929Y006879D01*
X015837Y006655D01*
X015682Y006500D01*
X015837Y006346D01*
X015914Y006159D01*
X015966Y006284D01*
X016206Y006524D01*
X016520Y006654D01*
X016859Y006654D01*
X017173Y006524D01*
X017274Y006422D01*
X017315Y019019D01*
X017173Y018877D01*
X016859Y018747D01*
X016520Y018747D01*
X016206Y018877D01*
X015966Y019117D01*
X015836Y019431D01*
X015836Y019770D01*
X015966Y020084D01*
X016040Y020158D01*
X005533Y020164D01*
X005713Y019984D01*
X005843Y019670D01*
X005843Y019331D01*
X005713Y019017D01*
X005473Y018777D01*
X005159Y018647D01*
X004820Y018647D01*
X004506Y018777D01*
X004428Y018855D01*
X004415Y006333D01*
X004606Y006524D01*
X004920Y006654D01*
X005259Y006654D01*
X005573Y006524D01*
X005813Y006284D01*
X005943Y005970D01*
X005943Y005631D01*
X005813Y005317D01*
X005718Y005222D01*
X016124Y005159D01*
X015966Y005317D01*
X015836Y005631D01*
X015836Y005654D01*
X015665Y005483D01*
X015441Y005390D01*
X015198Y005390D01*
X014974Y005483D01*
X014802Y005655D01*
X014926Y005531D02*
X005902Y005531D01*
X005943Y005690D02*
X011811Y005690D01*
X011592Y005848D02*
X008190Y005848D01*
X008397Y006007D02*
X010642Y006007D01*
X010484Y006165D02*
X008555Y006165D01*
X008714Y006324D02*
X010325Y006324D01*
X010681Y007080D02*
X010660Y007101D01*
X010693Y007101D01*
X010792Y007142D01*
X010868Y007218D01*
X010909Y007317D01*
X010909Y008449D01*
X011171Y008711D01*
X012513Y008711D01*
X012612Y008752D01*
X012688Y008828D01*
X014082Y010222D01*
X014082Y010222D01*
X014158Y010298D01*
X014371Y010511D01*
X014396Y010500D01*
X014603Y010500D01*
X014794Y010580D01*
X014940Y010726D01*
X015019Y010917D01*
X015019Y011124D01*
X014940Y011315D01*
X014794Y011461D01*
X014651Y011520D01*
X014794Y011580D01*
X014940Y011726D01*
X015019Y011917D01*
X015019Y012124D01*
X015015Y012135D01*
X015021Y012141D01*
X015144Y012141D01*
X015205Y012080D01*
X015348Y012020D01*
X015205Y011961D01*
X015059Y011815D01*
X014980Y011624D01*
X014980Y011417D01*
X015059Y011226D01*
X015205Y011080D01*
X015396Y011000D01*
X015603Y011000D01*
X015794Y011080D01*
X015805Y011091D01*
X015970Y011091D01*
X015970Y010282D01*
X015708Y010020D01*
X015206Y010020D01*
X015107Y009979D01*
X015031Y009903D01*
X013435Y008307D01*
X013120Y008307D01*
X013032Y008270D01*
X012964Y008203D01*
X012928Y008114D01*
X012928Y008060D01*
X012393Y008060D01*
X012380Y008090D01*
X012414Y008173D01*
X012414Y008508D01*
X012378Y008596D01*
X012310Y008664D01*
X012222Y008700D01*
X011257Y008700D01*
X011169Y008664D01*
X011101Y008596D01*
X011065Y008508D01*
X011065Y008173D01*
X011099Y008090D01*
X011065Y008008D01*
X011065Y007673D01*
X011099Y007590D01*
X011065Y007508D01*
X011065Y007173D01*
X011099Y007090D01*
X011094Y007080D01*
X010681Y007080D01*
X010729Y007116D02*
X011088Y007116D01*
X011065Y007275D02*
X010891Y007275D01*
X010909Y007433D02*
X011065Y007433D01*
X011098Y007592D02*
X010909Y007592D01*
X010909Y007750D02*
X011065Y007750D01*
X011065Y007909D02*
X010909Y007909D01*
X010909Y008067D02*
X011089Y008067D01*
X011065Y008226D02*
X010909Y008226D01*
X010909Y008384D02*
X011065Y008384D01*
X011079Y008543D02*
X011003Y008543D01*
X011161Y008701D02*
X013829Y008701D01*
X013987Y008860D02*
X012720Y008860D01*
X012878Y009018D02*
X014146Y009018D01*
X014304Y009177D02*
X013037Y009177D01*
X013195Y009335D02*
X014463Y009335D01*
X014621Y009494D02*
X013354Y009494D01*
X013512Y009652D02*
X014780Y009652D01*
X014938Y009811D02*
X013671Y009811D01*
X013829Y009969D02*
X015097Y009969D01*
X015200Y010170D02*
X015149Y010221D01*
X015106Y010279D01*
X015073Y010344D01*
X015051Y010413D01*
X015040Y010484D01*
X015040Y010520D01*
X015499Y010520D01*
X015499Y010521D01*
X015499Y010980D01*
X015463Y010980D01*
X015392Y010969D01*
X015323Y010947D01*
X015258Y010914D01*
X015200Y010871D01*
X015149Y010820D01*
X015106Y010762D01*
X015073Y010697D01*
X015051Y010628D01*
X015040Y010557D01*
X015039Y010521D01*
X015499Y010521D01*
X015500Y010521D01*
X015500Y010980D01*
X015536Y010980D01*
X015607Y010969D01*
X015676Y010947D01*
X015741Y010914D01*
X015799Y010871D01*
X015850Y010820D01*
X015893Y010762D01*
X015926Y010697D01*
X015948Y010628D01*
X015959Y010557D01*
X015959Y010521D01*
X015500Y010521D01*
X015500Y010520D01*
X015959Y010520D01*
X015959Y010484D01*
X015948Y010413D01*
X015926Y010344D01*
X015893Y010279D01*
X015850Y010221D01*
X015799Y010170D01*
X015741Y010127D01*
X015676Y010094D01*
X015607Y010072D01*
X015536Y010060D01*
X015500Y010060D01*
X015500Y010520D01*
X015499Y010520D01*
X015499Y010060D01*
X015463Y010060D01*
X015392Y010072D01*
X015323Y010094D01*
X015258Y010127D01*
X015200Y010170D01*
X015258Y010128D02*
X013988Y010128D01*
X014146Y010286D02*
X015103Y010286D01*
X015046Y010445D02*
X014305Y010445D01*
X014158Y010298D02*
X014158Y010298D01*
X014817Y010603D02*
X015047Y010603D01*
X015106Y010762D02*
X014955Y010762D01*
X015019Y010920D02*
X015270Y010920D01*
X015208Y011079D02*
X015019Y011079D01*
X015054Y011237D02*
X014973Y011237D01*
X014988Y011396D02*
X014860Y011396D01*
X014980Y011554D02*
X014732Y011554D01*
X014927Y011713D02*
X015016Y011713D01*
X015000Y011871D02*
X015115Y011871D01*
X015019Y012030D02*
X015326Y012030D01*
X015673Y012030D02*
X017293Y012030D01*
X017293Y012188D02*
X015902Y012188D01*
X015990Y012347D02*
X017294Y012347D01*
X017294Y012505D02*
X016019Y012505D01*
X016003Y012664D02*
X017295Y012664D01*
X017295Y012822D02*
X015933Y012822D01*
X015748Y012981D02*
X017296Y012981D01*
X017296Y013139D02*
X015853Y013139D01*
X015970Y013298D02*
X017297Y013298D01*
X017297Y013456D02*
X016019Y013456D01*
X016019Y013615D02*
X017298Y013615D01*
X017298Y013773D02*
X015958Y013773D01*
X015824Y013932D02*
X017299Y013932D01*
X017299Y014090D02*
X014954Y014090D01*
X014959Y014057D02*
X014948Y014128D01*
X014926Y014197D01*
X014893Y014262D01*
X014850Y014320D01*
X014799Y014371D01*
X014741Y014414D01*
X014676Y014447D01*
X014607Y014469D01*
X014536Y014480D01*
X014500Y014480D01*
X014500Y014021D01*
X014499Y014021D01*
X014499Y014480D01*
X014463Y014480D01*
X014392Y014469D01*
X014323Y014447D01*
X014258Y014414D01*
X014200Y014371D01*
X014149Y014320D01*
X014106Y014262D01*
X014073Y014197D01*
X014051Y014128D01*
X014040Y014057D01*
X014039Y014021D01*
X014499Y014021D01*
X014499Y014020D01*
X014040Y014020D01*
X014040Y013984D01*
X014051Y013913D01*
X014073Y013844D01*
X014106Y013779D01*
X014149Y013721D01*
X014200Y013670D01*
X014258Y013627D01*
X014323Y013594D01*
X014392Y013572D01*
X014463Y013560D01*
X014499Y013560D01*
X014499Y014020D01*
X014500Y014020D01*
X014500Y014021D01*
X014959Y014021D01*
X014959Y014057D01*
X014959Y014020D02*
X014500Y014020D01*
X014500Y013560D01*
X014536Y013560D01*
X014607Y013572D01*
X014676Y013594D01*
X014741Y013627D01*
X014799Y013670D01*
X014850Y013721D01*
X014893Y013779D01*
X014926Y013844D01*
X014948Y013913D01*
X014959Y013984D01*
X014959Y014020D01*
X014951Y013932D02*
X015175Y013932D01*
X015249Y014123D02*
X015053Y014205D01*
X014902Y014355D01*
X014821Y014552D01*
X014821Y014765D01*
X014902Y014962D01*
X015053Y015112D01*
X015249Y015194D01*
X015462Y015194D01*
X015659Y015112D01*
X015810Y014962D01*
X015891Y014765D01*
X015891Y014552D01*
X015810Y014355D01*
X015659Y014205D01*
X015462Y014123D01*
X015249Y014123D01*
X015009Y014249D02*
X014900Y014249D01*
X014881Y014407D02*
X014750Y014407D01*
X014821Y014566D02*
X013066Y014566D01*
X012907Y014724D02*
X014821Y014724D01*
X014869Y014883D02*
X012749Y014883D01*
X012535Y015283D02*
X012707Y015455D01*
X012799Y015679D01*
X012799Y015922D01*
X012707Y016146D01*
X012535Y016318D01*
X012311Y016410D01*
X012068Y016410D01*
X011844Y016318D01*
X011672Y016146D01*
X011580Y015922D01*
X011580Y015679D01*
X011672Y015455D01*
X011844Y015283D01*
X012068Y015190D01*
X012311Y015190D01*
X012535Y015283D01*
X012610Y015358D02*
X017303Y015358D01*
X017303Y015200D02*
X012333Y015200D01*
X012046Y015200D02*
X011399Y015200D01*
X011399Y015358D02*
X011769Y015358D01*
X011647Y015517D02*
X011399Y015517D01*
X011399Y015675D02*
X011581Y015675D01*
X011580Y015834D02*
X011456Y015834D01*
X011488Y015992D02*
X011609Y015992D01*
X011677Y016151D02*
X011447Y016151D01*
X011272Y016309D02*
X011835Y016309D01*
X012544Y016309D02*
X014210Y016309D01*
X014210Y016255D02*
X014283Y016079D01*
X014418Y015944D01*
X014594Y015870D01*
X014785Y015870D01*
X014961Y015944D01*
X015096Y016079D01*
X015169Y016255D01*
X015169Y016446D01*
X015096Y016622D01*
X014961Y016757D01*
X014785Y016830D01*
X014594Y016830D01*
X014418Y016757D01*
X014283Y016622D01*
X014210Y016446D01*
X014210Y016255D01*
X014253Y016151D02*
X012702Y016151D01*
X012770Y015992D02*
X014369Y015992D01*
X014218Y016468D02*
X004425Y016468D01*
X004426Y016626D02*
X014286Y016626D01*
X014483Y016785D02*
X004426Y016785D01*
X004426Y016943D02*
X017308Y016943D01*
X017308Y016785D02*
X014896Y016785D01*
X015093Y016626D02*
X017307Y016626D01*
X017307Y016468D02*
X015161Y016468D01*
X015169Y016309D02*
X017306Y016309D01*
X017306Y016151D02*
X015126Y016151D01*
X015010Y015992D02*
X017305Y015992D01*
X017305Y015834D02*
X012799Y015834D01*
X012798Y015675D02*
X017304Y015675D01*
X017304Y015517D02*
X012732Y015517D01*
X012462Y014407D02*
X012319Y014407D01*
X012311Y014410D02*
X012068Y014410D01*
X011844Y014318D01*
X011672Y014146D01*
X011580Y013922D01*
X011580Y013872D01*
X010476Y012769D01*
X010428Y012769D01*
X010297Y012714D01*
X010262Y012679D01*
X008499Y014442D01*
X008499Y014943D01*
X008252Y015190D01*
X008499Y015438D01*
X008499Y015943D01*
X008142Y016300D01*
X007637Y016300D01*
X007347Y016011D01*
X007117Y016240D01*
X006910Y016240D01*
X006910Y015711D01*
X006869Y015711D01*
X006869Y016240D01*
X006662Y016240D01*
X006340Y015918D01*
X006340Y015710D01*
X006869Y015710D01*
X006869Y015670D01*
X006339Y015670D01*
X006340Y015463D01*
X006569Y015233D01*
X006280Y014943D01*
X006280Y014438D01*
X006343Y014375D01*
X006328Y014360D01*
X006316Y014360D01*
X006217Y014319D01*
X006141Y014243D01*
X006100Y014144D01*
X006100Y013477D01*
X006141Y013378D01*
X006217Y013302D01*
X006428Y013091D01*
X006280Y012943D01*
X006280Y012438D01*
X006637Y012080D01*
X007142Y012080D01*
X007389Y012328D01*
X007637Y012080D01*
X008138Y012080D01*
X009991Y010228D01*
X010067Y010152D01*
X010166Y010111D01*
X012373Y010111D01*
X012472Y010152D01*
X012892Y010572D01*
X012968Y010648D01*
X013009Y010747D01*
X013009Y012814D01*
X012968Y012913D01*
X012892Y012989D01*
X012793Y013030D01*
X012755Y013030D01*
X012707Y013146D01*
X012552Y013300D01*
X012707Y013455D01*
X012799Y013679D01*
X012799Y013922D01*
X012707Y014146D01*
X012535Y014318D01*
X012311Y014410D01*
X012060Y014407D02*
X008534Y014407D01*
X008499Y014566D02*
X010903Y014566D01*
X010860Y014724D02*
X008499Y014724D01*
X008499Y014883D02*
X010860Y014883D01*
X010860Y015041D02*
X008402Y015041D01*
X008261Y015200D02*
X010860Y015200D01*
X010860Y015358D02*
X008420Y015358D01*
X008499Y015517D02*
X010860Y015517D01*
X010860Y015675D02*
X008499Y015675D01*
X008499Y015834D02*
X010803Y015834D01*
X010771Y015992D02*
X008451Y015992D01*
X008292Y016151D02*
X010812Y016151D01*
X010987Y016309D02*
X004425Y016309D01*
X004425Y016151D02*
X006572Y016151D01*
X006413Y015992D02*
X004425Y015992D01*
X004425Y015834D02*
X006340Y015834D01*
X006339Y015517D02*
X004424Y015517D01*
X004425Y015675D02*
X006869Y015675D01*
X006869Y015834D02*
X006910Y015834D01*
X006910Y015992D02*
X006869Y015992D01*
X006869Y016151D02*
X006910Y016151D01*
X007207Y016151D02*
X007487Y016151D01*
X006444Y015358D02*
X004424Y015358D01*
X004424Y015200D02*
X006536Y015200D01*
X006377Y015041D02*
X004424Y015041D01*
X004424Y014883D02*
X006280Y014883D01*
X006280Y014724D02*
X004424Y014724D01*
X004424Y014566D02*
X006280Y014566D01*
X006310Y014407D02*
X004423Y014407D01*
X004423Y014249D02*
X006146Y014249D01*
X006100Y014090D02*
X004423Y014090D01*
X004423Y013932D02*
X006100Y013932D01*
X006100Y013773D02*
X004423Y013773D01*
X004423Y013615D02*
X006100Y013615D01*
X006109Y013456D02*
X004422Y013456D01*
X004422Y013298D02*
X006221Y013298D01*
X006380Y013139D02*
X004422Y013139D01*
X004422Y012981D02*
X006317Y012981D01*
X006280Y012822D02*
X004422Y012822D01*
X004422Y012664D02*
X006280Y012664D01*
X006280Y012505D02*
X004421Y012505D01*
X004421Y012347D02*
X006371Y012347D01*
X006529Y012188D02*
X004421Y012188D01*
X004421Y012030D02*
X008189Y012030D01*
X008348Y011871D02*
X004421Y011871D01*
X004421Y011713D02*
X008506Y011713D01*
X008665Y011554D02*
X004420Y011554D01*
X004420Y011396D02*
X008823Y011396D01*
X008982Y011237D02*
X004420Y011237D01*
X004420Y011079D02*
X009140Y011079D01*
X009299Y010920D02*
X004420Y010920D01*
X004420Y010762D02*
X009457Y010762D01*
X009616Y010603D02*
X004419Y010603D01*
X004419Y010445D02*
X009774Y010445D01*
X009933Y010286D02*
X006567Y010286D01*
X006714Y010128D02*
X010126Y010128D01*
X010874Y009177D02*
X007955Y009177D01*
X007796Y009335D02*
X012433Y009335D01*
X012591Y009494D02*
X007638Y009494D01*
X007479Y009652D02*
X012750Y009652D01*
X012908Y009811D02*
X007321Y009811D01*
X007162Y009969D02*
X013067Y009969D01*
X013225Y010128D02*
X012413Y010128D01*
X012606Y010286D02*
X013384Y010286D01*
X013380Y010445D02*
X012765Y010445D01*
X012923Y010603D02*
X013380Y010603D01*
X013380Y010762D02*
X013009Y010762D01*
X013009Y010920D02*
X013380Y010920D01*
X013380Y011079D02*
X013009Y011079D01*
X013009Y011237D02*
X013380Y011237D01*
X013380Y011396D02*
X013009Y011396D01*
X013009Y011554D02*
X013380Y011554D01*
X013380Y011713D02*
X013009Y011713D01*
X013009Y011871D02*
X013380Y011871D01*
X013380Y012030D02*
X013009Y012030D01*
X013009Y012188D02*
X013380Y012188D01*
X013380Y012347D02*
X013009Y012347D01*
X013009Y012505D02*
X013380Y012505D01*
X013380Y012664D02*
X013009Y012664D01*
X013006Y012822D02*
X013380Y012822D01*
X013380Y012981D02*
X012901Y012981D01*
X012710Y013139D02*
X013380Y013139D01*
X013380Y013298D02*
X012555Y013298D01*
X012707Y013456D02*
X013380Y013456D01*
X013254Y013615D02*
X012773Y013615D01*
X012799Y013773D02*
X013096Y013773D01*
X012937Y013932D02*
X012795Y013932D01*
X012779Y014090D02*
X012730Y014090D01*
X012620Y014249D02*
X012604Y014249D01*
X013224Y014407D02*
X014249Y014407D01*
X014099Y014249D02*
X013383Y014249D01*
X013541Y014090D02*
X014045Y014090D01*
X014048Y013932D02*
X013700Y013932D01*
X013858Y013773D02*
X014111Y013773D01*
X014283Y013615D02*
X013919Y013615D01*
X013919Y013456D02*
X014200Y013456D01*
X014051Y013298D02*
X013919Y013298D01*
X013919Y013139D02*
X013986Y013139D01*
X013980Y012981D02*
X013919Y012981D01*
X013919Y012822D02*
X014019Y012822D01*
X013919Y012664D02*
X014121Y012664D01*
X013993Y012505D02*
X013919Y012505D01*
X014499Y013615D02*
X014500Y013615D01*
X014499Y013773D02*
X014500Y013773D01*
X014499Y013932D02*
X014500Y013932D01*
X014499Y014090D02*
X014500Y014090D01*
X014499Y014249D02*
X014500Y014249D01*
X014499Y014407D02*
X014500Y014407D01*
X014888Y013773D02*
X015041Y013773D01*
X014980Y013615D02*
X014716Y013615D01*
X014799Y013456D02*
X014980Y013456D01*
X014948Y013298D02*
X015029Y013298D01*
X015703Y014249D02*
X017300Y014249D01*
X017300Y014407D02*
X015831Y014407D01*
X015891Y014566D02*
X017301Y014566D01*
X017301Y014724D02*
X015891Y014724D01*
X015842Y014883D02*
X017302Y014883D01*
X017302Y015041D02*
X015730Y015041D01*
X014982Y015041D02*
X011399Y015041D01*
X011775Y014249D02*
X008693Y014249D01*
X008851Y014090D02*
X011649Y014090D01*
X011584Y013932D02*
X009010Y013932D01*
X009168Y013773D02*
X011481Y013773D01*
X011322Y013615D02*
X009327Y013615D01*
X009485Y013456D02*
X011164Y013456D01*
X011005Y013298D02*
X009644Y013298D01*
X009802Y013139D02*
X010847Y013139D01*
X010688Y012981D02*
X009961Y012981D01*
X010119Y012822D02*
X010530Y012822D01*
X007529Y012188D02*
X007250Y012188D01*
X005812Y010286D02*
X004419Y010286D01*
X004419Y010128D02*
X005665Y010128D01*
X005599Y009969D02*
X004419Y009969D01*
X004419Y009811D02*
X005580Y009811D01*
X005591Y009652D02*
X004418Y009652D01*
X004418Y009494D02*
X005656Y009494D01*
X005792Y009335D02*
X004418Y009335D01*
X004418Y009177D02*
X005703Y009177D01*
X005619Y009018D02*
X004418Y009018D01*
X004418Y008860D02*
X005580Y008860D01*
X005580Y008701D02*
X004418Y008701D01*
X004417Y008543D02*
X005636Y008543D01*
X005743Y008384D02*
X004417Y008384D01*
X004417Y008226D02*
X005752Y008226D01*
X005640Y008067D02*
X004417Y008067D01*
X004417Y007909D02*
X005580Y007909D01*
X005580Y007750D02*
X004417Y007750D01*
X004416Y007592D02*
X005616Y007592D01*
X005694Y007433D02*
X004416Y007433D01*
X004416Y007275D02*
X005801Y007275D01*
X005660Y007116D02*
X004416Y007116D01*
X004416Y006958D02*
X005594Y006958D01*
X005580Y006799D02*
X004416Y006799D01*
X004415Y006641D02*
X004887Y006641D01*
X004564Y006482D02*
X004415Y006482D01*
X005292Y006641D02*
X005596Y006641D01*
X005615Y006482D02*
X005661Y006482D01*
X005773Y006324D02*
X005804Y006324D01*
X005862Y006165D02*
X007290Y006165D01*
X007290Y006324D02*
X006575Y006324D01*
X006718Y006482D02*
X007290Y006482D01*
X007290Y006641D02*
X006783Y006641D01*
X006799Y006799D02*
X007109Y006799D01*
X007083Y006958D02*
X006785Y006958D01*
X006719Y007116D02*
X007083Y007116D01*
X007085Y007275D02*
X006578Y007275D01*
X006685Y007433D02*
X007202Y007433D01*
X007144Y007592D02*
X006774Y007592D01*
X006990Y007750D02*
X007143Y007750D01*
X007559Y007909D02*
X007560Y007909D01*
X007559Y008067D02*
X007560Y008067D01*
X007352Y008226D02*
X009005Y008226D01*
X009005Y008384D02*
X008221Y008384D01*
X008372Y008543D02*
X009019Y008543D01*
X009059Y008067D02*
X007916Y008067D01*
X007976Y007909D02*
X009065Y007909D01*
X009065Y007750D02*
X007976Y007750D01*
X007975Y007592D02*
X009039Y007592D01*
X008711Y007433D02*
X007917Y007433D01*
X008034Y007275D02*
X008552Y007275D01*
X008394Y007116D02*
X008036Y007116D01*
X008036Y006958D02*
X008235Y006958D01*
X008077Y006799D02*
X008010Y006799D01*
X007311Y006007D02*
X005928Y006007D01*
X005943Y005848D02*
X007489Y005848D01*
X007106Y005214D02*
X016069Y005214D01*
X015943Y005373D02*
X005836Y005373D01*
X006627Y008226D02*
X006647Y008226D01*
X006636Y008384D02*
X006737Y008384D01*
X006743Y008543D02*
X007727Y008543D01*
X007668Y008701D02*
X006799Y008701D01*
X006799Y008860D02*
X007509Y008860D01*
X007351Y009018D02*
X006760Y009018D01*
X006676Y009177D02*
X007192Y009177D01*
X007034Y009335D02*
X006587Y009335D01*
X007262Y008384D02*
X007878Y008384D01*
X008408Y008701D02*
X009699Y008701D01*
X009799Y008860D02*
X008371Y008860D01*
X008219Y009018D02*
X009891Y009018D01*
X010370Y008485D02*
X010354Y008469D01*
X010354Y008173D01*
X010318Y008085D01*
X010275Y008042D01*
X010282Y008030D01*
X010294Y007984D01*
X010294Y007841D01*
X009680Y007841D01*
X009680Y007840D01*
X010294Y007840D01*
X010294Y007697D01*
X010282Y007651D01*
X010276Y007640D01*
X010370Y007640D01*
X010370Y008485D01*
X010370Y008384D02*
X010354Y008384D01*
X010354Y008226D02*
X010370Y008226D01*
X010370Y008067D02*
X010300Y008067D01*
X010294Y007909D02*
X010370Y007909D01*
X010370Y007750D02*
X010294Y007750D01*
X010500Y008860D02*
X010557Y008860D01*
X010408Y009018D02*
X010716Y009018D01*
X012400Y008543D02*
X013670Y008543D01*
X013512Y008384D02*
X012414Y008384D01*
X012414Y008226D02*
X012987Y008226D01*
X012928Y008067D02*
X012390Y008067D01*
X012414Y006958D02*
X012701Y006958D01*
X012860Y006799D02*
X012414Y006799D01*
X012401Y006641D02*
X013018Y006641D01*
X013177Y006482D02*
X012226Y006482D01*
X012123Y006324D02*
X013335Y006324D01*
X013494Y006165D02*
X012236Y006165D01*
X012258Y006007D02*
X013652Y006007D01*
X013811Y005848D02*
X012207Y005848D01*
X011253Y006482D02*
X010929Y006482D01*
X009193Y006482D02*
X008872Y006482D01*
X014274Y008384D02*
X014840Y008384D01*
X014752Y008226D02*
X014372Y008226D01*
X014431Y008067D02*
X014710Y008067D01*
X014710Y007909D02*
X014431Y007909D01*
X014491Y007750D02*
X014763Y007750D01*
X014866Y007592D02*
X014650Y007592D01*
X014808Y007433D02*
X014889Y007433D01*
X015750Y007433D02*
X017278Y007433D01*
X017277Y007275D02*
X015866Y007275D01*
X015929Y007116D02*
X017277Y007116D01*
X017276Y006958D02*
X015929Y006958D01*
X015896Y006799D02*
X017276Y006799D01*
X017275Y006641D02*
X016892Y006641D01*
X017215Y006482D02*
X017275Y006482D01*
X016487Y006641D02*
X015822Y006641D01*
X015701Y006482D02*
X016164Y006482D01*
X016006Y006324D02*
X015846Y006324D01*
X015912Y006165D02*
X015917Y006165D01*
X015877Y005531D02*
X015713Y005531D01*
X015773Y007592D02*
X017278Y007592D01*
X017279Y007750D02*
X015876Y007750D01*
X015929Y007909D02*
X017279Y007909D01*
X017280Y008067D02*
X015929Y008067D01*
X015887Y008226D02*
X017280Y008226D01*
X017281Y008384D02*
X015799Y008384D01*
X015605Y008543D02*
X017281Y008543D01*
X017282Y008701D02*
X014591Y008701D01*
X014433Y008543D02*
X015034Y008543D01*
X014750Y008860D02*
X017282Y008860D01*
X017283Y009018D02*
X014908Y009018D01*
X015067Y009177D02*
X017283Y009177D01*
X017284Y009335D02*
X015225Y009335D01*
X015903Y009494D02*
X017284Y009494D01*
X017285Y009652D02*
X016102Y009652D01*
X016261Y009811D02*
X017285Y009811D01*
X017286Y009969D02*
X016419Y009969D01*
X016509Y010128D02*
X017286Y010128D01*
X017287Y010286D02*
X016509Y010286D01*
X016509Y010445D02*
X017287Y010445D01*
X017288Y010603D02*
X016509Y010603D01*
X016509Y010762D02*
X017288Y010762D01*
X017289Y010920D02*
X016509Y010920D01*
X016509Y011079D02*
X017289Y011079D01*
X017290Y011237D02*
X016509Y011237D01*
X016509Y011396D02*
X017291Y011396D01*
X017291Y011554D02*
X016427Y011554D01*
X015983Y011713D02*
X017292Y011713D01*
X017292Y011871D02*
X015884Y011871D01*
X015970Y011079D02*
X015791Y011079D01*
X015729Y010920D02*
X015970Y010920D01*
X015970Y010762D02*
X015893Y010762D01*
X015952Y010603D02*
X015970Y010603D01*
X015953Y010445D02*
X015970Y010445D01*
X015970Y010286D02*
X015896Y010286D01*
X015815Y010128D02*
X015741Y010128D01*
X015500Y010128D02*
X015499Y010128D01*
X015499Y010286D02*
X015500Y010286D01*
X015499Y010445D02*
X015500Y010445D01*
X015499Y010603D02*
X015500Y010603D01*
X015499Y010762D02*
X015500Y010762D01*
X015499Y010920D02*
X015500Y010920D01*
X017309Y017102D02*
X004426Y017102D01*
X004426Y017260D02*
X017309Y017260D01*
X017310Y017419D02*
X004426Y017419D01*
X004427Y017577D02*
X017310Y017577D01*
X017311Y017736D02*
X004427Y017736D01*
X004427Y017894D02*
X014367Y017894D01*
X014418Y017844D02*
X014594Y017770D01*
X014785Y017770D01*
X014961Y017844D01*
X015096Y017979D01*
X015169Y018155D01*
X015169Y018346D01*
X015096Y018522D01*
X014961Y018657D01*
X014785Y018730D01*
X014594Y018730D01*
X014418Y018657D01*
X014283Y018522D01*
X014210Y018346D01*
X014210Y018155D01*
X014283Y017979D01*
X014418Y017844D01*
X014252Y018053D02*
X004427Y018053D01*
X004427Y018211D02*
X006519Y018211D01*
X006568Y018190D02*
X006811Y018190D01*
X007035Y018283D01*
X007190Y018438D01*
X007344Y018283D01*
X007568Y018190D01*
X007811Y018190D01*
X008035Y018283D01*
X008190Y018438D01*
X008344Y018283D01*
X008568Y018190D01*
X008811Y018190D01*
X009035Y018283D01*
X009190Y018438D01*
X009344Y018283D01*
X009568Y018190D01*
X009811Y018190D01*
X010035Y018283D01*
X010207Y018455D01*
X010226Y018502D01*
X010270Y018442D01*
X010331Y018381D01*
X010401Y018330D01*
X010478Y018291D01*
X010561Y018264D01*
X010646Y018250D01*
X010669Y018250D01*
X010669Y018780D01*
X010710Y018780D01*
X010710Y018250D01*
X010733Y018250D01*
X010818Y018264D01*
X010901Y018291D01*
X010978Y018330D01*
X011048Y018381D01*
X011109Y018442D01*
X011153Y018502D01*
X011172Y018455D01*
X011344Y018283D01*
X011568Y018190D01*
X011811Y018190D01*
X012035Y018283D01*
X012207Y018455D01*
X012299Y018679D01*
X012299Y018922D01*
X012207Y019146D01*
X012035Y019318D01*
X011811Y019410D01*
X011568Y019410D01*
X011344Y019318D01*
X011172Y019146D01*
X011153Y019099D01*
X011109Y019159D01*
X011048Y019220D01*
X010978Y019271D01*
X010901Y019310D01*
X010818Y019337D01*
X010733Y019350D01*
X010710Y019350D01*
X010710Y018821D01*
X010669Y018821D01*
X010669Y019350D01*
X010646Y019350D01*
X010561Y019337D01*
X010478Y019310D01*
X010401Y019271D01*
X010331Y019220D01*
X010270Y019159D01*
X010226Y019099D01*
X010207Y019146D01*
X010035Y019318D01*
X009811Y019410D01*
X009568Y019410D01*
X009344Y019318D01*
X009190Y019163D01*
X009035Y019318D01*
X008811Y019410D01*
X008568Y019410D01*
X008344Y019318D01*
X008190Y019163D01*
X008035Y019318D01*
X007811Y019410D01*
X007568Y019410D01*
X007344Y019318D01*
X007190Y019163D01*
X007035Y019318D01*
X006811Y019410D01*
X006568Y019410D01*
X006344Y019318D01*
X006172Y019146D01*
X006080Y018922D01*
X006080Y018679D01*
X006172Y018455D01*
X006344Y018283D01*
X006568Y018190D01*
X006258Y018370D02*
X004427Y018370D01*
X004428Y018528D02*
X006142Y018528D01*
X006080Y018687D02*
X005254Y018687D01*
X005541Y018845D02*
X006080Y018845D01*
X006113Y019004D02*
X005699Y019004D01*
X005773Y019162D02*
X006188Y019162D01*
X006351Y019321D02*
X005839Y019321D01*
X005843Y019479D02*
X015836Y019479D01*
X015836Y019638D02*
X005843Y019638D01*
X005791Y019796D02*
X015847Y019796D01*
X015912Y019955D02*
X005725Y019955D01*
X005584Y020113D02*
X015995Y020113D01*
X015882Y019321D02*
X012028Y019321D01*
X012191Y019162D02*
X015947Y019162D01*
X016080Y019004D02*
X012266Y019004D01*
X012299Y018845D02*
X016283Y018845D01*
X017096Y018845D02*
X017315Y018845D01*
X017314Y018687D02*
X014891Y018687D01*
X015091Y018528D02*
X017314Y018528D01*
X017313Y018370D02*
X015160Y018370D01*
X015169Y018211D02*
X017313Y018211D01*
X017312Y018053D02*
X015127Y018053D01*
X015012Y017894D02*
X017311Y017894D01*
X017299Y019004D02*
X017315Y019004D01*
X014488Y018687D02*
X012299Y018687D01*
X012237Y018528D02*
X014288Y018528D01*
X014219Y018370D02*
X012121Y018370D01*
X011860Y018211D02*
X014210Y018211D01*
X011519Y018211D02*
X009860Y018211D01*
X010121Y018370D02*
X010347Y018370D01*
X010669Y018370D02*
X010710Y018370D01*
X010710Y018528D02*
X010669Y018528D01*
X010669Y018687D02*
X010710Y018687D01*
X010710Y018845D02*
X010669Y018845D01*
X010669Y019004D02*
X010710Y019004D01*
X010710Y019162D02*
X010669Y019162D01*
X010669Y019321D02*
X010710Y019321D01*
X010869Y019321D02*
X011351Y019321D01*
X011188Y019162D02*
X011106Y019162D01*
X010510Y019321D02*
X010028Y019321D01*
X010191Y019162D02*
X010273Y019162D01*
X011032Y018370D02*
X011258Y018370D01*
X009519Y018211D02*
X008860Y018211D01*
X009121Y018370D02*
X009258Y018370D01*
X008519Y018211D02*
X007860Y018211D01*
X007519Y018211D02*
X006860Y018211D01*
X007121Y018370D02*
X007258Y018370D01*
X008121Y018370D02*
X008258Y018370D01*
X008351Y019321D02*
X008028Y019321D01*
X007351Y019321D02*
X007028Y019321D01*
X009028Y019321D02*
X009351Y019321D01*
X004725Y018687D02*
X004428Y018687D01*
X004428Y018845D02*
X004438Y018845D01*
D21*
X005090Y005800D03*
X016690Y005800D03*
X016690Y019600D03*
X004990Y019500D03*
M02*
