G75*
%MOIN*%
%OFA0B0*%
%FSLAX24Y24*%
%IPPOS*%
%LPD*%
%AMOC8*
5,1,8,0,0,1.08239X$1,22.5*
%
%ADD10C,0.0060*%
%ADD11C,0.0080*%
%ADD12C,0.0010*%
%ADD13C,0.0050*%
%ADD14C,0.0040*%
D10*
X007323Y007302D02*
X007323Y007539D01*
X007796Y007539D02*
X007796Y007302D01*
X010000Y006661D02*
X011419Y006661D01*
X011419Y008520D02*
X010000Y008520D01*
X013561Y008067D02*
X013798Y008067D01*
X013798Y007594D02*
X013561Y007594D01*
D11*
X010263Y006880D02*
X010265Y006895D01*
X010271Y006908D01*
X010280Y006920D01*
X010291Y006929D01*
X010305Y006935D01*
X010320Y006937D01*
X010335Y006935D01*
X010348Y006929D01*
X010360Y006920D01*
X010369Y006909D01*
X010375Y006895D01*
X010377Y006880D01*
X010375Y006865D01*
X010369Y006852D01*
X010360Y006840D01*
X010349Y006831D01*
X010335Y006825D01*
X010320Y006823D01*
X010305Y006825D01*
X010292Y006831D01*
X010280Y006840D01*
X010271Y006851D01*
X010265Y006865D01*
X010263Y006880D01*
D12*
X010715Y007146D02*
X010865Y007146D01*
X010865Y007196D02*
X010865Y007095D01*
X010865Y007243D02*
X010715Y007243D01*
X010765Y007243D02*
X010765Y007318D01*
X010790Y007343D01*
X010840Y007343D01*
X010865Y007318D01*
X010865Y007243D01*
X010765Y007293D02*
X010715Y007343D01*
X010715Y007390D02*
X010815Y007390D01*
X010865Y007440D01*
X010815Y007490D01*
X010715Y007490D01*
X010715Y007537D02*
X010865Y007537D01*
X010715Y007638D01*
X010865Y007638D01*
X010840Y007685D02*
X010815Y007685D01*
X010790Y007710D01*
X010790Y007760D01*
X010765Y007785D01*
X010740Y007785D01*
X010715Y007760D01*
X010715Y007710D01*
X010740Y007685D01*
X010840Y007685D02*
X010865Y007710D01*
X010865Y007760D01*
X010840Y007785D01*
X010840Y007832D02*
X010740Y007832D01*
X010715Y007857D01*
X010715Y007907D01*
X010740Y007932D01*
X010715Y007979D02*
X010715Y008080D01*
X010715Y008127D02*
X010715Y008177D01*
X010715Y008152D02*
X010865Y008152D01*
X010865Y008127D02*
X010865Y008177D01*
X010865Y008225D02*
X010765Y008225D01*
X010715Y008275D01*
X010765Y008325D01*
X010865Y008325D01*
X010865Y008372D02*
X010715Y008372D01*
X010715Y008472D01*
X010715Y008520D02*
X010865Y008520D01*
X010865Y008595D01*
X010840Y008620D01*
X010790Y008620D01*
X010765Y008595D01*
X010765Y008520D01*
X010765Y008570D02*
X010715Y008620D01*
X010865Y008472D02*
X010865Y008372D01*
X010790Y008372D02*
X010790Y008422D01*
X010865Y008080D02*
X010865Y007979D01*
X010715Y007979D01*
X010790Y007979D02*
X010790Y008029D01*
X010840Y007932D02*
X010865Y007907D01*
X010865Y007857D01*
X010840Y007832D01*
X010790Y007490D02*
X010790Y007390D01*
X013422Y007350D02*
X013522Y007350D01*
X013422Y007451D01*
X013422Y007476D01*
X013447Y007501D01*
X013497Y007501D01*
X013522Y007476D01*
X013569Y007476D02*
X013569Y007426D01*
X013594Y007401D01*
X013669Y007401D01*
X013619Y007401D02*
X013569Y007350D01*
X013669Y007350D02*
X013669Y007501D01*
X013594Y007501D01*
X013569Y007476D01*
X008040Y007323D02*
X007890Y007323D01*
X007890Y007273D02*
X007890Y007373D01*
X007990Y007273D02*
X008040Y007323D01*
X008015Y007226D02*
X007965Y007226D01*
X007940Y007201D01*
X007940Y007125D01*
X007890Y007125D02*
X008040Y007125D01*
X008040Y007201D01*
X008015Y007226D01*
X007940Y007176D02*
X007890Y007226D01*
D13*
X012690Y006300D02*
X012690Y019300D01*
D14*
X005912Y007320D02*
X005759Y007320D01*
X005835Y007320D02*
X005835Y007781D01*
X005759Y007781D02*
X005912Y007781D01*
X006066Y007781D02*
X006066Y007320D01*
X006373Y007781D01*
X006373Y007320D01*
X006526Y007320D02*
X006679Y007320D01*
X006603Y007320D02*
X006603Y007781D01*
X006679Y007781D02*
X006526Y007781D01*
X006833Y007781D02*
X006833Y007320D01*
X007140Y007320D02*
X007140Y007781D01*
X006986Y007627D01*
X006833Y007781D01*
X007293Y007244D02*
X007600Y007244D01*
X007754Y007397D02*
X007754Y007704D01*
X007830Y007781D01*
X007984Y007781D01*
X008061Y007704D01*
X008061Y007397D01*
X007984Y007320D01*
X007830Y007320D01*
X007754Y007397D01*
X008214Y007320D02*
X008214Y007781D01*
X008521Y007781D02*
X008214Y007320D01*
X008521Y007320D02*
X008521Y007781D01*
X008674Y007781D02*
X008828Y007781D01*
X008751Y007781D02*
X008751Y007320D01*
X008828Y007320D02*
X008674Y007320D01*
X008981Y007397D02*
X009058Y007320D01*
X009212Y007320D01*
X009288Y007397D01*
X009288Y007781D01*
X009442Y007704D02*
X009519Y007781D01*
X009749Y007781D01*
X009749Y007320D01*
X009519Y007320D01*
X009442Y007397D01*
X009442Y007704D01*
X008981Y007781D02*
X008981Y007397D01*
X009902Y007320D02*
X010056Y007474D01*
X009979Y007474D02*
X010209Y007474D01*
X010209Y007320D02*
X010209Y007781D01*
X009979Y007781D01*
X009902Y007704D01*
X009902Y007551D01*
X009979Y007474D01*
X010363Y007551D02*
X010670Y007551D01*
X010670Y007627D02*
X010670Y007320D01*
X010363Y007320D02*
X010363Y007627D01*
X010516Y007781D01*
X010670Y007627D01*
M02*
