G75*
%MOIN*%
%OFA0B0*%
%FSLAX24Y24*%
%IPPOS*%
%LPD*%
%AMOC8*
5,1,8,0,0,1.08239X$1,22.5*
%
%ADD10C,0.0000*%
D10*
X004174Y004992D02*
X004190Y020405D01*
X017560Y020397D01*
X017510Y004910D01*
X004174Y004992D01*
X015061Y014658D02*
X015063Y014692D01*
X015069Y014726D01*
X015079Y014759D01*
X015092Y014790D01*
X015110Y014820D01*
X015130Y014848D01*
X015154Y014873D01*
X015180Y014895D01*
X015208Y014913D01*
X015239Y014929D01*
X015271Y014941D01*
X015305Y014949D01*
X015339Y014953D01*
X015373Y014953D01*
X015407Y014949D01*
X015441Y014941D01*
X015473Y014929D01*
X015503Y014913D01*
X015532Y014895D01*
X015558Y014873D01*
X015582Y014848D01*
X015602Y014820D01*
X015620Y014790D01*
X015633Y014759D01*
X015643Y014726D01*
X015649Y014692D01*
X015651Y014658D01*
X015649Y014624D01*
X015643Y014590D01*
X015633Y014557D01*
X015620Y014526D01*
X015602Y014496D01*
X015582Y014468D01*
X015558Y014443D01*
X015532Y014421D01*
X015504Y014403D01*
X015473Y014387D01*
X015441Y014375D01*
X015407Y014367D01*
X015373Y014363D01*
X015339Y014363D01*
X015305Y014367D01*
X015271Y014375D01*
X015239Y014387D01*
X015208Y014403D01*
X015180Y014421D01*
X015154Y014443D01*
X015130Y014468D01*
X015110Y014496D01*
X015092Y014526D01*
X015079Y014557D01*
X015069Y014590D01*
X015063Y014624D01*
X015061Y014658D01*
M02*
