%
M48
M72
T01C0.0118
T02C0.0197
T03C0.0315
T04C0.0320
T05C0.0354
T06C0.0400
T07C0.0591
T08C0.1102
%
T01
X7420Y8375
X8050Y8935
X8050Y7535
X8050Y6415
X10150Y8795
X11900Y6065
X10500Y13065
X11270Y16145
T02
X7015Y7545
T03
X14500Y11045
X14500Y12045
X14500Y13045
X14500Y14045
X15500Y13545
X15500Y12545
X15500Y11545
X15500Y10545
T04
X14690Y16375
X14690Y18275
T05
X12190Y10825
T06
X12190Y11825
X12190Y12825
X12190Y13825
X12190Y15825
X11690Y18825
X10690Y18825
X9690Y18825
X8690Y18825
X7690Y18825
X6690Y18825
X6230Y17135
X6230Y16135
X5230Y16135
X5230Y17135
X7230Y17135
X7230Y16135
X8230Y16135
X8230Y17135
X6190Y9825
X6190Y8825
X6190Y7825
X6190Y6825
X15320Y7025
X15320Y6025
X15320Y8025
T07
X15356Y14683
T08
X4995Y5805
X16680Y5745
X16745Y19615
X5025Y19615
M30
