G75*
G70*
%OFA0B0*%
%FSLAX24Y24*%
%IPPOS*%
%LPD*%
%AMOC8*
5,1,8,0,0,1.08239X$1,22.5*
%
%ADD10R,0.0870X0.0240*%
%ADD11C,0.0480*%
%ADD12R,0.0472X0.0315*%
%ADD13R,0.0315X0.0472*%
%ADD14C,0.0740*%
%ADD15C,0.0531*%
%ADD16OC8,0.0740*%
%ADD17C,0.0560*%
%ADD18C,0.0079*%
%ADD19C,0.0236*%
%ADD20C,0.0160*%
%ADD21C,0.0315*%
%ADD22C,0.1502*%
D10*
X009680Y006865D03*
X009680Y007365D03*
X009680Y007865D03*
X009680Y008365D03*
X011740Y008365D03*
X011740Y007865D03*
X011740Y007365D03*
X011740Y006865D03*
D11*
X014690Y016375D03*
X014690Y018275D03*
D12*
X007560Y007799D03*
X007560Y007091D03*
D13*
X013325Y007855D03*
X014034Y007855D03*
D14*
X015320Y008025D03*
X015320Y007025D03*
X015320Y006025D03*
X012190Y011825D03*
X012190Y012825D03*
X012190Y013825D03*
X012190Y015825D03*
X011690Y018825D03*
X010690Y018825D03*
X009690Y018825D03*
X008690Y018825D03*
X007690Y018825D03*
X006690Y018825D03*
X006190Y009825D03*
X006190Y008825D03*
X006190Y007825D03*
X006190Y006825D03*
D15*
X012190Y010825D03*
D16*
X008230Y016135D03*
X008230Y017135D03*
X007230Y017135D03*
X007230Y016135D03*
X006230Y016135D03*
X006230Y017135D03*
X005230Y017135D03*
X005230Y016135D03*
D17*
X014500Y014045D03*
X014500Y013045D03*
X014500Y012045D03*
X014500Y011045D03*
X015500Y010545D03*
X015500Y011545D03*
X015500Y012545D03*
X015500Y013545D03*
D18*
X015470Y013485D01*
X015470Y013205D01*
X015400Y013205D01*
X014840Y012645D01*
X014770Y012645D01*
X014630Y012505D01*
X014350Y012505D01*
X013720Y011875D01*
X013650Y011875D01*
X013650Y013625D01*
X012530Y014745D01*
X011789Y014745D01*
X011270Y015264D01*
X011270Y016145D01*
X010220Y015165D02*
X010220Y012785D01*
X012180Y012785D01*
X012190Y012825D01*
X012180Y013765D02*
X012190Y013825D01*
X012180Y013765D02*
X011200Y013765D01*
X010500Y013065D01*
X010010Y012247D02*
X010010Y015095D01*
X008470Y016635D01*
X006720Y016635D01*
X006230Y017125D01*
X006230Y017135D01*
X006440Y016635D02*
X004970Y016635D01*
X004690Y016355D01*
X004690Y010464D01*
X005309Y009845D01*
X006160Y009845D01*
X006190Y009825D01*
X006230Y009775D01*
X007210Y009775D01*
X008050Y008935D01*
X008050Y008655D02*
X008120Y008655D01*
X008890Y009425D01*
X012600Y009425D01*
X012600Y010965D01*
X012320Y011245D01*
X009483Y011245D01*
X008260Y012469D01*
X008260Y016075D01*
X008230Y016135D01*
X008260Y017125D02*
X008230Y017135D01*
X008260Y017125D02*
X010220Y015165D01*
X010010Y012247D02*
X010381Y011875D01*
X012180Y011875D01*
X012190Y011825D01*
X011970Y011035D02*
X008190Y011035D01*
X006230Y012995D01*
X006230Y016135D01*
X006650Y016425D02*
X006440Y016635D01*
X006650Y016425D02*
X006930Y016425D01*
X007210Y016145D01*
X007230Y016135D01*
X007230Y017135D02*
X007210Y017195D01*
X006720Y017685D01*
X005040Y017685D01*
X004480Y017125D01*
X004480Y008459D01*
X005054Y007885D01*
X006160Y007885D01*
X006190Y007825D01*
X006230Y007885D01*
X006580Y007885D01*
X007140Y008445D01*
X007350Y008445D01*
X007420Y008375D01*
X008050Y008655D02*
X008050Y007535D01*
X007560Y007091D02*
X007560Y006324D01*
X007748Y006135D01*
X008190Y006135D01*
X009170Y007115D01*
X010220Y007115D01*
X010500Y006835D01*
X011690Y006835D01*
X011740Y006865D01*
X011830Y007255D02*
X011760Y007325D01*
X011740Y007365D01*
X011830Y007255D02*
X012740Y007255D01*
X013930Y006065D01*
X015260Y006065D01*
X015320Y006025D01*
X015320Y007025D02*
X015260Y007045D01*
X014840Y007045D01*
X014070Y007815D01*
X014034Y007855D01*
X013370Y007885D02*
X013325Y007855D01*
X013300Y007815D01*
X011760Y007815D01*
X011740Y007865D01*
X010640Y008585D02*
X011060Y009005D01*
X012460Y009005D01*
X013930Y010475D01*
X013650Y010475D01*
X013650Y011805D01*
X013720Y011875D01*
X014500Y012045D02*
X014560Y012085D01*
X014910Y012435D01*
X015190Y012435D01*
X015260Y012505D01*
X015470Y012505D01*
X015500Y012545D01*
X015500Y011545D02*
X015540Y011525D01*
X015750Y011315D01*
X015927Y011315D01*
X016240Y011003D01*
X016240Y010195D01*
X015820Y009775D01*
X015260Y009775D01*
X013370Y007885D01*
X011760Y006205D02*
X011900Y006065D01*
X011760Y006205D02*
X010430Y006205D01*
X009800Y006835D01*
X009730Y006835D01*
X009680Y006865D01*
X009660Y007325D02*
X009680Y007365D01*
X009730Y007325D01*
X010640Y007325D01*
X010640Y008585D01*
X010150Y008795D02*
X009730Y008375D01*
X009680Y008365D01*
X009730Y007885D02*
X009730Y007865D01*
X009730Y007885D02*
X009680Y007865D01*
X009660Y007325D02*
X008960Y007325D01*
X008050Y006415D01*
X008050Y008655D02*
X006370Y008655D01*
X006230Y008795D01*
X006190Y008825D01*
X011970Y011035D02*
X012180Y010825D01*
X012190Y010825D01*
X013930Y010475D02*
X014500Y011045D01*
X008811Y018215D02*
X008820Y018245D01*
D19*
X011270Y016145D03*
X010500Y013065D03*
X008050Y008935D03*
X007420Y008375D03*
X008050Y007535D03*
X008050Y006415D03*
X010150Y008795D03*
X011900Y006065D03*
D20*
X011988Y005714D02*
X014788Y005714D01*
X014802Y005679D02*
X014974Y005508D01*
X015198Y005415D01*
X015441Y005415D01*
X015665Y005508D01*
X015693Y005536D01*
X015839Y005185D01*
X005836Y005246D01*
X005986Y005608D01*
X005986Y006002D01*
X005862Y006300D01*
X006068Y006215D01*
X006311Y006215D01*
X006535Y006308D01*
X006707Y006479D01*
X006799Y006704D01*
X006799Y006946D01*
X006707Y007171D01*
X006552Y007325D01*
X006707Y007479D01*
X006799Y007704D01*
X006799Y007710D01*
X006816Y007727D01*
X007189Y008099D01*
X007200Y008088D01*
X007179Y008067D01*
X007156Y008026D01*
X007143Y007981D01*
X007143Y007799D01*
X007143Y007618D01*
X007156Y007572D01*
X007179Y007531D01*
X007213Y007498D01*
X007249Y007477D01*
X007187Y007452D01*
X007120Y007384D01*
X007083Y007296D01*
X007083Y006885D01*
X007120Y006797D01*
X007187Y006730D01*
X007276Y006693D01*
X007280Y006693D01*
X007280Y006268D01*
X007323Y006165D01*
X007401Y006087D01*
X007590Y005898D01*
X007693Y005856D01*
X008245Y005856D01*
X008348Y005898D01*
X009050Y006600D01*
X009109Y006542D01*
X009197Y006505D01*
X009734Y006505D01*
X010271Y005968D01*
X010374Y005926D01*
X011570Y005926D01*
X011596Y005862D01*
X011697Y005761D01*
X011828Y005707D01*
X011971Y005707D01*
X012102Y005761D01*
X012203Y005862D01*
X012258Y005994D01*
X012258Y006136D01*
X012203Y006268D01*
X012102Y006369D01*
X011971Y006423D01*
X011936Y006423D01*
X011918Y006442D01*
X011815Y006484D01*
X010545Y006484D01*
X010474Y006556D01*
X011154Y006556D01*
X011169Y006542D01*
X011257Y006505D01*
X012222Y006505D01*
X012310Y006542D01*
X012378Y006609D01*
X012414Y006697D01*
X012414Y006976D01*
X012624Y006976D01*
X013693Y005907D01*
X013771Y005828D01*
X013874Y005786D01*
X014758Y005786D01*
X014802Y005679D01*
X014926Y005556D02*
X005964Y005556D01*
X005986Y005714D02*
X011811Y005714D01*
X011592Y005873D02*
X008286Y005873D01*
X008481Y006031D02*
X010208Y006031D01*
X010050Y006190D02*
X008639Y006190D01*
X008798Y006348D02*
X009891Y006348D01*
X010523Y006507D02*
X011253Y006507D01*
X011098Y007114D02*
X010824Y007114D01*
X010876Y007167D01*
X010919Y007269D01*
X010919Y008469D01*
X011175Y008726D01*
X012515Y008726D01*
X012618Y008768D01*
X012696Y008847D01*
X014088Y010238D01*
X014166Y010317D01*
X014381Y010531D01*
X014396Y010525D01*
X014603Y010525D01*
X014794Y010604D01*
X014940Y010750D01*
X015019Y010942D01*
X015019Y011148D01*
X014940Y011340D01*
X014794Y011486D01*
X014651Y011545D01*
X014794Y011604D01*
X014940Y011750D01*
X015019Y011942D01*
X015019Y012148D01*
X015019Y012149D01*
X015025Y012156D01*
X015153Y012156D01*
X015205Y012104D01*
X015348Y012045D01*
X015205Y011986D01*
X015059Y011840D01*
X014980Y011648D01*
X014980Y011442D01*
X015059Y011250D01*
X015205Y011104D01*
X015396Y011025D01*
X015603Y011025D01*
X015661Y011049D01*
X015694Y011036D01*
X015812Y011036D01*
X015960Y010887D01*
X015960Y010311D01*
X015704Y010054D01*
X015204Y010054D01*
X015101Y010012D01*
X013421Y008331D01*
X013120Y008331D01*
X013032Y008295D01*
X012964Y008227D01*
X012928Y008139D01*
X012928Y008094D01*
X012389Y008094D01*
X012380Y008115D01*
X012414Y008197D01*
X012414Y008533D01*
X012378Y008621D01*
X012310Y008688D01*
X012222Y008725D01*
X011257Y008725D01*
X011169Y008688D01*
X011101Y008621D01*
X011065Y008533D01*
X011065Y008197D01*
X011099Y008115D01*
X011065Y008033D01*
X011065Y007697D01*
X011099Y007615D01*
X011065Y007533D01*
X011065Y007197D01*
X011099Y007115D01*
X011098Y007114D01*
X011088Y007141D02*
X010850Y007141D01*
X010919Y007299D02*
X011065Y007299D01*
X011065Y007458D02*
X010919Y007458D01*
X010919Y007616D02*
X011098Y007616D01*
X011065Y007775D02*
X010919Y007775D01*
X010919Y007933D02*
X011065Y007933D01*
X011089Y008092D02*
X010919Y008092D01*
X010919Y008250D02*
X011065Y008250D01*
X011065Y008409D02*
X010919Y008409D01*
X011017Y008567D02*
X011079Y008567D01*
X011175Y008726D02*
X013815Y008726D01*
X013973Y008884D02*
X012734Y008884D01*
X012892Y009043D02*
X014132Y009043D01*
X014290Y009201D02*
X013051Y009201D01*
X013209Y009360D02*
X014449Y009360D01*
X014607Y009518D02*
X013368Y009518D01*
X013526Y009677D02*
X014766Y009677D01*
X014924Y009835D02*
X013685Y009835D01*
X013843Y009994D02*
X015083Y009994D01*
X015200Y010194D02*
X015149Y010245D01*
X015106Y010304D01*
X015073Y010368D01*
X015051Y010437D01*
X015040Y010509D01*
X015040Y010545D01*
X015499Y010545D01*
X015499Y010545D01*
X015039Y010545D01*
X015040Y010581D01*
X015051Y010653D01*
X015073Y010722D01*
X015106Y010786D01*
X014955Y010786D01*
X015106Y010786D02*
X015149Y010845D01*
X015200Y010896D01*
X015258Y010938D01*
X015323Y010971D01*
X015392Y010994D01*
X015463Y011005D01*
X015499Y011005D01*
X015499Y010545D01*
X015500Y010545D01*
X015959Y010545D01*
X015959Y010581D01*
X015948Y010653D01*
X015926Y010722D01*
X015893Y010786D01*
X015960Y010786D01*
X015893Y010786D02*
X015850Y010845D01*
X015799Y010896D01*
X015741Y010938D01*
X015676Y010971D01*
X015607Y010994D01*
X015536Y011005D01*
X015500Y011005D01*
X015500Y010545D01*
X015500Y010545D01*
X015959Y010545D01*
X015959Y010509D01*
X015948Y010437D01*
X015926Y010368D01*
X015893Y010304D01*
X015850Y010245D01*
X015799Y010194D01*
X015741Y010152D01*
X015801Y010152D01*
X015741Y010152D02*
X015676Y010119D01*
X015607Y010096D01*
X015536Y010085D01*
X015500Y010085D01*
X015500Y010545D01*
X015499Y010545D01*
X015499Y010085D01*
X015463Y010085D01*
X015392Y010096D01*
X015323Y010119D01*
X015258Y010152D01*
X014002Y010152D01*
X014088Y010238D02*
X014088Y010238D01*
X014160Y010311D02*
X015103Y010311D01*
X015200Y010194D02*
X015258Y010152D01*
X015499Y010152D02*
X015500Y010152D01*
X015499Y010311D02*
X015500Y010311D01*
X015499Y010469D02*
X015500Y010469D01*
X015499Y010628D02*
X015500Y010628D01*
X015499Y010786D02*
X015500Y010786D01*
X015499Y010945D02*
X015500Y010945D01*
X015270Y010945D02*
X015019Y010945D01*
X015019Y011103D02*
X015208Y011103D01*
X015054Y011262D02*
X014973Y011262D01*
X014988Y011420D02*
X014860Y011420D01*
X014980Y011579D02*
X014732Y011579D01*
X014927Y011737D02*
X015016Y011737D01*
X015000Y011896D02*
X015115Y011896D01*
X015019Y012054D02*
X015326Y012054D01*
X015651Y012045D02*
X015794Y012104D01*
X015940Y012250D01*
X016019Y012442D01*
X016019Y012648D01*
X015940Y012840D01*
X015794Y012986D01*
X015689Y013029D01*
X015706Y013047D01*
X015717Y013072D01*
X015794Y013104D01*
X015940Y013250D01*
X016019Y013442D01*
X016019Y013648D01*
X015940Y013840D01*
X015794Y013986D01*
X015603Y014065D01*
X015396Y014065D01*
X015205Y013986D01*
X015059Y013840D01*
X014980Y013648D01*
X014980Y013442D01*
X015056Y013257D01*
X014999Y013199D01*
X014940Y013340D01*
X014794Y013486D01*
X014603Y013565D01*
X014396Y013565D01*
X014205Y013486D01*
X014059Y013340D01*
X013980Y013148D01*
X013980Y012942D01*
X014059Y012750D01*
X014129Y012680D01*
X013929Y012479D01*
X013929Y013681D01*
X013886Y013783D01*
X013808Y013862D01*
X012688Y014982D01*
X012585Y015024D01*
X011904Y015024D01*
X011549Y015380D01*
X011549Y015918D01*
X011573Y015942D01*
X011628Y016074D01*
X011628Y016216D01*
X011573Y016348D01*
X011472Y016449D01*
X011341Y016503D01*
X011198Y016503D01*
X011067Y016449D01*
X010966Y016348D01*
X010911Y016216D01*
X010911Y016074D01*
X010966Y015942D01*
X010990Y015918D01*
X010990Y015209D01*
X011033Y015106D01*
X011111Y015027D01*
X011630Y014508D01*
X011733Y014466D01*
X012414Y014466D01*
X013370Y013509D01*
X013370Y010419D01*
X013402Y010343D01*
X012879Y009819D01*
X012879Y011021D01*
X012836Y011123D01*
X012758Y011202D01*
X012593Y011366D01*
X012707Y011479D01*
X012799Y011704D01*
X012799Y011946D01*
X012707Y012171D01*
X012552Y012325D01*
X012707Y012479D01*
X012799Y012704D01*
X012799Y012946D01*
X012707Y013171D01*
X012552Y013325D01*
X012707Y013479D01*
X012799Y013704D01*
X012799Y013946D01*
X012707Y014171D01*
X012535Y014342D01*
X012311Y014435D01*
X012068Y014435D01*
X011844Y014342D01*
X011672Y014171D01*
X011620Y014044D01*
X011144Y014044D01*
X011041Y014002D01*
X010963Y013923D01*
X010499Y013459D01*
X010499Y015221D01*
X010456Y015323D01*
X010378Y015402D01*
X008839Y016940D01*
X008839Y017388D01*
X008482Y017745D01*
X007977Y017745D01*
X007729Y017498D01*
X007482Y017745D01*
X007055Y017745D01*
X006956Y017843D01*
X006878Y017922D01*
X006775Y017964D01*
X004984Y017964D01*
X004881Y017922D01*
X004426Y017467D01*
X004428Y018810D01*
X004463Y018775D01*
X004827Y018624D01*
X005222Y018624D01*
X005586Y018775D01*
X005865Y019054D01*
X006016Y019418D01*
X006016Y019812D01*
X005865Y020176D01*
X005853Y020189D01*
X015910Y020182D01*
X015904Y020176D01*
X015753Y019812D01*
X015753Y019418D01*
X015904Y019054D01*
X016183Y018775D01*
X016547Y018624D01*
X016942Y018624D01*
X017306Y018775D01*
X017314Y018783D01*
X017275Y006551D01*
X017241Y006585D01*
X016877Y006736D01*
X016482Y006736D01*
X016118Y006585D01*
X015856Y006323D01*
X015837Y006371D01*
X015682Y006525D01*
X015837Y006679D01*
X015929Y006904D01*
X015929Y007146D01*
X015837Y007371D01*
X015682Y007525D01*
X015837Y007679D01*
X015929Y007904D01*
X015929Y008146D01*
X015837Y008371D01*
X015665Y008542D01*
X015441Y008635D01*
X015198Y008635D01*
X014974Y008542D01*
X014802Y008371D01*
X014710Y008146D01*
X014710Y007904D01*
X014802Y007679D01*
X014957Y007525D01*
X014856Y007424D01*
X014431Y007848D01*
X014431Y008139D01*
X014395Y008227D01*
X014327Y008295D01*
X014239Y008331D01*
X014211Y008331D01*
X015375Y009496D01*
X015875Y009496D01*
X015978Y009538D01*
X016398Y009958D01*
X016476Y010037D01*
X016519Y010139D01*
X016519Y011058D01*
X016476Y011161D01*
X016398Y011240D01*
X016086Y011552D01*
X016019Y011579D01*
X016019Y011648D01*
X015940Y011840D01*
X015794Y011986D01*
X015651Y012045D01*
X015673Y012054D02*
X017293Y012054D01*
X017292Y011896D02*
X015884Y011896D01*
X015983Y011737D02*
X017292Y011737D01*
X017291Y011579D02*
X016021Y011579D01*
X016217Y011420D02*
X017291Y011420D01*
X017290Y011262D02*
X016376Y011262D01*
X016500Y011103D02*
X017289Y011103D01*
X017289Y010945D02*
X016519Y010945D01*
X016519Y010786D02*
X017288Y010786D01*
X017288Y010628D02*
X016519Y010628D01*
X016519Y010469D02*
X017287Y010469D01*
X017287Y010311D02*
X016519Y010311D01*
X016519Y010152D02*
X017286Y010152D01*
X017286Y009994D02*
X016433Y009994D01*
X016398Y009958D02*
X016398Y009958D01*
X016275Y009835D02*
X017285Y009835D01*
X017285Y009677D02*
X016116Y009677D01*
X015929Y009518D02*
X017284Y009518D01*
X017284Y009360D02*
X015239Y009360D01*
X015081Y009201D02*
X017283Y009201D01*
X017283Y009043D02*
X014922Y009043D01*
X014764Y008884D02*
X017282Y008884D01*
X017282Y008726D02*
X014605Y008726D01*
X014447Y008567D02*
X015034Y008567D01*
X014840Y008409D02*
X014288Y008409D01*
X014372Y008250D02*
X014752Y008250D01*
X014710Y008092D02*
X014431Y008092D01*
X014431Y007933D02*
X014710Y007933D01*
X014763Y007775D02*
X014505Y007775D01*
X014664Y007616D02*
X014866Y007616D01*
X014889Y007458D02*
X014822Y007458D01*
X015701Y006507D02*
X016039Y006507D01*
X015881Y006348D02*
X015846Y006348D01*
X015822Y006665D02*
X016311Y006665D01*
X015929Y006982D02*
X017276Y006982D01*
X017276Y006824D02*
X015896Y006824D01*
X015929Y007141D02*
X017277Y007141D01*
X017277Y007299D02*
X015866Y007299D01*
X015750Y007458D02*
X017278Y007458D01*
X017278Y007616D02*
X015773Y007616D01*
X015876Y007775D02*
X017279Y007775D01*
X017279Y007933D02*
X015929Y007933D01*
X015929Y008092D02*
X017280Y008092D01*
X017280Y008250D02*
X015887Y008250D01*
X015799Y008409D02*
X017281Y008409D01*
X017281Y008567D02*
X015605Y008567D01*
X015896Y010311D02*
X015960Y010311D01*
X015953Y010469D02*
X015960Y010469D01*
X015952Y010628D02*
X015960Y010628D01*
X015903Y010945D02*
X015729Y010945D01*
X015047Y010628D02*
X014817Y010628D01*
X015046Y010469D02*
X014319Y010469D01*
X014166Y010317D02*
X014166Y010317D01*
X013370Y010311D02*
X012879Y010311D01*
X012879Y010469D02*
X013370Y010469D01*
X013370Y010628D02*
X012879Y010628D01*
X012879Y010786D02*
X013370Y010786D01*
X013370Y010945D02*
X012879Y010945D01*
X012845Y011103D02*
X013370Y011103D01*
X013370Y011262D02*
X012698Y011262D01*
X012647Y011420D02*
X013370Y011420D01*
X013370Y011579D02*
X012748Y011579D01*
X012799Y011737D02*
X013370Y011737D01*
X013370Y011896D02*
X012799Y011896D01*
X012755Y012054D02*
X013370Y012054D01*
X013370Y012213D02*
X012665Y012213D01*
X012598Y012371D02*
X013370Y012371D01*
X013370Y012530D02*
X012727Y012530D01*
X012793Y012688D02*
X013370Y012688D01*
X013370Y012847D02*
X012799Y012847D01*
X012775Y013005D02*
X013370Y013005D01*
X013370Y013164D02*
X012710Y013164D01*
X012555Y013322D02*
X013370Y013322D01*
X013370Y013481D02*
X012707Y013481D01*
X012773Y013639D02*
X013240Y013639D01*
X013082Y013798D02*
X012799Y013798D01*
X012795Y013956D02*
X012923Y013956D01*
X012765Y014115D02*
X012730Y014115D01*
X012606Y014273D02*
X012604Y014273D01*
X012448Y014432D02*
X012319Y014432D01*
X012060Y014432D02*
X010499Y014432D01*
X010499Y014590D02*
X011549Y014590D01*
X011390Y014749D02*
X010499Y014749D01*
X010499Y014907D02*
X011232Y014907D01*
X011073Y015066D02*
X010499Y015066D01*
X010497Y015224D02*
X010990Y015224D01*
X010990Y015383D02*
X010397Y015383D01*
X010239Y015541D02*
X010990Y015541D01*
X010990Y015700D02*
X010080Y015700D01*
X009922Y015858D02*
X010990Y015858D01*
X010935Y016017D02*
X009763Y016017D01*
X009605Y016175D02*
X010911Y016175D01*
X010960Y016334D02*
X009446Y016334D01*
X009288Y016492D02*
X011172Y016492D01*
X011367Y016492D02*
X014218Y016492D01*
X014210Y016470D02*
X014210Y016280D01*
X014283Y016103D01*
X014418Y015968D01*
X014594Y015895D01*
X014785Y015895D01*
X014961Y015968D01*
X015096Y016103D01*
X015169Y016280D01*
X015169Y016470D01*
X015096Y016647D01*
X014961Y016782D01*
X014785Y016855D01*
X014594Y016855D01*
X014418Y016782D01*
X014283Y016647D01*
X014210Y016470D01*
X014210Y016334D02*
X012544Y016334D01*
X012535Y016342D02*
X012311Y016435D01*
X012068Y016435D01*
X011844Y016342D01*
X011672Y016171D01*
X011580Y015946D01*
X011580Y015704D01*
X011672Y015479D01*
X011844Y015308D01*
X012068Y015215D01*
X012311Y015215D01*
X012535Y015308D01*
X012707Y015479D01*
X012799Y015704D01*
X012799Y015946D01*
X012707Y016171D01*
X012535Y016342D01*
X012702Y016175D02*
X014253Y016175D01*
X014369Y016017D02*
X012770Y016017D01*
X012799Y015858D02*
X017305Y015858D01*
X017304Y015700D02*
X012798Y015700D01*
X012732Y015541D02*
X017304Y015541D01*
X017303Y015383D02*
X012610Y015383D01*
X012333Y015224D02*
X017303Y015224D01*
X017302Y015066D02*
X015730Y015066D01*
X015659Y015137D02*
X015810Y014986D01*
X015891Y014789D01*
X015891Y014576D01*
X015810Y014380D01*
X015659Y014229D01*
X015462Y014148D01*
X015249Y014148D01*
X015053Y014229D01*
X014902Y014380D01*
X014821Y014576D01*
X014821Y014789D01*
X014902Y014986D01*
X015053Y015137D01*
X015249Y015218D01*
X015462Y015218D01*
X015659Y015137D01*
X015842Y014907D02*
X017302Y014907D01*
X017301Y014749D02*
X015891Y014749D01*
X015891Y014590D02*
X017301Y014590D01*
X017300Y014432D02*
X015831Y014432D01*
X015703Y014273D02*
X017300Y014273D01*
X017299Y014115D02*
X014954Y014115D01*
X014959Y014081D02*
X014948Y014153D01*
X014926Y014222D01*
X014893Y014286D01*
X014850Y014345D01*
X014799Y014396D01*
X014741Y014438D01*
X014676Y014471D01*
X014607Y014494D01*
X014536Y014505D01*
X014500Y014505D01*
X014500Y014045D01*
X014959Y014045D01*
X014959Y014081D01*
X014959Y014045D02*
X014500Y014045D01*
X014500Y014045D01*
X014499Y014045D01*
X014040Y014045D01*
X014040Y014009D01*
X014051Y013937D01*
X014073Y013868D01*
X014106Y013804D01*
X014149Y013745D01*
X014200Y013694D01*
X014258Y013652D01*
X014323Y013619D01*
X014392Y013596D01*
X014463Y013585D01*
X014499Y013585D01*
X014499Y014045D01*
X014499Y014045D01*
X014039Y014045D01*
X014040Y014081D01*
X014051Y014153D01*
X014073Y014222D01*
X014106Y014286D01*
X014149Y014345D01*
X014200Y014396D01*
X014258Y014438D01*
X014323Y014471D01*
X014392Y014494D01*
X014463Y014505D01*
X014499Y014505D01*
X014499Y014045D01*
X014500Y014045D01*
X014500Y013585D01*
X014536Y013585D01*
X014607Y013596D01*
X014676Y013619D01*
X014741Y013652D01*
X014799Y013694D01*
X014850Y013745D01*
X014893Y013804D01*
X014926Y013868D01*
X014948Y013937D01*
X014959Y014009D01*
X014959Y014045D01*
X014951Y013956D02*
X015175Y013956D01*
X015041Y013798D02*
X014888Y013798D01*
X014980Y013639D02*
X014716Y013639D01*
X014799Y013481D02*
X014980Y013481D01*
X014948Y013322D02*
X015029Y013322D01*
X014500Y013639D02*
X014499Y013639D01*
X014499Y013798D02*
X014500Y013798D01*
X014499Y013956D02*
X014500Y013956D01*
X014499Y014115D02*
X014500Y014115D01*
X014499Y014273D02*
X014500Y014273D01*
X014499Y014432D02*
X014500Y014432D01*
X014750Y014432D02*
X014881Y014432D01*
X014900Y014273D02*
X015009Y014273D01*
X014821Y014590D02*
X013080Y014590D01*
X013238Y014432D02*
X014249Y014432D01*
X014099Y014273D02*
X013397Y014273D01*
X013555Y014115D02*
X014045Y014115D01*
X014048Y013956D02*
X013714Y013956D01*
X013872Y013798D02*
X014111Y013798D01*
X014283Y013639D02*
X013929Y013639D01*
X013929Y013481D02*
X014200Y013481D01*
X014051Y013322D02*
X013929Y013322D01*
X013929Y013164D02*
X013986Y013164D01*
X013980Y013005D02*
X013929Y013005D01*
X013929Y012847D02*
X014019Y012847D01*
X013929Y012688D02*
X014121Y012688D01*
X013979Y012530D02*
X013929Y012530D01*
X012320Y010332D02*
X012320Y009704D01*
X008834Y009704D01*
X008731Y009662D01*
X008280Y009211D01*
X008252Y009239D01*
X008121Y009293D01*
X008086Y009293D01*
X007446Y009933D01*
X007368Y010012D01*
X007265Y010054D01*
X006755Y010054D01*
X006707Y010171D01*
X006535Y010342D01*
X006311Y010435D01*
X006068Y010435D01*
X005844Y010342D01*
X005672Y010171D01*
X005653Y010124D01*
X005424Y010124D01*
X004969Y010580D01*
X004969Y015618D01*
X005002Y015585D01*
X005209Y015585D01*
X005209Y016115D01*
X005250Y016115D01*
X005250Y015585D01*
X005457Y015585D01*
X005687Y015815D01*
X005950Y015552D01*
X005950Y012939D01*
X005993Y012837D01*
X006071Y012758D01*
X008031Y010798D01*
X008134Y010756D01*
X011684Y010756D01*
X011684Y010724D01*
X011761Y010539D01*
X011903Y010396D01*
X012089Y010319D01*
X012290Y010319D01*
X012320Y010332D01*
X012320Y010311D02*
X006567Y010311D01*
X006714Y010152D02*
X012320Y010152D01*
X012320Y009994D02*
X007386Y009994D01*
X007545Y009835D02*
X012320Y009835D01*
X011830Y010469D02*
X005080Y010469D01*
X004969Y010628D02*
X011724Y010628D01*
X012879Y010152D02*
X013211Y010152D01*
X013053Y009994D02*
X012879Y009994D01*
X012879Y009835D02*
X012894Y009835D01*
X012400Y008567D02*
X013656Y008567D01*
X013498Y008409D02*
X012414Y008409D01*
X012414Y008250D02*
X012987Y008250D01*
X012776Y006824D02*
X012414Y006824D01*
X012401Y006665D02*
X012934Y006665D01*
X013093Y006507D02*
X012226Y006507D01*
X012123Y006348D02*
X013251Y006348D01*
X013410Y006190D02*
X012236Y006190D01*
X012258Y006031D02*
X013568Y006031D01*
X013727Y005873D02*
X012207Y005873D01*
X010360Y007604D02*
X010360Y008499D01*
X010354Y008494D01*
X010354Y008197D01*
X010318Y008109D01*
X010275Y008066D01*
X010282Y008054D01*
X010294Y008009D01*
X010294Y007865D01*
X009680Y007865D01*
X009680Y007865D01*
X010294Y007865D01*
X010294Y007721D01*
X010282Y007676D01*
X010275Y007664D01*
X010318Y007621D01*
X010325Y007604D01*
X010360Y007604D01*
X010360Y007616D02*
X010320Y007616D01*
X010294Y007775D02*
X010360Y007775D01*
X010360Y007933D02*
X010294Y007933D01*
X010300Y008092D02*
X010360Y008092D01*
X010354Y008250D02*
X010360Y008250D01*
X010354Y008409D02*
X010360Y008409D01*
X009791Y008866D02*
X009846Y008998D01*
X009947Y009099D01*
X010060Y009146D01*
X009005Y009146D01*
X008356Y008497D01*
X008329Y008469D01*
X008329Y007762D01*
X008353Y007738D01*
X008408Y007606D01*
X008408Y007464D01*
X008353Y007332D01*
X008252Y007231D01*
X008121Y007177D01*
X008036Y007177D01*
X008036Y006885D01*
X007999Y006797D01*
X007973Y006771D01*
X007978Y006773D01*
X008013Y006773D01*
X008723Y007483D01*
X008801Y007562D01*
X008904Y007604D01*
X009034Y007604D01*
X009041Y007621D01*
X009084Y007664D01*
X009077Y007676D01*
X009065Y007721D01*
X009065Y007865D01*
X009679Y007865D01*
X009679Y007865D01*
X009064Y007865D01*
X009065Y008009D01*
X009077Y008054D01*
X009084Y008066D01*
X009041Y008109D01*
X009005Y008197D01*
X009005Y008533D01*
X009041Y008621D01*
X009109Y008688D01*
X009197Y008725D01*
X009684Y008725D01*
X009791Y008832D01*
X009791Y008866D01*
X009799Y008884D02*
X008744Y008884D01*
X008902Y009043D02*
X009891Y009043D01*
X009685Y008726D02*
X008585Y008726D01*
X008427Y008567D02*
X009019Y008567D01*
X009005Y008409D02*
X008329Y008409D01*
X008329Y008250D02*
X009005Y008250D01*
X009059Y008092D02*
X008329Y008092D01*
X008329Y007933D02*
X009065Y007933D01*
X009065Y007775D02*
X008329Y007775D01*
X008404Y007616D02*
X009039Y007616D01*
X008697Y007458D02*
X008405Y007458D01*
X008320Y007299D02*
X008538Y007299D01*
X008380Y007141D02*
X008036Y007141D01*
X008036Y006982D02*
X008221Y006982D01*
X008063Y006824D02*
X008010Y006824D01*
X007280Y006665D02*
X006783Y006665D01*
X006799Y006824D02*
X007109Y006824D01*
X007083Y006982D02*
X006785Y006982D01*
X006719Y007141D02*
X007083Y007141D01*
X007085Y007299D02*
X006578Y007299D01*
X006685Y007458D02*
X007202Y007458D01*
X007144Y007616D02*
X006763Y007616D01*
X006864Y007775D02*
X007143Y007775D01*
X007143Y007799D02*
X007559Y007799D01*
X007559Y007799D01*
X007143Y007799D01*
X007143Y007933D02*
X007023Y007933D01*
X007181Y008092D02*
X007197Y008092D01*
X008020Y009360D02*
X008429Y009360D01*
X008587Y009518D02*
X007862Y009518D01*
X007703Y009677D02*
X008767Y009677D01*
X008061Y010786D02*
X004969Y010786D01*
X004969Y010945D02*
X007885Y010945D01*
X007726Y011103D02*
X004969Y011103D01*
X004969Y011262D02*
X007568Y011262D01*
X007409Y011420D02*
X004969Y011420D01*
X004969Y011579D02*
X007251Y011579D01*
X007092Y011737D02*
X004969Y011737D01*
X004969Y011896D02*
X006934Y011896D01*
X006775Y012054D02*
X004969Y012054D01*
X004969Y012213D02*
X006617Y012213D01*
X006458Y012371D02*
X004969Y012371D01*
X004969Y012530D02*
X006300Y012530D01*
X006141Y012688D02*
X004969Y012688D01*
X004969Y012847D02*
X005989Y012847D01*
X005950Y013005D02*
X004969Y013005D01*
X004969Y013164D02*
X005950Y013164D01*
X005950Y013322D02*
X004969Y013322D01*
X004969Y013481D02*
X005950Y013481D01*
X005950Y013639D02*
X004969Y013639D01*
X004969Y013798D02*
X005950Y013798D01*
X005950Y013956D02*
X004969Y013956D01*
X004969Y014115D02*
X005950Y014115D01*
X005950Y014273D02*
X004969Y014273D01*
X004969Y014432D02*
X005950Y014432D01*
X005950Y014590D02*
X004969Y014590D01*
X004969Y014749D02*
X005950Y014749D01*
X005950Y014907D02*
X004969Y014907D01*
X004969Y015066D02*
X005950Y015066D01*
X005950Y015224D02*
X004969Y015224D01*
X004969Y015383D02*
X005950Y015383D01*
X005950Y015541D02*
X004969Y015541D01*
X005209Y015700D02*
X005250Y015700D01*
X005250Y015858D02*
X005209Y015858D01*
X005209Y016017D02*
X005250Y016017D01*
X005572Y015700D02*
X005802Y015700D01*
X004561Y017602D02*
X004427Y017602D01*
X004427Y017760D02*
X004719Y017760D01*
X004878Y017919D02*
X004427Y017919D01*
X004427Y018077D02*
X014252Y018077D01*
X014283Y018003D02*
X014210Y018180D01*
X014210Y018370D01*
X014283Y018547D01*
X014418Y018682D01*
X014594Y018755D01*
X014785Y018755D01*
X014961Y018682D01*
X015096Y018547D01*
X015169Y018370D01*
X015169Y018180D01*
X015096Y018003D01*
X014961Y017868D01*
X014785Y017795D01*
X014594Y017795D01*
X014418Y017868D01*
X014283Y018003D01*
X014367Y017919D02*
X006881Y017919D01*
X007040Y017760D02*
X017311Y017760D01*
X017310Y017602D02*
X008626Y017602D01*
X008784Y017443D02*
X017310Y017443D01*
X017309Y017285D02*
X008839Y017285D01*
X008839Y017126D02*
X017309Y017126D01*
X017308Y016968D02*
X008839Y016968D01*
X008971Y016809D02*
X014483Y016809D01*
X014286Y016651D02*
X009129Y016651D01*
X008811Y018215D02*
X008568Y018215D01*
X008344Y018308D01*
X008190Y018462D01*
X008035Y018308D01*
X007811Y018215D01*
X007568Y018215D01*
X007344Y018308D01*
X007190Y018462D01*
X007035Y018308D01*
X006811Y018215D01*
X006568Y018215D01*
X006344Y018308D01*
X006172Y018479D01*
X006080Y018704D01*
X006080Y018946D01*
X006172Y019171D01*
X006344Y019342D01*
X006568Y019435D01*
X006811Y019435D01*
X007035Y019342D01*
X007190Y019188D01*
X007344Y019342D01*
X007568Y019435D01*
X007811Y019435D01*
X008035Y019342D01*
X008190Y019188D01*
X008344Y019342D01*
X008568Y019435D01*
X008811Y019435D01*
X009035Y019342D01*
X009190Y019188D01*
X009344Y019342D01*
X009568Y019435D01*
X009811Y019435D01*
X010035Y019342D01*
X010207Y019171D01*
X010226Y019123D01*
X010270Y019183D01*
X010331Y019245D01*
X010401Y019295D01*
X010478Y019335D01*
X010561Y019361D01*
X010646Y019375D01*
X010669Y019375D01*
X010669Y018845D01*
X010710Y018845D01*
X010710Y019375D01*
X010733Y019375D01*
X010818Y019361D01*
X010901Y019335D01*
X010978Y019295D01*
X011048Y019245D01*
X011109Y019183D01*
X011153Y019123D01*
X011172Y019171D01*
X011344Y019342D01*
X011568Y019435D01*
X011811Y019435D01*
X012035Y019342D01*
X012207Y019171D01*
X012299Y018946D01*
X012299Y018704D01*
X012207Y018479D01*
X012035Y018308D01*
X011811Y018215D01*
X011568Y018215D01*
X011344Y018308D01*
X011172Y018479D01*
X011153Y018527D01*
X011109Y018467D01*
X011048Y018405D01*
X010978Y018355D01*
X010901Y018315D01*
X010818Y018289D01*
X010733Y018275D01*
X010710Y018275D01*
X010710Y018805D01*
X010669Y018805D01*
X010669Y018275D01*
X010646Y018275D01*
X010561Y018289D01*
X010478Y018315D01*
X010401Y018355D01*
X010331Y018405D01*
X010270Y018467D01*
X010226Y018527D01*
X010207Y018479D01*
X010035Y018308D01*
X009811Y018215D01*
X009568Y018215D01*
X009344Y018308D01*
X009190Y018462D01*
X009035Y018308D01*
X008811Y018215D01*
X008860Y018236D02*
X009519Y018236D01*
X009258Y018394D02*
X009121Y018394D01*
X008519Y018236D02*
X007860Y018236D01*
X007519Y018236D02*
X006860Y018236D01*
X007121Y018394D02*
X007258Y018394D01*
X006519Y018236D02*
X004427Y018236D01*
X004427Y018394D02*
X006258Y018394D01*
X006142Y018553D02*
X004428Y018553D01*
X004428Y018711D02*
X004617Y018711D01*
X005432Y018711D02*
X006080Y018711D01*
X006080Y018870D02*
X005681Y018870D01*
X005839Y019028D02*
X006113Y019028D01*
X006188Y019187D02*
X005920Y019187D01*
X005986Y019345D02*
X006351Y019345D01*
X006016Y019504D02*
X015753Y019504D01*
X015753Y019662D02*
X006016Y019662D01*
X006012Y019821D02*
X015757Y019821D01*
X015822Y019979D02*
X005947Y019979D01*
X005881Y020138D02*
X015888Y020138D01*
X015783Y019345D02*
X012028Y019345D01*
X012191Y019187D02*
X015849Y019187D01*
X015930Y019028D02*
X012266Y019028D01*
X012299Y018870D02*
X016088Y018870D01*
X016337Y018711D02*
X014891Y018711D01*
X015091Y018553D02*
X017314Y018553D01*
X017314Y018711D02*
X017152Y018711D01*
X017313Y018394D02*
X015160Y018394D01*
X015169Y018236D02*
X017313Y018236D01*
X017312Y018077D02*
X015127Y018077D01*
X015012Y017919D02*
X017311Y017919D01*
X017308Y016809D02*
X014896Y016809D01*
X015093Y016651D02*
X017307Y016651D01*
X017307Y016492D02*
X015161Y016492D01*
X015169Y016334D02*
X017306Y016334D01*
X017306Y016175D02*
X015126Y016175D01*
X015010Y016017D02*
X017305Y016017D01*
X017299Y013956D02*
X015824Y013956D01*
X015958Y013798D02*
X017298Y013798D01*
X017298Y013639D02*
X016019Y013639D01*
X016019Y013481D02*
X017297Y013481D01*
X017297Y013322D02*
X015970Y013322D01*
X015853Y013164D02*
X017296Y013164D01*
X017296Y013005D02*
X015748Y013005D01*
X015933Y012847D02*
X017295Y012847D01*
X017295Y012688D02*
X016003Y012688D01*
X016019Y012530D02*
X017294Y012530D01*
X017294Y012371D02*
X015990Y012371D01*
X015902Y012213D02*
X017293Y012213D01*
X014869Y014907D02*
X012763Y014907D01*
X012921Y014749D02*
X014821Y014749D01*
X014982Y015066D02*
X011863Y015066D01*
X011705Y015224D02*
X012046Y015224D01*
X011769Y015383D02*
X011549Y015383D01*
X011549Y015541D02*
X011647Y015541D01*
X011581Y015700D02*
X011549Y015700D01*
X011549Y015858D02*
X011580Y015858D01*
X011604Y016017D02*
X011609Y016017D01*
X011628Y016175D02*
X011677Y016175D01*
X011579Y016334D02*
X011835Y016334D01*
X011860Y018236D02*
X014210Y018236D01*
X014219Y018394D02*
X012121Y018394D01*
X012237Y018553D02*
X014288Y018553D01*
X014488Y018711D02*
X012299Y018711D01*
X011519Y018236D02*
X009860Y018236D01*
X010121Y018394D02*
X010347Y018394D01*
X010669Y018394D02*
X010710Y018394D01*
X010710Y018553D02*
X010669Y018553D01*
X010669Y018711D02*
X010710Y018711D01*
X010710Y018870D02*
X010669Y018870D01*
X010669Y019028D02*
X010710Y019028D01*
X010710Y019187D02*
X010669Y019187D01*
X010669Y019345D02*
X010710Y019345D01*
X010869Y019345D02*
X011351Y019345D01*
X011188Y019187D02*
X011106Y019187D01*
X010510Y019345D02*
X010028Y019345D01*
X010191Y019187D02*
X010273Y019187D01*
X011032Y018394D02*
X011258Y018394D01*
X009351Y019345D02*
X009028Y019345D01*
X008351Y019345D02*
X008028Y019345D01*
X007351Y019345D02*
X007028Y019345D01*
X008121Y018394D02*
X008258Y018394D01*
X007833Y017602D02*
X007626Y017602D01*
X010499Y014273D02*
X011775Y014273D01*
X011649Y014115D02*
X010499Y014115D01*
X010499Y013956D02*
X010995Y013956D01*
X010837Y013798D02*
X010499Y013798D01*
X010499Y013639D02*
X010678Y013639D01*
X010520Y013481D02*
X010499Y013481D01*
X005812Y010311D02*
X005238Y010311D01*
X005397Y010152D02*
X005665Y010152D01*
X006718Y006507D02*
X007280Y006507D01*
X007280Y006348D02*
X006575Y006348D01*
X005974Y006031D02*
X007457Y006031D01*
X007313Y006190D02*
X005908Y006190D01*
X005986Y005873D02*
X007652Y005873D01*
X007105Y005239D02*
X015816Y005239D01*
X015751Y005397D02*
X005898Y005397D01*
X008956Y006507D02*
X009193Y006507D01*
X017048Y006665D02*
X017275Y006665D01*
D21*
X007015Y007545D03*
D22*
X004995Y005805D03*
X016680Y005745D03*
X016745Y019615D03*
X005025Y019615D03*
M02*
