G75*
%MOIN*%
%OFA0B0*%
%FSLAX24Y24*%
%IPPOS*%
%LPD*%
%AMOC8*
5,1,8,0,0,1.08239X$1,22.5*
%
%ADD10C,0.0040*%
%ADD11C,0.0060*%
%ADD12C,0.0080*%
%ADD13C,0.0010*%
%ADD14C,0.0160*%
%ADD15C,0.0050*%
%ADD16C,0.0020*%
%ADD17R,0.0050X0.0200*%
%ADD18C,0.0300*%
%ADD19R,0.0200X0.0300*%
%ADD20R,0.0400X0.0300*%
D10*
X002803Y002277D02*
X002879Y002200D01*
X003186Y002200D01*
X003263Y002277D01*
X003263Y002430D01*
X003186Y002507D01*
X003186Y002660D02*
X003110Y002737D01*
X003110Y002967D01*
X003033Y002967D02*
X003263Y002967D01*
X003263Y002737D01*
X003186Y002660D01*
X002956Y002737D02*
X002956Y002891D01*
X003033Y002967D01*
X003110Y003121D02*
X002956Y003274D01*
X002956Y003351D01*
X002956Y003504D02*
X002956Y003658D01*
X002879Y003581D02*
X003186Y003581D01*
X003263Y003658D01*
X003186Y003811D02*
X003033Y003811D01*
X002956Y003888D01*
X002956Y004042D01*
X003033Y004118D01*
X003110Y004118D01*
X003110Y003811D01*
X003186Y003811D02*
X003263Y003888D01*
X003263Y004042D01*
X003186Y004732D02*
X003263Y004809D01*
X003263Y004962D01*
X003186Y005039D01*
X003110Y005039D01*
X003033Y004962D01*
X003033Y004809D01*
X002956Y004732D01*
X002879Y004732D01*
X002803Y004809D01*
X002803Y004962D01*
X002879Y005039D01*
X002803Y005193D02*
X003263Y005193D01*
X003033Y005193D02*
X002956Y005269D01*
X002956Y005423D01*
X003033Y005499D01*
X003263Y005499D01*
X003186Y005653D02*
X003110Y005730D01*
X003110Y005960D01*
X003033Y005960D02*
X003263Y005960D01*
X003263Y005730D01*
X003186Y005653D01*
X002956Y005730D02*
X002956Y005883D01*
X003033Y005960D01*
X003110Y006113D02*
X002956Y006267D01*
X002956Y006344D01*
X002956Y006497D02*
X002956Y006727D01*
X003033Y006804D01*
X003186Y006804D01*
X003263Y006727D01*
X003263Y006497D01*
X003416Y006497D02*
X002956Y006497D01*
X002956Y006113D02*
X003263Y006113D01*
X003033Y006957D02*
X003033Y007264D01*
X002879Y007418D02*
X003186Y007418D01*
X003263Y007495D01*
X003263Y007648D01*
X003186Y007725D01*
X003263Y007878D02*
X002956Y007878D01*
X002803Y008032D01*
X002956Y008185D01*
X003263Y008185D01*
X003263Y008339D02*
X002803Y008339D01*
X003263Y008645D01*
X002803Y008645D01*
X003033Y008185D02*
X003033Y007878D01*
X002879Y007725D02*
X002803Y007648D01*
X002803Y007495D01*
X002879Y007418D01*
X002956Y003121D02*
X003263Y003121D01*
X003597Y003012D02*
X004057Y003012D01*
X003597Y002705D01*
X004057Y002705D01*
X004057Y002552D02*
X003750Y002552D01*
X003597Y002399D01*
X003750Y002245D01*
X004057Y002245D01*
X003980Y002092D02*
X004057Y002015D01*
X004057Y001861D01*
X003980Y001785D01*
X003673Y001785D01*
X003597Y001861D01*
X003597Y002015D01*
X003673Y002092D01*
X003827Y002245D02*
X003827Y002552D01*
X002879Y002507D02*
X002803Y002430D01*
X002803Y002277D01*
X010953Y001109D02*
X010953Y001032D01*
X011260Y000725D01*
X011260Y000878D02*
X011106Y000725D01*
X011030Y000725D01*
X010953Y000802D01*
X010953Y000878D01*
X011106Y001032D01*
X011106Y001109D01*
X011030Y001185D01*
X010953Y001109D01*
X011874Y001185D02*
X011874Y000725D01*
X012104Y000725D01*
X012181Y000802D01*
X012181Y001109D01*
X012104Y001185D01*
X011874Y001185D01*
X012334Y001032D02*
X012411Y001032D01*
X012411Y000725D01*
X012334Y000725D02*
X012488Y000725D01*
X012641Y000725D02*
X012871Y000725D01*
X012948Y000802D01*
X012948Y000955D01*
X012871Y001032D01*
X012641Y001032D01*
X012641Y000572D01*
X013101Y000802D02*
X013178Y000725D01*
X013332Y000725D01*
X013408Y000802D01*
X013408Y000955D01*
X013332Y001032D01*
X013178Y001032D01*
X013101Y000955D01*
X013101Y000802D01*
X013562Y000725D02*
X013715Y000725D01*
X013639Y000725D02*
X013639Y001185D01*
X013562Y001185D01*
X013869Y000955D02*
X013946Y001032D01*
X014099Y001032D01*
X014176Y000955D01*
X014176Y000878D01*
X013869Y000878D01*
X013869Y000802D02*
X013869Y000955D01*
X013869Y000802D02*
X013946Y000725D01*
X014099Y000725D01*
X012411Y001185D02*
X012411Y001262D01*
D11*
X013578Y001880D02*
X010938Y001880D01*
X010915Y001882D01*
X010892Y001887D01*
X010870Y001896D01*
X010850Y001909D01*
X010832Y001924D01*
X010817Y001942D01*
X010804Y001962D01*
X010795Y001984D01*
X010790Y002007D01*
X010788Y002030D01*
X010788Y006330D01*
X010790Y006353D01*
X010795Y006376D01*
X010804Y006398D01*
X010817Y006418D01*
X010832Y006436D01*
X010850Y006451D01*
X010870Y006464D01*
X010892Y006473D01*
X010915Y006478D01*
X010938Y006480D01*
X013578Y006480D01*
X013601Y006478D01*
X013624Y006473D01*
X013646Y006464D01*
X013666Y006451D01*
X013684Y006436D01*
X013699Y006418D01*
X013712Y006398D01*
X013721Y006376D01*
X013726Y006353D01*
X013728Y006330D01*
X013728Y002030D01*
X013726Y002007D01*
X013721Y001984D01*
X013712Y001962D01*
X013699Y001942D01*
X013684Y001924D01*
X013666Y001909D01*
X013646Y001896D01*
X013624Y001887D01*
X013601Y001882D01*
X013578Y001880D01*
X010896Y000955D02*
X010469Y000955D01*
X010790Y001276D01*
X010790Y000635D01*
X010252Y000635D02*
X009825Y000635D01*
X010038Y000635D02*
X010038Y001276D01*
X009825Y001062D01*
X009607Y001169D02*
X009180Y000742D01*
X009287Y000635D01*
X009501Y000635D01*
X009607Y000742D01*
X009607Y001169D01*
X009501Y001276D01*
X009287Y001276D01*
X009180Y001169D01*
X009180Y000742D01*
X008963Y000635D02*
X008536Y000635D01*
X008963Y001062D01*
X008963Y001169D01*
X008856Y001276D01*
X008643Y001276D01*
X008536Y001169D01*
X007674Y001169D02*
X007567Y001276D01*
X007353Y001276D01*
X007247Y001169D01*
X007247Y001062D01*
X007353Y000955D01*
X007567Y000955D01*
X007674Y000849D01*
X007674Y000742D01*
X007567Y000635D01*
X007353Y000635D01*
X007247Y000742D01*
X007029Y000635D02*
X006602Y000635D01*
X006602Y001276D01*
X007029Y001276D01*
X006816Y000955D02*
X006602Y000955D01*
X006385Y000955D02*
X006278Y000849D01*
X005958Y000849D01*
X006171Y000849D02*
X006385Y000635D01*
X006385Y000955D02*
X006385Y001169D01*
X006278Y001276D01*
X005958Y001276D01*
X005958Y000635D01*
X005740Y000635D02*
X005740Y001062D01*
X005527Y001276D01*
X005313Y001062D01*
X005313Y000635D01*
X005313Y000955D02*
X005740Y000955D01*
X006747Y004087D02*
X006747Y004323D01*
X007219Y004323D02*
X007219Y004087D01*
X004994Y006812D02*
X004994Y007048D01*
X004522Y007048D02*
X004522Y006812D01*
X003758Y007658D02*
X002758Y007658D01*
X002758Y008658D01*
X002758Y009658D01*
X002758Y010658D01*
X003758Y010658D01*
X003758Y009658D01*
X002758Y009658D01*
X003758Y009658D02*
X003758Y008658D01*
X002758Y008658D01*
X003758Y008658D02*
X003758Y007658D01*
X003750Y010915D02*
X002750Y010915D01*
X002750Y011915D01*
X002750Y012915D01*
X002750Y013915D01*
X003750Y013915D01*
X003750Y012915D01*
X002750Y012915D01*
X003750Y012915D02*
X003750Y011915D01*
X002750Y011915D01*
X003750Y011915D02*
X003750Y010915D01*
X008298Y011750D02*
X009718Y011750D01*
X011358Y012880D02*
X011358Y010480D01*
X011360Y010430D01*
X011366Y010381D01*
X011375Y010332D01*
X011388Y010284D01*
X011405Y010237D01*
X011425Y010192D01*
X011449Y010148D01*
X011476Y010106D01*
X011507Y010066D01*
X011540Y010029D01*
X011576Y009995D01*
X011614Y009963D01*
X011655Y009934D01*
X011697Y009909D01*
X011742Y009887D01*
X011788Y009868D01*
X011836Y009853D01*
X011884Y009842D01*
X011933Y009834D01*
X011983Y009830D01*
X012033Y009830D01*
X012083Y009834D01*
X012132Y009842D01*
X012180Y009853D01*
X012228Y009868D01*
X012274Y009887D01*
X012319Y009909D01*
X012361Y009934D01*
X012402Y009963D01*
X012440Y009995D01*
X012476Y010029D01*
X012509Y010066D01*
X012540Y010106D01*
X012567Y010148D01*
X012591Y010192D01*
X012611Y010237D01*
X012628Y010284D01*
X012641Y010332D01*
X012650Y010381D01*
X012656Y010430D01*
X012658Y010480D01*
X012658Y012880D01*
X013022Y012812D02*
X013022Y013048D01*
X013494Y013048D02*
X013494Y012812D01*
X012308Y011930D02*
X012008Y011930D01*
X012008Y012180D01*
X012008Y011930D02*
X011708Y011930D01*
X011708Y011780D02*
X012308Y011780D01*
X012308Y011580D01*
X011708Y011580D01*
X011708Y011780D01*
X011708Y011430D02*
X012008Y011430D01*
X012008Y011180D01*
X012008Y011430D02*
X012308Y011430D01*
X013022Y010798D02*
X013022Y010562D01*
X013494Y010562D02*
X013494Y010798D01*
X012658Y012880D02*
X012656Y012930D01*
X012650Y012979D01*
X012641Y013028D01*
X012628Y013076D01*
X012611Y013123D01*
X012591Y013168D01*
X012567Y013212D01*
X012540Y013254D01*
X012509Y013294D01*
X012476Y013331D01*
X012440Y013365D01*
X012402Y013397D01*
X012361Y013426D01*
X012319Y013451D01*
X012274Y013473D01*
X012228Y013492D01*
X012180Y013507D01*
X012132Y013518D01*
X012083Y013526D01*
X012033Y013530D01*
X011983Y013530D01*
X011933Y013526D01*
X011884Y013518D01*
X011836Y013507D01*
X011788Y013492D01*
X011742Y013473D01*
X011697Y013451D01*
X011655Y013426D01*
X011614Y013397D01*
X011576Y013365D01*
X011540Y013331D01*
X011507Y013294D01*
X011476Y013254D01*
X011449Y013212D01*
X011425Y013168D01*
X011405Y013123D01*
X011388Y013076D01*
X011375Y013028D01*
X011366Y012979D01*
X011360Y012930D01*
X011358Y012880D01*
X009718Y013610D02*
X008298Y013610D01*
X011758Y006480D02*
X011760Y006436D01*
X011766Y006393D01*
X011775Y006351D01*
X011788Y006309D01*
X011805Y006269D01*
X011825Y006230D01*
X011848Y006193D01*
X011875Y006159D01*
X011904Y006126D01*
X011937Y006097D01*
X011971Y006070D01*
X012008Y006047D01*
X012047Y006027D01*
X012087Y006010D01*
X012129Y005997D01*
X012171Y005988D01*
X012214Y005982D01*
X012258Y005980D01*
X012302Y005982D01*
X012345Y005988D01*
X012387Y005997D01*
X012429Y006010D01*
X012469Y006027D01*
X012508Y006047D01*
X012545Y006070D01*
X012579Y006097D01*
X012612Y006126D01*
X012641Y006159D01*
X012668Y006193D01*
X012691Y006230D01*
X012711Y006269D01*
X012728Y006309D01*
X012741Y006351D01*
X012750Y006393D01*
X012756Y006436D01*
X012758Y006480D01*
X018533Y006205D02*
X018533Y005205D01*
X018533Y004205D01*
X019533Y004205D01*
X019533Y005205D01*
X019533Y006205D01*
X019533Y007205D01*
X018533Y007205D01*
X018533Y006205D01*
X019533Y006205D01*
X019533Y005205D02*
X018533Y005205D01*
X018458Y003580D02*
X019458Y003580D01*
X019458Y002580D01*
X019458Y001580D01*
X019458Y000580D01*
X018458Y000580D01*
X018458Y001580D01*
X019458Y001580D01*
X018458Y001580D02*
X018458Y002580D01*
X019458Y002580D01*
X018458Y002580D02*
X018458Y003580D01*
X018658Y007955D02*
X019658Y007955D01*
X019658Y008955D01*
X019658Y009955D01*
X019658Y010955D01*
X018658Y010955D01*
X018658Y009955D01*
X018658Y008955D01*
X018658Y007955D01*
X018658Y008955D02*
X019658Y008955D01*
X019658Y009955D02*
X018658Y009955D01*
X018558Y011930D02*
X019558Y011930D01*
X019558Y012930D01*
X019558Y013930D01*
X019558Y014930D01*
X018558Y014930D01*
X018558Y013930D01*
X018558Y012930D01*
X018558Y011930D01*
X018558Y012930D02*
X019558Y012930D01*
X019558Y013930D02*
X018558Y013930D01*
D12*
X016808Y013380D02*
X016808Y012980D01*
X015274Y012680D02*
X015276Y012742D01*
X015282Y012805D01*
X015292Y012866D01*
X015306Y012927D01*
X015323Y012987D01*
X015344Y013046D01*
X015370Y013103D01*
X015398Y013158D01*
X015430Y013212D01*
X015466Y013263D01*
X015504Y013313D01*
X015546Y013359D01*
X015590Y013403D01*
X015638Y013444D01*
X015687Y013482D01*
X015739Y013516D01*
X015793Y013547D01*
X015849Y013575D01*
X015907Y013599D01*
X015966Y013620D01*
X016026Y013636D01*
X016087Y013649D01*
X016149Y013658D01*
X016211Y013663D01*
X016274Y013664D01*
X016336Y013661D01*
X016398Y013654D01*
X016460Y013643D01*
X016520Y013628D01*
X016580Y013610D01*
X016638Y013588D01*
X016695Y013562D01*
X016750Y013532D01*
X016803Y013499D01*
X016854Y013463D01*
X016902Y013424D01*
X016948Y013381D01*
X016991Y013336D01*
X017031Y013288D01*
X017068Y013238D01*
X017102Y013185D01*
X017133Y013131D01*
X017159Y013075D01*
X017183Y013017D01*
X017202Y012957D01*
X017218Y012897D01*
X017230Y012835D01*
X017238Y012774D01*
X017242Y012711D01*
X017242Y012649D01*
X017238Y012586D01*
X017230Y012525D01*
X017218Y012463D01*
X017202Y012403D01*
X017183Y012343D01*
X017159Y012285D01*
X017133Y012229D01*
X017102Y012175D01*
X017068Y012122D01*
X017031Y012072D01*
X016991Y012024D01*
X016948Y011979D01*
X016902Y011936D01*
X016854Y011897D01*
X016803Y011861D01*
X016750Y011828D01*
X016695Y011798D01*
X016638Y011772D01*
X016580Y011750D01*
X016520Y011732D01*
X016460Y011717D01*
X016398Y011706D01*
X016336Y011699D01*
X016274Y011696D01*
X016211Y011697D01*
X016149Y011702D01*
X016087Y011711D01*
X016026Y011724D01*
X015966Y011740D01*
X015907Y011761D01*
X015849Y011785D01*
X015793Y011813D01*
X015739Y011844D01*
X015687Y011878D01*
X015638Y011916D01*
X015590Y011957D01*
X015546Y012001D01*
X015504Y012047D01*
X015466Y012097D01*
X015430Y012148D01*
X015398Y012202D01*
X015370Y012257D01*
X015344Y012314D01*
X015323Y012373D01*
X015306Y012433D01*
X015292Y012494D01*
X015282Y012555D01*
X015276Y012618D01*
X015274Y012680D01*
X016808Y009680D02*
X016808Y009280D01*
X015274Y008980D02*
X015276Y009042D01*
X015282Y009105D01*
X015292Y009166D01*
X015306Y009227D01*
X015323Y009287D01*
X015344Y009346D01*
X015370Y009403D01*
X015398Y009458D01*
X015430Y009512D01*
X015466Y009563D01*
X015504Y009613D01*
X015546Y009659D01*
X015590Y009703D01*
X015638Y009744D01*
X015687Y009782D01*
X015739Y009816D01*
X015793Y009847D01*
X015849Y009875D01*
X015907Y009899D01*
X015966Y009920D01*
X016026Y009936D01*
X016087Y009949D01*
X016149Y009958D01*
X016211Y009963D01*
X016274Y009964D01*
X016336Y009961D01*
X016398Y009954D01*
X016460Y009943D01*
X016520Y009928D01*
X016580Y009910D01*
X016638Y009888D01*
X016695Y009862D01*
X016750Y009832D01*
X016803Y009799D01*
X016854Y009763D01*
X016902Y009724D01*
X016948Y009681D01*
X016991Y009636D01*
X017031Y009588D01*
X017068Y009538D01*
X017102Y009485D01*
X017133Y009431D01*
X017159Y009375D01*
X017183Y009317D01*
X017202Y009257D01*
X017218Y009197D01*
X017230Y009135D01*
X017238Y009074D01*
X017242Y009011D01*
X017242Y008949D01*
X017238Y008886D01*
X017230Y008825D01*
X017218Y008763D01*
X017202Y008703D01*
X017183Y008643D01*
X017159Y008585D01*
X017133Y008529D01*
X017102Y008475D01*
X017068Y008422D01*
X017031Y008372D01*
X016991Y008324D01*
X016948Y008279D01*
X016902Y008236D01*
X016854Y008197D01*
X016803Y008161D01*
X016750Y008128D01*
X016695Y008098D01*
X016638Y008072D01*
X016580Y008050D01*
X016520Y008032D01*
X016460Y008017D01*
X016398Y008006D01*
X016336Y007999D01*
X016274Y007996D01*
X016211Y007997D01*
X016149Y008002D01*
X016087Y008011D01*
X016026Y008024D01*
X015966Y008040D01*
X015907Y008061D01*
X015849Y008085D01*
X015793Y008113D01*
X015739Y008144D01*
X015687Y008178D01*
X015638Y008216D01*
X015590Y008257D01*
X015546Y008301D01*
X015504Y008347D01*
X015466Y008397D01*
X015430Y008448D01*
X015398Y008502D01*
X015370Y008557D01*
X015344Y008614D01*
X015323Y008673D01*
X015306Y008733D01*
X015292Y008794D01*
X015282Y008855D01*
X015276Y008918D01*
X015274Y008980D01*
X016808Y006130D02*
X016808Y005730D01*
X015274Y005430D02*
X015276Y005492D01*
X015282Y005555D01*
X015292Y005616D01*
X015306Y005677D01*
X015323Y005737D01*
X015344Y005796D01*
X015370Y005853D01*
X015398Y005908D01*
X015430Y005962D01*
X015466Y006013D01*
X015504Y006063D01*
X015546Y006109D01*
X015590Y006153D01*
X015638Y006194D01*
X015687Y006232D01*
X015739Y006266D01*
X015793Y006297D01*
X015849Y006325D01*
X015907Y006349D01*
X015966Y006370D01*
X016026Y006386D01*
X016087Y006399D01*
X016149Y006408D01*
X016211Y006413D01*
X016274Y006414D01*
X016336Y006411D01*
X016398Y006404D01*
X016460Y006393D01*
X016520Y006378D01*
X016580Y006360D01*
X016638Y006338D01*
X016695Y006312D01*
X016750Y006282D01*
X016803Y006249D01*
X016854Y006213D01*
X016902Y006174D01*
X016948Y006131D01*
X016991Y006086D01*
X017031Y006038D01*
X017068Y005988D01*
X017102Y005935D01*
X017133Y005881D01*
X017159Y005825D01*
X017183Y005767D01*
X017202Y005707D01*
X017218Y005647D01*
X017230Y005585D01*
X017238Y005524D01*
X017242Y005461D01*
X017242Y005399D01*
X017238Y005336D01*
X017230Y005275D01*
X017218Y005213D01*
X017202Y005153D01*
X017183Y005093D01*
X017159Y005035D01*
X017133Y004979D01*
X017102Y004925D01*
X017068Y004872D01*
X017031Y004822D01*
X016991Y004774D01*
X016948Y004729D01*
X016902Y004686D01*
X016854Y004647D01*
X016803Y004611D01*
X016750Y004578D01*
X016695Y004548D01*
X016638Y004522D01*
X016580Y004500D01*
X016520Y004482D01*
X016460Y004467D01*
X016398Y004456D01*
X016336Y004449D01*
X016274Y004446D01*
X016211Y004447D01*
X016149Y004452D01*
X016087Y004461D01*
X016026Y004474D01*
X015966Y004490D01*
X015907Y004511D01*
X015849Y004535D01*
X015793Y004563D01*
X015739Y004594D01*
X015687Y004628D01*
X015638Y004666D01*
X015590Y004707D01*
X015546Y004751D01*
X015504Y004797D01*
X015466Y004847D01*
X015430Y004898D01*
X015398Y004952D01*
X015370Y005007D01*
X015344Y005064D01*
X015323Y005123D01*
X015306Y005183D01*
X015292Y005244D01*
X015282Y005305D01*
X015276Y005368D01*
X015274Y005430D01*
X016808Y002605D02*
X016808Y002205D01*
X015274Y001905D02*
X015276Y001967D01*
X015282Y002030D01*
X015292Y002091D01*
X015306Y002152D01*
X015323Y002212D01*
X015344Y002271D01*
X015370Y002328D01*
X015398Y002383D01*
X015430Y002437D01*
X015466Y002488D01*
X015504Y002538D01*
X015546Y002584D01*
X015590Y002628D01*
X015638Y002669D01*
X015687Y002707D01*
X015739Y002741D01*
X015793Y002772D01*
X015849Y002800D01*
X015907Y002824D01*
X015966Y002845D01*
X016026Y002861D01*
X016087Y002874D01*
X016149Y002883D01*
X016211Y002888D01*
X016274Y002889D01*
X016336Y002886D01*
X016398Y002879D01*
X016460Y002868D01*
X016520Y002853D01*
X016580Y002835D01*
X016638Y002813D01*
X016695Y002787D01*
X016750Y002757D01*
X016803Y002724D01*
X016854Y002688D01*
X016902Y002649D01*
X016948Y002606D01*
X016991Y002561D01*
X017031Y002513D01*
X017068Y002463D01*
X017102Y002410D01*
X017133Y002356D01*
X017159Y002300D01*
X017183Y002242D01*
X017202Y002182D01*
X017218Y002122D01*
X017230Y002060D01*
X017238Y001999D01*
X017242Y001936D01*
X017242Y001874D01*
X017238Y001811D01*
X017230Y001750D01*
X017218Y001688D01*
X017202Y001628D01*
X017183Y001568D01*
X017159Y001510D01*
X017133Y001454D01*
X017102Y001400D01*
X017068Y001347D01*
X017031Y001297D01*
X016991Y001249D01*
X016948Y001204D01*
X016902Y001161D01*
X016854Y001122D01*
X016803Y001086D01*
X016750Y001053D01*
X016695Y001023D01*
X016638Y000997D01*
X016580Y000975D01*
X016520Y000957D01*
X016460Y000942D01*
X016398Y000931D01*
X016336Y000924D01*
X016274Y000921D01*
X016211Y000922D01*
X016149Y000927D01*
X016087Y000936D01*
X016026Y000949D01*
X015966Y000965D01*
X015907Y000986D01*
X015849Y001010D01*
X015793Y001038D01*
X015739Y001069D01*
X015687Y001103D01*
X015638Y001141D01*
X015590Y001182D01*
X015546Y001226D01*
X015504Y001272D01*
X015466Y001322D01*
X015430Y001373D01*
X015398Y001427D01*
X015370Y001482D01*
X015344Y001539D01*
X015323Y001598D01*
X015306Y001658D01*
X015292Y001719D01*
X015282Y001780D01*
X015276Y001843D01*
X015274Y001905D01*
X007508Y006430D02*
X007508Y006930D01*
X007258Y007180D01*
X007508Y007430D01*
X007508Y007930D01*
X007258Y008180D01*
X007508Y008430D01*
X007508Y008930D01*
X007258Y009180D01*
X006758Y009180D01*
X006508Y008930D01*
X006508Y008430D01*
X006758Y008180D01*
X006508Y007930D01*
X006508Y007430D01*
X006758Y007180D01*
X006508Y006930D01*
X006508Y006430D01*
X006758Y006180D01*
X007258Y006180D01*
X007508Y006430D01*
X005783Y009855D02*
X005783Y010255D01*
X005349Y010555D02*
X005351Y010617D01*
X005357Y010680D01*
X005367Y010741D01*
X005381Y010802D01*
X005398Y010862D01*
X005419Y010921D01*
X005445Y010978D01*
X005473Y011033D01*
X005505Y011087D01*
X005541Y011138D01*
X005579Y011188D01*
X005621Y011234D01*
X005665Y011278D01*
X005713Y011319D01*
X005762Y011357D01*
X005814Y011391D01*
X005868Y011422D01*
X005924Y011450D01*
X005982Y011474D01*
X006041Y011495D01*
X006101Y011511D01*
X006162Y011524D01*
X006224Y011533D01*
X006286Y011538D01*
X006349Y011539D01*
X006411Y011536D01*
X006473Y011529D01*
X006535Y011518D01*
X006595Y011503D01*
X006655Y011485D01*
X006713Y011463D01*
X006770Y011437D01*
X006825Y011407D01*
X006878Y011374D01*
X006929Y011338D01*
X006977Y011299D01*
X007023Y011256D01*
X007066Y011211D01*
X007106Y011163D01*
X007143Y011113D01*
X007177Y011060D01*
X007208Y011006D01*
X007234Y010950D01*
X007258Y010892D01*
X007277Y010832D01*
X007293Y010772D01*
X007305Y010710D01*
X007313Y010649D01*
X007317Y010586D01*
X007317Y010524D01*
X007313Y010461D01*
X007305Y010400D01*
X007293Y010338D01*
X007277Y010278D01*
X007258Y010218D01*
X007234Y010160D01*
X007208Y010104D01*
X007177Y010050D01*
X007143Y009997D01*
X007106Y009947D01*
X007066Y009899D01*
X007023Y009854D01*
X006977Y009811D01*
X006929Y009772D01*
X006878Y009736D01*
X006825Y009703D01*
X006770Y009673D01*
X006713Y009647D01*
X006655Y009625D01*
X006595Y009607D01*
X006535Y009592D01*
X006473Y009581D01*
X006411Y009574D01*
X006349Y009571D01*
X006286Y009572D01*
X006224Y009577D01*
X006162Y009586D01*
X006101Y009599D01*
X006041Y009615D01*
X005982Y009636D01*
X005924Y009660D01*
X005868Y009688D01*
X005814Y009719D01*
X005762Y009753D01*
X005713Y009791D01*
X005665Y009832D01*
X005621Y009876D01*
X005579Y009922D01*
X005541Y009972D01*
X005505Y010023D01*
X005473Y010077D01*
X005445Y010132D01*
X005419Y010189D01*
X005398Y010248D01*
X005381Y010308D01*
X005367Y010369D01*
X005357Y010430D01*
X005351Y010493D01*
X005349Y010555D01*
X005833Y013030D02*
X005833Y013430D01*
X005399Y013730D02*
X005401Y013792D01*
X005407Y013855D01*
X005417Y013916D01*
X005431Y013977D01*
X005448Y014037D01*
X005469Y014096D01*
X005495Y014153D01*
X005523Y014208D01*
X005555Y014262D01*
X005591Y014313D01*
X005629Y014363D01*
X005671Y014409D01*
X005715Y014453D01*
X005763Y014494D01*
X005812Y014532D01*
X005864Y014566D01*
X005918Y014597D01*
X005974Y014625D01*
X006032Y014649D01*
X006091Y014670D01*
X006151Y014686D01*
X006212Y014699D01*
X006274Y014708D01*
X006336Y014713D01*
X006399Y014714D01*
X006461Y014711D01*
X006523Y014704D01*
X006585Y014693D01*
X006645Y014678D01*
X006705Y014660D01*
X006763Y014638D01*
X006820Y014612D01*
X006875Y014582D01*
X006928Y014549D01*
X006979Y014513D01*
X007027Y014474D01*
X007073Y014431D01*
X007116Y014386D01*
X007156Y014338D01*
X007193Y014288D01*
X007227Y014235D01*
X007258Y014181D01*
X007284Y014125D01*
X007308Y014067D01*
X007327Y014007D01*
X007343Y013947D01*
X007355Y013885D01*
X007363Y013824D01*
X007367Y013761D01*
X007367Y013699D01*
X007363Y013636D01*
X007355Y013575D01*
X007343Y013513D01*
X007327Y013453D01*
X007308Y013393D01*
X007284Y013335D01*
X007258Y013279D01*
X007227Y013225D01*
X007193Y013172D01*
X007156Y013122D01*
X007116Y013074D01*
X007073Y013029D01*
X007027Y012986D01*
X006979Y012947D01*
X006928Y012911D01*
X006875Y012878D01*
X006820Y012848D01*
X006763Y012822D01*
X006705Y012800D01*
X006645Y012782D01*
X006585Y012767D01*
X006523Y012756D01*
X006461Y012749D01*
X006399Y012746D01*
X006336Y012747D01*
X006274Y012752D01*
X006212Y012761D01*
X006151Y012774D01*
X006091Y012790D01*
X006032Y012811D01*
X005974Y012835D01*
X005918Y012863D01*
X005864Y012894D01*
X005812Y012928D01*
X005763Y012966D01*
X005715Y013007D01*
X005671Y013051D01*
X005629Y013097D01*
X005591Y013147D01*
X005555Y013198D01*
X005523Y013252D01*
X005495Y013307D01*
X005469Y013364D01*
X005448Y013423D01*
X005431Y013483D01*
X005417Y013544D01*
X005407Y013605D01*
X005401Y013668D01*
X005399Y013730D01*
X008561Y013390D02*
X008563Y013405D01*
X008569Y013418D01*
X008578Y013430D01*
X008589Y013439D01*
X008603Y013445D01*
X008618Y013447D01*
X008633Y013445D01*
X008646Y013439D01*
X008658Y013430D01*
X008667Y013419D01*
X008673Y013405D01*
X008675Y013390D01*
X008673Y013375D01*
X008667Y013362D01*
X008658Y013350D01*
X008647Y013341D01*
X008633Y013335D01*
X008618Y013333D01*
X008603Y013335D01*
X008590Y013341D01*
X008578Y013350D01*
X008569Y013361D01*
X008563Y013375D01*
X008561Y013390D01*
D13*
X009013Y013088D02*
X009063Y013038D01*
X009013Y012990D02*
X009138Y012990D01*
X009163Y012965D01*
X009163Y012915D01*
X009138Y012890D01*
X009013Y012890D01*
X009163Y013038D02*
X009163Y013138D01*
X009163Y013088D02*
X009013Y013088D01*
X005778Y013410D02*
X005753Y013385D01*
X005653Y013385D01*
X005628Y013410D01*
X005628Y013460D01*
X005653Y013485D01*
X005653Y013532D02*
X005678Y013532D01*
X005703Y013557D01*
X005703Y013607D01*
X005728Y013632D01*
X005753Y013632D01*
X005778Y013607D01*
X005778Y013557D01*
X005753Y013532D01*
X005728Y013532D01*
X005703Y013557D01*
X005703Y013607D02*
X005678Y013632D01*
X005653Y013632D01*
X005628Y013607D01*
X005628Y013557D01*
X005653Y013532D01*
X005753Y013485D02*
X005778Y013460D01*
X005778Y013410D01*
X005653Y010457D02*
X005653Y010357D01*
X005578Y010432D01*
X005728Y010432D01*
X005703Y010310D02*
X005728Y010285D01*
X005728Y010235D01*
X005703Y010210D01*
X005603Y010210D01*
X005578Y010235D01*
X005578Y010285D01*
X005603Y010310D01*
X005238Y007188D02*
X005238Y007088D01*
X005238Y007040D02*
X005188Y006990D01*
X005188Y007015D02*
X005188Y006940D01*
X005238Y006940D02*
X005088Y006940D01*
X005088Y007015D01*
X005113Y007040D01*
X005163Y007040D01*
X005188Y007015D01*
X005138Y007088D02*
X005088Y007138D01*
X005238Y007138D01*
X006528Y004157D02*
X006503Y004132D01*
X006503Y004082D01*
X006528Y004057D01*
X006528Y004010D02*
X006578Y004010D01*
X006603Y003985D01*
X006603Y003910D01*
X006653Y003910D02*
X006503Y003910D01*
X006503Y003985D01*
X006528Y004010D01*
X006603Y003960D02*
X006653Y004010D01*
X006653Y004057D02*
X006553Y004157D01*
X006528Y004157D01*
X006653Y004157D02*
X006653Y004057D01*
X013588Y010715D02*
X013613Y010690D01*
X013713Y010690D01*
X013738Y010715D01*
X013738Y010765D01*
X013713Y010790D01*
X013738Y010838D02*
X013638Y010938D01*
X013613Y010938D01*
X013588Y010913D01*
X013588Y010863D01*
X013613Y010838D01*
X013613Y010790D02*
X013588Y010765D01*
X013588Y010715D01*
X013738Y010838D02*
X013738Y010938D01*
X013713Y012940D02*
X013613Y012940D01*
X013588Y012965D01*
X013588Y013015D01*
X013613Y013040D01*
X013638Y013088D02*
X013588Y013138D01*
X013738Y013138D01*
X013738Y013088D02*
X013738Y013188D01*
X013713Y013040D02*
X013738Y013015D01*
X013738Y012965D01*
X013713Y012940D01*
X016863Y012913D02*
X016863Y012963D01*
X016888Y012988D01*
X016913Y012988D01*
X016938Y012963D01*
X016963Y012988D01*
X016988Y012988D01*
X017013Y012963D01*
X017013Y012913D01*
X016988Y012888D01*
X016988Y012840D02*
X017013Y012815D01*
X017013Y012765D01*
X016988Y012740D01*
X016888Y012740D01*
X016863Y012765D01*
X016863Y012815D01*
X016888Y012840D01*
X016888Y012888D02*
X016863Y012913D01*
X016938Y012938D02*
X016938Y012963D01*
X016888Y009288D02*
X016988Y009188D01*
X017013Y009188D01*
X016988Y009140D02*
X017013Y009115D01*
X017013Y009065D01*
X016988Y009040D01*
X016888Y009040D01*
X016863Y009065D01*
X016863Y009115D01*
X016888Y009140D01*
X016863Y009188D02*
X016863Y009288D01*
X016888Y009288D01*
X016863Y005738D02*
X016863Y005638D01*
X016938Y005638D01*
X016913Y005688D01*
X016913Y005713D01*
X016938Y005738D01*
X016988Y005738D01*
X017013Y005713D01*
X017013Y005663D01*
X016988Y005638D01*
X016988Y005590D02*
X017013Y005565D01*
X017013Y005515D01*
X016988Y005490D01*
X016888Y005490D01*
X016863Y005515D01*
X016863Y005565D01*
X016888Y005590D01*
X016863Y002213D02*
X016888Y002163D01*
X016938Y002113D01*
X016938Y002188D01*
X016963Y002213D01*
X016988Y002213D01*
X017013Y002188D01*
X017013Y002138D01*
X016988Y002113D01*
X016938Y002113D01*
X016988Y002065D02*
X017013Y002040D01*
X017013Y001990D01*
X016988Y001965D01*
X016888Y001965D01*
X016863Y001990D01*
X016863Y002040D01*
X016888Y002065D01*
D14*
X012858Y010480D02*
X012858Y012880D01*
X012856Y012937D01*
X012850Y012993D01*
X012841Y013049D01*
X012828Y013105D01*
X012811Y013159D01*
X012791Y013212D01*
X012767Y013263D01*
X012739Y013313D01*
X012709Y013361D01*
X012675Y013407D01*
X012638Y013450D01*
X012599Y013491D01*
X012557Y013529D01*
X012512Y013564D01*
X012465Y013596D01*
X012416Y013625D01*
X012366Y013651D01*
X012313Y013673D01*
X012260Y013692D01*
X012205Y013707D01*
X012149Y013718D01*
X012093Y013726D01*
X012036Y013730D01*
X011980Y013730D01*
X011923Y013726D01*
X011867Y013718D01*
X011811Y013707D01*
X011756Y013692D01*
X011703Y013673D01*
X011650Y013651D01*
X011600Y013625D01*
X011551Y013596D01*
X011504Y013564D01*
X011459Y013529D01*
X011417Y013491D01*
X011378Y013450D01*
X011341Y013407D01*
X011307Y013361D01*
X011277Y013313D01*
X011249Y013263D01*
X011225Y013212D01*
X011205Y013159D01*
X011188Y013105D01*
X011175Y013049D01*
X011166Y012993D01*
X011160Y012937D01*
X011158Y012880D01*
X011158Y010480D01*
X011160Y010423D01*
X011166Y010367D01*
X011175Y010311D01*
X011188Y010255D01*
X011205Y010201D01*
X011225Y010148D01*
X011249Y010097D01*
X011277Y010047D01*
X011307Y009999D01*
X011341Y009953D01*
X011378Y009910D01*
X011417Y009869D01*
X011459Y009831D01*
X011504Y009796D01*
X011551Y009764D01*
X011600Y009735D01*
X011650Y009709D01*
X011703Y009687D01*
X011756Y009668D01*
X011811Y009653D01*
X011867Y009642D01*
X011923Y009634D01*
X011980Y009630D01*
X012036Y009630D01*
X012093Y009634D01*
X012149Y009642D01*
X012205Y009653D01*
X012260Y009668D01*
X012313Y009687D01*
X012366Y009709D01*
X012416Y009735D01*
X012465Y009764D01*
X012512Y009796D01*
X012557Y009831D01*
X012599Y009869D01*
X012638Y009910D01*
X012675Y009953D01*
X012709Y009999D01*
X012739Y010047D01*
X012767Y010097D01*
X012791Y010148D01*
X012811Y010201D01*
X012828Y010255D01*
X012841Y010311D01*
X012850Y010367D01*
X012856Y010423D01*
X012858Y010480D01*
D15*
X010933Y010391D02*
X010933Y010240D01*
X010858Y010165D01*
X010708Y010165D01*
X010708Y010391D01*
X010783Y010466D01*
X010858Y010466D01*
X010933Y010391D01*
X010933Y010626D02*
X010483Y010626D01*
X010633Y010776D01*
X010483Y010926D01*
X010933Y010926D01*
X010933Y011086D02*
X010483Y011086D01*
X010708Y011086D02*
X010708Y011386D01*
X010858Y011547D02*
X010933Y011547D01*
X010933Y011847D01*
X010858Y011547D02*
X010558Y011847D01*
X010483Y011847D01*
X010483Y011547D01*
X010483Y011386D02*
X010933Y011386D01*
X010483Y010466D02*
X010558Y010316D01*
X010708Y010165D01*
X010933Y010005D02*
X010933Y009705D01*
X010933Y009855D02*
X010483Y009855D01*
X010633Y009705D01*
X010908Y007055D02*
X010833Y006980D01*
X010833Y006680D01*
X010908Y006605D01*
X011058Y006605D01*
X011133Y006680D01*
X011293Y006680D02*
X011368Y006605D01*
X011519Y006605D01*
X011594Y006680D01*
X011594Y006980D01*
X011519Y007055D01*
X011368Y007055D01*
X011293Y006980D01*
X011293Y006680D01*
X011133Y006980D02*
X011058Y007055D01*
X010908Y007055D01*
X011754Y007055D02*
X011754Y006605D01*
X012054Y006605D02*
X012054Y007055D01*
X012214Y007055D02*
X012514Y007055D01*
X012364Y007055D02*
X012364Y006605D01*
X012675Y006605D02*
X012675Y007055D01*
X012900Y007055D01*
X012975Y006980D01*
X012975Y006830D01*
X012900Y006755D01*
X012675Y006755D01*
X012825Y006755D02*
X012975Y006605D01*
X013135Y006680D02*
X013210Y006605D01*
X013360Y006605D01*
X013435Y006680D01*
X013435Y006980D01*
X013360Y007055D01*
X013210Y007055D01*
X013135Y006980D01*
X013135Y006680D01*
X013595Y006605D02*
X013896Y006605D01*
X014056Y006605D02*
X014356Y006605D01*
X014516Y006605D02*
X014816Y006605D01*
X014977Y006605D02*
X014977Y007055D01*
X015202Y007055D01*
X015277Y006980D01*
X015277Y006830D01*
X015202Y006755D01*
X014977Y006755D01*
X015127Y006755D02*
X015277Y006605D01*
X014816Y007055D02*
X014516Y007055D01*
X014516Y006605D01*
X014516Y006830D02*
X014666Y006830D01*
X014056Y007055D02*
X014056Y006605D01*
X013595Y006605D02*
X013595Y007055D01*
X012054Y006605D02*
X011754Y007055D01*
X006338Y007556D02*
X006338Y007856D01*
X006188Y008017D02*
X006263Y008092D01*
X006263Y008242D01*
X006188Y008317D01*
X006113Y008317D01*
X006038Y008242D01*
X006038Y008092D01*
X005963Y008017D01*
X005888Y008017D01*
X005813Y008092D01*
X005813Y008242D01*
X005888Y008317D01*
X005813Y007396D02*
X006263Y007396D01*
X005813Y007096D01*
X006263Y007096D01*
X006263Y006936D02*
X005963Y006936D01*
X005813Y006786D01*
X005963Y006635D01*
X006263Y006635D01*
X006188Y006475D02*
X006263Y006400D01*
X006263Y006250D01*
X006188Y006175D01*
X005888Y006175D01*
X005813Y006250D01*
X005813Y006400D01*
X005888Y006475D01*
X005849Y006292D02*
X005849Y006095D01*
X004667Y006095D01*
X004667Y006292D01*
X004274Y006292D01*
X004274Y001568D01*
X004667Y001568D01*
X004667Y001765D01*
X005849Y001765D01*
X005849Y001568D01*
X006242Y001568D01*
X006242Y006292D01*
X005849Y006292D01*
X006038Y006635D02*
X006038Y006936D01*
X004373Y007158D02*
X004073Y007158D01*
X004298Y007383D01*
X004298Y006933D01*
X003912Y006933D02*
X003912Y007233D01*
X003762Y007383D01*
X003612Y007233D01*
X003612Y006933D01*
X003612Y007158D02*
X003912Y007158D01*
X003904Y010190D02*
X003904Y010490D01*
X003754Y010640D01*
X003604Y010490D01*
X003604Y010190D01*
X003604Y010415D02*
X003904Y010415D01*
X004065Y010415D02*
X004065Y010640D01*
X004365Y010640D01*
X004290Y010490D02*
X004215Y010490D01*
X004065Y010415D01*
X004065Y010265D02*
X004140Y010190D01*
X004290Y010190D01*
X004365Y010265D01*
X004365Y010415D01*
X004290Y010490D01*
X017808Y007780D02*
X017808Y007480D01*
X018108Y007480D02*
X018108Y007780D01*
X017958Y007930D01*
X017808Y007780D01*
X017808Y007705D02*
X018108Y007705D01*
X018268Y007780D02*
X018419Y007930D01*
X018419Y007480D01*
X018569Y007480D02*
X018268Y007480D01*
X018268Y004305D02*
X018419Y004305D01*
X018494Y004230D01*
X018193Y003930D01*
X018268Y003855D01*
X018419Y003855D01*
X018494Y003930D01*
X018494Y004230D01*
X018268Y004305D02*
X018193Y004230D01*
X018193Y003930D01*
X018033Y003855D02*
X018033Y004155D01*
X017883Y004305D01*
X017733Y004155D01*
X017733Y003855D01*
X017733Y004080D02*
X018033Y004080D01*
X017933Y011230D02*
X017933Y011530D01*
X018083Y011680D01*
X018233Y011530D01*
X018233Y011230D01*
X018393Y011230D02*
X018694Y011530D01*
X018694Y011605D01*
X018619Y011680D01*
X018468Y011680D01*
X018393Y011605D01*
X018233Y011455D02*
X017933Y011455D01*
X018393Y011230D02*
X018694Y011230D01*
X018519Y015205D02*
X018368Y015205D01*
X018293Y015280D01*
X018133Y015205D02*
X018133Y015505D01*
X017983Y015655D01*
X017833Y015505D01*
X017833Y015205D01*
X017833Y015430D02*
X018133Y015430D01*
X018293Y015580D02*
X018368Y015655D01*
X018519Y015655D01*
X018594Y015580D01*
X018594Y015505D01*
X018519Y015430D01*
X018594Y015355D01*
X018594Y015280D01*
X018519Y015205D01*
X018519Y015430D02*
X018444Y015430D01*
D16*
X010928Y006480D02*
X010928Y001880D01*
D17*
X010763Y002180D03*
X010763Y002680D03*
X010763Y003180D03*
X010763Y003680D03*
X010763Y004180D03*
X010763Y004680D03*
X010763Y005180D03*
X010763Y005680D03*
X010763Y006180D03*
X013753Y006180D03*
X013753Y005680D03*
X013753Y005180D03*
X013753Y004680D03*
X013753Y004180D03*
X013753Y003680D03*
X013753Y003180D03*
X013753Y002680D03*
X013753Y002180D03*
D18*
X019708Y002080D02*
X021958Y002080D01*
X021958Y003080D02*
X019708Y003080D01*
X019783Y004705D02*
X022033Y004705D01*
X022033Y005705D02*
X019783Y005705D01*
X019783Y006705D02*
X022033Y006705D01*
X022158Y008455D02*
X019908Y008455D01*
X019908Y009455D02*
X022158Y009455D01*
X022158Y010455D02*
X019908Y010455D01*
X019808Y012430D02*
X022058Y012430D01*
X022058Y013430D02*
X019808Y013430D01*
X019808Y014430D02*
X022058Y014430D01*
X021958Y001080D02*
X019708Y001080D01*
X002508Y008158D02*
X000258Y008158D01*
X000258Y009158D02*
X002508Y009158D01*
X002508Y010158D02*
X000258Y010158D01*
X000250Y011415D02*
X002500Y011415D01*
X002500Y012415D02*
X000250Y012415D01*
X000250Y013415D02*
X002500Y013415D01*
D19*
X002650Y013415D03*
X002650Y012415D03*
X002650Y011415D03*
X002658Y010158D03*
X002658Y009158D03*
X002658Y008158D03*
X019633Y006705D03*
X019633Y005705D03*
X019633Y004705D03*
X019558Y003080D03*
X019558Y002080D03*
X019558Y001080D03*
X019758Y008455D03*
X019758Y009455D03*
X019758Y010455D03*
X019658Y012430D03*
X019658Y013430D03*
X019658Y014430D03*
D20*
X018358Y014430D03*
X018358Y013430D03*
X018358Y012430D03*
X018458Y010455D03*
X018458Y009455D03*
X018458Y008455D03*
X018333Y006705D03*
X018333Y005705D03*
X018333Y004705D03*
X018258Y003080D03*
X018258Y002080D03*
X018258Y001080D03*
X003958Y008158D03*
X003958Y009158D03*
X003958Y010158D03*
X003950Y011415D03*
X003950Y012415D03*
X003950Y013415D03*
M02*
