G75*
%MOIN*%
%OFA0B0*%
%FSLAX24Y24*%
%IPPOS*%
%LPD*%
%AMOC8*
5,1,8,0,0,1.08239X$1,22.5*
%
%ADD10C,0.0480*%
%ADD11C,0.0600*%
%ADD12R,0.0650X0.0650*%
%ADD13C,0.0650*%
%ADD14C,0.0660*%
%ADD15C,0.0560*%
%ADD16C,0.0740*%
%ADD17C,0.0079*%
%ADD18C,0.0236*%
%ADD19C,0.0160*%
%ADD20C,0.1227*%
D10*
X012008Y010730D03*
X012008Y012630D03*
D11*
X017508Y012430D02*
X018108Y012430D01*
X018108Y013430D02*
X017508Y013430D01*
X017508Y014430D02*
X018108Y014430D01*
X018208Y010455D02*
X017608Y010455D01*
X017608Y009455D02*
X018208Y009455D01*
X018208Y008455D02*
X017608Y008455D01*
X017483Y006705D02*
X018083Y006705D01*
X018083Y005705D02*
X017483Y005705D01*
X017483Y004705D02*
X018083Y004705D01*
X018008Y003080D02*
X017408Y003080D01*
X017408Y002080D02*
X018008Y002080D01*
X018008Y001080D02*
X017408Y001080D01*
X004808Y008158D02*
X004208Y008158D01*
X004208Y009158D02*
X004808Y009158D01*
X004808Y010158D02*
X004208Y010158D01*
X004200Y011415D02*
X004800Y011415D01*
X004800Y012415D02*
X004200Y012415D01*
X004200Y013415D02*
X004800Y013415D01*
D12*
X006383Y014230D03*
X006333Y011055D03*
X016258Y012180D03*
X016258Y008480D03*
X016258Y004930D03*
X016258Y001405D03*
D13*
X016258Y002405D03*
X016258Y005930D03*
X016258Y009480D03*
X016258Y013180D03*
X006383Y013230D03*
X006333Y010055D03*
D14*
X008008Y009430D03*
X009133Y008993D03*
X008008Y008430D03*
X008008Y007430D03*
X008008Y006430D03*
X009133Y005868D03*
X008008Y005430D03*
X009133Y004868D03*
X008008Y004430D03*
X008008Y003430D03*
X008008Y002430D03*
X014008Y009430D03*
X014008Y011430D03*
X013508Y014430D03*
X012508Y014430D03*
X011508Y014430D03*
X010508Y014430D03*
X009508Y014430D03*
X008508Y014430D03*
X009133Y009993D03*
D15*
X004758Y005680D03*
X005758Y005180D03*
X004758Y004680D03*
X005758Y004180D03*
X004758Y003680D03*
X005758Y003180D03*
X004758Y002680D03*
X005758Y002180D03*
D16*
X007008Y006680D03*
X007008Y007680D03*
X007008Y008680D03*
D17*
X007538Y008790D02*
X007678Y008790D01*
X007818Y008930D01*
X008238Y008930D01*
X008378Y008790D01*
X008798Y008790D01*
X009008Y009000D01*
X009078Y009000D01*
X009133Y008993D01*
X009498Y009490D02*
X008588Y009490D01*
X008518Y009420D01*
X008028Y009420D01*
X008008Y009430D01*
X007538Y008790D02*
X007538Y007460D01*
X007258Y007180D01*
X005718Y007180D01*
X004424Y008174D01*
X004508Y008158D01*
X004508Y010158D02*
X004516Y010246D01*
X005706Y010246D01*
X006278Y011030D01*
X006333Y011055D01*
X007818Y011100D02*
X008728Y010190D01*
X008938Y010190D01*
X009078Y010050D01*
X009133Y009993D01*
X009498Y009490D02*
X011528Y011520D01*
X012018Y011520D01*
X014328Y013830D01*
X015378Y013200D02*
X015378Y012220D01*
X016218Y012220D01*
X016258Y012180D01*
X015378Y013200D02*
X013628Y014950D01*
X012018Y014950D01*
X011528Y014460D01*
X011508Y014430D01*
X009148Y011590D02*
X008308Y011590D01*
X009148Y011590D02*
X010198Y010540D01*
X010478Y008090D02*
X012718Y010330D01*
X017828Y010330D01*
X017898Y010400D01*
X017908Y010455D01*
X017058Y007460D02*
X008028Y007460D01*
X008008Y007430D01*
X008658Y008090D02*
X008308Y008440D01*
X008028Y008440D01*
X008008Y008430D01*
X008658Y008090D02*
X010478Y008090D01*
X012018Y006760D02*
X008658Y006760D01*
X008308Y006410D01*
X008028Y006410D01*
X008008Y006430D01*
X008008Y005430D02*
X008448Y005430D01*
X008518Y005360D01*
X013138Y005360D01*
X013838Y004660D01*
X013838Y003960D01*
X013558Y003680D01*
X013558Y004170D02*
X012858Y003470D01*
X008028Y003470D01*
X008008Y003430D01*
X008798Y003960D02*
X008308Y004450D01*
X008028Y004450D01*
X008008Y004430D01*
X008798Y003960D02*
X012928Y003960D01*
X013558Y004590D01*
X014748Y004030D02*
X012018Y006760D01*
X014818Y006130D02*
X016008Y004940D01*
X016218Y004940D01*
X016258Y004930D01*
X016288Y004870D01*
X017618Y004870D01*
X017783Y004705D01*
X016778Y004030D02*
X014748Y004030D01*
X016778Y004030D02*
X017688Y003120D01*
X017708Y003080D01*
X017783Y006705D02*
X017758Y006760D01*
X017058Y007460D01*
X006558Y003960D02*
X006558Y003315D01*
X006433Y003190D01*
X005788Y003190D01*
X005758Y003180D01*
X005228Y004100D02*
X004808Y003680D01*
X004758Y003680D01*
X005228Y004100D02*
X005368Y004100D01*
X005438Y004170D01*
X005718Y004170D01*
X005758Y004180D01*
X005928Y004590D02*
X006558Y003960D01*
X005928Y004590D02*
X004878Y004590D01*
X004808Y004660D01*
X004758Y004680D01*
D18*
X010198Y010540D03*
X008308Y011590D03*
X007818Y011100D03*
X007320Y011546D03*
X014328Y013830D03*
X014818Y006130D03*
X013558Y004590D03*
X013558Y004170D03*
X013558Y003680D03*
D19*
X002551Y001879D02*
X002571Y013712D01*
X002838Y013602D01*
X003178Y013602D01*
X003491Y013732D01*
X003731Y013972D01*
X003861Y014285D01*
X003861Y014625D01*
X003755Y014882D01*
X008142Y014870D01*
X008025Y014753D01*
X007938Y014543D01*
X007938Y014317D01*
X008025Y014107D01*
X008185Y013947D01*
X008395Y013860D01*
X008621Y013860D01*
X008831Y013947D01*
X008991Y014107D01*
X009008Y014148D01*
X009025Y014107D01*
X009185Y013947D01*
X009395Y013860D01*
X009621Y013860D01*
X009831Y013947D01*
X009991Y014107D01*
X010008Y014148D01*
X010025Y014107D01*
X010185Y013947D01*
X010395Y013860D01*
X010621Y013860D01*
X010831Y013947D01*
X010991Y014107D01*
X011008Y014148D01*
X011025Y014107D01*
X011185Y013947D01*
X011395Y013860D01*
X011621Y013860D01*
X011831Y013947D01*
X011991Y014107D01*
X012040Y014225D01*
X012072Y014163D01*
X012119Y014098D01*
X012176Y014041D01*
X012241Y013994D01*
X012312Y013957D01*
X012389Y013933D01*
X012468Y013920D01*
X012488Y013920D01*
X012488Y014410D01*
X012528Y014410D01*
X012528Y013920D01*
X012548Y013920D01*
X012627Y013933D01*
X012704Y013957D01*
X012775Y013994D01*
X012840Y014041D01*
X012897Y014098D01*
X012944Y014163D01*
X012976Y014225D01*
X013025Y014107D01*
X013185Y013947D01*
X013395Y013860D01*
X013621Y013860D01*
X013831Y013947D01*
X013991Y014107D01*
X014016Y014167D01*
X014087Y014096D01*
X014024Y014033D01*
X013970Y013901D01*
X013970Y013867D01*
X011902Y011799D01*
X011472Y011799D01*
X011370Y011757D01*
X010429Y010816D01*
X010401Y010844D01*
X010269Y010898D01*
X010235Y010898D01*
X009385Y011748D01*
X009306Y011827D01*
X009204Y011869D01*
X008535Y011869D01*
X008511Y011894D01*
X008379Y011948D01*
X008237Y011948D01*
X008105Y011894D01*
X008004Y011793D01*
X007950Y011661D01*
X007950Y011519D01*
X007993Y011415D01*
X007889Y011458D01*
X007747Y011458D01*
X007615Y011404D01*
X007514Y011303D01*
X007460Y011171D01*
X007460Y011029D01*
X007514Y010897D01*
X007615Y010796D01*
X007747Y010742D01*
X007781Y010742D01*
X008491Y010032D01*
X008563Y009960D01*
X008563Y009879D01*
X008608Y009769D01*
X008532Y009769D01*
X008491Y009752D01*
X008491Y009753D01*
X008331Y009913D01*
X008121Y010000D01*
X007895Y010000D01*
X007685Y009913D01*
X007525Y009753D01*
X007438Y009543D01*
X007438Y009317D01*
X007525Y009107D01*
X007562Y009069D01*
X007482Y009069D01*
X007354Y009197D01*
X007129Y009290D01*
X006887Y009290D01*
X006662Y009197D01*
X006491Y009026D01*
X006398Y008801D01*
X006398Y008559D01*
X006491Y008334D01*
X006645Y008180D01*
X006491Y008026D01*
X006398Y007801D01*
X006398Y007559D01*
X006439Y007459D01*
X005813Y007459D01*
X005274Y007873D01*
X005348Y008051D01*
X005348Y008265D01*
X005266Y008464D01*
X005114Y008616D01*
X004929Y008693D01*
X004992Y008713D01*
X005060Y008747D01*
X005121Y008792D01*
X005174Y008845D01*
X005219Y008906D01*
X005253Y008974D01*
X005276Y009046D01*
X005288Y009120D01*
X005288Y009138D01*
X004528Y009138D01*
X004528Y009178D01*
X005288Y009178D01*
X005288Y009196D01*
X005276Y009270D01*
X005253Y009342D01*
X005219Y009410D01*
X005174Y009471D01*
X005121Y009524D01*
X005060Y009569D01*
X004992Y009603D01*
X004929Y009623D01*
X005114Y009700D01*
X005266Y009852D01*
X005313Y009967D01*
X005673Y009967D01*
X005694Y009961D01*
X005728Y009967D01*
X005762Y009967D01*
X005782Y009975D01*
X005804Y009979D01*
X005831Y009995D01*
X005840Y009937D01*
X005865Y009861D01*
X005901Y009790D01*
X005948Y009726D01*
X006004Y009670D01*
X006068Y009623D01*
X006139Y009587D01*
X006215Y009562D01*
X006293Y009550D01*
X006333Y009550D01*
X006373Y009550D01*
X006451Y009562D01*
X006527Y009587D01*
X006598Y009623D01*
X006662Y009670D01*
X006718Y009726D01*
X006765Y009790D01*
X006801Y009861D01*
X006826Y009937D01*
X006838Y010015D01*
X006838Y010055D01*
X006838Y010095D01*
X006826Y010173D01*
X006801Y010249D01*
X006765Y010320D01*
X006718Y010384D01*
X006662Y010440D01*
X006598Y010487D01*
X006592Y010490D01*
X006706Y010490D01*
X006794Y010527D01*
X006861Y010594D01*
X006898Y010682D01*
X006898Y011428D01*
X006861Y011516D01*
X006794Y011583D01*
X006706Y011620D01*
X005960Y011620D01*
X005872Y011583D01*
X005805Y011516D01*
X005768Y011428D01*
X005768Y010805D01*
X005564Y010525D01*
X005204Y010525D01*
X005114Y010616D01*
X004915Y010698D01*
X004101Y010698D01*
X003902Y010616D01*
X003750Y010464D01*
X003668Y010265D01*
X003668Y010051D01*
X003750Y009852D01*
X003902Y009700D01*
X004087Y009623D01*
X004024Y009603D01*
X003956Y009569D01*
X003895Y009524D01*
X003842Y009471D01*
X003797Y009410D01*
X003763Y009342D01*
X003740Y009270D01*
X003728Y009196D01*
X003728Y009178D01*
X004488Y009178D01*
X004488Y009138D01*
X003728Y009138D01*
X003728Y009120D01*
X003740Y009046D01*
X003763Y008974D01*
X003797Y008906D01*
X003842Y008845D01*
X003895Y008792D01*
X003956Y008747D01*
X004024Y008713D01*
X004087Y008693D01*
X003902Y008616D01*
X003750Y008464D01*
X003668Y008265D01*
X003668Y008051D01*
X003750Y007852D01*
X003902Y007700D01*
X004101Y007618D01*
X004689Y007618D01*
X005533Y006970D01*
X005560Y006943D01*
X005577Y006936D01*
X005592Y006925D01*
X005628Y006915D01*
X005662Y006901D01*
X005681Y006901D01*
X005699Y006896D01*
X005736Y006901D01*
X006439Y006901D01*
X006398Y006801D01*
X006398Y006559D01*
X006491Y006334D01*
X006662Y006163D01*
X006887Y006070D01*
X007129Y006070D01*
X007354Y006163D01*
X007458Y006268D01*
X007525Y006107D01*
X007685Y005947D01*
X007726Y005930D01*
X007685Y005913D01*
X007525Y005753D01*
X007438Y005543D01*
X007438Y005317D01*
X007525Y005107D01*
X007685Y004947D01*
X007726Y004930D01*
X007685Y004913D01*
X007525Y004753D01*
X007438Y004543D01*
X007438Y004317D01*
X007525Y004107D01*
X007685Y003947D01*
X007726Y003930D01*
X007685Y003913D01*
X007525Y003753D01*
X007438Y003543D01*
X007438Y003317D01*
X007525Y003107D01*
X007685Y002947D01*
X007726Y002930D01*
X007685Y002913D01*
X007525Y002753D01*
X007438Y002543D01*
X007438Y002317D01*
X007525Y002107D01*
X007685Y001947D01*
X007895Y001860D01*
X008121Y001860D01*
X008331Y001947D01*
X008491Y002107D01*
X008578Y002317D01*
X008578Y002543D01*
X008491Y002753D01*
X008331Y002913D01*
X008290Y002930D01*
X008331Y002947D01*
X008491Y003107D01*
X008526Y003191D01*
X012914Y003191D01*
X013016Y003233D01*
X013095Y003312D01*
X013257Y003474D01*
X013355Y003376D01*
X013487Y003322D01*
X013629Y003322D01*
X013761Y003376D01*
X013862Y003477D01*
X013916Y003609D01*
X013916Y003643D01*
X013996Y003723D01*
X014075Y003802D01*
X014117Y003904D01*
X014117Y004266D01*
X014590Y003793D01*
X014692Y003751D01*
X016662Y003751D01*
X016989Y003424D01*
X016950Y003386D01*
X016868Y003187D01*
X016868Y002973D01*
X016950Y002774D01*
X017102Y002622D01*
X017287Y002545D01*
X017224Y002525D01*
X017156Y002491D01*
X017095Y002446D01*
X017042Y002393D01*
X016997Y002332D01*
X016963Y002264D01*
X016940Y002192D01*
X016928Y002118D01*
X016928Y002100D01*
X017688Y002100D01*
X017688Y002060D01*
X016928Y002060D01*
X016928Y002042D01*
X016940Y001968D01*
X016963Y001896D01*
X016997Y001828D01*
X017042Y001767D01*
X017095Y001714D01*
X017156Y001669D01*
X017224Y001635D01*
X017287Y001615D01*
X017102Y001538D01*
X016950Y001386D01*
X016868Y001187D01*
X016868Y000973D01*
X016950Y000774D01*
X017100Y000624D01*
X003728Y000643D01*
X003781Y000697D01*
X003911Y001010D01*
X003911Y001350D01*
X003781Y001663D01*
X003541Y001903D01*
X003228Y002033D01*
X002888Y002033D01*
X002575Y001903D01*
X002551Y001879D01*
X002551Y001904D02*
X002576Y001904D01*
X002551Y002063D02*
X004759Y002063D01*
X004795Y002077D02*
X004598Y001996D01*
X004448Y001845D01*
X004366Y001649D01*
X004366Y001436D01*
X004448Y001239D01*
X004598Y001088D01*
X004795Y001007D01*
X005008Y001007D01*
X005205Y001088D01*
X005355Y001239D01*
X005437Y001436D01*
X005437Y001649D01*
X005355Y001845D01*
X005205Y001996D01*
X005008Y002077D01*
X004795Y002077D01*
X004861Y002160D02*
X005053Y002239D01*
X005199Y002385D01*
X005278Y002577D01*
X005278Y002783D01*
X005199Y002975D01*
X005053Y003121D01*
X004910Y003180D01*
X005053Y003239D01*
X005199Y003385D01*
X005278Y003577D01*
X005278Y003755D01*
X005344Y003821D01*
X005382Y003821D01*
X005463Y003739D01*
X005606Y003680D01*
X005463Y003621D01*
X005317Y003475D01*
X005238Y003283D01*
X005238Y003077D01*
X005317Y002885D01*
X005463Y002739D01*
X005655Y002660D01*
X005861Y002660D01*
X006053Y002739D01*
X006199Y002885D01*
X006209Y002911D01*
X006488Y002911D01*
X006591Y002953D01*
X006716Y003079D01*
X006795Y003157D01*
X006837Y003260D01*
X006837Y004016D01*
X006795Y004118D01*
X006716Y004197D01*
X006113Y004800D01*
X006199Y004885D01*
X006278Y005077D01*
X006278Y005283D01*
X006199Y005475D01*
X006053Y005621D01*
X005861Y005700D01*
X005655Y005700D01*
X005463Y005621D01*
X005317Y005475D01*
X005238Y005283D01*
X005238Y005077D01*
X005317Y004885D01*
X005333Y004869D01*
X005242Y004869D01*
X005199Y004975D01*
X005053Y005121D01*
X004861Y005200D01*
X004655Y005200D01*
X004463Y005121D01*
X004317Y004975D01*
X004238Y004783D01*
X004238Y004577D01*
X004317Y004385D01*
X004463Y004239D01*
X004606Y004180D01*
X004463Y004121D01*
X004317Y003975D01*
X004238Y003783D01*
X004238Y003577D01*
X004317Y003385D01*
X004463Y003239D01*
X004606Y003180D01*
X004463Y003121D01*
X004317Y002975D01*
X004238Y002783D01*
X004238Y002577D01*
X004317Y002385D01*
X004463Y002239D01*
X004655Y002160D01*
X004861Y002160D01*
X005009Y002221D02*
X005299Y002221D01*
X005298Y002216D02*
X005298Y002180D01*
X005758Y002180D01*
X005758Y002180D01*
X005758Y002640D01*
X005794Y002640D01*
X005866Y002629D01*
X005935Y002606D01*
X005999Y002573D01*
X006058Y002531D01*
X006109Y002480D01*
X006151Y002421D01*
X006184Y002357D01*
X006207Y002288D01*
X006218Y002216D01*
X006218Y002180D01*
X005758Y002180D01*
X005758Y002180D01*
X005758Y002180D01*
X005758Y002640D01*
X005722Y002640D01*
X005650Y002629D01*
X005581Y002606D01*
X005517Y002573D01*
X005458Y002531D01*
X005407Y002480D01*
X005365Y002421D01*
X005332Y002357D01*
X005309Y002288D01*
X005298Y002216D01*
X005298Y002180D02*
X005298Y002144D01*
X005309Y002072D01*
X005332Y002003D01*
X005365Y001939D01*
X005407Y001880D01*
X005458Y001829D01*
X005517Y001787D01*
X005581Y001754D01*
X005650Y001731D01*
X005722Y001720D01*
X005758Y001720D01*
X005794Y001720D01*
X005866Y001731D01*
X005935Y001754D01*
X005999Y001787D01*
X006058Y001829D01*
X006109Y001880D01*
X006151Y001939D01*
X006184Y002003D01*
X006207Y002072D01*
X006218Y002144D01*
X006218Y002180D01*
X005758Y002180D01*
X005758Y001720D01*
X005758Y002180D01*
X005758Y002180D01*
X005298Y002180D01*
X005313Y002063D02*
X005044Y002063D01*
X005297Y001904D02*
X005390Y001904D01*
X005397Y001746D02*
X005607Y001746D01*
X005758Y001746D02*
X005758Y001746D01*
X005909Y001746D02*
X015693Y001746D01*
X015693Y001778D02*
X015693Y001032D01*
X015730Y000944D01*
X015797Y000877D01*
X015885Y000840D01*
X016631Y000840D01*
X016719Y000877D01*
X016786Y000944D01*
X016823Y001032D01*
X016823Y001778D01*
X016786Y001866D01*
X016719Y001933D01*
X016631Y001970D01*
X016517Y001970D01*
X016523Y001973D01*
X016587Y002020D01*
X016643Y002076D01*
X016690Y002140D01*
X016726Y002211D01*
X016751Y002287D01*
X016763Y002365D01*
X016763Y002405D01*
X016763Y002445D01*
X016751Y002523D01*
X016726Y002599D01*
X016690Y002670D01*
X016643Y002734D01*
X016587Y002790D01*
X016523Y002837D01*
X016452Y002873D01*
X016376Y002898D01*
X016298Y002910D01*
X016258Y002910D01*
X016258Y002405D01*
X016763Y002405D01*
X016258Y002405D01*
X016258Y002405D01*
X016258Y002405D01*
X016258Y002405D01*
X015753Y002405D01*
X015753Y002445D01*
X015765Y002523D01*
X015790Y002599D01*
X015826Y002670D01*
X015873Y002734D01*
X015929Y002790D01*
X015993Y002837D01*
X016064Y002873D01*
X016140Y002898D01*
X016218Y002910D01*
X016258Y002910D01*
X016258Y002405D01*
X015753Y002405D01*
X015753Y002365D01*
X015765Y002287D01*
X015790Y002211D01*
X015826Y002140D01*
X015873Y002076D01*
X015929Y002020D01*
X015993Y001973D01*
X015999Y001970D01*
X015885Y001970D01*
X015797Y001933D01*
X015730Y001866D01*
X015693Y001778D01*
X015768Y001904D02*
X008228Y001904D01*
X008447Y002063D02*
X015886Y002063D01*
X015787Y002221D02*
X008538Y002221D01*
X008578Y002380D02*
X015753Y002380D01*
X015770Y002538D02*
X008578Y002538D01*
X008515Y002697D02*
X015846Y002697D01*
X016029Y002855D02*
X008389Y002855D01*
X008398Y003014D02*
X016868Y003014D01*
X016868Y003172D02*
X008518Y003172D01*
X007627Y002855D02*
X006168Y002855D01*
X005950Y002697D02*
X007501Y002697D01*
X007438Y002538D02*
X006048Y002538D01*
X006173Y002380D02*
X007438Y002380D01*
X007478Y002221D02*
X006217Y002221D01*
X006203Y002063D02*
X007569Y002063D01*
X007788Y001904D02*
X006126Y001904D01*
X005758Y001904D02*
X005758Y001904D01*
X005758Y002063D02*
X005758Y002063D01*
X005758Y002221D02*
X005758Y002221D01*
X005758Y002380D02*
X005758Y002380D01*
X005758Y002538D02*
X005758Y002538D01*
X005566Y002697D02*
X005278Y002697D01*
X005262Y002538D02*
X005468Y002538D01*
X005343Y002380D02*
X005193Y002380D01*
X005248Y002855D02*
X005348Y002855D01*
X005264Y003014D02*
X005160Y003014D01*
X005238Y003172D02*
X004929Y003172D01*
X005144Y003331D02*
X005258Y003331D01*
X005242Y003489D02*
X005332Y003489D01*
X005278Y003648D02*
X005528Y003648D01*
X005397Y003806D02*
X005329Y003806D01*
X004469Y004123D02*
X002554Y004123D01*
X002554Y003965D02*
X004313Y003965D01*
X004247Y003806D02*
X002554Y003806D01*
X002554Y003648D02*
X004238Y003648D01*
X004274Y003489D02*
X002553Y003489D01*
X002553Y003331D02*
X004372Y003331D01*
X004587Y003172D02*
X002553Y003172D01*
X002552Y003014D02*
X004356Y003014D01*
X004268Y002855D02*
X002552Y002855D01*
X002552Y002697D02*
X004238Y002697D01*
X004254Y002538D02*
X002552Y002538D01*
X002551Y002380D02*
X004323Y002380D01*
X004507Y002221D02*
X002551Y002221D01*
X003540Y001904D02*
X004507Y001904D01*
X004407Y001746D02*
X003699Y001746D01*
X003813Y001587D02*
X004366Y001587D01*
X004369Y001429D02*
X003879Y001429D01*
X003911Y001270D02*
X004435Y001270D01*
X004575Y001112D02*
X003911Y001112D01*
X003888Y000953D02*
X015726Y000953D01*
X015693Y001112D02*
X005228Y001112D01*
X005368Y001270D02*
X015693Y001270D01*
X015693Y001429D02*
X005434Y001429D01*
X005437Y001587D02*
X015693Y001587D01*
X016630Y002063D02*
X017688Y002063D01*
X017728Y002063D02*
X019650Y002063D01*
X019651Y002221D02*
X018467Y002221D01*
X018476Y002192D02*
X018453Y002264D01*
X018419Y002332D01*
X018374Y002393D01*
X018321Y002446D01*
X018260Y002491D01*
X018192Y002525D01*
X018129Y002545D01*
X018314Y002622D01*
X018466Y002774D01*
X018548Y002973D01*
X018548Y003187D01*
X018466Y003386D01*
X018314Y003538D01*
X018115Y003620D01*
X017583Y003620D01*
X017015Y004188D01*
X016936Y004267D01*
X016834Y004309D01*
X014864Y004309D01*
X012255Y006918D01*
X012176Y006997D01*
X012074Y007039D01*
X008602Y007039D01*
X008500Y006997D01*
X008374Y006871D01*
X008331Y006913D01*
X008290Y006930D01*
X008331Y006947D01*
X008491Y007107D01*
X008522Y007181D01*
X016942Y007181D01*
X017069Y007054D01*
X017025Y007011D01*
X016943Y006812D01*
X016943Y006598D01*
X017025Y006399D01*
X017177Y006247D01*
X017362Y006170D01*
X017299Y006150D01*
X017231Y006116D01*
X017170Y006071D01*
X017117Y006018D01*
X017072Y005957D01*
X017038Y005889D01*
X017015Y005817D01*
X017003Y005743D01*
X017003Y005725D01*
X017763Y005725D01*
X017763Y005685D01*
X017003Y005685D01*
X017003Y005667D01*
X017015Y005593D01*
X017038Y005521D01*
X017072Y005453D01*
X017117Y005392D01*
X017170Y005339D01*
X017231Y005294D01*
X017299Y005260D01*
X017362Y005240D01*
X017177Y005163D01*
X017164Y005149D01*
X016823Y005149D01*
X016823Y005303D01*
X016786Y005391D01*
X017118Y005391D01*
X017029Y005550D02*
X016592Y005550D01*
X016587Y005545D02*
X016643Y005601D01*
X016690Y005665D01*
X016726Y005736D01*
X016751Y005812D01*
X016763Y005890D01*
X016763Y005930D01*
X016763Y005970D01*
X016751Y006048D01*
X016726Y006124D01*
X016690Y006195D01*
X016643Y006259D01*
X016587Y006315D01*
X016523Y006362D01*
X016452Y006398D01*
X016376Y006423D01*
X016298Y006435D01*
X016258Y006435D01*
X016258Y005930D01*
X016763Y005930D01*
X016258Y005930D01*
X016258Y005930D01*
X016258Y005930D01*
X016258Y005930D01*
X015753Y005930D01*
X015753Y005970D01*
X015765Y006048D01*
X015790Y006124D01*
X015826Y006195D01*
X015873Y006259D01*
X015929Y006315D01*
X015993Y006362D01*
X016064Y006398D01*
X016140Y006423D01*
X016218Y006435D01*
X016258Y006435D01*
X016258Y005930D01*
X015753Y005930D01*
X015753Y005890D01*
X015765Y005812D01*
X015790Y005736D01*
X015826Y005665D01*
X015873Y005601D01*
X015929Y005545D01*
X015993Y005498D01*
X015999Y005495D01*
X015885Y005495D01*
X015859Y005484D01*
X015176Y006167D01*
X015176Y006201D01*
X015122Y006333D01*
X015021Y006434D01*
X014889Y006488D01*
X014747Y006488D01*
X014615Y006434D01*
X014514Y006333D01*
X014460Y006201D01*
X014460Y006059D01*
X014514Y005927D01*
X014615Y005826D01*
X014747Y005772D01*
X014781Y005772D01*
X015693Y004860D01*
X015693Y004557D01*
X015730Y004469D01*
X015797Y004402D01*
X015885Y004365D01*
X016631Y004365D01*
X016719Y004402D01*
X016786Y004469D01*
X016823Y004557D01*
X016823Y004591D01*
X016946Y004591D01*
X017025Y004399D01*
X017177Y004247D01*
X017376Y004165D01*
X018190Y004165D01*
X018389Y004247D01*
X018541Y004399D01*
X018623Y004598D01*
X018623Y004812D01*
X018541Y005011D01*
X018389Y005163D01*
X018204Y005240D01*
X018267Y005260D01*
X018335Y005294D01*
X018396Y005339D01*
X018449Y005392D01*
X018494Y005453D01*
X018528Y005521D01*
X018551Y005593D01*
X018563Y005667D01*
X018563Y005685D01*
X017803Y005685D01*
X017803Y005725D01*
X018563Y005725D01*
X018563Y005743D01*
X018551Y005817D01*
X018528Y005889D01*
X018494Y005957D01*
X018449Y006018D01*
X018396Y006071D01*
X018335Y006116D01*
X018267Y006150D01*
X018204Y006170D01*
X018389Y006247D01*
X018541Y006399D01*
X018623Y006598D01*
X018623Y006812D01*
X018541Y007011D01*
X018389Y007163D01*
X018190Y007245D01*
X017668Y007245D01*
X017295Y007618D01*
X017216Y007697D01*
X017114Y007739D01*
X008497Y007739D01*
X008491Y007753D01*
X008331Y007913D01*
X008290Y007930D01*
X008331Y007947D01*
X008369Y007984D01*
X008500Y007853D01*
X008602Y007811D01*
X010534Y007811D01*
X010636Y007853D01*
X010715Y007932D01*
X012834Y010051D01*
X017249Y010051D01*
X017302Y009997D01*
X017487Y009920D01*
X017424Y009900D01*
X017356Y009866D01*
X017295Y009821D01*
X017242Y009768D01*
X017197Y009707D01*
X017163Y009639D01*
X017140Y009567D01*
X017128Y009493D01*
X017128Y009475D01*
X017888Y009475D01*
X017888Y009435D01*
X017128Y009435D01*
X017128Y009417D01*
X017140Y009343D01*
X017163Y009271D01*
X017197Y009203D01*
X017242Y009142D01*
X017295Y009089D01*
X017356Y009044D01*
X017424Y009010D01*
X017487Y008990D01*
X017302Y008913D01*
X017150Y008761D01*
X017068Y008562D01*
X017068Y008348D01*
X017150Y008149D01*
X017302Y007997D01*
X017501Y007915D01*
X018315Y007915D01*
X018514Y007997D01*
X018666Y008149D01*
X018748Y008348D01*
X018748Y008562D01*
X018666Y008761D01*
X018514Y008913D01*
X018329Y008990D01*
X018392Y009010D01*
X018460Y009044D01*
X018521Y009089D01*
X018574Y009142D01*
X018619Y009203D01*
X018653Y009271D01*
X018676Y009343D01*
X018688Y009417D01*
X018688Y009435D01*
X017928Y009435D01*
X017928Y009475D01*
X018688Y009475D01*
X018688Y009493D01*
X018676Y009567D01*
X018653Y009639D01*
X018619Y009707D01*
X018574Y009768D01*
X018521Y009821D01*
X018460Y009866D01*
X018392Y009900D01*
X018329Y009920D01*
X018514Y009997D01*
X018666Y010149D01*
X018748Y010348D01*
X018748Y010562D01*
X018666Y010761D01*
X018514Y010913D01*
X018315Y010995D01*
X017501Y010995D01*
X017302Y010913D01*
X017150Y010761D01*
X017087Y010609D01*
X012662Y010609D01*
X012560Y010567D01*
X010362Y008369D01*
X008774Y008369D01*
X008632Y008511D01*
X008809Y008511D01*
X008810Y008509D01*
X009020Y008423D01*
X009246Y008423D01*
X009456Y008509D01*
X009616Y008670D01*
X009703Y008879D01*
X009703Y009106D01*
X009644Y009248D01*
X009656Y009253D01*
X009735Y009332D01*
X011644Y011241D01*
X012074Y011241D01*
X012176Y011283D01*
X012255Y011362D01*
X014365Y013472D01*
X014399Y013472D01*
X014531Y013526D01*
X014594Y013589D01*
X015099Y013084D01*
X015099Y012164D01*
X015141Y012062D01*
X015220Y011983D01*
X015322Y011941D01*
X015693Y011941D01*
X015693Y011807D01*
X015730Y011719D01*
X015797Y011652D01*
X015885Y011615D01*
X016631Y011615D01*
X016719Y011652D01*
X016786Y011719D01*
X016823Y011807D01*
X016823Y012553D01*
X016786Y012641D01*
X016719Y012708D01*
X016631Y012745D01*
X016517Y012745D01*
X016523Y012748D01*
X016587Y012795D01*
X016643Y012851D01*
X016690Y012915D01*
X016726Y012986D01*
X016751Y013062D01*
X016763Y013140D01*
X016763Y013180D01*
X016763Y013220D01*
X016751Y013298D01*
X016726Y013374D01*
X016690Y013445D01*
X016643Y013509D01*
X016587Y013565D01*
X016523Y013612D01*
X016452Y013648D01*
X016376Y013673D01*
X016298Y013685D01*
X016258Y013685D01*
X016258Y013180D01*
X016258Y013180D01*
X016763Y013180D01*
X016258Y013180D01*
X016258Y013180D01*
X016258Y013180D01*
X015753Y013180D01*
X015753Y013220D01*
X015765Y013298D01*
X015790Y013374D01*
X015826Y013445D01*
X015873Y013509D01*
X015929Y013565D01*
X015993Y013612D01*
X016064Y013648D01*
X016140Y013673D01*
X016218Y013685D01*
X016258Y013685D01*
X016258Y013180D01*
X015753Y013180D01*
X015753Y013140D01*
X015765Y013062D01*
X015790Y012986D01*
X015826Y012915D01*
X015873Y012851D01*
X015929Y012795D01*
X015993Y012748D01*
X015999Y012745D01*
X015885Y012745D01*
X015797Y012708D01*
X015730Y012641D01*
X015693Y012553D01*
X015693Y012499D01*
X015657Y012499D01*
X015657Y013256D01*
X015615Y013358D01*
X015536Y013437D01*
X014120Y014853D01*
X017158Y014844D01*
X017050Y014736D01*
X016968Y014537D01*
X016968Y014323D01*
X017050Y014124D01*
X017202Y013972D01*
X017387Y013895D01*
X017324Y013875D01*
X017256Y013841D01*
X017195Y013796D01*
X017142Y013743D01*
X017097Y013682D01*
X017063Y013614D01*
X017040Y013542D01*
X017028Y013468D01*
X017028Y013450D01*
X017788Y013450D01*
X017788Y013410D01*
X017028Y013410D01*
X017028Y013392D01*
X017040Y013318D01*
X017063Y013246D01*
X017097Y013178D01*
X017142Y013117D01*
X017195Y013064D01*
X017256Y013019D01*
X017324Y012985D01*
X017387Y012965D01*
X017202Y012888D01*
X017050Y012736D01*
X016968Y012537D01*
X016968Y012323D01*
X017050Y012124D01*
X017202Y011972D01*
X017401Y011890D01*
X018215Y011890D01*
X018414Y011972D01*
X018566Y012124D01*
X018648Y012323D01*
X018648Y012537D01*
X018566Y012736D01*
X018414Y012888D01*
X018229Y012965D01*
X018292Y012985D01*
X018360Y013019D01*
X018421Y013064D01*
X018474Y013117D01*
X018519Y013178D01*
X018553Y013246D01*
X018576Y013318D01*
X018588Y013392D01*
X018588Y013410D01*
X017828Y013410D01*
X017828Y013450D01*
X018588Y013450D01*
X018588Y013468D01*
X018576Y013542D01*
X018553Y013614D01*
X018519Y013682D01*
X018474Y013743D01*
X018421Y013796D01*
X018360Y013841D01*
X018292Y013875D01*
X018229Y013895D01*
X018414Y013972D01*
X018477Y014035D01*
X018535Y013897D01*
X018775Y013657D01*
X019088Y013527D01*
X019428Y013527D01*
X019728Y013651D01*
X019648Y001836D01*
X019353Y001958D01*
X019013Y001958D01*
X018700Y001828D01*
X018460Y001588D01*
X018402Y001450D01*
X018314Y001538D01*
X018129Y001615D01*
X018192Y001635D01*
X018260Y001669D01*
X018321Y001714D01*
X018374Y001767D01*
X018419Y001828D01*
X018453Y001896D01*
X018476Y001968D01*
X018488Y002042D01*
X018488Y002060D01*
X017728Y002060D01*
X017728Y002100D01*
X018488Y002100D01*
X018488Y002118D01*
X018476Y002192D01*
X018384Y002380D02*
X019652Y002380D01*
X019653Y002538D02*
X018152Y002538D01*
X018388Y002697D02*
X019654Y002697D01*
X019655Y002855D02*
X018499Y002855D01*
X018548Y003014D02*
X019656Y003014D01*
X019657Y003172D02*
X018548Y003172D01*
X018489Y003331D02*
X019658Y003331D01*
X019659Y003489D02*
X018363Y003489D01*
X017556Y003648D02*
X019660Y003648D01*
X019661Y003806D02*
X017397Y003806D01*
X017239Y003965D02*
X019662Y003965D01*
X019664Y004123D02*
X017080Y004123D01*
X017143Y004282D02*
X016901Y004282D01*
X017008Y004440D02*
X016757Y004440D01*
X015759Y004440D02*
X014733Y004440D01*
X014575Y004599D02*
X015693Y004599D01*
X015693Y004757D02*
X014416Y004757D01*
X014258Y004916D02*
X015637Y004916D01*
X015479Y005074D02*
X014099Y005074D01*
X013941Y005233D02*
X015320Y005233D01*
X015162Y005391D02*
X013782Y005391D01*
X013624Y005550D02*
X015003Y005550D01*
X014845Y005708D02*
X013465Y005708D01*
X013307Y005867D02*
X014575Y005867D01*
X014474Y006025D02*
X013148Y006025D01*
X012990Y006184D02*
X014460Y006184D01*
X014524Y006342D02*
X012831Y006342D01*
X012673Y006501D02*
X016983Y006501D01*
X016943Y006659D02*
X012514Y006659D01*
X012356Y006818D02*
X016945Y006818D01*
X017011Y006976D02*
X012197Y006976D01*
X010869Y008086D02*
X015702Y008086D01*
X015693Y008107D02*
X015730Y008019D01*
X015797Y007952D01*
X015885Y007915D01*
X016631Y007915D01*
X016719Y007952D01*
X016786Y008019D01*
X016823Y008107D01*
X016823Y008853D01*
X016786Y008941D01*
X016719Y009008D01*
X016631Y009045D01*
X016517Y009045D01*
X016523Y009048D01*
X016587Y009095D01*
X016643Y009151D01*
X016690Y009215D01*
X016726Y009286D01*
X016751Y009362D01*
X016763Y009440D01*
X016763Y009480D01*
X016763Y009520D01*
X016751Y009598D01*
X016726Y009674D01*
X016690Y009745D01*
X016643Y009809D01*
X016587Y009865D01*
X016523Y009912D01*
X016452Y009948D01*
X016376Y009973D01*
X016298Y009985D01*
X016258Y009985D01*
X016258Y009480D01*
X016763Y009480D01*
X016258Y009480D01*
X016258Y009480D01*
X016258Y009480D01*
X016258Y009480D01*
X015753Y009480D01*
X015753Y009520D01*
X015765Y009598D01*
X015790Y009674D01*
X015826Y009745D01*
X015873Y009809D01*
X015929Y009865D01*
X015993Y009912D01*
X016064Y009948D01*
X016140Y009973D01*
X016218Y009985D01*
X016258Y009985D01*
X016258Y009480D01*
X015753Y009480D01*
X015753Y009440D01*
X015765Y009362D01*
X015790Y009286D01*
X015826Y009215D01*
X015873Y009151D01*
X015929Y009095D01*
X015993Y009048D01*
X015999Y009045D01*
X015885Y009045D01*
X015797Y009008D01*
X015730Y008941D01*
X015693Y008853D01*
X015693Y008107D01*
X015693Y008244D02*
X011027Y008244D01*
X011186Y008403D02*
X015693Y008403D01*
X015693Y008561D02*
X011344Y008561D01*
X011503Y008720D02*
X015693Y008720D01*
X015703Y008878D02*
X014165Y008878D01*
X014121Y008860D02*
X014331Y008947D01*
X014491Y009107D01*
X014578Y009317D01*
X014578Y009543D01*
X014491Y009753D01*
X014331Y009913D01*
X014121Y010000D01*
X013895Y010000D01*
X013685Y009913D01*
X013525Y009753D01*
X013438Y009543D01*
X013438Y009317D01*
X013525Y009107D01*
X013685Y008947D01*
X013895Y008860D01*
X014121Y008860D01*
X014421Y009037D02*
X015865Y009037D01*
X015841Y009195D02*
X014528Y009195D01*
X014578Y009354D02*
X015768Y009354D01*
X015753Y009512D02*
X014578Y009512D01*
X014525Y009671D02*
X015789Y009671D01*
X015893Y009829D02*
X014415Y009829D01*
X014151Y009988D02*
X017325Y009988D01*
X017306Y009829D02*
X016623Y009829D01*
X016727Y009671D02*
X017179Y009671D01*
X017131Y009512D02*
X016763Y009512D01*
X016748Y009354D02*
X017138Y009354D01*
X017204Y009195D02*
X016675Y009195D01*
X016651Y009037D02*
X017372Y009037D01*
X017267Y008878D02*
X016813Y008878D01*
X016823Y008720D02*
X017133Y008720D01*
X017068Y008561D02*
X016823Y008561D01*
X016823Y008403D02*
X017068Y008403D01*
X017111Y008244D02*
X016823Y008244D01*
X016814Y008086D02*
X017214Y008086D01*
X017472Y007927D02*
X016660Y007927D01*
X017303Y007610D02*
X019687Y007610D01*
X019686Y007452D02*
X017462Y007452D01*
X017620Y007293D02*
X019685Y007293D01*
X019684Y007135D02*
X018417Y007135D01*
X018555Y006976D02*
X019683Y006976D01*
X019682Y006818D02*
X018621Y006818D01*
X018623Y006659D02*
X019681Y006659D01*
X019680Y006501D02*
X018583Y006501D01*
X018484Y006342D02*
X019679Y006342D01*
X019678Y006184D02*
X018235Y006184D01*
X018442Y006025D02*
X019676Y006025D01*
X019675Y005867D02*
X018535Y005867D01*
X018537Y005550D02*
X019673Y005550D01*
X019674Y005708D02*
X017803Y005708D01*
X017763Y005708D02*
X016712Y005708D01*
X016759Y005867D02*
X017031Y005867D01*
X017124Y006025D02*
X016754Y006025D01*
X016696Y006184D02*
X017331Y006184D01*
X017082Y006342D02*
X016550Y006342D01*
X016258Y006342D02*
X016258Y006342D01*
X016258Y006184D02*
X016258Y006184D01*
X016258Y006025D02*
X016258Y006025D01*
X015966Y006342D02*
X015112Y006342D01*
X015176Y006184D02*
X015820Y006184D01*
X015762Y006025D02*
X015318Y006025D01*
X015477Y005867D02*
X015757Y005867D01*
X015804Y005708D02*
X015635Y005708D01*
X015794Y005550D02*
X015924Y005550D01*
X016517Y005495D02*
X016523Y005498D01*
X016587Y005545D01*
X016631Y005495D02*
X016517Y005495D01*
X016631Y005495D02*
X016719Y005458D01*
X016786Y005391D01*
X016823Y005233D02*
X017345Y005233D01*
X018221Y005233D02*
X019671Y005233D01*
X019672Y005391D02*
X018448Y005391D01*
X018478Y005074D02*
X019670Y005074D01*
X019669Y004916D02*
X018580Y004916D01*
X018623Y004757D02*
X019668Y004757D01*
X019667Y004599D02*
X018623Y004599D01*
X018558Y004440D02*
X019666Y004440D01*
X019665Y004282D02*
X018423Y004282D01*
X016924Y003489D02*
X013867Y003489D01*
X013921Y003648D02*
X016765Y003648D01*
X016927Y003331D02*
X013650Y003331D01*
X013466Y003331D02*
X013114Y003331D01*
X014077Y003806D02*
X014577Y003806D01*
X014418Y003965D02*
X014117Y003965D01*
X014117Y004123D02*
X014260Y004123D01*
X016258Y002855D02*
X016258Y002855D01*
X016258Y002697D02*
X016258Y002697D01*
X016258Y002538D02*
X016258Y002538D01*
X016487Y002855D02*
X016917Y002855D01*
X017028Y002697D02*
X016670Y002697D01*
X016746Y002538D02*
X017264Y002538D01*
X017032Y002380D02*
X016763Y002380D01*
X016729Y002221D02*
X016949Y002221D01*
X016960Y001904D02*
X016748Y001904D01*
X016823Y001746D02*
X017064Y001746D01*
X017221Y001587D02*
X016823Y001587D01*
X016823Y001429D02*
X016993Y001429D01*
X016902Y001270D02*
X016823Y001270D01*
X016823Y001112D02*
X016868Y001112D01*
X016876Y000953D02*
X016790Y000953D01*
X016942Y000795D02*
X003822Y000795D01*
X006651Y003014D02*
X007618Y003014D01*
X007498Y003172D02*
X006801Y003172D01*
X006837Y003331D02*
X007438Y003331D01*
X007438Y003489D02*
X006837Y003489D01*
X006837Y003648D02*
X007481Y003648D01*
X007578Y003806D02*
X006837Y003806D01*
X006837Y003965D02*
X007667Y003965D01*
X007518Y004123D02*
X006790Y004123D01*
X006632Y004282D02*
X007453Y004282D01*
X007438Y004440D02*
X006473Y004440D01*
X006315Y004599D02*
X007461Y004599D01*
X007529Y004757D02*
X006156Y004757D01*
X006211Y004916D02*
X007691Y004916D01*
X007558Y005074D02*
X006277Y005074D01*
X006278Y005233D02*
X007473Y005233D01*
X007438Y005391D02*
X006233Y005391D01*
X006124Y005550D02*
X007441Y005550D01*
X007506Y005708D02*
X005218Y005708D01*
X005218Y005716D02*
X005207Y005788D01*
X005184Y005857D01*
X005151Y005921D01*
X005109Y005980D01*
X005058Y006031D01*
X004999Y006073D01*
X004935Y006106D01*
X004866Y006129D01*
X004794Y006140D01*
X004758Y006140D01*
X004758Y005680D01*
X004758Y005680D01*
X005218Y005680D01*
X005218Y005716D01*
X005218Y005680D02*
X004758Y005680D01*
X004758Y005680D01*
X004758Y005680D01*
X004298Y005680D01*
X004298Y005716D01*
X004309Y005788D01*
X004332Y005857D01*
X004365Y005921D01*
X004407Y005980D01*
X004458Y006031D01*
X004517Y006073D01*
X004581Y006106D01*
X004650Y006129D01*
X004722Y006140D01*
X004758Y006140D01*
X004758Y005680D01*
X004758Y005220D01*
X004794Y005220D01*
X004866Y005231D01*
X004935Y005254D01*
X004999Y005287D01*
X005058Y005329D01*
X005109Y005380D01*
X005151Y005439D01*
X005184Y005503D01*
X005207Y005572D01*
X005218Y005644D01*
X005218Y005680D01*
X005199Y005550D02*
X005392Y005550D01*
X005283Y005391D02*
X005117Y005391D01*
X005238Y005233D02*
X004869Y005233D01*
X004758Y005233D02*
X004758Y005233D01*
X004758Y005220D02*
X004758Y005680D01*
X004758Y005680D01*
X004298Y005680D01*
X004298Y005644D01*
X004309Y005572D01*
X004332Y005503D01*
X004365Y005439D01*
X004407Y005380D01*
X004458Y005329D01*
X004517Y005287D01*
X004581Y005254D01*
X004650Y005231D01*
X004722Y005220D01*
X004758Y005220D01*
X004647Y005233D02*
X002556Y005233D01*
X002556Y005391D02*
X004399Y005391D01*
X004317Y005550D02*
X002557Y005550D01*
X002557Y005708D02*
X004298Y005708D01*
X004337Y005867D02*
X002557Y005867D01*
X002558Y006025D02*
X004452Y006025D01*
X004758Y006025D02*
X004758Y006025D01*
X004758Y005867D02*
X004758Y005867D01*
X004758Y005708D02*
X004758Y005708D01*
X004758Y005550D02*
X004758Y005550D01*
X004758Y005391D02*
X004758Y005391D01*
X005099Y005074D02*
X005239Y005074D01*
X005223Y004916D02*
X005305Y004916D01*
X004417Y005074D02*
X002556Y005074D01*
X002556Y004916D02*
X004293Y004916D01*
X004238Y004757D02*
X002555Y004757D01*
X002555Y004599D02*
X004238Y004599D01*
X004295Y004440D02*
X002555Y004440D01*
X002555Y004282D02*
X004421Y004282D01*
X005179Y005867D02*
X007638Y005867D01*
X007607Y006025D02*
X005064Y006025D01*
X005525Y006976D02*
X002559Y006976D01*
X002559Y006818D02*
X006405Y006818D01*
X006398Y006659D02*
X002559Y006659D01*
X002558Y006501D02*
X006422Y006501D01*
X006488Y006342D02*
X002558Y006342D01*
X002558Y006184D02*
X006642Y006184D01*
X007374Y006184D02*
X007493Y006184D01*
X008360Y006976D02*
X008479Y006976D01*
X008503Y007135D02*
X016988Y007135D01*
X015856Y007927D02*
X010710Y007927D01*
X010395Y008403D02*
X008741Y008403D01*
X008426Y007927D02*
X008298Y007927D01*
X008476Y007769D02*
X019688Y007769D01*
X019689Y007927D02*
X018344Y007927D01*
X018602Y008086D02*
X019691Y008086D01*
X019692Y008244D02*
X018705Y008244D01*
X018748Y008403D02*
X019693Y008403D01*
X019694Y008561D02*
X018748Y008561D01*
X018683Y008720D02*
X019695Y008720D01*
X019696Y008878D02*
X018549Y008878D01*
X018444Y009037D02*
X019697Y009037D01*
X019698Y009195D02*
X018612Y009195D01*
X018678Y009354D02*
X019699Y009354D01*
X019700Y009512D02*
X018685Y009512D01*
X018637Y009671D02*
X019701Y009671D01*
X019702Y009829D02*
X018510Y009829D01*
X018490Y009988D02*
X019703Y009988D01*
X019705Y010146D02*
X018663Y010146D01*
X018730Y010305D02*
X019706Y010305D01*
X019707Y010463D02*
X018748Y010463D01*
X018724Y010622D02*
X019708Y010622D01*
X019709Y010780D02*
X018647Y010780D01*
X018452Y010939D02*
X019710Y010939D01*
X019711Y011097D02*
X014481Y011097D01*
X014491Y011107D02*
X014578Y011317D01*
X014578Y011543D01*
X014491Y011753D01*
X014331Y011913D01*
X014121Y012000D01*
X013895Y012000D01*
X013685Y011913D01*
X013525Y011753D01*
X013438Y011543D01*
X013438Y011317D01*
X013525Y011107D01*
X013685Y010947D01*
X013895Y010860D01*
X014121Y010860D01*
X014331Y010947D01*
X014491Y011107D01*
X014553Y011256D02*
X019712Y011256D01*
X019713Y011414D02*
X014578Y011414D01*
X014566Y011573D02*
X019714Y011573D01*
X019715Y011731D02*
X016791Y011731D01*
X016823Y011890D02*
X019716Y011890D01*
X019717Y012048D02*
X018490Y012048D01*
X018600Y012207D02*
X019719Y012207D01*
X019720Y012365D02*
X018648Y012365D01*
X018648Y012524D02*
X019721Y012524D01*
X019722Y012682D02*
X018588Y012682D01*
X018461Y012841D02*
X019723Y012841D01*
X019724Y012999D02*
X018319Y012999D01*
X018503Y013158D02*
X019725Y013158D01*
X019726Y013316D02*
X018576Y013316D01*
X018587Y013475D02*
X019727Y013475D01*
X019728Y013633D02*
X019685Y013633D01*
X018831Y013633D02*
X018543Y013633D01*
X018640Y013792D02*
X018425Y013792D01*
X018360Y013950D02*
X018512Y013950D01*
X017256Y013950D02*
X015023Y013950D01*
X014865Y014109D02*
X017066Y014109D01*
X016991Y014267D02*
X014706Y014267D01*
X014548Y014426D02*
X016968Y014426D01*
X016987Y014584D02*
X014389Y014584D01*
X014231Y014743D02*
X017057Y014743D01*
X017191Y013792D02*
X015182Y013792D01*
X015340Y013633D02*
X016035Y013633D01*
X016258Y013633D02*
X016258Y013633D01*
X016258Y013475D02*
X016258Y013475D01*
X016258Y013316D02*
X016258Y013316D01*
X016481Y013633D02*
X017073Y013633D01*
X017029Y013475D02*
X016668Y013475D01*
X016745Y013316D02*
X017040Y013316D01*
X017113Y013158D02*
X016763Y013158D01*
X016730Y012999D02*
X017297Y012999D01*
X017155Y012841D02*
X016633Y012841D01*
X016745Y012682D02*
X017028Y012682D01*
X016968Y012524D02*
X016823Y012524D01*
X016823Y012365D02*
X016968Y012365D01*
X017016Y012207D02*
X016823Y012207D01*
X016823Y012048D02*
X017126Y012048D01*
X015725Y011731D02*
X014500Y011731D01*
X014355Y011890D02*
X015693Y011890D01*
X015155Y012048D02*
X012941Y012048D01*
X012783Y011890D02*
X013661Y011890D01*
X013516Y011731D02*
X012624Y011731D01*
X012466Y011573D02*
X013450Y011573D01*
X013438Y011414D02*
X012307Y011414D01*
X012255Y011362D02*
X012255Y011362D01*
X012110Y011256D02*
X013463Y011256D01*
X013535Y011097D02*
X012320Y011097D01*
X012280Y011137D02*
X012103Y011210D01*
X011913Y011210D01*
X011736Y011137D01*
X011601Y011002D01*
X011528Y010825D01*
X011528Y010635D01*
X011601Y010458D01*
X011736Y010323D01*
X011913Y010250D01*
X012103Y010250D01*
X012280Y010323D01*
X012415Y010458D01*
X012488Y010635D01*
X012488Y010825D01*
X012415Y011002D01*
X012280Y011137D01*
X012441Y010939D02*
X013705Y010939D01*
X014311Y010939D02*
X017364Y010939D01*
X017169Y010780D02*
X012488Y010780D01*
X012483Y010622D02*
X017092Y010622D01*
X016258Y009829D02*
X016258Y009829D01*
X016258Y009671D02*
X016258Y009671D01*
X016258Y009512D02*
X016258Y009512D01*
X013865Y009988D02*
X012771Y009988D01*
X012612Y009829D02*
X013601Y009829D01*
X013491Y009671D02*
X012454Y009671D01*
X012295Y009512D02*
X013438Y009512D01*
X013438Y009354D02*
X012137Y009354D01*
X011978Y009195D02*
X013488Y009195D01*
X013595Y009037D02*
X011820Y009037D01*
X011661Y008878D02*
X013851Y008878D01*
X012139Y010146D02*
X010549Y010146D01*
X010391Y009988D02*
X011980Y009988D01*
X011822Y009829D02*
X010232Y009829D01*
X010074Y009671D02*
X011663Y009671D01*
X011505Y009512D02*
X009915Y009512D01*
X009757Y009354D02*
X011346Y009354D01*
X011188Y009195D02*
X009666Y009195D01*
X009703Y009037D02*
X011029Y009037D01*
X010871Y008878D02*
X009703Y008878D01*
X009637Y008720D02*
X010712Y008720D01*
X010554Y008561D02*
X009508Y008561D01*
X008584Y009829D02*
X008415Y009829D01*
X008535Y009988D02*
X008151Y009988D01*
X008377Y010146D02*
X006830Y010146D01*
X006838Y010055D02*
X006333Y010055D01*
X006333Y010055D01*
X006838Y010055D01*
X006834Y009988D02*
X007865Y009988D01*
X007601Y009829D02*
X006785Y009829D01*
X006663Y009671D02*
X007491Y009671D01*
X007438Y009512D02*
X005133Y009512D01*
X005042Y009671D02*
X006003Y009671D01*
X005881Y009829D02*
X005243Y009829D01*
X005819Y009988D02*
X005832Y009988D01*
X006333Y009988D02*
X006333Y009988D01*
X006333Y010055D02*
X006333Y009550D01*
X006333Y010055D01*
X006333Y010055D01*
X006333Y009829D02*
X006333Y009829D01*
X006333Y009671D02*
X006333Y009671D01*
X006660Y009195D02*
X005288Y009195D01*
X005273Y009037D02*
X006502Y009037D01*
X006430Y008878D02*
X005198Y008878D01*
X005005Y008720D02*
X006398Y008720D01*
X006398Y008561D02*
X005169Y008561D01*
X005291Y008403D02*
X006463Y008403D01*
X006581Y008244D02*
X005348Y008244D01*
X005348Y008086D02*
X006551Y008086D01*
X006450Y007927D02*
X005297Y007927D01*
X005410Y007769D02*
X006398Y007769D01*
X006398Y007610D02*
X005617Y007610D01*
X005319Y007135D02*
X002559Y007135D01*
X002560Y007293D02*
X005112Y007293D01*
X004906Y007452D02*
X002560Y007452D01*
X002560Y007610D02*
X004700Y007610D01*
X003834Y007769D02*
X002561Y007769D01*
X002561Y007927D02*
X003719Y007927D01*
X003668Y008086D02*
X002561Y008086D01*
X002561Y008244D02*
X003668Y008244D01*
X003725Y008403D02*
X002562Y008403D01*
X002562Y008561D02*
X003847Y008561D01*
X004011Y008720D02*
X002562Y008720D01*
X002562Y008878D02*
X003818Y008878D01*
X003743Y009037D02*
X002563Y009037D01*
X002563Y009195D02*
X003728Y009195D01*
X003769Y009354D02*
X002563Y009354D01*
X002563Y009512D02*
X003883Y009512D01*
X003974Y009671D02*
X002564Y009671D01*
X002564Y009829D02*
X003773Y009829D01*
X003694Y009988D02*
X002564Y009988D01*
X002565Y010146D02*
X003668Y010146D01*
X003684Y010305D02*
X002565Y010305D01*
X002565Y010463D02*
X003750Y010463D01*
X003916Y010622D02*
X002565Y010622D01*
X002566Y010780D02*
X005750Y010780D01*
X005768Y010939D02*
X005061Y010939D01*
X005106Y010957D02*
X005258Y011109D01*
X005340Y011308D01*
X005340Y011522D01*
X005258Y011721D01*
X005106Y011873D01*
X004921Y011950D01*
X004984Y011970D01*
X005052Y012004D01*
X005113Y012049D01*
X005166Y012102D01*
X005211Y012163D01*
X005245Y012231D01*
X005268Y012303D01*
X005280Y012377D01*
X005280Y012395D01*
X004520Y012395D01*
X004520Y012435D01*
X005280Y012435D01*
X005280Y012453D01*
X005268Y012527D01*
X005245Y012599D01*
X005211Y012667D01*
X005166Y012728D01*
X005113Y012781D01*
X005052Y012826D01*
X004984Y012860D01*
X004921Y012880D01*
X005106Y012957D01*
X005258Y013109D01*
X005340Y013308D01*
X005340Y013522D01*
X005258Y013721D01*
X005106Y013873D01*
X004907Y013955D01*
X004093Y013955D01*
X003894Y013873D01*
X003742Y013721D01*
X003660Y013522D01*
X003660Y013308D01*
X003742Y013109D01*
X003894Y012957D01*
X004079Y012880D01*
X004016Y012860D01*
X003948Y012826D01*
X003887Y012781D01*
X003834Y012728D01*
X003789Y012667D01*
X003755Y012599D01*
X003732Y012527D01*
X003720Y012453D01*
X003720Y012435D01*
X004480Y012435D01*
X004480Y012395D01*
X003720Y012395D01*
X003720Y012377D01*
X003732Y012303D01*
X003755Y012231D01*
X003789Y012163D01*
X003834Y012102D01*
X003887Y012049D01*
X003948Y012004D01*
X004016Y011970D01*
X004079Y011950D01*
X003894Y011873D01*
X003742Y011721D01*
X003660Y011522D01*
X003660Y011308D01*
X003742Y011109D01*
X003894Y010957D01*
X004093Y010875D01*
X004907Y010875D01*
X005106Y010957D01*
X005246Y011097D02*
X005768Y011097D01*
X005768Y011256D02*
X005318Y011256D01*
X005340Y011414D02*
X005768Y011414D01*
X005861Y011573D02*
X005319Y011573D01*
X005248Y011731D02*
X007979Y011731D01*
X007950Y011573D02*
X006805Y011573D01*
X006898Y011414D02*
X007640Y011414D01*
X007495Y011256D02*
X006898Y011256D01*
X006898Y011097D02*
X007460Y011097D01*
X007497Y010939D02*
X006898Y010939D01*
X006898Y010780D02*
X007655Y010780D01*
X007901Y010622D02*
X006873Y010622D01*
X006631Y010463D02*
X008060Y010463D01*
X008218Y010305D02*
X006773Y010305D01*
X005634Y010622D02*
X005100Y010622D01*
X003939Y010939D02*
X002566Y010939D01*
X002566Y011097D02*
X003754Y011097D01*
X003682Y011256D02*
X002566Y011256D01*
X002567Y011414D02*
X003660Y011414D01*
X003681Y011573D02*
X002567Y011573D01*
X002567Y011731D02*
X003752Y011731D01*
X003935Y011890D02*
X002568Y011890D01*
X002568Y012048D02*
X003888Y012048D01*
X003768Y012207D02*
X002568Y012207D01*
X002568Y012365D02*
X003722Y012365D01*
X003731Y012524D02*
X002569Y012524D01*
X002569Y012682D02*
X003801Y012682D01*
X003978Y012841D02*
X002569Y012841D01*
X002569Y012999D02*
X003852Y012999D01*
X003722Y013158D02*
X002570Y013158D01*
X002570Y013316D02*
X003660Y013316D01*
X003660Y013475D02*
X002570Y013475D01*
X002570Y013633D02*
X002762Y013633D01*
X003254Y013633D02*
X003706Y013633D01*
X003813Y013792D02*
X003551Y013792D01*
X003710Y013950D02*
X004081Y013950D01*
X003788Y014109D02*
X005818Y014109D01*
X005818Y014267D02*
X003854Y014267D01*
X003861Y014426D02*
X005818Y014426D01*
X005818Y014584D02*
X003861Y014584D01*
X003813Y014743D02*
X005906Y014743D01*
X005922Y014758D02*
X005855Y014691D01*
X005818Y014603D01*
X005818Y013857D01*
X005855Y013769D01*
X005922Y013702D01*
X006010Y013665D01*
X006124Y013665D01*
X006118Y013662D01*
X006054Y013615D01*
X005998Y013559D01*
X005951Y013495D01*
X005915Y013424D01*
X005890Y013348D01*
X005878Y013270D01*
X005878Y013230D01*
X006383Y013230D01*
X006888Y013230D01*
X006888Y013270D01*
X006876Y013348D01*
X006851Y013424D01*
X006815Y013495D01*
X006768Y013559D01*
X006712Y013615D01*
X006648Y013662D01*
X006642Y013665D01*
X006756Y013665D01*
X006844Y013702D01*
X006911Y013769D01*
X006948Y013857D01*
X006948Y014603D01*
X006911Y014691D01*
X006844Y014758D01*
X006756Y014795D01*
X006010Y014795D01*
X005922Y014758D01*
X006860Y014743D02*
X008020Y014743D01*
X007955Y014584D02*
X006948Y014584D01*
X006948Y014426D02*
X007938Y014426D01*
X007959Y014267D02*
X006948Y014267D01*
X006948Y014109D02*
X008024Y014109D01*
X008182Y013950D02*
X006948Y013950D01*
X006921Y013792D02*
X013894Y013792D01*
X013834Y013950D02*
X013990Y013950D01*
X013992Y014109D02*
X014074Y014109D01*
X013736Y013633D02*
X006687Y013633D01*
X006825Y013475D02*
X013577Y013475D01*
X013419Y013316D02*
X006881Y013316D01*
X006888Y013230D02*
X006383Y013230D01*
X006383Y013230D01*
X006383Y013230D01*
X006383Y012725D01*
X006423Y012725D01*
X006501Y012737D01*
X006577Y012762D01*
X006648Y012798D01*
X006712Y012845D01*
X006768Y012901D01*
X006815Y012965D01*
X006851Y013036D01*
X006876Y013112D01*
X006888Y013190D01*
X006888Y013230D01*
X006883Y013158D02*
X013260Y013158D01*
X013102Y012999D02*
X012318Y012999D01*
X012280Y013037D02*
X012103Y013110D01*
X011913Y013110D01*
X011736Y013037D01*
X011601Y012902D01*
X011528Y012725D01*
X011528Y012535D01*
X011601Y012358D01*
X011736Y012223D01*
X011913Y012150D01*
X012103Y012150D01*
X012280Y012223D01*
X012415Y012358D01*
X012488Y012535D01*
X012488Y012725D01*
X012415Y012902D01*
X012280Y013037D01*
X012440Y012841D02*
X012943Y012841D01*
X012785Y012682D02*
X012488Y012682D01*
X012483Y012524D02*
X012626Y012524D01*
X012468Y012365D02*
X012418Y012365D01*
X012309Y012207D02*
X012240Y012207D01*
X012151Y012048D02*
X005112Y012048D01*
X005065Y011890D02*
X008101Y011890D01*
X008515Y011890D02*
X011992Y011890D01*
X011776Y012207D02*
X005232Y012207D01*
X005278Y012365D02*
X011598Y012365D01*
X011533Y012524D02*
X005269Y012524D01*
X005199Y012682D02*
X011528Y012682D01*
X011576Y012841D02*
X006706Y012841D01*
X006832Y012999D02*
X011698Y012999D01*
X011834Y013950D02*
X012335Y013950D01*
X012488Y013950D02*
X012528Y013950D01*
X012681Y013950D02*
X013182Y013950D01*
X013024Y014109D02*
X012905Y014109D01*
X012528Y014109D02*
X012488Y014109D01*
X012488Y014267D02*
X012528Y014267D01*
X012111Y014109D02*
X011992Y014109D01*
X011182Y013950D02*
X010834Y013950D01*
X010992Y014109D02*
X011024Y014109D01*
X010182Y013950D02*
X009834Y013950D01*
X009992Y014109D02*
X010024Y014109D01*
X009182Y013950D02*
X008834Y013950D01*
X008992Y014109D02*
X009024Y014109D01*
X006383Y013230D02*
X006383Y013230D01*
X005878Y013230D01*
X005878Y013190D01*
X005890Y013112D01*
X005915Y013036D01*
X005951Y012965D01*
X005998Y012901D01*
X006054Y012845D01*
X006118Y012798D01*
X006189Y012762D01*
X006265Y012737D01*
X006343Y012725D01*
X006383Y012725D01*
X006383Y013230D01*
X006383Y013158D02*
X006383Y013158D01*
X006383Y012999D02*
X006383Y012999D01*
X006383Y012841D02*
X006383Y012841D01*
X006060Y012841D02*
X005022Y012841D01*
X005148Y012999D02*
X005934Y012999D01*
X005883Y013158D02*
X005278Y013158D01*
X005340Y013316D02*
X005885Y013316D01*
X005941Y013475D02*
X005340Y013475D01*
X005294Y013633D02*
X006079Y013633D01*
X005845Y013792D02*
X005187Y013792D01*
X004919Y013950D02*
X005818Y013950D01*
X009402Y011731D02*
X011344Y011731D01*
X011185Y011573D02*
X009561Y011573D01*
X009719Y011414D02*
X011027Y011414D01*
X010868Y011256D02*
X009878Y011256D01*
X010036Y011097D02*
X010710Y011097D01*
X010551Y010939D02*
X010195Y010939D01*
X010866Y010463D02*
X011599Y010463D01*
X011533Y010622D02*
X011025Y010622D01*
X011183Y010780D02*
X011528Y010780D01*
X011575Y010939D02*
X011342Y010939D01*
X011500Y011097D02*
X011696Y011097D01*
X012417Y010463D02*
X012456Y010463D01*
X012297Y010305D02*
X012235Y010305D01*
X011781Y010305D02*
X010708Y010305D01*
X013100Y012207D02*
X015099Y012207D01*
X015099Y012365D02*
X013258Y012365D01*
X013417Y012524D02*
X015099Y012524D01*
X015099Y012682D02*
X013575Y012682D01*
X013734Y012841D02*
X015099Y012841D01*
X015099Y012999D02*
X013892Y012999D01*
X014051Y013158D02*
X015025Y013158D01*
X014867Y013316D02*
X014209Y013316D01*
X014406Y013475D02*
X014708Y013475D01*
X015499Y013475D02*
X015848Y013475D01*
X015771Y013316D02*
X015632Y013316D01*
X015657Y013158D02*
X015753Y013158D01*
X015786Y012999D02*
X015657Y012999D01*
X015657Y012841D02*
X015883Y012841D01*
X015771Y012682D02*
X015657Y012682D01*
X015657Y012524D02*
X015693Y012524D01*
X007562Y009069D02*
X007562Y009069D01*
X007482Y009069D02*
X007482Y009069D01*
X007488Y009195D02*
X007356Y009195D01*
X007438Y009354D02*
X005247Y009354D01*
X008626Y000636D02*
X017088Y000636D01*
X018195Y001587D02*
X018459Y001587D01*
X018352Y001746D02*
X018617Y001746D01*
X018456Y001904D02*
X018882Y001904D01*
X019484Y001904D02*
X019648Y001904D01*
D20*
X019183Y001105D03*
X003058Y001180D03*
X003008Y014455D03*
X019258Y014380D03*
M02*
