%
M48
M72
T01C0.0157
T02C0.0315
T03C0.0320
T04C0.0360
T05C0.0394
T06C0.0400
T07C0.0560
T08C0.0787
%
T01
X10237Y5658
X10394Y4949
X11784Y8040
X13386Y6052
X14922Y10540
X15339Y11685
X16725Y11552
X16182Y14122
X16654Y15500
X16516Y17217
X15276Y16445
X15355Y19162
X17127Y20500
X18111Y19044
X19568Y20933
X20040Y20776
X20001Y21957
X18465Y15500
X12918Y17926
X13072Y19083
X12835Y19595
X12087Y18571
X11142Y19792
X11536Y20776
X11536Y23571
X10906Y26721
X10788Y27469
X13268Y28493
X13386Y26524
X16654Y28689
X8662Y22587
X7442Y19319
X9135Y17626
X9135Y15579
X8701Y14556
X11694Y15500
X4489Y21485
X18426Y5697
T02
X19213Y7433
X19213Y8433
X19213Y9433
X19213Y10433
X19213Y11433
X19213Y12433
X19213Y13433
X19213Y14433
X19213Y15433
X19213Y16433
X19213Y17433
X19213Y18433
X19213Y19433
X19213Y20433
X19213Y21433
X19213Y22433
X19213Y23433
X19213Y24433
X19213Y25433
X19213Y26433
X10213Y26433
X10213Y25433
X10213Y24433
X10213Y23433
X10213Y22433
X10213Y21433
X10213Y20433
X10213Y19433
X10213Y18433
X10213Y17433
X10213Y16433
X10213Y15433
X10213Y14433
X10213Y13433
X10213Y12433
X10213Y11433
X10213Y10433
X10213Y9433
X10213Y8433
X10213Y7433
T03
X5544Y12002
X5544Y13002
X5544Y14002
X5544Y15002
X4544Y14502
X4544Y13502
X4544Y12502
X4544Y15502
X15432Y3508
X15932Y4508
X16432Y3508
X16932Y4508
X17432Y3508
X17932Y4508
X18432Y3508
X18932Y4508
T04
X5544Y18252
X5544Y19252
X5544Y20252
T05
X5044Y23465
X5044Y24465
X6863Y29752
X7863Y29752
X8863Y29752
X10469Y29752
X11469Y29752
X12469Y29752
X14075Y29752
X15075Y29752
X16075Y29752
X17682Y29752
X18682Y29752
X19682Y29752
X13469Y4008
X12469Y4008
X11469Y4008
X9182Y4008
X8182Y4008
X7182Y4008
T06
X21820Y15402
X21820Y16402
X21820Y17402
X21820Y18402
X21820Y21189
X21820Y22189
X21820Y23189
X21820Y24189
T07
X7611Y8835
X7611Y7457
T08
X4725Y3689
X22009Y3689
X22009Y30067
X4725Y30067
M30
