G75*
%MOIN*%
%OFA0B0*%
%FSLAX24Y24*%
%IPPOS*%
%LPD*%
%AMOC8*
5,1,8,0,0,1.08239X$1,22.5*
%
%ADD10C,0.0000*%
D10*
X002308Y000405D02*
X002333Y015126D01*
X019978Y015076D01*
X019878Y000380D01*
X002308Y000405D01*
X004607Y001542D02*
X004609Y001576D01*
X004615Y001610D01*
X004625Y001643D01*
X004638Y001674D01*
X004656Y001704D01*
X004676Y001732D01*
X004700Y001757D01*
X004726Y001779D01*
X004754Y001797D01*
X004785Y001813D01*
X004817Y001825D01*
X004851Y001833D01*
X004885Y001837D01*
X004919Y001837D01*
X004953Y001833D01*
X004987Y001825D01*
X005019Y001813D01*
X005049Y001797D01*
X005078Y001779D01*
X005104Y001757D01*
X005128Y001732D01*
X005148Y001704D01*
X005166Y001674D01*
X005179Y001643D01*
X005189Y001610D01*
X005195Y001576D01*
X005197Y001542D01*
X005195Y001508D01*
X005189Y001474D01*
X005179Y001441D01*
X005166Y001410D01*
X005148Y001380D01*
X005128Y001352D01*
X005104Y001327D01*
X005078Y001305D01*
X005050Y001287D01*
X005019Y001271D01*
X004987Y001259D01*
X004953Y001251D01*
X004919Y001247D01*
X004885Y001247D01*
X004851Y001251D01*
X004817Y001259D01*
X004785Y001271D01*
X004754Y001287D01*
X004726Y001305D01*
X004700Y001327D01*
X004676Y001352D01*
X004656Y001380D01*
X004638Y001410D01*
X004625Y001441D01*
X004615Y001474D01*
X004609Y001508D01*
X004607Y001542D01*
M02*
