G75*
G70*
%OFA0B0*%
%FSLAX24Y24*%
%IPPOS*%
%LPD*%
%AMOC8*
5,1,8,0,0,1.08239X$1,22.5*
%
%ADD10C,0.0060*%
%ADD11C,0.0080*%
%ADD12C,0.0010*%
%ADD13C,0.0050*%
%ADD14C,0.0040*%
D10*
X010000Y006685D02*
X011419Y006685D01*
X012383Y006193D02*
X012383Y005957D01*
X012856Y005957D02*
X012856Y006193D01*
X013561Y007619D02*
X013798Y007619D01*
X013798Y008091D02*
X013561Y008091D01*
X011419Y008545D02*
X010000Y008545D01*
D11*
X010263Y006905D02*
X010265Y006920D01*
X010271Y006933D01*
X010280Y006945D01*
X010291Y006954D01*
X010305Y006960D01*
X010320Y006962D01*
X010335Y006960D01*
X010348Y006954D01*
X010360Y006945D01*
X010369Y006934D01*
X010375Y006920D01*
X010377Y006905D01*
X010375Y006890D01*
X010369Y006877D01*
X010360Y006865D01*
X010349Y006856D01*
X010335Y006850D01*
X010320Y006848D01*
X010305Y006850D01*
X010292Y006856D01*
X010280Y006865D01*
X010271Y006876D01*
X010265Y006890D01*
X010263Y006905D01*
D12*
X010715Y007170D02*
X010865Y007170D01*
X010865Y007120D02*
X010865Y007220D01*
X010865Y007267D02*
X010865Y007342D01*
X010840Y007367D01*
X010790Y007367D01*
X010765Y007342D01*
X010765Y007267D01*
X010765Y007317D02*
X010715Y007367D01*
X010715Y007415D02*
X010815Y007415D01*
X010865Y007465D01*
X010815Y007515D01*
X010715Y007515D01*
X010715Y007562D02*
X010865Y007562D01*
X010715Y007662D01*
X010865Y007662D01*
X010840Y007709D02*
X010815Y007709D01*
X010790Y007734D01*
X010790Y007784D01*
X010765Y007809D01*
X010740Y007809D01*
X010715Y007784D01*
X010715Y007734D01*
X010740Y007709D01*
X010840Y007709D02*
X010865Y007734D01*
X010865Y007784D01*
X010840Y007809D01*
X010840Y007857D02*
X010740Y007857D01*
X010715Y007882D01*
X010715Y007932D01*
X010740Y007957D01*
X010715Y008004D02*
X010715Y008104D01*
X010715Y008151D02*
X010715Y008201D01*
X010715Y008176D02*
X010865Y008176D01*
X010865Y008151D02*
X010865Y008201D01*
X010865Y008249D02*
X010765Y008249D01*
X010715Y008300D01*
X010765Y008350D01*
X010865Y008350D01*
X010865Y008397D02*
X010715Y008397D01*
X010715Y008497D01*
X010715Y008544D02*
X010865Y008544D01*
X010865Y008619D01*
X010840Y008644D01*
X010790Y008644D01*
X010765Y008619D01*
X010765Y008544D01*
X010765Y008594D02*
X010715Y008644D01*
X010865Y008497D02*
X010865Y008397D01*
X010790Y008397D02*
X010790Y008447D01*
X010865Y008104D02*
X010865Y008004D01*
X010715Y008004D01*
X010790Y008004D02*
X010790Y008054D01*
X010840Y007957D02*
X010865Y007932D01*
X010865Y007882D01*
X010840Y007857D01*
X010790Y007515D02*
X010790Y007415D01*
X010715Y007267D02*
X010865Y007267D01*
X012140Y006333D02*
X012140Y006233D01*
X012140Y006185D02*
X012190Y006135D01*
X012190Y006160D02*
X012190Y006085D01*
X012140Y006085D02*
X012290Y006085D01*
X012290Y006160D01*
X012265Y006185D01*
X012215Y006185D01*
X012190Y006160D01*
X012240Y006233D02*
X012290Y006283D01*
X012140Y006283D01*
X013422Y007375D02*
X013522Y007375D01*
X013422Y007475D01*
X013422Y007500D01*
X013447Y007525D01*
X013497Y007525D01*
X013522Y007500D01*
X013569Y007500D02*
X013569Y007450D01*
X013594Y007425D01*
X013669Y007425D01*
X013619Y007425D02*
X013569Y007375D01*
X013669Y007375D02*
X013669Y007525D01*
X013594Y007525D01*
X013569Y007500D01*
D13*
X012690Y006325D02*
X012690Y019325D01*
D14*
X005912Y007345D02*
X005759Y007345D01*
X005835Y007345D02*
X005835Y007805D01*
X005759Y007805D02*
X005912Y007805D01*
X006066Y007805D02*
X006066Y007345D01*
X006373Y007805D01*
X006373Y007345D01*
X006526Y007345D02*
X006679Y007345D01*
X006603Y007345D02*
X006603Y007805D01*
X006679Y007805D02*
X006526Y007805D01*
X006833Y007805D02*
X006833Y007345D01*
X007140Y007345D02*
X007140Y007805D01*
X006986Y007652D01*
X006833Y007805D01*
X007293Y007268D02*
X007600Y007268D01*
X007754Y007422D02*
X007754Y007729D01*
X007830Y007805D01*
X007984Y007805D01*
X008061Y007729D01*
X008061Y007422D01*
X007984Y007345D01*
X007830Y007345D01*
X007754Y007422D01*
X008214Y007345D02*
X008214Y007805D01*
X008521Y007805D02*
X008214Y007345D01*
X008521Y007345D02*
X008521Y007805D01*
X008674Y007805D02*
X008828Y007805D01*
X008751Y007805D02*
X008751Y007345D01*
X008828Y007345D02*
X008674Y007345D01*
X008981Y007422D02*
X009058Y007345D01*
X009212Y007345D01*
X009288Y007422D01*
X009288Y007805D01*
X009442Y007729D02*
X009519Y007805D01*
X009749Y007805D01*
X009749Y007345D01*
X009519Y007345D01*
X009442Y007422D01*
X009442Y007729D01*
X008981Y007805D02*
X008981Y007422D01*
X009902Y007345D02*
X010056Y007498D01*
X009979Y007498D02*
X009902Y007575D01*
X009902Y007729D01*
X009979Y007805D01*
X010209Y007805D01*
X010209Y007345D01*
X010209Y007498D02*
X009979Y007498D01*
X010363Y007575D02*
X010670Y007575D01*
X010670Y007652D02*
X010516Y007805D01*
X010363Y007652D01*
X010363Y007345D01*
X010670Y007345D02*
X010670Y007652D01*
M02*
