%
M48
M72
T01C0.0118
T02C0.0157
T03C0.0236
T04C0.0315
T05C0.0360
T06C0.0400
T07C0.0591
%
T01
X6715Y10243
X5731Y11228
X5101Y11228
X4983Y12212
X6467Y11897
X7345Y11818
X7975Y11267
X8920Y13354
X9629Y14417
X4944Y17094
X14117Y19220
X19314Y13826
X20456Y13984
X21755Y12488
X25259Y14456
X25928Y13905
X25889Y16346
X17975Y7488
X19865Y6188
T02
X15089Y9759
X12487Y15322
X4365Y13661
T03
X9263Y21830
T04
X1680Y12598
X1680Y11598
X2680Y12098
X2680Y11098
X1680Y8598
X1680Y7598
X1680Y6598
X2680Y7098
X2680Y8098
X2680Y6098
X26680Y6098
X26680Y5098
X26680Y4098
X26680Y3098
X27680Y3598
X27680Y4598
X27680Y5598
X27680Y8098
X27680Y9098
X27680Y10098
X26680Y10598
X26680Y9598
X26680Y8598
X27680Y2598
X27680Y19098
X27680Y20098
X27680Y21098
X26680Y21598
X26680Y20598
X26680Y19598
T05
X23680Y19598
X23680Y20598
X22680Y20598
X22680Y19598
X22680Y18598
X23680Y18598
X23680Y17598
X22680Y17598
X22680Y16598
X23680Y16598
X23680Y15598
X22680Y15598
X22680Y14598
X23680Y14598
X23680Y13598
X22680Y13598
X22680Y12598
X23680Y12598
X21967Y5326
X20967Y5326
X19967Y5326
X6680Y12598
X6680Y13598
X5680Y13598
X5680Y12598
X5680Y14598
X6680Y14598
X6680Y15598
X6680Y16598
X5680Y16598
X5680Y15598
X5680Y17598
X6680Y17598
X6680Y18598
X5680Y18598
X5680Y19598
X5680Y20598
X6680Y20598
X6680Y19598
X6680Y21598
X5680Y21598
X22680Y21598
X23680Y21598
T06
X27180Y16598
X27180Y15598
X27180Y14598
X27180Y13598
X14491Y5275
X13491Y5275
X12491Y5275
X11491Y5275
X10491Y5275
X9491Y5275
X2680Y15598
X2680Y16598
X2680Y17598
X2680Y18598
X2680Y20598
X2680Y21598
X2680Y22598
X2680Y23598
T07
X1824Y5460
X1824Y10460
X26824Y7460
X26824Y1960
X26824Y18460
M30
