G75*
%MOIN*%
%OFA0B0*%
%FSLAX24Y24*%
%IPPOS*%
%LPD*%
%AMOC8*
5,1,8,0,0,1.08239X$1,22.5*
%
%ADD10C,0.0000*%
D10*
X000180Y000598D02*
X000180Y026594D01*
X029050Y026594D01*
X029050Y000598D01*
X000180Y000598D01*
X001529Y005460D02*
X001531Y005494D01*
X001537Y005528D01*
X001547Y005561D01*
X001560Y005592D01*
X001578Y005622D01*
X001598Y005650D01*
X001622Y005675D01*
X001648Y005697D01*
X001676Y005715D01*
X001707Y005731D01*
X001739Y005743D01*
X001773Y005751D01*
X001807Y005755D01*
X001841Y005755D01*
X001875Y005751D01*
X001909Y005743D01*
X001941Y005731D01*
X001971Y005715D01*
X002000Y005697D01*
X002026Y005675D01*
X002050Y005650D01*
X002070Y005622D01*
X002088Y005592D01*
X002101Y005561D01*
X002111Y005528D01*
X002117Y005494D01*
X002119Y005460D01*
X002117Y005426D01*
X002111Y005392D01*
X002101Y005359D01*
X002088Y005328D01*
X002070Y005298D01*
X002050Y005270D01*
X002026Y005245D01*
X002000Y005223D01*
X001972Y005205D01*
X001941Y005189D01*
X001909Y005177D01*
X001875Y005169D01*
X001841Y005165D01*
X001807Y005165D01*
X001773Y005169D01*
X001739Y005177D01*
X001707Y005189D01*
X001676Y005205D01*
X001648Y005223D01*
X001622Y005245D01*
X001598Y005270D01*
X001578Y005298D01*
X001560Y005328D01*
X001547Y005359D01*
X001537Y005392D01*
X001531Y005426D01*
X001529Y005460D01*
X001529Y010460D02*
X001531Y010494D01*
X001537Y010528D01*
X001547Y010561D01*
X001560Y010592D01*
X001578Y010622D01*
X001598Y010650D01*
X001622Y010675D01*
X001648Y010697D01*
X001676Y010715D01*
X001707Y010731D01*
X001739Y010743D01*
X001773Y010751D01*
X001807Y010755D01*
X001841Y010755D01*
X001875Y010751D01*
X001909Y010743D01*
X001941Y010731D01*
X001971Y010715D01*
X002000Y010697D01*
X002026Y010675D01*
X002050Y010650D01*
X002070Y010622D01*
X002088Y010592D01*
X002101Y010561D01*
X002111Y010528D01*
X002117Y010494D01*
X002119Y010460D01*
X002117Y010426D01*
X002111Y010392D01*
X002101Y010359D01*
X002088Y010328D01*
X002070Y010298D01*
X002050Y010270D01*
X002026Y010245D01*
X002000Y010223D01*
X001972Y010205D01*
X001941Y010189D01*
X001909Y010177D01*
X001875Y010169D01*
X001841Y010165D01*
X001807Y010165D01*
X001773Y010169D01*
X001739Y010177D01*
X001707Y010189D01*
X001676Y010205D01*
X001648Y010223D01*
X001622Y010245D01*
X001598Y010270D01*
X001578Y010298D01*
X001560Y010328D01*
X001547Y010359D01*
X001537Y010392D01*
X001531Y010426D01*
X001529Y010460D01*
X026529Y007460D02*
X026531Y007494D01*
X026537Y007528D01*
X026547Y007561D01*
X026560Y007592D01*
X026578Y007622D01*
X026598Y007650D01*
X026622Y007675D01*
X026648Y007697D01*
X026676Y007715D01*
X026707Y007731D01*
X026739Y007743D01*
X026773Y007751D01*
X026807Y007755D01*
X026841Y007755D01*
X026875Y007751D01*
X026909Y007743D01*
X026941Y007731D01*
X026971Y007715D01*
X027000Y007697D01*
X027026Y007675D01*
X027050Y007650D01*
X027070Y007622D01*
X027088Y007592D01*
X027101Y007561D01*
X027111Y007528D01*
X027117Y007494D01*
X027119Y007460D01*
X027117Y007426D01*
X027111Y007392D01*
X027101Y007359D01*
X027088Y007328D01*
X027070Y007298D01*
X027050Y007270D01*
X027026Y007245D01*
X027000Y007223D01*
X026972Y007205D01*
X026941Y007189D01*
X026909Y007177D01*
X026875Y007169D01*
X026841Y007165D01*
X026807Y007165D01*
X026773Y007169D01*
X026739Y007177D01*
X026707Y007189D01*
X026676Y007205D01*
X026648Y007223D01*
X026622Y007245D01*
X026598Y007270D01*
X026578Y007298D01*
X026560Y007328D01*
X026547Y007359D01*
X026537Y007392D01*
X026531Y007426D01*
X026529Y007460D01*
X026529Y001960D02*
X026531Y001994D01*
X026537Y002028D01*
X026547Y002061D01*
X026560Y002092D01*
X026578Y002122D01*
X026598Y002150D01*
X026622Y002175D01*
X026648Y002197D01*
X026676Y002215D01*
X026707Y002231D01*
X026739Y002243D01*
X026773Y002251D01*
X026807Y002255D01*
X026841Y002255D01*
X026875Y002251D01*
X026909Y002243D01*
X026941Y002231D01*
X026971Y002215D01*
X027000Y002197D01*
X027026Y002175D01*
X027050Y002150D01*
X027070Y002122D01*
X027088Y002092D01*
X027101Y002061D01*
X027111Y002028D01*
X027117Y001994D01*
X027119Y001960D01*
X027117Y001926D01*
X027111Y001892D01*
X027101Y001859D01*
X027088Y001828D01*
X027070Y001798D01*
X027050Y001770D01*
X027026Y001745D01*
X027000Y001723D01*
X026972Y001705D01*
X026941Y001689D01*
X026909Y001677D01*
X026875Y001669D01*
X026841Y001665D01*
X026807Y001665D01*
X026773Y001669D01*
X026739Y001677D01*
X026707Y001689D01*
X026676Y001705D01*
X026648Y001723D01*
X026622Y001745D01*
X026598Y001770D01*
X026578Y001798D01*
X026560Y001828D01*
X026547Y001859D01*
X026537Y001892D01*
X026531Y001926D01*
X026529Y001960D01*
X026529Y018460D02*
X026531Y018494D01*
X026537Y018528D01*
X026547Y018561D01*
X026560Y018592D01*
X026578Y018622D01*
X026598Y018650D01*
X026622Y018675D01*
X026648Y018697D01*
X026676Y018715D01*
X026707Y018731D01*
X026739Y018743D01*
X026773Y018751D01*
X026807Y018755D01*
X026841Y018755D01*
X026875Y018751D01*
X026909Y018743D01*
X026941Y018731D01*
X026971Y018715D01*
X027000Y018697D01*
X027026Y018675D01*
X027050Y018650D01*
X027070Y018622D01*
X027088Y018592D01*
X027101Y018561D01*
X027111Y018528D01*
X027117Y018494D01*
X027119Y018460D01*
X027117Y018426D01*
X027111Y018392D01*
X027101Y018359D01*
X027088Y018328D01*
X027070Y018298D01*
X027050Y018270D01*
X027026Y018245D01*
X027000Y018223D01*
X026972Y018205D01*
X026941Y018189D01*
X026909Y018177D01*
X026875Y018169D01*
X026841Y018165D01*
X026807Y018165D01*
X026773Y018169D01*
X026739Y018177D01*
X026707Y018189D01*
X026676Y018205D01*
X026648Y018223D01*
X026622Y018245D01*
X026598Y018270D01*
X026578Y018298D01*
X026560Y018328D01*
X026547Y018359D01*
X026537Y018392D01*
X026531Y018426D01*
X026529Y018460D01*
M02*
