G75*
%MOIN*%
%OFA0B0*%
%FSLAX24Y24*%
%IPPOS*%
%LPD*%
%AMOC8*
5,1,8,0,0,1.08239X$1,22.5*
%
%ADD10C,0.0560*%
%ADD11C,0.0594*%
%ADD12C,0.1185*%
%ADD13C,0.0240*%
%ADD14C,0.0396*%
%ADD15C,0.1266*%
D10*
X005259Y002787D03*
X006259Y002787D03*
X005759Y001787D03*
X006759Y001787D03*
D11*
X006669Y008801D02*
X006669Y009395D01*
X005669Y009395D02*
X005669Y008801D01*
D12*
X006141Y006647D02*
X006141Y005462D01*
X004561Y005462D02*
X004561Y006647D01*
X007721Y006647D02*
X007721Y005462D01*
D13*
X007721Y006055D02*
X007721Y008046D01*
X006669Y009098D01*
X007243Y009086D02*
X007243Y009509D01*
X007156Y009720D01*
X006994Y009882D01*
X006783Y009969D01*
X006555Y009969D01*
X006343Y009882D01*
X006182Y009720D01*
X006169Y009688D01*
X006156Y009720D01*
X005994Y009882D01*
X005783Y009969D01*
X005555Y009969D01*
X005343Y009882D01*
X005182Y009720D01*
X005094Y009509D01*
X005094Y008687D01*
X005182Y008476D01*
X005343Y008314D01*
X005555Y008227D01*
X005783Y008227D01*
X005994Y008314D01*
X006156Y008476D01*
X006169Y008507D01*
X006182Y008476D01*
X006343Y008314D01*
X006555Y008227D01*
X006783Y008227D01*
X006921Y008284D01*
X007324Y007881D01*
X007324Y007424D01*
X007228Y007385D01*
X006984Y007140D01*
X006931Y007013D01*
X006879Y007140D01*
X006634Y007385D01*
X006314Y007517D01*
X005968Y007517D01*
X005648Y007385D01*
X005404Y007140D01*
X005320Y006938D01*
X005292Y007007D01*
X005238Y007100D01*
X005173Y007184D01*
X005098Y007259D01*
X005014Y007324D01*
X004921Y007377D01*
X004823Y007418D01*
X004720Y007446D01*
X004639Y007456D01*
X004639Y006132D01*
X004484Y006132D01*
X004484Y007456D01*
X004402Y007446D01*
X004300Y007418D01*
X004201Y007377D01*
X004109Y007324D01*
X004024Y007259D01*
X003949Y007184D01*
X003884Y007100D01*
X003831Y007007D01*
X003790Y006909D01*
X003763Y006806D01*
X003749Y006700D01*
X003749Y006132D01*
X004484Y006132D01*
X004484Y005977D01*
X004639Y005977D01*
X004639Y004653D01*
X004720Y004664D01*
X004823Y004691D01*
X004921Y004732D01*
X005014Y004785D01*
X005098Y004850D01*
X005173Y004925D01*
X005238Y005010D01*
X005292Y005102D01*
X005320Y005171D01*
X005404Y004969D01*
X005648Y004725D01*
X005744Y004685D01*
X005744Y004617D01*
X003945Y004617D01*
X002956Y005607D01*
X002956Y005615D01*
X002884Y005789D01*
X002750Y005923D01*
X002575Y005996D01*
X002386Y005996D01*
X002211Y005923D01*
X002077Y005789D01*
X002005Y005615D01*
X002005Y005425D01*
X002077Y005251D01*
X002211Y005117D01*
X002386Y005044D01*
X002394Y005044D01*
X003555Y003883D01*
X003702Y003823D01*
X006616Y003823D01*
X006783Y003655D01*
X006783Y002979D01*
X006732Y003103D01*
X006575Y003260D01*
X006370Y003344D01*
X006148Y003344D01*
X005944Y003260D01*
X005787Y003103D01*
X005728Y002962D01*
X005723Y002979D01*
X005687Y003049D01*
X005641Y003113D01*
X005585Y003168D01*
X005521Y003215D01*
X005451Y003250D01*
X005376Y003275D01*
X005299Y003287D01*
X005259Y003287D01*
X005220Y003287D01*
X005142Y003275D01*
X005067Y003250D01*
X004997Y003215D01*
X004934Y003168D01*
X004878Y003113D01*
X004832Y003049D01*
X004796Y002979D01*
X004772Y002904D01*
X004759Y002826D01*
X004759Y002787D01*
X005259Y002787D01*
X005259Y002787D01*
X004759Y002787D01*
X004759Y002748D01*
X004760Y002746D01*
X004459Y002746D01*
X004160Y002622D01*
X003930Y002392D01*
X003806Y002093D01*
X003806Y001768D01*
X003930Y001469D01*
X004160Y001239D01*
X004459Y001115D01*
X004784Y001115D01*
X005083Y001239D01*
X005301Y001457D01*
X005444Y001314D01*
X005648Y001229D01*
X005870Y001229D01*
X006075Y001314D01*
X006232Y001471D01*
X006259Y001537D01*
X006287Y001471D01*
X006444Y001314D01*
X006648Y001229D01*
X006870Y001229D01*
X007075Y001314D01*
X007232Y001471D01*
X007317Y001676D01*
X007317Y001694D01*
X007406Y001783D01*
X007518Y001895D01*
X007578Y002041D01*
X007578Y003899D01*
X007518Y004045D01*
X007118Y004445D01*
X007006Y004557D01*
X006860Y004617D01*
X006539Y004617D01*
X006539Y004685D01*
X006634Y004725D01*
X006879Y004969D01*
X006931Y005096D01*
X006984Y004969D01*
X007228Y004725D01*
X007548Y004592D01*
X007894Y004592D01*
X008214Y004725D01*
X008459Y004969D01*
X008591Y005289D01*
X008591Y006820D01*
X008459Y007140D01*
X008214Y007385D01*
X008119Y007424D01*
X008119Y008125D01*
X008058Y008271D01*
X007946Y008382D01*
X007243Y009086D01*
X007284Y009045D02*
X011472Y009045D01*
X011472Y009283D02*
X007243Y009283D01*
X007238Y009522D02*
X011472Y009522D01*
X011472Y009760D02*
X007116Y009760D01*
X006222Y009760D02*
X006116Y009760D01*
X005222Y009760D02*
X000701Y009760D01*
X000701Y009522D02*
X005100Y009522D01*
X005094Y009283D02*
X000701Y009283D01*
X000701Y009045D02*
X005094Y009045D01*
X005094Y008806D02*
X000701Y008806D01*
X000701Y008568D02*
X005144Y008568D01*
X005329Y008329D02*
X000701Y008329D01*
X000701Y008091D02*
X007114Y008091D01*
X007324Y007852D02*
X000701Y007852D01*
X000701Y007614D02*
X007324Y007614D01*
X007219Y007375D02*
X006644Y007375D01*
X006880Y007137D02*
X006982Y007137D01*
X008119Y007614D02*
X011472Y007614D01*
X011472Y007852D02*
X008119Y007852D01*
X008119Y008091D02*
X011472Y008091D01*
X011472Y008329D02*
X008000Y008329D01*
X007761Y008568D02*
X011472Y008568D01*
X011472Y008806D02*
X007523Y008806D01*
X006329Y008329D02*
X006009Y008329D01*
X005639Y007375D02*
X004926Y007375D01*
X005210Y007137D02*
X005402Y007137D01*
X004639Y007137D02*
X004484Y007137D01*
X004484Y007375D02*
X004639Y007375D01*
X004197Y007375D02*
X000701Y007375D01*
X000701Y007137D02*
X003913Y007137D01*
X003787Y006898D02*
X000701Y006898D01*
X000701Y006660D02*
X003749Y006660D01*
X003749Y006421D02*
X000701Y006421D01*
X000701Y006183D02*
X003749Y006183D01*
X003749Y005977D02*
X003749Y005409D01*
X003763Y005303D01*
X003790Y005200D01*
X003831Y005102D01*
X003884Y005010D01*
X003949Y004925D01*
X004024Y004850D01*
X004109Y004785D01*
X004201Y004732D01*
X004300Y004691D01*
X004402Y004664D01*
X004484Y004653D01*
X004484Y005977D01*
X003749Y005977D01*
X003749Y005944D02*
X002700Y005944D01*
X002919Y005706D02*
X003749Y005706D01*
X003749Y005467D02*
X003096Y005467D01*
X003334Y005229D02*
X003783Y005229D01*
X003899Y004990D02*
X003573Y004990D01*
X003811Y004752D02*
X004167Y004752D01*
X004484Y004752D02*
X004639Y004752D01*
X004639Y004990D02*
X004484Y004990D01*
X004484Y005229D02*
X004639Y005229D01*
X004639Y005467D02*
X004484Y005467D01*
X004484Y005706D02*
X004639Y005706D01*
X004639Y005944D02*
X004484Y005944D01*
X004484Y006183D02*
X004639Y006183D01*
X004639Y006421D02*
X004484Y006421D01*
X004484Y006660D02*
X004639Y006660D01*
X004639Y006898D02*
X004484Y006898D01*
X006141Y006055D02*
X006141Y004259D01*
X006181Y004220D01*
X003781Y004220D01*
X002481Y005520D01*
X002261Y005944D02*
X000701Y005944D01*
X000701Y005706D02*
X002043Y005706D01*
X002005Y005467D02*
X000701Y005467D01*
X000701Y005229D02*
X002100Y005229D01*
X002449Y004990D02*
X000701Y004990D01*
X000701Y004752D02*
X002687Y004752D01*
X002926Y004513D02*
X000701Y004513D01*
X000701Y004275D02*
X003164Y004275D01*
X003403Y004036D02*
X000701Y004036D01*
X000701Y003798D02*
X006641Y003798D01*
X006783Y003559D02*
X000701Y003559D01*
X000701Y003321D02*
X006091Y003321D01*
X005778Y003082D02*
X005663Y003082D01*
X005259Y003082D02*
X005259Y003082D01*
X005259Y003287D02*
X005259Y002787D01*
X005259Y003287D01*
X005259Y002844D02*
X005259Y002844D01*
X005259Y002787D02*
X005259Y002787D01*
X004856Y003082D02*
X000701Y003082D01*
X000701Y002844D02*
X004762Y002844D01*
X004143Y002605D02*
X000701Y002605D01*
X000701Y002367D02*
X003920Y002367D01*
X003821Y002128D02*
X000701Y002128D01*
X000701Y001890D02*
X003806Y001890D01*
X003855Y001651D02*
X001376Y001651D01*
X001366Y001661D02*
X001031Y001800D01*
X000701Y001800D01*
X000701Y010451D01*
X001031Y010451D01*
X001366Y010590D01*
X001622Y010846D01*
X001760Y011181D01*
X001760Y011511D01*
X010412Y011511D01*
X010412Y011181D01*
X010550Y010846D01*
X010807Y010590D01*
X011141Y010451D01*
X011472Y010451D01*
X011472Y001800D01*
X011141Y001800D01*
X010807Y001661D01*
X010550Y001405D01*
X010412Y001070D01*
X010412Y000740D01*
X001760Y000740D01*
X001760Y001070D01*
X001622Y001405D01*
X001366Y001661D01*
X001614Y001413D02*
X003987Y001413D01*
X004318Y001174D02*
X001718Y001174D01*
X001760Y000936D02*
X010412Y000936D01*
X010455Y001174D02*
X004925Y001174D01*
X005256Y001413D02*
X005345Y001413D01*
X006173Y001413D02*
X006345Y001413D01*
X006759Y001787D02*
X006848Y001787D01*
X007181Y002120D01*
X007181Y003820D01*
X006781Y004220D01*
X006181Y004220D01*
X006661Y004752D02*
X007202Y004752D01*
X007050Y004513D02*
X011472Y004513D01*
X011472Y004275D02*
X007288Y004275D01*
X007521Y004036D02*
X011472Y004036D01*
X011472Y003798D02*
X007578Y003798D01*
X007578Y003559D02*
X011472Y003559D01*
X011472Y003321D02*
X007578Y003321D01*
X007578Y003082D02*
X011472Y003082D01*
X011472Y002844D02*
X007578Y002844D01*
X007578Y002605D02*
X011472Y002605D01*
X011472Y002367D02*
X007578Y002367D01*
X007578Y002128D02*
X011472Y002128D01*
X011472Y001890D02*
X007512Y001890D01*
X007306Y001651D02*
X010796Y001651D01*
X010558Y001413D02*
X007173Y001413D01*
X006783Y003082D02*
X006741Y003082D01*
X006783Y003321D02*
X006428Y003321D01*
X005622Y004752D02*
X004955Y004752D01*
X005223Y004990D02*
X005395Y004990D01*
X006887Y004990D02*
X006975Y004990D01*
X008241Y004752D02*
X011472Y004752D01*
X011472Y004990D02*
X008467Y004990D01*
X008566Y005229D02*
X011472Y005229D01*
X011472Y005467D02*
X008591Y005467D01*
X008591Y005706D02*
X011472Y005706D01*
X011472Y005944D02*
X008591Y005944D01*
X008591Y006183D02*
X011472Y006183D01*
X011472Y006421D02*
X008591Y006421D01*
X008591Y006660D02*
X011472Y006660D01*
X011472Y006898D02*
X008559Y006898D01*
X008460Y007137D02*
X011472Y007137D01*
X011472Y007375D02*
X008224Y007375D01*
X011083Y010476D02*
X001090Y010476D01*
X000701Y010237D02*
X011472Y010237D01*
X011472Y009999D02*
X000701Y009999D01*
X001490Y010714D02*
X010682Y010714D01*
X010506Y010953D02*
X001666Y010953D01*
X001760Y011191D02*
X010412Y011191D01*
X010412Y011430D02*
X001760Y011430D01*
D14*
X002481Y005520D03*
D15*
X000850Y000889D03*
X000850Y011362D03*
X011322Y011362D03*
X011322Y000889D03*
M02*
