G75*
%MOIN*%
%OFA0B0*%
%FSLAX24Y24*%
%IPPOS*%
%LPD*%
%AMOC8*
5,1,8,0,0,1.08239X$1,22.5*
%
%ADD10C,0.0000*%
D10*
X000181Y000220D02*
X000181Y012031D01*
X011992Y012031D01*
X011992Y000220D01*
X000181Y000220D01*
X004327Y001931D02*
X004329Y001965D01*
X004335Y001999D01*
X004345Y002032D01*
X004358Y002063D01*
X004376Y002093D01*
X004396Y002121D01*
X004420Y002146D01*
X004446Y002168D01*
X004474Y002186D01*
X004505Y002202D01*
X004537Y002214D01*
X004571Y002222D01*
X004605Y002226D01*
X004639Y002226D01*
X004673Y002222D01*
X004707Y002214D01*
X004739Y002202D01*
X004769Y002186D01*
X004798Y002168D01*
X004824Y002146D01*
X004848Y002121D01*
X004868Y002093D01*
X004886Y002063D01*
X004899Y002032D01*
X004909Y001999D01*
X004915Y001965D01*
X004917Y001931D01*
X004915Y001897D01*
X004909Y001863D01*
X004899Y001830D01*
X004886Y001799D01*
X004868Y001769D01*
X004848Y001741D01*
X004824Y001716D01*
X004798Y001694D01*
X004770Y001676D01*
X004739Y001660D01*
X004707Y001648D01*
X004673Y001640D01*
X004639Y001636D01*
X004605Y001636D01*
X004571Y001640D01*
X004537Y001648D01*
X004505Y001660D01*
X004474Y001676D01*
X004446Y001694D01*
X004420Y001716D01*
X004396Y001741D01*
X004376Y001769D01*
X004358Y001799D01*
X004345Y001830D01*
X004335Y001863D01*
X004329Y001897D01*
X004327Y001931D01*
M02*
