G75*
%MOIN*%
%OFA0B0*%
%FSLAX24Y24*%
%IPPOS*%
%LPD*%
%AMOC8*
5,1,8,0,0,1.08239X$1,22.5*
%
%ADD10C,0.0050*%
%ADD11C,0.0040*%
D10*
X004647Y001303D02*
X004647Y001696D01*
X004844Y001696D01*
X004844Y002877D01*
X004647Y002877D01*
X004647Y003271D01*
X007372Y003271D01*
X007372Y002877D01*
X007175Y002877D01*
X007175Y001696D01*
X007372Y001696D01*
X007372Y001303D01*
X004647Y001303D01*
D11*
X004977Y000933D02*
X004977Y000626D01*
X004977Y000856D02*
X005284Y000856D01*
X005284Y000933D02*
X005284Y000626D01*
X005438Y000626D02*
X005591Y000626D01*
X005515Y000626D02*
X005515Y001086D01*
X005591Y001086D02*
X005438Y001086D01*
X005284Y000933D02*
X005131Y001086D01*
X004977Y000933D01*
X005745Y000549D02*
X006052Y000549D01*
X006205Y000626D02*
X006512Y000626D01*
X006512Y001086D01*
X006205Y001086D01*
X006359Y000856D02*
X006512Y000856D01*
X006666Y001086D02*
X006973Y001086D01*
X007126Y001009D02*
X007126Y000856D01*
X007203Y000779D01*
X007433Y000779D01*
X007433Y000626D02*
X007433Y001086D01*
X007203Y001086D01*
X007126Y001009D01*
X007279Y000779D02*
X007126Y000626D01*
X006819Y000626D02*
X006819Y001086D01*
X007586Y000933D02*
X007586Y000626D01*
X007586Y000856D02*
X007893Y000856D01*
X007893Y000933D02*
X007893Y000626D01*
X008047Y000703D02*
X008124Y000626D01*
X008277Y000626D01*
X008354Y000703D01*
X008354Y001009D01*
X008277Y001086D01*
X008124Y001086D01*
X008047Y001009D01*
X007893Y000933D02*
X007740Y001086D01*
X007586Y000933D01*
M02*
