G75*
%MOIN*%
%OFA0B0*%
%FSLAX24Y24*%
%IPPOS*%
%LPD*%
%AMOC8*
5,1,8,0,0,1.08239X$1,22.5*
%
%ADD10C,0.0560*%
%ADD11C,0.0594*%
%ADD12C,0.1185*%
%ADD13R,0.0591X0.0512*%
%ADD14R,0.0630X0.0512*%
%ADD15R,0.0472X0.0472*%
%ADD16C,0.0240*%
%ADD17C,0.0396*%
%ADD18C,0.1266*%
D10*
X005259Y002787D03*
X006259Y002787D03*
X005759Y001787D03*
X006759Y001787D03*
D11*
X006669Y008801D02*
X006669Y009395D01*
X005669Y009395D02*
X005669Y008801D01*
D12*
X006141Y006647D02*
X006141Y005462D01*
X004561Y005462D02*
X004561Y006647D01*
X007721Y006647D02*
X007721Y005462D01*
D13*
X008590Y002440D03*
X008590Y001692D03*
D14*
X010543Y007736D03*
X010543Y008484D03*
X001677Y008704D03*
X001677Y007956D03*
D15*
X001677Y006381D03*
X001677Y005555D03*
X010555Y005547D03*
X010555Y006374D03*
D16*
X010543Y006385D01*
X010543Y007736D01*
X010940Y007214D02*
X011015Y007245D01*
X011093Y007323D01*
X011135Y007425D01*
X011135Y008047D01*
X011109Y008110D01*
X011135Y008173D01*
X011135Y008795D01*
X011093Y008897D01*
X011015Y008975D01*
X010913Y009017D01*
X010173Y009017D01*
X010071Y008975D01*
X009993Y008897D01*
X009986Y008881D01*
X007735Y008881D01*
X007589Y008821D01*
X007478Y008709D01*
X006286Y007517D01*
X005968Y007517D01*
X005648Y007385D01*
X005404Y007140D01*
X005320Y006938D01*
X005292Y007007D01*
X005238Y007100D01*
X005173Y007184D01*
X005098Y007259D01*
X005014Y007324D01*
X004921Y007377D01*
X004823Y007418D01*
X004720Y007446D01*
X004639Y007456D01*
X004639Y006132D01*
X004484Y006132D01*
X004484Y007456D01*
X004402Y007446D01*
X004300Y007418D01*
X004201Y007377D01*
X004109Y007324D01*
X004024Y007259D01*
X003949Y007184D01*
X003884Y007100D01*
X003831Y007007D01*
X003790Y006909D01*
X003763Y006806D01*
X003749Y006700D01*
X003749Y006132D01*
X004484Y006132D01*
X004484Y005977D01*
X004639Y005977D01*
X004639Y004653D01*
X004720Y004664D01*
X004823Y004691D01*
X004921Y004732D01*
X005014Y004785D01*
X005098Y004850D01*
X005173Y004925D01*
X005238Y005010D01*
X005292Y005102D01*
X005320Y005171D01*
X005404Y004969D01*
X005648Y004725D01*
X005968Y004592D01*
X006314Y004592D01*
X006634Y004725D01*
X006879Y004969D01*
X006931Y005096D01*
X006984Y004969D01*
X007228Y004725D01*
X007324Y004685D01*
X007324Y003225D01*
X007316Y003217D01*
X006617Y003217D01*
X006575Y003260D01*
X006370Y003344D01*
X006148Y003344D01*
X005944Y003260D01*
X005787Y003103D01*
X005728Y002962D01*
X005723Y002979D01*
X005687Y003049D01*
X005641Y003113D01*
X005585Y003168D01*
X005521Y003215D01*
X005451Y003250D01*
X005376Y003275D01*
X005299Y003287D01*
X005259Y003287D01*
X005220Y003287D01*
X005142Y003275D01*
X005067Y003250D01*
X004997Y003215D01*
X004934Y003168D01*
X004878Y003113D01*
X004832Y003049D01*
X004796Y002979D01*
X004772Y002904D01*
X004759Y002826D01*
X004759Y002787D01*
X005259Y002787D01*
X005259Y002787D01*
X004759Y002787D01*
X004759Y002748D01*
X004760Y002746D01*
X004459Y002746D01*
X004160Y002622D01*
X003930Y002392D01*
X003825Y002138D01*
X003478Y002485D01*
X003478Y007855D01*
X004323Y008700D01*
X005094Y008700D01*
X005094Y008687D01*
X005182Y008476D01*
X005343Y008314D01*
X005555Y008227D01*
X005783Y008227D01*
X005994Y008314D01*
X006156Y008476D01*
X006169Y008507D01*
X006182Y008476D01*
X006343Y008314D01*
X006555Y008227D01*
X006783Y008227D01*
X006994Y008314D01*
X007156Y008476D01*
X007243Y008687D01*
X007243Y009509D01*
X007156Y009720D01*
X007066Y009810D01*
X007066Y009992D01*
X007006Y010138D01*
X006581Y010563D01*
X006581Y010563D01*
X006469Y010675D01*
X006323Y010736D01*
X002188Y010736D01*
X002042Y010675D01*
X001930Y010563D01*
X001452Y010085D01*
X001340Y009973D01*
X001279Y009827D01*
X001279Y009226D01*
X001205Y009195D01*
X001126Y009117D01*
X001084Y009015D01*
X001084Y008393D01*
X001110Y008330D01*
X001084Y008267D01*
X001084Y007645D01*
X001126Y007543D01*
X001205Y007465D01*
X001279Y007434D01*
X001279Y006849D01*
X001205Y006775D01*
X001163Y006673D01*
X001163Y006090D01*
X001205Y005988D01*
X001225Y005968D01*
X001205Y005948D01*
X001163Y005846D01*
X001163Y005263D01*
X001205Y005161D01*
X001283Y005083D01*
X001385Y005041D01*
X001968Y005041D01*
X002070Y005083D01*
X002109Y005123D01*
X002206Y005123D01*
X002211Y005117D01*
X002386Y005044D01*
X002575Y005044D01*
X002683Y005089D01*
X002683Y002241D01*
X002744Y002095D01*
X003844Y000995D01*
X003955Y000883D01*
X004102Y000823D01*
X005272Y000823D01*
X005418Y000883D01*
X005737Y001202D01*
X006199Y000740D01*
X001760Y000740D01*
X001760Y001070D01*
X001622Y001405D01*
X001366Y001661D01*
X001031Y001800D01*
X000701Y001800D01*
X000701Y010451D01*
X001031Y010451D01*
X001366Y010590D01*
X001622Y010846D01*
X001760Y011181D01*
X001760Y011511D01*
X010412Y011511D01*
X010412Y011181D01*
X010550Y010846D01*
X010807Y010590D01*
X011141Y010451D01*
X011472Y010451D01*
X011472Y001800D01*
X011141Y001800D01*
X010807Y001661D01*
X010550Y001405D01*
X010412Y001070D01*
X010412Y000740D01*
X008200Y000740D01*
X008619Y001159D01*
X008941Y001159D01*
X009043Y001201D01*
X009121Y001279D01*
X009163Y001381D01*
X009163Y002004D01*
X009121Y002106D01*
X009098Y002128D01*
X011472Y002128D01*
X011472Y001890D02*
X009163Y001890D01*
X009163Y001651D02*
X010796Y001651D01*
X010558Y001413D02*
X009163Y001413D01*
X008977Y001174D02*
X010455Y001174D01*
X010412Y000936D02*
X008395Y000936D01*
X007718Y000820D02*
X008590Y001692D01*
X008082Y002128D02*
X008060Y002106D01*
X008017Y002004D01*
X008017Y001682D01*
X007553Y001217D01*
X006845Y001217D01*
X006833Y001229D01*
X006870Y001229D01*
X007075Y001314D01*
X007232Y001471D01*
X007317Y001676D01*
X007317Y001898D01*
X007232Y002103D01*
X007075Y002260D01*
X006870Y002344D01*
X006648Y002344D01*
X006444Y002260D01*
X006287Y002103D01*
X006259Y002037D01*
X006232Y002103D01*
X006075Y002260D01*
X005870Y002344D01*
X005648Y002344D01*
X005444Y002260D01*
X005390Y002206D01*
X005353Y002296D01*
X005376Y002299D01*
X005451Y002324D01*
X005521Y002359D01*
X005585Y002406D01*
X005641Y002461D01*
X005687Y002525D01*
X005723Y002595D01*
X005728Y002612D01*
X005787Y002471D01*
X005944Y002314D01*
X006148Y002229D01*
X006370Y002229D01*
X006575Y002314D01*
X006683Y002423D01*
X007560Y002423D01*
X007706Y002483D01*
X007818Y002595D01*
X008058Y002835D01*
X008119Y002982D01*
X008119Y004685D01*
X008214Y004725D01*
X008459Y004969D01*
X008591Y005289D01*
X008591Y006820D01*
X008459Y007140D01*
X008214Y007385D01*
X007894Y007517D01*
X007548Y007517D01*
X007312Y007419D01*
X007979Y008086D01*
X009967Y008086D01*
X009950Y008047D01*
X009950Y007425D01*
X009993Y007323D01*
X010071Y007245D01*
X010145Y007214D01*
X010145Y006829D01*
X010083Y006767D01*
X010041Y006665D01*
X010041Y006082D01*
X010083Y005980D01*
X010144Y005920D01*
X010142Y005918D01*
X010113Y005868D01*
X010098Y005812D01*
X010098Y005547D01*
X010555Y005547D01*
X011011Y005547D01*
X011011Y005812D01*
X010996Y005868D01*
X010967Y005918D01*
X010965Y005920D01*
X011026Y005980D01*
X011068Y006082D01*
X011068Y006665D01*
X011026Y006767D01*
X010948Y006845D01*
X010940Y006848D01*
X010940Y007214D01*
X010940Y007137D02*
X011472Y007137D01*
X011472Y007375D02*
X011115Y007375D01*
X011135Y007614D02*
X011472Y007614D01*
X011472Y007852D02*
X011135Y007852D01*
X011117Y008091D02*
X011472Y008091D01*
X011472Y008329D02*
X011135Y008329D01*
X011135Y008568D02*
X011472Y008568D01*
X011472Y008806D02*
X011131Y008806D01*
X011472Y009045D02*
X007243Y009045D01*
X007243Y009283D02*
X011472Y009283D01*
X011472Y009522D02*
X007238Y009522D01*
X007116Y009760D02*
X011472Y009760D01*
X011472Y009999D02*
X007064Y009999D01*
X006907Y010237D02*
X011472Y010237D01*
X011083Y010476D02*
X006668Y010476D01*
X006375Y010714D02*
X010682Y010714D01*
X010506Y010953D02*
X001666Y010953D01*
X001760Y011191D02*
X010412Y011191D01*
X010412Y011430D02*
X001760Y011430D01*
X001490Y010714D02*
X002136Y010714D01*
X001843Y010476D02*
X001090Y010476D01*
X000701Y010237D02*
X001604Y010237D01*
X001452Y010085D02*
X001452Y010085D01*
X001366Y009999D02*
X000701Y009999D01*
X000701Y009760D02*
X001279Y009760D01*
X001279Y009522D02*
X000701Y009522D01*
X000701Y009283D02*
X001279Y009283D01*
X001096Y009045D02*
X000701Y009045D01*
X000701Y008806D02*
X001084Y008806D01*
X001084Y008568D02*
X000701Y008568D01*
X000701Y008329D02*
X001110Y008329D01*
X001084Y008091D02*
X000701Y008091D01*
X000701Y007852D02*
X001084Y007852D01*
X001097Y007614D02*
X000701Y007614D01*
X000701Y007375D02*
X001279Y007375D01*
X001279Y007137D02*
X000701Y007137D01*
X000701Y006898D02*
X001279Y006898D01*
X001163Y006660D02*
X000701Y006660D01*
X000701Y006421D02*
X001163Y006421D01*
X001163Y006183D02*
X000701Y006183D01*
X000701Y005944D02*
X001204Y005944D01*
X001163Y005706D02*
X000701Y005706D01*
X000701Y005467D02*
X001163Y005467D01*
X001177Y005229D02*
X000701Y005229D01*
X000701Y004990D02*
X002683Y004990D01*
X002683Y004752D02*
X000701Y004752D01*
X000701Y004513D02*
X002683Y004513D01*
X002683Y004275D02*
X000701Y004275D01*
X000701Y004036D02*
X002683Y004036D01*
X002683Y003798D02*
X000701Y003798D01*
X000701Y003559D02*
X002683Y003559D01*
X002683Y003321D02*
X000701Y003321D01*
X000701Y003082D02*
X002683Y003082D01*
X002683Y002844D02*
X000701Y002844D01*
X000701Y002605D02*
X002683Y002605D01*
X002683Y002367D02*
X000701Y002367D01*
X000701Y002128D02*
X002730Y002128D01*
X002949Y001890D02*
X000701Y001890D01*
X001376Y001651D02*
X003188Y001651D01*
X003426Y001413D02*
X001614Y001413D01*
X001718Y001174D02*
X003665Y001174D01*
X003903Y000936D02*
X001760Y000936D01*
X003081Y002320D02*
X004181Y001220D01*
X005192Y001220D01*
X005759Y001787D01*
X005759Y001741D01*
X006681Y000820D01*
X007718Y000820D01*
X007748Y001413D02*
X007173Y001413D01*
X007306Y001651D02*
X007987Y001651D01*
X008017Y001890D02*
X007317Y001890D01*
X007207Y002128D02*
X008082Y002128D01*
X008075Y002156D01*
X008075Y002433D01*
X008582Y002433D01*
X008582Y002448D01*
X008075Y002448D01*
X008075Y002725D01*
X008090Y002781D01*
X008119Y002831D01*
X008160Y002872D01*
X008210Y002901D01*
X008266Y002916D01*
X008582Y002916D01*
X008582Y002448D01*
X008598Y002448D01*
X009105Y002448D01*
X009105Y002725D01*
X009090Y002781D01*
X009061Y002831D01*
X009020Y002872D01*
X008970Y002901D01*
X008914Y002916D01*
X008598Y002916D01*
X008598Y002448D01*
X008598Y002433D01*
X009105Y002433D01*
X009105Y002156D01*
X009098Y002128D01*
X009105Y002367D02*
X011472Y002367D01*
X011472Y002605D02*
X009105Y002605D01*
X009049Y002844D02*
X011472Y002844D01*
X011472Y003082D02*
X008119Y003082D01*
X008119Y003321D02*
X011472Y003321D01*
X011472Y003559D02*
X008119Y003559D01*
X008119Y003798D02*
X011472Y003798D01*
X011472Y004036D02*
X008119Y004036D01*
X008119Y004275D02*
X011472Y004275D01*
X011472Y004513D02*
X008119Y004513D01*
X008241Y004752D02*
X011472Y004752D01*
X011472Y004990D02*
X008467Y004990D01*
X008566Y005229D02*
X010113Y005229D01*
X010113Y005226D02*
X010142Y005175D01*
X010183Y005135D01*
X010234Y005106D01*
X010289Y005091D01*
X010555Y005091D01*
X010820Y005091D01*
X010876Y005106D01*
X010926Y005135D01*
X010967Y005175D01*
X010996Y005226D01*
X011011Y005282D01*
X011011Y005547D01*
X010555Y005547D01*
X010555Y005547D01*
X010555Y004405D01*
X008590Y002440D01*
X008582Y002605D02*
X008598Y002605D01*
X008582Y002844D02*
X008598Y002844D01*
X008131Y002844D02*
X008062Y002844D01*
X008075Y002605D02*
X007828Y002605D01*
X008075Y002367D02*
X006627Y002367D01*
X006312Y002128D02*
X006207Y002128D01*
X005891Y002367D02*
X005531Y002367D01*
X005726Y002605D02*
X005731Y002605D01*
X005259Y002787D02*
X005259Y002787D01*
X005259Y003287D01*
X005259Y002787D01*
X005259Y002844D02*
X005259Y002844D01*
X005259Y003082D02*
X005259Y003082D01*
X005663Y003082D02*
X005778Y003082D01*
X006091Y003321D02*
X003478Y003321D01*
X003478Y003559D02*
X007324Y003559D01*
X007324Y003798D02*
X003478Y003798D01*
X003478Y004036D02*
X007324Y004036D01*
X007324Y004275D02*
X003478Y004275D01*
X003478Y004513D02*
X007324Y004513D01*
X007202Y004752D02*
X006661Y004752D01*
X006887Y004990D02*
X006975Y004990D01*
X007721Y006055D02*
X007721Y003061D01*
X007481Y002820D01*
X006292Y002820D01*
X006259Y002787D01*
X006428Y003321D02*
X007324Y003321D01*
X005622Y004752D02*
X004955Y004752D01*
X005223Y004990D02*
X005395Y004990D01*
X004639Y004990D02*
X004484Y004990D01*
X004484Y004752D02*
X004639Y004752D01*
X004484Y004653D02*
X004484Y005977D01*
X003749Y005977D01*
X003749Y005409D01*
X003763Y005303D01*
X003790Y005200D01*
X003831Y005102D01*
X003884Y005010D01*
X003949Y004925D01*
X004024Y004850D01*
X004109Y004785D01*
X004201Y004732D01*
X004300Y004691D01*
X004402Y004664D01*
X004484Y004653D01*
X004167Y004752D02*
X003478Y004752D01*
X003478Y004990D02*
X003899Y004990D01*
X003783Y005229D02*
X003478Y005229D01*
X003478Y005467D02*
X003749Y005467D01*
X003749Y005706D02*
X003478Y005706D01*
X003478Y005944D02*
X003749Y005944D01*
X003749Y006183D02*
X003478Y006183D01*
X003478Y006421D02*
X003749Y006421D01*
X003749Y006660D02*
X003478Y006660D01*
X003478Y006898D02*
X003787Y006898D01*
X003913Y007137D02*
X003478Y007137D01*
X003478Y007375D02*
X004197Y007375D01*
X004484Y007375D02*
X004639Y007375D01*
X004639Y007137D02*
X004484Y007137D01*
X004484Y006898D02*
X004639Y006898D01*
X004639Y006660D02*
X004484Y006660D01*
X004484Y006421D02*
X004639Y006421D01*
X004639Y006183D02*
X004484Y006183D01*
X004484Y005944D02*
X004639Y005944D01*
X004639Y005706D02*
X004484Y005706D01*
X004484Y005467D02*
X004639Y005467D01*
X004639Y005229D02*
X004484Y005229D01*
X006141Y006055D02*
X006141Y006811D01*
X007814Y008484D01*
X010543Y008484D01*
X009950Y007852D02*
X007745Y007852D01*
X007506Y007614D02*
X009950Y007614D01*
X009971Y007375D02*
X008224Y007375D01*
X008460Y007137D02*
X010145Y007137D01*
X010145Y006898D02*
X008559Y006898D01*
X008591Y006660D02*
X010041Y006660D01*
X010041Y006421D02*
X008591Y006421D01*
X008591Y006183D02*
X010041Y006183D01*
X010119Y005944D02*
X008591Y005944D01*
X008591Y005706D02*
X010098Y005706D01*
X010098Y005547D02*
X010098Y005282D01*
X010113Y005226D01*
X010098Y005467D02*
X008591Y005467D01*
X010098Y005547D02*
X010555Y005547D01*
X010555Y005091D01*
X010555Y005547D01*
X010555Y005547D01*
X010555Y005547D01*
X010555Y005467D02*
X010555Y005467D01*
X010555Y005229D02*
X010555Y005229D01*
X010997Y005229D02*
X011472Y005229D01*
X011472Y005467D02*
X011011Y005467D01*
X011011Y005706D02*
X011472Y005706D01*
X011472Y005944D02*
X010990Y005944D01*
X011068Y006183D02*
X011472Y006183D01*
X011472Y006421D02*
X011068Y006421D01*
X011068Y006660D02*
X011472Y006660D01*
X011472Y006898D02*
X010940Y006898D01*
X007575Y008806D02*
X007243Y008806D01*
X007194Y008568D02*
X007336Y008568D01*
X007098Y008329D02*
X007009Y008329D01*
X006859Y008091D02*
X003713Y008091D01*
X003478Y007852D02*
X006621Y007852D01*
X006382Y007614D02*
X003478Y007614D01*
X003081Y008020D02*
X003081Y002320D01*
X003478Y002605D02*
X004143Y002605D01*
X003920Y002367D02*
X003596Y002367D01*
X003478Y002844D02*
X004762Y002844D01*
X004856Y003082D02*
X003478Y003082D01*
X005470Y000936D02*
X006003Y000936D01*
X005765Y001174D02*
X005709Y001174D01*
X002481Y005520D02*
X001711Y005520D01*
X001677Y005555D01*
X001677Y006381D02*
X001677Y007956D01*
X001677Y008704D02*
X001677Y009748D01*
X002267Y010338D01*
X006244Y010338D01*
X006669Y009913D01*
X006669Y009098D01*
X006329Y008329D02*
X006009Y008329D01*
X005329Y008329D02*
X003952Y008329D01*
X004190Y008568D02*
X005144Y008568D01*
X005669Y009098D02*
X004159Y009098D01*
X003081Y008020D01*
X004926Y007375D02*
X005639Y007375D01*
X005402Y007137D02*
X005210Y007137D01*
D17*
X002481Y005520D03*
D18*
X000850Y000889D03*
X000850Y011362D03*
X011322Y011362D03*
X011322Y000889D03*
M02*
