G75*
%MOIN*%
%OFA0B0*%
%FSLAX24Y24*%
%IPPOS*%
%LPD*%
%AMOC8*
5,1,8,0,0,1.08239X$1,22.5*
%
%ADD10C,0.0040*%
%ADD11C,0.0100*%
%ADD12C,0.0060*%
%ADD13C,0.0070*%
%ADD14C,0.0025*%
%ADD15C,0.0098*%
D10*
X000901Y002640D02*
X001131Y002640D01*
X001208Y002717D01*
X001208Y002793D01*
X001131Y002870D01*
X000901Y002870D01*
X001131Y002870D02*
X001208Y002947D01*
X001208Y003024D01*
X001131Y003100D01*
X000901Y003100D01*
X000901Y002640D01*
X001361Y002717D02*
X001438Y002640D01*
X001591Y002640D01*
X001668Y002717D01*
X001668Y003024D01*
X001591Y003100D01*
X001438Y003100D01*
X001361Y003024D01*
X001361Y002717D01*
X001821Y002717D02*
X001821Y003100D01*
X001821Y003390D02*
X001821Y003850D01*
X002052Y003850D01*
X002128Y003774D01*
X002128Y003620D01*
X002052Y003543D01*
X001821Y003543D01*
X001668Y003620D02*
X001361Y003620D01*
X001361Y003697D02*
X001514Y003850D01*
X001668Y003697D01*
X001668Y003390D01*
X001361Y003390D02*
X001361Y003697D01*
X001208Y003774D02*
X001131Y003850D01*
X000977Y003850D01*
X000901Y003774D01*
X000901Y003467D01*
X000977Y003390D01*
X001131Y003390D01*
X001208Y003467D01*
X001821Y002717D02*
X001898Y002640D01*
X002052Y002640D01*
X002128Y002717D01*
X002128Y003100D01*
X002282Y003100D02*
X002589Y003100D01*
X002742Y003024D02*
X002742Y002717D01*
X002819Y002640D01*
X002972Y002640D01*
X003049Y002717D01*
X003049Y003024D01*
X002972Y003100D01*
X002819Y003100D01*
X002742Y003024D01*
X002435Y003100D02*
X002435Y002640D01*
X002435Y003390D02*
X002435Y003850D01*
X002282Y003850D02*
X002589Y003850D01*
X002742Y003850D02*
X002742Y003390D01*
X003049Y003390D01*
X002896Y003620D02*
X002742Y003620D01*
X002742Y003850D02*
X003049Y003850D01*
X003203Y003100D02*
X003510Y002640D01*
X003510Y003100D01*
X003203Y003100D02*
X003203Y002640D01*
X002128Y003390D02*
X001975Y003543D01*
X001186Y005397D02*
X001263Y005474D01*
X001263Y005551D01*
X001186Y005628D01*
X000803Y005628D01*
X000803Y005704D02*
X000803Y005551D01*
X000956Y005858D02*
X000803Y006011D01*
X000956Y006165D01*
X001263Y006165D01*
X001186Y006318D02*
X001263Y006395D01*
X001263Y006548D01*
X001186Y006625D01*
X000803Y006625D01*
X000803Y006779D02*
X001263Y007086D01*
X000803Y007086D01*
X000803Y007239D02*
X001263Y007239D01*
X001263Y007546D01*
X001033Y007393D02*
X001033Y007239D01*
X000803Y007239D02*
X000803Y007546D01*
X000696Y007850D02*
X000696Y008080D01*
X000773Y008157D01*
X000926Y008157D01*
X001003Y008080D01*
X001003Y007850D01*
X001157Y007850D02*
X000696Y007850D01*
X001003Y008004D02*
X001157Y008157D01*
X001080Y008311D02*
X001157Y008387D01*
X001157Y008541D01*
X001080Y008618D01*
X001003Y008618D01*
X000926Y008541D01*
X000926Y008464D01*
X000926Y008541D02*
X000850Y008618D01*
X000773Y008618D01*
X000696Y008541D01*
X000696Y008387D01*
X000773Y008311D01*
X000803Y006779D02*
X001263Y006779D01*
X001186Y006318D02*
X000803Y006318D01*
X001033Y006165D02*
X001033Y005858D01*
X000956Y005858D02*
X001263Y005858D01*
X005309Y010618D02*
X005309Y010978D01*
X005189Y010978D02*
X005429Y010978D01*
X005557Y010978D02*
X005677Y010978D01*
X005617Y010978D02*
X005617Y010618D01*
X005557Y010618D02*
X005677Y010618D01*
X005803Y010618D02*
X005803Y010978D01*
X005983Y010978D01*
X006043Y010918D01*
X006043Y010798D01*
X005983Y010738D01*
X005803Y010738D01*
X005923Y010738D02*
X006043Y010618D01*
X006171Y010618D02*
X006411Y010618D01*
X006291Y010798D02*
X006171Y010798D01*
X006171Y010978D02*
X006171Y010618D01*
X006171Y010978D02*
X006411Y010978D01*
X006539Y010978D02*
X006780Y010978D01*
X006659Y010978D02*
X006659Y010618D01*
X007028Y010618D02*
X007028Y010978D01*
X006908Y010978D02*
X007148Y010978D01*
X007276Y010978D02*
X007276Y010618D01*
X007516Y010618D01*
X007396Y010798D02*
X007276Y010798D01*
X007276Y010978D02*
X007516Y010978D01*
X008301Y010474D02*
X008301Y010397D01*
X008608Y010090D01*
X008608Y010243D02*
X008454Y010090D01*
X008377Y010090D01*
X008301Y010167D01*
X008301Y010243D01*
X008454Y010397D01*
X008454Y010474D01*
X008377Y010550D01*
X008301Y010474D01*
X008761Y010840D02*
X008761Y011147D01*
X008914Y011300D01*
X009068Y011147D01*
X009068Y010840D01*
X009221Y010840D02*
X009221Y011300D01*
X009452Y011300D01*
X009528Y011224D01*
X009528Y011070D01*
X009452Y010993D01*
X009221Y010993D01*
X009375Y010993D02*
X009528Y010840D01*
X009682Y010840D02*
X009989Y010840D01*
X010142Y010917D02*
X010219Y010840D01*
X010372Y010840D01*
X010449Y010917D01*
X010449Y010993D01*
X010372Y011070D01*
X010219Y011070D01*
X010142Y011147D01*
X010142Y011224D01*
X010219Y011300D01*
X010372Y011300D01*
X010449Y011224D01*
X009989Y011300D02*
X009682Y011300D01*
X009682Y010840D01*
X009682Y011070D02*
X009835Y011070D01*
X009912Y010550D02*
X009682Y010550D01*
X009682Y010090D01*
X009682Y010243D02*
X009912Y010243D01*
X009989Y010320D01*
X009989Y010474D01*
X009912Y010550D01*
X010142Y010550D02*
X010142Y010090D01*
X010449Y010090D01*
X010603Y010167D02*
X010679Y010090D01*
X010833Y010090D01*
X010910Y010167D01*
X010910Y010474D02*
X010833Y010550D01*
X010679Y010550D01*
X010603Y010474D01*
X010603Y010167D01*
X010296Y010320D02*
X010142Y010320D01*
X010142Y010550D02*
X010449Y010550D01*
X009989Y010090D02*
X009835Y010243D01*
X009528Y010320D02*
X009221Y010320D01*
X009221Y010397D02*
X009375Y010550D01*
X009528Y010397D01*
X009528Y010090D01*
X009221Y010090D02*
X009221Y010397D01*
X009375Y009800D02*
X009375Y009340D01*
X009528Y009340D02*
X009221Y009340D01*
X009068Y009417D02*
X008991Y009340D01*
X008838Y009340D01*
X008761Y009417D01*
X009068Y009724D01*
X009068Y009417D01*
X009221Y009647D02*
X009375Y009800D01*
X009068Y009724D02*
X008991Y009800D01*
X008838Y009800D01*
X008761Y009724D01*
X008761Y009417D01*
X008608Y009340D02*
X008301Y009340D01*
X008608Y009647D01*
X008608Y009724D01*
X008531Y009800D01*
X008377Y009800D01*
X008301Y009724D01*
X008761Y011070D02*
X009068Y011070D01*
X009912Y009800D02*
X009682Y009570D01*
X009989Y009570D01*
X009912Y009340D02*
X009912Y009800D01*
X011139Y008476D02*
X011062Y008400D01*
X011062Y008246D01*
X011139Y008169D01*
X011139Y008016D02*
X011293Y008016D01*
X011369Y007939D01*
X011369Y007709D01*
X011523Y007709D02*
X011062Y007709D01*
X011062Y007939D01*
X011139Y008016D01*
X011369Y007862D02*
X011523Y008016D01*
X011523Y008169D02*
X011216Y008476D01*
X011139Y008476D01*
X011523Y008476D02*
X011523Y008169D01*
X010141Y007538D02*
X010141Y007231D01*
X009681Y007231D01*
X009681Y007538D01*
X009911Y007385D02*
X009911Y007231D01*
X009911Y007078D02*
X009911Y006924D01*
X009911Y007078D02*
X010064Y007078D01*
X010141Y007001D01*
X010141Y006848D01*
X010064Y006771D01*
X009757Y006771D01*
X009681Y006848D01*
X009681Y007001D01*
X009757Y007078D01*
X009681Y006617D02*
X010064Y006617D01*
X010141Y006541D01*
X010141Y006387D01*
X010064Y006310D01*
X009681Y006310D01*
X009757Y006157D02*
X009681Y006080D01*
X009681Y005927D01*
X009757Y005850D01*
X010064Y005850D01*
X010141Y005927D01*
X010141Y006080D01*
X010064Y006157D01*
X009757Y006157D01*
X009757Y005697D02*
X009911Y005697D01*
X009987Y005620D01*
X009987Y005390D01*
X009987Y005543D02*
X010141Y005697D01*
X010141Y005390D02*
X009681Y005390D01*
X009681Y005620D01*
X009757Y005697D01*
X009570Y002183D02*
X009570Y001876D01*
X009570Y001723D02*
X009417Y001569D01*
X009417Y001646D02*
X009417Y001416D01*
X009570Y001416D02*
X009110Y001416D01*
X009110Y001646D01*
X009186Y001723D01*
X009340Y001723D01*
X009417Y001646D01*
X009263Y001876D02*
X009110Y002030D01*
X009570Y002030D01*
D11*
X007169Y007848D02*
X005169Y007848D01*
X005169Y009598D01*
X007169Y009598D01*
X007169Y007848D01*
X007169Y009598D02*
X007169Y010348D01*
X005169Y010348D01*
X005169Y009598D01*
D12*
X005241Y007755D02*
X005011Y007435D01*
X003761Y007435D01*
X003511Y007185D01*
X003511Y004925D01*
X003761Y004675D01*
X005011Y004675D01*
X005241Y004355D01*
X007041Y004355D01*
X007251Y004675D01*
X008521Y004675D01*
X008771Y004925D01*
X008771Y007185D01*
X008521Y007435D01*
X007271Y007435D01*
X007041Y007755D01*
X005241Y007755D01*
D13*
X003106Y007668D02*
X003106Y008088D01*
X003001Y008312D02*
X003106Y008417D01*
X003106Y008628D01*
X003001Y008733D01*
X002476Y008733D01*
X002476Y008957D02*
X002476Y009272D01*
X002581Y009377D01*
X002791Y009377D01*
X002896Y009272D01*
X002896Y008957D01*
X002896Y009167D02*
X003106Y009377D01*
X003106Y008957D02*
X002476Y008957D01*
X002476Y008312D02*
X003001Y008312D01*
X002791Y007878D02*
X002791Y007668D01*
X002476Y007668D02*
X003106Y007668D01*
X003106Y007444D02*
X003106Y007023D01*
X002476Y007023D01*
X002476Y006799D02*
X003001Y006799D01*
X003106Y006694D01*
X003106Y006484D01*
X003001Y006379D01*
X002476Y006379D01*
X002581Y006155D02*
X002476Y006049D01*
X002476Y005839D01*
X002581Y005734D01*
X003001Y005734D01*
X003106Y005839D01*
X003106Y006049D01*
X003001Y006155D01*
X002581Y006155D01*
X002581Y005510D02*
X002476Y005405D01*
X002476Y005195D01*
X002581Y005090D01*
X003001Y005090D01*
X003106Y005195D01*
X003106Y005405D01*
X003001Y005510D01*
X002476Y007668D02*
X002476Y008088D01*
D14*
X001677Y006027D02*
X001746Y005958D01*
X001687Y005899D01*
X001618Y005968D01*
X001677Y006027D01*
X010496Y005960D02*
X010555Y006019D01*
X010624Y005950D01*
X010564Y005891D01*
X010496Y005960D01*
D15*
X010397Y005852D03*
X001519Y005860D03*
M02*
