G75*
G70*
%OFA0B0*%
%FSLAX24Y24*%
%IPPOS*%
%LPD*%
%AMOC8*
5,1,8,0,0,1.08239X$1,22.5*
%
%ADD10C,0.0040*%
D10*
X009572Y004700D02*
X009572Y005007D01*
X009649Y005084D01*
X009802Y005084D01*
X009879Y005007D01*
X009879Y004700D01*
X009802Y004623D01*
X009649Y004623D01*
X009572Y004700D01*
X010033Y004623D02*
X010033Y005084D01*
X010340Y005084D02*
X010033Y004623D01*
X010340Y004623D02*
X010340Y005084D01*
X010493Y005084D02*
X010646Y005084D01*
X010570Y005084D02*
X010570Y004623D01*
X010646Y004623D02*
X010493Y004623D01*
X010800Y004700D02*
X010800Y005084D01*
X011107Y005084D02*
X011107Y004700D01*
X011030Y004623D01*
X010877Y004623D01*
X010800Y004700D01*
X011260Y004700D02*
X011260Y005007D01*
X011337Y005084D01*
X011567Y005084D01*
X011567Y004623D01*
X011337Y004623D01*
X011260Y004700D01*
X011721Y004623D02*
X011874Y004777D01*
X011797Y004777D02*
X012028Y004777D01*
X012028Y004623D02*
X012028Y005084D01*
X011797Y005084D01*
X011721Y005007D01*
X011721Y004853D01*
X011797Y004777D01*
X012181Y004853D02*
X012488Y004853D01*
X012488Y004930D02*
X012488Y004623D01*
X012181Y004623D02*
X012181Y004930D01*
X012335Y005084D01*
X012488Y004930D01*
M02*
