%
M48
M72
T01C0.0118
T02C0.0276
T03C0.0315
T04C0.0320
T05C0.0400
T06C0.0591
T07C0.1102
%
T01
X13558Y5353
X13558Y5843
X13558Y6263
X14818Y7803
X10198Y12213
X8308Y13263
X7818Y12773
X7320Y13219
X14328Y14027
T02
X16258Y13853
X16258Y14853
X16258Y11153
X16258Y10153
X16258Y7603
X16258Y6603
X16258Y4078
X16258Y3078
X6333Y11728
X6333Y12728
X6383Y14903
X6383Y15903
T03
X4758Y7353
X5758Y6853
X4758Y6353
X5758Y5853
X4758Y5353
X5758Y4853
X4758Y4353
X5758Y3853
T04
X12008Y12403
X12008Y14303
T05
X14008Y13103
X14008Y11103
X17908Y11128
X17908Y12128
X17906Y13414
X17906Y14414
X17906Y15414
X13508Y16103
X12508Y16103
X11508Y16103
X10508Y16103
X9508Y16103
X8508Y16103
X4500Y15088
X4500Y14088
X4500Y13088
X4508Y11831
X4508Y10831
X4508Y9831
X7008Y9353
X8008Y9103
X8008Y10103
X7008Y10353
X8008Y11103
X9133Y10666
X9133Y11666
X7008Y8353
X8008Y8103
X8008Y7103
X9133Y7541
X9133Y6541
X8008Y6103
X8008Y5103
X8008Y4103
X17806Y3950
X17806Y2950
X17806Y4950
X17783Y6378
X17783Y7378
X17783Y8378
X17908Y10128
T06
X4902Y3215
T07
X3091Y1721
X19134Y1623
X19134Y16682
X3091Y16682
M30
