G75*
%MOIN*%
%OFA0B0*%
%FSLAX24Y24*%
%IPPOS*%
%LPD*%
%AMOC8*
5,1,8,0,0,1.08239X$1,22.5*
%
%ADD10C,0.0000*%
D10*
X000281Y005320D02*
X000281Y018431D01*
X012092Y018431D01*
X012092Y005320D01*
X000281Y005320D01*
X010096Y009379D02*
X010098Y009413D01*
X010104Y009447D01*
X010114Y009480D01*
X010127Y009511D01*
X010145Y009541D01*
X010165Y009569D01*
X010189Y009594D01*
X010215Y009616D01*
X010243Y009634D01*
X010274Y009650D01*
X010306Y009662D01*
X010340Y009670D01*
X010374Y009674D01*
X010408Y009674D01*
X010442Y009670D01*
X010476Y009662D01*
X010508Y009650D01*
X010538Y009634D01*
X010567Y009616D01*
X010593Y009594D01*
X010617Y009569D01*
X010637Y009541D01*
X010655Y009511D01*
X010668Y009480D01*
X010678Y009447D01*
X010684Y009413D01*
X010686Y009379D01*
X010684Y009345D01*
X010678Y009311D01*
X010668Y009278D01*
X010655Y009247D01*
X010637Y009217D01*
X010617Y009189D01*
X010593Y009164D01*
X010567Y009142D01*
X010539Y009124D01*
X010508Y009108D01*
X010476Y009096D01*
X010442Y009088D01*
X010408Y009084D01*
X010374Y009084D01*
X010340Y009088D01*
X010306Y009096D01*
X010274Y009108D01*
X010243Y009124D01*
X010215Y009142D01*
X010189Y009164D01*
X010165Y009189D01*
X010145Y009217D01*
X010127Y009247D01*
X010114Y009278D01*
X010104Y009311D01*
X010098Y009345D01*
X010096Y009379D01*
M02*
