%
M48
M72
T01C0.0197
T02C0.0315
T03C0.0394
T04C0.0400
T05C0.0591
T06C0.0790
T07C0.0866
%
T01
X3881Y10820
X2381Y13820
X2881Y15320
X8381Y10320
X9881Y10320
X9881Y14820
T02
X11248Y8741
X11248Y7741
X10248Y7241
X10248Y8241
T03
X6769Y15498
X5769Y15498
T04
X1781Y9820
X1781Y8820
X1781Y7820
T05
X10391Y9379
T06
X7861Y8320
X6281Y8320
X4701Y8320
X4661Y12455
X6241Y12455
X7821Y12455
T07
X950Y6089
X950Y17762
X11422Y17762
X11422Y5989
M30
