G75*
%MOIN*%
%OFA0B0*%
%FSLAX24Y24*%
%IPPOS*%
%LPD*%
%AMOC8*
5,1,8,0,0,1.08239X$1,22.5*
%
%ADD10C,0.0040*%
%ADD11C,0.0100*%
%ADD12C,0.0060*%
%ADD13C,0.0070*%
%ADD14C,0.0025*%
%ADD15C,0.0098*%
D10*
X001286Y011797D02*
X001363Y011874D01*
X001363Y011951D01*
X001286Y012028D01*
X000903Y012028D01*
X000903Y012104D02*
X000903Y011951D01*
X001056Y012258D02*
X000903Y012411D01*
X001056Y012565D01*
X001363Y012565D01*
X001286Y012718D02*
X001363Y012795D01*
X001363Y012948D01*
X001286Y013025D01*
X000903Y013025D01*
X000903Y013179D02*
X001363Y013486D01*
X000903Y013486D01*
X000903Y013639D02*
X001363Y013639D01*
X001363Y013946D01*
X001133Y013793D02*
X001133Y013639D01*
X000903Y013639D02*
X000903Y013946D01*
X000796Y014250D02*
X000796Y014480D01*
X000873Y014557D01*
X001026Y014557D01*
X001103Y014480D01*
X001103Y014250D01*
X001257Y014250D02*
X000796Y014250D01*
X001103Y014404D02*
X001257Y014557D01*
X001180Y014711D02*
X001257Y014787D01*
X001257Y014941D01*
X001180Y015018D01*
X001103Y015018D01*
X001026Y014941D01*
X001026Y014864D01*
X001026Y014941D02*
X000950Y015018D01*
X000873Y015018D01*
X000796Y014941D01*
X000796Y014787D01*
X000873Y014711D01*
X000903Y013179D02*
X001363Y013179D01*
X001286Y012718D02*
X000903Y012718D01*
X001133Y012565D02*
X001133Y012258D01*
X001056Y012258D02*
X001363Y012258D01*
X001901Y016640D02*
X002131Y016640D01*
X002208Y016717D01*
X002208Y016793D01*
X002131Y016870D01*
X001901Y016870D01*
X001901Y016640D02*
X001901Y017100D01*
X002131Y017100D01*
X002208Y017024D01*
X002208Y016947D01*
X002131Y016870D01*
X002361Y016717D02*
X002438Y016640D01*
X002591Y016640D01*
X002668Y016717D01*
X002668Y017024D01*
X002591Y017100D01*
X002438Y017100D01*
X002361Y017024D01*
X002361Y016717D01*
X002821Y016717D02*
X002898Y016640D01*
X003052Y016640D01*
X003128Y016717D01*
X003128Y017100D01*
X003282Y017100D02*
X003589Y017100D01*
X003435Y017100D02*
X003435Y016640D01*
X003742Y016717D02*
X003742Y017024D01*
X003819Y017100D01*
X003972Y017100D01*
X004049Y017024D01*
X004049Y016717D01*
X003972Y016640D01*
X003819Y016640D01*
X003742Y016717D01*
X004203Y016640D02*
X004203Y017100D01*
X004510Y016640D01*
X004510Y017100D01*
X004049Y017390D02*
X003742Y017390D01*
X003742Y017850D01*
X004049Y017850D01*
X003896Y017620D02*
X003742Y017620D01*
X003589Y017850D02*
X003282Y017850D01*
X003128Y017774D02*
X003128Y017620D01*
X003052Y017543D01*
X002821Y017543D01*
X002821Y017390D02*
X002821Y017850D01*
X003052Y017850D01*
X003128Y017774D01*
X002975Y017543D02*
X003128Y017390D01*
X002821Y017100D02*
X002821Y016717D01*
X002668Y017390D02*
X002668Y017697D01*
X002514Y017850D01*
X002361Y017697D01*
X002361Y017390D01*
X002208Y017467D02*
X002131Y017390D01*
X001977Y017390D01*
X001901Y017467D01*
X001901Y017774D01*
X001977Y017850D01*
X002131Y017850D01*
X002208Y017774D01*
X002361Y017620D02*
X002668Y017620D01*
X003435Y017390D02*
X003435Y017850D01*
X005289Y017378D02*
X005529Y017378D01*
X005409Y017378D02*
X005409Y017018D01*
X005657Y017018D02*
X005777Y017018D01*
X005717Y017018D02*
X005717Y017378D01*
X005657Y017378D02*
X005777Y017378D01*
X005903Y017378D02*
X006083Y017378D01*
X006143Y017318D01*
X006143Y017198D01*
X006083Y017138D01*
X005903Y017138D01*
X006023Y017138D02*
X006143Y017018D01*
X006271Y017018D02*
X006511Y017018D01*
X006391Y017198D02*
X006271Y017198D01*
X006271Y017378D02*
X006271Y017018D01*
X006271Y017378D02*
X006511Y017378D01*
X006639Y017378D02*
X006880Y017378D01*
X006759Y017378D02*
X006759Y017018D01*
X007008Y017378D02*
X007248Y017378D01*
X007128Y017378D02*
X007128Y017018D01*
X007376Y017018D02*
X007376Y017378D01*
X007616Y017378D01*
X007496Y017198D02*
X007376Y017198D01*
X007376Y017018D02*
X007616Y017018D01*
X008401Y016874D02*
X008401Y016797D01*
X008708Y016490D01*
X008708Y016643D02*
X008554Y016490D01*
X008477Y016490D01*
X008401Y016567D01*
X008401Y016643D01*
X008554Y016797D01*
X008554Y016874D01*
X008477Y016950D01*
X008401Y016874D01*
X008861Y017240D02*
X008861Y017547D01*
X009014Y017700D01*
X009168Y017547D01*
X009168Y017240D01*
X009321Y017240D02*
X009321Y017700D01*
X009552Y017700D01*
X009628Y017624D01*
X009628Y017470D01*
X009552Y017393D01*
X009321Y017393D01*
X009475Y017393D02*
X009628Y017240D01*
X009782Y017240D02*
X010089Y017240D01*
X010242Y017317D02*
X010319Y017240D01*
X010472Y017240D01*
X010549Y017317D01*
X010549Y017393D01*
X010472Y017470D01*
X010319Y017470D01*
X010242Y017547D01*
X010242Y017624D01*
X010319Y017700D01*
X010472Y017700D01*
X010549Y017624D01*
X010089Y017700D02*
X009782Y017700D01*
X009782Y017240D01*
X009782Y017470D02*
X009935Y017470D01*
X010012Y016950D02*
X009782Y016950D01*
X009782Y016490D01*
X009782Y016643D02*
X010012Y016643D01*
X010089Y016720D01*
X010089Y016874D01*
X010012Y016950D01*
X009935Y016643D02*
X010089Y016490D01*
X010242Y016490D02*
X010549Y016490D01*
X010396Y016720D02*
X010242Y016720D01*
X010242Y016950D02*
X010242Y016490D01*
X010012Y016200D02*
X009782Y015970D01*
X010089Y015970D01*
X010012Y015740D02*
X010012Y016200D01*
X009628Y016490D02*
X009628Y016797D01*
X009475Y016950D01*
X009321Y016797D01*
X009321Y016490D01*
X009321Y016720D02*
X009628Y016720D01*
X009475Y016200D02*
X009321Y016047D01*
X009168Y016124D02*
X008861Y015817D01*
X008938Y015740D01*
X009091Y015740D01*
X009168Y015817D01*
X009168Y016124D01*
X009091Y016200D01*
X008938Y016200D01*
X008861Y016124D01*
X008861Y015817D01*
X008708Y015740D02*
X008401Y015740D01*
X008708Y016047D01*
X008708Y016124D01*
X008631Y016200D01*
X008477Y016200D01*
X008401Y016124D01*
X009321Y015740D02*
X009628Y015740D01*
X009475Y015740D02*
X009475Y016200D01*
X010242Y016950D02*
X010549Y016950D01*
X010703Y016874D02*
X010703Y016567D01*
X010779Y016490D01*
X010933Y016490D01*
X011010Y016567D01*
X011010Y016874D02*
X010933Y016950D01*
X010779Y016950D01*
X010703Y016874D01*
X011239Y014876D02*
X011162Y014800D01*
X011162Y014646D01*
X011239Y014569D01*
X011239Y014416D02*
X011393Y014416D01*
X011469Y014339D01*
X011469Y014109D01*
X011469Y014262D02*
X011623Y014416D01*
X011623Y014569D02*
X011316Y014876D01*
X011239Y014876D01*
X011239Y014416D02*
X011162Y014339D01*
X011162Y014109D01*
X011623Y014109D01*
X011623Y014569D02*
X011623Y014876D01*
X010241Y013938D02*
X010241Y013631D01*
X009781Y013631D01*
X009781Y013938D01*
X010011Y013785D02*
X010011Y013631D01*
X010011Y013478D02*
X010011Y013324D01*
X010011Y013478D02*
X010164Y013478D01*
X010241Y013401D01*
X010241Y013248D01*
X010164Y013171D01*
X009857Y013171D01*
X009781Y013248D01*
X009781Y013401D01*
X009857Y013478D01*
X009781Y013017D02*
X010164Y013017D01*
X010241Y012941D01*
X010241Y012787D01*
X010164Y012710D01*
X009781Y012710D01*
X009857Y012557D02*
X009781Y012480D01*
X009781Y012327D01*
X009857Y012250D01*
X010164Y012250D01*
X010241Y012327D01*
X010241Y012480D01*
X010164Y012557D01*
X009857Y012557D01*
X009857Y012097D02*
X009781Y012020D01*
X009781Y011790D01*
X010241Y011790D01*
X010087Y011790D02*
X010087Y012020D01*
X010011Y012097D01*
X009857Y012097D01*
X010087Y011943D02*
X010241Y012097D01*
X011210Y010830D02*
X011670Y010830D01*
X011670Y010983D02*
X011670Y010676D01*
X011670Y010523D02*
X011517Y010369D01*
X011517Y010446D02*
X011440Y010523D01*
X011286Y010523D01*
X011210Y010446D01*
X011210Y010216D01*
X011670Y010216D01*
X011517Y010216D02*
X011517Y010446D01*
X011363Y010676D02*
X011210Y010830D01*
X010130Y009187D02*
X010130Y008880D01*
X009900Y009110D01*
X010361Y009110D01*
X010361Y008726D02*
X010207Y008573D01*
X010207Y008649D02*
X010207Y008419D01*
X010361Y008419D02*
X009900Y008419D01*
X009900Y008649D01*
X009977Y008726D01*
X010130Y008726D01*
X010207Y008649D01*
X008967Y007784D02*
X008507Y007784D01*
X008660Y007631D01*
X008507Y007477D01*
X008967Y007477D01*
X008967Y007324D02*
X008967Y007170D01*
X008967Y007247D02*
X008507Y007247D01*
X008507Y007170D02*
X008507Y007324D01*
X008967Y007017D02*
X008967Y006710D01*
X008507Y006710D01*
X008660Y006556D02*
X008507Y006403D01*
X008660Y006249D01*
X008967Y006249D01*
X008737Y006249D02*
X008737Y006556D01*
X008660Y006556D02*
X008967Y006556D01*
X005903Y017018D02*
X005903Y017378D01*
X008861Y017470D02*
X009168Y017470D01*
D11*
X007269Y016748D02*
X007269Y015998D01*
X005269Y015998D01*
X005269Y016748D01*
X007269Y016748D01*
X007269Y015998D02*
X007269Y014248D01*
X005269Y014248D01*
X005269Y015998D01*
D12*
X005151Y006940D02*
X003901Y006940D01*
X003651Y007190D01*
X003651Y009450D01*
X003901Y009700D01*
X005151Y009700D01*
X005381Y010020D01*
X007181Y010020D01*
X007411Y009700D01*
X008661Y009700D01*
X008911Y009450D01*
X008911Y007190D01*
X008661Y006940D01*
X007391Y006940D01*
X007181Y006620D01*
X005381Y006620D01*
X005151Y006940D01*
X005341Y010755D02*
X005111Y011075D01*
X003861Y011075D01*
X003611Y011325D01*
X003611Y013585D01*
X003861Y013835D01*
X005111Y013835D01*
X005341Y014155D01*
X007141Y014155D01*
X007371Y013835D01*
X008621Y013835D01*
X008871Y013585D01*
X008871Y011325D01*
X008621Y011075D01*
X007351Y011075D01*
X007141Y010755D01*
X005341Y010755D01*
D13*
X003246Y010578D02*
X002615Y010578D01*
X002615Y010998D01*
X002930Y010788D02*
X002930Y010578D01*
X002930Y010143D02*
X002930Y009933D01*
X003141Y009709D02*
X002720Y009709D01*
X002615Y009604D01*
X002615Y009394D01*
X002720Y009289D01*
X003141Y009289D01*
X003246Y009394D01*
X003246Y009604D01*
X003141Y009709D01*
X003246Y009933D02*
X002615Y009933D01*
X002615Y010354D01*
X002681Y011490D02*
X003101Y011490D01*
X003206Y011595D01*
X003206Y011805D01*
X003101Y011910D01*
X003101Y012134D02*
X003206Y012239D01*
X003206Y012449D01*
X003101Y012555D01*
X002681Y012555D01*
X002576Y012449D01*
X002576Y012239D01*
X002681Y012134D01*
X003101Y012134D01*
X002681Y011910D02*
X002576Y011805D01*
X002576Y011595D01*
X002681Y011490D01*
X002576Y012779D02*
X003101Y012779D01*
X003206Y012884D01*
X003206Y013094D01*
X003101Y013199D01*
X002576Y013199D01*
X002576Y013423D02*
X003206Y013423D01*
X003206Y013844D01*
X003206Y014068D02*
X003206Y014488D01*
X003101Y014712D02*
X003206Y014817D01*
X003206Y015028D01*
X003101Y015133D01*
X002576Y015133D01*
X002576Y015357D02*
X002576Y015672D01*
X002681Y015777D01*
X002891Y015777D01*
X002996Y015672D01*
X002996Y015357D01*
X002996Y015567D02*
X003206Y015777D01*
X003206Y015357D02*
X002576Y015357D01*
X002576Y014712D02*
X003101Y014712D01*
X002891Y014278D02*
X002891Y014068D01*
X002576Y014068D02*
X003206Y014068D01*
X002576Y014068D02*
X002576Y014488D01*
X002615Y009064D02*
X003246Y008644D01*
X003246Y008420D02*
X002615Y008420D01*
X002615Y008000D02*
X003246Y008420D01*
X003246Y008000D02*
X002615Y008000D01*
X002720Y007775D02*
X002615Y007670D01*
X002615Y007460D01*
X002720Y007355D01*
X003141Y007355D01*
X003246Y007460D01*
X003246Y007670D01*
X003141Y007775D01*
X002720Y007775D01*
D14*
X001787Y012299D02*
X001846Y012358D01*
X001777Y012427D01*
X001718Y012368D01*
X001787Y012299D01*
X009322Y006820D02*
X009381Y006879D01*
X009450Y006810D01*
X009390Y006751D01*
X009322Y006820D01*
X010664Y012291D02*
X010724Y012350D01*
X010655Y012419D01*
X010596Y012360D01*
X010664Y012291D01*
D15*
X010497Y012252D03*
X009223Y006712D03*
X001619Y012260D03*
M02*
