G75*
%MOIN*%
%OFA0B0*%
%FSLAX24Y24*%
%IPPOS*%
%LPD*%
%AMOC8*
5,1,8,0,0,1.08239X$1,22.5*
%
%ADD10C,0.0240*%
%ADD11C,0.0140*%
%ADD12C,0.0280*%
%ADD13C,0.0060*%
%ADD14C,0.0070*%
%ADD15C,0.0040*%
%ADD16C,0.0025*%
%ADD17C,0.0098*%
%ADD18C,0.0050*%
%ADD19R,0.0200X0.1000*%
%ADD20C,0.0080*%
D10*
X007671Y018856D02*
X007671Y019476D01*
X007878Y019270D01*
X008085Y019476D01*
X008085Y018856D01*
X008463Y018959D02*
X008463Y019166D01*
X008566Y019270D01*
X008773Y019270D01*
X008876Y019166D01*
X008876Y018959D01*
X008773Y018856D01*
X008566Y018856D01*
X008463Y018959D01*
X009255Y019270D02*
X009461Y019270D01*
X009358Y019373D02*
X009358Y018959D01*
X009461Y018856D01*
X009783Y018856D02*
X010196Y018856D01*
X009989Y018856D02*
X009989Y019476D01*
X009783Y019270D01*
X031568Y019998D02*
X031568Y020618D01*
X031775Y020411D01*
X031982Y020618D01*
X031982Y019998D01*
X032360Y020101D02*
X032360Y020308D01*
X032464Y020411D01*
X032671Y020411D01*
X032774Y020308D01*
X032774Y020101D01*
X032671Y019998D01*
X032464Y019998D01*
X032360Y020101D01*
X033152Y020411D02*
X033359Y020411D01*
X033256Y020515D02*
X033256Y020101D01*
X033359Y019998D01*
X033680Y019998D02*
X034094Y020411D01*
X034094Y020515D01*
X033990Y020618D01*
X033784Y020618D01*
X033680Y020515D01*
X033680Y019998D02*
X034094Y019998D01*
D11*
X023726Y005310D02*
X023606Y005310D01*
X023546Y005250D01*
X023726Y005310D02*
X023786Y005250D01*
X023786Y005190D01*
X023546Y004950D01*
X023786Y004950D01*
X023326Y004950D02*
X023326Y005310D01*
X023205Y005190D01*
X023085Y005310D01*
X023085Y004950D01*
X022865Y004950D02*
X022745Y005070D01*
X022625Y004950D01*
X022625Y005310D01*
X022405Y005250D02*
X022405Y005130D01*
X022345Y005070D01*
X022165Y005070D01*
X022165Y004950D02*
X022165Y005310D01*
X022345Y005310D01*
X022405Y005250D01*
X022865Y005310D02*
X022865Y004950D01*
X021484Y004950D02*
X021244Y004950D01*
X021364Y004950D02*
X021364Y005310D01*
X021244Y005190D01*
X021024Y005310D02*
X021024Y004950D01*
X020783Y004950D02*
X020783Y005310D01*
X020903Y005190D01*
X021024Y005310D01*
X020563Y005310D02*
X020563Y004950D01*
X020443Y005070D01*
X020323Y004950D01*
X020323Y005310D01*
X020103Y005250D02*
X020103Y005130D01*
X020043Y005070D01*
X019863Y005070D01*
X019863Y004950D02*
X019863Y005310D01*
X020043Y005310D01*
X020103Y005250D01*
X019182Y005250D02*
X019182Y005010D01*
X019122Y004950D01*
X018942Y004950D01*
X018942Y005310D01*
X019122Y005310D01*
X019182Y005250D01*
X018722Y005310D02*
X018722Y004950D01*
X018481Y005310D01*
X018481Y004950D01*
X018261Y005010D02*
X018261Y005130D01*
X018141Y005130D01*
X018021Y005010D02*
X018081Y004950D01*
X018201Y004950D01*
X018261Y005010D01*
X018021Y005010D02*
X018021Y005250D01*
X018081Y005310D01*
X018201Y005310D01*
X018261Y005250D01*
X018448Y004520D02*
X018328Y004400D01*
X018448Y004520D02*
X018448Y004160D01*
X018328Y004160D02*
X018568Y004160D01*
X018108Y004160D02*
X017988Y004280D01*
X018048Y004280D02*
X017868Y004280D01*
X017868Y004160D02*
X017868Y004520D01*
X018048Y004520D01*
X018108Y004460D01*
X018108Y004340D01*
X018048Y004280D01*
X017681Y004160D02*
X017561Y004160D01*
X017621Y004160D02*
X017621Y004520D01*
X017561Y004520D02*
X017681Y004520D01*
X017340Y004460D02*
X017340Y004220D01*
X017280Y004160D01*
X017100Y004160D01*
X017100Y004520D01*
X017280Y004520D01*
X017340Y004460D01*
X016420Y004400D02*
X016239Y004400D01*
X016179Y004340D01*
X016179Y004220D01*
X016239Y004160D01*
X016420Y004160D01*
X015959Y004160D02*
X015779Y004160D01*
X015719Y004220D01*
X015719Y004340D01*
X015779Y004400D01*
X015959Y004400D01*
X015499Y004280D02*
X015499Y004520D01*
X015499Y004280D02*
X015379Y004160D01*
X015259Y004280D01*
X015259Y004520D01*
X019249Y004520D02*
X019249Y004160D01*
X019429Y004160D01*
X019489Y004220D01*
X019489Y004460D01*
X019429Y004520D01*
X019249Y004520D01*
X019709Y004520D02*
X019829Y004520D01*
X019769Y004520D02*
X019769Y004160D01*
X019709Y004160D02*
X019829Y004160D01*
X020016Y004160D02*
X020016Y004520D01*
X020196Y004520D01*
X020256Y004460D01*
X020256Y004340D01*
X020196Y004280D01*
X020016Y004280D01*
X020136Y004280D02*
X020256Y004160D01*
X020476Y004160D02*
X020717Y004400D01*
X020717Y004460D01*
X020657Y004520D01*
X020536Y004520D01*
X020476Y004460D01*
X020476Y004160D02*
X020717Y004160D01*
X023081Y003592D02*
X023141Y003652D01*
X023321Y003652D01*
X023321Y003772D02*
X023321Y003412D01*
X023141Y003412D01*
X023081Y003472D01*
X023081Y003592D01*
X023542Y003652D02*
X023602Y003652D01*
X023602Y003412D01*
X023542Y003412D02*
X023662Y003412D01*
X023849Y003412D02*
X023849Y003652D01*
X023969Y003652D02*
X024029Y003652D01*
X023969Y003652D02*
X023849Y003532D01*
X023602Y003772D02*
X023602Y003832D01*
X024232Y003652D02*
X024352Y003772D01*
X024352Y003412D01*
X024232Y003412D02*
X024472Y003412D01*
X025153Y003412D02*
X025333Y003412D01*
X025393Y003472D01*
X025393Y003592D01*
X025333Y003652D01*
X025153Y003652D01*
X025153Y003292D01*
X025613Y003472D02*
X025673Y003412D01*
X025734Y003472D01*
X025794Y003412D01*
X025854Y003472D01*
X025854Y003652D01*
X026074Y003652D02*
X026074Y003412D01*
X026194Y003412D02*
X026194Y003592D01*
X026254Y003652D01*
X026314Y003592D01*
X026314Y003412D01*
X026194Y003592D02*
X026134Y003652D01*
X026074Y003652D01*
X026534Y003652D02*
X026654Y003772D01*
X026654Y003412D01*
X026534Y003412D02*
X026774Y003412D01*
X027455Y003472D02*
X027515Y003412D01*
X027695Y003412D01*
X027695Y003772D01*
X027695Y003652D02*
X027515Y003652D01*
X027455Y003592D01*
X027455Y003472D01*
X027915Y003412D02*
X028035Y003412D01*
X027975Y003412D02*
X027975Y003652D01*
X027915Y003652D01*
X027975Y003772D02*
X027975Y003832D01*
X028222Y003652D02*
X028222Y003412D01*
X028222Y003532D02*
X028342Y003652D01*
X028402Y003652D01*
X028606Y003712D02*
X028666Y003772D01*
X028786Y003772D01*
X028846Y003712D01*
X028846Y003652D01*
X028606Y003412D01*
X028846Y003412D01*
X029527Y003412D02*
X029707Y003412D01*
X029767Y003472D01*
X029767Y003592D01*
X029707Y003652D01*
X029527Y003652D01*
X029527Y003292D01*
X029987Y003472D02*
X030047Y003412D01*
X030107Y003472D01*
X030167Y003412D01*
X030227Y003472D01*
X030227Y003652D01*
X030448Y003652D02*
X030508Y003652D01*
X030568Y003592D01*
X030628Y003652D01*
X030688Y003592D01*
X030688Y003412D01*
X030568Y003412D02*
X030568Y003592D01*
X030448Y003652D02*
X030448Y003412D01*
X029987Y003472D02*
X029987Y003652D01*
X030908Y003712D02*
X030968Y003772D01*
X031088Y003772D01*
X031148Y003712D01*
X031148Y003652D01*
X030908Y003412D01*
X031148Y003412D01*
X031829Y003472D02*
X031829Y003712D01*
X031889Y003772D01*
X032009Y003772D01*
X032069Y003712D01*
X032069Y003592D02*
X031949Y003592D01*
X032069Y003592D02*
X032069Y003472D01*
X032009Y003412D01*
X031889Y003412D01*
X031829Y003472D01*
X032289Y003412D02*
X032289Y003772D01*
X032529Y003412D01*
X032529Y003772D01*
X032749Y003772D02*
X032930Y003772D01*
X032990Y003712D01*
X032990Y003472D01*
X032930Y003412D01*
X032749Y003412D01*
X032749Y003772D01*
X034131Y003772D02*
X034131Y003532D01*
X034251Y003412D01*
X034371Y003532D01*
X034371Y003772D01*
X034591Y003592D02*
X034591Y003472D01*
X034651Y003412D01*
X034831Y003412D01*
X035051Y003472D02*
X035111Y003412D01*
X035292Y003412D01*
X035292Y003652D02*
X035111Y003652D01*
X035051Y003592D01*
X035051Y003472D01*
X034831Y003652D02*
X034651Y003652D01*
X034591Y003592D01*
X025613Y003652D02*
X025613Y003472D01*
D12*
X024428Y014438D02*
X024428Y014919D01*
X024188Y014678D02*
X024669Y014678D01*
X024789Y015359D02*
X024789Y015839D01*
X024789Y015599D02*
X024068Y015599D01*
X024308Y015359D01*
X024188Y016280D02*
X024068Y016400D01*
X024068Y016640D01*
X024188Y016760D01*
X024308Y016760D01*
X024789Y016280D01*
X024789Y016760D01*
X024428Y017201D02*
X024428Y017681D01*
X024188Y018121D02*
X024068Y018241D01*
X024068Y018482D01*
X024188Y018602D01*
X024308Y018602D01*
X024428Y018482D01*
X024549Y018602D01*
X024669Y018602D01*
X024789Y018482D01*
X024789Y018241D01*
X024669Y018121D01*
X024428Y018362D02*
X024428Y018482D01*
X024188Y019042D02*
X024068Y019162D01*
X024068Y019402D01*
X024188Y019523D01*
X024669Y019042D01*
X024789Y019162D01*
X024789Y019402D01*
X024669Y019523D01*
X024188Y019523D01*
X024068Y019963D02*
X024549Y019963D01*
X024789Y020203D01*
X024549Y020443D01*
X024068Y020443D01*
X024188Y019042D02*
X024669Y019042D01*
X017072Y018806D02*
X016352Y018806D01*
X017072Y019286D01*
X016352Y019286D01*
X016352Y019727D02*
X016352Y020087D01*
X016472Y020207D01*
X016952Y020207D01*
X017072Y020087D01*
X017072Y019727D01*
X016352Y019727D01*
X016472Y018366D02*
X016352Y018245D01*
X016352Y018005D01*
X016472Y017885D01*
X016952Y017885D01*
X017072Y018005D01*
X017072Y018245D01*
X016952Y018366D01*
X016712Y018366D01*
X016712Y018125D01*
D13*
X017661Y017694D02*
X023661Y017694D01*
X023661Y016594D01*
X017661Y016594D01*
X017661Y017694D01*
X018811Y017694D02*
X018961Y017194D01*
X019361Y017194D01*
X019511Y017694D01*
X017661Y016594D02*
X017661Y012944D01*
X018711Y012944D01*
X019611Y012944D02*
X021711Y012944D01*
X022611Y012944D02*
X023661Y012944D01*
X023661Y016594D01*
X022361Y017194D02*
X022511Y017694D01*
X021811Y017694D02*
X021961Y017194D01*
X022361Y017194D01*
X021208Y010968D02*
X021008Y010968D01*
X021008Y009968D01*
X021208Y009968D01*
X021208Y010468D01*
X021208Y010968D01*
X021208Y010468D02*
X021508Y010468D01*
X018758Y010468D02*
X018760Y010561D01*
X018766Y010655D01*
X018776Y010747D01*
X018790Y010840D01*
X018807Y010931D01*
X018829Y011022D01*
X018854Y011112D01*
X018884Y011201D01*
X018917Y011288D01*
X018953Y011374D01*
X018994Y011458D01*
X019037Y011541D01*
X019085Y011621D01*
X019135Y011700D01*
X019189Y011776D01*
X019246Y011850D01*
X019307Y011921D01*
X019370Y011990D01*
X019436Y012056D01*
X019505Y012119D01*
X019576Y012180D01*
X019650Y012237D01*
X019726Y012291D01*
X019805Y012341D01*
X019885Y012389D01*
X019968Y012432D01*
X020052Y012473D01*
X020138Y012509D01*
X020225Y012542D01*
X020314Y012572D01*
X020404Y012597D01*
X020495Y012619D01*
X020586Y012636D01*
X020679Y012650D01*
X020771Y012660D01*
X020865Y012666D01*
X020958Y012668D01*
X021051Y012666D01*
X021145Y012660D01*
X021237Y012650D01*
X021330Y012636D01*
X021421Y012619D01*
X021512Y012597D01*
X021602Y012572D01*
X021691Y012542D01*
X021778Y012509D01*
X021864Y012473D01*
X021948Y012432D01*
X022031Y012389D01*
X022111Y012341D01*
X022190Y012291D01*
X022266Y012237D01*
X022340Y012180D01*
X022411Y012119D01*
X022480Y012056D01*
X022546Y011990D01*
X022609Y011921D01*
X022670Y011850D01*
X022727Y011776D01*
X022781Y011700D01*
X022831Y011621D01*
X022879Y011541D01*
X022922Y011458D01*
X022963Y011374D01*
X022999Y011288D01*
X023032Y011201D01*
X023062Y011112D01*
X023087Y011022D01*
X023109Y010931D01*
X023126Y010840D01*
X023140Y010747D01*
X023150Y010655D01*
X023156Y010561D01*
X023158Y010468D01*
X023156Y010375D01*
X023150Y010281D01*
X023140Y010189D01*
X023126Y010096D01*
X023109Y010005D01*
X023087Y009914D01*
X023062Y009824D01*
X023032Y009735D01*
X022999Y009648D01*
X022963Y009562D01*
X022922Y009478D01*
X022879Y009395D01*
X022831Y009315D01*
X022781Y009236D01*
X022727Y009160D01*
X022670Y009086D01*
X022609Y009015D01*
X022546Y008946D01*
X022480Y008880D01*
X022411Y008817D01*
X022340Y008756D01*
X022266Y008699D01*
X022190Y008645D01*
X022111Y008595D01*
X022031Y008547D01*
X021948Y008504D01*
X021864Y008463D01*
X021778Y008427D01*
X021691Y008394D01*
X021602Y008364D01*
X021512Y008339D01*
X021421Y008317D01*
X021330Y008300D01*
X021237Y008286D01*
X021145Y008276D01*
X021051Y008270D01*
X020958Y008268D01*
X020865Y008270D01*
X020771Y008276D01*
X020679Y008286D01*
X020586Y008300D01*
X020495Y008317D01*
X020404Y008339D01*
X020314Y008364D01*
X020225Y008394D01*
X020138Y008427D01*
X020052Y008463D01*
X019968Y008504D01*
X019885Y008547D01*
X019805Y008595D01*
X019726Y008645D01*
X019650Y008699D01*
X019576Y008756D01*
X019505Y008817D01*
X019436Y008880D01*
X019370Y008946D01*
X019307Y009015D01*
X019246Y009086D01*
X019189Y009160D01*
X019135Y009236D01*
X019085Y009315D01*
X019037Y009395D01*
X018994Y009478D01*
X018953Y009562D01*
X018917Y009648D01*
X018884Y009735D01*
X018854Y009824D01*
X018829Y009914D01*
X018807Y010005D01*
X018790Y010096D01*
X018776Y010189D01*
X018766Y010281D01*
X018760Y010375D01*
X018758Y010468D01*
X020408Y010468D02*
X020708Y010468D01*
X021458Y009818D02*
X021858Y009818D01*
X021658Y009618D02*
X021658Y010018D01*
X025536Y008482D02*
X025536Y008054D01*
X025643Y007948D01*
X025857Y007948D01*
X025963Y008054D01*
X026181Y008054D02*
X026288Y008161D01*
X026608Y008161D01*
X026608Y008268D02*
X026501Y008375D01*
X026288Y008375D01*
X026608Y008268D02*
X026608Y007948D01*
X026288Y007948D01*
X026181Y008054D01*
X025963Y008482D02*
X025857Y008588D01*
X025643Y008588D01*
X025536Y008482D01*
X026825Y008375D02*
X026825Y007948D01*
X026825Y008161D02*
X027039Y008375D01*
X027146Y008375D01*
X027363Y008375D02*
X027576Y008375D01*
X027469Y008482D02*
X027469Y008054D01*
X027576Y007948D01*
X027792Y008054D02*
X027792Y008268D01*
X027899Y008375D01*
X028113Y008375D01*
X028219Y008268D01*
X028219Y008161D01*
X027792Y008161D01*
X027792Y008054D02*
X027899Y007948D01*
X028113Y007948D01*
X029081Y007948D02*
X029081Y008588D01*
X029402Y008588D01*
X029508Y008482D01*
X029508Y008268D01*
X029402Y008161D01*
X029081Y008161D01*
X029726Y008054D02*
X029726Y008588D01*
X030153Y008588D02*
X030153Y008054D01*
X030046Y007948D01*
X029833Y007948D01*
X029726Y008054D01*
X030370Y007948D02*
X030584Y007948D01*
X030477Y007948D02*
X030477Y008588D01*
X030370Y008588D02*
X030584Y008588D01*
X030800Y008482D02*
X030800Y008375D01*
X030907Y008268D01*
X031120Y008268D01*
X031227Y008161D01*
X031227Y008054D01*
X031120Y007948D01*
X030907Y007948D01*
X030800Y008054D01*
X030800Y008482D02*
X030907Y008588D01*
X031120Y008588D01*
X031227Y008482D01*
X031445Y008482D02*
X031445Y008375D01*
X031551Y008268D01*
X031765Y008268D01*
X031872Y008161D01*
X031872Y008054D01*
X031765Y007948D01*
X031551Y007948D01*
X031445Y008054D01*
X031445Y008482D02*
X031551Y008588D01*
X031765Y008588D01*
X031872Y008482D01*
X032089Y008375D02*
X032303Y008588D01*
X032516Y008375D01*
X032516Y007948D01*
X032734Y007948D02*
X032734Y008588D01*
X033161Y007948D01*
X033161Y008588D01*
X033378Y008482D02*
X033378Y008054D01*
X033485Y007948D01*
X033699Y007948D01*
X033805Y008054D01*
X034023Y007948D02*
X034450Y007948D01*
X034023Y007948D02*
X034023Y008588D01*
X034450Y008588D01*
X034236Y008268D02*
X034023Y008268D01*
X033805Y008482D02*
X033699Y008588D01*
X033485Y008588D01*
X033378Y008482D01*
X032516Y008268D02*
X032089Y008268D01*
X032089Y008375D02*
X032089Y007948D01*
X030389Y005204D02*
X029489Y005204D01*
X029389Y005104D01*
X029289Y005204D01*
X028489Y005204D01*
X028389Y005104D01*
X028289Y005204D01*
X027489Y005204D01*
X027389Y005104D01*
X027289Y005204D01*
X026489Y005204D01*
X026389Y005104D01*
X026289Y005204D01*
X025489Y005204D01*
X025389Y005104D01*
X025289Y005204D01*
X024389Y005204D01*
X024389Y004204D01*
X025289Y004204D01*
X025389Y004304D01*
X025489Y004204D01*
X026289Y004204D01*
X026389Y004304D01*
X026489Y004204D01*
X027289Y004204D01*
X027389Y004304D01*
X027489Y004204D01*
X028289Y004204D01*
X028389Y004304D01*
X028489Y004204D01*
X029289Y004204D01*
X029389Y004304D01*
X029489Y004204D01*
X030389Y004204D01*
X030389Y005204D01*
D14*
X030298Y006686D02*
X030166Y006817D01*
X030694Y007345D01*
X030694Y006817D01*
X030562Y006686D01*
X030298Y006686D01*
X030166Y006817D02*
X030166Y007345D01*
X030298Y007476D01*
X030562Y007476D01*
X030694Y007345D01*
X030958Y007213D02*
X031222Y007476D01*
X031222Y006686D01*
X031485Y006686D02*
X030958Y006686D01*
X031750Y007081D02*
X032277Y007081D01*
X032145Y007476D02*
X031750Y007081D01*
X032145Y006686D02*
X032145Y007476D01*
X029902Y007345D02*
X029902Y007213D01*
X029375Y006686D01*
X029902Y006686D01*
X029902Y007345D02*
X029770Y007476D01*
X029506Y007476D01*
X029375Y007345D01*
X022972Y012079D02*
X022552Y012079D01*
X022972Y012499D01*
X022972Y012604D01*
X022867Y012709D01*
X022657Y012709D01*
X022552Y012604D01*
X022327Y012709D02*
X021907Y012079D01*
X022327Y012079D02*
X021907Y012709D01*
X019942Y007632D02*
X019811Y007501D01*
X019811Y007369D01*
X020338Y006842D01*
X020338Y007105D02*
X020074Y006842D01*
X019942Y006842D01*
X019811Y006973D01*
X019811Y007105D01*
X020074Y007369D01*
X020074Y007501D01*
X019942Y007632D01*
D15*
X015495Y009750D02*
X015495Y009903D01*
X015419Y009980D01*
X015419Y010134D02*
X015495Y010210D01*
X015495Y010364D01*
X015419Y010440D01*
X015265Y010440D01*
X015188Y010364D01*
X015188Y010287D01*
X015265Y010134D01*
X015035Y010134D01*
X015035Y010440D01*
X015112Y009980D02*
X015035Y009903D01*
X015035Y009750D01*
X015112Y009673D01*
X015419Y009673D01*
X015495Y009750D01*
X012639Y009799D02*
X012562Y009722D01*
X012639Y009646D01*
X012639Y009569D01*
X012562Y009492D01*
X012409Y009492D01*
X012332Y009569D01*
X012179Y009569D02*
X012179Y009646D01*
X012102Y009722D01*
X011949Y009722D01*
X011872Y009799D01*
X011872Y009876D01*
X011949Y009952D01*
X012102Y009952D01*
X012179Y009876D01*
X012332Y009876D02*
X012409Y009952D01*
X012562Y009952D01*
X012639Y009876D01*
X012639Y009799D01*
X012562Y009722D02*
X012486Y009722D01*
X012179Y009569D02*
X012102Y009492D01*
X011949Y009492D01*
X011872Y009569D01*
X011718Y009569D02*
X011718Y009952D01*
X011411Y009952D02*
X011411Y009569D01*
X011488Y009492D01*
X011642Y009492D01*
X011718Y009569D01*
X012025Y009415D02*
X012025Y010029D01*
X010746Y008039D02*
X011053Y007732D01*
X011129Y007732D01*
X011053Y007579D02*
X011129Y007502D01*
X011129Y007349D01*
X011053Y007272D01*
X010746Y007272D01*
X010669Y007349D01*
X010669Y007502D01*
X010746Y007579D01*
X010669Y007732D02*
X010669Y008039D01*
X010746Y008039D01*
X011014Y006488D02*
X011167Y006488D01*
X011090Y006488D02*
X011090Y006027D01*
X011014Y006027D02*
X011167Y006027D01*
X011321Y006027D02*
X011321Y006488D01*
X011628Y006027D01*
X011628Y006488D01*
X011781Y006488D02*
X012011Y006488D01*
X012088Y006411D01*
X012088Y006258D01*
X012011Y006181D01*
X011781Y006181D01*
X011781Y006027D02*
X011781Y006488D01*
X012241Y006488D02*
X012241Y006104D01*
X012318Y006027D01*
X012472Y006027D01*
X012548Y006104D01*
X012548Y006488D01*
X012702Y006488D02*
X013009Y006488D01*
X012855Y006488D02*
X012855Y006027D01*
X015879Y013724D02*
X015803Y013801D01*
X015803Y013955D01*
X015879Y014031D01*
X016033Y014185D02*
X016033Y014492D01*
X016263Y014415D02*
X015803Y014415D01*
X016033Y014185D01*
X016186Y014031D02*
X016263Y013955D01*
X016263Y013801D01*
X016186Y013724D01*
X015879Y013724D01*
X024437Y013709D02*
X024513Y013632D01*
X024820Y013632D01*
X024897Y013709D01*
X024897Y013862D01*
X024820Y013939D01*
X024897Y014092D02*
X024590Y014399D01*
X024513Y014399D01*
X024437Y014322D01*
X024437Y014169D01*
X024513Y014092D01*
X024513Y013939D02*
X024437Y013862D01*
X024437Y013709D01*
X024897Y014092D02*
X024897Y014399D01*
X030795Y011708D02*
X030795Y011248D01*
X030795Y011401D02*
X031025Y011401D01*
X031102Y011478D01*
X031102Y011632D01*
X031025Y011708D01*
X030795Y011708D01*
X031256Y011708D02*
X031256Y011325D01*
X031332Y011248D01*
X031486Y011248D01*
X031563Y011325D01*
X031563Y011708D01*
X031716Y011708D02*
X031870Y011708D01*
X031793Y011708D02*
X031793Y011248D01*
X031716Y011248D02*
X031870Y011248D01*
X032023Y011325D02*
X032100Y011248D01*
X032253Y011248D01*
X032330Y011325D01*
X032330Y011401D01*
X032253Y011478D01*
X032100Y011478D01*
X032023Y011555D01*
X032023Y011632D01*
X032100Y011708D01*
X032253Y011708D01*
X032330Y011632D01*
X032483Y011632D02*
X032560Y011708D01*
X032714Y011708D01*
X032790Y011632D01*
X032714Y011478D02*
X032790Y011401D01*
X032790Y011325D01*
X032714Y011248D01*
X032560Y011248D01*
X032483Y011325D01*
X032560Y011478D02*
X032714Y011478D01*
X032560Y011478D02*
X032483Y011555D01*
X032483Y011632D01*
X032944Y011555D02*
X032944Y011248D01*
X032944Y011478D02*
X033251Y011478D01*
X033251Y011555D02*
X033251Y011248D01*
X033404Y011248D02*
X033404Y011708D01*
X033711Y011248D01*
X033711Y011708D01*
X033865Y011632D02*
X033865Y011325D01*
X033941Y011248D01*
X034095Y011248D01*
X034171Y011325D01*
X034325Y011248D02*
X034632Y011248D01*
X034478Y011478D02*
X034325Y011478D01*
X034171Y011632D02*
X034095Y011708D01*
X033941Y011708D01*
X033865Y011632D01*
X034325Y011708D02*
X034325Y011248D01*
X034325Y011708D02*
X034632Y011708D01*
X033911Y010823D02*
X033911Y010516D01*
X033681Y010746D01*
X034141Y010746D01*
X034141Y010362D02*
X033988Y010209D01*
X033988Y010286D02*
X033988Y010056D01*
X034141Y010056D02*
X033681Y010056D01*
X033681Y010286D01*
X033757Y010362D01*
X033911Y010362D01*
X033988Y010286D01*
X033251Y011555D02*
X033097Y011708D01*
X032944Y011555D01*
X033537Y013657D02*
X033844Y013657D01*
X033921Y013734D01*
X033921Y013888D01*
X033844Y013964D01*
X033921Y014118D02*
X033921Y014425D01*
X033921Y014271D02*
X033460Y014271D01*
X033614Y014118D01*
X033537Y013964D02*
X033460Y013888D01*
X033460Y013734D01*
X033537Y013657D01*
X030663Y019449D02*
X030279Y019449D01*
X030279Y019756D02*
X030663Y019756D01*
X030740Y019680D01*
X030740Y019526D01*
X030663Y019449D01*
X030663Y019910D02*
X030740Y019987D01*
X030740Y020140D01*
X030663Y020217D01*
X030586Y020217D01*
X030509Y020140D01*
X030509Y019987D01*
X030433Y019910D01*
X030356Y019910D01*
X030279Y019987D01*
X030279Y020140D01*
X030356Y020217D01*
X030509Y020370D02*
X030509Y020600D01*
X030586Y020677D01*
X030663Y020677D01*
X030740Y020600D01*
X030740Y020447D01*
X030663Y020370D01*
X030509Y020370D01*
X030356Y020524D01*
X030279Y020677D01*
X030202Y020063D02*
X030816Y020063D01*
X013119Y020063D02*
X012506Y020063D01*
X012582Y019987D02*
X012582Y020140D01*
X012659Y020217D01*
X012582Y020370D02*
X012582Y020677D01*
X012659Y020677D01*
X012966Y020370D01*
X013043Y020370D01*
X012966Y020217D02*
X012889Y020217D01*
X012812Y020140D01*
X012812Y019987D01*
X012736Y019910D01*
X012659Y019910D01*
X012582Y019987D01*
X012582Y019756D02*
X012966Y019756D01*
X013043Y019680D01*
X013043Y019526D01*
X012966Y019449D01*
X012582Y019449D01*
X012966Y019910D02*
X013043Y019987D01*
X013043Y020140D01*
X012966Y020217D01*
X007098Y014324D02*
X007098Y014171D01*
X007021Y014094D01*
X007021Y013941D02*
X007098Y013864D01*
X007098Y013711D01*
X007021Y013634D01*
X006714Y013634D01*
X006637Y013711D01*
X006637Y013864D01*
X006714Y013941D01*
X006714Y014094D02*
X006637Y014171D01*
X006637Y014324D01*
X006714Y014401D01*
X006791Y014401D01*
X006868Y014324D01*
X006944Y014401D01*
X007021Y014401D01*
X007098Y014324D01*
X006868Y014324D02*
X006868Y014248D01*
X031398Y004181D02*
X031398Y003720D01*
X031398Y003874D02*
X031628Y003874D01*
X031705Y003951D01*
X031705Y004104D01*
X031628Y004181D01*
X031398Y004181D01*
X031858Y004104D02*
X031935Y004181D01*
X032089Y004181D01*
X032165Y004104D01*
X032165Y004027D01*
X032089Y003951D01*
X032165Y003874D01*
X032165Y003797D01*
X032089Y003720D01*
X031935Y003720D01*
X031858Y003797D01*
X031705Y003720D02*
X031552Y003874D01*
X032012Y003951D02*
X032089Y003951D01*
X032100Y003835D02*
X032406Y003835D01*
X032560Y003911D02*
X032637Y003835D01*
X032790Y003835D01*
X032867Y003911D01*
X032867Y004218D01*
X032790Y004295D01*
X032637Y004295D01*
X032560Y004218D01*
X032560Y003911D01*
X033020Y003911D02*
X033020Y004218D01*
X033097Y004295D01*
X033250Y004295D01*
X033327Y004218D01*
X033327Y004065D02*
X033174Y004065D01*
X033327Y004065D02*
X033327Y003911D01*
X033250Y003835D01*
X033097Y003835D01*
X033020Y003911D01*
X033481Y003835D02*
X033634Y003835D01*
X033557Y003835D02*
X033557Y004295D01*
X033481Y004295D02*
X033634Y004295D01*
X033788Y004218D02*
X033788Y003911D01*
X033864Y003835D01*
X034018Y003835D01*
X034095Y003911D01*
X034095Y004218D02*
X034018Y004295D01*
X033864Y004295D01*
X033788Y004218D01*
X032100Y004295D02*
X032100Y003835D01*
D16*
X033578Y004708D02*
X033647Y004777D01*
X033706Y004718D01*
X033637Y004649D01*
X033578Y004708D01*
X031356Y010765D02*
X031297Y010824D01*
X031366Y010893D01*
X031425Y010834D01*
X031356Y010765D01*
D17*
X031258Y010992D03*
X033746Y004551D03*
D18*
X010797Y004236D02*
X010797Y003842D01*
X014521Y003842D01*
X014521Y004236D01*
X014324Y004236D01*
X014324Y005417D01*
X014521Y005417D01*
X014521Y005811D01*
X010797Y005811D01*
X010797Y005417D01*
X010994Y005417D01*
X010994Y004236D01*
X010797Y004236D01*
X017802Y008568D02*
X017877Y008493D01*
X018027Y008493D01*
X018102Y008568D01*
X018263Y008493D02*
X018563Y008493D01*
X018413Y008493D02*
X018413Y008943D01*
X018263Y008793D01*
X018102Y008868D02*
X018027Y008943D01*
X017877Y008943D01*
X017802Y008868D01*
X017802Y008568D01*
X018723Y008493D02*
X019023Y008493D01*
X018873Y008493D02*
X018873Y008943D01*
X018723Y008793D01*
X019129Y009703D02*
X019129Y010043D01*
X019242Y010043D02*
X019015Y010043D01*
X019374Y010043D02*
X019601Y010043D01*
X019488Y010043D02*
X019488Y009703D01*
X019976Y013519D02*
X020276Y013819D01*
X020276Y013894D01*
X020201Y013969D01*
X020051Y013969D01*
X019976Y013894D01*
X019976Y013519D02*
X020276Y013519D01*
X022926Y013519D02*
X023226Y013519D01*
X023076Y013519D02*
X023076Y013969D01*
X022926Y013819D01*
X028145Y017114D02*
X028145Y021444D01*
X031374Y021444D01*
X031374Y017114D01*
X028145Y017114D01*
X013677Y017114D02*
X013677Y021444D01*
X010448Y021444D01*
X010448Y017114D01*
X013677Y017114D01*
X025914Y005830D02*
X025914Y005379D01*
X025914Y005605D02*
X026215Y005605D01*
X026375Y005605D02*
X026525Y005605D01*
X026375Y005830D02*
X026375Y005379D01*
X026675Y005379D01*
X026835Y005379D02*
X026835Y005680D01*
X026985Y005830D01*
X027135Y005680D01*
X027135Y005379D01*
X027296Y005379D02*
X027521Y005379D01*
X027596Y005454D01*
X027596Y005755D01*
X027521Y005830D01*
X027296Y005830D01*
X027296Y005379D01*
X027135Y005605D02*
X026835Y005605D01*
X026675Y005830D02*
X026375Y005830D01*
X026215Y005830D02*
X026215Y005379D01*
X025015Y005329D02*
X024714Y005329D01*
X024865Y005329D02*
X024865Y005780D01*
X024714Y005630D01*
X027756Y005605D02*
X027906Y005605D01*
X027756Y005830D02*
X027756Y005379D01*
X028056Y005379D01*
X028216Y005379D02*
X028216Y005830D01*
X028442Y005830D01*
X028517Y005755D01*
X028517Y005605D01*
X028442Y005529D01*
X028216Y005529D01*
X028367Y005529D02*
X028517Y005379D01*
X028056Y005830D02*
X027756Y005830D01*
X029714Y005555D02*
X029940Y005555D01*
X030015Y005479D01*
X030015Y005404D01*
X029940Y005329D01*
X029789Y005329D01*
X029714Y005404D01*
X029714Y005555D01*
X029865Y005705D01*
X030015Y005780D01*
D19*
X020758Y010468D03*
D20*
X015185Y007712D02*
X011098Y007712D01*
M02*
