G75*
%MOIN*%
%OFA0B0*%
%FSLAX24Y24*%
%IPPOS*%
%LPD*%
%AMOC8*
5,1,8,0,0,1.08239X$1,22.5*
%
%ADD10C,0.0039*%
%ADD11C,0.0000*%
D10*
X006760Y002984D02*
X035760Y002984D01*
X035760Y021311D01*
X006760Y021311D01*
X006760Y002984D01*
D11*
X010476Y005183D02*
X010478Y005217D01*
X010484Y005251D01*
X010494Y005284D01*
X010507Y005315D01*
X010525Y005345D01*
X010545Y005373D01*
X010569Y005398D01*
X010595Y005420D01*
X010623Y005438D01*
X010654Y005454D01*
X010686Y005466D01*
X010720Y005474D01*
X010754Y005478D01*
X010788Y005478D01*
X010822Y005474D01*
X010856Y005466D01*
X010888Y005454D01*
X010918Y005438D01*
X010947Y005420D01*
X010973Y005398D01*
X010997Y005373D01*
X011017Y005345D01*
X011035Y005315D01*
X011048Y005284D01*
X011058Y005251D01*
X011064Y005217D01*
X011066Y005183D01*
X011064Y005149D01*
X011058Y005115D01*
X011048Y005082D01*
X011035Y005051D01*
X011017Y005021D01*
X010997Y004993D01*
X010973Y004968D01*
X010947Y004946D01*
X010919Y004928D01*
X010888Y004912D01*
X010856Y004900D01*
X010822Y004892D01*
X010788Y004888D01*
X010754Y004888D01*
X010720Y004892D01*
X010686Y004900D01*
X010654Y004912D01*
X010623Y004928D01*
X010595Y004946D01*
X010569Y004968D01*
X010545Y004993D01*
X010525Y005021D01*
X010507Y005051D01*
X010494Y005082D01*
X010484Y005115D01*
X010478Y005149D01*
X010476Y005183D01*
M02*
