G75*
%MOIN*%
%OFA0B0*%
%FSLAX24Y24*%
%IPPOS*%
%LPD*%
%AMOC8*
5,1,8,0,0,1.08239X$1,22.5*
%
%ADD10C,0.0240*%
%ADD11C,0.0040*%
D10*
X007465Y018856D02*
X007878Y018856D01*
X007671Y018856D02*
X007671Y019476D01*
X007878Y019270D01*
X008199Y019270D02*
X008406Y019270D01*
X008303Y019373D02*
X008303Y018959D01*
X008199Y018856D01*
X008784Y018959D02*
X008784Y019166D01*
X008888Y019270D01*
X009095Y019270D01*
X009198Y019166D01*
X009198Y018959D01*
X009095Y018856D01*
X008888Y018856D01*
X008784Y018959D01*
X009576Y018856D02*
X009576Y019476D01*
X009783Y019270D01*
X009990Y019476D01*
X009990Y018856D01*
X031402Y019998D02*
X031815Y019998D01*
X031402Y020411D01*
X031402Y020515D01*
X031505Y020618D01*
X031712Y020618D01*
X031815Y020515D01*
X032136Y020411D02*
X032343Y020411D01*
X032240Y020515D02*
X032240Y020101D01*
X032136Y019998D01*
X032721Y020101D02*
X032721Y020308D01*
X032825Y020411D01*
X033032Y020411D01*
X033135Y020308D01*
X033135Y020101D01*
X033032Y019998D01*
X032825Y019998D01*
X032721Y020101D01*
X033513Y019998D02*
X033513Y020618D01*
X033720Y020411D01*
X033927Y020618D01*
X033927Y019998D01*
D11*
X023898Y014990D02*
X023898Y014836D01*
X023974Y014760D01*
X024281Y014760D01*
X024358Y014836D01*
X024358Y014990D01*
X024281Y015067D01*
X024281Y015220D02*
X024205Y015220D01*
X024128Y015297D01*
X024128Y015527D01*
X024281Y015527D02*
X024358Y015450D01*
X024358Y015297D01*
X024281Y015220D01*
X023974Y015220D02*
X023898Y015297D01*
X023898Y015450D01*
X023974Y015527D01*
X024281Y015527D01*
X023974Y015067D02*
X023898Y014990D01*
X023018Y019068D02*
X022711Y019068D01*
X022634Y019144D01*
X022634Y019298D01*
X022711Y019374D01*
X022634Y019528D02*
X022634Y019835D01*
X022634Y019681D02*
X023094Y019681D01*
X022941Y019528D01*
X023018Y019374D02*
X023094Y019298D01*
X023094Y019144D01*
X023018Y019068D01*
X023018Y019988D02*
X022711Y019988D01*
X023018Y020295D01*
X022711Y020295D01*
X022634Y020219D01*
X022634Y020065D01*
X022711Y019988D01*
X023018Y019988D02*
X023094Y020065D01*
X023094Y020219D01*
X023018Y020295D01*
M02*
