G75*
%MOIN*%
%OFA0B0*%
%FSLAX24Y24*%
%IPPOS*%
%LPD*%
%AMOC8*
5,1,8,0,0,1.08239X$1,22.5*
%
%ADD10C,0.0240*%
%ADD11C,0.0140*%
%ADD12C,0.0280*%
%ADD13C,0.0060*%
%ADD14R,0.0012X0.0004*%
%ADD15R,0.0008X0.0004*%
%ADD16R,0.0012X0.0004*%
%ADD17R,0.0004X0.0004*%
%ADD18R,0.0024X0.0004*%
%ADD19R,0.0188X0.0004*%
%ADD20R,0.0188X0.0004*%
%ADD21R,0.0180X0.0004*%
%ADD22R,0.0184X0.0004*%
%ADD23R,0.0192X0.0004*%
%ADD24R,0.0184X0.0004*%
%ADD25R,0.0096X0.0004*%
%ADD26R,0.0032X0.0004*%
%ADD27R,0.0016X0.0004*%
%ADD28R,0.0004X0.0004*%
%ADD29R,0.0116X0.0004*%
%ADD30R,0.0316X0.0004*%
%ADD31R,0.0032X0.0004*%
%ADD32R,0.0044X0.0004*%
%ADD33R,0.0140X0.0004*%
%ADD34R,0.0080X0.0004*%
%ADD35R,0.0372X0.0004*%
%ADD36R,0.0168X0.0004*%
%ADD37R,0.0144X0.0004*%
%ADD38R,0.0008X0.0004*%
%ADD39R,0.0004X0.0004*%
%ADD40R,0.0088X0.0004*%
%ADD41R,0.0380X0.0004*%
%ADD42R,0.0172X0.0004*%
%ADD43R,0.0036X0.0004*%
%ADD44R,0.0076X0.0004*%
%ADD45R,0.0160X0.0004*%
%ADD46R,0.0396X0.0004*%
%ADD47R,0.0164X0.0004*%
%ADD48R,0.0412X0.0004*%
%ADD49R,0.0200X0.0004*%
%ADD50R,0.0220X0.0004*%
%ADD51R,0.0208X0.0004*%
%ADD52R,0.0428X0.0004*%
%ADD53R,0.0244X0.0004*%
%ADD54R,0.0232X0.0004*%
%ADD55R,0.0440X0.0004*%
%ADD56R,0.0228X0.0004*%
%ADD57R,0.0264X0.0004*%
%ADD58R,0.0256X0.0004*%
%ADD59R,0.0448X0.0004*%
%ADD60R,0.0272X0.0004*%
%ADD61R,0.0204X0.0004*%
%ADD62R,0.0276X0.0004*%
%ADD63R,0.0460X0.0004*%
%ADD64R,0.0296X0.0004*%
%ADD65R,0.0288X0.0004*%
%ADD66R,0.0468X0.0004*%
%ADD67R,0.0264X0.0004*%
%ADD68R,0.0312X0.0004*%
%ADD69R,0.0216X0.0004*%
%ADD70R,0.0472X0.0004*%
%ADD71R,0.0268X0.0004*%
%ADD72R,0.0324X0.0004*%
%ADD73R,0.0224X0.0004*%
%ADD74R,0.0480X0.0004*%
%ADD75R,0.0276X0.0004*%
%ADD76R,0.0336X0.0004*%
%ADD77R,0.0224X0.0004*%
%ADD78R,0.0324X0.0004*%
%ADD79R,0.0488X0.0004*%
%ADD80R,0.0348X0.0004*%
%ADD81R,0.0228X0.0004*%
%ADD82R,0.0344X0.0004*%
%ADD83R,0.0496X0.0004*%
%ADD84R,0.0364X0.0004*%
%ADD85R,0.0352X0.0004*%
%ADD86R,0.0504X0.0004*%
%ADD87R,0.0304X0.0004*%
%ADD88R,0.0372X0.0004*%
%ADD89R,0.0240X0.0004*%
%ADD90R,0.0360X0.0004*%
%ADD91R,0.0308X0.0004*%
%ADD92R,0.0388X0.0004*%
%ADD93R,0.0368X0.0004*%
%ADD94R,0.0512X0.0004*%
%ADD95R,0.0504X0.0004*%
%ADD96R,0.0392X0.0004*%
%ADD97R,0.0248X0.0004*%
%ADD98R,0.0376X0.0004*%
%ADD99R,0.0520X0.0004*%
%ADD100R,0.0256X0.0004*%
%ADD101R,0.0384X0.0004*%
%ADD102R,0.0528X0.0004*%
%ADD103R,0.0508X0.0004*%
%ADD104R,0.0416X0.0004*%
%ADD105R,0.0252X0.0004*%
%ADD106R,0.0400X0.0004*%
%ADD107R,0.0512X0.0004*%
%ADD108R,0.0420X0.0004*%
%ADD109R,0.0408X0.0004*%
%ADD110R,0.0536X0.0004*%
%ADD111R,0.0536X0.0004*%
%ADD112R,0.0416X0.0004*%
%ADD113R,0.0544X0.0004*%
%ADD114R,0.0264X0.0004*%
%ADD115R,0.0424X0.0004*%
%ADD116R,0.0548X0.0004*%
%ADD117R,0.0516X0.0004*%
%ADD118R,0.0456X0.0004*%
%ADD119R,0.0552X0.0004*%
%ADD120R,0.0272X0.0004*%
%ADD121R,0.0440X0.0004*%
%ADD122R,0.0556X0.0004*%
%ADD123R,0.0444X0.0004*%
%ADD124R,0.0560X0.0004*%
%ADD125R,0.0192X0.0004*%
%ADD126R,0.0528X0.0004*%
%ADD127R,0.0272X0.0004*%
%ADD128R,0.0448X0.0004*%
%ADD129R,0.0560X0.0004*%
%ADD130R,0.0524X0.0004*%
%ADD131R,0.0564X0.0004*%
%ADD132R,0.0492X0.0004*%
%ADD133R,0.0572X0.0004*%
%ADD134R,0.0532X0.0004*%
%ADD135R,0.0280X0.0004*%
%ADD136R,0.0464X0.0004*%
%ADD137R,0.0580X0.0004*%
%ADD138R,0.0532X0.0004*%
%ADD139R,0.0508X0.0004*%
%ADD140R,0.0284X0.0004*%
%ADD141R,0.0476X0.0004*%
%ADD142R,0.0580X0.0004*%
%ADD143R,0.0260X0.0004*%
%ADD144R,0.0480X0.0004*%
%ADD145R,0.0248X0.0004*%
%ADD146R,0.0284X0.0004*%
%ADD147R,0.0588X0.0004*%
%ADD148R,0.0232X0.0004*%
%ADD149R,0.0212X0.0004*%
%ADD150R,0.0196X0.0004*%
%ADD151R,0.0296X0.0004*%
%ADD152R,0.0220X0.0004*%
%ADD153R,0.0212X0.0004*%
%ADD154R,0.0540X0.0004*%
%ADD155R,0.0288X0.0004*%
%ADD156R,0.0208X0.0004*%
%ADD157R,0.0200X0.0004*%
%ADD158R,0.0196X0.0004*%
%ADD159R,0.0540X0.0004*%
%ADD160R,0.0212X0.0004*%
%ADD161R,0.0192X0.0004*%
%ADD162R,0.0204X0.0004*%
%ADD163R,0.0292X0.0004*%
%ADD164R,0.0244X0.0004*%
%ADD165R,0.0252X0.0004*%
%ADD166R,0.0184X0.0004*%
%ADD167R,0.0244X0.0004*%
%ADD168R,0.0192X0.0004*%
%ADD169R,0.0236X0.0004*%
%ADD170R,0.0048X0.0004*%
%ADD171R,0.0176X0.0004*%
%ADD172R,0.0204X0.0004*%
%ADD173R,0.0180X0.0004*%
%ADD174R,0.0172X0.0004*%
%ADD175R,0.0172X0.0004*%
%ADD176R,0.0224X0.0004*%
%ADD177R,0.0172X0.0004*%
%ADD178R,0.0184X0.0004*%
%ADD179R,0.0260X0.0004*%
%ADD180R,0.0168X0.0004*%
%ADD181R,0.0616X0.0004*%
%ADD182R,0.0468X0.0004*%
%ADD183R,0.0164X0.0004*%
%ADD184R,0.0012X0.0004*%
%ADD185R,0.0004X0.0004*%
%ADD186R,0.0332X0.0004*%
%ADD187R,0.0568X0.0004*%
%ADD188R,0.0164X0.0004*%
%ADD189R,0.0240X0.0004*%
%ADD190R,0.0564X0.0004*%
%ADD191R,0.0020X0.0004*%
%ADD192R,0.0216X0.0004*%
%ADD193R,0.0568X0.0004*%
%ADD194R,0.0068X0.0004*%
%ADD195R,0.0164X0.0004*%
%ADD196R,0.0060X0.0004*%
%ADD197R,0.0056X0.0004*%
%ADD198R,0.0060X0.0004*%
%ADD199R,0.0160X0.0004*%
%ADD200R,0.0052X0.0004*%
%ADD201R,0.0236X0.0004*%
%ADD202R,0.0048X0.0004*%
%ADD203R,0.0040X0.0004*%
%ADD204R,0.0556X0.0004*%
%ADD205R,0.0064X0.0004*%
%ADD206R,0.0040X0.0004*%
%ADD207R,0.0064X0.0004*%
%ADD208R,0.0052X0.0004*%
%ADD209R,0.0056X0.0004*%
%ADD210R,0.0044X0.0004*%
%ADD211R,0.0036X0.0004*%
%ADD212R,0.0212X0.0004*%
%ADD213R,0.0204X0.0004*%
%ADD214R,0.0176X0.0004*%
%ADD215R,0.0232X0.0004*%
%ADD216R,0.0532X0.0004*%
%ADD217R,0.0532X0.0004*%
%ADD218R,0.0524X0.0004*%
%ADD219R,0.0512X0.0004*%
%ADD220R,0.0524X0.0004*%
%ADD221R,0.0500X0.0004*%
%ADD222R,0.0484X0.0004*%
%ADD223R,0.0452X0.0004*%
%ADD224R,0.0516X0.0004*%
%ADD225R,0.0512X0.0004*%
%ADD226R,0.0336X0.0004*%
%ADD227R,0.0124X0.0004*%
%ADD228R,0.0504X0.0004*%
%ADD229R,0.0504X0.0004*%
%ADD230R,0.0412X0.0004*%
%ADD231R,0.0432X0.0004*%
%ADD232R,0.0304X0.0004*%
%ADD233R,0.0596X0.0004*%
%ADD234R,0.0596X0.0004*%
%ADD235R,0.0376X0.0004*%
%ADD236R,0.0356X0.0004*%
%ADD237R,0.0584X0.0004*%
%ADD238R,0.0584X0.0004*%
%ADD239R,0.0340X0.0004*%
%ADD240R,0.0576X0.0004*%
%ADD241R,0.0324X0.0004*%
%ADD242R,0.0292X0.0004*%
%ADD243R,0.0132X0.0004*%
%ADD244R,0.0152X0.0004*%
%ADD245R,0.0032X0.0004*%
%ADD246R,0.0128X0.0004*%
%ADD247R,0.0028X0.0004*%
%ADD248R,0.0544X0.0004*%
%ADD249R,0.0140X0.0004*%
%ADD250R,0.0012X0.0004*%
%ADD251R,0.0028X0.0004*%
%ADD252R,0.0116X0.0004*%
%ADD253R,0.0104X0.0004*%
%ADD254R,0.0492X0.0004*%
%ADD255R,0.0492X0.0004*%
%ADD256R,0.0032X0.0004*%
%ADD257R,0.0436X0.0004*%
%ADD258R,0.0024X0.0004*%
%ADD259R,0.0092X0.0004*%
%ADD260R,0.0020X0.0004*%
%ADD261R,0.0120X0.0004*%
%ADD262R,0.0268X0.0004*%
%ADD263R,0.0332X0.0004*%
%ADD264R,0.0384X0.0004*%
%ADD265R,0.0432X0.0004*%
%ADD266R,0.0452X0.0004*%
%ADD267R,0.0476X0.0004*%
%ADD268R,0.0484X0.0004*%
%ADD269R,0.0064X0.0004*%
%ADD270R,0.0520X0.0004*%
%ADD271R,0.0548X0.0004*%
%ADD272R,0.0552X0.0004*%
%ADD273R,0.0044X0.0004*%
%ADD274R,0.0044X0.0004*%
%ADD275R,0.0052X0.0004*%
%ADD276R,0.0072X0.0004*%
%ADD277R,0.0072X0.0004*%
%ADD278R,0.0084X0.0004*%
%ADD279R,0.0072X0.0004*%
%ADD280R,0.0084X0.0004*%
%ADD281R,0.0080X0.0004*%
%ADD282R,0.0100X0.0004*%
%ADD283R,0.0096X0.0004*%
%ADD284R,0.0108X0.0004*%
%ADD285R,0.0284X0.0004*%
%ADD286R,0.0124X0.0004*%
%ADD287R,0.0328X0.0004*%
%ADD288R,0.0136X0.0004*%
%ADD289R,0.0384X0.0004*%
%ADD290R,0.0152X0.0004*%
%ADD291R,0.0444X0.0004*%
%ADD292R,0.0388X0.0004*%
%ADD293R,0.0340X0.0004*%
%ADD294R,0.0252X0.0004*%
%ADD295R,0.0152X0.0004*%
%ADD296R,0.0088X0.0004*%
%ADD297R,0.0076X0.0004*%
%ADD298R,0.0092X0.0004*%
%ADD299R,0.0100X0.0004*%
%ADD300R,0.0072X0.0004*%
%ADD301R,0.0108X0.0004*%
%ADD302R,0.0104X0.0004*%
%ADD303R,0.0112X0.0004*%
%ADD304R,0.0016X0.0004*%
%ADD305R,0.0252X0.0004*%
%ADD306R,0.0132X0.0004*%
%ADD307R,0.0052X0.0004*%
%ADD308R,0.0156X0.0004*%
%ADD309R,0.0092X0.0004*%
%ADD310R,0.0156X0.0004*%
%ADD311R,0.0068X0.0004*%
%ADD312R,0.0144X0.0004*%
%ADD313R,0.0024X0.0004*%
%ADD314R,0.0128X0.0004*%
%ADD315R,0.0120X0.0004*%
%ADD316R,0.0136X0.0004*%
%ADD317R,0.0112X0.0004*%
%ADD318R,0.0148X0.0004*%
%ADD319R,0.0084X0.0004*%
%ADD320R,0.0544X0.0004*%
%ADD321R,0.0572X0.0004*%
%ADD322R,0.0572X0.0004*%
%ADD323R,0.0936X0.0004*%
%ADD324R,0.0952X0.0004*%
%ADD325R,0.0960X0.0004*%
%ADD326R,0.0968X0.0004*%
%ADD327R,0.0972X0.0004*%
%ADD328R,0.0976X0.0004*%
%ADD329R,0.0984X0.0004*%
%ADD330R,0.0992X0.0004*%
%ADD331R,0.0092X0.0004*%
%ADD332R,0.0996X0.0004*%
%ADD333R,0.1004X0.0004*%
%ADD334R,0.0132X0.0004*%
%ADD335R,0.0144X0.0004*%
%ADD336R,0.0124X0.0004*%
%ADD337R,0.0224X0.0004*%
%ADD338R,0.0280X0.0004*%
%ADD339R,0.0104X0.0004*%
%ADD340R,0.0232X0.0004*%
%ADD341R,0.0104X0.0004*%
%ADD342R,0.0292X0.0004*%
%ADD343R,0.0244X0.0004*%
%ADD344R,0.0312X0.0004*%
%ADD345R,0.0392X0.0004*%
%ADD346R,0.0392X0.0004*%
%ADD347R,0.0344X0.0004*%
%ADD348R,0.0400X0.0004*%
%ADD349R,0.0344X0.0004*%
%ADD350R,0.0404X0.0004*%
%ADD351R,0.0348X0.0004*%
%ADD352R,0.0404X0.0004*%
%ADD353R,0.0300X0.0004*%
%ADD354R,0.0408X0.0004*%
%ADD355R,0.0332X0.0004*%
%ADD356R,0.0412X0.0004*%
%ADD357R,0.0132X0.0004*%
%ADD358R,0.0412X0.0004*%
%ADD359R,0.0112X0.0004*%
%ADD360R,0.0084X0.0004*%
%ADD361R,0.0124X0.0004*%
%ADD362R,0.0308X0.0004*%
%ADD363R,0.0152X0.0004*%
%ADD364R,0.0304X0.0004*%
%ADD365R,0.0320X0.0004*%
%ADD366R,0.0488X0.0004*%
%ADD367R,0.0312X0.0004*%
%ADD368R,0.0316X0.0004*%
%ADD369R,0.0492X0.0004*%
%ADD370R,0.0332X0.0004*%
%ADD371R,0.0344X0.0004*%
%ADD372R,0.0472X0.0004*%
%ADD373R,0.0464X0.0004*%
%ADD374R,0.0900X0.0004*%
%ADD375R,0.0908X0.0004*%
%ADD376R,0.0912X0.0004*%
%ADD377R,0.0920X0.0004*%
%ADD378R,0.0920X0.0004*%
%ADD379R,0.0924X0.0004*%
%ADD380R,0.0928X0.0004*%
%ADD381R,0.0932X0.0004*%
%ADD382R,0.0940X0.0004*%
%ADD383R,0.0940X0.0004*%
%ADD384R,0.0944X0.0004*%
%ADD385R,0.0948X0.0004*%
%ADD386R,0.0952X0.0004*%
%ADD387R,0.0948X0.0004*%
%ADD388R,0.0944X0.0004*%
%ADD389R,0.0912X0.0004*%
%ADD390R,0.0892X0.0004*%
%ADD391R,0.0884X0.0004*%
%ADD392R,0.0876X0.0004*%
%ADD393R,0.0868X0.0004*%
%ADD394R,0.0428X0.0004*%
%ADD395R,0.0024X0.0004*%
%ADD396C,0.0070*%
%ADD397C,0.0040*%
%ADD398C,0.0025*%
%ADD399C,0.0098*%
%ADD400C,0.0050*%
%ADD401R,0.0200X0.1000*%
%ADD402C,0.0080*%
D10*
X007671Y018856D02*
X007671Y019476D01*
X007878Y019270D01*
X008085Y019476D01*
X008085Y018856D01*
X008463Y018959D02*
X008463Y019166D01*
X008566Y019270D01*
X008773Y019270D01*
X008876Y019166D01*
X008876Y018959D01*
X008773Y018856D01*
X008566Y018856D01*
X008463Y018959D01*
X009255Y019270D02*
X009461Y019270D01*
X009358Y019373D02*
X009358Y018959D01*
X009461Y018856D01*
X009783Y018856D02*
X010196Y018856D01*
X009989Y018856D02*
X009989Y019476D01*
X009783Y019270D01*
X031568Y019998D02*
X031568Y020618D01*
X031775Y020411D01*
X031982Y020618D01*
X031982Y019998D01*
X032360Y020101D02*
X032360Y020308D01*
X032464Y020411D01*
X032671Y020411D01*
X032774Y020308D01*
X032774Y020101D01*
X032671Y019998D01*
X032464Y019998D01*
X032360Y020101D01*
X033152Y020411D02*
X033359Y020411D01*
X033256Y020515D02*
X033256Y020101D01*
X033359Y019998D01*
X033680Y019998D02*
X034094Y020411D01*
X034094Y020515D01*
X033990Y020618D01*
X033784Y020618D01*
X033680Y020515D01*
X033680Y019998D02*
X034094Y019998D01*
D11*
X023726Y005310D02*
X023606Y005310D01*
X023546Y005250D01*
X023726Y005310D02*
X023786Y005250D01*
X023786Y005190D01*
X023546Y004950D01*
X023786Y004950D01*
X023326Y004950D02*
X023326Y005310D01*
X023205Y005190D01*
X023085Y005310D01*
X023085Y004950D01*
X022865Y004950D02*
X022745Y005070D01*
X022625Y004950D01*
X022625Y005310D01*
X022405Y005250D02*
X022405Y005130D01*
X022345Y005070D01*
X022165Y005070D01*
X022165Y004950D02*
X022165Y005310D01*
X022345Y005310D01*
X022405Y005250D01*
X022865Y005310D02*
X022865Y004950D01*
X021484Y004950D02*
X021244Y004950D01*
X021364Y004950D02*
X021364Y005310D01*
X021244Y005190D01*
X021024Y005310D02*
X021024Y004950D01*
X020783Y004950D02*
X020783Y005310D01*
X020903Y005190D01*
X021024Y005310D01*
X020563Y005310D02*
X020563Y004950D01*
X020443Y005070D01*
X020323Y004950D01*
X020323Y005310D01*
X020103Y005250D02*
X020103Y005130D01*
X020043Y005070D01*
X019863Y005070D01*
X019863Y004950D02*
X019863Y005310D01*
X020043Y005310D01*
X020103Y005250D01*
X019182Y005250D02*
X019182Y005010D01*
X019122Y004950D01*
X018942Y004950D01*
X018942Y005310D01*
X019122Y005310D01*
X019182Y005250D01*
X018722Y005310D02*
X018722Y004950D01*
X018481Y005310D01*
X018481Y004950D01*
X018261Y005010D02*
X018261Y005130D01*
X018141Y005130D01*
X018021Y005010D02*
X018081Y004950D01*
X018201Y004950D01*
X018261Y005010D01*
X018021Y005010D02*
X018021Y005250D01*
X018081Y005310D01*
X018201Y005310D01*
X018261Y005250D01*
X018448Y004520D02*
X018328Y004400D01*
X018448Y004520D02*
X018448Y004160D01*
X018328Y004160D02*
X018568Y004160D01*
X018108Y004160D02*
X017988Y004280D01*
X018048Y004280D02*
X017868Y004280D01*
X017868Y004160D02*
X017868Y004520D01*
X018048Y004520D01*
X018108Y004460D01*
X018108Y004340D01*
X018048Y004280D01*
X017681Y004160D02*
X017561Y004160D01*
X017621Y004160D02*
X017621Y004520D01*
X017561Y004520D02*
X017681Y004520D01*
X017340Y004460D02*
X017340Y004220D01*
X017280Y004160D01*
X017100Y004160D01*
X017100Y004520D01*
X017280Y004520D01*
X017340Y004460D01*
X016420Y004400D02*
X016239Y004400D01*
X016179Y004340D01*
X016179Y004220D01*
X016239Y004160D01*
X016420Y004160D01*
X015959Y004160D02*
X015779Y004160D01*
X015719Y004220D01*
X015719Y004340D01*
X015779Y004400D01*
X015959Y004400D01*
X015499Y004280D02*
X015499Y004520D01*
X015499Y004280D02*
X015379Y004160D01*
X015259Y004280D01*
X015259Y004520D01*
X019249Y004520D02*
X019249Y004160D01*
X019429Y004160D01*
X019489Y004220D01*
X019489Y004460D01*
X019429Y004520D01*
X019249Y004520D01*
X019709Y004520D02*
X019829Y004520D01*
X019769Y004520D02*
X019769Y004160D01*
X019709Y004160D02*
X019829Y004160D01*
X020016Y004160D02*
X020016Y004520D01*
X020196Y004520D01*
X020256Y004460D01*
X020256Y004340D01*
X020196Y004280D01*
X020016Y004280D01*
X020136Y004280D02*
X020256Y004160D01*
X020476Y004160D02*
X020717Y004400D01*
X020717Y004460D01*
X020657Y004520D01*
X020536Y004520D01*
X020476Y004460D01*
X020476Y004160D02*
X020717Y004160D01*
X023081Y003592D02*
X023141Y003652D01*
X023321Y003652D01*
X023321Y003772D02*
X023321Y003412D01*
X023141Y003412D01*
X023081Y003472D01*
X023081Y003592D01*
X023542Y003652D02*
X023602Y003652D01*
X023602Y003412D01*
X023542Y003412D02*
X023662Y003412D01*
X023849Y003412D02*
X023849Y003652D01*
X023969Y003652D02*
X024029Y003652D01*
X023969Y003652D02*
X023849Y003532D01*
X023602Y003772D02*
X023602Y003832D01*
X024232Y003652D02*
X024352Y003772D01*
X024352Y003412D01*
X024232Y003412D02*
X024472Y003412D01*
X025153Y003412D02*
X025333Y003412D01*
X025393Y003472D01*
X025393Y003592D01*
X025333Y003652D01*
X025153Y003652D01*
X025153Y003292D01*
X025613Y003472D02*
X025673Y003412D01*
X025734Y003472D01*
X025794Y003412D01*
X025854Y003472D01*
X025854Y003652D01*
X026074Y003652D02*
X026074Y003412D01*
X026194Y003412D02*
X026194Y003592D01*
X026254Y003652D01*
X026314Y003592D01*
X026314Y003412D01*
X026194Y003592D02*
X026134Y003652D01*
X026074Y003652D01*
X026534Y003652D02*
X026654Y003772D01*
X026654Y003412D01*
X026534Y003412D02*
X026774Y003412D01*
X027455Y003472D02*
X027515Y003412D01*
X027695Y003412D01*
X027695Y003772D01*
X027695Y003652D02*
X027515Y003652D01*
X027455Y003592D01*
X027455Y003472D01*
X027915Y003412D02*
X028035Y003412D01*
X027975Y003412D02*
X027975Y003652D01*
X027915Y003652D01*
X027975Y003772D02*
X027975Y003832D01*
X028222Y003652D02*
X028222Y003412D01*
X028222Y003532D02*
X028342Y003652D01*
X028402Y003652D01*
X028606Y003712D02*
X028666Y003772D01*
X028786Y003772D01*
X028846Y003712D01*
X028846Y003652D01*
X028606Y003412D01*
X028846Y003412D01*
X029527Y003412D02*
X029707Y003412D01*
X029767Y003472D01*
X029767Y003592D01*
X029707Y003652D01*
X029527Y003652D01*
X029527Y003292D01*
X029987Y003472D02*
X030047Y003412D01*
X030107Y003472D01*
X030167Y003412D01*
X030227Y003472D01*
X030227Y003652D01*
X030448Y003652D02*
X030508Y003652D01*
X030568Y003592D01*
X030628Y003652D01*
X030688Y003592D01*
X030688Y003412D01*
X030568Y003412D02*
X030568Y003592D01*
X030448Y003652D02*
X030448Y003412D01*
X029987Y003472D02*
X029987Y003652D01*
X030908Y003712D02*
X030968Y003772D01*
X031088Y003772D01*
X031148Y003712D01*
X031148Y003652D01*
X030908Y003412D01*
X031148Y003412D01*
X031829Y003472D02*
X031829Y003712D01*
X031889Y003772D01*
X032009Y003772D01*
X032069Y003712D01*
X032069Y003592D02*
X031949Y003592D01*
X032069Y003592D02*
X032069Y003472D01*
X032009Y003412D01*
X031889Y003412D01*
X031829Y003472D01*
X032289Y003412D02*
X032289Y003772D01*
X032529Y003412D01*
X032529Y003772D01*
X032749Y003772D02*
X032930Y003772D01*
X032990Y003712D01*
X032990Y003472D01*
X032930Y003412D01*
X032749Y003412D01*
X032749Y003772D01*
X034131Y003772D02*
X034131Y003532D01*
X034251Y003412D01*
X034371Y003532D01*
X034371Y003772D01*
X034591Y003592D02*
X034591Y003472D01*
X034651Y003412D01*
X034831Y003412D01*
X035051Y003472D02*
X035111Y003412D01*
X035292Y003412D01*
X035292Y003652D02*
X035111Y003652D01*
X035051Y003592D01*
X035051Y003472D01*
X034831Y003652D02*
X034651Y003652D01*
X034591Y003592D01*
X025613Y003652D02*
X025613Y003472D01*
D12*
X024428Y014438D02*
X024428Y014919D01*
X024188Y014678D02*
X024669Y014678D01*
X024789Y015359D02*
X024789Y015839D01*
X024789Y015599D02*
X024068Y015599D01*
X024308Y015359D01*
X024188Y016280D02*
X024068Y016400D01*
X024068Y016640D01*
X024188Y016760D01*
X024308Y016760D01*
X024789Y016280D01*
X024789Y016760D01*
X024428Y017201D02*
X024428Y017681D01*
X024188Y018121D02*
X024068Y018241D01*
X024068Y018482D01*
X024188Y018602D01*
X024308Y018602D01*
X024428Y018482D01*
X024549Y018602D01*
X024669Y018602D01*
X024789Y018482D01*
X024789Y018241D01*
X024669Y018121D01*
X024428Y018362D02*
X024428Y018482D01*
X024188Y019042D02*
X024068Y019162D01*
X024068Y019402D01*
X024188Y019523D01*
X024669Y019042D01*
X024789Y019162D01*
X024789Y019402D01*
X024669Y019523D01*
X024188Y019523D01*
X024068Y019963D02*
X024549Y019963D01*
X024789Y020203D01*
X024549Y020443D01*
X024068Y020443D01*
X024188Y019042D02*
X024669Y019042D01*
X017072Y018806D02*
X016352Y018806D01*
X017072Y019286D01*
X016352Y019286D01*
X016352Y019727D02*
X016352Y020087D01*
X016472Y020207D01*
X016952Y020207D01*
X017072Y020087D01*
X017072Y019727D01*
X016352Y019727D01*
X016472Y018366D02*
X016352Y018245D01*
X016352Y018005D01*
X016472Y017885D01*
X016952Y017885D01*
X017072Y018005D01*
X017072Y018245D01*
X016952Y018366D01*
X016712Y018366D01*
X016712Y018125D01*
D13*
X017661Y017694D02*
X023661Y017694D01*
X023661Y016594D01*
X017661Y016594D01*
X017661Y017694D01*
X018811Y017694D02*
X018961Y017194D01*
X019361Y017194D01*
X019511Y017694D01*
X017661Y016594D02*
X017661Y012944D01*
X018711Y012944D01*
X019611Y012944D02*
X021711Y012944D01*
X022611Y012944D02*
X023661Y012944D01*
X023661Y016594D01*
X022361Y017194D02*
X022511Y017694D01*
X021811Y017694D02*
X021961Y017194D01*
X022361Y017194D01*
X021208Y010968D02*
X021008Y010968D01*
X021008Y009968D01*
X021208Y009968D01*
X021208Y010468D01*
X021208Y010968D01*
X021208Y010468D02*
X021508Y010468D01*
X018758Y010468D02*
X018760Y010561D01*
X018766Y010655D01*
X018776Y010747D01*
X018790Y010840D01*
X018807Y010931D01*
X018829Y011022D01*
X018854Y011112D01*
X018884Y011201D01*
X018917Y011288D01*
X018953Y011374D01*
X018994Y011458D01*
X019037Y011541D01*
X019085Y011621D01*
X019135Y011700D01*
X019189Y011776D01*
X019246Y011850D01*
X019307Y011921D01*
X019370Y011990D01*
X019436Y012056D01*
X019505Y012119D01*
X019576Y012180D01*
X019650Y012237D01*
X019726Y012291D01*
X019805Y012341D01*
X019885Y012389D01*
X019968Y012432D01*
X020052Y012473D01*
X020138Y012509D01*
X020225Y012542D01*
X020314Y012572D01*
X020404Y012597D01*
X020495Y012619D01*
X020586Y012636D01*
X020679Y012650D01*
X020771Y012660D01*
X020865Y012666D01*
X020958Y012668D01*
X021051Y012666D01*
X021145Y012660D01*
X021237Y012650D01*
X021330Y012636D01*
X021421Y012619D01*
X021512Y012597D01*
X021602Y012572D01*
X021691Y012542D01*
X021778Y012509D01*
X021864Y012473D01*
X021948Y012432D01*
X022031Y012389D01*
X022111Y012341D01*
X022190Y012291D01*
X022266Y012237D01*
X022340Y012180D01*
X022411Y012119D01*
X022480Y012056D01*
X022546Y011990D01*
X022609Y011921D01*
X022670Y011850D01*
X022727Y011776D01*
X022781Y011700D01*
X022831Y011621D01*
X022879Y011541D01*
X022922Y011458D01*
X022963Y011374D01*
X022999Y011288D01*
X023032Y011201D01*
X023062Y011112D01*
X023087Y011022D01*
X023109Y010931D01*
X023126Y010840D01*
X023140Y010747D01*
X023150Y010655D01*
X023156Y010561D01*
X023158Y010468D01*
X023156Y010375D01*
X023150Y010281D01*
X023140Y010189D01*
X023126Y010096D01*
X023109Y010005D01*
X023087Y009914D01*
X023062Y009824D01*
X023032Y009735D01*
X022999Y009648D01*
X022963Y009562D01*
X022922Y009478D01*
X022879Y009395D01*
X022831Y009315D01*
X022781Y009236D01*
X022727Y009160D01*
X022670Y009086D01*
X022609Y009015D01*
X022546Y008946D01*
X022480Y008880D01*
X022411Y008817D01*
X022340Y008756D01*
X022266Y008699D01*
X022190Y008645D01*
X022111Y008595D01*
X022031Y008547D01*
X021948Y008504D01*
X021864Y008463D01*
X021778Y008427D01*
X021691Y008394D01*
X021602Y008364D01*
X021512Y008339D01*
X021421Y008317D01*
X021330Y008300D01*
X021237Y008286D01*
X021145Y008276D01*
X021051Y008270D01*
X020958Y008268D01*
X020865Y008270D01*
X020771Y008276D01*
X020679Y008286D01*
X020586Y008300D01*
X020495Y008317D01*
X020404Y008339D01*
X020314Y008364D01*
X020225Y008394D01*
X020138Y008427D01*
X020052Y008463D01*
X019968Y008504D01*
X019885Y008547D01*
X019805Y008595D01*
X019726Y008645D01*
X019650Y008699D01*
X019576Y008756D01*
X019505Y008817D01*
X019436Y008880D01*
X019370Y008946D01*
X019307Y009015D01*
X019246Y009086D01*
X019189Y009160D01*
X019135Y009236D01*
X019085Y009315D01*
X019037Y009395D01*
X018994Y009478D01*
X018953Y009562D01*
X018917Y009648D01*
X018884Y009735D01*
X018854Y009824D01*
X018829Y009914D01*
X018807Y010005D01*
X018790Y010096D01*
X018776Y010189D01*
X018766Y010281D01*
X018760Y010375D01*
X018758Y010468D01*
X020408Y010468D02*
X020708Y010468D01*
X021458Y009818D02*
X021858Y009818D01*
X021658Y009618D02*
X021658Y010018D01*
X025536Y008482D02*
X025536Y008054D01*
X025643Y007948D01*
X025857Y007948D01*
X025963Y008054D01*
X026181Y008054D02*
X026288Y008161D01*
X026608Y008161D01*
X026608Y008268D02*
X026501Y008375D01*
X026288Y008375D01*
X026608Y008268D02*
X026608Y007948D01*
X026288Y007948D01*
X026181Y008054D01*
X025963Y008482D02*
X025857Y008588D01*
X025643Y008588D01*
X025536Y008482D01*
X026825Y008375D02*
X026825Y007948D01*
X026825Y008161D02*
X027039Y008375D01*
X027146Y008375D01*
X027363Y008375D02*
X027576Y008375D01*
X027469Y008482D02*
X027469Y008054D01*
X027576Y007948D01*
X027792Y008054D02*
X027792Y008268D01*
X027899Y008375D01*
X028113Y008375D01*
X028219Y008268D01*
X028219Y008161D01*
X027792Y008161D01*
X027792Y008054D02*
X027899Y007948D01*
X028113Y007948D01*
X029081Y007948D02*
X029081Y008588D01*
X029402Y008588D01*
X029508Y008482D01*
X029508Y008268D01*
X029402Y008161D01*
X029081Y008161D01*
X029726Y008054D02*
X029726Y008588D01*
X030153Y008588D02*
X030153Y008054D01*
X030046Y007948D01*
X029833Y007948D01*
X029726Y008054D01*
X030370Y007948D02*
X030584Y007948D01*
X030477Y007948D02*
X030477Y008588D01*
X030370Y008588D02*
X030584Y008588D01*
X030800Y008482D02*
X030800Y008375D01*
X030907Y008268D01*
X031120Y008268D01*
X031227Y008161D01*
X031227Y008054D01*
X031120Y007948D01*
X030907Y007948D01*
X030800Y008054D01*
X030800Y008482D02*
X030907Y008588D01*
X031120Y008588D01*
X031227Y008482D01*
X031445Y008482D02*
X031445Y008375D01*
X031551Y008268D01*
X031765Y008268D01*
X031872Y008161D01*
X031872Y008054D01*
X031765Y007948D01*
X031551Y007948D01*
X031445Y008054D01*
X031445Y008482D02*
X031551Y008588D01*
X031765Y008588D01*
X031872Y008482D01*
X032089Y008375D02*
X032303Y008588D01*
X032516Y008375D01*
X032516Y007948D01*
X032734Y007948D02*
X032734Y008588D01*
X033161Y007948D01*
X033161Y008588D01*
X033378Y008482D02*
X033378Y008054D01*
X033485Y007948D01*
X033699Y007948D01*
X033805Y008054D01*
X034023Y007948D02*
X034450Y007948D01*
X034023Y007948D02*
X034023Y008588D01*
X034450Y008588D01*
X034236Y008268D02*
X034023Y008268D01*
X033805Y008482D02*
X033699Y008588D01*
X033485Y008588D01*
X033378Y008482D01*
X032516Y008268D02*
X032089Y008268D01*
X032089Y008375D02*
X032089Y007948D01*
X030389Y005204D02*
X029489Y005204D01*
X029389Y005104D01*
X029289Y005204D01*
X028489Y005204D01*
X028389Y005104D01*
X028289Y005204D01*
X027489Y005204D01*
X027389Y005104D01*
X027289Y005204D01*
X026489Y005204D01*
X026389Y005104D01*
X026289Y005204D01*
X025489Y005204D01*
X025389Y005104D01*
X025289Y005204D01*
X024389Y005204D01*
X024389Y004204D01*
X025289Y004204D01*
X025389Y004304D01*
X025489Y004204D01*
X026289Y004204D01*
X026389Y004304D01*
X026489Y004204D01*
X027289Y004204D01*
X027389Y004304D01*
X027489Y004204D01*
X028289Y004204D01*
X028389Y004304D01*
X028489Y004204D01*
X029289Y004204D01*
X029389Y004304D01*
X029489Y004204D01*
X030389Y004204D01*
X030389Y005204D01*
D14*
X024728Y006887D03*
X022528Y006527D03*
X021708Y007239D03*
X017032Y007235D03*
X017032Y007231D03*
X016308Y008083D03*
D15*
X016194Y008055D03*
X016986Y008083D03*
X016970Y007807D03*
X017034Y007227D03*
X017034Y007223D03*
X016146Y007175D03*
X017942Y006623D03*
X021486Y006675D03*
X021498Y006675D03*
X021514Y006675D03*
X021526Y006675D03*
X021570Y006675D03*
X021582Y006675D03*
X021598Y006675D03*
X021610Y006675D03*
X021626Y006675D03*
X021678Y006675D03*
X021706Y006675D03*
X021750Y006679D03*
X021762Y006679D03*
X022250Y006679D03*
X022262Y006679D03*
X022346Y006679D03*
X022546Y006527D03*
X022562Y006527D03*
X022590Y006527D03*
X022618Y006527D03*
X022630Y006527D03*
X022674Y006527D03*
X022802Y006807D03*
X022854Y006919D03*
X022866Y006947D03*
X022838Y006951D03*
X022810Y006955D03*
X023086Y006947D03*
X023114Y006951D03*
X023142Y006955D03*
X023514Y007311D03*
X024098Y006687D03*
X024522Y007067D03*
X024618Y007067D03*
X024634Y006887D03*
X024646Y006887D03*
X024714Y006887D03*
X024742Y006887D03*
X024758Y006887D03*
X024486Y007307D03*
X023542Y006679D03*
X023514Y006675D03*
X023498Y006675D03*
X023486Y006675D03*
X023470Y006675D03*
X023446Y006679D03*
X022290Y007279D03*
X022246Y007279D03*
X022246Y007399D03*
X022298Y007395D03*
X022138Y007435D03*
X021638Y007239D03*
X022262Y007879D03*
X022642Y007879D03*
X022698Y007887D03*
X022710Y007887D03*
X022702Y007859D03*
X022802Y007867D03*
X022814Y007867D03*
X022826Y007867D03*
X022854Y007867D03*
X022850Y007895D03*
X022878Y007895D03*
X022934Y007891D03*
X022946Y007891D03*
X022990Y007887D03*
X022978Y007859D03*
X023006Y007855D03*
X023142Y007827D03*
D16*
X022864Y007895D03*
X022260Y007279D03*
X022760Y006935D03*
X022660Y006527D03*
X022604Y006527D03*
X022576Y006527D03*
X022376Y006679D03*
X022280Y006679D03*
X021640Y006675D03*
X018140Y006775D03*
X016624Y007271D03*
D17*
X017036Y007215D03*
X016968Y007811D03*
X021468Y006675D03*
X021692Y006675D03*
X021732Y006675D03*
X021876Y006707D03*
X021752Y006831D03*
X021736Y006827D03*
X022236Y006679D03*
X022644Y006527D03*
X022872Y006667D03*
X022884Y006667D03*
X022832Y006815D03*
X023088Y006919D03*
X023372Y006971D03*
X023404Y007019D03*
X023512Y007147D03*
X023476Y007311D03*
X024048Y007507D03*
X024432Y007295D03*
X024444Y007299D03*
X024572Y007307D03*
X024552Y007067D03*
X024536Y007067D03*
X024508Y007067D03*
X024604Y007067D03*
X024664Y006887D03*
X024676Y006887D03*
X024772Y006887D03*
X024728Y006747D03*
X024652Y006699D03*
X023612Y006695D03*
X023596Y006691D03*
X023552Y006679D03*
X023516Y006839D03*
X023504Y006839D03*
X023488Y006839D03*
X022792Y007155D03*
X022328Y007399D03*
X022284Y007395D03*
X022276Y007279D03*
X021668Y007387D03*
X021572Y007387D03*
X021648Y007239D03*
X022332Y007571D03*
X022348Y007575D03*
X022272Y007879D03*
X022152Y008027D03*
X022612Y007875D03*
X022656Y007851D03*
X022712Y007859D03*
X022812Y007895D03*
X022868Y007867D03*
X022964Y007891D03*
D18*
X023658Y007431D03*
X023662Y007415D03*
X023666Y007367D03*
X023666Y007339D03*
X023662Y007335D03*
X023662Y007331D03*
X023662Y007327D03*
X023494Y007311D03*
X022694Y006527D03*
X022362Y007279D03*
X022334Y007279D03*
X022166Y007387D03*
X022166Y007395D03*
X018398Y007851D03*
X017994Y007411D03*
X017526Y007175D03*
X017326Y007175D03*
X017026Y007263D03*
X017026Y007267D03*
X017026Y007271D03*
X017066Y007415D03*
X017066Y007423D03*
X017066Y007427D03*
X016974Y007795D03*
X016198Y008063D03*
D19*
X016960Y007643D03*
X017676Y007495D03*
X017676Y007491D03*
X017676Y007487D03*
X018036Y006563D03*
X016168Y007271D03*
X016168Y007275D03*
X022072Y007615D03*
X022072Y007827D03*
X022500Y007827D03*
X022508Y007815D03*
X022508Y007807D03*
X022504Y007627D03*
X022496Y007615D03*
X022496Y007611D03*
X022612Y007275D03*
X022612Y007271D03*
X022612Y007267D03*
X022612Y007259D03*
X022612Y007255D03*
X022612Y007251D03*
X022612Y007239D03*
X022612Y007235D03*
X022612Y007231D03*
X022612Y007227D03*
X022612Y007099D03*
X022612Y007095D03*
X022612Y007087D03*
X022612Y007071D03*
X022612Y007067D03*
X022612Y007059D03*
X022616Y007051D03*
X022612Y007047D03*
X022612Y007011D03*
X022612Y006999D03*
X022612Y006991D03*
X022616Y006979D03*
X022612Y006975D03*
X022616Y006939D03*
X022612Y006935D03*
X022612Y006931D03*
X022616Y006927D03*
X022612Y006919D03*
X022612Y006907D03*
X022616Y006895D03*
X022616Y006871D03*
X022616Y006867D03*
X022616Y006859D03*
X022616Y006855D03*
X022616Y006735D03*
X022616Y006731D03*
X022616Y006719D03*
X022616Y006715D03*
X022616Y006707D03*
X022612Y006699D03*
X022616Y006691D03*
X022616Y006687D03*
X022616Y006679D03*
X022616Y006675D03*
X022612Y006671D03*
X022616Y006667D03*
X022616Y006659D03*
X022616Y006655D03*
X022616Y006651D03*
X022616Y006647D03*
X022616Y006639D03*
X022616Y006635D03*
X022616Y006627D03*
X022616Y006619D03*
X022612Y006615D03*
X022616Y006611D03*
X022616Y006607D03*
X022616Y006595D03*
X022616Y006591D03*
X022616Y006579D03*
X022616Y006571D03*
X022616Y006567D03*
X022616Y006559D03*
X022616Y006555D03*
X022616Y006551D03*
X022616Y006539D03*
X022616Y006535D03*
X022616Y006531D03*
X022288Y006687D03*
X022284Y006691D03*
X022288Y006695D03*
X022288Y006707D03*
X022284Y006719D03*
X022284Y006731D03*
X022288Y006735D03*
X022284Y006747D03*
X022288Y006751D03*
X022288Y006755D03*
X022284Y006759D03*
X022284Y006771D03*
X022284Y006775D03*
X022288Y006779D03*
X022284Y006787D03*
X022288Y006791D03*
X022284Y006799D03*
X022284Y006815D03*
X022288Y006819D03*
X022284Y006827D03*
X022284Y006831D03*
X022288Y006847D03*
X022288Y006851D03*
X022284Y006855D03*
X022284Y006867D03*
X022284Y006871D03*
X022288Y006875D03*
X022284Y006895D03*
X022284Y006899D03*
X022284Y006911D03*
X022288Y006915D03*
X022284Y006927D03*
X022284Y006939D03*
X022288Y006947D03*
X022284Y006951D03*
X022284Y006955D03*
X022284Y006967D03*
X022284Y006979D03*
X022284Y006991D03*
X022284Y006995D03*
X022284Y006999D03*
X022284Y007007D03*
X022284Y007011D03*
X022284Y007019D03*
X022284Y007031D03*
X022284Y007035D03*
X022284Y007039D03*
X022284Y007047D03*
X022284Y007051D03*
X022288Y007055D03*
X022284Y007059D03*
X022284Y007067D03*
X022284Y007071D03*
X022284Y007075D03*
X022284Y007079D03*
X022284Y007127D03*
X022284Y007131D03*
X022284Y007135D03*
X022284Y007147D03*
X022284Y007155D03*
X022284Y007159D03*
X022284Y007167D03*
X022284Y007171D03*
X022284Y007175D03*
X022284Y007187D03*
X022284Y007191D03*
X022284Y007195D03*
X022284Y007199D03*
X022284Y007211D03*
X022284Y007215D03*
X022284Y007219D03*
X022284Y007227D03*
X022284Y007231D03*
X022284Y007239D03*
X022284Y007247D03*
X022284Y007251D03*
X022284Y007255D03*
X022284Y007259D03*
X022284Y007267D03*
X022284Y007271D03*
X022980Y007027D03*
X022980Y006951D03*
X023288Y006887D03*
X023288Y007099D03*
X023292Y007107D03*
X023704Y007099D03*
X023988Y007099D03*
X023988Y007095D03*
X023988Y007091D03*
X023988Y007087D03*
X023988Y007079D03*
X023988Y007075D03*
X023992Y007055D03*
X023988Y007051D03*
X023988Y007047D03*
X023988Y007035D03*
X023988Y007031D03*
X023988Y007019D03*
X023988Y007007D03*
X023988Y006999D03*
X023988Y006979D03*
X023988Y006967D03*
X023992Y006959D03*
X023988Y006955D03*
X023988Y006951D03*
X023988Y006939D03*
X023992Y006931D03*
X023988Y006927D03*
X023992Y006915D03*
X023988Y006911D03*
X023988Y006907D03*
X023992Y006887D03*
X023992Y006875D03*
X023992Y006867D03*
X024096Y006699D03*
X024364Y006851D03*
X024368Y006847D03*
X024372Y006839D03*
X024376Y006835D03*
X024348Y006911D03*
X024348Y006919D03*
X024344Y006931D03*
X024348Y006935D03*
X024348Y007067D03*
X024348Y007071D03*
X024348Y007075D03*
X024348Y007079D03*
X024376Y007159D03*
X024384Y007167D03*
X024532Y007295D03*
X024684Y007167D03*
X024688Y006835D03*
X024536Y006691D03*
X023988Y007107D03*
X023988Y007111D03*
X023988Y007115D03*
X023988Y007119D03*
X023988Y007127D03*
X023988Y007131D03*
X023988Y007135D03*
X023988Y007147D03*
X023988Y007155D03*
X023988Y007159D03*
X023988Y007171D03*
X023988Y007175D03*
X023988Y007187D03*
X023988Y007191D03*
X023988Y007195D03*
X023988Y007199D03*
X023988Y007207D03*
X023988Y007211D03*
X023988Y007215D03*
X023988Y007219D03*
X023988Y007227D03*
X023988Y007231D03*
X023988Y007239D03*
X023988Y007255D03*
X023988Y007267D03*
X023988Y007279D03*
X023988Y007287D03*
X023988Y007291D03*
X023988Y007295D03*
X023988Y007299D03*
X023988Y007307D03*
X023988Y007311D03*
X023988Y007315D03*
X023988Y007319D03*
X023988Y007327D03*
X023988Y007331D03*
X023988Y007335D03*
X023988Y007339D03*
X023988Y007347D03*
X023988Y007351D03*
X023988Y007359D03*
X023988Y007367D03*
X023988Y007371D03*
X023988Y007375D03*
X023988Y007379D03*
X023988Y007391D03*
X023988Y007395D03*
X023988Y007399D03*
X023988Y007407D03*
X023988Y007411D03*
X023988Y007415D03*
X023988Y007419D03*
X023988Y007427D03*
X023988Y007431D03*
X023988Y007435D03*
X023988Y007439D03*
X023988Y007447D03*
X023988Y007459D03*
X023988Y007471D03*
X023988Y007475D03*
X023988Y007487D03*
X023988Y007491D03*
X023988Y007499D03*
X023496Y006691D03*
D20*
X023700Y006883D03*
X023700Y007103D03*
X023988Y007103D03*
X023988Y007123D03*
X023988Y007143D03*
X023988Y007183D03*
X023988Y007203D03*
X023988Y007223D03*
X023988Y007243D03*
X023988Y007283D03*
X023984Y007303D03*
X023988Y007323D03*
X023988Y007343D03*
X023988Y007363D03*
X023988Y007383D03*
X023988Y007403D03*
X023988Y007423D03*
X023988Y007443D03*
X023988Y007063D03*
X023988Y007023D03*
X023988Y007003D03*
X023988Y006983D03*
X023992Y006963D03*
X023992Y006943D03*
X023988Y006923D03*
X023988Y006883D03*
X024092Y006703D03*
X024348Y006923D03*
X023292Y006883D03*
X023292Y007103D03*
X022616Y007063D03*
X022612Y007003D03*
X022616Y006983D03*
X022616Y006923D03*
X022612Y006903D03*
X022616Y006883D03*
X022616Y006723D03*
X022616Y006703D03*
X022616Y006683D03*
X022616Y006663D03*
X022616Y006623D03*
X022616Y006583D03*
X022616Y006543D03*
X022288Y006683D03*
X022284Y006703D03*
X022288Y006723D03*
X022288Y006763D03*
X022284Y006803D03*
X022284Y006843D03*
X022284Y006883D03*
X022284Y006923D03*
X022288Y006943D03*
X022284Y006963D03*
X022284Y006983D03*
X022284Y007003D03*
X022284Y007023D03*
X022284Y007063D03*
X022284Y007143D03*
X022284Y007163D03*
X022284Y007183D03*
X022284Y007203D03*
X022284Y007223D03*
X022284Y007243D03*
X022284Y007263D03*
X022612Y007263D03*
X022504Y007623D03*
X022068Y007623D03*
X022072Y007823D03*
X018052Y006819D03*
X017676Y007499D03*
X016576Y007239D03*
D21*
X016168Y007267D03*
X016984Y007575D03*
X017680Y007507D03*
X018040Y006707D03*
X018044Y006703D03*
X018056Y006691D03*
X022060Y007635D03*
X022060Y007639D03*
X022068Y007627D03*
X022060Y007799D03*
X022060Y007807D03*
X022064Y007811D03*
X022504Y007819D03*
X022508Y007811D03*
X022508Y007635D03*
X022500Y007619D03*
X022832Y007891D03*
X022868Y007275D03*
X023284Y007091D03*
X023284Y006899D03*
X023284Y006895D03*
X022872Y006687D03*
X022616Y006547D03*
X022284Y007207D03*
X023708Y007087D03*
X024100Y006695D03*
X024356Y006871D03*
X024356Y006879D03*
X024348Y007095D03*
X024352Y007099D03*
X024352Y007107D03*
X024356Y007115D03*
X024356Y007119D03*
X024360Y007127D03*
X024360Y007131D03*
X024360Y007135D03*
X024364Y007139D03*
X024692Y007155D03*
X024696Y007151D03*
X024696Y007147D03*
X024700Y007139D03*
X024704Y007131D03*
X024708Y007111D03*
X024716Y007091D03*
X024716Y007087D03*
X024716Y007079D03*
X024716Y007075D03*
X024716Y007067D03*
X024696Y006847D03*
D22*
X024694Y006843D03*
X024354Y006883D03*
X024346Y007083D03*
X024366Y007143D03*
X024686Y007163D03*
X022614Y007103D03*
X022614Y007043D03*
X022614Y006943D03*
X022614Y006863D03*
X022614Y006643D03*
X022614Y006603D03*
X022618Y006563D03*
X022286Y006743D03*
X022286Y006823D03*
X022286Y006903D03*
X022286Y007043D03*
X022286Y007123D03*
X022614Y007243D03*
X022502Y007823D03*
X016982Y007579D03*
D23*
X016646Y008163D03*
X016646Y008167D03*
X017434Y006727D03*
X017434Y006675D03*
X018050Y006811D03*
X018050Y006815D03*
X018326Y006727D03*
X018326Y006723D03*
X018326Y006715D03*
X018326Y006711D03*
X018326Y006707D03*
X018326Y006703D03*
X018326Y006695D03*
X018326Y006691D03*
X018326Y006687D03*
X018326Y006683D03*
X018326Y006675D03*
X022074Y007611D03*
X022074Y007831D03*
X022494Y007835D03*
X022494Y007607D03*
X022286Y007179D03*
X022286Y007119D03*
X022286Y006987D03*
X022286Y006975D03*
X022286Y006971D03*
X022286Y006959D03*
X022286Y006879D03*
X022286Y006767D03*
X022614Y006875D03*
X022614Y006879D03*
X022614Y006887D03*
X022614Y006891D03*
X022614Y006987D03*
X022614Y007079D03*
X022614Y007111D03*
X022874Y006691D03*
X022614Y006587D03*
X022614Y006575D03*
X023294Y006879D03*
X023694Y007111D03*
X023990Y007139D03*
X023990Y007151D03*
X023990Y007167D03*
X023990Y007179D03*
X023990Y007235D03*
X023986Y007259D03*
X023986Y007271D03*
X023986Y007355D03*
X023986Y007451D03*
X023986Y007455D03*
X023986Y007467D03*
X023986Y007479D03*
X023990Y007071D03*
X023990Y007027D03*
X023990Y007015D03*
X023990Y006995D03*
X023990Y006991D03*
X023990Y006987D03*
X023990Y006975D03*
X023990Y006971D03*
X023990Y006947D03*
X023990Y006935D03*
X023990Y006919D03*
X023990Y006899D03*
X023990Y006895D03*
X023990Y006891D03*
X023990Y006879D03*
X023990Y006871D03*
X023994Y006859D03*
X024686Y006831D03*
D24*
X024362Y006855D03*
X024362Y006859D03*
X024358Y006867D03*
X024358Y006875D03*
X024354Y006887D03*
X024354Y006891D03*
X024346Y006915D03*
X024346Y006927D03*
X024346Y006939D03*
X024366Y007147D03*
X024374Y007151D03*
X024374Y007155D03*
X023986Y007387D03*
X023986Y007495D03*
X023706Y007095D03*
X023706Y007091D03*
X023706Y006895D03*
X023706Y006891D03*
X023702Y006887D03*
X023286Y006891D03*
X023286Y007095D03*
X022982Y006979D03*
X022614Y006995D03*
X022614Y007007D03*
X022614Y007055D03*
X022614Y007075D03*
X022614Y007091D03*
X022614Y007107D03*
X022614Y007247D03*
X022286Y007235D03*
X022286Y007151D03*
X022286Y007139D03*
X022286Y007027D03*
X022286Y007015D03*
X022286Y006935D03*
X022286Y006931D03*
X022286Y006919D03*
X022286Y006907D03*
X022286Y006891D03*
X022286Y006887D03*
X022286Y006859D03*
X022286Y006839D03*
X022286Y006835D03*
X022286Y006811D03*
X022286Y006807D03*
X022286Y006795D03*
X022286Y006739D03*
X022286Y006727D03*
X022286Y006715D03*
X022286Y006711D03*
X022286Y006699D03*
X022614Y006695D03*
X022614Y006711D03*
X022614Y006727D03*
X022614Y006739D03*
X022614Y006631D03*
X022614Y006599D03*
X022614Y006851D03*
X022614Y006899D03*
X022614Y006911D03*
X022614Y006915D03*
X022506Y007631D03*
X022066Y007631D03*
X022066Y007815D03*
X022066Y007819D03*
X018054Y006823D03*
X018054Y006695D03*
X017674Y007483D03*
X017678Y007503D03*
X016982Y007583D03*
X016982Y007587D03*
X016958Y007647D03*
X016954Y007651D03*
D25*
X017114Y007731D03*
X016990Y007451D03*
X016990Y007447D03*
X017326Y007231D03*
X017326Y007227D03*
X017326Y007223D03*
X017326Y007215D03*
X017326Y007211D03*
X017526Y007215D03*
X017526Y007223D03*
X017526Y007227D03*
X017526Y007231D03*
X017658Y006815D03*
X017822Y006575D03*
X017822Y006571D03*
X017990Y006791D03*
X018618Y006831D03*
X016990Y008051D03*
X022870Y007291D03*
X023146Y007839D03*
X023158Y007835D03*
X022874Y006671D03*
D26*
X022202Y007291D03*
X022198Y007295D03*
X022198Y007299D03*
X022182Y007331D03*
X022182Y007335D03*
X022178Y007347D03*
X022218Y007627D03*
X023578Y007591D03*
X023618Y007531D03*
X023638Y007499D03*
X023638Y007491D03*
X023642Y007487D03*
X023658Y007439D03*
X023658Y007435D03*
X023662Y007419D03*
X023662Y007407D03*
X023658Y007311D03*
X021442Y006675D03*
X018542Y007407D03*
X018542Y007611D03*
X018542Y007703D03*
X016978Y007783D03*
X016978Y007787D03*
X017022Y007291D03*
X017022Y007287D03*
X017022Y007283D03*
X015858Y008303D03*
D27*
X016970Y007803D03*
X017066Y007455D03*
X017066Y007451D03*
X017030Y007247D03*
X017030Y007243D03*
X017990Y007735D03*
X021546Y006675D03*
X022310Y007279D03*
X024698Y006887D03*
X024790Y006887D03*
D28*
X024580Y007067D03*
X022800Y006927D03*
X022360Y006679D03*
X021720Y006675D03*
X021680Y007387D03*
X022800Y007895D03*
X022840Y007867D03*
D29*
X022872Y006675D03*
X018620Y006803D03*
X018044Y006551D03*
X017812Y006611D03*
X017812Y006615D03*
X017668Y006775D03*
X017360Y007431D03*
X016988Y007475D03*
X016988Y007483D03*
X016900Y007711D03*
X016896Y007715D03*
X016880Y007755D03*
X017104Y007751D03*
X016992Y008043D03*
D30*
X016924Y007903D03*
X016936Y007867D03*
X016940Y007863D03*
X016352Y007915D03*
X021584Y006679D03*
X023504Y007275D03*
X024532Y006719D03*
X022244Y007999D03*
D31*
X022226Y007639D03*
X022210Y007615D03*
X022210Y007611D03*
X022206Y007607D03*
X022166Y007391D03*
X022166Y007379D03*
X022170Y007375D03*
X022174Y007355D03*
X022174Y007351D03*
X022186Y007319D03*
X022190Y007315D03*
X022210Y006679D03*
X023654Y007295D03*
X023666Y007379D03*
X023654Y007447D03*
X023654Y007451D03*
X023650Y007467D03*
X023646Y007475D03*
X023634Y007507D03*
X023630Y007511D03*
X023630Y007515D03*
X023610Y007547D03*
X023606Y007551D03*
X023594Y007571D03*
X023586Y007579D03*
X023574Y007595D03*
X018130Y006783D03*
X017070Y007391D03*
X017070Y007395D03*
X017314Y007623D03*
D32*
X017124Y007623D03*
X017124Y007627D03*
X017124Y007631D03*
X017124Y007615D03*
X017076Y007355D03*
X017076Y007351D03*
X017016Y007315D03*
X016792Y007251D03*
X016792Y007247D03*
X016784Y007267D03*
X016776Y007291D03*
X016768Y007311D03*
X016752Y007351D03*
X016748Y007363D03*
X016744Y007371D03*
X016744Y007375D03*
X016736Y007391D03*
X016736Y007395D03*
X016732Y007403D03*
X016708Y007467D03*
X016692Y007511D03*
X016688Y007523D03*
X016684Y007531D03*
X016676Y007555D03*
X016672Y007563D03*
X016668Y007575D03*
X016664Y007583D03*
X016664Y007587D03*
X016656Y007607D03*
X016604Y007603D03*
X016596Y007583D03*
X016592Y007571D03*
X016584Y007551D03*
X016584Y007547D03*
X016576Y007527D03*
X016572Y007515D03*
X016568Y007507D03*
X016564Y007495D03*
X016556Y007475D03*
X016476Y007191D03*
X016468Y007167D03*
X016456Y007135D03*
X016452Y007127D03*
X016448Y007115D03*
X016444Y007107D03*
X016444Y007103D03*
X016436Y007083D03*
X016428Y007063D03*
X016424Y007051D03*
X016416Y007031D03*
X016408Y007011D03*
X016392Y006967D03*
X016388Y006955D03*
X016384Y006943D03*
X016376Y006923D03*
X016372Y006915D03*
X016368Y006903D03*
X016852Y007087D03*
X016844Y007111D03*
X016836Y007131D03*
X016832Y007143D03*
X016828Y007155D03*
X016824Y007163D03*
X016816Y007183D03*
X016812Y007195D03*
X016808Y007207D03*
X016804Y007215D03*
X016868Y007047D03*
X016872Y007035D03*
X016876Y007027D03*
X016884Y007007D03*
X016884Y007003D03*
X016888Y006995D03*
X016888Y006991D03*
X016892Y006983D03*
X016896Y006971D03*
X016904Y006951D03*
X016912Y006931D03*
X016928Y006887D03*
X016936Y006867D03*
X016944Y006847D03*
X016948Y006835D03*
X016952Y006823D03*
X016956Y006815D03*
X016964Y006795D03*
X016964Y006791D03*
X016968Y006783D03*
X016972Y006771D03*
X016988Y006731D03*
X016988Y006727D03*
X017192Y006743D03*
X017324Y007267D03*
X017324Y007271D03*
X017324Y007275D03*
X017324Y007283D03*
X017324Y007287D03*
X017324Y007291D03*
X017324Y007295D03*
X017324Y007303D03*
X017324Y007307D03*
X017324Y007311D03*
X017324Y007315D03*
X017324Y007323D03*
X017324Y007327D03*
X017324Y007331D03*
X017324Y007335D03*
X017324Y007343D03*
X017324Y007347D03*
X017324Y007351D03*
X017324Y007355D03*
X017324Y007363D03*
X017324Y007367D03*
X017324Y007371D03*
X017324Y007375D03*
X017324Y007383D03*
X017324Y007387D03*
X017324Y007391D03*
X017324Y007395D03*
X017324Y007403D03*
X017324Y007407D03*
X017324Y007411D03*
X017516Y007711D03*
X017748Y007695D03*
X017748Y007691D03*
X017756Y007943D03*
X018252Y007875D03*
X018252Y007871D03*
X018252Y007867D03*
X018252Y007863D03*
X018252Y007855D03*
X018252Y007851D03*
X018252Y007847D03*
X018252Y007843D03*
X018252Y007835D03*
X018252Y007831D03*
X018252Y007827D03*
X018252Y007823D03*
X018252Y007815D03*
X018252Y007811D03*
X018252Y007807D03*
X018252Y007803D03*
X018252Y007795D03*
X018252Y007791D03*
X018252Y007787D03*
X018252Y007783D03*
X018252Y007775D03*
X018252Y007771D03*
X018252Y007767D03*
X018252Y007763D03*
X018252Y007755D03*
X018252Y007751D03*
X018252Y007747D03*
X018252Y007743D03*
X018252Y007735D03*
X018252Y007731D03*
X018252Y007727D03*
X018252Y007723D03*
X018252Y007715D03*
X018252Y007711D03*
X018252Y007707D03*
X018252Y007655D03*
X018252Y007651D03*
X018252Y007647D03*
X018252Y007643D03*
X018252Y007635D03*
X018252Y007631D03*
X018252Y007627D03*
X018252Y007623D03*
X018252Y007615D03*
X018252Y007611D03*
X018252Y007607D03*
X018252Y007603D03*
X018252Y007595D03*
X018252Y007591D03*
X018252Y007587D03*
X018252Y007583D03*
X018252Y007575D03*
X018252Y007571D03*
X018252Y007567D03*
X018264Y007343D03*
X018264Y007335D03*
X018264Y007331D03*
X018264Y007327D03*
X018264Y007323D03*
X018264Y007315D03*
X018264Y007311D03*
X018264Y007307D03*
X018264Y007303D03*
X018264Y007295D03*
X018264Y007291D03*
X018264Y007287D03*
X018264Y007283D03*
X018264Y007275D03*
X018264Y007271D03*
X018264Y007267D03*
X018264Y007263D03*
X018264Y007255D03*
X018264Y007251D03*
X018264Y007247D03*
X018264Y007243D03*
X018264Y007235D03*
X018264Y007231D03*
X018264Y007227D03*
X018264Y007223D03*
X017992Y007415D03*
X018396Y007855D03*
X016308Y008071D03*
X016156Y008187D03*
X022276Y007691D03*
X022292Y007707D03*
X022868Y007295D03*
X023432Y007019D03*
X023528Y007095D03*
X023512Y007659D03*
X023496Y007675D03*
X023492Y007679D03*
X023472Y007691D03*
X023472Y007695D03*
X023448Y007711D03*
X022312Y006679D03*
D33*
X022872Y006679D03*
X018620Y006771D03*
X018088Y006671D03*
X018044Y006555D03*
X016988Y007515D03*
X016876Y007795D03*
X016992Y008035D03*
X016304Y008035D03*
X016172Y007227D03*
D34*
X016622Y007251D03*
X016622Y007195D03*
X016998Y007407D03*
X016998Y007411D03*
X017106Y007483D03*
X017106Y007487D03*
X017106Y007491D03*
X017106Y007495D03*
X017106Y007655D03*
X017122Y007711D03*
X017010Y007723D03*
X017006Y007727D03*
X016994Y007743D03*
X017314Y007695D03*
X017754Y007927D03*
X017990Y007715D03*
X018398Y007871D03*
X018398Y007927D03*
X018542Y007683D03*
X018542Y007631D03*
X017514Y007263D03*
X017526Y007195D03*
X017326Y007195D03*
X017326Y007251D03*
X017190Y006727D03*
X017190Y006671D03*
X017826Y006551D03*
X018118Y006607D03*
X018122Y006651D03*
X016630Y007627D03*
X015858Y008231D03*
X015858Y008283D03*
X015858Y008287D03*
X023246Y007811D03*
X023298Y007791D03*
X023494Y006679D03*
D35*
X021612Y006683D03*
D36*
X022874Y006683D03*
X023270Y006923D03*
X023262Y006963D03*
X023270Y007063D03*
X023718Y007063D03*
X023726Y007043D03*
X023730Y006963D03*
X023726Y006943D03*
X022522Y007683D03*
X022526Y007703D03*
X022526Y007723D03*
X022526Y007743D03*
X022050Y007783D03*
X022046Y007763D03*
X022042Y007723D03*
X022046Y007703D03*
X022046Y007683D03*
D37*
X023498Y006683D03*
X016986Y007519D03*
D38*
X017034Y007219D03*
X022218Y007403D03*
X022274Y007563D03*
X022290Y007563D03*
X023018Y007883D03*
X023918Y007503D03*
X024014Y007503D03*
X024530Y007183D03*
X024546Y007183D03*
X024566Y006943D03*
X024578Y006943D03*
X024594Y006943D03*
X024498Y006943D03*
X024470Y006943D03*
X024126Y006843D03*
X024082Y006683D03*
X023106Y006923D03*
X022826Y006923D03*
D39*
X022772Y006963D03*
X022692Y007283D03*
X022612Y007283D03*
X022596Y007283D03*
X022356Y007403D03*
X023116Y006923D03*
X024472Y006683D03*
X024484Y006683D03*
X024508Y006943D03*
X024536Y006943D03*
X024548Y006943D03*
X024676Y006943D03*
X024688Y006943D03*
X024772Y006943D03*
X024788Y006943D03*
D40*
X024538Y006683D03*
X018618Y006839D03*
X017982Y006599D03*
X017826Y006559D03*
X018542Y007679D03*
X016630Y007619D03*
D41*
X016188Y007583D03*
X021616Y007379D03*
X022248Y007979D03*
X021616Y006687D03*
D42*
X022044Y007695D03*
X022044Y007719D03*
X022516Y007659D03*
X022520Y007667D03*
X022524Y007675D03*
X022524Y007679D03*
X022520Y007775D03*
X022520Y007779D03*
X023276Y007075D03*
X023716Y007071D03*
X023720Y007067D03*
X023724Y007055D03*
X023724Y007047D03*
X023724Y006935D03*
X023724Y006931D03*
X023500Y006687D03*
X024700Y006851D03*
X017684Y007511D03*
X016984Y007563D03*
X016304Y008023D03*
D43*
X016308Y008075D03*
X016200Y008071D03*
X017072Y007387D03*
X017072Y007383D03*
X017072Y007375D03*
X017020Y007295D03*
X017516Y007623D03*
X017992Y007503D03*
X018396Y007943D03*
X017956Y006611D03*
X015860Y006915D03*
X022192Y007311D03*
X022204Y007287D03*
X022212Y007619D03*
X022220Y007631D03*
X022224Y007635D03*
X022236Y007647D03*
X022236Y007651D03*
X022244Y007659D03*
X023544Y007631D03*
X023548Y007627D03*
X023564Y007607D03*
X023572Y007599D03*
X023584Y007587D03*
X023596Y007567D03*
X023600Y007559D03*
X023604Y007555D03*
X023616Y007539D03*
X023616Y007535D03*
X023636Y007495D03*
X023556Y007127D03*
X023544Y007115D03*
X023544Y007111D03*
X023520Y007091D03*
X024072Y006687D03*
D44*
X024148Y006687D03*
X018732Y006555D03*
X018728Y006563D03*
X018728Y006567D03*
X018724Y006575D03*
X018720Y006587D03*
X018712Y006603D03*
X018524Y006603D03*
X018520Y006595D03*
X018516Y006583D03*
X018512Y006575D03*
X018512Y006571D03*
X018508Y006563D03*
X018268Y006607D03*
X018268Y006611D03*
X018268Y006615D03*
X018268Y006623D03*
X018268Y006627D03*
X018268Y006631D03*
X018268Y006635D03*
X018268Y006643D03*
X018268Y006647D03*
X018268Y006651D03*
X018268Y006655D03*
X018268Y006663D03*
X018268Y006667D03*
X018268Y006671D03*
X018268Y006731D03*
X018268Y006735D03*
X018268Y006743D03*
X018268Y006747D03*
X018268Y006751D03*
X018268Y006755D03*
X018268Y006763D03*
X018268Y006767D03*
X018268Y006771D03*
X018268Y006775D03*
X018268Y006783D03*
X018128Y006643D03*
X018124Y006647D03*
X018128Y006635D03*
X018124Y006615D03*
X018124Y006611D03*
X017972Y006743D03*
X017976Y006783D03*
X018048Y006843D03*
X017528Y007191D03*
X017508Y007267D03*
X017324Y007191D03*
X017356Y007455D03*
X017108Y007503D03*
X017108Y007507D03*
X017000Y007403D03*
X017000Y007395D03*
X017024Y007711D03*
X017020Y007715D03*
X016992Y007747D03*
X017124Y007707D03*
X016632Y007635D03*
X016632Y007631D03*
X015860Y008227D03*
X017756Y007931D03*
X017756Y007871D03*
X017992Y007487D03*
X017992Y007427D03*
X018540Y007423D03*
X018540Y007483D03*
X018544Y007627D03*
X018544Y007687D03*
X018396Y007867D03*
X017376Y006783D03*
X017376Y006775D03*
X017376Y006771D03*
X017376Y006767D03*
X017376Y006763D03*
X017376Y006755D03*
X017376Y006751D03*
X017376Y006747D03*
X017376Y006743D03*
X017376Y006735D03*
X017376Y006731D03*
X017376Y006671D03*
X017376Y006667D03*
X017376Y006663D03*
X017376Y006655D03*
X017376Y006651D03*
X017376Y006647D03*
X017376Y006643D03*
X017376Y006635D03*
X017376Y006631D03*
X017376Y006627D03*
X017376Y006623D03*
X017376Y006615D03*
X017376Y006611D03*
X017376Y006607D03*
D45*
X016986Y007543D03*
X016990Y008027D03*
X016306Y008027D03*
X016170Y007247D03*
X023258Y006995D03*
X023262Y007035D03*
X023730Y007007D03*
X023730Y006995D03*
X023730Y006967D03*
X024534Y006687D03*
D46*
X024532Y007235D03*
X023496Y006747D03*
X022980Y006931D03*
X021624Y006691D03*
X021624Y007375D03*
X016204Y007643D03*
X016200Y007635D03*
X016200Y007631D03*
X016200Y007627D03*
D47*
X016872Y007835D03*
X016936Y007671D03*
X016984Y007555D03*
X016984Y007551D03*
X016984Y007547D03*
X016168Y007251D03*
X018028Y006715D03*
X022044Y007699D03*
X022044Y007715D03*
X022044Y007727D03*
X022044Y007751D03*
X022044Y007755D03*
X022284Y007407D03*
X022528Y007711D03*
X022528Y007727D03*
X022528Y007739D03*
X022524Y007767D03*
X023264Y007047D03*
X023264Y007039D03*
X023256Y006991D03*
X023724Y007051D03*
X023728Y007039D03*
X023728Y007035D03*
X023728Y007031D03*
X023732Y007027D03*
X023728Y007019D03*
X023732Y007015D03*
X023732Y007011D03*
X023732Y006999D03*
X023732Y006991D03*
X023732Y006987D03*
X023732Y006979D03*
X023732Y006975D03*
X023732Y006971D03*
X024108Y006691D03*
X024532Y007299D03*
D48*
X024532Y006759D03*
X022248Y007967D03*
X021628Y007371D03*
X021632Y006695D03*
X016232Y007731D03*
X016232Y007735D03*
X016228Y007727D03*
X016228Y007723D03*
D49*
X016206Y007387D03*
X016166Y007287D03*
X016570Y007231D03*
X016982Y007603D03*
X016982Y007607D03*
X016646Y008151D03*
X017438Y006835D03*
X017438Y006831D03*
X017438Y006827D03*
X017438Y006823D03*
X017438Y006815D03*
X017438Y006811D03*
X017438Y006807D03*
X017438Y006803D03*
X017438Y006795D03*
X017438Y006791D03*
X017438Y006787D03*
X017442Y006551D03*
X018038Y006571D03*
X018046Y006803D03*
X018330Y006803D03*
X018330Y006807D03*
X018330Y006811D03*
X018330Y006815D03*
X018330Y006823D03*
X018330Y006827D03*
X018330Y006831D03*
X018330Y006835D03*
X018330Y006795D03*
X018330Y006791D03*
X018330Y006787D03*
X021522Y006847D03*
X021522Y007055D03*
X021522Y007115D03*
X021966Y007055D03*
X021966Y007051D03*
X022294Y007111D03*
X022622Y007119D03*
X022618Y006971D03*
X022966Y006855D03*
X022966Y006851D03*
X022970Y006859D03*
X022874Y006695D03*
X022966Y007111D03*
X022966Y007115D03*
X023278Y006975D03*
X023498Y007295D03*
D50*
X023232Y006951D03*
X022948Y006819D03*
X022872Y006699D03*
X022952Y007139D03*
X022632Y007139D03*
X021944Y007159D03*
X021928Y006867D03*
X021532Y006819D03*
X022100Y007587D03*
X022464Y007575D03*
X022468Y007579D03*
X023496Y006695D03*
X016644Y007411D03*
X016632Y007443D03*
X016216Y007443D03*
X016184Y007355D03*
D51*
X016198Y007375D03*
X016166Y007295D03*
X016562Y007203D03*
X016566Y007211D03*
X016566Y007215D03*
X016978Y007623D03*
X017442Y006603D03*
X017442Y006595D03*
X017442Y006591D03*
X017442Y006587D03*
X017442Y006583D03*
X017442Y006575D03*
X017442Y006571D03*
X017442Y006567D03*
X017442Y006563D03*
X017442Y006555D03*
X021946Y006899D03*
X021946Y006907D03*
X021950Y006911D03*
X021950Y006915D03*
X021950Y006919D03*
X021954Y006927D03*
X021954Y006931D03*
X021958Y006939D03*
X021962Y006971D03*
X021962Y006975D03*
X021966Y006991D03*
X021966Y006995D03*
X021966Y007031D03*
X021966Y007059D03*
X021962Y007079D03*
X021962Y007087D03*
X021962Y007091D03*
X021962Y007095D03*
X021962Y007099D03*
X021962Y007107D03*
X021958Y007111D03*
X021954Y007127D03*
X022294Y007107D03*
X022622Y007127D03*
X022870Y007267D03*
X022958Y007131D03*
X022958Y007127D03*
X023314Y007127D03*
X023282Y006979D03*
X023678Y006859D03*
X024086Y006711D03*
X024534Y006695D03*
X022626Y006831D03*
X022478Y007591D03*
X022482Y007595D03*
X022094Y007855D03*
X022246Y008023D03*
D52*
X022284Y007475D03*
X021640Y006699D03*
X023496Y006759D03*
X024532Y006771D03*
X024532Y007215D03*
D53*
X024068Y006739D03*
X023496Y006699D03*
X022932Y006807D03*
X022872Y006711D03*
X022872Y006707D03*
X022588Y007035D03*
X021912Y007211D03*
X022448Y007567D03*
X022448Y007875D03*
X023492Y007287D03*
X016648Y008083D03*
D54*
X016646Y008103D03*
X016166Y007323D03*
X021914Y006851D03*
X021930Y007187D03*
X021926Y007191D03*
X021926Y007195D03*
X022110Y007575D03*
X022490Y007787D03*
X022246Y008019D03*
X022870Y007259D03*
X024070Y006731D03*
X024530Y006699D03*
D55*
X023494Y006763D03*
X023494Y007223D03*
X022246Y007955D03*
X021646Y006703D03*
D56*
X021932Y007183D03*
X022872Y007263D03*
X022872Y006703D03*
X016636Y007419D03*
D57*
X016226Y007519D03*
X022134Y007563D03*
X023494Y006703D03*
X024058Y006763D03*
D58*
X024530Y006703D03*
D59*
X023498Y006767D03*
X023498Y007219D03*
X021646Y006707D03*
X016646Y008035D03*
D60*
X018078Y007455D03*
X018082Y007447D03*
X023498Y006707D03*
D61*
X023688Y006867D03*
X023304Y006867D03*
X022964Y006847D03*
X022624Y006839D03*
X022624Y006835D03*
X022604Y007015D03*
X022872Y007271D03*
X022964Y007119D03*
X021968Y007047D03*
X021968Y007039D03*
X021968Y007035D03*
X021968Y007027D03*
X021968Y007019D03*
X021964Y007015D03*
X021968Y007011D03*
X021968Y007007D03*
X021964Y006999D03*
X021964Y006987D03*
X021964Y006979D03*
X021964Y006967D03*
X021956Y006947D03*
X021964Y007067D03*
X021964Y007071D03*
X021964Y007075D03*
X021524Y007239D03*
X022088Y007847D03*
X022092Y007851D03*
X024088Y006707D03*
X024392Y007175D03*
X024672Y007179D03*
X018332Y006603D03*
X018332Y006595D03*
X018332Y006591D03*
X018332Y006587D03*
X018332Y006583D03*
X018332Y006575D03*
X018332Y006571D03*
X018332Y006567D03*
X018332Y006563D03*
X018332Y006555D03*
X018332Y006551D03*
X018044Y006795D03*
X016976Y007627D03*
X016972Y007631D03*
X016568Y007227D03*
X016568Y007223D03*
X016204Y007383D03*
X016216Y007415D03*
X016216Y007423D03*
X016168Y007291D03*
X016648Y008143D03*
X016648Y008147D03*
D62*
X016648Y008063D03*
X018084Y007443D03*
X021880Y006827D03*
X022284Y007427D03*
X022868Y007239D03*
X024052Y006791D03*
X024052Y006779D03*
X024536Y006707D03*
D63*
X024532Y006791D03*
X024532Y007191D03*
X024532Y007195D03*
X022284Y007491D03*
X021656Y006711D03*
D64*
X022282Y007431D03*
X022866Y007231D03*
X023494Y006711D03*
X024534Y006715D03*
X022242Y008003D03*
X018438Y007471D03*
X017414Y007675D03*
X016350Y007895D03*
X016334Y007847D03*
X016330Y007843D03*
X016326Y007835D03*
D65*
X016342Y007863D03*
X016346Y007871D03*
X016350Y007887D03*
X016222Y007551D03*
X017414Y007647D03*
X018446Y007455D03*
X022246Y008007D03*
X022866Y007235D03*
X022870Y006731D03*
X022870Y006727D03*
X024042Y006827D03*
X024046Y006831D03*
X024042Y006839D03*
X024046Y006819D03*
X024046Y006807D03*
X024534Y006711D03*
X024534Y007275D03*
D66*
X024532Y007187D03*
X024532Y006799D03*
X023496Y006779D03*
X023496Y006775D03*
X022284Y007495D03*
X022244Y007939D03*
X021660Y006715D03*
X016648Y008031D03*
D67*
X021890Y006831D03*
X022870Y006715D03*
D68*
X023494Y006715D03*
X024534Y007267D03*
X016934Y007871D03*
X016930Y007875D03*
D69*
X016646Y008123D03*
X016646Y008127D03*
X016630Y007451D03*
X016630Y007447D03*
X016218Y007435D03*
X016190Y007363D03*
X016166Y007307D03*
X016166Y007303D03*
X018046Y006595D03*
X018046Y006591D03*
X021934Y006875D03*
X021934Y006879D03*
X021942Y006895D03*
X022298Y007099D03*
X022598Y007019D03*
X022630Y006827D03*
X022946Y006815D03*
X022974Y006919D03*
X023318Y006855D03*
X023318Y007131D03*
X024082Y006715D03*
X024394Y006819D03*
X024534Y007291D03*
X022686Y007867D03*
X022494Y007791D03*
X022098Y007859D03*
X021946Y007155D03*
X021950Y007147D03*
X021950Y007139D03*
D70*
X021662Y007351D03*
X021662Y006719D03*
X023498Y007207D03*
D71*
X024052Y006771D03*
X022872Y006719D03*
X021892Y007227D03*
X018452Y007435D03*
X018080Y007451D03*
X017104Y006715D03*
X017104Y006711D03*
X016228Y007531D03*
X016228Y007535D03*
D72*
X016292Y007775D03*
X015976Y008275D03*
X016924Y007911D03*
X016924Y007907D03*
X016944Y007855D03*
X016948Y007851D03*
X022284Y007439D03*
X023496Y007267D03*
X023496Y006719D03*
D73*
X023326Y006847D03*
X023322Y007135D03*
X022634Y006819D03*
X021918Y006855D03*
X021942Y007167D03*
X021938Y007171D03*
X021934Y007179D03*
X022102Y007579D03*
X022098Y007591D03*
X022106Y007867D03*
X022462Y007867D03*
X024078Y006719D03*
X018618Y006655D03*
X016638Y007415D03*
X016634Y007423D03*
X016218Y007447D03*
X016218Y007451D03*
X016218Y007455D03*
X016182Y007351D03*
X016178Y007347D03*
X016166Y007315D03*
X016166Y007311D03*
X016646Y008111D03*
X016646Y008115D03*
D74*
X021666Y006723D03*
X022286Y007943D03*
X023494Y006783D03*
D75*
X022868Y006723D03*
X022868Y007243D03*
D76*
X023494Y006723D03*
D77*
X024078Y006723D03*
D78*
X024536Y006723D03*
X024532Y007263D03*
D79*
X023494Y007195D03*
X023498Y006787D03*
X022286Y007507D03*
X022286Y007939D03*
X021670Y006727D03*
X018594Y007907D03*
X017350Y007911D03*
X016646Y008027D03*
D80*
X016200Y007571D03*
X018668Y007643D03*
X018668Y007647D03*
X018668Y007651D03*
X018668Y007655D03*
X018668Y007663D03*
X018668Y007667D03*
X018668Y007671D03*
X023496Y006727D03*
X024532Y007255D03*
D81*
X024400Y006815D03*
X024076Y006727D03*
X023668Y006851D03*
X023496Y007291D03*
X022944Y007147D03*
X022636Y007147D03*
X022592Y007027D03*
X022636Y006815D03*
X022940Y006811D03*
X022304Y007091D03*
X022304Y007095D03*
X021936Y007175D03*
X021920Y006859D03*
X022100Y007595D03*
X016632Y007431D03*
X016632Y007427D03*
X016176Y007343D03*
X016648Y008107D03*
D82*
X015982Y008243D03*
X015982Y008247D03*
X022982Y006927D03*
X024534Y006727D03*
X024534Y007259D03*
D83*
X022286Y007931D03*
X022286Y007935D03*
X021674Y006731D03*
D84*
X023492Y006731D03*
X023496Y007255D03*
X022244Y007983D03*
X016196Y007575D03*
D85*
X022286Y007447D03*
X024534Y006731D03*
D86*
X023494Y007187D03*
X022774Y007215D03*
X022286Y007515D03*
X021674Y007331D03*
X021678Y006739D03*
X021678Y006735D03*
X022774Y006747D03*
X016646Y008023D03*
D87*
X016922Y007891D03*
X016922Y007887D03*
X016926Y007883D03*
X016318Y007815D03*
X016314Y007811D03*
X016314Y007807D03*
X016218Y007555D03*
X022674Y006951D03*
X022866Y006735D03*
X022866Y007227D03*
D88*
X023496Y006735D03*
X016264Y007771D03*
D89*
X016646Y008087D03*
X016166Y007331D03*
X018618Y006635D03*
X021910Y006847D03*
X021918Y007207D03*
X022118Y007571D03*
X022114Y007871D03*
X022642Y007151D03*
X022870Y007255D03*
X024070Y006735D03*
X024534Y007287D03*
D90*
X024534Y006735D03*
X022286Y007451D03*
X016646Y008051D03*
D91*
X016352Y007911D03*
X016308Y007795D03*
X016304Y007791D03*
X016304Y007787D03*
X016300Y007783D03*
X022868Y006739D03*
X023508Y007279D03*
D92*
X023496Y007247D03*
X023496Y006739D03*
X024536Y007239D03*
X016648Y008047D03*
X016196Y007611D03*
X016196Y007607D03*
X016192Y007595D03*
D93*
X021830Y006819D03*
X024534Y006739D03*
X024534Y007247D03*
D94*
X022778Y006763D03*
X021682Y006743D03*
D95*
X022774Y006743D03*
D96*
X023494Y006743D03*
X023494Y007243D03*
X022286Y007463D03*
D97*
X024066Y006743D03*
X024530Y007283D03*
D98*
X024534Y007243D03*
X024534Y006743D03*
X016190Y007579D03*
D99*
X017354Y007891D03*
X021686Y006747D03*
X022778Y006767D03*
X022782Y006775D03*
X022782Y007187D03*
X022778Y007195D03*
X022286Y007919D03*
D100*
X021902Y007219D03*
X022578Y007039D03*
X022870Y007251D03*
X023346Y007147D03*
X024058Y006759D03*
X024058Y006755D03*
X024062Y006747D03*
X018618Y006615D03*
X018618Y006611D03*
X018074Y007467D03*
X017110Y006687D03*
X016226Y007511D03*
X016646Y008067D03*
D101*
X016190Y007591D03*
X016190Y007587D03*
X024530Y006747D03*
D102*
X023494Y006815D03*
X023494Y006819D03*
X022786Y006799D03*
X022786Y006791D03*
X022782Y006779D03*
X022782Y007175D03*
X022782Y007179D03*
X022286Y007531D03*
X021686Y007315D03*
X021690Y006755D03*
X021690Y006751D03*
X017354Y007883D03*
D103*
X022288Y007927D03*
X022776Y006751D03*
X023496Y006799D03*
D104*
X023494Y006751D03*
X023494Y007235D03*
X022286Y007471D03*
X022246Y007963D03*
X016242Y007763D03*
X016238Y007755D03*
X016234Y007743D03*
D105*
X016224Y007507D03*
X016224Y007503D03*
X022124Y007567D03*
X023220Y006947D03*
X024060Y006751D03*
D106*
X024534Y006751D03*
X024534Y007231D03*
X023498Y007239D03*
X022286Y007467D03*
X022246Y007971D03*
X016210Y007667D03*
X016206Y007655D03*
X016206Y007651D03*
X016206Y007647D03*
D107*
X022778Y006759D03*
X022778Y006755D03*
D108*
X023496Y006755D03*
X023492Y007231D03*
X024532Y007219D03*
X021636Y007367D03*
D109*
X024534Y007227D03*
X024534Y006755D03*
X016646Y008043D03*
X016222Y007707D03*
X016222Y007703D03*
X016218Y007695D03*
X016218Y007691D03*
X016214Y007683D03*
D110*
X021690Y007311D03*
X021694Y006759D03*
X022286Y007539D03*
D111*
X021694Y006763D03*
X023494Y007163D03*
D112*
X024534Y006763D03*
D113*
X023494Y007155D03*
X023494Y007159D03*
X021698Y006767D03*
D114*
X022654Y006959D03*
X024058Y006767D03*
X018618Y006607D03*
X018074Y007463D03*
X017106Y006707D03*
X017106Y006703D03*
X016226Y007523D03*
X016226Y007527D03*
D115*
X024534Y006767D03*
D116*
X023496Y006831D03*
X023496Y006835D03*
X022284Y007899D03*
X021700Y006771D03*
D117*
X021680Y007327D03*
X022776Y007199D03*
X022780Y006771D03*
X023496Y006807D03*
X023496Y007179D03*
D118*
X023498Y007215D03*
X023494Y006771D03*
X024534Y006787D03*
X022246Y007947D03*
D119*
X021698Y007299D03*
X021698Y007295D03*
X021702Y006775D03*
D120*
X022514Y007851D03*
X024050Y006787D03*
X024054Y006775D03*
X024530Y007279D03*
X016230Y007543D03*
D121*
X024534Y007211D03*
X024534Y007207D03*
X024534Y006775D03*
D122*
X024532Y007047D03*
X024532Y007051D03*
X024528Y007055D03*
X024532Y007059D03*
X023496Y007151D03*
X022284Y007551D03*
X021700Y007291D03*
X021704Y006779D03*
X017988Y007911D03*
X016092Y006855D03*
D123*
X022244Y007951D03*
X024532Y006779D03*
D124*
X024530Y007023D03*
X021706Y006783D03*
X021706Y007283D03*
X016094Y006859D03*
D125*
X016166Y007279D03*
X016214Y007399D03*
X018326Y006719D03*
X018326Y006699D03*
X018326Y006679D03*
X022286Y006783D03*
X022286Y006863D03*
X022286Y007083D03*
X022614Y007083D03*
X023986Y007163D03*
X023990Y007083D03*
X023990Y007043D03*
X023994Y006863D03*
X024346Y006943D03*
X024370Y006843D03*
X023990Y007263D03*
X023986Y007463D03*
X023986Y007483D03*
D126*
X022782Y006783D03*
D127*
X024050Y006783D03*
X022434Y007563D03*
X018450Y007439D03*
D128*
X022286Y007483D03*
X024534Y007203D03*
X024530Y006783D03*
D129*
X024534Y006947D03*
X024530Y006971D03*
X024530Y007011D03*
X024530Y007027D03*
X024530Y007031D03*
X024530Y007035D03*
X024530Y007039D03*
X022286Y007555D03*
X022286Y007891D03*
X021702Y007287D03*
X021706Y006787D03*
D130*
X021688Y007319D03*
X022284Y007527D03*
X022284Y007915D03*
X023496Y007175D03*
X023496Y006811D03*
X022784Y006787D03*
X017352Y007887D03*
D131*
X017988Y007903D03*
X017988Y007907D03*
X017992Y007887D03*
X017992Y007883D03*
X021708Y007279D03*
X021708Y006791D03*
X022284Y007559D03*
X022288Y007887D03*
X024528Y007015D03*
X024532Y007019D03*
X024532Y007007D03*
X024528Y006999D03*
X024532Y006995D03*
X024532Y006991D03*
X024528Y006987D03*
X024532Y006975D03*
X024532Y006967D03*
X024528Y006959D03*
X024532Y006951D03*
D132*
X023496Y006795D03*
X023496Y006791D03*
X022284Y007511D03*
X018596Y007883D03*
X018596Y007887D03*
X018596Y007891D03*
X018596Y007895D03*
X018596Y007903D03*
D133*
X021708Y007275D03*
X021712Y007267D03*
X021712Y006799D03*
X021712Y006795D03*
D134*
X022284Y007535D03*
X022784Y007171D03*
X022784Y007167D03*
X022784Y006795D03*
X023496Y007167D03*
X023496Y007171D03*
X022284Y007907D03*
X022284Y007911D03*
D135*
X021886Y007231D03*
X022662Y006955D03*
X024046Y006799D03*
X024050Y006795D03*
X018450Y007443D03*
X018450Y007447D03*
X016226Y007547D03*
D136*
X021654Y007355D03*
X022246Y007943D03*
X024534Y006795D03*
D137*
X021712Y006803D03*
D138*
X022788Y006803D03*
D139*
X023496Y006803D03*
X017352Y007899D03*
D140*
X016352Y007879D03*
X024048Y006803D03*
D141*
X024532Y006803D03*
X023496Y007203D03*
D142*
X023060Y006935D03*
X021716Y006811D03*
X021716Y006807D03*
D143*
X021892Y006835D03*
X022276Y007419D03*
X022648Y007155D03*
X022868Y007247D03*
X022648Y006807D03*
X022440Y007879D03*
X022248Y008011D03*
X022848Y007887D03*
X018456Y007431D03*
X017108Y006695D03*
X017108Y006691D03*
X016224Y007515D03*
D144*
X017350Y007915D03*
X018590Y007915D03*
X021662Y007347D03*
X024530Y006811D03*
X024530Y006807D03*
D145*
X022642Y006811D03*
X022270Y007415D03*
X018618Y006627D03*
X018618Y006623D03*
X018070Y007475D03*
X016646Y008075D03*
X016222Y007495D03*
X016222Y007491D03*
D146*
X016344Y007867D03*
X016348Y007875D03*
X016352Y007883D03*
X018448Y007451D03*
X024044Y006815D03*
X024044Y006811D03*
D147*
X021716Y006815D03*
X021720Y007251D03*
D148*
X021922Y007199D03*
X022102Y007599D03*
X023662Y007139D03*
X023662Y006847D03*
X024662Y006815D03*
X018618Y006651D03*
X018618Y006647D03*
X016218Y007463D03*
D149*
X016192Y007367D03*
X016648Y008131D03*
X016648Y008135D03*
X021948Y007151D03*
X021952Y007135D03*
X021952Y007131D03*
X022628Y007131D03*
X022628Y007135D03*
X022628Y006967D03*
X022952Y006827D03*
X023312Y006859D03*
X024672Y006819D03*
D150*
X022968Y006863D03*
X022976Y007063D03*
X022972Y007083D03*
X022488Y007603D03*
X022504Y007803D03*
X022080Y007603D03*
X021524Y007223D03*
X021520Y007203D03*
X021520Y007163D03*
X021524Y007143D03*
X021520Y007123D03*
X021520Y007103D03*
X021520Y007023D03*
X021524Y007003D03*
X021524Y006963D03*
X021520Y006943D03*
X021524Y006923D03*
X021524Y006903D03*
X021524Y006863D03*
X021524Y006843D03*
X021524Y006823D03*
X017436Y006719D03*
X017436Y006699D03*
X017436Y006679D03*
X016980Y007599D03*
X016964Y007639D03*
X016648Y008159D03*
D151*
X016350Y007899D03*
X016330Y007839D03*
X017414Y007679D03*
X017414Y007659D03*
X021866Y006823D03*
D152*
X021924Y006863D03*
X021936Y006883D03*
X022600Y007023D03*
X022632Y006823D03*
X021944Y007163D03*
X022100Y007583D03*
X022104Y007863D03*
X024008Y006843D03*
X024408Y007183D03*
X016648Y008119D03*
D153*
X016168Y007299D03*
X021952Y006923D03*
X022952Y006823D03*
D154*
X023496Y006823D03*
D155*
X024046Y006823D03*
D156*
X024386Y006823D03*
X023682Y007123D03*
X022962Y006843D03*
X021962Y006963D03*
X021958Y006943D03*
X021946Y006903D03*
X021966Y007003D03*
X021966Y007043D03*
X021966Y007063D03*
X021962Y007083D03*
X021962Y007103D03*
X021650Y007383D03*
X022494Y007843D03*
X018042Y006579D03*
X017442Y006579D03*
X017442Y006599D03*
X017442Y006559D03*
X016562Y007199D03*
X016646Y008139D03*
D157*
X017438Y006839D03*
X017438Y006819D03*
X017438Y006799D03*
X018046Y006799D03*
X018330Y006799D03*
X018330Y006819D03*
X018330Y006839D03*
X021522Y007083D03*
X022082Y007843D03*
X022962Y007123D03*
X022966Y007103D03*
X022974Y006883D03*
X023686Y006863D03*
X024678Y006823D03*
D158*
X024684Y006827D03*
X024380Y006827D03*
X023996Y006851D03*
X023996Y006855D03*
X023988Y007067D03*
X023988Y007275D03*
X023692Y007115D03*
X023688Y007119D03*
X023304Y007119D03*
X023300Y007115D03*
X023296Y007111D03*
X023248Y006955D03*
X023296Y006875D03*
X023300Y006871D03*
X022976Y006887D03*
X022976Y006891D03*
X022976Y006895D03*
X022972Y006879D03*
X022972Y006875D03*
X022972Y006871D03*
X022968Y006867D03*
X022980Y007007D03*
X022980Y007019D03*
X022976Y007067D03*
X022976Y007071D03*
X022972Y007075D03*
X022976Y007079D03*
X022972Y007087D03*
X022972Y007091D03*
X022972Y007095D03*
X022968Y007099D03*
X022968Y007107D03*
X022616Y007115D03*
X022288Y007115D03*
X022284Y007411D03*
X022488Y007599D03*
X022488Y007839D03*
X022080Y007839D03*
X021520Y007235D03*
X021520Y007231D03*
X021520Y007227D03*
X021520Y007219D03*
X021520Y007215D03*
X021520Y007211D03*
X021520Y007207D03*
X021520Y007199D03*
X021524Y007195D03*
X021520Y007191D03*
X021520Y007179D03*
X021520Y007151D03*
X021524Y007147D03*
X021524Y007139D03*
X021520Y007135D03*
X021520Y007131D03*
X021524Y007127D03*
X021520Y007119D03*
X021524Y007111D03*
X021520Y007107D03*
X021524Y007099D03*
X021520Y007095D03*
X021524Y007087D03*
X021524Y007071D03*
X021520Y007067D03*
X021524Y007059D03*
X021520Y007039D03*
X021520Y007035D03*
X021524Y007031D03*
X021520Y007027D03*
X021524Y007019D03*
X021524Y007015D03*
X021520Y007011D03*
X021520Y007007D03*
X021520Y006999D03*
X021520Y006995D03*
X021524Y006991D03*
X021524Y006987D03*
X021524Y006975D03*
X021520Y006971D03*
X021524Y006959D03*
X021520Y006939D03*
X021524Y006935D03*
X021524Y006931D03*
X021520Y006927D03*
X021524Y006919D03*
X021520Y006915D03*
X021520Y006911D03*
X021524Y006907D03*
X021520Y006899D03*
X021524Y006895D03*
X021524Y006891D03*
X021524Y006879D03*
X021524Y006875D03*
X021524Y006867D03*
X021524Y006839D03*
X021524Y006835D03*
X021520Y006831D03*
X021524Y006827D03*
X023692Y006871D03*
X023696Y006875D03*
X024388Y007171D03*
X024676Y007175D03*
X024680Y007171D03*
X018048Y006807D03*
X018036Y006567D03*
X017436Y006683D03*
X017436Y006687D03*
X017436Y006691D03*
X017436Y006695D03*
X017436Y006703D03*
X017436Y006707D03*
X017436Y006711D03*
X017436Y006715D03*
X017436Y006723D03*
X016572Y007235D03*
X016216Y007403D03*
X016216Y007407D03*
X016216Y007411D03*
X016212Y007395D03*
X016208Y007391D03*
X016168Y007283D03*
X016968Y007635D03*
X016648Y008155D03*
D159*
X021692Y007307D03*
X023496Y006827D03*
D160*
X023320Y006851D03*
X023676Y006855D03*
X022956Y006831D03*
X022956Y007135D03*
X022476Y007587D03*
X022496Y007795D03*
X021956Y007119D03*
X021960Y007115D03*
X021956Y006935D03*
X021940Y006891D03*
X021940Y006887D03*
X024400Y007179D03*
X018044Y006587D03*
X018044Y006583D03*
X016564Y007207D03*
X016196Y007371D03*
X016216Y007427D03*
X016216Y007431D03*
D161*
X016982Y007591D03*
X016982Y007595D03*
X021522Y007187D03*
X021522Y007175D03*
X021522Y007171D03*
X021522Y007167D03*
X021522Y007159D03*
X021522Y007155D03*
X021522Y007091D03*
X021522Y007079D03*
X021522Y007075D03*
X021522Y007051D03*
X021522Y007047D03*
X021522Y006979D03*
X021522Y006967D03*
X021522Y006955D03*
X021522Y006951D03*
X021522Y006947D03*
X021522Y006887D03*
X021522Y006871D03*
X021522Y006859D03*
X021522Y006855D03*
X021522Y006851D03*
X022282Y007275D03*
X022978Y007059D03*
X022978Y007055D03*
X022978Y007051D03*
X022978Y007047D03*
X022978Y007039D03*
X022982Y007035D03*
X022978Y007031D03*
X022982Y007015D03*
X022982Y007011D03*
X022982Y006999D03*
X022982Y006995D03*
X022982Y006991D03*
X022982Y006987D03*
X022982Y006975D03*
X022982Y006971D03*
X022982Y006967D03*
X022982Y006959D03*
X022982Y006955D03*
X022982Y006947D03*
X022978Y006915D03*
X022982Y006911D03*
X022978Y006907D03*
X022978Y006899D03*
X022618Y006847D03*
X023698Y006879D03*
X023698Y007107D03*
X024378Y006831D03*
X022498Y007831D03*
X022078Y007835D03*
X022078Y007607D03*
D162*
X022500Y007799D03*
X023680Y007127D03*
X024000Y006847D03*
X022960Y006839D03*
X022960Y006835D03*
X021960Y006951D03*
X021960Y006955D03*
X021960Y006959D03*
X018040Y006575D03*
X016980Y007611D03*
X016980Y007615D03*
D163*
X017416Y007651D03*
X017416Y007655D03*
X017416Y007683D03*
X017416Y007687D03*
X018440Y007467D03*
X018444Y007463D03*
X016336Y007851D03*
X016336Y007855D03*
X021876Y007235D03*
X024044Y006835D03*
D164*
X023660Y007131D03*
X023340Y006839D03*
X021900Y006839D03*
X018620Y006631D03*
X016220Y007483D03*
X016220Y007487D03*
D165*
X016648Y008071D03*
X018072Y007471D03*
X017112Y006683D03*
X021908Y007215D03*
X022128Y007879D03*
X022928Y007155D03*
X023648Y007147D03*
X023648Y006839D03*
D166*
X023990Y007011D03*
X023990Y007039D03*
X023990Y007059D03*
X023990Y007247D03*
X023990Y007251D03*
X024350Y007091D03*
X024350Y007087D03*
X024350Y006907D03*
X024350Y006899D03*
X024350Y006895D03*
X024690Y006839D03*
X024690Y007159D03*
X022070Y007619D03*
D167*
X021908Y006843D03*
X017112Y006679D03*
X016648Y008079D03*
D168*
X021522Y007183D03*
X021522Y007063D03*
X021522Y007043D03*
X021522Y006983D03*
X021522Y006883D03*
X022618Y006843D03*
X022978Y006903D03*
X022982Y006963D03*
X022982Y006983D03*
X022982Y007003D03*
X022982Y007023D03*
X022978Y007043D03*
X024382Y007163D03*
D169*
X023660Y006843D03*
X023332Y006843D03*
X018068Y007479D03*
X016172Y007339D03*
D170*
X016458Y007139D03*
X016450Y007119D03*
X016442Y007099D03*
X016434Y007079D03*
X016426Y007059D03*
X016398Y006979D03*
X016390Y006959D03*
X016382Y006939D03*
X016374Y006919D03*
X016366Y006899D03*
X016870Y007039D03*
X016878Y007019D03*
X016886Y006999D03*
X016894Y006979D03*
X016902Y006959D03*
X016910Y006939D03*
X016930Y006879D03*
X016938Y006859D03*
X016946Y006839D03*
X016954Y006819D03*
X016962Y006799D03*
X016970Y006779D03*
X016994Y006719D03*
X016834Y007139D03*
X016826Y007159D03*
X016818Y007179D03*
X016810Y007199D03*
X016802Y007219D03*
X016750Y007359D03*
X016742Y007379D03*
X016734Y007399D03*
X016710Y007459D03*
X016682Y007539D03*
X016674Y007559D03*
X016666Y007579D03*
X016658Y007599D03*
X016574Y007519D03*
X016566Y007499D03*
X016558Y007479D03*
X016550Y007459D03*
X017078Y007339D03*
X017122Y007599D03*
X017438Y007359D03*
X017746Y007699D03*
X018254Y007559D03*
X018542Y007699D03*
X018818Y007319D03*
X016194Y008099D03*
X016186Y008119D03*
X016178Y008139D03*
X016170Y008159D03*
X016158Y008179D03*
X016150Y008199D03*
X016142Y008219D03*
X015858Y008299D03*
X023430Y007723D03*
X023438Y007023D03*
X024162Y006843D03*
D171*
X024354Y007111D03*
X024702Y007135D03*
X024706Y007127D03*
X024706Y007119D03*
X024710Y007115D03*
X024710Y007107D03*
X024710Y007099D03*
X024714Y007095D03*
X024718Y007071D03*
X024702Y006859D03*
X024702Y006855D03*
X023718Y006915D03*
X023718Y006919D03*
X023714Y006911D03*
X023714Y006907D03*
X023710Y006899D03*
X023714Y007075D03*
X023714Y007079D03*
X023498Y007299D03*
X023282Y007087D03*
X023278Y007079D03*
X023274Y007071D03*
X023274Y007067D03*
X023266Y006967D03*
X023274Y006915D03*
X023274Y006911D03*
X023278Y006907D03*
X022510Y007639D03*
X022514Y007647D03*
X022514Y007651D03*
X022514Y007655D03*
X022522Y007771D03*
X022246Y008027D03*
X022058Y007795D03*
X022054Y007791D03*
X022054Y007787D03*
X022050Y007667D03*
X022054Y007659D03*
X022054Y007655D03*
X022054Y007651D03*
X022058Y007647D03*
X018058Y006827D03*
X018034Y006711D03*
X018062Y006687D03*
X016982Y007567D03*
X016982Y007571D03*
X016950Y007655D03*
X016646Y008171D03*
X016170Y007263D03*
D172*
X016216Y007419D03*
X016568Y007219D03*
X018332Y006599D03*
X018332Y006579D03*
X018332Y006559D03*
X021964Y006983D03*
X021968Y007023D03*
X023308Y007123D03*
X023308Y006863D03*
D173*
X023280Y006903D03*
X023280Y007083D03*
X023712Y007083D03*
X023712Y006903D03*
X024348Y006903D03*
X024360Y006863D03*
X024352Y007103D03*
X024356Y007123D03*
X024712Y007103D03*
X024716Y007083D03*
X022060Y007803D03*
X018048Y006699D03*
X017672Y007479D03*
D174*
X016984Y007559D03*
X022520Y007663D03*
X022524Y007763D03*
X023720Y006923D03*
X024704Y006863D03*
D175*
X024708Y006867D03*
X024708Y006871D03*
X024708Y006875D03*
X024712Y006879D03*
X023272Y006919D03*
X023268Y007055D03*
X023268Y007059D03*
X022872Y007279D03*
X022528Y007731D03*
X022048Y007675D03*
X018068Y006683D03*
X017672Y007475D03*
D176*
X016630Y007435D03*
X021930Y006871D03*
X023290Y006987D03*
X022990Y007867D03*
D177*
X022052Y007663D03*
X024712Y006883D03*
X016948Y007659D03*
X016168Y007259D03*
D178*
X023990Y006903D03*
D179*
X023496Y007283D03*
X022968Y006923D03*
X021900Y007223D03*
X017108Y006699D03*
D180*
X017670Y007471D03*
X016942Y007663D03*
X016990Y008023D03*
X016170Y007255D03*
X018058Y006831D03*
X022046Y007679D03*
X022046Y007687D03*
X022046Y007691D03*
X022042Y007707D03*
X022042Y007711D03*
X022046Y007731D03*
X022042Y007735D03*
X022042Y007739D03*
X022046Y007747D03*
X022046Y007759D03*
X022046Y007767D03*
X022050Y007771D03*
X022050Y007775D03*
X022050Y007779D03*
X022050Y007671D03*
X022522Y007671D03*
X022526Y007687D03*
X022526Y007691D03*
X022526Y007695D03*
X022526Y007699D03*
X022526Y007707D03*
X022530Y007715D03*
X022526Y007719D03*
X022526Y007735D03*
X022526Y007747D03*
X022526Y007751D03*
X022526Y007755D03*
X022526Y007759D03*
X023266Y007051D03*
X023266Y006931D03*
X023270Y006927D03*
X023722Y006927D03*
X023726Y006939D03*
X023726Y006947D03*
X023726Y006951D03*
X023730Y006955D03*
X023730Y006959D03*
X023722Y007059D03*
D181*
X023038Y006939D03*
D182*
X022948Y006943D03*
D183*
X023268Y006943D03*
X023264Y007043D03*
X023732Y007003D03*
X023732Y006983D03*
X022044Y007743D03*
X018072Y006679D03*
X016872Y007839D03*
D184*
X016196Y008059D03*
X023076Y007843D03*
X023904Y007503D03*
X024000Y007503D03*
X024456Y006943D03*
X024484Y006943D03*
D185*
X024520Y006943D03*
X024760Y006943D03*
X024600Y007303D03*
X022920Y007863D03*
X022640Y007283D03*
X017160Y007679D03*
D186*
X018108Y007683D03*
X018108Y007687D03*
X018108Y007691D03*
X018108Y007695D03*
X018108Y007675D03*
X022688Y006947D03*
D187*
X024530Y006955D03*
X024530Y006979D03*
X017990Y007891D03*
X017990Y007895D03*
X016098Y006883D03*
X016094Y006871D03*
X016094Y006867D03*
X016094Y006863D03*
D188*
X016940Y007667D03*
X023260Y007031D03*
X023260Y007027D03*
X023260Y007019D03*
X023260Y007015D03*
X023260Y007011D03*
X023260Y007007D03*
X023260Y006999D03*
X023260Y006971D03*
X023260Y006959D03*
D189*
X023334Y007143D03*
X023658Y007143D03*
X022638Y006963D03*
X021918Y007203D03*
X018618Y006639D03*
D190*
X017992Y007879D03*
X024532Y007003D03*
X024532Y006963D03*
D191*
X023356Y006971D03*
X022832Y007895D03*
X017756Y007947D03*
X017068Y007463D03*
X017064Y007447D03*
X017064Y007443D03*
X017064Y007435D03*
X017064Y007431D03*
X017028Y007255D03*
X017028Y007251D03*
X016624Y007175D03*
D192*
X016186Y007359D03*
X016218Y007439D03*
X021950Y007143D03*
X022298Y007103D03*
X022950Y007143D03*
X023286Y006983D03*
X022474Y007583D03*
X024662Y007183D03*
D193*
X024530Y006983D03*
X022286Y007883D03*
X017990Y007899D03*
D194*
X017756Y007935D03*
X017756Y007863D03*
X017516Y007703D03*
X017516Y007635D03*
X017316Y007703D03*
X017112Y007647D03*
X017044Y007695D03*
X017112Y007535D03*
X017112Y007531D03*
X017112Y007527D03*
X017004Y007375D03*
X017324Y007187D03*
X017528Y007187D03*
X017992Y007423D03*
X017992Y007491D03*
X018540Y007487D03*
X018396Y007863D03*
X018580Y006763D03*
X018576Y006751D03*
X018572Y006743D03*
X018568Y006731D03*
X018568Y006727D03*
X018560Y006707D03*
X018556Y006695D03*
X018668Y006731D03*
X018664Y006743D03*
X018660Y006755D03*
X018656Y006763D03*
X018656Y006767D03*
X018684Y006687D03*
X018732Y006551D03*
X017972Y006775D03*
X017968Y006767D03*
X017968Y006763D03*
X017968Y006755D03*
X017644Y006551D03*
X017192Y006735D03*
X015860Y006835D03*
X015860Y006903D03*
X016632Y007643D03*
X015860Y008223D03*
X023304Y007787D03*
X023324Y007779D03*
X023344Y007771D03*
X023368Y007759D03*
X023392Y006999D03*
X023384Y006995D03*
X023376Y006991D03*
D195*
X023260Y007003D03*
X023260Y007023D03*
X018040Y006559D03*
D196*
X017760Y006659D03*
X017748Y006679D03*
X017728Y006719D03*
X017716Y006739D03*
X017992Y007419D03*
X017716Y007739D03*
X017664Y007799D03*
X017628Y007839D03*
X017612Y007859D03*
X017116Y007559D03*
X017008Y007359D03*
X016988Y007759D03*
X018544Y007619D03*
X018772Y007259D03*
X022476Y007043D03*
X023400Y007003D03*
X024052Y007503D03*
D197*
X023454Y007707D03*
X023402Y007739D03*
X023390Y007747D03*
X023418Y007011D03*
X023410Y007007D03*
X022454Y007055D03*
X022430Y007071D03*
X022414Y007079D03*
X022354Y007755D03*
X022386Y007775D03*
X018814Y007311D03*
X018810Y007307D03*
X018810Y007303D03*
X018802Y007295D03*
X018798Y007291D03*
X018794Y007287D03*
X018790Y007283D03*
X018786Y007275D03*
X018782Y007271D03*
X018778Y007267D03*
X018774Y007263D03*
X018770Y007255D03*
X018766Y007251D03*
X018762Y007247D03*
X018758Y007243D03*
X018754Y007235D03*
X018750Y007231D03*
X018746Y007227D03*
X018742Y007223D03*
X018314Y007475D03*
X018306Y007487D03*
X018302Y007491D03*
X018294Y007503D03*
X018290Y007507D03*
X018274Y007531D03*
X018270Y007535D03*
X018262Y007547D03*
X018206Y007427D03*
X018218Y007411D03*
X018222Y007407D03*
X018230Y007395D03*
X018234Y007391D03*
X018246Y007375D03*
X018250Y007367D03*
X018254Y007363D03*
X017990Y007647D03*
X017990Y007727D03*
X017742Y007707D03*
X017730Y007723D03*
X017726Y007727D03*
X017722Y007731D03*
X017718Y007735D03*
X017706Y007751D03*
X017702Y007755D03*
X017694Y007763D03*
X017690Y007767D03*
X017678Y007783D03*
X017674Y007787D03*
X017670Y007791D03*
X017666Y007795D03*
X017654Y007811D03*
X017650Y007815D03*
X017642Y007823D03*
X017638Y007827D03*
X017626Y007843D03*
X017622Y007847D03*
X017618Y007851D03*
X017614Y007855D03*
X017602Y007871D03*
X017598Y007875D03*
X017134Y007687D03*
X017066Y007675D03*
X017118Y007583D03*
X017118Y007575D03*
X017118Y007571D03*
X016986Y007763D03*
X017010Y007351D03*
X017010Y007347D03*
X017082Y007315D03*
X017082Y007311D03*
X017082Y007307D03*
X017326Y007183D03*
X017682Y007367D03*
X016990Y008067D03*
X016306Y008067D03*
X016622Y007263D03*
X016622Y007183D03*
D198*
X017008Y007355D03*
X017008Y007363D03*
X017116Y007555D03*
X017116Y007563D03*
X017116Y007567D03*
X017116Y007643D03*
X017132Y007691D03*
X017056Y007683D03*
X017052Y007687D03*
X017048Y007691D03*
X017316Y007707D03*
X017516Y007707D03*
X017516Y007631D03*
X017684Y007775D03*
X017688Y007771D03*
X017708Y007747D03*
X017712Y007743D03*
X017736Y007715D03*
X017740Y007711D03*
X017660Y007803D03*
X017656Y007807D03*
X017636Y007831D03*
X017632Y007835D03*
X017608Y007863D03*
X017604Y007867D03*
X017992Y007495D03*
X018540Y007491D03*
X018544Y007695D03*
X017528Y007183D03*
X017720Y006735D03*
X017720Y006731D03*
X017724Y006727D03*
X017724Y006723D03*
X017728Y006715D03*
X017732Y006711D03*
X017732Y006707D03*
X017736Y006703D03*
X017740Y006695D03*
X017744Y006687D03*
X017748Y006683D03*
X017752Y006675D03*
X017752Y006671D03*
X017756Y006667D03*
X017756Y006663D03*
X017760Y006655D03*
X017764Y006651D03*
X015860Y006831D03*
X015860Y006907D03*
X022464Y007051D03*
X023424Y007015D03*
X023352Y007767D03*
D199*
X023730Y007023D03*
D200*
X023444Y007027D03*
X023464Y007699D03*
X023440Y007715D03*
X023436Y007719D03*
X023416Y007731D03*
X023376Y007755D03*
X022544Y007279D03*
X022420Y007075D03*
X022360Y007759D03*
X022380Y007771D03*
X018816Y007315D03*
X018540Y007411D03*
X018300Y007495D03*
X018284Y007515D03*
X018280Y007523D03*
X018276Y007527D03*
X018264Y007543D03*
X018260Y007551D03*
X018200Y007435D03*
X018204Y007431D03*
X018216Y007415D03*
X018224Y007403D03*
X018236Y007387D03*
X018240Y007383D03*
X018260Y007351D03*
X017776Y007223D03*
X017764Y007243D03*
X017760Y007247D03*
X017760Y007251D03*
X017756Y007255D03*
X017744Y007271D03*
X017744Y007275D03*
X017736Y007283D03*
X017736Y007287D03*
X017724Y007303D03*
X017720Y007307D03*
X017720Y007311D03*
X017716Y007315D03*
X017704Y007335D03*
X017696Y007347D03*
X017684Y007363D03*
X017680Y007371D03*
X017676Y007375D03*
X017664Y007395D03*
X017656Y007407D03*
X017644Y007423D03*
X017644Y007427D03*
X017640Y007431D03*
X017636Y007435D03*
X017624Y007455D03*
X017620Y007463D03*
X017616Y007467D03*
X017516Y007627D03*
X017744Y007703D03*
X017404Y007411D03*
X017416Y007395D03*
X017420Y007387D03*
X017424Y007383D03*
X017436Y007363D03*
X017440Y007355D03*
X017444Y007351D03*
X017456Y007331D03*
X017460Y007327D03*
X017460Y007323D03*
X017476Y007303D03*
X017480Y007295D03*
X017484Y007287D03*
X017496Y007271D03*
X017324Y007263D03*
X017080Y007323D03*
X017080Y007327D03*
X017080Y007331D03*
X017120Y007587D03*
X017120Y007591D03*
X017120Y007595D03*
X017120Y007635D03*
X017136Y007683D03*
X017076Y007667D03*
X016984Y007767D03*
X016156Y007191D03*
X015860Y006911D03*
D201*
X016164Y007327D03*
X016168Y007335D03*
X016220Y007467D03*
X016220Y007471D03*
X016220Y007475D03*
X016648Y008091D03*
X016648Y008095D03*
X018156Y007663D03*
X018620Y006643D03*
X022120Y007875D03*
X022456Y007871D03*
X022500Y007847D03*
X022456Y007571D03*
X022940Y007151D03*
X022588Y007031D03*
X022308Y007087D03*
X023328Y007139D03*
X023664Y007135D03*
D202*
X023482Y007055D03*
X023470Y007047D03*
X023462Y007039D03*
X023454Y007035D03*
X023450Y007031D03*
X023506Y007667D03*
X023482Y007687D03*
X023426Y007727D03*
X022374Y007767D03*
X022342Y007747D03*
X022334Y007739D03*
X022326Y007735D03*
X022318Y007731D03*
X022318Y007727D03*
X022302Y007715D03*
X022214Y007279D03*
X018542Y007495D03*
X018542Y007615D03*
X018258Y007555D03*
X018254Y007563D03*
X018258Y007355D03*
X018262Y007347D03*
X017774Y007227D03*
X017706Y007331D03*
X017698Y007343D03*
X017666Y007391D03*
X017658Y007403D03*
X017482Y007291D03*
X017446Y007347D03*
X017418Y007391D03*
X017314Y007627D03*
X017314Y007711D03*
X017122Y007611D03*
X017122Y007607D03*
X017122Y007603D03*
X016982Y007771D03*
X016658Y007603D03*
X016662Y007591D03*
X016670Y007571D03*
X016670Y007567D03*
X016678Y007551D03*
X016678Y007547D03*
X016682Y007535D03*
X016686Y007527D03*
X016690Y007515D03*
X016694Y007507D03*
X016694Y007503D03*
X016698Y007495D03*
X016698Y007491D03*
X016702Y007483D03*
X016706Y007475D03*
X016706Y007471D03*
X016710Y007463D03*
X016710Y007455D03*
X016730Y007407D03*
X016738Y007387D03*
X016746Y007367D03*
X016750Y007355D03*
X016754Y007347D03*
X016754Y007343D03*
X016758Y007335D03*
X016762Y007327D03*
X016762Y007323D03*
X016766Y007315D03*
X016770Y007307D03*
X016770Y007303D03*
X016774Y007295D03*
X016778Y007287D03*
X016778Y007283D03*
X016782Y007275D03*
X016782Y007271D03*
X016786Y007263D03*
X016790Y007255D03*
X016794Y007243D03*
X016798Y007235D03*
X016798Y007231D03*
X016802Y007223D03*
X016806Y007211D03*
X016810Y007203D03*
X016814Y007191D03*
X016814Y007187D03*
X016822Y007171D03*
X016822Y007167D03*
X016830Y007151D03*
X016830Y007147D03*
X016834Y007135D03*
X016838Y007127D03*
X016842Y007115D03*
X016846Y007107D03*
X016846Y007103D03*
X016850Y007095D03*
X016850Y007091D03*
X016854Y007083D03*
X016858Y007075D03*
X016858Y007071D03*
X016862Y007063D03*
X016866Y007055D03*
X016866Y007051D03*
X016870Y007043D03*
X016874Y007031D03*
X016878Y007023D03*
X016882Y007011D03*
X016890Y006987D03*
X016894Y006975D03*
X016898Y006967D03*
X016902Y006955D03*
X016906Y006947D03*
X016906Y006943D03*
X016910Y006935D03*
X016914Y006927D03*
X016914Y006923D03*
X016918Y006915D03*
X016918Y006911D03*
X016922Y006907D03*
X016922Y006903D03*
X016926Y006895D03*
X016926Y006891D03*
X016930Y006883D03*
X016934Y006875D03*
X016934Y006871D03*
X016938Y006863D03*
X016942Y006851D03*
X016946Y006843D03*
X016950Y006831D03*
X016950Y006827D03*
X016958Y006811D03*
X016958Y006807D03*
X016966Y006787D03*
X016970Y006775D03*
X016974Y006767D03*
X016974Y006763D03*
X016978Y006755D03*
X016982Y006747D03*
X016982Y006743D03*
X016986Y006735D03*
X016990Y006723D03*
X017014Y007323D03*
X017014Y007327D03*
X017014Y007331D03*
X017078Y007335D03*
X017078Y007343D03*
X017078Y007347D03*
X016578Y007531D03*
X016578Y007535D03*
X016582Y007543D03*
X016586Y007555D03*
X016590Y007563D03*
X016590Y007567D03*
X016594Y007575D03*
X016598Y007587D03*
X016602Y007595D03*
X016606Y007607D03*
X016574Y007523D03*
X016570Y007511D03*
X016566Y007503D03*
X016562Y007491D03*
X016562Y007487D03*
X016558Y007483D03*
X016554Y007471D03*
X016554Y007467D03*
X016550Y007463D03*
X016550Y007455D03*
X016478Y007195D03*
X016474Y007187D03*
X016474Y007183D03*
X016470Y007175D03*
X016470Y007171D03*
X016466Y007163D03*
X016462Y007155D03*
X016462Y007151D03*
X016458Y007143D03*
X016454Y007131D03*
X016450Y007123D03*
X016446Y007111D03*
X016438Y007091D03*
X016438Y007087D03*
X016434Y007075D03*
X016430Y007071D03*
X016430Y007067D03*
X016426Y007055D03*
X016422Y007047D03*
X016418Y007035D03*
X016414Y007027D03*
X016414Y007023D03*
X016410Y007015D03*
X016406Y007007D03*
X016406Y007003D03*
X016402Y006995D03*
X016402Y006991D03*
X016398Y006983D03*
X016394Y006975D03*
X016394Y006971D03*
X016390Y006963D03*
X016386Y006951D03*
X016386Y006947D03*
X016378Y006931D03*
X016378Y006927D03*
X016370Y006911D03*
X016370Y006907D03*
X016366Y006895D03*
X016362Y006891D03*
X017962Y006607D03*
X018122Y006787D03*
X016202Y008083D03*
X016202Y008087D03*
X016198Y008091D03*
X016198Y008095D03*
X016194Y008103D03*
X016190Y008107D03*
X016190Y008111D03*
X016190Y008115D03*
X016186Y008123D03*
X016182Y008127D03*
X016182Y008131D03*
X016178Y008135D03*
X016174Y008143D03*
X016174Y008147D03*
X016174Y008151D03*
X016170Y008155D03*
X016166Y008163D03*
X016166Y008167D03*
X016162Y008171D03*
X016162Y008175D03*
X016158Y008183D03*
X016154Y008191D03*
X016154Y008195D03*
X016150Y008203D03*
X016146Y008207D03*
X016146Y008211D03*
X016142Y008215D03*
X016142Y008223D03*
X016138Y008227D03*
X016138Y008231D03*
X016134Y008235D03*
X015858Y008215D03*
D203*
X016978Y007779D03*
X017750Y007679D03*
X017750Y007659D03*
X017750Y007639D03*
X017750Y007619D03*
X017750Y007599D03*
X017750Y007579D03*
X017750Y007559D03*
X017750Y007539D03*
X017750Y007519D03*
X022230Y007643D03*
X022266Y007683D03*
X023466Y007043D03*
D204*
X024532Y007043D03*
X024532Y007063D03*
D205*
X022470Y007047D03*
X017970Y006771D03*
X017970Y006603D03*
X017190Y006663D03*
X017130Y007695D03*
X016990Y007755D03*
X016630Y007647D03*
X016990Y008063D03*
X017990Y007723D03*
X017990Y007651D03*
D206*
X017990Y007643D03*
X017990Y007731D03*
X017750Y007687D03*
X017750Y007683D03*
X017750Y007675D03*
X017750Y007671D03*
X017750Y007667D03*
X017750Y007663D03*
X017750Y007655D03*
X017750Y007651D03*
X017750Y007647D03*
X017750Y007643D03*
X017750Y007635D03*
X017750Y007631D03*
X017750Y007627D03*
X017750Y007623D03*
X017750Y007615D03*
X017750Y007611D03*
X017750Y007607D03*
X017750Y007603D03*
X017750Y007595D03*
X017750Y007591D03*
X017750Y007587D03*
X017750Y007583D03*
X017750Y007575D03*
X017750Y007571D03*
X017750Y007567D03*
X017750Y007563D03*
X017750Y007555D03*
X017750Y007551D03*
X017750Y007547D03*
X017750Y007543D03*
X017750Y007535D03*
X017750Y007531D03*
X017750Y007527D03*
X017750Y007523D03*
X017750Y007515D03*
X017754Y007855D03*
X016990Y008071D03*
X016630Y007655D03*
X017074Y007371D03*
X017074Y007367D03*
X017074Y007363D03*
X017018Y007311D03*
X017018Y007307D03*
X017018Y007303D03*
X016622Y007267D03*
X016154Y007187D03*
X017190Y006655D03*
X016202Y008075D03*
X022250Y007667D03*
X022254Y007671D03*
X022258Y007675D03*
X022262Y007679D03*
X022270Y007687D03*
X022282Y007699D03*
X022298Y007711D03*
X022306Y007719D03*
X023522Y007651D03*
X023526Y007647D03*
X023534Y007639D03*
X023538Y007635D03*
X023554Y007619D03*
X023558Y007615D03*
X023562Y007611D03*
X023590Y007575D03*
X023550Y007119D03*
X023538Y007107D03*
X023530Y007099D03*
X023518Y007087D03*
X023510Y007079D03*
X023506Y007075D03*
X023502Y007071D03*
X023494Y007067D03*
X023478Y007051D03*
D207*
X023382Y007751D03*
X022286Y007399D03*
X022446Y007059D03*
X024526Y007307D03*
X018542Y007415D03*
X018398Y007935D03*
X017314Y007631D03*
X017114Y007551D03*
X017114Y007547D03*
X017114Y007543D03*
X017006Y007371D03*
X017006Y007367D03*
X016622Y007187D03*
X016158Y007195D03*
X016306Y008063D03*
X015858Y008295D03*
X017742Y006691D03*
D208*
X017772Y007231D03*
X017768Y007235D03*
X017752Y007263D03*
X017748Y007267D03*
X017732Y007291D03*
X017728Y007295D03*
X017712Y007323D03*
X017708Y007327D03*
X017692Y007351D03*
X017692Y007355D03*
X017672Y007383D03*
X017668Y007387D03*
X017652Y007411D03*
X017652Y007415D03*
X017632Y007443D03*
X017628Y007447D03*
X017628Y007451D03*
X017448Y007343D03*
X017452Y007335D03*
X017468Y007315D03*
X017468Y007311D03*
X017472Y007307D03*
X017488Y007283D03*
X017492Y007275D03*
X017432Y007367D03*
X017432Y007371D03*
X017428Y007375D03*
X017412Y007403D03*
X017408Y007407D03*
X017012Y007343D03*
X017012Y007335D03*
X017072Y007671D03*
X016632Y007651D03*
X018208Y007423D03*
X018248Y007371D03*
X018308Y007483D03*
X018288Y007511D03*
X022348Y007751D03*
X022392Y007779D03*
X023412Y007735D03*
X023488Y007059D03*
X022432Y007067D03*
D209*
X022442Y007063D03*
X018806Y007299D03*
X018790Y007279D03*
X018754Y007239D03*
X018738Y007219D03*
X018242Y007379D03*
X018226Y007399D03*
X018282Y007519D03*
X018266Y007539D03*
X017734Y007719D03*
X017698Y007759D03*
X017682Y007779D03*
X017646Y007819D03*
X017754Y007939D03*
X018398Y007859D03*
X017118Y007639D03*
X017118Y007579D03*
X017062Y007679D03*
X017082Y007319D03*
X017190Y006739D03*
X015858Y008219D03*
D210*
X016204Y008079D03*
X016604Y007599D03*
X016596Y007579D03*
X016588Y007559D03*
X016688Y007519D03*
X016696Y007499D03*
X016704Y007479D03*
X016756Y007339D03*
X016764Y007319D03*
X016772Y007299D03*
X016788Y007259D03*
X016796Y007239D03*
X016848Y007099D03*
X016856Y007079D03*
X016864Y007059D03*
X016916Y006919D03*
X016924Y006899D03*
X016976Y006759D03*
X016984Y006739D03*
X017324Y007179D03*
X017324Y007279D03*
X017324Y007299D03*
X017324Y007319D03*
X017324Y007339D03*
X017324Y007359D03*
X017324Y007379D03*
X017324Y007399D03*
X017076Y007359D03*
X017016Y007319D03*
X016624Y007179D03*
X016472Y007179D03*
X016464Y007159D03*
X016412Y007019D03*
X016404Y006999D03*
X017124Y007619D03*
X017528Y007179D03*
X018264Y007219D03*
X018264Y007239D03*
X018264Y007259D03*
X018264Y007279D03*
X018264Y007299D03*
X018264Y007319D03*
X018264Y007339D03*
X018252Y007579D03*
X018252Y007599D03*
X018252Y007619D03*
X018252Y007639D03*
X018252Y007659D03*
X018252Y007719D03*
X018252Y007739D03*
X018252Y007759D03*
X018252Y007779D03*
X018252Y007799D03*
X018252Y007819D03*
X018252Y007839D03*
X018252Y007859D03*
X022288Y007703D03*
X022312Y007723D03*
X022336Y007743D03*
X022408Y007083D03*
X023492Y007063D03*
X023512Y007083D03*
X023508Y007663D03*
X023484Y007683D03*
D211*
X023532Y007643D03*
X023552Y007623D03*
X023568Y007603D03*
X023584Y007583D03*
X023552Y007123D03*
X023532Y007103D03*
X022208Y007283D03*
X022248Y007663D03*
X017072Y007379D03*
X017020Y007299D03*
D212*
X016980Y007619D03*
X021956Y007123D03*
D213*
X022620Y007123D03*
X016200Y007379D03*
D214*
X022058Y007643D03*
X022510Y007643D03*
X022518Y007783D03*
X024698Y007143D03*
X024706Y007123D03*
D215*
X022634Y007143D03*
X016646Y008099D03*
X016166Y007319D03*
D216*
X022788Y007159D03*
D217*
X022784Y007163D03*
X017356Y007879D03*
D218*
X022780Y007183D03*
D219*
X023494Y007183D03*
D220*
X022780Y007191D03*
D221*
X023496Y007191D03*
X021676Y007335D03*
X017352Y007903D03*
D222*
X018592Y007911D03*
X023496Y007199D03*
D223*
X024532Y007199D03*
X021648Y007359D03*
D224*
X021680Y007323D03*
X022284Y007923D03*
X022776Y007203D03*
D225*
X022774Y007207D03*
X022774Y007211D03*
X022286Y007519D03*
X017354Y007895D03*
D226*
X016646Y008055D03*
X016206Y007567D03*
X015978Y008263D03*
X015978Y008267D03*
X023430Y007211D03*
D227*
X023664Y007211D03*
X023092Y007851D03*
X017808Y006627D03*
X017808Y006623D03*
X017672Y006763D03*
X017672Y006767D03*
X016988Y007487D03*
X016988Y007491D03*
X016988Y007495D03*
X016904Y007707D03*
X016304Y008043D03*
X016172Y007215D03*
D228*
X022770Y007219D03*
D229*
X022770Y007223D03*
D230*
X024532Y007223D03*
X016232Y007739D03*
D231*
X023498Y007227D03*
D232*
X021870Y007239D03*
X016350Y007907D03*
X016310Y007803D03*
D233*
X021720Y007243D03*
D234*
X021720Y007247D03*
D235*
X022286Y007455D03*
X023498Y007251D03*
D236*
X023496Y007259D03*
X024532Y007251D03*
X022244Y007987D03*
D237*
X021714Y007259D03*
X021718Y007255D03*
D238*
X021714Y007263D03*
D239*
X022836Y007883D03*
X023496Y007263D03*
X015980Y008259D03*
D240*
X021710Y007271D03*
D241*
X023500Y007271D03*
D242*
X024532Y007271D03*
X022292Y007435D03*
X016352Y007891D03*
D243*
X016876Y007783D03*
X017096Y007771D03*
X017676Y006751D03*
X017676Y006747D03*
X017804Y006643D03*
X018620Y006783D03*
X022640Y007279D03*
D244*
X022870Y007283D03*
X016930Y007679D03*
X016874Y007819D03*
X016170Y007239D03*
D245*
X017070Y007399D03*
X022170Y007363D03*
X022186Y007323D03*
X022194Y007303D03*
X023614Y007543D03*
X023634Y007503D03*
X023650Y007463D03*
X023666Y007363D03*
X023650Y007283D03*
D246*
X022870Y007287D03*
X018618Y006791D03*
X018618Y006787D03*
X018002Y006727D03*
X017806Y006635D03*
X017806Y006631D03*
X017674Y006755D03*
X017366Y007415D03*
X017098Y007763D03*
X017098Y007767D03*
X016906Y007703D03*
X016878Y007775D03*
D247*
X016976Y007791D03*
X016988Y008075D03*
X017316Y007715D03*
X017516Y007715D03*
X017068Y007411D03*
X017068Y007407D03*
X017068Y007403D03*
X017024Y007275D03*
X016148Y007183D03*
X015860Y006823D03*
X017952Y006615D03*
X016200Y008067D03*
X015860Y008211D03*
X022160Y007411D03*
X022164Y007407D03*
X022164Y007399D03*
X022168Y007371D03*
X022172Y007367D03*
X022172Y007359D03*
X022180Y007339D03*
X022184Y007327D03*
X022196Y007307D03*
X023620Y007527D03*
X023624Y007519D03*
X023644Y007479D03*
X023648Y007471D03*
X023652Y007459D03*
X023652Y007455D03*
X023660Y007427D03*
X023664Y007411D03*
X023664Y007399D03*
X023664Y007395D03*
X023664Y007391D03*
X023664Y007387D03*
X023664Y007375D03*
X023664Y007371D03*
X023664Y007359D03*
X023664Y007355D03*
X023664Y007351D03*
X023664Y007347D03*
X023660Y007319D03*
X023660Y007315D03*
X023656Y007307D03*
X023656Y007299D03*
X023652Y007291D03*
X023652Y007287D03*
D248*
X022286Y007903D03*
X021694Y007303D03*
D249*
X023488Y007303D03*
X017092Y007779D03*
X016876Y007799D03*
D250*
X017992Y007639D03*
X022952Y007863D03*
X023568Y007303D03*
D251*
X023656Y007303D03*
X023660Y007323D03*
X023664Y007343D03*
X023668Y007383D03*
X023664Y007403D03*
X023656Y007443D03*
X023624Y007523D03*
X022168Y007383D03*
X022164Y007403D03*
X017024Y007279D03*
D252*
X016988Y007479D03*
X017668Y006779D03*
X018052Y006839D03*
X024528Y007303D03*
D253*
X023494Y007307D03*
X018618Y006823D03*
X017818Y006591D03*
X017818Y006587D03*
X017662Y006803D03*
X017358Y007443D03*
X016886Y007727D03*
D254*
X017352Y007907D03*
X021672Y007339D03*
D255*
X021668Y007343D03*
D256*
X022178Y007343D03*
X022202Y007603D03*
X022218Y007623D03*
X023598Y007563D03*
X023642Y007483D03*
D257*
X021644Y007363D03*
D258*
X021434Y007383D03*
X023662Y007423D03*
X018542Y007499D03*
X017066Y007419D03*
D259*
X017324Y007239D03*
X017756Y007919D03*
X018116Y006659D03*
X021496Y007383D03*
D260*
X021772Y007383D03*
X018136Y006779D03*
X017028Y007259D03*
X017064Y007439D03*
X016972Y007799D03*
X016988Y008079D03*
X016148Y007179D03*
D261*
X016882Y007759D03*
X017810Y006619D03*
X018618Y006799D03*
X022286Y007403D03*
D262*
X022280Y007423D03*
X018076Y007459D03*
X016228Y007539D03*
D263*
X022244Y007995D03*
X022284Y007443D03*
D264*
X022286Y007459D03*
X022842Y007879D03*
X016194Y007603D03*
D265*
X022246Y007959D03*
X022286Y007479D03*
D266*
X022284Y007487D03*
D267*
X022284Y007499D03*
X022836Y007871D03*
D268*
X022284Y007503D03*
D269*
X023358Y007763D03*
X023958Y007503D03*
X017738Y006699D03*
X017326Y007259D03*
X016622Y007259D03*
D270*
X022286Y007523D03*
D271*
X022284Y007543D03*
D272*
X022286Y007547D03*
X022286Y007895D03*
X017986Y007915D03*
X016090Y006851D03*
D273*
X015860Y006827D03*
X016380Y006935D03*
X016400Y006987D03*
X016420Y007043D03*
X016440Y007095D03*
X016460Y007147D03*
X016800Y007227D03*
X016820Y007175D03*
X016840Y007123D03*
X016860Y007067D03*
X016880Y007015D03*
X016900Y006963D03*
X016940Y006855D03*
X016960Y006803D03*
X016980Y006751D03*
X016760Y007331D03*
X016740Y007383D03*
X016700Y007487D03*
X016680Y007543D03*
X016660Y007595D03*
X016600Y007591D03*
X016980Y007775D03*
X018820Y007775D03*
X018820Y007771D03*
X018820Y007767D03*
X018820Y007763D03*
X018820Y007755D03*
X018820Y007751D03*
X018820Y007747D03*
X018820Y007743D03*
X018820Y007735D03*
X018820Y007731D03*
X018820Y007727D03*
X018820Y007723D03*
X018820Y007715D03*
X018820Y007711D03*
X018820Y007707D03*
X018820Y007703D03*
X018820Y007695D03*
X018820Y007691D03*
X018820Y007687D03*
X018820Y007683D03*
X018820Y007631D03*
X018820Y007627D03*
X018820Y007623D03*
X018820Y007615D03*
X018820Y007611D03*
X018820Y007607D03*
X018820Y007603D03*
X018820Y007595D03*
X018820Y007591D03*
X018820Y007587D03*
X018820Y007583D03*
X018820Y007575D03*
X018820Y007571D03*
X018820Y007567D03*
X018820Y007563D03*
X018820Y007555D03*
X018820Y007551D03*
X018820Y007547D03*
X018820Y007543D03*
X018820Y007535D03*
X018820Y007531D03*
X018820Y007527D03*
X018820Y007523D03*
X018820Y007515D03*
X018820Y007511D03*
X018820Y007507D03*
X018820Y007503D03*
X018820Y007495D03*
X018820Y007491D03*
X018820Y007487D03*
X018820Y007483D03*
X018820Y007475D03*
X018820Y007471D03*
X018820Y007467D03*
X018820Y007463D03*
X018820Y007455D03*
X018820Y007451D03*
X018820Y007447D03*
X018820Y007443D03*
X018820Y007435D03*
X018820Y007431D03*
X018820Y007427D03*
X018820Y007423D03*
X018820Y007415D03*
X018820Y007411D03*
X018820Y007407D03*
X018820Y007403D03*
X018820Y007395D03*
X018820Y007391D03*
X018820Y007387D03*
X018820Y007383D03*
X018820Y007375D03*
X018820Y007371D03*
X018820Y007367D03*
X018820Y007363D03*
X018820Y007355D03*
X018820Y007351D03*
X018820Y007347D03*
X018820Y007343D03*
X018820Y007335D03*
X018820Y007331D03*
X018820Y007327D03*
X018820Y007323D03*
X018820Y007783D03*
X018820Y007787D03*
X018820Y007791D03*
X018820Y007795D03*
X018820Y007803D03*
X018820Y007807D03*
X018820Y007811D03*
X018820Y007815D03*
X018820Y007823D03*
X018820Y007827D03*
X018820Y007831D03*
X018820Y007835D03*
X018820Y007843D03*
X018820Y007847D03*
X018820Y007851D03*
X018820Y007855D03*
X018820Y007863D03*
X018820Y007867D03*
X018820Y007871D03*
X018820Y007875D03*
X022240Y007655D03*
X022280Y007695D03*
X023500Y007671D03*
X023520Y007655D03*
D274*
X023460Y007703D03*
X018820Y007699D03*
X018820Y007719D03*
X018820Y007739D03*
X018820Y007759D03*
X018820Y007779D03*
X018820Y007799D03*
X018820Y007819D03*
X018820Y007839D03*
X018820Y007859D03*
X018820Y007679D03*
X018820Y007619D03*
X018820Y007599D03*
X018820Y007579D03*
X018820Y007559D03*
X018820Y007539D03*
X018820Y007519D03*
X018820Y007499D03*
X018820Y007479D03*
X018820Y007459D03*
X018820Y007439D03*
X018820Y007419D03*
X018820Y007399D03*
X018820Y007379D03*
X018820Y007359D03*
X018820Y007339D03*
X016840Y007119D03*
X016780Y007279D03*
X016580Y007539D03*
X016420Y007039D03*
D275*
X017424Y007379D03*
X017464Y007319D03*
X017476Y007299D03*
X017660Y007399D03*
X017636Y007439D03*
X017620Y007459D03*
X017700Y007339D03*
X017740Y007279D03*
X017780Y007219D03*
X018256Y007359D03*
X018296Y007499D03*
X018396Y007939D03*
X017756Y007859D03*
X022364Y007763D03*
X022396Y007783D03*
X023396Y007743D03*
D276*
X023330Y007775D03*
X018726Y006571D03*
X018694Y006663D03*
X018690Y006667D03*
X018690Y006671D03*
X018690Y006675D03*
X018686Y006683D03*
X018674Y006711D03*
X018674Y006715D03*
X018670Y006723D03*
X018670Y006727D03*
X018666Y006735D03*
X018574Y006747D03*
X018570Y006735D03*
X018566Y006723D03*
X018554Y006691D03*
X018554Y006687D03*
X018550Y006683D03*
X018550Y006675D03*
X018546Y006671D03*
X018546Y006667D03*
X018546Y006663D03*
X018510Y006567D03*
X018506Y006555D03*
X018506Y006551D03*
X018126Y006623D03*
X018126Y006627D03*
X018126Y006631D03*
X018046Y006547D03*
X017970Y006747D03*
X017970Y006751D03*
X017834Y006751D03*
X017834Y006755D03*
X017834Y006763D03*
X017834Y006767D03*
X017834Y006771D03*
X017834Y006775D03*
X017834Y006783D03*
X017834Y006787D03*
X017834Y006791D03*
X017834Y006795D03*
X017834Y006803D03*
X017834Y006807D03*
X017834Y006811D03*
X017834Y006815D03*
X017834Y006823D03*
X017834Y006827D03*
X017834Y006831D03*
X017834Y006835D03*
X017834Y006747D03*
X017834Y006743D03*
X017834Y006735D03*
X017834Y006731D03*
X017834Y006727D03*
X017834Y006723D03*
X017834Y006715D03*
X017834Y006711D03*
X017834Y006707D03*
X017834Y006703D03*
X017834Y006695D03*
X017834Y006691D03*
X017834Y006687D03*
X017834Y006683D03*
X017834Y006675D03*
X017834Y006671D03*
X017834Y006667D03*
X017834Y006663D03*
X017834Y006655D03*
X017834Y006651D03*
X017646Y006651D03*
X017646Y006655D03*
X017646Y006663D03*
X017646Y006667D03*
X017646Y006671D03*
X017646Y006675D03*
X017646Y006683D03*
X017646Y006687D03*
X017646Y006691D03*
X017646Y006695D03*
X017646Y006703D03*
X017646Y006707D03*
X017646Y006711D03*
X017646Y006715D03*
X017646Y006723D03*
X017646Y006727D03*
X017646Y006731D03*
X017646Y006735D03*
X017646Y006647D03*
X017646Y006643D03*
X017646Y006635D03*
X017646Y006631D03*
X017646Y006627D03*
X017646Y006623D03*
X017646Y006615D03*
X017646Y006611D03*
X017646Y006607D03*
X017646Y006603D03*
X017646Y006595D03*
X017646Y006591D03*
X017646Y006587D03*
X017646Y006583D03*
X017646Y006575D03*
X017646Y006571D03*
X017646Y006567D03*
X017646Y006563D03*
X017646Y006555D03*
X018110Y006791D03*
X017326Y007255D03*
X017110Y007511D03*
X017110Y007515D03*
X017110Y007523D03*
X017110Y007651D03*
X017126Y007703D03*
X017034Y007703D03*
X017030Y007707D03*
X016990Y007751D03*
X017314Y007635D03*
X017754Y007867D03*
X017990Y007655D03*
X017190Y006731D03*
X017190Y006667D03*
D277*
X018522Y006599D03*
X018558Y006699D03*
X018658Y006759D03*
X018678Y006699D03*
X018722Y006579D03*
X018542Y007419D03*
X023318Y007783D03*
D278*
X023284Y007795D03*
X023272Y007799D03*
X023232Y007815D03*
X023192Y007827D03*
X018396Y007923D03*
X017992Y007711D03*
X017992Y007663D03*
X017992Y007483D03*
X017992Y007435D03*
X017992Y007431D03*
X017528Y007247D03*
X017524Y007251D03*
X017324Y007247D03*
X017104Y007467D03*
X017104Y007471D03*
X017104Y007475D03*
X016996Y007423D03*
X016996Y007415D03*
X016996Y007735D03*
X017316Y007643D03*
X017516Y007643D03*
X017516Y007691D03*
X017516Y007695D03*
X017756Y007923D03*
X016632Y007623D03*
X016624Y007247D03*
X017192Y006723D03*
D279*
X017646Y006719D03*
X017646Y006739D03*
X017646Y006699D03*
X017646Y006679D03*
X017646Y006659D03*
X017646Y006639D03*
X017646Y006619D03*
X017646Y006599D03*
X017646Y006579D03*
X017646Y006559D03*
X017834Y006659D03*
X017834Y006679D03*
X017834Y006699D03*
X017834Y006719D03*
X017834Y006739D03*
X017834Y006759D03*
X017834Y006779D03*
X017834Y006799D03*
X017834Y006819D03*
X017974Y006779D03*
X018126Y006619D03*
X018514Y006579D03*
X018550Y006679D03*
X018666Y006739D03*
X018686Y006679D03*
X018694Y006659D03*
X018730Y006559D03*
X017990Y007719D03*
X017110Y007519D03*
X016630Y007639D03*
X023266Y007803D03*
D280*
X023260Y007807D03*
X023220Y007819D03*
X018540Y007427D03*
X017980Y006787D03*
X018120Y006655D03*
X017520Y007255D03*
X017120Y007715D03*
X017000Y007731D03*
X015860Y006895D03*
X015860Y006891D03*
X015860Y006843D03*
D281*
X016162Y007199D03*
X016994Y007739D03*
X017518Y007259D03*
X017990Y007659D03*
X018542Y007479D03*
X017978Y006739D03*
X016306Y008059D03*
X023206Y007823D03*
D282*
X023172Y007831D03*
X018620Y006827D03*
X017820Y006583D03*
X017660Y006807D03*
X017660Y006811D03*
X017356Y007447D03*
X017112Y007735D03*
X016304Y008051D03*
X016168Y007207D03*
D283*
X017326Y007219D03*
X017526Y007219D03*
X017658Y006819D03*
X023134Y007843D03*
D284*
X023112Y007847D03*
X018620Y006815D03*
X018108Y006663D03*
X017992Y006731D03*
X017816Y006595D03*
X017664Y006791D03*
X017664Y006795D03*
X016988Y007467D03*
X016888Y007723D03*
X016884Y007731D03*
X016884Y007735D03*
X017108Y007743D03*
X016992Y008047D03*
D285*
X022520Y007855D03*
D286*
X023080Y007855D03*
X018100Y006667D03*
X016880Y007763D03*
X016880Y007767D03*
X016880Y007771D03*
D287*
X016954Y007843D03*
X016950Y007847D03*
X016210Y007563D03*
X018110Y007667D03*
X018110Y007671D03*
X018110Y007703D03*
X022530Y007859D03*
D288*
X023058Y007859D03*
X018618Y006775D03*
X017802Y006647D03*
X017678Y006743D03*
X016986Y007507D03*
X016986Y007511D03*
X016914Y007695D03*
X016878Y007787D03*
X016878Y007791D03*
X017094Y007775D03*
D289*
X016194Y007599D03*
X022554Y007863D03*
D290*
X023038Y007863D03*
X017078Y007799D03*
X017062Y007819D03*
D291*
X022840Y007875D03*
D292*
X022244Y007975D03*
D293*
X022244Y007991D03*
X015980Y008251D03*
X015980Y008255D03*
D294*
X022248Y008015D03*
D295*
X022246Y008031D03*
X017086Y007791D03*
X017074Y007803D03*
X017070Y007811D03*
X017066Y007815D03*
X017054Y007827D03*
X017050Y007831D03*
X017046Y007835D03*
X016874Y007815D03*
X016306Y008031D03*
X016986Y007535D03*
X016986Y007531D03*
X016170Y007243D03*
D296*
X016622Y007243D03*
X016994Y007427D03*
X016994Y007431D03*
X017102Y007663D03*
X017118Y007723D03*
X017314Y007691D03*
X017758Y007875D03*
X018398Y007875D03*
X018542Y007475D03*
X017526Y007243D03*
X017526Y007203D03*
X017326Y007203D03*
X017326Y007243D03*
X017654Y006835D03*
X017654Y006831D03*
X017826Y006555D03*
X018114Y006603D03*
X017190Y006675D03*
X016630Y007615D03*
X016306Y008055D03*
X015858Y008235D03*
X016990Y008055D03*
D297*
X016992Y008059D03*
X017016Y007719D03*
X017108Y007499D03*
X017000Y007399D03*
X017316Y007639D03*
X017316Y007699D03*
X017516Y007699D03*
X017516Y007639D03*
X017376Y006779D03*
X017376Y006759D03*
X017376Y006739D03*
X017376Y006659D03*
X017376Y006639D03*
X017376Y006619D03*
X018128Y006639D03*
X018268Y006639D03*
X018268Y006659D03*
X018268Y006619D03*
X018268Y006739D03*
X018268Y006759D03*
X018268Y006779D03*
X018544Y006659D03*
X018508Y006559D03*
X018716Y006599D03*
X015860Y006839D03*
X015860Y006899D03*
D298*
X016164Y007203D03*
X017116Y007727D03*
X017356Y007451D03*
X017324Y007235D03*
X017324Y007207D03*
X017656Y006827D03*
X017656Y006823D03*
X017824Y006567D03*
X017824Y006563D03*
X017984Y006735D03*
X018620Y006835D03*
D299*
X017820Y006579D03*
D300*
X018518Y006587D03*
X018518Y006591D03*
X018558Y006703D03*
X018562Y006711D03*
X018562Y006715D03*
X018578Y006755D03*
X018582Y006767D03*
X018662Y006751D03*
X018662Y006747D03*
X018678Y006707D03*
X018678Y006703D03*
X018682Y006695D03*
X018682Y006691D03*
X018718Y006595D03*
X018718Y006591D03*
X018722Y006583D03*
X018542Y007623D03*
X018542Y007691D03*
X018398Y007931D03*
X017002Y007391D03*
X017002Y007387D03*
X017002Y007383D03*
X016622Y007255D03*
X016622Y007191D03*
X015858Y008291D03*
D301*
X016884Y007739D03*
X017360Y007439D03*
X017816Y006599D03*
D302*
X017662Y006799D03*
X018106Y006599D03*
X018618Y006819D03*
D303*
X017814Y006607D03*
X017814Y006603D03*
X017666Y006783D03*
X017666Y006787D03*
X016990Y007471D03*
X017106Y007747D03*
X016306Y008047D03*
X016170Y007211D03*
D304*
X017030Y007239D03*
X017066Y007459D03*
X017946Y006619D03*
D305*
X018620Y006619D03*
X016224Y007499D03*
D306*
X016304Y008039D03*
X017804Y006639D03*
D307*
X017192Y006659D03*
X017488Y007279D03*
X017452Y007339D03*
X017412Y007399D03*
X017648Y007419D03*
X017672Y007379D03*
X017688Y007359D03*
X017712Y007319D03*
X017728Y007299D03*
X017752Y007259D03*
X017768Y007239D03*
X017992Y007499D03*
X018212Y007419D03*
X018312Y007479D03*
X017012Y007339D03*
D308*
X016932Y007675D03*
X016872Y007823D03*
X016872Y007827D03*
X016872Y007831D03*
X017072Y007807D03*
X018080Y006675D03*
D309*
X017528Y007239D03*
X016992Y007439D03*
X017188Y006719D03*
D310*
X018020Y006719D03*
X016984Y007539D03*
X017044Y007839D03*
D311*
X017040Y007699D03*
X017128Y007699D03*
X017112Y007539D03*
X017004Y007379D03*
X017836Y006839D03*
X017968Y006759D03*
X018564Y006719D03*
X018572Y006739D03*
X018580Y006759D03*
X018672Y006719D03*
D312*
X018014Y006723D03*
X016986Y007523D03*
X016922Y007687D03*
X016918Y007691D03*
X016874Y007803D03*
X016874Y007807D03*
D313*
X017190Y006747D03*
D314*
X017674Y006759D03*
X016986Y007499D03*
X016878Y007779D03*
X016990Y008039D03*
X016174Y007219D03*
D315*
X017102Y007755D03*
X017362Y007427D03*
X017362Y007423D03*
X017670Y006771D03*
X018618Y006795D03*
D316*
X018618Y006779D03*
D317*
X018618Y006807D03*
X018618Y006811D03*
X017358Y007435D03*
X016882Y007743D03*
X016882Y007747D03*
X016882Y007751D03*
D318*
X016876Y007811D03*
X016924Y007683D03*
X016984Y007527D03*
X017088Y007787D03*
X016992Y008031D03*
X018056Y006835D03*
D319*
X017652Y006839D03*
X017528Y007199D03*
X017324Y007199D03*
X017104Y007479D03*
X016996Y007419D03*
X017104Y007659D03*
D320*
X016090Y006847D03*
D321*
X016096Y006875D03*
X016100Y006887D03*
D322*
X016096Y006879D03*
D323*
X016646Y007987D03*
X018258Y007175D03*
D324*
X018258Y007179D03*
D325*
X018258Y007183D03*
D326*
X018258Y007187D03*
D327*
X018256Y007191D03*
D328*
X018258Y007195D03*
D329*
X018258Y007199D03*
D330*
X018258Y007203D03*
D331*
X017992Y007707D03*
X017528Y007235D03*
X017528Y007211D03*
X017528Y007207D03*
X016992Y007435D03*
X016992Y007443D03*
X016632Y007611D03*
X016648Y008175D03*
D332*
X018260Y007207D03*
D333*
X018260Y007211D03*
X018260Y007215D03*
D334*
X016988Y007503D03*
X016172Y007223D03*
D335*
X016170Y007231D03*
X016170Y007235D03*
X017090Y007783D03*
D336*
X017364Y007419D03*
D337*
X016630Y007439D03*
D338*
X018086Y007439D03*
D339*
X016990Y007455D03*
X016990Y007463D03*
D340*
X016218Y007459D03*
D341*
X016990Y007459D03*
X017110Y007739D03*
D342*
X016340Y007859D03*
X018444Y007459D03*
D343*
X016220Y007479D03*
D344*
X016214Y007559D03*
D345*
X016198Y007615D03*
X016198Y007623D03*
D346*
X016198Y007619D03*
D347*
X018670Y007635D03*
X018670Y007675D03*
D348*
X016202Y007639D03*
D349*
X018670Y007639D03*
D350*
X016208Y007659D03*
D351*
X018668Y007659D03*
D352*
X016216Y007687D03*
X016212Y007675D03*
X016212Y007671D03*
X016208Y007663D03*
D353*
X016320Y007823D03*
X016324Y007827D03*
X016324Y007831D03*
X016352Y007903D03*
X017416Y007671D03*
X017416Y007667D03*
X017416Y007663D03*
D354*
X016226Y007719D03*
X016214Y007679D03*
D355*
X018108Y007679D03*
X018108Y007699D03*
D356*
X016240Y007759D03*
X016220Y007699D03*
D357*
X016912Y007699D03*
D358*
X016244Y007767D03*
X016236Y007751D03*
X016236Y007747D03*
X016224Y007715D03*
X016224Y007711D03*
D359*
X016894Y007719D03*
D360*
X017120Y007719D03*
D361*
X017100Y007759D03*
D362*
X016928Y007879D03*
X016648Y008059D03*
X016308Y007799D03*
X016300Y007779D03*
D363*
X017058Y007823D03*
X017082Y007795D03*
D364*
X016318Y007819D03*
D365*
X016354Y007919D03*
X016942Y007859D03*
D366*
X018598Y007879D03*
D367*
X016922Y007895D03*
D368*
X016924Y007899D03*
X015972Y008279D03*
D369*
X018596Y007899D03*
D370*
X016924Y007915D03*
X015976Y008271D03*
D371*
X015986Y008239D03*
X016922Y007919D03*
D372*
X017346Y007919D03*
D373*
X018586Y007919D03*
D374*
X016648Y008003D03*
X016644Y007923D03*
D375*
X016644Y007927D03*
X016644Y007931D03*
D376*
X016646Y007935D03*
D377*
X016646Y007939D03*
D378*
X016646Y007943D03*
X016646Y007995D03*
D379*
X016648Y007947D03*
D380*
X016646Y007951D03*
X016646Y007991D03*
D381*
X016648Y007955D03*
D382*
X016648Y007959D03*
D383*
X016648Y007963D03*
D384*
X016650Y007967D03*
D385*
X016648Y007971D03*
D386*
X016650Y007975D03*
D387*
X016648Y007979D03*
D388*
X016646Y007983D03*
D389*
X016646Y007999D03*
D390*
X016648Y008007D03*
D391*
X016648Y008011D03*
D392*
X016648Y008015D03*
D393*
X016648Y008019D03*
D394*
X016648Y008039D03*
D395*
X016310Y008079D03*
D396*
X019811Y007501D02*
X019811Y007369D01*
X020338Y006842D01*
X020338Y007105D02*
X020074Y006842D01*
X019942Y006842D01*
X019811Y006973D01*
X019811Y007105D01*
X020074Y007369D01*
X020074Y007501D01*
X019942Y007632D01*
X019811Y007501D01*
X021907Y012079D02*
X022327Y012709D01*
X022552Y012604D02*
X022657Y012709D01*
X022867Y012709D01*
X022972Y012604D01*
X022972Y012499D01*
X022552Y012079D01*
X022972Y012079D01*
X022327Y012079D02*
X021907Y012709D01*
X029375Y007345D02*
X029506Y007476D01*
X029770Y007476D01*
X029902Y007345D01*
X029902Y007213D01*
X029375Y006686D01*
X029902Y006686D01*
X030166Y006817D02*
X030694Y007345D01*
X030694Y006817D01*
X030562Y006686D01*
X030298Y006686D01*
X030166Y006817D01*
X030166Y007345D01*
X030298Y007476D01*
X030562Y007476D01*
X030694Y007345D01*
X030958Y007213D02*
X031222Y007476D01*
X031222Y006686D01*
X031485Y006686D02*
X030958Y006686D01*
X031750Y007081D02*
X032277Y007081D01*
X032145Y007476D02*
X031750Y007081D01*
X032145Y006686D02*
X032145Y007476D01*
D397*
X033681Y010056D02*
X033681Y010286D01*
X033757Y010362D01*
X033911Y010362D01*
X033988Y010286D01*
X033988Y010056D01*
X033988Y010209D02*
X034141Y010362D01*
X033911Y010516D02*
X033911Y010823D01*
X034141Y010746D02*
X033681Y010746D01*
X033911Y010516D01*
X034141Y010056D02*
X033681Y010056D01*
X033711Y011248D02*
X033711Y011708D01*
X033865Y011632D02*
X033865Y011325D01*
X033941Y011248D01*
X034095Y011248D01*
X034171Y011325D01*
X034325Y011248D02*
X034632Y011248D01*
X034478Y011478D02*
X034325Y011478D01*
X034171Y011632D02*
X034095Y011708D01*
X033941Y011708D01*
X033865Y011632D01*
X033711Y011248D02*
X033404Y011708D01*
X033404Y011248D01*
X033251Y011248D02*
X033251Y011555D01*
X033097Y011708D01*
X032944Y011555D01*
X032944Y011248D01*
X032790Y011325D02*
X032714Y011248D01*
X032560Y011248D01*
X032483Y011325D01*
X032330Y011325D02*
X032253Y011248D01*
X032100Y011248D01*
X032023Y011325D01*
X032100Y011478D02*
X032253Y011478D01*
X032330Y011401D01*
X032330Y011325D01*
X032483Y011555D02*
X032560Y011478D01*
X032714Y011478D01*
X032790Y011401D01*
X032790Y011325D01*
X032944Y011478D02*
X033251Y011478D01*
X032790Y011632D02*
X032714Y011708D01*
X032560Y011708D01*
X032483Y011632D01*
X032483Y011555D01*
X032330Y011632D02*
X032253Y011708D01*
X032100Y011708D01*
X032023Y011632D01*
X032023Y011555D01*
X032100Y011478D01*
X031870Y011248D02*
X031716Y011248D01*
X031793Y011248D02*
X031793Y011708D01*
X031716Y011708D02*
X031870Y011708D01*
X031563Y011708D02*
X031563Y011325D01*
X031486Y011248D01*
X031332Y011248D01*
X031256Y011325D01*
X031256Y011708D01*
X031102Y011632D02*
X031025Y011708D01*
X030795Y011708D01*
X030795Y011248D01*
X030795Y011401D02*
X031025Y011401D01*
X031102Y011478D01*
X031102Y011632D01*
X034325Y011708D02*
X034325Y011248D01*
X034325Y011708D02*
X034632Y011708D01*
X033844Y013657D02*
X033537Y013657D01*
X033460Y013734D01*
X033460Y013888D01*
X033537Y013964D01*
X033614Y014118D02*
X033460Y014271D01*
X033921Y014271D01*
X033921Y014118D02*
X033921Y014425D01*
X033844Y013964D02*
X033921Y013888D01*
X033921Y013734D01*
X033844Y013657D01*
X024897Y013709D02*
X024897Y013862D01*
X024820Y013939D01*
X024897Y014092D02*
X024590Y014399D01*
X024513Y014399D01*
X024437Y014322D01*
X024437Y014169D01*
X024513Y014092D01*
X024513Y013939D02*
X024437Y013862D01*
X024437Y013709D01*
X024513Y013632D01*
X024820Y013632D01*
X024897Y013709D01*
X024897Y014092D02*
X024897Y014399D01*
X030279Y019449D02*
X030663Y019449D01*
X030740Y019526D01*
X030740Y019680D01*
X030663Y019756D01*
X030279Y019756D01*
X030356Y019910D02*
X030279Y019987D01*
X030279Y020140D01*
X030356Y020217D01*
X030509Y020140D02*
X030509Y019987D01*
X030433Y019910D01*
X030356Y019910D01*
X030202Y020063D02*
X030816Y020063D01*
X030740Y019987D02*
X030740Y020140D01*
X030663Y020217D01*
X030586Y020217D01*
X030509Y020140D01*
X030509Y020370D02*
X030509Y020600D01*
X030586Y020677D01*
X030663Y020677D01*
X030740Y020600D01*
X030740Y020447D01*
X030663Y020370D01*
X030509Y020370D01*
X030356Y020524D01*
X030279Y020677D01*
X030740Y019987D02*
X030663Y019910D01*
X016263Y014415D02*
X015803Y014415D01*
X016033Y014185D01*
X016033Y014492D01*
X016186Y014031D02*
X016263Y013955D01*
X016263Y013801D01*
X016186Y013724D01*
X015879Y013724D01*
X015803Y013801D01*
X015803Y013955D01*
X015879Y014031D01*
X015419Y010440D02*
X015495Y010364D01*
X015495Y010210D01*
X015419Y010134D01*
X015265Y010134D02*
X015188Y010287D01*
X015188Y010364D01*
X015265Y010440D01*
X015419Y010440D01*
X015035Y010440D02*
X015035Y010134D01*
X015265Y010134D01*
X015112Y009980D02*
X015035Y009903D01*
X015035Y009750D01*
X015112Y009673D01*
X015419Y009673D01*
X015495Y009750D01*
X015495Y009903D01*
X015419Y009980D01*
X012639Y009876D02*
X012639Y009799D01*
X012562Y009722D01*
X012639Y009646D01*
X012639Y009569D01*
X012562Y009492D01*
X012409Y009492D01*
X012332Y009569D01*
X012179Y009569D02*
X012179Y009646D01*
X012102Y009722D01*
X011949Y009722D01*
X011872Y009799D01*
X011872Y009876D01*
X011949Y009952D01*
X012102Y009952D01*
X012179Y009876D01*
X012332Y009876D02*
X012409Y009952D01*
X012562Y009952D01*
X012639Y009876D01*
X012562Y009722D02*
X012486Y009722D01*
X012179Y009569D02*
X012102Y009492D01*
X011949Y009492D01*
X011872Y009569D01*
X011718Y009569D02*
X011718Y009952D01*
X011411Y009952D02*
X011411Y009569D01*
X011488Y009492D01*
X011642Y009492D01*
X011718Y009569D01*
X012025Y009415D02*
X012025Y010029D01*
X010746Y008039D02*
X011053Y007732D01*
X011129Y007732D01*
X011053Y007579D02*
X011129Y007502D01*
X011129Y007349D01*
X011053Y007272D01*
X010746Y007272D01*
X010669Y007349D01*
X010669Y007502D01*
X010746Y007579D01*
X010669Y007732D02*
X010669Y008039D01*
X010746Y008039D01*
X011014Y006488D02*
X011167Y006488D01*
X011090Y006488D02*
X011090Y006027D01*
X011014Y006027D02*
X011167Y006027D01*
X011321Y006027D02*
X011321Y006488D01*
X011628Y006027D01*
X011628Y006488D01*
X011781Y006488D02*
X012011Y006488D01*
X012088Y006411D01*
X012088Y006258D01*
X012011Y006181D01*
X011781Y006181D01*
X011781Y006027D02*
X011781Y006488D01*
X012241Y006488D02*
X012241Y006104D01*
X012318Y006027D01*
X012472Y006027D01*
X012548Y006104D01*
X012548Y006488D01*
X012702Y006488D02*
X013009Y006488D01*
X012855Y006488D02*
X012855Y006027D01*
X007021Y013634D02*
X006714Y013634D01*
X006637Y013711D01*
X006637Y013864D01*
X006714Y013941D01*
X006714Y014094D02*
X006637Y014171D01*
X006637Y014324D01*
X006714Y014401D01*
X006791Y014401D01*
X006868Y014324D01*
X006944Y014401D01*
X007021Y014401D01*
X007098Y014324D01*
X007098Y014171D01*
X007021Y014094D01*
X007021Y013941D02*
X007098Y013864D01*
X007098Y013711D01*
X007021Y013634D01*
X006868Y014248D02*
X006868Y014324D01*
X012582Y019449D02*
X012966Y019449D01*
X013043Y019526D01*
X013043Y019680D01*
X012966Y019756D01*
X012582Y019756D01*
X012659Y019910D02*
X012582Y019987D01*
X012582Y020140D01*
X012659Y020217D01*
X012582Y020370D02*
X012582Y020677D01*
X012659Y020677D01*
X012966Y020370D01*
X013043Y020370D01*
X012966Y020217D02*
X012889Y020217D01*
X012812Y020140D01*
X012812Y019987D01*
X012736Y019910D01*
X012659Y019910D01*
X012506Y020063D02*
X013119Y020063D01*
X013043Y019987D02*
X013043Y020140D01*
X012966Y020217D01*
X013043Y019987D02*
X012966Y019910D01*
X031398Y004181D02*
X031628Y004181D01*
X031705Y004104D01*
X031705Y003951D01*
X031628Y003874D01*
X031398Y003874D01*
X031552Y003874D02*
X031705Y003720D01*
X031858Y003797D02*
X031935Y003720D01*
X032089Y003720D01*
X032165Y003797D01*
X032165Y003874D01*
X032089Y003951D01*
X032012Y003951D01*
X032089Y003951D02*
X032165Y004027D01*
X032165Y004104D01*
X032089Y004181D01*
X031935Y004181D01*
X031858Y004104D01*
X032100Y004295D02*
X032100Y003835D01*
X032406Y003835D01*
X032560Y003911D02*
X032637Y003835D01*
X032790Y003835D01*
X032867Y003911D01*
X032867Y004218D01*
X032790Y004295D01*
X032637Y004295D01*
X032560Y004218D01*
X032560Y003911D01*
X033020Y003911D02*
X033020Y004218D01*
X033097Y004295D01*
X033250Y004295D01*
X033327Y004218D01*
X033327Y004065D02*
X033174Y004065D01*
X033327Y004065D02*
X033327Y003911D01*
X033250Y003835D01*
X033097Y003835D01*
X033020Y003911D01*
X033481Y003835D02*
X033634Y003835D01*
X033557Y003835D02*
X033557Y004295D01*
X033481Y004295D02*
X033634Y004295D01*
X033788Y004218D02*
X033788Y003911D01*
X033864Y003835D01*
X034018Y003835D01*
X034095Y003911D01*
X034095Y004218D02*
X034018Y004295D01*
X033864Y004295D01*
X033788Y004218D01*
X031398Y004181D02*
X031398Y003720D01*
D398*
X033578Y004708D02*
X033647Y004777D01*
X033706Y004718D01*
X033637Y004649D01*
X033578Y004708D01*
X031356Y010765D02*
X031297Y010824D01*
X031366Y010893D01*
X031425Y010834D01*
X031356Y010765D01*
D399*
X031258Y010992D03*
X033746Y004551D03*
D400*
X010797Y004236D02*
X010797Y003842D01*
X014521Y003842D01*
X014521Y004236D01*
X014324Y004236D01*
X014324Y005417D01*
X014521Y005417D01*
X014521Y005811D01*
X010797Y005811D01*
X010797Y005417D01*
X010994Y005417D01*
X010994Y004236D01*
X010797Y004236D01*
X017802Y008568D02*
X017877Y008493D01*
X018027Y008493D01*
X018102Y008568D01*
X018263Y008493D02*
X018563Y008493D01*
X018413Y008493D02*
X018413Y008943D01*
X018263Y008793D01*
X018102Y008868D02*
X018027Y008943D01*
X017877Y008943D01*
X017802Y008868D01*
X017802Y008568D01*
X018723Y008493D02*
X019023Y008493D01*
X018873Y008493D02*
X018873Y008943D01*
X018723Y008793D01*
X019129Y009703D02*
X019129Y010043D01*
X019242Y010043D02*
X019015Y010043D01*
X019374Y010043D02*
X019601Y010043D01*
X019488Y010043D02*
X019488Y009703D01*
X019976Y013519D02*
X020276Y013819D01*
X020276Y013894D01*
X020201Y013969D01*
X020051Y013969D01*
X019976Y013894D01*
X019976Y013519D02*
X020276Y013519D01*
X022926Y013519D02*
X023226Y013519D01*
X023076Y013519D02*
X023076Y013969D01*
X022926Y013819D01*
X028145Y017114D02*
X028145Y021444D01*
X031374Y021444D01*
X031374Y017114D01*
X028145Y017114D01*
X013677Y017114D02*
X013677Y021444D01*
X010448Y021444D01*
X010448Y017114D01*
X013677Y017114D01*
X025914Y005830D02*
X025914Y005379D01*
X025914Y005605D02*
X026215Y005605D01*
X026375Y005605D02*
X026525Y005605D01*
X026375Y005830D02*
X026375Y005379D01*
X026675Y005379D01*
X026835Y005379D02*
X026835Y005680D01*
X026985Y005830D01*
X027135Y005680D01*
X027135Y005379D01*
X027296Y005379D02*
X027521Y005379D01*
X027596Y005454D01*
X027596Y005755D01*
X027521Y005830D01*
X027296Y005830D01*
X027296Y005379D01*
X027135Y005605D02*
X026835Y005605D01*
X026675Y005830D02*
X026375Y005830D01*
X026215Y005830D02*
X026215Y005379D01*
X025015Y005329D02*
X024714Y005329D01*
X024865Y005329D02*
X024865Y005780D01*
X024714Y005630D01*
X027756Y005605D02*
X027906Y005605D01*
X027756Y005830D02*
X027756Y005379D01*
X028056Y005379D01*
X028216Y005379D02*
X028216Y005830D01*
X028442Y005830D01*
X028517Y005755D01*
X028517Y005605D01*
X028442Y005529D01*
X028216Y005529D01*
X028367Y005529D02*
X028517Y005379D01*
X028056Y005830D02*
X027756Y005830D01*
X029714Y005555D02*
X029940Y005555D01*
X030015Y005479D01*
X030015Y005404D01*
X029940Y005329D01*
X029789Y005329D01*
X029714Y005404D01*
X029714Y005555D01*
X029865Y005705D01*
X030015Y005780D01*
D401*
X020758Y010468D03*
D402*
X015185Y007712D02*
X011098Y007712D01*
M02*
