%
M48
M72
T01C0.0236
T02C0.0315
T03C0.0320
T04C0.0394
T05C0.0550
T06C0.0551
T07C0.0591
T08C0.1181
%
T01
X21645Y4405
X24834Y15586
T02
X14637Y19681
X8141Y11137
X11909Y5326
X12909Y5326
X13909Y5326
X13409Y4326
X12409Y4326
X11409Y4326
T03
X19958Y10468
X21958Y10468
X24889Y4704
X25889Y4704
X26889Y4704
X27889Y4704
X28889Y4704
X29889Y4704
T04
X30525Y12811
X29187Y12811
X27848Y12811
X26510Y12811
X27179Y14811
X28517Y14811
X29856Y14811
X31195Y14811
X32533Y14811
X31864Y12811
X33202Y12811
X15452Y12811
X14114Y12811
X12775Y12811
X11437Y12811
X10098Y12811
X8760Y12811
X9429Y14811
X10767Y14811
X12106Y14811
X13445Y14811
X14783Y14811
T05
X19161Y13744
X22161Y13744
T06
X29071Y17311
X30448Y17311
X12752Y17311
X11374Y17311
T07
X10771Y5183
T08
X7551Y3775
X34952Y3775
X34992Y20507
X7551Y20547
M30
