G75*
%MOIN*%
%OFA0B0*%
%FSLAX24Y24*%
%IPPOS*%
%LPD*%
%AMOC8*
5,1,8,0,0,1.08239X$1,22.5*
%
%ADD10C,0.0515*%
%ADD11C,0.0520*%
%ADD12R,0.0300X0.0220*%
%ADD13R,0.0591X0.0512*%
%ADD14R,0.0512X0.0591*%
%ADD15R,0.0630X0.0512*%
%ADD16C,0.0594*%
%ADD17C,0.0600*%
%ADD18C,0.0840*%
%ADD19R,0.0220X0.0780*%
%ADD20C,0.0560*%
%ADD21C,0.0100*%
%ADD22C,0.0317*%
%ADD23C,0.0157*%
%ADD24C,0.0160*%
%ADD25C,0.0320*%
%ADD26C,0.1181*%
D10*
X007303Y006889D03*
X007303Y007889D03*
X007303Y008889D03*
X007303Y009889D03*
X007303Y010889D03*
X007303Y011889D03*
X007303Y012889D03*
X007303Y013889D03*
X007303Y014889D03*
X007303Y015889D03*
X007303Y016889D03*
X007303Y017889D03*
X007303Y018889D03*
X007303Y019889D03*
X007303Y020889D03*
X007303Y021889D03*
X007303Y022889D03*
X007303Y023889D03*
X007303Y024889D03*
X007303Y025889D03*
X016303Y025889D03*
X016303Y024889D03*
X016303Y023889D03*
X016303Y022889D03*
X016303Y021889D03*
X016303Y020889D03*
X016303Y019889D03*
X016303Y018889D03*
X016303Y017889D03*
X016303Y016889D03*
X016303Y015889D03*
X016303Y014889D03*
X016303Y013889D03*
X016303Y012889D03*
X016303Y011889D03*
X016303Y010889D03*
X016303Y009889D03*
X016303Y008889D03*
X016303Y007889D03*
X016303Y006889D03*
D11*
X002633Y011458D03*
X002633Y012458D03*
X002633Y013458D03*
X002633Y014458D03*
X001633Y014958D03*
X001633Y013958D03*
X001633Y012958D03*
X001633Y011958D03*
D12*
X008690Y018038D03*
X008690Y018538D03*
X008690Y019038D03*
X008690Y019538D03*
X010645Y019538D03*
X010645Y019038D03*
X010645Y018538D03*
X010645Y018038D03*
D13*
X013070Y017771D03*
X013070Y018519D03*
D14*
X014830Y017534D03*
X015578Y017534D03*
X015267Y022078D03*
X014519Y022078D03*
X018043Y024838D03*
X018791Y024838D03*
X018728Y013389D03*
X019476Y013389D03*
X011543Y009220D03*
X010873Y009220D03*
X009657Y015751D03*
X008909Y015751D03*
D15*
X009070Y020983D03*
X009070Y021731D03*
D16*
X009559Y028911D02*
X009559Y029505D01*
X008559Y029505D02*
X008559Y028911D01*
X007559Y028911D02*
X007559Y029505D01*
X005952Y029505D02*
X005952Y028911D01*
X004952Y028911D02*
X004952Y029505D01*
X003952Y029505D02*
X003952Y028911D01*
X002430Y023920D02*
X001836Y023920D01*
X001836Y022920D02*
X002430Y022920D01*
X011165Y028911D02*
X011165Y029505D01*
X012165Y029505D02*
X012165Y028911D01*
X013165Y028911D02*
X013165Y029505D01*
X014771Y029505D02*
X014771Y028911D01*
X015771Y028911D02*
X015771Y029505D01*
X016771Y029505D02*
X016771Y028911D01*
X010559Y003760D02*
X010559Y003167D01*
X009559Y003167D02*
X009559Y003760D01*
X008559Y003760D02*
X008559Y003167D01*
X006271Y003167D02*
X006271Y003760D01*
X005271Y003760D02*
X005271Y003167D01*
X004271Y003167D02*
X004271Y003760D01*
D17*
X002366Y017747D02*
X001766Y017747D01*
X001766Y018747D02*
X002366Y018747D01*
X002366Y019747D02*
X001766Y019747D01*
X018609Y020645D02*
X019209Y020645D01*
X019209Y021645D02*
X018609Y021645D01*
X018609Y022645D02*
X019209Y022645D01*
X019209Y023645D02*
X018609Y023645D01*
X018609Y017857D02*
X019209Y017857D01*
X019209Y016857D02*
X018609Y016857D01*
X018609Y015857D02*
X019209Y015857D01*
X019209Y014857D02*
X018609Y014857D01*
D18*
X005120Y008290D02*
X004280Y008290D01*
X004280Y006912D02*
X005120Y006912D01*
D19*
X012990Y012328D03*
X013490Y012328D03*
X013990Y012328D03*
X014490Y012328D03*
X014490Y014268D03*
X013990Y014268D03*
X013490Y014268D03*
X012990Y014268D03*
D20*
X014629Y004184D03*
X014129Y003184D03*
X015129Y003184D03*
X015629Y004184D03*
X016129Y003184D03*
X016629Y004184D03*
D21*
X000841Y002171D02*
X000841Y030496D01*
X020072Y030496D01*
X020072Y023963D01*
X019997Y024038D01*
X019254Y024781D01*
X019254Y025219D01*
X019133Y025340D01*
X018449Y025340D01*
X018417Y025308D01*
X018385Y025340D01*
X017947Y025340D01*
X017376Y025911D01*
X017376Y027099D01*
X017333Y027204D01*
X016432Y028105D01*
X016733Y028407D01*
X016871Y028407D01*
X017057Y028483D01*
X017199Y028625D01*
X017275Y028811D01*
X017275Y029605D01*
X017199Y029790D01*
X017057Y029932D01*
X016871Y030009D01*
X016671Y030009D01*
X016485Y029932D01*
X016344Y029790D01*
X016267Y029605D01*
X016267Y028811D01*
X016285Y028768D01*
X015908Y028392D01*
X014492Y028392D01*
X013669Y029214D01*
X013669Y029605D01*
X013592Y029790D01*
X013451Y029932D01*
X013265Y030009D01*
X013065Y030009D01*
X012879Y029932D01*
X012737Y029790D01*
X012660Y029605D01*
X012660Y028811D01*
X012674Y028779D01*
X012286Y028392D01*
X010909Y028392D01*
X010063Y029238D01*
X010063Y029605D01*
X009986Y029790D01*
X009844Y029932D01*
X009659Y030009D01*
X009458Y030009D01*
X009273Y029932D01*
X009131Y029790D01*
X009054Y029605D01*
X009054Y028811D01*
X009131Y028625D01*
X009273Y028483D01*
X009458Y028407D01*
X009659Y028407D01*
X009844Y028483D01*
X009926Y028565D01*
X010209Y028283D01*
X010150Y028258D01*
X010047Y028155D01*
X009992Y028021D01*
X009992Y027986D01*
X008330Y026325D01*
X008306Y026384D01*
X008203Y026487D01*
X008068Y026542D01*
X008034Y026542D01*
X007999Y026578D01*
X008085Y026614D01*
X008188Y026717D01*
X008244Y026851D01*
X008244Y026997D01*
X008188Y027132D01*
X008085Y027235D01*
X007950Y027290D01*
X007805Y027290D01*
X007670Y027235D01*
X007646Y027210D01*
X005419Y027210D01*
X005314Y027167D01*
X002559Y024413D01*
X002531Y024425D01*
X001736Y024425D01*
X001551Y024348D01*
X001471Y024268D01*
X001471Y024286D01*
X005004Y027819D01*
X006517Y027819D01*
X006622Y027863D01*
X007258Y028498D01*
X007273Y028483D01*
X007458Y028407D01*
X007659Y028407D01*
X007844Y028483D01*
X007986Y028625D01*
X008063Y028811D01*
X008063Y029605D01*
X007986Y029790D01*
X007844Y029932D01*
X007659Y030009D01*
X007458Y030009D01*
X007273Y029932D01*
X007131Y029790D01*
X007054Y029605D01*
X007054Y029104D01*
X006342Y028392D01*
X004828Y028392D01*
X004723Y028348D01*
X004643Y028267D01*
X000983Y024608D01*
X000902Y024527D01*
X000859Y024422D01*
X000859Y024308D01*
X000898Y024213D01*
X000898Y017222D01*
X000942Y017116D01*
X001022Y017036D01*
X003418Y014640D01*
X003418Y014190D01*
X003101Y014507D01*
X003101Y014551D01*
X003030Y014723D01*
X002898Y014854D01*
X002726Y014925D01*
X002540Y014925D01*
X002369Y014854D01*
X002237Y014723D01*
X002166Y014551D01*
X002166Y014365D01*
X002237Y014193D01*
X002369Y014061D01*
X002540Y013990D01*
X002726Y013990D01*
X002784Y014014D01*
X003103Y013695D01*
X003103Y011334D01*
X002798Y011029D01*
X002484Y011029D01*
X002375Y011139D01*
X002418Y011107D01*
X002476Y011078D01*
X002537Y011058D01*
X002601Y011048D01*
X002603Y011048D01*
X002603Y011428D01*
X002223Y011428D01*
X002223Y011425D01*
X002233Y011362D01*
X002253Y011300D01*
X002283Y011243D01*
X002314Y011199D01*
X001943Y011570D01*
X001943Y011606D01*
X002030Y011693D01*
X002101Y011865D01*
X002101Y012051D01*
X002030Y012223D01*
X001898Y012354D01*
X001726Y012425D01*
X001540Y012425D01*
X001369Y012354D01*
X001237Y012223D01*
X001166Y012051D01*
X001166Y011865D01*
X001237Y011693D01*
X001369Y011561D01*
X001371Y011560D01*
X001371Y011395D01*
X001414Y011290D01*
X002123Y010581D01*
X002203Y010500D01*
X002309Y010457D01*
X002974Y010457D01*
X003079Y010500D01*
X003551Y010973D01*
X003632Y011053D01*
X003675Y011159D01*
X003675Y012021D01*
X006838Y008858D01*
X006838Y008796D01*
X006908Y008625D01*
X007039Y008495D01*
X007210Y008424D01*
X007395Y008424D01*
X007566Y008495D01*
X007697Y008625D01*
X007768Y008796D01*
X007768Y008981D01*
X007697Y009152D01*
X007566Y009283D01*
X007395Y009354D01*
X007210Y009354D01*
X007169Y009337D01*
X003990Y012515D01*
X003990Y013084D01*
X006915Y010159D01*
X006908Y010152D01*
X006838Y009981D01*
X006838Y009796D01*
X006908Y009625D01*
X007039Y009495D01*
X007210Y009424D01*
X007395Y009424D01*
X007566Y009495D01*
X007697Y009625D01*
X007768Y009796D01*
X007768Y009981D01*
X007697Y010152D01*
X007566Y010283D01*
X007558Y010286D01*
X007530Y010354D01*
X007441Y010443D01*
X007566Y010495D01*
X007697Y010625D01*
X007768Y010796D01*
X007768Y010981D01*
X007697Y011152D01*
X007566Y011283D01*
X007395Y011354D01*
X007210Y011354D01*
X007039Y011283D01*
X006908Y011152D01*
X006857Y011027D01*
X004305Y013578D01*
X004305Y015091D01*
X004262Y015197D01*
X002338Y017120D01*
X002338Y017155D01*
X002303Y017240D01*
X002467Y017240D01*
X002654Y017317D01*
X002797Y017460D01*
X002799Y017465D01*
X004155Y017465D01*
X004260Y017508D01*
X004341Y017589D01*
X006854Y020103D01*
X006888Y020103D01*
X006838Y019981D01*
X006838Y019796D01*
X006908Y019625D01*
X007039Y019495D01*
X007210Y019424D01*
X007395Y019424D01*
X007518Y019475D01*
X007512Y019461D01*
X007512Y019305D01*
X007395Y019354D01*
X007210Y019354D01*
X007039Y019283D01*
X006908Y019152D01*
X006838Y018981D01*
X006838Y018796D01*
X006908Y018625D01*
X007039Y018495D01*
X007210Y018424D01*
X007395Y018424D01*
X007566Y018495D01*
X007697Y018625D01*
X007744Y018739D01*
X007788Y018695D01*
X007788Y016059D01*
X007751Y016021D01*
X007697Y016152D01*
X007566Y016283D01*
X007395Y016354D01*
X007210Y016354D01*
X007039Y016283D01*
X006908Y016152D01*
X006838Y015981D01*
X006838Y015796D01*
X006908Y015625D01*
X006915Y015619D01*
X006847Y015551D01*
X006536Y015239D01*
X006534Y015242D01*
X006510Y015266D01*
X006510Y016850D01*
X006534Y016874D01*
X006590Y017009D01*
X006590Y017155D01*
X006534Y017289D01*
X006431Y017392D01*
X006297Y017448D01*
X006151Y017448D01*
X006016Y017392D01*
X005913Y017289D01*
X005858Y017155D01*
X005858Y017009D01*
X005913Y016874D01*
X005938Y016850D01*
X005938Y015266D01*
X005913Y015242D01*
X005858Y015107D01*
X005858Y014962D01*
X005913Y014827D01*
X006016Y014724D01*
X006075Y014700D01*
X005752Y014377D01*
X005718Y014377D01*
X005583Y014321D01*
X005480Y014218D01*
X005425Y014084D01*
X005425Y013938D01*
X005480Y013803D01*
X005583Y013700D01*
X005718Y013645D01*
X005864Y013645D01*
X005998Y013700D01*
X006101Y013803D01*
X006157Y013938D01*
X006157Y013972D01*
X006880Y014695D01*
X006908Y014625D01*
X007039Y014495D01*
X007210Y014424D01*
X007395Y014424D01*
X007566Y014495D01*
X007697Y014625D01*
X007768Y014796D01*
X007768Y014981D01*
X007697Y015152D01*
X007694Y015155D01*
X008236Y015697D01*
X008317Y015778D01*
X008360Y015883D01*
X008360Y017815D01*
X008454Y017721D01*
X008926Y017721D01*
X008945Y017740D01*
X008969Y017716D01*
X009104Y017660D01*
X009249Y017660D01*
X009384Y017716D01*
X009487Y017819D01*
X009543Y017954D01*
X009543Y018099D01*
X009487Y018234D01*
X009384Y018337D01*
X009249Y018393D01*
X009104Y018393D01*
X008969Y018337D01*
X008957Y018325D01*
X008953Y018329D01*
X008960Y018336D01*
X008980Y018371D01*
X008990Y018409D01*
X008990Y018533D01*
X008695Y018533D01*
X008695Y018543D01*
X008990Y018543D01*
X008990Y018668D01*
X008980Y018706D01*
X008960Y018741D01*
X008953Y018748D01*
X008969Y018764D01*
X009693Y018764D01*
X009717Y018740D01*
X009829Y018694D01*
X009795Y018611D01*
X009795Y018466D01*
X009850Y018331D01*
X009953Y018228D01*
X010088Y018172D01*
X010234Y018172D01*
X010288Y018195D01*
X010288Y017842D01*
X010347Y017783D01*
X010347Y016885D01*
X009716Y016254D01*
X009315Y016254D01*
X009238Y016177D01*
X009223Y016186D01*
X009185Y016196D01*
X008959Y016196D01*
X008959Y015801D01*
X008859Y015801D01*
X008859Y016196D01*
X008633Y016196D01*
X008595Y016186D01*
X008561Y016166D01*
X008533Y016138D01*
X008513Y016104D01*
X008503Y016066D01*
X008503Y015801D01*
X008859Y015801D01*
X008859Y015701D01*
X008859Y015321D01*
X008990Y015266D01*
X009015Y015242D01*
X009649Y015242D01*
X009655Y015248D01*
X009315Y015248D01*
X009238Y015325D01*
X009223Y015316D01*
X009185Y015306D01*
X008959Y015306D01*
X008959Y015701D01*
X008859Y015701D01*
X008503Y015701D01*
X008503Y015436D01*
X008513Y015398D01*
X008533Y015364D01*
X008561Y015336D01*
X008595Y015316D01*
X008633Y015306D01*
X008671Y015306D01*
X008575Y015266D01*
X008472Y015163D01*
X007702Y015163D01*
X007733Y015064D02*
X008431Y015064D01*
X008417Y015029D02*
X008472Y015163D01*
X008570Y015261D02*
X007800Y015261D01*
X007899Y015360D02*
X008537Y015360D01*
X008503Y015458D02*
X007997Y015458D01*
X008096Y015557D02*
X008503Y015557D01*
X008503Y015655D02*
X008194Y015655D01*
X008293Y015754D02*
X008859Y015754D01*
X008859Y015852D02*
X008959Y015852D01*
X008959Y015951D02*
X008859Y015951D01*
X008859Y016049D02*
X008959Y016049D01*
X008959Y016148D02*
X008859Y016148D01*
X008542Y016148D02*
X008360Y016148D01*
X008360Y016246D02*
X009307Y016246D01*
X009806Y016345D02*
X008360Y016345D01*
X008360Y016443D02*
X009905Y016443D01*
X010003Y016542D02*
X008360Y016542D01*
X008360Y016640D02*
X010102Y016640D01*
X010200Y016739D02*
X008360Y016739D01*
X008360Y016837D02*
X010299Y016837D01*
X010347Y016936D02*
X008360Y016936D01*
X008360Y017034D02*
X010347Y017034D01*
X010347Y017133D02*
X008360Y017133D01*
X008360Y017231D02*
X010347Y017231D01*
X010347Y017330D02*
X008360Y017330D01*
X008360Y017428D02*
X010347Y017428D01*
X010347Y017527D02*
X008360Y017527D01*
X008360Y017625D02*
X010347Y017625D01*
X010347Y017724D02*
X009392Y017724D01*
X009488Y017822D02*
X010308Y017822D01*
X010288Y017921D02*
X009529Y017921D01*
X009543Y018019D02*
X010288Y018019D01*
X010288Y018118D02*
X009535Y018118D01*
X009495Y018216D02*
X009982Y018216D01*
X009867Y018315D02*
X009407Y018315D01*
X009816Y018413D02*
X008990Y018413D01*
X008990Y018512D02*
X009795Y018512D01*
X009795Y018610D02*
X008990Y018610D01*
X008979Y018709D02*
X009792Y018709D01*
X010288Y019683D02*
X010172Y019799D01*
X010172Y021154D01*
X010128Y021260D01*
X009593Y021795D01*
X009593Y022073D01*
X009471Y022195D01*
X008669Y022195D01*
X008548Y022073D01*
X008548Y021389D01*
X008580Y021357D01*
X008548Y021325D01*
X008548Y021266D01*
X008057Y021266D01*
X007952Y021222D01*
X007751Y021021D01*
X007697Y021152D01*
X007566Y021283D01*
X007395Y021354D01*
X007210Y021354D01*
X007039Y021283D01*
X006908Y021152D01*
X006838Y020981D01*
X006838Y020796D01*
X006888Y020675D01*
X006679Y020675D01*
X006574Y020631D01*
X004866Y018924D01*
X004841Y018982D01*
X004817Y019006D01*
X004817Y022711D01*
X006857Y024751D01*
X006908Y024625D01*
X007039Y024495D01*
X007210Y024424D01*
X007395Y024424D01*
X007566Y024495D01*
X007697Y024625D01*
X007768Y024796D01*
X007768Y024981D01*
X007717Y025103D01*
X007856Y025103D01*
X007961Y025146D01*
X010396Y027582D01*
X010431Y027582D01*
X010565Y027637D01*
X010668Y027740D01*
X010706Y027831D01*
X010734Y027819D01*
X012462Y027819D01*
X012567Y027863D01*
X012648Y027943D01*
X013111Y028407D01*
X013265Y028407D01*
X013451Y028483D01*
X013521Y028553D01*
X013595Y028479D01*
X013536Y028455D01*
X013433Y028352D01*
X013377Y028218D01*
X013377Y028183D01*
X008587Y023393D01*
X008553Y023393D01*
X008418Y023337D01*
X008315Y023234D01*
X008259Y023099D01*
X008259Y022954D01*
X008315Y022819D01*
X008418Y022716D01*
X008553Y022660D01*
X008698Y022660D01*
X008833Y022716D01*
X008936Y022819D01*
X008992Y022954D01*
X008992Y022988D01*
X013782Y027778D01*
X013816Y027778D01*
X013951Y027834D01*
X014054Y027937D01*
X014078Y027996D01*
X014211Y027863D01*
X014317Y027819D01*
X015908Y027819D01*
X016804Y026924D01*
X016804Y025847D01*
X016803Y025844D01*
X016803Y025729D01*
X016804Y025726D01*
X016804Y022683D01*
X016781Y022692D01*
X016779Y022692D01*
X016777Y022693D01*
X016724Y022692D01*
X016768Y022796D01*
X016768Y022981D01*
X016697Y023152D01*
X016566Y023283D01*
X016395Y023354D01*
X016210Y023354D01*
X016039Y023283D01*
X015908Y023152D01*
X015838Y022981D01*
X015838Y022796D01*
X015881Y022692D01*
X015748Y022692D01*
X015704Y022696D01*
X015692Y022692D01*
X015679Y022692D01*
X015637Y022675D01*
X015595Y022662D01*
X015585Y022653D01*
X015573Y022648D01*
X015541Y022617D01*
X015498Y022581D01*
X014925Y022581D01*
X014893Y022548D01*
X014861Y022581D01*
X014177Y022581D01*
X014056Y022459D01*
X014056Y022021D01*
X013980Y021945D01*
X013936Y021840D01*
X013936Y020675D01*
X013569Y020675D01*
X013463Y020631D01*
X013383Y020551D01*
X011690Y018858D01*
X011646Y018753D01*
X011646Y016492D01*
X011589Y016434D01*
X011589Y016434D01*
X011589Y018556D01*
X011545Y018661D01*
X011003Y019204D01*
X011003Y019234D01*
X010949Y019288D01*
X011003Y019342D01*
X011003Y019734D01*
X010881Y019856D01*
X010409Y019856D01*
X010288Y019734D01*
X010288Y019683D01*
X010288Y019694D02*
X010277Y019694D01*
X010345Y019792D02*
X010178Y019792D01*
X010172Y019891D02*
X012723Y019891D01*
X012821Y019989D02*
X010172Y019989D01*
X010172Y020088D02*
X012920Y020088D01*
X013018Y020186D02*
X010172Y020186D01*
X010172Y020285D02*
X013117Y020285D01*
X013215Y020383D02*
X010172Y020383D01*
X010172Y020482D02*
X013314Y020482D01*
X013412Y020580D02*
X010172Y020580D01*
X010172Y020679D02*
X013936Y020679D01*
X013936Y020777D02*
X010172Y020777D01*
X010172Y020876D02*
X013936Y020876D01*
X013936Y020974D02*
X010172Y020974D01*
X010172Y021073D02*
X013936Y021073D01*
X013936Y021171D02*
X010165Y021171D01*
X010118Y021270D02*
X013936Y021270D01*
X013936Y021368D02*
X010019Y021368D01*
X009921Y021467D02*
X013936Y021467D01*
X013936Y021565D02*
X009822Y021565D01*
X009724Y021664D02*
X013936Y021664D01*
X013936Y021762D02*
X009625Y021762D01*
X009593Y021861D02*
X013945Y021861D01*
X013994Y021959D02*
X009593Y021959D01*
X009593Y022058D02*
X014056Y022058D01*
X014056Y022156D02*
X009510Y022156D01*
X008864Y022747D02*
X015858Y022747D01*
X015838Y022846D02*
X008947Y022846D01*
X008988Y022944D02*
X015838Y022944D01*
X015863Y023043D02*
X009046Y023043D01*
X009145Y023141D02*
X015904Y023141D01*
X015996Y023240D02*
X009243Y023240D01*
X009342Y023338D02*
X016172Y023338D01*
X016210Y023424D02*
X016395Y023424D01*
X016566Y023495D01*
X016697Y023625D01*
X016768Y023796D01*
X016768Y023981D01*
X016697Y024152D01*
X016566Y024283D01*
X016395Y024354D01*
X016210Y024354D01*
X016039Y024283D01*
X015908Y024152D01*
X015838Y023981D01*
X015838Y023796D01*
X015908Y023625D01*
X016039Y023495D01*
X016210Y023424D01*
X016179Y023437D02*
X009440Y023437D01*
X009539Y023535D02*
X015999Y023535D01*
X015905Y023634D02*
X009637Y023634D01*
X009736Y023732D02*
X015864Y023732D01*
X015838Y023831D02*
X009834Y023831D01*
X009933Y023929D02*
X015838Y023929D01*
X015857Y024028D02*
X010031Y024028D01*
X010130Y024126D02*
X015898Y024126D01*
X015981Y024225D02*
X010228Y024225D01*
X010327Y024323D02*
X016136Y024323D01*
X016210Y024424D02*
X016039Y024495D01*
X015908Y024625D01*
X015838Y024796D01*
X015838Y024981D01*
X015908Y025152D01*
X016039Y025283D01*
X016210Y025354D01*
X016395Y025354D01*
X016566Y025283D01*
X016697Y025152D01*
X016768Y024981D01*
X016768Y024796D01*
X016697Y024625D01*
X016566Y024495D01*
X016395Y024424D01*
X016210Y024424D01*
X016014Y024520D02*
X010524Y024520D01*
X010622Y024619D02*
X015915Y024619D01*
X015870Y024717D02*
X010721Y024717D01*
X010819Y024816D02*
X015838Y024816D01*
X015838Y024914D02*
X010918Y024914D01*
X011016Y025013D02*
X015851Y025013D01*
X015891Y025111D02*
X011115Y025111D01*
X011213Y025210D02*
X015966Y025210D01*
X016100Y025308D02*
X011312Y025308D01*
X011410Y025407D02*
X016804Y025407D01*
X016804Y025505D02*
X016577Y025505D01*
X016566Y025495D02*
X016697Y025625D01*
X016768Y025796D01*
X016768Y025981D01*
X016697Y026152D01*
X016566Y026283D01*
X016395Y026354D01*
X016210Y026354D01*
X016039Y026283D01*
X015908Y026152D01*
X015838Y025981D01*
X015838Y025796D01*
X015908Y025625D01*
X016039Y025495D01*
X016210Y025424D01*
X016395Y025424D01*
X016566Y025495D01*
X016675Y025604D02*
X016804Y025604D01*
X016804Y025702D02*
X016729Y025702D01*
X016768Y025801D02*
X016803Y025801D01*
X016804Y025899D02*
X016768Y025899D01*
X016761Y025998D02*
X016804Y025998D01*
X016804Y026096D02*
X016720Y026096D01*
X016654Y026195D02*
X016804Y026195D01*
X016804Y026293D02*
X016541Y026293D01*
X016804Y026392D02*
X012395Y026392D01*
X012494Y026490D02*
X016804Y026490D01*
X016804Y026589D02*
X012592Y026589D01*
X012691Y026687D02*
X016804Y026687D01*
X016804Y026786D02*
X012789Y026786D01*
X012888Y026884D02*
X016804Y026884D01*
X016745Y026983D02*
X012986Y026983D01*
X013085Y027081D02*
X016646Y027081D01*
X016548Y027180D02*
X013183Y027180D01*
X013282Y027278D02*
X016449Y027278D01*
X016351Y027377D02*
X013380Y027377D01*
X013479Y027475D02*
X016252Y027475D01*
X016154Y027574D02*
X013577Y027574D01*
X013676Y027672D02*
X016055Y027672D01*
X015957Y027771D02*
X013774Y027771D01*
X013986Y027869D02*
X014205Y027869D01*
X014106Y027968D02*
X014067Y027968D01*
X014423Y028460D02*
X014541Y028460D01*
X014485Y028483D02*
X014671Y028407D01*
X014871Y028407D01*
X015057Y028483D01*
X015199Y028625D01*
X015275Y028811D01*
X015275Y029605D01*
X015199Y029790D01*
X015057Y029932D01*
X014871Y030009D01*
X014671Y030009D01*
X014485Y029932D01*
X014344Y029790D01*
X014267Y029605D01*
X014267Y028811D01*
X014344Y028625D01*
X014485Y028483D01*
X014410Y028559D02*
X014325Y028559D01*
X014330Y028657D02*
X014226Y028657D01*
X014290Y028756D02*
X014128Y028756D01*
X014029Y028854D02*
X014267Y028854D01*
X014267Y028953D02*
X013931Y028953D01*
X013832Y029051D02*
X014267Y029051D01*
X014267Y029150D02*
X013734Y029150D01*
X013669Y029248D02*
X014267Y029248D01*
X014267Y029347D02*
X013669Y029347D01*
X013669Y029445D02*
X014267Y029445D01*
X014267Y029544D02*
X013669Y029544D01*
X013654Y029642D02*
X014282Y029642D01*
X014323Y029741D02*
X013613Y029741D01*
X013543Y029839D02*
X014393Y029839D01*
X014499Y029938D02*
X013437Y029938D01*
X012893Y029938D02*
X012278Y029938D01*
X012269Y029940D02*
X012336Y029919D01*
X012399Y029887D01*
X012456Y029845D01*
X012506Y029796D01*
X012547Y029739D01*
X012579Y029676D01*
X012601Y029609D01*
X012612Y029540D01*
X012612Y029256D01*
X012213Y029256D01*
X012116Y029256D01*
X012116Y029159D01*
X011718Y029159D01*
X011718Y028876D01*
X011729Y028806D01*
X011751Y028739D01*
X011783Y028677D01*
X011824Y028620D01*
X011874Y028570D01*
X011931Y028529D01*
X011993Y028497D01*
X012060Y028475D01*
X012116Y028466D01*
X012116Y029159D01*
X012213Y029159D01*
X012213Y028466D01*
X012269Y028475D01*
X012336Y028497D01*
X012399Y028529D01*
X012456Y028570D01*
X012506Y028620D01*
X012547Y028677D01*
X012579Y028739D01*
X012601Y028806D01*
X012612Y028876D01*
X012612Y029159D01*
X012213Y029159D01*
X012213Y029256D01*
X012213Y029949D01*
X012269Y029940D01*
X012213Y029938D02*
X012116Y029938D01*
X012116Y029949D02*
X012060Y029940D01*
X011993Y029919D01*
X011931Y029887D01*
X011874Y029845D01*
X011824Y029796D01*
X011783Y029739D01*
X011751Y029676D01*
X011729Y029609D01*
X011718Y029540D01*
X011718Y029256D01*
X012116Y029256D01*
X012116Y029949D01*
X012052Y029938D02*
X011437Y029938D01*
X011451Y029932D02*
X011265Y030009D01*
X011065Y030009D01*
X010879Y029932D01*
X010737Y029790D01*
X010660Y029605D01*
X010660Y028811D01*
X010737Y028625D01*
X010879Y028483D01*
X011065Y028407D01*
X011265Y028407D01*
X011451Y028483D01*
X011592Y028625D01*
X011669Y028811D01*
X011669Y029605D01*
X011592Y029790D01*
X011451Y029932D01*
X011543Y029839D02*
X011868Y029839D01*
X011784Y029741D02*
X011613Y029741D01*
X011654Y029642D02*
X011740Y029642D01*
X011719Y029544D02*
X011669Y029544D01*
X011669Y029445D02*
X011718Y029445D01*
X011718Y029347D02*
X011669Y029347D01*
X011669Y029248D02*
X012116Y029248D01*
X012213Y029248D02*
X012660Y029248D01*
X012660Y029150D02*
X012612Y029150D01*
X012612Y029051D02*
X012660Y029051D01*
X012660Y028953D02*
X012612Y028953D01*
X012608Y028854D02*
X012660Y028854D01*
X012651Y028756D02*
X012584Y028756D01*
X012552Y028657D02*
X012533Y028657D01*
X012454Y028559D02*
X012440Y028559D01*
X012355Y028460D02*
X011395Y028460D01*
X011526Y028559D02*
X011889Y028559D01*
X011797Y028657D02*
X011606Y028657D01*
X011646Y028756D02*
X011745Y028756D01*
X011721Y028854D02*
X011669Y028854D01*
X011669Y028953D02*
X011718Y028953D01*
X011718Y029051D02*
X011669Y029051D01*
X011669Y029150D02*
X011718Y029150D01*
X012116Y029150D02*
X012213Y029150D01*
X012213Y029051D02*
X012116Y029051D01*
X012116Y028953D02*
X012213Y028953D01*
X012213Y028854D02*
X012116Y028854D01*
X012116Y028756D02*
X012213Y028756D01*
X012213Y028657D02*
X012116Y028657D01*
X012116Y028559D02*
X012213Y028559D01*
X012672Y027968D02*
X013162Y027968D01*
X013260Y028066D02*
X012771Y028066D01*
X012869Y028165D02*
X013359Y028165D01*
X013396Y028263D02*
X012968Y028263D01*
X013066Y028362D02*
X013443Y028362D01*
X013395Y028460D02*
X013548Y028460D01*
X013063Y027869D02*
X012574Y027869D01*
X012866Y027672D02*
X010600Y027672D01*
X010681Y027771D02*
X012965Y027771D01*
X012768Y027574D02*
X010388Y027574D01*
X010290Y027475D02*
X012669Y027475D01*
X012571Y027377D02*
X010191Y027377D01*
X010093Y027278D02*
X012472Y027278D01*
X012374Y027180D02*
X009994Y027180D01*
X009896Y027081D02*
X012275Y027081D01*
X012177Y026983D02*
X009797Y026983D01*
X009699Y026884D02*
X012078Y026884D01*
X011980Y026786D02*
X009600Y026786D01*
X009502Y026687D02*
X011881Y026687D01*
X011783Y026589D02*
X009403Y026589D01*
X009305Y026490D02*
X011684Y026490D01*
X011586Y026392D02*
X009206Y026392D01*
X009108Y026293D02*
X011487Y026293D01*
X011389Y026195D02*
X009009Y026195D01*
X008911Y026096D02*
X011290Y026096D01*
X011192Y025998D02*
X008812Y025998D01*
X008714Y025899D02*
X011093Y025899D01*
X010995Y025801D02*
X008615Y025801D01*
X008517Y025702D02*
X010896Y025702D01*
X010798Y025604D02*
X008418Y025604D01*
X008320Y025505D02*
X010699Y025505D01*
X010601Y025407D02*
X008221Y025407D01*
X008123Y025308D02*
X010502Y025308D01*
X010404Y025210D02*
X008024Y025210D01*
X007876Y025111D02*
X010305Y025111D01*
X010207Y025013D02*
X007755Y025013D01*
X007768Y024914D02*
X010108Y024914D01*
X010010Y024816D02*
X007768Y024816D01*
X007735Y024717D02*
X009911Y024717D01*
X009813Y024619D02*
X007690Y024619D01*
X007592Y024520D02*
X009714Y024520D01*
X009616Y024422D02*
X006528Y024422D01*
X006626Y024520D02*
X007014Y024520D01*
X006915Y024619D02*
X006725Y024619D01*
X006823Y024717D02*
X006870Y024717D01*
X007039Y024283D02*
X006908Y024152D01*
X006838Y023981D01*
X006838Y023796D01*
X006908Y023625D01*
X007039Y023495D01*
X007210Y023424D01*
X007395Y023424D01*
X007566Y023495D01*
X007697Y023625D01*
X007768Y023796D01*
X007768Y023981D01*
X007697Y024152D01*
X007566Y024283D01*
X007395Y024354D01*
X007210Y024354D01*
X007039Y024283D01*
X006981Y024225D02*
X006331Y024225D01*
X006429Y024323D02*
X007136Y024323D01*
X006898Y024126D02*
X006232Y024126D01*
X006134Y024028D02*
X006857Y024028D01*
X006838Y023929D02*
X006035Y023929D01*
X005937Y023831D02*
X006838Y023831D01*
X006864Y023732D02*
X005838Y023732D01*
X005740Y023634D02*
X006905Y023634D01*
X006999Y023535D02*
X005641Y023535D01*
X005543Y023437D02*
X007179Y023437D01*
X007210Y023354D02*
X007039Y023283D01*
X006908Y023152D01*
X006838Y022981D01*
X006838Y022796D01*
X006908Y022625D01*
X007039Y022495D01*
X007210Y022424D01*
X007395Y022424D01*
X007566Y022495D01*
X007697Y022625D01*
X007768Y022796D01*
X007768Y022981D01*
X007697Y023152D01*
X007566Y023283D01*
X007395Y023354D01*
X007210Y023354D01*
X007172Y023338D02*
X005444Y023338D01*
X005346Y023240D02*
X006996Y023240D01*
X006904Y023141D02*
X005247Y023141D01*
X005149Y023043D02*
X006863Y023043D01*
X006838Y022944D02*
X005050Y022944D01*
X004952Y022846D02*
X006838Y022846D01*
X006858Y022747D02*
X004853Y022747D01*
X004817Y022649D02*
X006899Y022649D01*
X006984Y022550D02*
X004817Y022550D01*
X004817Y022452D02*
X007143Y022452D01*
X007209Y022353D02*
X005958Y022353D01*
X005959Y022353D02*
X005824Y022409D01*
X005679Y022409D01*
X005544Y022353D01*
X005441Y022250D01*
X005385Y022115D01*
X005385Y021969D01*
X005441Y021835D01*
X005544Y021732D01*
X005679Y021676D01*
X005824Y021676D01*
X005959Y021732D01*
X006062Y021835D01*
X006118Y021969D01*
X006118Y022115D01*
X006062Y022250D01*
X005959Y022353D01*
X006057Y022255D02*
X007011Y022255D01*
X007039Y022283D02*
X006908Y022152D01*
X006838Y021981D01*
X006838Y021796D01*
X006908Y021625D01*
X007039Y021495D01*
X007210Y021424D01*
X007395Y021424D01*
X007566Y021495D01*
X007697Y021625D01*
X007768Y021796D01*
X007768Y021981D01*
X007697Y022152D01*
X007566Y022283D01*
X007395Y022354D01*
X007210Y022354D01*
X007039Y022283D01*
X006912Y022156D02*
X006101Y022156D01*
X006118Y022058D02*
X006869Y022058D01*
X006838Y021959D02*
X006113Y021959D01*
X006073Y021861D02*
X006838Y021861D01*
X006852Y021762D02*
X005989Y021762D01*
X005545Y022353D02*
X004817Y022353D01*
X004817Y022255D02*
X005446Y022255D01*
X005402Y022156D02*
X004817Y022156D01*
X004817Y022058D02*
X005385Y022058D01*
X005390Y021959D02*
X004817Y021959D01*
X004817Y021861D02*
X005430Y021861D01*
X005514Y021762D02*
X004817Y021762D01*
X004817Y021664D02*
X006893Y021664D01*
X006969Y021565D02*
X004817Y021565D01*
X004817Y021467D02*
X007107Y021467D01*
X007026Y021270D02*
X004817Y021270D01*
X004817Y021368D02*
X008569Y021368D01*
X008548Y021270D02*
X007579Y021270D01*
X007678Y021171D02*
X007901Y021171D01*
X007802Y021073D02*
X007730Y021073D01*
X007498Y021467D02*
X008548Y021467D01*
X008548Y021565D02*
X007637Y021565D01*
X007713Y021664D02*
X008548Y021664D01*
X008548Y021762D02*
X007753Y021762D01*
X007768Y021861D02*
X008548Y021861D01*
X008548Y021959D02*
X007768Y021959D01*
X007736Y022058D02*
X008548Y022058D01*
X008631Y022156D02*
X007693Y022156D01*
X007594Y022255D02*
X014056Y022255D01*
X014056Y022353D02*
X007397Y022353D01*
X007462Y022452D02*
X014056Y022452D01*
X014147Y022550D02*
X007622Y022550D01*
X007706Y022649D02*
X015574Y022649D01*
X014895Y022550D02*
X014891Y022550D01*
X014284Y020103D02*
X015888Y020103D01*
X015838Y019981D01*
X015838Y019796D01*
X015908Y019625D01*
X016039Y019495D01*
X016210Y019424D01*
X016395Y019424D01*
X016566Y019495D01*
X016697Y019625D01*
X016768Y019796D01*
X016768Y019981D01*
X016747Y020030D01*
X016806Y020054D01*
X016819Y020024D01*
X016922Y019921D01*
X017057Y019865D01*
X017202Y019865D01*
X017337Y019921D01*
X017440Y020024D01*
X017496Y020158D01*
X017496Y020304D01*
X017440Y020439D01*
X017416Y020463D01*
X017416Y021241D01*
X017425Y021263D01*
X018101Y020587D01*
X018101Y020544D01*
X018179Y020357D01*
X018321Y020214D01*
X018508Y020137D01*
X019310Y020137D01*
X019496Y020214D01*
X019639Y020357D01*
X019716Y020544D01*
X019716Y020746D01*
X019639Y020932D01*
X019496Y021075D01*
X019328Y021145D01*
X019496Y021214D01*
X019639Y021357D01*
X019716Y021544D01*
X019716Y021746D01*
X019639Y021932D01*
X019496Y022075D01*
X019328Y022145D01*
X019419Y022182D01*
X019717Y021884D01*
X019717Y020429D01*
X017556Y018267D01*
X017512Y018162D01*
X017512Y017576D01*
X017450Y017601D01*
X017418Y017601D01*
X017347Y017672D01*
X017242Y017716D01*
X016734Y017716D01*
X016768Y017796D01*
X016768Y017981D01*
X016697Y018152D01*
X016566Y018283D01*
X016395Y018354D01*
X016210Y018354D01*
X016039Y018283D01*
X015908Y018152D01*
X015861Y018037D01*
X015236Y018037D01*
X015204Y018005D01*
X015172Y018037D01*
X014980Y018037D01*
X014980Y018694D01*
X014936Y018800D01*
X014542Y019193D01*
X014462Y019274D01*
X014356Y019318D01*
X013525Y019318D01*
X013419Y019274D01*
X013127Y018982D01*
X012689Y018982D01*
X012640Y018933D01*
X012593Y018952D01*
X013744Y020103D01*
X014164Y020103D01*
X014167Y020101D01*
X014281Y020101D01*
X014284Y020103D01*
X013729Y020088D02*
X015882Y020088D01*
X015841Y019989D02*
X013631Y019989D01*
X013532Y019891D02*
X015838Y019891D01*
X015839Y019792D02*
X013434Y019792D01*
X013335Y019694D02*
X015880Y019694D01*
X015939Y019595D02*
X013237Y019595D01*
X013138Y019497D02*
X016037Y019497D01*
X016079Y019300D02*
X014400Y019300D01*
X014535Y019201D02*
X015957Y019201D01*
X015908Y019152D02*
X015838Y018981D01*
X015838Y018796D01*
X015908Y018625D01*
X016039Y018495D01*
X016210Y018424D01*
X016395Y018424D01*
X016566Y018495D01*
X016697Y018625D01*
X016768Y018796D01*
X016768Y018981D01*
X016697Y019152D01*
X016566Y019283D01*
X016395Y019354D01*
X016210Y019354D01*
X016039Y019283D01*
X015908Y019152D01*
X015888Y019103D02*
X014633Y019103D01*
X014732Y019004D02*
X015847Y019004D01*
X015838Y018906D02*
X014830Y018906D01*
X014929Y018807D02*
X015838Y018807D01*
X015874Y018709D02*
X014974Y018709D01*
X014980Y018610D02*
X015924Y018610D01*
X016022Y018512D02*
X014980Y018512D01*
X014980Y018413D02*
X017702Y018413D01*
X017800Y018512D02*
X016583Y018512D01*
X016682Y018610D02*
X017899Y018610D01*
X017997Y018709D02*
X016731Y018709D01*
X016768Y018807D02*
X018096Y018807D01*
X018194Y018906D02*
X016768Y018906D01*
X016758Y019004D02*
X018293Y019004D01*
X018391Y019103D02*
X016717Y019103D01*
X016648Y019201D02*
X018490Y019201D01*
X018588Y019300D02*
X016526Y019300D01*
X016568Y019497D02*
X018785Y019497D01*
X018884Y019595D02*
X016667Y019595D01*
X016725Y019694D02*
X018982Y019694D01*
X019081Y019792D02*
X016766Y019792D01*
X016768Y019891D02*
X016995Y019891D01*
X016854Y019989D02*
X016764Y019989D01*
X017264Y019891D02*
X019179Y019891D01*
X019278Y019989D02*
X017405Y019989D01*
X017466Y020088D02*
X019376Y020088D01*
X019428Y020186D02*
X019475Y020186D01*
X019567Y020285D02*
X019573Y020285D01*
X019650Y020383D02*
X019672Y020383D01*
X019691Y020482D02*
X019717Y020482D01*
X019716Y020580D02*
X019717Y020580D01*
X019716Y020679D02*
X019717Y020679D01*
X019703Y020777D02*
X019717Y020777D01*
X019717Y020876D02*
X019663Y020876D01*
X019717Y020974D02*
X019597Y020974D01*
X019499Y021073D02*
X019717Y021073D01*
X019717Y021171D02*
X019392Y021171D01*
X019552Y021270D02*
X019717Y021270D01*
X019717Y021368D02*
X019644Y021368D01*
X019684Y021467D02*
X019717Y021467D01*
X019716Y021565D02*
X019717Y021565D01*
X019716Y021664D02*
X019717Y021664D01*
X019710Y021762D02*
X019717Y021762D01*
X019717Y021861D02*
X019669Y021861D01*
X019642Y021959D02*
X019612Y021959D01*
X019544Y022058D02*
X019514Y022058D01*
X019445Y022156D02*
X019356Y022156D01*
X019429Y023103D02*
X019310Y023152D01*
X018508Y023152D01*
X018321Y023075D01*
X018179Y022932D01*
X018101Y022746D01*
X018101Y022544D01*
X018179Y022357D01*
X018321Y022214D01*
X018490Y022145D01*
X018321Y022075D01*
X018179Y021932D01*
X018101Y021746D01*
X018101Y021544D01*
X018179Y021357D01*
X018321Y021214D01*
X018490Y021145D01*
X018393Y021105D01*
X017376Y022122D01*
X017376Y025098D01*
X017579Y024894D01*
X017579Y024456D01*
X017701Y024335D01*
X018385Y024335D01*
X018417Y024367D01*
X018449Y024335D01*
X018887Y024335D01*
X019127Y024095D01*
X018959Y024095D01*
X018959Y023695D01*
X018859Y023695D01*
X018859Y024095D01*
X018574Y024095D01*
X018504Y024084D01*
X018436Y024062D01*
X018373Y024030D01*
X018316Y023988D01*
X018266Y023938D01*
X018224Y023881D01*
X018192Y023817D01*
X018170Y023750D01*
X018161Y023695D01*
X018859Y023695D01*
X018859Y023595D01*
X018161Y023595D01*
X018170Y023539D01*
X018192Y023472D01*
X018224Y023409D01*
X018266Y023352D01*
X018316Y023301D01*
X018373Y023260D01*
X018436Y023228D01*
X018504Y023206D01*
X018574Y023195D01*
X018859Y023195D01*
X018859Y023595D01*
X018959Y023595D01*
X018959Y023195D01*
X019244Y023195D01*
X019314Y023206D01*
X019382Y023228D01*
X019445Y023260D01*
X019502Y023301D01*
X019547Y023346D01*
X019547Y023220D01*
X019429Y023103D01*
X019467Y023141D02*
X019336Y023141D01*
X019405Y023240D02*
X019547Y023240D01*
X019539Y023338D02*
X019547Y023338D01*
X020007Y024028D02*
X020072Y024028D01*
X020072Y024126D02*
X019909Y024126D01*
X019810Y024225D02*
X020072Y024225D01*
X020072Y024323D02*
X019712Y024323D01*
X019613Y024422D02*
X020072Y024422D01*
X020072Y024520D02*
X019515Y024520D01*
X019416Y024619D02*
X020072Y024619D01*
X020072Y024717D02*
X019318Y024717D01*
X019254Y024816D02*
X020072Y024816D01*
X020072Y024914D02*
X019254Y024914D01*
X019254Y025013D02*
X020072Y025013D01*
X020072Y025111D02*
X019254Y025111D01*
X019254Y025210D02*
X020072Y025210D01*
X020072Y025308D02*
X019165Y025308D01*
X018899Y024323D02*
X017376Y024323D01*
X017376Y024225D02*
X018997Y024225D01*
X019096Y024126D02*
X017376Y024126D01*
X017376Y024028D02*
X018370Y024028D01*
X018259Y023929D02*
X017376Y023929D01*
X017376Y023831D02*
X018199Y023831D01*
X018167Y023732D02*
X017376Y023732D01*
X017376Y023634D02*
X018859Y023634D01*
X018859Y023732D02*
X018959Y023732D01*
X018959Y023831D02*
X018859Y023831D01*
X018859Y023929D02*
X018959Y023929D01*
X018959Y024028D02*
X018859Y024028D01*
X018859Y023535D02*
X018959Y023535D01*
X018959Y023437D02*
X018859Y023437D01*
X018859Y023338D02*
X018959Y023338D01*
X018959Y023240D02*
X018859Y023240D01*
X018481Y023141D02*
X017376Y023141D01*
X017376Y023043D02*
X018289Y023043D01*
X018191Y022944D02*
X017376Y022944D01*
X017376Y022846D02*
X018143Y022846D01*
X018102Y022747D02*
X017376Y022747D01*
X017376Y022649D02*
X018101Y022649D01*
X018101Y022550D02*
X017376Y022550D01*
X017376Y022452D02*
X018140Y022452D01*
X018183Y022353D02*
X017376Y022353D01*
X017376Y022255D02*
X018281Y022255D01*
X018304Y022058D02*
X017440Y022058D01*
X017376Y022156D02*
X018462Y022156D01*
X018206Y021959D02*
X017539Y021959D01*
X017637Y021861D02*
X018149Y021861D01*
X018108Y021762D02*
X017736Y021762D01*
X017834Y021664D02*
X018101Y021664D01*
X018101Y021565D02*
X017933Y021565D01*
X018031Y021467D02*
X018133Y021467D01*
X018130Y021368D02*
X018174Y021368D01*
X018228Y021270D02*
X018266Y021270D01*
X018327Y021171D02*
X018426Y021171D01*
X018101Y020580D02*
X017416Y020580D01*
X017416Y020482D02*
X018127Y020482D01*
X018168Y020383D02*
X017463Y020383D01*
X017496Y020285D02*
X018251Y020285D01*
X018390Y020186D02*
X017496Y020186D01*
X017416Y020679D02*
X018010Y020679D01*
X017911Y020777D02*
X017416Y020777D01*
X017416Y020876D02*
X017813Y020876D01*
X017714Y020974D02*
X017416Y020974D01*
X017416Y021073D02*
X017616Y021073D01*
X017517Y021171D02*
X017416Y021171D01*
X016804Y022747D02*
X016747Y022747D01*
X016768Y022846D02*
X016804Y022846D01*
X016804Y022944D02*
X016768Y022944D01*
X016742Y023043D02*
X016804Y023043D01*
X016804Y023141D02*
X016701Y023141D01*
X016609Y023240D02*
X016804Y023240D01*
X016804Y023338D02*
X016433Y023338D01*
X016426Y023437D02*
X016804Y023437D01*
X016804Y023535D02*
X016607Y023535D01*
X016700Y023634D02*
X016804Y023634D01*
X016804Y023732D02*
X016741Y023732D01*
X016768Y023831D02*
X016804Y023831D01*
X016804Y023929D02*
X016768Y023929D01*
X016748Y024028D02*
X016804Y024028D01*
X016804Y024126D02*
X016708Y024126D01*
X016624Y024225D02*
X016804Y024225D01*
X016804Y024323D02*
X016469Y024323D01*
X016592Y024520D02*
X016804Y024520D01*
X016804Y024422D02*
X010425Y024422D01*
X009517Y024323D02*
X007469Y024323D01*
X007624Y024225D02*
X009419Y024225D01*
X009320Y024126D02*
X007708Y024126D01*
X007748Y024028D02*
X009222Y024028D01*
X009123Y023929D02*
X007768Y023929D01*
X007768Y023831D02*
X009025Y023831D01*
X008926Y023732D02*
X007741Y023732D01*
X007700Y023634D02*
X008828Y023634D01*
X008729Y023535D02*
X007607Y023535D01*
X007426Y023437D02*
X008631Y023437D01*
X008421Y023338D02*
X007433Y023338D01*
X007609Y023240D02*
X008321Y023240D01*
X008277Y023141D02*
X007701Y023141D01*
X007742Y023043D02*
X008259Y023043D01*
X008263Y022944D02*
X007768Y022944D01*
X007768Y022846D02*
X008304Y022846D01*
X008387Y022747D02*
X007747Y022747D01*
X006927Y021171D02*
X004817Y021171D01*
X004817Y021073D02*
X006876Y021073D01*
X006838Y020974D02*
X004817Y020974D01*
X004817Y020876D02*
X006838Y020876D01*
X006846Y020777D02*
X004817Y020777D01*
X004817Y020679D02*
X006886Y020679D01*
X006882Y020088D02*
X006839Y020088D01*
X006841Y019989D02*
X006741Y019989D01*
X006838Y019891D02*
X006642Y019891D01*
X006544Y019792D02*
X006839Y019792D01*
X006880Y019694D02*
X006445Y019694D01*
X006347Y019595D02*
X006939Y019595D01*
X007037Y019497D02*
X006248Y019497D01*
X006150Y019398D02*
X007512Y019398D01*
X007079Y019300D02*
X006051Y019300D01*
X005953Y019201D02*
X006957Y019201D01*
X006888Y019103D02*
X005854Y019103D01*
X005756Y019004D02*
X006847Y019004D01*
X006838Y018906D02*
X005657Y018906D01*
X005559Y018807D02*
X006838Y018807D01*
X006874Y018709D02*
X005460Y018709D01*
X005362Y018610D02*
X006924Y018610D01*
X007022Y018512D02*
X005263Y018512D01*
X005165Y018413D02*
X007788Y018413D01*
X007788Y018315D02*
X007490Y018315D01*
X007566Y018283D02*
X007395Y018354D01*
X007210Y018354D01*
X007039Y018283D01*
X006908Y018152D01*
X006838Y017981D01*
X006838Y017796D01*
X006908Y017625D01*
X007039Y017495D01*
X007210Y017424D01*
X007395Y017424D01*
X007566Y017495D01*
X007697Y017625D01*
X007768Y017796D01*
X007768Y017981D01*
X007697Y018152D01*
X007566Y018283D01*
X007633Y018216D02*
X007788Y018216D01*
X007788Y018118D02*
X007711Y018118D01*
X007752Y018019D02*
X007788Y018019D01*
X007788Y017921D02*
X007768Y017921D01*
X007768Y017822D02*
X007788Y017822D01*
X007788Y017724D02*
X007737Y017724D01*
X007697Y017625D02*
X007788Y017625D01*
X007788Y017527D02*
X007598Y017527D01*
X007788Y017428D02*
X007405Y017428D01*
X007395Y017354D02*
X007210Y017354D01*
X007039Y017283D01*
X006908Y017152D01*
X006838Y016981D01*
X006838Y016796D01*
X006908Y016625D01*
X007039Y016495D01*
X007210Y016424D01*
X007395Y016424D01*
X007566Y016495D01*
X007697Y016625D01*
X007768Y016796D01*
X007768Y016981D01*
X007697Y017152D01*
X007566Y017283D01*
X007395Y017354D01*
X007453Y017330D02*
X007788Y017330D01*
X007788Y017231D02*
X007618Y017231D01*
X007705Y017133D02*
X007788Y017133D01*
X007788Y017034D02*
X007746Y017034D01*
X007768Y016936D02*
X007788Y016936D01*
X007788Y016837D02*
X007768Y016837D01*
X007744Y016739D02*
X007788Y016739D01*
X007788Y016640D02*
X007703Y016640D01*
X007788Y016542D02*
X007613Y016542D01*
X007442Y016443D02*
X007788Y016443D01*
X007788Y016345D02*
X007417Y016345D01*
X007603Y016246D02*
X007788Y016246D01*
X007788Y016148D02*
X007699Y016148D01*
X007739Y016049D02*
X007779Y016049D01*
X008360Y016049D02*
X008503Y016049D01*
X008503Y015951D02*
X008360Y015951D01*
X008348Y015852D02*
X008503Y015852D01*
X008859Y015655D02*
X008959Y015655D01*
X008959Y015557D02*
X008859Y015557D01*
X008859Y015458D02*
X008959Y015458D01*
X008959Y015360D02*
X008859Y015360D01*
X008995Y015261D02*
X009302Y015261D01*
X009015Y014670D02*
X008990Y014645D01*
X008856Y014590D01*
X008710Y014590D01*
X008575Y014645D01*
X008472Y014748D01*
X008417Y014883D01*
X008417Y015029D01*
X008417Y014966D02*
X007768Y014966D01*
X007768Y014867D02*
X008423Y014867D01*
X008464Y014769D02*
X007756Y014769D01*
X007715Y014670D02*
X008551Y014670D01*
X009015Y014670D02*
X009824Y014670D01*
X009824Y014670D01*
X007475Y012321D01*
X007395Y012354D01*
X007210Y012354D01*
X007039Y012283D01*
X006908Y012152D01*
X006838Y011981D01*
X006838Y011796D01*
X006908Y011625D01*
X007039Y011495D01*
X007210Y011424D01*
X007395Y011424D01*
X007566Y011495D01*
X007697Y011625D01*
X007768Y011796D01*
X007768Y011803D01*
X012095Y016130D01*
X012175Y016211D01*
X012219Y016316D01*
X012219Y017021D01*
X012709Y016530D01*
X012709Y014781D01*
X012672Y014744D01*
X012672Y013792D01*
X012794Y013671D01*
X012813Y013671D01*
X012873Y013611D01*
X013109Y013374D01*
X013214Y013331D01*
X013940Y013331D01*
X014345Y012926D01*
X014294Y012926D01*
X014240Y012872D01*
X014186Y012926D01*
X013794Y012926D01*
X013740Y012872D01*
X013686Y012926D01*
X013294Y012926D01*
X013240Y012872D01*
X013186Y012926D01*
X012794Y012926D01*
X012672Y012804D01*
X012672Y012439D01*
X011336Y011102D01*
X011292Y010997D01*
X011292Y010321D01*
X010380Y010321D01*
X010274Y010277D01*
X007912Y007915D01*
X007832Y007834D01*
X007788Y007729D01*
X007788Y006630D01*
X007787Y006627D01*
X007787Y006331D01*
X007512Y006055D01*
X007144Y006055D01*
X006509Y006691D01*
X006509Y007265D01*
X006453Y007400D01*
X006349Y007503D01*
X005730Y008123D01*
X005748Y008166D01*
X005748Y008415D01*
X005652Y008646D01*
X005476Y008822D01*
X005245Y008918D01*
X004155Y008918D01*
X003925Y008822D01*
X003748Y008646D01*
X003653Y008415D01*
X003653Y008166D01*
X003748Y007935D01*
X003925Y007758D01*
X004155Y007663D01*
X005151Y007663D01*
X005294Y007520D01*
X005245Y007540D01*
X004155Y007540D01*
X003925Y007444D01*
X003748Y007268D01*
X003653Y007037D01*
X003653Y006788D01*
X003748Y006557D01*
X003925Y006380D01*
X004155Y006285D01*
X005245Y006285D01*
X005476Y006380D01*
X005652Y006557D01*
X005748Y006788D01*
X005748Y007037D01*
X005728Y007086D01*
X005728Y007086D01*
X005774Y007040D01*
X005774Y006465D01*
X005830Y006330D01*
X006275Y005885D01*
X005090Y004699D01*
X005034Y004564D01*
X005034Y004208D01*
X004985Y004188D01*
X004844Y004046D01*
X004771Y003871D01*
X004699Y004046D01*
X004557Y004188D01*
X004371Y004265D01*
X004171Y004265D01*
X003985Y004188D01*
X003844Y004046D01*
X003767Y003861D01*
X003767Y003066D01*
X003844Y002881D01*
X003985Y002739D01*
X004171Y002662D01*
X004215Y002662D01*
X004682Y002195D01*
X004706Y002171D01*
X000841Y002171D01*
X000841Y002259D02*
X004618Y002259D01*
X004520Y002358D02*
X002000Y002358D01*
X001973Y002347D02*
X002266Y002468D01*
X002491Y002693D01*
X002612Y002986D01*
X002612Y003303D01*
X002491Y003597D01*
X002266Y003821D01*
X001973Y003943D01*
X001656Y003943D01*
X001362Y003821D01*
X001138Y003597D01*
X001016Y003303D01*
X001016Y002986D01*
X001138Y002693D01*
X001362Y002468D01*
X001656Y002347D01*
X001973Y002347D01*
X002237Y002456D02*
X004421Y002456D01*
X004323Y002555D02*
X002353Y002555D01*
X002451Y002653D02*
X004224Y002653D01*
X003973Y002752D02*
X002515Y002752D01*
X002556Y002850D02*
X003875Y002850D01*
X003816Y002949D02*
X002597Y002949D01*
X002612Y003047D02*
X003775Y003047D01*
X003767Y003146D02*
X002612Y003146D01*
X002612Y003244D02*
X003767Y003244D01*
X003767Y003343D02*
X002596Y003343D01*
X002555Y003441D02*
X003767Y003441D01*
X003767Y003540D02*
X002515Y003540D01*
X002450Y003638D02*
X003767Y003638D01*
X003767Y003737D02*
X002351Y003737D01*
X002233Y003835D02*
X003767Y003835D01*
X003797Y003934D02*
X001995Y003934D01*
X001634Y003934D02*
X000841Y003934D01*
X000841Y004032D02*
X003838Y004032D01*
X003928Y004131D02*
X000841Y004131D01*
X000841Y004229D02*
X004085Y004229D01*
X004458Y004229D02*
X005034Y004229D01*
X005034Y004328D02*
X000841Y004328D01*
X000841Y004426D02*
X005034Y004426D01*
X005034Y004525D02*
X000841Y004525D01*
X000841Y004623D02*
X005058Y004623D01*
X005112Y004722D02*
X000841Y004722D01*
X000841Y004820D02*
X005210Y004820D01*
X005309Y004919D02*
X000841Y004919D01*
X000841Y005017D02*
X005407Y005017D01*
X005506Y005116D02*
X000841Y005116D01*
X000841Y005214D02*
X005604Y005214D01*
X005703Y005313D02*
X000841Y005313D01*
X000841Y005411D02*
X005801Y005411D01*
X005900Y005510D02*
X000841Y005510D01*
X000841Y005608D02*
X005998Y005608D01*
X006097Y005707D02*
X000841Y005707D01*
X000841Y005805D02*
X006195Y005805D01*
X006256Y005904D02*
X000841Y005904D01*
X000841Y006002D02*
X006158Y006002D01*
X006059Y006101D02*
X000841Y006101D01*
X000841Y006199D02*
X005961Y006199D01*
X005862Y006298D02*
X005276Y006298D01*
X005491Y006396D02*
X005802Y006396D01*
X005774Y006495D02*
X005590Y006495D01*
X005667Y006593D02*
X005774Y006593D01*
X005774Y006692D02*
X005708Y006692D01*
X005748Y006790D02*
X005774Y006790D01*
X005774Y006889D02*
X005748Y006889D01*
X005748Y006987D02*
X005774Y006987D01*
X006275Y007578D02*
X006956Y007578D01*
X006908Y007625D02*
X007039Y007495D01*
X007210Y007424D01*
X007395Y007424D01*
X007566Y007495D01*
X007697Y007625D01*
X007768Y007796D01*
X007768Y007981D01*
X007697Y008152D01*
X007566Y008283D01*
X007395Y008354D01*
X007210Y008354D01*
X007039Y008283D01*
X006908Y008152D01*
X006838Y007981D01*
X006838Y007796D01*
X006908Y007625D01*
X006887Y007677D02*
X006176Y007677D01*
X006078Y007775D02*
X006846Y007775D01*
X006838Y007874D02*
X005979Y007874D01*
X005881Y007972D02*
X006838Y007972D01*
X006875Y008071D02*
X005782Y008071D01*
X005748Y008169D02*
X006925Y008169D01*
X007024Y008268D02*
X005748Y008268D01*
X005748Y008366D02*
X008363Y008366D01*
X008265Y008268D02*
X007581Y008268D01*
X007680Y008169D02*
X008166Y008169D01*
X008068Y008071D02*
X007731Y008071D01*
X007768Y007972D02*
X007969Y007972D01*
X007871Y007874D02*
X007768Y007874D01*
X007759Y007775D02*
X007807Y007775D01*
X007788Y007677D02*
X007718Y007677D01*
X007649Y007578D02*
X007788Y007578D01*
X007788Y007480D02*
X007530Y007480D01*
X007395Y007354D02*
X007210Y007354D01*
X007039Y007283D01*
X006908Y007152D01*
X006838Y006981D01*
X006838Y006796D01*
X006908Y006625D01*
X007039Y006495D01*
X007210Y006424D01*
X007395Y006424D01*
X007566Y006495D01*
X007697Y006625D01*
X007768Y006796D01*
X007768Y006981D01*
X007697Y007152D01*
X007566Y007283D01*
X007395Y007354D01*
X007566Y007283D02*
X007788Y007283D01*
X007788Y007381D02*
X006461Y007381D01*
X006501Y007283D02*
X007039Y007283D01*
X006940Y007184D02*
X006509Y007184D01*
X006509Y007086D02*
X006881Y007086D01*
X006840Y006987D02*
X006509Y006987D01*
X006509Y006889D02*
X006838Y006889D01*
X006840Y006790D02*
X006509Y006790D01*
X006509Y006692D02*
X006881Y006692D01*
X006941Y006593D02*
X006606Y006593D01*
X006705Y006495D02*
X007039Y006495D01*
X006902Y006298D02*
X007754Y006298D01*
X007787Y006396D02*
X006803Y006396D01*
X007000Y006199D02*
X007655Y006199D01*
X007557Y006101D02*
X007099Y006101D01*
X007566Y006495D02*
X007787Y006495D01*
X007787Y006593D02*
X007664Y006593D01*
X007724Y006692D02*
X007788Y006692D01*
X007788Y006790D02*
X007765Y006790D01*
X007768Y006889D02*
X007788Y006889D01*
X007788Y006987D02*
X007765Y006987D01*
X007788Y007086D02*
X007724Y007086D01*
X007665Y007184D02*
X007788Y007184D01*
X008360Y007184D02*
X010583Y007184D01*
X010583Y007086D02*
X008360Y007086D01*
X008360Y006987D02*
X010583Y006987D01*
X010583Y006889D02*
X008360Y006889D01*
X008360Y006790D02*
X010583Y006790D01*
X010583Y006692D02*
X008360Y006692D01*
X008360Y006630D02*
X008360Y007554D01*
X010555Y009748D01*
X011292Y009748D01*
X011292Y009722D01*
X010532Y009722D01*
X010410Y009601D01*
X010410Y008838D01*
X010532Y008717D01*
X010583Y008717D01*
X010583Y005859D01*
X010549Y005873D01*
X010403Y005873D01*
X010268Y005817D01*
X010165Y005714D01*
X010110Y005580D01*
X010110Y005434D01*
X010165Y005299D01*
X010268Y005196D01*
X010403Y005141D01*
X010549Y005141D01*
X010583Y005155D01*
X010583Y004405D01*
X010432Y004254D01*
X010273Y004188D01*
X010131Y004046D01*
X010059Y003871D01*
X009986Y004046D01*
X009844Y004188D01*
X009659Y004265D01*
X009643Y004265D01*
X009643Y004281D01*
X009587Y004416D01*
X009483Y004519D01*
X008136Y005867D01*
X008318Y006049D01*
X008362Y006154D01*
X008362Y006627D01*
X008360Y006630D01*
X008362Y006593D02*
X010583Y006593D01*
X010583Y006495D02*
X008362Y006495D01*
X008362Y006396D02*
X010583Y006396D01*
X010583Y006298D02*
X008362Y006298D01*
X008362Y006199D02*
X010583Y006199D01*
X010583Y006101D02*
X008339Y006101D01*
X008271Y006002D02*
X010583Y006002D01*
X010583Y005904D02*
X008173Y005904D01*
X008197Y005805D02*
X010256Y005805D01*
X010162Y005707D02*
X008296Y005707D01*
X008394Y005608D02*
X010121Y005608D01*
X010110Y005510D02*
X008493Y005510D01*
X008591Y005411D02*
X010119Y005411D01*
X010160Y005313D02*
X008690Y005313D01*
X008788Y005214D02*
X010251Y005214D01*
X010583Y005116D02*
X008887Y005116D01*
X008985Y005017D02*
X010583Y005017D01*
X010583Y004919D02*
X009084Y004919D01*
X009182Y004820D02*
X010583Y004820D01*
X010583Y004722D02*
X009281Y004722D01*
X009379Y004623D02*
X010583Y004623D01*
X010583Y004525D02*
X009478Y004525D01*
X009576Y004426D02*
X010583Y004426D01*
X010506Y004328D02*
X009623Y004328D01*
X009745Y004229D02*
X010372Y004229D01*
X010215Y004131D02*
X009902Y004131D01*
X009992Y004032D02*
X010125Y004032D01*
X010084Y003934D02*
X010033Y003934D01*
X010059Y003056D02*
X009986Y002881D01*
X009844Y002739D01*
X009659Y002662D01*
X009458Y002662D01*
X009273Y002739D01*
X009131Y002881D01*
X009059Y003056D01*
X008986Y002881D01*
X008844Y002739D01*
X008659Y002662D01*
X008458Y002662D01*
X008273Y002739D01*
X008131Y002881D01*
X008054Y003066D01*
X008054Y003389D01*
X006836Y002171D01*
X020072Y002171D01*
X020072Y013578D01*
X019939Y013446D01*
X019939Y013008D01*
X019818Y012886D01*
X019134Y012886D01*
X019102Y012918D01*
X019070Y012886D01*
X018386Y012886D01*
X018264Y013008D01*
X018264Y013770D01*
X018386Y013892D01*
X018621Y013892D01*
X018621Y014350D01*
X018508Y014350D01*
X018321Y014427D01*
X018179Y014570D01*
X018101Y014756D01*
X018101Y014958D01*
X018179Y015145D01*
X018321Y015288D01*
X018490Y015357D01*
X018404Y015393D01*
X018085Y015073D01*
X018085Y012261D01*
X018041Y012156D01*
X017961Y012075D01*
X016768Y010882D01*
X016768Y010796D01*
X016697Y010625D01*
X016566Y010495D01*
X016395Y010424D01*
X016210Y010424D01*
X016039Y010495D01*
X015908Y010625D01*
X015838Y010796D01*
X015838Y010981D01*
X015908Y011152D01*
X016039Y011283D01*
X016210Y011354D01*
X016395Y011354D01*
X016420Y011344D01*
X017512Y012436D01*
X017512Y012611D01*
X016768Y011866D01*
X016768Y011796D01*
X016697Y011625D01*
X016566Y011495D01*
X016395Y011424D01*
X016210Y011424D01*
X016039Y011495D01*
X015908Y011625D01*
X015838Y011796D01*
X015838Y011981D01*
X015908Y012152D01*
X016039Y012283D01*
X016210Y012354D01*
X016395Y012354D01*
X016431Y012339D01*
X017198Y013106D01*
X017198Y015643D01*
X016701Y015146D01*
X016700Y015146D01*
X016768Y014981D01*
X016768Y014796D01*
X016697Y014625D01*
X016566Y014495D01*
X016395Y014424D01*
X016210Y014424D01*
X016039Y014495D01*
X015908Y014625D01*
X015860Y014743D01*
X015762Y014645D01*
X015704Y014621D01*
X016041Y014284D01*
X016210Y014354D01*
X016395Y014354D01*
X016566Y014283D01*
X016697Y014152D01*
X016768Y013981D01*
X016768Y013796D01*
X016697Y013625D01*
X016566Y013495D01*
X016395Y013424D01*
X016210Y013424D01*
X016039Y013495D01*
X015908Y013625D01*
X015905Y013633D01*
X015865Y013650D01*
X014054Y015461D01*
X013973Y015542D01*
X013930Y015647D01*
X013930Y018059D01*
X013906Y018083D01*
X013850Y018218D01*
X013850Y018363D01*
X013906Y018498D01*
X014009Y018601D01*
X014143Y018657D01*
X014266Y018657D01*
X014180Y018743D01*
X013701Y018743D01*
X013573Y018615D01*
X013573Y018177D01*
X013496Y018100D01*
X013505Y018084D01*
X013516Y018046D01*
X013516Y017821D01*
X013120Y017821D01*
X013120Y017721D01*
X013120Y017365D01*
X013385Y017365D01*
X013424Y017375D01*
X013458Y017395D01*
X013486Y017423D01*
X013505Y017457D01*
X013516Y017495D01*
X013516Y017721D01*
X013120Y017721D01*
X013020Y017721D01*
X012625Y017721D01*
X012625Y017495D01*
X012635Y017457D01*
X012655Y017423D01*
X012683Y017395D01*
X012717Y017375D01*
X012755Y017365D01*
X013020Y017365D01*
X013020Y017721D01*
X013020Y017821D01*
X012625Y017821D01*
X012625Y018046D01*
X012635Y018084D01*
X012644Y018100D01*
X012568Y018177D01*
X012568Y018252D01*
X012534Y018252D01*
X012534Y017515D01*
X013238Y016811D01*
X013282Y016706D01*
X013282Y014854D01*
X013294Y014866D01*
X013384Y014866D01*
X013377Y014883D01*
X013377Y015029D01*
X013433Y015163D01*
X013536Y015266D01*
X013671Y015322D01*
X013816Y015322D01*
X013951Y015266D01*
X014054Y015163D01*
X014110Y015029D01*
X014110Y014994D01*
X014222Y014882D01*
X014260Y014792D01*
X014280Y014771D01*
X014288Y014778D01*
X014322Y014798D01*
X014360Y014808D01*
X014485Y014808D01*
X014485Y014273D01*
X014495Y014273D01*
X014750Y014273D01*
X014750Y014678D01*
X014739Y014716D01*
X014720Y014750D01*
X014692Y014778D01*
X014658Y014798D01*
X014619Y014808D01*
X014495Y014808D01*
X014495Y014273D01*
X014495Y014263D01*
X014750Y014263D01*
X014750Y013858D01*
X014739Y013820D01*
X014720Y013786D01*
X014692Y013758D01*
X014658Y013738D01*
X014619Y013728D01*
X014495Y013728D01*
X014495Y014263D01*
X014485Y014263D01*
X014485Y013728D01*
X014360Y013728D01*
X014349Y013731D01*
X015089Y012992D01*
X015132Y012887D01*
X015132Y010726D01*
X015089Y010620D01*
X015008Y010540D01*
X014384Y009916D01*
X014384Y004537D01*
X014404Y004552D01*
X014464Y004583D01*
X014529Y004603D01*
X014596Y004614D01*
X014601Y004614D01*
X014601Y004213D01*
X014658Y004213D01*
X014658Y004614D01*
X014663Y004614D01*
X014730Y004603D01*
X014794Y004583D01*
X014855Y004552D01*
X014910Y004512D01*
X014957Y004464D01*
X014997Y004409D01*
X015028Y004349D01*
X015049Y004285D01*
X015059Y004218D01*
X015059Y004213D01*
X014658Y004213D01*
X014658Y004155D01*
X014658Y003754D01*
X014663Y003754D01*
X014730Y003765D01*
X014794Y003786D01*
X014855Y003816D01*
X014910Y003856D01*
X014957Y003904D01*
X014997Y003959D01*
X015028Y004019D01*
X015049Y004083D01*
X015059Y004150D01*
X015059Y004155D01*
X014658Y004155D01*
X014601Y004155D01*
X014601Y003754D01*
X014596Y003754D01*
X014529Y003765D01*
X014464Y003786D01*
X014404Y003816D01*
X014384Y003831D01*
X014384Y003606D01*
X014406Y003597D01*
X014543Y003460D01*
X014617Y003281D01*
X014617Y003087D01*
X014543Y002908D01*
X014406Y002771D01*
X014226Y002697D01*
X014032Y002697D01*
X013853Y002771D01*
X013716Y002908D01*
X013642Y003087D01*
X013642Y003281D01*
X013716Y003460D01*
X013812Y003556D01*
X013812Y003649D01*
X013776Y003614D01*
X013592Y003538D01*
X013392Y003538D01*
X013207Y003614D01*
X013065Y003756D01*
X012989Y003940D01*
X012989Y004140D01*
X013065Y004325D01*
X013207Y004467D01*
X013392Y004543D01*
X013592Y004543D01*
X013776Y004467D01*
X013812Y004431D01*
X013812Y009816D01*
X012254Y008258D01*
X012173Y008178D01*
X012068Y008134D01*
X011156Y008134D01*
X011156Y004230D01*
X011112Y004124D01*
X011000Y004012D01*
X011063Y003861D01*
X011063Y003066D01*
X010986Y002881D01*
X010844Y002739D01*
X010659Y002662D01*
X010458Y002662D01*
X010273Y002739D01*
X010131Y002881D01*
X010059Y003056D01*
X010055Y003047D02*
X010062Y003047D01*
X010103Y002949D02*
X010014Y002949D01*
X009955Y002850D02*
X010162Y002850D01*
X010260Y002752D02*
X009857Y002752D01*
X009260Y002752D02*
X008857Y002752D01*
X008955Y002850D02*
X009162Y002850D01*
X009103Y002949D02*
X009014Y002949D01*
X009055Y003047D02*
X009062Y003047D01*
X008260Y002752D02*
X007417Y002752D01*
X007515Y002850D02*
X008162Y002850D01*
X008103Y002949D02*
X007614Y002949D01*
X007712Y003047D02*
X008062Y003047D01*
X008054Y003146D02*
X007811Y003146D01*
X007909Y003244D02*
X008054Y003244D01*
X008054Y003343D02*
X008008Y003343D01*
X007592Y003737D02*
X006775Y003737D01*
X006775Y003835D02*
X007648Y003835D01*
X007670Y003814D02*
X006499Y002644D01*
X005043Y002644D01*
X004730Y002957D01*
X004771Y003056D01*
X004844Y002881D01*
X004985Y002739D01*
X005171Y002662D01*
X005371Y002662D01*
X005557Y002739D01*
X005699Y002881D01*
X005771Y003056D01*
X005844Y002881D01*
X005985Y002739D01*
X006171Y002662D01*
X006371Y002662D01*
X006557Y002739D01*
X006699Y002881D01*
X006775Y003066D01*
X006775Y003861D01*
X006699Y004046D01*
X006557Y004188D01*
X006371Y004265D01*
X006171Y004265D01*
X005985Y004188D01*
X005844Y004046D01*
X005771Y003871D01*
X005769Y003877D01*
X005769Y004339D01*
X006750Y005321D01*
X007643Y005321D01*
X008726Y004237D01*
X008659Y004265D01*
X008458Y004265D01*
X008273Y004188D01*
X008189Y004104D01*
X007850Y004443D01*
X007850Y004477D01*
X007794Y004612D01*
X007691Y004715D01*
X007557Y004771D01*
X007411Y004771D01*
X007276Y004715D01*
X007173Y004612D01*
X007118Y004477D01*
X007118Y004332D01*
X007173Y004197D01*
X007276Y004094D01*
X007411Y004038D01*
X007445Y004038D01*
X007670Y003814D01*
X007550Y003934D02*
X006745Y003934D01*
X006704Y004032D02*
X007451Y004032D01*
X007240Y004131D02*
X006614Y004131D01*
X006458Y004229D02*
X007160Y004229D01*
X007119Y004328D02*
X005769Y004328D01*
X005769Y004229D02*
X006085Y004229D01*
X005928Y004131D02*
X005769Y004131D01*
X005769Y004032D02*
X005838Y004032D01*
X005797Y003934D02*
X005769Y003934D01*
X005856Y004426D02*
X007118Y004426D01*
X007137Y004525D02*
X005954Y004525D01*
X006053Y004623D02*
X007184Y004623D01*
X007292Y004722D02*
X006151Y004722D01*
X006250Y004820D02*
X008143Y004820D01*
X008241Y004722D02*
X007675Y004722D01*
X007783Y004623D02*
X008340Y004623D01*
X008438Y004525D02*
X007830Y004525D01*
X007867Y004426D02*
X008537Y004426D01*
X008635Y004328D02*
X007965Y004328D01*
X008064Y004229D02*
X008372Y004229D01*
X008215Y004131D02*
X008162Y004131D01*
X008044Y004919D02*
X006348Y004919D01*
X006447Y005017D02*
X007946Y005017D01*
X007847Y005116D02*
X006545Y005116D01*
X006644Y005214D02*
X007749Y005214D01*
X007650Y005313D02*
X006742Y005313D01*
X006775Y003638D02*
X007494Y003638D01*
X007395Y003540D02*
X006775Y003540D01*
X006775Y003441D02*
X007297Y003441D01*
X007198Y003343D02*
X006775Y003343D01*
X006775Y003244D02*
X007100Y003244D01*
X007001Y003146D02*
X006775Y003146D01*
X006767Y003047D02*
X006903Y003047D01*
X006804Y002949D02*
X006727Y002949D01*
X006706Y002850D02*
X006668Y002850D01*
X006607Y002752D02*
X006569Y002752D01*
X006509Y002653D02*
X005034Y002653D01*
X004973Y002752D02*
X004935Y002752D01*
X004875Y002850D02*
X004837Y002850D01*
X004816Y002949D02*
X004738Y002949D01*
X004767Y003047D02*
X004775Y003047D01*
X004745Y003934D02*
X004797Y003934D01*
X004838Y004032D02*
X004704Y004032D01*
X004614Y004131D02*
X004928Y004131D01*
X005767Y003047D02*
X005775Y003047D01*
X005816Y002949D02*
X005727Y002949D01*
X005668Y002850D02*
X005875Y002850D01*
X005973Y002752D02*
X005569Y002752D01*
X006924Y002259D02*
X020072Y002259D01*
X020072Y002358D02*
X019283Y002358D01*
X019257Y002347D02*
X019550Y002468D01*
X019774Y002693D01*
X019896Y002986D01*
X019896Y003303D01*
X019774Y003597D01*
X019550Y003821D01*
X019257Y003943D01*
X018939Y003943D01*
X018646Y003821D01*
X018421Y003597D01*
X018300Y003303D01*
X018300Y002986D01*
X018421Y002693D01*
X018646Y002468D01*
X018939Y002347D01*
X019257Y002347D01*
X019521Y002456D02*
X020072Y002456D01*
X020072Y002555D02*
X019636Y002555D01*
X019735Y002653D02*
X020072Y002653D01*
X020072Y002752D02*
X019799Y002752D01*
X019840Y002850D02*
X020072Y002850D01*
X020072Y002949D02*
X019880Y002949D01*
X019896Y003047D02*
X020072Y003047D01*
X020072Y003146D02*
X019896Y003146D01*
X019896Y003244D02*
X020072Y003244D01*
X020072Y003343D02*
X019880Y003343D01*
X019839Y003441D02*
X020072Y003441D01*
X020072Y003540D02*
X019798Y003540D01*
X019733Y003638D02*
X020072Y003638D01*
X020072Y003737D02*
X019635Y003737D01*
X019516Y003835D02*
X020072Y003835D01*
X020072Y003934D02*
X019279Y003934D01*
X018917Y003934D02*
X017455Y003934D01*
X017455Y003915D02*
X017455Y007808D01*
X017411Y007913D01*
X017331Y007994D01*
X016697Y008627D01*
X016768Y008796D01*
X016768Y008981D01*
X016697Y009152D01*
X016566Y009283D01*
X016395Y009354D01*
X016210Y009354D01*
X016039Y009283D01*
X015908Y009152D01*
X015838Y008981D01*
X015838Y008796D01*
X015908Y008625D01*
X016039Y008495D01*
X016044Y008492D01*
X016060Y008455D01*
X016176Y008339D01*
X016039Y008283D01*
X015908Y008152D01*
X015838Y007981D01*
X015838Y007796D01*
X015908Y007625D01*
X015919Y007615D01*
X015471Y007167D01*
X015391Y007086D01*
X015347Y006981D01*
X015347Y004591D01*
X015216Y004460D01*
X015142Y004281D01*
X015142Y004087D01*
X015216Y003908D01*
X015353Y003771D01*
X015532Y003697D01*
X015726Y003697D01*
X015906Y003771D01*
X016043Y003908D01*
X016117Y004087D01*
X016117Y004281D01*
X016043Y004460D01*
X015920Y004583D01*
X015920Y006614D01*
X016039Y006495D01*
X016210Y006424D01*
X016395Y006424D01*
X016566Y006495D01*
X016697Y006625D01*
X016768Y006796D01*
X016768Y006981D01*
X016697Y007152D01*
X016566Y007283D01*
X016446Y007333D01*
X016545Y007431D01*
X016575Y007504D01*
X016697Y007625D01*
X016753Y007762D01*
X016883Y007632D01*
X016883Y004607D01*
X016726Y004672D01*
X016532Y004672D01*
X016353Y004597D01*
X016216Y004460D01*
X016142Y004281D01*
X016142Y004087D01*
X016216Y003908D01*
X016353Y003771D01*
X016502Y003709D01*
X016394Y003602D01*
X016226Y003672D01*
X016032Y003672D01*
X015853Y003597D01*
X015716Y003460D01*
X015642Y003281D01*
X015642Y003087D01*
X015716Y002908D01*
X015853Y002771D01*
X016032Y002697D01*
X016226Y002697D01*
X016406Y002771D01*
X016543Y002908D01*
X016566Y002964D01*
X016624Y003022D01*
X017411Y003809D01*
X017455Y003915D01*
X017422Y003835D02*
X018679Y003835D01*
X018561Y003737D02*
X017339Y003737D01*
X017240Y003638D02*
X018463Y003638D01*
X018398Y003540D02*
X017142Y003540D01*
X017043Y003441D02*
X018357Y003441D01*
X018316Y003343D02*
X016945Y003343D01*
X016846Y003244D02*
X018300Y003244D01*
X018300Y003146D02*
X016748Y003146D01*
X016649Y003047D02*
X018300Y003047D01*
X018315Y002949D02*
X016560Y002949D01*
X016485Y002850D02*
X018356Y002850D01*
X018397Y002752D02*
X016359Y002752D01*
X015900Y002752D02*
X015359Y002752D01*
X015406Y002771D02*
X015543Y002908D01*
X015617Y003087D01*
X015617Y003281D01*
X015543Y003460D01*
X015406Y003597D01*
X015226Y003672D01*
X015032Y003672D01*
X014853Y003597D01*
X014716Y003460D01*
X014642Y003281D01*
X014642Y003087D01*
X014716Y002908D01*
X014853Y002771D01*
X015032Y002697D01*
X015226Y002697D01*
X015406Y002771D01*
X015485Y002850D02*
X015774Y002850D01*
X015699Y002949D02*
X015560Y002949D01*
X015600Y003047D02*
X015658Y003047D01*
X015642Y003146D02*
X015617Y003146D01*
X015617Y003244D02*
X015642Y003244D01*
X015667Y003343D02*
X015591Y003343D01*
X015551Y003441D02*
X015708Y003441D01*
X015796Y003540D02*
X015463Y003540D01*
X015307Y003638D02*
X015952Y003638D01*
X015823Y003737D02*
X016436Y003737D01*
X016431Y003638D02*
X016307Y003638D01*
X016289Y003835D02*
X015970Y003835D01*
X016053Y003934D02*
X016205Y003934D01*
X016165Y004032D02*
X016094Y004032D01*
X016117Y004131D02*
X016142Y004131D01*
X016142Y004229D02*
X016117Y004229D01*
X016098Y004328D02*
X016161Y004328D01*
X016202Y004426D02*
X016057Y004426D01*
X015978Y004525D02*
X016281Y004525D01*
X016415Y004623D02*
X015920Y004623D01*
X015920Y004722D02*
X016883Y004722D01*
X016883Y004820D02*
X015920Y004820D01*
X015920Y004919D02*
X016883Y004919D01*
X016883Y005017D02*
X015920Y005017D01*
X015920Y005116D02*
X016883Y005116D01*
X016883Y005214D02*
X015920Y005214D01*
X015920Y005313D02*
X016883Y005313D01*
X016883Y005411D02*
X015920Y005411D01*
X015920Y005510D02*
X016883Y005510D01*
X016883Y005608D02*
X015920Y005608D01*
X015920Y005707D02*
X016883Y005707D01*
X016883Y005805D02*
X015920Y005805D01*
X015920Y005904D02*
X016883Y005904D01*
X016883Y006002D02*
X015920Y006002D01*
X015920Y006101D02*
X016883Y006101D01*
X016883Y006199D02*
X015920Y006199D01*
X015920Y006298D02*
X016883Y006298D01*
X016883Y006396D02*
X015920Y006396D01*
X015920Y006495D02*
X016039Y006495D01*
X015941Y006593D02*
X015920Y006593D01*
X015390Y007086D02*
X014384Y007086D01*
X014384Y007184D02*
X015488Y007184D01*
X015587Y007283D02*
X014384Y007283D01*
X014384Y007381D02*
X015685Y007381D01*
X015784Y007480D02*
X014384Y007480D01*
X014384Y007578D02*
X015882Y007578D01*
X015887Y007677D02*
X014384Y007677D01*
X014384Y007775D02*
X015846Y007775D01*
X015838Y007874D02*
X014384Y007874D01*
X014384Y007972D02*
X015838Y007972D01*
X015875Y008071D02*
X014384Y008071D01*
X014384Y008169D02*
X015925Y008169D01*
X016024Y008268D02*
X014384Y008268D01*
X014384Y008366D02*
X016149Y008366D01*
X016056Y008465D02*
X014384Y008465D01*
X014384Y008563D02*
X015971Y008563D01*
X015893Y008662D02*
X014384Y008662D01*
X014384Y008760D02*
X015853Y008760D01*
X015838Y008859D02*
X014384Y008859D01*
X014384Y008957D02*
X015838Y008957D01*
X015868Y009056D02*
X014384Y009056D01*
X014384Y009154D02*
X015910Y009154D01*
X016009Y009253D02*
X014384Y009253D01*
X014384Y009351D02*
X016204Y009351D01*
X016210Y009424D02*
X016039Y009495D01*
X015908Y009625D01*
X015838Y009796D01*
X015838Y009981D01*
X015908Y010152D01*
X016039Y010283D01*
X016210Y010354D01*
X016395Y010354D01*
X016566Y010283D01*
X016697Y010152D01*
X016768Y009981D01*
X016768Y009796D01*
X016697Y009625D01*
X016566Y009495D01*
X016395Y009424D01*
X016210Y009424D01*
X016148Y009450D02*
X014384Y009450D01*
X014384Y009548D02*
X015986Y009548D01*
X015900Y009647D02*
X014384Y009647D01*
X014384Y009745D02*
X015859Y009745D01*
X015838Y009844D02*
X014384Y009844D01*
X014410Y009942D02*
X015838Y009942D01*
X015862Y010041D02*
X014509Y010041D01*
X014607Y010139D02*
X015903Y010139D01*
X015994Y010238D02*
X014706Y010238D01*
X014804Y010336D02*
X016168Y010336D01*
X016184Y010435D02*
X014903Y010435D01*
X015001Y010533D02*
X016001Y010533D01*
X015906Y010632D02*
X015093Y010632D01*
X015132Y010730D02*
X015865Y010730D01*
X015838Y010829D02*
X015132Y010829D01*
X015132Y010927D02*
X015838Y010927D01*
X015856Y011026D02*
X015132Y011026D01*
X015132Y011124D02*
X015897Y011124D01*
X015979Y011223D02*
X015132Y011223D01*
X015132Y011321D02*
X016131Y011321D01*
X016016Y011518D02*
X015132Y011518D01*
X015132Y011420D02*
X016496Y011420D01*
X016590Y011518D02*
X016594Y011518D01*
X016688Y011617D02*
X016693Y011617D01*
X016734Y011715D02*
X016791Y011715D01*
X016768Y011814D02*
X016890Y011814D01*
X016813Y011912D02*
X016988Y011912D01*
X016912Y012011D02*
X017087Y012011D01*
X017010Y012109D02*
X017185Y012109D01*
X017109Y012208D02*
X017284Y012208D01*
X017207Y012306D02*
X017382Y012306D01*
X017306Y012405D02*
X017481Y012405D01*
X017512Y012503D02*
X017404Y012503D01*
X017503Y012602D02*
X017512Y012602D01*
X017087Y012996D02*
X016762Y012996D01*
X016768Y012981D02*
X016697Y013152D01*
X016566Y013283D01*
X016395Y013354D01*
X016210Y013354D01*
X016039Y013283D01*
X015908Y013152D01*
X015838Y012981D01*
X015838Y012796D01*
X015908Y012625D01*
X016039Y012495D01*
X016210Y012424D01*
X016395Y012424D01*
X016566Y012495D01*
X016697Y012625D01*
X016768Y012796D01*
X016768Y012981D01*
X016768Y012897D02*
X016989Y012897D01*
X016890Y012799D02*
X016768Y012799D01*
X016792Y012700D02*
X016728Y012700D01*
X016693Y012602D02*
X016673Y012602D01*
X016595Y012503D02*
X016575Y012503D01*
X016496Y012405D02*
X015132Y012405D01*
X015132Y012503D02*
X016031Y012503D01*
X015932Y012602D02*
X015132Y012602D01*
X015132Y012700D02*
X015878Y012700D01*
X015838Y012799D02*
X015132Y012799D01*
X015128Y012897D02*
X015838Y012897D01*
X015844Y012996D02*
X015085Y012996D01*
X014986Y013094D02*
X015884Y013094D01*
X015949Y013193D02*
X014888Y013193D01*
X014789Y013291D02*
X016059Y013291D01*
X016055Y013488D02*
X014592Y013488D01*
X014494Y013587D02*
X015947Y013587D01*
X015830Y013685D02*
X014395Y013685D01*
X014485Y013784D02*
X014495Y013784D01*
X014485Y013882D02*
X014495Y013882D01*
X014485Y013981D02*
X014495Y013981D01*
X014485Y014079D02*
X014495Y014079D01*
X014485Y014178D02*
X014495Y014178D01*
X014485Y014276D02*
X014495Y014276D01*
X014485Y014375D02*
X014495Y014375D01*
X014485Y014473D02*
X014495Y014473D01*
X014485Y014572D02*
X014495Y014572D01*
X014485Y014670D02*
X014495Y014670D01*
X014485Y014769D02*
X014495Y014769D01*
X014648Y014867D02*
X014228Y014867D01*
X014138Y014966D02*
X014549Y014966D01*
X014451Y015064D02*
X014095Y015064D01*
X014054Y015163D02*
X014352Y015163D01*
X014254Y015261D02*
X013956Y015261D01*
X014057Y015458D02*
X013282Y015458D01*
X013282Y015360D02*
X014155Y015360D01*
X013967Y015557D02*
X013282Y015557D01*
X013282Y015655D02*
X013930Y015655D01*
X013930Y015754D02*
X013282Y015754D01*
X013282Y015852D02*
X013930Y015852D01*
X013930Y015951D02*
X013282Y015951D01*
X013282Y016049D02*
X013930Y016049D01*
X013930Y016148D02*
X013282Y016148D01*
X013282Y016246D02*
X013930Y016246D01*
X013930Y016345D02*
X013282Y016345D01*
X013282Y016443D02*
X013930Y016443D01*
X013930Y016542D02*
X013282Y016542D01*
X013282Y016640D02*
X013930Y016640D01*
X013930Y016739D02*
X013268Y016739D01*
X013212Y016837D02*
X013930Y016837D01*
X013930Y016936D02*
X013113Y016936D01*
X013015Y017034D02*
X013930Y017034D01*
X013930Y017133D02*
X012916Y017133D01*
X012818Y017231D02*
X013930Y017231D01*
X013930Y017330D02*
X012719Y017330D01*
X012652Y017428D02*
X012621Y017428D01*
X012625Y017527D02*
X012534Y017527D01*
X012534Y017625D02*
X012625Y017625D01*
X012534Y017724D02*
X013020Y017724D01*
X013020Y017625D02*
X013120Y017625D01*
X013120Y017527D02*
X013020Y017527D01*
X013020Y017428D02*
X013120Y017428D01*
X013120Y017724D02*
X013930Y017724D01*
X013930Y017822D02*
X013516Y017822D01*
X013516Y017921D02*
X013930Y017921D01*
X013930Y018019D02*
X013516Y018019D01*
X013514Y018118D02*
X013891Y018118D01*
X013850Y018216D02*
X013573Y018216D01*
X013573Y018315D02*
X013850Y018315D01*
X013870Y018413D02*
X013573Y018413D01*
X013573Y018512D02*
X013919Y018512D01*
X014031Y018610D02*
X013573Y018610D01*
X013667Y018709D02*
X014214Y018709D01*
X013930Y017625D02*
X013516Y017625D01*
X013516Y017527D02*
X013930Y017527D01*
X013930Y017428D02*
X013489Y017428D01*
X012698Y016542D02*
X012219Y016542D01*
X012219Y016640D02*
X012599Y016640D01*
X012501Y016739D02*
X012219Y016739D01*
X012219Y016837D02*
X012402Y016837D01*
X012304Y016936D02*
X012219Y016936D01*
X012219Y016443D02*
X012709Y016443D01*
X012709Y016345D02*
X012219Y016345D01*
X012190Y016246D02*
X012709Y016246D01*
X012709Y016148D02*
X012112Y016148D01*
X012013Y016049D02*
X012709Y016049D01*
X012709Y015951D02*
X011915Y015951D01*
X011816Y015852D02*
X012709Y015852D01*
X012709Y015754D02*
X011718Y015754D01*
X011619Y015655D02*
X012709Y015655D01*
X012709Y015557D02*
X011521Y015557D01*
X011422Y015458D02*
X012709Y015458D01*
X012709Y015360D02*
X011324Y015360D01*
X011225Y015261D02*
X012709Y015261D01*
X012709Y015163D02*
X011127Y015163D01*
X011028Y015064D02*
X012709Y015064D01*
X012709Y014966D02*
X010930Y014966D01*
X010831Y014867D02*
X012709Y014867D01*
X012697Y014769D02*
X010733Y014769D01*
X010634Y014670D02*
X012672Y014670D01*
X012672Y014572D02*
X010536Y014572D01*
X010437Y014473D02*
X012672Y014473D01*
X012672Y014375D02*
X010339Y014375D01*
X010240Y014276D02*
X012672Y014276D01*
X012672Y014178D02*
X010142Y014178D01*
X010043Y014079D02*
X012672Y014079D01*
X012672Y013981D02*
X009945Y013981D01*
X009846Y013882D02*
X012672Y013882D01*
X012681Y013784D02*
X009748Y013784D01*
X009649Y013685D02*
X012779Y013685D01*
X012897Y013587D02*
X009551Y013587D01*
X009452Y013488D02*
X012995Y013488D01*
X013094Y013390D02*
X009354Y013390D01*
X009255Y013291D02*
X013980Y013291D01*
X014078Y013193D02*
X009157Y013193D01*
X009058Y013094D02*
X014177Y013094D01*
X014275Y012996D02*
X008960Y012996D01*
X008861Y012897D02*
X012765Y012897D01*
X012672Y012799D02*
X008763Y012799D01*
X008664Y012700D02*
X012672Y012700D01*
X012672Y012602D02*
X008566Y012602D01*
X008467Y012503D02*
X012672Y012503D01*
X012638Y012405D02*
X008369Y012405D01*
X008270Y012306D02*
X012540Y012306D01*
X012441Y012208D02*
X008172Y012208D01*
X008073Y012109D02*
X012343Y012109D01*
X012244Y012011D02*
X007975Y012011D01*
X007876Y011912D02*
X012146Y011912D01*
X012047Y011814D02*
X007778Y011814D01*
X007734Y011715D02*
X011949Y011715D01*
X011850Y011617D02*
X007688Y011617D01*
X007590Y011518D02*
X011752Y011518D01*
X011653Y011420D02*
X006464Y011420D01*
X006365Y011518D02*
X007016Y011518D01*
X006917Y011617D02*
X006267Y011617D01*
X006168Y011715D02*
X006871Y011715D01*
X006838Y011814D02*
X006070Y011814D01*
X005971Y011912D02*
X006838Y011912D01*
X006850Y012011D02*
X005873Y012011D01*
X005774Y012109D02*
X006891Y012109D01*
X006964Y012208D02*
X005676Y012208D01*
X005577Y012306D02*
X007095Y012306D01*
X007210Y012424D02*
X007039Y012495D01*
X006908Y012625D01*
X006838Y012796D01*
X006838Y012981D01*
X006908Y013152D01*
X007039Y013283D01*
X007210Y013354D01*
X007395Y013354D01*
X007566Y013283D01*
X007697Y013152D01*
X007768Y012981D01*
X007768Y012796D01*
X007697Y012625D01*
X007566Y012495D01*
X007395Y012424D01*
X007210Y012424D01*
X007031Y012503D02*
X005380Y012503D01*
X005282Y012602D02*
X006932Y012602D01*
X006878Y012700D02*
X005183Y012700D01*
X005085Y012799D02*
X006838Y012799D01*
X006838Y012897D02*
X004986Y012897D01*
X004888Y012996D02*
X006844Y012996D01*
X006884Y013094D02*
X004789Y013094D01*
X004691Y013193D02*
X006949Y013193D01*
X007059Y013291D02*
X004592Y013291D01*
X004494Y013390D02*
X008544Y013390D01*
X008643Y013488D02*
X007550Y013488D01*
X007566Y013495D02*
X007697Y013625D01*
X007768Y013796D01*
X007768Y013981D01*
X007697Y014152D01*
X007566Y014283D01*
X007395Y014354D01*
X007210Y014354D01*
X007039Y014283D01*
X006908Y014152D01*
X006838Y013981D01*
X006838Y013796D01*
X006908Y013625D01*
X007039Y013495D01*
X007210Y013424D01*
X007395Y013424D01*
X007566Y013495D01*
X007658Y013587D02*
X008741Y013587D01*
X008840Y013685D02*
X007722Y013685D01*
X007762Y013784D02*
X008938Y013784D01*
X009037Y013882D02*
X007768Y013882D01*
X007768Y013981D02*
X009135Y013981D01*
X009234Y014079D02*
X007727Y014079D01*
X007671Y014178D02*
X009332Y014178D01*
X009431Y014276D02*
X007573Y014276D01*
X007514Y014473D02*
X009628Y014473D01*
X009726Y014572D02*
X007643Y014572D01*
X007091Y014473D02*
X006658Y014473D01*
X006559Y014375D02*
X009529Y014375D01*
X008446Y013291D02*
X007546Y013291D01*
X007656Y013193D02*
X008347Y013193D01*
X008249Y013094D02*
X007721Y013094D01*
X007762Y012996D02*
X008150Y012996D01*
X008052Y012897D02*
X007768Y012897D01*
X007768Y012799D02*
X007953Y012799D01*
X007855Y012700D02*
X007728Y012700D01*
X007756Y012602D02*
X007673Y012602D01*
X007658Y012503D02*
X007575Y012503D01*
X007559Y012405D02*
X005479Y012405D01*
X005162Y011912D02*
X004594Y011912D01*
X004692Y011814D02*
X005260Y011814D01*
X005359Y011715D02*
X004791Y011715D01*
X004889Y011617D02*
X005457Y011617D01*
X005556Y011518D02*
X004988Y011518D01*
X005086Y011420D02*
X005654Y011420D01*
X005753Y011321D02*
X005185Y011321D01*
X005283Y011223D02*
X005851Y011223D01*
X005950Y011124D02*
X005382Y011124D01*
X005480Y011026D02*
X006048Y011026D01*
X006147Y010927D02*
X005579Y010927D01*
X005677Y010829D02*
X006245Y010829D01*
X006344Y010730D02*
X005776Y010730D01*
X005874Y010632D02*
X006442Y010632D01*
X006541Y010533D02*
X005973Y010533D01*
X006071Y010435D02*
X006639Y010435D01*
X006738Y010336D02*
X006170Y010336D01*
X006268Y010238D02*
X006836Y010238D01*
X006903Y010139D02*
X006367Y010139D01*
X006465Y010041D02*
X006862Y010041D01*
X006838Y009942D02*
X006564Y009942D01*
X006662Y009844D02*
X006838Y009844D01*
X006859Y009745D02*
X006761Y009745D01*
X006859Y009647D02*
X006900Y009647D01*
X006958Y009548D02*
X006986Y009548D01*
X007056Y009450D02*
X007148Y009450D01*
X007155Y009351D02*
X007204Y009351D01*
X007401Y009351D02*
X009348Y009351D01*
X009250Y009253D02*
X007596Y009253D01*
X007695Y009154D02*
X009151Y009154D01*
X009053Y009056D02*
X007737Y009056D01*
X007768Y008957D02*
X008954Y008957D01*
X008856Y008859D02*
X007768Y008859D01*
X007753Y008760D02*
X008757Y008760D01*
X008659Y008662D02*
X007712Y008662D01*
X007634Y008563D02*
X008560Y008563D01*
X008462Y008465D02*
X007494Y008465D01*
X007112Y008465D02*
X005727Y008465D01*
X005686Y008563D02*
X006971Y008563D01*
X006893Y008662D02*
X005636Y008662D01*
X005538Y008760D02*
X006853Y008760D01*
X006837Y008859D02*
X005388Y008859D01*
X006049Y009647D02*
X000841Y009647D01*
X000841Y009745D02*
X005951Y009745D01*
X005852Y009844D02*
X000841Y009844D01*
X000841Y009942D02*
X005754Y009942D01*
X005655Y010041D02*
X000841Y010041D01*
X000841Y010139D02*
X005557Y010139D01*
X005458Y010238D02*
X000841Y010238D01*
X000841Y010336D02*
X005360Y010336D01*
X005261Y010435D02*
X000841Y010435D01*
X000841Y010533D02*
X002171Y010533D01*
X002072Y010632D02*
X000841Y010632D01*
X000841Y010730D02*
X001974Y010730D01*
X001875Y010829D02*
X000841Y010829D01*
X000841Y010927D02*
X001777Y010927D01*
X001678Y011026D02*
X000841Y011026D01*
X000841Y011124D02*
X001580Y011124D01*
X001481Y011223D02*
X000841Y011223D01*
X000841Y011321D02*
X001401Y011321D01*
X001371Y011420D02*
X000841Y011420D01*
X000841Y011518D02*
X001371Y011518D01*
X001313Y011617D02*
X000841Y011617D01*
X000841Y011715D02*
X001228Y011715D01*
X001187Y011814D02*
X000841Y011814D01*
X000841Y011912D02*
X001166Y011912D01*
X001166Y012011D02*
X000841Y012011D01*
X000841Y012109D02*
X001190Y012109D01*
X001231Y012208D02*
X000841Y012208D01*
X000841Y012306D02*
X001321Y012306D01*
X001491Y012405D02*
X000841Y012405D01*
X000841Y012503D02*
X001509Y012503D01*
X001540Y012490D02*
X001726Y012490D01*
X001898Y012561D01*
X002030Y012693D01*
X002096Y012852D01*
X002234Y012714D01*
X002166Y012551D01*
X002166Y012365D01*
X002237Y012193D01*
X002369Y012061D01*
X002540Y011990D01*
X002726Y011990D01*
X002898Y012061D01*
X003030Y012193D01*
X003101Y012365D01*
X003101Y012551D01*
X003030Y012723D01*
X002898Y012854D01*
X002863Y012869D01*
X002844Y012913D01*
X002755Y013002D01*
X002898Y013061D01*
X003030Y013193D01*
X003101Y013365D01*
X003101Y013551D01*
X003030Y013723D01*
X002898Y013854D01*
X002726Y013925D01*
X002540Y013925D01*
X002369Y013854D01*
X002237Y013723D01*
X002178Y013580D01*
X002040Y013718D01*
X002101Y013865D01*
X002101Y014051D01*
X002030Y014223D01*
X001898Y014354D01*
X001726Y014425D01*
X001540Y014425D01*
X001369Y014354D01*
X001237Y014223D01*
X001166Y014051D01*
X001166Y013865D01*
X001237Y013693D01*
X001369Y013561D01*
X001400Y013549D01*
X001455Y013493D01*
X001528Y013420D01*
X001369Y013354D01*
X001237Y013223D01*
X001166Y013051D01*
X001166Y012865D01*
X001237Y012693D01*
X001369Y012561D01*
X001540Y012490D01*
X001757Y012503D02*
X002166Y012503D01*
X002166Y012405D02*
X001776Y012405D01*
X001946Y012306D02*
X002190Y012306D01*
X002231Y012208D02*
X002036Y012208D01*
X002077Y012109D02*
X002321Y012109D01*
X002491Y012011D02*
X002101Y012011D01*
X002101Y011912D02*
X003103Y011912D01*
X003103Y011814D02*
X002838Y011814D01*
X002848Y011808D02*
X002791Y011838D01*
X002729Y011858D01*
X002666Y011868D01*
X002663Y011868D01*
X002663Y011488D01*
X002603Y011488D01*
X002603Y011428D01*
X002663Y011428D01*
X002663Y011048D01*
X002666Y011048D01*
X002729Y011058D01*
X002791Y011078D01*
X002848Y011107D01*
X002900Y011145D01*
X002946Y011191D01*
X002984Y011243D01*
X003013Y011300D01*
X003033Y011362D01*
X003043Y011425D01*
X003043Y011428D01*
X002663Y011428D01*
X002663Y011488D01*
X003043Y011488D01*
X003043Y011490D01*
X003033Y011554D01*
X003013Y011615D01*
X002984Y011673D01*
X002946Y011725D01*
X002900Y011770D01*
X002848Y011808D01*
X002953Y011715D02*
X003103Y011715D01*
X003103Y011617D02*
X003013Y011617D01*
X003039Y011518D02*
X003103Y011518D01*
X003103Y011420D02*
X003042Y011420D01*
X003020Y011321D02*
X003090Y011321D01*
X002992Y011223D02*
X002969Y011223D01*
X002893Y011124D02*
X002872Y011124D01*
X002663Y011124D02*
X002603Y011124D01*
X002603Y011223D02*
X002663Y011223D01*
X002663Y011321D02*
X002603Y011321D01*
X002603Y011420D02*
X002663Y011420D01*
X002603Y011488D02*
X002223Y011488D01*
X002223Y011490D01*
X002233Y011554D01*
X002253Y011615D01*
X002283Y011673D01*
X002321Y011725D01*
X002366Y011770D01*
X002418Y011808D01*
X002476Y011838D01*
X002537Y011858D01*
X002601Y011868D01*
X002603Y011868D01*
X002603Y011488D01*
X002603Y011518D02*
X002663Y011518D01*
X002663Y011617D02*
X002603Y011617D01*
X002603Y011715D02*
X002663Y011715D01*
X002663Y011814D02*
X002603Y011814D01*
X002429Y011814D02*
X002080Y011814D01*
X002039Y011715D02*
X002314Y011715D01*
X002254Y011617D02*
X001953Y011617D01*
X001995Y011518D02*
X002228Y011518D01*
X002224Y011420D02*
X002094Y011420D01*
X002192Y011321D02*
X002247Y011321D01*
X002291Y011223D02*
X002297Y011223D01*
X002389Y011124D02*
X002395Y011124D01*
X002776Y012011D02*
X003103Y012011D01*
X003103Y012109D02*
X002946Y012109D01*
X003036Y012208D02*
X003103Y012208D01*
X003103Y012306D02*
X003077Y012306D01*
X003101Y012405D02*
X003103Y012405D01*
X003101Y012503D02*
X003103Y012503D01*
X003103Y012602D02*
X003080Y012602D01*
X003103Y012700D02*
X003039Y012700D01*
X003103Y012799D02*
X002954Y012799D01*
X002851Y012897D02*
X003103Y012897D01*
X003103Y012996D02*
X002762Y012996D01*
X002931Y013094D02*
X003103Y013094D01*
X003103Y013193D02*
X003029Y013193D01*
X003070Y013291D02*
X003103Y013291D01*
X003101Y013390D02*
X003103Y013390D01*
X003101Y013488D02*
X003103Y013488D01*
X003103Y013587D02*
X003086Y013587D01*
X003103Y013685D02*
X003045Y013685D01*
X003015Y013784D02*
X002969Y013784D01*
X002916Y013882D02*
X002830Y013882D01*
X002818Y013981D02*
X002101Y013981D01*
X002089Y014079D02*
X002351Y014079D01*
X002252Y014178D02*
X002048Y014178D01*
X001976Y014276D02*
X002203Y014276D01*
X002166Y014375D02*
X001848Y014375D01*
X001791Y014578D02*
X001848Y014607D01*
X001900Y014645D01*
X001946Y014691D01*
X001984Y014743D01*
X002013Y014800D01*
X002033Y014862D01*
X002043Y014925D01*
X002043Y014928D01*
X001663Y014928D01*
X001663Y014548D01*
X001666Y014548D01*
X001729Y014558D01*
X001791Y014578D01*
X001772Y014572D02*
X002175Y014572D01*
X002166Y014473D02*
X000841Y014473D01*
X000841Y014375D02*
X001418Y014375D01*
X001291Y014276D02*
X000841Y014276D01*
X000841Y014178D02*
X001218Y014178D01*
X001178Y014079D02*
X000841Y014079D01*
X000841Y013981D02*
X001166Y013981D01*
X001166Y013882D02*
X000841Y013882D01*
X000841Y013784D02*
X001199Y013784D01*
X001245Y013685D02*
X000841Y013685D01*
X000841Y013587D02*
X001343Y013587D01*
X001460Y013488D02*
X000841Y013488D01*
X000841Y013390D02*
X001455Y013390D01*
X001306Y013291D02*
X000841Y013291D01*
X000841Y013193D02*
X001225Y013193D01*
X001184Y013094D02*
X000841Y013094D01*
X000841Y012996D02*
X001166Y012996D01*
X001166Y012897D02*
X000841Y012897D01*
X000841Y012799D02*
X001193Y012799D01*
X001234Y012700D02*
X000841Y012700D01*
X000841Y012602D02*
X001328Y012602D01*
X001938Y012602D02*
X002187Y012602D01*
X002228Y012700D02*
X002033Y012700D01*
X002073Y012799D02*
X002149Y012799D01*
X002171Y013587D02*
X002181Y013587D01*
X002222Y013685D02*
X002072Y013685D01*
X002067Y013784D02*
X002298Y013784D01*
X002436Y013882D02*
X002101Y013882D01*
X002215Y014670D02*
X001926Y014670D01*
X001997Y014769D02*
X002283Y014769D01*
X002400Y014867D02*
X002034Y014867D01*
X002043Y014988D02*
X002043Y014990D01*
X002033Y015054D01*
X002013Y015115D01*
X001984Y015173D01*
X001946Y015225D01*
X001900Y015270D01*
X001848Y015308D01*
X001791Y015338D01*
X001729Y015358D01*
X001666Y015368D01*
X001663Y015368D01*
X001663Y014988D01*
X001603Y014988D01*
X001603Y014928D01*
X001223Y014928D01*
X001223Y014925D01*
X001233Y014862D01*
X001253Y014800D01*
X001283Y014743D01*
X001321Y014691D01*
X001366Y014645D01*
X001418Y014607D01*
X001476Y014578D01*
X001537Y014558D01*
X001601Y014548D01*
X001603Y014548D01*
X001603Y014928D01*
X001663Y014928D01*
X001663Y014988D01*
X002043Y014988D01*
X002030Y015064D02*
X002994Y015064D01*
X002896Y015163D02*
X001989Y015163D01*
X001910Y015261D02*
X002797Y015261D01*
X002699Y015360D02*
X001716Y015360D01*
X001663Y015360D02*
X001603Y015360D01*
X001603Y015368D02*
X001601Y015368D01*
X001537Y015358D01*
X001476Y015338D01*
X001418Y015308D01*
X001366Y015270D01*
X001321Y015225D01*
X001283Y015173D01*
X001253Y015115D01*
X001233Y015054D01*
X001223Y014990D01*
X001223Y014988D01*
X001603Y014988D01*
X001603Y015368D01*
X001550Y015360D02*
X000841Y015360D01*
X000841Y015458D02*
X002600Y015458D01*
X002502Y015557D02*
X000841Y015557D01*
X000841Y015655D02*
X002403Y015655D01*
X002305Y015754D02*
X000841Y015754D01*
X000841Y015852D02*
X002206Y015852D01*
X002108Y015951D02*
X000841Y015951D01*
X000841Y016049D02*
X002009Y016049D01*
X001911Y016148D02*
X000841Y016148D01*
X000841Y016246D02*
X001812Y016246D01*
X001714Y016345D02*
X000841Y016345D01*
X000841Y016443D02*
X001615Y016443D01*
X001517Y016542D02*
X000841Y016542D01*
X000841Y016640D02*
X001418Y016640D01*
X001320Y016739D02*
X000841Y016739D01*
X000841Y016837D02*
X001221Y016837D01*
X001123Y016936D02*
X000841Y016936D01*
X000841Y017034D02*
X001024Y017034D01*
X000935Y017133D02*
X000841Y017133D01*
X000841Y017231D02*
X000898Y017231D01*
X000898Y017330D02*
X000841Y017330D01*
X000841Y017428D02*
X000898Y017428D01*
X000898Y017527D02*
X000841Y017527D01*
X000841Y017625D02*
X000898Y017625D01*
X000898Y017724D02*
X000841Y017724D01*
X000841Y017822D02*
X000898Y017822D01*
X000898Y017921D02*
X000841Y017921D01*
X000841Y018019D02*
X000898Y018019D01*
X000898Y018118D02*
X000841Y018118D01*
X000841Y018216D02*
X000898Y018216D01*
X000898Y018315D02*
X000841Y018315D01*
X000841Y018413D02*
X000898Y018413D01*
X000898Y018512D02*
X000841Y018512D01*
X000841Y018610D02*
X000898Y018610D01*
X000898Y018709D02*
X000841Y018709D01*
X000841Y018807D02*
X000898Y018807D01*
X000898Y018906D02*
X000841Y018906D01*
X000841Y019004D02*
X000898Y019004D01*
X000898Y019103D02*
X000841Y019103D01*
X000841Y019201D02*
X000898Y019201D01*
X000898Y019300D02*
X000841Y019300D01*
X000841Y019398D02*
X000898Y019398D01*
X000898Y019497D02*
X000841Y019497D01*
X000841Y019595D02*
X000898Y019595D01*
X000898Y019694D02*
X000841Y019694D01*
X000841Y019792D02*
X000898Y019792D01*
X000898Y019891D02*
X000841Y019891D01*
X000841Y019989D02*
X000898Y019989D01*
X000898Y020088D02*
X000841Y020088D01*
X000841Y020186D02*
X000898Y020186D01*
X000898Y020285D02*
X000841Y020285D01*
X000841Y020383D02*
X000898Y020383D01*
X000898Y020482D02*
X000841Y020482D01*
X000841Y020580D02*
X000898Y020580D01*
X000898Y020679D02*
X000841Y020679D01*
X000841Y020777D02*
X000898Y020777D01*
X000898Y020876D02*
X000841Y020876D01*
X000841Y020974D02*
X000898Y020974D01*
X000898Y021073D02*
X000841Y021073D01*
X000841Y021171D02*
X000898Y021171D01*
X000898Y021270D02*
X000841Y021270D01*
X000841Y021368D02*
X000898Y021368D01*
X000898Y021467D02*
X000841Y021467D01*
X000841Y021565D02*
X000898Y021565D01*
X000898Y021664D02*
X000841Y021664D01*
X000841Y021762D02*
X000898Y021762D01*
X000898Y021861D02*
X000841Y021861D01*
X000841Y021959D02*
X000898Y021959D01*
X000898Y022058D02*
X000841Y022058D01*
X000841Y022156D02*
X000898Y022156D01*
X000898Y022255D02*
X000841Y022255D01*
X000841Y022353D02*
X000898Y022353D01*
X000898Y022452D02*
X000841Y022452D01*
X000841Y022550D02*
X000898Y022550D01*
X000898Y022649D02*
X000841Y022649D01*
X000841Y022747D02*
X000898Y022747D01*
X000898Y022846D02*
X000841Y022846D01*
X000841Y022944D02*
X000898Y022944D01*
X000898Y023043D02*
X000841Y023043D01*
X000841Y023141D02*
X000898Y023141D01*
X000898Y023240D02*
X000841Y023240D01*
X000841Y023338D02*
X000898Y023338D01*
X000898Y023437D02*
X000841Y023437D01*
X000841Y023535D02*
X000898Y023535D01*
X000898Y023634D02*
X000841Y023634D01*
X000841Y023732D02*
X000898Y023732D01*
X000898Y023831D02*
X000841Y023831D01*
X000841Y023929D02*
X000898Y023929D01*
X000898Y024028D02*
X000841Y024028D01*
X000841Y024126D02*
X000898Y024126D01*
X000894Y024225D02*
X000841Y024225D01*
X000841Y024323D02*
X000859Y024323D01*
X000859Y024422D02*
X000841Y024422D01*
X000841Y024520D02*
X000900Y024520D01*
X000841Y024619D02*
X000994Y024619D01*
X000983Y024608D02*
X000983Y024608D01*
X001092Y024717D02*
X000841Y024717D01*
X000841Y024816D02*
X001191Y024816D01*
X001289Y024914D02*
X000841Y024914D01*
X000841Y025013D02*
X001388Y025013D01*
X001486Y025111D02*
X000841Y025111D01*
X000841Y025210D02*
X001585Y025210D01*
X001683Y025308D02*
X000841Y025308D01*
X000841Y025407D02*
X001782Y025407D01*
X001880Y025505D02*
X000841Y025505D01*
X000841Y025604D02*
X001979Y025604D01*
X002077Y025702D02*
X000841Y025702D01*
X000841Y025801D02*
X002176Y025801D01*
X002274Y025899D02*
X000841Y025899D01*
X000841Y025998D02*
X002373Y025998D01*
X002471Y026096D02*
X000841Y026096D01*
X000841Y026195D02*
X002570Y026195D01*
X002668Y026293D02*
X000841Y026293D01*
X000841Y026392D02*
X002767Y026392D01*
X002865Y026490D02*
X000841Y026490D01*
X000841Y026589D02*
X002964Y026589D01*
X003062Y026687D02*
X000841Y026687D01*
X000841Y026786D02*
X003161Y026786D01*
X003259Y026884D02*
X000841Y026884D01*
X000841Y026983D02*
X003358Y026983D01*
X003456Y027081D02*
X000841Y027081D01*
X000841Y027180D02*
X003555Y027180D01*
X003653Y027278D02*
X000841Y027278D01*
X000841Y027377D02*
X003752Y027377D01*
X003850Y027475D02*
X000841Y027475D01*
X000841Y027574D02*
X003949Y027574D01*
X004047Y027672D02*
X000841Y027672D01*
X000841Y027771D02*
X004146Y027771D01*
X004244Y027869D02*
X000841Y027869D01*
X000841Y027968D02*
X004343Y027968D01*
X004441Y028066D02*
X000841Y028066D01*
X000841Y028165D02*
X004540Y028165D01*
X004638Y028263D02*
X000841Y028263D01*
X000841Y028362D02*
X004756Y028362D01*
X004781Y028497D02*
X004848Y028475D01*
X004904Y028466D01*
X004904Y029159D01*
X005001Y029159D01*
X005001Y029256D01*
X005399Y029256D01*
X005399Y029540D01*
X005388Y029609D01*
X005366Y029676D01*
X005334Y029739D01*
X005293Y029796D01*
X005243Y029845D01*
X005186Y029887D01*
X005124Y029919D01*
X005057Y029940D01*
X005001Y029949D01*
X005001Y029256D01*
X004904Y029256D01*
X004904Y029949D01*
X004848Y029940D01*
X004781Y029919D01*
X004718Y029887D01*
X004661Y029845D01*
X004611Y029796D01*
X004570Y029739D01*
X004538Y029676D01*
X004516Y029609D01*
X004505Y029540D01*
X004505Y029256D01*
X004904Y029256D01*
X004904Y029159D01*
X004505Y029159D01*
X004505Y028876D01*
X004516Y028806D01*
X004538Y028739D01*
X004570Y028677D01*
X004611Y028620D01*
X004661Y028570D01*
X004718Y028529D01*
X004781Y028497D01*
X004677Y028559D02*
X004313Y028559D01*
X004380Y028625D02*
X004457Y028811D01*
X004457Y029605D01*
X004380Y029790D01*
X004238Y029932D01*
X004053Y030009D01*
X003852Y030009D01*
X003667Y029932D01*
X003525Y029790D01*
X003448Y029605D01*
X003448Y028811D01*
X003525Y028625D01*
X003667Y028483D01*
X003852Y028407D01*
X004053Y028407D01*
X004238Y028483D01*
X004380Y028625D01*
X004393Y028657D02*
X004584Y028657D01*
X004533Y028756D02*
X004434Y028756D01*
X004457Y028854D02*
X004509Y028854D01*
X004505Y028953D02*
X004457Y028953D01*
X004457Y029051D02*
X004505Y029051D01*
X004505Y029150D02*
X004457Y029150D01*
X004457Y029248D02*
X004904Y029248D01*
X005001Y029248D02*
X005448Y029248D01*
X005448Y029150D02*
X005399Y029150D01*
X005399Y029159D02*
X005001Y029159D01*
X005001Y028466D01*
X005057Y028475D01*
X005124Y028497D01*
X005186Y028529D01*
X005243Y028570D01*
X005293Y028620D01*
X005334Y028677D01*
X005366Y028739D01*
X005388Y028806D01*
X005399Y028876D01*
X005399Y029159D01*
X005399Y029051D02*
X005448Y029051D01*
X005448Y028953D02*
X005399Y028953D01*
X005396Y028854D02*
X005448Y028854D01*
X005448Y028811D02*
X005525Y028625D01*
X005667Y028483D01*
X005852Y028407D01*
X006053Y028407D01*
X006238Y028483D01*
X006380Y028625D01*
X006457Y028811D01*
X006457Y029605D01*
X006380Y029790D01*
X006238Y029932D01*
X006053Y030009D01*
X005852Y030009D01*
X005667Y029932D01*
X005525Y029790D01*
X005448Y029605D01*
X005448Y028811D01*
X005471Y028756D02*
X005372Y028756D01*
X005320Y028657D02*
X005511Y028657D01*
X005591Y028559D02*
X005228Y028559D01*
X005001Y028559D02*
X004904Y028559D01*
X004904Y028657D02*
X005001Y028657D01*
X005001Y028756D02*
X004904Y028756D01*
X004904Y028854D02*
X005001Y028854D01*
X005001Y028953D02*
X004904Y028953D01*
X004904Y029051D02*
X005001Y029051D01*
X005001Y029150D02*
X004904Y029150D01*
X004904Y029347D02*
X005001Y029347D01*
X005001Y029445D02*
X004904Y029445D01*
X004904Y029544D02*
X005001Y029544D01*
X005001Y029642D02*
X004904Y029642D01*
X004904Y029741D02*
X005001Y029741D01*
X005001Y029839D02*
X004904Y029839D01*
X004904Y029938D02*
X005001Y029938D01*
X005065Y029938D02*
X005680Y029938D01*
X005574Y029839D02*
X005250Y029839D01*
X005333Y029741D02*
X005504Y029741D01*
X005463Y029642D02*
X005377Y029642D01*
X005398Y029544D02*
X005448Y029544D01*
X005448Y029445D02*
X005399Y029445D01*
X005399Y029347D02*
X005448Y029347D01*
X004839Y029938D02*
X004224Y029938D01*
X004331Y029839D02*
X004655Y029839D01*
X004571Y029741D02*
X004400Y029741D01*
X004441Y029642D02*
X004527Y029642D01*
X004506Y029544D02*
X004457Y029544D01*
X004457Y029445D02*
X004505Y029445D01*
X004505Y029347D02*
X004457Y029347D01*
X004182Y028460D02*
X005722Y028460D01*
X006182Y028460D02*
X006410Y028460D01*
X006313Y028559D02*
X006509Y028559D01*
X006607Y028657D02*
X006393Y028657D01*
X006434Y028756D02*
X006706Y028756D01*
X006804Y028854D02*
X006457Y028854D01*
X006457Y028953D02*
X006903Y028953D01*
X007001Y029051D02*
X006457Y029051D01*
X006457Y029150D02*
X007054Y029150D01*
X007054Y029248D02*
X006457Y029248D01*
X006457Y029347D02*
X007054Y029347D01*
X007054Y029445D02*
X006457Y029445D01*
X006457Y029544D02*
X007054Y029544D01*
X007070Y029642D02*
X006441Y029642D01*
X006400Y029741D02*
X007110Y029741D01*
X007180Y029839D02*
X006331Y029839D01*
X006224Y029938D02*
X007286Y029938D01*
X007831Y029938D02*
X008446Y029938D01*
X008454Y029940D02*
X008387Y029919D01*
X008324Y029887D01*
X008267Y029845D01*
X008218Y029796D01*
X008176Y029739D01*
X008144Y029676D01*
X008123Y029609D01*
X008112Y029540D01*
X008112Y029256D01*
X008510Y029256D01*
X008510Y029159D01*
X008607Y029159D01*
X008607Y028466D01*
X008663Y028475D01*
X008730Y028497D01*
X008793Y028529D01*
X008850Y028570D01*
X008899Y028620D01*
X008941Y028677D01*
X008973Y028739D01*
X008994Y028806D01*
X009005Y028876D01*
X009005Y029159D01*
X008607Y029159D01*
X008607Y029256D01*
X009005Y029256D01*
X009005Y029540D01*
X008994Y029609D01*
X008973Y029676D01*
X008941Y029739D01*
X008899Y029796D01*
X008850Y029845D01*
X008793Y029887D01*
X008730Y029919D01*
X008663Y029940D01*
X008607Y029949D01*
X008607Y029256D01*
X008510Y029256D01*
X008510Y029949D01*
X008454Y029940D01*
X008510Y029938D02*
X008607Y029938D01*
X008672Y029938D02*
X009286Y029938D01*
X009180Y029839D02*
X008856Y029839D01*
X008939Y029741D02*
X009110Y029741D01*
X009070Y029642D02*
X008984Y029642D01*
X009005Y029544D02*
X009054Y029544D01*
X009054Y029445D02*
X009005Y029445D01*
X009005Y029347D02*
X009054Y029347D01*
X009054Y029248D02*
X008607Y029248D01*
X008510Y029248D02*
X008063Y029248D01*
X008063Y029150D02*
X008112Y029150D01*
X008112Y029159D02*
X008112Y028876D01*
X008123Y028806D01*
X008144Y028739D01*
X008176Y028677D01*
X008218Y028620D01*
X008267Y028570D01*
X008324Y028529D01*
X008387Y028497D01*
X008454Y028475D01*
X008510Y028466D01*
X008510Y029159D01*
X008112Y029159D01*
X008112Y029051D02*
X008063Y029051D01*
X008063Y028953D02*
X008112Y028953D01*
X008115Y028854D02*
X008063Y028854D01*
X008040Y028756D02*
X008139Y028756D01*
X008190Y028657D02*
X007999Y028657D01*
X007920Y028559D02*
X008283Y028559D01*
X008510Y028559D02*
X008607Y028559D01*
X008607Y028657D02*
X008510Y028657D01*
X008510Y028756D02*
X008607Y028756D01*
X008607Y028854D02*
X008510Y028854D01*
X008510Y028953D02*
X008607Y028953D01*
X008607Y029051D02*
X008510Y029051D01*
X008510Y029150D02*
X008607Y029150D01*
X008607Y029347D02*
X008510Y029347D01*
X008510Y029445D02*
X008607Y029445D01*
X008607Y029544D02*
X008510Y029544D01*
X008510Y029642D02*
X008607Y029642D01*
X008607Y029741D02*
X008510Y029741D01*
X008510Y029839D02*
X008607Y029839D01*
X008261Y029839D02*
X007937Y029839D01*
X008007Y029741D02*
X008178Y029741D01*
X008133Y029642D02*
X008047Y029642D01*
X008063Y029544D02*
X008112Y029544D01*
X008112Y029445D02*
X008063Y029445D01*
X008063Y029347D02*
X008112Y029347D01*
X007788Y028460D02*
X009329Y028460D01*
X009197Y028559D02*
X008834Y028559D01*
X008927Y028657D02*
X009118Y028657D01*
X009077Y028756D02*
X008978Y028756D01*
X009002Y028854D02*
X009054Y028854D01*
X009054Y028953D02*
X009005Y028953D01*
X009005Y029051D02*
X009054Y029051D01*
X009054Y029150D02*
X009005Y029150D01*
X009788Y028460D02*
X010031Y028460D01*
X009933Y028559D02*
X009920Y028559D01*
X010130Y028362D02*
X007121Y028362D01*
X007220Y028460D02*
X007329Y028460D01*
X007023Y028263D02*
X010162Y028263D01*
X010057Y028165D02*
X006924Y028165D01*
X006826Y028066D02*
X010010Y028066D01*
X009973Y027968D02*
X006727Y027968D01*
X006629Y027869D02*
X009874Y027869D01*
X009776Y027771D02*
X004955Y027771D01*
X004857Y027672D02*
X009677Y027672D01*
X009579Y027574D02*
X004758Y027574D01*
X004660Y027475D02*
X009480Y027475D01*
X009382Y027377D02*
X004561Y027377D01*
X004463Y027278D02*
X007775Y027278D01*
X007980Y027278D02*
X009283Y027278D01*
X009185Y027180D02*
X008140Y027180D01*
X008209Y027081D02*
X009086Y027081D01*
X008988Y026983D02*
X008244Y026983D01*
X008244Y026884D02*
X008889Y026884D01*
X008791Y026786D02*
X008216Y026786D01*
X008158Y026687D02*
X008692Y026687D01*
X008594Y026589D02*
X008024Y026589D01*
X008195Y026490D02*
X008495Y026490D01*
X008397Y026392D02*
X008298Y026392D01*
X007847Y025841D02*
X007680Y025675D01*
X007651Y025675D01*
X007651Y025675D01*
X007680Y025732D01*
X007700Y025793D01*
X007710Y025857D01*
X007710Y025860D01*
X007331Y025860D01*
X007331Y025918D01*
X007274Y025918D01*
X007274Y026296D01*
X007271Y026296D01*
X007207Y026286D01*
X007146Y026266D01*
X007089Y026237D01*
X007037Y026200D01*
X006992Y026154D01*
X006954Y026102D01*
X006925Y026045D01*
X006905Y025984D01*
X006895Y025921D01*
X006895Y025918D01*
X007274Y025918D01*
X007274Y025860D01*
X006895Y025860D01*
X006895Y025857D01*
X006905Y025793D01*
X006925Y025732D01*
X006954Y025675D01*
X006973Y025650D01*
X006928Y025631D01*
X006847Y025551D01*
X004369Y023072D01*
X004288Y022992D01*
X004245Y022887D01*
X004245Y019006D01*
X004221Y018982D01*
X004165Y018847D01*
X004165Y018702D01*
X004221Y018567D01*
X004324Y018464D01*
X004382Y018440D01*
X003979Y018037D01*
X002794Y018037D01*
X002654Y018177D01*
X002485Y018247D01*
X002654Y018317D01*
X002797Y018460D01*
X002874Y018646D01*
X002874Y018848D01*
X002797Y019035D01*
X002654Y019177D01*
X002485Y019247D01*
X002654Y019317D01*
X002797Y019460D01*
X002874Y019646D01*
X002874Y019848D01*
X002797Y020035D01*
X002654Y020177D01*
X002467Y020255D01*
X001665Y020255D01*
X001479Y020177D01*
X001471Y020169D01*
X001471Y022573D01*
X001551Y022493D01*
X001736Y022416D01*
X002531Y022416D01*
X002716Y022493D01*
X002858Y022635D01*
X002935Y022820D01*
X002935Y022876D01*
X006382Y026323D01*
X007444Y026323D01*
X007565Y026202D01*
X007516Y026237D01*
X007459Y026266D01*
X007398Y026286D01*
X007335Y026296D01*
X007331Y026296D01*
X007331Y025918D01*
X007710Y025918D01*
X007710Y025921D01*
X007706Y025948D01*
X007788Y025866D01*
X007847Y025841D01*
X007806Y025801D02*
X007701Y025801D01*
X007707Y025702D02*
X007665Y025702D01*
X007755Y025899D02*
X007331Y025899D01*
X007274Y025899D02*
X005958Y025899D01*
X005859Y025801D02*
X006904Y025801D01*
X006940Y025702D02*
X005761Y025702D01*
X005662Y025604D02*
X006900Y025604D01*
X006847Y025551D02*
X006847Y025551D01*
X006802Y025505D02*
X005564Y025505D01*
X005465Y025407D02*
X006703Y025407D01*
X006605Y025308D02*
X005367Y025308D01*
X005268Y025210D02*
X006506Y025210D01*
X006408Y025111D02*
X005170Y025111D01*
X005071Y025013D02*
X006309Y025013D01*
X006211Y024914D02*
X004973Y024914D01*
X004874Y024816D02*
X006112Y024816D01*
X006014Y024717D02*
X004776Y024717D01*
X004677Y024619D02*
X005915Y024619D01*
X005817Y024520D02*
X004579Y024520D01*
X004480Y024422D02*
X005718Y024422D01*
X005620Y024323D02*
X004382Y024323D01*
X004283Y024225D02*
X005521Y024225D01*
X005423Y024126D02*
X004185Y024126D01*
X004086Y024028D02*
X005324Y024028D01*
X005226Y023929D02*
X003988Y023929D01*
X003889Y023831D02*
X005127Y023831D01*
X005029Y023732D02*
X003791Y023732D01*
X003692Y023634D02*
X004930Y023634D01*
X004832Y023535D02*
X003594Y023535D01*
X003495Y023437D02*
X004733Y023437D01*
X004635Y023338D02*
X003397Y023338D01*
X003298Y023240D02*
X004536Y023240D01*
X004438Y023141D02*
X003200Y023141D01*
X003101Y023043D02*
X004339Y023043D01*
X004369Y023072D02*
X004369Y023072D01*
X004269Y022944D02*
X003003Y022944D01*
X002935Y022846D02*
X004245Y022846D01*
X004245Y022747D02*
X002904Y022747D01*
X002864Y022649D02*
X004245Y022649D01*
X004245Y022550D02*
X002773Y022550D01*
X002617Y022452D02*
X004245Y022452D01*
X004245Y022353D02*
X001471Y022353D01*
X001471Y022255D02*
X004245Y022255D01*
X004245Y022156D02*
X001471Y022156D01*
X001471Y022058D02*
X004245Y022058D01*
X004245Y021959D02*
X001471Y021959D01*
X001471Y021861D02*
X004245Y021861D01*
X004245Y021762D02*
X001471Y021762D01*
X001471Y021664D02*
X004245Y021664D01*
X004245Y021565D02*
X001471Y021565D01*
X001471Y021467D02*
X004245Y021467D01*
X004245Y021368D02*
X001471Y021368D01*
X001471Y021270D02*
X004245Y021270D01*
X004245Y021171D02*
X001471Y021171D01*
X001471Y021073D02*
X004245Y021073D01*
X004245Y020974D02*
X001471Y020974D01*
X001471Y020876D02*
X004245Y020876D01*
X004245Y020777D02*
X001471Y020777D01*
X001471Y020679D02*
X004245Y020679D01*
X004245Y020580D02*
X001471Y020580D01*
X001471Y020482D02*
X004245Y020482D01*
X004245Y020383D02*
X001471Y020383D01*
X001471Y020285D02*
X004245Y020285D01*
X004245Y020186D02*
X002632Y020186D01*
X002744Y020088D02*
X004245Y020088D01*
X004245Y019989D02*
X002815Y019989D01*
X002856Y019891D02*
X004245Y019891D01*
X004245Y019792D02*
X002874Y019792D01*
X002874Y019694D02*
X004245Y019694D01*
X004245Y019595D02*
X002853Y019595D01*
X002812Y019497D02*
X004245Y019497D01*
X004245Y019398D02*
X002735Y019398D01*
X002612Y019300D02*
X004245Y019300D01*
X004245Y019201D02*
X002596Y019201D01*
X002729Y019103D02*
X004245Y019103D01*
X004243Y019004D02*
X002809Y019004D01*
X002850Y018906D02*
X004189Y018906D01*
X004165Y018807D02*
X002874Y018807D01*
X002874Y018709D02*
X004165Y018709D01*
X004203Y018610D02*
X002859Y018610D01*
X002818Y018512D02*
X004276Y018512D01*
X004355Y018413D02*
X002750Y018413D01*
X002649Y018315D02*
X004257Y018315D01*
X004158Y018216D02*
X002560Y018216D01*
X002714Y018118D02*
X004060Y018118D01*
X004475Y017724D02*
X006868Y017724D01*
X006838Y017822D02*
X004574Y017822D01*
X004672Y017921D02*
X006838Y017921D01*
X006853Y018019D02*
X004771Y018019D01*
X004869Y018118D02*
X006894Y018118D01*
X006972Y018216D02*
X004968Y018216D01*
X005066Y018315D02*
X007116Y018315D01*
X006909Y017625D02*
X004377Y017625D01*
X004278Y017527D02*
X007007Y017527D01*
X007200Y017428D02*
X006345Y017428D01*
X006494Y017330D02*
X007152Y017330D01*
X006987Y017231D02*
X006558Y017231D01*
X006590Y017133D02*
X006900Y017133D01*
X006860Y017034D02*
X006590Y017034D01*
X006560Y016936D02*
X006838Y016936D01*
X006838Y016837D02*
X006510Y016837D01*
X006510Y016739D02*
X006862Y016739D01*
X006902Y016640D02*
X006510Y016640D01*
X006510Y016542D02*
X006992Y016542D01*
X007164Y016443D02*
X006510Y016443D01*
X006510Y016345D02*
X007188Y016345D01*
X007002Y016246D02*
X006510Y016246D01*
X006510Y016148D02*
X006907Y016148D01*
X006866Y016049D02*
X006510Y016049D01*
X006510Y015951D02*
X006838Y015951D01*
X006838Y015852D02*
X006510Y015852D01*
X006510Y015754D02*
X006855Y015754D01*
X006896Y015655D02*
X006510Y015655D01*
X006510Y015557D02*
X006853Y015557D01*
X006755Y015458D02*
X006510Y015458D01*
X006510Y015360D02*
X006656Y015360D01*
X006558Y015261D02*
X006515Y015261D01*
X005938Y015360D02*
X004099Y015360D01*
X004000Y015458D02*
X005938Y015458D01*
X005938Y015557D02*
X003902Y015557D01*
X003803Y015655D02*
X005938Y015655D01*
X005938Y015754D02*
X003705Y015754D01*
X003606Y015852D02*
X005938Y015852D01*
X005938Y015951D02*
X003508Y015951D01*
X003409Y016049D02*
X005938Y016049D01*
X005938Y016148D02*
X003311Y016148D01*
X003212Y016246D02*
X005938Y016246D01*
X005938Y016345D02*
X003114Y016345D01*
X003015Y016443D02*
X005938Y016443D01*
X005938Y016542D02*
X002917Y016542D01*
X002818Y016640D02*
X005938Y016640D01*
X005938Y016739D02*
X002720Y016739D01*
X002621Y016837D02*
X005938Y016837D01*
X005888Y016936D02*
X002523Y016936D01*
X002424Y017034D02*
X005858Y017034D01*
X005858Y017133D02*
X002338Y017133D01*
X002306Y017231D02*
X005889Y017231D01*
X005954Y017330D02*
X002667Y017330D01*
X002765Y017428D02*
X006103Y017428D01*
X004946Y019004D02*
X004819Y019004D01*
X004817Y019103D02*
X005045Y019103D01*
X005143Y019201D02*
X004817Y019201D01*
X004817Y019300D02*
X005242Y019300D01*
X005340Y019398D02*
X004817Y019398D01*
X004817Y019497D02*
X005439Y019497D01*
X005537Y019595D02*
X004817Y019595D01*
X004817Y019694D02*
X005636Y019694D01*
X005734Y019792D02*
X004817Y019792D01*
X004817Y019891D02*
X005833Y019891D01*
X005931Y019989D02*
X004817Y019989D01*
X004817Y020088D02*
X006030Y020088D01*
X006128Y020186D02*
X004817Y020186D01*
X004817Y020285D02*
X006227Y020285D01*
X006325Y020383D02*
X004817Y020383D01*
X004817Y020482D02*
X006424Y020482D01*
X006522Y020580D02*
X004817Y020580D01*
X002569Y024422D02*
X002538Y024422D01*
X002667Y024520D02*
X001705Y024520D01*
X001729Y024422D02*
X001606Y024422D01*
X001526Y024323D02*
X001508Y024323D01*
X001803Y024619D02*
X002766Y024619D01*
X002864Y024717D02*
X001902Y024717D01*
X002000Y024816D02*
X002963Y024816D01*
X003061Y024914D02*
X002099Y024914D01*
X002197Y025013D02*
X003160Y025013D01*
X003258Y025111D02*
X002296Y025111D01*
X002394Y025210D02*
X003357Y025210D01*
X003455Y025308D02*
X002493Y025308D01*
X002591Y025407D02*
X003554Y025407D01*
X003652Y025505D02*
X002690Y025505D01*
X002788Y025604D02*
X003751Y025604D01*
X003849Y025702D02*
X002887Y025702D01*
X002985Y025801D02*
X003948Y025801D01*
X004046Y025899D02*
X003084Y025899D01*
X003182Y025998D02*
X004145Y025998D01*
X004243Y026096D02*
X003281Y026096D01*
X003379Y026195D02*
X004342Y026195D01*
X004440Y026293D02*
X003478Y026293D01*
X003576Y026392D02*
X004539Y026392D01*
X004637Y026490D02*
X003675Y026490D01*
X003773Y026589D02*
X004736Y026589D01*
X004834Y026687D02*
X003872Y026687D01*
X003970Y026786D02*
X004933Y026786D01*
X005031Y026884D02*
X004069Y026884D01*
X004167Y026983D02*
X005130Y026983D01*
X005228Y027081D02*
X004266Y027081D01*
X004364Y027180D02*
X005345Y027180D01*
X006253Y026195D02*
X007032Y026195D01*
X006951Y026096D02*
X006155Y026096D01*
X006056Y025998D02*
X006910Y025998D01*
X007274Y025998D02*
X007331Y025998D01*
X007331Y026096D02*
X007274Y026096D01*
X007274Y026195D02*
X007331Y026195D01*
X007331Y026293D02*
X007274Y026293D01*
X007251Y026293D02*
X006352Y026293D01*
X007354Y026293D02*
X007474Y026293D01*
X010007Y029741D02*
X010717Y029741D01*
X010676Y029642D02*
X010047Y029642D01*
X010063Y029544D02*
X010660Y029544D01*
X010660Y029445D02*
X010063Y029445D01*
X010063Y029347D02*
X010660Y029347D01*
X010660Y029248D02*
X010063Y029248D01*
X010151Y029150D02*
X010660Y029150D01*
X010660Y029051D02*
X010250Y029051D01*
X010348Y028953D02*
X010660Y028953D01*
X010660Y028854D02*
X010447Y028854D01*
X010545Y028756D02*
X010683Y028756D01*
X010644Y028657D02*
X010724Y028657D01*
X010742Y028559D02*
X010804Y028559D01*
X010841Y028460D02*
X010935Y028460D01*
X010786Y029839D02*
X009937Y029839D01*
X009831Y029938D02*
X010893Y029938D01*
X012116Y029839D02*
X012213Y029839D01*
X012213Y029741D02*
X012116Y029741D01*
X012116Y029642D02*
X012213Y029642D01*
X012213Y029544D02*
X012116Y029544D01*
X012116Y029445D02*
X012213Y029445D01*
X012213Y029347D02*
X012116Y029347D01*
X012612Y029347D02*
X012660Y029347D01*
X012660Y029445D02*
X012612Y029445D01*
X012611Y029544D02*
X012660Y029544D01*
X012676Y029642D02*
X012590Y029642D01*
X012546Y029741D02*
X012717Y029741D01*
X012786Y029839D02*
X012462Y029839D01*
X012297Y026293D02*
X016064Y026293D01*
X015951Y026195D02*
X012198Y026195D01*
X012100Y026096D02*
X015885Y026096D01*
X015844Y025998D02*
X012001Y025998D01*
X011903Y025899D02*
X015838Y025899D01*
X015838Y025801D02*
X011804Y025801D01*
X011706Y025702D02*
X015877Y025702D01*
X015930Y025604D02*
X011607Y025604D01*
X011509Y025505D02*
X016029Y025505D01*
X016505Y025308D02*
X016804Y025308D01*
X016804Y025210D02*
X016639Y025210D01*
X016714Y025111D02*
X016804Y025111D01*
X016804Y025013D02*
X016755Y025013D01*
X016768Y024914D02*
X016804Y024914D01*
X016804Y024816D02*
X016768Y024816D01*
X016735Y024717D02*
X016804Y024717D01*
X016804Y024619D02*
X016690Y024619D01*
X017376Y024619D02*
X017579Y024619D01*
X017579Y024717D02*
X017376Y024717D01*
X017376Y024816D02*
X017579Y024816D01*
X017560Y024914D02*
X017376Y024914D01*
X017376Y025013D02*
X017461Y025013D01*
X017376Y024520D02*
X017579Y024520D01*
X017614Y024422D02*
X017376Y024422D01*
X017376Y023535D02*
X018171Y023535D01*
X018210Y023437D02*
X017376Y023437D01*
X017376Y023338D02*
X018279Y023338D01*
X018413Y023240D02*
X017376Y023240D01*
X017880Y025407D02*
X020072Y025407D01*
X020072Y025505D02*
X017782Y025505D01*
X017683Y025604D02*
X020072Y025604D01*
X020072Y025702D02*
X017585Y025702D01*
X017486Y025801D02*
X020072Y025801D01*
X020072Y025899D02*
X017388Y025899D01*
X017376Y025998D02*
X020072Y025998D01*
X020072Y026096D02*
X017376Y026096D01*
X017376Y026195D02*
X020072Y026195D01*
X020072Y026293D02*
X017376Y026293D01*
X017376Y026392D02*
X020072Y026392D01*
X020072Y026490D02*
X017376Y026490D01*
X017376Y026589D02*
X020072Y026589D01*
X020072Y026687D02*
X017376Y026687D01*
X017376Y026786D02*
X020072Y026786D01*
X020072Y026884D02*
X017376Y026884D01*
X017376Y026983D02*
X020072Y026983D01*
X020072Y027081D02*
X017376Y027081D01*
X017343Y027180D02*
X020072Y027180D01*
X020072Y027278D02*
X017259Y027278D01*
X017160Y027377D02*
X020072Y027377D01*
X020072Y027475D02*
X017062Y027475D01*
X016963Y027574D02*
X020072Y027574D01*
X020072Y027672D02*
X016865Y027672D01*
X016766Y027771D02*
X020072Y027771D01*
X020072Y027869D02*
X016668Y027869D01*
X016569Y027968D02*
X020072Y027968D01*
X020072Y028066D02*
X016471Y028066D01*
X016491Y028165D02*
X020072Y028165D01*
X020072Y028263D02*
X016590Y028263D01*
X016688Y028362D02*
X020072Y028362D01*
X020072Y028460D02*
X017001Y028460D01*
X017132Y028559D02*
X020072Y028559D01*
X020072Y028657D02*
X017212Y028657D01*
X017253Y028756D02*
X018864Y028756D01*
X018939Y028725D02*
X019257Y028725D01*
X019550Y028846D01*
X019774Y029071D01*
X019896Y029364D01*
X019896Y029681D01*
X019774Y029975D01*
X019550Y030199D01*
X019257Y030321D01*
X018939Y030321D01*
X018646Y030199D01*
X018421Y029975D01*
X018300Y029681D01*
X018300Y029364D01*
X018421Y029071D01*
X018646Y028846D01*
X018939Y028725D01*
X018638Y028854D02*
X017275Y028854D01*
X017275Y028953D02*
X018539Y028953D01*
X018441Y029051D02*
X017275Y029051D01*
X017275Y029150D02*
X018389Y029150D01*
X018348Y029248D02*
X017275Y029248D01*
X017275Y029347D02*
X018307Y029347D01*
X018300Y029445D02*
X017275Y029445D01*
X017275Y029544D02*
X018300Y029544D01*
X018300Y029642D02*
X017260Y029642D01*
X017219Y029741D02*
X018324Y029741D01*
X018365Y029839D02*
X017150Y029839D01*
X017043Y029938D02*
X018406Y029938D01*
X018483Y030036D02*
X002430Y030036D01*
X002491Y029975D02*
X002266Y030199D01*
X001973Y030321D01*
X001656Y030321D01*
X001362Y030199D01*
X001138Y029975D01*
X001016Y029681D01*
X001016Y029364D01*
X001138Y029071D01*
X001362Y028846D01*
X001656Y028725D01*
X001973Y028725D01*
X002266Y028846D01*
X002491Y029071D01*
X002612Y029364D01*
X002612Y029681D01*
X002491Y029975D01*
X002506Y029938D02*
X003680Y029938D01*
X003574Y029839D02*
X002547Y029839D01*
X002588Y029741D02*
X003504Y029741D01*
X003463Y029642D02*
X002612Y029642D01*
X002612Y029544D02*
X003448Y029544D01*
X003448Y029445D02*
X002612Y029445D01*
X002605Y029347D02*
X003448Y029347D01*
X003448Y029248D02*
X002565Y029248D01*
X002524Y029150D02*
X003448Y029150D01*
X003448Y029051D02*
X002472Y029051D01*
X002373Y028953D02*
X003448Y028953D01*
X003448Y028854D02*
X002275Y028854D01*
X002048Y028756D02*
X003471Y028756D01*
X003511Y028657D02*
X000841Y028657D01*
X000841Y028559D02*
X003591Y028559D01*
X003722Y028460D02*
X000841Y028460D01*
X000841Y028756D02*
X001581Y028756D01*
X001354Y028854D02*
X000841Y028854D01*
X000841Y028953D02*
X001256Y028953D01*
X001157Y029051D02*
X000841Y029051D01*
X000841Y029150D02*
X001105Y029150D01*
X001064Y029248D02*
X000841Y029248D01*
X000841Y029347D02*
X001024Y029347D01*
X001016Y029445D02*
X000841Y029445D01*
X000841Y029544D02*
X001016Y029544D01*
X001016Y029642D02*
X000841Y029642D01*
X000841Y029741D02*
X001041Y029741D01*
X001082Y029839D02*
X000841Y029839D01*
X000841Y029938D02*
X001123Y029938D01*
X001199Y030036D02*
X000841Y030036D01*
X000841Y030135D02*
X001298Y030135D01*
X001444Y030233D02*
X000841Y030233D01*
X000841Y030332D02*
X020072Y030332D01*
X020072Y030430D02*
X000841Y030430D01*
X002184Y030233D02*
X018728Y030233D01*
X018581Y030135D02*
X002331Y030135D01*
X001493Y022550D02*
X001471Y022550D01*
X001471Y022452D02*
X001650Y022452D01*
X001500Y020186D02*
X001471Y020186D01*
X001357Y015261D02*
X000841Y015261D01*
X000841Y015163D02*
X001278Y015163D01*
X001237Y015064D02*
X000841Y015064D01*
X000841Y014966D02*
X001603Y014966D01*
X001663Y014966D02*
X003093Y014966D01*
X003191Y014867D02*
X002866Y014867D01*
X002984Y014769D02*
X003290Y014769D01*
X003388Y014670D02*
X003051Y014670D01*
X003092Y014572D02*
X003418Y014572D01*
X003418Y014473D02*
X003135Y014473D01*
X003233Y014375D02*
X003418Y014375D01*
X003418Y014276D02*
X003332Y014276D01*
X004276Y015163D02*
X005881Y015163D01*
X005858Y015064D02*
X004305Y015064D01*
X004305Y014966D02*
X005858Y014966D01*
X005897Y014867D02*
X004305Y014867D01*
X004305Y014769D02*
X005972Y014769D01*
X006045Y014670D02*
X004305Y014670D01*
X004305Y014572D02*
X005947Y014572D01*
X005848Y014473D02*
X004305Y014473D01*
X004305Y014375D02*
X005712Y014375D01*
X005538Y014276D02*
X004305Y014276D01*
X004305Y014178D02*
X005464Y014178D01*
X005425Y014079D02*
X004305Y014079D01*
X004305Y013981D02*
X005425Y013981D01*
X005448Y013882D02*
X004305Y013882D01*
X004305Y013784D02*
X005500Y013784D01*
X005620Y013685D02*
X004305Y013685D01*
X004305Y013587D02*
X006947Y013587D01*
X006884Y013685D02*
X005961Y013685D01*
X006082Y013784D02*
X006843Y013784D01*
X006838Y013882D02*
X006134Y013882D01*
X006165Y013981D02*
X006838Y013981D01*
X006878Y014079D02*
X006264Y014079D01*
X006362Y014178D02*
X006934Y014178D01*
X007032Y014276D02*
X006461Y014276D01*
X006756Y014572D02*
X006962Y014572D01*
X006890Y014670D02*
X006855Y014670D01*
X007055Y013488D02*
X004395Y013488D01*
X004078Y012996D02*
X003990Y012996D01*
X003990Y012897D02*
X004177Y012897D01*
X004275Y012799D02*
X003990Y012799D01*
X003990Y012700D02*
X004374Y012700D01*
X004472Y012602D02*
X003990Y012602D01*
X004003Y012503D02*
X004571Y012503D01*
X004669Y012405D02*
X004101Y012405D01*
X004200Y012306D02*
X004768Y012306D01*
X004866Y012208D02*
X004298Y012208D01*
X004397Y012109D02*
X004965Y012109D01*
X005063Y012011D02*
X004495Y012011D01*
X004079Y011617D02*
X003675Y011617D01*
X003675Y011715D02*
X003981Y011715D01*
X003882Y011814D02*
X003675Y011814D01*
X003675Y011912D02*
X003784Y011912D01*
X003685Y012011D02*
X003675Y012011D01*
X003675Y011518D02*
X004178Y011518D01*
X004276Y011420D02*
X003675Y011420D01*
X003675Y011321D02*
X004375Y011321D01*
X004473Y011223D02*
X003675Y011223D01*
X003661Y011124D02*
X004572Y011124D01*
X004670Y011026D02*
X003604Y011026D01*
X003506Y010927D02*
X004769Y010927D01*
X004867Y010829D02*
X003407Y010829D01*
X003309Y010730D02*
X004966Y010730D01*
X005064Y010632D02*
X003210Y010632D01*
X003112Y010533D02*
X005163Y010533D01*
X006148Y009548D02*
X000841Y009548D01*
X000841Y009450D02*
X006246Y009450D01*
X006345Y009351D02*
X000841Y009351D01*
X000841Y009253D02*
X006443Y009253D01*
X006542Y009154D02*
X000841Y009154D01*
X000841Y009056D02*
X006640Y009056D01*
X006739Y008957D02*
X000841Y008957D01*
X000841Y008859D02*
X004012Y008859D01*
X003863Y008760D02*
X000841Y008760D01*
X000841Y008662D02*
X003764Y008662D01*
X003714Y008563D02*
X000841Y008563D01*
X000841Y008465D02*
X003673Y008465D01*
X003653Y008366D02*
X000841Y008366D01*
X000841Y008268D02*
X003653Y008268D01*
X003653Y008169D02*
X000841Y008169D01*
X000841Y008071D02*
X003692Y008071D01*
X003733Y007972D02*
X000841Y007972D01*
X000841Y007874D02*
X003810Y007874D01*
X003908Y007775D02*
X000841Y007775D01*
X000841Y007677D02*
X004122Y007677D01*
X004010Y007480D02*
X000841Y007480D01*
X000841Y007578D02*
X005235Y007578D01*
X004125Y006298D02*
X000841Y006298D01*
X000841Y006396D02*
X003909Y006396D01*
X003811Y006495D02*
X000841Y006495D01*
X000841Y006593D02*
X003733Y006593D01*
X003693Y006692D02*
X000841Y006692D01*
X000841Y006790D02*
X003653Y006790D01*
X003653Y006889D02*
X000841Y006889D01*
X000841Y006987D02*
X003653Y006987D01*
X003673Y007086D02*
X000841Y007086D01*
X000841Y007184D02*
X003714Y007184D01*
X003763Y007283D02*
X000841Y007283D01*
X000841Y007381D02*
X003862Y007381D01*
X001396Y003835D02*
X000841Y003835D01*
X000841Y003737D02*
X001278Y003737D01*
X001179Y003638D02*
X000841Y003638D01*
X000841Y003540D02*
X001114Y003540D01*
X001073Y003441D02*
X000841Y003441D01*
X000841Y003343D02*
X001033Y003343D01*
X001016Y003244D02*
X000841Y003244D01*
X000841Y003146D02*
X001016Y003146D01*
X001016Y003047D02*
X000841Y003047D01*
X000841Y002949D02*
X001032Y002949D01*
X001073Y002850D02*
X000841Y002850D01*
X000841Y002752D02*
X001113Y002752D01*
X001177Y002653D02*
X000841Y002653D01*
X000841Y002555D02*
X001276Y002555D01*
X001392Y002456D02*
X000841Y002456D01*
X000841Y002358D02*
X001629Y002358D01*
X006373Y007480D02*
X007075Y007480D01*
X008360Y007480D02*
X010583Y007480D01*
X010583Y007578D02*
X008385Y007578D01*
X008483Y007677D02*
X010583Y007677D01*
X010583Y007775D02*
X008582Y007775D01*
X008680Y007874D02*
X010583Y007874D01*
X010583Y007972D02*
X008779Y007972D01*
X008877Y008071D02*
X010583Y008071D01*
X010583Y008169D02*
X008976Y008169D01*
X009074Y008268D02*
X010583Y008268D01*
X010583Y008366D02*
X009173Y008366D01*
X009271Y008465D02*
X010583Y008465D01*
X010583Y008563D02*
X009370Y008563D01*
X009468Y008662D02*
X010583Y008662D01*
X010488Y008760D02*
X009567Y008760D01*
X009665Y008859D02*
X010410Y008859D01*
X010410Y008957D02*
X009764Y008957D01*
X009862Y009056D02*
X010410Y009056D01*
X010410Y009154D02*
X009961Y009154D01*
X010059Y009253D02*
X010410Y009253D01*
X010410Y009351D02*
X010158Y009351D01*
X010256Y009450D02*
X010410Y009450D01*
X010410Y009548D02*
X010355Y009548D01*
X010453Y009647D02*
X010456Y009647D01*
X010552Y009745D02*
X011292Y009745D01*
X011292Y010336D02*
X007537Y010336D01*
X007611Y010238D02*
X010235Y010238D01*
X010136Y010139D02*
X007702Y010139D01*
X007743Y010041D02*
X010038Y010041D01*
X009939Y009942D02*
X007768Y009942D01*
X007768Y009844D02*
X009841Y009844D01*
X009742Y009745D02*
X007746Y009745D01*
X007706Y009647D02*
X009644Y009647D01*
X009545Y009548D02*
X007619Y009548D01*
X007457Y009450D02*
X009447Y009450D01*
X008360Y007381D02*
X010583Y007381D01*
X010583Y007283D02*
X008360Y007283D01*
X007449Y010435D02*
X011292Y010435D01*
X011292Y010533D02*
X007605Y010533D01*
X007699Y010632D02*
X011292Y010632D01*
X011292Y010730D02*
X007740Y010730D01*
X007768Y010829D02*
X011292Y010829D01*
X011292Y010927D02*
X007768Y010927D01*
X007749Y011026D02*
X011304Y011026D01*
X011358Y011124D02*
X007708Y011124D01*
X007626Y011223D02*
X011456Y011223D01*
X011555Y011321D02*
X007474Y011321D01*
X007131Y011321D02*
X006562Y011321D01*
X006661Y011223D02*
X006979Y011223D01*
X006897Y011124D02*
X006759Y011124D01*
X005933Y015261D02*
X004197Y015261D01*
X001663Y015261D02*
X001603Y015261D01*
X001603Y015163D02*
X001663Y015163D01*
X001663Y015064D02*
X001603Y015064D01*
X001603Y014867D02*
X001663Y014867D01*
X001663Y014769D02*
X001603Y014769D01*
X001603Y014670D02*
X001663Y014670D01*
X001663Y014572D02*
X001603Y014572D01*
X001495Y014572D02*
X000841Y014572D01*
X000841Y014670D02*
X001341Y014670D01*
X001270Y014769D02*
X000841Y014769D01*
X000841Y014867D02*
X001233Y014867D01*
X007583Y018512D02*
X007788Y018512D01*
X007788Y018610D02*
X007682Y018610D01*
X007731Y018709D02*
X007775Y018709D01*
X008360Y018709D02*
X008402Y018709D01*
X008400Y018706D02*
X008390Y018668D01*
X008390Y018543D01*
X008685Y018543D01*
X008685Y018533D01*
X008390Y018533D01*
X008390Y018409D01*
X008400Y018371D01*
X008420Y018336D01*
X008427Y018329D01*
X008360Y018262D01*
X008360Y018815D01*
X008427Y018748D01*
X008420Y018741D01*
X008400Y018706D01*
X008390Y018610D02*
X008360Y018610D01*
X008360Y018512D02*
X008390Y018512D01*
X008390Y018413D02*
X008360Y018413D01*
X008360Y018315D02*
X008413Y018315D01*
X008360Y018807D02*
X008368Y018807D01*
X008360Y017724D02*
X008451Y017724D01*
X008929Y017724D02*
X008962Y017724D01*
X011005Y019201D02*
X012033Y019201D01*
X011935Y019103D02*
X011104Y019103D01*
X011202Y019004D02*
X011836Y019004D01*
X011738Y018906D02*
X011301Y018906D01*
X011399Y018807D02*
X011669Y018807D01*
X011646Y018709D02*
X011498Y018709D01*
X011566Y018610D02*
X011646Y018610D01*
X011646Y018512D02*
X011589Y018512D01*
X011589Y018413D02*
X011646Y018413D01*
X011646Y018315D02*
X011589Y018315D01*
X011589Y018216D02*
X011646Y018216D01*
X011646Y018118D02*
X011589Y018118D01*
X011589Y018019D02*
X011646Y018019D01*
X011646Y017921D02*
X011589Y017921D01*
X011589Y017822D02*
X011646Y017822D01*
X011646Y017724D02*
X011589Y017724D01*
X011589Y017625D02*
X011646Y017625D01*
X011646Y017527D02*
X011589Y017527D01*
X011589Y017428D02*
X011646Y017428D01*
X011646Y017330D02*
X011589Y017330D01*
X011589Y017231D02*
X011646Y017231D01*
X011646Y017133D02*
X011589Y017133D01*
X011589Y017034D02*
X011646Y017034D01*
X011646Y016936D02*
X011589Y016936D01*
X011589Y016837D02*
X011646Y016837D01*
X011646Y016739D02*
X011589Y016739D01*
X011589Y016640D02*
X011646Y016640D01*
X011646Y016542D02*
X011589Y016542D01*
X011589Y016443D02*
X011598Y016443D01*
X012534Y017822D02*
X012625Y017822D01*
X012625Y017921D02*
X012534Y017921D01*
X012534Y018019D02*
X012625Y018019D01*
X012627Y018118D02*
X012534Y018118D01*
X012534Y018216D02*
X012568Y018216D01*
X012646Y019004D02*
X013149Y019004D01*
X013248Y019103D02*
X012744Y019103D01*
X012843Y019201D02*
X013346Y019201D01*
X013481Y019300D02*
X012941Y019300D01*
X013040Y019398D02*
X018687Y019398D01*
X019004Y018906D02*
X020072Y018906D01*
X020072Y019004D02*
X019102Y019004D01*
X019201Y019103D02*
X020072Y019103D01*
X020072Y019201D02*
X019299Y019201D01*
X019398Y019300D02*
X020072Y019300D01*
X020072Y019398D02*
X019496Y019398D01*
X019595Y019497D02*
X020072Y019497D01*
X020072Y019595D02*
X019693Y019595D01*
X019792Y019694D02*
X020072Y019694D01*
X020072Y019792D02*
X019890Y019792D01*
X019989Y019891D02*
X020072Y019891D01*
X020072Y019973D02*
X020072Y016617D01*
X019707Y016982D01*
X019639Y017145D01*
X019496Y017288D01*
X019310Y017365D01*
X018508Y017365D01*
X018321Y017288D01*
X018179Y017145D01*
X018101Y016958D01*
X018101Y016884D01*
X018085Y016867D01*
X018085Y017987D01*
X020072Y019973D01*
X020072Y018807D02*
X018905Y018807D01*
X018807Y018709D02*
X020072Y018709D01*
X020072Y018610D02*
X018708Y018610D01*
X018610Y018512D02*
X020072Y018512D01*
X020072Y018413D02*
X018511Y018413D01*
X018504Y018296D02*
X018436Y018274D01*
X018373Y018242D01*
X018316Y018201D01*
X018266Y018150D01*
X018224Y018093D01*
X018192Y018030D01*
X018170Y017963D01*
X018161Y017907D01*
X018859Y017907D01*
X018859Y017807D01*
X018959Y017807D01*
X018959Y017407D01*
X019244Y017407D01*
X019314Y017418D01*
X019382Y017440D01*
X019445Y017472D01*
X019502Y017514D01*
X019552Y017564D01*
X019594Y017621D01*
X019626Y017685D01*
X019648Y017752D01*
X019657Y017807D01*
X018959Y017807D01*
X018959Y017907D01*
X019657Y017907D01*
X019648Y017963D01*
X019626Y018030D01*
X019594Y018093D01*
X019552Y018150D01*
X019502Y018201D01*
X019445Y018242D01*
X019382Y018274D01*
X019314Y018296D01*
X019244Y018307D01*
X018959Y018307D01*
X018959Y017907D01*
X018859Y017907D01*
X018859Y018307D01*
X018574Y018307D01*
X018504Y018296D01*
X018413Y018315D02*
X020072Y018315D01*
X020072Y018216D02*
X019481Y018216D01*
X019576Y018118D02*
X020072Y018118D01*
X020072Y018019D02*
X019629Y018019D01*
X019654Y017921D02*
X020072Y017921D01*
X020072Y017822D02*
X018959Y017822D01*
X018959Y017724D02*
X018859Y017724D01*
X018859Y017807D02*
X018859Y017407D01*
X018574Y017407D01*
X018504Y017418D01*
X018436Y017440D01*
X018373Y017472D01*
X018316Y017514D01*
X018266Y017564D01*
X018224Y017621D01*
X018192Y017685D01*
X018170Y017752D01*
X018161Y017807D01*
X018859Y017807D01*
X018859Y017822D02*
X018085Y017822D01*
X018085Y017724D02*
X018179Y017724D01*
X018222Y017625D02*
X018085Y017625D01*
X018085Y017527D02*
X018303Y017527D01*
X018474Y017428D02*
X018085Y017428D01*
X018085Y017330D02*
X018423Y017330D01*
X018265Y017231D02*
X018085Y017231D01*
X018085Y017133D02*
X018174Y017133D01*
X018133Y017034D02*
X018085Y017034D01*
X018085Y016936D02*
X018101Y016936D01*
X017512Y017625D02*
X017394Y017625D01*
X017512Y017724D02*
X016737Y017724D01*
X016768Y017822D02*
X017512Y017822D01*
X017512Y017921D02*
X016768Y017921D01*
X016752Y018019D02*
X017512Y018019D01*
X017512Y018118D02*
X016711Y018118D01*
X016633Y018216D02*
X017535Y018216D01*
X017603Y018315D02*
X016490Y018315D01*
X016116Y018315D02*
X014980Y018315D01*
X014980Y018216D02*
X015972Y018216D01*
X015894Y018118D02*
X014980Y018118D01*
X015190Y018019D02*
X015218Y018019D01*
X016914Y015360D02*
X017198Y015360D01*
X017198Y015458D02*
X017013Y015458D01*
X017111Y015557D02*
X017198Y015557D01*
X017198Y015261D02*
X016816Y015261D01*
X016717Y015163D02*
X017198Y015163D01*
X017198Y015064D02*
X016733Y015064D01*
X016768Y014966D02*
X017198Y014966D01*
X017198Y014867D02*
X016768Y014867D01*
X016756Y014769D02*
X017198Y014769D01*
X017198Y014670D02*
X016715Y014670D01*
X016643Y014572D02*
X017198Y014572D01*
X017198Y014473D02*
X016514Y014473D01*
X016573Y014276D02*
X017198Y014276D01*
X017198Y014178D02*
X016671Y014178D01*
X016727Y014079D02*
X017198Y014079D01*
X017198Y013981D02*
X016768Y013981D01*
X016768Y013882D02*
X017198Y013882D01*
X017198Y013784D02*
X016762Y013784D01*
X016722Y013685D02*
X017198Y013685D01*
X017198Y013587D02*
X016658Y013587D01*
X016550Y013488D02*
X017198Y013488D01*
X017198Y013390D02*
X014691Y013390D01*
X014717Y013784D02*
X015731Y013784D01*
X015633Y013882D02*
X014750Y013882D01*
X014750Y013981D02*
X015534Y013981D01*
X015436Y014079D02*
X014750Y014079D01*
X014750Y014178D02*
X015337Y014178D01*
X015239Y014276D02*
X014750Y014276D01*
X014750Y014375D02*
X015140Y014375D01*
X015042Y014473D02*
X014750Y014473D01*
X014750Y014572D02*
X014943Y014572D01*
X014845Y014670D02*
X014750Y014670D01*
X014746Y014769D02*
X014701Y014769D01*
X015753Y014572D02*
X015962Y014572D01*
X015890Y014670D02*
X015787Y014670D01*
X015851Y014473D02*
X016091Y014473D01*
X015950Y014375D02*
X017198Y014375D01*
X017198Y013291D02*
X016546Y013291D01*
X016656Y013193D02*
X017198Y013193D01*
X017186Y013094D02*
X016721Y013094D01*
X016095Y012306D02*
X015132Y012306D01*
X015132Y012208D02*
X015964Y012208D01*
X015891Y012109D02*
X015132Y012109D01*
X015132Y012011D02*
X015850Y012011D01*
X015838Y011912D02*
X015132Y011912D01*
X015132Y011814D02*
X015838Y011814D01*
X015871Y011715D02*
X015132Y011715D01*
X015132Y011617D02*
X015917Y011617D01*
X016768Y010829D02*
X020072Y010829D01*
X020072Y010927D02*
X016813Y010927D01*
X016911Y011026D02*
X020072Y011026D01*
X020072Y011124D02*
X017010Y011124D01*
X017108Y011223D02*
X020072Y011223D01*
X020072Y011321D02*
X017207Y011321D01*
X017305Y011420D02*
X020072Y011420D01*
X020072Y011518D02*
X017404Y011518D01*
X017502Y011617D02*
X020072Y011617D01*
X020072Y011715D02*
X017601Y011715D01*
X017699Y011814D02*
X020072Y011814D01*
X020072Y011912D02*
X017798Y011912D01*
X017896Y012011D02*
X020072Y012011D01*
X020072Y012109D02*
X017995Y012109D01*
X018063Y012208D02*
X020072Y012208D01*
X020072Y012306D02*
X018085Y012306D01*
X018085Y012405D02*
X020072Y012405D01*
X020072Y012503D02*
X018085Y012503D01*
X018085Y012602D02*
X020072Y012602D01*
X020072Y012700D02*
X018085Y012700D01*
X018085Y012799D02*
X020072Y012799D01*
X020072Y012897D02*
X019829Y012897D01*
X019927Y012996D02*
X020072Y012996D01*
X020072Y013094D02*
X019939Y013094D01*
X019939Y013193D02*
X020072Y013193D01*
X020072Y013291D02*
X019939Y013291D01*
X019939Y013390D02*
X020072Y013390D01*
X020072Y013488D02*
X019982Y013488D01*
X019123Y012897D02*
X019081Y012897D01*
X018621Y013981D02*
X018085Y013981D01*
X018085Y014079D02*
X018621Y014079D01*
X018621Y014178D02*
X018085Y014178D01*
X018085Y014276D02*
X018621Y014276D01*
X018448Y014375D02*
X018085Y014375D01*
X018085Y014473D02*
X018275Y014473D01*
X018178Y014572D02*
X018085Y014572D01*
X018085Y014670D02*
X018137Y014670D01*
X018101Y014769D02*
X018085Y014769D01*
X018085Y014867D02*
X018101Y014867D01*
X018105Y014966D02*
X018085Y014966D01*
X018085Y015064D02*
X018145Y015064D01*
X018174Y015163D02*
X018197Y015163D01*
X018273Y015261D02*
X018295Y015261D01*
X018371Y015360D02*
X018484Y015360D01*
X018377Y013882D02*
X018085Y013882D01*
X018085Y013784D02*
X018278Y013784D01*
X018264Y013685D02*
X018085Y013685D01*
X018085Y013587D02*
X018264Y013587D01*
X018264Y013488D02*
X018085Y013488D01*
X018085Y013390D02*
X018264Y013390D01*
X018264Y013291D02*
X018085Y013291D01*
X018085Y013193D02*
X018264Y013193D01*
X018264Y013094D02*
X018085Y013094D01*
X018085Y012996D02*
X018276Y012996D01*
X018375Y012897D02*
X018085Y012897D01*
X016740Y010730D02*
X020072Y010730D01*
X020072Y010632D02*
X016699Y010632D01*
X016605Y010533D02*
X020072Y010533D01*
X020072Y010435D02*
X016421Y010435D01*
X016438Y010336D02*
X020072Y010336D01*
X020072Y010238D02*
X016611Y010238D01*
X016702Y010139D02*
X020072Y010139D01*
X020072Y010041D02*
X016743Y010041D01*
X016768Y009942D02*
X020072Y009942D01*
X020072Y009844D02*
X016768Y009844D01*
X016746Y009745D02*
X020072Y009745D01*
X020072Y009647D02*
X016706Y009647D01*
X016619Y009548D02*
X020072Y009548D01*
X020072Y009450D02*
X016457Y009450D01*
X016401Y009351D02*
X020072Y009351D01*
X020072Y009253D02*
X016596Y009253D01*
X016695Y009154D02*
X020072Y009154D01*
X020072Y009056D02*
X016737Y009056D01*
X016768Y008957D02*
X020072Y008957D01*
X020072Y008859D02*
X016768Y008859D01*
X016753Y008760D02*
X020072Y008760D01*
X020072Y008662D02*
X016712Y008662D01*
X016761Y008563D02*
X020072Y008563D01*
X020072Y008465D02*
X016860Y008465D01*
X016958Y008366D02*
X020072Y008366D01*
X020072Y008268D02*
X017057Y008268D01*
X017155Y008169D02*
X020072Y008169D01*
X020072Y008071D02*
X017254Y008071D01*
X017352Y007972D02*
X020072Y007972D01*
X020072Y007874D02*
X017428Y007874D01*
X017455Y007775D02*
X020072Y007775D01*
X020072Y007677D02*
X017455Y007677D01*
X017455Y007578D02*
X020072Y007578D01*
X020072Y007480D02*
X017455Y007480D01*
X017455Y007381D02*
X020072Y007381D01*
X020072Y007283D02*
X017455Y007283D01*
X017455Y007184D02*
X020072Y007184D01*
X020072Y007086D02*
X017455Y007086D01*
X017455Y006987D02*
X020072Y006987D01*
X020072Y006889D02*
X017455Y006889D01*
X017455Y006790D02*
X020072Y006790D01*
X020072Y006692D02*
X017455Y006692D01*
X017455Y006593D02*
X020072Y006593D01*
X020072Y006495D02*
X017455Y006495D01*
X017455Y006396D02*
X020072Y006396D01*
X020072Y006298D02*
X017455Y006298D01*
X017455Y006199D02*
X020072Y006199D01*
X020072Y006101D02*
X017455Y006101D01*
X017455Y006002D02*
X020072Y006002D01*
X020072Y005904D02*
X017455Y005904D01*
X017455Y005805D02*
X020072Y005805D01*
X020072Y005707D02*
X017455Y005707D01*
X017455Y005608D02*
X020072Y005608D01*
X020072Y005510D02*
X017455Y005510D01*
X017455Y005411D02*
X020072Y005411D01*
X020072Y005313D02*
X017455Y005313D01*
X017455Y005214D02*
X020072Y005214D01*
X020072Y005116D02*
X017455Y005116D01*
X017455Y005017D02*
X020072Y005017D01*
X020072Y004919D02*
X017455Y004919D01*
X017455Y004820D02*
X020072Y004820D01*
X020072Y004722D02*
X017455Y004722D01*
X017455Y004623D02*
X020072Y004623D01*
X020072Y004525D02*
X017455Y004525D01*
X017455Y004426D02*
X020072Y004426D01*
X020072Y004328D02*
X017455Y004328D01*
X017455Y004229D02*
X020072Y004229D01*
X020072Y004131D02*
X017455Y004131D01*
X017455Y004032D02*
X020072Y004032D01*
X018913Y002358D02*
X007023Y002358D01*
X007121Y002456D02*
X018675Y002456D01*
X018559Y002555D02*
X007220Y002555D01*
X007318Y002653D02*
X018461Y002653D01*
X016883Y004623D02*
X016843Y004623D01*
X016883Y006495D02*
X016566Y006495D01*
X016664Y006593D02*
X016883Y006593D01*
X016883Y006692D02*
X016724Y006692D01*
X016765Y006790D02*
X016883Y006790D01*
X016883Y006889D02*
X016768Y006889D01*
X016765Y006987D02*
X016883Y006987D01*
X016883Y007086D02*
X016724Y007086D01*
X016665Y007184D02*
X016883Y007184D01*
X016883Y007283D02*
X016566Y007283D01*
X016495Y007381D02*
X016883Y007381D01*
X016883Y007480D02*
X016565Y007480D01*
X016649Y007578D02*
X016883Y007578D01*
X016838Y007677D02*
X016718Y007677D01*
X015350Y006987D02*
X014384Y006987D01*
X014384Y006889D02*
X015347Y006889D01*
X015347Y006790D02*
X014384Y006790D01*
X014384Y006692D02*
X015347Y006692D01*
X015347Y006593D02*
X014384Y006593D01*
X014384Y006495D02*
X015347Y006495D01*
X015347Y006396D02*
X014384Y006396D01*
X014384Y006298D02*
X015347Y006298D01*
X015347Y006199D02*
X014384Y006199D01*
X014384Y006101D02*
X015347Y006101D01*
X015347Y006002D02*
X014384Y006002D01*
X014384Y005904D02*
X015347Y005904D01*
X015347Y005805D02*
X014384Y005805D01*
X014384Y005707D02*
X015347Y005707D01*
X015347Y005608D02*
X014384Y005608D01*
X014384Y005510D02*
X015347Y005510D01*
X015347Y005411D02*
X014384Y005411D01*
X014384Y005313D02*
X015347Y005313D01*
X015347Y005214D02*
X014384Y005214D01*
X014384Y005116D02*
X015347Y005116D01*
X015347Y005017D02*
X014384Y005017D01*
X014384Y004919D02*
X015347Y004919D01*
X015347Y004820D02*
X014384Y004820D01*
X014384Y004722D02*
X015347Y004722D01*
X015347Y004623D02*
X014384Y004623D01*
X014601Y004525D02*
X014658Y004525D01*
X014658Y004426D02*
X014601Y004426D01*
X014601Y004328D02*
X014658Y004328D01*
X014658Y004229D02*
X014601Y004229D01*
X014601Y004131D02*
X014658Y004131D01*
X014658Y004032D02*
X014601Y004032D01*
X014601Y003934D02*
X014658Y003934D01*
X014658Y003835D02*
X014601Y003835D01*
X014384Y003737D02*
X015436Y003737D01*
X015289Y003835D02*
X014881Y003835D01*
X014979Y003934D02*
X015205Y003934D01*
X015165Y004032D02*
X015032Y004032D01*
X015056Y004131D02*
X015142Y004131D01*
X015142Y004229D02*
X015058Y004229D01*
X015035Y004328D02*
X015161Y004328D01*
X015202Y004426D02*
X014985Y004426D01*
X014892Y004525D02*
X015281Y004525D01*
X014952Y003638D02*
X014384Y003638D01*
X014463Y003540D02*
X014796Y003540D01*
X014708Y003441D02*
X014551Y003441D01*
X014591Y003343D02*
X014667Y003343D01*
X014642Y003244D02*
X014617Y003244D01*
X014617Y003146D02*
X014642Y003146D01*
X014658Y003047D02*
X014600Y003047D01*
X014560Y002949D02*
X014699Y002949D01*
X014774Y002850D02*
X014485Y002850D01*
X014359Y002752D02*
X014900Y002752D01*
X013900Y002752D02*
X010857Y002752D01*
X010955Y002850D02*
X013774Y002850D01*
X013699Y002949D02*
X011014Y002949D01*
X011055Y003047D02*
X013658Y003047D01*
X013642Y003146D02*
X011063Y003146D01*
X011063Y003244D02*
X013642Y003244D01*
X013667Y003343D02*
X011063Y003343D01*
X011063Y003441D02*
X013708Y003441D01*
X013796Y003540D02*
X013596Y003540D01*
X013387Y003540D02*
X011063Y003540D01*
X011063Y003638D02*
X013183Y003638D01*
X013084Y003737D02*
X011063Y003737D01*
X011063Y003835D02*
X013032Y003835D01*
X012992Y003934D02*
X011033Y003934D01*
X011020Y004032D02*
X012989Y004032D01*
X012989Y004131D02*
X011115Y004131D01*
X011156Y004229D02*
X013026Y004229D01*
X013068Y004328D02*
X011156Y004328D01*
X011156Y004426D02*
X013166Y004426D01*
X013347Y004525D02*
X011156Y004525D01*
X011156Y004623D02*
X013812Y004623D01*
X013812Y004525D02*
X013636Y004525D01*
X013812Y004722D02*
X011156Y004722D01*
X011156Y004820D02*
X013812Y004820D01*
X013812Y004919D02*
X011156Y004919D01*
X011156Y005017D02*
X013812Y005017D01*
X013812Y005116D02*
X011156Y005116D01*
X011156Y005214D02*
X013812Y005214D01*
X013812Y005313D02*
X011156Y005313D01*
X011156Y005411D02*
X013812Y005411D01*
X013812Y005510D02*
X011156Y005510D01*
X011156Y005608D02*
X013812Y005608D01*
X013812Y005707D02*
X011156Y005707D01*
X011156Y005805D02*
X013812Y005805D01*
X013812Y005904D02*
X011156Y005904D01*
X011156Y006002D02*
X013812Y006002D01*
X013812Y006101D02*
X011156Y006101D01*
X011156Y006199D02*
X013812Y006199D01*
X013812Y006298D02*
X011156Y006298D01*
X011156Y006396D02*
X013812Y006396D01*
X013812Y006495D02*
X011156Y006495D01*
X011156Y006593D02*
X013812Y006593D01*
X013812Y006692D02*
X011156Y006692D01*
X011156Y006790D02*
X013812Y006790D01*
X013812Y006889D02*
X011156Y006889D01*
X011156Y006987D02*
X013812Y006987D01*
X013812Y007086D02*
X011156Y007086D01*
X011156Y007184D02*
X013812Y007184D01*
X013812Y007283D02*
X011156Y007283D01*
X011156Y007381D02*
X013812Y007381D01*
X013812Y007480D02*
X011156Y007480D01*
X011156Y007578D02*
X013812Y007578D01*
X013812Y007677D02*
X011156Y007677D01*
X011156Y007775D02*
X013812Y007775D01*
X013812Y007874D02*
X011156Y007874D01*
X011156Y007972D02*
X013812Y007972D01*
X013812Y008071D02*
X011156Y008071D01*
X011156Y008707D02*
X011156Y008717D01*
X011885Y008717D01*
X012006Y008838D01*
X012006Y009601D01*
X011978Y009629D01*
X012084Y009629D01*
X012219Y009685D01*
X012322Y009788D01*
X012378Y009922D01*
X012378Y009957D01*
X014152Y011731D01*
X014166Y011731D01*
X014166Y010980D01*
X011893Y008707D01*
X011156Y008707D01*
X011928Y008760D02*
X011946Y008760D01*
X012006Y008859D02*
X012045Y008859D01*
X012006Y008957D02*
X012143Y008957D01*
X012242Y009056D02*
X012006Y009056D01*
X012006Y009154D02*
X012340Y009154D01*
X012439Y009253D02*
X012006Y009253D01*
X012006Y009351D02*
X012537Y009351D01*
X012636Y009450D02*
X012006Y009450D01*
X012006Y009548D02*
X012734Y009548D01*
X012833Y009647D02*
X012127Y009647D01*
X012279Y009745D02*
X012931Y009745D01*
X013030Y009844D02*
X012345Y009844D01*
X012378Y009942D02*
X013128Y009942D01*
X013227Y010041D02*
X012462Y010041D01*
X012560Y010139D02*
X013325Y010139D01*
X013424Y010238D02*
X012659Y010238D01*
X012757Y010336D02*
X013522Y010336D01*
X013621Y010435D02*
X012856Y010435D01*
X012954Y010533D02*
X013719Y010533D01*
X013818Y010632D02*
X013053Y010632D01*
X013151Y010730D02*
X013916Y010730D01*
X014015Y010829D02*
X013250Y010829D01*
X013348Y010927D02*
X014113Y010927D01*
X014166Y011026D02*
X013447Y011026D01*
X013545Y011124D02*
X014166Y011124D01*
X014166Y011223D02*
X013644Y011223D01*
X013742Y011321D02*
X014166Y011321D01*
X014166Y011420D02*
X013841Y011420D01*
X013939Y011518D02*
X014166Y011518D01*
X014166Y011617D02*
X014038Y011617D01*
X014136Y011715D02*
X014166Y011715D01*
X013342Y011731D02*
X011973Y010361D01*
X011938Y010361D01*
X011864Y010331D01*
X011864Y010821D01*
X012784Y011741D01*
X012794Y011731D01*
X013186Y011731D01*
X013240Y011785D01*
X013294Y011731D01*
X013342Y011731D01*
X013327Y011715D02*
X012758Y011715D01*
X012660Y011617D02*
X013228Y011617D01*
X013130Y011518D02*
X012561Y011518D01*
X012463Y011420D02*
X013031Y011420D01*
X012933Y011321D02*
X012364Y011321D01*
X012266Y011223D02*
X012834Y011223D01*
X012736Y011124D02*
X012167Y011124D01*
X012069Y011026D02*
X012637Y011026D01*
X012539Y010927D02*
X011970Y010927D01*
X011872Y010829D02*
X012440Y010829D01*
X012342Y010730D02*
X011864Y010730D01*
X011864Y010632D02*
X012243Y010632D01*
X012145Y010533D02*
X011864Y010533D01*
X011864Y010435D02*
X012046Y010435D01*
X011878Y010336D02*
X011864Y010336D01*
X012854Y008859D02*
X013812Y008859D01*
X013812Y008957D02*
X012953Y008957D01*
X013051Y009056D02*
X013812Y009056D01*
X013812Y009154D02*
X013150Y009154D01*
X013248Y009253D02*
X013812Y009253D01*
X013812Y009351D02*
X013347Y009351D01*
X013445Y009450D02*
X013812Y009450D01*
X013812Y009548D02*
X013544Y009548D01*
X013642Y009647D02*
X013812Y009647D01*
X013812Y009745D02*
X013741Y009745D01*
X013812Y008760D02*
X012756Y008760D01*
X012657Y008662D02*
X013812Y008662D01*
X013812Y008563D02*
X012559Y008563D01*
X012460Y008465D02*
X013812Y008465D01*
X013812Y008366D02*
X012362Y008366D01*
X012263Y008268D02*
X013812Y008268D01*
X013812Y008169D02*
X012153Y008169D01*
X013800Y003638D02*
X013812Y003638D01*
X013714Y012897D02*
X013765Y012897D01*
X014214Y012897D02*
X014265Y012897D01*
X013265Y012897D02*
X013214Y012897D01*
X013282Y014867D02*
X013384Y014867D01*
X013377Y014966D02*
X013282Y014966D01*
X013282Y015064D02*
X013392Y015064D01*
X013433Y015163D02*
X013282Y015163D01*
X013282Y015261D02*
X013531Y015261D01*
X012132Y019300D02*
X010960Y019300D01*
X011003Y019398D02*
X012230Y019398D01*
X012329Y019497D02*
X011003Y019497D01*
X011003Y019595D02*
X012427Y019595D01*
X012526Y019694D02*
X011003Y019694D01*
X010945Y019792D02*
X012624Y019792D01*
X018117Y018019D02*
X018188Y018019D01*
X018163Y017921D02*
X018085Y017921D01*
X018216Y018118D02*
X018242Y018118D01*
X018314Y018216D02*
X018337Y018216D01*
X018859Y018216D02*
X018959Y018216D01*
X018959Y018118D02*
X018859Y018118D01*
X018859Y018019D02*
X018959Y018019D01*
X018959Y017921D02*
X018859Y017921D01*
X018859Y017625D02*
X018959Y017625D01*
X018959Y017527D02*
X018859Y017527D01*
X018859Y017428D02*
X018959Y017428D01*
X019344Y017428D02*
X020072Y017428D01*
X020072Y017330D02*
X019395Y017330D01*
X019553Y017231D02*
X020072Y017231D01*
X020072Y017133D02*
X019644Y017133D01*
X019685Y017034D02*
X020072Y017034D01*
X020072Y016936D02*
X019753Y016936D01*
X019851Y016837D02*
X020072Y016837D01*
X020072Y016739D02*
X019950Y016739D01*
X020048Y016640D02*
X020072Y016640D01*
X020072Y017527D02*
X019515Y017527D01*
X019596Y017625D02*
X020072Y017625D01*
X020072Y017724D02*
X019639Y017724D01*
X015977Y028460D02*
X015001Y028460D01*
X015132Y028559D02*
X015496Y028559D01*
X015480Y028570D02*
X015537Y028529D01*
X015600Y028497D01*
X015666Y028475D01*
X015723Y028466D01*
X015723Y029159D01*
X015820Y029159D01*
X015820Y029256D01*
X016218Y029256D01*
X016218Y029540D01*
X016207Y029609D01*
X016185Y029676D01*
X016153Y029739D01*
X016112Y029796D01*
X016062Y029845D01*
X016005Y029887D01*
X015943Y029919D01*
X015876Y029940D01*
X015820Y029949D01*
X015820Y029256D01*
X015723Y029256D01*
X015723Y029949D01*
X015666Y029940D01*
X015600Y029919D01*
X015537Y029887D01*
X015480Y029845D01*
X015430Y029796D01*
X015389Y029739D01*
X015357Y029676D01*
X015335Y029609D01*
X015324Y029540D01*
X015324Y029256D01*
X015723Y029256D01*
X015723Y029159D01*
X015324Y029159D01*
X015324Y028876D01*
X015335Y028806D01*
X015357Y028739D01*
X015389Y028677D01*
X015430Y028620D01*
X015480Y028570D01*
X015403Y028657D02*
X015212Y028657D01*
X015253Y028756D02*
X015352Y028756D01*
X015328Y028854D02*
X015275Y028854D01*
X015275Y028953D02*
X015324Y028953D01*
X015324Y029051D02*
X015275Y029051D01*
X015275Y029150D02*
X015324Y029150D01*
X015275Y029248D02*
X015723Y029248D01*
X015820Y029248D02*
X016267Y029248D01*
X016267Y029150D02*
X016218Y029150D01*
X016218Y029159D02*
X015820Y029159D01*
X015820Y028466D01*
X015876Y028475D01*
X015943Y028497D01*
X016005Y028529D01*
X016062Y028570D01*
X016112Y028620D01*
X016153Y028677D01*
X016185Y028739D01*
X016207Y028806D01*
X016218Y028876D01*
X016218Y029159D01*
X016218Y029051D02*
X016267Y029051D01*
X016267Y028953D02*
X016218Y028953D01*
X016215Y028854D02*
X016267Y028854D01*
X016273Y028756D02*
X016191Y028756D01*
X016174Y028657D02*
X016139Y028657D01*
X016076Y028559D02*
X016047Y028559D01*
X015820Y028559D02*
X015723Y028559D01*
X015723Y028657D02*
X015820Y028657D01*
X015820Y028756D02*
X015723Y028756D01*
X015723Y028854D02*
X015820Y028854D01*
X015820Y028953D02*
X015723Y028953D01*
X015723Y029051D02*
X015820Y029051D01*
X015820Y029150D02*
X015723Y029150D01*
X015723Y029347D02*
X015820Y029347D01*
X015820Y029445D02*
X015723Y029445D01*
X015723Y029544D02*
X015820Y029544D01*
X015820Y029642D02*
X015723Y029642D01*
X015723Y029741D02*
X015820Y029741D01*
X015820Y029839D02*
X015723Y029839D01*
X015723Y029938D02*
X015820Y029938D01*
X015884Y029938D02*
X016499Y029938D01*
X016393Y029839D02*
X016068Y029839D01*
X016152Y029741D02*
X016323Y029741D01*
X016282Y029642D02*
X016196Y029642D01*
X016217Y029544D02*
X016267Y029544D01*
X016267Y029445D02*
X016218Y029445D01*
X016218Y029347D02*
X016267Y029347D01*
X015658Y029938D02*
X015043Y029938D01*
X015150Y029839D02*
X015474Y029839D01*
X015390Y029741D02*
X015219Y029741D01*
X015260Y029642D02*
X015346Y029642D01*
X015325Y029544D02*
X015275Y029544D01*
X015275Y029445D02*
X015324Y029445D01*
X015324Y029347D02*
X015275Y029347D01*
X019332Y028756D02*
X020072Y028756D01*
X020072Y028854D02*
X019558Y028854D01*
X019656Y028953D02*
X020072Y028953D01*
X020072Y029051D02*
X019755Y029051D01*
X019807Y029150D02*
X020072Y029150D01*
X020072Y029248D02*
X019848Y029248D01*
X019889Y029347D02*
X020072Y029347D01*
X020072Y029445D02*
X019896Y029445D01*
X019896Y029544D02*
X020072Y029544D01*
X020072Y029642D02*
X019896Y029642D01*
X019871Y029741D02*
X020072Y029741D01*
X020072Y029839D02*
X019831Y029839D01*
X019790Y029938D02*
X020072Y029938D01*
X020072Y030036D02*
X019713Y030036D01*
X019614Y030135D02*
X020072Y030135D01*
X020072Y030233D02*
X019468Y030233D01*
D22*
X013744Y028145D03*
X010476Y025979D03*
X010358Y027948D03*
X007996Y026176D03*
X007877Y026924D03*
X008625Y023027D03*
X008625Y020231D03*
X008232Y019247D03*
X009177Y018027D03*
X010007Y017381D03*
X010161Y018538D03*
X009925Y019050D03*
X012444Y018617D03*
X013606Y016672D03*
X014216Y018290D03*
X015200Y018499D03*
X016657Y020389D03*
X017129Y020231D03*
X017090Y021412D03*
X017377Y017235D03*
X015555Y014956D03*
X013744Y014956D03*
X012366Y015901D03*
X012429Y011141D03*
X012011Y009995D03*
X013814Y011007D03*
X010476Y005507D03*
X009618Y007129D03*
X007484Y004405D03*
X007161Y005113D03*
X005862Y006046D03*
X005791Y014011D03*
X006224Y015034D03*
X006224Y017082D03*
X004531Y018775D03*
X005751Y022042D03*
X001972Y017082D03*
X008783Y014956D03*
D23*
X009767Y014956D01*
X011303Y016491D01*
X011303Y018499D01*
X010712Y019090D01*
X010673Y019090D01*
X010645Y019038D01*
X010633Y019050D01*
X010515Y019050D01*
X009885Y019680D01*
X009885Y021097D01*
X009255Y021727D01*
X009098Y021727D01*
X009070Y021731D01*
X009070Y020983D02*
X009059Y020979D01*
X008114Y020979D01*
X007523Y020389D01*
X006736Y020389D01*
X004098Y017751D01*
X002090Y017751D01*
X002066Y017747D01*
X001972Y017082D02*
X004019Y015034D01*
X004019Y013460D01*
X007287Y010192D01*
X007287Y009916D01*
X007303Y009889D01*
X007287Y008893D02*
X007303Y008889D01*
X007287Y008893D02*
X007208Y008893D01*
X003704Y012397D01*
X003704Y014759D01*
X001185Y017279D01*
X001185Y024326D01*
X001145Y024365D01*
X004885Y028105D01*
X006460Y028105D01*
X007562Y029208D01*
X007559Y029208D01*
X007877Y026924D02*
X005476Y026924D01*
X002484Y023932D01*
X002169Y023932D01*
X002133Y023920D01*
X002169Y022948D02*
X002133Y022920D01*
X002169Y022948D02*
X002602Y022948D01*
X006263Y026609D01*
X007562Y026609D01*
X007996Y026176D01*
X007799Y025389D02*
X010358Y027948D01*
X010791Y028105D02*
X009688Y029208D01*
X009559Y029208D01*
X010791Y028105D02*
X012405Y028105D01*
X013153Y028853D01*
X013153Y029208D01*
X013165Y029208D01*
X013232Y029247D01*
X014373Y028105D01*
X016027Y028105D01*
X017090Y027042D01*
X017090Y025786D01*
X017090Y022042D01*
X017090Y022003D01*
X018429Y020664D01*
X018901Y020664D01*
X018909Y020645D01*
X020003Y020310D02*
X020003Y022003D01*
X019373Y022633D01*
X018940Y022633D01*
X018909Y022645D01*
X020003Y020310D02*
X017799Y018105D01*
X017799Y016649D01*
X016539Y015389D01*
X015988Y015389D01*
X015555Y014956D01*
X016027Y013893D02*
X014216Y015704D01*
X014216Y018290D01*
X013070Y018519D02*
X013035Y018538D01*
X012523Y018538D01*
X012444Y018617D01*
X012248Y018420D01*
X012248Y017397D01*
X012996Y016649D01*
X012996Y014286D01*
X012990Y014268D01*
X013035Y014208D01*
X013035Y013853D01*
X013271Y013617D01*
X014059Y013617D01*
X014846Y012830D01*
X014846Y010782D01*
X014098Y010034D01*
X014098Y003184D01*
X014129Y003184D01*
X015629Y004184D02*
X015633Y004208D01*
X015633Y006924D01*
X016303Y007594D01*
X016303Y007889D01*
X016303Y008617D02*
X017169Y007751D01*
X017169Y003971D01*
X016381Y003184D01*
X016129Y003184D01*
X016303Y008617D02*
X016303Y008889D01*
X016303Y010889D02*
X016303Y010901D01*
X016381Y010901D01*
X017799Y012318D01*
X017799Y015192D01*
X018429Y015822D01*
X018901Y015822D01*
X018909Y015857D01*
X018901Y016845D02*
X018468Y016845D01*
X017484Y015861D01*
X017484Y012987D01*
X016421Y011924D01*
X016303Y011924D01*
X016303Y011889D01*
X016303Y013889D02*
X016303Y013893D01*
X016027Y013893D01*
X014490Y012328D02*
X014452Y012318D01*
X014452Y010861D01*
X012011Y008420D01*
X010870Y008420D01*
X010870Y009208D01*
X010873Y009220D01*
X011543Y009220D02*
X011578Y009247D01*
X011578Y010034D01*
X010436Y010034D01*
X008074Y007672D01*
X008074Y006570D01*
X007484Y004405D02*
X008074Y003814D01*
X006618Y002357D01*
X004925Y002357D01*
X004295Y002987D01*
X004295Y003460D01*
X004271Y003464D01*
X005271Y003464D02*
X005279Y003499D01*
X008074Y003814D02*
X008389Y003499D01*
X008547Y003499D01*
X008559Y003464D01*
X009531Y003499D02*
X009559Y003464D01*
X009531Y003499D02*
X009531Y003932D01*
X010594Y004011D02*
X010594Y003499D01*
X010559Y003464D01*
X010594Y004011D02*
X010870Y004286D01*
X010870Y008420D01*
X012011Y009995D02*
X013980Y011964D01*
X013980Y012318D01*
X013990Y012328D01*
X012990Y012328D02*
X012956Y012318D01*
X011578Y010940D01*
X011578Y010034D01*
X013990Y014268D02*
X013980Y014286D01*
X013980Y014720D01*
X013744Y014956D01*
X011933Y016373D02*
X011933Y018696D01*
X013625Y020389D01*
X014224Y020389D01*
X016657Y020389D01*
X017129Y020231D02*
X017129Y021373D01*
X017090Y021412D01*
X018909Y016857D02*
X018901Y016845D01*
X011933Y016373D02*
X007484Y011924D01*
X007326Y011924D01*
X007303Y011889D01*
X005791Y014011D02*
X006775Y014995D01*
X006775Y015074D01*
X007090Y015389D01*
X007523Y015389D01*
X008074Y015940D01*
X008074Y018814D01*
X007799Y019090D01*
X007799Y019405D01*
X008625Y020231D01*
X008690Y019538D02*
X008665Y019523D01*
X008507Y019523D01*
X008232Y019247D01*
X008690Y019038D02*
X008704Y019050D01*
X009925Y019050D01*
X010161Y018538D02*
X010645Y018538D01*
X010645Y018038D02*
X010633Y018027D01*
X010633Y016767D01*
X009649Y015782D01*
X009657Y015751D01*
X009177Y018027D02*
X008704Y018027D01*
X008690Y018038D01*
X008704Y018538D02*
X008690Y018538D01*
X008685Y018543D02*
X008704Y018538D01*
X006224Y017082D02*
X006224Y015034D01*
X004531Y018775D02*
X004531Y022830D01*
X007090Y025389D01*
X007799Y025389D01*
X008625Y023027D02*
X013744Y028145D01*
X016027Y028105D02*
X016736Y028814D01*
X016736Y029208D01*
X016771Y029208D01*
X002759Y014444D02*
X003389Y013814D01*
X003389Y011216D01*
X002917Y010743D01*
X002366Y010743D01*
X001657Y011452D01*
X001657Y011924D01*
X001633Y011958D01*
X002602Y012475D02*
X002633Y012458D01*
X002602Y012475D02*
X002602Y012751D01*
X001618Y013735D01*
X001618Y013932D01*
X001633Y013958D01*
X002633Y014458D02*
X002641Y014444D01*
X002759Y014444D01*
X004700Y008290D02*
X004728Y008263D01*
D24*
X007551Y005688D02*
X008074Y006212D01*
X008074Y006570D01*
X014692Y017534D02*
X014692Y018637D01*
X014299Y019031D01*
X013582Y019031D01*
X013070Y018519D01*
X014224Y020389D02*
X014224Y021782D01*
X014519Y022078D01*
X015267Y022078D02*
X015303Y022042D01*
X015736Y022405D01*
X016724Y022405D01*
X016980Y022157D01*
X017090Y022042D01*
X018909Y022645D02*
X019377Y022645D01*
X019834Y023101D01*
X019834Y023794D01*
X018791Y024838D01*
X018043Y024838D02*
X017094Y025786D01*
X017090Y025786D01*
X015964Y017534D02*
X015578Y017534D01*
X015964Y017534D02*
X016070Y017428D01*
X017185Y017428D01*
X017377Y017235D01*
X018909Y016857D02*
X019425Y016857D01*
X019992Y016290D01*
X019992Y013905D01*
X019476Y013389D01*
X018909Y013570D02*
X018909Y014857D01*
X018909Y013570D02*
X018728Y013389D01*
X014830Y017534D02*
X014692Y017534D01*
D25*
X007795Y005688D02*
X007551Y005688D01*
X006992Y005688D01*
X006598Y005688D01*
X005401Y004491D01*
X005401Y003594D01*
X005271Y003464D01*
X006992Y005688D02*
X006141Y006538D01*
X006141Y007192D01*
X005070Y008263D01*
X004728Y008263D01*
X007795Y005688D02*
X009275Y004208D01*
X009275Y003747D01*
X009559Y003464D01*
D26*
X001814Y003145D03*
X001814Y029523D03*
X019098Y029523D03*
X019098Y003145D03*
M02*
