%
M48
M72
T01C0.0157
T02C0.0315
T03C0.0320
T04C0.0394
T05C0.0400
T06C0.0560
T07C0.0591
T08C0.0787
%
T01
X5862Y6591
X7161Y5658
X7484Y4949
X9618Y7674
X10476Y6052
X12011Y10540
X12429Y11685
X13814Y11552
X13744Y15500
X13606Y17217
X12366Y16445
X12444Y19162
X14216Y20500
X15200Y19044
X16657Y20933
X17129Y20776
X17090Y21957
X15555Y15500
X10161Y19083
X9925Y19595
X9177Y18571
X10007Y17926
X8232Y19792
X8625Y20776
X8625Y23571
X7996Y26721
X7877Y27469
X10358Y28493
X10476Y26524
X13744Y28689
X6224Y17626
X6224Y15579
X5791Y14556
X8783Y15500
X4531Y19319
X5751Y22587
X1972Y17626
T02
X7303Y17433
X7303Y16433
X7303Y15433
X7303Y14433
X7303Y13433
X7303Y12433
X7303Y11433
X7303Y10433
X7303Y9433
X7303Y8433
X7303Y7433
X14129Y3729
X14629Y4729
X15129Y3729
X15629Y4729
X16129Y3729
X16629Y4729
X16303Y7433
X16303Y8433
X16303Y9433
X16303Y10433
X16303Y11433
X16303Y12433
X16303Y13433
X16303Y14433
X16303Y15433
X16303Y16433
X16303Y17433
X16303Y18433
X16303Y19433
X16303Y20433
X16303Y21433
X16303Y22433
X16303Y23433
X16303Y24433
X16303Y25433
X16303Y26433
X7303Y26433
X7303Y25433
X7303Y24433
X7303Y23433
X7303Y22433
X7303Y21433
X7303Y20433
X7303Y19433
X7303Y18433
T03
X2633Y15002
X2633Y14002
X2633Y13002
X2633Y12002
X1633Y12502
X1633Y13502
X1633Y14502
X1633Y15502
T04
X2133Y23465
X2133Y24465
X3952Y29752
X4952Y29752
X5952Y29752
X7559Y29752
X8559Y29752
X9559Y29752
X11165Y29752
X12165Y29752
X13165Y29752
X14771Y29752
X15771Y29752
X16771Y29752
X10559Y4008
X9559Y4008
X8559Y4008
X6271Y4008
X5271Y4008
X4271Y4008
T05
X2066Y18292
X2066Y19292
X2066Y20292
X18909Y21189
X18909Y22189
X18909Y23189
X18909Y24189
X18909Y18402
X18909Y17402
X18909Y16402
X18909Y15402
T06
X4700Y8835
X4700Y7457
T07
X13492Y4585
T08
X1814Y3689
X1814Y30067
X19098Y30067
X19098Y3689
M30
