G75*
%MOIN*%
%OFA0B0*%
%FSLAX24Y24*%
%IPPOS*%
%LPD*%
%AMOC8*
5,1,8,0,0,1.08239X$1,22.5*
%
%ADD10C,0.0060*%
%ADD11C,0.0040*%
%ADD12C,0.0080*%
%ADD13C,0.0100*%
%ADD14C,0.0050*%
%ADD15R,0.1447X0.0413*%
D10*
X003612Y011586D02*
X003612Y011906D01*
X003719Y012013D01*
X003826Y012013D01*
X003933Y011906D01*
X003933Y011586D01*
X003933Y011906D02*
X004039Y012013D01*
X004146Y012013D01*
X004253Y011906D01*
X004253Y011586D01*
X003612Y011586D01*
X003612Y012230D02*
X004146Y012230D01*
X004253Y012337D01*
X004253Y012550D01*
X004146Y012657D01*
X003612Y012657D01*
X003719Y012875D02*
X003612Y012981D01*
X003612Y013195D01*
X003719Y013302D01*
X003933Y013195D02*
X003933Y012981D01*
X003826Y012875D01*
X003719Y012875D01*
X003933Y013195D02*
X004039Y013302D01*
X004146Y013302D01*
X004253Y013195D01*
X004253Y012981D01*
X004146Y012875D01*
X004146Y014164D02*
X003719Y014164D01*
X003612Y014270D01*
X003612Y014484D01*
X003719Y014591D01*
X003826Y014808D02*
X003612Y015022D01*
X003826Y015235D01*
X004253Y015235D01*
X004253Y015453D02*
X003612Y015453D01*
X004253Y015880D01*
X003612Y015880D01*
X003933Y015235D02*
X003933Y014808D01*
X003826Y014808D02*
X004253Y014808D01*
X004146Y014591D02*
X004253Y014484D01*
X004253Y014270D01*
X004146Y014164D01*
X002316Y017792D02*
X001816Y017792D01*
X001566Y018042D01*
X001566Y018542D01*
X001816Y018792D01*
X001566Y019042D01*
X001566Y019542D01*
X001816Y019792D01*
X001566Y020042D01*
X001566Y020542D01*
X001816Y020792D01*
X002316Y020792D01*
X002566Y020542D01*
X002566Y020042D01*
X002316Y019792D01*
X002566Y019542D01*
X002566Y019042D01*
X002316Y018792D01*
X002566Y018542D01*
X002566Y018042D01*
X002316Y017792D01*
X002316Y018792D02*
X001816Y018792D01*
X001816Y019792D02*
X002316Y019792D01*
X018409Y018652D02*
X018409Y018152D01*
X018659Y017902D01*
X018409Y017652D01*
X018409Y017152D01*
X018659Y016902D01*
X018409Y016652D01*
X018409Y016152D01*
X018659Y015902D01*
X018409Y015652D01*
X018409Y015152D01*
X018659Y014902D01*
X019159Y014902D01*
X019409Y015152D01*
X019409Y015652D01*
X019159Y015902D01*
X019409Y016152D01*
X019409Y016652D01*
X019159Y016902D01*
X019409Y017152D01*
X019409Y017652D01*
X019159Y017902D01*
X019409Y018152D01*
X019409Y018652D01*
X019159Y018902D01*
X018659Y018902D01*
X018409Y018652D01*
X018659Y020689D02*
X018409Y020939D01*
X018409Y021439D01*
X018659Y021689D01*
X018409Y021939D01*
X018409Y022439D01*
X018659Y022689D01*
X018409Y022939D01*
X018409Y023439D01*
X018659Y023689D01*
X018409Y023939D01*
X018409Y024439D01*
X018659Y024689D01*
X019159Y024689D01*
X019409Y024439D01*
X019409Y023939D01*
X019159Y023689D01*
X019409Y023439D01*
X019409Y022939D01*
X019159Y022689D01*
X019409Y022439D01*
X019409Y021939D01*
X019159Y021689D01*
X019409Y021439D01*
X019409Y020939D01*
X019159Y020689D01*
X018659Y020689D01*
D11*
X003578Y005082D02*
X003578Y004852D01*
X004039Y004852D01*
X003885Y004852D02*
X003885Y005082D01*
X003808Y005159D01*
X003655Y005159D01*
X003578Y005082D01*
X003655Y005312D02*
X003578Y005389D01*
X003578Y005542D01*
X003655Y005619D01*
X003732Y005619D01*
X004039Y005312D01*
X004039Y005619D01*
X004039Y005658D02*
X004039Y006005D01*
X004213Y006179D01*
X004386Y006005D01*
X004386Y005658D01*
X004555Y005658D02*
X004902Y006179D01*
X005070Y006005D02*
X005244Y006179D01*
X005244Y005658D01*
X005417Y005658D02*
X005070Y005658D01*
X004902Y005658D02*
X004555Y006179D01*
X004386Y005918D02*
X004039Y005918D01*
X004039Y005159D02*
X003885Y005005D01*
X004701Y002489D02*
X004821Y002368D01*
X004821Y002128D01*
X004950Y002128D02*
X005190Y002489D01*
X005318Y002368D02*
X005438Y002489D01*
X005438Y002128D01*
X005318Y002128D02*
X005558Y002128D01*
X005686Y002128D02*
X005926Y002368D01*
X005926Y002429D01*
X005866Y002489D01*
X005746Y002489D01*
X005686Y002429D01*
X005686Y002128D02*
X005926Y002128D01*
X006054Y002308D02*
X006295Y002308D01*
X006423Y002429D02*
X006483Y002489D01*
X006603Y002489D01*
X006663Y002429D01*
X006663Y002368D01*
X006423Y002128D01*
X006663Y002128D01*
X005190Y002128D02*
X004950Y002489D01*
X004821Y002308D02*
X004581Y002308D01*
X004581Y002368D02*
X004701Y002489D01*
X004581Y002368D02*
X004581Y002128D01*
X005586Y005658D02*
X005933Y006005D01*
X005933Y006092D01*
X005846Y006179D01*
X005673Y006179D01*
X005586Y006092D01*
X005586Y005658D02*
X005933Y005658D01*
X005869Y007474D02*
X005869Y007781D01*
X005869Y007934D02*
X005562Y008241D01*
X005486Y008241D01*
X005409Y008164D01*
X005409Y008011D01*
X005486Y007934D01*
X005409Y007627D02*
X005869Y007627D01*
X005869Y007934D02*
X005869Y008241D01*
X005716Y008395D02*
X005869Y008548D01*
X005716Y008702D01*
X005409Y008702D01*
X005409Y008395D02*
X005716Y008395D01*
X005409Y007627D02*
X005562Y007474D01*
X005166Y010178D02*
X005339Y010351D01*
X005339Y010698D01*
X004993Y010698D02*
X004993Y010351D01*
X005166Y010178D01*
X004824Y010178D02*
X004477Y010178D01*
X004824Y010525D01*
X004824Y010612D01*
X004737Y010698D01*
X004564Y010698D01*
X004477Y010612D01*
X004135Y010698D02*
X004135Y010178D01*
X004308Y010178D02*
X003961Y010178D01*
X003961Y010525D02*
X004135Y010698D01*
X003277Y010698D02*
X003277Y010178D01*
X002930Y010178D02*
X002930Y010698D01*
X003103Y010525D01*
X003277Y010698D01*
X002760Y010698D02*
X002586Y010698D01*
X002673Y010698D02*
X002673Y010178D01*
X002586Y010178D02*
X002760Y010178D01*
X002418Y010178D02*
X002071Y010178D01*
X002071Y010698D01*
X001902Y010525D02*
X001902Y010178D01*
X001902Y010438D02*
X001555Y010438D01*
X001555Y010525D02*
X001555Y010178D01*
X001555Y010525D02*
X001728Y010698D01*
X001902Y010525D01*
X001037Y012022D02*
X001113Y012099D01*
X001113Y012253D01*
X001037Y012329D01*
X001113Y012483D02*
X000806Y012483D01*
X000653Y012636D01*
X000806Y012790D01*
X001113Y012790D01*
X001113Y012943D02*
X000653Y012943D01*
X001113Y013250D01*
X000653Y013250D01*
X000883Y012790D02*
X000883Y012483D01*
X000730Y012329D02*
X000653Y012253D01*
X000653Y012099D01*
X000730Y012022D01*
X001037Y012022D01*
X001503Y015839D02*
X001503Y015957D01*
X001622Y015839D01*
X001582Y015918D02*
X001622Y015957D01*
X002015Y015957D01*
X002055Y015918D01*
X002015Y015957D02*
X002015Y016075D01*
X002133Y016075D02*
X002133Y015957D01*
X002015Y015839D01*
X002133Y015839D02*
X002133Y015957D01*
X001622Y015957D02*
X001622Y016075D01*
X001503Y016075D02*
X001503Y015957D01*
X003479Y017139D02*
X003479Y017312D01*
X003479Y017226D02*
X003912Y017226D01*
X003999Y017139D01*
X003999Y017052D01*
X003912Y016965D01*
X003912Y017481D02*
X003999Y017568D01*
X003999Y017741D01*
X003912Y017828D01*
X003479Y017828D01*
X003479Y017997D02*
X003652Y018170D01*
X003479Y018344D01*
X003999Y018344D01*
X003999Y018512D02*
X003479Y018512D01*
X003479Y018772D01*
X003565Y018859D01*
X003739Y018859D01*
X003826Y018772D01*
X003826Y018512D01*
X003739Y019028D02*
X003739Y019201D01*
X003999Y019028D02*
X003999Y019375D01*
X003999Y019543D02*
X003479Y019543D01*
X003479Y019804D01*
X003565Y019890D01*
X003739Y019890D01*
X003826Y019804D01*
X003826Y019543D01*
X003826Y019717D02*
X003999Y019890D01*
X003912Y020575D02*
X003565Y020575D01*
X003479Y020662D01*
X003479Y020835D01*
X003565Y020922D01*
X003652Y021090D02*
X003479Y021264D01*
X003652Y021437D01*
X003999Y021437D01*
X003999Y021606D02*
X003479Y021606D01*
X003999Y021953D01*
X003479Y021953D01*
X003739Y021437D02*
X003739Y021090D01*
X003652Y021090D02*
X003999Y021090D01*
X003912Y020922D02*
X003999Y020835D01*
X003999Y020662D01*
X003912Y020575D01*
X003479Y019375D02*
X003479Y019028D01*
X003999Y019028D01*
X003999Y017997D02*
X003479Y017997D01*
X003479Y017481D02*
X003912Y017481D01*
X000613Y022985D02*
X000613Y023105D01*
X000613Y023045D02*
X000253Y023045D01*
X000253Y022985D02*
X000253Y023105D01*
X000313Y023231D02*
X000253Y023291D01*
X000253Y023411D01*
X000313Y023471D01*
X000373Y023471D01*
X000613Y023231D01*
X000613Y023471D01*
X000553Y023599D02*
X000313Y023599D01*
X000253Y023659D01*
X000253Y023779D01*
X000313Y023839D01*
X000553Y023839D02*
X000613Y023779D01*
X000613Y023659D01*
X000553Y023599D01*
X003703Y023674D02*
X003703Y023847D01*
X003703Y023761D02*
X004224Y023761D01*
X004224Y023847D02*
X004224Y023674D01*
X004224Y024018D02*
X003877Y024365D01*
X003790Y024365D01*
X003703Y024278D01*
X003703Y024104D01*
X003790Y024018D01*
X003790Y024533D02*
X004137Y024533D01*
X004224Y024620D01*
X004224Y024794D01*
X004137Y024880D01*
X003790Y024880D02*
X003703Y024794D01*
X003703Y024620D01*
X003790Y024533D01*
X004224Y024365D02*
X004224Y024018D01*
X004233Y027409D02*
X004233Y027930D01*
X004064Y027843D02*
X003977Y027930D01*
X003804Y027930D01*
X003717Y027843D01*
X003717Y027756D01*
X003804Y027669D01*
X003977Y027669D01*
X004064Y027583D01*
X004064Y027496D01*
X003977Y027409D01*
X003804Y027409D01*
X003717Y027496D01*
X004233Y027669D02*
X004579Y027669D01*
X004748Y027669D02*
X005095Y027669D01*
X005095Y027756D02*
X005095Y027409D01*
X005264Y027409D02*
X005264Y027930D01*
X005524Y027930D01*
X005611Y027843D01*
X005611Y027669D01*
X005524Y027583D01*
X005264Y027583D01*
X005437Y027583D02*
X005611Y027409D01*
X005779Y027409D02*
X005779Y027930D01*
X006040Y027930D01*
X006126Y027843D01*
X006126Y027669D01*
X006040Y027583D01*
X005779Y027583D01*
X005095Y027756D02*
X004922Y027930D01*
X004748Y027756D01*
X004748Y027409D01*
X004579Y027409D02*
X004579Y027930D01*
X006823Y027953D02*
X006823Y028414D01*
X006976Y028260D01*
X007130Y028414D01*
X007130Y027953D01*
X007283Y027953D02*
X007513Y027953D01*
X007590Y028030D01*
X007590Y028107D01*
X007513Y028184D01*
X007283Y028184D01*
X007402Y028209D02*
X007489Y028122D01*
X007662Y028122D01*
X007749Y028035D01*
X007749Y027949D01*
X007662Y027862D01*
X007489Y027862D01*
X007402Y027949D01*
X007283Y027953D02*
X007283Y028414D01*
X007513Y028414D01*
X007590Y028337D01*
X007590Y028260D01*
X007513Y028184D01*
X007402Y028209D02*
X007402Y028296D01*
X007489Y028382D01*
X007662Y028382D01*
X007749Y028296D01*
X007743Y028184D02*
X007897Y028184D01*
X007918Y028122D02*
X008265Y028122D01*
X008433Y028122D02*
X008780Y028122D01*
X008780Y028209D02*
X008780Y027862D01*
X008949Y027862D02*
X008949Y028382D01*
X009209Y028382D01*
X009296Y028296D01*
X009296Y028122D01*
X009209Y028035D01*
X008949Y028035D01*
X009122Y028035D02*
X009296Y027862D01*
X009464Y027862D02*
X009464Y028382D01*
X009725Y028382D01*
X009811Y028296D01*
X009811Y028122D01*
X009725Y028035D01*
X009464Y028035D01*
X008780Y028209D02*
X008607Y028382D01*
X008433Y028209D01*
X008433Y027862D01*
X008434Y027953D02*
X008511Y028030D01*
X008511Y028337D01*
X008434Y028414D01*
X008204Y028414D01*
X008204Y027953D01*
X008434Y027953D01*
X008265Y027862D02*
X008265Y028382D01*
X008050Y028414D02*
X007743Y028414D01*
X007743Y027953D01*
X008050Y027953D01*
X007918Y027862D02*
X007918Y028382D01*
X007815Y031272D02*
X007815Y031513D01*
X007935Y031633D01*
X008055Y031513D01*
X008055Y031272D01*
X008183Y031272D02*
X008183Y031633D01*
X008364Y031633D01*
X008424Y031573D01*
X008424Y031453D01*
X008364Y031392D01*
X008183Y031392D01*
X008304Y031392D02*
X008424Y031272D01*
X008552Y031272D02*
X008552Y031633D01*
X008732Y031633D01*
X008792Y031573D01*
X008792Y031453D01*
X008732Y031392D01*
X008552Y031392D01*
X008920Y031272D02*
X009160Y031513D01*
X009160Y031573D01*
X009100Y031633D01*
X008980Y031633D01*
X008920Y031573D01*
X008920Y031272D02*
X009160Y031272D01*
X008055Y031453D02*
X007815Y031453D01*
X007687Y031453D02*
X007447Y031453D01*
X007319Y031392D02*
X007319Y031332D01*
X007259Y031272D01*
X007139Y031272D01*
X007079Y031332D01*
X007139Y031453D02*
X007259Y031453D01*
X007319Y031392D01*
X007447Y031272D02*
X007447Y031633D01*
X007319Y031573D02*
X007259Y031633D01*
X007139Y031633D01*
X007079Y031573D01*
X007079Y031513D01*
X007139Y031453D01*
X007687Y031633D02*
X007687Y031272D01*
X005554Y031272D02*
X005314Y031272D01*
X005434Y031272D02*
X005434Y031633D01*
X005314Y031513D01*
X005186Y031573D02*
X005186Y031453D01*
X005126Y031392D01*
X004945Y031392D01*
X004945Y031272D02*
X004945Y031633D01*
X005126Y031633D01*
X005186Y031573D01*
X004817Y031573D02*
X004817Y031453D01*
X004757Y031392D01*
X004577Y031392D01*
X004577Y031272D02*
X004577Y031633D01*
X004757Y031633D01*
X004817Y031573D01*
X004697Y031392D02*
X004817Y031272D01*
X004449Y031272D02*
X004449Y031513D01*
X004329Y031633D01*
X004209Y031513D01*
X004209Y031272D01*
X004081Y031272D02*
X004081Y031633D01*
X004081Y031453D02*
X003841Y031453D01*
X003712Y031392D02*
X003712Y031332D01*
X003652Y031272D01*
X003532Y031272D01*
X003472Y031332D01*
X003532Y031453D02*
X003472Y031513D01*
X003472Y031573D01*
X003532Y031633D01*
X003652Y031633D01*
X003712Y031573D01*
X003652Y031453D02*
X003712Y031392D01*
X003652Y031453D02*
X003532Y031453D01*
X003841Y031633D02*
X003841Y031272D01*
X004209Y031453D02*
X004449Y031453D01*
X010685Y031513D02*
X010685Y031573D01*
X010745Y031633D01*
X010865Y031633D01*
X010925Y031573D01*
X010865Y031453D02*
X010745Y031453D01*
X010685Y031513D01*
X010685Y031332D02*
X010745Y031272D01*
X010865Y031272D01*
X010925Y031332D01*
X010925Y031392D01*
X010865Y031453D01*
X011053Y031453D02*
X011293Y031453D01*
X011421Y031453D02*
X011662Y031453D01*
X011662Y031513D02*
X011662Y031272D01*
X011790Y031272D02*
X011790Y031633D01*
X011970Y031633D01*
X012030Y031573D01*
X012030Y031453D01*
X011970Y031392D01*
X011790Y031392D01*
X011910Y031392D02*
X012030Y031272D01*
X012158Y031272D02*
X012158Y031633D01*
X012338Y031633D01*
X012398Y031573D01*
X012398Y031453D01*
X012338Y031392D01*
X012158Y031392D01*
X012526Y031332D02*
X012586Y031272D01*
X012707Y031272D01*
X012767Y031332D01*
X012767Y031392D01*
X012707Y031453D01*
X012647Y031453D01*
X012707Y031453D02*
X012767Y031513D01*
X012767Y031573D01*
X012707Y031633D01*
X012586Y031633D01*
X012526Y031573D01*
X011662Y031513D02*
X011542Y031633D01*
X011421Y031513D01*
X011421Y031272D01*
X011293Y031272D02*
X011293Y031633D01*
X011053Y031633D02*
X011053Y031272D01*
X011063Y028083D02*
X010977Y027996D01*
X010977Y027910D01*
X011063Y027823D01*
X011237Y027823D01*
X011324Y027736D01*
X011324Y027650D01*
X011237Y027563D01*
X011063Y027563D01*
X010977Y027650D01*
X011063Y028083D02*
X011237Y028083D01*
X011324Y027996D01*
X011492Y028083D02*
X011492Y027563D01*
X011492Y027823D02*
X011839Y027823D01*
X012008Y027823D02*
X012355Y027823D01*
X012355Y027910D02*
X012355Y027563D01*
X012524Y027563D02*
X012524Y028083D01*
X012784Y028083D01*
X012871Y027996D01*
X012871Y027823D01*
X012784Y027736D01*
X012524Y027736D01*
X012697Y027736D02*
X012871Y027563D01*
X013039Y027563D02*
X013039Y028083D01*
X013299Y028083D01*
X013386Y027996D01*
X013386Y027823D01*
X013299Y027736D01*
X013039Y027736D01*
X012355Y027910D02*
X012181Y028083D01*
X012008Y027910D01*
X012008Y027563D01*
X011839Y027563D02*
X011839Y028083D01*
X014351Y031272D02*
X014291Y031332D01*
X014351Y031272D02*
X014471Y031272D01*
X014531Y031332D01*
X014531Y031392D01*
X014471Y031453D01*
X014351Y031453D01*
X014291Y031513D01*
X014291Y031573D01*
X014351Y031633D01*
X014471Y031633D01*
X014531Y031573D01*
X014659Y031633D02*
X014659Y031272D01*
X014659Y031453D02*
X014900Y031453D01*
X015028Y031453D02*
X015268Y031453D01*
X015268Y031513D02*
X015268Y031272D01*
X015396Y031272D02*
X015396Y031633D01*
X015576Y031633D01*
X015636Y031573D01*
X015636Y031453D01*
X015576Y031392D01*
X015396Y031392D01*
X015516Y031392D02*
X015636Y031272D01*
X015764Y031272D02*
X015764Y031633D01*
X015945Y031633D01*
X016005Y031573D01*
X016005Y031453D01*
X015945Y031392D01*
X015764Y031392D01*
X016133Y031453D02*
X016373Y031453D01*
X016313Y031633D02*
X016313Y031272D01*
X016133Y031453D02*
X016313Y031633D01*
X015268Y031513D02*
X015148Y031633D01*
X015028Y031513D01*
X015028Y031272D01*
X014900Y031272D02*
X014900Y031633D01*
X014922Y028083D02*
X014748Y028083D01*
X014662Y027996D01*
X014662Y027910D01*
X014748Y027823D01*
X014922Y027823D01*
X015009Y027736D01*
X015009Y027650D01*
X014922Y027563D01*
X014748Y027563D01*
X014662Y027650D01*
X015009Y027996D02*
X014922Y028083D01*
X015177Y028083D02*
X015177Y027563D01*
X015177Y027823D02*
X015524Y027823D01*
X015693Y027823D02*
X016040Y027823D01*
X016040Y027910D02*
X016040Y027563D01*
X016209Y027563D02*
X016209Y028083D01*
X016469Y028083D01*
X016556Y027996D01*
X016556Y027823D01*
X016469Y027736D01*
X016209Y027736D01*
X016382Y027736D02*
X016556Y027563D01*
X016724Y027563D02*
X016724Y028083D01*
X016985Y028083D01*
X017071Y027996D01*
X017071Y027823D01*
X016985Y027736D01*
X016724Y027736D01*
X016040Y027910D02*
X015867Y028083D01*
X015693Y027910D01*
X015693Y027563D01*
X015524Y027563D02*
X015524Y028083D01*
X017590Y023919D02*
X017503Y023832D01*
X017503Y023572D01*
X018024Y023572D01*
X018024Y023832D01*
X017937Y023919D01*
X017590Y023919D01*
X018110Y023403D02*
X018110Y023056D01*
X017937Y022887D02*
X017590Y022887D01*
X017503Y022801D01*
X017503Y022627D01*
X017590Y022540D01*
X017937Y022540D01*
X018024Y022627D01*
X018024Y022801D01*
X017937Y022887D01*
X017937Y022372D02*
X017590Y022372D01*
X017503Y022285D01*
X017503Y022025D01*
X018024Y022025D01*
X018024Y022285D01*
X017937Y022372D01*
X017937Y021856D02*
X017590Y021856D01*
X017503Y021769D01*
X017503Y021596D01*
X017590Y021509D01*
X017937Y021509D01*
X018024Y021596D01*
X018024Y021769D01*
X017937Y021856D01*
X017827Y018190D02*
X017653Y018190D01*
X017653Y018017D01*
X017480Y018190D02*
X017393Y018104D01*
X017393Y017930D01*
X017480Y017843D01*
X017827Y017843D01*
X017913Y017930D01*
X017913Y018104D01*
X017827Y018190D01*
X018000Y017675D02*
X018000Y017328D01*
X017827Y017159D02*
X017480Y017159D01*
X017393Y017072D01*
X017393Y016899D01*
X017480Y016812D01*
X017827Y016812D01*
X017913Y016899D01*
X017913Y017072D01*
X017827Y017159D01*
X017827Y016643D02*
X017480Y016643D01*
X017393Y016557D01*
X017393Y016296D01*
X017913Y016296D01*
X017913Y016557D01*
X017827Y016643D01*
X017827Y016128D02*
X017480Y016128D01*
X017393Y016041D01*
X017393Y015868D01*
X017480Y015781D01*
X017827Y015781D01*
X017913Y015868D01*
X017913Y016041D01*
X017827Y016128D01*
X016468Y006131D02*
X016208Y006131D01*
X016208Y005611D01*
X016468Y005611D01*
X016555Y005698D01*
X016555Y006045D01*
X016468Y006131D01*
X016496Y005890D02*
X016727Y005890D01*
X016803Y005814D01*
X016803Y005507D01*
X016727Y005430D01*
X016496Y005430D01*
X016496Y005890D01*
X016343Y005890D02*
X016343Y005430D01*
X016036Y005890D01*
X016036Y005430D01*
X015883Y005430D02*
X015883Y005737D01*
X015729Y005890D01*
X015576Y005737D01*
X015576Y005430D01*
X015422Y005430D02*
X015422Y005890D01*
X015269Y005737D01*
X015115Y005890D01*
X015115Y005430D01*
X014962Y005430D02*
X014962Y005890D01*
X014808Y005737D01*
X014655Y005890D01*
X014655Y005430D01*
X014501Y005507D02*
X014501Y005814D01*
X014425Y005890D01*
X014271Y005890D01*
X014194Y005814D01*
X014194Y005507D01*
X014271Y005430D01*
X014425Y005430D01*
X014501Y005507D01*
X014492Y005611D02*
X014492Y006131D01*
X014319Y005958D01*
X014145Y006131D01*
X014145Y005611D01*
X014041Y005507D02*
X013964Y005430D01*
X013811Y005430D01*
X013734Y005507D01*
X013734Y005814D01*
X013811Y005890D01*
X013964Y005890D01*
X014041Y005814D01*
X013977Y005698D02*
X013977Y006045D01*
X013890Y006131D01*
X013716Y006131D01*
X013630Y006045D01*
X013630Y005698D01*
X013716Y005611D01*
X013890Y005611D01*
X013977Y005698D01*
X013461Y005698D02*
X013374Y005611D01*
X013201Y005611D01*
X013114Y005698D01*
X013114Y006045D01*
X013201Y006131D01*
X013374Y006131D01*
X013461Y006045D01*
X014661Y006131D02*
X014661Y005611D01*
X014834Y005958D02*
X015008Y006131D01*
X015008Y005611D01*
X015177Y005611D02*
X015177Y005958D01*
X015350Y006131D01*
X015523Y005958D01*
X015523Y005611D01*
X015576Y005660D02*
X015883Y005660D01*
X016039Y005611D02*
X016039Y006131D01*
X015692Y006131D02*
X015692Y005611D01*
X015523Y005871D02*
X015177Y005871D01*
X014834Y005958D02*
X014661Y006131D01*
X015692Y006131D02*
X016039Y005611D01*
X010950Y002128D02*
X010710Y002128D01*
X010830Y002128D02*
X010830Y002489D01*
X010710Y002368D01*
X010582Y002308D02*
X010342Y002308D01*
X010214Y002368D02*
X010214Y002429D01*
X010154Y002489D01*
X010034Y002489D01*
X009974Y002429D01*
X010214Y002368D02*
X009974Y002128D01*
X010214Y002128D01*
X009845Y002128D02*
X009605Y002128D01*
X009725Y002128D02*
X009725Y002489D01*
X009605Y002368D01*
X009477Y002489D02*
X009237Y002128D01*
X009109Y002128D02*
X009109Y002368D01*
X008989Y002489D01*
X008869Y002368D01*
X008869Y002128D01*
X008869Y002308D02*
X009109Y002308D01*
X009237Y002489D02*
X009477Y002128D01*
X009480Y005505D02*
X009133Y005505D01*
X008965Y005505D02*
X008618Y006025D01*
X008449Y005852D02*
X008449Y005505D01*
X008618Y005505D02*
X008965Y006025D01*
X009133Y005852D02*
X009307Y006025D01*
X009307Y005505D01*
X009649Y005505D02*
X009996Y005852D01*
X009996Y005938D01*
X009909Y006025D01*
X009736Y006025D01*
X009649Y005938D01*
X009649Y005505D02*
X009996Y005505D01*
X008449Y005765D02*
X008102Y005765D01*
X008102Y005852D02*
X008276Y006025D01*
X008449Y005852D01*
X008102Y005852D02*
X008102Y005505D01*
D12*
X005015Y006532D02*
X000724Y006532D01*
X000724Y009760D01*
X005015Y009760D01*
X003078Y011390D02*
X003078Y016115D01*
X001188Y016115D01*
X001188Y011390D01*
X003078Y011390D01*
X002921Y011705D02*
X002921Y015800D01*
X001346Y015800D01*
X001346Y011705D01*
X002921Y011705D01*
X002763Y011351D02*
X002763Y011193D01*
X002606Y011193D01*
X002606Y011351D01*
X002409Y011351D02*
X002409Y011193D01*
X001858Y011193D01*
X001858Y011351D01*
X001661Y011351D02*
X001661Y011193D01*
X001503Y011193D01*
X001503Y011351D01*
X001503Y016154D02*
X001503Y016311D01*
X001661Y016311D01*
X001661Y016154D01*
X001858Y016154D02*
X001858Y016311D01*
X002409Y016311D01*
X002409Y016154D01*
X002606Y016154D02*
X002606Y016311D01*
X002763Y016311D01*
X002763Y016154D01*
D13*
X003383Y022965D02*
X001633Y022965D01*
X001633Y024965D01*
X003383Y024965D01*
X003383Y022965D01*
X001633Y022965D02*
X000883Y022965D01*
X000883Y024965D01*
X001633Y024965D01*
X003452Y028502D02*
X003452Y030252D01*
X006452Y030252D01*
X006452Y028502D01*
X003452Y028502D01*
X003452Y030252D02*
X003452Y031002D01*
X006452Y031002D01*
X006452Y030252D01*
X007059Y030252D02*
X007059Y031002D01*
X010059Y031002D01*
X010059Y030252D01*
X007059Y030252D01*
X007059Y028502D01*
X010059Y028502D01*
X010059Y030252D01*
X010665Y030252D02*
X010665Y031002D01*
X013665Y031002D01*
X013665Y030252D01*
X010665Y030252D01*
X010665Y028502D01*
X013665Y028502D01*
X013665Y030252D01*
X014271Y030252D02*
X014271Y031002D01*
X017271Y031002D01*
X017271Y030252D01*
X014271Y030252D01*
X014271Y028502D01*
X017271Y028502D01*
X017271Y030252D01*
X011059Y005258D02*
X008059Y005258D01*
X008059Y003508D01*
X011059Y003508D01*
X011059Y002758D01*
X008059Y002758D01*
X008059Y003508D01*
X006771Y003508D02*
X006771Y002758D01*
X003771Y002758D01*
X003771Y003508D01*
X006771Y003508D01*
X006771Y005258D01*
X003771Y005258D01*
X003771Y003508D01*
X011059Y003508D02*
X011059Y005258D01*
D14*
X013517Y005213D02*
X013517Y004819D01*
X013714Y004819D01*
X013714Y003638D01*
X013517Y003638D01*
X013517Y003245D01*
X017242Y003245D01*
X017242Y003638D01*
X017045Y003638D01*
X017045Y004819D01*
X017242Y004819D01*
X017242Y005213D01*
X013517Y005213D01*
X018834Y014477D02*
X018684Y014627D01*
X019134Y014627D01*
X019134Y014477D02*
X019134Y014777D01*
X018234Y015002D02*
X018234Y015152D01*
X018159Y015227D01*
X017859Y015227D01*
X017784Y015152D01*
X017784Y015002D01*
X017859Y014927D01*
X018159Y014927D01*
X018234Y015002D01*
X018234Y015387D02*
X018234Y015613D01*
X018159Y015688D01*
X017859Y015688D01*
X017784Y015613D01*
X017784Y015387D01*
X018234Y015387D01*
X018159Y015848D02*
X018234Y015923D01*
X018234Y016073D01*
X018159Y016148D01*
X017859Y016148D01*
X017784Y016073D01*
X017784Y015923D01*
X017859Y015848D01*
X018159Y015848D01*
X018309Y016308D02*
X018309Y016608D01*
X018159Y016769D02*
X018234Y016844D01*
X018234Y016994D01*
X018159Y017069D01*
X018009Y017069D01*
X018009Y016919D01*
X017859Y017069D02*
X017784Y016994D01*
X017784Y016844D01*
X017859Y016769D01*
X018159Y016769D01*
X018909Y019027D02*
X018909Y019327D01*
X019134Y019252D02*
X018684Y019252D01*
X018909Y019027D01*
X018834Y020264D02*
X018684Y020415D01*
X019134Y020415D01*
X019134Y020565D02*
X019134Y020264D01*
X018234Y020789D02*
X018234Y020940D01*
X018159Y021015D01*
X017859Y021015D01*
X017784Y020940D01*
X017784Y020789D01*
X017859Y020714D01*
X018159Y020714D01*
X018234Y020789D01*
X018234Y021175D02*
X018234Y021400D01*
X018159Y021475D01*
X017859Y021475D01*
X017784Y021400D01*
X017784Y021175D01*
X018234Y021175D01*
X018159Y021635D02*
X018234Y021710D01*
X018234Y021860D01*
X018159Y021935D01*
X017859Y021935D01*
X017784Y021860D01*
X017784Y021710D01*
X017859Y021635D01*
X018159Y021635D01*
X018309Y022096D02*
X018309Y022396D01*
X018234Y022556D02*
X018234Y022781D01*
X018159Y022856D01*
X017859Y022856D01*
X017784Y022781D01*
X017784Y022556D01*
X018234Y022556D01*
X018909Y024814D02*
X018909Y025115D01*
X019134Y025040D02*
X018684Y025040D01*
X018909Y024814D01*
X003261Y020687D02*
X003111Y020536D01*
X003111Y020612D02*
X003111Y020386D01*
X003261Y020386D02*
X002811Y020386D01*
X002811Y020612D01*
X002886Y020687D01*
X003036Y020687D01*
X003111Y020612D01*
X003261Y020226D02*
X003261Y019926D01*
X002811Y019926D01*
X002811Y020226D01*
X003036Y020076D02*
X003036Y019926D01*
X003036Y019766D02*
X003111Y019691D01*
X003111Y019466D01*
X003261Y019466D02*
X002811Y019466D01*
X002811Y019691D01*
X002886Y019766D01*
X003036Y019766D01*
X002811Y019305D02*
X003261Y019305D01*
X003261Y019005D02*
X002811Y019005D01*
X002961Y019155D01*
X002811Y019305D01*
X002811Y018845D02*
X003186Y018845D01*
X003261Y018770D01*
X003261Y018620D01*
X003186Y018545D01*
X002811Y018545D01*
X002811Y018385D02*
X002811Y018235D01*
X002811Y018310D02*
X003186Y018310D01*
X003261Y018235D01*
X003261Y018159D01*
X003186Y018084D01*
D15*
X001428Y008835D03*
X001428Y007457D03*
M02*
