G75*
%MOIN*%
%OFA0B0*%
%FSLAX24Y24*%
%IPPOS*%
%LPD*%
%AMOC8*
5,1,8,0,0,1.08239X$1,22.5*
%
%ADD10C,0.0595*%
%ADD11C,0.0600*%
%ADD12C,0.0674*%
%ADD13C,0.0680*%
%ADD14C,0.0920*%
%ADD15R,0.0710X0.0592*%
%ADD16C,0.0640*%
%ADD17C,0.0671*%
%ADD18C,0.0397*%
%ADD19C,0.1261*%
D10*
X007303Y007433D03*
X007303Y008433D03*
X007303Y009433D03*
X007303Y010433D03*
X007303Y011433D03*
X007303Y012433D03*
X007303Y013433D03*
X007303Y014433D03*
X007303Y015433D03*
X007303Y016433D03*
X007303Y017433D03*
X007303Y018433D03*
X007303Y019433D03*
X007303Y020433D03*
X007303Y021433D03*
X007303Y022433D03*
X007303Y023433D03*
X007303Y024433D03*
X007303Y025433D03*
X007303Y026433D03*
X016303Y026433D03*
X016303Y025433D03*
X016303Y024433D03*
X016303Y023433D03*
X016303Y022433D03*
X016303Y021433D03*
X016303Y020433D03*
X016303Y019433D03*
X016303Y018433D03*
X016303Y017433D03*
X016303Y016433D03*
X016303Y015433D03*
X016303Y014433D03*
X016303Y013433D03*
X016303Y012433D03*
X016303Y011433D03*
X016303Y010433D03*
X016303Y009433D03*
X016303Y008433D03*
X016303Y007433D03*
D11*
X002633Y012002D03*
X002633Y013002D03*
X002633Y014002D03*
X002633Y015002D03*
X001633Y014502D03*
X001633Y013502D03*
X001633Y012502D03*
X001633Y015502D03*
D12*
X001836Y023465D02*
X002430Y023465D01*
X002430Y024465D02*
X001836Y024465D01*
X003952Y029456D02*
X003952Y030049D01*
X004952Y030049D02*
X004952Y029456D01*
X005952Y029456D02*
X005952Y030049D01*
X007559Y030049D02*
X007559Y029456D01*
X008559Y029456D02*
X008559Y030049D01*
X009559Y030049D02*
X009559Y029456D01*
X011165Y029456D02*
X011165Y030049D01*
X012165Y030049D02*
X012165Y029456D01*
X013165Y029456D02*
X013165Y030049D01*
X014771Y030049D02*
X014771Y029456D01*
X015771Y029456D02*
X015771Y030049D01*
X016771Y030049D02*
X016771Y029456D01*
X010559Y004305D02*
X010559Y003711D01*
X009559Y003711D02*
X009559Y004305D01*
X008559Y004305D02*
X008559Y003711D01*
X006271Y003711D02*
X006271Y004305D01*
X005271Y004305D02*
X005271Y003711D01*
X004271Y003711D02*
X004271Y004305D01*
D13*
X002366Y018292D02*
X001766Y018292D01*
X001766Y019292D02*
X002366Y019292D01*
X002366Y020292D02*
X001766Y020292D01*
X018609Y021189D02*
X019209Y021189D01*
X019209Y022189D02*
X018609Y022189D01*
X018609Y023189D02*
X019209Y023189D01*
X019209Y024189D02*
X018609Y024189D01*
X018609Y018402D02*
X019209Y018402D01*
X019209Y017402D02*
X018609Y017402D01*
X018609Y016402D02*
X019209Y016402D01*
X019209Y015402D02*
X018609Y015402D01*
D14*
X005120Y008835D02*
X004280Y008835D01*
X004280Y007457D02*
X005120Y007457D01*
D15*
X003059Y005626D03*
X003059Y004878D03*
D16*
X014129Y003729D03*
X014629Y004729D03*
X015129Y003729D03*
X015629Y004729D03*
X016129Y003729D03*
X016629Y004729D03*
D17*
X013492Y004585D03*
D18*
X010476Y006052D03*
X009618Y007674D03*
X007484Y004949D03*
X007161Y005658D03*
X005862Y006591D03*
X005791Y014556D03*
X006224Y015579D03*
X006224Y017626D03*
X004531Y019319D03*
X005751Y022587D03*
X008232Y019792D03*
X008625Y020776D03*
X009925Y019595D03*
X010161Y019083D03*
X010007Y017926D03*
X009177Y018571D03*
X008783Y015500D03*
X012011Y010540D03*
X012429Y011685D03*
X013814Y011552D03*
X013744Y015500D03*
X013606Y017217D03*
X012366Y016445D03*
X012444Y019162D03*
X014216Y020500D03*
X015200Y019044D03*
X016657Y020933D03*
X017129Y020776D03*
X017090Y021957D03*
X015555Y015500D03*
X008625Y023571D03*
X007996Y026721D03*
X007877Y027469D03*
X010358Y028493D03*
X010476Y026524D03*
X013744Y028689D03*
X001972Y017626D03*
D19*
X001814Y003689D03*
X001814Y030067D03*
X019098Y030067D03*
X019098Y003689D03*
M02*
