G75*
%MOIN*%
%OFA0B0*%
%FSLAX24Y24*%
%IPPOS*%
%LPD*%
%AMOC8*
5,1,8,0,0,1.08239X$1,22.5*
%
%ADD10C,0.0000*%
D10*
X000633Y002508D02*
X000633Y031248D01*
X020279Y031248D01*
X020279Y002508D01*
X000633Y002508D01*
X013197Y004585D02*
X013199Y004619D01*
X013205Y004653D01*
X013215Y004686D01*
X013228Y004717D01*
X013246Y004747D01*
X013266Y004775D01*
X013290Y004800D01*
X013316Y004822D01*
X013344Y004840D01*
X013375Y004856D01*
X013407Y004868D01*
X013441Y004876D01*
X013475Y004880D01*
X013509Y004880D01*
X013543Y004876D01*
X013577Y004868D01*
X013609Y004856D01*
X013639Y004840D01*
X013668Y004822D01*
X013694Y004800D01*
X013718Y004775D01*
X013738Y004747D01*
X013756Y004717D01*
X013769Y004686D01*
X013779Y004653D01*
X013785Y004619D01*
X013787Y004585D01*
X013785Y004551D01*
X013779Y004517D01*
X013769Y004484D01*
X013756Y004453D01*
X013738Y004423D01*
X013718Y004395D01*
X013694Y004370D01*
X013668Y004348D01*
X013640Y004330D01*
X013609Y004314D01*
X013577Y004302D01*
X013543Y004294D01*
X013509Y004290D01*
X013475Y004290D01*
X013441Y004294D01*
X013407Y004302D01*
X013375Y004314D01*
X013344Y004330D01*
X013316Y004348D01*
X013290Y004370D01*
X013266Y004395D01*
X013246Y004423D01*
X013228Y004453D01*
X013215Y004484D01*
X013205Y004517D01*
X013199Y004551D01*
X013197Y004585D01*
M02*
