G75*
%MOIN*%
%OFA0B0*%
%FSLAX24Y24*%
%IPPOS*%
%LPD*%
%AMOC8*
5,1,8,0,0,1.08239X$1,22.5*
%
%ADD10C,0.0060*%
%ADD11C,0.0040*%
%ADD12C,0.0050*%
%ADD13C,0.0030*%
%ADD14C,0.0080*%
D10*
X008328Y010233D02*
X008328Y010660D01*
X008435Y010878D02*
X008435Y011305D01*
X008435Y011091D02*
X009076Y011091D01*
X008862Y010878D01*
X009378Y010983D02*
X009378Y010555D01*
X009485Y010231D02*
X009485Y010018D01*
X009592Y009911D01*
X009805Y009911D01*
X009912Y010018D01*
X009912Y010231D01*
X009805Y010338D01*
X009699Y010338D01*
X009699Y009911D01*
X009912Y009695D02*
X009912Y009481D01*
X010019Y009588D02*
X009592Y009588D01*
X009485Y009695D01*
X009076Y009695D02*
X008969Y009589D01*
X008862Y009589D01*
X008755Y009695D01*
X008755Y009909D01*
X008649Y010016D01*
X008542Y010016D01*
X008435Y009909D01*
X008435Y009695D01*
X008542Y009589D01*
X008435Y009371D02*
X008435Y008944D01*
X009076Y008944D01*
X009076Y009371D01*
X009076Y009695D02*
X009076Y009909D01*
X008969Y010016D01*
X008755Y009158D02*
X008755Y008944D01*
X008755Y008727D02*
X008649Y008620D01*
X008649Y008300D01*
X008649Y008513D02*
X008435Y008727D01*
X008755Y008727D02*
X008969Y008727D01*
X009076Y008620D01*
X009076Y008300D01*
X008435Y008300D01*
X008435Y008082D02*
X008862Y008082D01*
X009076Y007869D01*
X008862Y007655D01*
X008435Y007655D01*
X008755Y007655D02*
X008755Y008082D01*
X009485Y007975D02*
X009485Y007762D01*
X009592Y007655D01*
X010019Y007655D01*
X010126Y007762D01*
X010126Y007975D01*
X010019Y008082D01*
X009912Y008406D02*
X009912Y008620D01*
X009805Y008727D01*
X009485Y008727D01*
X009485Y008406D01*
X009592Y008300D01*
X009699Y008406D01*
X009699Y008727D01*
X009699Y008944D02*
X009912Y009158D01*
X009912Y009264D01*
X009912Y008944D02*
X009485Y008944D01*
X009592Y008082D02*
X009485Y007975D01*
X009485Y011200D02*
X010126Y011200D01*
X010126Y011520D01*
X010019Y011627D01*
X009805Y011627D01*
X009699Y011520D01*
X009699Y011200D01*
X009485Y011845D02*
X009485Y012272D01*
X009485Y012489D02*
X009912Y012489D01*
X010126Y012703D01*
X009912Y012916D01*
X009485Y012916D01*
X009485Y013134D02*
X010126Y013134D01*
X009485Y013561D01*
X010126Y013561D01*
X009805Y012916D02*
X009805Y012489D01*
X010126Y011845D02*
X009485Y011845D01*
X009076Y011843D02*
X008969Y011949D01*
X008862Y011949D01*
X008755Y011843D01*
X008649Y011949D01*
X008542Y011949D01*
X008435Y011843D01*
X008435Y011629D01*
X008542Y011522D01*
X008755Y011736D02*
X008755Y011843D01*
X008755Y012167D02*
X008755Y012594D01*
X008862Y012811D02*
X009076Y013025D01*
X008435Y013025D01*
X008435Y013238D02*
X008435Y012811D01*
X008755Y013456D02*
X008755Y013883D01*
X008435Y013776D02*
X009076Y013776D01*
X008755Y013456D01*
X009378Y013778D02*
X009378Y014205D01*
X009485Y014423D02*
X009485Y014743D01*
X009592Y014850D01*
X009699Y014850D01*
X009805Y014743D01*
X009805Y014423D01*
X009485Y014423D02*
X010126Y014423D01*
X010126Y014743D01*
X010019Y014850D01*
X009912Y014850D01*
X009805Y014743D01*
X009076Y011843D02*
X009076Y011629D01*
X008969Y011522D01*
X012760Y012758D02*
X012760Y013178D01*
X012760Y013418D01*
X012760Y013838D01*
X012760Y013418D02*
X012781Y013416D01*
X012801Y013411D01*
X012820Y013402D01*
X012837Y013390D01*
X012852Y013375D01*
X012864Y013358D01*
X012873Y013339D01*
X012878Y013319D01*
X012880Y013298D01*
X012878Y013277D01*
X012873Y013257D01*
X012864Y013238D01*
X012852Y013221D01*
X012837Y013206D01*
X012820Y013194D01*
X012801Y013185D01*
X012781Y013180D01*
X012760Y013178D01*
X014720Y012758D02*
X014720Y013838D01*
D11*
X014806Y013821D02*
X015326Y013821D01*
X014806Y014168D01*
X015326Y014168D01*
X015326Y014337D02*
X015326Y014510D01*
X015326Y014424D02*
X014806Y014424D01*
X014806Y014510D02*
X014806Y014337D01*
X014893Y014681D02*
X014806Y014767D01*
X014806Y014941D01*
X014893Y015028D01*
X015240Y015028D01*
X015326Y014941D01*
X015326Y014767D01*
X015240Y014681D01*
X014893Y014681D01*
X014979Y014854D02*
X014806Y015028D01*
X014893Y015196D02*
X014806Y015283D01*
X014806Y015457D01*
X014893Y015543D01*
X015326Y015543D01*
X015326Y015712D02*
X014806Y015712D01*
X014806Y016059D01*
X015066Y015886D02*
X015066Y015712D01*
X015326Y015712D02*
X015326Y016059D01*
X015326Y015196D02*
X014893Y015196D01*
X014806Y013653D02*
X015153Y013653D01*
X015326Y013479D01*
X015153Y013306D01*
X014806Y013306D01*
X014979Y013137D02*
X014806Y012964D01*
X014979Y012790D01*
X015326Y012790D01*
X015326Y013137D02*
X014979Y013137D01*
X015066Y013306D02*
X015066Y013653D01*
X014806Y012621D02*
X014806Y012274D01*
X015326Y012274D01*
X015153Y012106D02*
X014806Y012106D01*
X015066Y012106D02*
X015066Y011759D01*
X015153Y011759D02*
X015326Y011932D01*
X015153Y012106D01*
X015153Y011759D02*
X014806Y011759D01*
X014893Y011590D02*
X015066Y011590D01*
X015066Y011417D01*
X014893Y011590D02*
X014806Y011503D01*
X014806Y011330D01*
X014893Y011243D01*
X015240Y011243D01*
X015326Y011330D01*
X015326Y011503D01*
X015240Y011590D01*
X015240Y010559D02*
X015066Y010559D01*
X014979Y010472D01*
X014979Y010212D01*
X014806Y010212D02*
X015326Y010212D01*
X015326Y010472D01*
X015240Y010559D01*
X014979Y010385D02*
X014806Y010559D01*
X014893Y010043D02*
X015326Y010043D01*
X015326Y009696D02*
X014893Y009696D01*
X014806Y009783D01*
X014806Y009956D01*
X014893Y010043D01*
X014806Y009528D02*
X014806Y009181D01*
X015326Y009181D01*
X015326Y009528D01*
X015066Y009354D02*
X015066Y009181D01*
X015326Y009012D02*
X015326Y008665D01*
X015326Y008838D02*
X014806Y008838D01*
X014806Y008496D02*
X015153Y008496D01*
X015326Y008323D01*
X015153Y008149D01*
X014806Y008149D01*
X014806Y007981D02*
X014806Y007634D01*
X015326Y007634D01*
X015240Y007465D02*
X015326Y007378D01*
X015326Y007205D01*
X015240Y007118D01*
X014893Y007118D01*
X014806Y007205D01*
X014806Y007378D01*
X014893Y007465D01*
X015240Y007465D01*
X015240Y006949D02*
X015326Y006863D01*
X015326Y006689D01*
X015240Y006602D01*
X015153Y006602D01*
X015066Y006689D01*
X015066Y006863D01*
X014979Y006949D01*
X014893Y006949D01*
X014806Y006863D01*
X014806Y006689D01*
X014893Y006602D01*
X014806Y006432D02*
X014806Y006259D01*
X014806Y006345D02*
X015326Y006345D01*
X015326Y006259D02*
X015326Y006432D01*
X015066Y008149D02*
X015066Y008496D01*
X018641Y013909D02*
X018641Y014369D01*
X018871Y014139D01*
X018565Y014139D01*
X019025Y014139D02*
X019102Y014062D01*
X019332Y014062D01*
X019332Y013909D02*
X019332Y014369D01*
X019102Y014369D01*
X019025Y014292D01*
X019025Y014139D01*
X019178Y014062D02*
X019025Y013909D01*
X015434Y018054D02*
X015434Y018515D01*
X015204Y018515D01*
X015127Y018438D01*
X015127Y018285D01*
X015204Y018208D01*
X015434Y018208D01*
X015281Y018208D02*
X015127Y018054D01*
X014974Y018131D02*
X014897Y018054D01*
X014744Y018054D01*
X014667Y018131D01*
X014667Y018208D01*
X014744Y018285D01*
X014820Y018285D01*
X014744Y018285D02*
X014667Y018361D01*
X014667Y018438D01*
X014744Y018515D01*
X014897Y018515D01*
X014974Y018438D01*
X014051Y018279D02*
X013590Y018279D01*
X013590Y018432D02*
X013590Y018125D01*
X013667Y017972D02*
X013590Y017895D01*
X013590Y017741D01*
X013667Y017665D01*
X013974Y017665D01*
X014051Y017741D01*
X014051Y017895D01*
X013974Y017972D01*
X013897Y018125D02*
X014051Y018279D01*
X014853Y021098D02*
X014777Y021175D01*
X014777Y021251D01*
X014853Y021328D01*
X015084Y021328D01*
X015084Y021175D01*
X015007Y021098D01*
X014853Y021098D01*
X015084Y021328D02*
X014930Y021481D01*
X014777Y021558D01*
X015237Y021481D02*
X015237Y021328D01*
X015314Y021251D01*
X015544Y021251D01*
X015544Y021098D02*
X015544Y021558D01*
X015314Y021558D01*
X015237Y021481D01*
X015390Y021251D02*
X015237Y021098D01*
X018186Y025358D02*
X018186Y025434D01*
X017879Y025741D01*
X017879Y025818D01*
X018186Y025818D01*
X018340Y025741D02*
X018340Y025588D01*
X018417Y025511D01*
X018647Y025511D01*
X018647Y025358D02*
X018647Y025818D01*
X018417Y025818D01*
X018340Y025741D01*
X018493Y025511D02*
X018340Y025358D01*
X011696Y021768D02*
X011176Y021768D01*
X011696Y021421D01*
X011176Y021421D01*
X011176Y021252D02*
X011523Y021252D01*
X011696Y021079D01*
X011523Y020905D01*
X011176Y020905D01*
X011263Y020736D02*
X011176Y020650D01*
X011176Y020476D01*
X011263Y020389D01*
X011610Y020389D01*
X011696Y020476D01*
X011696Y020650D01*
X011610Y020736D01*
X011436Y020905D02*
X011436Y021252D01*
X011436Y019705D02*
X011349Y019618D01*
X011349Y019358D01*
X011176Y019358D02*
X011696Y019358D01*
X011696Y019618D01*
X011610Y019705D01*
X011436Y019705D01*
X011349Y019532D02*
X011176Y019705D01*
X011176Y019189D02*
X011176Y018843D01*
X011696Y018843D01*
X011696Y019189D01*
X011436Y019016D02*
X011436Y018843D01*
X011349Y018674D02*
X011176Y018500D01*
X011349Y018327D01*
X011696Y018327D01*
X011696Y018157D02*
X011696Y017983D01*
X011696Y018070D02*
X011176Y018070D01*
X011176Y017983D02*
X011176Y018157D01*
X011176Y017814D02*
X011176Y017467D01*
X011696Y017467D01*
X011696Y017814D01*
X011610Y017299D02*
X011696Y017212D01*
X011696Y017039D01*
X011610Y016952D01*
X011263Y016952D01*
X011176Y017039D01*
X011176Y017212D01*
X011263Y017299D01*
X011436Y017467D02*
X011436Y017641D01*
X011349Y016783D02*
X011263Y016783D01*
X011176Y016696D01*
X011176Y016523D01*
X011263Y016436D01*
X011176Y016268D02*
X011696Y016268D01*
X011610Y016436D02*
X011523Y016436D01*
X011436Y016523D01*
X011436Y016696D01*
X011349Y016783D01*
X011610Y016783D02*
X011696Y016696D01*
X011696Y016523D01*
X011610Y016436D01*
X011176Y016268D02*
X011696Y015921D01*
X011176Y015921D01*
X011176Y015752D02*
X011523Y015752D01*
X011696Y015578D01*
X011523Y015405D01*
X011176Y015405D01*
X011176Y015236D02*
X011349Y015063D01*
X011349Y015149D02*
X011349Y014889D01*
X011176Y014889D02*
X011696Y014889D01*
X011696Y015149D01*
X011610Y015236D01*
X011436Y015236D01*
X011349Y015149D01*
X011436Y015405D02*
X011436Y015752D01*
X011696Y014721D02*
X011696Y014374D01*
X011696Y014547D02*
X011176Y014547D01*
X009513Y016271D02*
X009513Y016731D01*
X009283Y016731D01*
X009206Y016655D01*
X009206Y016501D01*
X009283Y016424D01*
X009513Y016424D01*
X009359Y016424D02*
X009206Y016271D01*
X009053Y016271D02*
X008746Y016271D01*
X008899Y016271D02*
X008899Y016731D01*
X009053Y016578D01*
X011349Y018674D02*
X011696Y018674D01*
X008551Y020957D02*
X008551Y021187D01*
X008474Y021263D01*
X008321Y021263D01*
X008244Y021187D01*
X008244Y020957D01*
X008244Y021110D02*
X008090Y021263D01*
X008167Y021417D02*
X008090Y021494D01*
X008090Y021647D01*
X008167Y021724D01*
X008321Y021724D01*
X008397Y021647D01*
X008397Y021570D01*
X008321Y021417D01*
X008551Y021417D01*
X008551Y021724D01*
X008551Y020957D02*
X008090Y020957D01*
D12*
X006803Y026889D02*
X006803Y005889D01*
X016803Y005889D01*
X016803Y026889D01*
X006803Y026889D01*
X008898Y019753D02*
X008898Y017823D01*
X010438Y017823D01*
X010438Y019753D01*
X008898Y019753D01*
X009045Y018038D02*
X009047Y018058D01*
X009053Y018076D01*
X009062Y018094D01*
X009074Y018109D01*
X009089Y018121D01*
X009107Y018130D01*
X009125Y018136D01*
X009145Y018138D01*
X009165Y018136D01*
X009183Y018130D01*
X009201Y018121D01*
X009216Y018109D01*
X009228Y018094D01*
X009237Y018076D01*
X009243Y018058D01*
X009245Y018038D01*
X009243Y018018D01*
X009237Y018000D01*
X009228Y017982D01*
X009216Y017967D01*
X009201Y017955D01*
X009183Y017946D01*
X009165Y017940D01*
X009145Y017938D01*
X009125Y017940D01*
X009107Y017946D01*
X009089Y017955D01*
X009074Y017967D01*
X009062Y017982D01*
X009053Y018000D01*
X009047Y018018D01*
X009045Y018038D01*
D13*
X012413Y014583D02*
X012726Y014270D01*
X012726Y014426D02*
X012413Y014426D01*
X012413Y014270D02*
X012726Y014583D01*
X012569Y014583D02*
X012569Y014270D01*
D14*
X011950Y014371D02*
X011950Y014618D01*
X011950Y014495D02*
X011209Y014495D01*
X011209Y014618D02*
X011209Y014371D01*
X011332Y014115D02*
X011209Y013991D01*
X011209Y013745D01*
X011332Y013621D01*
X011332Y013360D02*
X011209Y013236D01*
X011209Y012990D01*
X011332Y012866D01*
X011826Y012866D01*
X011950Y012990D01*
X011950Y013236D01*
X011826Y013360D01*
X011332Y013360D01*
X011703Y013621D02*
X011579Y013745D01*
X011579Y013991D01*
X011456Y014115D01*
X011332Y014115D01*
X011826Y014115D02*
X011950Y013991D01*
X011950Y013745D01*
X011826Y013621D01*
X011703Y013621D01*
X011950Y012605D02*
X011209Y012605D01*
X011456Y011850D02*
X011209Y011603D01*
X011456Y011356D01*
X011950Y011356D01*
X011950Y011850D02*
X011456Y011850D01*
X011579Y011850D02*
X011579Y011356D01*
X011209Y011095D02*
X011209Y010601D01*
X011209Y010848D02*
X011950Y010848D01*
X011950Y010340D02*
X011950Y009846D01*
X011826Y009585D02*
X011950Y009461D01*
X011950Y009214D01*
X011826Y009091D01*
X011209Y009091D01*
X011209Y008830D02*
X011209Y008459D01*
X011332Y008336D01*
X011579Y008336D01*
X011703Y008459D01*
X011703Y008830D01*
X011950Y008830D02*
X011209Y008830D01*
X011209Y009585D02*
X011826Y009585D01*
X011518Y009730D02*
X011448Y009660D01*
X011308Y009660D01*
X011238Y009730D01*
X011209Y009846D02*
X011209Y010340D01*
X011950Y010340D01*
X011579Y010340D02*
X011579Y010093D01*
X011518Y010010D02*
X011518Y009730D01*
X011518Y010010D02*
X011448Y010080D01*
X011308Y010080D01*
X011238Y010010D01*
X011058Y010010D02*
X010988Y010080D01*
X010848Y010080D01*
X010778Y010010D01*
X010778Y009940D01*
X011058Y009660D01*
X010778Y009660D01*
X011703Y008583D02*
X011950Y008336D01*
X011826Y008075D02*
X011950Y007951D01*
X011950Y007704D01*
X011826Y007581D01*
X011579Y007581D01*
X011579Y007828D01*
X011332Y008075D02*
X011826Y008075D01*
X011332Y008075D02*
X011209Y007951D01*
X011209Y007704D01*
X011332Y007581D01*
X011456Y007319D02*
X011209Y007073D01*
X011456Y006826D01*
X011950Y006826D01*
X011950Y006564D02*
X011950Y006071D01*
X011703Y005809D02*
X011950Y005563D01*
X011703Y005316D01*
X011209Y005316D01*
X011456Y005054D02*
X011209Y004807D01*
X011456Y004561D01*
X011950Y004561D01*
X011950Y004299D02*
X011209Y004299D01*
X011950Y003806D01*
X011209Y003806D01*
X011209Y003544D02*
X011209Y003297D01*
X011209Y003421D02*
X011950Y003421D01*
X011950Y003544D02*
X011950Y003297D01*
X011826Y003041D02*
X011950Y002917D01*
X011950Y002671D01*
X011826Y002547D01*
X011332Y002547D01*
X011209Y002671D01*
X011209Y002917D01*
X011332Y003041D01*
X011826Y003041D01*
X011703Y002794D02*
X011950Y002547D01*
X011826Y002286D02*
X011950Y002162D01*
X011950Y001916D01*
X011826Y001792D01*
X011209Y001792D01*
X011209Y001531D02*
X011950Y001531D01*
X011950Y001037D01*
X011579Y001284D02*
X011579Y001531D01*
X011209Y001531D02*
X011209Y001037D01*
X011209Y002286D02*
X011826Y002286D01*
X011579Y004561D02*
X011579Y005054D01*
X011456Y005054D02*
X011950Y005054D01*
X011703Y005809D02*
X011209Y005809D01*
X011209Y006564D02*
X011950Y006564D01*
X011579Y006826D02*
X011579Y007319D01*
X011456Y007319D02*
X011950Y007319D01*
X011950Y012111D02*
X011950Y012605D01*
M02*
