G75*
%MOIN*%
%OFA0B0*%
%FSLAX24Y24*%
%IPPOS*%
%LPD*%
%AMOC8*
5,1,8,0,0,1.08239X$1,22.5*
%
%ADD10C,0.0595*%
%ADD11C,0.0600*%
%ADD12C,0.0674*%
%ADD13C,0.0680*%
%ADD14C,0.0920*%
%ADD15R,0.0710X0.0592*%
%ADD16C,0.0640*%
%ADD17C,0.0671*%
%ADD18C,0.0397*%
%ADD19C,0.1261*%
D10*
X007303Y006889D03*
X007303Y007889D03*
X007303Y008889D03*
X007303Y009889D03*
X007303Y010889D03*
X007303Y011889D03*
X007303Y012889D03*
X007303Y013889D03*
X007303Y014889D03*
X007303Y015889D03*
X007303Y016889D03*
X007303Y017889D03*
X007303Y018889D03*
X007303Y019889D03*
X007303Y020889D03*
X007303Y021889D03*
X007303Y022889D03*
X007303Y023889D03*
X007303Y024889D03*
X007303Y025889D03*
X016303Y025889D03*
X016303Y024889D03*
X016303Y023889D03*
X016303Y022889D03*
X016303Y021889D03*
X016303Y020889D03*
X016303Y019889D03*
X016303Y018889D03*
X016303Y017889D03*
X016303Y016889D03*
X016303Y015889D03*
X016303Y014889D03*
X016303Y013889D03*
X016303Y012889D03*
X016303Y011889D03*
X016303Y010889D03*
X016303Y009889D03*
X016303Y008889D03*
X016303Y007889D03*
X016303Y006889D03*
D11*
X002633Y011458D03*
X002633Y012458D03*
X002633Y013458D03*
X002633Y014458D03*
X001633Y014958D03*
X001633Y013958D03*
X001633Y012958D03*
X001633Y011958D03*
D12*
X004271Y003760D02*
X004271Y003167D01*
X005271Y003167D02*
X005271Y003760D01*
X006271Y003760D02*
X006271Y003167D01*
X008559Y003167D02*
X008559Y003760D01*
X009559Y003760D02*
X009559Y003167D01*
X010559Y003167D02*
X010559Y003760D01*
X002430Y022920D02*
X001836Y022920D01*
X001836Y023920D02*
X002430Y023920D01*
X003952Y028911D02*
X003952Y029505D01*
X004952Y029505D02*
X004952Y028911D01*
X005952Y028911D02*
X005952Y029505D01*
X007559Y029505D02*
X007559Y028911D01*
X008559Y028911D02*
X008559Y029505D01*
X009559Y029505D02*
X009559Y028911D01*
X011165Y028911D02*
X011165Y029505D01*
X012165Y029505D02*
X012165Y028911D01*
X013165Y028911D02*
X013165Y029505D01*
X014771Y029505D02*
X014771Y028911D01*
X015771Y028911D02*
X015771Y029505D01*
X016771Y029505D02*
X016771Y028911D01*
D13*
X018609Y023645D02*
X019209Y023645D01*
X019209Y022645D02*
X018609Y022645D01*
X018609Y021645D02*
X019209Y021645D01*
X019209Y020645D02*
X018609Y020645D01*
X018609Y017857D02*
X019209Y017857D01*
X019209Y016857D02*
X018609Y016857D01*
X018609Y015857D02*
X019209Y015857D01*
X019209Y014857D02*
X018609Y014857D01*
X002366Y017747D02*
X001766Y017747D01*
X001766Y018747D02*
X002366Y018747D01*
X002366Y019747D02*
X001766Y019747D01*
D14*
X004280Y008290D02*
X005120Y008290D01*
X005120Y006912D02*
X004280Y006912D01*
D15*
X003059Y005082D03*
X003059Y004334D03*
D16*
X014129Y003184D03*
X014629Y004184D03*
X015129Y003184D03*
X015629Y004184D03*
X016129Y003184D03*
X016629Y004184D03*
D17*
X013492Y004040D03*
D18*
X010476Y005507D03*
X009618Y007129D03*
X007484Y004405D03*
X007161Y005113D03*
X005862Y006046D03*
X005791Y014011D03*
X006224Y015034D03*
X006224Y017082D03*
X004531Y018775D03*
X005751Y022042D03*
X008232Y019247D03*
X008625Y020231D03*
X009925Y019050D03*
X010161Y018538D03*
X010007Y017381D03*
X009177Y018027D03*
X008783Y014956D03*
X012011Y009995D03*
X012429Y011141D03*
X013814Y011007D03*
X013744Y014956D03*
X013606Y016672D03*
X014216Y018290D03*
X015200Y018499D03*
X016657Y020389D03*
X017129Y020231D03*
X017090Y021412D03*
X017377Y017235D03*
X015555Y014956D03*
X012366Y015901D03*
X012444Y018617D03*
X008625Y023027D03*
X010476Y025979D03*
X010358Y027948D03*
X007996Y026176D03*
X007877Y026924D03*
X013744Y028145D03*
X001972Y017082D03*
D19*
X001814Y003145D03*
X001814Y029523D03*
X019098Y029523D03*
X019098Y003145D03*
M02*
