G75*
%MOIN*%
%OFA0B0*%
%FSLAX24Y24*%
%IPPOS*%
%LPD*%
%AMOC8*
5,1,8,0,0,1.08239X$1,22.5*
%
%ADD10R,0.0591X0.0591*%
%ADD11C,0.0591*%
%ADD12R,0.0585X0.0585*%
%ADD13C,0.0585*%
%ADD14OC8,0.0660*%
%ADD15R,0.0390X0.0120*%
%ADD16R,0.0472X0.0217*%
%ADD17C,0.0750*%
%ADD18OC8,0.0750*%
%ADD19OC8,0.0480*%
%ADD20C,0.1185*%
%ADD21C,0.0560*%
%ADD22C,0.0600*%
%ADD23C,0.0840*%
%ADD24R,0.0512X0.0591*%
%ADD25C,0.0079*%
%ADD26C,0.0160*%
%ADD27C,0.0236*%
D10*
X010003Y003607D03*
X010003Y022607D03*
D11*
X011003Y022607D03*
X012003Y022607D03*
X013003Y022607D03*
X014003Y022607D03*
X015003Y022607D03*
X016003Y022607D03*
X017003Y022607D03*
X018003Y022607D03*
X019003Y022607D03*
X020003Y022607D03*
X021003Y022607D03*
X022003Y022607D03*
X023003Y022607D03*
X024003Y022607D03*
X025003Y022607D03*
X026003Y022607D03*
X027003Y022607D03*
X028003Y022607D03*
X029003Y022607D03*
X030003Y022607D03*
X031003Y022607D03*
X032003Y022607D03*
X032003Y023607D03*
X031003Y023607D03*
X030003Y023607D03*
X029003Y023607D03*
X028003Y023607D03*
X027003Y023607D03*
X026003Y023607D03*
X025003Y023607D03*
X024003Y023607D03*
X023003Y023607D03*
X022003Y023607D03*
X021003Y023607D03*
X020003Y023607D03*
X019003Y023607D03*
X018003Y023607D03*
X017003Y023607D03*
X016003Y023607D03*
X015003Y023607D03*
X014003Y023607D03*
X013003Y023607D03*
X012003Y023607D03*
X011003Y023607D03*
X010003Y023607D03*
X010003Y004607D03*
X011003Y004607D03*
X012003Y004607D03*
X013003Y004607D03*
X014003Y004607D03*
X015003Y004607D03*
X016003Y004607D03*
X017003Y004607D03*
X018003Y004607D03*
X019003Y004607D03*
X020003Y004607D03*
X021003Y004607D03*
X022003Y004607D03*
X023003Y004607D03*
X024003Y004607D03*
X025003Y004607D03*
X026003Y004607D03*
X027003Y004607D03*
X028003Y004607D03*
X029003Y004607D03*
X030003Y004607D03*
X031003Y004607D03*
X032003Y004607D03*
X032003Y003607D03*
X031003Y003607D03*
X030003Y003607D03*
X029003Y003607D03*
X028003Y003607D03*
X027003Y003607D03*
X026003Y003607D03*
X025003Y003607D03*
X024003Y003607D03*
X023003Y003607D03*
X022003Y003607D03*
X021003Y003607D03*
X020003Y003607D03*
X019003Y003607D03*
X018003Y003607D03*
X017003Y003607D03*
X016003Y003607D03*
X015003Y003607D03*
X014003Y003607D03*
X013003Y003607D03*
X012003Y003607D03*
X011003Y003607D03*
D12*
X029003Y005857D03*
D13*
X029003Y006857D03*
X029003Y007857D03*
X029003Y008857D03*
X026003Y008857D03*
X026003Y007857D03*
X026003Y006857D03*
X026003Y005857D03*
D14*
X024003Y006357D03*
X023003Y006357D03*
X023003Y007357D03*
X024003Y007357D03*
X022003Y007357D03*
X021003Y007357D03*
X021003Y006357D03*
X022003Y006357D03*
X024003Y009557D03*
X025503Y011557D03*
X024003Y013157D03*
X022503Y011557D03*
X020503Y012357D03*
X019503Y012357D03*
X018003Y012057D03*
X016003Y012357D03*
X015003Y012357D03*
X013444Y012671D03*
X013503Y011657D03*
X015003Y009357D03*
X016003Y009357D03*
X013503Y008057D03*
X011703Y006857D03*
X015303Y006857D03*
X015003Y015357D03*
X016003Y015357D03*
X018003Y015657D03*
X019503Y015357D03*
X020503Y015357D03*
X022503Y015157D03*
X021803Y017357D03*
X018203Y017357D03*
X013444Y016271D03*
X018388Y021011D03*
X021988Y021011D03*
X025503Y015157D03*
D15*
X029645Y015213D03*
X029645Y014958D03*
X029645Y014702D03*
X029645Y014446D03*
X029645Y014190D03*
X029645Y013934D03*
X029645Y013678D03*
X031943Y013678D03*
X031943Y013934D03*
X031943Y014190D03*
X031943Y014446D03*
X031943Y014702D03*
X031943Y014958D03*
X031943Y015213D03*
X031943Y015469D03*
X031943Y015725D03*
X031943Y015981D03*
X029645Y015981D03*
X029645Y015725D03*
X029645Y015469D03*
D16*
X022015Y010231D03*
X022015Y009857D03*
X022015Y009483D03*
X020991Y009483D03*
X020991Y010231D03*
D17*
X019503Y009357D03*
D18*
X017503Y009357D03*
D19*
X019003Y007357D03*
X019003Y006357D03*
D20*
X016595Y017777D02*
X015410Y017777D01*
X015410Y019357D02*
X016595Y019357D01*
X016595Y020937D02*
X015410Y020937D01*
X012595Y020937D02*
X011410Y020937D01*
X011410Y019357D02*
X012595Y019357D01*
X012595Y017777D02*
X011410Y017777D01*
D21*
X011086Y015168D03*
X012086Y014668D03*
X011086Y014168D03*
X012086Y013668D03*
X034294Y014692D03*
X035294Y015192D03*
X035294Y016192D03*
X034294Y016692D03*
X034294Y015692D03*
X035294Y017192D03*
X034294Y017692D03*
X035294Y014192D03*
D22*
X025908Y021015D03*
X024908Y021015D03*
X023908Y021015D03*
D23*
X034449Y020956D02*
X035289Y020956D01*
X035289Y019578D02*
X034449Y019578D01*
D24*
X011912Y011904D03*
X011164Y011904D03*
X011097Y010255D03*
X011845Y010255D03*
D25*
X011873Y010259D01*
X011873Y011164D01*
X012503Y011794D01*
X012503Y014274D01*
X012109Y014668D01*
X012086Y014668D01*
X011479Y014747D02*
X011479Y013999D01*
X011164Y013684D01*
X011164Y011904D01*
X011164Y011873D01*
X011125Y011834D01*
X011125Y010259D01*
X011097Y010255D01*
X011086Y010219D01*
X011086Y009668D01*
X010023Y008605D01*
X010023Y004629D01*
X010003Y004607D01*
X010023Y004589D01*
X010023Y003645D01*
X010003Y003607D01*
X011003Y003607D02*
X011007Y003645D01*
X011007Y004589D01*
X011003Y004607D01*
X011991Y004589D02*
X012003Y004607D01*
X011991Y004589D02*
X011991Y003645D01*
X012003Y003607D01*
X012030Y003645D01*
X012975Y003645D01*
X013003Y003607D01*
X013054Y003645D01*
X013408Y003645D01*
X013841Y003211D01*
X025180Y003211D01*
X025416Y003448D01*
X025416Y008448D01*
X025967Y008448D01*
X026558Y007857D01*
X029003Y007857D01*
X029038Y008251D02*
X029196Y008251D01*
X029432Y008015D01*
X029432Y007700D01*
X028999Y007267D01*
X028841Y007267D01*
X028605Y007030D01*
X028605Y006282D01*
X028999Y005889D01*
X029003Y005857D01*
X029038Y006558D02*
X030967Y004629D01*
X031003Y004607D01*
X031007Y004589D01*
X031007Y003645D01*
X031003Y003607D01*
X031046Y003645D01*
X031991Y003645D01*
X032003Y003607D01*
X031991Y003684D01*
X031991Y004589D01*
X032003Y004607D01*
X029038Y006558D02*
X029038Y006834D01*
X029003Y006857D01*
X029038Y006873D01*
X029038Y007109D01*
X031912Y009983D01*
X031912Y013645D01*
X031943Y013678D01*
X031952Y013684D01*
X034078Y013684D01*
X034550Y014156D01*
X035259Y014156D01*
X035294Y014192D01*
X034294Y014692D02*
X034274Y014708D01*
X033507Y015475D01*
X034117Y016086D01*
X034235Y016086D01*
X035259Y017109D01*
X035259Y017188D01*
X035294Y017192D01*
X035810Y016715D02*
X035298Y016204D01*
X035294Y016192D01*
X035259Y016164D01*
X034786Y015692D01*
X034294Y015692D01*
X033507Y015475D02*
X033290Y015692D01*
X032267Y015692D01*
X032267Y016086D01*
X032188Y016164D01*
X026519Y016164D01*
X025534Y015180D01*
X025503Y015157D01*
X025495Y015141D01*
X025377Y015141D01*
X022030Y011794D01*
X022030Y010259D01*
X022015Y010231D01*
X022030Y010219D01*
X022149Y010219D01*
X022385Y009983D01*
X022385Y009708D01*
X022365Y009688D01*
X023605Y008448D01*
X025416Y008448D01*
X025967Y008881D02*
X026003Y008857D01*
X025967Y008881D02*
X025967Y011086D01*
X025534Y011519D01*
X025503Y011557D01*
X025495Y011558D01*
X022503Y011558D01*
X022503Y011557D01*
X021873Y009865D02*
X020554Y011184D01*
X020534Y011164D01*
X019274Y011164D01*
X017503Y009393D01*
X017503Y009357D01*
X017503Y009353D01*
X016086Y009353D01*
X016003Y009357D01*
X016007Y009393D01*
X016007Y012345D01*
X016003Y012357D01*
X016007Y012385D01*
X016007Y015337D01*
X016003Y015357D01*
X016007Y015377D01*
X016007Y017739D01*
X016003Y017777D01*
X015967Y017778D01*
X012030Y017778D01*
X012003Y017777D01*
X011991Y017778D01*
X010023Y019747D01*
X010023Y022582D01*
X010003Y022607D01*
X010023Y022621D01*
X010023Y023605D01*
X010003Y023607D01*
X011007Y022621D02*
X011003Y022607D01*
X011007Y022621D02*
X011440Y022621D01*
X012030Y023211D01*
X024314Y023211D01*
X024353Y023251D01*
X023003Y022607D02*
X022975Y022582D01*
X022818Y022582D01*
X016873Y016637D01*
X016873Y009589D01*
X016086Y009353D02*
X019038Y006400D01*
X019003Y006357D01*
X019038Y006361D01*
X020967Y006361D01*
X021003Y006357D01*
X021597Y005928D02*
X021991Y006322D01*
X022003Y006357D01*
X022463Y006282D02*
X022463Y006912D01*
X022030Y007345D01*
X022003Y007357D01*
X021003Y007357D02*
X020967Y007385D01*
X020967Y009432D01*
X020991Y009483D01*
X020967Y009471D01*
X019589Y009471D01*
X019511Y009393D01*
X019503Y009357D01*
X018999Y009550D02*
X018999Y007385D01*
X019003Y007357D01*
X018802Y005928D02*
X021597Y005928D01*
X022463Y006282D02*
X022975Y005771D01*
X022975Y004629D01*
X023003Y004607D01*
X024432Y004589D02*
X024432Y004904D01*
X023015Y006322D01*
X023003Y006357D01*
X024432Y004589D02*
X024983Y004038D01*
X024983Y003645D01*
X025003Y003607D01*
X029038Y008251D02*
X028605Y008684D01*
X028605Y009038D01*
X030101Y010534D01*
X030101Y014314D01*
X031755Y015967D01*
X031912Y015967D01*
X031943Y015981D01*
X031943Y015725D02*
X031952Y015692D01*
X032267Y015692D01*
X031943Y015469D02*
X031912Y015456D01*
X031755Y015456D01*
X030337Y014038D01*
X030337Y010180D01*
X029038Y008881D01*
X029003Y008857D01*
X029629Y013645D02*
X025219Y013645D01*
X022503Y015157D02*
X022503Y015219D01*
X024944Y017660D01*
X034274Y017660D01*
X034294Y017692D01*
X034314Y017700D01*
X034314Y018999D01*
X034865Y019550D01*
X034869Y019578D01*
X035810Y021204D02*
X035810Y016715D01*
X029944Y015574D02*
X029944Y013802D01*
X029826Y013684D01*
X029668Y013684D01*
X029645Y013678D01*
X029629Y013645D01*
X029629Y015456D02*
X028448Y015456D01*
X028999Y015692D02*
X029274Y015967D01*
X029629Y015967D01*
X029645Y015981D01*
X029645Y015725D02*
X029668Y015692D01*
X029826Y015692D01*
X029944Y015574D01*
X029645Y015469D02*
X029629Y015456D01*
X022503Y015180D02*
X022503Y015157D01*
X022503Y015180D02*
X022345Y015337D01*
X020534Y015337D01*
X020503Y015357D01*
X020534Y015298D01*
X020534Y012385D01*
X020503Y012357D01*
X020534Y012345D01*
X020534Y011204D01*
X020554Y011184D01*
X020991Y010231D02*
X020967Y010219D01*
X019668Y010219D01*
X018999Y009550D01*
X021873Y009865D02*
X021991Y009865D01*
X022015Y009857D01*
X022030Y009511D02*
X022015Y009483D01*
X022030Y009511D02*
X022188Y009511D01*
X022365Y009688D01*
X019471Y012345D02*
X019196Y012070D01*
X018015Y012070D01*
X018003Y012057D01*
X019471Y012345D02*
X019503Y012357D01*
X019503Y015357D02*
X019471Y015377D01*
X019471Y016086D01*
X018211Y017345D01*
X018203Y017357D01*
X015574Y015416D02*
X015574Y009156D01*
X018802Y005928D01*
X015303Y006857D02*
X015298Y006873D01*
X015298Y009078D01*
X015023Y009353D01*
X015003Y009357D01*
X016003Y009357D02*
X016007Y009353D01*
X016086Y009353D01*
X013487Y008093D02*
X013503Y008057D01*
X013487Y008093D02*
X013015Y008566D01*
X013015Y012857D01*
X013369Y013211D01*
X013487Y013211D01*
X012086Y013668D02*
X012070Y013645D01*
X011912Y013487D01*
X011912Y011904D01*
X013503Y011657D02*
X013526Y011676D01*
X014314Y011676D01*
X014983Y012345D01*
X015003Y012357D01*
X011479Y014747D02*
X011086Y015141D01*
X011086Y015168D01*
X011086Y016834D01*
X011991Y017739D01*
X012003Y017777D01*
X013605Y017385D02*
X015574Y015416D01*
X015003Y015357D02*
X014117Y016243D01*
X013448Y016243D01*
X013444Y016271D01*
X012003Y019357D02*
X012030Y019393D01*
X012700Y020062D01*
X018211Y020062D01*
X020731Y022582D01*
X020967Y022582D01*
X021003Y022607D01*
X020574Y022621D02*
X020574Y022739D01*
X020849Y023015D01*
X033999Y023015D01*
X035810Y021204D01*
X023908Y021015D02*
X023881Y021046D01*
X021991Y021046D01*
X021988Y021011D01*
X020574Y022621D02*
X018999Y021046D01*
X018408Y021046D01*
X018388Y021011D01*
X016003Y020937D02*
X015967Y020928D01*
X012030Y020928D01*
X012003Y020937D01*
X013003Y004607D02*
X013015Y004589D01*
X013015Y003645D01*
X013003Y003607D01*
D26*
X008362Y002980D02*
X008362Y007748D01*
X008519Y007748D01*
X009037Y007867D01*
X009516Y008097D01*
X009931Y008429D01*
X010263Y008844D01*
X010493Y009323D01*
X010612Y009841D01*
X010612Y010062D01*
X010612Y017373D01*
X010493Y017891D01*
X010263Y018370D01*
X009931Y018786D01*
X009516Y019117D01*
X009516Y019117D01*
X009037Y019348D01*
X009037Y019348D01*
X008519Y019466D01*
X008362Y019466D01*
X008362Y024248D01*
X031503Y024248D01*
X031887Y024233D01*
X032645Y024113D01*
X033375Y023876D01*
X034058Y023527D01*
X034679Y023076D01*
X035222Y022534D01*
X035673Y021913D01*
X036022Y021229D01*
X036259Y020499D01*
X036379Y019741D01*
X036394Y019357D01*
X036394Y007857D01*
X036379Y007473D01*
X036259Y006715D01*
X036022Y005985D01*
X035673Y005302D01*
X035222Y004681D01*
X034679Y004138D01*
X034058Y003687D01*
X033375Y003338D01*
X032645Y003101D01*
X031887Y002981D01*
X031869Y002980D01*
X008362Y002980D01*
X008362Y003001D02*
X032013Y003001D01*
X032021Y003132D02*
X032040Y003132D01*
X032114Y003144D01*
X032185Y003167D01*
X032252Y003201D01*
X032312Y003245D01*
X032365Y003298D01*
X032409Y003358D01*
X032443Y003425D01*
X032466Y003496D01*
X032478Y003570D01*
X032478Y003589D01*
X032021Y003589D01*
X032021Y003132D01*
X032021Y003160D02*
X031984Y003160D01*
X031984Y003132D02*
X031984Y003589D01*
X031528Y003589D01*
X031528Y003570D01*
X031539Y003496D01*
X031562Y003425D01*
X031596Y003358D01*
X031640Y003298D01*
X031693Y003245D01*
X031754Y003201D01*
X031820Y003167D01*
X031892Y003144D01*
X031965Y003132D01*
X031984Y003132D01*
X031842Y003160D02*
X031164Y003160D01*
X031185Y003167D02*
X031252Y003201D01*
X031312Y003245D01*
X031365Y003298D01*
X031409Y003358D01*
X031443Y003425D01*
X031466Y003496D01*
X031478Y003570D01*
X031478Y003589D01*
X031021Y003589D01*
X031021Y003132D01*
X031040Y003132D01*
X031114Y003144D01*
X031185Y003167D01*
X031021Y003160D02*
X030984Y003160D01*
X030984Y003132D02*
X030984Y003589D01*
X030528Y003589D01*
X030528Y003570D01*
X030539Y003496D01*
X030562Y003425D01*
X030596Y003358D01*
X030640Y003298D01*
X030693Y003245D01*
X030754Y003201D01*
X030820Y003167D01*
X030892Y003144D01*
X030965Y003132D01*
X030984Y003132D01*
X030842Y003160D02*
X025381Y003160D01*
X025490Y003269D02*
X025595Y003374D01*
X025595Y003458D01*
X025635Y003361D01*
X025757Y003239D01*
X025916Y003173D01*
X026089Y003173D01*
X026249Y003239D01*
X026371Y003361D01*
X026437Y003521D01*
X026437Y003694D01*
X026371Y003853D01*
X026249Y003975D01*
X026089Y004041D01*
X025916Y004041D01*
X025757Y003975D01*
X025635Y003853D01*
X025595Y003757D01*
X025595Y004458D01*
X025635Y004361D01*
X025757Y004239D01*
X025916Y004173D01*
X026089Y004173D01*
X026249Y004239D01*
X026371Y004361D01*
X026437Y004521D01*
X026437Y004694D01*
X026371Y004853D01*
X026249Y004975D01*
X026089Y005041D01*
X025916Y005041D01*
X025757Y004975D01*
X025635Y004853D01*
X025595Y004757D01*
X025595Y005715D01*
X025637Y005613D01*
X025758Y005491D01*
X025917Y005426D01*
X026089Y005426D01*
X026247Y005491D01*
X026369Y005613D01*
X026434Y005771D01*
X026434Y005943D01*
X026369Y006102D01*
X026247Y006223D01*
X026089Y006289D01*
X025917Y006289D01*
X025758Y006223D01*
X025637Y006102D01*
X025595Y005999D01*
X025595Y006715D01*
X025637Y006613D01*
X025758Y006491D01*
X025917Y006426D01*
X026089Y006426D01*
X026247Y006491D01*
X026369Y006613D01*
X026434Y006771D01*
X026434Y006943D01*
X026369Y007102D01*
X026247Y007223D01*
X026089Y007289D01*
X025917Y007289D01*
X025758Y007223D01*
X025637Y007102D01*
X025595Y006999D01*
X025595Y007715D01*
X025637Y007613D01*
X025758Y007491D01*
X025917Y007426D01*
X026089Y007426D01*
X026247Y007491D01*
X026369Y007613D01*
X026422Y007741D01*
X026484Y007679D01*
X028610Y007679D01*
X028637Y007613D01*
X028758Y007491D01*
X028870Y007445D01*
X028768Y007445D01*
X028531Y007209D01*
X028427Y007104D01*
X028427Y006208D01*
X028571Y006064D01*
X028571Y005507D01*
X028653Y005426D01*
X029353Y005426D01*
X029434Y005507D01*
X029434Y006207D01*
X029353Y006289D01*
X028851Y006289D01*
X028784Y006356D01*
X028784Y006439D01*
X028821Y006419D01*
X028892Y006396D01*
X028966Y006385D01*
X028985Y006385D01*
X028985Y006840D01*
X029020Y006840D01*
X029020Y006385D01*
X029040Y006385D01*
X029113Y006396D01*
X029184Y006419D01*
X029250Y006453D01*
X029311Y006497D01*
X029363Y006549D01*
X029407Y006610D01*
X029441Y006676D01*
X029464Y006747D01*
X029475Y006820D01*
X029475Y006840D01*
X029020Y006840D01*
X029020Y006875D01*
X029475Y006875D01*
X029475Y006894D01*
X029464Y006968D01*
X029441Y007039D01*
X029407Y007105D01*
X029363Y007165D01*
X029311Y007218D01*
X029250Y007261D01*
X029247Y007263D01*
X029610Y007626D01*
X029610Y008089D01*
X029506Y008193D01*
X029270Y008429D01*
X029112Y008429D01*
X029108Y008434D01*
X029247Y008491D01*
X029369Y008613D01*
X029434Y008771D01*
X029434Y008943D01*
X029410Y009001D01*
X030516Y010106D01*
X030516Y013964D01*
X031609Y015057D01*
X031609Y014840D01*
X031619Y014830D01*
X031609Y014819D01*
X031609Y014584D01*
X031619Y014574D01*
X031609Y014563D01*
X031609Y014328D01*
X031619Y014318D01*
X031609Y014307D01*
X031609Y014072D01*
X031619Y014062D01*
X031609Y014052D01*
X031609Y013854D01*
X031604Y013849D01*
X031580Y013808D01*
X031568Y013762D01*
X031568Y013678D01*
X031568Y013594D01*
X031580Y013549D01*
X031604Y013508D01*
X031637Y013474D01*
X031678Y013450D01*
X031724Y013438D01*
X031943Y013438D01*
X032162Y013438D01*
X032207Y013450D01*
X032248Y013474D01*
X032282Y013508D01*
X032306Y013549D01*
X032318Y013594D01*
X032318Y013678D01*
X031943Y013678D01*
X031943Y013678D01*
X032318Y013678D01*
X032318Y013762D01*
X032306Y013808D01*
X032282Y013849D01*
X032277Y013854D01*
X032277Y014052D01*
X032267Y014062D01*
X032277Y014072D01*
X032277Y014307D01*
X032267Y014318D01*
X032277Y014328D01*
X032277Y014563D01*
X032267Y014574D01*
X032277Y014584D01*
X032277Y014819D01*
X032267Y014830D01*
X032277Y014840D01*
X032277Y015075D01*
X032267Y015086D01*
X032277Y015096D01*
X032277Y015331D01*
X032267Y015341D01*
X032277Y015352D01*
X032277Y015513D01*
X033216Y015513D01*
X033328Y015401D01*
X033433Y015297D01*
X033898Y014831D01*
X033875Y014775D01*
X033875Y014608D01*
X033939Y014454D01*
X034057Y014337D01*
X034211Y014273D01*
X034378Y014273D01*
X034532Y014337D01*
X034649Y014454D01*
X034713Y014608D01*
X034713Y014775D01*
X034649Y014929D01*
X034532Y015047D01*
X034378Y015111D01*
X034211Y015111D01*
X034149Y015085D01*
X033759Y015475D01*
X033880Y015596D01*
X033939Y015454D01*
X034057Y015337D01*
X034211Y015273D01*
X034378Y015273D01*
X034532Y015337D01*
X034649Y015454D01*
X034674Y015513D01*
X034860Y015513D01*
X035146Y015799D01*
X035211Y015773D01*
X035378Y015773D01*
X035532Y015837D01*
X035649Y015954D01*
X035713Y016108D01*
X035713Y016275D01*
X035687Y016340D01*
X035988Y016642D01*
X035988Y021278D01*
X035884Y021382D01*
X034073Y023193D01*
X032138Y023193D01*
X032249Y023239D01*
X032371Y023361D01*
X032437Y023521D01*
X032437Y023694D01*
X032371Y023853D01*
X032249Y023975D01*
X032089Y024041D01*
X031916Y024041D01*
X031757Y023975D01*
X031635Y023853D01*
X031569Y023694D01*
X031569Y023521D01*
X031635Y023361D01*
X031757Y023239D01*
X031868Y023193D01*
X031138Y023193D01*
X031249Y023239D01*
X031371Y023361D01*
X031437Y023521D01*
X031437Y023694D01*
X031371Y023853D01*
X031249Y023975D01*
X031089Y024041D01*
X030916Y024041D01*
X030757Y023975D01*
X030635Y023853D01*
X030569Y023694D01*
X030569Y023521D01*
X030635Y023361D01*
X030757Y023239D01*
X030868Y023193D01*
X030138Y023193D01*
X030249Y023239D01*
X030371Y023361D01*
X030437Y023521D01*
X030437Y023694D01*
X030371Y023853D01*
X030249Y023975D01*
X030089Y024041D01*
X029916Y024041D01*
X029757Y023975D01*
X029635Y023853D01*
X029569Y023694D01*
X029569Y023521D01*
X029635Y023361D01*
X029757Y023239D01*
X029868Y023193D01*
X029138Y023193D01*
X029249Y023239D01*
X029371Y023361D01*
X029437Y023521D01*
X029437Y023694D01*
X029371Y023853D01*
X029249Y023975D01*
X029089Y024041D01*
X028916Y024041D01*
X028757Y023975D01*
X028635Y023853D01*
X028569Y023694D01*
X028569Y023521D01*
X028635Y023361D01*
X028757Y023239D01*
X028868Y023193D01*
X028138Y023193D01*
X028249Y023239D01*
X028371Y023361D01*
X028437Y023521D01*
X028437Y023694D01*
X028371Y023853D01*
X028249Y023975D01*
X028089Y024041D01*
X027916Y024041D01*
X027757Y023975D01*
X027635Y023853D01*
X027569Y023694D01*
X027569Y023521D01*
X027635Y023361D01*
X027757Y023239D01*
X027868Y023193D01*
X027138Y023193D01*
X027249Y023239D01*
X027371Y023361D01*
X027437Y023521D01*
X027437Y023694D01*
X027371Y023853D01*
X027249Y023975D01*
X027089Y024041D01*
X026916Y024041D01*
X026757Y023975D01*
X026635Y023853D01*
X026569Y023694D01*
X026569Y023521D01*
X026635Y023361D01*
X026757Y023239D01*
X026868Y023193D01*
X026138Y023193D01*
X026249Y023239D01*
X026371Y023361D01*
X026437Y023521D01*
X026437Y023694D01*
X026371Y023853D01*
X026249Y023975D01*
X026089Y024041D01*
X025916Y024041D01*
X025757Y023975D01*
X025635Y023853D01*
X025569Y023694D01*
X025569Y023521D01*
X025635Y023361D01*
X025757Y023239D01*
X025868Y023193D01*
X025138Y023193D01*
X025249Y023239D01*
X025371Y023361D01*
X025437Y023521D01*
X025437Y023694D01*
X025371Y023853D01*
X025249Y023975D01*
X025089Y024041D01*
X024916Y024041D01*
X024757Y023975D01*
X024635Y023853D01*
X024569Y023694D01*
X024569Y023521D01*
X024635Y023361D01*
X024757Y023239D01*
X024868Y023193D01*
X024608Y023193D01*
X024610Y023200D01*
X024610Y023302D01*
X024571Y023397D01*
X024499Y023469D01*
X024428Y023498D01*
X024437Y023521D01*
X024437Y023694D01*
X024371Y023853D01*
X024249Y023975D01*
X024089Y024041D01*
X023916Y024041D01*
X023757Y023975D01*
X023635Y023853D01*
X023569Y023694D01*
X023569Y023521D01*
X023623Y023390D01*
X023383Y023390D01*
X023437Y023521D01*
X023437Y023694D01*
X023371Y023853D01*
X023249Y023975D01*
X023089Y024041D01*
X022916Y024041D01*
X022757Y023975D01*
X022635Y023853D01*
X022569Y023694D01*
X022569Y023521D01*
X022623Y023390D01*
X022383Y023390D01*
X022437Y023521D01*
X022437Y023694D01*
X022371Y023853D01*
X022249Y023975D01*
X022089Y024041D01*
X021916Y024041D01*
X021757Y023975D01*
X021635Y023853D01*
X021569Y023694D01*
X021569Y023521D01*
X021623Y023390D01*
X021383Y023390D01*
X021437Y023521D01*
X021437Y023694D01*
X021371Y023853D01*
X021249Y023975D01*
X021089Y024041D01*
X020916Y024041D01*
X020757Y023975D01*
X020635Y023853D01*
X020569Y023694D01*
X020569Y023521D01*
X020623Y023390D01*
X020383Y023390D01*
X020437Y023521D01*
X020437Y023694D01*
X020371Y023853D01*
X020249Y023975D01*
X020089Y024041D01*
X019916Y024041D01*
X019757Y023975D01*
X019635Y023853D01*
X019569Y023694D01*
X019569Y023521D01*
X019623Y023390D01*
X019383Y023390D01*
X019437Y023521D01*
X019437Y023694D01*
X019371Y023853D01*
X019249Y023975D01*
X019089Y024041D01*
X018916Y024041D01*
X018757Y023975D01*
X018635Y023853D01*
X018569Y023694D01*
X018569Y023521D01*
X018623Y023390D01*
X018383Y023390D01*
X018437Y023521D01*
X018437Y023694D01*
X018371Y023853D01*
X018249Y023975D01*
X018089Y024041D01*
X017916Y024041D01*
X017757Y023975D01*
X017635Y023853D01*
X017569Y023694D01*
X017569Y023521D01*
X017623Y023390D01*
X017383Y023390D01*
X017437Y023521D01*
X017437Y023694D01*
X017371Y023853D01*
X017249Y023975D01*
X017089Y024041D01*
X016916Y024041D01*
X016757Y023975D01*
X016635Y023853D01*
X016569Y023694D01*
X016569Y023521D01*
X016623Y023390D01*
X016383Y023390D01*
X016437Y023521D01*
X016437Y023694D01*
X016371Y023853D01*
X016249Y023975D01*
X016089Y024041D01*
X015916Y024041D01*
X015757Y023975D01*
X015635Y023853D01*
X015569Y023694D01*
X015569Y023521D01*
X015623Y023390D01*
X015383Y023390D01*
X015437Y023521D01*
X015437Y023694D01*
X015371Y023853D01*
X015249Y023975D01*
X015089Y024041D01*
X014916Y024041D01*
X014757Y023975D01*
X014635Y023853D01*
X014569Y023694D01*
X014569Y023521D01*
X014623Y023390D01*
X014383Y023390D01*
X014437Y023521D01*
X014437Y023694D01*
X014371Y023853D01*
X014249Y023975D01*
X014089Y024041D01*
X013916Y024041D01*
X013757Y023975D01*
X013635Y023853D01*
X013569Y023694D01*
X013569Y023521D01*
X013623Y023390D01*
X013383Y023390D01*
X013437Y023521D01*
X013437Y023694D01*
X013371Y023853D01*
X013249Y023975D01*
X013089Y024041D01*
X012916Y024041D01*
X012757Y023975D01*
X012635Y023853D01*
X012569Y023694D01*
X012569Y023521D01*
X012623Y023390D01*
X012383Y023390D01*
X012437Y023521D01*
X012437Y023694D01*
X012371Y023853D01*
X012249Y023975D01*
X012089Y024041D01*
X011916Y024041D01*
X011757Y023975D01*
X011635Y023853D01*
X011569Y023694D01*
X011569Y023521D01*
X011635Y023361D01*
X011757Y023239D01*
X011791Y023225D01*
X011385Y022819D01*
X011371Y022853D01*
X011249Y022975D01*
X011089Y023041D01*
X010916Y023041D01*
X010757Y022975D01*
X010635Y022853D01*
X010569Y022694D01*
X010569Y022521D01*
X010635Y022361D01*
X010757Y022239D01*
X010916Y022173D01*
X011089Y022173D01*
X011249Y022239D01*
X011371Y022361D01*
X011405Y022443D01*
X011514Y022443D01*
X011575Y022504D01*
X011635Y022361D01*
X011757Y022239D01*
X011916Y022173D01*
X012089Y022173D01*
X012249Y022239D01*
X012371Y022361D01*
X012437Y022521D01*
X012437Y022694D01*
X012371Y022853D01*
X012249Y022975D01*
X012110Y023033D01*
X012896Y023033D01*
X012757Y022975D01*
X012635Y022853D01*
X012569Y022694D01*
X012569Y022521D01*
X012635Y022361D01*
X012757Y022239D01*
X012916Y022173D01*
X013089Y022173D01*
X013249Y022239D01*
X013371Y022361D01*
X013437Y022521D01*
X013437Y022694D01*
X013371Y022853D01*
X013249Y022975D01*
X013110Y023033D01*
X013896Y023033D01*
X013757Y022975D01*
X013635Y022853D01*
X013569Y022694D01*
X013569Y022521D01*
X013635Y022361D01*
X013757Y022239D01*
X013916Y022173D01*
X014089Y022173D01*
X014249Y022239D01*
X014371Y022361D01*
X014437Y022521D01*
X014437Y022694D01*
X014371Y022853D01*
X014249Y022975D01*
X014110Y023033D01*
X014896Y023033D01*
X014757Y022975D01*
X014635Y022853D01*
X014569Y022694D01*
X014569Y022521D01*
X014635Y022361D01*
X014757Y022239D01*
X014916Y022173D01*
X015089Y022173D01*
X015249Y022239D01*
X015371Y022361D01*
X015437Y022521D01*
X015437Y022694D01*
X015371Y022853D01*
X015249Y022975D01*
X015110Y023033D01*
X015896Y023033D01*
X015757Y022975D01*
X015635Y022853D01*
X015569Y022694D01*
X015569Y022521D01*
X015635Y022361D01*
X015757Y022239D01*
X015916Y022173D01*
X016089Y022173D01*
X016249Y022239D01*
X016371Y022361D01*
X016437Y022521D01*
X016437Y022694D01*
X016371Y022853D01*
X016249Y022975D01*
X016110Y023033D01*
X016896Y023033D01*
X016757Y022975D01*
X016635Y022853D01*
X016569Y022694D01*
X016569Y022521D01*
X016635Y022361D01*
X016757Y022239D01*
X016916Y022173D01*
X017089Y022173D01*
X017249Y022239D01*
X017371Y022361D01*
X017437Y022521D01*
X017437Y022694D01*
X017371Y022853D01*
X017249Y022975D01*
X017110Y023033D01*
X017896Y023033D01*
X017757Y022975D01*
X017635Y022853D01*
X017569Y022694D01*
X017569Y022521D01*
X017635Y022361D01*
X017757Y022239D01*
X017916Y022173D01*
X018089Y022173D01*
X018249Y022239D01*
X018371Y022361D01*
X018437Y022521D01*
X018437Y022694D01*
X018371Y022853D01*
X018249Y022975D01*
X018110Y023033D01*
X018896Y023033D01*
X018757Y022975D01*
X018635Y022853D01*
X018569Y022694D01*
X018569Y022521D01*
X018635Y022361D01*
X018757Y022239D01*
X018916Y022173D01*
X019089Y022173D01*
X019249Y022239D01*
X019371Y022361D01*
X019437Y022521D01*
X019437Y022694D01*
X019371Y022853D01*
X019249Y022975D01*
X019110Y023033D01*
X019896Y023033D01*
X019757Y022975D01*
X019635Y022853D01*
X019569Y022694D01*
X019569Y022521D01*
X019635Y022361D01*
X019757Y022239D01*
X019886Y022185D01*
X018925Y021225D01*
X018837Y021225D01*
X018582Y021480D01*
X018194Y021480D01*
X017919Y021205D01*
X017919Y020816D01*
X018194Y020542D01*
X018439Y020542D01*
X018138Y020240D01*
X016825Y020240D01*
X017010Y020317D01*
X017216Y020523D01*
X017327Y020792D01*
X017327Y021083D01*
X017216Y021352D01*
X017010Y021557D01*
X016741Y021669D01*
X015265Y021669D01*
X014996Y021557D01*
X014790Y021352D01*
X014689Y021106D01*
X013317Y021106D01*
X013216Y021352D01*
X013010Y021557D01*
X012741Y021669D01*
X011265Y021669D01*
X010996Y021557D01*
X010790Y021352D01*
X010679Y021083D01*
X010679Y020792D01*
X010790Y020523D01*
X010996Y020317D01*
X011265Y020206D01*
X012591Y020206D01*
X012474Y020089D01*
X011265Y020089D01*
X010996Y019977D01*
X010790Y019772D01*
X010679Y019503D01*
X010679Y019212D01*
X010790Y018943D01*
X010996Y018737D01*
X011265Y018626D01*
X012741Y018626D01*
X013010Y018737D01*
X013216Y018943D01*
X013327Y019212D01*
X013327Y019503D01*
X013216Y019772D01*
X013104Y019883D01*
X014902Y019883D01*
X014790Y019772D01*
X014679Y019503D01*
X014679Y019212D01*
X014790Y018943D01*
X014996Y018737D01*
X015265Y018626D01*
X016741Y018626D01*
X017010Y018737D01*
X017216Y018943D01*
X017327Y019212D01*
X017327Y019503D01*
X017216Y019772D01*
X017104Y019883D01*
X018285Y019883D01*
X018390Y019988D01*
X020699Y022297D01*
X020757Y022239D01*
X020916Y022173D01*
X021089Y022173D01*
X021249Y022239D01*
X021371Y022361D01*
X021437Y022521D01*
X021437Y022694D01*
X021378Y022836D01*
X021628Y022836D01*
X021569Y022694D01*
X021569Y022521D01*
X021635Y022361D01*
X021757Y022239D01*
X021916Y022173D01*
X022089Y022173D01*
X022204Y022221D01*
X016799Y016815D01*
X016694Y016711D01*
X016694Y009775D01*
X016655Y009735D01*
X016616Y009641D01*
X016616Y009538D01*
X016655Y009444D01*
X016727Y009371D01*
X016822Y009332D01*
X016924Y009332D01*
X016948Y009342D01*
X016948Y009127D01*
X017273Y008802D01*
X017503Y008802D01*
X017733Y008802D01*
X018058Y009127D01*
X018058Y009357D01*
X017503Y009357D01*
X017503Y009357D01*
X017503Y008802D01*
X017503Y009357D01*
X017503Y009357D01*
X018058Y009357D01*
X018058Y009587D01*
X017733Y009912D01*
X017503Y009912D01*
X017503Y009357D01*
X017503Y009357D01*
X017503Y009912D01*
X017273Y009912D01*
X017092Y009732D01*
X017091Y009735D01*
X017051Y009775D01*
X017051Y016563D01*
X017734Y017245D01*
X017734Y017163D01*
X018009Y016888D01*
X018397Y016888D01*
X018407Y016898D01*
X019293Y016012D01*
X019293Y015811D01*
X019034Y015551D01*
X019034Y015163D01*
X019309Y014888D01*
X019697Y014888D01*
X019972Y015163D01*
X019972Y015551D01*
X019697Y015826D01*
X019650Y015826D01*
X019650Y016159D01*
X018659Y017150D01*
X018672Y017163D01*
X018672Y017551D01*
X018397Y017826D01*
X018315Y017826D01*
X021519Y021030D01*
X021519Y020816D01*
X021794Y020542D01*
X022182Y020542D01*
X022457Y020816D01*
X022457Y020868D01*
X023494Y020868D01*
X023536Y020766D01*
X023660Y020642D01*
X023821Y020576D01*
X023996Y020576D01*
X024157Y020642D01*
X024281Y020766D01*
X024347Y020927D01*
X024347Y021102D01*
X024281Y021263D01*
X024157Y021387D01*
X023996Y021454D01*
X023821Y021454D01*
X023660Y021387D01*
X023536Y021263D01*
X023520Y021225D01*
X022437Y021225D01*
X022182Y021480D01*
X021968Y021480D01*
X022742Y022254D01*
X022757Y022239D01*
X022916Y022173D01*
X023089Y022173D01*
X023249Y022239D01*
X023371Y022361D01*
X023437Y022521D01*
X023437Y022694D01*
X023378Y022836D01*
X023628Y022836D01*
X023569Y022694D01*
X023569Y022521D01*
X023635Y022361D01*
X023757Y022239D01*
X023916Y022173D01*
X024089Y022173D01*
X024249Y022239D01*
X024371Y022361D01*
X024437Y022521D01*
X024437Y022694D01*
X024378Y022836D01*
X024628Y022836D01*
X024569Y022694D01*
X024569Y022521D01*
X024635Y022361D01*
X024757Y022239D01*
X024916Y022173D01*
X025089Y022173D01*
X025249Y022239D01*
X025371Y022361D01*
X025437Y022521D01*
X025437Y022694D01*
X025378Y022836D01*
X025628Y022836D01*
X025569Y022694D01*
X025569Y022521D01*
X025635Y022361D01*
X025757Y022239D01*
X025916Y022173D01*
X026089Y022173D01*
X026249Y022239D01*
X026371Y022361D01*
X026437Y022521D01*
X026437Y022694D01*
X026378Y022836D01*
X026628Y022836D01*
X026569Y022694D01*
X026569Y022521D01*
X026635Y022361D01*
X026757Y022239D01*
X026916Y022173D01*
X027089Y022173D01*
X027249Y022239D01*
X027371Y022361D01*
X027437Y022521D01*
X027437Y022694D01*
X027378Y022836D01*
X027628Y022836D01*
X027569Y022694D01*
X027569Y022521D01*
X027635Y022361D01*
X027757Y022239D01*
X027916Y022173D01*
X028089Y022173D01*
X028249Y022239D01*
X028371Y022361D01*
X028437Y022521D01*
X028437Y022694D01*
X028378Y022836D01*
X028628Y022836D01*
X028569Y022694D01*
X028569Y022521D01*
X028635Y022361D01*
X028757Y022239D01*
X028916Y022173D01*
X029089Y022173D01*
X029249Y022239D01*
X029371Y022361D01*
X029437Y022521D01*
X029437Y022694D01*
X029378Y022836D01*
X029628Y022836D01*
X029569Y022694D01*
X029569Y022521D01*
X029635Y022361D01*
X029757Y022239D01*
X029916Y022173D01*
X030089Y022173D01*
X030249Y022239D01*
X030371Y022361D01*
X030437Y022521D01*
X030437Y022694D01*
X030378Y022836D01*
X030628Y022836D01*
X030569Y022694D01*
X030569Y022521D01*
X030635Y022361D01*
X030757Y022239D01*
X030916Y022173D01*
X031089Y022173D01*
X031249Y022239D01*
X031371Y022361D01*
X031437Y022521D01*
X031437Y022694D01*
X031378Y022836D01*
X031628Y022836D01*
X031569Y022694D01*
X031569Y022521D01*
X031635Y022361D01*
X031757Y022239D01*
X031916Y022173D01*
X032089Y022173D01*
X032249Y022239D01*
X032371Y022361D01*
X032437Y022521D01*
X032437Y022694D01*
X032378Y022836D01*
X033925Y022836D01*
X035247Y021515D01*
X034338Y021515D01*
X034132Y021430D01*
X033975Y021272D01*
X033890Y021067D01*
X033890Y020844D01*
X033975Y020639D01*
X034132Y020482D01*
X034338Y020397D01*
X035400Y020397D01*
X035606Y020482D01*
X035631Y020507D01*
X035631Y020070D01*
X035603Y020091D01*
X035519Y020134D01*
X035429Y020163D01*
X035336Y020178D01*
X034929Y020178D01*
X034929Y019638D01*
X034809Y019638D01*
X034809Y020178D01*
X034402Y020178D01*
X034308Y020163D01*
X034219Y020134D01*
X034135Y020091D01*
X034058Y020035D01*
X033991Y019969D01*
X033936Y019892D01*
X033893Y019808D01*
X033864Y019718D01*
X033851Y019638D01*
X034809Y019638D01*
X034809Y019518D01*
X033851Y019518D01*
X033864Y019437D01*
X033893Y019347D01*
X033936Y019263D01*
X033991Y019187D01*
X034058Y019120D01*
X034135Y019064D01*
X034219Y019022D01*
X034308Y018992D01*
X034402Y018978D01*
X034809Y018978D01*
X034809Y019518D01*
X034929Y019518D01*
X034929Y018978D01*
X035336Y018978D01*
X035429Y018992D01*
X035519Y019022D01*
X035603Y019064D01*
X035631Y019085D01*
X035631Y017447D01*
X035532Y017547D01*
X035378Y017611D01*
X035211Y017611D01*
X035057Y017547D01*
X034939Y017429D01*
X034875Y017275D01*
X034875Y017108D01*
X034913Y017016D01*
X034701Y016804D01*
X034649Y016929D01*
X034532Y017047D01*
X034378Y017111D01*
X034211Y017111D01*
X034057Y017047D01*
X033939Y016929D01*
X033875Y016775D01*
X033875Y016608D01*
X033939Y016454D01*
X034057Y016337D01*
X034182Y016285D01*
X034161Y016264D01*
X034043Y016264D01*
X033507Y015728D01*
X033364Y015870D01*
X032445Y015870D01*
X032445Y016159D01*
X032366Y016238D01*
X032262Y016343D01*
X026445Y016343D01*
X025713Y015611D01*
X025697Y015626D01*
X025309Y015626D01*
X025034Y015351D01*
X025034Y015050D01*
X021852Y011868D01*
X021852Y010479D01*
X021721Y010479D01*
X021639Y010397D01*
X021639Y010081D01*
X021634Y010076D01*
X021611Y010035D01*
X021598Y009989D01*
X021598Y009857D01*
X021598Y009725D01*
X021611Y009679D01*
X021634Y009638D01*
X021639Y009633D01*
X021639Y009317D01*
X021721Y009236D01*
X022309Y009236D01*
X022390Y009317D01*
X022390Y009411D01*
X023531Y008269D01*
X025238Y008269D01*
X025238Y004980D01*
X025089Y005041D01*
X024916Y005041D01*
X024757Y004975D01*
X024635Y004853D01*
X024610Y004795D01*
X024610Y004978D01*
X023449Y006140D01*
X023472Y006163D01*
X023472Y006551D01*
X023197Y006826D01*
X022809Y006826D01*
X022642Y006660D01*
X022642Y006986D01*
X022469Y007160D01*
X022472Y007163D01*
X022472Y007551D01*
X022197Y007826D01*
X021809Y007826D01*
X021534Y007551D01*
X021534Y007163D01*
X021809Y006888D01*
X022197Y006888D01*
X022216Y006907D01*
X022285Y006838D01*
X022285Y006738D01*
X022197Y006826D01*
X021809Y006826D01*
X021534Y006551D01*
X021534Y006163D01*
X021557Y006140D01*
X021523Y006106D01*
X021473Y006106D01*
X021513Y006146D01*
X021513Y006337D01*
X021023Y006337D01*
X021023Y006377D01*
X021513Y006377D01*
X021513Y006568D01*
X021214Y006867D01*
X021023Y006867D01*
X021023Y006377D01*
X020983Y006377D01*
X020983Y006337D01*
X020493Y006337D01*
X020493Y006146D01*
X020532Y006106D01*
X019346Y006106D01*
X019423Y006183D01*
X019423Y006357D01*
X019003Y006357D01*
X019003Y006357D01*
X019423Y006357D01*
X019423Y006531D01*
X019177Y006777D01*
X019003Y006777D01*
X019003Y006357D01*
X019003Y006357D01*
X019003Y006777D01*
X018829Y006777D01*
X018583Y006531D01*
X018583Y006400D01*
X016135Y008847D01*
X016214Y008847D01*
X016513Y009146D01*
X016513Y009357D01*
X016003Y009357D01*
X016003Y009357D01*
X016513Y009357D01*
X016513Y009568D01*
X016214Y009867D01*
X016003Y009867D01*
X016003Y009357D01*
X016003Y009357D01*
X016003Y009867D01*
X015792Y009867D01*
X015752Y009828D01*
X015752Y011887D01*
X015792Y011847D01*
X016003Y011847D01*
X016214Y011847D01*
X016513Y012146D01*
X016513Y012357D01*
X016003Y012357D01*
X016003Y012357D01*
X016003Y011847D01*
X016003Y012357D01*
X016003Y012357D01*
X016513Y012357D01*
X016513Y012568D01*
X016214Y012867D01*
X016003Y012867D01*
X016003Y012357D01*
X016003Y012357D01*
X016003Y012867D01*
X015792Y012867D01*
X015752Y012828D01*
X015753Y012828D01*
X015752Y012828D02*
X015752Y014887D01*
X015792Y014847D01*
X016003Y014847D01*
X016214Y014847D01*
X016513Y015146D01*
X016513Y015357D01*
X016003Y015357D01*
X016003Y015357D01*
X016003Y014847D01*
X016003Y015357D01*
X016003Y015357D01*
X016513Y015357D01*
X016513Y015568D01*
X016214Y015867D01*
X016003Y015867D01*
X016003Y015357D01*
X016003Y015357D01*
X016003Y015867D01*
X015792Y015867D01*
X015583Y015659D01*
X013862Y017380D01*
X013862Y017436D01*
X013823Y017530D01*
X013751Y017603D01*
X013656Y017642D01*
X013554Y017642D01*
X013460Y017603D01*
X013387Y017530D01*
X013348Y017436D01*
X013348Y017334D01*
X013387Y017239D01*
X013460Y017167D01*
X013554Y017128D01*
X013610Y017128D01*
X014911Y015826D01*
X014809Y015826D01*
X014797Y015815D01*
X014191Y016421D01*
X013913Y016421D01*
X013913Y016466D01*
X013638Y016740D01*
X013249Y016740D01*
X012975Y016466D01*
X012975Y016077D01*
X013249Y015802D01*
X013638Y015802D01*
X013900Y016065D01*
X014043Y016065D01*
X014545Y015563D01*
X014534Y015551D01*
X014534Y015163D01*
X014809Y014888D01*
X015197Y014888D01*
X015395Y015086D01*
X015395Y012628D01*
X015197Y012826D01*
X014809Y012826D01*
X014534Y012551D01*
X014534Y012163D01*
X014541Y012156D01*
X014240Y011854D01*
X013969Y011854D01*
X013697Y012126D01*
X013309Y012126D01*
X013193Y012011D01*
X013193Y012259D01*
X013249Y012202D01*
X013638Y012202D01*
X013913Y012477D01*
X013913Y012866D01*
X013707Y013071D01*
X013744Y013160D01*
X013744Y013263D01*
X013705Y013357D01*
X013633Y013430D01*
X013538Y013469D01*
X013436Y013469D01*
X013341Y013430D01*
X013302Y013390D01*
X013295Y013390D01*
X012941Y013036D01*
X012836Y012931D01*
X012836Y008492D01*
X012941Y008387D01*
X013055Y008273D01*
X013034Y008251D01*
X013034Y007863D01*
X013309Y007588D01*
X013697Y007588D01*
X013972Y007863D01*
X013972Y008251D01*
X013697Y008526D01*
X013309Y008526D01*
X013308Y008525D01*
X013193Y008640D01*
X013193Y011304D01*
X013309Y011188D01*
X013697Y011188D01*
X013972Y011463D01*
X013972Y011498D01*
X014388Y011498D01*
X014793Y011903D01*
X014809Y011888D01*
X015197Y011888D01*
X015395Y012086D01*
X015395Y009628D01*
X015197Y009826D01*
X014809Y009826D01*
X014534Y009551D01*
X014534Y009163D01*
X014809Y008888D01*
X015120Y008888D01*
X015120Y007326D01*
X015109Y007326D01*
X014834Y007051D01*
X014834Y006663D01*
X015109Y006388D01*
X015497Y006388D01*
X015772Y006663D01*
X015772Y007051D01*
X015497Y007326D01*
X015477Y007326D01*
X015477Y009001D01*
X018624Y005854D01*
X018728Y005750D01*
X021671Y005750D01*
X021810Y005888D01*
X022197Y005888D01*
X022401Y006092D01*
X022797Y005697D01*
X022797Y004992D01*
X022757Y004975D01*
X022635Y004853D01*
X022569Y004694D01*
X022569Y004521D01*
X022635Y004361D01*
X022757Y004239D01*
X022916Y004173D01*
X023089Y004173D01*
X023249Y004239D01*
X023371Y004361D01*
X023437Y004521D01*
X023437Y004694D01*
X023371Y004853D01*
X023249Y004975D01*
X023154Y005015D01*
X023154Y005844D01*
X023110Y005888D01*
X023196Y005888D01*
X024043Y005041D01*
X023916Y005041D01*
X023757Y004975D01*
X023635Y004853D01*
X023569Y004694D01*
X023569Y004521D01*
X023635Y004361D01*
X023757Y004239D01*
X023916Y004173D01*
X024089Y004173D01*
X024249Y004239D01*
X024371Y004361D01*
X024382Y004387D01*
X024783Y003986D01*
X024757Y003975D01*
X024635Y003853D01*
X024569Y003694D01*
X024569Y003521D01*
X024623Y003390D01*
X024383Y003390D01*
X024437Y003521D01*
X024437Y003694D01*
X024371Y003853D01*
X024249Y003975D01*
X024089Y004041D01*
X023916Y004041D01*
X023757Y003975D01*
X023635Y003853D01*
X023569Y003694D01*
X023569Y003521D01*
X023623Y003390D01*
X023383Y003390D01*
X023437Y003521D01*
X023437Y003694D01*
X023371Y003853D01*
X023249Y003975D01*
X023089Y004041D01*
X022916Y004041D01*
X022757Y003975D01*
X022635Y003853D01*
X022569Y003694D01*
X022569Y003521D01*
X022623Y003390D01*
X022383Y003390D01*
X022437Y003521D01*
X022437Y003694D01*
X022371Y003853D01*
X022249Y003975D01*
X022089Y004041D01*
X021916Y004041D01*
X021757Y003975D01*
X021635Y003853D01*
X021569Y003694D01*
X021569Y003521D01*
X021623Y003390D01*
X021383Y003390D01*
X021437Y003521D01*
X021437Y003694D01*
X021371Y003853D01*
X021249Y003975D01*
X021089Y004041D01*
X020916Y004041D01*
X020757Y003975D01*
X020635Y003853D01*
X020569Y003694D01*
X020569Y003521D01*
X020623Y003390D01*
X020383Y003390D01*
X020437Y003521D01*
X020437Y003694D01*
X020371Y003853D01*
X020249Y003975D01*
X020089Y004041D01*
X019916Y004041D01*
X019757Y003975D01*
X019635Y003853D01*
X019569Y003694D01*
X019569Y003521D01*
X019623Y003390D01*
X019383Y003390D01*
X019437Y003521D01*
X019437Y003694D01*
X019371Y003853D01*
X019249Y003975D01*
X019089Y004041D01*
X018916Y004041D01*
X018757Y003975D01*
X018635Y003853D01*
X018569Y003694D01*
X018569Y003521D01*
X018623Y003390D01*
X018383Y003390D01*
X018437Y003521D01*
X018437Y003694D01*
X018371Y003853D01*
X018249Y003975D01*
X018089Y004041D01*
X017916Y004041D01*
X017757Y003975D01*
X017635Y003853D01*
X017569Y003694D01*
X017569Y003521D01*
X017623Y003390D01*
X017383Y003390D01*
X017437Y003521D01*
X017437Y003694D01*
X017371Y003853D01*
X017249Y003975D01*
X017089Y004041D01*
X016916Y004041D01*
X016757Y003975D01*
X016635Y003853D01*
X016569Y003694D01*
X016569Y003521D01*
X016623Y003390D01*
X016383Y003390D01*
X016437Y003521D01*
X016437Y003694D01*
X016371Y003853D01*
X016249Y003975D01*
X016089Y004041D01*
X015916Y004041D01*
X015757Y003975D01*
X015635Y003853D01*
X015569Y003694D01*
X015569Y003521D01*
X015623Y003390D01*
X015383Y003390D01*
X015437Y003521D01*
X015437Y003694D01*
X015371Y003853D01*
X015249Y003975D01*
X015089Y004041D01*
X014916Y004041D01*
X014757Y003975D01*
X014635Y003853D01*
X014569Y003694D01*
X014569Y003521D01*
X014623Y003390D01*
X014383Y003390D01*
X014437Y003521D01*
X014437Y003694D01*
X014371Y003853D01*
X014249Y003975D01*
X014089Y004041D01*
X013916Y004041D01*
X013757Y003975D01*
X013635Y003853D01*
X013581Y003724D01*
X013482Y003823D01*
X013384Y003823D01*
X013371Y003853D01*
X013249Y003975D01*
X013193Y003998D01*
X013193Y004216D01*
X013249Y004239D01*
X013371Y004361D01*
X013437Y004521D01*
X013437Y004694D01*
X013371Y004853D01*
X013249Y004975D01*
X013089Y005041D01*
X012916Y005041D01*
X012757Y004975D01*
X012635Y004853D01*
X012569Y004694D01*
X012569Y004521D01*
X012635Y004361D01*
X012757Y004239D01*
X012836Y004206D01*
X012836Y004008D01*
X012757Y003975D01*
X012635Y003853D01*
X012622Y003823D01*
X012384Y003823D01*
X012371Y003853D01*
X012249Y003975D01*
X012169Y004008D01*
X012169Y004206D01*
X012249Y004239D01*
X012371Y004361D01*
X012437Y004521D01*
X012437Y004694D01*
X012371Y004853D01*
X012249Y004975D01*
X012089Y005041D01*
X011916Y005041D01*
X011757Y004975D01*
X011635Y004853D01*
X011569Y004694D01*
X011569Y004521D01*
X011635Y004361D01*
X011757Y004239D01*
X011813Y004216D01*
X011813Y003998D01*
X011757Y003975D01*
X011635Y003853D01*
X011569Y003694D01*
X011569Y003521D01*
X011635Y003361D01*
X011757Y003239D01*
X011916Y003173D01*
X012089Y003173D01*
X012249Y003239D01*
X012371Y003361D01*
X012415Y003466D01*
X012591Y003466D01*
X012635Y003361D01*
X012757Y003239D01*
X012916Y003173D01*
X013089Y003173D01*
X013249Y003239D01*
X013371Y003361D01*
X013391Y003410D01*
X013663Y003138D01*
X013768Y003033D01*
X025254Y003033D01*
X025490Y003269D01*
X025539Y003318D02*
X025678Y003318D01*
X026328Y003318D02*
X026678Y003318D01*
X026635Y003361D02*
X026757Y003239D01*
X026916Y003173D01*
X027089Y003173D01*
X027249Y003239D01*
X027371Y003361D01*
X027437Y003521D01*
X027437Y003694D01*
X027371Y003853D01*
X027249Y003975D01*
X027089Y004041D01*
X026916Y004041D01*
X026757Y003975D01*
X026635Y003853D01*
X026569Y003694D01*
X026569Y003521D01*
X026635Y003361D01*
X026587Y003477D02*
X026419Y003477D01*
X026437Y003635D02*
X026569Y003635D01*
X026610Y003794D02*
X026396Y003794D01*
X026272Y003952D02*
X026734Y003952D01*
X026916Y004173D02*
X026757Y004239D01*
X026635Y004361D01*
X026569Y004521D01*
X026569Y004694D01*
X026635Y004853D01*
X026757Y004975D01*
X026916Y005041D01*
X027089Y005041D01*
X027249Y004975D01*
X027371Y004853D01*
X027437Y004694D01*
X027437Y004521D01*
X027371Y004361D01*
X027249Y004239D01*
X027089Y004173D01*
X026916Y004173D01*
X026727Y004269D02*
X026279Y004269D01*
X026399Y004428D02*
X026607Y004428D01*
X026569Y004586D02*
X026437Y004586D01*
X026416Y004745D02*
X026590Y004745D01*
X026685Y004903D02*
X026321Y004903D01*
X025685Y004903D02*
X025595Y004903D01*
X025595Y005062D02*
X030864Y005062D01*
X030892Y005071D02*
X030820Y005048D01*
X030754Y005014D01*
X030693Y004970D01*
X030640Y004917D01*
X030596Y004856D01*
X030562Y004790D01*
X030539Y004718D01*
X030528Y004645D01*
X030528Y004626D01*
X030984Y004626D01*
X030984Y005082D01*
X030965Y005082D01*
X030892Y005071D01*
X030984Y005062D02*
X031021Y005062D01*
X031021Y005082D02*
X031040Y005082D01*
X031114Y005071D01*
X031185Y005048D01*
X031252Y005014D01*
X031312Y004970D01*
X031365Y004917D01*
X031409Y004856D01*
X031443Y004790D01*
X031466Y004718D01*
X031478Y004645D01*
X031478Y004626D01*
X031021Y004626D01*
X030984Y004626D01*
X030984Y004589D01*
X030528Y004589D01*
X030528Y004570D01*
X030539Y004496D01*
X030562Y004425D01*
X030596Y004358D01*
X030640Y004298D01*
X030693Y004245D01*
X030754Y004201D01*
X030820Y004167D01*
X030892Y004144D01*
X030965Y004132D01*
X030984Y004132D01*
X030984Y004589D01*
X031021Y004589D01*
X031021Y004132D01*
X031040Y004132D01*
X031114Y004144D01*
X031185Y004167D01*
X031252Y004201D01*
X031312Y004245D01*
X031365Y004298D01*
X031409Y004358D01*
X031443Y004425D01*
X031466Y004496D01*
X031478Y004570D01*
X031478Y004589D01*
X031021Y004589D01*
X031021Y004626D01*
X031021Y005082D01*
X031142Y005062D02*
X031864Y005062D01*
X031892Y005071D02*
X031820Y005048D01*
X031754Y005014D01*
X031693Y004970D01*
X031640Y004917D01*
X031596Y004856D01*
X031562Y004790D01*
X031539Y004718D01*
X031528Y004645D01*
X031528Y004626D01*
X031984Y004626D01*
X031984Y005082D01*
X031965Y005082D01*
X031892Y005071D01*
X031984Y005062D02*
X032021Y005062D01*
X032021Y005082D02*
X032040Y005082D01*
X032114Y005071D01*
X032185Y005048D01*
X032252Y005014D01*
X032312Y004970D01*
X032365Y004917D01*
X032409Y004856D01*
X032443Y004790D01*
X032466Y004718D01*
X032478Y004645D01*
X032478Y004626D01*
X032021Y004626D01*
X031984Y004626D01*
X031984Y004589D01*
X031528Y004589D01*
X031528Y004570D01*
X031539Y004496D01*
X031562Y004425D01*
X031596Y004358D01*
X031640Y004298D01*
X031693Y004245D01*
X031754Y004201D01*
X031820Y004167D01*
X031892Y004144D01*
X031965Y004132D01*
X031984Y004132D01*
X031984Y004589D01*
X032021Y004589D01*
X032021Y004132D01*
X032040Y004132D01*
X032114Y004144D01*
X032185Y004167D01*
X032252Y004201D01*
X032312Y004245D01*
X032365Y004298D01*
X032409Y004358D01*
X032443Y004425D01*
X032466Y004496D01*
X032478Y004570D01*
X032478Y004589D01*
X032021Y004589D01*
X032021Y004626D01*
X032021Y005082D01*
X032142Y005062D02*
X035499Y005062D01*
X035614Y005220D02*
X025595Y005220D01*
X025595Y005379D02*
X035712Y005379D01*
X035793Y005537D02*
X029434Y005537D01*
X029434Y005696D02*
X035874Y005696D01*
X035955Y005854D02*
X029434Y005854D01*
X029434Y006013D02*
X036030Y006013D01*
X036082Y006171D02*
X029434Y006171D01*
X029299Y006488D02*
X036185Y006488D01*
X036133Y006330D02*
X028810Y006330D01*
X028985Y006488D02*
X029020Y006488D01*
X029020Y006647D02*
X028985Y006647D01*
X028985Y006805D02*
X029020Y006805D01*
X029426Y006647D02*
X036236Y006647D01*
X036273Y006805D02*
X029473Y006805D01*
X029464Y006964D02*
X036298Y006964D01*
X036323Y007122D02*
X029394Y007122D01*
X029265Y007281D02*
X036348Y007281D01*
X036373Y007439D02*
X029424Y007439D01*
X029582Y007598D02*
X036384Y007598D01*
X036390Y007756D02*
X029610Y007756D01*
X029610Y007915D02*
X036394Y007915D01*
X036394Y008073D02*
X029610Y008073D01*
X029467Y008232D02*
X036394Y008232D01*
X036394Y008390D02*
X029309Y008390D01*
X029305Y008549D02*
X036394Y008549D01*
X036394Y008707D02*
X029408Y008707D01*
X029434Y008866D02*
X036394Y008866D01*
X036394Y009024D02*
X029434Y009024D01*
X029593Y009183D02*
X036394Y009183D01*
X036394Y009341D02*
X029751Y009341D01*
X029910Y009500D02*
X036394Y009500D01*
X036394Y009658D02*
X030068Y009658D01*
X030227Y009817D02*
X036394Y009817D01*
X036394Y009975D02*
X030385Y009975D01*
X030516Y010134D02*
X036394Y010134D01*
X036394Y010292D02*
X030516Y010292D01*
X030516Y010451D02*
X036394Y010451D01*
X036394Y010609D02*
X030516Y010609D01*
X030516Y010768D02*
X036394Y010768D01*
X036394Y010926D02*
X030516Y010926D01*
X030516Y011085D02*
X036394Y011085D01*
X036394Y011243D02*
X030516Y011243D01*
X030516Y011402D02*
X036394Y011402D01*
X036394Y011560D02*
X030516Y011560D01*
X030516Y011719D02*
X036394Y011719D01*
X036394Y011877D02*
X030516Y011877D01*
X030516Y012036D02*
X036394Y012036D01*
X036394Y012194D02*
X030516Y012194D01*
X030516Y012353D02*
X036394Y012353D01*
X036394Y012511D02*
X030516Y012511D01*
X030516Y012670D02*
X036394Y012670D01*
X036394Y012828D02*
X030516Y012828D01*
X030516Y012987D02*
X036394Y012987D01*
X036394Y013145D02*
X030516Y013145D01*
X030516Y013304D02*
X034152Y013304D01*
X034116Y013339D02*
X034223Y013233D01*
X034362Y013175D01*
X034513Y013175D01*
X034653Y013233D01*
X034759Y013339D01*
X034817Y013479D01*
X034817Y013629D01*
X034759Y013769D01*
X034653Y013875D01*
X034513Y013933D01*
X034362Y013933D01*
X034223Y013875D01*
X034116Y013769D01*
X034059Y013629D01*
X034059Y013479D01*
X034116Y013339D01*
X034065Y013462D02*
X032228Y013462D01*
X032318Y013621D02*
X034059Y013621D01*
X034127Y013779D02*
X032313Y013779D01*
X032277Y013938D02*
X034910Y013938D01*
X034901Y013951D02*
X034943Y013892D01*
X034995Y013841D01*
X035053Y013798D01*
X035118Y013766D01*
X035186Y013743D01*
X035258Y013732D01*
X035294Y013732D01*
X035294Y014192D01*
X035294Y014652D01*
X035258Y014652D01*
X035186Y014640D01*
X035118Y014618D01*
X035053Y014585D01*
X034995Y014543D01*
X034943Y014491D01*
X034901Y014433D01*
X034868Y014368D01*
X034845Y014300D01*
X034834Y014228D01*
X034834Y014192D01*
X035294Y014192D01*
X035294Y014192D01*
X035294Y014192D01*
X035294Y014652D01*
X035330Y014652D01*
X035402Y014640D01*
X035471Y014618D01*
X035535Y014585D01*
X035594Y014543D01*
X035645Y014491D01*
X035688Y014433D01*
X035720Y014368D01*
X035743Y014300D01*
X035754Y014228D01*
X035754Y014192D01*
X035294Y014192D01*
X034834Y014192D01*
X034834Y014156D01*
X034845Y014084D01*
X034868Y014015D01*
X034901Y013951D01*
X034844Y014096D02*
X032277Y014096D01*
X032277Y014255D02*
X034838Y014255D01*
X034891Y014413D02*
X034608Y014413D01*
X034698Y014572D02*
X035034Y014572D01*
X035294Y014572D02*
X035294Y014572D01*
X035294Y014413D02*
X035294Y014413D01*
X035294Y014255D02*
X035294Y014255D01*
X035294Y014192D02*
X035294Y014192D01*
X035294Y014192D01*
X035294Y013732D01*
X035330Y013732D01*
X035402Y013743D01*
X035471Y013766D01*
X035535Y013798D01*
X035594Y013841D01*
X035645Y013892D01*
X035688Y013951D01*
X035720Y014015D01*
X035743Y014084D01*
X035754Y014156D01*
X035754Y014192D01*
X035294Y014192D01*
X035294Y014096D02*
X035294Y014096D01*
X035294Y013938D02*
X035294Y013938D01*
X035294Y013779D02*
X035294Y013779D01*
X035091Y013779D02*
X034749Y013779D01*
X034817Y013621D02*
X036394Y013621D01*
X036394Y013779D02*
X035498Y013779D01*
X035678Y013938D02*
X036394Y013938D01*
X036394Y014096D02*
X035745Y014096D01*
X035750Y014255D02*
X036394Y014255D01*
X036394Y014413D02*
X035698Y014413D01*
X035554Y014572D02*
X036394Y014572D01*
X036394Y014730D02*
X034713Y014730D01*
X034666Y014889D02*
X035005Y014889D01*
X035057Y014837D02*
X035211Y014773D01*
X035378Y014773D01*
X035532Y014837D01*
X035649Y014954D01*
X035713Y015108D01*
X035713Y015275D01*
X035649Y015429D01*
X035532Y015547D01*
X035378Y015611D01*
X035211Y015611D01*
X035057Y015547D01*
X034939Y015429D01*
X034875Y015275D01*
X034875Y015108D01*
X034939Y014954D01*
X035057Y014837D01*
X034900Y015047D02*
X034531Y015047D01*
X034559Y015364D02*
X034912Y015364D01*
X034875Y015206D02*
X034029Y015206D01*
X034029Y015364D02*
X033870Y015364D01*
X033911Y015523D02*
X033807Y015523D01*
X033619Y015840D02*
X033395Y015840D01*
X033777Y015998D02*
X032445Y015998D01*
X032445Y016157D02*
X033936Y016157D01*
X034108Y016315D02*
X032289Y016315D01*
X033328Y015401D02*
X033328Y015401D01*
X033366Y015364D02*
X032277Y015364D01*
X032277Y015206D02*
X033524Y015206D01*
X033433Y015297D02*
X033433Y015297D01*
X033683Y015047D02*
X032277Y015047D01*
X032277Y014889D02*
X033841Y014889D01*
X033875Y014730D02*
X032277Y014730D01*
X032269Y014572D02*
X033890Y014572D01*
X033980Y014413D02*
X032277Y014413D01*
X031609Y014413D02*
X030965Y014413D01*
X031123Y014572D02*
X031617Y014572D01*
X031609Y014730D02*
X031282Y014730D01*
X031440Y014889D02*
X031609Y014889D01*
X031599Y015047D02*
X031609Y015047D01*
X031609Y014255D02*
X030806Y014255D01*
X030648Y014096D02*
X031609Y014096D01*
X031609Y013938D02*
X030516Y013938D01*
X030516Y013779D02*
X031573Y013779D01*
X031568Y013678D02*
X031943Y013678D01*
X031943Y013438D01*
X031943Y013678D01*
X031943Y013678D01*
X031568Y013678D01*
X031568Y013621D02*
X030516Y013621D01*
X030516Y013462D02*
X031658Y013462D01*
X031943Y013462D02*
X031943Y013462D01*
X031943Y013621D02*
X031943Y013621D01*
X031943Y013678D02*
X031943Y013678D01*
X029923Y013504D02*
X029923Y010608D01*
X028531Y009217D01*
X028427Y009112D01*
X028427Y008610D01*
X028798Y008239D01*
X028758Y008223D01*
X028637Y008102D01*
X028610Y008036D01*
X026632Y008036D01*
X026197Y008470D01*
X026247Y008491D01*
X026369Y008613D01*
X026434Y008771D01*
X026434Y008943D01*
X026369Y009102D01*
X026247Y009223D01*
X026146Y009265D01*
X026146Y011159D01*
X025957Y011348D01*
X025972Y011363D01*
X025972Y011751D01*
X025697Y012026D01*
X025309Y012026D01*
X025034Y011751D01*
X025034Y011736D01*
X022972Y011736D01*
X022972Y011751D01*
X022697Y012026D01*
X022515Y012026D01*
X023493Y013004D01*
X023493Y012946D01*
X023792Y012647D01*
X024003Y012647D01*
X024214Y012647D01*
X024513Y012946D01*
X024513Y013157D01*
X024003Y013157D01*
X024003Y013157D01*
X024003Y012647D01*
X024003Y013157D01*
X024003Y013157D01*
X024513Y013157D01*
X024513Y013368D01*
X024214Y013667D01*
X024156Y013667D01*
X025243Y014754D01*
X025309Y014688D01*
X025697Y014688D01*
X025972Y014963D01*
X025972Y015351D01*
X025965Y015358D01*
X026592Y015986D01*
X029041Y015986D01*
X029004Y015949D01*
X028948Y015949D01*
X028853Y015910D01*
X028781Y015837D01*
X028742Y015743D01*
X028742Y015641D01*
X028744Y015634D01*
X028633Y015634D01*
X028593Y015674D01*
X028499Y015713D01*
X028397Y015713D01*
X028302Y015674D01*
X028230Y015601D01*
X028191Y015507D01*
X028191Y015404D01*
X028230Y015310D01*
X028302Y015238D01*
X028397Y015198D01*
X028499Y015198D01*
X028593Y015238D01*
X028633Y015277D01*
X029311Y015277D01*
X029311Y015096D01*
X029322Y015086D01*
X029311Y015075D01*
X029311Y014840D01*
X029322Y014830D01*
X029311Y014819D01*
X029311Y014584D01*
X029322Y014574D01*
X029311Y014563D01*
X029311Y014328D01*
X029322Y014318D01*
X029311Y014307D01*
X029311Y014072D01*
X029322Y014062D01*
X029311Y014052D01*
X029311Y013823D01*
X025405Y013823D01*
X025365Y013863D01*
X025271Y013902D01*
X025168Y013902D01*
X025074Y013863D01*
X025001Y013790D01*
X024962Y013696D01*
X024962Y013593D01*
X025001Y013499D01*
X025074Y013427D01*
X025168Y013387D01*
X025271Y013387D01*
X025365Y013427D01*
X025405Y013466D01*
X029587Y013466D01*
X029616Y013452D01*
X029658Y013466D01*
X029703Y013466D01*
X029716Y013479D01*
X029898Y013479D01*
X029923Y013504D01*
X029923Y013462D02*
X029646Y013462D01*
X029595Y013462D02*
X025401Y013462D01*
X025038Y013462D02*
X024419Y013462D01*
X024513Y013304D02*
X029923Y013304D01*
X029923Y013145D02*
X024513Y013145D01*
X024513Y012987D02*
X029923Y012987D01*
X029923Y012828D02*
X024395Y012828D01*
X024237Y012670D02*
X029923Y012670D01*
X029923Y012511D02*
X023000Y012511D01*
X023158Y012670D02*
X023769Y012670D01*
X023611Y012828D02*
X023317Y012828D01*
X023475Y012987D02*
X023493Y012987D01*
X023288Y013304D02*
X017051Y013304D01*
X017051Y013462D02*
X023446Y013462D01*
X023605Y013621D02*
X017051Y013621D01*
X017051Y013779D02*
X023763Y013779D01*
X023922Y013938D02*
X017051Y013938D01*
X017051Y014096D02*
X024080Y014096D01*
X024239Y014255D02*
X017051Y014255D01*
X017051Y014413D02*
X024397Y014413D01*
X024556Y014572D02*
X017051Y014572D01*
X017051Y014730D02*
X022209Y014730D01*
X022292Y014647D02*
X021993Y014946D01*
X021993Y015157D01*
X022503Y015157D01*
X022503Y015157D01*
X023013Y015157D01*
X023013Y014946D01*
X022714Y014647D01*
X022503Y014647D01*
X022503Y015157D01*
X022503Y015157D01*
X023013Y015157D01*
X023013Y015368D01*
X022714Y015667D01*
X022503Y015667D01*
X022503Y015157D01*
X022503Y014647D01*
X022292Y014647D01*
X022503Y014730D02*
X022503Y014730D01*
X022503Y014889D02*
X022503Y014889D01*
X022503Y015047D02*
X022503Y015047D01*
X022503Y015157D02*
X022503Y015157D01*
X022503Y015157D01*
X021993Y015157D01*
X021993Y015368D01*
X022292Y015667D01*
X022503Y015667D01*
X022503Y015157D01*
X022503Y015206D02*
X022503Y015206D01*
X022503Y015364D02*
X022503Y015364D01*
X022503Y015523D02*
X022503Y015523D01*
X022859Y015523D02*
X025205Y015523D01*
X025047Y015364D02*
X023013Y015364D01*
X023013Y015206D02*
X025034Y015206D01*
X025031Y015047D02*
X023013Y015047D01*
X022956Y014889D02*
X024873Y014889D01*
X024714Y014730D02*
X022797Y014730D01*
X022050Y014889D02*
X020756Y014889D01*
X020714Y014847D02*
X021013Y015146D01*
X021013Y015357D01*
X020503Y015357D01*
X020503Y015357D01*
X020503Y014847D01*
X020714Y014847D01*
X020503Y014847D02*
X020503Y015357D01*
X020503Y015357D01*
X021013Y015357D01*
X021013Y015568D01*
X020714Y015867D01*
X020503Y015867D01*
X020503Y015357D01*
X019993Y015357D01*
X019993Y015146D01*
X020292Y014847D01*
X020503Y014847D01*
X020503Y014889D02*
X020503Y014889D01*
X020503Y015047D02*
X020503Y015047D01*
X020503Y015206D02*
X020503Y015206D01*
X020503Y015357D02*
X020503Y015357D01*
X020503Y015357D01*
X019993Y015357D01*
X019993Y015568D01*
X020292Y015867D01*
X020503Y015867D01*
X020503Y015357D01*
X020503Y015364D02*
X020503Y015364D01*
X020503Y015523D02*
X020503Y015523D01*
X020503Y015681D02*
X020503Y015681D01*
X020503Y015840D02*
X020503Y015840D01*
X020742Y015840D02*
X025942Y015840D01*
X026100Y015998D02*
X019650Y015998D01*
X019650Y015840D02*
X020264Y015840D01*
X020106Y015681D02*
X019842Y015681D01*
X019972Y015523D02*
X019993Y015523D01*
X019993Y015364D02*
X019972Y015364D01*
X019972Y015206D02*
X019993Y015206D01*
X020092Y015047D02*
X019856Y015047D01*
X019698Y014889D02*
X020250Y014889D01*
X020914Y015047D02*
X021993Y015047D01*
X021993Y015206D02*
X021013Y015206D01*
X021013Y015364D02*
X021993Y015364D01*
X022147Y015523D02*
X021013Y015523D01*
X020900Y015681D02*
X025783Y015681D01*
X026129Y015523D02*
X028197Y015523D01*
X028207Y015364D02*
X025971Y015364D01*
X025972Y015206D02*
X028379Y015206D01*
X028516Y015206D02*
X029311Y015206D01*
X029311Y015047D02*
X025972Y015047D01*
X025898Y014889D02*
X029311Y014889D01*
X029311Y014730D02*
X025739Y014730D01*
X025266Y014730D02*
X025219Y014730D01*
X025060Y014572D02*
X029320Y014572D01*
X029311Y014413D02*
X024902Y014413D01*
X024743Y014255D02*
X029311Y014255D01*
X029311Y014096D02*
X024585Y014096D01*
X024426Y013938D02*
X029311Y013938D01*
X029923Y012353D02*
X022841Y012353D01*
X022683Y012194D02*
X029923Y012194D01*
X029923Y012036D02*
X022524Y012036D01*
X022846Y011877D02*
X025160Y011877D01*
X025846Y011877D02*
X029923Y011877D01*
X029923Y011719D02*
X025972Y011719D01*
X025972Y011560D02*
X029923Y011560D01*
X029923Y011402D02*
X025972Y011402D01*
X026062Y011243D02*
X029923Y011243D01*
X029923Y011085D02*
X026146Y011085D01*
X026146Y010926D02*
X029923Y010926D01*
X029923Y010768D02*
X026146Y010768D01*
X026146Y010609D02*
X029923Y010609D01*
X029765Y010451D02*
X026146Y010451D01*
X026146Y010292D02*
X029607Y010292D01*
X029448Y010134D02*
X026146Y010134D01*
X026146Y009975D02*
X029290Y009975D01*
X029131Y009817D02*
X026146Y009817D01*
X026146Y009658D02*
X028973Y009658D01*
X028814Y009500D02*
X026146Y009500D01*
X026146Y009341D02*
X028656Y009341D01*
X028497Y009183D02*
X026288Y009183D01*
X026401Y009024D02*
X028427Y009024D01*
X028427Y008866D02*
X026434Y008866D01*
X026408Y008707D02*
X028427Y008707D01*
X028488Y008549D02*
X026305Y008549D01*
X026277Y008390D02*
X028647Y008390D01*
X028779Y008232D02*
X026436Y008232D01*
X026594Y008073D02*
X028625Y008073D01*
X028652Y007598D02*
X026354Y007598D01*
X026121Y007439D02*
X028762Y007439D01*
X028603Y007281D02*
X026108Y007281D01*
X025898Y007281D02*
X025595Y007281D01*
X025595Y007439D02*
X025884Y007439D01*
X025652Y007598D02*
X025595Y007598D01*
X025238Y007598D02*
X024426Y007598D01*
X024472Y007551D02*
X024197Y007826D01*
X023809Y007826D01*
X023534Y007551D01*
X023534Y007163D01*
X023809Y006888D01*
X024197Y006888D01*
X024472Y007163D01*
X024472Y007551D01*
X024472Y007439D02*
X025238Y007439D01*
X025238Y007281D02*
X024472Y007281D01*
X024431Y007122D02*
X025238Y007122D01*
X025238Y006964D02*
X024273Y006964D01*
X024197Y006826D02*
X023809Y006826D01*
X023534Y006551D01*
X023534Y006163D01*
X023809Y005888D01*
X024197Y005888D01*
X024472Y006163D01*
X024472Y006551D01*
X024197Y006826D01*
X024218Y006805D02*
X025238Y006805D01*
X025238Y006647D02*
X024377Y006647D01*
X024472Y006488D02*
X025238Y006488D01*
X025238Y006330D02*
X024472Y006330D01*
X024472Y006171D02*
X025238Y006171D01*
X025238Y006013D02*
X024322Y006013D01*
X023735Y005854D02*
X025238Y005854D01*
X025238Y005696D02*
X023893Y005696D01*
X024052Y005537D02*
X025238Y005537D01*
X025238Y005379D02*
X024210Y005379D01*
X024369Y005220D02*
X025238Y005220D01*
X025238Y005062D02*
X024527Y005062D01*
X024610Y004903D02*
X024685Y004903D01*
X024022Y005062D02*
X023154Y005062D01*
X023154Y005220D02*
X023864Y005220D01*
X023705Y005379D02*
X023154Y005379D01*
X023154Y005537D02*
X023547Y005537D01*
X023388Y005696D02*
X023154Y005696D01*
X023144Y005854D02*
X023230Y005854D01*
X023576Y006013D02*
X023684Y006013D01*
X023534Y006171D02*
X023472Y006171D01*
X023472Y006330D02*
X023534Y006330D01*
X023534Y006488D02*
X023472Y006488D01*
X023377Y006647D02*
X023629Y006647D01*
X023788Y006805D02*
X023218Y006805D01*
X023197Y006888D02*
X023472Y007163D01*
X023472Y007551D01*
X023197Y007826D01*
X022809Y007826D01*
X022534Y007551D01*
X022534Y007163D01*
X022809Y006888D01*
X023197Y006888D01*
X023273Y006964D02*
X023733Y006964D01*
X023574Y007122D02*
X023431Y007122D01*
X023472Y007281D02*
X023534Y007281D01*
X023534Y007439D02*
X023472Y007439D01*
X023426Y007598D02*
X023580Y007598D01*
X023739Y007756D02*
X023267Y007756D01*
X022739Y007756D02*
X022267Y007756D01*
X022426Y007598D02*
X022580Y007598D01*
X022534Y007439D02*
X022472Y007439D01*
X022472Y007281D02*
X022534Y007281D01*
X022506Y007122D02*
X022574Y007122D01*
X022642Y006964D02*
X022733Y006964D01*
X022788Y006805D02*
X022642Y006805D01*
X022285Y006805D02*
X022218Y006805D01*
X021788Y006805D02*
X021276Y006805D01*
X021197Y006888D02*
X021472Y007163D01*
X021472Y007551D01*
X021197Y007826D01*
X021146Y007826D01*
X021146Y009236D01*
X021285Y009236D01*
X021366Y009317D01*
X021366Y009649D01*
X021285Y009730D01*
X020697Y009730D01*
X020616Y009650D01*
X019937Y009650D01*
X019794Y009793D01*
X019605Y009871D01*
X019572Y009871D01*
X019742Y010041D01*
X020640Y010041D01*
X020697Y009984D01*
X021285Y009984D01*
X021366Y010065D01*
X021366Y010397D01*
X021285Y010479D01*
X020697Y010479D01*
X020616Y010398D01*
X019594Y010398D01*
X019490Y010293D01*
X018925Y009729D01*
X018820Y009624D01*
X018820Y007711D01*
X018624Y007514D01*
X018624Y007200D01*
X018846Y006978D01*
X019160Y006978D01*
X019382Y007200D01*
X019382Y007514D01*
X019177Y007719D01*
X019177Y008956D01*
X019212Y008921D01*
X019401Y008843D01*
X019605Y008843D01*
X019794Y008921D01*
X019939Y009066D01*
X020017Y009255D01*
X020017Y009293D01*
X020640Y009293D01*
X020697Y009236D01*
X020789Y009236D01*
X020789Y007807D01*
X020534Y007551D01*
X020534Y007163D01*
X020809Y006888D01*
X021197Y006888D01*
X021273Y006964D02*
X021733Y006964D01*
X021574Y007122D02*
X021431Y007122D01*
X021472Y007281D02*
X021534Y007281D01*
X021534Y007439D02*
X021472Y007439D01*
X021426Y007598D02*
X021580Y007598D01*
X021739Y007756D02*
X021267Y007756D01*
X021146Y007915D02*
X025238Y007915D01*
X025238Y008073D02*
X021146Y008073D01*
X021146Y008232D02*
X025238Y008232D01*
X025238Y007756D02*
X024267Y007756D01*
X023410Y008390D02*
X021146Y008390D01*
X021146Y008549D02*
X023252Y008549D01*
X023093Y008707D02*
X021146Y008707D01*
X021146Y008866D02*
X022935Y008866D01*
X022776Y009024D02*
X021146Y009024D01*
X021146Y009183D02*
X022618Y009183D01*
X022459Y009341D02*
X022390Y009341D01*
X021639Y009341D02*
X021366Y009341D01*
X021366Y009500D02*
X021639Y009500D01*
X021623Y009658D02*
X021357Y009658D01*
X021598Y009817D02*
X019737Y009817D01*
X019676Y009975D02*
X021598Y009975D01*
X021598Y009857D02*
X022015Y009857D01*
X021598Y009857D01*
X021639Y010134D02*
X021366Y010134D01*
X021366Y010292D02*
X021639Y010292D01*
X021693Y010451D02*
X021313Y010451D01*
X021852Y010609D02*
X017051Y010609D01*
X017051Y010451D02*
X020669Y010451D01*
X020625Y009658D02*
X019929Y009658D01*
X019987Y009183D02*
X020789Y009183D01*
X020789Y009024D02*
X019897Y009024D01*
X019660Y008866D02*
X020789Y008866D01*
X020789Y008707D02*
X019177Y008707D01*
X019177Y008549D02*
X020789Y008549D01*
X020789Y008390D02*
X019177Y008390D01*
X019177Y008232D02*
X020789Y008232D01*
X020789Y008073D02*
X019177Y008073D01*
X019177Y007915D02*
X020789Y007915D01*
X020739Y007756D02*
X019177Y007756D01*
X019298Y007598D02*
X020580Y007598D01*
X020534Y007439D02*
X019382Y007439D01*
X019382Y007281D02*
X020534Y007281D01*
X020574Y007122D02*
X019304Y007122D01*
X019307Y006647D02*
X020571Y006647D01*
X020493Y006568D02*
X020493Y006377D01*
X020983Y006377D01*
X020983Y006867D01*
X020792Y006867D01*
X020493Y006568D01*
X020493Y006488D02*
X019423Y006488D01*
X019423Y006330D02*
X020493Y006330D01*
X020493Y006171D02*
X019411Y006171D01*
X019003Y006488D02*
X019003Y006488D01*
X019003Y006647D02*
X019003Y006647D01*
X018698Y006647D02*
X018336Y006647D01*
X018177Y006805D02*
X020730Y006805D01*
X020733Y006964D02*
X018019Y006964D01*
X017860Y007122D02*
X018702Y007122D01*
X018624Y007281D02*
X017702Y007281D01*
X017543Y007439D02*
X018624Y007439D01*
X018707Y007598D02*
X017385Y007598D01*
X017226Y007756D02*
X018820Y007756D01*
X018820Y007915D02*
X017068Y007915D01*
X016909Y008073D02*
X018820Y008073D01*
X018820Y008232D02*
X016751Y008232D01*
X016592Y008390D02*
X018820Y008390D01*
X018820Y008549D02*
X016434Y008549D01*
X016275Y008707D02*
X018820Y008707D01*
X018820Y008866D02*
X017796Y008866D01*
X017955Y009024D02*
X018820Y009024D01*
X018820Y009183D02*
X018058Y009183D01*
X018058Y009341D02*
X018820Y009341D01*
X018820Y009500D02*
X018058Y009500D01*
X017987Y009658D02*
X018855Y009658D01*
X018925Y009729D02*
X018925Y009729D01*
X019013Y009817D02*
X017828Y009817D01*
X017503Y009817D02*
X017503Y009817D01*
X017503Y009658D02*
X017503Y009658D01*
X017503Y009500D02*
X017503Y009500D01*
X017503Y009341D02*
X017503Y009341D01*
X017503Y009183D02*
X017503Y009183D01*
X017503Y009024D02*
X017503Y009024D01*
X017503Y008866D02*
X017503Y008866D01*
X017209Y008866D02*
X016233Y008866D01*
X016391Y009024D02*
X017051Y009024D01*
X016948Y009183D02*
X016513Y009183D01*
X016513Y009341D02*
X016800Y009341D01*
X016946Y009341D02*
X016948Y009341D01*
X016632Y009500D02*
X016513Y009500D01*
X016423Y009658D02*
X016623Y009658D01*
X016694Y009817D02*
X016265Y009817D01*
X016003Y009817D02*
X016003Y009817D01*
X016003Y009658D02*
X016003Y009658D01*
X016003Y009500D02*
X016003Y009500D01*
X015752Y009975D02*
X016694Y009975D01*
X016694Y010134D02*
X015752Y010134D01*
X015752Y010292D02*
X016694Y010292D01*
X016694Y010451D02*
X015752Y010451D01*
X015752Y010609D02*
X016694Y010609D01*
X016694Y010768D02*
X015752Y010768D01*
X015752Y010926D02*
X016694Y010926D01*
X016694Y011085D02*
X015752Y011085D01*
X015752Y011243D02*
X016694Y011243D01*
X016694Y011402D02*
X015752Y011402D01*
X015752Y011560D02*
X016694Y011560D01*
X016694Y011719D02*
X015752Y011719D01*
X015752Y011877D02*
X015762Y011877D01*
X016003Y011877D02*
X016003Y011877D01*
X016003Y012036D02*
X016003Y012036D01*
X016003Y012194D02*
X016003Y012194D01*
X016003Y012353D02*
X016003Y012353D01*
X016003Y012511D02*
X016003Y012511D01*
X016003Y012670D02*
X016003Y012670D01*
X016003Y012828D02*
X016003Y012828D01*
X016253Y012828D02*
X016694Y012828D01*
X016694Y012670D02*
X016412Y012670D01*
X016513Y012511D02*
X016694Y012511D01*
X016694Y012353D02*
X016513Y012353D01*
X016513Y012194D02*
X016694Y012194D01*
X016694Y012036D02*
X016403Y012036D01*
X016244Y011877D02*
X016694Y011877D01*
X017051Y011877D02*
X017534Y011877D01*
X017534Y011863D02*
X017809Y011588D01*
X018197Y011588D01*
X018472Y011863D01*
X018472Y011891D01*
X019270Y011891D01*
X019287Y011909D01*
X019309Y011888D01*
X019697Y011888D01*
X019972Y012163D01*
X019972Y012551D01*
X019697Y012826D01*
X019309Y012826D01*
X019034Y012551D01*
X019034Y012248D01*
X018472Y012248D01*
X018472Y012251D01*
X018197Y012526D01*
X017809Y012526D01*
X017534Y012251D01*
X017534Y011863D01*
X017534Y012036D02*
X017051Y012036D01*
X017051Y012194D02*
X017534Y012194D01*
X017635Y012353D02*
X017051Y012353D01*
X017051Y012511D02*
X017794Y012511D01*
X018212Y012511D02*
X019034Y012511D01*
X019034Y012353D02*
X018371Y012353D01*
X018472Y011877D02*
X020262Y011877D01*
X020292Y011847D02*
X020503Y011847D01*
X020714Y011847D01*
X021013Y012146D01*
X021013Y012357D01*
X020503Y012357D01*
X020503Y012357D01*
X020503Y011847D01*
X020503Y012357D01*
X020503Y012357D01*
X021013Y012357D01*
X021013Y012568D01*
X020714Y012867D01*
X020503Y012867D01*
X020503Y012357D01*
X019993Y012357D01*
X019993Y012146D01*
X020292Y011847D01*
X020503Y011877D02*
X020503Y011877D01*
X020503Y012036D02*
X020503Y012036D01*
X020503Y012194D02*
X020503Y012194D01*
X020503Y012353D02*
X020503Y012353D01*
X020503Y012357D02*
X020503Y012357D01*
X020503Y012357D01*
X019993Y012357D01*
X019993Y012568D01*
X020292Y012867D01*
X020503Y012867D01*
X020503Y012357D01*
X020503Y012511D02*
X020503Y012511D01*
X020503Y012670D02*
X020503Y012670D01*
X020503Y012828D02*
X020503Y012828D01*
X020753Y012828D02*
X022812Y012828D01*
X022654Y012670D02*
X020912Y012670D01*
X021013Y012511D02*
X022495Y012511D01*
X022337Y012353D02*
X021013Y012353D01*
X021013Y012194D02*
X022178Y012194D01*
X022020Y012036D02*
X020903Y012036D01*
X020744Y011877D02*
X021861Y011877D01*
X021852Y011719D02*
X018328Y011719D01*
X017678Y011719D02*
X017051Y011719D01*
X017051Y011560D02*
X021852Y011560D01*
X021852Y011402D02*
X017051Y011402D01*
X017051Y011243D02*
X021852Y011243D01*
X021852Y011085D02*
X017051Y011085D01*
X017051Y010926D02*
X021852Y010926D01*
X021852Y010768D02*
X017051Y010768D01*
X017051Y010292D02*
X019489Y010292D01*
X019490Y010293D02*
X019490Y010293D01*
X019330Y010134D02*
X017051Y010134D01*
X017051Y009975D02*
X019172Y009975D01*
X019177Y008866D02*
X019346Y008866D01*
X017177Y009817D02*
X017051Y009817D01*
X015612Y008866D02*
X015477Y008866D01*
X015477Y008707D02*
X015771Y008707D01*
X015929Y008549D02*
X015477Y008549D01*
X015477Y008390D02*
X016088Y008390D01*
X016246Y008232D02*
X015477Y008232D01*
X015477Y008073D02*
X016405Y008073D01*
X016563Y007915D02*
X015477Y007915D01*
X015477Y007756D02*
X016722Y007756D01*
X016880Y007598D02*
X015477Y007598D01*
X015477Y007439D02*
X017039Y007439D01*
X017197Y007281D02*
X015543Y007281D01*
X015701Y007122D02*
X017356Y007122D01*
X017514Y006964D02*
X015772Y006964D01*
X015772Y006805D02*
X017673Y006805D01*
X017831Y006647D02*
X015756Y006647D01*
X015597Y006488D02*
X017990Y006488D01*
X018148Y006330D02*
X008362Y006330D01*
X008362Y006488D02*
X011408Y006488D01*
X011509Y006388D02*
X011897Y006388D01*
X012172Y006663D01*
X012172Y007051D01*
X011897Y007326D01*
X011509Y007326D01*
X011234Y007051D01*
X011234Y006663D01*
X011509Y006388D01*
X011250Y006647D02*
X008362Y006647D01*
X008362Y006805D02*
X011234Y006805D01*
X011234Y006964D02*
X008362Y006964D01*
X008362Y007122D02*
X011305Y007122D01*
X011463Y007281D02*
X008362Y007281D01*
X008362Y007439D02*
X015120Y007439D01*
X015120Y007598D02*
X013707Y007598D01*
X013865Y007756D02*
X015120Y007756D01*
X015120Y007915D02*
X013972Y007915D01*
X013972Y008073D02*
X015120Y008073D01*
X015120Y008232D02*
X013972Y008232D01*
X013833Y008390D02*
X015120Y008390D01*
X015120Y008549D02*
X013284Y008549D01*
X013193Y008707D02*
X015120Y008707D01*
X015120Y008866D02*
X013193Y008866D01*
X013193Y009024D02*
X014672Y009024D01*
X014534Y009183D02*
X013193Y009183D01*
X013193Y009341D02*
X014534Y009341D01*
X014534Y009500D02*
X013193Y009500D01*
X013193Y009658D02*
X014641Y009658D01*
X014799Y009817D02*
X013193Y009817D01*
X013193Y009975D02*
X015395Y009975D01*
X015395Y009817D02*
X015207Y009817D01*
X015365Y009658D02*
X015395Y009658D01*
X015395Y010134D02*
X013193Y010134D01*
X013193Y010292D02*
X015395Y010292D01*
X015395Y010451D02*
X013193Y010451D01*
X013193Y010609D02*
X015395Y010609D01*
X015395Y010768D02*
X013193Y010768D01*
X013193Y010926D02*
X015395Y010926D01*
X015395Y011085D02*
X013193Y011085D01*
X013193Y011243D02*
X013253Y011243D01*
X012836Y011243D02*
X012204Y011243D01*
X012051Y011090D02*
X012577Y011616D01*
X012681Y011720D01*
X012681Y014348D01*
X012487Y014543D01*
X012505Y014585D01*
X012505Y014752D01*
X012441Y014906D01*
X012323Y015023D01*
X012169Y015087D01*
X012002Y015087D01*
X011848Y015023D01*
X011730Y014906D01*
X011666Y014752D01*
X011666Y014585D01*
X011730Y014431D01*
X011848Y014313D01*
X012002Y014249D01*
X012169Y014249D01*
X012245Y014280D01*
X012324Y014201D01*
X012324Y014022D01*
X012323Y014023D01*
X012169Y014087D01*
X012002Y014087D01*
X011848Y014023D01*
X011730Y013906D01*
X011666Y013752D01*
X011666Y013585D01*
X011730Y013431D01*
X011734Y013427D01*
X011734Y012339D01*
X011599Y012339D01*
X011566Y012306D01*
X011564Y012310D01*
X011531Y012344D01*
X011490Y012367D01*
X011444Y012380D01*
X011212Y012380D01*
X011212Y011952D01*
X011116Y011952D01*
X011116Y011856D01*
X011212Y011856D01*
X011212Y011429D01*
X011444Y011429D01*
X011490Y011441D01*
X011531Y011465D01*
X011564Y011499D01*
X011566Y011502D01*
X011599Y011470D01*
X011926Y011470D01*
X011694Y011238D01*
X011694Y010689D01*
X011532Y010689D01*
X011499Y010657D01*
X011497Y010661D01*
X011464Y010694D01*
X011423Y010718D01*
X011377Y010730D01*
X011145Y010730D01*
X011145Y010303D01*
X011049Y010303D01*
X011049Y010207D01*
X010661Y010207D01*
X010661Y009936D01*
X010674Y009890D01*
X010697Y009849D01*
X010731Y009815D01*
X010772Y009792D01*
X010818Y009780D01*
X011049Y009780D01*
X011049Y010207D01*
X011145Y010207D01*
X011145Y009780D01*
X011377Y009780D01*
X011423Y009792D01*
X011464Y009815D01*
X011497Y009849D01*
X011499Y009853D01*
X011532Y009820D01*
X012159Y009820D01*
X012240Y009902D01*
X012240Y010608D01*
X012159Y010689D01*
X012051Y010689D01*
X012051Y011090D01*
X012051Y011085D02*
X012836Y011085D01*
X012836Y010926D02*
X012051Y010926D01*
X012051Y010768D02*
X012836Y010768D01*
X012836Y010609D02*
X012239Y010609D01*
X012240Y010451D02*
X012836Y010451D01*
X012836Y010292D02*
X012240Y010292D01*
X012240Y010134D02*
X012836Y010134D01*
X012836Y009975D02*
X012240Y009975D01*
X012836Y009817D02*
X011465Y009817D01*
X011145Y009817D02*
X011049Y009817D01*
X011049Y009975D02*
X011145Y009975D01*
X011145Y010134D02*
X011049Y010134D01*
X011049Y010292D02*
X010612Y010292D01*
X010661Y010303D02*
X011049Y010303D01*
X011049Y010730D01*
X010818Y010730D01*
X010772Y010718D01*
X010731Y010694D01*
X010697Y010661D01*
X010674Y010620D01*
X010661Y010574D01*
X010661Y010303D01*
X010661Y010451D02*
X010612Y010451D01*
X010612Y010609D02*
X010671Y010609D01*
X010612Y010768D02*
X011694Y010768D01*
X011694Y010926D02*
X010612Y010926D01*
X010612Y011085D02*
X011694Y011085D01*
X011700Y011243D02*
X010612Y011243D01*
X010612Y011402D02*
X011858Y011402D01*
X012363Y011402D02*
X012836Y011402D01*
X012836Y011560D02*
X012521Y011560D01*
X012680Y011719D02*
X012836Y011719D01*
X012836Y011877D02*
X012681Y011877D01*
X012681Y012036D02*
X012836Y012036D01*
X012836Y012194D02*
X012681Y012194D01*
X012681Y012353D02*
X012836Y012353D01*
X012836Y012511D02*
X012681Y012511D01*
X012681Y012670D02*
X012836Y012670D01*
X012836Y012828D02*
X012681Y012828D01*
X012681Y012987D02*
X012892Y012987D01*
X013050Y013145D02*
X012681Y013145D01*
X012681Y013304D02*
X013209Y013304D01*
X013420Y013462D02*
X012681Y013462D01*
X012681Y013621D02*
X015395Y013621D01*
X015395Y013779D02*
X012681Y013779D01*
X012681Y013938D02*
X015395Y013938D01*
X015395Y014096D02*
X012681Y014096D01*
X012681Y014255D02*
X015395Y014255D01*
X015395Y014413D02*
X012616Y014413D01*
X012499Y014572D02*
X015395Y014572D01*
X015395Y014730D02*
X012505Y014730D01*
X012448Y014889D02*
X014808Y014889D01*
X014649Y015047D02*
X012266Y015047D01*
X011905Y015047D02*
X011530Y015047D01*
X011534Y015060D02*
X011546Y015132D01*
X011546Y015168D01*
X011086Y015168D01*
X011086Y015168D01*
X011546Y015168D01*
X011546Y015204D01*
X011534Y015276D01*
X011512Y015345D01*
X011479Y015409D01*
X011436Y015468D01*
X011385Y015519D01*
X011327Y015562D01*
X011262Y015594D01*
X011193Y015617D01*
X011122Y015628D01*
X011086Y015628D01*
X011086Y015168D01*
X011086Y014708D01*
X011122Y014708D01*
X011193Y014720D01*
X011262Y014742D01*
X011327Y014775D01*
X011385Y014817D01*
X011436Y014869D01*
X011479Y014927D01*
X011512Y014992D01*
X011534Y015060D01*
X011545Y015206D02*
X014534Y015206D01*
X014534Y015364D02*
X011502Y015364D01*
X011380Y015523D02*
X011689Y015523D01*
X011727Y015485D02*
X011866Y015427D01*
X012017Y015427D01*
X012157Y015485D01*
X012263Y015591D01*
X012321Y015731D01*
X012321Y015881D01*
X012263Y016021D01*
X012157Y016127D01*
X012017Y016185D01*
X011866Y016185D01*
X011727Y016127D01*
X011620Y016021D01*
X011563Y015881D01*
X011563Y015731D01*
X011620Y015591D01*
X011727Y015485D01*
X011583Y015681D02*
X010612Y015681D01*
X010612Y015523D02*
X010791Y015523D01*
X010786Y015519D02*
X010735Y015468D01*
X010692Y015409D01*
X010659Y015345D01*
X010637Y015276D01*
X010626Y015204D01*
X010626Y015168D01*
X010626Y015132D01*
X010637Y015060D01*
X010659Y014992D01*
X010692Y014927D01*
X010735Y014869D01*
X010786Y014817D01*
X010844Y014775D01*
X010909Y014742D01*
X010978Y014720D01*
X011049Y014708D01*
X011086Y014708D01*
X011086Y015168D01*
X011086Y015168D01*
X011086Y015168D01*
X011085Y015168D02*
X010626Y015168D01*
X011085Y015168D01*
X011085Y015168D01*
X011086Y015168D02*
X011086Y015628D01*
X011049Y015628D01*
X010978Y015617D01*
X010909Y015594D01*
X010844Y015562D01*
X010786Y015519D01*
X010669Y015364D02*
X010612Y015364D01*
X010612Y015206D02*
X010626Y015206D01*
X010612Y015047D02*
X010641Y015047D01*
X010612Y014889D02*
X010720Y014889D01*
X010612Y014730D02*
X010945Y014730D01*
X011086Y014730D02*
X011086Y014730D01*
X011226Y014730D02*
X011666Y014730D01*
X011672Y014572D02*
X011206Y014572D01*
X011169Y014587D02*
X011323Y014523D01*
X011441Y014406D01*
X011505Y014252D01*
X011505Y014085D01*
X011441Y013931D01*
X011323Y013813D01*
X011169Y013749D01*
X011002Y013749D01*
X010848Y013813D01*
X010730Y013931D01*
X010666Y014085D01*
X010666Y014252D01*
X010730Y014406D01*
X010848Y014523D01*
X011002Y014587D01*
X011169Y014587D01*
X010965Y014572D02*
X010612Y014572D01*
X010612Y014413D02*
X010738Y014413D01*
X010668Y014255D02*
X010612Y014255D01*
X010612Y014096D02*
X010666Y014096D01*
X010612Y013938D02*
X010727Y013938D01*
X010612Y013779D02*
X010930Y013779D01*
X011241Y013779D02*
X011678Y013779D01*
X011666Y013621D02*
X010612Y013621D01*
X010612Y013462D02*
X011717Y013462D01*
X011734Y013304D02*
X010612Y013304D01*
X010612Y013145D02*
X011734Y013145D01*
X011734Y012987D02*
X010612Y012987D01*
X010612Y012828D02*
X011734Y012828D01*
X011734Y012670D02*
X010612Y012670D01*
X010612Y012511D02*
X011734Y012511D01*
X011734Y012353D02*
X011515Y012353D01*
X011212Y012353D02*
X011116Y012353D01*
X011116Y012380D02*
X010885Y012380D01*
X010839Y012367D01*
X010798Y012344D01*
X010764Y012310D01*
X010741Y012269D01*
X010728Y012223D01*
X010728Y011952D01*
X011116Y011952D01*
X011116Y012380D01*
X011116Y012194D02*
X011212Y012194D01*
X011212Y012036D02*
X011116Y012036D01*
X011116Y011877D02*
X010612Y011877D01*
X010728Y011856D02*
X010728Y011585D01*
X010741Y011540D01*
X010764Y011499D01*
X010798Y011465D01*
X010839Y011441D01*
X010885Y011429D01*
X011116Y011429D01*
X011116Y011856D01*
X010728Y011856D01*
X010728Y011719D02*
X010612Y011719D01*
X010612Y011560D02*
X010735Y011560D01*
X011116Y011560D02*
X011212Y011560D01*
X011212Y011719D02*
X011116Y011719D01*
X010728Y012036D02*
X010612Y012036D01*
X010612Y012194D02*
X010728Y012194D01*
X010813Y012353D02*
X010612Y012353D01*
X011444Y013938D02*
X011762Y013938D01*
X011505Y014096D02*
X012324Y014096D01*
X012270Y014255D02*
X012182Y014255D01*
X011989Y014255D02*
X011503Y014255D01*
X011433Y014413D02*
X011748Y014413D01*
X011723Y014889D02*
X011451Y014889D01*
X011086Y014889D02*
X011086Y014889D01*
X011086Y015047D02*
X011086Y015047D01*
X011086Y015206D02*
X011086Y015206D01*
X011086Y015364D02*
X011086Y015364D01*
X011086Y015523D02*
X011086Y015523D01*
X010612Y015840D02*
X011563Y015840D01*
X011611Y015998D02*
X010612Y015998D01*
X010612Y016157D02*
X011798Y016157D01*
X012086Y016157D02*
X012975Y016157D01*
X012975Y016315D02*
X010612Y016315D01*
X010612Y016474D02*
X012983Y016474D01*
X013141Y016632D02*
X010612Y016632D01*
X010612Y016791D02*
X013947Y016791D01*
X013788Y016949D02*
X010612Y016949D01*
X010612Y017108D02*
X011025Y017108D01*
X011068Y017083D02*
X010980Y017133D01*
X010900Y017195D01*
X010828Y017267D01*
X010767Y017347D01*
X010716Y017435D01*
X010677Y017528D01*
X010651Y017626D01*
X010642Y017697D01*
X011923Y017697D01*
X012083Y017697D01*
X012083Y017857D01*
X013364Y017857D01*
X013355Y017928D01*
X013328Y018026D01*
X013290Y018120D01*
X013239Y018207D01*
X013177Y018288D01*
X013106Y018359D01*
X013025Y018421D01*
X012938Y018471D01*
X012844Y018510D01*
X012746Y018536D01*
X012646Y018550D01*
X012083Y018550D01*
X012083Y017857D01*
X011923Y017857D01*
X011923Y017697D01*
X011923Y017005D01*
X011360Y017005D01*
X011259Y017018D01*
X011161Y017044D01*
X011068Y017083D01*
X010829Y017266D02*
X010612Y017266D01*
X010600Y017425D02*
X010722Y017425D01*
X010663Y017583D02*
X010564Y017583D01*
X010528Y017742D02*
X011923Y017742D01*
X011923Y017857D02*
X010642Y017857D01*
X010651Y017928D01*
X010677Y018026D01*
X010716Y018120D01*
X010767Y018207D01*
X010828Y018288D01*
X010900Y018359D01*
X010980Y018421D01*
X011068Y018471D01*
X011161Y018510D01*
X011259Y018536D01*
X011360Y018550D01*
X011923Y018550D01*
X011923Y017857D01*
X011923Y017900D02*
X012083Y017900D01*
X012083Y017742D02*
X015923Y017742D01*
X015923Y017697D02*
X014642Y017697D01*
X014651Y017626D01*
X014677Y017528D01*
X014716Y017435D01*
X014767Y017347D01*
X014828Y017267D01*
X014900Y017195D01*
X014980Y017133D01*
X015068Y017083D01*
X015161Y017044D01*
X015259Y017018D01*
X015360Y017005D01*
X015923Y017005D01*
X015923Y017697D01*
X016083Y017697D01*
X016083Y017857D01*
X017364Y017857D01*
X017355Y017928D01*
X017328Y018026D01*
X017290Y018120D01*
X017239Y018207D01*
X017177Y018288D01*
X017106Y018359D01*
X017025Y018421D01*
X016938Y018471D01*
X016844Y018510D01*
X016746Y018536D01*
X016646Y018550D01*
X016083Y018550D01*
X016083Y017857D01*
X015923Y017857D01*
X015923Y017697D01*
X015923Y017583D02*
X016083Y017583D01*
X016083Y017697D02*
X016083Y017005D01*
X016646Y017005D01*
X016746Y017018D01*
X016844Y017044D01*
X016938Y017083D01*
X017025Y017133D01*
X017106Y017195D01*
X017177Y017267D01*
X017239Y017347D01*
X017290Y017435D01*
X017328Y017528D01*
X017355Y017626D01*
X017364Y017697D01*
X016083Y017697D01*
X016083Y017742D02*
X017726Y017742D01*
X017884Y017900D02*
X017358Y017900D01*
X017315Y018059D02*
X018043Y018059D01*
X018201Y018217D02*
X017231Y018217D01*
X017084Y018376D02*
X018360Y018376D01*
X018518Y018534D02*
X016755Y018534D01*
X016903Y018693D02*
X018677Y018693D01*
X018835Y018851D02*
X017124Y018851D01*
X017243Y019010D02*
X018994Y019010D01*
X019152Y019168D02*
X017309Y019168D01*
X017327Y019327D02*
X019311Y019327D01*
X019469Y019485D02*
X017327Y019485D01*
X017268Y019644D02*
X019628Y019644D01*
X019786Y019802D02*
X017185Y019802D01*
X016915Y020278D02*
X018175Y020278D01*
X018333Y020436D02*
X017129Y020436D01*
X017245Y020595D02*
X018141Y020595D01*
X017982Y020753D02*
X017311Y020753D01*
X017327Y020912D02*
X017919Y020912D01*
X017919Y021070D02*
X017327Y021070D01*
X017266Y021229D02*
X017943Y021229D01*
X018101Y021387D02*
X017180Y021387D01*
X017021Y021546D02*
X019246Y021546D01*
X019405Y021704D02*
X008362Y021704D01*
X008362Y021546D02*
X010984Y021546D01*
X010826Y021387D02*
X008362Y021387D01*
X008362Y021229D02*
X010739Y021229D01*
X010679Y021070D02*
X008362Y021070D01*
X008362Y020912D02*
X010679Y020912D01*
X010695Y020753D02*
X008362Y020753D01*
X008362Y020595D02*
X010760Y020595D01*
X010877Y020436D02*
X008362Y020436D01*
X008362Y020278D02*
X011091Y020278D01*
X010979Y019961D02*
X008362Y019961D01*
X008362Y020119D02*
X012505Y020119D01*
X013185Y019802D02*
X014821Y019802D01*
X014737Y019644D02*
X013268Y019644D01*
X013327Y019485D02*
X014679Y019485D01*
X014679Y019327D02*
X013327Y019327D01*
X013309Y019168D02*
X014697Y019168D01*
X014762Y019010D02*
X013243Y019010D01*
X013124Y018851D02*
X014882Y018851D01*
X015103Y018693D02*
X012903Y018693D01*
X012755Y018534D02*
X015251Y018534D01*
X015259Y018536D02*
X015161Y018510D01*
X015068Y018471D01*
X014980Y018421D01*
X014900Y018359D01*
X014828Y018288D01*
X014767Y018207D01*
X014716Y018120D01*
X014677Y018026D01*
X014651Y017928D01*
X014642Y017857D01*
X015923Y017857D01*
X015923Y018550D01*
X015360Y018550D01*
X015259Y018536D01*
X014921Y018376D02*
X013084Y018376D01*
X013231Y018217D02*
X014774Y018217D01*
X014691Y018059D02*
X013315Y018059D01*
X013358Y017900D02*
X014647Y017900D01*
X014663Y017583D02*
X013770Y017583D01*
X013862Y017425D02*
X014722Y017425D01*
X014829Y017266D02*
X013976Y017266D01*
X014135Y017108D02*
X015025Y017108D01*
X014610Y016632D02*
X016694Y016632D01*
X016694Y016474D02*
X014769Y016474D01*
X014927Y016315D02*
X016694Y016315D01*
X016694Y016157D02*
X015086Y016157D01*
X015244Y015998D02*
X016694Y015998D01*
X016694Y015840D02*
X016242Y015840D01*
X016400Y015681D02*
X016694Y015681D01*
X016694Y015523D02*
X016513Y015523D01*
X016513Y015364D02*
X016694Y015364D01*
X016694Y015206D02*
X016513Y015206D01*
X016414Y015047D02*
X016694Y015047D01*
X016694Y014889D02*
X016256Y014889D01*
X016003Y014889D02*
X016003Y014889D01*
X016003Y015047D02*
X016003Y015047D01*
X016003Y015206D02*
X016003Y015206D01*
X016003Y015364D02*
X016003Y015364D01*
X016003Y015523D02*
X016003Y015523D01*
X016003Y015681D02*
X016003Y015681D01*
X016003Y015840D02*
X016003Y015840D01*
X015764Y015840D02*
X015403Y015840D01*
X015561Y015681D02*
X015606Y015681D01*
X014898Y015840D02*
X014773Y015840D01*
X014739Y015998D02*
X014614Y015998D01*
X014581Y016157D02*
X014456Y016157D01*
X014422Y016315D02*
X014297Y016315D01*
X014264Y016474D02*
X013905Y016474D01*
X013746Y016632D02*
X014105Y016632D01*
X014293Y016949D02*
X016933Y016949D01*
X016981Y017108D02*
X017092Y017108D01*
X017177Y017266D02*
X017250Y017266D01*
X017284Y017425D02*
X017409Y017425D01*
X017343Y017583D02*
X017567Y017583D01*
X017596Y017108D02*
X017789Y017108D01*
X017947Y016949D02*
X017438Y016949D01*
X017279Y016791D02*
X018514Y016791D01*
X018672Y016632D02*
X017121Y016632D01*
X017051Y016474D02*
X018831Y016474D01*
X018989Y016315D02*
X017051Y016315D01*
X017051Y016157D02*
X019148Y016157D01*
X019293Y015998D02*
X018325Y015998D01*
X018197Y016126D02*
X017809Y016126D01*
X017534Y015851D01*
X017534Y015463D01*
X017809Y015188D01*
X018197Y015188D01*
X018472Y015463D01*
X018472Y015851D01*
X018197Y016126D01*
X018472Y015840D02*
X019293Y015840D01*
X019164Y015681D02*
X018472Y015681D01*
X018472Y015523D02*
X019034Y015523D01*
X019034Y015364D02*
X018373Y015364D01*
X018215Y015206D02*
X019034Y015206D01*
X019149Y015047D02*
X017051Y015047D01*
X017051Y014889D02*
X019308Y014889D01*
X019650Y016157D02*
X026259Y016157D01*
X026417Y016315D02*
X019494Y016315D01*
X019335Y016474D02*
X033931Y016474D01*
X033875Y016632D02*
X019177Y016632D01*
X019018Y016791D02*
X033882Y016791D01*
X033959Y016949D02*
X022058Y016949D01*
X021997Y016888D02*
X022272Y017163D01*
X022272Y017551D01*
X021997Y017826D01*
X021609Y017826D01*
X021334Y017551D01*
X021334Y017163D01*
X021609Y016888D01*
X021997Y016888D01*
X022217Y017108D02*
X034203Y017108D01*
X034258Y017232D02*
X034186Y017243D01*
X034118Y017266D01*
X034053Y017298D01*
X033995Y017341D01*
X033943Y017392D01*
X033901Y017451D01*
X033868Y017515D01*
X033845Y017584D01*
X033834Y017656D01*
X033834Y017692D01*
X034294Y017692D01*
X034294Y018152D01*
X034258Y018152D01*
X034186Y018140D01*
X034118Y018118D01*
X034053Y018085D01*
X033995Y018043D01*
X033943Y017991D01*
X033901Y017933D01*
X033868Y017868D01*
X033845Y017800D01*
X033834Y017728D01*
X033834Y017692D01*
X034294Y017692D01*
X034294Y017692D01*
X034294Y017692D01*
X034294Y018152D01*
X034330Y018152D01*
X034402Y018140D01*
X034471Y018118D01*
X034535Y018085D01*
X034594Y018043D01*
X034645Y017991D01*
X034688Y017933D01*
X034720Y017868D01*
X034743Y017800D01*
X034754Y017728D01*
X034754Y017692D01*
X034294Y017692D01*
X034294Y017692D01*
X034294Y017692D01*
X034294Y017232D01*
X034258Y017232D01*
X034294Y017232D02*
X034330Y017232D01*
X034402Y017243D01*
X034471Y017266D01*
X034535Y017298D01*
X034594Y017341D01*
X034645Y017392D01*
X034688Y017451D01*
X034720Y017515D01*
X034743Y017584D01*
X034754Y017656D01*
X034754Y017692D01*
X034294Y017692D01*
X034294Y017232D01*
X034294Y017266D02*
X034294Y017266D01*
X034294Y017425D02*
X034294Y017425D01*
X034294Y017583D02*
X034294Y017583D01*
X034294Y017742D02*
X034294Y017742D01*
X034294Y017900D02*
X034294Y017900D01*
X034294Y018059D02*
X034294Y018059D01*
X034017Y018059D02*
X018547Y018059D01*
X018706Y018217D02*
X035631Y018217D01*
X035631Y018059D02*
X034572Y018059D01*
X034704Y017900D02*
X035631Y017900D01*
X035631Y017742D02*
X034752Y017742D01*
X034743Y017583D02*
X035144Y017583D01*
X034937Y017425D02*
X034669Y017425D01*
X034472Y017266D02*
X034875Y017266D01*
X034875Y017108D02*
X034385Y017108D01*
X034629Y016949D02*
X034846Y016949D01*
X034116Y017266D02*
X022272Y017266D01*
X022272Y017425D02*
X033920Y017425D01*
X033846Y017583D02*
X022240Y017583D01*
X022082Y017742D02*
X033836Y017742D01*
X033884Y017900D02*
X018389Y017900D01*
X018482Y017742D02*
X021524Y017742D01*
X021366Y017583D02*
X018640Y017583D01*
X018672Y017425D02*
X021334Y017425D01*
X021334Y017266D02*
X018672Y017266D01*
X018701Y017108D02*
X021389Y017108D01*
X021547Y016949D02*
X018860Y016949D01*
X017681Y015998D02*
X017051Y015998D01*
X017051Y015840D02*
X017534Y015840D01*
X017534Y015681D02*
X017051Y015681D01*
X017051Y015523D02*
X017534Y015523D01*
X017632Y015364D02*
X017051Y015364D01*
X017051Y015206D02*
X017791Y015206D01*
X016694Y014730D02*
X015752Y014730D01*
X015752Y014572D02*
X016694Y014572D01*
X016694Y014413D02*
X015752Y014413D01*
X015752Y014255D02*
X016694Y014255D01*
X016694Y014096D02*
X015752Y014096D01*
X015752Y013938D02*
X016694Y013938D01*
X016694Y013779D02*
X015752Y013779D01*
X015752Y013621D02*
X016694Y013621D01*
X016694Y013462D02*
X015752Y013462D01*
X015752Y013304D02*
X016694Y013304D01*
X016694Y013145D02*
X015752Y013145D01*
X015752Y012987D02*
X016694Y012987D01*
X017051Y012987D02*
X022971Y012987D01*
X023129Y013145D02*
X017051Y013145D01*
X017051Y012828D02*
X020253Y012828D01*
X020094Y012670D02*
X019854Y012670D01*
X019972Y012511D02*
X019993Y012511D01*
X019993Y012353D02*
X019972Y012353D01*
X019972Y012194D02*
X019993Y012194D01*
X020103Y012036D02*
X019845Y012036D01*
X019152Y012670D02*
X017051Y012670D01*
X015395Y012670D02*
X015354Y012670D01*
X015395Y012828D02*
X013913Y012828D01*
X013913Y012670D02*
X014652Y012670D01*
X014534Y012511D02*
X013913Y012511D01*
X013788Y012353D02*
X014534Y012353D01*
X014534Y012194D02*
X013193Y012194D01*
X013193Y012036D02*
X013218Y012036D01*
X013788Y012036D02*
X014421Y012036D01*
X014263Y011877D02*
X013946Y011877D01*
X013911Y011402D02*
X015395Y011402D01*
X015395Y011560D02*
X014450Y011560D01*
X014609Y011719D02*
X015395Y011719D01*
X015395Y011877D02*
X014767Y011877D01*
X015345Y012036D02*
X015395Y012036D01*
X015395Y011243D02*
X013752Y011243D01*
X013792Y012987D02*
X015395Y012987D01*
X015395Y013145D02*
X013738Y013145D01*
X013727Y013304D02*
X015395Y013304D01*
X015395Y013462D02*
X013554Y013462D01*
X015198Y014889D02*
X015395Y014889D01*
X015395Y015047D02*
X015356Y015047D01*
X014534Y015523D02*
X012195Y015523D01*
X012301Y015681D02*
X014426Y015681D01*
X014268Y015840D02*
X013675Y015840D01*
X013834Y015998D02*
X014109Y015998D01*
X014452Y016791D02*
X016775Y016791D01*
X016083Y017108D02*
X015923Y017108D01*
X015923Y017266D02*
X016083Y017266D01*
X016083Y017425D02*
X015923Y017425D01*
X015923Y017900D02*
X016083Y017900D01*
X016083Y018059D02*
X015923Y018059D01*
X015923Y018217D02*
X016083Y018217D01*
X016083Y018376D02*
X015923Y018376D01*
X015923Y018534D02*
X016083Y018534D01*
X018363Y019961D02*
X019945Y019961D01*
X020103Y020119D02*
X018521Y020119D01*
X018680Y020278D02*
X020262Y020278D01*
X020420Y020436D02*
X018838Y020436D01*
X018997Y020595D02*
X020579Y020595D01*
X020737Y020753D02*
X019155Y020753D01*
X019314Y020912D02*
X020896Y020912D01*
X021054Y021070D02*
X019472Y021070D01*
X019631Y021229D02*
X021213Y021229D01*
X021371Y021387D02*
X019789Y021387D01*
X019948Y021546D02*
X021530Y021546D01*
X021688Y021704D02*
X020106Y021704D01*
X020265Y021863D02*
X021847Y021863D01*
X022005Y022021D02*
X020423Y022021D01*
X020582Y022180D02*
X020900Y022180D01*
X021106Y022180D02*
X021900Y022180D01*
X022106Y022180D02*
X022164Y022180D01*
X022351Y021863D02*
X034899Y021863D01*
X035057Y021704D02*
X022193Y021704D01*
X022034Y021546D02*
X035216Y021546D01*
X035403Y021863D02*
X035699Y021863D01*
X035779Y021704D02*
X035562Y021704D01*
X035720Y021546D02*
X035860Y021546D01*
X035879Y021387D02*
X035941Y021387D01*
X035988Y021229D02*
X036022Y021229D01*
X035988Y021070D02*
X036073Y021070D01*
X036125Y020912D02*
X035988Y020912D01*
X035988Y020753D02*
X036176Y020753D01*
X036228Y020595D02*
X035988Y020595D01*
X035988Y020436D02*
X036269Y020436D01*
X036294Y020278D02*
X035988Y020278D01*
X035988Y020119D02*
X036319Y020119D01*
X036344Y019961D02*
X035988Y019961D01*
X035988Y019802D02*
X036369Y019802D01*
X036383Y019644D02*
X035988Y019644D01*
X035988Y019485D02*
X036389Y019485D01*
X036394Y019327D02*
X035988Y019327D01*
X035988Y019168D02*
X036394Y019168D01*
X036394Y019010D02*
X035988Y019010D01*
X035988Y018851D02*
X036394Y018851D01*
X036394Y018693D02*
X035988Y018693D01*
X035988Y018534D02*
X036394Y018534D01*
X036394Y018376D02*
X035988Y018376D01*
X035988Y018217D02*
X036394Y018217D01*
X036394Y018059D02*
X035988Y018059D01*
X035988Y017900D02*
X036394Y017900D01*
X036394Y017742D02*
X035988Y017742D01*
X035988Y017583D02*
X036394Y017583D01*
X036394Y017425D02*
X035988Y017425D01*
X035988Y017266D02*
X036394Y017266D01*
X036394Y017108D02*
X035988Y017108D01*
X035988Y016949D02*
X036394Y016949D01*
X036394Y016791D02*
X035988Y016791D01*
X035979Y016632D02*
X036394Y016632D01*
X036394Y016474D02*
X035821Y016474D01*
X035697Y016315D02*
X036394Y016315D01*
X036394Y016157D02*
X035713Y016157D01*
X035668Y015998D02*
X036394Y015998D01*
X036394Y015840D02*
X035535Y015840D01*
X035556Y015523D02*
X036394Y015523D01*
X036394Y015681D02*
X035028Y015681D01*
X035032Y015523D02*
X034870Y015523D01*
X035676Y015364D02*
X036394Y015364D01*
X036394Y015206D02*
X035713Y015206D01*
X035688Y015047D02*
X036394Y015047D01*
X036394Y014889D02*
X035584Y014889D01*
X034810Y013462D02*
X036394Y013462D01*
X036394Y013304D02*
X034724Y013304D01*
X035444Y017583D02*
X035631Y017583D01*
X035631Y018376D02*
X018864Y018376D01*
X019023Y018534D02*
X035631Y018534D01*
X035631Y018693D02*
X019181Y018693D01*
X019340Y018851D02*
X035631Y018851D01*
X035631Y019010D02*
X035483Y019010D01*
X034929Y019010D02*
X034809Y019010D01*
X034809Y019168D02*
X034929Y019168D01*
X034929Y019327D02*
X034809Y019327D01*
X034809Y019485D02*
X034929Y019485D01*
X034929Y019644D02*
X034809Y019644D01*
X034809Y019802D02*
X034929Y019802D01*
X034929Y019961D02*
X034809Y019961D01*
X034809Y020119D02*
X034929Y020119D01*
X035548Y020119D02*
X035631Y020119D01*
X035631Y020278D02*
X020766Y020278D01*
X020925Y020436D02*
X034242Y020436D01*
X034019Y020595D02*
X026042Y020595D01*
X025996Y020576D02*
X026157Y020642D01*
X026281Y020766D01*
X026347Y020927D01*
X026347Y021102D01*
X026281Y021263D01*
X026157Y021387D01*
X025996Y021454D01*
X025821Y021454D01*
X025660Y021387D01*
X025536Y021263D01*
X025469Y021102D01*
X025469Y020927D01*
X025536Y020766D01*
X025660Y020642D01*
X025821Y020576D01*
X025996Y020576D01*
X025775Y020595D02*
X025042Y020595D01*
X024996Y020576D02*
X025157Y020642D01*
X025281Y020766D01*
X025347Y020927D01*
X025347Y021102D01*
X025281Y021263D01*
X025157Y021387D01*
X024996Y021454D01*
X024821Y021454D01*
X024660Y021387D01*
X024536Y021263D01*
X024469Y021102D01*
X024469Y020927D01*
X024536Y020766D01*
X024660Y020642D01*
X024821Y020576D01*
X024996Y020576D01*
X024775Y020595D02*
X024042Y020595D01*
X023775Y020595D02*
X022235Y020595D01*
X022394Y020753D02*
X023549Y020753D01*
X023522Y021229D02*
X022433Y021229D01*
X022275Y021387D02*
X023660Y021387D01*
X024156Y021387D02*
X024660Y021387D01*
X024522Y021229D02*
X024295Y021229D01*
X024347Y021070D02*
X024469Y021070D01*
X024476Y020912D02*
X024341Y020912D01*
X024268Y020753D02*
X024549Y020753D01*
X025268Y020753D02*
X025549Y020753D01*
X025476Y020912D02*
X025341Y020912D01*
X025347Y021070D02*
X025469Y021070D01*
X025522Y021229D02*
X025295Y021229D01*
X025156Y021387D02*
X025660Y021387D01*
X026156Y021387D02*
X034090Y021387D01*
X033957Y021229D02*
X026295Y021229D01*
X026347Y021070D02*
X033891Y021070D01*
X033890Y020912D02*
X026341Y020912D01*
X026268Y020753D02*
X033928Y020753D01*
X034190Y020119D02*
X020608Y020119D01*
X020449Y019961D02*
X033986Y019961D01*
X033891Y019802D02*
X020291Y019802D01*
X020132Y019644D02*
X033852Y019644D01*
X033856Y019485D02*
X019974Y019485D01*
X019815Y019327D02*
X033903Y019327D01*
X034010Y019168D02*
X019657Y019168D01*
X019498Y019010D02*
X034255Y019010D01*
X035496Y020436D02*
X035631Y020436D01*
X035594Y022021D02*
X035245Y022021D01*
X035086Y022180D02*
X035479Y022180D01*
X035364Y022338D02*
X034928Y022338D01*
X034769Y022497D02*
X035249Y022497D01*
X035100Y022655D02*
X034611Y022655D01*
X034452Y022814D02*
X034942Y022814D01*
X034783Y022972D02*
X034294Y022972D01*
X034135Y023131D02*
X034605Y023131D01*
X034386Y023289D02*
X032299Y023289D01*
X032407Y023448D02*
X034168Y023448D01*
X033904Y023606D02*
X032437Y023606D01*
X032408Y023765D02*
X033593Y023765D01*
X033229Y023923D02*
X032301Y023923D01*
X032741Y024082D02*
X010045Y024082D01*
X010040Y024082D02*
X010021Y024082D01*
X009984Y024082D01*
X009965Y024082D01*
X009892Y024071D01*
X009820Y024048D01*
X009754Y024014D01*
X009693Y023970D01*
X009640Y023917D01*
X009596Y023856D01*
X009562Y023790D01*
X009539Y023718D01*
X009528Y023645D01*
X009528Y023626D01*
X009984Y023626D01*
X009984Y024082D01*
X009961Y024082D02*
X008362Y024082D01*
X008362Y024240D02*
X031707Y024240D01*
X031705Y023923D02*
X031301Y023923D01*
X031408Y023765D02*
X031598Y023765D01*
X031569Y023606D02*
X031437Y023606D01*
X031407Y023448D02*
X031599Y023448D01*
X031707Y023289D02*
X031299Y023289D01*
X031387Y022814D02*
X031618Y022814D01*
X031569Y022655D02*
X031437Y022655D01*
X031427Y022497D02*
X031578Y022497D01*
X031658Y022338D02*
X031348Y022338D01*
X031106Y022180D02*
X031900Y022180D01*
X032106Y022180D02*
X034582Y022180D01*
X034740Y022021D02*
X022510Y022021D01*
X022668Y022180D02*
X022900Y022180D01*
X023106Y022180D02*
X023900Y022180D01*
X024106Y022180D02*
X024900Y022180D01*
X025106Y022180D02*
X025900Y022180D01*
X026106Y022180D02*
X026900Y022180D01*
X027106Y022180D02*
X027900Y022180D01*
X028106Y022180D02*
X028900Y022180D01*
X029106Y022180D02*
X029900Y022180D01*
X030106Y022180D02*
X030900Y022180D01*
X030658Y022338D02*
X030348Y022338D01*
X030427Y022497D02*
X030578Y022497D01*
X030569Y022655D02*
X030437Y022655D01*
X030387Y022814D02*
X030618Y022814D01*
X030707Y023289D02*
X030299Y023289D01*
X030407Y023448D02*
X030599Y023448D01*
X030569Y023606D02*
X030437Y023606D01*
X030408Y023765D02*
X030598Y023765D01*
X030705Y023923D02*
X030301Y023923D01*
X029705Y023923D02*
X029301Y023923D01*
X029408Y023765D02*
X029598Y023765D01*
X029569Y023606D02*
X029437Y023606D01*
X029407Y023448D02*
X029599Y023448D01*
X029707Y023289D02*
X029299Y023289D01*
X029387Y022814D02*
X029618Y022814D01*
X029569Y022655D02*
X029437Y022655D01*
X029427Y022497D02*
X029578Y022497D01*
X029658Y022338D02*
X029348Y022338D01*
X028658Y022338D02*
X028348Y022338D01*
X028427Y022497D02*
X028578Y022497D01*
X028569Y022655D02*
X028437Y022655D01*
X028387Y022814D02*
X028618Y022814D01*
X028707Y023289D02*
X028299Y023289D01*
X028407Y023448D02*
X028599Y023448D01*
X028569Y023606D02*
X028437Y023606D01*
X028408Y023765D02*
X028598Y023765D01*
X028705Y023923D02*
X028301Y023923D01*
X027705Y023923D02*
X027301Y023923D01*
X027408Y023765D02*
X027598Y023765D01*
X027569Y023606D02*
X027437Y023606D01*
X027407Y023448D02*
X027599Y023448D01*
X027707Y023289D02*
X027299Y023289D01*
X027387Y022814D02*
X027618Y022814D01*
X027569Y022655D02*
X027437Y022655D01*
X027427Y022497D02*
X027578Y022497D01*
X027658Y022338D02*
X027348Y022338D01*
X026658Y022338D02*
X026348Y022338D01*
X026427Y022497D02*
X026578Y022497D01*
X026569Y022655D02*
X026437Y022655D01*
X026387Y022814D02*
X026618Y022814D01*
X026707Y023289D02*
X026299Y023289D01*
X026407Y023448D02*
X026599Y023448D01*
X026569Y023606D02*
X026437Y023606D01*
X026408Y023765D02*
X026598Y023765D01*
X026705Y023923D02*
X026301Y023923D01*
X025705Y023923D02*
X025301Y023923D01*
X025408Y023765D02*
X025598Y023765D01*
X025569Y023606D02*
X025437Y023606D01*
X025407Y023448D02*
X025599Y023448D01*
X025707Y023289D02*
X025299Y023289D01*
X025387Y022814D02*
X025618Y022814D01*
X025569Y022655D02*
X025437Y022655D01*
X025427Y022497D02*
X025578Y022497D01*
X025658Y022338D02*
X025348Y022338D01*
X024658Y022338D02*
X024348Y022338D01*
X024427Y022497D02*
X024578Y022497D01*
X024569Y022655D02*
X024437Y022655D01*
X024387Y022814D02*
X024618Y022814D01*
X024610Y023289D02*
X024707Y023289D01*
X024599Y023448D02*
X024520Y023448D01*
X024569Y023606D02*
X024437Y023606D01*
X024408Y023765D02*
X024598Y023765D01*
X024705Y023923D02*
X024301Y023923D01*
X023705Y023923D02*
X023301Y023923D01*
X023408Y023765D02*
X023598Y023765D01*
X023569Y023606D02*
X023437Y023606D01*
X023407Y023448D02*
X023599Y023448D01*
X023618Y022814D02*
X023387Y022814D01*
X023437Y022655D02*
X023569Y022655D01*
X023578Y022497D02*
X023427Y022497D01*
X023348Y022338D02*
X023658Y022338D01*
X022599Y023448D02*
X022407Y023448D01*
X022437Y023606D02*
X022569Y023606D01*
X022598Y023765D02*
X022408Y023765D01*
X022301Y023923D02*
X022705Y023923D01*
X021705Y023923D02*
X021301Y023923D01*
X021408Y023765D02*
X021598Y023765D01*
X021569Y023606D02*
X021437Y023606D01*
X021407Y023448D02*
X021599Y023448D01*
X021618Y022814D02*
X021387Y022814D01*
X021437Y022655D02*
X021569Y022655D01*
X021578Y022497D02*
X021427Y022497D01*
X021348Y022338D02*
X021658Y022338D01*
X020599Y023448D02*
X020407Y023448D01*
X020437Y023606D02*
X020569Y023606D01*
X020598Y023765D02*
X020408Y023765D01*
X020301Y023923D02*
X020705Y023923D01*
X019705Y023923D02*
X019301Y023923D01*
X019408Y023765D02*
X019598Y023765D01*
X019569Y023606D02*
X019437Y023606D01*
X019407Y023448D02*
X019599Y023448D01*
X019754Y022972D02*
X019252Y022972D01*
X019387Y022814D02*
X019618Y022814D01*
X019569Y022655D02*
X019437Y022655D01*
X019427Y022497D02*
X019578Y022497D01*
X019658Y022338D02*
X019348Y022338D01*
X019106Y022180D02*
X019880Y022180D01*
X019722Y022021D02*
X008362Y022021D01*
X008362Y021863D02*
X019563Y021863D01*
X019088Y021387D02*
X018675Y021387D01*
X018833Y021229D02*
X018929Y021229D01*
X018900Y022180D02*
X018106Y022180D01*
X017900Y022180D02*
X017106Y022180D01*
X016900Y022180D02*
X016106Y022180D01*
X015900Y022180D02*
X015106Y022180D01*
X014900Y022180D02*
X014106Y022180D01*
X013900Y022180D02*
X013106Y022180D01*
X012900Y022180D02*
X012106Y022180D01*
X011900Y022180D02*
X011106Y022180D01*
X010900Y022180D02*
X010420Y022180D01*
X010409Y022168D02*
X010442Y022201D01*
X010466Y022242D01*
X010478Y022288D01*
X010478Y022589D01*
X010021Y022589D01*
X010021Y022132D01*
X010322Y022132D01*
X010368Y022144D01*
X010409Y022168D01*
X010478Y022338D02*
X010658Y022338D01*
X010578Y022497D02*
X010478Y022497D01*
X010478Y022626D02*
X010021Y022626D01*
X009984Y022626D01*
X009984Y023082D01*
X009684Y023082D01*
X009638Y023070D01*
X009597Y023046D01*
X009564Y023013D01*
X009540Y022972D01*
X009528Y022926D01*
X009528Y022626D01*
X009984Y022626D01*
X009984Y022589D01*
X009528Y022589D01*
X009528Y022288D01*
X009540Y022242D01*
X009564Y022201D01*
X009597Y022168D01*
X009638Y022144D01*
X009684Y022132D01*
X009984Y022132D01*
X009984Y022589D01*
X010021Y022589D01*
X010021Y022626D01*
X010021Y023082D01*
X010322Y023082D01*
X010368Y023070D01*
X010409Y023046D01*
X010442Y023013D01*
X010466Y022972D01*
X010478Y022926D01*
X010478Y022626D01*
X010478Y022655D02*
X010569Y022655D01*
X010618Y022814D02*
X010478Y022814D01*
X010466Y022972D02*
X010754Y022972D01*
X010916Y023173D02*
X010757Y023239D01*
X010635Y023361D01*
X010569Y023521D01*
X010569Y023694D01*
X010635Y023853D01*
X010757Y023975D01*
X010916Y024041D01*
X011089Y024041D01*
X011249Y023975D01*
X011371Y023853D01*
X011437Y023694D01*
X011437Y023521D01*
X011371Y023361D01*
X011249Y023239D01*
X011089Y023173D01*
X010916Y023173D01*
X010707Y023289D02*
X010357Y023289D01*
X010365Y023298D02*
X010409Y023358D01*
X010443Y023425D01*
X010466Y023496D01*
X010478Y023570D01*
X010478Y023589D01*
X010021Y023589D01*
X010021Y023132D01*
X010040Y023132D01*
X010114Y023144D01*
X010185Y023167D01*
X010252Y023201D01*
X010312Y023245D01*
X010365Y023298D01*
X010451Y023448D02*
X010599Y023448D01*
X010569Y023606D02*
X010021Y023606D01*
X010021Y023589D02*
X010021Y023626D01*
X009984Y023626D01*
X009984Y023589D01*
X009528Y023589D01*
X009528Y023570D01*
X009539Y023496D01*
X009562Y023425D01*
X009596Y023358D01*
X009640Y023298D01*
X009693Y023245D01*
X009754Y023201D01*
X009820Y023167D01*
X009892Y023144D01*
X009965Y023132D01*
X009984Y023132D01*
X009984Y023589D01*
X010021Y023589D01*
X010021Y023626D02*
X010478Y023626D01*
X010478Y023645D01*
X010466Y023718D01*
X010443Y023790D01*
X010409Y023856D01*
X010365Y023917D01*
X010312Y023970D01*
X010252Y024014D01*
X010185Y024048D01*
X010114Y024071D01*
X010040Y024082D01*
X010021Y024082D02*
X010021Y023626D01*
X009984Y023606D02*
X008362Y023606D01*
X008362Y023448D02*
X009555Y023448D01*
X009649Y023289D02*
X008362Y023289D01*
X008362Y023131D02*
X011697Y023131D01*
X011707Y023289D02*
X011299Y023289D01*
X011407Y023448D02*
X011599Y023448D01*
X011569Y023606D02*
X011437Y023606D01*
X011408Y023765D02*
X011598Y023765D01*
X011705Y023923D02*
X011301Y023923D01*
X010705Y023923D02*
X010359Y023923D01*
X010451Y023765D02*
X010598Y023765D01*
X010021Y023765D02*
X009984Y023765D01*
X009984Y023923D02*
X010021Y023923D01*
X009647Y023923D02*
X008362Y023923D01*
X008362Y023765D02*
X009554Y023765D01*
X009984Y023448D02*
X010021Y023448D01*
X010021Y023289D02*
X009984Y023289D01*
X009984Y022972D02*
X010021Y022972D01*
X010021Y022814D02*
X009984Y022814D01*
X009984Y022655D02*
X010021Y022655D01*
X010021Y022497D02*
X009984Y022497D01*
X009984Y022338D02*
X010021Y022338D01*
X010021Y022180D02*
X009984Y022180D01*
X009585Y022180D02*
X008362Y022180D01*
X008362Y022338D02*
X009528Y022338D01*
X009528Y022497D02*
X008362Y022497D01*
X008362Y022655D02*
X009528Y022655D01*
X009528Y022814D02*
X008362Y022814D01*
X008362Y022972D02*
X009540Y022972D01*
X011252Y022972D02*
X011539Y022972D01*
X011568Y022497D02*
X011578Y022497D01*
X011658Y022338D02*
X011348Y022338D01*
X012348Y022338D02*
X012658Y022338D01*
X012578Y022497D02*
X012427Y022497D01*
X012437Y022655D02*
X012569Y022655D01*
X012618Y022814D02*
X012387Y022814D01*
X012252Y022972D02*
X012754Y022972D01*
X013252Y022972D02*
X013754Y022972D01*
X013618Y022814D02*
X013387Y022814D01*
X013437Y022655D02*
X013569Y022655D01*
X013578Y022497D02*
X013427Y022497D01*
X013348Y022338D02*
X013658Y022338D01*
X014348Y022338D02*
X014658Y022338D01*
X014578Y022497D02*
X014427Y022497D01*
X014437Y022655D02*
X014569Y022655D01*
X014618Y022814D02*
X014387Y022814D01*
X014252Y022972D02*
X014754Y022972D01*
X015252Y022972D02*
X015754Y022972D01*
X015618Y022814D02*
X015387Y022814D01*
X015437Y022655D02*
X015569Y022655D01*
X015578Y022497D02*
X015427Y022497D01*
X015348Y022338D02*
X015658Y022338D01*
X016348Y022338D02*
X016658Y022338D01*
X016578Y022497D02*
X016427Y022497D01*
X016437Y022655D02*
X016569Y022655D01*
X016618Y022814D02*
X016387Y022814D01*
X016252Y022972D02*
X016754Y022972D01*
X017252Y022972D02*
X017754Y022972D01*
X017618Y022814D02*
X017387Y022814D01*
X017437Y022655D02*
X017569Y022655D01*
X017578Y022497D02*
X017427Y022497D01*
X017348Y022338D02*
X017658Y022338D01*
X018348Y022338D02*
X018658Y022338D01*
X018578Y022497D02*
X018427Y022497D01*
X018437Y022655D02*
X018569Y022655D01*
X018618Y022814D02*
X018387Y022814D01*
X018252Y022972D02*
X018754Y022972D01*
X018599Y023448D02*
X018407Y023448D01*
X018437Y023606D02*
X018569Y023606D01*
X018598Y023765D02*
X018408Y023765D01*
X018301Y023923D02*
X018705Y023923D01*
X017705Y023923D02*
X017301Y023923D01*
X017408Y023765D02*
X017598Y023765D01*
X017569Y023606D02*
X017437Y023606D01*
X017407Y023448D02*
X017599Y023448D01*
X016599Y023448D02*
X016407Y023448D01*
X016437Y023606D02*
X016569Y023606D01*
X016598Y023765D02*
X016408Y023765D01*
X016301Y023923D02*
X016705Y023923D01*
X015705Y023923D02*
X015301Y023923D01*
X015408Y023765D02*
X015598Y023765D01*
X015569Y023606D02*
X015437Y023606D01*
X015407Y023448D02*
X015599Y023448D01*
X014599Y023448D02*
X014407Y023448D01*
X014437Y023606D02*
X014569Y023606D01*
X014598Y023765D02*
X014408Y023765D01*
X014301Y023923D02*
X014705Y023923D01*
X013705Y023923D02*
X013301Y023923D01*
X013408Y023765D02*
X013598Y023765D01*
X013569Y023606D02*
X013437Y023606D01*
X013407Y023448D02*
X013599Y023448D01*
X012599Y023448D02*
X012407Y023448D01*
X012437Y023606D02*
X012569Y023606D01*
X012598Y023765D02*
X012408Y023765D01*
X012301Y023923D02*
X012705Y023923D01*
X013021Y021546D02*
X014984Y021546D01*
X014826Y021387D02*
X013180Y021387D01*
X013266Y021229D02*
X014739Y021229D01*
X012083Y018534D02*
X011923Y018534D01*
X011923Y018376D02*
X012083Y018376D01*
X012083Y018217D02*
X011923Y018217D01*
X011923Y018059D02*
X012083Y018059D01*
X012083Y017697D02*
X013364Y017697D01*
X013355Y017626D01*
X013328Y017528D01*
X013290Y017435D01*
X013239Y017347D01*
X013177Y017267D01*
X013106Y017195D01*
X013025Y017133D01*
X012938Y017083D01*
X012844Y017044D01*
X012746Y017018D01*
X012646Y017005D01*
X012083Y017005D01*
X012083Y017697D01*
X012083Y017583D02*
X011923Y017583D01*
X011923Y017425D02*
X012083Y017425D01*
X012083Y017266D02*
X011923Y017266D01*
X011923Y017108D02*
X012083Y017108D01*
X012981Y017108D02*
X013630Y017108D01*
X013376Y017266D02*
X013177Y017266D01*
X013284Y017425D02*
X013348Y017425D01*
X013343Y017583D02*
X013440Y017583D01*
X013054Y015998D02*
X012273Y015998D01*
X012321Y015840D02*
X013212Y015840D01*
X010647Y017900D02*
X010489Y017900D01*
X010413Y018059D02*
X010691Y018059D01*
X010774Y018217D02*
X010336Y018217D01*
X010258Y018376D02*
X010921Y018376D01*
X011103Y018693D02*
X010006Y018693D01*
X009931Y018786D02*
X009931Y018786D01*
X009849Y018851D02*
X010882Y018851D01*
X010762Y019010D02*
X009651Y019010D01*
X009410Y019168D02*
X010697Y019168D01*
X010679Y019327D02*
X009081Y019327D01*
X008362Y019485D02*
X010679Y019485D01*
X010737Y019644D02*
X008362Y019644D01*
X008362Y019802D02*
X010821Y019802D01*
X011251Y018534D02*
X010132Y018534D01*
X021083Y020595D02*
X021741Y020595D01*
X021582Y020753D02*
X021242Y020753D01*
X021400Y020912D02*
X021519Y020912D01*
X026446Y015840D02*
X028783Y015840D01*
X028742Y015681D02*
X028575Y015681D01*
X028320Y015681D02*
X026288Y015681D01*
X024997Y013779D02*
X024268Y013779D01*
X024261Y013621D02*
X024962Y013621D01*
X024003Y013145D02*
X024003Y013145D01*
X024003Y012987D02*
X024003Y012987D01*
X024003Y012828D02*
X024003Y012828D01*
X024003Y012670D02*
X024003Y012670D01*
X022015Y009857D02*
X022015Y009857D01*
X025595Y007122D02*
X025658Y007122D01*
X025623Y006647D02*
X025595Y006647D01*
X025595Y006488D02*
X025766Y006488D01*
X025595Y006330D02*
X028427Y006330D01*
X028427Y006488D02*
X026240Y006488D01*
X026383Y006647D02*
X028427Y006647D01*
X028427Y006805D02*
X026434Y006805D01*
X026426Y006964D02*
X028427Y006964D01*
X028445Y007122D02*
X026348Y007122D01*
X026299Y006171D02*
X028464Y006171D01*
X028571Y006013D02*
X026406Y006013D01*
X026434Y005854D02*
X028571Y005854D01*
X028571Y005696D02*
X026403Y005696D01*
X026293Y005537D02*
X028571Y005537D01*
X028757Y004975D02*
X028635Y004853D01*
X028569Y004694D01*
X028569Y004521D01*
X028635Y004361D01*
X028757Y004239D01*
X028916Y004173D01*
X029089Y004173D01*
X029249Y004239D01*
X029371Y004361D01*
X029437Y004521D01*
X029437Y004694D01*
X029371Y004853D01*
X029249Y004975D01*
X029089Y005041D01*
X028916Y005041D01*
X028757Y004975D01*
X028685Y004903D02*
X028321Y004903D01*
X028371Y004853D02*
X028249Y004975D01*
X028089Y005041D01*
X027916Y005041D01*
X027757Y004975D01*
X027635Y004853D01*
X027569Y004694D01*
X027569Y004521D01*
X027635Y004361D01*
X027757Y004239D01*
X027916Y004173D01*
X028089Y004173D01*
X028249Y004239D01*
X028371Y004361D01*
X028437Y004521D01*
X028437Y004694D01*
X028371Y004853D01*
X028416Y004745D02*
X028590Y004745D01*
X028569Y004586D02*
X028437Y004586D01*
X028399Y004428D02*
X028607Y004428D01*
X028727Y004269D02*
X028279Y004269D01*
X028249Y003975D02*
X028089Y004041D01*
X027916Y004041D01*
X027757Y003975D01*
X027635Y003853D01*
X027569Y003694D01*
X027569Y003521D01*
X027635Y003361D01*
X027757Y003239D01*
X027916Y003173D01*
X028089Y003173D01*
X028249Y003239D01*
X028371Y003361D01*
X028437Y003521D01*
X028437Y003694D01*
X028371Y003853D01*
X028249Y003975D01*
X028272Y003952D02*
X028734Y003952D01*
X028757Y003975D02*
X028635Y003853D01*
X028569Y003694D01*
X028569Y003521D01*
X028635Y003361D01*
X028757Y003239D01*
X028916Y003173D01*
X029089Y003173D01*
X029249Y003239D01*
X029371Y003361D01*
X029437Y003521D01*
X029437Y003694D01*
X029371Y003853D01*
X029249Y003975D01*
X029089Y004041D01*
X028916Y004041D01*
X028757Y003975D01*
X028610Y003794D02*
X028396Y003794D01*
X028437Y003635D02*
X028569Y003635D01*
X028587Y003477D02*
X028419Y003477D01*
X028328Y003318D02*
X028678Y003318D01*
X029328Y003318D02*
X029678Y003318D01*
X029635Y003361D02*
X029757Y003239D01*
X029916Y003173D01*
X030089Y003173D01*
X030249Y003239D01*
X030371Y003361D01*
X030437Y003521D01*
X030437Y003694D01*
X030371Y003853D01*
X030249Y003975D01*
X030089Y004041D01*
X029916Y004041D01*
X029757Y003975D01*
X029635Y003853D01*
X029569Y003694D01*
X029569Y003521D01*
X029635Y003361D01*
X029587Y003477D02*
X029419Y003477D01*
X029437Y003635D02*
X029569Y003635D01*
X029610Y003794D02*
X029396Y003794D01*
X029272Y003952D02*
X029734Y003952D01*
X029916Y004173D02*
X030089Y004173D01*
X030249Y004239D01*
X030371Y004361D01*
X030437Y004521D01*
X030437Y004694D01*
X030371Y004853D01*
X030249Y004975D01*
X030089Y005041D01*
X029916Y005041D01*
X029757Y004975D01*
X029635Y004853D01*
X029569Y004694D01*
X029569Y004521D01*
X029635Y004361D01*
X029757Y004239D01*
X029916Y004173D01*
X029727Y004269D02*
X029279Y004269D01*
X029399Y004428D02*
X029607Y004428D01*
X029569Y004586D02*
X029437Y004586D01*
X029416Y004745D02*
X029590Y004745D01*
X029685Y004903D02*
X029321Y004903D01*
X030321Y004903D02*
X030630Y004903D01*
X030548Y004745D02*
X030416Y004745D01*
X030437Y004586D02*
X030528Y004586D01*
X030561Y004428D02*
X030399Y004428D01*
X030279Y004269D02*
X030669Y004269D01*
X030820Y004048D02*
X030754Y004014D01*
X030693Y003970D01*
X030640Y003917D01*
X030596Y003856D01*
X030562Y003790D01*
X030539Y003718D01*
X030528Y003645D01*
X030528Y003626D01*
X030984Y003626D01*
X030984Y004082D01*
X030965Y004082D01*
X030892Y004071D01*
X030820Y004048D01*
X030676Y003952D02*
X030272Y003952D01*
X030396Y003794D02*
X030564Y003794D01*
X030528Y003635D02*
X030437Y003635D01*
X030419Y003477D02*
X030545Y003477D01*
X030625Y003318D02*
X030328Y003318D01*
X030984Y003318D02*
X031021Y003318D01*
X031021Y003477D02*
X030984Y003477D01*
X030984Y003589D02*
X031021Y003589D01*
X031021Y003626D01*
X030984Y003626D01*
X030984Y003589D01*
X030984Y003635D02*
X031021Y003635D01*
X031021Y003626D02*
X031021Y004082D01*
X031040Y004082D01*
X031114Y004071D01*
X031185Y004048D01*
X031252Y004014D01*
X031312Y003970D01*
X031365Y003917D01*
X031409Y003856D01*
X031443Y003790D01*
X031466Y003718D01*
X031478Y003645D01*
X031478Y003626D01*
X031021Y003626D01*
X031021Y003794D02*
X030984Y003794D01*
X030984Y003952D02*
X031021Y003952D01*
X031330Y003952D02*
X031676Y003952D01*
X031693Y003970D02*
X031640Y003917D01*
X031596Y003856D01*
X031562Y003790D01*
X031539Y003718D01*
X031528Y003645D01*
X031528Y003626D01*
X031984Y003626D01*
X031984Y004082D01*
X031965Y004082D01*
X031892Y004071D01*
X031820Y004048D01*
X031754Y004014D01*
X031693Y003970D01*
X031564Y003794D02*
X031441Y003794D01*
X031478Y003635D02*
X031528Y003635D01*
X031545Y003477D02*
X031460Y003477D01*
X031380Y003318D02*
X031625Y003318D01*
X031984Y003318D02*
X032021Y003318D01*
X032021Y003477D02*
X031984Y003477D01*
X031984Y003589D02*
X032021Y003589D01*
X032021Y003626D01*
X031984Y003626D01*
X031984Y003589D01*
X031984Y003635D02*
X032021Y003635D01*
X032021Y003626D02*
X032021Y004082D01*
X032040Y004082D01*
X032114Y004071D01*
X032185Y004048D01*
X032252Y004014D01*
X032312Y003970D01*
X032365Y003917D01*
X032409Y003856D01*
X032443Y003790D01*
X032466Y003718D01*
X032478Y003645D01*
X032478Y003626D01*
X032021Y003626D01*
X032021Y003794D02*
X031984Y003794D01*
X031984Y003952D02*
X032021Y003952D01*
X032330Y003952D02*
X034424Y003952D01*
X034642Y004111D02*
X025595Y004111D01*
X025595Y004269D02*
X025727Y004269D01*
X025607Y004428D02*
X025595Y004428D01*
X025595Y003952D02*
X025734Y003952D01*
X025610Y003794D02*
X025595Y003794D01*
X024734Y003952D02*
X024272Y003952D01*
X024396Y003794D02*
X024610Y003794D01*
X024569Y003635D02*
X024437Y003635D01*
X024419Y003477D02*
X024587Y003477D01*
X024658Y004111D02*
X013193Y004111D01*
X013272Y003952D02*
X013734Y003952D01*
X013610Y003794D02*
X013512Y003794D01*
X013757Y004239D02*
X013916Y004173D01*
X014089Y004173D01*
X014249Y004239D01*
X014371Y004361D01*
X014437Y004521D01*
X014437Y004694D01*
X014371Y004853D01*
X014249Y004975D01*
X014089Y005041D01*
X013916Y005041D01*
X013757Y004975D01*
X013635Y004853D01*
X013569Y004694D01*
X013569Y004521D01*
X013635Y004361D01*
X013757Y004239D01*
X013727Y004269D02*
X013279Y004269D01*
X013399Y004428D02*
X013607Y004428D01*
X013569Y004586D02*
X013437Y004586D01*
X013416Y004745D02*
X013590Y004745D01*
X013685Y004903D02*
X013321Y004903D01*
X012685Y004903D02*
X012321Y004903D01*
X012416Y004745D02*
X012590Y004745D01*
X012569Y004586D02*
X012437Y004586D01*
X012399Y004428D02*
X012607Y004428D01*
X012727Y004269D02*
X012279Y004269D01*
X012169Y004111D02*
X012836Y004111D01*
X012734Y003952D02*
X012272Y003952D01*
X011813Y004111D02*
X011185Y004111D01*
X011185Y004213D02*
X011249Y004239D01*
X011371Y004361D01*
X011437Y004521D01*
X011437Y004694D01*
X011371Y004853D01*
X011249Y004975D01*
X011089Y005041D01*
X010916Y005041D01*
X010757Y004975D01*
X010635Y004853D01*
X010569Y004694D01*
X010569Y004521D01*
X010635Y004361D01*
X010757Y004239D01*
X010828Y004209D01*
X010828Y004005D01*
X010757Y003975D01*
X010635Y003853D01*
X010569Y003694D01*
X010569Y003521D01*
X010635Y003361D01*
X010757Y003239D01*
X010916Y003173D01*
X011089Y003173D01*
X011249Y003239D01*
X011371Y003361D01*
X011437Y003521D01*
X011437Y003694D01*
X011371Y003853D01*
X011249Y003975D01*
X011185Y004002D01*
X011185Y004213D01*
X011279Y004269D02*
X011727Y004269D01*
X011607Y004428D02*
X011399Y004428D01*
X011437Y004586D02*
X011569Y004586D01*
X011590Y004745D02*
X011416Y004745D01*
X011321Y004903D02*
X011685Y004903D01*
X010685Y004903D02*
X010375Y004903D01*
X010365Y004917D02*
X010312Y004970D01*
X010252Y005014D01*
X010185Y005048D01*
X010114Y005071D01*
X010040Y005082D01*
X010021Y005082D01*
X010021Y004626D01*
X009984Y004626D01*
X009984Y005082D01*
X009965Y005082D01*
X009892Y005071D01*
X009820Y005048D01*
X009754Y005014D01*
X009693Y004970D01*
X009640Y004917D01*
X009596Y004856D01*
X009562Y004790D01*
X009539Y004718D01*
X009528Y004645D01*
X009528Y004626D01*
X009984Y004626D01*
X009984Y004589D01*
X009528Y004589D01*
X009528Y004570D01*
X009539Y004496D01*
X009562Y004425D01*
X009596Y004358D01*
X009640Y004298D01*
X009693Y004245D01*
X009754Y004201D01*
X009820Y004167D01*
X009892Y004144D01*
X009965Y004132D01*
X009984Y004132D01*
X009984Y004589D01*
X010021Y004589D01*
X010021Y004132D01*
X010040Y004132D01*
X010114Y004144D01*
X010185Y004167D01*
X010252Y004201D01*
X010312Y004245D01*
X010365Y004298D01*
X010409Y004358D01*
X010443Y004425D01*
X010466Y004496D01*
X010478Y004570D01*
X010478Y004589D01*
X010021Y004589D01*
X010021Y004626D01*
X010478Y004626D01*
X010478Y004645D01*
X010466Y004718D01*
X010443Y004790D01*
X010409Y004856D01*
X010365Y004917D01*
X010458Y004745D02*
X010590Y004745D01*
X010569Y004586D02*
X010478Y004586D01*
X010444Y004428D02*
X010607Y004428D01*
X010727Y004269D02*
X010337Y004269D01*
X010322Y004082D02*
X010021Y004082D01*
X010021Y003626D01*
X009984Y003626D01*
X009984Y004082D01*
X009684Y004082D01*
X009638Y004070D01*
X009597Y004046D01*
X009564Y004013D01*
X009540Y003972D01*
X009528Y003926D01*
X009528Y003626D01*
X009984Y003626D01*
X009984Y003589D01*
X009528Y003589D01*
X009528Y003288D01*
X009540Y003242D01*
X009564Y003201D01*
X009597Y003168D01*
X009638Y003144D01*
X009684Y003132D01*
X009984Y003132D01*
X009984Y003589D01*
X010021Y003589D01*
X010021Y003132D01*
X010322Y003132D01*
X010368Y003144D01*
X010409Y003168D01*
X010442Y003201D01*
X010466Y003242D01*
X010478Y003288D01*
X010478Y003589D01*
X010021Y003589D01*
X010021Y003626D01*
X010478Y003626D01*
X010478Y003926D01*
X010466Y003972D01*
X010442Y004013D01*
X010409Y004046D01*
X010368Y004070D01*
X010322Y004082D01*
X010471Y003952D02*
X010734Y003952D01*
X010828Y004111D02*
X008362Y004111D01*
X008362Y004269D02*
X009669Y004269D01*
X009561Y004428D02*
X008362Y004428D01*
X008362Y004586D02*
X009528Y004586D01*
X009548Y004745D02*
X008362Y004745D01*
X008362Y004903D02*
X009630Y004903D01*
X009864Y005062D02*
X008362Y005062D01*
X008362Y005220D02*
X022797Y005220D01*
X022797Y005062D02*
X010142Y005062D01*
X010021Y005062D02*
X009984Y005062D01*
X009984Y004903D02*
X010021Y004903D01*
X010021Y004745D02*
X009984Y004745D01*
X009984Y004586D02*
X010021Y004586D01*
X010021Y004428D02*
X009984Y004428D01*
X009984Y004269D02*
X010021Y004269D01*
X010021Y003952D02*
X009984Y003952D01*
X009984Y003794D02*
X010021Y003794D01*
X010021Y003635D02*
X009984Y003635D01*
X009984Y003477D02*
X010021Y003477D01*
X010021Y003318D02*
X009984Y003318D01*
X009984Y003160D02*
X010021Y003160D01*
X010394Y003160D02*
X013641Y003160D01*
X013482Y003318D02*
X013328Y003318D01*
X012678Y003318D02*
X012328Y003318D01*
X011678Y003318D02*
X011328Y003318D01*
X011419Y003477D02*
X011587Y003477D01*
X011569Y003635D02*
X011437Y003635D01*
X011396Y003794D02*
X011610Y003794D01*
X011734Y003952D02*
X011272Y003952D01*
X010610Y003794D02*
X010478Y003794D01*
X010478Y003635D02*
X010569Y003635D01*
X010587Y003477D02*
X010478Y003477D01*
X010478Y003318D02*
X010678Y003318D01*
X009611Y003160D02*
X008362Y003160D01*
X008362Y003318D02*
X009528Y003318D01*
X009528Y003477D02*
X008362Y003477D01*
X008362Y003635D02*
X009528Y003635D01*
X009528Y003794D02*
X008362Y003794D01*
X008362Y003952D02*
X009535Y003952D01*
X008362Y005379D02*
X022797Y005379D01*
X022797Y005537D02*
X008362Y005537D01*
X008362Y005696D02*
X022797Y005696D01*
X022639Y005854D02*
X021776Y005854D01*
X021534Y006171D02*
X021513Y006171D01*
X021513Y006330D02*
X021534Y006330D01*
X021534Y006488D02*
X021513Y006488D01*
X021435Y006647D02*
X021629Y006647D01*
X021023Y006647D02*
X020983Y006647D01*
X020983Y006805D02*
X021023Y006805D01*
X021023Y006488D02*
X020983Y006488D01*
X022322Y006013D02*
X022481Y006013D01*
X022089Y005041D02*
X021916Y005041D01*
X021757Y004975D01*
X021635Y004853D01*
X021569Y004694D01*
X021569Y004521D01*
X021635Y004361D01*
X021757Y004239D01*
X021916Y004173D01*
X022089Y004173D01*
X022249Y004239D01*
X022371Y004361D01*
X022437Y004521D01*
X022437Y004694D01*
X022371Y004853D01*
X022249Y004975D01*
X022089Y005041D01*
X022321Y004903D02*
X022685Y004903D01*
X022590Y004745D02*
X022416Y004745D01*
X022437Y004586D02*
X022569Y004586D01*
X022607Y004428D02*
X022399Y004428D01*
X022279Y004269D02*
X022727Y004269D01*
X022734Y003952D02*
X022272Y003952D01*
X022396Y003794D02*
X022610Y003794D01*
X022569Y003635D02*
X022437Y003635D01*
X022419Y003477D02*
X022587Y003477D01*
X023419Y003477D02*
X023587Y003477D01*
X023569Y003635D02*
X023437Y003635D01*
X023396Y003794D02*
X023610Y003794D01*
X023734Y003952D02*
X023272Y003952D01*
X023279Y004269D02*
X023727Y004269D01*
X023607Y004428D02*
X023399Y004428D01*
X023437Y004586D02*
X023569Y004586D01*
X023590Y004745D02*
X023416Y004745D01*
X023321Y004903D02*
X023685Y004903D01*
X024279Y004269D02*
X024500Y004269D01*
X025595Y005537D02*
X025713Y005537D01*
X025603Y005696D02*
X025595Y005696D01*
X025595Y006013D02*
X025600Y006013D01*
X025595Y006171D02*
X025707Y006171D01*
X027321Y004903D02*
X027685Y004903D01*
X027590Y004745D02*
X027416Y004745D01*
X027437Y004586D02*
X027569Y004586D01*
X027607Y004428D02*
X027399Y004428D01*
X027279Y004269D02*
X027727Y004269D01*
X027734Y003952D02*
X027272Y003952D01*
X027396Y003794D02*
X027610Y003794D01*
X027569Y003635D02*
X027437Y003635D01*
X027419Y003477D02*
X027587Y003477D01*
X027678Y003318D02*
X027328Y003318D01*
X030984Y004269D02*
X031021Y004269D01*
X031021Y004428D02*
X030984Y004428D01*
X030984Y004586D02*
X031021Y004586D01*
X031021Y004745D02*
X030984Y004745D01*
X030984Y004903D02*
X031021Y004903D01*
X031375Y004903D02*
X031630Y004903D01*
X031548Y004745D02*
X031458Y004745D01*
X031478Y004586D02*
X031528Y004586D01*
X031561Y004428D02*
X031444Y004428D01*
X031337Y004269D02*
X031669Y004269D01*
X031984Y004269D02*
X032021Y004269D01*
X032021Y004428D02*
X031984Y004428D01*
X031984Y004586D02*
X032021Y004586D01*
X032021Y004745D02*
X031984Y004745D01*
X031984Y004903D02*
X032021Y004903D01*
X032375Y004903D02*
X035384Y004903D01*
X035269Y004745D02*
X032458Y004745D01*
X032478Y004586D02*
X035128Y004586D01*
X034969Y004428D02*
X032444Y004428D01*
X032337Y004269D02*
X034811Y004269D01*
X034205Y003794D02*
X032441Y003794D01*
X032478Y003635D02*
X033957Y003635D01*
X033646Y003477D02*
X032460Y003477D01*
X032380Y003318D02*
X033312Y003318D01*
X032824Y003160D02*
X032164Y003160D01*
X021734Y003952D02*
X021272Y003952D01*
X021396Y003794D02*
X021610Y003794D01*
X021569Y003635D02*
X021437Y003635D01*
X021419Y003477D02*
X021587Y003477D01*
X021727Y004269D02*
X021279Y004269D01*
X021249Y004239D02*
X021371Y004361D01*
X021437Y004521D01*
X021437Y004694D01*
X021371Y004853D01*
X021249Y004975D01*
X021089Y005041D01*
X020916Y005041D01*
X020757Y004975D01*
X020635Y004853D01*
X020569Y004694D01*
X020569Y004521D01*
X020635Y004361D01*
X020757Y004239D01*
X020916Y004173D01*
X021089Y004173D01*
X021249Y004239D01*
X021399Y004428D02*
X021607Y004428D01*
X021569Y004586D02*
X021437Y004586D01*
X021416Y004745D02*
X021590Y004745D01*
X021685Y004903D02*
X021321Y004903D01*
X020685Y004903D02*
X020321Y004903D01*
X020371Y004853D02*
X020249Y004975D01*
X020089Y005041D01*
X019916Y005041D01*
X019757Y004975D01*
X019635Y004853D01*
X019569Y004694D01*
X019569Y004521D01*
X019635Y004361D01*
X019757Y004239D01*
X019916Y004173D01*
X020089Y004173D01*
X020249Y004239D01*
X020371Y004361D01*
X020437Y004521D01*
X020437Y004694D01*
X020371Y004853D01*
X020416Y004745D02*
X020590Y004745D01*
X020569Y004586D02*
X020437Y004586D01*
X020399Y004428D02*
X020607Y004428D01*
X020727Y004269D02*
X020279Y004269D01*
X020272Y003952D02*
X020734Y003952D01*
X020610Y003794D02*
X020396Y003794D01*
X020437Y003635D02*
X020569Y003635D01*
X020587Y003477D02*
X020419Y003477D01*
X019734Y003952D02*
X019272Y003952D01*
X019396Y003794D02*
X019610Y003794D01*
X019569Y003635D02*
X019437Y003635D01*
X019419Y003477D02*
X019587Y003477D01*
X019727Y004269D02*
X019279Y004269D01*
X019249Y004239D02*
X019371Y004361D01*
X019437Y004521D01*
X019437Y004694D01*
X019371Y004853D01*
X019249Y004975D01*
X019089Y005041D01*
X018916Y005041D01*
X018757Y004975D01*
X018635Y004853D01*
X018569Y004694D01*
X018569Y004521D01*
X018635Y004361D01*
X018757Y004239D01*
X018916Y004173D01*
X019089Y004173D01*
X019249Y004239D01*
X019399Y004428D02*
X019607Y004428D01*
X019569Y004586D02*
X019437Y004586D01*
X019416Y004745D02*
X019590Y004745D01*
X019685Y004903D02*
X019321Y004903D01*
X018685Y004903D02*
X018321Y004903D01*
X018371Y004853D02*
X018249Y004975D01*
X018089Y005041D01*
X017916Y005041D01*
X017757Y004975D01*
X017635Y004853D01*
X017569Y004694D01*
X017569Y004521D01*
X017635Y004361D01*
X017757Y004239D01*
X017916Y004173D01*
X018089Y004173D01*
X018249Y004239D01*
X018371Y004361D01*
X018437Y004521D01*
X018437Y004694D01*
X018371Y004853D01*
X018416Y004745D02*
X018590Y004745D01*
X018569Y004586D02*
X018437Y004586D01*
X018399Y004428D02*
X018607Y004428D01*
X018727Y004269D02*
X018279Y004269D01*
X018272Y003952D02*
X018734Y003952D01*
X018610Y003794D02*
X018396Y003794D01*
X018437Y003635D02*
X018569Y003635D01*
X018587Y003477D02*
X018419Y003477D01*
X017734Y003952D02*
X017272Y003952D01*
X017396Y003794D02*
X017610Y003794D01*
X017569Y003635D02*
X017437Y003635D01*
X017419Y003477D02*
X017587Y003477D01*
X017727Y004269D02*
X017279Y004269D01*
X017249Y004239D02*
X017371Y004361D01*
X017437Y004521D01*
X017437Y004694D01*
X017371Y004853D01*
X017249Y004975D01*
X017089Y005041D01*
X016916Y005041D01*
X016757Y004975D01*
X016635Y004853D01*
X016569Y004694D01*
X016569Y004521D01*
X016635Y004361D01*
X016757Y004239D01*
X016916Y004173D01*
X017089Y004173D01*
X017249Y004239D01*
X017399Y004428D02*
X017607Y004428D01*
X017569Y004586D02*
X017437Y004586D01*
X017416Y004745D02*
X017590Y004745D01*
X017685Y004903D02*
X017321Y004903D01*
X016685Y004903D02*
X016321Y004903D01*
X016371Y004853D02*
X016249Y004975D01*
X016089Y005041D01*
X015916Y005041D01*
X015757Y004975D01*
X015635Y004853D01*
X015569Y004694D01*
X015569Y004521D01*
X015635Y004361D01*
X015757Y004239D01*
X015916Y004173D01*
X016089Y004173D01*
X016249Y004239D01*
X016371Y004361D01*
X016437Y004521D01*
X016437Y004694D01*
X016371Y004853D01*
X016416Y004745D02*
X016590Y004745D01*
X016569Y004586D02*
X016437Y004586D01*
X016399Y004428D02*
X016607Y004428D01*
X016727Y004269D02*
X016279Y004269D01*
X016272Y003952D02*
X016734Y003952D01*
X016610Y003794D02*
X016396Y003794D01*
X016437Y003635D02*
X016569Y003635D01*
X016587Y003477D02*
X016419Y003477D01*
X015734Y003952D02*
X015272Y003952D01*
X015396Y003794D02*
X015610Y003794D01*
X015569Y003635D02*
X015437Y003635D01*
X015419Y003477D02*
X015587Y003477D01*
X015727Y004269D02*
X015279Y004269D01*
X015249Y004239D02*
X015371Y004361D01*
X015437Y004521D01*
X015437Y004694D01*
X015371Y004853D01*
X015249Y004975D01*
X015089Y005041D01*
X014916Y005041D01*
X014757Y004975D01*
X014635Y004853D01*
X014569Y004694D01*
X014569Y004521D01*
X014635Y004361D01*
X014757Y004239D01*
X014916Y004173D01*
X015089Y004173D01*
X015249Y004239D01*
X015399Y004428D02*
X015607Y004428D01*
X015569Y004586D02*
X015437Y004586D01*
X015416Y004745D02*
X015590Y004745D01*
X015685Y004903D02*
X015321Y004903D01*
X014685Y004903D02*
X014321Y004903D01*
X014416Y004745D02*
X014590Y004745D01*
X014569Y004586D02*
X014437Y004586D01*
X014399Y004428D02*
X014607Y004428D01*
X014727Y004269D02*
X014279Y004269D01*
X014272Y003952D02*
X014734Y003952D01*
X014610Y003794D02*
X014396Y003794D01*
X014437Y003635D02*
X014569Y003635D01*
X014587Y003477D02*
X014419Y003477D01*
X018307Y006171D02*
X008362Y006171D01*
X008362Y006013D02*
X018465Y006013D01*
X018624Y005854D02*
X008362Y005854D01*
X008362Y007598D02*
X013299Y007598D01*
X013140Y007756D02*
X008553Y007756D01*
X009037Y007867D02*
X009037Y007867D01*
X009137Y007915D02*
X013034Y007915D01*
X013034Y008073D02*
X009466Y008073D01*
X009516Y008097D02*
X009516Y008097D01*
X009685Y008232D02*
X013034Y008232D01*
X012941Y008387D02*
X012941Y008387D01*
X012938Y008390D02*
X009883Y008390D01*
X009931Y008429D02*
X009931Y008429D01*
X009931Y008429D01*
X010027Y008549D02*
X012836Y008549D01*
X012836Y008707D02*
X010154Y008707D01*
X010263Y008844D02*
X010263Y008844D01*
X010273Y008866D02*
X012836Y008866D01*
X012836Y009024D02*
X010350Y009024D01*
X010426Y009183D02*
X012836Y009183D01*
X012836Y009341D02*
X010498Y009341D01*
X010493Y009323D02*
X010493Y009323D01*
X010534Y009500D02*
X012836Y009500D01*
X012836Y009658D02*
X010570Y009658D01*
X010606Y009817D02*
X010730Y009817D01*
X010661Y009975D02*
X010612Y009975D01*
X010612Y010134D02*
X010661Y010134D01*
X011049Y010451D02*
X011145Y010451D01*
X011145Y010609D02*
X011049Y010609D01*
X011943Y007281D02*
X015063Y007281D01*
X014905Y007122D02*
X012101Y007122D01*
X012172Y006964D02*
X014834Y006964D01*
X014834Y006805D02*
X012172Y006805D01*
X012156Y006647D02*
X014850Y006647D01*
X015008Y006488D02*
X011997Y006488D01*
X018494Y006488D02*
X018583Y006488D01*
X032348Y022338D02*
X034423Y022338D01*
X034265Y022497D02*
X032427Y022497D01*
X032437Y022655D02*
X034106Y022655D01*
X033948Y022814D02*
X032387Y022814D01*
D27*
X024353Y023251D03*
X028999Y015692D03*
X028448Y015456D03*
X025219Y013645D03*
X016873Y009589D03*
X013487Y013211D03*
X013605Y017385D03*
M02*
