G75*
%MOIN*%
%OFA0B0*%
%FSLAX24Y24*%
%IPPOS*%
%LPD*%
%AMOC8*
5,1,8,0,0,1.08239X$1,22.5*
%
%ADD10C,0.0060*%
%ADD11C,0.0160*%
%ADD12C,0.0040*%
%ADD13C,0.0030*%
%ADD14C,0.0080*%
%ADD15C,0.0050*%
%ADD16R,0.0240X0.0340*%
%ADD17R,0.0200X0.0800*%
%ADD18C,0.0100*%
%ADD19C,0.0010*%
%ADD20C,0.0070*%
%ADD21R,0.0340X0.0240*%
D10*
X009753Y010350D02*
X010253Y010350D01*
X010503Y010600D01*
X010503Y012100D01*
X010753Y012350D01*
X011253Y012350D01*
X011503Y012100D01*
X011503Y010600D01*
X011753Y010350D01*
X012253Y010350D01*
X012503Y010600D01*
X012503Y012100D01*
X012753Y012350D01*
X013253Y012350D01*
X013503Y012100D01*
X013503Y010600D01*
X013753Y010350D01*
X014253Y010350D01*
X014503Y010600D01*
X014503Y012100D01*
X014753Y012350D01*
X015253Y012350D01*
X015503Y012100D01*
X015503Y010600D01*
X015753Y010350D01*
X016253Y010350D01*
X016503Y010600D01*
X016503Y012100D01*
X016753Y012350D01*
X017253Y012350D01*
X017503Y012100D01*
X017503Y010600D01*
X017253Y010350D01*
X016753Y010350D01*
X016503Y010600D01*
X017503Y010600D02*
X017753Y010350D01*
X018253Y010350D01*
X018503Y010600D01*
X018503Y012100D01*
X018753Y012350D01*
X019253Y012350D01*
X019503Y012100D01*
X019503Y010600D01*
X019253Y010350D01*
X018753Y010350D01*
X018503Y010600D01*
X019503Y010600D02*
X019753Y010350D01*
X020253Y010350D01*
X020503Y010600D01*
X020503Y012100D01*
X020753Y012350D01*
X021253Y012350D01*
X021503Y012100D01*
X021503Y010600D01*
X021253Y010350D01*
X020753Y010350D01*
X020503Y010600D01*
X021503Y010600D02*
X021753Y010350D01*
X022253Y010350D01*
X022503Y010600D01*
X022503Y012100D01*
X022753Y012350D01*
X023253Y012350D01*
X023503Y012100D01*
X023503Y010600D01*
X023253Y010350D01*
X022753Y010350D01*
X022503Y010600D01*
X023503Y010600D02*
X023753Y010350D01*
X024253Y010350D01*
X024503Y010600D01*
X024503Y012100D01*
X024753Y012350D01*
X025253Y012350D01*
X025503Y012100D01*
X025753Y012350D01*
X026253Y012350D01*
X026503Y012100D01*
X026753Y012350D01*
X027253Y012350D01*
X027503Y012100D01*
X027753Y012350D01*
X028253Y012350D01*
X028503Y012100D01*
X028753Y012350D01*
X029253Y012350D01*
X029503Y012100D01*
X029753Y012350D01*
X030253Y012350D01*
X030503Y012100D01*
X030753Y012350D01*
X031253Y012350D01*
X031503Y012100D01*
X031753Y012350D01*
X032253Y012350D01*
X032503Y012100D01*
X032503Y010600D01*
X032253Y010350D01*
X031753Y010350D01*
X031503Y010600D01*
X031503Y012100D01*
X030503Y012100D02*
X030503Y010600D01*
X030753Y010350D01*
X031253Y010350D01*
X031503Y010600D01*
X030503Y010600D02*
X030253Y010350D01*
X029753Y010350D01*
X029503Y010600D01*
X029503Y012100D01*
X028693Y012670D02*
X026203Y012670D01*
X026503Y012100D02*
X026503Y010600D01*
X026753Y010350D01*
X027253Y010350D01*
X027503Y010600D01*
X027753Y010350D01*
X028253Y010350D01*
X028503Y010600D01*
X028753Y010350D01*
X029253Y010350D01*
X029503Y010600D01*
X028503Y010600D02*
X028503Y012100D01*
X027503Y012100D02*
X027503Y010600D01*
X026503Y010600D02*
X026253Y010350D01*
X025753Y010350D01*
X025503Y010600D01*
X025503Y012100D01*
X024503Y012100D02*
X024253Y012350D01*
X023753Y012350D01*
X023503Y012100D01*
X022503Y012100D02*
X022253Y012350D01*
X021753Y012350D01*
X021503Y012100D01*
X020503Y012100D02*
X020253Y012350D01*
X019753Y012350D01*
X019503Y012100D01*
X018503Y012100D02*
X018253Y012350D01*
X017753Y012350D01*
X017503Y012100D01*
X016503Y012100D02*
X016253Y012350D01*
X015753Y012350D01*
X015503Y012100D01*
X014503Y012100D02*
X014253Y012350D01*
X013753Y012350D01*
X013503Y012100D01*
X012503Y012100D02*
X012253Y012350D01*
X011753Y012350D01*
X011503Y012100D01*
X010503Y012100D02*
X010253Y012350D01*
X009753Y012350D01*
X009503Y012100D01*
X009503Y010600D01*
X009753Y010350D01*
X010503Y010600D02*
X010753Y010350D01*
X011253Y010350D01*
X011503Y010600D01*
X012503Y010600D02*
X012753Y010350D01*
X013253Y010350D01*
X013503Y010600D01*
X014503Y010600D02*
X014753Y010350D01*
X015253Y010350D01*
X015503Y010600D01*
X018353Y013150D02*
X019653Y013150D01*
X019670Y013152D01*
X019687Y013156D01*
X019703Y013163D01*
X019717Y013173D01*
X019730Y013186D01*
X019740Y013200D01*
X019747Y013216D01*
X019751Y013233D01*
X019753Y013250D01*
X019753Y014950D01*
X019751Y014967D01*
X019747Y014984D01*
X019740Y015000D01*
X019730Y015014D01*
X019717Y015027D01*
X019703Y015037D01*
X019687Y015044D01*
X019670Y015048D01*
X019653Y015050D01*
X018353Y015050D01*
X018336Y015048D01*
X018319Y015044D01*
X018303Y015037D01*
X018289Y015027D01*
X018276Y015014D01*
X018266Y015000D01*
X018259Y014984D01*
X018255Y014967D01*
X018253Y014950D01*
X018253Y013250D01*
X018255Y013233D01*
X018259Y013216D01*
X018266Y013200D01*
X018276Y013186D01*
X018289Y013173D01*
X018303Y013163D01*
X018319Y013156D01*
X018336Y013152D01*
X018353Y013150D01*
X019003Y013950D02*
X019003Y014000D01*
X019003Y014200D02*
X019003Y014250D01*
X020503Y014850D02*
X020503Y013350D01*
X020753Y013100D01*
X021253Y013100D01*
X021503Y013350D01*
X021503Y014850D01*
X021753Y015100D01*
X022253Y015100D01*
X022503Y014850D01*
X022503Y013350D01*
X022753Y013100D01*
X023253Y013100D01*
X023503Y013350D01*
X023753Y013100D01*
X024253Y013100D01*
X024503Y013350D01*
X024503Y014850D01*
X024253Y015100D01*
X023753Y015100D01*
X023503Y014850D01*
X023503Y013350D01*
X022503Y013350D02*
X022253Y013100D01*
X021753Y013100D01*
X021503Y013350D01*
X021503Y014850D02*
X021253Y015100D01*
X020753Y015100D01*
X020503Y014850D01*
X019103Y016350D02*
X018903Y016350D01*
X019003Y016450D02*
X019003Y016250D01*
X018803Y016200D02*
X018803Y016600D01*
X018803Y017000D01*
X018603Y017000D01*
X018603Y016200D01*
X018803Y016200D01*
X018803Y016600D02*
X019053Y016600D01*
X019172Y017039D02*
X019140Y017084D01*
X019106Y017126D01*
X019068Y017166D01*
X019029Y017203D01*
X018986Y017238D01*
X018942Y017269D01*
X018895Y017297D01*
X018846Y017323D01*
X018796Y017344D01*
X018745Y017363D01*
X018692Y017377D01*
X018639Y017388D01*
X018585Y017396D01*
X018530Y017400D01*
X018476Y017400D01*
X018421Y017396D01*
X018367Y017388D01*
X018314Y017377D01*
X018261Y017363D01*
X018210Y017344D01*
X018160Y017323D01*
X018111Y017297D01*
X018064Y017269D01*
X018020Y017238D01*
X017977Y017203D01*
X017938Y017166D01*
X017900Y017126D01*
X017866Y017084D01*
X017834Y017039D01*
X017953Y016600D02*
X018253Y016600D01*
X017834Y016161D02*
X017866Y016116D01*
X017900Y016074D01*
X017938Y016034D01*
X017977Y015997D01*
X018020Y015962D01*
X018064Y015931D01*
X018111Y015903D01*
X018160Y015877D01*
X018210Y015856D01*
X018261Y015837D01*
X018314Y015823D01*
X018367Y015812D01*
X018421Y015804D01*
X018476Y015800D01*
X018530Y015800D01*
X018585Y015804D01*
X018639Y015812D01*
X018692Y015823D01*
X018745Y015837D01*
X018796Y015856D01*
X018846Y015877D01*
X018895Y015903D01*
X018942Y015931D01*
X018986Y015962D01*
X019029Y015997D01*
X019068Y016034D01*
X019106Y016074D01*
X019140Y016116D01*
X019172Y016161D01*
X021184Y016540D02*
X021184Y016577D01*
X021184Y016540D02*
X021822Y016540D01*
X021822Y016577D01*
X021822Y016894D02*
X021822Y016932D01*
X021822Y017268D02*
X021822Y017306D01*
X021822Y017623D02*
X021822Y017660D01*
X021184Y017660D01*
X021184Y017623D01*
X021184Y017306D02*
X021184Y016894D01*
X022753Y015100D02*
X023253Y015100D01*
X023503Y014850D01*
X022753Y015100D02*
X022503Y014850D01*
X023653Y017350D02*
X024353Y017350D01*
X024370Y017352D01*
X024387Y017356D01*
X024403Y017363D01*
X024417Y017373D01*
X024430Y017386D01*
X024440Y017400D01*
X024447Y017416D01*
X024451Y017433D01*
X024453Y017450D01*
X024453Y017600D01*
X024403Y017650D01*
X024403Y019550D01*
X024453Y019600D01*
X024453Y019750D01*
X024451Y019767D01*
X024447Y019784D01*
X024440Y019800D01*
X024430Y019814D01*
X024417Y019827D01*
X024403Y019837D01*
X024387Y019844D01*
X024370Y019848D01*
X024353Y019850D01*
X023653Y019850D01*
X023636Y019848D01*
X023619Y019844D01*
X023603Y019837D01*
X023589Y019827D01*
X023576Y019814D01*
X023566Y019800D01*
X023559Y019784D01*
X023555Y019767D01*
X023553Y019750D01*
X023553Y019600D01*
X023603Y019550D01*
X023603Y017650D01*
X023553Y017600D01*
X023553Y017450D01*
X023555Y017433D01*
X023559Y017416D01*
X023566Y017400D01*
X023576Y017386D01*
X023589Y017373D01*
X023603Y017363D01*
X023619Y017356D01*
X023636Y017352D01*
X023653Y017350D01*
X022853Y019350D02*
X022153Y019350D01*
X022136Y019352D01*
X022119Y019356D01*
X022103Y019363D01*
X022089Y019373D01*
X022076Y019386D01*
X022066Y019400D01*
X022059Y019416D01*
X022055Y019433D01*
X022053Y019450D01*
X022053Y019600D01*
X022103Y019650D01*
X022103Y021550D01*
X022053Y021600D01*
X022053Y021750D01*
X022055Y021767D01*
X022059Y021784D01*
X022066Y021800D01*
X022076Y021814D01*
X022089Y021827D01*
X022103Y021837D01*
X022119Y021844D01*
X022136Y021848D01*
X022153Y021850D01*
X022853Y021850D01*
X022870Y021848D01*
X022887Y021844D01*
X022903Y021837D01*
X022917Y021827D01*
X022930Y021814D01*
X022940Y021800D01*
X022947Y021784D01*
X022951Y021767D01*
X022953Y021750D01*
X022953Y021600D01*
X022903Y021550D01*
X022903Y019650D01*
X022953Y019600D01*
X022953Y019450D01*
X022951Y019433D01*
X022947Y019416D01*
X022940Y019400D01*
X022930Y019386D01*
X022917Y019373D01*
X022903Y019363D01*
X022887Y019356D01*
X022870Y019352D01*
X022853Y019350D01*
X025053Y019450D02*
X025053Y019600D01*
X025103Y019650D01*
X025103Y021550D01*
X025053Y021600D01*
X025053Y021750D01*
X025055Y021767D01*
X025059Y021784D01*
X025066Y021800D01*
X025076Y021814D01*
X025089Y021827D01*
X025103Y021837D01*
X025119Y021844D01*
X025136Y021848D01*
X025153Y021850D01*
X025853Y021850D01*
X025870Y021848D01*
X025887Y021844D01*
X025903Y021837D01*
X025917Y021827D01*
X025930Y021814D01*
X025940Y021800D01*
X025947Y021784D01*
X025951Y021767D01*
X025953Y021750D01*
X025953Y021600D01*
X025903Y021550D01*
X025903Y019650D01*
X025953Y019600D01*
X025953Y019450D01*
X025951Y019433D01*
X025947Y019416D01*
X025940Y019400D01*
X025930Y019386D01*
X025917Y019373D01*
X025903Y019363D01*
X025887Y019356D01*
X025870Y019352D01*
X025853Y019350D01*
X025153Y019350D01*
X025136Y019352D01*
X025119Y019356D01*
X025103Y019363D01*
X025089Y019373D01*
X025076Y019386D01*
X025066Y019400D01*
X025059Y019416D01*
X025055Y019433D01*
X025053Y019450D01*
X026203Y016530D02*
X028803Y016530D01*
X028803Y015720D02*
X028803Y015480D01*
X028803Y014720D02*
X028803Y014480D01*
X028803Y013720D02*
X028803Y013530D01*
X026203Y013480D02*
X026203Y013720D01*
X026203Y014480D02*
X026203Y014720D01*
X026203Y015480D02*
X026203Y015720D01*
X025503Y010600D02*
X025253Y010350D01*
X024753Y010350D01*
X024503Y010600D01*
X014503Y016600D02*
X014505Y016663D01*
X014511Y016725D01*
X014521Y016787D01*
X014534Y016849D01*
X014552Y016909D01*
X014573Y016968D01*
X014598Y017026D01*
X014627Y017082D01*
X014659Y017136D01*
X014694Y017188D01*
X014732Y017237D01*
X014774Y017285D01*
X014818Y017329D01*
X014866Y017371D01*
X014915Y017409D01*
X014967Y017444D01*
X015021Y017476D01*
X015077Y017505D01*
X015135Y017530D01*
X015194Y017551D01*
X015254Y017569D01*
X015316Y017582D01*
X015378Y017592D01*
X015440Y017598D01*
X015503Y017600D01*
X015566Y017598D01*
X015628Y017592D01*
X015690Y017582D01*
X015752Y017569D01*
X015812Y017551D01*
X015871Y017530D01*
X015929Y017505D01*
X015985Y017476D01*
X016039Y017444D01*
X016091Y017409D01*
X016140Y017371D01*
X016188Y017329D01*
X016232Y017285D01*
X016274Y017237D01*
X016312Y017188D01*
X016347Y017136D01*
X016379Y017082D01*
X016408Y017026D01*
X016433Y016968D01*
X016454Y016909D01*
X016472Y016849D01*
X016485Y016787D01*
X016495Y016725D01*
X016501Y016663D01*
X016503Y016600D01*
X016501Y016537D01*
X016495Y016475D01*
X016485Y016413D01*
X016472Y016351D01*
X016454Y016291D01*
X016433Y016232D01*
X016408Y016174D01*
X016379Y016118D01*
X016347Y016064D01*
X016312Y016012D01*
X016274Y015963D01*
X016232Y015915D01*
X016188Y015871D01*
X016140Y015829D01*
X016091Y015791D01*
X016039Y015756D01*
X015985Y015724D01*
X015929Y015695D01*
X015871Y015670D01*
X015812Y015649D01*
X015752Y015631D01*
X015690Y015618D01*
X015628Y015608D01*
X015566Y015602D01*
X015503Y015600D01*
X015440Y015602D01*
X015378Y015608D01*
X015316Y015618D01*
X015254Y015631D01*
X015194Y015649D01*
X015135Y015670D01*
X015077Y015695D01*
X015021Y015724D01*
X014967Y015756D01*
X014915Y015791D01*
X014866Y015829D01*
X014818Y015871D01*
X014774Y015915D01*
X014732Y015963D01*
X014694Y016012D01*
X014659Y016064D01*
X014627Y016118D01*
X014598Y016174D01*
X014573Y016232D01*
X014552Y016291D01*
X014534Y016351D01*
X014521Y016413D01*
X014511Y016475D01*
X014505Y016537D01*
X014503Y016600D01*
X013953Y016100D02*
X013953Y015950D01*
X013951Y015933D01*
X013947Y015916D01*
X013940Y015900D01*
X013930Y015886D01*
X013917Y015873D01*
X013903Y015863D01*
X013887Y015856D01*
X013870Y015852D01*
X013853Y015850D01*
X013153Y015850D01*
X013136Y015852D01*
X013119Y015856D01*
X013103Y015863D01*
X013089Y015873D01*
X013076Y015886D01*
X013066Y015900D01*
X013059Y015916D01*
X013055Y015933D01*
X013053Y015950D01*
X013053Y016100D01*
X013103Y016150D01*
X013103Y018050D01*
X013053Y018100D01*
X013053Y018250D01*
X013055Y018267D01*
X013059Y018284D01*
X013066Y018300D01*
X013076Y018314D01*
X013089Y018327D01*
X013103Y018337D01*
X013119Y018344D01*
X013136Y018348D01*
X013153Y018350D01*
X013853Y018350D01*
X013870Y018348D01*
X013887Y018344D01*
X013903Y018337D01*
X013917Y018327D01*
X013930Y018314D01*
X013940Y018300D01*
X013947Y018284D01*
X013951Y018267D01*
X013953Y018250D01*
X013953Y018100D01*
X013903Y018050D01*
X013903Y016150D01*
X013953Y016100D01*
X014503Y014550D02*
X014453Y014500D01*
X012553Y014500D01*
X012503Y014550D01*
X012353Y014550D01*
X012336Y014548D01*
X012319Y014544D01*
X012303Y014537D01*
X012289Y014527D01*
X012276Y014514D01*
X012266Y014500D01*
X012259Y014484D01*
X012255Y014467D01*
X012253Y014450D01*
X012253Y013750D01*
X012255Y013733D01*
X012259Y013716D01*
X012266Y013700D01*
X012276Y013686D01*
X012289Y013673D01*
X012303Y013663D01*
X012319Y013656D01*
X012336Y013652D01*
X012353Y013650D01*
X012503Y013650D01*
X012553Y013700D01*
X014453Y013700D01*
X014503Y013650D01*
X014653Y013650D01*
X014670Y013652D01*
X014687Y013656D01*
X014703Y013663D01*
X014717Y013673D01*
X014730Y013686D01*
X014740Y013700D01*
X014747Y013716D01*
X014751Y013733D01*
X014753Y013750D01*
X014753Y014450D01*
X014751Y014467D01*
X014747Y014484D01*
X014740Y014500D01*
X014730Y014514D01*
X014717Y014527D01*
X014703Y014537D01*
X014687Y014544D01*
X014670Y014548D01*
X014653Y014550D01*
X014503Y014550D01*
X014503Y019600D02*
X014505Y019663D01*
X014511Y019725D01*
X014521Y019787D01*
X014534Y019849D01*
X014552Y019909D01*
X014573Y019968D01*
X014598Y020026D01*
X014627Y020082D01*
X014659Y020136D01*
X014694Y020188D01*
X014732Y020237D01*
X014774Y020285D01*
X014818Y020329D01*
X014866Y020371D01*
X014915Y020409D01*
X014967Y020444D01*
X015021Y020476D01*
X015077Y020505D01*
X015135Y020530D01*
X015194Y020551D01*
X015254Y020569D01*
X015316Y020582D01*
X015378Y020592D01*
X015440Y020598D01*
X015503Y020600D01*
X015566Y020598D01*
X015628Y020592D01*
X015690Y020582D01*
X015752Y020569D01*
X015812Y020551D01*
X015871Y020530D01*
X015929Y020505D01*
X015985Y020476D01*
X016039Y020444D01*
X016091Y020409D01*
X016140Y020371D01*
X016188Y020329D01*
X016232Y020285D01*
X016274Y020237D01*
X016312Y020188D01*
X016347Y020136D01*
X016379Y020082D01*
X016408Y020026D01*
X016433Y019968D01*
X016454Y019909D01*
X016472Y019849D01*
X016485Y019787D01*
X016495Y019725D01*
X016501Y019663D01*
X016503Y019600D01*
X016501Y019537D01*
X016495Y019475D01*
X016485Y019413D01*
X016472Y019351D01*
X016454Y019291D01*
X016433Y019232D01*
X016408Y019174D01*
X016379Y019118D01*
X016347Y019064D01*
X016312Y019012D01*
X016274Y018963D01*
X016232Y018915D01*
X016188Y018871D01*
X016140Y018829D01*
X016091Y018791D01*
X016039Y018756D01*
X015985Y018724D01*
X015929Y018695D01*
X015871Y018670D01*
X015812Y018649D01*
X015752Y018631D01*
X015690Y018618D01*
X015628Y018608D01*
X015566Y018602D01*
X015503Y018600D01*
X015440Y018602D01*
X015378Y018608D01*
X015316Y018618D01*
X015254Y018631D01*
X015194Y018649D01*
X015135Y018670D01*
X015077Y018695D01*
X015021Y018724D01*
X014967Y018756D01*
X014915Y018791D01*
X014866Y018829D01*
X014818Y018871D01*
X014774Y018915D01*
X014732Y018963D01*
X014694Y019012D01*
X014659Y019064D01*
X014627Y019118D01*
X014598Y019174D01*
X014573Y019232D01*
X014552Y019291D01*
X014534Y019351D01*
X014521Y019413D01*
X014511Y019475D01*
X014505Y019537D01*
X014503Y019600D01*
X013794Y020464D02*
X013094Y020464D01*
X013077Y020466D01*
X013060Y020470D01*
X013044Y020477D01*
X013030Y020487D01*
X013017Y020500D01*
X013007Y020514D01*
X013000Y020530D01*
X012996Y020547D01*
X012994Y020564D01*
X012994Y020714D01*
X013044Y020764D01*
X013044Y022664D01*
X012994Y022714D01*
X012994Y022864D01*
X012996Y022881D01*
X013000Y022898D01*
X013007Y022914D01*
X013017Y022928D01*
X013030Y022941D01*
X013044Y022951D01*
X013060Y022958D01*
X013077Y022962D01*
X013094Y022964D01*
X013794Y022964D01*
X013811Y022962D01*
X013828Y022958D01*
X013844Y022951D01*
X013858Y022941D01*
X013871Y022928D01*
X013881Y022914D01*
X013888Y022898D01*
X013892Y022881D01*
X013894Y022864D01*
X013894Y022714D01*
X013844Y022664D01*
X013844Y020764D01*
X013894Y020714D01*
X013894Y020564D01*
X013892Y020547D01*
X013888Y020530D01*
X013881Y020514D01*
X013871Y020500D01*
X013858Y020487D01*
X013844Y020477D01*
X013828Y020470D01*
X013811Y020466D01*
X013794Y020464D01*
X014503Y022600D02*
X014505Y022663D01*
X014511Y022725D01*
X014521Y022787D01*
X014534Y022849D01*
X014552Y022909D01*
X014573Y022968D01*
X014598Y023026D01*
X014627Y023082D01*
X014659Y023136D01*
X014694Y023188D01*
X014732Y023237D01*
X014774Y023285D01*
X014818Y023329D01*
X014866Y023371D01*
X014915Y023409D01*
X014967Y023444D01*
X015021Y023476D01*
X015077Y023505D01*
X015135Y023530D01*
X015194Y023551D01*
X015254Y023569D01*
X015316Y023582D01*
X015378Y023592D01*
X015440Y023598D01*
X015503Y023600D01*
X015566Y023598D01*
X015628Y023592D01*
X015690Y023582D01*
X015752Y023569D01*
X015812Y023551D01*
X015871Y023530D01*
X015929Y023505D01*
X015985Y023476D01*
X016039Y023444D01*
X016091Y023409D01*
X016140Y023371D01*
X016188Y023329D01*
X016232Y023285D01*
X016274Y023237D01*
X016312Y023188D01*
X016347Y023136D01*
X016379Y023082D01*
X016408Y023026D01*
X016433Y022968D01*
X016454Y022909D01*
X016472Y022849D01*
X016485Y022787D01*
X016495Y022725D01*
X016501Y022663D01*
X016503Y022600D01*
X016501Y022537D01*
X016495Y022475D01*
X016485Y022413D01*
X016472Y022351D01*
X016454Y022291D01*
X016433Y022232D01*
X016408Y022174D01*
X016379Y022118D01*
X016347Y022064D01*
X016312Y022012D01*
X016274Y021963D01*
X016232Y021915D01*
X016188Y021871D01*
X016140Y021829D01*
X016091Y021791D01*
X016039Y021756D01*
X015985Y021724D01*
X015929Y021695D01*
X015871Y021670D01*
X015812Y021649D01*
X015752Y021631D01*
X015690Y021618D01*
X015628Y021608D01*
X015566Y021602D01*
X015503Y021600D01*
X015440Y021602D01*
X015378Y021608D01*
X015316Y021618D01*
X015254Y021631D01*
X015194Y021649D01*
X015135Y021670D01*
X015077Y021695D01*
X015021Y021724D01*
X014967Y021756D01*
X014915Y021791D01*
X014866Y021829D01*
X014818Y021871D01*
X014774Y021915D01*
X014732Y021963D01*
X014694Y022012D01*
X014659Y022064D01*
X014627Y022118D01*
X014598Y022174D01*
X014573Y022232D01*
X014552Y022291D01*
X014534Y022351D01*
X014521Y022413D01*
X014511Y022475D01*
X014505Y022537D01*
X014503Y022600D01*
X014873Y023970D02*
X014623Y024220D01*
X014623Y025490D01*
X014303Y025700D01*
X014303Y027500D01*
X014623Y027730D01*
X014623Y028980D01*
X014873Y029230D01*
X017133Y029230D01*
X017383Y028980D01*
X017383Y027730D01*
X017703Y027500D01*
X017703Y025700D01*
X017383Y025470D01*
X017383Y024220D01*
X017133Y023970D01*
X014873Y023970D01*
X013383Y024220D02*
X013383Y025470D01*
X013703Y025700D01*
X013703Y027500D01*
X013383Y027730D01*
X013383Y028980D01*
X013133Y029230D01*
X010873Y029230D01*
X010623Y028980D01*
X010623Y027730D01*
X010303Y027500D01*
X010303Y025700D01*
X010623Y025490D01*
X010623Y024220D01*
X010873Y023970D01*
X013133Y023970D01*
X013383Y024220D01*
X017553Y022250D02*
X017553Y022100D01*
X017603Y022050D01*
X017603Y020150D01*
X017553Y020100D01*
X017553Y019950D01*
X017555Y019933D01*
X017559Y019916D01*
X017566Y019900D01*
X017576Y019886D01*
X017589Y019873D01*
X017603Y019863D01*
X017619Y019856D01*
X017636Y019852D01*
X017653Y019850D01*
X018353Y019850D01*
X018370Y019852D01*
X018387Y019856D01*
X018403Y019863D01*
X018417Y019873D01*
X018430Y019886D01*
X018440Y019900D01*
X018447Y019916D01*
X018451Y019933D01*
X018453Y019950D01*
X018453Y020100D01*
X018403Y020150D01*
X018403Y022050D01*
X018453Y022100D01*
X018453Y022250D01*
X018451Y022267D01*
X018447Y022284D01*
X018440Y022300D01*
X018430Y022314D01*
X018417Y022327D01*
X018403Y022337D01*
X018387Y022344D01*
X018370Y022348D01*
X018353Y022350D01*
X017653Y022350D01*
X017636Y022348D01*
X017619Y022344D01*
X017603Y022337D01*
X017589Y022327D01*
X017576Y022314D01*
X017566Y022300D01*
X017559Y022284D01*
X017555Y022267D01*
X017553Y022250D01*
X018853Y024150D02*
X019003Y024150D01*
X019053Y024200D01*
X020953Y024200D01*
X021003Y024150D01*
X021153Y024150D01*
X021170Y024152D01*
X021187Y024156D01*
X021203Y024163D01*
X021217Y024173D01*
X021230Y024186D01*
X021240Y024200D01*
X021247Y024216D01*
X021251Y024233D01*
X021253Y024250D01*
X021253Y024950D01*
X021251Y024967D01*
X021247Y024984D01*
X021240Y025000D01*
X021230Y025014D01*
X021217Y025027D01*
X021203Y025037D01*
X021187Y025044D01*
X021170Y025048D01*
X021153Y025050D01*
X021003Y025050D01*
X020953Y025000D01*
X019053Y025000D01*
X019003Y025050D01*
X018853Y025050D01*
X018836Y025048D01*
X018819Y025044D01*
X018803Y025037D01*
X018789Y025027D01*
X018776Y025014D01*
X018766Y025000D01*
X018759Y024984D01*
X018755Y024967D01*
X018753Y024950D01*
X018753Y024250D01*
X018755Y024233D01*
X018759Y024216D01*
X018766Y024200D01*
X018776Y024186D01*
X018789Y024173D01*
X018803Y024163D01*
X018819Y024156D01*
X018836Y024152D01*
X018853Y024150D01*
X019003Y022600D02*
X019005Y022663D01*
X019011Y022725D01*
X019021Y022787D01*
X019034Y022849D01*
X019052Y022909D01*
X019073Y022968D01*
X019098Y023026D01*
X019127Y023082D01*
X019159Y023136D01*
X019194Y023188D01*
X019232Y023237D01*
X019274Y023285D01*
X019318Y023329D01*
X019366Y023371D01*
X019415Y023409D01*
X019467Y023444D01*
X019521Y023476D01*
X019577Y023505D01*
X019635Y023530D01*
X019694Y023551D01*
X019754Y023569D01*
X019816Y023582D01*
X019878Y023592D01*
X019940Y023598D01*
X020003Y023600D01*
X020066Y023598D01*
X020128Y023592D01*
X020190Y023582D01*
X020252Y023569D01*
X020312Y023551D01*
X020371Y023530D01*
X020429Y023505D01*
X020485Y023476D01*
X020539Y023444D01*
X020591Y023409D01*
X020640Y023371D01*
X020688Y023329D01*
X020732Y023285D01*
X020774Y023237D01*
X020812Y023188D01*
X020847Y023136D01*
X020879Y023082D01*
X020908Y023026D01*
X020933Y022968D01*
X020954Y022909D01*
X020972Y022849D01*
X020985Y022787D01*
X020995Y022725D01*
X021001Y022663D01*
X021003Y022600D01*
X021001Y022537D01*
X020995Y022475D01*
X020985Y022413D01*
X020972Y022351D01*
X020954Y022291D01*
X020933Y022232D01*
X020908Y022174D01*
X020879Y022118D01*
X020847Y022064D01*
X020812Y022012D01*
X020774Y021963D01*
X020732Y021915D01*
X020688Y021871D01*
X020640Y021829D01*
X020591Y021791D01*
X020539Y021756D01*
X020485Y021724D01*
X020429Y021695D01*
X020371Y021670D01*
X020312Y021649D01*
X020252Y021631D01*
X020190Y021618D01*
X020128Y021608D01*
X020066Y021602D01*
X020003Y021600D01*
X019940Y021602D01*
X019878Y021608D01*
X019816Y021618D01*
X019754Y021631D01*
X019694Y021649D01*
X019635Y021670D01*
X019577Y021695D01*
X019521Y021724D01*
X019467Y021756D01*
X019415Y021791D01*
X019366Y021829D01*
X019318Y021871D01*
X019274Y021915D01*
X019232Y021963D01*
X019194Y022012D01*
X019159Y022064D01*
X019127Y022118D01*
X019098Y022174D01*
X019073Y022232D01*
X019052Y022291D01*
X019034Y022351D01*
X019021Y022413D01*
X019011Y022475D01*
X019005Y022537D01*
X019003Y022600D01*
X019003Y019600D02*
X019005Y019663D01*
X019011Y019725D01*
X019021Y019787D01*
X019034Y019849D01*
X019052Y019909D01*
X019073Y019968D01*
X019098Y020026D01*
X019127Y020082D01*
X019159Y020136D01*
X019194Y020188D01*
X019232Y020237D01*
X019274Y020285D01*
X019318Y020329D01*
X019366Y020371D01*
X019415Y020409D01*
X019467Y020444D01*
X019521Y020476D01*
X019577Y020505D01*
X019635Y020530D01*
X019694Y020551D01*
X019754Y020569D01*
X019816Y020582D01*
X019878Y020592D01*
X019940Y020598D01*
X020003Y020600D01*
X020066Y020598D01*
X020128Y020592D01*
X020190Y020582D01*
X020252Y020569D01*
X020312Y020551D01*
X020371Y020530D01*
X020429Y020505D01*
X020485Y020476D01*
X020539Y020444D01*
X020591Y020409D01*
X020640Y020371D01*
X020688Y020329D01*
X020732Y020285D01*
X020774Y020237D01*
X020812Y020188D01*
X020847Y020136D01*
X020879Y020082D01*
X020908Y020026D01*
X020933Y019968D01*
X020954Y019909D01*
X020972Y019849D01*
X020985Y019787D01*
X020995Y019725D01*
X021001Y019663D01*
X021003Y019600D01*
X021001Y019537D01*
X020995Y019475D01*
X020985Y019413D01*
X020972Y019351D01*
X020954Y019291D01*
X020933Y019232D01*
X020908Y019174D01*
X020879Y019118D01*
X020847Y019064D01*
X020812Y019012D01*
X020774Y018963D01*
X020732Y018915D01*
X020688Y018871D01*
X020640Y018829D01*
X020591Y018791D01*
X020539Y018756D01*
X020485Y018724D01*
X020429Y018695D01*
X020371Y018670D01*
X020312Y018649D01*
X020252Y018631D01*
X020190Y018618D01*
X020128Y018608D01*
X020066Y018602D01*
X020003Y018600D01*
X019940Y018602D01*
X019878Y018608D01*
X019816Y018618D01*
X019754Y018631D01*
X019694Y018649D01*
X019635Y018670D01*
X019577Y018695D01*
X019521Y018724D01*
X019467Y018756D01*
X019415Y018791D01*
X019366Y018829D01*
X019318Y018871D01*
X019274Y018915D01*
X019232Y018963D01*
X019194Y019012D01*
X019159Y019064D01*
X019127Y019118D01*
X019098Y019174D01*
X019073Y019232D01*
X019052Y019291D01*
X019034Y019351D01*
X019021Y019413D01*
X019011Y019475D01*
X019005Y019537D01*
X019003Y019600D01*
X019038Y027804D02*
X019188Y027804D01*
X019238Y027854D01*
X021138Y027854D01*
X021188Y027804D01*
X021338Y027804D01*
X021355Y027806D01*
X021372Y027810D01*
X021388Y027817D01*
X021402Y027827D01*
X021415Y027840D01*
X021425Y027854D01*
X021432Y027870D01*
X021436Y027887D01*
X021438Y027904D01*
X021438Y028604D01*
X021436Y028621D01*
X021432Y028638D01*
X021425Y028654D01*
X021415Y028668D01*
X021402Y028681D01*
X021388Y028691D01*
X021372Y028698D01*
X021355Y028702D01*
X021338Y028704D01*
X021188Y028704D01*
X021138Y028654D01*
X019238Y028654D01*
X019188Y028704D01*
X019038Y028704D01*
X019021Y028702D01*
X019004Y028698D01*
X018988Y028691D01*
X018974Y028681D01*
X018961Y028668D01*
X018951Y028654D01*
X018944Y028638D01*
X018940Y028621D01*
X018938Y028604D01*
X018938Y027904D01*
X018940Y027887D01*
X018944Y027870D01*
X018951Y027854D01*
X018961Y027840D01*
X018974Y027827D01*
X018988Y027817D01*
X019004Y027810D01*
X019021Y027806D01*
X019038Y027804D01*
X019253Y029350D02*
X018753Y029350D01*
X018503Y029600D01*
X018503Y031100D01*
X018753Y031350D01*
X019253Y031350D01*
X019503Y031100D01*
X019503Y029600D01*
X019253Y029350D01*
X019503Y029600D02*
X019753Y029350D01*
X020253Y029350D01*
X020503Y029600D01*
X020503Y031100D01*
X020753Y031350D01*
X021253Y031350D01*
X021503Y031100D01*
X021503Y029600D01*
X021253Y029350D01*
X020753Y029350D01*
X020503Y029600D01*
X021503Y029600D02*
X021753Y029350D01*
X022253Y029350D01*
X022503Y029600D01*
X022503Y031100D01*
X022753Y031350D01*
X023253Y031350D01*
X023503Y031100D01*
X023503Y029600D01*
X023253Y029350D01*
X022753Y029350D01*
X022503Y029600D01*
X023503Y029600D02*
X023753Y029350D01*
X024253Y029350D01*
X024503Y029600D01*
X024503Y031100D01*
X024753Y031350D01*
X025253Y031350D01*
X025503Y031100D01*
X025753Y031350D01*
X026253Y031350D01*
X026503Y031100D01*
X026753Y031350D01*
X027253Y031350D01*
X027503Y031100D01*
X027753Y031350D01*
X028253Y031350D01*
X028503Y031100D01*
X028753Y031350D01*
X029253Y031350D01*
X029503Y031100D01*
X029753Y031350D01*
X030253Y031350D01*
X030503Y031100D01*
X030753Y031350D01*
X031253Y031350D01*
X031503Y031100D01*
X031753Y031350D01*
X032253Y031350D01*
X032503Y031100D01*
X032503Y029600D01*
X032253Y029350D01*
X031753Y029350D01*
X031503Y029600D01*
X031503Y031100D01*
X030503Y031100D02*
X030503Y029600D01*
X030753Y029350D01*
X031253Y029350D01*
X031503Y029600D01*
X030503Y029600D02*
X030253Y029350D01*
X029753Y029350D01*
X029503Y029600D01*
X029503Y031100D01*
X028503Y031100D02*
X028503Y029600D01*
X028753Y029350D01*
X029253Y029350D01*
X029503Y029600D01*
X028503Y029600D02*
X028253Y029350D01*
X027753Y029350D01*
X027503Y029600D01*
X027503Y031100D01*
X026503Y031100D02*
X026503Y029600D01*
X026753Y029350D01*
X027253Y029350D01*
X027503Y029600D01*
X026503Y029600D02*
X026253Y029350D01*
X025753Y029350D01*
X025503Y029600D01*
X025503Y031100D01*
X024503Y031100D02*
X024253Y031350D01*
X023753Y031350D01*
X023503Y031100D01*
X022503Y031100D02*
X022253Y031350D01*
X021753Y031350D01*
X021503Y031100D01*
X020503Y031100D02*
X020253Y031350D01*
X019753Y031350D01*
X019503Y031100D01*
X018503Y031100D02*
X018253Y031350D01*
X017753Y031350D01*
X017503Y031100D01*
X017503Y029600D01*
X017253Y029350D01*
X016753Y029350D01*
X016503Y029600D01*
X016503Y031100D01*
X016753Y031350D01*
X017253Y031350D01*
X017503Y031100D01*
X016503Y031100D02*
X016253Y031350D01*
X015753Y031350D01*
X015503Y031100D01*
X015503Y029600D01*
X015753Y029350D01*
X016253Y029350D01*
X016503Y029600D01*
X017503Y029600D02*
X017753Y029350D01*
X018253Y029350D01*
X018503Y029600D01*
X015503Y029600D02*
X015253Y029350D01*
X014753Y029350D01*
X014503Y029600D01*
X014503Y031100D01*
X014753Y031350D01*
X015253Y031350D01*
X015503Y031100D01*
X014503Y031100D02*
X014253Y031350D01*
X013753Y031350D01*
X013503Y031100D01*
X013503Y029600D01*
X013753Y029350D01*
X014253Y029350D01*
X014503Y029600D01*
X013503Y029600D02*
X013253Y029350D01*
X012753Y029350D01*
X012503Y029600D01*
X012503Y031100D01*
X012753Y031350D01*
X013253Y031350D01*
X013503Y031100D01*
X012503Y031100D02*
X012253Y031350D01*
X011753Y031350D01*
X011503Y031100D01*
X011503Y029600D01*
X011753Y029350D01*
X012253Y029350D01*
X012503Y029600D01*
X011503Y029600D02*
X011253Y029350D01*
X010753Y029350D01*
X010503Y029600D01*
X010503Y031100D01*
X010753Y031350D01*
X011253Y031350D01*
X011503Y031100D01*
X010503Y031100D02*
X010253Y031350D01*
X009753Y031350D01*
X009503Y031100D01*
X009503Y029600D01*
X009753Y029350D01*
X010253Y029350D01*
X010503Y029600D01*
X023408Y028507D02*
X023408Y028007D01*
X023658Y027757D01*
X024158Y027757D01*
X024408Y028007D01*
X024408Y028507D01*
X024158Y028757D01*
X023658Y028757D01*
X023408Y028507D01*
X024408Y028507D02*
X024658Y028757D01*
X025158Y028757D01*
X025408Y028507D01*
X025658Y028757D01*
X026158Y028757D01*
X026408Y028507D01*
X026408Y028007D01*
X026158Y027757D01*
X025658Y027757D01*
X025408Y028007D01*
X025158Y027757D01*
X024658Y027757D01*
X024408Y028007D01*
X025408Y028007D02*
X025408Y028507D01*
X025253Y029350D02*
X024753Y029350D01*
X024503Y029600D01*
X025253Y029350D02*
X025503Y029600D01*
X029895Y023318D02*
X031693Y023318D01*
X030134Y022968D02*
X030136Y022994D01*
X030142Y023020D01*
X030151Y023044D01*
X030164Y023067D01*
X030180Y023088D01*
X030199Y023106D01*
X030220Y023122D01*
X030244Y023134D01*
X030268Y023142D01*
X030294Y023147D01*
X030321Y023148D01*
X030347Y023145D01*
X030372Y023138D01*
X030396Y023128D01*
X030419Y023114D01*
X030439Y023098D01*
X030456Y023078D01*
X030471Y023056D01*
X030482Y023032D01*
X030490Y023007D01*
X030494Y022981D01*
X030494Y022955D01*
X030490Y022929D01*
X030482Y022904D01*
X030471Y022880D01*
X030456Y022858D01*
X030439Y022838D01*
X030419Y022822D01*
X030396Y022808D01*
X030372Y022798D01*
X030347Y022791D01*
X030321Y022788D01*
X030294Y022789D01*
X030268Y022794D01*
X030244Y022802D01*
X030220Y022814D01*
X030199Y022830D01*
X030180Y022848D01*
X030164Y022869D01*
X030151Y022892D01*
X030142Y022916D01*
X030136Y022942D01*
X030134Y022968D01*
X029895Y020827D02*
X031693Y020827D01*
X034372Y018430D02*
X034692Y018109D01*
X034692Y018536D01*
X035012Y018430D02*
X034372Y018430D01*
X034372Y017678D02*
X035012Y017678D01*
X035012Y017465D02*
X035012Y017892D01*
X034585Y017465D02*
X034372Y017678D01*
X034478Y017247D02*
X034905Y016820D01*
X035012Y016927D01*
X035012Y017140D01*
X034905Y017247D01*
X034478Y017247D01*
X034372Y017140D01*
X034372Y016927D01*
X034478Y016820D01*
X034905Y016820D01*
X035012Y016603D02*
X035012Y016176D01*
X034585Y016603D01*
X034478Y016603D01*
X034372Y016496D01*
X034372Y016282D01*
X034478Y016176D01*
X034478Y015314D02*
X034372Y015207D01*
X034372Y014993D01*
X034478Y014886D01*
X034585Y014886D01*
X034692Y014993D01*
X034692Y015207D01*
X034799Y015314D01*
X034905Y015314D01*
X035012Y015207D01*
X035012Y014993D01*
X034905Y014886D01*
X035012Y014669D02*
X035012Y014242D01*
X034372Y014242D01*
X034372Y014669D01*
X034692Y014455D02*
X034692Y014242D01*
X034692Y014024D02*
X034799Y013918D01*
X034799Y013597D01*
X035012Y013597D02*
X034372Y013597D01*
X034372Y013918D01*
X034478Y014024D01*
X034692Y014024D01*
X034799Y013811D02*
X035012Y014024D01*
X035012Y013380D02*
X034585Y013380D01*
X034372Y013166D01*
X034585Y012953D01*
X035012Y012953D01*
X034692Y012953D02*
X034692Y013380D01*
D11*
X033198Y013373D02*
X033198Y012759D01*
X033198Y013066D02*
X031357Y013066D01*
X031357Y012759D02*
X031357Y013373D01*
X031971Y013986D02*
X031357Y014600D01*
X031971Y015214D01*
X033198Y015214D01*
X032278Y015214D02*
X032278Y013986D01*
X031971Y013986D02*
X033198Y013986D01*
D12*
X033209Y021039D02*
X033286Y021039D01*
X033363Y021116D01*
X033363Y021269D01*
X033440Y021346D01*
X033516Y021346D01*
X033593Y021269D01*
X033593Y021116D01*
X033516Y021039D01*
X033209Y021039D02*
X033133Y021116D01*
X033133Y021269D01*
X033209Y021346D01*
X033133Y021500D02*
X033593Y021500D01*
X033440Y021500D02*
X033133Y021807D01*
X033286Y021960D02*
X033133Y022114D01*
X033593Y022114D01*
X033593Y022267D02*
X033593Y021960D01*
X033593Y021807D02*
X033363Y021576D01*
X030603Y023488D02*
X030362Y023488D01*
X030483Y023488D02*
X030483Y023849D01*
X030362Y023729D01*
X030234Y023849D02*
X030234Y023548D01*
X030174Y023488D01*
X030054Y023488D01*
X029994Y023548D01*
X029994Y023849D01*
X032912Y026840D02*
X033373Y027147D01*
X033373Y027301D02*
X033373Y027608D01*
X033373Y027454D02*
X032912Y027454D01*
X033066Y027301D01*
X032912Y027147D02*
X033373Y026840D01*
X020733Y017444D02*
X020733Y017137D01*
X020733Y017291D02*
X020272Y017291D01*
X020426Y017137D01*
X020349Y016984D02*
X020272Y016907D01*
X020272Y016754D01*
X020349Y016677D01*
X020656Y016677D01*
X020733Y016754D01*
X020733Y016907D01*
X020656Y016984D01*
X020733Y016523D02*
X020733Y016370D01*
X020733Y016447D02*
X020272Y016447D01*
X020272Y016523D02*
X020272Y016370D01*
X013247Y021542D02*
X013247Y021695D01*
X013170Y021772D01*
X012786Y021772D01*
X012863Y021926D02*
X012786Y022002D01*
X012786Y022156D01*
X012863Y022233D01*
X012863Y022386D02*
X012786Y022463D01*
X012786Y022616D01*
X012863Y022693D01*
X012940Y022693D01*
X013016Y022616D01*
X013093Y022693D01*
X013170Y022693D01*
X013247Y022616D01*
X013247Y022463D01*
X013170Y022386D01*
X013170Y022233D02*
X013093Y022233D01*
X013016Y022156D01*
X013016Y022002D01*
X012940Y021926D01*
X012863Y021926D01*
X012709Y022079D02*
X013323Y022079D01*
X013247Y022002D02*
X013247Y022156D01*
X013170Y022233D01*
X013247Y022002D02*
X013170Y021926D01*
X013247Y021542D02*
X013170Y021465D01*
X012786Y021465D01*
X013016Y022539D02*
X013016Y022616D01*
X012383Y020128D02*
X012383Y019667D01*
X012536Y019667D02*
X012229Y019667D01*
X012076Y019667D02*
X011769Y019667D01*
X011922Y019667D02*
X011922Y020128D01*
X011769Y019974D01*
X011615Y020051D02*
X011615Y019897D01*
X011538Y019821D01*
X011308Y019821D01*
X011462Y019821D02*
X011615Y019667D01*
X011308Y019667D02*
X011308Y020128D01*
X011538Y020128D01*
X011615Y020051D01*
X012229Y019974D02*
X012383Y020128D01*
X012392Y018478D02*
X012469Y018401D01*
X012162Y018094D01*
X012239Y018018D01*
X012392Y018018D01*
X012469Y018094D01*
X012469Y018401D01*
X012392Y018478D02*
X012239Y018478D01*
X012162Y018401D01*
X012162Y018094D01*
X012009Y018018D02*
X011702Y018018D01*
X011855Y018018D02*
X011855Y018478D01*
X011702Y018325D01*
X011548Y018401D02*
X011548Y018248D01*
X011472Y018171D01*
X011241Y018171D01*
X011241Y018018D02*
X011241Y018478D01*
X011472Y018478D01*
X011548Y018401D01*
X011395Y018171D02*
X011548Y018018D01*
X010597Y014080D02*
X010597Y013620D01*
X010444Y013620D02*
X010751Y013620D01*
X010444Y013927D02*
X010597Y014080D01*
X010290Y014004D02*
X010213Y014080D01*
X010060Y014080D01*
X009983Y014004D01*
X009983Y013927D01*
X010060Y013850D01*
X010213Y013850D01*
X010290Y013773D01*
X010290Y013697D01*
X010213Y013620D01*
X010060Y013620D01*
X009983Y013697D01*
X009830Y013697D02*
X009830Y014080D01*
X009523Y014080D02*
X009523Y013697D01*
X009600Y013620D01*
X009753Y013620D01*
X009830Y013697D01*
X010137Y013543D02*
X010137Y014157D01*
X010137Y028543D02*
X010137Y029157D01*
X010213Y029080D02*
X010290Y029004D01*
X010213Y029080D02*
X010060Y029080D01*
X009983Y029004D01*
X009983Y028927D01*
X010060Y028850D01*
X010213Y028850D01*
X010290Y028773D01*
X010290Y028697D01*
X010213Y028620D01*
X010060Y028620D01*
X009983Y028697D01*
X009830Y028697D02*
X009830Y029080D01*
X009523Y029080D02*
X009523Y028697D01*
X009600Y028620D01*
X009753Y028620D01*
X009830Y028697D01*
X010444Y028620D02*
X010751Y028620D01*
X010597Y028620D02*
X010597Y029080D01*
X010444Y028927D01*
D13*
X028904Y012667D02*
X029218Y012353D01*
X029218Y012510D02*
X028904Y012510D01*
X028904Y012353D02*
X029218Y012667D01*
X029061Y012667D02*
X029061Y012353D01*
D14*
X029009Y012340D02*
X028763Y012340D01*
X028639Y012217D01*
X028639Y011599D01*
X028378Y011723D02*
X028378Y011846D01*
X028254Y011970D01*
X028007Y011970D01*
X027884Y012093D01*
X027884Y012217D01*
X028007Y012340D01*
X028254Y012340D01*
X028378Y012217D01*
X028131Y012463D02*
X028131Y011476D01*
X028254Y011599D02*
X028007Y011599D01*
X027884Y011723D01*
X027623Y011723D02*
X027499Y011599D01*
X027252Y011599D01*
X027129Y011723D01*
X027129Y011846D01*
X027623Y012340D01*
X027129Y012340D01*
X028254Y011599D02*
X028378Y011723D01*
X029133Y011599D02*
X029133Y012217D01*
X029009Y012340D01*
X021003Y018850D02*
X021003Y020350D01*
X021003Y021850D02*
X021003Y023350D01*
X016503Y023350D02*
X016503Y021850D01*
X016503Y020350D02*
X016503Y018850D01*
X016503Y017350D02*
X016503Y015850D01*
X033530Y025895D02*
X036444Y025895D01*
X036444Y029124D01*
X033530Y029124D01*
X033530Y025895D01*
X035902Y025994D02*
X035902Y026338D01*
X036040Y026476D01*
X036385Y026476D01*
X036385Y027165D02*
X036040Y027165D01*
X035902Y027303D01*
X035902Y027716D01*
X036040Y027854D01*
X036385Y027854D01*
X036385Y028543D02*
X036040Y028543D01*
X035902Y028681D01*
X035902Y029025D01*
D15*
X035778Y025547D02*
X035385Y025547D01*
X035385Y025350D01*
X034204Y025350D01*
X034204Y025547D01*
X033810Y025547D01*
X033810Y020822D01*
X034204Y020822D01*
X034204Y021019D01*
X035385Y021019D01*
X035385Y020822D01*
X035778Y020822D01*
X035778Y025547D01*
X026303Y027062D02*
X026003Y027062D01*
X026153Y027062D02*
X026153Y027513D01*
X026003Y027363D01*
X025843Y027438D02*
X025843Y027288D01*
X025768Y027213D01*
X025543Y027213D01*
X025543Y027062D02*
X025543Y027513D01*
X025768Y027513D01*
X025843Y027438D01*
X025382Y027513D02*
X025232Y027513D01*
X025307Y027513D02*
X025307Y027138D01*
X025232Y027062D01*
X025157Y027062D01*
X025082Y027138D01*
X021253Y027404D02*
X020952Y027404D01*
X021178Y027629D01*
X021178Y027179D01*
X020792Y027179D02*
X020642Y027329D01*
X020717Y027329D02*
X020492Y027329D01*
X020492Y027179D02*
X020492Y027629D01*
X020717Y027629D01*
X020792Y027554D01*
X020792Y027404D01*
X020717Y027329D01*
X019588Y025675D02*
X019288Y025675D01*
X019288Y025450D01*
X019438Y025525D01*
X019513Y025525D01*
X019588Y025450D01*
X019588Y025300D01*
X019513Y025225D01*
X019363Y025225D01*
X019288Y025300D01*
X019128Y025225D02*
X018978Y025375D01*
X019053Y025375D02*
X018828Y025375D01*
X018828Y025225D02*
X018828Y025675D01*
X019053Y025675D01*
X019128Y025600D01*
X019128Y025450D01*
X019053Y025375D01*
X018384Y023285D02*
X018459Y023210D01*
X018459Y023135D01*
X018384Y023060D01*
X018459Y022985D01*
X018459Y022910D01*
X018384Y022835D01*
X018234Y022835D01*
X018159Y022910D01*
X017999Y022910D02*
X017924Y022835D01*
X017699Y022835D01*
X017699Y023285D01*
X017924Y023285D01*
X017999Y023210D01*
X017999Y022910D01*
X018159Y023210D02*
X018234Y023285D01*
X018384Y023285D01*
X018384Y023060D02*
X018309Y023060D01*
X017538Y022835D02*
X017238Y022835D01*
X017238Y023285D01*
X017538Y023285D01*
X017388Y023060D02*
X017238Y023060D01*
X017078Y022835D02*
X016778Y022835D01*
X016778Y023285D01*
X014519Y022479D02*
X014444Y022479D01*
X014143Y022779D01*
X014068Y022779D01*
X014068Y022479D01*
X014143Y022319D02*
X014294Y022319D01*
X014369Y022244D01*
X014369Y022018D01*
X014519Y022018D02*
X014068Y022018D01*
X014068Y022244D01*
X014143Y022319D01*
X014369Y022169D02*
X014519Y022319D01*
X012570Y023023D02*
X012176Y023023D01*
X012176Y022826D01*
X010995Y022826D01*
X010995Y023023D01*
X010601Y023023D01*
X010601Y020299D01*
X010995Y020299D01*
X010995Y020496D01*
X012176Y020496D01*
X012176Y020299D01*
X012570Y020299D01*
X012570Y023023D01*
X016778Y020285D02*
X016778Y019835D01*
X017078Y019835D01*
X017238Y019835D02*
X017238Y020285D01*
X017538Y020285D01*
X017699Y020285D02*
X017699Y019835D01*
X017924Y019835D01*
X017999Y019910D01*
X017999Y020210D01*
X017924Y020285D01*
X017699Y020285D01*
X017378Y020225D02*
X017228Y020075D01*
X017238Y020060D02*
X017388Y020060D01*
X017378Y019925D02*
X016927Y019925D01*
X016927Y020150D01*
X017003Y020225D01*
X017153Y020225D01*
X017228Y020150D01*
X017228Y019925D01*
X017238Y019835D02*
X017538Y019835D01*
X017303Y020385D02*
X017153Y020385D01*
X017153Y020611D01*
X017228Y020686D01*
X017303Y020686D01*
X017378Y020611D01*
X017378Y020460D01*
X017303Y020385D01*
X017153Y020385D02*
X017003Y020536D01*
X016927Y020686D01*
X018159Y020060D02*
X018459Y020060D01*
X018384Y019835D02*
X018384Y020285D01*
X018159Y020060D01*
X021278Y019835D02*
X021578Y019835D01*
X021738Y019835D02*
X022038Y019835D01*
X022199Y019835D02*
X022424Y019835D01*
X022499Y019910D01*
X022499Y020210D01*
X022424Y020285D01*
X022199Y020285D01*
X022199Y019835D01*
X021888Y020060D02*
X021738Y020060D01*
X021738Y020285D02*
X021738Y019835D01*
X021738Y020285D02*
X022038Y020285D01*
X022659Y020210D02*
X022734Y020285D01*
X022884Y020285D01*
X022959Y020210D01*
X022959Y020135D01*
X022659Y019835D01*
X022959Y019835D01*
X023127Y020904D02*
X023127Y021129D01*
X023203Y021204D01*
X023353Y021204D01*
X023428Y021129D01*
X023428Y020904D01*
X023578Y020904D02*
X023127Y020904D01*
X023428Y021054D02*
X023578Y021204D01*
X023578Y021365D02*
X023278Y021665D01*
X023203Y021665D01*
X023127Y021590D01*
X023127Y021440D01*
X023203Y021365D01*
X023578Y021365D02*
X023578Y021665D01*
X022959Y022835D02*
X022659Y022835D01*
X022809Y022835D02*
X022809Y023285D01*
X022659Y023135D01*
X022499Y023210D02*
X022424Y023285D01*
X022199Y023285D01*
X022199Y022835D01*
X022424Y022835D01*
X022499Y022910D01*
X022499Y023210D01*
X022038Y023285D02*
X021738Y023285D01*
X021738Y022835D01*
X022038Y022835D01*
X021888Y023060D02*
X021738Y023060D01*
X021578Y022835D02*
X021278Y022835D01*
X021278Y023285D01*
X021278Y020285D02*
X021278Y019835D01*
X018459Y017285D02*
X018159Y017285D01*
X018159Y017060D01*
X018309Y017135D01*
X018384Y017135D01*
X018459Y017060D01*
X018459Y016910D01*
X018384Y016835D01*
X018234Y016835D01*
X018159Y016910D01*
X017999Y016910D02*
X017999Y017210D01*
X017924Y017285D01*
X017699Y017285D01*
X017699Y016835D01*
X017924Y016835D01*
X017999Y016910D01*
X017538Y016835D02*
X017238Y016835D01*
X017238Y017285D01*
X017538Y017285D01*
X017388Y017060D02*
X017238Y017060D01*
X017078Y016835D02*
X016778Y016835D01*
X016778Y017285D01*
X016832Y016075D02*
X016757Y016000D01*
X016757Y015700D01*
X016832Y015625D01*
X016982Y015625D01*
X017057Y015700D01*
X017217Y015625D02*
X017518Y015625D01*
X017368Y015625D02*
X017368Y016075D01*
X017217Y015925D01*
X017057Y016000D02*
X016982Y016075D01*
X016832Y016075D01*
X014578Y017404D02*
X014127Y017404D01*
X014127Y017629D01*
X014203Y017704D01*
X014353Y017704D01*
X014428Y017629D01*
X014428Y017404D01*
X014428Y017554D02*
X014578Y017704D01*
X014503Y017865D02*
X014578Y017940D01*
X014578Y018090D01*
X014503Y018165D01*
X014203Y018165D01*
X014127Y018090D01*
X014127Y017940D01*
X014203Y017865D01*
X014278Y017865D01*
X014353Y017940D01*
X014353Y018165D01*
X014343Y013475D02*
X014267Y013400D01*
X014267Y013325D01*
X014343Y013250D01*
X014493Y013250D01*
X014568Y013175D01*
X014568Y013100D01*
X014493Y013025D01*
X014343Y013025D01*
X014267Y013100D01*
X014267Y013175D01*
X014343Y013250D01*
X014493Y013250D02*
X014568Y013325D01*
X014568Y013400D01*
X014493Y013475D01*
X014343Y013475D01*
X014107Y013400D02*
X014107Y013250D01*
X014032Y013175D01*
X013807Y013175D01*
X013807Y013025D02*
X013807Y013475D01*
X014032Y013475D01*
X014107Y013400D01*
X013957Y013175D02*
X014107Y013025D01*
X019877Y014179D02*
X019953Y014104D01*
X020253Y014104D01*
X020328Y014179D01*
X020328Y014329D01*
X020253Y014404D01*
X020328Y014565D02*
X020028Y014865D01*
X019953Y014865D01*
X019877Y014790D01*
X019877Y014640D01*
X019953Y014565D01*
X019953Y014404D02*
X019877Y014329D01*
X019877Y014179D01*
X020328Y014565D02*
X020328Y014865D01*
X020603Y015375D02*
X020528Y015450D01*
X020603Y015375D02*
X020678Y015375D01*
X020753Y015450D01*
X020753Y015825D01*
X020678Y015825D02*
X020828Y015825D01*
X020988Y015825D02*
X020988Y015375D01*
X020988Y015525D02*
X021213Y015525D01*
X021288Y015600D01*
X021288Y015750D01*
X021213Y015825D01*
X020988Y015825D01*
X021449Y015750D02*
X021524Y015825D01*
X021674Y015825D01*
X021749Y015750D01*
X021749Y015675D01*
X021449Y015375D01*
X021749Y015375D01*
X024627Y018904D02*
X024627Y019129D01*
X024703Y019204D01*
X024853Y019204D01*
X024928Y019129D01*
X024928Y018904D01*
X025078Y018904D02*
X024627Y018904D01*
X024928Y019054D02*
X025078Y019204D01*
X025003Y019365D02*
X025078Y019440D01*
X025078Y019590D01*
X025003Y019665D01*
X024928Y019665D01*
X024853Y019590D01*
X024853Y019515D01*
X024853Y019590D02*
X024778Y019665D01*
X024703Y019665D01*
X024627Y019590D01*
X024627Y019440D01*
X024703Y019365D01*
X024728Y019425D02*
X024728Y019650D01*
X024653Y019725D01*
X024503Y019725D01*
X024427Y019650D01*
X024427Y019425D01*
X024878Y019425D01*
X024728Y019575D02*
X024878Y019725D01*
X024878Y019885D02*
X024878Y020186D01*
X024878Y020036D02*
X024427Y020036D01*
X024578Y019885D01*
D16*
X024003Y020020D03*
X025503Y019180D03*
X024003Y017180D03*
X022503Y019180D03*
X022503Y022020D03*
X025503Y022020D03*
X018003Y022520D03*
X018003Y019680D03*
X013444Y020294D03*
X013503Y018520D03*
X013503Y015680D03*
X013444Y023134D03*
D17*
X018303Y016600D03*
D18*
X018703Y014200D02*
X019003Y014200D01*
X019303Y014200D01*
X019303Y014000D02*
X019003Y014000D01*
X018703Y014000D01*
D19*
X016535Y017380D02*
X016463Y017326D01*
X016464Y017327D02*
X016421Y017380D01*
X016376Y017431D01*
X016327Y017479D01*
X016276Y017524D01*
X016222Y017567D01*
X016166Y017606D01*
X016108Y017642D01*
X016048Y017675D01*
X015987Y017704D01*
X015923Y017729D01*
X015859Y017751D01*
X015793Y017770D01*
X015726Y017784D01*
X015659Y017795D01*
X015591Y017802D01*
X015523Y017805D01*
X015454Y017804D01*
X015386Y017799D01*
X015318Y017791D01*
X015251Y017778D01*
X015185Y017762D01*
X015120Y017742D01*
X015055Y017719D01*
X014993Y017692D01*
X014932Y017661D01*
X014873Y017627D01*
X014815Y017590D01*
X014760Y017549D01*
X014708Y017505D01*
X014658Y017459D01*
X014611Y017410D01*
X014566Y017358D01*
X014525Y017304D01*
X014486Y017247D01*
X014451Y017188D01*
X014420Y017128D01*
X014392Y017066D01*
X014367Y017002D01*
X014346Y016937D01*
X014329Y016871D01*
X014315Y016804D01*
X014306Y016736D01*
X014300Y016668D01*
X014298Y016600D01*
X014300Y016532D01*
X014306Y016464D01*
X014315Y016396D01*
X014329Y016329D01*
X014346Y016263D01*
X014367Y016198D01*
X014392Y016134D01*
X014420Y016072D01*
X014451Y016012D01*
X014486Y015953D01*
X014525Y015896D01*
X014566Y015842D01*
X014611Y015790D01*
X014658Y015741D01*
X014708Y015695D01*
X014760Y015651D01*
X014815Y015610D01*
X014873Y015573D01*
X014932Y015539D01*
X014993Y015508D01*
X015055Y015481D01*
X015120Y015458D01*
X015185Y015438D01*
X015251Y015422D01*
X015318Y015409D01*
X015386Y015401D01*
X015454Y015396D01*
X015523Y015395D01*
X015591Y015398D01*
X015659Y015405D01*
X015726Y015416D01*
X015793Y015430D01*
X015859Y015449D01*
X015923Y015471D01*
X015987Y015496D01*
X016048Y015525D01*
X016108Y015558D01*
X016166Y015594D01*
X016222Y015633D01*
X016276Y015676D01*
X016327Y015721D01*
X016376Y015769D01*
X016421Y015820D01*
X016464Y015873D01*
X016535Y015820D01*
X016536Y015819D01*
X016492Y015764D01*
X016444Y015711D01*
X016394Y015660D01*
X016341Y015613D01*
X016286Y015569D01*
X016228Y015527D01*
X016168Y015489D01*
X016107Y015454D01*
X016043Y015423D01*
X015978Y015395D01*
X015911Y015371D01*
X015843Y015350D01*
X015774Y015334D01*
X015704Y015321D01*
X015634Y015312D01*
X015563Y015306D01*
X015492Y015305D01*
X015421Y015308D01*
X015350Y015314D01*
X015280Y015324D01*
X015211Y015338D01*
X015142Y015356D01*
X015074Y015378D01*
X015008Y015403D01*
X014943Y015432D01*
X014880Y015465D01*
X014819Y015501D01*
X014760Y015540D01*
X014703Y015582D01*
X014648Y015627D01*
X014596Y015676D01*
X014547Y015727D01*
X014500Y015780D01*
X014457Y015837D01*
X014417Y015895D01*
X014380Y015956D01*
X014346Y016018D01*
X014316Y016082D01*
X014289Y016148D01*
X014266Y016215D01*
X014247Y016284D01*
X014232Y016353D01*
X014220Y016423D01*
X014212Y016494D01*
X014208Y016565D01*
X014208Y016635D01*
X014212Y016706D01*
X014220Y016777D01*
X014232Y016847D01*
X014247Y016916D01*
X014266Y016985D01*
X014289Y017052D01*
X014316Y017118D01*
X014346Y017182D01*
X014380Y017244D01*
X014417Y017305D01*
X014457Y017363D01*
X014500Y017420D01*
X014547Y017473D01*
X014596Y017524D01*
X014648Y017573D01*
X014703Y017618D01*
X014760Y017660D01*
X014819Y017699D01*
X014880Y017735D01*
X014943Y017768D01*
X015008Y017797D01*
X015074Y017822D01*
X015142Y017844D01*
X015211Y017862D01*
X015280Y017876D01*
X015350Y017886D01*
X015421Y017892D01*
X015492Y017895D01*
X015563Y017894D01*
X015634Y017888D01*
X015704Y017879D01*
X015774Y017866D01*
X015843Y017850D01*
X015911Y017829D01*
X015978Y017805D01*
X016043Y017777D01*
X016107Y017746D01*
X016168Y017711D01*
X016228Y017673D01*
X016286Y017631D01*
X016341Y017587D01*
X016394Y017540D01*
X016444Y017489D01*
X016492Y017436D01*
X016536Y017381D01*
X016529Y017376D01*
X016484Y017431D01*
X016437Y017484D01*
X016386Y017535D01*
X016333Y017582D01*
X016277Y017627D01*
X016219Y017668D01*
X016159Y017706D01*
X016097Y017741D01*
X016033Y017772D01*
X015967Y017799D01*
X015900Y017823D01*
X015831Y017843D01*
X015762Y017860D01*
X015692Y017872D01*
X015621Y017881D01*
X015550Y017885D01*
X015479Y017886D01*
X015408Y017882D01*
X015337Y017875D01*
X015266Y017864D01*
X015197Y017849D01*
X015128Y017830D01*
X015060Y017807D01*
X014994Y017781D01*
X014929Y017751D01*
X014867Y017717D01*
X014806Y017681D01*
X014747Y017640D01*
X014690Y017597D01*
X014636Y017550D01*
X014585Y017501D01*
X014537Y017448D01*
X014491Y017394D01*
X014449Y017336D01*
X014410Y017277D01*
X014374Y017215D01*
X014341Y017152D01*
X014313Y017087D01*
X014287Y017020D01*
X014266Y016952D01*
X014248Y016883D01*
X014235Y016813D01*
X014225Y016742D01*
X014219Y016671D01*
X014217Y016600D01*
X014219Y016529D01*
X014225Y016458D01*
X014235Y016387D01*
X014248Y016317D01*
X014266Y016248D01*
X014287Y016180D01*
X014313Y016113D01*
X014341Y016048D01*
X014374Y015985D01*
X014410Y015923D01*
X014449Y015864D01*
X014491Y015806D01*
X014537Y015752D01*
X014585Y015699D01*
X014636Y015650D01*
X014690Y015603D01*
X014747Y015560D01*
X014806Y015519D01*
X014867Y015483D01*
X014929Y015449D01*
X014994Y015419D01*
X015060Y015393D01*
X015128Y015370D01*
X015197Y015351D01*
X015266Y015336D01*
X015337Y015325D01*
X015408Y015318D01*
X015479Y015314D01*
X015550Y015315D01*
X015621Y015319D01*
X015692Y015328D01*
X015762Y015340D01*
X015831Y015357D01*
X015900Y015377D01*
X015967Y015401D01*
X016033Y015428D01*
X016097Y015459D01*
X016159Y015494D01*
X016219Y015532D01*
X016277Y015573D01*
X016333Y015618D01*
X016386Y015665D01*
X016437Y015716D01*
X016484Y015769D01*
X016529Y015824D01*
X016522Y015830D01*
X016477Y015775D01*
X016430Y015722D01*
X016380Y015672D01*
X016327Y015625D01*
X016272Y015581D01*
X016214Y015539D01*
X016155Y015502D01*
X016093Y015467D01*
X016029Y015436D01*
X015964Y015409D01*
X015897Y015385D01*
X015829Y015365D01*
X015760Y015349D01*
X015691Y015337D01*
X015620Y015328D01*
X015550Y015324D01*
X015479Y015323D01*
X015408Y015327D01*
X015338Y015334D01*
X015268Y015345D01*
X015199Y015360D01*
X015131Y015379D01*
X015063Y015401D01*
X014998Y015427D01*
X014933Y015457D01*
X014871Y015490D01*
X014811Y015527D01*
X014752Y015567D01*
X014696Y015610D01*
X014642Y015656D01*
X014592Y015706D01*
X014543Y015757D01*
X014498Y015812D01*
X014456Y015869D01*
X014417Y015928D01*
X014382Y015989D01*
X014349Y016052D01*
X014321Y016117D01*
X014296Y016183D01*
X014275Y016251D01*
X014257Y016319D01*
X014244Y016389D01*
X014234Y016459D01*
X014228Y016529D01*
X014226Y016600D01*
X014228Y016671D01*
X014234Y016741D01*
X014244Y016811D01*
X014257Y016881D01*
X014275Y016949D01*
X014296Y017017D01*
X014321Y017083D01*
X014349Y017148D01*
X014382Y017211D01*
X014417Y017272D01*
X014456Y017331D01*
X014498Y017388D01*
X014543Y017443D01*
X014592Y017494D01*
X014642Y017544D01*
X014696Y017590D01*
X014752Y017633D01*
X014811Y017673D01*
X014871Y017710D01*
X014933Y017743D01*
X014998Y017773D01*
X015063Y017799D01*
X015131Y017821D01*
X015199Y017840D01*
X015268Y017855D01*
X015338Y017866D01*
X015408Y017873D01*
X015479Y017877D01*
X015550Y017876D01*
X015620Y017872D01*
X015691Y017863D01*
X015760Y017851D01*
X015829Y017835D01*
X015897Y017815D01*
X015964Y017791D01*
X016029Y017764D01*
X016093Y017733D01*
X016155Y017698D01*
X016214Y017661D01*
X016272Y017619D01*
X016327Y017575D01*
X016380Y017528D01*
X016430Y017478D01*
X016477Y017425D01*
X016522Y017370D01*
X016514Y017365D01*
X016470Y017420D01*
X016422Y017473D01*
X016372Y017523D01*
X016319Y017571D01*
X016263Y017615D01*
X016205Y017656D01*
X016145Y017693D01*
X016083Y017728D01*
X016019Y017758D01*
X015953Y017785D01*
X015886Y017809D01*
X015818Y017828D01*
X015748Y017844D01*
X015678Y017856D01*
X015608Y017864D01*
X015537Y017868D01*
X015466Y017867D01*
X015395Y017863D01*
X015324Y017855D01*
X015254Y017843D01*
X015185Y017827D01*
X015117Y017808D01*
X015049Y017784D01*
X014984Y017757D01*
X014920Y017726D01*
X014858Y017692D01*
X014798Y017654D01*
X014740Y017612D01*
X014684Y017568D01*
X014631Y017521D01*
X014581Y017470D01*
X014534Y017417D01*
X014489Y017362D01*
X014448Y017304D01*
X014411Y017244D01*
X014376Y017181D01*
X014345Y017117D01*
X014318Y017052D01*
X014295Y016985D01*
X014275Y016916D01*
X014259Y016847D01*
X014247Y016777D01*
X014239Y016706D01*
X014235Y016636D01*
X014235Y016564D01*
X014239Y016494D01*
X014247Y016423D01*
X014259Y016353D01*
X014275Y016284D01*
X014295Y016215D01*
X014318Y016148D01*
X014345Y016083D01*
X014376Y016019D01*
X014411Y015956D01*
X014448Y015896D01*
X014489Y015838D01*
X014534Y015783D01*
X014581Y015730D01*
X014631Y015679D01*
X014684Y015632D01*
X014740Y015588D01*
X014798Y015546D01*
X014858Y015508D01*
X014920Y015474D01*
X014984Y015443D01*
X015049Y015416D01*
X015117Y015392D01*
X015185Y015373D01*
X015254Y015357D01*
X015324Y015345D01*
X015395Y015337D01*
X015466Y015333D01*
X015537Y015332D01*
X015608Y015336D01*
X015678Y015344D01*
X015748Y015356D01*
X015818Y015372D01*
X015886Y015391D01*
X015953Y015415D01*
X016019Y015442D01*
X016083Y015472D01*
X016145Y015507D01*
X016205Y015544D01*
X016263Y015585D01*
X016319Y015629D01*
X016372Y015677D01*
X016422Y015727D01*
X016470Y015780D01*
X016514Y015835D01*
X016507Y015841D01*
X016463Y015786D01*
X016416Y015733D01*
X016366Y015683D01*
X016313Y015636D01*
X016258Y015592D01*
X016200Y015552D01*
X016141Y015514D01*
X016079Y015480D01*
X016015Y015450D01*
X015950Y015423D01*
X015883Y015400D01*
X015815Y015380D01*
X015747Y015365D01*
X015677Y015353D01*
X015607Y015345D01*
X015536Y015341D01*
X015466Y015342D01*
X015395Y015346D01*
X015325Y015354D01*
X015256Y015366D01*
X015187Y015381D01*
X015119Y015401D01*
X015053Y015424D01*
X014988Y015451D01*
X014924Y015482D01*
X014862Y015516D01*
X014803Y015554D01*
X014745Y015595D01*
X014690Y015639D01*
X014637Y015686D01*
X014588Y015736D01*
X014541Y015788D01*
X014497Y015844D01*
X014456Y015901D01*
X014418Y015961D01*
X014384Y016023D01*
X014354Y016086D01*
X014327Y016151D01*
X014303Y016218D01*
X014284Y016286D01*
X014268Y016355D01*
X014256Y016424D01*
X014248Y016494D01*
X014244Y016565D01*
X014244Y016635D01*
X014248Y016706D01*
X014256Y016776D01*
X014268Y016845D01*
X014284Y016914D01*
X014303Y016982D01*
X014327Y017049D01*
X014354Y017114D01*
X014384Y017177D01*
X014418Y017239D01*
X014456Y017299D01*
X014497Y017356D01*
X014541Y017412D01*
X014588Y017464D01*
X014637Y017514D01*
X014690Y017561D01*
X014745Y017605D01*
X014803Y017646D01*
X014862Y017684D01*
X014924Y017718D01*
X014988Y017749D01*
X015053Y017776D01*
X015119Y017799D01*
X015187Y017819D01*
X015256Y017834D01*
X015325Y017846D01*
X015395Y017854D01*
X015466Y017858D01*
X015536Y017859D01*
X015607Y017855D01*
X015677Y017847D01*
X015747Y017835D01*
X015815Y017820D01*
X015883Y017800D01*
X015950Y017777D01*
X016015Y017750D01*
X016079Y017720D01*
X016141Y017686D01*
X016200Y017648D01*
X016258Y017608D01*
X016313Y017564D01*
X016366Y017517D01*
X016416Y017467D01*
X016463Y017414D01*
X016507Y017359D01*
X016500Y017354D01*
X016456Y017409D01*
X016409Y017461D01*
X016360Y017510D01*
X016307Y017557D01*
X016253Y017600D01*
X016195Y017641D01*
X016136Y017678D01*
X016075Y017712D01*
X016011Y017742D01*
X015947Y017769D01*
X015880Y017792D01*
X015813Y017811D01*
X015745Y017826D01*
X015676Y017838D01*
X015606Y017846D01*
X015536Y017850D01*
X015466Y017849D01*
X015396Y017845D01*
X015327Y017837D01*
X015258Y017826D01*
X015189Y017810D01*
X015122Y017791D01*
X015056Y017767D01*
X014991Y017740D01*
X014928Y017710D01*
X014867Y017676D01*
X014808Y017639D01*
X014750Y017598D01*
X014696Y017554D01*
X014644Y017508D01*
X014594Y017458D01*
X014547Y017406D01*
X014504Y017351D01*
X014463Y017294D01*
X014426Y017235D01*
X014392Y017173D01*
X014362Y017110D01*
X014335Y017045D01*
X014312Y016979D01*
X014293Y016912D01*
X014277Y016844D01*
X014265Y016775D01*
X014257Y016705D01*
X014253Y016635D01*
X014253Y016565D01*
X014257Y016495D01*
X014265Y016425D01*
X014277Y016356D01*
X014293Y016288D01*
X014312Y016221D01*
X014335Y016155D01*
X014362Y016090D01*
X014392Y016027D01*
X014426Y015965D01*
X014463Y015906D01*
X014504Y015849D01*
X014547Y015794D01*
X014594Y015742D01*
X014644Y015692D01*
X014696Y015646D01*
X014750Y015602D01*
X014808Y015561D01*
X014867Y015524D01*
X014928Y015490D01*
X014991Y015460D01*
X015056Y015433D01*
X015122Y015409D01*
X015189Y015390D01*
X015258Y015374D01*
X015327Y015363D01*
X015396Y015355D01*
X015466Y015351D01*
X015536Y015350D01*
X015606Y015354D01*
X015676Y015362D01*
X015745Y015374D01*
X015813Y015389D01*
X015880Y015408D01*
X015947Y015431D01*
X016011Y015458D01*
X016075Y015488D01*
X016136Y015522D01*
X016195Y015559D01*
X016253Y015600D01*
X016307Y015643D01*
X016360Y015690D01*
X016409Y015739D01*
X016456Y015791D01*
X016500Y015846D01*
X016493Y015851D01*
X016449Y015797D01*
X016403Y015745D01*
X016354Y015696D01*
X016302Y015650D01*
X016247Y015607D01*
X016190Y015567D01*
X016131Y015530D01*
X016070Y015496D01*
X016008Y015466D01*
X015943Y015440D01*
X015878Y015417D01*
X015811Y015398D01*
X015743Y015382D01*
X015674Y015371D01*
X015605Y015363D01*
X015536Y015359D01*
X015466Y015360D01*
X015397Y015364D01*
X015328Y015371D01*
X015259Y015383D01*
X015192Y015399D01*
X015125Y015418D01*
X015059Y015441D01*
X014995Y015468D01*
X014932Y015498D01*
X014871Y015532D01*
X014813Y015569D01*
X014756Y015609D01*
X014702Y015652D01*
X014650Y015699D01*
X014601Y015748D01*
X014554Y015800D01*
X014511Y015854D01*
X014471Y015911D01*
X014434Y015970D01*
X014400Y016031D01*
X014370Y016094D01*
X014343Y016158D01*
X014320Y016223D01*
X014301Y016290D01*
X014286Y016358D01*
X014274Y016427D01*
X014266Y016496D01*
X014262Y016565D01*
X014262Y016635D01*
X014266Y016704D01*
X014274Y016773D01*
X014286Y016842D01*
X014301Y016910D01*
X014320Y016977D01*
X014343Y017042D01*
X014370Y017106D01*
X014400Y017169D01*
X014434Y017230D01*
X014471Y017289D01*
X014511Y017346D01*
X014554Y017400D01*
X014601Y017452D01*
X014650Y017501D01*
X014702Y017548D01*
X014756Y017591D01*
X014813Y017631D01*
X014871Y017668D01*
X014932Y017702D01*
X014995Y017732D01*
X015059Y017759D01*
X015125Y017782D01*
X015192Y017801D01*
X015259Y017817D01*
X015328Y017829D01*
X015397Y017836D01*
X015466Y017840D01*
X015536Y017841D01*
X015605Y017837D01*
X015674Y017829D01*
X015743Y017818D01*
X015811Y017802D01*
X015878Y017783D01*
X015943Y017760D01*
X016008Y017734D01*
X016070Y017704D01*
X016131Y017670D01*
X016190Y017633D01*
X016247Y017593D01*
X016302Y017550D01*
X016354Y017504D01*
X016403Y017455D01*
X016449Y017403D01*
X016493Y017349D01*
X016486Y017343D01*
X016442Y017397D01*
X016396Y017448D01*
X016347Y017497D01*
X016296Y017543D01*
X016242Y017586D01*
X016185Y017626D01*
X016127Y017662D01*
X016066Y017696D01*
X016004Y017726D01*
X015940Y017752D01*
X015875Y017774D01*
X015809Y017793D01*
X015741Y017809D01*
X015673Y017820D01*
X015605Y017828D01*
X015536Y017832D01*
X015467Y017831D01*
X015398Y017827D01*
X015329Y017820D01*
X015261Y017808D01*
X015194Y017793D01*
X015127Y017773D01*
X015062Y017750D01*
X014999Y017724D01*
X014936Y017694D01*
X014876Y017661D01*
X014818Y017624D01*
X014761Y017584D01*
X014707Y017541D01*
X014656Y017495D01*
X014607Y017446D01*
X014561Y017394D01*
X014518Y017340D01*
X014478Y017284D01*
X014442Y017225D01*
X014408Y017165D01*
X014378Y017103D01*
X014352Y017039D01*
X014329Y016974D01*
X014310Y016907D01*
X014295Y016840D01*
X014283Y016772D01*
X014275Y016703D01*
X014271Y016635D01*
X014271Y016565D01*
X014275Y016497D01*
X014283Y016428D01*
X014295Y016360D01*
X014310Y016293D01*
X014329Y016226D01*
X014352Y016161D01*
X014378Y016097D01*
X014408Y016035D01*
X014442Y015975D01*
X014478Y015916D01*
X014518Y015860D01*
X014561Y015806D01*
X014607Y015754D01*
X014656Y015705D01*
X014707Y015659D01*
X014761Y015616D01*
X014818Y015576D01*
X014876Y015539D01*
X014936Y015506D01*
X014999Y015476D01*
X015062Y015450D01*
X015127Y015427D01*
X015194Y015407D01*
X015261Y015392D01*
X015329Y015380D01*
X015398Y015373D01*
X015467Y015369D01*
X015536Y015368D01*
X015605Y015372D01*
X015673Y015380D01*
X015741Y015391D01*
X015809Y015407D01*
X015875Y015426D01*
X015940Y015448D01*
X016004Y015474D01*
X016066Y015504D01*
X016127Y015538D01*
X016185Y015574D01*
X016242Y015614D01*
X016296Y015657D01*
X016347Y015703D01*
X016396Y015752D01*
X016442Y015803D01*
X016486Y015857D01*
X016478Y015862D01*
X016435Y015808D01*
X016389Y015757D01*
X016339Y015708D01*
X016288Y015662D01*
X016233Y015619D01*
X016176Y015579D01*
X016118Y015543D01*
X016057Y015509D01*
X015994Y015480D01*
X015930Y015454D01*
X015864Y015432D01*
X015797Y015413D01*
X015730Y015398D01*
X015661Y015387D01*
X015592Y015380D01*
X015523Y015377D01*
X015454Y015378D01*
X015384Y015383D01*
X015316Y015391D01*
X015248Y015404D01*
X015180Y015420D01*
X015114Y015441D01*
X015049Y015464D01*
X014985Y015492D01*
X014923Y015523D01*
X014863Y015558D01*
X014805Y015596D01*
X014749Y015637D01*
X014696Y015681D01*
X014645Y015728D01*
X014597Y015778D01*
X014552Y015831D01*
X014510Y015886D01*
X014471Y015943D01*
X014436Y016003D01*
X014404Y016064D01*
X014375Y016127D01*
X014350Y016192D01*
X014329Y016258D01*
X014311Y016325D01*
X014298Y016393D01*
X014288Y016462D01*
X014282Y016531D01*
X014280Y016600D01*
X014282Y016669D01*
X014288Y016738D01*
X014298Y016807D01*
X014311Y016875D01*
X014329Y016942D01*
X014350Y017008D01*
X014375Y017073D01*
X014404Y017136D01*
X014436Y017197D01*
X014471Y017257D01*
X014510Y017314D01*
X014552Y017369D01*
X014597Y017422D01*
X014645Y017472D01*
X014696Y017519D01*
X014749Y017563D01*
X014805Y017604D01*
X014863Y017642D01*
X014923Y017677D01*
X014985Y017708D01*
X015049Y017736D01*
X015114Y017759D01*
X015180Y017780D01*
X015248Y017796D01*
X015316Y017809D01*
X015384Y017817D01*
X015454Y017822D01*
X015523Y017823D01*
X015592Y017820D01*
X015661Y017813D01*
X015730Y017802D01*
X015797Y017787D01*
X015864Y017768D01*
X015930Y017746D01*
X015994Y017720D01*
X016057Y017691D01*
X016118Y017657D01*
X016176Y017621D01*
X016233Y017581D01*
X016288Y017538D01*
X016339Y017492D01*
X016389Y017443D01*
X016435Y017392D01*
X016478Y017338D01*
X016471Y017332D01*
X016428Y017386D01*
X016382Y017437D01*
X016333Y017486D01*
X016282Y017531D01*
X016228Y017574D01*
X016171Y017613D01*
X016113Y017650D01*
X016053Y017683D01*
X015990Y017712D01*
X015927Y017738D01*
X015861Y017760D01*
X015795Y017778D01*
X015728Y017793D01*
X015660Y017804D01*
X015591Y017811D01*
X015523Y017814D01*
X015454Y017813D01*
X015385Y017808D01*
X015317Y017800D01*
X015249Y017787D01*
X015183Y017771D01*
X015117Y017751D01*
X015052Y017727D01*
X014989Y017700D01*
X014928Y017669D01*
X014868Y017635D01*
X014810Y017597D01*
X014755Y017556D01*
X014702Y017512D01*
X014652Y017465D01*
X014604Y017416D01*
X014559Y017364D01*
X014517Y017309D01*
X014479Y017252D01*
X014444Y017193D01*
X014412Y017132D01*
X014383Y017069D01*
X014359Y017005D01*
X014337Y016939D01*
X014320Y016873D01*
X014307Y016805D01*
X014297Y016737D01*
X014291Y016669D01*
X014289Y016600D01*
X014291Y016531D01*
X014297Y016463D01*
X014307Y016395D01*
X014320Y016327D01*
X014337Y016261D01*
X014359Y016195D01*
X014383Y016131D01*
X014412Y016068D01*
X014444Y016007D01*
X014479Y015948D01*
X014517Y015891D01*
X014559Y015836D01*
X014604Y015784D01*
X014652Y015735D01*
X014702Y015688D01*
X014755Y015644D01*
X014810Y015603D01*
X014868Y015565D01*
X014928Y015531D01*
X014989Y015500D01*
X015052Y015473D01*
X015117Y015449D01*
X015183Y015429D01*
X015249Y015413D01*
X015317Y015400D01*
X015385Y015392D01*
X015454Y015387D01*
X015523Y015386D01*
X015591Y015389D01*
X015660Y015396D01*
X015728Y015407D01*
X015795Y015422D01*
X015861Y015440D01*
X015927Y015462D01*
X015990Y015488D01*
X016053Y015517D01*
X016113Y015550D01*
X016171Y015587D01*
X016228Y015626D01*
X016282Y015669D01*
X016333Y015714D01*
X016382Y015763D01*
X016428Y015814D01*
X016471Y015868D01*
X016535Y020380D02*
X016463Y020326D01*
X016464Y020327D02*
X016421Y020380D01*
X016376Y020431D01*
X016327Y020479D01*
X016276Y020524D01*
X016222Y020567D01*
X016166Y020606D01*
X016108Y020642D01*
X016048Y020675D01*
X015987Y020704D01*
X015923Y020729D01*
X015859Y020751D01*
X015793Y020770D01*
X015726Y020784D01*
X015659Y020795D01*
X015591Y020802D01*
X015523Y020805D01*
X015454Y020804D01*
X015386Y020799D01*
X015318Y020791D01*
X015251Y020778D01*
X015185Y020762D01*
X015120Y020742D01*
X015055Y020719D01*
X014993Y020692D01*
X014932Y020661D01*
X014873Y020627D01*
X014815Y020590D01*
X014760Y020549D01*
X014708Y020505D01*
X014658Y020459D01*
X014611Y020410D01*
X014566Y020358D01*
X014525Y020304D01*
X014486Y020247D01*
X014451Y020188D01*
X014420Y020128D01*
X014392Y020066D01*
X014367Y020002D01*
X014346Y019937D01*
X014329Y019871D01*
X014315Y019804D01*
X014306Y019736D01*
X014300Y019668D01*
X014298Y019600D01*
X014300Y019532D01*
X014306Y019464D01*
X014315Y019396D01*
X014329Y019329D01*
X014346Y019263D01*
X014367Y019198D01*
X014392Y019134D01*
X014420Y019072D01*
X014451Y019012D01*
X014486Y018953D01*
X014525Y018896D01*
X014566Y018842D01*
X014611Y018790D01*
X014658Y018741D01*
X014708Y018695D01*
X014760Y018651D01*
X014815Y018610D01*
X014873Y018573D01*
X014932Y018539D01*
X014993Y018508D01*
X015055Y018481D01*
X015120Y018458D01*
X015185Y018438D01*
X015251Y018422D01*
X015318Y018409D01*
X015386Y018401D01*
X015454Y018396D01*
X015523Y018395D01*
X015591Y018398D01*
X015659Y018405D01*
X015726Y018416D01*
X015793Y018430D01*
X015859Y018449D01*
X015923Y018471D01*
X015987Y018496D01*
X016048Y018525D01*
X016108Y018558D01*
X016166Y018594D01*
X016222Y018633D01*
X016276Y018676D01*
X016327Y018721D01*
X016376Y018769D01*
X016421Y018820D01*
X016464Y018873D01*
X016535Y018820D01*
X016536Y018819D01*
X016492Y018764D01*
X016444Y018711D01*
X016394Y018660D01*
X016341Y018613D01*
X016286Y018569D01*
X016228Y018527D01*
X016168Y018489D01*
X016107Y018454D01*
X016043Y018423D01*
X015978Y018395D01*
X015911Y018371D01*
X015843Y018350D01*
X015774Y018334D01*
X015704Y018321D01*
X015634Y018312D01*
X015563Y018306D01*
X015492Y018305D01*
X015421Y018308D01*
X015350Y018314D01*
X015280Y018324D01*
X015211Y018338D01*
X015142Y018356D01*
X015074Y018378D01*
X015008Y018403D01*
X014943Y018432D01*
X014880Y018465D01*
X014819Y018501D01*
X014760Y018540D01*
X014703Y018582D01*
X014648Y018627D01*
X014596Y018676D01*
X014547Y018727D01*
X014500Y018780D01*
X014457Y018837D01*
X014417Y018895D01*
X014380Y018956D01*
X014346Y019018D01*
X014316Y019082D01*
X014289Y019148D01*
X014266Y019215D01*
X014247Y019284D01*
X014232Y019353D01*
X014220Y019423D01*
X014212Y019494D01*
X014208Y019565D01*
X014208Y019635D01*
X014212Y019706D01*
X014220Y019777D01*
X014232Y019847D01*
X014247Y019916D01*
X014266Y019985D01*
X014289Y020052D01*
X014316Y020118D01*
X014346Y020182D01*
X014380Y020244D01*
X014417Y020305D01*
X014457Y020363D01*
X014500Y020420D01*
X014547Y020473D01*
X014596Y020524D01*
X014648Y020573D01*
X014703Y020618D01*
X014760Y020660D01*
X014819Y020699D01*
X014880Y020735D01*
X014943Y020768D01*
X015008Y020797D01*
X015074Y020822D01*
X015142Y020844D01*
X015211Y020862D01*
X015280Y020876D01*
X015350Y020886D01*
X015421Y020892D01*
X015492Y020895D01*
X015563Y020894D01*
X015634Y020888D01*
X015704Y020879D01*
X015774Y020866D01*
X015843Y020850D01*
X015911Y020829D01*
X015978Y020805D01*
X016043Y020777D01*
X016107Y020746D01*
X016168Y020711D01*
X016228Y020673D01*
X016286Y020631D01*
X016341Y020587D01*
X016394Y020540D01*
X016444Y020489D01*
X016492Y020436D01*
X016536Y020381D01*
X016529Y020376D01*
X016484Y020431D01*
X016437Y020484D01*
X016386Y020535D01*
X016333Y020582D01*
X016277Y020627D01*
X016219Y020668D01*
X016159Y020706D01*
X016097Y020741D01*
X016033Y020772D01*
X015967Y020799D01*
X015900Y020823D01*
X015831Y020843D01*
X015762Y020860D01*
X015692Y020872D01*
X015621Y020881D01*
X015550Y020885D01*
X015479Y020886D01*
X015408Y020882D01*
X015337Y020875D01*
X015266Y020864D01*
X015197Y020849D01*
X015128Y020830D01*
X015060Y020807D01*
X014994Y020781D01*
X014929Y020751D01*
X014867Y020717D01*
X014806Y020681D01*
X014747Y020640D01*
X014690Y020597D01*
X014636Y020550D01*
X014585Y020501D01*
X014537Y020448D01*
X014491Y020394D01*
X014449Y020336D01*
X014410Y020277D01*
X014374Y020215D01*
X014341Y020152D01*
X014313Y020087D01*
X014287Y020020D01*
X014266Y019952D01*
X014248Y019883D01*
X014235Y019813D01*
X014225Y019742D01*
X014219Y019671D01*
X014217Y019600D01*
X014219Y019529D01*
X014225Y019458D01*
X014235Y019387D01*
X014248Y019317D01*
X014266Y019248D01*
X014287Y019180D01*
X014313Y019113D01*
X014341Y019048D01*
X014374Y018985D01*
X014410Y018923D01*
X014449Y018864D01*
X014491Y018806D01*
X014537Y018752D01*
X014585Y018699D01*
X014636Y018650D01*
X014690Y018603D01*
X014747Y018560D01*
X014806Y018519D01*
X014867Y018483D01*
X014929Y018449D01*
X014994Y018419D01*
X015060Y018393D01*
X015128Y018370D01*
X015197Y018351D01*
X015266Y018336D01*
X015337Y018325D01*
X015408Y018318D01*
X015479Y018314D01*
X015550Y018315D01*
X015621Y018319D01*
X015692Y018328D01*
X015762Y018340D01*
X015831Y018357D01*
X015900Y018377D01*
X015967Y018401D01*
X016033Y018428D01*
X016097Y018459D01*
X016159Y018494D01*
X016219Y018532D01*
X016277Y018573D01*
X016333Y018618D01*
X016386Y018665D01*
X016437Y018716D01*
X016484Y018769D01*
X016529Y018824D01*
X016522Y018830D01*
X016477Y018775D01*
X016430Y018722D01*
X016380Y018672D01*
X016327Y018625D01*
X016272Y018581D01*
X016214Y018539D01*
X016155Y018502D01*
X016093Y018467D01*
X016029Y018436D01*
X015964Y018409D01*
X015897Y018385D01*
X015829Y018365D01*
X015760Y018349D01*
X015691Y018337D01*
X015620Y018328D01*
X015550Y018324D01*
X015479Y018323D01*
X015408Y018327D01*
X015338Y018334D01*
X015268Y018345D01*
X015199Y018360D01*
X015131Y018379D01*
X015063Y018401D01*
X014998Y018427D01*
X014933Y018457D01*
X014871Y018490D01*
X014811Y018527D01*
X014752Y018567D01*
X014696Y018610D01*
X014642Y018656D01*
X014592Y018706D01*
X014543Y018757D01*
X014498Y018812D01*
X014456Y018869D01*
X014417Y018928D01*
X014382Y018989D01*
X014349Y019052D01*
X014321Y019117D01*
X014296Y019183D01*
X014275Y019251D01*
X014257Y019319D01*
X014244Y019389D01*
X014234Y019459D01*
X014228Y019529D01*
X014226Y019600D01*
X014228Y019671D01*
X014234Y019741D01*
X014244Y019811D01*
X014257Y019881D01*
X014275Y019949D01*
X014296Y020017D01*
X014321Y020083D01*
X014349Y020148D01*
X014382Y020211D01*
X014417Y020272D01*
X014456Y020331D01*
X014498Y020388D01*
X014543Y020443D01*
X014592Y020494D01*
X014642Y020544D01*
X014696Y020590D01*
X014752Y020633D01*
X014811Y020673D01*
X014871Y020710D01*
X014933Y020743D01*
X014998Y020773D01*
X015063Y020799D01*
X015131Y020821D01*
X015199Y020840D01*
X015268Y020855D01*
X015338Y020866D01*
X015408Y020873D01*
X015479Y020877D01*
X015550Y020876D01*
X015620Y020872D01*
X015691Y020863D01*
X015760Y020851D01*
X015829Y020835D01*
X015897Y020815D01*
X015964Y020791D01*
X016029Y020764D01*
X016093Y020733D01*
X016155Y020698D01*
X016214Y020661D01*
X016272Y020619D01*
X016327Y020575D01*
X016380Y020528D01*
X016430Y020478D01*
X016477Y020425D01*
X016522Y020370D01*
X016514Y020365D01*
X016470Y020420D01*
X016422Y020473D01*
X016372Y020523D01*
X016319Y020571D01*
X016263Y020615D01*
X016205Y020656D01*
X016145Y020693D01*
X016083Y020728D01*
X016019Y020758D01*
X015953Y020785D01*
X015886Y020809D01*
X015818Y020828D01*
X015748Y020844D01*
X015678Y020856D01*
X015608Y020864D01*
X015537Y020868D01*
X015466Y020867D01*
X015395Y020863D01*
X015324Y020855D01*
X015254Y020843D01*
X015185Y020827D01*
X015117Y020808D01*
X015049Y020784D01*
X014984Y020757D01*
X014920Y020726D01*
X014858Y020692D01*
X014798Y020654D01*
X014740Y020612D01*
X014684Y020568D01*
X014631Y020521D01*
X014581Y020470D01*
X014534Y020417D01*
X014489Y020362D01*
X014448Y020304D01*
X014411Y020244D01*
X014376Y020181D01*
X014345Y020117D01*
X014318Y020052D01*
X014295Y019985D01*
X014275Y019916D01*
X014259Y019847D01*
X014247Y019777D01*
X014239Y019706D01*
X014235Y019636D01*
X014235Y019564D01*
X014239Y019494D01*
X014247Y019423D01*
X014259Y019353D01*
X014275Y019284D01*
X014295Y019215D01*
X014318Y019148D01*
X014345Y019083D01*
X014376Y019019D01*
X014411Y018956D01*
X014448Y018896D01*
X014489Y018838D01*
X014534Y018783D01*
X014581Y018730D01*
X014631Y018679D01*
X014684Y018632D01*
X014740Y018588D01*
X014798Y018546D01*
X014858Y018508D01*
X014920Y018474D01*
X014984Y018443D01*
X015049Y018416D01*
X015117Y018392D01*
X015185Y018373D01*
X015254Y018357D01*
X015324Y018345D01*
X015395Y018337D01*
X015466Y018333D01*
X015537Y018332D01*
X015608Y018336D01*
X015678Y018344D01*
X015748Y018356D01*
X015818Y018372D01*
X015886Y018391D01*
X015953Y018415D01*
X016019Y018442D01*
X016083Y018472D01*
X016145Y018507D01*
X016205Y018544D01*
X016263Y018585D01*
X016319Y018629D01*
X016372Y018677D01*
X016422Y018727D01*
X016470Y018780D01*
X016514Y018835D01*
X016507Y018841D01*
X016463Y018786D01*
X016416Y018733D01*
X016366Y018683D01*
X016313Y018636D01*
X016258Y018592D01*
X016200Y018552D01*
X016141Y018514D01*
X016079Y018480D01*
X016015Y018450D01*
X015950Y018423D01*
X015883Y018400D01*
X015815Y018380D01*
X015747Y018365D01*
X015677Y018353D01*
X015607Y018345D01*
X015536Y018341D01*
X015466Y018342D01*
X015395Y018346D01*
X015325Y018354D01*
X015256Y018366D01*
X015187Y018381D01*
X015119Y018401D01*
X015053Y018424D01*
X014988Y018451D01*
X014924Y018482D01*
X014862Y018516D01*
X014803Y018554D01*
X014745Y018595D01*
X014690Y018639D01*
X014637Y018686D01*
X014588Y018736D01*
X014541Y018788D01*
X014497Y018844D01*
X014456Y018901D01*
X014418Y018961D01*
X014384Y019023D01*
X014354Y019086D01*
X014327Y019151D01*
X014303Y019218D01*
X014284Y019286D01*
X014268Y019355D01*
X014256Y019424D01*
X014248Y019494D01*
X014244Y019565D01*
X014244Y019635D01*
X014248Y019706D01*
X014256Y019776D01*
X014268Y019845D01*
X014284Y019914D01*
X014303Y019982D01*
X014327Y020049D01*
X014354Y020114D01*
X014384Y020177D01*
X014418Y020239D01*
X014456Y020299D01*
X014497Y020356D01*
X014541Y020412D01*
X014588Y020464D01*
X014637Y020514D01*
X014690Y020561D01*
X014745Y020605D01*
X014803Y020646D01*
X014862Y020684D01*
X014924Y020718D01*
X014988Y020749D01*
X015053Y020776D01*
X015119Y020799D01*
X015187Y020819D01*
X015256Y020834D01*
X015325Y020846D01*
X015395Y020854D01*
X015466Y020858D01*
X015536Y020859D01*
X015607Y020855D01*
X015677Y020847D01*
X015747Y020835D01*
X015815Y020820D01*
X015883Y020800D01*
X015950Y020777D01*
X016015Y020750D01*
X016079Y020720D01*
X016141Y020686D01*
X016200Y020648D01*
X016258Y020608D01*
X016313Y020564D01*
X016366Y020517D01*
X016416Y020467D01*
X016463Y020414D01*
X016507Y020359D01*
X016500Y020354D01*
X016456Y020409D01*
X016409Y020461D01*
X016360Y020510D01*
X016307Y020557D01*
X016253Y020600D01*
X016195Y020641D01*
X016136Y020678D01*
X016075Y020712D01*
X016011Y020742D01*
X015947Y020769D01*
X015880Y020792D01*
X015813Y020811D01*
X015745Y020826D01*
X015676Y020838D01*
X015606Y020846D01*
X015536Y020850D01*
X015466Y020849D01*
X015396Y020845D01*
X015327Y020837D01*
X015258Y020826D01*
X015189Y020810D01*
X015122Y020791D01*
X015056Y020767D01*
X014991Y020740D01*
X014928Y020710D01*
X014867Y020676D01*
X014808Y020639D01*
X014750Y020598D01*
X014696Y020554D01*
X014644Y020508D01*
X014594Y020458D01*
X014547Y020406D01*
X014504Y020351D01*
X014463Y020294D01*
X014426Y020235D01*
X014392Y020173D01*
X014362Y020110D01*
X014335Y020045D01*
X014312Y019979D01*
X014293Y019912D01*
X014277Y019844D01*
X014265Y019775D01*
X014257Y019705D01*
X014253Y019635D01*
X014253Y019565D01*
X014257Y019495D01*
X014265Y019425D01*
X014277Y019356D01*
X014293Y019288D01*
X014312Y019221D01*
X014335Y019155D01*
X014362Y019090D01*
X014392Y019027D01*
X014426Y018965D01*
X014463Y018906D01*
X014504Y018849D01*
X014547Y018794D01*
X014594Y018742D01*
X014644Y018692D01*
X014696Y018646D01*
X014750Y018602D01*
X014808Y018561D01*
X014867Y018524D01*
X014928Y018490D01*
X014991Y018460D01*
X015056Y018433D01*
X015122Y018409D01*
X015189Y018390D01*
X015258Y018374D01*
X015327Y018363D01*
X015396Y018355D01*
X015466Y018351D01*
X015536Y018350D01*
X015606Y018354D01*
X015676Y018362D01*
X015745Y018374D01*
X015813Y018389D01*
X015880Y018408D01*
X015947Y018431D01*
X016011Y018458D01*
X016075Y018488D01*
X016136Y018522D01*
X016195Y018559D01*
X016253Y018600D01*
X016307Y018643D01*
X016360Y018690D01*
X016409Y018739D01*
X016456Y018791D01*
X016500Y018846D01*
X016493Y018851D01*
X016449Y018797D01*
X016403Y018745D01*
X016354Y018696D01*
X016302Y018650D01*
X016247Y018607D01*
X016190Y018567D01*
X016131Y018530D01*
X016070Y018496D01*
X016008Y018466D01*
X015943Y018440D01*
X015878Y018417D01*
X015811Y018398D01*
X015743Y018382D01*
X015674Y018371D01*
X015605Y018363D01*
X015536Y018359D01*
X015466Y018360D01*
X015397Y018364D01*
X015328Y018371D01*
X015259Y018383D01*
X015192Y018399D01*
X015125Y018418D01*
X015059Y018441D01*
X014995Y018468D01*
X014932Y018498D01*
X014871Y018532D01*
X014813Y018569D01*
X014756Y018609D01*
X014702Y018652D01*
X014650Y018699D01*
X014601Y018748D01*
X014554Y018800D01*
X014511Y018854D01*
X014471Y018911D01*
X014434Y018970D01*
X014400Y019031D01*
X014370Y019094D01*
X014343Y019158D01*
X014320Y019223D01*
X014301Y019290D01*
X014286Y019358D01*
X014274Y019427D01*
X014266Y019496D01*
X014262Y019565D01*
X014262Y019635D01*
X014266Y019704D01*
X014274Y019773D01*
X014286Y019842D01*
X014301Y019910D01*
X014320Y019977D01*
X014343Y020042D01*
X014370Y020106D01*
X014400Y020169D01*
X014434Y020230D01*
X014471Y020289D01*
X014511Y020346D01*
X014554Y020400D01*
X014601Y020452D01*
X014650Y020501D01*
X014702Y020548D01*
X014756Y020591D01*
X014813Y020631D01*
X014871Y020668D01*
X014932Y020702D01*
X014995Y020732D01*
X015059Y020759D01*
X015125Y020782D01*
X015192Y020801D01*
X015259Y020817D01*
X015328Y020829D01*
X015397Y020836D01*
X015466Y020840D01*
X015536Y020841D01*
X015605Y020837D01*
X015674Y020829D01*
X015743Y020818D01*
X015811Y020802D01*
X015878Y020783D01*
X015943Y020760D01*
X016008Y020734D01*
X016070Y020704D01*
X016131Y020670D01*
X016190Y020633D01*
X016247Y020593D01*
X016302Y020550D01*
X016354Y020504D01*
X016403Y020455D01*
X016449Y020403D01*
X016493Y020349D01*
X016486Y020343D01*
X016442Y020397D01*
X016396Y020448D01*
X016347Y020497D01*
X016296Y020543D01*
X016242Y020586D01*
X016185Y020626D01*
X016127Y020662D01*
X016066Y020696D01*
X016004Y020726D01*
X015940Y020752D01*
X015875Y020774D01*
X015809Y020793D01*
X015741Y020809D01*
X015673Y020820D01*
X015605Y020828D01*
X015536Y020832D01*
X015467Y020831D01*
X015398Y020827D01*
X015329Y020820D01*
X015261Y020808D01*
X015194Y020793D01*
X015127Y020773D01*
X015062Y020750D01*
X014999Y020724D01*
X014936Y020694D01*
X014876Y020661D01*
X014818Y020624D01*
X014761Y020584D01*
X014707Y020541D01*
X014656Y020495D01*
X014607Y020446D01*
X014561Y020394D01*
X014518Y020340D01*
X014478Y020284D01*
X014442Y020225D01*
X014408Y020165D01*
X014378Y020103D01*
X014352Y020039D01*
X014329Y019974D01*
X014310Y019907D01*
X014295Y019840D01*
X014283Y019772D01*
X014275Y019703D01*
X014271Y019635D01*
X014271Y019565D01*
X014275Y019497D01*
X014283Y019428D01*
X014295Y019360D01*
X014310Y019293D01*
X014329Y019226D01*
X014352Y019161D01*
X014378Y019097D01*
X014408Y019035D01*
X014442Y018975D01*
X014478Y018916D01*
X014518Y018860D01*
X014561Y018806D01*
X014607Y018754D01*
X014656Y018705D01*
X014707Y018659D01*
X014761Y018616D01*
X014818Y018576D01*
X014876Y018539D01*
X014936Y018506D01*
X014999Y018476D01*
X015062Y018450D01*
X015127Y018427D01*
X015194Y018407D01*
X015261Y018392D01*
X015329Y018380D01*
X015398Y018373D01*
X015467Y018369D01*
X015536Y018368D01*
X015605Y018372D01*
X015673Y018380D01*
X015741Y018391D01*
X015809Y018407D01*
X015875Y018426D01*
X015940Y018448D01*
X016004Y018474D01*
X016066Y018504D01*
X016127Y018538D01*
X016185Y018574D01*
X016242Y018614D01*
X016296Y018657D01*
X016347Y018703D01*
X016396Y018752D01*
X016442Y018803D01*
X016486Y018857D01*
X016478Y018862D01*
X016435Y018808D01*
X016389Y018757D01*
X016339Y018708D01*
X016288Y018662D01*
X016233Y018619D01*
X016176Y018579D01*
X016118Y018543D01*
X016057Y018509D01*
X015994Y018480D01*
X015930Y018454D01*
X015864Y018432D01*
X015797Y018413D01*
X015730Y018398D01*
X015661Y018387D01*
X015592Y018380D01*
X015523Y018377D01*
X015454Y018378D01*
X015384Y018383D01*
X015316Y018391D01*
X015248Y018404D01*
X015180Y018420D01*
X015114Y018441D01*
X015049Y018464D01*
X014985Y018492D01*
X014923Y018523D01*
X014863Y018558D01*
X014805Y018596D01*
X014749Y018637D01*
X014696Y018681D01*
X014645Y018728D01*
X014597Y018778D01*
X014552Y018831D01*
X014510Y018886D01*
X014471Y018943D01*
X014436Y019003D01*
X014404Y019064D01*
X014375Y019127D01*
X014350Y019192D01*
X014329Y019258D01*
X014311Y019325D01*
X014298Y019393D01*
X014288Y019462D01*
X014282Y019531D01*
X014280Y019600D01*
X014282Y019669D01*
X014288Y019738D01*
X014298Y019807D01*
X014311Y019875D01*
X014329Y019942D01*
X014350Y020008D01*
X014375Y020073D01*
X014404Y020136D01*
X014436Y020197D01*
X014471Y020257D01*
X014510Y020314D01*
X014552Y020369D01*
X014597Y020422D01*
X014645Y020472D01*
X014696Y020519D01*
X014749Y020563D01*
X014805Y020604D01*
X014863Y020642D01*
X014923Y020677D01*
X014985Y020708D01*
X015049Y020736D01*
X015114Y020759D01*
X015180Y020780D01*
X015248Y020796D01*
X015316Y020809D01*
X015384Y020817D01*
X015454Y020822D01*
X015523Y020823D01*
X015592Y020820D01*
X015661Y020813D01*
X015730Y020802D01*
X015797Y020787D01*
X015864Y020768D01*
X015930Y020746D01*
X015994Y020720D01*
X016057Y020691D01*
X016118Y020657D01*
X016176Y020621D01*
X016233Y020581D01*
X016288Y020538D01*
X016339Y020492D01*
X016389Y020443D01*
X016435Y020392D01*
X016478Y020338D01*
X016471Y020332D01*
X016428Y020386D01*
X016382Y020437D01*
X016333Y020486D01*
X016282Y020531D01*
X016228Y020574D01*
X016171Y020613D01*
X016113Y020650D01*
X016053Y020683D01*
X015990Y020712D01*
X015927Y020738D01*
X015861Y020760D01*
X015795Y020778D01*
X015728Y020793D01*
X015660Y020804D01*
X015591Y020811D01*
X015523Y020814D01*
X015454Y020813D01*
X015385Y020808D01*
X015317Y020800D01*
X015249Y020787D01*
X015183Y020771D01*
X015117Y020751D01*
X015052Y020727D01*
X014989Y020700D01*
X014928Y020669D01*
X014868Y020635D01*
X014810Y020597D01*
X014755Y020556D01*
X014702Y020512D01*
X014652Y020465D01*
X014604Y020416D01*
X014559Y020364D01*
X014517Y020309D01*
X014479Y020252D01*
X014444Y020193D01*
X014412Y020132D01*
X014383Y020069D01*
X014359Y020005D01*
X014337Y019939D01*
X014320Y019873D01*
X014307Y019805D01*
X014297Y019737D01*
X014291Y019669D01*
X014289Y019600D01*
X014291Y019531D01*
X014297Y019463D01*
X014307Y019395D01*
X014320Y019327D01*
X014337Y019261D01*
X014359Y019195D01*
X014383Y019131D01*
X014412Y019068D01*
X014444Y019007D01*
X014479Y018948D01*
X014517Y018891D01*
X014559Y018836D01*
X014604Y018784D01*
X014652Y018735D01*
X014702Y018688D01*
X014755Y018644D01*
X014810Y018603D01*
X014868Y018565D01*
X014928Y018531D01*
X014989Y018500D01*
X015052Y018473D01*
X015117Y018449D01*
X015183Y018429D01*
X015249Y018413D01*
X015317Y018400D01*
X015385Y018392D01*
X015454Y018387D01*
X015523Y018386D01*
X015591Y018389D01*
X015660Y018396D01*
X015728Y018407D01*
X015795Y018422D01*
X015861Y018440D01*
X015927Y018462D01*
X015990Y018488D01*
X016053Y018517D01*
X016113Y018550D01*
X016171Y018587D01*
X016228Y018626D01*
X016282Y018669D01*
X016333Y018714D01*
X016382Y018763D01*
X016428Y018814D01*
X016471Y018868D01*
X021035Y020380D02*
X020963Y020326D01*
X020964Y020327D02*
X020921Y020380D01*
X020876Y020431D01*
X020827Y020479D01*
X020776Y020524D01*
X020722Y020567D01*
X020666Y020606D01*
X020608Y020642D01*
X020548Y020675D01*
X020487Y020704D01*
X020423Y020729D01*
X020359Y020751D01*
X020293Y020770D01*
X020226Y020784D01*
X020159Y020795D01*
X020091Y020802D01*
X020023Y020805D01*
X019954Y020804D01*
X019886Y020799D01*
X019818Y020791D01*
X019751Y020778D01*
X019685Y020762D01*
X019620Y020742D01*
X019555Y020719D01*
X019493Y020692D01*
X019432Y020661D01*
X019373Y020627D01*
X019315Y020590D01*
X019260Y020549D01*
X019208Y020505D01*
X019158Y020459D01*
X019111Y020410D01*
X019066Y020358D01*
X019025Y020304D01*
X018986Y020247D01*
X018951Y020188D01*
X018920Y020128D01*
X018892Y020066D01*
X018867Y020002D01*
X018846Y019937D01*
X018829Y019871D01*
X018815Y019804D01*
X018806Y019736D01*
X018800Y019668D01*
X018798Y019600D01*
X018800Y019532D01*
X018806Y019464D01*
X018815Y019396D01*
X018829Y019329D01*
X018846Y019263D01*
X018867Y019198D01*
X018892Y019134D01*
X018920Y019072D01*
X018951Y019012D01*
X018986Y018953D01*
X019025Y018896D01*
X019066Y018842D01*
X019111Y018790D01*
X019158Y018741D01*
X019208Y018695D01*
X019260Y018651D01*
X019315Y018610D01*
X019373Y018573D01*
X019432Y018539D01*
X019493Y018508D01*
X019555Y018481D01*
X019620Y018458D01*
X019685Y018438D01*
X019751Y018422D01*
X019818Y018409D01*
X019886Y018401D01*
X019954Y018396D01*
X020023Y018395D01*
X020091Y018398D01*
X020159Y018405D01*
X020226Y018416D01*
X020293Y018430D01*
X020359Y018449D01*
X020423Y018471D01*
X020487Y018496D01*
X020548Y018525D01*
X020608Y018558D01*
X020666Y018594D01*
X020722Y018633D01*
X020776Y018676D01*
X020827Y018721D01*
X020876Y018769D01*
X020921Y018820D01*
X020964Y018873D01*
X021035Y018820D01*
X021036Y018819D01*
X020992Y018764D01*
X020944Y018711D01*
X020894Y018660D01*
X020841Y018613D01*
X020786Y018569D01*
X020728Y018527D01*
X020668Y018489D01*
X020607Y018454D01*
X020543Y018423D01*
X020478Y018395D01*
X020411Y018371D01*
X020343Y018350D01*
X020274Y018334D01*
X020204Y018321D01*
X020134Y018312D01*
X020063Y018306D01*
X019992Y018305D01*
X019921Y018308D01*
X019850Y018314D01*
X019780Y018324D01*
X019711Y018338D01*
X019642Y018356D01*
X019574Y018378D01*
X019508Y018403D01*
X019443Y018432D01*
X019380Y018465D01*
X019319Y018501D01*
X019260Y018540D01*
X019203Y018582D01*
X019148Y018627D01*
X019096Y018676D01*
X019047Y018727D01*
X019000Y018780D01*
X018957Y018837D01*
X018917Y018895D01*
X018880Y018956D01*
X018846Y019018D01*
X018816Y019082D01*
X018789Y019148D01*
X018766Y019215D01*
X018747Y019284D01*
X018732Y019353D01*
X018720Y019423D01*
X018712Y019494D01*
X018708Y019565D01*
X018708Y019635D01*
X018712Y019706D01*
X018720Y019777D01*
X018732Y019847D01*
X018747Y019916D01*
X018766Y019985D01*
X018789Y020052D01*
X018816Y020118D01*
X018846Y020182D01*
X018880Y020244D01*
X018917Y020305D01*
X018957Y020363D01*
X019000Y020420D01*
X019047Y020473D01*
X019096Y020524D01*
X019148Y020573D01*
X019203Y020618D01*
X019260Y020660D01*
X019319Y020699D01*
X019380Y020735D01*
X019443Y020768D01*
X019508Y020797D01*
X019574Y020822D01*
X019642Y020844D01*
X019711Y020862D01*
X019780Y020876D01*
X019850Y020886D01*
X019921Y020892D01*
X019992Y020895D01*
X020063Y020894D01*
X020134Y020888D01*
X020204Y020879D01*
X020274Y020866D01*
X020343Y020850D01*
X020411Y020829D01*
X020478Y020805D01*
X020543Y020777D01*
X020607Y020746D01*
X020668Y020711D01*
X020728Y020673D01*
X020786Y020631D01*
X020841Y020587D01*
X020894Y020540D01*
X020944Y020489D01*
X020992Y020436D01*
X021036Y020381D01*
X021029Y020376D01*
X020984Y020431D01*
X020937Y020484D01*
X020886Y020535D01*
X020833Y020582D01*
X020777Y020627D01*
X020719Y020668D01*
X020659Y020706D01*
X020597Y020741D01*
X020533Y020772D01*
X020467Y020799D01*
X020400Y020823D01*
X020331Y020843D01*
X020262Y020860D01*
X020192Y020872D01*
X020121Y020881D01*
X020050Y020885D01*
X019979Y020886D01*
X019908Y020882D01*
X019837Y020875D01*
X019766Y020864D01*
X019697Y020849D01*
X019628Y020830D01*
X019560Y020807D01*
X019494Y020781D01*
X019429Y020751D01*
X019367Y020717D01*
X019306Y020681D01*
X019247Y020640D01*
X019190Y020597D01*
X019136Y020550D01*
X019085Y020501D01*
X019037Y020448D01*
X018991Y020394D01*
X018949Y020336D01*
X018910Y020277D01*
X018874Y020215D01*
X018841Y020152D01*
X018813Y020087D01*
X018787Y020020D01*
X018766Y019952D01*
X018748Y019883D01*
X018735Y019813D01*
X018725Y019742D01*
X018719Y019671D01*
X018717Y019600D01*
X018719Y019529D01*
X018725Y019458D01*
X018735Y019387D01*
X018748Y019317D01*
X018766Y019248D01*
X018787Y019180D01*
X018813Y019113D01*
X018841Y019048D01*
X018874Y018985D01*
X018910Y018923D01*
X018949Y018864D01*
X018991Y018806D01*
X019037Y018752D01*
X019085Y018699D01*
X019136Y018650D01*
X019190Y018603D01*
X019247Y018560D01*
X019306Y018519D01*
X019367Y018483D01*
X019429Y018449D01*
X019494Y018419D01*
X019560Y018393D01*
X019628Y018370D01*
X019697Y018351D01*
X019766Y018336D01*
X019837Y018325D01*
X019908Y018318D01*
X019979Y018314D01*
X020050Y018315D01*
X020121Y018319D01*
X020192Y018328D01*
X020262Y018340D01*
X020331Y018357D01*
X020400Y018377D01*
X020467Y018401D01*
X020533Y018428D01*
X020597Y018459D01*
X020659Y018494D01*
X020719Y018532D01*
X020777Y018573D01*
X020833Y018618D01*
X020886Y018665D01*
X020937Y018716D01*
X020984Y018769D01*
X021029Y018824D01*
X021022Y018830D01*
X020977Y018775D01*
X020930Y018722D01*
X020880Y018672D01*
X020827Y018625D01*
X020772Y018581D01*
X020714Y018539D01*
X020655Y018502D01*
X020593Y018467D01*
X020529Y018436D01*
X020464Y018409D01*
X020397Y018385D01*
X020329Y018365D01*
X020260Y018349D01*
X020191Y018337D01*
X020120Y018328D01*
X020050Y018324D01*
X019979Y018323D01*
X019908Y018327D01*
X019838Y018334D01*
X019768Y018345D01*
X019699Y018360D01*
X019631Y018379D01*
X019563Y018401D01*
X019498Y018427D01*
X019433Y018457D01*
X019371Y018490D01*
X019311Y018527D01*
X019252Y018567D01*
X019196Y018610D01*
X019142Y018656D01*
X019092Y018706D01*
X019043Y018757D01*
X018998Y018812D01*
X018956Y018869D01*
X018917Y018928D01*
X018882Y018989D01*
X018849Y019052D01*
X018821Y019117D01*
X018796Y019183D01*
X018775Y019251D01*
X018757Y019319D01*
X018744Y019389D01*
X018734Y019459D01*
X018728Y019529D01*
X018726Y019600D01*
X018728Y019671D01*
X018734Y019741D01*
X018744Y019811D01*
X018757Y019881D01*
X018775Y019949D01*
X018796Y020017D01*
X018821Y020083D01*
X018849Y020148D01*
X018882Y020211D01*
X018917Y020272D01*
X018956Y020331D01*
X018998Y020388D01*
X019043Y020443D01*
X019092Y020494D01*
X019142Y020544D01*
X019196Y020590D01*
X019252Y020633D01*
X019311Y020673D01*
X019371Y020710D01*
X019433Y020743D01*
X019498Y020773D01*
X019563Y020799D01*
X019631Y020821D01*
X019699Y020840D01*
X019768Y020855D01*
X019838Y020866D01*
X019908Y020873D01*
X019979Y020877D01*
X020050Y020876D01*
X020120Y020872D01*
X020191Y020863D01*
X020260Y020851D01*
X020329Y020835D01*
X020397Y020815D01*
X020464Y020791D01*
X020529Y020764D01*
X020593Y020733D01*
X020655Y020698D01*
X020714Y020661D01*
X020772Y020619D01*
X020827Y020575D01*
X020880Y020528D01*
X020930Y020478D01*
X020977Y020425D01*
X021022Y020370D01*
X021014Y020365D01*
X020970Y020420D01*
X020922Y020473D01*
X020872Y020523D01*
X020819Y020571D01*
X020763Y020615D01*
X020705Y020656D01*
X020645Y020693D01*
X020583Y020728D01*
X020519Y020758D01*
X020453Y020785D01*
X020386Y020809D01*
X020318Y020828D01*
X020248Y020844D01*
X020178Y020856D01*
X020108Y020864D01*
X020037Y020868D01*
X019966Y020867D01*
X019895Y020863D01*
X019824Y020855D01*
X019754Y020843D01*
X019685Y020827D01*
X019617Y020808D01*
X019549Y020784D01*
X019484Y020757D01*
X019420Y020726D01*
X019358Y020692D01*
X019298Y020654D01*
X019240Y020612D01*
X019184Y020568D01*
X019131Y020521D01*
X019081Y020470D01*
X019034Y020417D01*
X018989Y020362D01*
X018948Y020304D01*
X018911Y020244D01*
X018876Y020181D01*
X018845Y020117D01*
X018818Y020052D01*
X018795Y019985D01*
X018775Y019916D01*
X018759Y019847D01*
X018747Y019777D01*
X018739Y019706D01*
X018735Y019636D01*
X018735Y019564D01*
X018739Y019494D01*
X018747Y019423D01*
X018759Y019353D01*
X018775Y019284D01*
X018795Y019215D01*
X018818Y019148D01*
X018845Y019083D01*
X018876Y019019D01*
X018911Y018956D01*
X018948Y018896D01*
X018989Y018838D01*
X019034Y018783D01*
X019081Y018730D01*
X019131Y018679D01*
X019184Y018632D01*
X019240Y018588D01*
X019298Y018546D01*
X019358Y018508D01*
X019420Y018474D01*
X019484Y018443D01*
X019549Y018416D01*
X019617Y018392D01*
X019685Y018373D01*
X019754Y018357D01*
X019824Y018345D01*
X019895Y018337D01*
X019966Y018333D01*
X020037Y018332D01*
X020108Y018336D01*
X020178Y018344D01*
X020248Y018356D01*
X020318Y018372D01*
X020386Y018391D01*
X020453Y018415D01*
X020519Y018442D01*
X020583Y018472D01*
X020645Y018507D01*
X020705Y018544D01*
X020763Y018585D01*
X020819Y018629D01*
X020872Y018677D01*
X020922Y018727D01*
X020970Y018780D01*
X021014Y018835D01*
X021007Y018841D01*
X020963Y018786D01*
X020916Y018733D01*
X020866Y018683D01*
X020813Y018636D01*
X020758Y018592D01*
X020700Y018552D01*
X020641Y018514D01*
X020579Y018480D01*
X020515Y018450D01*
X020450Y018423D01*
X020383Y018400D01*
X020315Y018380D01*
X020247Y018365D01*
X020177Y018353D01*
X020107Y018345D01*
X020036Y018341D01*
X019966Y018342D01*
X019895Y018346D01*
X019825Y018354D01*
X019756Y018366D01*
X019687Y018381D01*
X019619Y018401D01*
X019553Y018424D01*
X019488Y018451D01*
X019424Y018482D01*
X019362Y018516D01*
X019303Y018554D01*
X019245Y018595D01*
X019190Y018639D01*
X019137Y018686D01*
X019088Y018736D01*
X019041Y018788D01*
X018997Y018844D01*
X018956Y018901D01*
X018918Y018961D01*
X018884Y019023D01*
X018854Y019086D01*
X018827Y019151D01*
X018803Y019218D01*
X018784Y019286D01*
X018768Y019355D01*
X018756Y019424D01*
X018748Y019494D01*
X018744Y019565D01*
X018744Y019635D01*
X018748Y019706D01*
X018756Y019776D01*
X018768Y019845D01*
X018784Y019914D01*
X018803Y019982D01*
X018827Y020049D01*
X018854Y020114D01*
X018884Y020177D01*
X018918Y020239D01*
X018956Y020299D01*
X018997Y020356D01*
X019041Y020412D01*
X019088Y020464D01*
X019137Y020514D01*
X019190Y020561D01*
X019245Y020605D01*
X019303Y020646D01*
X019362Y020684D01*
X019424Y020718D01*
X019488Y020749D01*
X019553Y020776D01*
X019619Y020799D01*
X019687Y020819D01*
X019756Y020834D01*
X019825Y020846D01*
X019895Y020854D01*
X019966Y020858D01*
X020036Y020859D01*
X020107Y020855D01*
X020177Y020847D01*
X020247Y020835D01*
X020315Y020820D01*
X020383Y020800D01*
X020450Y020777D01*
X020515Y020750D01*
X020579Y020720D01*
X020641Y020686D01*
X020700Y020648D01*
X020758Y020608D01*
X020813Y020564D01*
X020866Y020517D01*
X020916Y020467D01*
X020963Y020414D01*
X021007Y020359D01*
X021000Y020354D01*
X020956Y020409D01*
X020909Y020461D01*
X020860Y020510D01*
X020807Y020557D01*
X020753Y020600D01*
X020695Y020641D01*
X020636Y020678D01*
X020575Y020712D01*
X020511Y020742D01*
X020447Y020769D01*
X020380Y020792D01*
X020313Y020811D01*
X020245Y020826D01*
X020176Y020838D01*
X020106Y020846D01*
X020036Y020850D01*
X019966Y020849D01*
X019896Y020845D01*
X019827Y020837D01*
X019758Y020826D01*
X019689Y020810D01*
X019622Y020791D01*
X019556Y020767D01*
X019491Y020740D01*
X019428Y020710D01*
X019367Y020676D01*
X019308Y020639D01*
X019250Y020598D01*
X019196Y020554D01*
X019144Y020508D01*
X019094Y020458D01*
X019047Y020406D01*
X019004Y020351D01*
X018963Y020294D01*
X018926Y020235D01*
X018892Y020173D01*
X018862Y020110D01*
X018835Y020045D01*
X018812Y019979D01*
X018793Y019912D01*
X018777Y019844D01*
X018765Y019775D01*
X018757Y019705D01*
X018753Y019635D01*
X018753Y019565D01*
X018757Y019495D01*
X018765Y019425D01*
X018777Y019356D01*
X018793Y019288D01*
X018812Y019221D01*
X018835Y019155D01*
X018862Y019090D01*
X018892Y019027D01*
X018926Y018965D01*
X018963Y018906D01*
X019004Y018849D01*
X019047Y018794D01*
X019094Y018742D01*
X019144Y018692D01*
X019196Y018646D01*
X019250Y018602D01*
X019308Y018561D01*
X019367Y018524D01*
X019428Y018490D01*
X019491Y018460D01*
X019556Y018433D01*
X019622Y018409D01*
X019689Y018390D01*
X019758Y018374D01*
X019827Y018363D01*
X019896Y018355D01*
X019966Y018351D01*
X020036Y018350D01*
X020106Y018354D01*
X020176Y018362D01*
X020245Y018374D01*
X020313Y018389D01*
X020380Y018408D01*
X020447Y018431D01*
X020511Y018458D01*
X020575Y018488D01*
X020636Y018522D01*
X020695Y018559D01*
X020753Y018600D01*
X020807Y018643D01*
X020860Y018690D01*
X020909Y018739D01*
X020956Y018791D01*
X021000Y018846D01*
X020993Y018851D01*
X020949Y018797D01*
X020903Y018745D01*
X020854Y018696D01*
X020802Y018650D01*
X020747Y018607D01*
X020690Y018567D01*
X020631Y018530D01*
X020570Y018496D01*
X020508Y018466D01*
X020443Y018440D01*
X020378Y018417D01*
X020311Y018398D01*
X020243Y018382D01*
X020174Y018371D01*
X020105Y018363D01*
X020036Y018359D01*
X019966Y018360D01*
X019897Y018364D01*
X019828Y018371D01*
X019759Y018383D01*
X019692Y018399D01*
X019625Y018418D01*
X019559Y018441D01*
X019495Y018468D01*
X019432Y018498D01*
X019371Y018532D01*
X019313Y018569D01*
X019256Y018609D01*
X019202Y018652D01*
X019150Y018699D01*
X019101Y018748D01*
X019054Y018800D01*
X019011Y018854D01*
X018971Y018911D01*
X018934Y018970D01*
X018900Y019031D01*
X018870Y019094D01*
X018843Y019158D01*
X018820Y019223D01*
X018801Y019290D01*
X018786Y019358D01*
X018774Y019427D01*
X018766Y019496D01*
X018762Y019565D01*
X018762Y019635D01*
X018766Y019704D01*
X018774Y019773D01*
X018786Y019842D01*
X018801Y019910D01*
X018820Y019977D01*
X018843Y020042D01*
X018870Y020106D01*
X018900Y020169D01*
X018934Y020230D01*
X018971Y020289D01*
X019011Y020346D01*
X019054Y020400D01*
X019101Y020452D01*
X019150Y020501D01*
X019202Y020548D01*
X019256Y020591D01*
X019313Y020631D01*
X019371Y020668D01*
X019432Y020702D01*
X019495Y020732D01*
X019559Y020759D01*
X019625Y020782D01*
X019692Y020801D01*
X019759Y020817D01*
X019828Y020829D01*
X019897Y020836D01*
X019966Y020840D01*
X020036Y020841D01*
X020105Y020837D01*
X020174Y020829D01*
X020243Y020818D01*
X020311Y020802D01*
X020378Y020783D01*
X020443Y020760D01*
X020508Y020734D01*
X020570Y020704D01*
X020631Y020670D01*
X020690Y020633D01*
X020747Y020593D01*
X020802Y020550D01*
X020854Y020504D01*
X020903Y020455D01*
X020949Y020403D01*
X020993Y020349D01*
X020986Y020343D01*
X020942Y020397D01*
X020896Y020448D01*
X020847Y020497D01*
X020796Y020543D01*
X020742Y020586D01*
X020685Y020626D01*
X020627Y020662D01*
X020566Y020696D01*
X020504Y020726D01*
X020440Y020752D01*
X020375Y020774D01*
X020309Y020793D01*
X020241Y020809D01*
X020173Y020820D01*
X020105Y020828D01*
X020036Y020832D01*
X019967Y020831D01*
X019898Y020827D01*
X019829Y020820D01*
X019761Y020808D01*
X019694Y020793D01*
X019627Y020773D01*
X019562Y020750D01*
X019499Y020724D01*
X019436Y020694D01*
X019376Y020661D01*
X019318Y020624D01*
X019261Y020584D01*
X019207Y020541D01*
X019156Y020495D01*
X019107Y020446D01*
X019061Y020394D01*
X019018Y020340D01*
X018978Y020284D01*
X018942Y020225D01*
X018908Y020165D01*
X018878Y020103D01*
X018852Y020039D01*
X018829Y019974D01*
X018810Y019907D01*
X018795Y019840D01*
X018783Y019772D01*
X018775Y019703D01*
X018771Y019635D01*
X018771Y019565D01*
X018775Y019497D01*
X018783Y019428D01*
X018795Y019360D01*
X018810Y019293D01*
X018829Y019226D01*
X018852Y019161D01*
X018878Y019097D01*
X018908Y019035D01*
X018942Y018975D01*
X018978Y018916D01*
X019018Y018860D01*
X019061Y018806D01*
X019107Y018754D01*
X019156Y018705D01*
X019207Y018659D01*
X019261Y018616D01*
X019318Y018576D01*
X019376Y018539D01*
X019436Y018506D01*
X019499Y018476D01*
X019562Y018450D01*
X019627Y018427D01*
X019694Y018407D01*
X019761Y018392D01*
X019829Y018380D01*
X019898Y018373D01*
X019967Y018369D01*
X020036Y018368D01*
X020105Y018372D01*
X020173Y018380D01*
X020241Y018391D01*
X020309Y018407D01*
X020375Y018426D01*
X020440Y018448D01*
X020504Y018474D01*
X020566Y018504D01*
X020627Y018538D01*
X020685Y018574D01*
X020742Y018614D01*
X020796Y018657D01*
X020847Y018703D01*
X020896Y018752D01*
X020942Y018803D01*
X020986Y018857D01*
X020978Y018862D01*
X020935Y018808D01*
X020889Y018757D01*
X020839Y018708D01*
X020788Y018662D01*
X020733Y018619D01*
X020676Y018579D01*
X020618Y018543D01*
X020557Y018509D01*
X020494Y018480D01*
X020430Y018454D01*
X020364Y018432D01*
X020297Y018413D01*
X020230Y018398D01*
X020161Y018387D01*
X020092Y018380D01*
X020023Y018377D01*
X019954Y018378D01*
X019884Y018383D01*
X019816Y018391D01*
X019748Y018404D01*
X019680Y018420D01*
X019614Y018441D01*
X019549Y018464D01*
X019485Y018492D01*
X019423Y018523D01*
X019363Y018558D01*
X019305Y018596D01*
X019249Y018637D01*
X019196Y018681D01*
X019145Y018728D01*
X019097Y018778D01*
X019052Y018831D01*
X019010Y018886D01*
X018971Y018943D01*
X018936Y019003D01*
X018904Y019064D01*
X018875Y019127D01*
X018850Y019192D01*
X018829Y019258D01*
X018811Y019325D01*
X018798Y019393D01*
X018788Y019462D01*
X018782Y019531D01*
X018780Y019600D01*
X018782Y019669D01*
X018788Y019738D01*
X018798Y019807D01*
X018811Y019875D01*
X018829Y019942D01*
X018850Y020008D01*
X018875Y020073D01*
X018904Y020136D01*
X018936Y020197D01*
X018971Y020257D01*
X019010Y020314D01*
X019052Y020369D01*
X019097Y020422D01*
X019145Y020472D01*
X019196Y020519D01*
X019249Y020563D01*
X019305Y020604D01*
X019363Y020642D01*
X019423Y020677D01*
X019485Y020708D01*
X019549Y020736D01*
X019614Y020759D01*
X019680Y020780D01*
X019748Y020796D01*
X019816Y020809D01*
X019884Y020817D01*
X019954Y020822D01*
X020023Y020823D01*
X020092Y020820D01*
X020161Y020813D01*
X020230Y020802D01*
X020297Y020787D01*
X020364Y020768D01*
X020430Y020746D01*
X020494Y020720D01*
X020557Y020691D01*
X020618Y020657D01*
X020676Y020621D01*
X020733Y020581D01*
X020788Y020538D01*
X020839Y020492D01*
X020889Y020443D01*
X020935Y020392D01*
X020978Y020338D01*
X020971Y020332D01*
X020928Y020386D01*
X020882Y020437D01*
X020833Y020486D01*
X020782Y020531D01*
X020728Y020574D01*
X020671Y020613D01*
X020613Y020650D01*
X020553Y020683D01*
X020490Y020712D01*
X020427Y020738D01*
X020361Y020760D01*
X020295Y020778D01*
X020228Y020793D01*
X020160Y020804D01*
X020091Y020811D01*
X020023Y020814D01*
X019954Y020813D01*
X019885Y020808D01*
X019817Y020800D01*
X019749Y020787D01*
X019683Y020771D01*
X019617Y020751D01*
X019552Y020727D01*
X019489Y020700D01*
X019428Y020669D01*
X019368Y020635D01*
X019310Y020597D01*
X019255Y020556D01*
X019202Y020512D01*
X019152Y020465D01*
X019104Y020416D01*
X019059Y020364D01*
X019017Y020309D01*
X018979Y020252D01*
X018944Y020193D01*
X018912Y020132D01*
X018883Y020069D01*
X018859Y020005D01*
X018837Y019939D01*
X018820Y019873D01*
X018807Y019805D01*
X018797Y019737D01*
X018791Y019669D01*
X018789Y019600D01*
X018791Y019531D01*
X018797Y019463D01*
X018807Y019395D01*
X018820Y019327D01*
X018837Y019261D01*
X018859Y019195D01*
X018883Y019131D01*
X018912Y019068D01*
X018944Y019007D01*
X018979Y018948D01*
X019017Y018891D01*
X019059Y018836D01*
X019104Y018784D01*
X019152Y018735D01*
X019202Y018688D01*
X019255Y018644D01*
X019310Y018603D01*
X019368Y018565D01*
X019428Y018531D01*
X019489Y018500D01*
X019552Y018473D01*
X019617Y018449D01*
X019683Y018429D01*
X019749Y018413D01*
X019817Y018400D01*
X019885Y018392D01*
X019954Y018387D01*
X020023Y018386D01*
X020091Y018389D01*
X020160Y018396D01*
X020228Y018407D01*
X020295Y018422D01*
X020361Y018440D01*
X020427Y018462D01*
X020490Y018488D01*
X020553Y018517D01*
X020613Y018550D01*
X020671Y018587D01*
X020728Y018626D01*
X020782Y018669D01*
X020833Y018714D01*
X020882Y018763D01*
X020928Y018814D01*
X020971Y018868D01*
X021035Y023380D02*
X020963Y023326D01*
X020964Y023327D02*
X020921Y023380D01*
X020876Y023431D01*
X020827Y023479D01*
X020776Y023524D01*
X020722Y023567D01*
X020666Y023606D01*
X020608Y023642D01*
X020548Y023675D01*
X020487Y023704D01*
X020423Y023729D01*
X020359Y023751D01*
X020293Y023770D01*
X020226Y023784D01*
X020159Y023795D01*
X020091Y023802D01*
X020023Y023805D01*
X019954Y023804D01*
X019886Y023799D01*
X019818Y023791D01*
X019751Y023778D01*
X019685Y023762D01*
X019620Y023742D01*
X019555Y023719D01*
X019493Y023692D01*
X019432Y023661D01*
X019373Y023627D01*
X019315Y023590D01*
X019260Y023549D01*
X019208Y023505D01*
X019158Y023459D01*
X019111Y023410D01*
X019066Y023358D01*
X019025Y023304D01*
X018986Y023247D01*
X018951Y023188D01*
X018920Y023128D01*
X018892Y023066D01*
X018867Y023002D01*
X018846Y022937D01*
X018829Y022871D01*
X018815Y022804D01*
X018806Y022736D01*
X018800Y022668D01*
X018798Y022600D01*
X018800Y022532D01*
X018806Y022464D01*
X018815Y022396D01*
X018829Y022329D01*
X018846Y022263D01*
X018867Y022198D01*
X018892Y022134D01*
X018920Y022072D01*
X018951Y022012D01*
X018986Y021953D01*
X019025Y021896D01*
X019066Y021842D01*
X019111Y021790D01*
X019158Y021741D01*
X019208Y021695D01*
X019260Y021651D01*
X019315Y021610D01*
X019373Y021573D01*
X019432Y021539D01*
X019493Y021508D01*
X019555Y021481D01*
X019620Y021458D01*
X019685Y021438D01*
X019751Y021422D01*
X019818Y021409D01*
X019886Y021401D01*
X019954Y021396D01*
X020023Y021395D01*
X020091Y021398D01*
X020159Y021405D01*
X020226Y021416D01*
X020293Y021430D01*
X020359Y021449D01*
X020423Y021471D01*
X020487Y021496D01*
X020548Y021525D01*
X020608Y021558D01*
X020666Y021594D01*
X020722Y021633D01*
X020776Y021676D01*
X020827Y021721D01*
X020876Y021769D01*
X020921Y021820D01*
X020964Y021873D01*
X021035Y021820D01*
X021036Y021819D01*
X020992Y021764D01*
X020944Y021711D01*
X020894Y021660D01*
X020841Y021613D01*
X020786Y021569D01*
X020728Y021527D01*
X020668Y021489D01*
X020607Y021454D01*
X020543Y021423D01*
X020478Y021395D01*
X020411Y021371D01*
X020343Y021350D01*
X020274Y021334D01*
X020204Y021321D01*
X020134Y021312D01*
X020063Y021306D01*
X019992Y021305D01*
X019921Y021308D01*
X019850Y021314D01*
X019780Y021324D01*
X019711Y021338D01*
X019642Y021356D01*
X019574Y021378D01*
X019508Y021403D01*
X019443Y021432D01*
X019380Y021465D01*
X019319Y021501D01*
X019260Y021540D01*
X019203Y021582D01*
X019148Y021627D01*
X019096Y021676D01*
X019047Y021727D01*
X019000Y021780D01*
X018957Y021837D01*
X018917Y021895D01*
X018880Y021956D01*
X018846Y022018D01*
X018816Y022082D01*
X018789Y022148D01*
X018766Y022215D01*
X018747Y022284D01*
X018732Y022353D01*
X018720Y022423D01*
X018712Y022494D01*
X018708Y022565D01*
X018708Y022635D01*
X018712Y022706D01*
X018720Y022777D01*
X018732Y022847D01*
X018747Y022916D01*
X018766Y022985D01*
X018789Y023052D01*
X018816Y023118D01*
X018846Y023182D01*
X018880Y023244D01*
X018917Y023305D01*
X018957Y023363D01*
X019000Y023420D01*
X019047Y023473D01*
X019096Y023524D01*
X019148Y023573D01*
X019203Y023618D01*
X019260Y023660D01*
X019319Y023699D01*
X019380Y023735D01*
X019443Y023768D01*
X019508Y023797D01*
X019574Y023822D01*
X019642Y023844D01*
X019711Y023862D01*
X019780Y023876D01*
X019850Y023886D01*
X019921Y023892D01*
X019992Y023895D01*
X020063Y023894D01*
X020134Y023888D01*
X020204Y023879D01*
X020274Y023866D01*
X020343Y023850D01*
X020411Y023829D01*
X020478Y023805D01*
X020543Y023777D01*
X020607Y023746D01*
X020668Y023711D01*
X020728Y023673D01*
X020786Y023631D01*
X020841Y023587D01*
X020894Y023540D01*
X020944Y023489D01*
X020992Y023436D01*
X021036Y023381D01*
X021029Y023376D01*
X020984Y023431D01*
X020937Y023484D01*
X020886Y023535D01*
X020833Y023582D01*
X020777Y023627D01*
X020719Y023668D01*
X020659Y023706D01*
X020597Y023741D01*
X020533Y023772D01*
X020467Y023799D01*
X020400Y023823D01*
X020331Y023843D01*
X020262Y023860D01*
X020192Y023872D01*
X020121Y023881D01*
X020050Y023885D01*
X019979Y023886D01*
X019908Y023882D01*
X019837Y023875D01*
X019766Y023864D01*
X019697Y023849D01*
X019628Y023830D01*
X019560Y023807D01*
X019494Y023781D01*
X019429Y023751D01*
X019367Y023717D01*
X019306Y023681D01*
X019247Y023640D01*
X019190Y023597D01*
X019136Y023550D01*
X019085Y023501D01*
X019037Y023448D01*
X018991Y023394D01*
X018949Y023336D01*
X018910Y023277D01*
X018874Y023215D01*
X018841Y023152D01*
X018813Y023087D01*
X018787Y023020D01*
X018766Y022952D01*
X018748Y022883D01*
X018735Y022813D01*
X018725Y022742D01*
X018719Y022671D01*
X018717Y022600D01*
X018719Y022529D01*
X018725Y022458D01*
X018735Y022387D01*
X018748Y022317D01*
X018766Y022248D01*
X018787Y022180D01*
X018813Y022113D01*
X018841Y022048D01*
X018874Y021985D01*
X018910Y021923D01*
X018949Y021864D01*
X018991Y021806D01*
X019037Y021752D01*
X019085Y021699D01*
X019136Y021650D01*
X019190Y021603D01*
X019247Y021560D01*
X019306Y021519D01*
X019367Y021483D01*
X019429Y021449D01*
X019494Y021419D01*
X019560Y021393D01*
X019628Y021370D01*
X019697Y021351D01*
X019766Y021336D01*
X019837Y021325D01*
X019908Y021318D01*
X019979Y021314D01*
X020050Y021315D01*
X020121Y021319D01*
X020192Y021328D01*
X020262Y021340D01*
X020331Y021357D01*
X020400Y021377D01*
X020467Y021401D01*
X020533Y021428D01*
X020597Y021459D01*
X020659Y021494D01*
X020719Y021532D01*
X020777Y021573D01*
X020833Y021618D01*
X020886Y021665D01*
X020937Y021716D01*
X020984Y021769D01*
X021029Y021824D01*
X021022Y021830D01*
X020977Y021775D01*
X020930Y021722D01*
X020880Y021672D01*
X020827Y021625D01*
X020772Y021581D01*
X020714Y021539D01*
X020655Y021502D01*
X020593Y021467D01*
X020529Y021436D01*
X020464Y021409D01*
X020397Y021385D01*
X020329Y021365D01*
X020260Y021349D01*
X020191Y021337D01*
X020120Y021328D01*
X020050Y021324D01*
X019979Y021323D01*
X019908Y021327D01*
X019838Y021334D01*
X019768Y021345D01*
X019699Y021360D01*
X019631Y021379D01*
X019563Y021401D01*
X019498Y021427D01*
X019433Y021457D01*
X019371Y021490D01*
X019311Y021527D01*
X019252Y021567D01*
X019196Y021610D01*
X019142Y021656D01*
X019092Y021706D01*
X019043Y021757D01*
X018998Y021812D01*
X018956Y021869D01*
X018917Y021928D01*
X018882Y021989D01*
X018849Y022052D01*
X018821Y022117D01*
X018796Y022183D01*
X018775Y022251D01*
X018757Y022319D01*
X018744Y022389D01*
X018734Y022459D01*
X018728Y022529D01*
X018726Y022600D01*
X018728Y022671D01*
X018734Y022741D01*
X018744Y022811D01*
X018757Y022881D01*
X018775Y022949D01*
X018796Y023017D01*
X018821Y023083D01*
X018849Y023148D01*
X018882Y023211D01*
X018917Y023272D01*
X018956Y023331D01*
X018998Y023388D01*
X019043Y023443D01*
X019092Y023494D01*
X019142Y023544D01*
X019196Y023590D01*
X019252Y023633D01*
X019311Y023673D01*
X019371Y023710D01*
X019433Y023743D01*
X019498Y023773D01*
X019563Y023799D01*
X019631Y023821D01*
X019699Y023840D01*
X019768Y023855D01*
X019838Y023866D01*
X019908Y023873D01*
X019979Y023877D01*
X020050Y023876D01*
X020120Y023872D01*
X020191Y023863D01*
X020260Y023851D01*
X020329Y023835D01*
X020397Y023815D01*
X020464Y023791D01*
X020529Y023764D01*
X020593Y023733D01*
X020655Y023698D01*
X020714Y023661D01*
X020772Y023619D01*
X020827Y023575D01*
X020880Y023528D01*
X020930Y023478D01*
X020977Y023425D01*
X021022Y023370D01*
X021014Y023365D01*
X020970Y023420D01*
X020922Y023473D01*
X020872Y023523D01*
X020819Y023571D01*
X020763Y023615D01*
X020705Y023656D01*
X020645Y023693D01*
X020583Y023728D01*
X020519Y023758D01*
X020453Y023785D01*
X020386Y023809D01*
X020318Y023828D01*
X020248Y023844D01*
X020178Y023856D01*
X020108Y023864D01*
X020037Y023868D01*
X019966Y023867D01*
X019895Y023863D01*
X019824Y023855D01*
X019754Y023843D01*
X019685Y023827D01*
X019617Y023808D01*
X019549Y023784D01*
X019484Y023757D01*
X019420Y023726D01*
X019358Y023692D01*
X019298Y023654D01*
X019240Y023612D01*
X019184Y023568D01*
X019131Y023521D01*
X019081Y023470D01*
X019034Y023417D01*
X018989Y023362D01*
X018948Y023304D01*
X018911Y023244D01*
X018876Y023181D01*
X018845Y023117D01*
X018818Y023052D01*
X018795Y022985D01*
X018775Y022916D01*
X018759Y022847D01*
X018747Y022777D01*
X018739Y022706D01*
X018735Y022636D01*
X018735Y022564D01*
X018739Y022494D01*
X018747Y022423D01*
X018759Y022353D01*
X018775Y022284D01*
X018795Y022215D01*
X018818Y022148D01*
X018845Y022083D01*
X018876Y022019D01*
X018911Y021956D01*
X018948Y021896D01*
X018989Y021838D01*
X019034Y021783D01*
X019081Y021730D01*
X019131Y021679D01*
X019184Y021632D01*
X019240Y021588D01*
X019298Y021546D01*
X019358Y021508D01*
X019420Y021474D01*
X019484Y021443D01*
X019549Y021416D01*
X019617Y021392D01*
X019685Y021373D01*
X019754Y021357D01*
X019824Y021345D01*
X019895Y021337D01*
X019966Y021333D01*
X020037Y021332D01*
X020108Y021336D01*
X020178Y021344D01*
X020248Y021356D01*
X020318Y021372D01*
X020386Y021391D01*
X020453Y021415D01*
X020519Y021442D01*
X020583Y021472D01*
X020645Y021507D01*
X020705Y021544D01*
X020763Y021585D01*
X020819Y021629D01*
X020872Y021677D01*
X020922Y021727D01*
X020970Y021780D01*
X021014Y021835D01*
X021007Y021841D01*
X020963Y021786D01*
X020916Y021733D01*
X020866Y021683D01*
X020813Y021636D01*
X020758Y021592D01*
X020700Y021552D01*
X020641Y021514D01*
X020579Y021480D01*
X020515Y021450D01*
X020450Y021423D01*
X020383Y021400D01*
X020315Y021380D01*
X020247Y021365D01*
X020177Y021353D01*
X020107Y021345D01*
X020036Y021341D01*
X019966Y021342D01*
X019895Y021346D01*
X019825Y021354D01*
X019756Y021366D01*
X019687Y021381D01*
X019619Y021401D01*
X019553Y021424D01*
X019488Y021451D01*
X019424Y021482D01*
X019362Y021516D01*
X019303Y021554D01*
X019245Y021595D01*
X019190Y021639D01*
X019137Y021686D01*
X019088Y021736D01*
X019041Y021788D01*
X018997Y021844D01*
X018956Y021901D01*
X018918Y021961D01*
X018884Y022023D01*
X018854Y022086D01*
X018827Y022151D01*
X018803Y022218D01*
X018784Y022286D01*
X018768Y022355D01*
X018756Y022424D01*
X018748Y022494D01*
X018744Y022565D01*
X018744Y022635D01*
X018748Y022706D01*
X018756Y022776D01*
X018768Y022845D01*
X018784Y022914D01*
X018803Y022982D01*
X018827Y023049D01*
X018854Y023114D01*
X018884Y023177D01*
X018918Y023239D01*
X018956Y023299D01*
X018997Y023356D01*
X019041Y023412D01*
X019088Y023464D01*
X019137Y023514D01*
X019190Y023561D01*
X019245Y023605D01*
X019303Y023646D01*
X019362Y023684D01*
X019424Y023718D01*
X019488Y023749D01*
X019553Y023776D01*
X019619Y023799D01*
X019687Y023819D01*
X019756Y023834D01*
X019825Y023846D01*
X019895Y023854D01*
X019966Y023858D01*
X020036Y023859D01*
X020107Y023855D01*
X020177Y023847D01*
X020247Y023835D01*
X020315Y023820D01*
X020383Y023800D01*
X020450Y023777D01*
X020515Y023750D01*
X020579Y023720D01*
X020641Y023686D01*
X020700Y023648D01*
X020758Y023608D01*
X020813Y023564D01*
X020866Y023517D01*
X020916Y023467D01*
X020963Y023414D01*
X021007Y023359D01*
X021000Y023354D01*
X020956Y023409D01*
X020909Y023461D01*
X020860Y023510D01*
X020807Y023557D01*
X020753Y023600D01*
X020695Y023641D01*
X020636Y023678D01*
X020575Y023712D01*
X020511Y023742D01*
X020447Y023769D01*
X020380Y023792D01*
X020313Y023811D01*
X020245Y023826D01*
X020176Y023838D01*
X020106Y023846D01*
X020036Y023850D01*
X019966Y023849D01*
X019896Y023845D01*
X019827Y023837D01*
X019758Y023826D01*
X019689Y023810D01*
X019622Y023791D01*
X019556Y023767D01*
X019491Y023740D01*
X019428Y023710D01*
X019367Y023676D01*
X019308Y023639D01*
X019250Y023598D01*
X019196Y023554D01*
X019144Y023508D01*
X019094Y023458D01*
X019047Y023406D01*
X019004Y023351D01*
X018963Y023294D01*
X018926Y023235D01*
X018892Y023173D01*
X018862Y023110D01*
X018835Y023045D01*
X018812Y022979D01*
X018793Y022912D01*
X018777Y022844D01*
X018765Y022775D01*
X018757Y022705D01*
X018753Y022635D01*
X018753Y022565D01*
X018757Y022495D01*
X018765Y022425D01*
X018777Y022356D01*
X018793Y022288D01*
X018812Y022221D01*
X018835Y022155D01*
X018862Y022090D01*
X018892Y022027D01*
X018926Y021965D01*
X018963Y021906D01*
X019004Y021849D01*
X019047Y021794D01*
X019094Y021742D01*
X019144Y021692D01*
X019196Y021646D01*
X019250Y021602D01*
X019308Y021561D01*
X019367Y021524D01*
X019428Y021490D01*
X019491Y021460D01*
X019556Y021433D01*
X019622Y021409D01*
X019689Y021390D01*
X019758Y021374D01*
X019827Y021363D01*
X019896Y021355D01*
X019966Y021351D01*
X020036Y021350D01*
X020106Y021354D01*
X020176Y021362D01*
X020245Y021374D01*
X020313Y021389D01*
X020380Y021408D01*
X020447Y021431D01*
X020511Y021458D01*
X020575Y021488D01*
X020636Y021522D01*
X020695Y021559D01*
X020753Y021600D01*
X020807Y021643D01*
X020860Y021690D01*
X020909Y021739D01*
X020956Y021791D01*
X021000Y021846D01*
X020993Y021851D01*
X020949Y021797D01*
X020903Y021745D01*
X020854Y021696D01*
X020802Y021650D01*
X020747Y021607D01*
X020690Y021567D01*
X020631Y021530D01*
X020570Y021496D01*
X020508Y021466D01*
X020443Y021440D01*
X020378Y021417D01*
X020311Y021398D01*
X020243Y021382D01*
X020174Y021371D01*
X020105Y021363D01*
X020036Y021359D01*
X019966Y021360D01*
X019897Y021364D01*
X019828Y021371D01*
X019759Y021383D01*
X019692Y021399D01*
X019625Y021418D01*
X019559Y021441D01*
X019495Y021468D01*
X019432Y021498D01*
X019371Y021532D01*
X019313Y021569D01*
X019256Y021609D01*
X019202Y021652D01*
X019150Y021699D01*
X019101Y021748D01*
X019054Y021800D01*
X019011Y021854D01*
X018971Y021911D01*
X018934Y021970D01*
X018900Y022031D01*
X018870Y022094D01*
X018843Y022158D01*
X018820Y022223D01*
X018801Y022290D01*
X018786Y022358D01*
X018774Y022427D01*
X018766Y022496D01*
X018762Y022565D01*
X018762Y022635D01*
X018766Y022704D01*
X018774Y022773D01*
X018786Y022842D01*
X018801Y022910D01*
X018820Y022977D01*
X018843Y023042D01*
X018870Y023106D01*
X018900Y023169D01*
X018934Y023230D01*
X018971Y023289D01*
X019011Y023346D01*
X019054Y023400D01*
X019101Y023452D01*
X019150Y023501D01*
X019202Y023548D01*
X019256Y023591D01*
X019313Y023631D01*
X019371Y023668D01*
X019432Y023702D01*
X019495Y023732D01*
X019559Y023759D01*
X019625Y023782D01*
X019692Y023801D01*
X019759Y023817D01*
X019828Y023829D01*
X019897Y023836D01*
X019966Y023840D01*
X020036Y023841D01*
X020105Y023837D01*
X020174Y023829D01*
X020243Y023818D01*
X020311Y023802D01*
X020378Y023783D01*
X020443Y023760D01*
X020508Y023734D01*
X020570Y023704D01*
X020631Y023670D01*
X020690Y023633D01*
X020747Y023593D01*
X020802Y023550D01*
X020854Y023504D01*
X020903Y023455D01*
X020949Y023403D01*
X020993Y023349D01*
X020986Y023343D01*
X020942Y023397D01*
X020896Y023448D01*
X020847Y023497D01*
X020796Y023543D01*
X020742Y023586D01*
X020685Y023626D01*
X020627Y023662D01*
X020566Y023696D01*
X020504Y023726D01*
X020440Y023752D01*
X020375Y023774D01*
X020309Y023793D01*
X020241Y023809D01*
X020173Y023820D01*
X020105Y023828D01*
X020036Y023832D01*
X019967Y023831D01*
X019898Y023827D01*
X019829Y023820D01*
X019761Y023808D01*
X019694Y023793D01*
X019627Y023773D01*
X019562Y023750D01*
X019499Y023724D01*
X019436Y023694D01*
X019376Y023661D01*
X019318Y023624D01*
X019261Y023584D01*
X019207Y023541D01*
X019156Y023495D01*
X019107Y023446D01*
X019061Y023394D01*
X019018Y023340D01*
X018978Y023284D01*
X018942Y023225D01*
X018908Y023165D01*
X018878Y023103D01*
X018852Y023039D01*
X018829Y022974D01*
X018810Y022907D01*
X018795Y022840D01*
X018783Y022772D01*
X018775Y022703D01*
X018771Y022635D01*
X018771Y022565D01*
X018775Y022497D01*
X018783Y022428D01*
X018795Y022360D01*
X018810Y022293D01*
X018829Y022226D01*
X018852Y022161D01*
X018878Y022097D01*
X018908Y022035D01*
X018942Y021975D01*
X018978Y021916D01*
X019018Y021860D01*
X019061Y021806D01*
X019107Y021754D01*
X019156Y021705D01*
X019207Y021659D01*
X019261Y021616D01*
X019318Y021576D01*
X019376Y021539D01*
X019436Y021506D01*
X019499Y021476D01*
X019562Y021450D01*
X019627Y021427D01*
X019694Y021407D01*
X019761Y021392D01*
X019829Y021380D01*
X019898Y021373D01*
X019967Y021369D01*
X020036Y021368D01*
X020105Y021372D01*
X020173Y021380D01*
X020241Y021391D01*
X020309Y021407D01*
X020375Y021426D01*
X020440Y021448D01*
X020504Y021474D01*
X020566Y021504D01*
X020627Y021538D01*
X020685Y021574D01*
X020742Y021614D01*
X020796Y021657D01*
X020847Y021703D01*
X020896Y021752D01*
X020942Y021803D01*
X020986Y021857D01*
X020978Y021862D01*
X020935Y021808D01*
X020889Y021757D01*
X020839Y021708D01*
X020788Y021662D01*
X020733Y021619D01*
X020676Y021579D01*
X020618Y021543D01*
X020557Y021509D01*
X020494Y021480D01*
X020430Y021454D01*
X020364Y021432D01*
X020297Y021413D01*
X020230Y021398D01*
X020161Y021387D01*
X020092Y021380D01*
X020023Y021377D01*
X019954Y021378D01*
X019884Y021383D01*
X019816Y021391D01*
X019748Y021404D01*
X019680Y021420D01*
X019614Y021441D01*
X019549Y021464D01*
X019485Y021492D01*
X019423Y021523D01*
X019363Y021558D01*
X019305Y021596D01*
X019249Y021637D01*
X019196Y021681D01*
X019145Y021728D01*
X019097Y021778D01*
X019052Y021831D01*
X019010Y021886D01*
X018971Y021943D01*
X018936Y022003D01*
X018904Y022064D01*
X018875Y022127D01*
X018850Y022192D01*
X018829Y022258D01*
X018811Y022325D01*
X018798Y022393D01*
X018788Y022462D01*
X018782Y022531D01*
X018780Y022600D01*
X018782Y022669D01*
X018788Y022738D01*
X018798Y022807D01*
X018811Y022875D01*
X018829Y022942D01*
X018850Y023008D01*
X018875Y023073D01*
X018904Y023136D01*
X018936Y023197D01*
X018971Y023257D01*
X019010Y023314D01*
X019052Y023369D01*
X019097Y023422D01*
X019145Y023472D01*
X019196Y023519D01*
X019249Y023563D01*
X019305Y023604D01*
X019363Y023642D01*
X019423Y023677D01*
X019485Y023708D01*
X019549Y023736D01*
X019614Y023759D01*
X019680Y023780D01*
X019748Y023796D01*
X019816Y023809D01*
X019884Y023817D01*
X019954Y023822D01*
X020023Y023823D01*
X020092Y023820D01*
X020161Y023813D01*
X020230Y023802D01*
X020297Y023787D01*
X020364Y023768D01*
X020430Y023746D01*
X020494Y023720D01*
X020557Y023691D01*
X020618Y023657D01*
X020676Y023621D01*
X020733Y023581D01*
X020788Y023538D01*
X020839Y023492D01*
X020889Y023443D01*
X020935Y023392D01*
X020978Y023338D01*
X020971Y023332D01*
X020928Y023386D01*
X020882Y023437D01*
X020833Y023486D01*
X020782Y023531D01*
X020728Y023574D01*
X020671Y023613D01*
X020613Y023650D01*
X020553Y023683D01*
X020490Y023712D01*
X020427Y023738D01*
X020361Y023760D01*
X020295Y023778D01*
X020228Y023793D01*
X020160Y023804D01*
X020091Y023811D01*
X020023Y023814D01*
X019954Y023813D01*
X019885Y023808D01*
X019817Y023800D01*
X019749Y023787D01*
X019683Y023771D01*
X019617Y023751D01*
X019552Y023727D01*
X019489Y023700D01*
X019428Y023669D01*
X019368Y023635D01*
X019310Y023597D01*
X019255Y023556D01*
X019202Y023512D01*
X019152Y023465D01*
X019104Y023416D01*
X019059Y023364D01*
X019017Y023309D01*
X018979Y023252D01*
X018944Y023193D01*
X018912Y023132D01*
X018883Y023069D01*
X018859Y023005D01*
X018837Y022939D01*
X018820Y022873D01*
X018807Y022805D01*
X018797Y022737D01*
X018791Y022669D01*
X018789Y022600D01*
X018791Y022531D01*
X018797Y022463D01*
X018807Y022395D01*
X018820Y022327D01*
X018837Y022261D01*
X018859Y022195D01*
X018883Y022131D01*
X018912Y022068D01*
X018944Y022007D01*
X018979Y021948D01*
X019017Y021891D01*
X019059Y021836D01*
X019104Y021784D01*
X019152Y021735D01*
X019202Y021688D01*
X019255Y021644D01*
X019310Y021603D01*
X019368Y021565D01*
X019428Y021531D01*
X019489Y021500D01*
X019552Y021473D01*
X019617Y021449D01*
X019683Y021429D01*
X019749Y021413D01*
X019817Y021400D01*
X019885Y021392D01*
X019954Y021387D01*
X020023Y021386D01*
X020091Y021389D01*
X020160Y021396D01*
X020228Y021407D01*
X020295Y021422D01*
X020361Y021440D01*
X020427Y021462D01*
X020490Y021488D01*
X020553Y021517D01*
X020613Y021550D01*
X020671Y021587D01*
X020728Y021626D01*
X020782Y021669D01*
X020833Y021714D01*
X020882Y021763D01*
X020928Y021814D01*
X020971Y021868D01*
X016535Y023380D02*
X016463Y023326D01*
X016464Y023327D02*
X016421Y023380D01*
X016376Y023431D01*
X016327Y023479D01*
X016276Y023524D01*
X016222Y023567D01*
X016166Y023606D01*
X016108Y023642D01*
X016048Y023675D01*
X015987Y023704D01*
X015923Y023729D01*
X015859Y023751D01*
X015793Y023770D01*
X015726Y023784D01*
X015659Y023795D01*
X015591Y023802D01*
X015523Y023805D01*
X015454Y023804D01*
X015386Y023799D01*
X015318Y023791D01*
X015251Y023778D01*
X015185Y023762D01*
X015120Y023742D01*
X015055Y023719D01*
X014993Y023692D01*
X014932Y023661D01*
X014873Y023627D01*
X014815Y023590D01*
X014760Y023549D01*
X014708Y023505D01*
X014658Y023459D01*
X014611Y023410D01*
X014566Y023358D01*
X014525Y023304D01*
X014486Y023247D01*
X014451Y023188D01*
X014420Y023128D01*
X014392Y023066D01*
X014367Y023002D01*
X014346Y022937D01*
X014329Y022871D01*
X014315Y022804D01*
X014306Y022736D01*
X014300Y022668D01*
X014298Y022600D01*
X014300Y022532D01*
X014306Y022464D01*
X014315Y022396D01*
X014329Y022329D01*
X014346Y022263D01*
X014367Y022198D01*
X014392Y022134D01*
X014420Y022072D01*
X014451Y022012D01*
X014486Y021953D01*
X014525Y021896D01*
X014566Y021842D01*
X014611Y021790D01*
X014658Y021741D01*
X014708Y021695D01*
X014760Y021651D01*
X014815Y021610D01*
X014873Y021573D01*
X014932Y021539D01*
X014993Y021508D01*
X015055Y021481D01*
X015120Y021458D01*
X015185Y021438D01*
X015251Y021422D01*
X015318Y021409D01*
X015386Y021401D01*
X015454Y021396D01*
X015523Y021395D01*
X015591Y021398D01*
X015659Y021405D01*
X015726Y021416D01*
X015793Y021430D01*
X015859Y021449D01*
X015923Y021471D01*
X015987Y021496D01*
X016048Y021525D01*
X016108Y021558D01*
X016166Y021594D01*
X016222Y021633D01*
X016276Y021676D01*
X016327Y021721D01*
X016376Y021769D01*
X016421Y021820D01*
X016464Y021873D01*
X016535Y021820D01*
X016536Y021819D01*
X016492Y021764D01*
X016444Y021711D01*
X016394Y021660D01*
X016341Y021613D01*
X016286Y021569D01*
X016228Y021527D01*
X016168Y021489D01*
X016107Y021454D01*
X016043Y021423D01*
X015978Y021395D01*
X015911Y021371D01*
X015843Y021350D01*
X015774Y021334D01*
X015704Y021321D01*
X015634Y021312D01*
X015563Y021306D01*
X015492Y021305D01*
X015421Y021308D01*
X015350Y021314D01*
X015280Y021324D01*
X015211Y021338D01*
X015142Y021356D01*
X015074Y021378D01*
X015008Y021403D01*
X014943Y021432D01*
X014880Y021465D01*
X014819Y021501D01*
X014760Y021540D01*
X014703Y021582D01*
X014648Y021627D01*
X014596Y021676D01*
X014547Y021727D01*
X014500Y021780D01*
X014457Y021837D01*
X014417Y021895D01*
X014380Y021956D01*
X014346Y022018D01*
X014316Y022082D01*
X014289Y022148D01*
X014266Y022215D01*
X014247Y022284D01*
X014232Y022353D01*
X014220Y022423D01*
X014212Y022494D01*
X014208Y022565D01*
X014208Y022635D01*
X014212Y022706D01*
X014220Y022777D01*
X014232Y022847D01*
X014247Y022916D01*
X014266Y022985D01*
X014289Y023052D01*
X014316Y023118D01*
X014346Y023182D01*
X014380Y023244D01*
X014417Y023305D01*
X014457Y023363D01*
X014500Y023420D01*
X014547Y023473D01*
X014596Y023524D01*
X014648Y023573D01*
X014703Y023618D01*
X014760Y023660D01*
X014819Y023699D01*
X014880Y023735D01*
X014943Y023768D01*
X015008Y023797D01*
X015074Y023822D01*
X015142Y023844D01*
X015211Y023862D01*
X015280Y023876D01*
X015350Y023886D01*
X015421Y023892D01*
X015492Y023895D01*
X015563Y023894D01*
X015634Y023888D01*
X015704Y023879D01*
X015774Y023866D01*
X015843Y023850D01*
X015911Y023829D01*
X015978Y023805D01*
X016043Y023777D01*
X016107Y023746D01*
X016168Y023711D01*
X016228Y023673D01*
X016286Y023631D01*
X016341Y023587D01*
X016394Y023540D01*
X016444Y023489D01*
X016492Y023436D01*
X016536Y023381D01*
X016529Y023376D01*
X016484Y023431D01*
X016437Y023484D01*
X016386Y023535D01*
X016333Y023582D01*
X016277Y023627D01*
X016219Y023668D01*
X016159Y023706D01*
X016097Y023741D01*
X016033Y023772D01*
X015967Y023799D01*
X015900Y023823D01*
X015831Y023843D01*
X015762Y023860D01*
X015692Y023872D01*
X015621Y023881D01*
X015550Y023885D01*
X015479Y023886D01*
X015408Y023882D01*
X015337Y023875D01*
X015266Y023864D01*
X015197Y023849D01*
X015128Y023830D01*
X015060Y023807D01*
X014994Y023781D01*
X014929Y023751D01*
X014867Y023717D01*
X014806Y023681D01*
X014747Y023640D01*
X014690Y023597D01*
X014636Y023550D01*
X014585Y023501D01*
X014537Y023448D01*
X014491Y023394D01*
X014449Y023336D01*
X014410Y023277D01*
X014374Y023215D01*
X014341Y023152D01*
X014313Y023087D01*
X014287Y023020D01*
X014266Y022952D01*
X014248Y022883D01*
X014235Y022813D01*
X014225Y022742D01*
X014219Y022671D01*
X014217Y022600D01*
X014219Y022529D01*
X014225Y022458D01*
X014235Y022387D01*
X014248Y022317D01*
X014266Y022248D01*
X014287Y022180D01*
X014313Y022113D01*
X014341Y022048D01*
X014374Y021985D01*
X014410Y021923D01*
X014449Y021864D01*
X014491Y021806D01*
X014537Y021752D01*
X014585Y021699D01*
X014636Y021650D01*
X014690Y021603D01*
X014747Y021560D01*
X014806Y021519D01*
X014867Y021483D01*
X014929Y021449D01*
X014994Y021419D01*
X015060Y021393D01*
X015128Y021370D01*
X015197Y021351D01*
X015266Y021336D01*
X015337Y021325D01*
X015408Y021318D01*
X015479Y021314D01*
X015550Y021315D01*
X015621Y021319D01*
X015692Y021328D01*
X015762Y021340D01*
X015831Y021357D01*
X015900Y021377D01*
X015967Y021401D01*
X016033Y021428D01*
X016097Y021459D01*
X016159Y021494D01*
X016219Y021532D01*
X016277Y021573D01*
X016333Y021618D01*
X016386Y021665D01*
X016437Y021716D01*
X016484Y021769D01*
X016529Y021824D01*
X016522Y021830D01*
X016477Y021775D01*
X016430Y021722D01*
X016380Y021672D01*
X016327Y021625D01*
X016272Y021581D01*
X016214Y021539D01*
X016155Y021502D01*
X016093Y021467D01*
X016029Y021436D01*
X015964Y021409D01*
X015897Y021385D01*
X015829Y021365D01*
X015760Y021349D01*
X015691Y021337D01*
X015620Y021328D01*
X015550Y021324D01*
X015479Y021323D01*
X015408Y021327D01*
X015338Y021334D01*
X015268Y021345D01*
X015199Y021360D01*
X015131Y021379D01*
X015063Y021401D01*
X014998Y021427D01*
X014933Y021457D01*
X014871Y021490D01*
X014811Y021527D01*
X014752Y021567D01*
X014696Y021610D01*
X014642Y021656D01*
X014592Y021706D01*
X014543Y021757D01*
X014498Y021812D01*
X014456Y021869D01*
X014417Y021928D01*
X014382Y021989D01*
X014349Y022052D01*
X014321Y022117D01*
X014296Y022183D01*
X014275Y022251D01*
X014257Y022319D01*
X014244Y022389D01*
X014234Y022459D01*
X014228Y022529D01*
X014226Y022600D01*
X014228Y022671D01*
X014234Y022741D01*
X014244Y022811D01*
X014257Y022881D01*
X014275Y022949D01*
X014296Y023017D01*
X014321Y023083D01*
X014349Y023148D01*
X014382Y023211D01*
X014417Y023272D01*
X014456Y023331D01*
X014498Y023388D01*
X014543Y023443D01*
X014592Y023494D01*
X014642Y023544D01*
X014696Y023590D01*
X014752Y023633D01*
X014811Y023673D01*
X014871Y023710D01*
X014933Y023743D01*
X014998Y023773D01*
X015063Y023799D01*
X015131Y023821D01*
X015199Y023840D01*
X015268Y023855D01*
X015338Y023866D01*
X015408Y023873D01*
X015479Y023877D01*
X015550Y023876D01*
X015620Y023872D01*
X015691Y023863D01*
X015760Y023851D01*
X015829Y023835D01*
X015897Y023815D01*
X015964Y023791D01*
X016029Y023764D01*
X016093Y023733D01*
X016155Y023698D01*
X016214Y023661D01*
X016272Y023619D01*
X016327Y023575D01*
X016380Y023528D01*
X016430Y023478D01*
X016477Y023425D01*
X016522Y023370D01*
X016514Y023365D01*
X016470Y023420D01*
X016422Y023473D01*
X016372Y023523D01*
X016319Y023571D01*
X016263Y023615D01*
X016205Y023656D01*
X016145Y023693D01*
X016083Y023728D01*
X016019Y023758D01*
X015953Y023785D01*
X015886Y023809D01*
X015818Y023828D01*
X015748Y023844D01*
X015678Y023856D01*
X015608Y023864D01*
X015537Y023868D01*
X015466Y023867D01*
X015395Y023863D01*
X015324Y023855D01*
X015254Y023843D01*
X015185Y023827D01*
X015117Y023808D01*
X015049Y023784D01*
X014984Y023757D01*
X014920Y023726D01*
X014858Y023692D01*
X014798Y023654D01*
X014740Y023612D01*
X014684Y023568D01*
X014631Y023521D01*
X014581Y023470D01*
X014534Y023417D01*
X014489Y023362D01*
X014448Y023304D01*
X014411Y023244D01*
X014376Y023181D01*
X014345Y023117D01*
X014318Y023052D01*
X014295Y022985D01*
X014275Y022916D01*
X014259Y022847D01*
X014247Y022777D01*
X014239Y022706D01*
X014235Y022636D01*
X014235Y022564D01*
X014239Y022494D01*
X014247Y022423D01*
X014259Y022353D01*
X014275Y022284D01*
X014295Y022215D01*
X014318Y022148D01*
X014345Y022083D01*
X014376Y022019D01*
X014411Y021956D01*
X014448Y021896D01*
X014489Y021838D01*
X014534Y021783D01*
X014581Y021730D01*
X014631Y021679D01*
X014684Y021632D01*
X014740Y021588D01*
X014798Y021546D01*
X014858Y021508D01*
X014920Y021474D01*
X014984Y021443D01*
X015049Y021416D01*
X015117Y021392D01*
X015185Y021373D01*
X015254Y021357D01*
X015324Y021345D01*
X015395Y021337D01*
X015466Y021333D01*
X015537Y021332D01*
X015608Y021336D01*
X015678Y021344D01*
X015748Y021356D01*
X015818Y021372D01*
X015886Y021391D01*
X015953Y021415D01*
X016019Y021442D01*
X016083Y021472D01*
X016145Y021507D01*
X016205Y021544D01*
X016263Y021585D01*
X016319Y021629D01*
X016372Y021677D01*
X016422Y021727D01*
X016470Y021780D01*
X016514Y021835D01*
X016507Y021841D01*
X016463Y021786D01*
X016416Y021733D01*
X016366Y021683D01*
X016313Y021636D01*
X016258Y021592D01*
X016200Y021552D01*
X016141Y021514D01*
X016079Y021480D01*
X016015Y021450D01*
X015950Y021423D01*
X015883Y021400D01*
X015815Y021380D01*
X015747Y021365D01*
X015677Y021353D01*
X015607Y021345D01*
X015536Y021341D01*
X015466Y021342D01*
X015395Y021346D01*
X015325Y021354D01*
X015256Y021366D01*
X015187Y021381D01*
X015119Y021401D01*
X015053Y021424D01*
X014988Y021451D01*
X014924Y021482D01*
X014862Y021516D01*
X014803Y021554D01*
X014745Y021595D01*
X014690Y021639D01*
X014637Y021686D01*
X014588Y021736D01*
X014541Y021788D01*
X014497Y021844D01*
X014456Y021901D01*
X014418Y021961D01*
X014384Y022023D01*
X014354Y022086D01*
X014327Y022151D01*
X014303Y022218D01*
X014284Y022286D01*
X014268Y022355D01*
X014256Y022424D01*
X014248Y022494D01*
X014244Y022565D01*
X014244Y022635D01*
X014248Y022706D01*
X014256Y022776D01*
X014268Y022845D01*
X014284Y022914D01*
X014303Y022982D01*
X014327Y023049D01*
X014354Y023114D01*
X014384Y023177D01*
X014418Y023239D01*
X014456Y023299D01*
X014497Y023356D01*
X014541Y023412D01*
X014588Y023464D01*
X014637Y023514D01*
X014690Y023561D01*
X014745Y023605D01*
X014803Y023646D01*
X014862Y023684D01*
X014924Y023718D01*
X014988Y023749D01*
X015053Y023776D01*
X015119Y023799D01*
X015187Y023819D01*
X015256Y023834D01*
X015325Y023846D01*
X015395Y023854D01*
X015466Y023858D01*
X015536Y023859D01*
X015607Y023855D01*
X015677Y023847D01*
X015747Y023835D01*
X015815Y023820D01*
X015883Y023800D01*
X015950Y023777D01*
X016015Y023750D01*
X016079Y023720D01*
X016141Y023686D01*
X016200Y023648D01*
X016258Y023608D01*
X016313Y023564D01*
X016366Y023517D01*
X016416Y023467D01*
X016463Y023414D01*
X016507Y023359D01*
X016500Y023354D01*
X016456Y023409D01*
X016409Y023461D01*
X016360Y023510D01*
X016307Y023557D01*
X016253Y023600D01*
X016195Y023641D01*
X016136Y023678D01*
X016075Y023712D01*
X016011Y023742D01*
X015947Y023769D01*
X015880Y023792D01*
X015813Y023811D01*
X015745Y023826D01*
X015676Y023838D01*
X015606Y023846D01*
X015536Y023850D01*
X015466Y023849D01*
X015396Y023845D01*
X015327Y023837D01*
X015258Y023826D01*
X015189Y023810D01*
X015122Y023791D01*
X015056Y023767D01*
X014991Y023740D01*
X014928Y023710D01*
X014867Y023676D01*
X014808Y023639D01*
X014750Y023598D01*
X014696Y023554D01*
X014644Y023508D01*
X014594Y023458D01*
X014547Y023406D01*
X014504Y023351D01*
X014463Y023294D01*
X014426Y023235D01*
X014392Y023173D01*
X014362Y023110D01*
X014335Y023045D01*
X014312Y022979D01*
X014293Y022912D01*
X014277Y022844D01*
X014265Y022775D01*
X014257Y022705D01*
X014253Y022635D01*
X014253Y022565D01*
X014257Y022495D01*
X014265Y022425D01*
X014277Y022356D01*
X014293Y022288D01*
X014312Y022221D01*
X014335Y022155D01*
X014362Y022090D01*
X014392Y022027D01*
X014426Y021965D01*
X014463Y021906D01*
X014504Y021849D01*
X014547Y021794D01*
X014594Y021742D01*
X014644Y021692D01*
X014696Y021646D01*
X014750Y021602D01*
X014808Y021561D01*
X014867Y021524D01*
X014928Y021490D01*
X014991Y021460D01*
X015056Y021433D01*
X015122Y021409D01*
X015189Y021390D01*
X015258Y021374D01*
X015327Y021363D01*
X015396Y021355D01*
X015466Y021351D01*
X015536Y021350D01*
X015606Y021354D01*
X015676Y021362D01*
X015745Y021374D01*
X015813Y021389D01*
X015880Y021408D01*
X015947Y021431D01*
X016011Y021458D01*
X016075Y021488D01*
X016136Y021522D01*
X016195Y021559D01*
X016253Y021600D01*
X016307Y021643D01*
X016360Y021690D01*
X016409Y021739D01*
X016456Y021791D01*
X016500Y021846D01*
X016493Y021851D01*
X016449Y021797D01*
X016403Y021745D01*
X016354Y021696D01*
X016302Y021650D01*
X016247Y021607D01*
X016190Y021567D01*
X016131Y021530D01*
X016070Y021496D01*
X016008Y021466D01*
X015943Y021440D01*
X015878Y021417D01*
X015811Y021398D01*
X015743Y021382D01*
X015674Y021371D01*
X015605Y021363D01*
X015536Y021359D01*
X015466Y021360D01*
X015397Y021364D01*
X015328Y021371D01*
X015259Y021383D01*
X015192Y021399D01*
X015125Y021418D01*
X015059Y021441D01*
X014995Y021468D01*
X014932Y021498D01*
X014871Y021532D01*
X014813Y021569D01*
X014756Y021609D01*
X014702Y021652D01*
X014650Y021699D01*
X014601Y021748D01*
X014554Y021800D01*
X014511Y021854D01*
X014471Y021911D01*
X014434Y021970D01*
X014400Y022031D01*
X014370Y022094D01*
X014343Y022158D01*
X014320Y022223D01*
X014301Y022290D01*
X014286Y022358D01*
X014274Y022427D01*
X014266Y022496D01*
X014262Y022565D01*
X014262Y022635D01*
X014266Y022704D01*
X014274Y022773D01*
X014286Y022842D01*
X014301Y022910D01*
X014320Y022977D01*
X014343Y023042D01*
X014370Y023106D01*
X014400Y023169D01*
X014434Y023230D01*
X014471Y023289D01*
X014511Y023346D01*
X014554Y023400D01*
X014601Y023452D01*
X014650Y023501D01*
X014702Y023548D01*
X014756Y023591D01*
X014813Y023631D01*
X014871Y023668D01*
X014932Y023702D01*
X014995Y023732D01*
X015059Y023759D01*
X015125Y023782D01*
X015192Y023801D01*
X015259Y023817D01*
X015328Y023829D01*
X015397Y023836D01*
X015466Y023840D01*
X015536Y023841D01*
X015605Y023837D01*
X015674Y023829D01*
X015743Y023818D01*
X015811Y023802D01*
X015878Y023783D01*
X015943Y023760D01*
X016008Y023734D01*
X016070Y023704D01*
X016131Y023670D01*
X016190Y023633D01*
X016247Y023593D01*
X016302Y023550D01*
X016354Y023504D01*
X016403Y023455D01*
X016449Y023403D01*
X016493Y023349D01*
X016486Y023343D01*
X016442Y023397D01*
X016396Y023448D01*
X016347Y023497D01*
X016296Y023543D01*
X016242Y023586D01*
X016185Y023626D01*
X016127Y023662D01*
X016066Y023696D01*
X016004Y023726D01*
X015940Y023752D01*
X015875Y023774D01*
X015809Y023793D01*
X015741Y023809D01*
X015673Y023820D01*
X015605Y023828D01*
X015536Y023832D01*
X015467Y023831D01*
X015398Y023827D01*
X015329Y023820D01*
X015261Y023808D01*
X015194Y023793D01*
X015127Y023773D01*
X015062Y023750D01*
X014999Y023724D01*
X014936Y023694D01*
X014876Y023661D01*
X014818Y023624D01*
X014761Y023584D01*
X014707Y023541D01*
X014656Y023495D01*
X014607Y023446D01*
X014561Y023394D01*
X014518Y023340D01*
X014478Y023284D01*
X014442Y023225D01*
X014408Y023165D01*
X014378Y023103D01*
X014352Y023039D01*
X014329Y022974D01*
X014310Y022907D01*
X014295Y022840D01*
X014283Y022772D01*
X014275Y022703D01*
X014271Y022635D01*
X014271Y022565D01*
X014275Y022497D01*
X014283Y022428D01*
X014295Y022360D01*
X014310Y022293D01*
X014329Y022226D01*
X014352Y022161D01*
X014378Y022097D01*
X014408Y022035D01*
X014442Y021975D01*
X014478Y021916D01*
X014518Y021860D01*
X014561Y021806D01*
X014607Y021754D01*
X014656Y021705D01*
X014707Y021659D01*
X014761Y021616D01*
X014818Y021576D01*
X014876Y021539D01*
X014936Y021506D01*
X014999Y021476D01*
X015062Y021450D01*
X015127Y021427D01*
X015194Y021407D01*
X015261Y021392D01*
X015329Y021380D01*
X015398Y021373D01*
X015467Y021369D01*
X015536Y021368D01*
X015605Y021372D01*
X015673Y021380D01*
X015741Y021391D01*
X015809Y021407D01*
X015875Y021426D01*
X015940Y021448D01*
X016004Y021474D01*
X016066Y021504D01*
X016127Y021538D01*
X016185Y021574D01*
X016242Y021614D01*
X016296Y021657D01*
X016347Y021703D01*
X016396Y021752D01*
X016442Y021803D01*
X016486Y021857D01*
X016478Y021862D01*
X016435Y021808D01*
X016389Y021757D01*
X016339Y021708D01*
X016288Y021662D01*
X016233Y021619D01*
X016176Y021579D01*
X016118Y021543D01*
X016057Y021509D01*
X015994Y021480D01*
X015930Y021454D01*
X015864Y021432D01*
X015797Y021413D01*
X015730Y021398D01*
X015661Y021387D01*
X015592Y021380D01*
X015523Y021377D01*
X015454Y021378D01*
X015384Y021383D01*
X015316Y021391D01*
X015248Y021404D01*
X015180Y021420D01*
X015114Y021441D01*
X015049Y021464D01*
X014985Y021492D01*
X014923Y021523D01*
X014863Y021558D01*
X014805Y021596D01*
X014749Y021637D01*
X014696Y021681D01*
X014645Y021728D01*
X014597Y021778D01*
X014552Y021831D01*
X014510Y021886D01*
X014471Y021943D01*
X014436Y022003D01*
X014404Y022064D01*
X014375Y022127D01*
X014350Y022192D01*
X014329Y022258D01*
X014311Y022325D01*
X014298Y022393D01*
X014288Y022462D01*
X014282Y022531D01*
X014280Y022600D01*
X014282Y022669D01*
X014288Y022738D01*
X014298Y022807D01*
X014311Y022875D01*
X014329Y022942D01*
X014350Y023008D01*
X014375Y023073D01*
X014404Y023136D01*
X014436Y023197D01*
X014471Y023257D01*
X014510Y023314D01*
X014552Y023369D01*
X014597Y023422D01*
X014645Y023472D01*
X014696Y023519D01*
X014749Y023563D01*
X014805Y023604D01*
X014863Y023642D01*
X014923Y023677D01*
X014985Y023708D01*
X015049Y023736D01*
X015114Y023759D01*
X015180Y023780D01*
X015248Y023796D01*
X015316Y023809D01*
X015384Y023817D01*
X015454Y023822D01*
X015523Y023823D01*
X015592Y023820D01*
X015661Y023813D01*
X015730Y023802D01*
X015797Y023787D01*
X015864Y023768D01*
X015930Y023746D01*
X015994Y023720D01*
X016057Y023691D01*
X016118Y023657D01*
X016176Y023621D01*
X016233Y023581D01*
X016288Y023538D01*
X016339Y023492D01*
X016389Y023443D01*
X016435Y023392D01*
X016478Y023338D01*
X016471Y023332D01*
X016428Y023386D01*
X016382Y023437D01*
X016333Y023486D01*
X016282Y023531D01*
X016228Y023574D01*
X016171Y023613D01*
X016113Y023650D01*
X016053Y023683D01*
X015990Y023712D01*
X015927Y023738D01*
X015861Y023760D01*
X015795Y023778D01*
X015728Y023793D01*
X015660Y023804D01*
X015591Y023811D01*
X015523Y023814D01*
X015454Y023813D01*
X015385Y023808D01*
X015317Y023800D01*
X015249Y023787D01*
X015183Y023771D01*
X015117Y023751D01*
X015052Y023727D01*
X014989Y023700D01*
X014928Y023669D01*
X014868Y023635D01*
X014810Y023597D01*
X014755Y023556D01*
X014702Y023512D01*
X014652Y023465D01*
X014604Y023416D01*
X014559Y023364D01*
X014517Y023309D01*
X014479Y023252D01*
X014444Y023193D01*
X014412Y023132D01*
X014383Y023069D01*
X014359Y023005D01*
X014337Y022939D01*
X014320Y022873D01*
X014307Y022805D01*
X014297Y022737D01*
X014291Y022669D01*
X014289Y022600D01*
X014291Y022531D01*
X014297Y022463D01*
X014307Y022395D01*
X014320Y022327D01*
X014337Y022261D01*
X014359Y022195D01*
X014383Y022131D01*
X014412Y022068D01*
X014444Y022007D01*
X014479Y021948D01*
X014517Y021891D01*
X014559Y021836D01*
X014604Y021784D01*
X014652Y021735D01*
X014702Y021688D01*
X014755Y021644D01*
X014810Y021603D01*
X014868Y021565D01*
X014928Y021531D01*
X014989Y021500D01*
X015052Y021473D01*
X015117Y021449D01*
X015183Y021429D01*
X015249Y021413D01*
X015317Y021400D01*
X015385Y021392D01*
X015454Y021387D01*
X015523Y021386D01*
X015591Y021389D01*
X015660Y021396D01*
X015728Y021407D01*
X015795Y021422D01*
X015861Y021440D01*
X015927Y021462D01*
X015990Y021488D01*
X016053Y021517D01*
X016113Y021550D01*
X016171Y021587D01*
X016228Y021626D01*
X016282Y021669D01*
X016333Y021714D01*
X016382Y021763D01*
X016428Y021814D01*
X016471Y021868D01*
D20*
X016103Y029635D02*
X015682Y029635D01*
X015893Y029635D02*
X015893Y030266D01*
X015682Y030055D01*
X015458Y030160D02*
X015353Y030266D01*
X015143Y030266D01*
X015038Y030160D01*
X015038Y030055D01*
X015143Y029950D01*
X015353Y029950D01*
X015458Y029845D01*
X015458Y029740D01*
X015353Y029635D01*
X015143Y029635D01*
X015038Y029740D01*
X012103Y029635D02*
X011682Y029635D01*
X012103Y030055D01*
X012103Y030160D01*
X011998Y030266D01*
X011787Y030266D01*
X011682Y030160D01*
X011458Y030160D02*
X011353Y030266D01*
X011143Y030266D01*
X011038Y030160D01*
X011038Y030055D01*
X011143Y029950D01*
X011353Y029950D01*
X011458Y029845D01*
X011458Y029740D01*
X011353Y029635D01*
X011143Y029635D01*
X011038Y029740D01*
D21*
X018768Y028254D03*
X021608Y028254D03*
X021423Y024600D03*
X018583Y024600D03*
X014923Y014100D03*
X012083Y014100D03*
M02*
