G75*
%MOIN*%
%OFA0B0*%
%FSLAX24Y24*%
%IPPOS*%
%LPD*%
%AMOC8*
5,1,8,0,0,1.08239X$1,22.5*
%
%ADD10R,0.0631X0.0631*%
%ADD11C,0.0631*%
%ADD12R,0.0625X0.0625*%
%ADD13C,0.0625*%
%ADD14OC8,0.0700*%
%ADD15C,0.0790*%
%ADD16OC8,0.0790*%
%ADD17OC8,0.0520*%
%ADD18C,0.1225*%
%ADD19C,0.0600*%
%ADD20C,0.0640*%
%ADD21C,0.0880*%
%ADD22C,0.0276*%
D10*
X010003Y010850D03*
X010003Y029850D03*
D11*
X011003Y029850D03*
X012003Y029850D03*
X013003Y029850D03*
X014003Y029850D03*
X015003Y029850D03*
X016003Y029850D03*
X017003Y029850D03*
X018003Y029850D03*
X019003Y029850D03*
X020003Y029850D03*
X021003Y029850D03*
X022003Y029850D03*
X023003Y029850D03*
X024003Y029850D03*
X025003Y029850D03*
X026003Y029850D03*
X027003Y029850D03*
X028003Y029850D03*
X029003Y029850D03*
X030003Y029850D03*
X031003Y029850D03*
X032003Y029850D03*
X032003Y030850D03*
X031003Y030850D03*
X030003Y030850D03*
X029003Y030850D03*
X028003Y030850D03*
X027003Y030850D03*
X026003Y030850D03*
X025003Y030850D03*
X024003Y030850D03*
X023003Y030850D03*
X022003Y030850D03*
X021003Y030850D03*
X020003Y030850D03*
X019003Y030850D03*
X018003Y030850D03*
X017003Y030850D03*
X016003Y030850D03*
X015003Y030850D03*
X014003Y030850D03*
X013003Y030850D03*
X012003Y030850D03*
X011003Y030850D03*
X010003Y030850D03*
X011942Y023049D03*
X012003Y011850D03*
X013003Y011850D03*
X014003Y011850D03*
X015003Y011850D03*
X016003Y011850D03*
X017003Y011850D03*
X018003Y011850D03*
X019003Y011850D03*
X020003Y011850D03*
X021003Y011850D03*
X022003Y011850D03*
X023003Y011850D03*
X024003Y011850D03*
X025003Y011850D03*
X026003Y011850D03*
X027003Y011850D03*
X028003Y011850D03*
X029003Y011850D03*
X030003Y011850D03*
X031003Y011850D03*
X032003Y011850D03*
X032003Y010850D03*
X031003Y010850D03*
X030003Y010850D03*
X029003Y010850D03*
X028003Y010850D03*
X027003Y010850D03*
X026003Y010850D03*
X025003Y010850D03*
X024003Y010850D03*
X023003Y010850D03*
X022003Y010850D03*
X021003Y010850D03*
X020003Y010850D03*
X019003Y010850D03*
X018003Y010850D03*
X017003Y010850D03*
X016003Y010850D03*
X015003Y010850D03*
X014003Y010850D03*
X013003Y010850D03*
X012003Y010850D03*
X011003Y010850D03*
X011003Y011850D03*
X010003Y011850D03*
X034438Y020797D03*
D12*
X029003Y013100D03*
D13*
X029003Y014100D03*
X029003Y015100D03*
X029003Y016100D03*
X026003Y016100D03*
X026003Y015100D03*
X026003Y014100D03*
X026003Y013100D03*
D14*
X024003Y013600D03*
X024003Y014600D03*
X023003Y014600D03*
X023003Y013600D03*
X022003Y013600D03*
X022003Y014600D03*
X021003Y014600D03*
X021003Y013600D03*
X024003Y016800D03*
X025503Y018800D03*
X024003Y020400D03*
X022503Y018800D03*
X020503Y019600D03*
X019503Y019600D03*
X018003Y019300D03*
X016003Y019600D03*
X015003Y019600D03*
X013444Y019914D03*
X013503Y018900D03*
X015003Y016600D03*
X016003Y016600D03*
X013503Y015300D03*
X015303Y014100D03*
X011703Y014100D03*
X015003Y022600D03*
X016003Y022600D03*
X018003Y022900D03*
X019503Y022600D03*
X020503Y022600D03*
X022503Y022400D03*
X021803Y024600D03*
X018203Y024600D03*
X018388Y028254D03*
X021988Y028254D03*
X025503Y022400D03*
X013444Y023514D03*
D15*
X019503Y016600D03*
D16*
X017503Y016600D03*
D17*
X019003Y014600D03*
X019003Y013600D03*
D18*
X016595Y025020D02*
X015410Y025020D01*
X015410Y026600D02*
X016595Y026600D01*
X016595Y028180D02*
X015410Y028180D01*
X012595Y028180D02*
X011410Y028180D01*
X011410Y026600D02*
X012595Y026600D01*
X012595Y025020D02*
X011410Y025020D01*
D19*
X011086Y022411D03*
X012086Y021911D03*
X011086Y021411D03*
X012086Y020911D03*
X034294Y021935D03*
X034294Y022935D03*
X034294Y023935D03*
X034294Y024935D03*
X035294Y024435D03*
X035294Y023435D03*
X035294Y022435D03*
X035294Y021435D03*
D20*
X025908Y028257D03*
X024908Y028257D03*
X023908Y028257D03*
D21*
X034449Y028198D02*
X035289Y028198D01*
X035289Y026820D02*
X034449Y026820D01*
D22*
X028999Y022935D03*
X028448Y022698D03*
X025219Y020887D03*
X016873Y016832D03*
X013487Y020454D03*
X013605Y024628D03*
X024353Y030494D03*
M02*
