G75*
%MOIN*%
%OFA0B0*%
%FSLAX24Y24*%
%IPPOS*%
%LPD*%
%AMOC8*
5,1,8,0,0,1.08239X$1,22.5*
%
%ADD10R,0.0591X0.0591*%
%ADD11C,0.0591*%
%ADD12R,0.0585X0.0585*%
%ADD13C,0.0585*%
%ADD14OC8,0.0660*%
%ADD15C,0.0750*%
%ADD16OC8,0.0750*%
%ADD17OC8,0.0480*%
%ADD18C,0.1185*%
%ADD19C,0.0560*%
%ADD20C,0.0600*%
%ADD21C,0.0840*%
%ADD22C,0.0079*%
%ADD23C,0.0160*%
%ADD24C,0.0236*%
D10*
X010003Y010850D03*
X010003Y029850D03*
D11*
X011003Y029850D03*
X012003Y029850D03*
X013003Y029850D03*
X014003Y029850D03*
X015003Y029850D03*
X016003Y029850D03*
X017003Y029850D03*
X018003Y029850D03*
X019003Y029850D03*
X020003Y029850D03*
X021003Y029850D03*
X022003Y029850D03*
X023003Y029850D03*
X024003Y029850D03*
X025003Y029850D03*
X026003Y029850D03*
X027003Y029850D03*
X028003Y029850D03*
X029003Y029850D03*
X030003Y029850D03*
X031003Y029850D03*
X032003Y029850D03*
X032003Y030850D03*
X031003Y030850D03*
X030003Y030850D03*
X029003Y030850D03*
X028003Y030850D03*
X027003Y030850D03*
X026003Y030850D03*
X025003Y030850D03*
X024003Y030850D03*
X023003Y030850D03*
X022003Y030850D03*
X021003Y030850D03*
X020003Y030850D03*
X019003Y030850D03*
X018003Y030850D03*
X017003Y030850D03*
X016003Y030850D03*
X015003Y030850D03*
X014003Y030850D03*
X013003Y030850D03*
X012003Y030850D03*
X011003Y030850D03*
X010003Y030850D03*
X010003Y011850D03*
X011003Y011850D03*
X012003Y011850D03*
X013003Y011850D03*
X014003Y011850D03*
X015003Y011850D03*
X016003Y011850D03*
X017003Y011850D03*
X018003Y011850D03*
X019003Y011850D03*
X020003Y011850D03*
X021003Y011850D03*
X022003Y011850D03*
X023003Y011850D03*
X024003Y011850D03*
X025003Y011850D03*
X026003Y011850D03*
X027003Y011850D03*
X028003Y011850D03*
X029003Y011850D03*
X030003Y011850D03*
X031003Y011850D03*
X032003Y011850D03*
X032003Y010850D03*
X031003Y010850D03*
X030003Y010850D03*
X029003Y010850D03*
X028003Y010850D03*
X027003Y010850D03*
X026003Y010850D03*
X025003Y010850D03*
X024003Y010850D03*
X023003Y010850D03*
X022003Y010850D03*
X021003Y010850D03*
X020003Y010850D03*
X019003Y010850D03*
X018003Y010850D03*
X017003Y010850D03*
X016003Y010850D03*
X015003Y010850D03*
X014003Y010850D03*
X013003Y010850D03*
X012003Y010850D03*
X011003Y010850D03*
D12*
X029003Y013100D03*
D13*
X029003Y014100D03*
X029003Y015100D03*
X029003Y016100D03*
X026003Y016100D03*
X026003Y015100D03*
X026003Y014100D03*
X026003Y013100D03*
D14*
X024003Y013600D03*
X024003Y014600D03*
X023003Y014600D03*
X023003Y013600D03*
X022003Y013600D03*
X022003Y014600D03*
X021003Y014600D03*
X021003Y013600D03*
X024003Y016800D03*
X025503Y018800D03*
X024003Y020400D03*
X022503Y018800D03*
X020503Y019600D03*
X019503Y019600D03*
X018003Y019300D03*
X016003Y019600D03*
X015003Y019600D03*
X013444Y019914D03*
X013503Y018900D03*
X015003Y016600D03*
X016003Y016600D03*
X013503Y015300D03*
X015303Y014100D03*
X011703Y014100D03*
X015003Y022600D03*
X016003Y022600D03*
X018003Y022900D03*
X019503Y022600D03*
X020503Y022600D03*
X022503Y022400D03*
X021803Y024600D03*
X018203Y024600D03*
X018388Y028254D03*
X021988Y028254D03*
X025503Y022400D03*
X013444Y023514D03*
D15*
X019503Y016600D03*
D16*
X017503Y016600D03*
D17*
X019003Y014600D03*
X019003Y013600D03*
D18*
X016595Y025020D02*
X015410Y025020D01*
X015410Y026600D02*
X016595Y026600D01*
X016595Y028180D02*
X015410Y028180D01*
X012595Y028180D02*
X011410Y028180D01*
X011410Y026600D02*
X012595Y026600D01*
X012595Y025020D02*
X011410Y025020D01*
D19*
X011086Y022411D03*
X012086Y021911D03*
X011086Y021411D03*
X012086Y020911D03*
X034294Y021935D03*
X034294Y022935D03*
X034294Y023935D03*
X034294Y024935D03*
X035294Y024435D03*
X035294Y023435D03*
X035294Y022435D03*
X035294Y021435D03*
D20*
X025908Y028257D03*
X024908Y028257D03*
X023908Y028257D03*
D21*
X034449Y028198D02*
X035289Y028198D01*
X035289Y026820D02*
X034449Y026820D01*
D22*
X034904Y027974D02*
X035810Y027069D01*
X035810Y024982D01*
X035298Y024470D01*
X035294Y024435D01*
X035259Y024037D02*
X035141Y024037D01*
X034274Y024903D01*
X034294Y024935D01*
X034294Y023935D02*
X034314Y023919D01*
X034314Y023525D01*
X031991Y021202D01*
X024944Y028250D01*
X024908Y028257D01*
X024471Y027777D02*
X029235Y023013D01*
X029235Y021911D01*
X024589Y017265D01*
X023841Y017265D01*
X023566Y016990D01*
X023566Y015061D01*
X023999Y014628D01*
X024003Y014600D01*
X023448Y014155D02*
X023003Y014600D01*
X023448Y014155D02*
X023448Y013525D01*
X023999Y012974D01*
X023999Y011872D01*
X024003Y011850D01*
X024432Y011714D02*
X024432Y013171D01*
X024003Y013600D01*
X024038Y015494D02*
X025967Y013565D01*
X025967Y013131D01*
X026003Y013100D01*
X026003Y014100D02*
X026007Y014116D01*
X026007Y014549D01*
X034274Y022817D01*
X034274Y022935D01*
X034294Y022935D01*
X034314Y023486D02*
X035259Y022541D01*
X035259Y022462D01*
X035294Y022435D01*
X035692Y022265D02*
X035298Y021872D01*
X035298Y021439D01*
X035294Y021435D01*
X035692Y022265D02*
X035692Y023604D01*
X035259Y024037D01*
X034314Y023525D02*
X034314Y023486D01*
X031991Y021202D02*
X026007Y015218D01*
X026007Y015100D01*
X026003Y015100D01*
X024038Y015494D02*
X024038Y016793D01*
X024003Y016800D01*
X022463Y016399D02*
X022463Y012305D01*
X022030Y011872D01*
X022003Y011850D01*
X021003Y011850D02*
X020967Y011872D01*
X020574Y012265D01*
X020574Y014824D01*
X028448Y022698D01*
X028999Y022935D02*
X022463Y016399D01*
X020967Y016635D02*
X019511Y016635D01*
X019503Y016600D01*
X019471Y016635D01*
X018999Y017108D01*
X014668Y017108D01*
X011086Y020691D01*
X011086Y021411D01*
X011086Y021872D01*
X010692Y022265D01*
X010692Y026872D01*
X011991Y028171D01*
X012003Y028180D01*
X012030Y029746D02*
X013605Y028171D01*
X013605Y024628D01*
X013369Y024076D02*
X015023Y025730D01*
X016715Y025730D01*
X017306Y026320D01*
X017306Y027817D01*
X018408Y028919D01*
X018408Y029824D01*
X018999Y030415D01*
X018999Y030848D01*
X019003Y030850D01*
X019432Y031006D02*
X019156Y031281D01*
X018841Y031281D01*
X018448Y030887D01*
X018015Y030887D01*
X018003Y030850D01*
X019432Y031006D02*
X019432Y026872D01*
X015613Y023053D01*
X014235Y023053D01*
X012109Y020927D01*
X012086Y020911D01*
X012109Y021911D02*
X012086Y021911D01*
X012109Y021911D02*
X012582Y022344D01*
X012582Y023643D01*
X013015Y024076D01*
X013369Y024076D01*
X015456Y022659D02*
X015456Y022423D01*
X013487Y020454D01*
X013448Y019943D02*
X013444Y019914D01*
X013448Y019943D02*
X014314Y019943D01*
X022424Y028053D01*
X022424Y029864D01*
X022975Y030415D01*
X022975Y030848D01*
X023003Y030850D01*
X022003Y030850D02*
X021991Y030848D01*
X021991Y030415D01*
X021400Y029824D01*
X021400Y028604D01*
X015456Y022659D01*
X018003Y022900D02*
X018015Y022935D01*
X018133Y023053D01*
X020889Y023053D01*
X022267Y024431D01*
X022267Y027187D01*
X023999Y028919D01*
X023999Y029824D01*
X024003Y029850D01*
X024353Y030061D02*
X024471Y029943D01*
X024471Y027777D01*
X023408Y028525D02*
X021834Y026950D01*
X021834Y024628D01*
X021803Y024600D01*
X022503Y022400D02*
X022503Y022383D01*
X023999Y020887D01*
X023999Y020415D01*
X024003Y020400D01*
X025219Y020887D02*
X020967Y016635D01*
X016873Y016832D02*
X014156Y014116D01*
X011715Y014116D01*
X011703Y014100D01*
X024038Y011320D02*
X024038Y010887D01*
X024003Y010850D01*
X024038Y011320D02*
X024432Y011714D01*
X016003Y026600D02*
X014708Y027895D01*
X014708Y028486D01*
X015416Y029194D01*
X015416Y030848D01*
X016007Y031439D01*
X019983Y031439D01*
X020534Y030887D01*
X020967Y030887D01*
X021003Y030850D01*
X023408Y029824D02*
X023408Y028525D01*
X023408Y029824D02*
X023999Y030415D01*
X023999Y030848D01*
X024003Y030850D01*
X024353Y030494D02*
X024353Y030061D01*
X034869Y028198D02*
X034904Y028171D01*
X034904Y027974D01*
X012030Y029746D02*
X012030Y029824D01*
X012003Y029850D01*
D23*
X008362Y014991D02*
X008362Y010209D01*
X031503Y010209D01*
X031887Y010224D01*
X032645Y010344D01*
X033375Y010581D01*
X034058Y010930D01*
X034679Y011381D01*
X035222Y011924D01*
X035673Y012544D01*
X036022Y013228D01*
X036259Y013958D01*
X036379Y014716D01*
X036394Y015100D01*
X036394Y026600D01*
X036379Y026984D01*
X036259Y027742D01*
X036022Y028472D01*
X035673Y029156D01*
X035222Y029776D01*
X034679Y030319D01*
X034058Y030770D01*
X033375Y031119D01*
X032645Y031356D01*
X031887Y031476D01*
X031503Y031491D01*
X020183Y031491D01*
X020608Y031066D01*
X020622Y031066D01*
X020635Y031096D01*
X020757Y031218D01*
X020916Y031284D01*
X021089Y031284D01*
X021249Y031218D01*
X021371Y031096D01*
X021437Y030936D01*
X021437Y030764D01*
X021371Y030604D01*
X021249Y030482D01*
X021089Y030416D01*
X020916Y030416D01*
X020757Y030482D01*
X020635Y030604D01*
X020591Y030709D01*
X020460Y030709D01*
X020428Y030741D01*
X020371Y030604D01*
X020249Y030482D01*
X020089Y030416D01*
X019916Y030416D01*
X019757Y030482D01*
X019635Y030604D01*
X019610Y030662D01*
X019610Y030038D01*
X019635Y030096D01*
X019757Y030218D01*
X019916Y030284D01*
X020089Y030284D01*
X020249Y030218D01*
X020371Y030096D01*
X020437Y029936D01*
X020437Y029764D01*
X020371Y029604D01*
X020249Y029482D01*
X020089Y029416D01*
X019916Y029416D01*
X019757Y029482D01*
X019635Y029604D01*
X019610Y029662D01*
X019610Y027066D01*
X021222Y028678D01*
X021222Y029471D01*
X021089Y029416D01*
X020916Y029416D01*
X020757Y029482D01*
X020635Y029604D01*
X020569Y029764D01*
X020569Y029936D01*
X020635Y030096D01*
X020757Y030218D01*
X020916Y030284D01*
X021089Y030284D01*
X021249Y030218D01*
X021371Y030096D01*
X021385Y030062D01*
X021791Y030468D01*
X021757Y030482D01*
X021635Y030604D01*
X021569Y030764D01*
X021569Y030936D01*
X021635Y031096D01*
X021757Y031218D01*
X021916Y031284D01*
X022089Y031284D01*
X022249Y031218D01*
X022371Y031096D01*
X022437Y030936D01*
X022437Y030764D01*
X022371Y030604D01*
X022249Y030482D01*
X022169Y030449D01*
X022169Y030341D01*
X022106Y030277D01*
X022249Y030218D01*
X022371Y030096D01*
X022381Y030073D01*
X022780Y030472D01*
X022757Y030482D01*
X022635Y030604D01*
X022569Y030764D01*
X022569Y030936D01*
X022635Y031096D01*
X022757Y031218D01*
X022916Y031284D01*
X023089Y031284D01*
X023249Y031218D01*
X023371Y031096D01*
X023437Y030936D01*
X023437Y030764D01*
X023371Y030604D01*
X023249Y030482D01*
X023154Y030442D01*
X023154Y030341D01*
X023095Y030282D01*
X023249Y030218D01*
X023371Y030096D01*
X023388Y030056D01*
X023797Y030465D01*
X023757Y030482D01*
X023635Y030604D01*
X023569Y030764D01*
X023569Y030936D01*
X023635Y031096D01*
X023757Y031218D01*
X023916Y031284D01*
X024089Y031284D01*
X024249Y031218D01*
X024371Y031096D01*
X024437Y030936D01*
X024437Y030764D01*
X024428Y030741D01*
X024499Y030712D01*
X024571Y030639D01*
X024610Y030545D01*
X024610Y030443D01*
X024571Y030348D01*
X024532Y030308D01*
X024532Y030135D01*
X024545Y030121D01*
X024616Y030050D01*
X024635Y030096D01*
X024757Y030218D01*
X024916Y030284D01*
X025089Y030284D01*
X025249Y030218D01*
X025371Y030096D01*
X025437Y029936D01*
X025437Y029764D01*
X025371Y029604D01*
X025249Y029482D01*
X025089Y029416D01*
X024916Y029416D01*
X024757Y029482D01*
X024650Y029589D01*
X024650Y028620D01*
X024660Y028630D01*
X024821Y028697D01*
X024996Y028697D01*
X025157Y028630D01*
X025281Y028506D01*
X025347Y028345D01*
X025347Y028170D01*
X025326Y028119D01*
X031991Y021455D01*
X034098Y023562D01*
X034057Y023579D01*
X033939Y023697D01*
X033875Y023851D01*
X033875Y024018D01*
X033939Y024172D01*
X034057Y024290D01*
X034211Y024354D01*
X034378Y024354D01*
X034532Y024290D01*
X034649Y024172D01*
X034713Y024018D01*
X034713Y023851D01*
X034649Y023697D01*
X034532Y023579D01*
X034492Y023563D01*
X034492Y023560D01*
X035202Y022850D01*
X035211Y022854D01*
X035378Y022854D01*
X035532Y022790D01*
X035649Y022672D01*
X035713Y022518D01*
X035713Y022351D01*
X035649Y022197D01*
X035532Y022079D01*
X035378Y022016D01*
X035211Y022016D01*
X035057Y022079D01*
X034939Y022197D01*
X034875Y022351D01*
X034875Y022518D01*
X034920Y022627D01*
X034708Y022839D01*
X034649Y022697D01*
X034532Y022579D01*
X034378Y022516D01*
X034226Y022516D01*
X026197Y014487D01*
X026247Y014466D01*
X026369Y014344D01*
X026434Y014186D01*
X026434Y014014D01*
X026369Y013856D01*
X026247Y013734D01*
X026108Y013676D01*
X026146Y013638D01*
X026146Y013508D01*
X026247Y013466D01*
X026369Y013344D01*
X026434Y013186D01*
X026434Y013014D01*
X026369Y012856D01*
X026247Y012734D01*
X026089Y012668D01*
X025917Y012668D01*
X025758Y012734D01*
X025637Y012856D01*
X025571Y013014D01*
X025571Y013186D01*
X025637Y013344D01*
X025758Y013466D01*
X025789Y013479D01*
X025789Y013491D01*
X023964Y015315D01*
X023860Y015420D01*
X023860Y016331D01*
X023809Y016331D01*
X023744Y016395D01*
X023744Y015135D01*
X023810Y015069D01*
X024197Y015069D01*
X024472Y014794D01*
X024472Y014406D01*
X024197Y014131D01*
X023809Y014131D01*
X023534Y014406D01*
X023534Y014794D01*
X023557Y014817D01*
X023387Y014987D01*
X023387Y017064D01*
X023492Y017168D01*
X023768Y017444D01*
X024516Y017444D01*
X025403Y018331D01*
X025309Y018331D01*
X025034Y018606D01*
X025034Y018717D01*
X022642Y016325D01*
X022642Y014902D01*
X022809Y015069D01*
X023197Y015069D01*
X023472Y014794D01*
X023472Y014406D01*
X023461Y014394D01*
X023626Y014229D01*
X023626Y013887D01*
X023809Y014069D01*
X024197Y014069D01*
X024472Y013794D01*
X024472Y013406D01*
X024461Y013394D01*
X024610Y013245D01*
X024610Y012038D01*
X024635Y012096D01*
X024757Y012218D01*
X024916Y012284D01*
X025089Y012284D01*
X025249Y012218D01*
X025371Y012096D01*
X025437Y011936D01*
X025437Y011764D01*
X025371Y011604D01*
X025249Y011482D01*
X025089Y011416D01*
X024916Y011416D01*
X024757Y011482D01*
X024635Y011604D01*
X024610Y011662D01*
X024610Y011640D01*
X024506Y011536D01*
X024217Y011247D01*
X024217Y011232D01*
X024249Y011218D01*
X024371Y011096D01*
X024437Y010936D01*
X024437Y010764D01*
X024371Y010604D01*
X024249Y010482D01*
X024089Y010416D01*
X023916Y010416D01*
X023757Y010482D01*
X023635Y010604D01*
X023569Y010764D01*
X023569Y010936D01*
X023635Y011096D01*
X023757Y011218D01*
X023860Y011261D01*
X023860Y011394D01*
X023891Y011426D01*
X023757Y011482D01*
X023635Y011604D01*
X023569Y011764D01*
X023569Y011936D01*
X023635Y012096D01*
X023757Y012218D01*
X023820Y012245D01*
X023820Y012900D01*
X023393Y013327D01*
X023197Y013131D01*
X022809Y013131D01*
X022642Y013298D01*
X022642Y012231D01*
X022411Y012000D01*
X022437Y011936D01*
X022437Y011764D01*
X022371Y011604D01*
X022249Y011482D01*
X022089Y011416D01*
X021916Y011416D01*
X021757Y011482D01*
X021635Y011604D01*
X021569Y011764D01*
X021569Y011936D01*
X021635Y012096D01*
X021757Y012218D01*
X021916Y012284D01*
X022089Y012284D01*
X022161Y012255D01*
X022285Y012379D01*
X022285Y013219D01*
X022197Y013131D01*
X021809Y013131D01*
X021534Y013406D01*
X021534Y013794D01*
X021809Y014069D01*
X022197Y014069D01*
X022285Y013981D01*
X022285Y014219D01*
X022197Y014131D01*
X021809Y014131D01*
X021534Y014406D01*
X021534Y014794D01*
X021809Y015069D01*
X022197Y015069D01*
X022285Y014981D01*
X022285Y016283D01*
X021071Y015069D01*
X021197Y015069D01*
X021472Y014794D01*
X021472Y014406D01*
X021197Y014131D01*
X020809Y014131D01*
X020752Y014187D01*
X020752Y014071D01*
X020792Y014110D01*
X020983Y014110D01*
X020983Y013620D01*
X021023Y013620D01*
X021513Y013620D01*
X021513Y013811D01*
X021214Y014110D01*
X021023Y014110D01*
X021023Y013620D01*
X021023Y013580D01*
X021513Y013580D01*
X021513Y013389D01*
X021214Y013090D01*
X021023Y013090D01*
X021023Y013580D01*
X020983Y013580D01*
X020983Y013090D01*
X020792Y013090D01*
X020752Y013129D01*
X020752Y012339D01*
X020839Y012252D01*
X020916Y012284D01*
X021089Y012284D01*
X021249Y012218D01*
X021371Y012096D01*
X021437Y011936D01*
X021437Y011764D01*
X021371Y011604D01*
X021249Y011482D01*
X021089Y011416D01*
X020916Y011416D01*
X020757Y011482D01*
X020635Y011604D01*
X020569Y011764D01*
X020569Y011936D01*
X020592Y011994D01*
X020395Y012191D01*
X020395Y014898D01*
X020500Y015003D01*
X028191Y022694D01*
X028191Y022750D01*
X028230Y022844D01*
X028302Y022916D01*
X028397Y022956D01*
X028499Y022956D01*
X028593Y022916D01*
X028661Y022849D01*
X028742Y022930D01*
X028742Y022986D01*
X028781Y023080D01*
X028848Y023148D01*
X024293Y027703D01*
X024293Y028039D01*
X024281Y028009D01*
X024157Y027885D01*
X023996Y027818D01*
X023821Y027818D01*
X023660Y027885D01*
X023536Y028009D01*
X023479Y028147D01*
X022445Y027113D01*
X022445Y024357D01*
X020963Y022874D01*
X020950Y022874D01*
X021013Y022811D01*
X021013Y022600D01*
X020503Y022600D01*
X020503Y022600D01*
X021013Y022600D01*
X021013Y022389D01*
X020714Y022090D01*
X020503Y022090D01*
X020503Y022600D01*
X020503Y022600D01*
X020503Y022090D01*
X020292Y022090D01*
X019993Y022389D01*
X019993Y022600D01*
X020503Y022600D01*
X020503Y022600D01*
X019993Y022600D01*
X019993Y022811D01*
X020056Y022874D01*
X019892Y022874D01*
X019972Y022794D01*
X019972Y022406D01*
X019697Y022131D01*
X019309Y022131D01*
X019034Y022406D01*
X019034Y022794D01*
X019114Y022874D01*
X018472Y022874D01*
X018472Y022706D01*
X018197Y022431D01*
X017809Y022431D01*
X017534Y022706D01*
X017534Y022910D01*
X014492Y019869D01*
X014388Y019764D01*
X013913Y019764D01*
X013913Y019720D01*
X013638Y019445D01*
X013249Y019445D01*
X012975Y019720D01*
X012975Y020108D01*
X013241Y020375D01*
X013230Y020403D01*
X013230Y020505D01*
X013269Y020600D01*
X013341Y020672D01*
X013436Y020711D01*
X013492Y020711D01*
X014911Y022131D01*
X014809Y022131D01*
X014534Y022406D01*
X014534Y022794D01*
X014614Y022874D01*
X014309Y022874D01*
X012482Y021048D01*
X012505Y020994D01*
X012505Y020828D01*
X012441Y020674D01*
X012323Y020556D01*
X012169Y020492D01*
X012002Y020492D01*
X011848Y020556D01*
X011730Y020674D01*
X011666Y020828D01*
X011666Y020994D01*
X011730Y021148D01*
X011848Y021266D01*
X012002Y021330D01*
X012169Y021330D01*
X012233Y021303D01*
X014161Y023231D01*
X015539Y023231D01*
X016555Y024248D01*
X016083Y024248D01*
X016083Y024940D01*
X017248Y024940D01*
X019254Y026946D01*
X019254Y029486D01*
X019249Y029482D01*
X019089Y029416D01*
X018916Y029416D01*
X018757Y029482D01*
X018635Y029604D01*
X018587Y029720D01*
X018587Y028845D01*
X018464Y028723D01*
X018582Y028723D01*
X018857Y028448D01*
X018857Y028059D01*
X018582Y027784D01*
X018194Y027784D01*
X017919Y028059D01*
X017919Y028177D01*
X017484Y027743D01*
X017484Y026247D01*
X016947Y025709D01*
X017025Y025664D01*
X017106Y025602D01*
X017177Y025530D01*
X017239Y025450D01*
X017290Y025362D01*
X017328Y025269D01*
X017355Y025171D01*
X017364Y025100D01*
X016083Y025100D01*
X016083Y024940D01*
X015923Y024940D01*
X015923Y024248D01*
X015360Y024248D01*
X015259Y024261D01*
X015161Y024287D01*
X015068Y024326D01*
X014980Y024376D01*
X014900Y024438D01*
X014828Y024510D01*
X014767Y024590D01*
X014716Y024678D01*
X014677Y024771D01*
X014651Y024869D01*
X014642Y024940D01*
X015923Y024940D01*
X015923Y025100D01*
X014645Y025100D01*
X013528Y023983D01*
X013638Y023983D01*
X013913Y023708D01*
X013913Y023320D01*
X013638Y023045D01*
X013249Y023045D01*
X012975Y023320D01*
X012975Y023708D01*
X013164Y023898D01*
X013089Y023898D01*
X012760Y023569D01*
X012760Y022413D01*
X012763Y022410D01*
X012760Y022340D01*
X012760Y022270D01*
X012757Y022267D01*
X012757Y022263D01*
X012705Y022215D01*
X012655Y022166D01*
X012651Y022166D01*
X012493Y022021D01*
X012505Y021994D01*
X012505Y021828D01*
X012441Y021674D01*
X012323Y021556D01*
X012169Y021492D01*
X012002Y021492D01*
X011848Y021556D01*
X011730Y021674D01*
X011666Y021828D01*
X011666Y021994D01*
X011730Y022148D01*
X011848Y022266D01*
X012002Y022330D01*
X012169Y022330D01*
X012261Y022292D01*
X012403Y022423D01*
X012403Y023717D01*
X012508Y023822D01*
X012836Y024150D01*
X012941Y024255D01*
X013295Y024255D01*
X013455Y024414D01*
X013387Y024482D01*
X013348Y024576D01*
X013348Y024679D01*
X013387Y024773D01*
X013427Y024813D01*
X013427Y028097D01*
X013327Y028197D01*
X013327Y028034D01*
X013216Y027766D01*
X013010Y027560D01*
X012741Y027448D01*
X011521Y027448D01*
X011404Y027332D01*
X012741Y027332D01*
X013010Y027220D01*
X013216Y027014D01*
X013327Y026746D01*
X013327Y026454D01*
X013216Y026186D01*
X013010Y025980D01*
X012741Y025868D01*
X011265Y025868D01*
X010996Y025980D01*
X010870Y026106D01*
X010870Y025572D01*
X010900Y025602D01*
X010980Y025664D01*
X011068Y025714D01*
X011161Y025753D01*
X011259Y025779D01*
X011360Y025792D01*
X011923Y025792D01*
X011923Y025100D01*
X012083Y025100D01*
X013364Y025100D01*
X013355Y025171D01*
X013328Y025269D01*
X013290Y025362D01*
X013239Y025450D01*
X013177Y025530D01*
X013106Y025602D01*
X013025Y025664D01*
X012938Y025714D01*
X012844Y025753D01*
X012746Y025779D01*
X012646Y025792D01*
X012083Y025792D01*
X012083Y025100D01*
X012083Y024940D01*
X013364Y024940D01*
X013355Y024869D01*
X013328Y024771D01*
X013290Y024678D01*
X013239Y024590D01*
X013177Y024510D01*
X013106Y024438D01*
X013025Y024376D01*
X012938Y024326D01*
X012844Y024287D01*
X012746Y024261D01*
X012646Y024248D01*
X012083Y024248D01*
X012083Y024940D01*
X011923Y024940D01*
X011923Y024248D01*
X011360Y024248D01*
X011259Y024261D01*
X011161Y024287D01*
X011068Y024326D01*
X010980Y024376D01*
X010900Y024438D01*
X010870Y024468D01*
X010870Y022818D01*
X010909Y022837D01*
X010978Y022860D01*
X011049Y022871D01*
X011086Y022871D01*
X011086Y022411D01*
X011546Y022411D01*
X011546Y022447D01*
X011534Y022519D01*
X011512Y022588D01*
X011479Y022652D01*
X011436Y022711D01*
X011385Y022762D01*
X011327Y022804D01*
X011262Y022837D01*
X011193Y022860D01*
X011122Y022871D01*
X011086Y022871D01*
X011086Y022411D01*
X011086Y022411D01*
X011546Y022411D01*
X011546Y022375D01*
X011534Y022303D01*
X011512Y022234D01*
X011479Y022170D01*
X011436Y022111D01*
X011385Y022060D01*
X011327Y022018D01*
X011262Y021985D01*
X011234Y021976D01*
X011264Y021946D01*
X011264Y021791D01*
X011323Y021766D01*
X011441Y021648D01*
X011505Y021494D01*
X011505Y021328D01*
X011441Y021174D01*
X011323Y021056D01*
X011264Y021031D01*
X011264Y020764D01*
X013034Y018995D01*
X013034Y019094D01*
X013309Y019369D01*
X013697Y019369D01*
X013972Y019094D01*
X013972Y018706D01*
X013697Y018431D01*
X013597Y018431D01*
X014742Y017286D01*
X019073Y017286D01*
X019291Y017068D01*
X019401Y017114D01*
X019605Y017114D01*
X019794Y017036D01*
X019939Y016891D01*
X019971Y016814D01*
X020893Y016814D01*
X022411Y018331D01*
X022309Y018331D01*
X022034Y018606D01*
X022034Y018994D01*
X022309Y019269D01*
X022697Y019269D01*
X022972Y018994D01*
X022972Y018892D01*
X023970Y019890D01*
X023792Y019890D01*
X023493Y020189D01*
X023493Y020400D01*
X024003Y020400D01*
X024003Y020400D01*
X024003Y020910D01*
X024214Y020910D01*
X024513Y020611D01*
X024513Y020433D01*
X024962Y020883D01*
X024962Y020939D01*
X025001Y021033D01*
X025074Y021105D01*
X025168Y021145D01*
X025271Y021145D01*
X025365Y021105D01*
X025437Y021033D01*
X025477Y020939D01*
X025477Y020836D01*
X025437Y020742D01*
X025365Y020669D01*
X025271Y020630D01*
X025215Y020630D01*
X021146Y016562D01*
X021041Y016457D01*
X020000Y016457D01*
X019939Y016309D01*
X019794Y016164D01*
X019605Y016086D01*
X019401Y016086D01*
X019212Y016164D01*
X019067Y016309D01*
X018989Y016498D01*
X018989Y016702D01*
X019037Y016818D01*
X018925Y016929D01*
X017958Y016929D01*
X018058Y016830D01*
X018058Y016600D01*
X017503Y016600D01*
X017503Y016600D01*
X018058Y016600D01*
X018058Y016370D01*
X017733Y016045D01*
X017503Y016045D01*
X017503Y016600D01*
X017503Y016600D01*
X017503Y016045D01*
X017273Y016045D01*
X016948Y016370D01*
X016948Y016585D01*
X016924Y016575D01*
X016868Y016575D01*
X014335Y014042D01*
X014335Y014042D01*
X014230Y013937D01*
X012172Y013937D01*
X012172Y013906D01*
X011897Y013631D01*
X011509Y013631D01*
X011234Y013906D01*
X011234Y014294D01*
X011509Y014569D01*
X011897Y014569D01*
X012172Y014294D01*
X012172Y014294D01*
X014082Y014294D01*
X015878Y016090D01*
X015792Y016090D01*
X015493Y016389D01*
X015493Y016600D01*
X016003Y016600D01*
X016003Y016600D01*
X015493Y016600D01*
X015493Y016811D01*
X015611Y016929D01*
X015337Y016929D01*
X015472Y016794D01*
X015472Y016406D01*
X015197Y016131D01*
X014809Y016131D01*
X014534Y016406D01*
X014534Y016794D01*
X014669Y016929D01*
X014594Y016929D01*
X014490Y017034D01*
X010907Y020617D01*
X010907Y021031D01*
X010848Y021056D01*
X010730Y021174D01*
X010666Y021328D01*
X010666Y021494D01*
X010730Y021648D01*
X010848Y021766D01*
X010907Y021791D01*
X010907Y021798D01*
X010618Y022087D01*
X010612Y022093D01*
X010612Y017084D01*
X010493Y016566D01*
X010493Y016566D01*
X010263Y016087D01*
X010263Y016087D01*
X009931Y015671D01*
X009931Y015671D01*
X009931Y015671D01*
X009516Y015340D01*
X009516Y015340D01*
X009037Y015109D01*
X009037Y015109D01*
X008519Y014991D01*
X008362Y014991D01*
X008362Y014841D02*
X013299Y014841D01*
X013309Y014831D02*
X013697Y014831D01*
X013972Y015106D01*
X013972Y015494D01*
X013697Y015769D01*
X013309Y015769D01*
X013034Y015494D01*
X013034Y015106D01*
X013309Y014831D01*
X013140Y014999D02*
X008553Y014999D01*
X008362Y014682D02*
X014470Y014682D01*
X014312Y014524D02*
X011943Y014524D01*
X012101Y014365D02*
X014153Y014365D01*
X014341Y014048D02*
X014834Y014048D01*
X014834Y013906D02*
X014834Y014294D01*
X015109Y014569D01*
X015497Y014569D01*
X015772Y014294D01*
X015772Y013906D01*
X015497Y013631D01*
X015109Y013631D01*
X014834Y013906D01*
X014850Y013890D02*
X012156Y013890D01*
X011997Y013731D02*
X015008Y013731D01*
X014834Y014207D02*
X014499Y014207D01*
X014658Y014365D02*
X014905Y014365D01*
X014816Y014524D02*
X015063Y014524D01*
X014975Y014682D02*
X018624Y014682D01*
X018624Y014757D02*
X018624Y014443D01*
X018846Y014221D01*
X019160Y014221D01*
X019382Y014443D01*
X019382Y014757D01*
X019160Y014979D01*
X018846Y014979D01*
X018624Y014757D01*
X018707Y014841D02*
X015133Y014841D01*
X015292Y014999D02*
X020496Y014999D01*
X020395Y014841D02*
X019298Y014841D01*
X019382Y014682D02*
X020395Y014682D01*
X020395Y014524D02*
X019382Y014524D01*
X019304Y014365D02*
X020395Y014365D01*
X020395Y014207D02*
X015772Y014207D01*
X015772Y014048D02*
X020395Y014048D01*
X020395Y013890D02*
X019307Y013890D01*
X019423Y013774D02*
X019177Y014020D01*
X019003Y014020D01*
X019003Y013600D01*
X019423Y013600D01*
X019423Y013774D01*
X019423Y013731D02*
X020395Y013731D01*
X020395Y013573D02*
X019423Y013573D01*
X019423Y013600D02*
X019423Y013426D01*
X019177Y013180D01*
X019003Y013180D01*
X019003Y013600D01*
X019003Y013600D01*
X019423Y013600D01*
X019411Y013414D02*
X020395Y013414D01*
X020395Y013256D02*
X019252Y013256D01*
X019003Y013256D02*
X019003Y013256D01*
X019003Y013180D02*
X018829Y013180D01*
X018583Y013426D01*
X018583Y013600D01*
X019003Y013600D01*
X019003Y013600D01*
X019003Y013600D01*
X019003Y014020D01*
X018829Y014020D01*
X018583Y013774D01*
X018583Y013600D01*
X019003Y013600D01*
X019003Y013180D01*
X019003Y013414D02*
X019003Y013414D01*
X019003Y013573D02*
X019003Y013573D01*
X019003Y013600D02*
X019003Y013600D01*
X019003Y013731D02*
X019003Y013731D01*
X019003Y013890D02*
X019003Y013890D01*
X018698Y013890D02*
X015756Y013890D01*
X015597Y013731D02*
X018583Y013731D01*
X018583Y013573D02*
X008362Y013573D01*
X008362Y013731D02*
X011408Y013731D01*
X011250Y013890D02*
X008362Y013890D01*
X008362Y014048D02*
X011234Y014048D01*
X011234Y014207D02*
X008362Y014207D01*
X008362Y014365D02*
X011305Y014365D01*
X011463Y014524D02*
X008362Y014524D01*
X009137Y015158D02*
X013034Y015158D01*
X013034Y015316D02*
X009466Y015316D01*
X009685Y015475D02*
X013034Y015475D01*
X013173Y015633D02*
X009883Y015633D01*
X010027Y015792D02*
X015580Y015792D01*
X015738Y015950D02*
X010154Y015950D01*
X010273Y016109D02*
X015773Y016109D01*
X015615Y016267D02*
X015333Y016267D01*
X015472Y016426D02*
X015493Y016426D01*
X015493Y016584D02*
X015472Y016584D01*
X015472Y016743D02*
X015493Y016743D01*
X015583Y016901D02*
X015365Y016901D01*
X014641Y016901D02*
X010570Y016901D01*
X010534Y016743D02*
X014534Y016743D01*
X014534Y016584D02*
X010498Y016584D01*
X010426Y016426D02*
X014534Y016426D01*
X014672Y016267D02*
X010350Y016267D01*
X010606Y017060D02*
X014464Y017060D01*
X014306Y017218D02*
X010612Y017218D01*
X010612Y017377D02*
X014147Y017377D01*
X013989Y017535D02*
X010612Y017535D01*
X010612Y017694D02*
X013830Y017694D01*
X013672Y017852D02*
X010612Y017852D01*
X010612Y018011D02*
X013513Y018011D01*
X013355Y018169D02*
X010612Y018169D01*
X010612Y018328D02*
X013196Y018328D01*
X013038Y018486D02*
X010612Y018486D01*
X010612Y018645D02*
X012879Y018645D01*
X012721Y018803D02*
X010612Y018803D01*
X010612Y018962D02*
X012562Y018962D01*
X012404Y019120D02*
X010612Y019120D01*
X010612Y019279D02*
X012245Y019279D01*
X012087Y019437D02*
X010612Y019437D01*
X010612Y019596D02*
X011928Y019596D01*
X011770Y019754D02*
X010612Y019754D01*
X010612Y019913D02*
X011611Y019913D01*
X011453Y020071D02*
X010612Y020071D01*
X010612Y020230D02*
X011294Y020230D01*
X011136Y020388D02*
X010612Y020388D01*
X010612Y020547D02*
X010977Y020547D01*
X010907Y020705D02*
X010612Y020705D01*
X010612Y020864D02*
X010907Y020864D01*
X010907Y021022D02*
X010612Y021022D01*
X010612Y021181D02*
X010727Y021181D01*
X010666Y021339D02*
X010612Y021339D01*
X010612Y021498D02*
X010668Y021498D01*
X010612Y021656D02*
X010738Y021656D01*
X010612Y021815D02*
X010890Y021815D01*
X010732Y021973D02*
X010612Y021973D01*
X011236Y021973D02*
X011666Y021973D01*
X011672Y021815D02*
X011264Y021815D01*
X011433Y021656D02*
X011748Y021656D01*
X011989Y021498D02*
X011503Y021498D01*
X011505Y021339D02*
X012269Y021339D01*
X012182Y021498D02*
X012428Y021498D01*
X012423Y021656D02*
X012586Y021656D01*
X012499Y021815D02*
X012745Y021815D01*
X012903Y021973D02*
X012505Y021973D01*
X012614Y022132D02*
X013062Y022132D01*
X013220Y022290D02*
X012760Y022290D01*
X012760Y022449D02*
X013379Y022449D01*
X013537Y022607D02*
X012760Y022607D01*
X012760Y022766D02*
X013696Y022766D01*
X013854Y022924D02*
X012760Y022924D01*
X012760Y023083D02*
X013212Y023083D01*
X013054Y023241D02*
X012760Y023241D01*
X012760Y023400D02*
X012975Y023400D01*
X012975Y023558D02*
X012760Y023558D01*
X012907Y023717D02*
X012983Y023717D01*
X013066Y023875D02*
X013141Y023875D01*
X012878Y024192D02*
X010870Y024192D01*
X010870Y024034D02*
X012719Y024034D01*
X012561Y023875D02*
X010870Y023875D01*
X010870Y023717D02*
X012403Y023717D01*
X012403Y023558D02*
X010870Y023558D01*
X010870Y023400D02*
X011798Y023400D01*
X011866Y023428D02*
X011727Y023370D01*
X011620Y023264D01*
X011563Y023124D01*
X011563Y022973D01*
X011620Y022834D01*
X011727Y022727D01*
X011866Y022670D01*
X012017Y022670D01*
X012157Y022727D01*
X012263Y022834D01*
X012321Y022973D01*
X012321Y023124D01*
X012263Y023264D01*
X012157Y023370D01*
X012017Y023428D01*
X011866Y023428D01*
X012086Y023400D02*
X012403Y023400D01*
X012403Y023241D02*
X012273Y023241D01*
X012321Y023083D02*
X012403Y023083D01*
X012403Y022924D02*
X012301Y022924D01*
X012403Y022766D02*
X012195Y022766D01*
X012403Y022607D02*
X011502Y022607D01*
X011545Y022449D02*
X012403Y022449D01*
X011905Y022290D02*
X011530Y022290D01*
X011451Y022132D02*
X011723Y022132D01*
X011086Y022411D02*
X011086Y022411D01*
X011086Y022449D02*
X011086Y022449D01*
X011086Y022607D02*
X011086Y022607D01*
X011086Y022766D02*
X011086Y022766D01*
X010870Y022924D02*
X011583Y022924D01*
X011563Y023083D02*
X010870Y023083D01*
X010870Y023241D02*
X011611Y023241D01*
X011689Y022766D02*
X011380Y022766D01*
X012932Y021498D02*
X014278Y021498D01*
X014436Y021656D02*
X013091Y021656D01*
X013249Y021815D02*
X014595Y021815D01*
X014753Y021973D02*
X013408Y021973D01*
X013566Y022132D02*
X014808Y022132D01*
X014649Y022290D02*
X013725Y022290D01*
X013883Y022449D02*
X014534Y022449D01*
X014534Y022607D02*
X014042Y022607D01*
X014200Y022766D02*
X014534Y022766D01*
X014013Y023083D02*
X013675Y023083D01*
X013834Y023241D02*
X015549Y023241D01*
X015708Y023400D02*
X013913Y023400D01*
X013913Y023558D02*
X015866Y023558D01*
X016025Y023717D02*
X013905Y023717D01*
X013746Y023875D02*
X016183Y023875D01*
X016342Y024034D02*
X013578Y024034D01*
X013737Y024192D02*
X016500Y024192D01*
X016083Y024351D02*
X015923Y024351D01*
X015923Y024509D02*
X016083Y024509D01*
X016083Y024668D02*
X015923Y024668D01*
X015923Y024826D02*
X016083Y024826D01*
X016083Y024985D02*
X017293Y024985D01*
X017358Y025143D02*
X017451Y025143D01*
X017315Y025302D02*
X017610Y025302D01*
X017768Y025460D02*
X017231Y025460D01*
X017084Y025619D02*
X017927Y025619D01*
X018085Y025777D02*
X017015Y025777D01*
X017173Y025936D02*
X018244Y025936D01*
X018402Y026094D02*
X017332Y026094D01*
X017484Y026253D02*
X018561Y026253D01*
X018719Y026411D02*
X017484Y026411D01*
X017484Y026570D02*
X018878Y026570D01*
X019036Y026728D02*
X017484Y026728D01*
X017484Y026887D02*
X019195Y026887D01*
X019254Y027045D02*
X017484Y027045D01*
X017484Y027204D02*
X019254Y027204D01*
X019254Y027362D02*
X017484Y027362D01*
X017484Y027521D02*
X019254Y027521D01*
X019254Y027679D02*
X017484Y027679D01*
X017579Y027838D02*
X018141Y027838D01*
X017982Y027996D02*
X017738Y027996D01*
X017896Y028155D02*
X017919Y028155D01*
X018635Y027838D02*
X019254Y027838D01*
X019254Y027996D02*
X018794Y027996D01*
X018857Y028155D02*
X019254Y028155D01*
X019254Y028313D02*
X018857Y028313D01*
X018833Y028472D02*
X019254Y028472D01*
X019254Y028630D02*
X018675Y028630D01*
X018530Y028789D02*
X019254Y028789D01*
X019254Y028947D02*
X018587Y028947D01*
X018587Y029106D02*
X019254Y029106D01*
X019254Y029264D02*
X018587Y029264D01*
X018587Y029423D02*
X018900Y029423D01*
X019106Y029423D02*
X019254Y029423D01*
X019610Y029423D02*
X019900Y029423D01*
X020106Y029423D02*
X020900Y029423D01*
X021106Y029423D02*
X021222Y029423D01*
X021222Y029264D02*
X019610Y029264D01*
X019610Y029106D02*
X021222Y029106D01*
X021222Y028947D02*
X019610Y028947D01*
X019610Y028789D02*
X021222Y028789D01*
X021174Y028630D02*
X019610Y028630D01*
X019610Y028472D02*
X021016Y028472D01*
X020857Y028313D02*
X019610Y028313D01*
X019610Y028155D02*
X020699Y028155D01*
X020540Y027996D02*
X019610Y027996D01*
X019610Y027838D02*
X020382Y027838D01*
X020223Y027679D02*
X019610Y027679D01*
X019610Y027521D02*
X020065Y027521D01*
X019906Y027362D02*
X019610Y027362D01*
X019610Y027204D02*
X019748Y027204D01*
X019658Y029581D02*
X019610Y029581D01*
X019610Y030057D02*
X019618Y030057D01*
X019610Y030215D02*
X019754Y030215D01*
X019610Y030374D02*
X021697Y030374D01*
X021707Y030532D02*
X021299Y030532D01*
X021407Y030691D02*
X021599Y030691D01*
X021569Y030849D02*
X021437Y030849D01*
X021408Y031008D02*
X021598Y031008D01*
X021705Y031166D02*
X021301Y031166D01*
X020705Y031166D02*
X020508Y031166D01*
X020350Y031325D02*
X032741Y031325D01*
X032371Y031096D02*
X032249Y031218D01*
X032089Y031284D01*
X031916Y031284D01*
X031757Y031218D01*
X031635Y031096D01*
X031569Y030936D01*
X031569Y030764D01*
X031635Y030604D01*
X031757Y030482D01*
X031916Y030416D01*
X032089Y030416D01*
X032249Y030482D01*
X032371Y030604D01*
X032437Y030764D01*
X032437Y030936D01*
X032371Y031096D01*
X032408Y031008D02*
X033593Y031008D01*
X033904Y030849D02*
X032437Y030849D01*
X032407Y030691D02*
X034168Y030691D01*
X034386Y030532D02*
X032299Y030532D01*
X032249Y030218D02*
X032089Y030284D01*
X031916Y030284D01*
X031757Y030218D01*
X031635Y030096D01*
X031569Y029936D01*
X031569Y029764D01*
X031635Y029604D01*
X031757Y029482D01*
X031916Y029416D01*
X032089Y029416D01*
X032249Y029482D01*
X032371Y029604D01*
X032437Y029764D01*
X032437Y029936D01*
X032371Y030096D01*
X032249Y030218D01*
X032252Y030215D02*
X034783Y030215D01*
X034942Y030057D02*
X032387Y030057D01*
X032437Y029898D02*
X035100Y029898D01*
X035249Y029740D02*
X032427Y029740D01*
X032348Y029581D02*
X035364Y029581D01*
X035479Y029423D02*
X032106Y029423D01*
X031900Y029423D02*
X031106Y029423D01*
X031089Y029416D02*
X031249Y029482D01*
X031371Y029604D01*
X031437Y029764D01*
X031437Y029936D01*
X031371Y030096D01*
X031249Y030218D01*
X031089Y030284D01*
X030916Y030284D01*
X030757Y030218D01*
X030635Y030096D01*
X030569Y029936D01*
X030569Y029764D01*
X030635Y029604D01*
X030757Y029482D01*
X030916Y029416D01*
X031089Y029416D01*
X030900Y029423D02*
X030106Y029423D01*
X030089Y029416D02*
X030249Y029482D01*
X030371Y029604D01*
X030437Y029764D01*
X030437Y029936D01*
X030371Y030096D01*
X030249Y030218D01*
X030089Y030284D01*
X029916Y030284D01*
X029757Y030218D01*
X029635Y030096D01*
X029569Y029936D01*
X029569Y029764D01*
X029635Y029604D01*
X029757Y029482D01*
X029916Y029416D01*
X030089Y029416D01*
X029900Y029423D02*
X029106Y029423D01*
X029089Y029416D02*
X029249Y029482D01*
X029371Y029604D01*
X029437Y029764D01*
X029437Y029936D01*
X029371Y030096D01*
X029249Y030218D01*
X029089Y030284D01*
X028916Y030284D01*
X028757Y030218D01*
X028635Y030096D01*
X028569Y029936D01*
X028569Y029764D01*
X028635Y029604D01*
X028757Y029482D01*
X028916Y029416D01*
X029089Y029416D01*
X028900Y029423D02*
X028106Y029423D01*
X028089Y029416D02*
X028249Y029482D01*
X028371Y029604D01*
X028437Y029764D01*
X028437Y029936D01*
X028371Y030096D01*
X028249Y030218D01*
X028089Y030284D01*
X027916Y030284D01*
X027757Y030218D01*
X027635Y030096D01*
X027569Y029936D01*
X027569Y029764D01*
X027635Y029604D01*
X027757Y029482D01*
X027916Y029416D01*
X028089Y029416D01*
X027900Y029423D02*
X027106Y029423D01*
X027089Y029416D02*
X027249Y029482D01*
X027371Y029604D01*
X027437Y029764D01*
X027437Y029936D01*
X027371Y030096D01*
X027249Y030218D01*
X027089Y030284D01*
X026916Y030284D01*
X026757Y030218D01*
X026635Y030096D01*
X026569Y029936D01*
X026569Y029764D01*
X026635Y029604D01*
X026757Y029482D01*
X026916Y029416D01*
X027089Y029416D01*
X026900Y029423D02*
X026106Y029423D01*
X026089Y029416D02*
X026249Y029482D01*
X026371Y029604D01*
X026437Y029764D01*
X026437Y029936D01*
X026371Y030096D01*
X026249Y030218D01*
X026089Y030284D01*
X025916Y030284D01*
X025757Y030218D01*
X025635Y030096D01*
X025569Y029936D01*
X025569Y029764D01*
X025635Y029604D01*
X025757Y029482D01*
X025916Y029416D01*
X026089Y029416D01*
X025900Y029423D02*
X025106Y029423D01*
X024900Y029423D02*
X024650Y029423D01*
X024650Y029581D02*
X024658Y029581D01*
X024650Y029264D02*
X035594Y029264D01*
X035699Y029106D02*
X024650Y029106D01*
X024650Y028947D02*
X035779Y028947D01*
X035860Y028789D02*
X024650Y028789D01*
X024650Y028630D02*
X024660Y028630D01*
X025156Y028630D02*
X025660Y028630D01*
X025536Y028506D01*
X025469Y028345D01*
X025469Y028170D01*
X025536Y028009D01*
X025660Y027885D01*
X025821Y027818D01*
X025996Y027818D01*
X026157Y027885D01*
X026281Y028009D01*
X026347Y028170D01*
X026347Y028345D01*
X026281Y028506D01*
X026157Y028630D01*
X025996Y028697D01*
X025821Y028697D01*
X025660Y028630D01*
X025522Y028472D02*
X025295Y028472D01*
X025347Y028313D02*
X025469Y028313D01*
X025476Y028155D02*
X025341Y028155D01*
X025450Y027996D02*
X025549Y027996D01*
X025608Y027838D02*
X025775Y027838D01*
X025767Y027679D02*
X034242Y027679D01*
X034338Y027639D02*
X034987Y027639D01*
X035206Y027420D01*
X034929Y027420D01*
X034929Y026880D01*
X034809Y026880D01*
X034809Y026760D01*
X034929Y026760D01*
X034929Y026220D01*
X035336Y026220D01*
X035429Y026235D01*
X035519Y026264D01*
X035603Y026307D01*
X035631Y026328D01*
X035631Y025056D01*
X035414Y024839D01*
X035378Y024854D01*
X035211Y024854D01*
X035057Y024790D01*
X034939Y024672D01*
X034875Y024518D01*
X034875Y024351D01*
X034939Y024197D01*
X035057Y024079D01*
X035211Y024016D01*
X035378Y024016D01*
X035532Y024079D01*
X035649Y024197D01*
X035713Y024351D01*
X035713Y024518D01*
X035680Y024599D01*
X035988Y024908D01*
X035988Y027142D01*
X035884Y027247D01*
X035465Y027666D01*
X035606Y027724D01*
X035763Y027882D01*
X035848Y028087D01*
X035848Y028310D01*
X035763Y028515D01*
X035606Y028672D01*
X035400Y028757D01*
X034338Y028757D01*
X034132Y028672D01*
X033975Y028515D01*
X033890Y028310D01*
X033890Y028087D01*
X033975Y027882D01*
X034132Y027724D01*
X034338Y027639D01*
X034402Y027420D02*
X034308Y027406D01*
X034219Y027377D01*
X034135Y027334D01*
X034058Y027278D01*
X033991Y027211D01*
X033936Y027135D01*
X033893Y027051D01*
X033864Y026961D01*
X033851Y026880D01*
X034809Y026880D01*
X034809Y027420D01*
X034402Y027420D01*
X034190Y027362D02*
X026084Y027362D01*
X026242Y027204D02*
X033986Y027204D01*
X033891Y027045D02*
X026401Y027045D01*
X026559Y026887D02*
X033852Y026887D01*
X033851Y026760D02*
X033864Y026680D01*
X033893Y026590D01*
X033936Y026506D01*
X033991Y026430D01*
X034058Y026363D01*
X034135Y026307D01*
X034219Y026264D01*
X034308Y026235D01*
X034402Y026220D01*
X034809Y026220D01*
X034809Y026760D01*
X033851Y026760D01*
X033856Y026728D02*
X026718Y026728D01*
X026876Y026570D02*
X033903Y026570D01*
X034010Y026411D02*
X027035Y026411D01*
X027193Y026253D02*
X034255Y026253D01*
X034809Y026253D02*
X034929Y026253D01*
X034929Y026411D02*
X034809Y026411D01*
X034809Y026570D02*
X034929Y026570D01*
X034929Y026728D02*
X034809Y026728D01*
X034809Y026887D02*
X034929Y026887D01*
X034929Y027045D02*
X034809Y027045D01*
X034809Y027204D02*
X034929Y027204D01*
X034929Y027362D02*
X034809Y027362D01*
X035106Y027521D02*
X025925Y027521D01*
X026042Y027838D02*
X034019Y027838D01*
X033928Y027996D02*
X026268Y027996D01*
X026341Y028155D02*
X033890Y028155D01*
X033891Y028313D02*
X026347Y028313D01*
X026295Y028472D02*
X033957Y028472D01*
X034090Y028630D02*
X026156Y028630D01*
X026348Y029581D02*
X026658Y029581D01*
X026578Y029740D02*
X026427Y029740D01*
X026437Y029898D02*
X026569Y029898D01*
X026618Y030057D02*
X026387Y030057D01*
X026252Y030215D02*
X026754Y030215D01*
X026916Y030416D02*
X026757Y030482D01*
X026635Y030604D01*
X026569Y030764D01*
X026569Y030936D01*
X026635Y031096D01*
X026757Y031218D01*
X026916Y031284D01*
X027089Y031284D01*
X027249Y031218D01*
X027371Y031096D01*
X027437Y030936D01*
X027437Y030764D01*
X027371Y030604D01*
X027249Y030482D01*
X027089Y030416D01*
X026916Y030416D01*
X026707Y030532D02*
X026299Y030532D01*
X026249Y030482D02*
X026371Y030604D01*
X026437Y030764D01*
X026437Y030936D01*
X026371Y031096D01*
X026249Y031218D01*
X026089Y031284D01*
X025916Y031284D01*
X025757Y031218D01*
X025635Y031096D01*
X025569Y030936D01*
X025569Y030764D01*
X025635Y030604D01*
X025757Y030482D01*
X025916Y030416D01*
X026089Y030416D01*
X026249Y030482D01*
X026407Y030691D02*
X026599Y030691D01*
X026569Y030849D02*
X026437Y030849D01*
X026408Y031008D02*
X026598Y031008D01*
X026705Y031166D02*
X026301Y031166D01*
X025705Y031166D02*
X025301Y031166D01*
X025249Y031218D02*
X025089Y031284D01*
X024916Y031284D01*
X024757Y031218D01*
X024635Y031096D01*
X024569Y030936D01*
X024569Y030764D01*
X024635Y030604D01*
X024757Y030482D01*
X024916Y030416D01*
X025089Y030416D01*
X025249Y030482D01*
X025371Y030604D01*
X025437Y030764D01*
X025437Y030936D01*
X025371Y031096D01*
X025249Y031218D01*
X025408Y031008D02*
X025598Y031008D01*
X025569Y030849D02*
X025437Y030849D01*
X025407Y030691D02*
X025599Y030691D01*
X025707Y030532D02*
X025299Y030532D01*
X025252Y030215D02*
X025754Y030215D01*
X025618Y030057D02*
X025387Y030057D01*
X025437Y029898D02*
X025569Y029898D01*
X025578Y029740D02*
X025427Y029740D01*
X025348Y029581D02*
X025658Y029581D01*
X024754Y030215D02*
X024532Y030215D01*
X024582Y030374D02*
X034605Y030374D01*
X033229Y031166D02*
X032301Y031166D01*
X031705Y031166D02*
X031301Y031166D01*
X031249Y031218D02*
X031089Y031284D01*
X030916Y031284D01*
X030757Y031218D01*
X030635Y031096D01*
X030569Y030936D01*
X030569Y030764D01*
X030635Y030604D01*
X030757Y030482D01*
X030916Y030416D01*
X031089Y030416D01*
X031249Y030482D01*
X031371Y030604D01*
X031437Y030764D01*
X031437Y030936D01*
X031371Y031096D01*
X031249Y031218D01*
X031408Y031008D02*
X031598Y031008D01*
X031569Y030849D02*
X031437Y030849D01*
X031407Y030691D02*
X031599Y030691D01*
X031707Y030532D02*
X031299Y030532D01*
X031252Y030215D02*
X031754Y030215D01*
X031618Y030057D02*
X031387Y030057D01*
X031437Y029898D02*
X031569Y029898D01*
X031578Y029740D02*
X031427Y029740D01*
X031348Y029581D02*
X031658Y029581D01*
X030658Y029581D02*
X030348Y029581D01*
X030427Y029740D02*
X030578Y029740D01*
X030569Y029898D02*
X030437Y029898D01*
X030387Y030057D02*
X030618Y030057D01*
X030754Y030215D02*
X030252Y030215D01*
X030089Y030416D02*
X030249Y030482D01*
X030371Y030604D01*
X030437Y030764D01*
X030437Y030936D01*
X030371Y031096D01*
X030249Y031218D01*
X030089Y031284D01*
X029916Y031284D01*
X029757Y031218D01*
X029635Y031096D01*
X029569Y030936D01*
X029569Y030764D01*
X029635Y030604D01*
X029757Y030482D01*
X029916Y030416D01*
X030089Y030416D01*
X030299Y030532D02*
X030707Y030532D01*
X030599Y030691D02*
X030407Y030691D01*
X030437Y030849D02*
X030569Y030849D01*
X030598Y031008D02*
X030408Y031008D01*
X030301Y031166D02*
X030705Y031166D01*
X031707Y031483D02*
X020191Y031483D01*
X020407Y030691D02*
X020599Y030691D01*
X020707Y030532D02*
X020299Y030532D01*
X020252Y030215D02*
X020754Y030215D01*
X020618Y030057D02*
X020387Y030057D01*
X020437Y029898D02*
X020569Y029898D01*
X020578Y029740D02*
X020427Y029740D01*
X020348Y029581D02*
X020658Y029581D01*
X021252Y030215D02*
X021539Y030215D01*
X022169Y030374D02*
X022682Y030374D01*
X022707Y030532D02*
X022299Y030532D01*
X022407Y030691D02*
X022599Y030691D01*
X022569Y030849D02*
X022437Y030849D01*
X022408Y031008D02*
X022598Y031008D01*
X022705Y031166D02*
X022301Y031166D01*
X023301Y031166D02*
X023705Y031166D01*
X023598Y031008D02*
X023408Y031008D01*
X023437Y030849D02*
X023569Y030849D01*
X023599Y030691D02*
X023407Y030691D01*
X023299Y030532D02*
X023707Y030532D01*
X023705Y030374D02*
X023154Y030374D01*
X023252Y030215D02*
X023547Y030215D01*
X023387Y030057D02*
X023388Y030057D01*
X022523Y030215D02*
X022252Y030215D01*
X024301Y031166D02*
X024705Y031166D01*
X024598Y031008D02*
X024408Y031008D01*
X024437Y030849D02*
X024569Y030849D01*
X024599Y030691D02*
X024520Y030691D01*
X024610Y030532D02*
X024707Y030532D01*
X024618Y030057D02*
X024610Y030057D01*
X024293Y027996D02*
X024268Y027996D01*
X024293Y027838D02*
X024042Y027838D01*
X023775Y027838D02*
X023170Y027838D01*
X023328Y027996D02*
X023549Y027996D01*
X023011Y027679D02*
X024317Y027679D01*
X024476Y027521D02*
X022853Y027521D01*
X022694Y027362D02*
X024634Y027362D01*
X024793Y027204D02*
X022536Y027204D01*
X022445Y027045D02*
X024951Y027045D01*
X025110Y026887D02*
X022445Y026887D01*
X022445Y026728D02*
X025268Y026728D01*
X025427Y026570D02*
X022445Y026570D01*
X022445Y026411D02*
X025585Y026411D01*
X025744Y026253D02*
X022445Y026253D01*
X022445Y026094D02*
X025902Y026094D01*
X026061Y025936D02*
X022445Y025936D01*
X022445Y025777D02*
X026219Y025777D01*
X026378Y025619D02*
X022445Y025619D01*
X022445Y025460D02*
X026536Y025460D01*
X026695Y025302D02*
X022445Y025302D01*
X022445Y025143D02*
X026853Y025143D01*
X027012Y024985D02*
X022445Y024985D01*
X022445Y024826D02*
X027170Y024826D01*
X027329Y024668D02*
X022445Y024668D01*
X022445Y024509D02*
X027487Y024509D01*
X027646Y024351D02*
X022439Y024351D01*
X022280Y024192D02*
X027804Y024192D01*
X027963Y024034D02*
X022122Y024034D01*
X021963Y023875D02*
X028121Y023875D01*
X028280Y023717D02*
X021805Y023717D01*
X021646Y023558D02*
X028438Y023558D01*
X028597Y023400D02*
X021488Y023400D01*
X021329Y023241D02*
X028755Y023241D01*
X028783Y023083D02*
X021171Y023083D01*
X021012Y022924D02*
X028320Y022924D01*
X028197Y022766D02*
X025801Y022766D01*
X025697Y022869D02*
X025309Y022869D01*
X025034Y022594D01*
X025034Y022206D01*
X025309Y021931D01*
X025697Y021931D01*
X025972Y022206D01*
X025972Y022594D01*
X025697Y022869D01*
X025959Y022607D02*
X028104Y022607D01*
X027945Y022449D02*
X025972Y022449D01*
X025972Y022290D02*
X027787Y022290D01*
X027628Y022132D02*
X025898Y022132D01*
X025739Y021973D02*
X027470Y021973D01*
X027311Y021815D02*
X016438Y021815D01*
X016597Y021973D02*
X022209Y021973D01*
X022292Y021890D02*
X021993Y022189D01*
X021993Y022400D01*
X022503Y022400D01*
X023013Y022400D01*
X023013Y022611D01*
X022714Y022910D01*
X022503Y022910D01*
X022503Y022400D01*
X022503Y022400D01*
X023013Y022400D01*
X023013Y022189D01*
X022714Y021890D01*
X022503Y021890D01*
X022503Y022400D01*
X022503Y022400D01*
X022503Y022400D01*
X022503Y022910D01*
X022292Y022910D01*
X021993Y022611D01*
X021993Y022400D01*
X022503Y022400D01*
X022503Y021890D01*
X022292Y021890D01*
X022503Y021973D02*
X022503Y021973D01*
X022503Y022132D02*
X022503Y022132D01*
X022503Y022290D02*
X022503Y022290D01*
X022503Y022400D02*
X022503Y022400D01*
X022503Y022449D02*
X022503Y022449D01*
X022503Y022607D02*
X022503Y022607D01*
X022503Y022766D02*
X022503Y022766D01*
X022859Y022766D02*
X025205Y022766D01*
X025047Y022607D02*
X023013Y022607D01*
X023013Y022449D02*
X025034Y022449D01*
X025034Y022290D02*
X023013Y022290D01*
X022956Y022132D02*
X025108Y022132D01*
X025266Y021973D02*
X022797Y021973D01*
X022050Y022132D02*
X020756Y022132D01*
X020914Y022290D02*
X021993Y022290D01*
X021993Y022449D02*
X021013Y022449D01*
X021013Y022607D02*
X021993Y022607D01*
X022147Y022766D02*
X021013Y022766D01*
X020503Y022449D02*
X020503Y022449D01*
X020503Y022290D02*
X020503Y022290D01*
X020503Y022132D02*
X020503Y022132D01*
X020250Y022132D02*
X019698Y022132D01*
X019856Y022290D02*
X020092Y022290D01*
X019993Y022449D02*
X019972Y022449D01*
X019972Y022607D02*
X019993Y022607D01*
X019993Y022766D02*
X019972Y022766D01*
X019308Y022132D02*
X016755Y022132D01*
X016914Y022290D02*
X019149Y022290D01*
X019034Y022449D02*
X018215Y022449D01*
X018373Y022607D02*
X019034Y022607D01*
X019034Y022766D02*
X018472Y022766D01*
X017791Y022449D02*
X017072Y022449D01*
X017231Y022607D02*
X017632Y022607D01*
X017534Y022766D02*
X017389Y022766D01*
X017202Y023083D02*
X016242Y023083D01*
X016214Y023110D02*
X016159Y023110D01*
X017734Y024685D01*
X017734Y024406D01*
X018009Y024131D01*
X018250Y024131D01*
X016513Y022394D01*
X016513Y022600D01*
X016513Y022811D01*
X016214Y023110D01*
X016290Y023241D02*
X017360Y023241D01*
X017519Y023400D02*
X016448Y023400D01*
X016607Y023558D02*
X017677Y023558D01*
X017836Y023717D02*
X016765Y023717D01*
X016924Y023875D02*
X017994Y023875D01*
X018153Y024034D02*
X017082Y024034D01*
X017241Y024192D02*
X017947Y024192D01*
X017789Y024351D02*
X017399Y024351D01*
X017558Y024509D02*
X017734Y024509D01*
X017734Y024668D02*
X017716Y024668D01*
X017043Y022924D02*
X016400Y022924D01*
X016513Y022766D02*
X016885Y022766D01*
X016726Y022607D02*
X016513Y022607D01*
X016513Y022600D02*
X016003Y022600D01*
X016003Y022600D01*
X016513Y022600D01*
X016513Y022449D02*
X016568Y022449D01*
X016209Y022090D02*
X014240Y020121D01*
X013900Y020121D01*
X013707Y020314D01*
X013744Y020403D01*
X013744Y020459D01*
X015583Y022298D01*
X015792Y022090D01*
X016003Y022090D01*
X016209Y022090D01*
X016092Y021973D02*
X015258Y021973D01*
X015100Y021815D02*
X015934Y021815D01*
X015775Y021656D02*
X014941Y021656D01*
X014783Y021498D02*
X015617Y021498D01*
X015458Y021339D02*
X014624Y021339D01*
X014466Y021181D02*
X015300Y021181D01*
X015141Y021022D02*
X014307Y021022D01*
X014149Y020864D02*
X014983Y020864D01*
X014824Y020705D02*
X013990Y020705D01*
X013832Y020547D02*
X014666Y020547D01*
X014507Y020388D02*
X013738Y020388D01*
X013792Y020230D02*
X014349Y020230D01*
X014536Y019913D02*
X014652Y019913D01*
X014695Y020071D02*
X015753Y020071D01*
X015792Y020110D02*
X015493Y019811D01*
X015493Y019600D01*
X015493Y019389D01*
X015792Y019090D01*
X016003Y019090D01*
X016214Y019090D01*
X016513Y019389D01*
X016513Y019600D01*
X016513Y019811D01*
X016214Y020110D01*
X016003Y020110D01*
X016003Y019600D01*
X016513Y019600D01*
X016003Y019600D01*
X016003Y019600D01*
X016003Y019090D01*
X016003Y019600D01*
X016003Y019600D01*
X016003Y019600D01*
X016003Y020110D01*
X015792Y020110D01*
X016003Y020071D02*
X016003Y020071D01*
X016003Y019913D02*
X016003Y019913D01*
X016003Y019754D02*
X016003Y019754D01*
X016003Y019600D02*
X016003Y019600D01*
X015493Y019600D01*
X016003Y019600D01*
X016003Y019596D02*
X016003Y019596D01*
X016003Y019437D02*
X016003Y019437D01*
X016003Y019279D02*
X016003Y019279D01*
X016003Y019120D02*
X016003Y019120D01*
X016244Y019120D02*
X017534Y019120D01*
X017534Y019106D02*
X017809Y018831D01*
X018197Y018831D01*
X018472Y019106D01*
X018472Y019494D01*
X018197Y019769D01*
X017809Y019769D01*
X017534Y019494D01*
X017534Y019106D01*
X017534Y019279D02*
X016403Y019279D01*
X016513Y019437D02*
X017534Y019437D01*
X017635Y019596D02*
X016513Y019596D01*
X016513Y019754D02*
X017794Y019754D01*
X018212Y019754D02*
X019034Y019754D01*
X019034Y019794D02*
X019034Y019406D01*
X019309Y019131D01*
X019697Y019131D01*
X019972Y019406D01*
X019972Y019794D01*
X019697Y020069D01*
X019309Y020069D01*
X019034Y019794D01*
X019152Y019913D02*
X016412Y019913D01*
X016253Y020071D02*
X020253Y020071D01*
X020292Y020110D02*
X019993Y019811D01*
X019993Y019600D01*
X019993Y019389D01*
X020292Y019090D01*
X020503Y019090D01*
X020714Y019090D01*
X021013Y019389D01*
X021013Y019600D01*
X021013Y019811D01*
X020714Y020110D01*
X020503Y020110D01*
X020503Y019600D01*
X021013Y019600D01*
X020503Y019600D01*
X020503Y019600D01*
X020503Y019090D01*
X020503Y019600D01*
X020503Y019600D01*
X020503Y019600D01*
X020503Y020110D01*
X020292Y020110D01*
X020503Y020071D02*
X020503Y020071D01*
X020503Y019913D02*
X020503Y019913D01*
X020503Y019754D02*
X020503Y019754D01*
X020503Y019600D02*
X019993Y019600D01*
X020503Y019600D01*
X020503Y019600D01*
X020503Y019596D02*
X020503Y019596D01*
X020503Y019437D02*
X020503Y019437D01*
X020503Y019279D02*
X020503Y019279D01*
X020503Y019120D02*
X020503Y019120D01*
X020744Y019120D02*
X022160Y019120D01*
X022034Y018962D02*
X018328Y018962D01*
X018472Y019120D02*
X020262Y019120D01*
X020103Y019279D02*
X019845Y019279D01*
X019972Y019437D02*
X019993Y019437D01*
X019993Y019596D02*
X019972Y019596D01*
X019972Y019754D02*
X019993Y019754D01*
X020094Y019913D02*
X019854Y019913D01*
X019034Y019596D02*
X018371Y019596D01*
X018472Y019437D02*
X019034Y019437D01*
X019161Y019279D02*
X018472Y019279D01*
X017678Y018962D02*
X013972Y018962D01*
X013972Y018803D02*
X022034Y018803D01*
X022034Y018645D02*
X013911Y018645D01*
X013752Y018486D02*
X022153Y018486D01*
X022407Y018328D02*
X013701Y018328D01*
X013859Y018169D02*
X022249Y018169D01*
X022090Y018011D02*
X014018Y018011D01*
X014176Y017852D02*
X021932Y017852D01*
X021773Y017694D02*
X014335Y017694D01*
X014493Y017535D02*
X021615Y017535D01*
X021456Y017377D02*
X014652Y017377D01*
X016084Y015792D02*
X021288Y015792D01*
X021130Y015633D02*
X015926Y015633D01*
X015767Y015475D02*
X020971Y015475D01*
X020813Y015316D02*
X015609Y015316D01*
X015450Y015158D02*
X020654Y015158D01*
X021159Y015158D02*
X022285Y015158D01*
X022285Y015316D02*
X021318Y015316D01*
X021476Y015475D02*
X022285Y015475D01*
X022285Y015633D02*
X021635Y015633D01*
X021793Y015792D02*
X022285Y015792D01*
X022285Y015950D02*
X021952Y015950D01*
X022110Y016109D02*
X022285Y016109D01*
X022269Y016267D02*
X022285Y016267D01*
X022642Y016267D02*
X023387Y016267D01*
X023387Y016109D02*
X022642Y016109D01*
X022642Y015950D02*
X023387Y015950D01*
X023387Y015792D02*
X022642Y015792D01*
X022642Y015633D02*
X023387Y015633D01*
X023387Y015475D02*
X022642Y015475D01*
X022642Y015316D02*
X023387Y015316D01*
X023387Y015158D02*
X022642Y015158D01*
X022642Y014999D02*
X022739Y014999D01*
X022285Y014999D02*
X022267Y014999D01*
X021739Y014999D02*
X021267Y014999D01*
X021426Y014841D02*
X021580Y014841D01*
X021534Y014682D02*
X021472Y014682D01*
X021472Y014524D02*
X021534Y014524D01*
X021574Y014365D02*
X021431Y014365D01*
X021273Y014207D02*
X021733Y014207D01*
X021788Y014048D02*
X021276Y014048D01*
X021435Y013890D02*
X021629Y013890D01*
X021534Y013731D02*
X021513Y013731D01*
X021513Y013573D02*
X021534Y013573D01*
X021534Y013414D02*
X021513Y013414D01*
X021380Y013256D02*
X021684Y013256D01*
X021221Y013097D02*
X022285Y013097D01*
X022285Y012939D02*
X020752Y012939D01*
X020752Y013097D02*
X020785Y013097D01*
X020983Y013097D02*
X021023Y013097D01*
X021023Y013256D02*
X020983Y013256D01*
X020983Y013414D02*
X021023Y013414D01*
X021023Y013573D02*
X020983Y013573D01*
X020983Y013731D02*
X021023Y013731D01*
X021023Y013890D02*
X020983Y013890D01*
X020983Y014048D02*
X021023Y014048D01*
X022218Y014048D02*
X022285Y014048D01*
X022273Y014207D02*
X022285Y014207D01*
X022642Y013256D02*
X022684Y013256D01*
X022642Y013097D02*
X023624Y013097D01*
X023782Y012939D02*
X022642Y012939D01*
X022642Y012780D02*
X023820Y012780D01*
X023820Y012622D02*
X022642Y012622D01*
X022642Y012463D02*
X023820Y012463D01*
X023820Y012305D02*
X022642Y012305D01*
X022757Y012218D02*
X022635Y012096D01*
X022569Y011936D01*
X022569Y011764D01*
X022635Y011604D01*
X022757Y011482D01*
X022916Y011416D01*
X023089Y011416D01*
X023249Y011482D01*
X023371Y011604D01*
X023437Y011764D01*
X023437Y011936D01*
X023371Y012096D01*
X023249Y012218D01*
X023089Y012284D01*
X022916Y012284D01*
X022757Y012218D01*
X022685Y012146D02*
X022557Y012146D01*
X022590Y011988D02*
X022416Y011988D01*
X022437Y011829D02*
X022569Y011829D01*
X022607Y011671D02*
X022399Y011671D01*
X022279Y011512D02*
X022727Y011512D01*
X022757Y011218D02*
X022635Y011096D01*
X022569Y010936D01*
X022569Y010764D01*
X022635Y010604D01*
X022757Y010482D01*
X022916Y010416D01*
X023089Y010416D01*
X023249Y010482D01*
X023371Y010604D01*
X023437Y010764D01*
X023437Y010936D01*
X023371Y011096D01*
X023249Y011218D01*
X023089Y011284D01*
X022916Y011284D01*
X022757Y011218D01*
X022734Y011195D02*
X022272Y011195D01*
X022249Y011218D02*
X022089Y011284D01*
X021916Y011284D01*
X021757Y011218D01*
X021635Y011096D01*
X021569Y010936D01*
X021569Y010764D01*
X021635Y010604D01*
X021757Y010482D01*
X021916Y010416D01*
X022089Y010416D01*
X022249Y010482D01*
X022371Y010604D01*
X022437Y010764D01*
X022437Y010936D01*
X022371Y011096D01*
X022249Y011218D01*
X022396Y011037D02*
X022610Y011037D01*
X022569Y010878D02*
X022437Y010878D01*
X022419Y010720D02*
X022587Y010720D01*
X022678Y010561D02*
X022328Y010561D01*
X021678Y010561D02*
X021328Y010561D01*
X021371Y010604D02*
X021437Y010764D01*
X021437Y010936D01*
X021371Y011096D01*
X021249Y011218D01*
X021089Y011284D01*
X020916Y011284D01*
X020757Y011218D01*
X020635Y011096D01*
X020569Y010936D01*
X020569Y010764D01*
X020635Y010604D01*
X020757Y010482D01*
X020916Y010416D01*
X021089Y010416D01*
X021249Y010482D01*
X021371Y010604D01*
X021419Y010720D02*
X021587Y010720D01*
X021569Y010878D02*
X021437Y010878D01*
X021396Y011037D02*
X021610Y011037D01*
X021734Y011195D02*
X021272Y011195D01*
X021279Y011512D02*
X021727Y011512D01*
X021607Y011671D02*
X021399Y011671D01*
X021437Y011829D02*
X021569Y011829D01*
X021590Y011988D02*
X021416Y011988D01*
X021321Y012146D02*
X021685Y012146D01*
X022211Y012305D02*
X020787Y012305D01*
X020752Y012463D02*
X022285Y012463D01*
X022285Y012622D02*
X020752Y012622D01*
X020752Y012780D02*
X022285Y012780D01*
X023322Y013256D02*
X023465Y013256D01*
X023626Y013890D02*
X023629Y013890D01*
X023626Y014048D02*
X023788Y014048D01*
X023733Y014207D02*
X023626Y014207D01*
X023574Y014365D02*
X023490Y014365D01*
X023472Y014524D02*
X023534Y014524D01*
X023534Y014682D02*
X023472Y014682D01*
X023426Y014841D02*
X023534Y014841D01*
X023387Y014999D02*
X023267Y014999D01*
X023744Y015158D02*
X024122Y015158D01*
X024267Y014999D02*
X024281Y014999D01*
X024426Y014841D02*
X024439Y014841D01*
X024472Y014682D02*
X024598Y014682D01*
X024472Y014524D02*
X024756Y014524D01*
X024915Y014365D02*
X024431Y014365D01*
X024273Y014207D02*
X025073Y014207D01*
X025232Y014048D02*
X024218Y014048D01*
X024377Y013890D02*
X025390Y013890D01*
X025549Y013731D02*
X024472Y013731D01*
X024472Y013573D02*
X025707Y013573D01*
X025707Y013414D02*
X024472Y013414D01*
X024600Y013256D02*
X025600Y013256D01*
X025571Y013097D02*
X024610Y013097D01*
X024610Y012939D02*
X025603Y012939D01*
X025713Y012780D02*
X024610Y012780D01*
X024610Y012622D02*
X035712Y012622D01*
X035793Y012780D02*
X029434Y012780D01*
X029434Y012750D02*
X029434Y013450D01*
X029353Y013532D01*
X028653Y013532D01*
X028571Y013450D01*
X028571Y012750D01*
X028653Y012668D01*
X029353Y012668D01*
X029434Y012750D01*
X029434Y012939D02*
X035874Y012939D01*
X035955Y013097D02*
X029434Y013097D01*
X029434Y013256D02*
X036030Y013256D01*
X036082Y013414D02*
X029434Y013414D01*
X029250Y013696D02*
X029311Y013740D01*
X029363Y013792D01*
X029407Y013852D01*
X029441Y013919D01*
X029464Y013989D01*
X029475Y014063D01*
X029475Y014082D01*
X029020Y014082D01*
X029020Y013628D01*
X029040Y013628D01*
X029113Y013639D01*
X029184Y013662D01*
X029250Y013696D01*
X029299Y013731D02*
X036185Y013731D01*
X036133Y013573D02*
X026146Y013573D01*
X026240Y013731D02*
X028707Y013731D01*
X028695Y013740D02*
X028755Y013696D01*
X028821Y013662D01*
X028892Y013639D01*
X028966Y013628D01*
X028985Y013627D01*
X028985Y014082D01*
X029020Y014082D01*
X029020Y014118D01*
X028985Y014118D01*
X028985Y014572D01*
X028966Y014572D01*
X028892Y014561D01*
X028821Y014538D01*
X028755Y014504D01*
X028695Y014460D01*
X028642Y014408D01*
X028599Y014348D01*
X028565Y014281D01*
X028542Y014211D01*
X028530Y014137D01*
X028530Y014118D01*
X028985Y014118D01*
X028985Y014082D01*
X028530Y014082D01*
X028530Y014063D01*
X028542Y013989D01*
X028565Y013919D01*
X028599Y013852D01*
X028642Y013792D01*
X028695Y013740D01*
X028580Y013890D02*
X026383Y013890D01*
X026434Y014048D02*
X028533Y014048D01*
X028541Y014207D02*
X026426Y014207D01*
X026348Y014365D02*
X028611Y014365D01*
X028793Y014524D02*
X026234Y014524D01*
X026392Y014682D02*
X028884Y014682D01*
X028917Y014668D02*
X029089Y014668D01*
X029247Y014734D01*
X029369Y014856D01*
X029434Y015014D01*
X029434Y015186D01*
X029369Y015344D01*
X029247Y015466D01*
X029089Y015532D01*
X028917Y015532D01*
X028758Y015466D01*
X028637Y015344D01*
X028571Y015186D01*
X028571Y015014D01*
X028637Y014856D01*
X028758Y014734D01*
X028917Y014668D01*
X029020Y014572D02*
X029040Y014572D01*
X029113Y014561D01*
X029184Y014538D01*
X029250Y014504D01*
X029311Y014460D01*
X029363Y014408D01*
X029407Y014348D01*
X029441Y014281D01*
X029464Y014211D01*
X029475Y014137D01*
X029475Y014118D01*
X029020Y014118D01*
X029020Y014572D01*
X029020Y014524D02*
X028985Y014524D01*
X028985Y014365D02*
X029020Y014365D01*
X029020Y014207D02*
X028985Y014207D01*
X028985Y014048D02*
X029020Y014048D01*
X029020Y013890D02*
X028985Y013890D01*
X028985Y013731D02*
X029020Y013731D01*
X029426Y013890D02*
X036236Y013890D01*
X036273Y014048D02*
X029473Y014048D01*
X029464Y014207D02*
X036298Y014207D01*
X036323Y014365D02*
X029394Y014365D01*
X029212Y014524D02*
X036348Y014524D01*
X036373Y014682D02*
X029121Y014682D01*
X029354Y014841D02*
X036384Y014841D01*
X036390Y014999D02*
X029428Y014999D01*
X029434Y015158D02*
X036394Y015158D01*
X036394Y015316D02*
X029380Y015316D01*
X029226Y015475D02*
X036394Y015475D01*
X036394Y015633D02*
X027343Y015633D01*
X027185Y015475D02*
X028779Y015475D01*
X028625Y015316D02*
X027026Y015316D01*
X026868Y015158D02*
X028571Y015158D01*
X028578Y014999D02*
X026709Y014999D01*
X026551Y014841D02*
X028652Y014841D01*
X028917Y015668D02*
X029089Y015668D01*
X029247Y015734D01*
X029369Y015856D01*
X029434Y016014D01*
X029434Y016186D01*
X029369Y016344D01*
X029247Y016466D01*
X029089Y016532D01*
X028917Y016532D01*
X028758Y016466D01*
X028637Y016344D01*
X028571Y016186D01*
X028571Y016014D01*
X028637Y015856D01*
X028758Y015734D01*
X028917Y015668D01*
X028701Y015792D02*
X027502Y015792D01*
X027660Y015950D02*
X028598Y015950D01*
X028571Y016109D02*
X027819Y016109D01*
X027977Y016267D02*
X028605Y016267D01*
X028718Y016426D02*
X028136Y016426D01*
X028294Y016584D02*
X036394Y016584D01*
X036394Y016426D02*
X029288Y016426D01*
X029401Y016267D02*
X036394Y016267D01*
X036394Y016109D02*
X029434Y016109D01*
X029408Y015950D02*
X036394Y015950D01*
X036394Y015792D02*
X029305Y015792D01*
X028453Y016743D02*
X036394Y016743D01*
X036394Y016901D02*
X028611Y016901D01*
X028770Y017060D02*
X036394Y017060D01*
X036394Y017218D02*
X028928Y017218D01*
X029087Y017377D02*
X036394Y017377D01*
X036394Y017535D02*
X029245Y017535D01*
X029404Y017694D02*
X036394Y017694D01*
X036394Y017852D02*
X029562Y017852D01*
X029721Y018011D02*
X036394Y018011D01*
X036394Y018169D02*
X029879Y018169D01*
X030038Y018328D02*
X036394Y018328D01*
X036394Y018486D02*
X030196Y018486D01*
X030355Y018645D02*
X036394Y018645D01*
X036394Y018803D02*
X030513Y018803D01*
X030672Y018962D02*
X036394Y018962D01*
X036394Y019120D02*
X030830Y019120D01*
X030989Y019279D02*
X036394Y019279D01*
X036394Y019437D02*
X031147Y019437D01*
X031306Y019596D02*
X036394Y019596D01*
X036394Y019754D02*
X031464Y019754D01*
X031623Y019913D02*
X036394Y019913D01*
X036394Y020071D02*
X031781Y020071D01*
X031940Y020230D02*
X036394Y020230D01*
X036394Y020388D02*
X032098Y020388D01*
X032257Y020547D02*
X034152Y020547D01*
X034116Y020582D02*
X034223Y020475D01*
X034362Y020418D01*
X034513Y020418D01*
X034653Y020475D01*
X034759Y020582D01*
X034817Y020721D01*
X034817Y020872D01*
X034759Y021012D01*
X034653Y021118D01*
X034513Y021176D01*
X034362Y021176D01*
X034223Y021118D01*
X034116Y021012D01*
X034059Y020872D01*
X034059Y020721D01*
X034116Y020582D01*
X034065Y020705D02*
X032415Y020705D01*
X032574Y020864D02*
X034059Y020864D01*
X034127Y021022D02*
X032732Y021022D01*
X032891Y021181D02*
X034910Y021181D01*
X034901Y021194D02*
X034943Y021135D01*
X034995Y021084D01*
X035053Y021041D01*
X035118Y021008D01*
X035186Y020986D01*
X035258Y020975D01*
X035294Y020975D01*
X035294Y021435D01*
X035294Y021895D01*
X035258Y021895D01*
X035186Y021883D01*
X035118Y021861D01*
X035053Y021828D01*
X034995Y021786D01*
X034943Y021734D01*
X034901Y021676D01*
X034868Y021611D01*
X034845Y021542D01*
X034834Y021471D01*
X034834Y021435D01*
X035294Y021435D01*
X035294Y021435D01*
X035294Y021435D01*
X035294Y021895D01*
X035330Y021895D01*
X035402Y021883D01*
X035471Y021861D01*
X035535Y021828D01*
X035594Y021786D01*
X035645Y021734D01*
X035688Y021676D01*
X035720Y021611D01*
X035743Y021542D01*
X035754Y021471D01*
X035754Y021435D01*
X035294Y021435D01*
X034834Y021435D01*
X034834Y021398D01*
X034845Y021327D01*
X034868Y021258D01*
X034901Y021194D01*
X034844Y021339D02*
X033049Y021339D01*
X033208Y021498D02*
X034838Y021498D01*
X034891Y021656D02*
X034608Y021656D01*
X034649Y021697D02*
X034713Y021851D01*
X034713Y022018D01*
X034649Y022172D01*
X034532Y022290D01*
X034378Y022354D01*
X034211Y022354D01*
X034057Y022290D01*
X034000Y022290D01*
X034057Y022290D02*
X033939Y022172D01*
X033875Y022018D01*
X033875Y021851D01*
X033939Y021697D01*
X034057Y021579D01*
X034211Y021516D01*
X034378Y021516D01*
X034532Y021579D01*
X034649Y021697D01*
X034698Y021815D02*
X035034Y021815D01*
X035294Y021815D02*
X035294Y021815D01*
X035294Y021656D02*
X035294Y021656D01*
X035294Y021498D02*
X035294Y021498D01*
X035294Y021435D02*
X035294Y021435D01*
X035294Y021435D01*
X035754Y021435D01*
X035754Y021398D01*
X035743Y021327D01*
X035720Y021258D01*
X035688Y021194D01*
X035645Y021135D01*
X035594Y021084D01*
X035535Y021041D01*
X035471Y021008D01*
X035402Y020986D01*
X035330Y020975D01*
X035294Y020975D01*
X035294Y021435D01*
X035294Y021339D02*
X035294Y021339D01*
X035294Y021181D02*
X035294Y021181D01*
X035294Y021022D02*
X035294Y021022D01*
X035091Y021022D02*
X034749Y021022D01*
X034817Y020864D02*
X036394Y020864D01*
X036394Y021022D02*
X035498Y021022D01*
X035678Y021181D02*
X036394Y021181D01*
X036394Y021339D02*
X035745Y021339D01*
X035750Y021498D02*
X036394Y021498D01*
X036394Y021656D02*
X035698Y021656D01*
X035554Y021815D02*
X036394Y021815D01*
X036394Y021973D02*
X034713Y021973D01*
X034666Y022132D02*
X035005Y022132D01*
X034900Y022290D02*
X034531Y022290D01*
X034559Y022607D02*
X034912Y022607D01*
X034875Y022449D02*
X034159Y022449D01*
X033922Y022132D02*
X033842Y022132D01*
X033875Y021973D02*
X033683Y021973D01*
X033525Y021815D02*
X033890Y021815D01*
X033980Y021656D02*
X033366Y021656D01*
X032826Y022290D02*
X031156Y022290D01*
X031314Y022132D02*
X032668Y022132D01*
X032509Y021973D02*
X031473Y021973D01*
X031631Y021815D02*
X032351Y021815D01*
X032192Y021656D02*
X031790Y021656D01*
X031948Y021498D02*
X032034Y021498D01*
X032985Y022449D02*
X030997Y022449D01*
X030839Y022607D02*
X033143Y022607D01*
X033302Y022766D02*
X030680Y022766D01*
X030522Y022924D02*
X033460Y022924D01*
X033619Y023083D02*
X030363Y023083D01*
X030205Y023241D02*
X033777Y023241D01*
X033936Y023400D02*
X030046Y023400D01*
X029888Y023558D02*
X034094Y023558D01*
X033931Y023717D02*
X029729Y023717D01*
X029571Y023875D02*
X033875Y023875D01*
X033882Y024034D02*
X029412Y024034D01*
X029254Y024192D02*
X033959Y024192D01*
X034203Y024351D02*
X029095Y024351D01*
X028937Y024509D02*
X034116Y024509D01*
X034118Y024508D02*
X034186Y024486D01*
X034258Y024475D01*
X034294Y024475D01*
X034294Y024935D01*
X034294Y025395D01*
X034258Y025395D01*
X034186Y025383D01*
X034118Y025361D01*
X034053Y025328D01*
X033995Y025286D01*
X033943Y025234D01*
X033901Y025176D01*
X033868Y025111D01*
X033845Y025042D01*
X033834Y024971D01*
X033834Y024935D01*
X034294Y024935D01*
X034294Y024935D01*
X034294Y024935D01*
X034294Y025395D01*
X034330Y025395D01*
X034402Y025383D01*
X034471Y025361D01*
X034535Y025328D01*
X034594Y025286D01*
X034645Y025234D01*
X034688Y025176D01*
X034720Y025111D01*
X034743Y025042D01*
X034754Y024971D01*
X034754Y024935D01*
X034294Y024935D01*
X033834Y024935D01*
X033834Y024898D01*
X033845Y024827D01*
X033868Y024758D01*
X033901Y024694D01*
X033943Y024635D01*
X033995Y024584D01*
X034053Y024541D01*
X034118Y024508D01*
X034294Y024509D02*
X034294Y024509D01*
X034294Y024475D02*
X034330Y024475D01*
X034402Y024486D01*
X034471Y024508D01*
X034535Y024541D01*
X034594Y024584D01*
X034645Y024635D01*
X034688Y024694D01*
X034720Y024758D01*
X034743Y024827D01*
X034754Y024898D01*
X034754Y024935D01*
X034294Y024935D01*
X034294Y024935D01*
X034294Y024935D01*
X034294Y024475D01*
X034385Y024351D02*
X034875Y024351D01*
X034875Y024509D02*
X034472Y024509D01*
X034294Y024668D02*
X034294Y024668D01*
X034294Y024826D02*
X034294Y024826D01*
X034294Y024985D02*
X034294Y024985D01*
X034294Y025143D02*
X034294Y025143D01*
X034294Y025302D02*
X034294Y025302D01*
X034017Y025302D02*
X028144Y025302D01*
X027986Y025460D02*
X035631Y025460D01*
X035631Y025302D02*
X034572Y025302D01*
X034704Y025143D02*
X035631Y025143D01*
X035560Y024985D02*
X034752Y024985D01*
X034743Y024826D02*
X035144Y024826D01*
X034937Y024668D02*
X034669Y024668D01*
X034629Y024192D02*
X034944Y024192D01*
X035167Y024034D02*
X034707Y024034D01*
X034713Y023875D02*
X036394Y023875D01*
X036394Y023717D02*
X035605Y023717D01*
X035649Y023672D02*
X035532Y023790D01*
X035378Y023854D01*
X035211Y023854D01*
X035057Y023790D01*
X034939Y023672D01*
X034875Y023518D01*
X034875Y023351D01*
X034939Y023197D01*
X035057Y023079D01*
X035211Y023016D01*
X035378Y023016D01*
X035532Y023079D01*
X035649Y023197D01*
X035713Y023351D01*
X035713Y023518D01*
X035649Y023672D01*
X035697Y023558D02*
X036394Y023558D01*
X036394Y023400D02*
X035713Y023400D01*
X035668Y023241D02*
X036394Y023241D01*
X036394Y023083D02*
X035535Y023083D01*
X035556Y022766D02*
X036394Y022766D01*
X036394Y022924D02*
X035128Y022924D01*
X035054Y023083D02*
X034969Y023083D01*
X034921Y023241D02*
X034811Y023241D01*
X034875Y023400D02*
X034652Y023400D01*
X034494Y023558D02*
X034892Y023558D01*
X034983Y023717D02*
X034657Y023717D01*
X035421Y024034D02*
X036394Y024034D01*
X036394Y024192D02*
X035644Y024192D01*
X035713Y024351D02*
X036394Y024351D01*
X036394Y024509D02*
X035713Y024509D01*
X035748Y024668D02*
X036394Y024668D01*
X036394Y024826D02*
X035906Y024826D01*
X035988Y024985D02*
X036394Y024985D01*
X036394Y025143D02*
X035988Y025143D01*
X035988Y025302D02*
X036394Y025302D01*
X036394Y025460D02*
X035988Y025460D01*
X035988Y025619D02*
X036394Y025619D01*
X036394Y025777D02*
X035988Y025777D01*
X035988Y025936D02*
X036394Y025936D01*
X036394Y026094D02*
X035988Y026094D01*
X035988Y026253D02*
X036394Y026253D01*
X036394Y026411D02*
X035988Y026411D01*
X035988Y026570D02*
X036394Y026570D01*
X036389Y026728D02*
X035988Y026728D01*
X035988Y026887D02*
X036383Y026887D01*
X036369Y027045D02*
X035988Y027045D01*
X035927Y027204D02*
X036344Y027204D01*
X036319Y027362D02*
X035769Y027362D01*
X035610Y027521D02*
X036294Y027521D01*
X036269Y027679D02*
X035496Y027679D01*
X035719Y027838D02*
X036228Y027838D01*
X036176Y027996D02*
X035810Y027996D01*
X035848Y028155D02*
X036125Y028155D01*
X036073Y028313D02*
X035847Y028313D01*
X035781Y028472D02*
X036022Y028472D01*
X035941Y028630D02*
X035648Y028630D01*
X035631Y026253D02*
X035483Y026253D01*
X035631Y026094D02*
X027352Y026094D01*
X027510Y025936D02*
X035631Y025936D01*
X035631Y025777D02*
X027669Y025777D01*
X027827Y025619D02*
X035631Y025619D01*
X033884Y025143D02*
X028303Y025143D01*
X028461Y024985D02*
X033836Y024985D01*
X033846Y024826D02*
X028620Y024826D01*
X028778Y024668D02*
X033920Y024668D01*
X034678Y022766D02*
X034782Y022766D01*
X035676Y022607D02*
X036394Y022607D01*
X036394Y022449D02*
X035713Y022449D01*
X035688Y022290D02*
X036394Y022290D01*
X036394Y022132D02*
X035584Y022132D01*
X034810Y020705D02*
X036394Y020705D01*
X036394Y020547D02*
X034724Y020547D01*
X028736Y022924D02*
X028575Y022924D01*
X027153Y021656D02*
X016280Y021656D01*
X016121Y021498D02*
X026994Y021498D01*
X026836Y021339D02*
X015963Y021339D01*
X015804Y021181D02*
X026677Y021181D01*
X026519Y021022D02*
X025442Y021022D01*
X025477Y020864D02*
X026360Y020864D01*
X026202Y020705D02*
X025401Y020705D01*
X025131Y020547D02*
X026043Y020547D01*
X025885Y020388D02*
X024972Y020388D01*
X024814Y020230D02*
X025726Y020230D01*
X025568Y020071D02*
X024655Y020071D01*
X024497Y019913D02*
X025409Y019913D01*
X025251Y019754D02*
X024338Y019754D01*
X024180Y019596D02*
X025092Y019596D01*
X024934Y019437D02*
X024021Y019437D01*
X023863Y019279D02*
X024775Y019279D01*
X024617Y019120D02*
X023704Y019120D01*
X023546Y018962D02*
X024458Y018962D01*
X024300Y018803D02*
X023387Y018803D01*
X023229Y018645D02*
X024141Y018645D01*
X023983Y018486D02*
X023070Y018486D01*
X022912Y018328D02*
X023824Y018328D01*
X023666Y018169D02*
X022753Y018169D01*
X022595Y018011D02*
X023507Y018011D01*
X023349Y017852D02*
X022436Y017852D01*
X022278Y017694D02*
X023190Y017694D01*
X023032Y017535D02*
X022119Y017535D01*
X021961Y017377D02*
X022873Y017377D01*
X022715Y017218D02*
X021802Y017218D01*
X021644Y017060D02*
X022556Y017060D01*
X022398Y016901D02*
X021485Y016901D01*
X021327Y016743D02*
X022239Y016743D01*
X022081Y016584D02*
X021168Y016584D01*
X020981Y016901D02*
X019929Y016901D01*
X019737Y017060D02*
X021139Y017060D01*
X021298Y017218D02*
X019141Y017218D01*
X018953Y016901D02*
X017987Y016901D01*
X018058Y016743D02*
X019005Y016743D01*
X018989Y016584D02*
X018058Y016584D01*
X018058Y016426D02*
X019019Y016426D01*
X019109Y016267D02*
X017955Y016267D01*
X017796Y016109D02*
X019346Y016109D01*
X019660Y016109D02*
X021605Y016109D01*
X021447Y015950D02*
X016243Y015950D01*
X016401Y016109D02*
X017209Y016109D01*
X017051Y016267D02*
X016560Y016267D01*
X016718Y016426D02*
X016948Y016426D01*
X016946Y016584D02*
X016948Y016584D01*
X017503Y016584D02*
X017503Y016584D01*
X017503Y016426D02*
X017503Y016426D01*
X017503Y016267D02*
X017503Y016267D01*
X017503Y016109D02*
X017503Y016109D01*
X018624Y014524D02*
X015543Y014524D01*
X015701Y014365D02*
X018702Y014365D01*
X018595Y013414D02*
X008362Y013414D01*
X008362Y013256D02*
X018753Y013256D01*
X018916Y012284D02*
X018757Y012218D01*
X018635Y012096D01*
X018569Y011936D01*
X018569Y011764D01*
X018635Y011604D01*
X018757Y011482D01*
X018916Y011416D01*
X019089Y011416D01*
X019249Y011482D01*
X019371Y011604D01*
X019437Y011764D01*
X019437Y011936D01*
X019371Y012096D01*
X019249Y012218D01*
X019089Y012284D01*
X018916Y012284D01*
X018685Y012146D02*
X018321Y012146D01*
X018371Y012096D02*
X018249Y012218D01*
X018089Y012284D01*
X017916Y012284D01*
X017757Y012218D01*
X017635Y012096D01*
X017569Y011936D01*
X017569Y011764D01*
X017635Y011604D01*
X017757Y011482D01*
X017916Y011416D01*
X018089Y011416D01*
X018249Y011482D01*
X018371Y011604D01*
X018437Y011764D01*
X018437Y011936D01*
X018371Y012096D01*
X018416Y011988D02*
X018590Y011988D01*
X018569Y011829D02*
X018437Y011829D01*
X018399Y011671D02*
X018607Y011671D01*
X018727Y011512D02*
X018279Y011512D01*
X018249Y011218D02*
X018089Y011284D01*
X017916Y011284D01*
X017757Y011218D01*
X017635Y011096D01*
X017569Y010936D01*
X017569Y010764D01*
X017635Y010604D01*
X017757Y010482D01*
X017916Y010416D01*
X018089Y010416D01*
X018249Y010482D01*
X018371Y010604D01*
X018437Y010764D01*
X018437Y010936D01*
X018371Y011096D01*
X018249Y011218D01*
X018272Y011195D02*
X018734Y011195D01*
X018757Y011218D02*
X018635Y011096D01*
X018569Y010936D01*
X018569Y010764D01*
X018635Y010604D01*
X018757Y010482D01*
X018916Y010416D01*
X019089Y010416D01*
X019249Y010482D01*
X019371Y010604D01*
X019437Y010764D01*
X019437Y010936D01*
X019371Y011096D01*
X019249Y011218D01*
X019089Y011284D01*
X018916Y011284D01*
X018757Y011218D01*
X018610Y011037D02*
X018396Y011037D01*
X018437Y010878D02*
X018569Y010878D01*
X018587Y010720D02*
X018419Y010720D01*
X018328Y010561D02*
X018678Y010561D01*
X019328Y010561D02*
X019678Y010561D01*
X019635Y010604D02*
X019757Y010482D01*
X019916Y010416D01*
X020089Y010416D01*
X020249Y010482D01*
X020371Y010604D01*
X020437Y010764D01*
X020437Y010936D01*
X020371Y011096D01*
X020249Y011218D01*
X020089Y011284D01*
X019916Y011284D01*
X019757Y011218D01*
X019635Y011096D01*
X019569Y010936D01*
X019569Y010764D01*
X019635Y010604D01*
X019587Y010720D02*
X019419Y010720D01*
X019437Y010878D02*
X019569Y010878D01*
X019610Y011037D02*
X019396Y011037D01*
X019272Y011195D02*
X019734Y011195D01*
X019916Y011416D02*
X020089Y011416D01*
X020249Y011482D01*
X020371Y011604D01*
X020437Y011764D01*
X020437Y011936D01*
X020371Y012096D01*
X020249Y012218D01*
X020089Y012284D01*
X019916Y012284D01*
X019757Y012218D01*
X019635Y012096D01*
X019569Y011936D01*
X019569Y011764D01*
X019635Y011604D01*
X019757Y011482D01*
X019916Y011416D01*
X019727Y011512D02*
X019279Y011512D01*
X019399Y011671D02*
X019607Y011671D01*
X019569Y011829D02*
X019437Y011829D01*
X019416Y011988D02*
X019590Y011988D01*
X019685Y012146D02*
X019321Y012146D01*
X020321Y012146D02*
X020441Y012146D01*
X020416Y011988D02*
X020590Y011988D01*
X020569Y011829D02*
X020437Y011829D01*
X020399Y011671D02*
X020607Y011671D01*
X020727Y011512D02*
X020279Y011512D01*
X020272Y011195D02*
X020734Y011195D01*
X020610Y011037D02*
X020396Y011037D01*
X020437Y010878D02*
X020569Y010878D01*
X020587Y010720D02*
X020419Y010720D01*
X020328Y010561D02*
X020678Y010561D01*
X020395Y012305D02*
X010142Y012305D01*
X010114Y012314D02*
X010040Y012325D01*
X010021Y012325D01*
X010021Y011868D01*
X010478Y011868D01*
X010478Y011887D01*
X010466Y011961D01*
X010443Y012032D01*
X010409Y012099D01*
X010365Y012160D01*
X010312Y012213D01*
X010252Y012256D01*
X010185Y012290D01*
X010114Y012314D01*
X010021Y012305D02*
X009984Y012305D01*
X009984Y012325D02*
X009965Y012325D01*
X009892Y012314D01*
X009820Y012290D01*
X009754Y012256D01*
X009693Y012213D01*
X009640Y012160D01*
X009596Y012099D01*
X009562Y012032D01*
X009539Y011961D01*
X009528Y011887D01*
X009528Y011868D01*
X009984Y011868D01*
X009984Y011832D01*
X009528Y011832D01*
X009528Y011813D01*
X009539Y011739D01*
X009562Y011668D01*
X009596Y011601D01*
X009640Y011540D01*
X009693Y011487D01*
X009754Y011444D01*
X009820Y011410D01*
X009892Y011386D01*
X009965Y011375D01*
X009984Y011375D01*
X009984Y011832D01*
X010021Y011832D01*
X010021Y011868D01*
X009984Y011868D01*
X009984Y012325D01*
X009864Y012305D02*
X008362Y012305D01*
X008362Y012463D02*
X020395Y012463D01*
X020395Y012622D02*
X008362Y012622D01*
X008362Y012780D02*
X020395Y012780D01*
X020395Y012939D02*
X008362Y012939D01*
X008362Y013097D02*
X020395Y013097D01*
X017685Y012146D02*
X017321Y012146D01*
X017371Y012096D02*
X017249Y012218D01*
X017089Y012284D01*
X016916Y012284D01*
X016757Y012218D01*
X016635Y012096D01*
X016569Y011936D01*
X016569Y011764D01*
X016635Y011604D01*
X016757Y011482D01*
X016916Y011416D01*
X017089Y011416D01*
X017249Y011482D01*
X017371Y011604D01*
X017437Y011764D01*
X017437Y011936D01*
X017371Y012096D01*
X017416Y011988D02*
X017590Y011988D01*
X017569Y011829D02*
X017437Y011829D01*
X017399Y011671D02*
X017607Y011671D01*
X017727Y011512D02*
X017279Y011512D01*
X017249Y011218D02*
X017089Y011284D01*
X016916Y011284D01*
X016757Y011218D01*
X016635Y011096D01*
X016569Y010936D01*
X016569Y010764D01*
X016635Y010604D01*
X016757Y010482D01*
X016916Y010416D01*
X017089Y010416D01*
X017249Y010482D01*
X017371Y010604D01*
X017437Y010764D01*
X017437Y010936D01*
X017371Y011096D01*
X017249Y011218D01*
X017272Y011195D02*
X017734Y011195D01*
X017610Y011037D02*
X017396Y011037D01*
X017437Y010878D02*
X017569Y010878D01*
X017587Y010720D02*
X017419Y010720D01*
X017328Y010561D02*
X017678Y010561D01*
X016678Y010561D02*
X016328Y010561D01*
X016371Y010604D02*
X016249Y010482D01*
X016089Y010416D01*
X015916Y010416D01*
X015757Y010482D01*
X015635Y010604D01*
X015569Y010764D01*
X015569Y010936D01*
X015635Y011096D01*
X015757Y011218D01*
X015916Y011284D01*
X016089Y011284D01*
X016249Y011218D01*
X016371Y011096D01*
X016437Y010936D01*
X016437Y010764D01*
X016371Y010604D01*
X016419Y010720D02*
X016587Y010720D01*
X016569Y010878D02*
X016437Y010878D01*
X016396Y011037D02*
X016610Y011037D01*
X016734Y011195D02*
X016272Y011195D01*
X016089Y011416D02*
X016249Y011482D01*
X016371Y011604D01*
X016437Y011764D01*
X016437Y011936D01*
X016371Y012096D01*
X016249Y012218D01*
X016089Y012284D01*
X015916Y012284D01*
X015757Y012218D01*
X015635Y012096D01*
X015569Y011936D01*
X015569Y011764D01*
X015635Y011604D01*
X015757Y011482D01*
X015916Y011416D01*
X016089Y011416D01*
X016279Y011512D02*
X016727Y011512D01*
X016607Y011671D02*
X016399Y011671D01*
X016437Y011829D02*
X016569Y011829D01*
X016590Y011988D02*
X016416Y011988D01*
X016321Y012146D02*
X016685Y012146D01*
X015685Y012146D02*
X015321Y012146D01*
X015371Y012096D02*
X015249Y012218D01*
X015089Y012284D01*
X014916Y012284D01*
X014757Y012218D01*
X014635Y012096D01*
X014569Y011936D01*
X014569Y011764D01*
X014635Y011604D01*
X014757Y011482D01*
X014916Y011416D01*
X015089Y011416D01*
X015249Y011482D01*
X015371Y011604D01*
X015437Y011764D01*
X015437Y011936D01*
X015371Y012096D01*
X015416Y011988D02*
X015590Y011988D01*
X015569Y011829D02*
X015437Y011829D01*
X015399Y011671D02*
X015607Y011671D01*
X015727Y011512D02*
X015279Y011512D01*
X015249Y011218D02*
X015089Y011284D01*
X014916Y011284D01*
X014757Y011218D01*
X014635Y011096D01*
X014569Y010936D01*
X014569Y010764D01*
X014635Y010604D01*
X014757Y010482D01*
X014916Y010416D01*
X015089Y010416D01*
X015249Y010482D01*
X015371Y010604D01*
X015437Y010764D01*
X015437Y010936D01*
X015371Y011096D01*
X015249Y011218D01*
X015272Y011195D02*
X015734Y011195D01*
X015610Y011037D02*
X015396Y011037D01*
X015437Y010878D02*
X015569Y010878D01*
X015587Y010720D02*
X015419Y010720D01*
X015328Y010561D02*
X015678Y010561D01*
X014734Y011195D02*
X014272Y011195D01*
X014249Y011218D02*
X014371Y011096D01*
X014437Y010936D01*
X014437Y010764D01*
X014371Y010604D01*
X014249Y010482D01*
X014089Y010416D01*
X013916Y010416D01*
X013757Y010482D01*
X013635Y010604D01*
X013569Y010764D01*
X013569Y010936D01*
X013635Y011096D01*
X013757Y011218D01*
X013916Y011284D01*
X014089Y011284D01*
X014249Y011218D01*
X014396Y011037D02*
X014610Y011037D01*
X014569Y010878D02*
X014437Y010878D01*
X014419Y010720D02*
X014587Y010720D01*
X014678Y010561D02*
X014328Y010561D01*
X013678Y010561D02*
X013328Y010561D01*
X013371Y010604D02*
X013437Y010764D01*
X013437Y010936D01*
X013371Y011096D01*
X013249Y011218D01*
X013089Y011284D01*
X012916Y011284D01*
X012757Y011218D01*
X012635Y011096D01*
X012569Y010936D01*
X012569Y010764D01*
X012635Y010604D01*
X012757Y010482D01*
X012916Y010416D01*
X013089Y010416D01*
X013249Y010482D01*
X013371Y010604D01*
X013419Y010720D02*
X013587Y010720D01*
X013569Y010878D02*
X013437Y010878D01*
X013396Y011037D02*
X013610Y011037D01*
X013734Y011195D02*
X013272Y011195D01*
X013089Y011416D02*
X013249Y011482D01*
X013371Y011604D01*
X013437Y011764D01*
X013437Y011936D01*
X013371Y012096D01*
X013249Y012218D01*
X013089Y012284D01*
X012916Y012284D01*
X012757Y012218D01*
X012635Y012096D01*
X012569Y011936D01*
X012569Y011764D01*
X012635Y011604D01*
X012757Y011482D01*
X012916Y011416D01*
X013089Y011416D01*
X013279Y011512D02*
X013727Y011512D01*
X013757Y011482D02*
X013916Y011416D01*
X014089Y011416D01*
X014249Y011482D01*
X014371Y011604D01*
X014437Y011764D01*
X014437Y011936D01*
X014371Y012096D01*
X014249Y012218D01*
X014089Y012284D01*
X013916Y012284D01*
X013757Y012218D01*
X013635Y012096D01*
X013569Y011936D01*
X013569Y011764D01*
X013635Y011604D01*
X013757Y011482D01*
X013607Y011671D02*
X013399Y011671D01*
X013437Y011829D02*
X013569Y011829D01*
X013590Y011988D02*
X013416Y011988D01*
X013321Y012146D02*
X013685Y012146D01*
X014321Y012146D02*
X014685Y012146D01*
X014590Y011988D02*
X014416Y011988D01*
X014437Y011829D02*
X014569Y011829D01*
X014607Y011671D02*
X014399Y011671D01*
X014279Y011512D02*
X014727Y011512D01*
X012727Y011512D02*
X012279Y011512D01*
X012249Y011482D02*
X012371Y011604D01*
X012437Y011764D01*
X012437Y011936D01*
X012371Y012096D01*
X012249Y012218D01*
X012089Y012284D01*
X011916Y012284D01*
X011757Y012218D01*
X011635Y012096D01*
X011569Y011936D01*
X011569Y011764D01*
X011635Y011604D01*
X011757Y011482D01*
X011916Y011416D01*
X012089Y011416D01*
X012249Y011482D01*
X012399Y011671D02*
X012607Y011671D01*
X012569Y011829D02*
X012437Y011829D01*
X012416Y011988D02*
X012590Y011988D01*
X012685Y012146D02*
X012321Y012146D01*
X011685Y012146D02*
X011321Y012146D01*
X011371Y012096D02*
X011249Y012218D01*
X011089Y012284D01*
X010916Y012284D01*
X010757Y012218D01*
X010635Y012096D01*
X010569Y011936D01*
X010569Y011764D01*
X010635Y011604D01*
X010757Y011482D01*
X010916Y011416D01*
X011089Y011416D01*
X011249Y011482D01*
X011371Y011604D01*
X011437Y011764D01*
X011437Y011936D01*
X011371Y012096D01*
X011416Y011988D02*
X011590Y011988D01*
X011569Y011829D02*
X011437Y011829D01*
X011399Y011671D02*
X011607Y011671D01*
X011727Y011512D02*
X011279Y011512D01*
X011249Y011218D02*
X011089Y011284D01*
X010916Y011284D01*
X010757Y011218D01*
X010635Y011096D01*
X010569Y010936D01*
X010569Y010764D01*
X010635Y010604D01*
X010757Y010482D01*
X010916Y010416D01*
X011089Y010416D01*
X011249Y010482D01*
X011371Y010604D01*
X011437Y010764D01*
X011437Y010936D01*
X011371Y011096D01*
X011249Y011218D01*
X011272Y011195D02*
X011734Y011195D01*
X011757Y011218D02*
X011635Y011096D01*
X011569Y010936D01*
X011569Y010764D01*
X011635Y010604D01*
X011757Y010482D01*
X011916Y010416D01*
X012089Y010416D01*
X012249Y010482D01*
X012371Y010604D01*
X012437Y010764D01*
X012437Y010936D01*
X012371Y011096D01*
X012249Y011218D01*
X012089Y011284D01*
X011916Y011284D01*
X011757Y011218D01*
X011610Y011037D02*
X011396Y011037D01*
X011437Y010878D02*
X011569Y010878D01*
X011587Y010720D02*
X011419Y010720D01*
X011328Y010561D02*
X011678Y010561D01*
X012328Y010561D02*
X012678Y010561D01*
X012587Y010720D02*
X012419Y010720D01*
X012437Y010878D02*
X012569Y010878D01*
X012610Y011037D02*
X012396Y011037D01*
X012272Y011195D02*
X012734Y011195D01*
X010734Y011195D02*
X010471Y011195D01*
X010466Y011215D02*
X010442Y011256D01*
X010409Y011289D01*
X010368Y011313D01*
X010322Y011325D01*
X010021Y011325D01*
X010021Y010868D01*
X010478Y010868D01*
X010478Y011169D01*
X010466Y011215D01*
X010478Y011037D02*
X010610Y011037D01*
X010569Y010878D02*
X010478Y010878D01*
X010478Y010832D02*
X010021Y010832D01*
X010021Y010868D01*
X009984Y010868D01*
X009984Y010832D01*
X009528Y010832D01*
X009528Y010531D01*
X009540Y010485D01*
X009564Y010444D01*
X009597Y010411D01*
X009638Y010387D01*
X009684Y010375D01*
X009984Y010375D01*
X009984Y010832D01*
X010021Y010832D01*
X010021Y010375D01*
X010322Y010375D01*
X010368Y010387D01*
X010409Y010411D01*
X010442Y010444D01*
X010466Y010485D01*
X010478Y010531D01*
X010478Y010832D01*
X010478Y010720D02*
X010587Y010720D01*
X010678Y010561D02*
X010478Y010561D01*
X010394Y010403D02*
X030842Y010403D01*
X030820Y010410D02*
X030892Y010386D01*
X030965Y010375D01*
X030984Y010375D01*
X030984Y010832D01*
X030528Y010832D01*
X030528Y010813D01*
X030539Y010739D01*
X030562Y010668D01*
X030596Y010601D01*
X030640Y010540D01*
X030693Y010487D01*
X030754Y010444D01*
X030820Y010410D01*
X030984Y010403D02*
X031021Y010403D01*
X031021Y010375D02*
X031040Y010375D01*
X031114Y010386D01*
X031185Y010410D01*
X031252Y010444D01*
X031312Y010487D01*
X031365Y010540D01*
X031409Y010601D01*
X031443Y010668D01*
X031466Y010739D01*
X031478Y010813D01*
X031478Y010832D01*
X031021Y010832D01*
X031021Y010868D01*
X031478Y010868D01*
X031478Y010887D01*
X031466Y010961D01*
X031443Y011032D01*
X031409Y011099D01*
X031365Y011160D01*
X031312Y011213D01*
X031252Y011256D01*
X031185Y011290D01*
X031114Y011314D01*
X031040Y011325D01*
X031021Y011325D01*
X031021Y010868D01*
X030984Y010868D01*
X030984Y010832D01*
X031021Y010832D01*
X031021Y010375D01*
X031164Y010403D02*
X031842Y010403D01*
X031820Y010410D02*
X031892Y010386D01*
X031965Y010375D01*
X031984Y010375D01*
X031984Y010832D01*
X031528Y010832D01*
X031528Y010813D01*
X031539Y010739D01*
X031562Y010668D01*
X031596Y010601D01*
X031640Y010540D01*
X031693Y010487D01*
X031754Y010444D01*
X031820Y010410D01*
X031984Y010403D02*
X032021Y010403D01*
X032021Y010375D02*
X032040Y010375D01*
X032114Y010386D01*
X032185Y010410D01*
X032252Y010444D01*
X032312Y010487D01*
X032365Y010540D01*
X032409Y010601D01*
X032443Y010668D01*
X032466Y010739D01*
X032478Y010813D01*
X032478Y010832D01*
X032021Y010832D01*
X032021Y010868D01*
X032478Y010868D01*
X032478Y010887D01*
X032466Y010961D01*
X032443Y011032D01*
X032409Y011099D01*
X032365Y011160D01*
X032312Y011213D01*
X032252Y011256D01*
X032185Y011290D01*
X032114Y011314D01*
X032040Y011325D01*
X032021Y011325D01*
X032021Y010868D01*
X031984Y010868D01*
X031984Y010832D01*
X032021Y010832D01*
X032021Y010375D01*
X032013Y010244D02*
X008362Y010244D01*
X008362Y010403D02*
X009611Y010403D01*
X009528Y010561D02*
X008362Y010561D01*
X008362Y010720D02*
X009528Y010720D01*
X009528Y010868D02*
X009984Y010868D01*
X009984Y011325D01*
X009684Y011325D01*
X009638Y011313D01*
X009597Y011289D01*
X009564Y011256D01*
X009540Y011215D01*
X009528Y011169D01*
X009528Y010868D01*
X009528Y010878D02*
X008362Y010878D01*
X008362Y011037D02*
X009528Y011037D01*
X009535Y011195D02*
X008362Y011195D01*
X008362Y011354D02*
X023860Y011354D01*
X023734Y011195D02*
X023272Y011195D01*
X023396Y011037D02*
X023610Y011037D01*
X023569Y010878D02*
X023437Y010878D01*
X023419Y010720D02*
X023587Y010720D01*
X023678Y010561D02*
X023328Y010561D01*
X024328Y010561D02*
X024678Y010561D01*
X024635Y010604D02*
X024757Y010482D01*
X024916Y010416D01*
X025089Y010416D01*
X025249Y010482D01*
X025371Y010604D01*
X025437Y010764D01*
X025437Y010936D01*
X025371Y011096D01*
X025249Y011218D01*
X025089Y011284D01*
X024916Y011284D01*
X024757Y011218D01*
X024635Y011096D01*
X024569Y010936D01*
X024569Y010764D01*
X024635Y010604D01*
X024587Y010720D02*
X024419Y010720D01*
X024437Y010878D02*
X024569Y010878D01*
X024610Y011037D02*
X024396Y011037D01*
X024272Y011195D02*
X024734Y011195D01*
X024727Y011512D02*
X024482Y011512D01*
X024324Y011354D02*
X034642Y011354D01*
X034811Y011512D02*
X032337Y011512D01*
X032312Y011487D02*
X032365Y011540D01*
X032409Y011601D01*
X032443Y011668D01*
X032466Y011739D01*
X032478Y011813D01*
X032478Y011832D01*
X032021Y011832D01*
X032021Y011868D01*
X032478Y011868D01*
X032478Y011887D01*
X032466Y011961D01*
X032443Y012032D01*
X032409Y012099D01*
X032365Y012160D01*
X032312Y012213D01*
X032252Y012256D01*
X032185Y012290D01*
X032114Y012314D01*
X032040Y012325D01*
X032021Y012325D01*
X032021Y011868D01*
X031984Y011868D01*
X031984Y011832D01*
X031528Y011832D01*
X031528Y011813D01*
X031539Y011739D01*
X031562Y011668D01*
X031596Y011601D01*
X031640Y011540D01*
X031693Y011487D01*
X031754Y011444D01*
X031820Y011410D01*
X031892Y011386D01*
X031965Y011375D01*
X031984Y011375D01*
X031984Y011832D01*
X032021Y011832D01*
X032021Y011375D01*
X032040Y011375D01*
X032114Y011386D01*
X032185Y011410D01*
X032252Y011444D01*
X032312Y011487D01*
X032444Y011671D02*
X034969Y011671D01*
X035128Y011829D02*
X032478Y011829D01*
X032458Y011988D02*
X035269Y011988D01*
X035384Y012146D02*
X032375Y012146D01*
X032142Y012305D02*
X035499Y012305D01*
X035614Y012463D02*
X024610Y012463D01*
X024610Y012305D02*
X030864Y012305D01*
X030892Y012314D02*
X030820Y012290D01*
X030754Y012256D01*
X030693Y012213D01*
X030640Y012160D01*
X030596Y012099D01*
X030562Y012032D01*
X030539Y011961D01*
X030528Y011887D01*
X030528Y011868D01*
X030984Y011868D01*
X030984Y011832D01*
X030528Y011832D01*
X030528Y011813D01*
X030539Y011739D01*
X030562Y011668D01*
X030596Y011601D01*
X030640Y011540D01*
X030693Y011487D01*
X030754Y011444D01*
X030820Y011410D01*
X030892Y011386D01*
X030965Y011375D01*
X030984Y011375D01*
X030984Y011832D01*
X031021Y011832D01*
X031021Y011868D01*
X031478Y011868D01*
X031478Y011887D01*
X031466Y011961D01*
X031443Y012032D01*
X031409Y012099D01*
X031365Y012160D01*
X031312Y012213D01*
X031252Y012256D01*
X031185Y012290D01*
X031114Y012314D01*
X031040Y012325D01*
X031021Y012325D01*
X031021Y011868D01*
X030984Y011868D01*
X030984Y012325D01*
X030965Y012325D01*
X030892Y012314D01*
X030984Y012305D02*
X031021Y012305D01*
X031142Y012305D02*
X031864Y012305D01*
X031892Y012314D02*
X031820Y012290D01*
X031754Y012256D01*
X031693Y012213D01*
X031640Y012160D01*
X031596Y012099D01*
X031562Y012032D01*
X031539Y011961D01*
X031528Y011887D01*
X031528Y011868D01*
X031984Y011868D01*
X031984Y012325D01*
X031965Y012325D01*
X031892Y012314D01*
X031984Y012305D02*
X032021Y012305D01*
X032021Y012146D02*
X031984Y012146D01*
X031984Y011988D02*
X032021Y011988D01*
X032021Y011829D02*
X031984Y011829D01*
X031984Y011671D02*
X032021Y011671D01*
X032021Y011512D02*
X031984Y011512D01*
X031984Y011325D02*
X031965Y011325D01*
X031892Y011314D01*
X031820Y011290D01*
X031754Y011256D01*
X031693Y011213D01*
X031640Y011160D01*
X031596Y011099D01*
X031562Y011032D01*
X031539Y010961D01*
X031528Y010887D01*
X031528Y010868D01*
X031984Y010868D01*
X031984Y011325D01*
X031984Y011195D02*
X032021Y011195D01*
X032021Y011037D02*
X031984Y011037D01*
X031984Y010878D02*
X032021Y010878D01*
X032021Y010720D02*
X031984Y010720D01*
X031984Y010561D02*
X032021Y010561D01*
X032164Y010403D02*
X032824Y010403D01*
X032380Y010561D02*
X033312Y010561D01*
X033646Y010720D02*
X032460Y010720D01*
X032478Y010878D02*
X033957Y010878D01*
X034205Y011037D02*
X032441Y011037D01*
X032330Y011195D02*
X034424Y011195D01*
X031676Y011195D02*
X031330Y011195D01*
X031441Y011037D02*
X031564Y011037D01*
X031528Y010878D02*
X031478Y010878D01*
X031460Y010720D02*
X031545Y010720D01*
X031625Y010561D02*
X031380Y010561D01*
X031021Y010561D02*
X030984Y010561D01*
X030984Y010720D02*
X031021Y010720D01*
X030984Y010868D02*
X030528Y010868D01*
X030528Y010887D01*
X030539Y010961D01*
X030562Y011032D01*
X030596Y011099D01*
X030640Y011160D01*
X030693Y011213D01*
X030754Y011256D01*
X030820Y011290D01*
X030892Y011314D01*
X030965Y011325D01*
X030984Y011325D01*
X030984Y010868D01*
X030984Y010878D02*
X031021Y010878D01*
X031021Y011037D02*
X030984Y011037D01*
X030984Y011195D02*
X031021Y011195D01*
X031021Y011375D02*
X031040Y011375D01*
X031114Y011386D01*
X031185Y011410D01*
X031252Y011444D01*
X031312Y011487D01*
X031365Y011540D01*
X031409Y011601D01*
X031443Y011668D01*
X031466Y011739D01*
X031478Y011813D01*
X031478Y011832D01*
X031021Y011832D01*
X031021Y011375D01*
X031021Y011512D02*
X030984Y011512D01*
X030984Y011671D02*
X031021Y011671D01*
X031021Y011829D02*
X030984Y011829D01*
X030984Y011988D02*
X031021Y011988D01*
X031021Y012146D02*
X030984Y012146D01*
X030630Y012146D02*
X030321Y012146D01*
X030371Y012096D02*
X030249Y012218D01*
X030089Y012284D01*
X029916Y012284D01*
X029757Y012218D01*
X029635Y012096D01*
X029569Y011936D01*
X029569Y011764D01*
X029635Y011604D01*
X029757Y011482D01*
X029916Y011416D01*
X030089Y011416D01*
X030249Y011482D01*
X030371Y011604D01*
X030437Y011764D01*
X030437Y011936D01*
X030371Y012096D01*
X030416Y011988D02*
X030548Y011988D01*
X030528Y011829D02*
X030437Y011829D01*
X030399Y011671D02*
X030561Y011671D01*
X030669Y011512D02*
X030279Y011512D01*
X030249Y011218D02*
X030089Y011284D01*
X029916Y011284D01*
X029757Y011218D01*
X029635Y011096D01*
X029569Y010936D01*
X029569Y010764D01*
X029635Y010604D01*
X029757Y010482D01*
X029916Y010416D01*
X030089Y010416D01*
X030249Y010482D01*
X030371Y010604D01*
X030437Y010764D01*
X030437Y010936D01*
X030371Y011096D01*
X030249Y011218D01*
X030272Y011195D02*
X030676Y011195D01*
X030564Y011037D02*
X030396Y011037D01*
X030437Y010878D02*
X030528Y010878D01*
X030545Y010720D02*
X030419Y010720D01*
X030328Y010561D02*
X030625Y010561D01*
X029678Y010561D02*
X029328Y010561D01*
X029371Y010604D02*
X029437Y010764D01*
X029437Y010936D01*
X029371Y011096D01*
X029249Y011218D01*
X029089Y011284D01*
X028916Y011284D01*
X028757Y011218D01*
X028635Y011096D01*
X028569Y010936D01*
X028569Y010764D01*
X028635Y010604D01*
X028757Y010482D01*
X028916Y010416D01*
X029089Y010416D01*
X029249Y010482D01*
X029371Y010604D01*
X029419Y010720D02*
X029587Y010720D01*
X029569Y010878D02*
X029437Y010878D01*
X029396Y011037D02*
X029610Y011037D01*
X029734Y011195D02*
X029272Y011195D01*
X029089Y011416D02*
X029249Y011482D01*
X029371Y011604D01*
X029437Y011764D01*
X029437Y011936D01*
X029371Y012096D01*
X029249Y012218D01*
X029089Y012284D01*
X028916Y012284D01*
X028757Y012218D01*
X028635Y012096D01*
X028569Y011936D01*
X028569Y011764D01*
X028635Y011604D01*
X028757Y011482D01*
X028916Y011416D01*
X029089Y011416D01*
X029279Y011512D02*
X029727Y011512D01*
X029607Y011671D02*
X029399Y011671D01*
X029437Y011829D02*
X029569Y011829D01*
X029590Y011988D02*
X029416Y011988D01*
X029321Y012146D02*
X029685Y012146D01*
X028685Y012146D02*
X028321Y012146D01*
X028371Y012096D02*
X028249Y012218D01*
X028089Y012284D01*
X027916Y012284D01*
X027757Y012218D01*
X027635Y012096D01*
X027569Y011936D01*
X027569Y011764D01*
X027635Y011604D01*
X027757Y011482D01*
X027916Y011416D01*
X028089Y011416D01*
X028249Y011482D01*
X028371Y011604D01*
X028437Y011764D01*
X028437Y011936D01*
X028371Y012096D01*
X028416Y011988D02*
X028590Y011988D01*
X028569Y011829D02*
X028437Y011829D01*
X028399Y011671D02*
X028607Y011671D01*
X028727Y011512D02*
X028279Y011512D01*
X028249Y011218D02*
X028089Y011284D01*
X027916Y011284D01*
X027757Y011218D01*
X027635Y011096D01*
X027569Y010936D01*
X027569Y010764D01*
X027635Y010604D01*
X027757Y010482D01*
X027916Y010416D01*
X028089Y010416D01*
X028249Y010482D01*
X028371Y010604D01*
X028437Y010764D01*
X028437Y010936D01*
X028371Y011096D01*
X028249Y011218D01*
X028272Y011195D02*
X028734Y011195D01*
X028610Y011037D02*
X028396Y011037D01*
X028437Y010878D02*
X028569Y010878D01*
X028587Y010720D02*
X028419Y010720D01*
X028328Y010561D02*
X028678Y010561D01*
X027734Y011195D02*
X027272Y011195D01*
X027249Y011218D02*
X027089Y011284D01*
X026916Y011284D01*
X026757Y011218D01*
X026635Y011096D01*
X026569Y010936D01*
X026569Y010764D01*
X026635Y010604D01*
X026757Y010482D01*
X026916Y010416D01*
X027089Y010416D01*
X027249Y010482D01*
X027371Y010604D01*
X027437Y010764D01*
X027437Y010936D01*
X027371Y011096D01*
X027249Y011218D01*
X027396Y011037D02*
X027610Y011037D01*
X027569Y010878D02*
X027437Y010878D01*
X027419Y010720D02*
X027587Y010720D01*
X027678Y010561D02*
X027328Y010561D01*
X026678Y010561D02*
X026328Y010561D01*
X026371Y010604D02*
X026437Y010764D01*
X026437Y010936D01*
X026371Y011096D01*
X026249Y011218D01*
X026089Y011284D01*
X025916Y011284D01*
X025757Y011218D01*
X025635Y011096D01*
X025569Y010936D01*
X025569Y010764D01*
X025635Y010604D01*
X025757Y010482D01*
X025916Y010416D01*
X026089Y010416D01*
X026249Y010482D01*
X026371Y010604D01*
X026419Y010720D02*
X026587Y010720D01*
X026569Y010878D02*
X026437Y010878D01*
X026396Y011037D02*
X026610Y011037D01*
X026734Y011195D02*
X026272Y011195D01*
X026089Y011416D02*
X026249Y011482D01*
X026371Y011604D01*
X026437Y011764D01*
X026437Y011936D01*
X026371Y012096D01*
X026249Y012218D01*
X026089Y012284D01*
X025916Y012284D01*
X025757Y012218D01*
X025635Y012096D01*
X025569Y011936D01*
X025569Y011764D01*
X025635Y011604D01*
X025757Y011482D01*
X025916Y011416D01*
X026089Y011416D01*
X026279Y011512D02*
X026727Y011512D01*
X026757Y011482D02*
X026916Y011416D01*
X027089Y011416D01*
X027249Y011482D01*
X027371Y011604D01*
X027437Y011764D01*
X027437Y011936D01*
X027371Y012096D01*
X027249Y012218D01*
X027089Y012284D01*
X026916Y012284D01*
X026757Y012218D01*
X026635Y012096D01*
X026569Y011936D01*
X026569Y011764D01*
X026635Y011604D01*
X026757Y011482D01*
X026607Y011671D02*
X026399Y011671D01*
X026437Y011829D02*
X026569Y011829D01*
X026590Y011988D02*
X026416Y011988D01*
X026321Y012146D02*
X026685Y012146D01*
X027279Y011512D02*
X027727Y011512D01*
X027607Y011671D02*
X027399Y011671D01*
X027437Y011829D02*
X027569Y011829D01*
X027590Y011988D02*
X027416Y011988D01*
X027321Y012146D02*
X027685Y012146D01*
X028571Y012780D02*
X026293Y012780D01*
X026403Y012939D02*
X028571Y012939D01*
X028571Y013097D02*
X026434Y013097D01*
X026406Y013256D02*
X028571Y013256D01*
X028571Y013414D02*
X026299Y013414D01*
X025685Y012146D02*
X025321Y012146D01*
X025416Y011988D02*
X025590Y011988D01*
X025569Y011829D02*
X025437Y011829D01*
X025399Y011671D02*
X025607Y011671D01*
X025727Y011512D02*
X025279Y011512D01*
X025272Y011195D02*
X025734Y011195D01*
X025610Y011037D02*
X025396Y011037D01*
X025437Y010878D02*
X025569Y010878D01*
X025587Y010720D02*
X025419Y010720D01*
X025328Y010561D02*
X025678Y010561D01*
X024685Y012146D02*
X024610Y012146D01*
X023685Y012146D02*
X023321Y012146D01*
X023416Y011988D02*
X023590Y011988D01*
X023569Y011829D02*
X023437Y011829D01*
X023399Y011671D02*
X023607Y011671D01*
X023727Y011512D02*
X023279Y011512D01*
X023744Y015316D02*
X023964Y015316D01*
X023860Y015475D02*
X023744Y015475D01*
X023744Y015633D02*
X023860Y015633D01*
X023860Y015792D02*
X023744Y015792D01*
X023744Y015950D02*
X023860Y015950D01*
X023860Y016109D02*
X023744Y016109D01*
X023744Y016267D02*
X023860Y016267D01*
X023387Y016426D02*
X022742Y016426D01*
X022901Y016584D02*
X023387Y016584D01*
X023387Y016743D02*
X023059Y016743D01*
X023218Y016901D02*
X023387Y016901D01*
X023376Y017060D02*
X023387Y017060D01*
X023535Y017218D02*
X023542Y017218D01*
X023693Y017377D02*
X023700Y017377D01*
X023852Y017535D02*
X024607Y017535D01*
X024765Y017694D02*
X024010Y017694D01*
X024169Y017852D02*
X024924Y017852D01*
X025082Y018011D02*
X024327Y018011D01*
X024486Y018169D02*
X025241Y018169D01*
X025399Y018328D02*
X024644Y018328D01*
X024803Y018486D02*
X025153Y018486D01*
X025034Y018645D02*
X024961Y018645D01*
X023834Y019754D02*
X021013Y019754D01*
X021013Y019596D02*
X023675Y019596D01*
X023517Y019437D02*
X021013Y019437D01*
X020903Y019279D02*
X023358Y019279D01*
X023200Y019120D02*
X022846Y019120D01*
X022972Y018962D02*
X023041Y018962D01*
X023769Y019913D02*
X020912Y019913D01*
X020753Y020071D02*
X023611Y020071D01*
X023493Y020230D02*
X014853Y020230D01*
X014809Y020069D02*
X014534Y019794D01*
X014534Y019406D01*
X014809Y019131D01*
X015197Y019131D01*
X015472Y019406D01*
X015472Y019794D01*
X015197Y020069D01*
X014809Y020069D01*
X015012Y020388D02*
X023493Y020388D01*
X023493Y020400D02*
X024003Y020400D01*
X024003Y020910D01*
X023792Y020910D01*
X023493Y020611D01*
X023493Y020400D01*
X023493Y020547D02*
X015170Y020547D01*
X015329Y020705D02*
X023587Y020705D01*
X023745Y020864D02*
X015487Y020864D01*
X015646Y021022D02*
X024997Y021022D01*
X024943Y020864D02*
X024261Y020864D01*
X024419Y020705D02*
X024785Y020705D01*
X024626Y020547D02*
X024513Y020547D01*
X024003Y020547D02*
X024003Y020547D01*
X024003Y020400D02*
X024003Y020400D01*
X024003Y020705D02*
X024003Y020705D01*
X024003Y020864D02*
X024003Y020864D01*
X021922Y016426D02*
X019987Y016426D01*
X019897Y016267D02*
X021764Y016267D01*
X015762Y019120D02*
X013946Y019120D01*
X013788Y019279D02*
X014661Y019279D01*
X014534Y019437D02*
X012591Y019437D01*
X012433Y019596D02*
X013099Y019596D01*
X012975Y019754D02*
X012274Y019754D01*
X012116Y019913D02*
X012975Y019913D01*
X012975Y020071D02*
X011957Y020071D01*
X011799Y020230D02*
X013096Y020230D01*
X013236Y020388D02*
X011640Y020388D01*
X011482Y020547D02*
X011870Y020547D01*
X011717Y020705D02*
X011323Y020705D01*
X011264Y020864D02*
X011666Y020864D01*
X011678Y021022D02*
X011264Y021022D01*
X011444Y021181D02*
X011762Y021181D01*
X012493Y021022D02*
X013802Y021022D01*
X013644Y020864D02*
X012505Y020864D01*
X012454Y020705D02*
X013420Y020705D01*
X013247Y020547D02*
X012301Y020547D01*
X012615Y021181D02*
X013961Y021181D01*
X014119Y021339D02*
X012774Y021339D01*
X013913Y019754D02*
X014534Y019754D01*
X014534Y019596D02*
X013788Y019596D01*
X013218Y019279D02*
X012750Y019279D01*
X012908Y019120D02*
X013060Y019120D01*
X015345Y019279D02*
X015603Y019279D01*
X015493Y019437D02*
X015472Y019437D01*
X015472Y019596D02*
X015493Y019596D01*
X015493Y019754D02*
X015472Y019754D01*
X015354Y019913D02*
X015594Y019913D01*
X016003Y022090D02*
X016003Y022600D01*
X016003Y022090D01*
X016003Y022132D02*
X016003Y022132D01*
X016003Y022290D02*
X016003Y022290D01*
X016003Y022449D02*
X016003Y022449D01*
X016003Y022600D02*
X016003Y022600D01*
X015592Y022290D02*
X015575Y022290D01*
X015417Y022132D02*
X015750Y022132D01*
X015025Y024351D02*
X013895Y024351D01*
X014054Y024509D02*
X014829Y024509D01*
X014722Y024668D02*
X014212Y024668D01*
X014371Y024826D02*
X014663Y024826D01*
X014529Y024985D02*
X015923Y024985D01*
X015168Y025908D02*
X014949Y025908D01*
X013818Y024778D01*
X013784Y024813D01*
X013784Y028245D01*
X013679Y028349D01*
X012387Y029642D01*
X012437Y029764D01*
X012437Y029936D01*
X012371Y030096D01*
X012249Y030218D01*
X012089Y030284D01*
X011916Y030284D01*
X011757Y030218D01*
X011635Y030096D01*
X011569Y029936D01*
X011569Y029764D01*
X011635Y029604D01*
X011757Y029482D01*
X011916Y029416D01*
X012089Y029416D01*
X012103Y029421D01*
X012612Y028912D01*
X011265Y028912D01*
X010996Y028800D01*
X010790Y028594D01*
X010679Y028326D01*
X010679Y028034D01*
X010790Y027766D01*
X010996Y027560D01*
X011089Y027521D01*
X010513Y026946D01*
X010513Y025047D01*
X010493Y025134D01*
X010263Y025613D01*
X009931Y026029D01*
X009516Y026360D01*
X009516Y026360D01*
X009037Y026591D01*
X009037Y026591D01*
X008519Y026709D01*
X008362Y026709D01*
X008362Y031491D01*
X015807Y031491D01*
X015383Y031067D01*
X015371Y031096D01*
X015249Y031218D01*
X015089Y031284D01*
X014916Y031284D01*
X014757Y031218D01*
X014635Y031096D01*
X014569Y030936D01*
X014569Y030764D01*
X014635Y030604D01*
X014757Y030482D01*
X014916Y030416D01*
X015089Y030416D01*
X015238Y030477D01*
X015238Y030223D01*
X015089Y030284D01*
X014916Y030284D01*
X014757Y030218D01*
X014635Y030096D01*
X014569Y029936D01*
X014569Y029764D01*
X014635Y029604D01*
X014757Y029482D01*
X014916Y029416D01*
X015089Y029416D01*
X015238Y029477D01*
X015238Y029268D01*
X014634Y028664D01*
X014529Y028560D01*
X014529Y027821D01*
X015091Y027260D01*
X014996Y027220D01*
X014790Y027014D01*
X014679Y026746D01*
X014679Y026454D01*
X014790Y026186D01*
X014996Y025980D01*
X015168Y025908D01*
X015103Y025936D02*
X013784Y025936D01*
X013784Y026094D02*
X014882Y026094D01*
X014762Y026253D02*
X013784Y026253D01*
X013784Y026411D02*
X014697Y026411D01*
X014679Y026570D02*
X013784Y026570D01*
X013784Y026728D02*
X014679Y026728D01*
X014737Y026887D02*
X013784Y026887D01*
X013784Y027045D02*
X014821Y027045D01*
X014979Y027204D02*
X013784Y027204D01*
X013784Y027362D02*
X014988Y027362D01*
X014830Y027521D02*
X013784Y027521D01*
X013784Y027679D02*
X014671Y027679D01*
X014529Y027838D02*
X013784Y027838D01*
X013784Y027996D02*
X014529Y027996D01*
X014529Y028155D02*
X013784Y028155D01*
X013715Y028313D02*
X014529Y028313D01*
X014529Y028472D02*
X013557Y028472D01*
X013398Y028630D02*
X014599Y028630D01*
X014758Y028789D02*
X013240Y028789D01*
X013081Y028947D02*
X014916Y028947D01*
X015075Y029106D02*
X012923Y029106D01*
X012764Y029264D02*
X015233Y029264D01*
X015238Y029423D02*
X015106Y029423D01*
X014900Y029423D02*
X014106Y029423D01*
X014089Y029416D02*
X014249Y029482D01*
X014371Y029604D01*
X014437Y029764D01*
X014437Y029936D01*
X014371Y030096D01*
X014249Y030218D01*
X014089Y030284D01*
X013916Y030284D01*
X013757Y030218D01*
X013635Y030096D01*
X013569Y029936D01*
X013569Y029764D01*
X013635Y029604D01*
X013757Y029482D01*
X013916Y029416D01*
X014089Y029416D01*
X013900Y029423D02*
X013106Y029423D01*
X013089Y029416D02*
X013249Y029482D01*
X013371Y029604D01*
X013437Y029764D01*
X013437Y029936D01*
X013371Y030096D01*
X013249Y030218D01*
X013089Y030284D01*
X012916Y030284D01*
X012757Y030218D01*
X012635Y030096D01*
X012569Y029936D01*
X012569Y029764D01*
X012635Y029604D01*
X012757Y029482D01*
X012916Y029416D01*
X013089Y029416D01*
X012900Y029423D02*
X012606Y029423D01*
X012658Y029581D02*
X012447Y029581D01*
X012427Y029740D02*
X012578Y029740D01*
X012569Y029898D02*
X012437Y029898D01*
X012387Y030057D02*
X012618Y030057D01*
X012754Y030215D02*
X012252Y030215D01*
X012089Y030416D02*
X012249Y030482D01*
X012371Y030604D01*
X012437Y030764D01*
X012437Y030936D01*
X012371Y031096D01*
X012249Y031218D01*
X012089Y031284D01*
X011916Y031284D01*
X011757Y031218D01*
X011635Y031096D01*
X011569Y030936D01*
X011569Y030764D01*
X011635Y030604D01*
X011757Y030482D01*
X011916Y030416D01*
X012089Y030416D01*
X012299Y030532D02*
X012707Y030532D01*
X012757Y030482D02*
X012916Y030416D01*
X013089Y030416D01*
X013249Y030482D01*
X013371Y030604D01*
X013437Y030764D01*
X013437Y030936D01*
X013371Y031096D01*
X013249Y031218D01*
X013089Y031284D01*
X012916Y031284D01*
X012757Y031218D01*
X012635Y031096D01*
X012569Y030936D01*
X012569Y030764D01*
X012635Y030604D01*
X012757Y030482D01*
X012599Y030691D02*
X012407Y030691D01*
X012437Y030849D02*
X012569Y030849D01*
X012598Y031008D02*
X012408Y031008D01*
X012301Y031166D02*
X012705Y031166D01*
X013301Y031166D02*
X013705Y031166D01*
X013757Y031218D02*
X013635Y031096D01*
X013569Y030936D01*
X013569Y030764D01*
X013635Y030604D01*
X013757Y030482D01*
X013916Y030416D01*
X014089Y030416D01*
X014249Y030482D01*
X014371Y030604D01*
X014437Y030764D01*
X014437Y030936D01*
X014371Y031096D01*
X014249Y031218D01*
X014089Y031284D01*
X013916Y031284D01*
X013757Y031218D01*
X013598Y031008D02*
X013408Y031008D01*
X013437Y030849D02*
X013569Y030849D01*
X013599Y030691D02*
X013407Y030691D01*
X013299Y030532D02*
X013707Y030532D01*
X013754Y030215D02*
X013252Y030215D01*
X013387Y030057D02*
X013618Y030057D01*
X013569Y029898D02*
X013437Y029898D01*
X013427Y029740D02*
X013578Y029740D01*
X013658Y029581D02*
X013348Y029581D01*
X012577Y028947D02*
X008362Y028947D01*
X008362Y028789D02*
X010984Y028789D01*
X010826Y028630D02*
X008362Y028630D01*
X008362Y028472D02*
X010739Y028472D01*
X010679Y028313D02*
X008362Y028313D01*
X008362Y028155D02*
X010679Y028155D01*
X010695Y027996D02*
X008362Y027996D01*
X008362Y027838D02*
X010760Y027838D01*
X010877Y027679D02*
X008362Y027679D01*
X008362Y027521D02*
X011088Y027521D01*
X010930Y027362D02*
X008362Y027362D01*
X008362Y027204D02*
X010771Y027204D01*
X010613Y027045D02*
X008362Y027045D01*
X008362Y026887D02*
X010513Y026887D01*
X010513Y026728D02*
X008362Y026728D01*
X009081Y026570D02*
X010513Y026570D01*
X010513Y026411D02*
X009410Y026411D01*
X009651Y026253D02*
X010513Y026253D01*
X010513Y026094D02*
X009849Y026094D01*
X009931Y026029D02*
X009931Y026029D01*
X010006Y025936D02*
X010513Y025936D01*
X010513Y025777D02*
X010132Y025777D01*
X010258Y025619D02*
X010513Y025619D01*
X010513Y025460D02*
X010336Y025460D01*
X010413Y025302D02*
X010513Y025302D01*
X010513Y025143D02*
X010489Y025143D01*
X010870Y025619D02*
X010921Y025619D01*
X010870Y025777D02*
X011251Y025777D01*
X011103Y025936D02*
X010870Y025936D01*
X010870Y026094D02*
X010882Y026094D01*
X011923Y025777D02*
X012083Y025777D01*
X012083Y025619D02*
X011923Y025619D01*
X011923Y025460D02*
X012083Y025460D01*
X012083Y025302D02*
X011923Y025302D01*
X011923Y025143D02*
X012083Y025143D01*
X012083Y024985D02*
X013427Y024985D01*
X013427Y025143D02*
X013358Y025143D01*
X013315Y025302D02*
X013427Y025302D01*
X013427Y025460D02*
X013231Y025460D01*
X013084Y025619D02*
X013427Y025619D01*
X013427Y025777D02*
X012755Y025777D01*
X012903Y025936D02*
X013427Y025936D01*
X013427Y026094D02*
X013124Y026094D01*
X013243Y026253D02*
X013427Y026253D01*
X013427Y026411D02*
X013309Y026411D01*
X013327Y026570D02*
X013427Y026570D01*
X013427Y026728D02*
X013327Y026728D01*
X013268Y026887D02*
X013427Y026887D01*
X013427Y027045D02*
X013185Y027045D01*
X013026Y027204D02*
X013427Y027204D01*
X013427Y027362D02*
X011435Y027362D01*
X012915Y027521D02*
X013427Y027521D01*
X013427Y027679D02*
X013129Y027679D01*
X013245Y027838D02*
X013427Y027838D01*
X013427Y027996D02*
X013311Y027996D01*
X013327Y028155D02*
X013369Y028155D01*
X012418Y029106D02*
X008362Y029106D01*
X008362Y029264D02*
X012260Y029264D01*
X011900Y029423D02*
X011106Y029423D01*
X011089Y029416D02*
X011249Y029482D01*
X011371Y029604D01*
X011437Y029764D01*
X011437Y029936D01*
X011371Y030096D01*
X011249Y030218D01*
X011089Y030284D01*
X010916Y030284D01*
X010757Y030218D01*
X010635Y030096D01*
X010569Y029936D01*
X010569Y029764D01*
X010635Y029604D01*
X010757Y029482D01*
X010916Y029416D01*
X011089Y029416D01*
X010900Y029423D02*
X010420Y029423D01*
X010409Y029411D02*
X010442Y029444D01*
X010466Y029485D01*
X010478Y029531D01*
X010478Y029832D01*
X010021Y029832D01*
X010021Y029868D01*
X010478Y029868D01*
X010478Y030169D01*
X010466Y030215D01*
X010442Y030256D01*
X010409Y030289D01*
X010368Y030313D01*
X010322Y030325D01*
X010021Y030325D01*
X010021Y029868D01*
X009984Y029868D01*
X009984Y029832D01*
X009528Y029832D01*
X009528Y029531D01*
X009540Y029485D01*
X009564Y029444D01*
X009597Y029411D01*
X009638Y029387D01*
X009684Y029375D01*
X009984Y029375D01*
X009984Y029832D01*
X010021Y029832D01*
X010021Y029375D01*
X010322Y029375D01*
X010368Y029387D01*
X010409Y029411D01*
X010478Y029581D02*
X010658Y029581D01*
X010578Y029740D02*
X010478Y029740D01*
X010478Y029898D02*
X010569Y029898D01*
X010618Y030057D02*
X010478Y030057D01*
X010466Y030215D02*
X010754Y030215D01*
X010916Y030416D02*
X010757Y030482D01*
X010635Y030604D01*
X010569Y030764D01*
X010569Y030936D01*
X010635Y031096D01*
X010757Y031218D01*
X010916Y031284D01*
X011089Y031284D01*
X011249Y031218D01*
X011371Y031096D01*
X011437Y030936D01*
X011437Y030764D01*
X011371Y030604D01*
X011249Y030482D01*
X011089Y030416D01*
X010916Y030416D01*
X010707Y030532D02*
X010357Y030532D01*
X010365Y030540D02*
X010409Y030601D01*
X010443Y030668D01*
X010466Y030739D01*
X010478Y030813D01*
X010478Y030832D01*
X010021Y030832D01*
X010021Y030868D01*
X010478Y030868D01*
X010478Y030887D01*
X010466Y030961D01*
X010443Y031032D01*
X010409Y031099D01*
X010365Y031160D01*
X010312Y031213D01*
X010252Y031256D01*
X010185Y031290D01*
X010114Y031314D01*
X010040Y031325D01*
X010021Y031325D01*
X010021Y030868D01*
X009984Y030868D01*
X009984Y030832D01*
X009528Y030832D01*
X009528Y030813D01*
X009539Y030739D01*
X009562Y030668D01*
X009596Y030601D01*
X009640Y030540D01*
X009693Y030487D01*
X009754Y030444D01*
X009820Y030410D01*
X009892Y030386D01*
X009965Y030375D01*
X009984Y030375D01*
X009984Y030832D01*
X010021Y030832D01*
X010021Y030375D01*
X010040Y030375D01*
X010114Y030386D01*
X010185Y030410D01*
X010252Y030444D01*
X010312Y030487D01*
X010365Y030540D01*
X010451Y030691D02*
X010599Y030691D01*
X010569Y030849D02*
X010021Y030849D01*
X009984Y030849D02*
X008362Y030849D01*
X008362Y030691D02*
X009555Y030691D01*
X009528Y030868D02*
X009984Y030868D01*
X009984Y031325D01*
X009965Y031325D01*
X009892Y031314D01*
X009820Y031290D01*
X009754Y031256D01*
X009693Y031213D01*
X009640Y031160D01*
X009596Y031099D01*
X009562Y031032D01*
X009539Y030961D01*
X009528Y030887D01*
X009528Y030868D01*
X009554Y031008D02*
X008362Y031008D01*
X008362Y031166D02*
X009647Y031166D01*
X009984Y031166D02*
X010021Y031166D01*
X010021Y031008D02*
X009984Y031008D01*
X009984Y031325D02*
X010021Y031325D01*
X010045Y031325D02*
X015640Y031325D01*
X015799Y031483D02*
X008362Y031483D01*
X008362Y031325D02*
X009961Y031325D01*
X010359Y031166D02*
X010705Y031166D01*
X010598Y031008D02*
X010451Y031008D01*
X010021Y030691D02*
X009984Y030691D01*
X009984Y030532D02*
X010021Y030532D01*
X009984Y030325D02*
X009684Y030325D01*
X009638Y030313D01*
X009597Y030289D01*
X009564Y030256D01*
X009540Y030215D01*
X008362Y030215D01*
X008362Y030057D02*
X009528Y030057D01*
X009528Y030169D02*
X009528Y029868D01*
X009984Y029868D01*
X009984Y030325D01*
X009984Y030215D02*
X010021Y030215D01*
X010021Y030057D02*
X009984Y030057D01*
X009984Y029898D02*
X010021Y029898D01*
X010021Y029740D02*
X009984Y029740D01*
X009984Y029581D02*
X010021Y029581D01*
X010021Y029423D02*
X009984Y029423D01*
X009585Y029423D02*
X008362Y029423D01*
X008362Y029581D02*
X009528Y029581D01*
X009528Y029740D02*
X008362Y029740D01*
X008362Y029898D02*
X009528Y029898D01*
X009528Y030169D02*
X009540Y030215D01*
X009649Y030532D02*
X008362Y030532D01*
X008362Y030374D02*
X015238Y030374D01*
X014754Y030215D02*
X014252Y030215D01*
X014387Y030057D02*
X014618Y030057D01*
X014569Y029898D02*
X014437Y029898D01*
X014427Y029740D02*
X014578Y029740D01*
X014658Y029581D02*
X014348Y029581D01*
X014299Y030532D02*
X014707Y030532D01*
X014599Y030691D02*
X014407Y030691D01*
X014437Y030849D02*
X014569Y030849D01*
X014598Y031008D02*
X014408Y031008D01*
X014301Y031166D02*
X014705Y031166D01*
X015301Y031166D02*
X015482Y031166D01*
X018587Y029581D02*
X018658Y029581D01*
X019610Y030532D02*
X019707Y030532D01*
X014817Y025777D02*
X013784Y025777D01*
X013784Y025619D02*
X014659Y025619D01*
X014500Y025460D02*
X013784Y025460D01*
X013784Y025302D02*
X014342Y025302D01*
X014183Y025143D02*
X013784Y025143D01*
X013784Y024985D02*
X014025Y024985D01*
X013866Y024826D02*
X013784Y024826D01*
X013427Y024826D02*
X013343Y024826D01*
X013348Y024668D02*
X013284Y024668D01*
X013376Y024509D02*
X013177Y024509D01*
X012981Y024351D02*
X013391Y024351D01*
X012083Y024351D02*
X011923Y024351D01*
X011923Y024509D02*
X012083Y024509D01*
X012083Y024668D02*
X011923Y024668D01*
X011923Y024826D02*
X012083Y024826D01*
X011025Y024351D02*
X010870Y024351D01*
X011348Y029581D02*
X011658Y029581D01*
X011578Y029740D02*
X011427Y029740D01*
X011437Y029898D02*
X011569Y029898D01*
X011618Y030057D02*
X011387Y030057D01*
X011252Y030215D02*
X011754Y030215D01*
X011707Y030532D02*
X011299Y030532D01*
X011407Y030691D02*
X011599Y030691D01*
X011569Y030849D02*
X011437Y030849D01*
X011408Y031008D02*
X011598Y031008D01*
X011705Y031166D02*
X011301Y031166D01*
X027252Y030215D02*
X027754Y030215D01*
X027618Y030057D02*
X027387Y030057D01*
X027437Y029898D02*
X027569Y029898D01*
X027578Y029740D02*
X027427Y029740D01*
X027348Y029581D02*
X027658Y029581D01*
X028348Y029581D02*
X028658Y029581D01*
X028578Y029740D02*
X028427Y029740D01*
X028437Y029898D02*
X028569Y029898D01*
X028618Y030057D02*
X028387Y030057D01*
X028252Y030215D02*
X028754Y030215D01*
X028916Y030416D02*
X029089Y030416D01*
X029249Y030482D01*
X029371Y030604D01*
X029437Y030764D01*
X029437Y030936D01*
X029371Y031096D01*
X029249Y031218D01*
X029089Y031284D01*
X028916Y031284D01*
X028757Y031218D01*
X028635Y031096D01*
X028569Y030936D01*
X028569Y030764D01*
X028635Y030604D01*
X028757Y030482D01*
X028916Y030416D01*
X028707Y030532D02*
X028299Y030532D01*
X028249Y030482D02*
X028371Y030604D01*
X028437Y030764D01*
X028437Y030936D01*
X028371Y031096D01*
X028249Y031218D01*
X028089Y031284D01*
X027916Y031284D01*
X027757Y031218D01*
X027635Y031096D01*
X027569Y030936D01*
X027569Y030764D01*
X027635Y030604D01*
X027757Y030482D01*
X027916Y030416D01*
X028089Y030416D01*
X028249Y030482D01*
X028407Y030691D02*
X028599Y030691D01*
X028569Y030849D02*
X028437Y030849D01*
X028408Y031008D02*
X028598Y031008D01*
X028705Y031166D02*
X028301Y031166D01*
X027705Y031166D02*
X027301Y031166D01*
X027408Y031008D02*
X027598Y031008D01*
X027569Y030849D02*
X027437Y030849D01*
X027407Y030691D02*
X027599Y030691D01*
X027707Y030532D02*
X027299Y030532D01*
X029252Y030215D02*
X029754Y030215D01*
X029618Y030057D02*
X029387Y030057D01*
X029437Y029898D02*
X029569Y029898D01*
X029578Y029740D02*
X029427Y029740D01*
X029348Y029581D02*
X029658Y029581D01*
X029707Y030532D02*
X029299Y030532D01*
X029407Y030691D02*
X029599Y030691D01*
X029569Y030849D02*
X029437Y030849D01*
X029408Y031008D02*
X029598Y031008D01*
X029705Y031166D02*
X029301Y031166D01*
X015421Y015633D02*
X013833Y015633D01*
X013972Y015475D02*
X015263Y015475D01*
X015104Y015316D02*
X013972Y015316D01*
X013972Y015158D02*
X014946Y015158D01*
X014787Y014999D02*
X013865Y014999D01*
X013707Y014841D02*
X014629Y014841D01*
X010685Y012146D02*
X010375Y012146D01*
X010458Y011988D02*
X010590Y011988D01*
X010569Y011829D02*
X010478Y011829D01*
X010478Y011832D02*
X010021Y011832D01*
X010021Y011375D01*
X010040Y011375D01*
X010114Y011386D01*
X010185Y011410D01*
X010252Y011444D01*
X010312Y011487D01*
X010365Y011540D01*
X010409Y011601D01*
X010443Y011668D01*
X010466Y011739D01*
X010478Y011813D01*
X010478Y011832D01*
X010444Y011671D02*
X010607Y011671D01*
X010727Y011512D02*
X010337Y011512D01*
X010021Y011512D02*
X009984Y011512D01*
X009984Y011671D02*
X010021Y011671D01*
X010021Y011829D02*
X009984Y011829D01*
X009984Y011988D02*
X010021Y011988D01*
X010021Y012146D02*
X009984Y012146D01*
X009630Y012146D02*
X008362Y012146D01*
X008362Y011988D02*
X009548Y011988D01*
X009528Y011829D02*
X008362Y011829D01*
X008362Y011671D02*
X009561Y011671D01*
X009669Y011512D02*
X008362Y011512D01*
X009984Y011195D02*
X010021Y011195D01*
X010021Y011037D02*
X009984Y011037D01*
X009984Y010878D02*
X010021Y010878D01*
X010021Y010720D02*
X009984Y010720D01*
X009984Y010561D02*
X010021Y010561D01*
X010021Y010403D02*
X009984Y010403D01*
X031337Y011512D02*
X031669Y011512D01*
X031561Y011671D02*
X031444Y011671D01*
X031478Y011829D02*
X031528Y011829D01*
X031548Y011988D02*
X031458Y011988D01*
X031375Y012146D02*
X031630Y012146D01*
D24*
X025219Y020887D03*
X028448Y022698D03*
X028999Y022935D03*
X024353Y030494D03*
X013605Y024628D03*
X013487Y020454D03*
X016873Y016832D03*
M02*
