G75*
%MOIN*%
%OFA0B0*%
%FSLAX24Y24*%
%IPPOS*%
%LPD*%
%AMOC8*
5,1,8,0,0,1.08239X$1,22.5*
%
%ADD10C,0.0000*%
%ADD11C,0.0050*%
D10*
X002503Y000100D02*
X002503Y031596D01*
X041873Y031596D01*
X041873Y000100D01*
X002503Y000100D01*
X011647Y023049D02*
X011649Y023083D01*
X011655Y023117D01*
X011665Y023150D01*
X011678Y023181D01*
X011696Y023211D01*
X011716Y023239D01*
X011740Y023264D01*
X011766Y023286D01*
X011794Y023304D01*
X011825Y023320D01*
X011857Y023332D01*
X011891Y023340D01*
X011925Y023344D01*
X011959Y023344D01*
X011993Y023340D01*
X012027Y023332D01*
X012059Y023320D01*
X012089Y023304D01*
X012118Y023286D01*
X012144Y023264D01*
X012168Y023239D01*
X012188Y023211D01*
X012206Y023181D01*
X012219Y023150D01*
X012229Y023117D01*
X012235Y023083D01*
X012237Y023049D01*
X012235Y023015D01*
X012229Y022981D01*
X012219Y022948D01*
X012206Y022917D01*
X012188Y022887D01*
X012168Y022859D01*
X012144Y022834D01*
X012118Y022812D01*
X012090Y022794D01*
X012059Y022778D01*
X012027Y022766D01*
X011993Y022758D01*
X011959Y022754D01*
X011925Y022754D01*
X011891Y022758D01*
X011857Y022766D01*
X011825Y022778D01*
X011794Y022794D01*
X011766Y022812D01*
X011740Y022834D01*
X011716Y022859D01*
X011696Y022887D01*
X011678Y022917D01*
X011665Y022948D01*
X011655Y022981D01*
X011649Y023015D01*
X011647Y023049D01*
X034143Y020797D02*
X034145Y020831D01*
X034151Y020865D01*
X034161Y020898D01*
X034174Y020929D01*
X034192Y020959D01*
X034212Y020987D01*
X034236Y021012D01*
X034262Y021034D01*
X034290Y021052D01*
X034321Y021068D01*
X034353Y021080D01*
X034387Y021088D01*
X034421Y021092D01*
X034455Y021092D01*
X034489Y021088D01*
X034523Y021080D01*
X034555Y021068D01*
X034585Y021052D01*
X034614Y021034D01*
X034640Y021012D01*
X034664Y020987D01*
X034684Y020959D01*
X034702Y020929D01*
X034715Y020898D01*
X034725Y020865D01*
X034731Y020831D01*
X034733Y020797D01*
X034731Y020763D01*
X034725Y020729D01*
X034715Y020696D01*
X034702Y020665D01*
X034684Y020635D01*
X034664Y020607D01*
X034640Y020582D01*
X034614Y020560D01*
X034586Y020542D01*
X034555Y020526D01*
X034523Y020514D01*
X034489Y020506D01*
X034455Y020502D01*
X034421Y020502D01*
X034387Y020506D01*
X034353Y020514D01*
X034321Y020526D01*
X034290Y020542D01*
X034262Y020560D01*
X034236Y020582D01*
X034212Y020607D01*
X034192Y020635D01*
X034174Y020665D01*
X034161Y020696D01*
X034151Y020729D01*
X034145Y020763D01*
X034143Y020797D01*
D11*
X036503Y015100D02*
X036503Y026600D01*
X036501Y026740D01*
X036495Y026880D01*
X036485Y027020D01*
X036472Y027160D01*
X036454Y027299D01*
X036432Y027438D01*
X036407Y027575D01*
X036378Y027713D01*
X036345Y027849D01*
X036308Y027984D01*
X036267Y028118D01*
X036222Y028251D01*
X036174Y028383D01*
X036122Y028513D01*
X036067Y028642D01*
X036008Y028769D01*
X035945Y028895D01*
X035879Y029019D01*
X035810Y029140D01*
X035737Y029260D01*
X035660Y029378D01*
X035581Y029493D01*
X035498Y029607D01*
X035412Y029717D01*
X035323Y029826D01*
X035231Y029932D01*
X035136Y030035D01*
X035039Y030136D01*
X034938Y030233D01*
X034835Y030328D01*
X034729Y030420D01*
X034620Y030509D01*
X034510Y030595D01*
X034396Y030678D01*
X034281Y030757D01*
X034163Y030834D01*
X034043Y030907D01*
X033922Y030976D01*
X033798Y031042D01*
X033672Y031105D01*
X033545Y031164D01*
X033416Y031219D01*
X033286Y031271D01*
X033154Y031319D01*
X033021Y031364D01*
X032887Y031405D01*
X032752Y031442D01*
X032616Y031475D01*
X032478Y031504D01*
X032341Y031529D01*
X032202Y031551D01*
X032063Y031569D01*
X031923Y031582D01*
X031783Y031592D01*
X031643Y031598D01*
X031503Y031600D01*
X008253Y031600D01*
X008253Y026600D01*
X008346Y026598D01*
X008439Y026592D01*
X008531Y026583D01*
X008623Y026569D01*
X008715Y026552D01*
X008805Y026531D01*
X008895Y026506D01*
X008984Y026478D01*
X009071Y026446D01*
X009157Y026410D01*
X009241Y026371D01*
X009324Y026329D01*
X009405Y026283D01*
X009484Y026234D01*
X009560Y026181D01*
X009635Y026126D01*
X009707Y026067D01*
X009777Y026005D01*
X009844Y025941D01*
X009908Y025874D01*
X009970Y025804D01*
X010029Y025732D01*
X010084Y025657D01*
X010137Y025581D01*
X010186Y025502D01*
X010232Y025421D01*
X010274Y025338D01*
X010313Y025254D01*
X010349Y025168D01*
X010381Y025081D01*
X010409Y024992D01*
X010434Y024902D01*
X010455Y024812D01*
X010472Y024720D01*
X010486Y024628D01*
X010495Y024536D01*
X010501Y024443D01*
X010503Y024350D01*
X010503Y017350D01*
X010501Y017257D01*
X010495Y017164D01*
X010486Y017072D01*
X010472Y016980D01*
X010455Y016888D01*
X010434Y016798D01*
X010409Y016708D01*
X010381Y016619D01*
X010349Y016532D01*
X010313Y016446D01*
X010274Y016362D01*
X010232Y016279D01*
X010186Y016198D01*
X010137Y016119D01*
X010084Y016043D01*
X010029Y015968D01*
X009970Y015896D01*
X009908Y015826D01*
X009844Y015759D01*
X009777Y015695D01*
X009707Y015633D01*
X009635Y015574D01*
X009560Y015519D01*
X009484Y015466D01*
X009405Y015417D01*
X009324Y015371D01*
X009241Y015329D01*
X009157Y015290D01*
X009071Y015254D01*
X008984Y015222D01*
X008895Y015194D01*
X008805Y015169D01*
X008715Y015148D01*
X008623Y015131D01*
X008531Y015117D01*
X008439Y015108D01*
X008346Y015102D01*
X008253Y015100D01*
X008253Y010100D01*
X031503Y010100D01*
X031643Y010102D01*
X031783Y010108D01*
X031923Y010118D01*
X032063Y010131D01*
X032202Y010149D01*
X032341Y010171D01*
X032478Y010196D01*
X032616Y010225D01*
X032752Y010258D01*
X032887Y010295D01*
X033021Y010336D01*
X033154Y010381D01*
X033286Y010429D01*
X033416Y010481D01*
X033545Y010536D01*
X033672Y010595D01*
X033798Y010658D01*
X033922Y010724D01*
X034043Y010793D01*
X034163Y010866D01*
X034281Y010943D01*
X034396Y011022D01*
X034510Y011105D01*
X034620Y011191D01*
X034729Y011280D01*
X034835Y011372D01*
X034938Y011467D01*
X035039Y011564D01*
X035136Y011665D01*
X035231Y011768D01*
X035323Y011874D01*
X035412Y011983D01*
X035498Y012093D01*
X035581Y012207D01*
X035660Y012322D01*
X035737Y012440D01*
X035810Y012560D01*
X035879Y012681D01*
X035945Y012805D01*
X036008Y012931D01*
X036067Y013058D01*
X036122Y013187D01*
X036174Y013317D01*
X036222Y013449D01*
X036267Y013582D01*
X036308Y013716D01*
X036345Y013851D01*
X036378Y013987D01*
X036407Y014125D01*
X036432Y014262D01*
X036454Y014401D01*
X036472Y014540D01*
X036485Y014680D01*
X036495Y014820D01*
X036501Y014960D01*
X036503Y015100D01*
M02*
