G75*
%MOIN*%
%OFA0B0*%
%FSLAX24Y24*%
%IPPOS*%
%LPD*%
%AMOC8*
5,1,8,0,0,1.08239X$1,22.5*
%
%ADD10R,0.0591X0.0591*%
%ADD11C,0.0591*%
%ADD12R,0.0585X0.0585*%
%ADD13C,0.0585*%
%ADD14OC8,0.0660*%
%ADD15C,0.0750*%
%ADD16OC8,0.0750*%
%ADD17OC8,0.0480*%
%ADD18C,0.1185*%
%ADD19C,0.0560*%
%ADD20C,0.0600*%
%ADD21C,0.0840*%
%ADD22C,0.0079*%
%ADD23C,0.0160*%
%ADD24C,0.0236*%
D10*
X010003Y003607D03*
X010003Y022607D03*
D11*
X011003Y022607D03*
X012003Y022607D03*
X013003Y022607D03*
X014003Y022607D03*
X015003Y022607D03*
X016003Y022607D03*
X017003Y022607D03*
X018003Y022607D03*
X019003Y022607D03*
X020003Y022607D03*
X021003Y022607D03*
X022003Y022607D03*
X023003Y022607D03*
X024003Y022607D03*
X025003Y022607D03*
X026003Y022607D03*
X027003Y022607D03*
X028003Y022607D03*
X029003Y022607D03*
X030003Y022607D03*
X031003Y022607D03*
X032003Y022607D03*
X032003Y023607D03*
X031003Y023607D03*
X030003Y023607D03*
X029003Y023607D03*
X028003Y023607D03*
X027003Y023607D03*
X026003Y023607D03*
X025003Y023607D03*
X024003Y023607D03*
X023003Y023607D03*
X022003Y023607D03*
X021003Y023607D03*
X020003Y023607D03*
X019003Y023607D03*
X018003Y023607D03*
X017003Y023607D03*
X016003Y023607D03*
X015003Y023607D03*
X014003Y023607D03*
X013003Y023607D03*
X012003Y023607D03*
X011003Y023607D03*
X010003Y023607D03*
X010003Y004607D03*
X011003Y004607D03*
X012003Y004607D03*
X013003Y004607D03*
X014003Y004607D03*
X015003Y004607D03*
X016003Y004607D03*
X017003Y004607D03*
X018003Y004607D03*
X019003Y004607D03*
X020003Y004607D03*
X021003Y004607D03*
X022003Y004607D03*
X023003Y004607D03*
X024003Y004607D03*
X025003Y004607D03*
X026003Y004607D03*
X027003Y004607D03*
X028003Y004607D03*
X029003Y004607D03*
X030003Y004607D03*
X031003Y004607D03*
X032003Y004607D03*
X032003Y003607D03*
X031003Y003607D03*
X030003Y003607D03*
X029003Y003607D03*
X028003Y003607D03*
X027003Y003607D03*
X026003Y003607D03*
X025003Y003607D03*
X024003Y003607D03*
X023003Y003607D03*
X022003Y003607D03*
X021003Y003607D03*
X020003Y003607D03*
X019003Y003607D03*
X018003Y003607D03*
X017003Y003607D03*
X016003Y003607D03*
X015003Y003607D03*
X014003Y003607D03*
X013003Y003607D03*
X012003Y003607D03*
X011003Y003607D03*
D12*
X029003Y005857D03*
D13*
X029003Y006857D03*
X029003Y007857D03*
X029003Y008857D03*
X026003Y008857D03*
X026003Y007857D03*
X026003Y006857D03*
X026003Y005857D03*
D14*
X024003Y006357D03*
X023003Y006357D03*
X023003Y007357D03*
X024003Y007357D03*
X022003Y007357D03*
X021003Y007357D03*
X021003Y006357D03*
X022003Y006357D03*
X024003Y009557D03*
X025503Y011557D03*
X024003Y013157D03*
X022503Y011557D03*
X020503Y012357D03*
X019503Y012357D03*
X018003Y012057D03*
X016003Y012357D03*
X015003Y012357D03*
X013444Y012671D03*
X013503Y011657D03*
X015003Y009357D03*
X016003Y009357D03*
X013503Y008057D03*
X011703Y006857D03*
X015303Y006857D03*
X015003Y015357D03*
X016003Y015357D03*
X018003Y015657D03*
X019503Y015357D03*
X020503Y015357D03*
X022503Y015157D03*
X021803Y017357D03*
X018203Y017357D03*
X013444Y016271D03*
X018388Y021011D03*
X021988Y021011D03*
X025503Y015157D03*
D15*
X019503Y009357D03*
D16*
X017503Y009357D03*
D17*
X019003Y007357D03*
X019003Y006357D03*
D18*
X016595Y017777D02*
X015410Y017777D01*
X015410Y019357D02*
X016595Y019357D01*
X016595Y020937D02*
X015410Y020937D01*
X012595Y020937D02*
X011410Y020937D01*
X011410Y019357D02*
X012595Y019357D01*
X012595Y017777D02*
X011410Y017777D01*
D19*
X011086Y015168D03*
X012086Y014668D03*
X011086Y014168D03*
X012086Y013668D03*
X034294Y014692D03*
X035294Y015192D03*
X035294Y016192D03*
X034294Y016692D03*
X034294Y015692D03*
X035294Y017192D03*
X034294Y017692D03*
X035294Y014192D03*
D20*
X025908Y021015D03*
X024908Y021015D03*
X023908Y021015D03*
D21*
X034449Y020956D02*
X035289Y020956D01*
X035289Y019578D02*
X034449Y019578D01*
D22*
X034904Y020731D02*
X035810Y019826D01*
X035810Y017739D01*
X035298Y017227D01*
X035294Y017192D01*
X035259Y016794D02*
X035141Y016794D01*
X034274Y017660D01*
X034294Y017692D01*
X034294Y016692D02*
X034314Y016676D01*
X034314Y016282D01*
X031991Y013960D01*
X024944Y021007D01*
X024908Y021015D01*
X024471Y020534D02*
X029235Y015771D01*
X029235Y014668D01*
X024589Y010023D01*
X023841Y010023D01*
X023566Y009747D01*
X023566Y007818D01*
X023999Y007385D01*
X024003Y007357D01*
X023448Y006912D02*
X023003Y007357D01*
X023448Y006912D02*
X023448Y006282D01*
X023999Y005731D01*
X023999Y004629D01*
X024003Y004607D01*
X024432Y004471D02*
X024038Y004078D01*
X024038Y003645D01*
X024003Y003607D01*
X024432Y004471D02*
X024432Y005928D01*
X024003Y006357D01*
X024038Y008251D02*
X025967Y006322D01*
X025967Y005889D01*
X026003Y005857D01*
X026003Y006857D02*
X026007Y006873D01*
X026007Y007306D01*
X034274Y015574D01*
X034274Y015692D01*
X034294Y015692D01*
X034314Y016243D02*
X035259Y015298D01*
X035259Y015219D01*
X035294Y015192D01*
X035692Y015023D02*
X035692Y016361D01*
X035259Y016794D01*
X034314Y016282D02*
X034314Y016243D01*
X035692Y015023D02*
X035298Y014629D01*
X035298Y014196D01*
X035294Y014192D01*
X031991Y013960D02*
X026007Y007975D01*
X026007Y007857D01*
X026003Y007857D01*
X024038Y008251D02*
X024038Y009550D01*
X024003Y009557D01*
X022463Y009156D02*
X022463Y005062D01*
X022030Y004629D01*
X022003Y004607D01*
X021003Y004607D02*
X020967Y004629D01*
X020574Y005023D01*
X020574Y007582D01*
X028448Y015456D01*
X028999Y015692D02*
X022463Y009156D01*
X020967Y009393D02*
X019511Y009393D01*
X019503Y009357D01*
X019471Y009393D01*
X018999Y009865D01*
X014668Y009865D01*
X011086Y013448D01*
X011086Y014168D01*
X011086Y014629D01*
X010692Y015023D01*
X010692Y019629D01*
X011991Y020928D01*
X012003Y020937D01*
X012030Y022503D02*
X013605Y020928D01*
X013605Y017385D01*
X013413Y016834D02*
X015067Y018487D01*
X016715Y018487D01*
X017306Y019078D01*
X017306Y020574D01*
X018408Y021676D01*
X018408Y022582D01*
X018999Y023172D01*
X018999Y023605D01*
X019003Y023607D01*
X019432Y023763D02*
X019432Y019629D01*
X015613Y015810D01*
X014235Y015810D01*
X012109Y013684D01*
X012086Y013668D01*
X013487Y013211D02*
X015456Y015180D01*
X015456Y015416D01*
X021400Y021361D01*
X021400Y022582D01*
X021991Y023172D01*
X021991Y023605D01*
X022003Y023607D01*
X021003Y023607D02*
X020967Y023645D01*
X020534Y023645D01*
X019983Y024196D01*
X016007Y024196D01*
X015416Y023605D01*
X015416Y021952D01*
X014708Y021243D01*
X014708Y020652D01*
X016003Y019357D01*
X013413Y016834D02*
X013015Y016834D01*
X012582Y016400D01*
X012582Y015101D01*
X012109Y014668D01*
X012086Y014668D01*
X013448Y012700D02*
X013444Y012671D01*
X013448Y012700D02*
X014314Y012700D01*
X022424Y020810D01*
X022424Y022621D01*
X022975Y023172D01*
X022975Y023605D01*
X023003Y023607D01*
X023999Y023605D02*
X023999Y023172D01*
X023408Y022582D01*
X023408Y021282D01*
X021834Y019708D01*
X021834Y017385D01*
X021803Y017357D01*
X022267Y017188D02*
X020889Y015810D01*
X018133Y015810D01*
X018015Y015692D01*
X018003Y015657D01*
X022267Y017188D02*
X022267Y019944D01*
X023999Y021676D01*
X023999Y022582D01*
X024003Y022607D01*
X024353Y022818D02*
X024471Y022700D01*
X024471Y020534D01*
X024353Y022818D02*
X024353Y023251D01*
X024003Y023607D02*
X023999Y023605D01*
X019432Y023763D02*
X019156Y024038D01*
X018841Y024038D01*
X018448Y023645D01*
X018015Y023645D01*
X018003Y023607D01*
X012030Y022582D02*
X012030Y022503D01*
X012030Y022582D02*
X012003Y022607D01*
X022503Y015157D02*
X022503Y015141D01*
X023999Y013645D01*
X023999Y013172D01*
X024003Y013157D01*
X025219Y013645D02*
X020967Y009393D01*
X016873Y009589D02*
X014156Y006873D01*
X011715Y006873D01*
X011703Y006857D01*
X034904Y020731D02*
X034904Y020928D01*
X034869Y020956D01*
D23*
X008362Y007748D02*
X008362Y002966D01*
X031503Y002966D01*
X031887Y002981D01*
X032645Y003101D01*
X033375Y003338D01*
X034058Y003687D01*
X034679Y004138D01*
X035222Y004681D01*
X035673Y005302D01*
X036022Y005985D01*
X036259Y006715D01*
X036379Y007473D01*
X036394Y007857D01*
X036394Y019357D01*
X036379Y019741D01*
X036259Y020499D01*
X036022Y021229D01*
X035673Y021913D01*
X035222Y022534D01*
X034679Y023076D01*
X034058Y023527D01*
X033375Y023876D01*
X032645Y024113D01*
X031887Y024233D01*
X031503Y024248D01*
X020183Y024248D01*
X020608Y023823D01*
X020622Y023823D01*
X020635Y023853D01*
X020757Y023975D01*
X020916Y024041D01*
X021089Y024041D01*
X021249Y023975D01*
X021371Y023853D01*
X021437Y023694D01*
X021437Y023521D01*
X021371Y023361D01*
X021249Y023239D01*
X021089Y023173D01*
X020916Y023173D01*
X020757Y023239D01*
X020635Y023361D01*
X020591Y023466D01*
X020460Y023466D01*
X020428Y023499D01*
X020371Y023361D01*
X020249Y023239D01*
X020089Y023173D01*
X019916Y023173D01*
X019757Y023239D01*
X019635Y023361D01*
X019610Y023420D01*
X019610Y022795D01*
X019635Y022853D01*
X019757Y022975D01*
X019916Y023041D01*
X020089Y023041D01*
X020249Y022975D01*
X020371Y022853D01*
X020437Y022694D01*
X020437Y022521D01*
X020371Y022361D01*
X020249Y022239D01*
X020089Y022173D01*
X019916Y022173D01*
X019757Y022239D01*
X019635Y022361D01*
X019610Y022420D01*
X019610Y019823D01*
X021222Y021435D01*
X021222Y022228D01*
X021089Y022173D01*
X020916Y022173D01*
X020757Y022239D01*
X020635Y022361D01*
X020569Y022521D01*
X020569Y022694D01*
X020635Y022853D01*
X020757Y022975D01*
X020916Y023041D01*
X021089Y023041D01*
X021249Y022975D01*
X021371Y022853D01*
X021385Y022819D01*
X021791Y023225D01*
X021215Y023225D01*
X021380Y023383D02*
X021625Y023383D01*
X021635Y023361D02*
X021757Y023239D01*
X021791Y023225D01*
X021635Y023361D02*
X021569Y023521D01*
X021569Y023694D01*
X021635Y023853D01*
X021757Y023975D01*
X021916Y024041D01*
X022089Y024041D01*
X022249Y023975D01*
X022371Y023853D01*
X022437Y023694D01*
X022437Y023521D01*
X022371Y023361D01*
X022249Y023239D01*
X022169Y023206D01*
X022169Y023098D01*
X022106Y023035D01*
X022249Y022975D01*
X022371Y022853D01*
X022381Y022830D01*
X022780Y023229D01*
X022757Y023239D01*
X022635Y023361D01*
X022569Y023521D01*
X022569Y023694D01*
X022635Y023853D01*
X022757Y023975D01*
X022916Y024041D01*
X023089Y024041D01*
X023249Y023975D01*
X023371Y023853D01*
X023437Y023694D01*
X023437Y023521D01*
X023371Y023361D01*
X023249Y023239D01*
X023154Y023200D01*
X023154Y023098D01*
X023095Y023039D01*
X023249Y022975D01*
X023371Y022853D01*
X023388Y022813D01*
X023797Y023222D01*
X023757Y023239D01*
X023635Y023361D01*
X023569Y023521D01*
X023569Y023694D01*
X023635Y023853D01*
X023757Y023975D01*
X023916Y024041D01*
X024089Y024041D01*
X024249Y023975D01*
X024371Y023853D01*
X024437Y023694D01*
X024437Y023521D01*
X024428Y023498D01*
X024499Y023469D01*
X024571Y023397D01*
X024610Y023302D01*
X024610Y023200D01*
X024571Y023105D01*
X024532Y023066D01*
X024532Y022892D01*
X024545Y022878D01*
X024616Y022808D01*
X024635Y022853D01*
X024757Y022975D01*
X024916Y023041D01*
X025089Y023041D01*
X025249Y022975D01*
X025371Y022853D01*
X025437Y022694D01*
X025437Y022521D01*
X025371Y022361D01*
X025249Y022239D01*
X025089Y022173D01*
X024916Y022173D01*
X024757Y022239D01*
X024650Y022346D01*
X024650Y021377D01*
X024660Y021387D01*
X024821Y021454D01*
X024996Y021454D01*
X025157Y021387D01*
X025281Y021263D01*
X025347Y021102D01*
X025347Y020927D01*
X025326Y020877D01*
X031991Y014212D01*
X034098Y016319D01*
X034057Y016337D01*
X033939Y016454D01*
X033875Y016608D01*
X033875Y016775D01*
X033939Y016929D01*
X034057Y017047D01*
X034211Y017111D01*
X034378Y017111D01*
X034532Y017047D01*
X034649Y016929D01*
X034713Y016775D01*
X034713Y016608D01*
X034649Y016454D01*
X034532Y016337D01*
X034492Y016320D01*
X034492Y016317D01*
X035202Y015607D01*
X035211Y015611D01*
X035378Y015611D01*
X035532Y015547D01*
X035649Y015429D01*
X035713Y015275D01*
X035713Y015108D01*
X035649Y014954D01*
X035532Y014837D01*
X035378Y014773D01*
X035211Y014773D01*
X035057Y014837D01*
X034939Y014954D01*
X034875Y015108D01*
X034875Y015275D01*
X034920Y015384D01*
X034708Y015596D01*
X034649Y015454D01*
X034532Y015337D01*
X034378Y015273D01*
X034226Y015273D01*
X026197Y007244D01*
X026247Y007223D01*
X026369Y007102D01*
X026434Y006943D01*
X026434Y006771D01*
X026369Y006613D01*
X026247Y006491D01*
X026108Y006434D01*
X026146Y006396D01*
X026146Y006265D01*
X026247Y006223D01*
X026369Y006102D01*
X026434Y005943D01*
X026434Y005771D01*
X026369Y005613D01*
X026247Y005491D01*
X026089Y005426D01*
X025917Y005426D01*
X025758Y005491D01*
X025637Y005613D01*
X025571Y005771D01*
X025571Y005943D01*
X025637Y006102D01*
X025758Y006223D01*
X025789Y006236D01*
X025789Y006248D01*
X023964Y008072D01*
X023860Y008177D01*
X023860Y009088D01*
X023809Y009088D01*
X023744Y009152D01*
X023744Y007892D01*
X023810Y007826D01*
X024197Y007826D01*
X024472Y007551D01*
X024472Y007163D01*
X024197Y006888D01*
X023809Y006888D01*
X023534Y007163D01*
X023534Y007551D01*
X023557Y007574D01*
X023387Y007744D01*
X023387Y009821D01*
X023492Y009925D01*
X023768Y010201D01*
X024516Y010201D01*
X025403Y011088D01*
X025309Y011088D01*
X025034Y011363D01*
X025034Y011474D01*
X022642Y009082D01*
X022642Y007660D01*
X022809Y007826D01*
X023197Y007826D01*
X023472Y007551D01*
X023472Y007163D01*
X023461Y007152D01*
X023626Y006986D01*
X023626Y006644D01*
X023809Y006826D01*
X024197Y006826D01*
X024472Y006551D01*
X024472Y006163D01*
X024461Y006152D01*
X024610Y006002D01*
X024610Y004795D01*
X024635Y004853D01*
X024757Y004975D01*
X024916Y005041D01*
X025089Y005041D01*
X025249Y004975D01*
X025371Y004853D01*
X025437Y004694D01*
X025437Y004521D01*
X025371Y004361D01*
X025249Y004239D01*
X025089Y004173D01*
X024916Y004173D01*
X024757Y004239D01*
X024635Y004361D01*
X024610Y004420D01*
X024610Y004397D01*
X024506Y004293D01*
X024217Y004004D01*
X024217Y003989D01*
X024249Y003975D01*
X024371Y003853D01*
X024437Y003694D01*
X024437Y003521D01*
X024371Y003361D01*
X024249Y003239D01*
X024089Y003173D01*
X023916Y003173D01*
X023757Y003239D01*
X023635Y003361D01*
X023569Y003521D01*
X023569Y003694D01*
X023635Y003853D01*
X023757Y003975D01*
X023860Y004018D01*
X023860Y004152D01*
X023891Y004183D01*
X023757Y004239D01*
X023635Y004361D01*
X023569Y004521D01*
X023569Y004694D01*
X023635Y004853D01*
X023757Y004975D01*
X023820Y005002D01*
X023820Y005657D01*
X023393Y006084D01*
X023197Y005888D01*
X022809Y005888D01*
X022642Y006055D01*
X022642Y004988D01*
X022411Y004757D01*
X022437Y004694D01*
X022437Y004521D01*
X022371Y004361D01*
X022249Y004239D01*
X022089Y004173D01*
X021916Y004173D01*
X021757Y004239D01*
X021635Y004361D01*
X021569Y004521D01*
X021569Y004694D01*
X021635Y004853D01*
X021757Y004975D01*
X021916Y005041D01*
X022089Y005041D01*
X022161Y005012D01*
X022285Y005136D01*
X022285Y005976D01*
X022197Y005888D01*
X021809Y005888D01*
X021534Y006163D01*
X021534Y006551D01*
X021809Y006826D01*
X022197Y006826D01*
X022285Y006738D01*
X022285Y006976D01*
X022197Y006888D01*
X021809Y006888D01*
X021534Y007163D01*
X021534Y007551D01*
X021809Y007826D01*
X022197Y007826D01*
X022285Y007738D01*
X022285Y009041D01*
X021071Y007826D01*
X021197Y007826D01*
X021472Y007551D01*
X021472Y007163D01*
X021197Y006888D01*
X020809Y006888D01*
X020752Y006945D01*
X020752Y006828D01*
X020792Y006867D01*
X020983Y006867D01*
X020983Y006377D01*
X021023Y006377D01*
X021513Y006377D01*
X021513Y006568D01*
X021214Y006867D01*
X021023Y006867D01*
X021023Y006377D01*
X021023Y006337D01*
X021513Y006337D01*
X021513Y006146D01*
X021214Y005847D01*
X021023Y005847D01*
X021023Y006337D01*
X020983Y006337D01*
X020983Y005847D01*
X020792Y005847D01*
X020752Y005887D01*
X020752Y005096D01*
X020839Y005009D01*
X020916Y005041D01*
X021089Y005041D01*
X021249Y004975D01*
X021371Y004853D01*
X021437Y004694D01*
X021437Y004521D01*
X021371Y004361D01*
X021249Y004239D01*
X021089Y004173D01*
X020916Y004173D01*
X020757Y004239D01*
X020635Y004361D01*
X020569Y004521D01*
X020569Y004694D01*
X020592Y004751D01*
X020395Y004949D01*
X020395Y007655D01*
X020500Y007760D01*
X028191Y015451D01*
X028191Y015507D01*
X028230Y015601D01*
X028302Y015674D01*
X028397Y015713D01*
X028499Y015713D01*
X028593Y015674D01*
X028661Y015606D01*
X028742Y015687D01*
X028742Y015743D01*
X028781Y015837D01*
X028848Y015905D01*
X024293Y020460D01*
X024293Y020796D01*
X024281Y020766D01*
X024157Y020642D01*
X023996Y020576D01*
X023821Y020576D01*
X023660Y020642D01*
X023536Y020766D01*
X023479Y020904D01*
X022445Y019870D01*
X022445Y017114D01*
X020963Y015631D01*
X020950Y015631D01*
X021013Y015568D01*
X021013Y015357D01*
X020503Y015357D01*
X020503Y015357D01*
X020503Y014847D01*
X020714Y014847D01*
X021013Y015146D01*
X021013Y015357D01*
X020503Y015357D01*
X020503Y015357D01*
X020503Y014847D01*
X020292Y014847D01*
X019993Y015146D01*
X019993Y015357D01*
X020503Y015357D01*
X020503Y015357D01*
X019993Y015357D01*
X019993Y015568D01*
X020056Y015631D01*
X019892Y015631D01*
X019972Y015551D01*
X019972Y015163D01*
X019697Y014888D01*
X019309Y014888D01*
X019034Y015163D01*
X019034Y015551D01*
X019114Y015631D01*
X018472Y015631D01*
X018472Y015463D01*
X018197Y015188D01*
X017809Y015188D01*
X017534Y015463D01*
X017534Y015667D01*
X014492Y012626D01*
X014388Y012521D01*
X013913Y012521D01*
X013913Y012477D01*
X013638Y012202D01*
X013249Y012202D01*
X012975Y012477D01*
X012975Y012866D01*
X013241Y013132D01*
X013230Y013160D01*
X013230Y013263D01*
X013269Y013357D01*
X013341Y013430D01*
X013436Y013469D01*
X013492Y013469D01*
X014911Y014888D01*
X014809Y014888D01*
X014534Y015163D01*
X014534Y015551D01*
X014614Y015631D01*
X014309Y015631D01*
X012482Y013805D01*
X012505Y013752D01*
X012505Y013585D01*
X012441Y013431D01*
X012323Y013313D01*
X012169Y013249D01*
X012002Y013249D01*
X011848Y013313D01*
X011730Y013431D01*
X011666Y013585D01*
X011666Y013752D01*
X011730Y013906D01*
X011848Y014023D01*
X012002Y014087D01*
X012169Y014087D01*
X012233Y014061D01*
X014161Y015988D01*
X015539Y015988D01*
X016555Y017005D01*
X016083Y017005D01*
X016083Y017697D01*
X017248Y017697D01*
X019254Y019703D01*
X019254Y022244D01*
X019249Y022239D01*
X019089Y022173D01*
X018916Y022173D01*
X018757Y022239D01*
X018635Y022361D01*
X018587Y022477D01*
X018587Y021602D01*
X018464Y021480D01*
X018582Y021480D01*
X018857Y021205D01*
X018857Y020816D01*
X018582Y020542D01*
X018194Y020542D01*
X017919Y020816D01*
X017919Y020934D01*
X017484Y020500D01*
X017484Y019004D01*
X016947Y018466D01*
X017025Y018421D01*
X017106Y018359D01*
X017177Y018288D01*
X017239Y018207D01*
X017290Y018120D01*
X017328Y018026D01*
X017355Y017928D01*
X017364Y017857D01*
X016083Y017857D01*
X016083Y017697D01*
X015923Y017697D01*
X015923Y017005D01*
X015360Y017005D01*
X015259Y017018D01*
X015161Y017044D01*
X015068Y017083D01*
X014980Y017133D01*
X014900Y017195D01*
X014828Y017267D01*
X014767Y017347D01*
X014716Y017435D01*
X014677Y017528D01*
X014651Y017626D01*
X014642Y017697D01*
X015923Y017697D01*
X015923Y017857D01*
X014689Y017857D01*
X013572Y016740D01*
X013638Y016740D01*
X013913Y016466D01*
X013913Y016077D01*
X013638Y015802D01*
X013249Y015802D01*
X012975Y016077D01*
X012975Y016466D01*
X013164Y016655D01*
X013089Y016655D01*
X012760Y016327D01*
X012760Y015171D01*
X012763Y015167D01*
X012760Y015097D01*
X012760Y015027D01*
X012757Y015024D01*
X012757Y015020D01*
X012705Y014972D01*
X012655Y014923D01*
X012651Y014923D01*
X012493Y014778D01*
X012505Y014752D01*
X012505Y014585D01*
X012441Y014431D01*
X012323Y014313D01*
X012169Y014249D01*
X012002Y014249D01*
X011848Y014313D01*
X011730Y014431D01*
X011666Y014585D01*
X011666Y014752D01*
X011730Y014906D01*
X011848Y015023D01*
X012002Y015087D01*
X012169Y015087D01*
X012261Y015049D01*
X012403Y015180D01*
X012403Y016474D01*
X012508Y016579D01*
X012836Y016907D01*
X012941Y017012D01*
X013339Y017012D01*
X013484Y017157D01*
X013460Y017167D01*
X013387Y017239D01*
X013348Y017334D01*
X013348Y017436D01*
X013387Y017530D01*
X013427Y017570D01*
X013427Y020854D01*
X013327Y020954D01*
X013327Y020792D01*
X013216Y020523D01*
X013010Y020317D01*
X012741Y020206D01*
X011521Y020206D01*
X011404Y020089D01*
X012741Y020089D01*
X013010Y019977D01*
X013216Y019772D01*
X013327Y019503D01*
X013327Y019212D01*
X013216Y018943D01*
X013010Y018737D01*
X012741Y018626D01*
X011265Y018626D01*
X010996Y018737D01*
X010870Y018863D01*
X010870Y018330D01*
X010900Y018359D01*
X010980Y018421D01*
X011068Y018471D01*
X011161Y018510D01*
X011259Y018536D01*
X011360Y018550D01*
X011923Y018550D01*
X011923Y017857D01*
X012083Y017857D01*
X013364Y017857D01*
X013355Y017928D01*
X013328Y018026D01*
X013290Y018120D01*
X013239Y018207D01*
X013177Y018288D01*
X013106Y018359D01*
X013025Y018421D01*
X012938Y018471D01*
X012844Y018510D01*
X012746Y018536D01*
X012646Y018550D01*
X012083Y018550D01*
X012083Y017857D01*
X012083Y017697D01*
X013364Y017697D01*
X013355Y017626D01*
X013328Y017528D01*
X013290Y017435D01*
X013239Y017347D01*
X013177Y017267D01*
X013106Y017195D01*
X013025Y017133D01*
X012938Y017083D01*
X012844Y017044D01*
X012746Y017018D01*
X012646Y017005D01*
X012083Y017005D01*
X012083Y017697D01*
X011923Y017697D01*
X011923Y017005D01*
X011360Y017005D01*
X011259Y017018D01*
X011161Y017044D01*
X011068Y017083D01*
X010980Y017133D01*
X010900Y017195D01*
X010870Y017225D01*
X010870Y015575D01*
X010909Y015594D01*
X010978Y015617D01*
X011049Y015628D01*
X011086Y015628D01*
X011086Y015168D01*
X011086Y015168D01*
X011546Y015168D01*
X011546Y015132D01*
X011534Y015060D01*
X011512Y014992D01*
X011479Y014927D01*
X011436Y014869D01*
X011385Y014817D01*
X011327Y014775D01*
X011262Y014742D01*
X011234Y014733D01*
X011264Y014703D01*
X011264Y014548D01*
X011323Y014523D01*
X011441Y014406D01*
X011505Y014252D01*
X011505Y014085D01*
X011441Y013931D01*
X011323Y013813D01*
X011264Y013789D01*
X011264Y013522D01*
X013034Y011752D01*
X013034Y011851D01*
X013309Y012126D01*
X013697Y012126D01*
X013972Y011851D01*
X013972Y011463D01*
X013697Y011188D01*
X013597Y011188D01*
X014742Y010043D01*
X019073Y010043D01*
X019291Y009826D01*
X019401Y009871D01*
X019605Y009871D01*
X019794Y009793D01*
X019939Y009648D01*
X019971Y009571D01*
X020893Y009571D01*
X022411Y011088D01*
X022309Y011088D01*
X022034Y011363D01*
X022034Y011751D01*
X022309Y012026D01*
X022697Y012026D01*
X022972Y011751D01*
X022972Y011649D01*
X023970Y012647D01*
X023792Y012647D01*
X023493Y012946D01*
X023493Y013157D01*
X024003Y013157D01*
X024003Y013157D01*
X024003Y013157D01*
X024003Y013667D01*
X024214Y013667D01*
X024513Y013368D01*
X024513Y013190D01*
X024962Y013640D01*
X024962Y013696D01*
X025001Y013790D01*
X025074Y013863D01*
X025168Y013902D01*
X025271Y013902D01*
X025365Y013863D01*
X025437Y013790D01*
X025477Y013696D01*
X025477Y013593D01*
X025437Y013499D01*
X025365Y013427D01*
X025271Y013387D01*
X025215Y013387D01*
X021146Y009319D01*
X021041Y009214D01*
X020000Y009214D01*
X019939Y009066D01*
X019794Y008921D01*
X019605Y008843D01*
X019401Y008843D01*
X019212Y008921D01*
X019067Y009066D01*
X018989Y009255D01*
X018989Y009459D01*
X019037Y009575D01*
X018925Y009687D01*
X017958Y009687D01*
X018058Y009587D01*
X018058Y009357D01*
X017503Y009357D01*
X017503Y009357D01*
X017503Y008802D01*
X017733Y008802D01*
X018058Y009127D01*
X018058Y009357D01*
X017503Y009357D01*
X017503Y009357D01*
X017503Y008802D01*
X017273Y008802D01*
X016948Y009127D01*
X016948Y009342D01*
X016924Y009332D01*
X016868Y009332D01*
X014335Y006799D01*
X014335Y006799D01*
X014230Y006694D01*
X012172Y006694D01*
X012172Y006663D01*
X011897Y006388D01*
X011509Y006388D01*
X011234Y006663D01*
X011234Y007051D01*
X011509Y007326D01*
X011897Y007326D01*
X012172Y007051D01*
X012172Y007051D01*
X014082Y007051D01*
X015878Y008847D01*
X015792Y008847D01*
X015493Y009146D01*
X015493Y009357D01*
X016003Y009357D01*
X016003Y009357D01*
X015493Y009357D01*
X015493Y009568D01*
X015611Y009687D01*
X015337Y009687D01*
X015472Y009551D01*
X015472Y009163D01*
X015197Y008888D01*
X014809Y008888D01*
X014534Y009163D01*
X014534Y009551D01*
X014669Y009687D01*
X014594Y009687D01*
X014490Y009791D01*
X010907Y013374D01*
X010907Y013789D01*
X010848Y013813D01*
X010730Y013931D01*
X010666Y014085D01*
X010666Y014252D01*
X010730Y014406D01*
X010848Y014523D01*
X010907Y014548D01*
X010907Y014555D01*
X010618Y014844D01*
X010612Y014850D01*
X010612Y009841D01*
X010493Y009323D01*
X010493Y009323D01*
X010263Y008844D01*
X010263Y008844D01*
X009931Y008429D01*
X009931Y008429D01*
X009931Y008429D01*
X009516Y008097D01*
X009516Y008097D01*
X009037Y007867D01*
X009037Y007867D01*
X008519Y007748D01*
X008362Y007748D01*
X008362Y007692D02*
X013205Y007692D01*
X013309Y007588D02*
X013697Y007588D01*
X013972Y007863D01*
X013972Y008251D01*
X013697Y008526D01*
X013309Y008526D01*
X013034Y008251D01*
X013034Y007863D01*
X013309Y007588D01*
X013046Y007850D02*
X008966Y007850D01*
X009333Y008009D02*
X013034Y008009D01*
X013034Y008167D02*
X009604Y008167D01*
X009803Y008326D02*
X013108Y008326D01*
X013267Y008484D02*
X009976Y008484D01*
X010102Y008643D02*
X015674Y008643D01*
X015516Y008484D02*
X013739Y008484D01*
X013897Y008326D02*
X015357Y008326D01*
X015199Y008167D02*
X013972Y008167D01*
X013972Y008009D02*
X015040Y008009D01*
X014882Y007850D02*
X013959Y007850D01*
X013801Y007692D02*
X014723Y007692D01*
X014565Y007533D02*
X008362Y007533D01*
X008362Y007375D02*
X014406Y007375D01*
X014248Y007216D02*
X012007Y007216D01*
X012165Y007058D02*
X014089Y007058D01*
X014277Y006741D02*
X014834Y006741D01*
X014834Y006663D02*
X015109Y006388D01*
X015497Y006388D01*
X015772Y006663D01*
X015772Y007051D01*
X015497Y007326D01*
X015109Y007326D01*
X014834Y007051D01*
X014834Y006663D01*
X014914Y006582D02*
X012091Y006582D01*
X011933Y006424D02*
X015073Y006424D01*
X015533Y006424D02*
X018583Y006424D01*
X018583Y006357D02*
X019003Y006357D01*
X019003Y006357D01*
X019423Y006357D01*
X019423Y006183D01*
X019177Y005937D01*
X019003Y005937D01*
X019003Y006357D01*
X019003Y006357D01*
X019423Y006357D01*
X019423Y006531D01*
X019177Y006777D01*
X019003Y006777D01*
X019003Y006357D01*
X019003Y005937D01*
X018829Y005937D01*
X018583Y006183D01*
X018583Y006357D01*
X019003Y006357D01*
X019003Y006357D01*
X019003Y006357D01*
X019003Y006777D01*
X018829Y006777D01*
X018583Y006531D01*
X018583Y006357D01*
X018583Y006265D02*
X008362Y006265D01*
X008362Y006107D02*
X018659Y006107D01*
X018818Y005948D02*
X008362Y005948D01*
X008362Y005790D02*
X020395Y005790D01*
X020395Y005948D02*
X019188Y005948D01*
X019003Y005948D02*
X019003Y005948D01*
X019003Y006107D02*
X019003Y006107D01*
X019003Y006265D02*
X019003Y006265D01*
X019003Y006424D02*
X019003Y006424D01*
X019003Y006582D02*
X019003Y006582D01*
X019003Y006741D02*
X019003Y006741D01*
X019213Y006741D02*
X020395Y006741D01*
X020395Y006899D02*
X015772Y006899D01*
X015772Y006741D02*
X018793Y006741D01*
X018634Y006582D02*
X015691Y006582D01*
X015765Y007058D02*
X018766Y007058D01*
X018846Y006978D02*
X018624Y007200D01*
X018624Y007514D01*
X018846Y007736D01*
X019160Y007736D01*
X019382Y007514D01*
X019382Y007200D01*
X019160Y006978D01*
X018846Y006978D01*
X018624Y007216D02*
X015607Y007216D01*
X015228Y007692D02*
X018802Y007692D01*
X018643Y007533D02*
X015069Y007533D01*
X014911Y007375D02*
X018624Y007375D01*
X019204Y007692D02*
X020432Y007692D01*
X020395Y007533D02*
X019363Y007533D01*
X019382Y007375D02*
X020395Y007375D01*
X020395Y007216D02*
X019382Y007216D01*
X019240Y007058D02*
X020395Y007058D01*
X020752Y006899D02*
X020797Y006899D01*
X020983Y006741D02*
X021023Y006741D01*
X021023Y006582D02*
X020983Y006582D01*
X020983Y006424D02*
X021023Y006424D01*
X021023Y006265D02*
X020983Y006265D01*
X020983Y006107D02*
X021023Y006107D01*
X021023Y005948D02*
X020983Y005948D01*
X020752Y005790D02*
X022285Y005790D01*
X022285Y005948D02*
X022257Y005948D01*
X022285Y005631D02*
X020752Y005631D01*
X020752Y005473D02*
X022285Y005473D01*
X022285Y005314D02*
X020752Y005314D01*
X020752Y005156D02*
X022285Y005156D01*
X022642Y005156D02*
X023820Y005156D01*
X023820Y005314D02*
X022642Y005314D01*
X022642Y005473D02*
X023820Y005473D01*
X023820Y005631D02*
X022642Y005631D01*
X022642Y005790D02*
X023688Y005790D01*
X023529Y005948D02*
X023257Y005948D01*
X022748Y005948D02*
X022642Y005948D01*
X021748Y005948D02*
X021315Y005948D01*
X021474Y006107D02*
X021590Y006107D01*
X021534Y006265D02*
X021513Y006265D01*
X021513Y006424D02*
X021534Y006424D01*
X021499Y006582D02*
X021565Y006582D01*
X021723Y006741D02*
X021340Y006741D01*
X021208Y006899D02*
X021797Y006899D01*
X021639Y007058D02*
X021367Y007058D01*
X021472Y007216D02*
X021534Y007216D01*
X021534Y007375D02*
X021472Y007375D01*
X021472Y007533D02*
X021534Y007533D01*
X021674Y007692D02*
X021331Y007692D01*
X021095Y007850D02*
X022285Y007850D01*
X022285Y008009D02*
X021253Y008009D01*
X021412Y008167D02*
X022285Y008167D01*
X022285Y008326D02*
X021570Y008326D01*
X021729Y008484D02*
X022285Y008484D01*
X022285Y008643D02*
X021887Y008643D01*
X022046Y008801D02*
X022285Y008801D01*
X022285Y008960D02*
X022204Y008960D01*
X022017Y009277D02*
X021104Y009277D01*
X021263Y009435D02*
X022175Y009435D01*
X022334Y009594D02*
X021421Y009594D01*
X021580Y009752D02*
X022492Y009752D01*
X022651Y009911D02*
X021738Y009911D01*
X021897Y010069D02*
X022809Y010069D01*
X022968Y010228D02*
X022055Y010228D01*
X022214Y010386D02*
X023126Y010386D01*
X023285Y010545D02*
X022372Y010545D01*
X022531Y010703D02*
X023443Y010703D01*
X023602Y010862D02*
X022689Y010862D01*
X022848Y011020D02*
X023760Y011020D01*
X023919Y011179D02*
X023006Y011179D01*
X023165Y011337D02*
X024077Y011337D01*
X024236Y011496D02*
X023323Y011496D01*
X023482Y011654D02*
X024394Y011654D01*
X024553Y011813D02*
X023640Y011813D01*
X023799Y011971D02*
X024711Y011971D01*
X024870Y012130D02*
X023957Y012130D01*
X024116Y012288D02*
X025028Y012288D01*
X025187Y012447D02*
X024274Y012447D01*
X024433Y012605D02*
X025345Y012605D01*
X025504Y012764D02*
X024591Y012764D01*
X024750Y012922D02*
X025662Y012922D01*
X025821Y013081D02*
X024908Y013081D01*
X025067Y013239D02*
X025979Y013239D01*
X026138Y013398D02*
X025296Y013398D01*
X025461Y013556D02*
X026296Y013556D01*
X026455Y013715D02*
X025469Y013715D01*
X025339Y013873D02*
X026613Y013873D01*
X026772Y014032D02*
X015898Y014032D01*
X015740Y013873D02*
X025100Y013873D01*
X024970Y013715D02*
X015581Y013715D01*
X015423Y013556D02*
X023681Y013556D01*
X023792Y013667D02*
X023493Y013368D01*
X023493Y013157D01*
X024003Y013157D01*
X024003Y013667D01*
X023792Y013667D01*
X024003Y013556D02*
X024003Y013556D01*
X024003Y013398D02*
X024003Y013398D01*
X024003Y013239D02*
X024003Y013239D01*
X024325Y013556D02*
X024879Y013556D01*
X024720Y013398D02*
X024483Y013398D01*
X024513Y013239D02*
X024562Y013239D01*
X023928Y012605D02*
X020976Y012605D01*
X021013Y012568D02*
X020714Y012867D01*
X020503Y012867D01*
X020503Y012357D01*
X020503Y012357D01*
X021013Y012357D01*
X021013Y012146D01*
X020714Y011847D01*
X020503Y011847D01*
X020503Y012357D01*
X020503Y012357D01*
X021013Y012357D01*
X021013Y012568D01*
X021013Y012447D02*
X023769Y012447D01*
X023611Y012288D02*
X021013Y012288D01*
X020997Y012130D02*
X023452Y012130D01*
X023294Y011971D02*
X022752Y011971D01*
X022910Y011813D02*
X023135Y011813D01*
X022977Y011654D02*
X022972Y011654D01*
X022254Y011971D02*
X020838Y011971D01*
X020503Y011971D02*
X020503Y011971D01*
X020503Y011847D02*
X020503Y012357D01*
X019993Y012357D01*
X019993Y012146D01*
X020292Y011847D01*
X020503Y011847D01*
X020503Y012130D02*
X020503Y012130D01*
X020503Y012288D02*
X020503Y012288D01*
X020503Y012357D02*
X020503Y012357D01*
X020503Y012357D01*
X019993Y012357D01*
X019993Y012568D01*
X020292Y012867D01*
X020503Y012867D01*
X020503Y012357D01*
X020503Y012447D02*
X020503Y012447D01*
X020503Y012605D02*
X020503Y012605D01*
X020503Y012764D02*
X020503Y012764D01*
X020817Y012764D02*
X023675Y012764D01*
X023516Y012922D02*
X014789Y012922D01*
X014809Y012826D02*
X014534Y012551D01*
X014534Y012163D01*
X014809Y011888D01*
X015197Y011888D01*
X015472Y012163D01*
X015472Y012551D01*
X015197Y012826D01*
X014809Y012826D01*
X014746Y012764D02*
X014630Y012764D01*
X014588Y012605D02*
X014472Y012605D01*
X014534Y012447D02*
X013883Y012447D01*
X013724Y012288D02*
X014534Y012288D01*
X014567Y012130D02*
X012656Y012130D01*
X012814Y011971D02*
X013154Y011971D01*
X013034Y011813D02*
X012973Y011813D01*
X012785Y011496D02*
X010612Y011496D01*
X010612Y011654D02*
X012626Y011654D01*
X012468Y011813D02*
X010612Y011813D01*
X010612Y011971D02*
X012309Y011971D01*
X012151Y012130D02*
X010612Y012130D01*
X010612Y012288D02*
X011992Y012288D01*
X011834Y012447D02*
X010612Y012447D01*
X010612Y012605D02*
X011675Y012605D01*
X011517Y012764D02*
X010612Y012764D01*
X010612Y012922D02*
X011358Y012922D01*
X011200Y013081D02*
X010612Y013081D01*
X010612Y013239D02*
X011041Y013239D01*
X010907Y013398D02*
X010612Y013398D01*
X010612Y013556D02*
X010907Y013556D01*
X010907Y013715D02*
X010612Y013715D01*
X010612Y013873D02*
X010788Y013873D01*
X010688Y014032D02*
X010612Y014032D01*
X010612Y014190D02*
X010666Y014190D01*
X010707Y014349D02*
X010612Y014349D01*
X010612Y014507D02*
X010832Y014507D01*
X010796Y014666D02*
X010612Y014666D01*
X010612Y014824D02*
X010638Y014824D01*
X011086Y015168D02*
X011086Y015628D01*
X011122Y015628D01*
X011193Y015617D01*
X011262Y015594D01*
X011327Y015562D01*
X011385Y015519D01*
X011436Y015468D01*
X011479Y015409D01*
X011512Y015345D01*
X011534Y015276D01*
X011546Y015204D01*
X011546Y015168D01*
X011086Y015168D01*
X011086Y015168D01*
X011086Y015300D02*
X011086Y015300D01*
X011086Y015458D02*
X011086Y015458D01*
X011086Y015617D02*
X011086Y015617D01*
X011193Y015617D02*
X011610Y015617D01*
X011620Y015591D02*
X011727Y015485D01*
X011866Y015427D01*
X012017Y015427D01*
X012157Y015485D01*
X012263Y015591D01*
X012321Y015731D01*
X012321Y015881D01*
X012263Y016021D01*
X012157Y016127D01*
X012017Y016185D01*
X011866Y016185D01*
X011727Y016127D01*
X011620Y016021D01*
X011563Y015881D01*
X011563Y015731D01*
X011620Y015591D01*
X011563Y015775D02*
X010870Y015775D01*
X010870Y015617D02*
X010978Y015617D01*
X010870Y015934D02*
X011584Y015934D01*
X011692Y016092D02*
X010870Y016092D01*
X010870Y016251D02*
X012403Y016251D01*
X012403Y016409D02*
X010870Y016409D01*
X010870Y016568D02*
X012497Y016568D01*
X012655Y016726D02*
X010870Y016726D01*
X010870Y016885D02*
X012814Y016885D01*
X012842Y017043D02*
X013371Y017043D01*
X013424Y017202D02*
X013113Y017202D01*
X013247Y017360D02*
X013348Y017360D01*
X013325Y017519D02*
X013382Y017519D01*
X013361Y017677D02*
X013427Y017677D01*
X013427Y017836D02*
X012083Y017836D01*
X012083Y017994D02*
X011923Y017994D01*
X011923Y018153D02*
X012083Y018153D01*
X012083Y018311D02*
X011923Y018311D01*
X011923Y018470D02*
X012083Y018470D01*
X012748Y018628D02*
X013427Y018628D01*
X013427Y018470D02*
X012940Y018470D01*
X013154Y018311D02*
X013427Y018311D01*
X013427Y018153D02*
X013270Y018153D01*
X013337Y017994D02*
X013427Y017994D01*
X013784Y017994D02*
X014322Y017994D01*
X014163Y017836D02*
X013784Y017836D01*
X013784Y017677D02*
X014005Y017677D01*
X013846Y017519D02*
X013828Y017519D01*
X013823Y017530D02*
X013833Y017506D01*
X014993Y018666D01*
X015168Y018666D01*
X014996Y018737D01*
X014790Y018943D01*
X014679Y019212D01*
X014679Y019503D01*
X014790Y019772D01*
X014996Y019977D01*
X015091Y020017D01*
X014529Y020579D01*
X014529Y021317D01*
X014634Y021421D01*
X015238Y022026D01*
X015238Y022234D01*
X015089Y022173D01*
X014916Y022173D01*
X014757Y022239D01*
X014635Y022361D01*
X014569Y022521D01*
X014569Y022694D01*
X014635Y022853D01*
X014757Y022975D01*
X014916Y023041D01*
X015089Y023041D01*
X015238Y022980D01*
X015238Y023234D01*
X015089Y023173D01*
X014916Y023173D01*
X014757Y023239D01*
X014635Y023361D01*
X014569Y023521D01*
X014569Y023694D01*
X014635Y023853D01*
X014757Y023975D01*
X014916Y024041D01*
X015089Y024041D01*
X015249Y023975D01*
X015371Y023853D01*
X015383Y023824D01*
X015807Y024248D01*
X008362Y024248D01*
X008362Y019466D01*
X008519Y019466D01*
X009037Y019348D01*
X009037Y019348D01*
X009516Y019117D01*
X009516Y019117D01*
X009931Y018786D01*
X009931Y018786D01*
X010263Y018370D01*
X010493Y017891D01*
X010513Y017804D01*
X010513Y019703D01*
X011089Y020278D01*
X010996Y020317D01*
X010790Y020523D01*
X010679Y020792D01*
X010679Y021083D01*
X010790Y021352D01*
X010996Y021557D01*
X011265Y021669D01*
X012612Y021669D01*
X012103Y022178D01*
X012089Y022173D01*
X011916Y022173D01*
X011757Y022239D01*
X011635Y022361D01*
X011569Y022521D01*
X011569Y022694D01*
X011635Y022853D01*
X011757Y022975D01*
X011916Y023041D01*
X012089Y023041D01*
X012249Y022975D01*
X012371Y022853D01*
X012437Y022694D01*
X012437Y022521D01*
X012387Y022399D01*
X013679Y021106D01*
X013784Y021002D01*
X013784Y017570D01*
X013823Y017530D01*
X014034Y017202D02*
X014893Y017202D01*
X014759Y017360D02*
X014192Y017360D01*
X014351Y017519D02*
X014681Y017519D01*
X014644Y017677D02*
X014509Y017677D01*
X014668Y017836D02*
X015923Y017836D01*
X015923Y017677D02*
X016083Y017677D01*
X016083Y017519D02*
X015923Y017519D01*
X015923Y017360D02*
X016083Y017360D01*
X016083Y017202D02*
X015923Y017202D01*
X015923Y017043D02*
X016083Y017043D01*
X016277Y016726D02*
X013652Y016726D01*
X013717Y016885D02*
X016436Y016885D01*
X016119Y016568D02*
X013811Y016568D01*
X013913Y016409D02*
X015960Y016409D01*
X015802Y016251D02*
X013913Y016251D01*
X013913Y016092D02*
X015643Y016092D01*
X016159Y015867D02*
X017734Y017442D01*
X017734Y017163D01*
X018009Y016888D01*
X018250Y016888D01*
X016513Y015151D01*
X016513Y015357D01*
X016003Y015357D01*
X016003Y014847D01*
X016209Y014847D01*
X014240Y012878D01*
X013900Y012878D01*
X013707Y013071D01*
X013744Y013160D01*
X013744Y013216D01*
X015583Y015055D01*
X015792Y014847D01*
X016003Y014847D01*
X016003Y015357D01*
X016003Y015357D01*
X016003Y015357D01*
X016513Y015357D01*
X016513Y015568D01*
X016214Y015867D01*
X016159Y015867D01*
X016226Y015934D02*
X017296Y015934D01*
X017454Y016092D02*
X016384Y016092D01*
X016543Y016251D02*
X017613Y016251D01*
X017771Y016409D02*
X016701Y016409D01*
X016860Y016568D02*
X017930Y016568D01*
X018088Y016726D02*
X017018Y016726D01*
X017177Y016885D02*
X018247Y016885D01*
X017853Y017043D02*
X017335Y017043D01*
X017494Y017202D02*
X017734Y017202D01*
X017734Y017360D02*
X017652Y017360D01*
X017387Y017836D02*
X016083Y017836D01*
X016951Y018470D02*
X018021Y018470D01*
X018179Y018628D02*
X017109Y018628D01*
X017268Y018787D02*
X018338Y018787D01*
X018496Y018945D02*
X017426Y018945D01*
X017484Y019104D02*
X018655Y019104D01*
X018813Y019262D02*
X017484Y019262D01*
X017484Y019421D02*
X018972Y019421D01*
X019130Y019579D02*
X017484Y019579D01*
X017484Y019738D02*
X019254Y019738D01*
X019254Y019896D02*
X017484Y019896D01*
X017484Y020055D02*
X019254Y020055D01*
X019254Y020213D02*
X017484Y020213D01*
X017484Y020372D02*
X019254Y020372D01*
X019254Y020530D02*
X017515Y020530D01*
X017674Y020689D02*
X018046Y020689D01*
X017919Y020847D02*
X017832Y020847D01*
X018466Y021481D02*
X019254Y021481D01*
X019254Y021323D02*
X018739Y021323D01*
X018857Y021164D02*
X019254Y021164D01*
X019254Y021006D02*
X018857Y021006D01*
X018857Y020847D02*
X019254Y020847D01*
X019254Y020689D02*
X018729Y020689D01*
X019610Y020689D02*
X020476Y020689D01*
X020634Y020847D02*
X019610Y020847D01*
X019610Y021006D02*
X020793Y021006D01*
X020951Y021164D02*
X019610Y021164D01*
X019610Y021323D02*
X021110Y021323D01*
X021222Y021481D02*
X019610Y021481D01*
X019610Y021640D02*
X021222Y021640D01*
X021222Y021798D02*
X019610Y021798D01*
X019610Y021957D02*
X021222Y021957D01*
X021222Y022115D02*
X019610Y022115D01*
X019610Y022274D02*
X019722Y022274D01*
X019254Y022115D02*
X018587Y022115D01*
X018587Y021957D02*
X019254Y021957D01*
X019254Y021798D02*
X018587Y021798D01*
X018587Y021640D02*
X019254Y021640D01*
X018722Y022274D02*
X018587Y022274D01*
X018587Y022432D02*
X018605Y022432D01*
X019610Y022908D02*
X019689Y022908D01*
X019610Y023066D02*
X021633Y023066D01*
X021475Y022908D02*
X021316Y022908D01*
X020791Y023225D02*
X020215Y023225D01*
X020380Y023383D02*
X020625Y023383D01*
X020640Y023859D02*
X020572Y023859D01*
X020414Y024017D02*
X020858Y024017D01*
X021147Y024017D02*
X021858Y024017D01*
X021640Y023859D02*
X021365Y023859D01*
X021434Y023700D02*
X021571Y023700D01*
X021569Y023542D02*
X021437Y023542D01*
X022215Y023225D02*
X022776Y023225D01*
X022625Y023383D02*
X022380Y023383D01*
X022437Y023542D02*
X022569Y023542D01*
X022571Y023700D02*
X022434Y023700D01*
X022365Y023859D02*
X022640Y023859D01*
X022858Y024017D02*
X022147Y024017D01*
X023147Y024017D02*
X023858Y024017D01*
X023640Y023859D02*
X023365Y023859D01*
X023434Y023700D02*
X023571Y023700D01*
X023569Y023542D02*
X023437Y023542D01*
X023380Y023383D02*
X023625Y023383D01*
X023791Y023225D02*
X023215Y023225D01*
X023122Y023066D02*
X023641Y023066D01*
X023482Y022908D02*
X023316Y022908D01*
X022617Y023066D02*
X022138Y023066D01*
X022316Y022908D02*
X022459Y022908D01*
X024147Y024017D02*
X024858Y024017D01*
X024916Y024041D02*
X024757Y023975D01*
X024635Y023853D01*
X024569Y023694D01*
X024569Y023521D01*
X024635Y023361D01*
X024757Y023239D01*
X024916Y023173D01*
X025089Y023173D01*
X025249Y023239D01*
X025371Y023361D01*
X025437Y023521D01*
X025437Y023694D01*
X025371Y023853D01*
X025249Y023975D01*
X025089Y024041D01*
X024916Y024041D01*
X025147Y024017D02*
X025858Y024017D01*
X025916Y024041D02*
X025757Y023975D01*
X025635Y023853D01*
X025569Y023694D01*
X025569Y023521D01*
X025635Y023361D01*
X025757Y023239D01*
X025916Y023173D01*
X026089Y023173D01*
X026249Y023239D01*
X026371Y023361D01*
X026437Y023521D01*
X026437Y023694D01*
X026371Y023853D01*
X026249Y023975D01*
X026089Y024041D01*
X025916Y024041D01*
X026147Y024017D02*
X026858Y024017D01*
X026916Y024041D02*
X026757Y023975D01*
X026635Y023853D01*
X026569Y023694D01*
X026569Y023521D01*
X026635Y023361D01*
X026757Y023239D01*
X026916Y023173D01*
X027089Y023173D01*
X027249Y023239D01*
X027371Y023361D01*
X027437Y023521D01*
X027437Y023694D01*
X027371Y023853D01*
X027249Y023975D01*
X027089Y024041D01*
X026916Y024041D01*
X027147Y024017D02*
X027858Y024017D01*
X027916Y024041D02*
X027757Y023975D01*
X027635Y023853D01*
X027569Y023694D01*
X027569Y023521D01*
X027635Y023361D01*
X027757Y023239D01*
X027916Y023173D01*
X028089Y023173D01*
X028249Y023239D01*
X028371Y023361D01*
X028437Y023521D01*
X028437Y023694D01*
X028371Y023853D01*
X028249Y023975D01*
X028089Y024041D01*
X027916Y024041D01*
X028147Y024017D02*
X028858Y024017D01*
X028916Y024041D02*
X028757Y023975D01*
X028635Y023853D01*
X028569Y023694D01*
X028569Y023521D01*
X028635Y023361D01*
X028757Y023239D01*
X028916Y023173D01*
X029089Y023173D01*
X029249Y023239D01*
X029371Y023361D01*
X029437Y023521D01*
X029437Y023694D01*
X029371Y023853D01*
X029249Y023975D01*
X029089Y024041D01*
X028916Y024041D01*
X029147Y024017D02*
X029858Y024017D01*
X029916Y024041D02*
X029757Y023975D01*
X029635Y023853D01*
X029569Y023694D01*
X029569Y023521D01*
X029635Y023361D01*
X029757Y023239D01*
X029916Y023173D01*
X030089Y023173D01*
X030249Y023239D01*
X030371Y023361D01*
X030437Y023521D01*
X030437Y023694D01*
X030371Y023853D01*
X030249Y023975D01*
X030089Y024041D01*
X029916Y024041D01*
X030147Y024017D02*
X030858Y024017D01*
X030916Y024041D02*
X030757Y023975D01*
X030635Y023853D01*
X030569Y023694D01*
X030569Y023521D01*
X030635Y023361D01*
X030757Y023239D01*
X030916Y023173D01*
X031089Y023173D01*
X031249Y023239D01*
X031371Y023361D01*
X031437Y023521D01*
X031437Y023694D01*
X031371Y023853D01*
X031249Y023975D01*
X031089Y024041D01*
X030916Y024041D01*
X031147Y024017D02*
X031858Y024017D01*
X031916Y024041D02*
X031757Y023975D01*
X031635Y023853D01*
X031569Y023694D01*
X031569Y023521D01*
X031635Y023361D01*
X031757Y023239D01*
X031916Y023173D01*
X032089Y023173D01*
X032249Y023239D01*
X032371Y023361D01*
X032437Y023521D01*
X032437Y023694D01*
X032371Y023853D01*
X032249Y023975D01*
X032089Y024041D01*
X031916Y024041D01*
X032147Y024017D02*
X032939Y024017D01*
X033408Y023859D02*
X032365Y023859D01*
X032434Y023700D02*
X033719Y023700D01*
X034030Y023542D02*
X032437Y023542D01*
X032380Y023383D02*
X034257Y023383D01*
X034475Y023225D02*
X032215Y023225D01*
X032089Y023041D02*
X031916Y023041D01*
X031757Y022975D01*
X031635Y022853D01*
X031569Y022694D01*
X031569Y022521D01*
X031635Y022361D01*
X031757Y022239D01*
X031916Y022173D01*
X032089Y022173D01*
X032249Y022239D01*
X032371Y022361D01*
X032437Y022521D01*
X032437Y022694D01*
X032371Y022853D01*
X032249Y022975D01*
X032089Y023041D01*
X032316Y022908D02*
X034848Y022908D01*
X035006Y022749D02*
X032414Y022749D01*
X032437Y022591D02*
X035165Y022591D01*
X035296Y022432D02*
X032401Y022432D01*
X032284Y022274D02*
X035411Y022274D01*
X035526Y022115D02*
X024650Y022115D01*
X024650Y021957D02*
X035641Y021957D01*
X035731Y021798D02*
X024650Y021798D01*
X024650Y021640D02*
X035812Y021640D01*
X035893Y021481D02*
X035480Y021481D01*
X035400Y021515D02*
X034338Y021515D01*
X034132Y021430D01*
X033975Y021272D01*
X033890Y021067D01*
X033890Y020844D01*
X033975Y020639D01*
X034132Y020482D01*
X034338Y020397D01*
X034987Y020397D01*
X035206Y020178D01*
X034929Y020178D01*
X034929Y019638D01*
X034809Y019638D01*
X034809Y020178D01*
X034402Y020178D01*
X034308Y020163D01*
X034219Y020134D01*
X034135Y020091D01*
X034058Y020035D01*
X033991Y019969D01*
X033936Y019892D01*
X033893Y019808D01*
X033864Y019718D01*
X033851Y019638D01*
X034809Y019638D01*
X034809Y019518D01*
X033851Y019518D01*
X033864Y019437D01*
X033893Y019347D01*
X033936Y019263D01*
X033991Y019187D01*
X034058Y019120D01*
X034135Y019064D01*
X034219Y019022D01*
X034308Y018992D01*
X034402Y018978D01*
X034809Y018978D01*
X034809Y019518D01*
X034929Y019518D01*
X034929Y018978D01*
X035336Y018978D01*
X035429Y018992D01*
X035519Y019022D01*
X035603Y019064D01*
X035631Y019085D01*
X035631Y017813D01*
X035414Y017596D01*
X035378Y017611D01*
X035211Y017611D01*
X035057Y017547D01*
X034939Y017429D01*
X034875Y017275D01*
X034875Y017108D01*
X034939Y016954D01*
X035057Y016837D01*
X035211Y016773D01*
X035378Y016773D01*
X035532Y016837D01*
X035649Y016954D01*
X035713Y017108D01*
X035713Y017275D01*
X035680Y017356D01*
X035988Y017665D01*
X035988Y019900D01*
X035884Y020004D01*
X035465Y020423D01*
X035606Y020482D01*
X035763Y020639D01*
X035848Y020844D01*
X035848Y021067D01*
X035763Y021272D01*
X035606Y021430D01*
X035400Y021515D01*
X035712Y021323D02*
X035974Y021323D01*
X036043Y021164D02*
X035808Y021164D01*
X035848Y021006D02*
X036094Y021006D01*
X036146Y020847D02*
X035848Y020847D01*
X035784Y020689D02*
X036197Y020689D01*
X036249Y020530D02*
X035654Y020530D01*
X035516Y020372D02*
X036279Y020372D01*
X036304Y020213D02*
X035674Y020213D01*
X035833Y020055D02*
X036329Y020055D01*
X036354Y019896D02*
X035988Y019896D01*
X035988Y019738D02*
X036379Y019738D01*
X036385Y019579D02*
X035988Y019579D01*
X035988Y019421D02*
X036391Y019421D01*
X036394Y019262D02*
X035988Y019262D01*
X035988Y019104D02*
X036394Y019104D01*
X036394Y018945D02*
X035988Y018945D01*
X035988Y018787D02*
X036394Y018787D01*
X036394Y018628D02*
X035988Y018628D01*
X035988Y018470D02*
X036394Y018470D01*
X036394Y018311D02*
X035988Y018311D01*
X035988Y018153D02*
X036394Y018153D01*
X036394Y017994D02*
X035988Y017994D01*
X035988Y017836D02*
X036394Y017836D01*
X036394Y017677D02*
X035988Y017677D01*
X035842Y017519D02*
X036394Y017519D01*
X036394Y017360D02*
X035684Y017360D01*
X035713Y017202D02*
X036394Y017202D01*
X036394Y017043D02*
X035686Y017043D01*
X035580Y016885D02*
X036394Y016885D01*
X036394Y016726D02*
X034713Y016726D01*
X034696Y016568D02*
X035107Y016568D01*
X035057Y016547D02*
X034939Y016429D01*
X034875Y016275D01*
X034875Y016108D01*
X034939Y015954D01*
X035057Y015837D01*
X035211Y015773D01*
X035378Y015773D01*
X035532Y015837D01*
X035649Y015954D01*
X035713Y016108D01*
X035713Y016275D01*
X035649Y016429D01*
X035532Y016547D01*
X035378Y016611D01*
X035211Y016611D01*
X035057Y016547D01*
X034931Y016409D02*
X034604Y016409D01*
X034558Y016251D02*
X034875Y016251D01*
X034882Y016092D02*
X034717Y016092D01*
X034875Y015934D02*
X034959Y015934D01*
X035034Y015775D02*
X035204Y015775D01*
X035192Y015617D02*
X036394Y015617D01*
X036394Y015775D02*
X035384Y015775D01*
X035629Y015934D02*
X036394Y015934D01*
X036394Y016092D02*
X035707Y016092D01*
X035713Y016251D02*
X036394Y016251D01*
X036394Y016409D02*
X035658Y016409D01*
X035481Y016568D02*
X036394Y016568D01*
X035008Y016885D02*
X034668Y016885D01*
X034535Y017043D02*
X034902Y017043D01*
X034875Y017202D02*
X029001Y017202D01*
X029159Y017043D02*
X034053Y017043D01*
X033921Y016885D02*
X029318Y016885D01*
X029476Y016726D02*
X033875Y016726D01*
X033892Y016568D02*
X029635Y016568D01*
X029793Y016409D02*
X033984Y016409D01*
X034030Y016251D02*
X029952Y016251D01*
X030110Y016092D02*
X033872Y016092D01*
X033713Y015934D02*
X030269Y015934D01*
X030427Y015775D02*
X033555Y015775D01*
X033396Y015617D02*
X030586Y015617D01*
X030744Y015458D02*
X033238Y015458D01*
X033079Y015300D02*
X030903Y015300D01*
X031061Y015141D02*
X032921Y015141D01*
X032762Y014983D02*
X031220Y014983D01*
X031378Y014824D02*
X032604Y014824D01*
X032445Y014666D02*
X031537Y014666D01*
X031695Y014507D02*
X032287Y014507D01*
X032128Y014349D02*
X031854Y014349D01*
X032668Y013715D02*
X034094Y013715D01*
X034116Y013769D02*
X034059Y013629D01*
X034059Y013479D01*
X034116Y013339D01*
X034223Y013233D01*
X034362Y013175D01*
X034513Y013175D01*
X034653Y013233D01*
X034759Y013339D01*
X034817Y013479D01*
X034817Y013629D01*
X034759Y013769D01*
X034653Y013875D01*
X034513Y013933D01*
X034362Y013933D01*
X034223Y013875D01*
X034116Y013769D01*
X034221Y013873D02*
X032827Y013873D01*
X032985Y014032D02*
X034862Y014032D01*
X034868Y014015D02*
X034901Y013951D01*
X034943Y013892D01*
X034995Y013841D01*
X035053Y013798D01*
X035118Y013766D01*
X035186Y013743D01*
X035258Y013732D01*
X035294Y013732D01*
X035294Y014192D01*
X035294Y014652D01*
X035258Y014652D01*
X035186Y014640D01*
X035118Y014618D01*
X035053Y014585D01*
X034995Y014543D01*
X034943Y014491D01*
X034901Y014433D01*
X034868Y014368D01*
X034845Y014300D01*
X034834Y014228D01*
X034834Y014192D01*
X035294Y014192D01*
X035294Y014192D01*
X035294Y014192D01*
X035294Y014652D01*
X035330Y014652D01*
X035402Y014640D01*
X035471Y014618D01*
X035535Y014585D01*
X035594Y014543D01*
X035645Y014491D01*
X035688Y014433D01*
X035720Y014368D01*
X035743Y014300D01*
X035754Y014228D01*
X035754Y014192D01*
X035294Y014192D01*
X034834Y014192D01*
X034834Y014156D01*
X034845Y014084D01*
X034868Y014015D01*
X034962Y013873D02*
X034655Y013873D01*
X034782Y013715D02*
X036394Y013715D01*
X036394Y013873D02*
X035626Y013873D01*
X035645Y013892D02*
X035688Y013951D01*
X035720Y014015D01*
X035743Y014084D01*
X035754Y014156D01*
X035754Y014192D01*
X035294Y014192D01*
X035294Y014192D01*
X035294Y014192D01*
X035294Y013732D01*
X035330Y013732D01*
X035402Y013743D01*
X035471Y013766D01*
X035535Y013798D01*
X035594Y013841D01*
X035645Y013892D01*
X035726Y014032D02*
X036394Y014032D01*
X036394Y014190D02*
X035754Y014190D01*
X035727Y014349D02*
X036394Y014349D01*
X036394Y014507D02*
X035629Y014507D01*
X035294Y014507D02*
X035294Y014507D01*
X035294Y014349D02*
X035294Y014349D01*
X035294Y014190D02*
X035294Y014190D01*
X035294Y014032D02*
X035294Y014032D01*
X035294Y013873D02*
X035294Y013873D01*
X034834Y014190D02*
X033144Y014190D01*
X033302Y014349D02*
X034044Y014349D01*
X034057Y014337D02*
X034211Y014273D01*
X034378Y014273D01*
X034532Y014337D01*
X034649Y014454D01*
X034713Y014608D01*
X034713Y014775D01*
X034649Y014929D01*
X034532Y015047D01*
X034378Y015111D01*
X034211Y015111D01*
X034057Y015047D01*
X033939Y014929D01*
X033875Y014775D01*
X033875Y014608D01*
X033939Y014454D01*
X034057Y014337D01*
X033917Y014507D02*
X033461Y014507D01*
X033619Y014666D02*
X033875Y014666D01*
X033896Y014824D02*
X033778Y014824D01*
X033936Y014983D02*
X033993Y014983D01*
X034095Y015141D02*
X034875Y015141D01*
X034885Y015300D02*
X034443Y015300D01*
X034651Y015458D02*
X034846Y015458D01*
X034927Y014983D02*
X034596Y014983D01*
X034693Y014824D02*
X035086Y014824D01*
X034959Y014507D02*
X034671Y014507D01*
X034713Y014666D02*
X036394Y014666D01*
X036394Y014824D02*
X035502Y014824D01*
X035661Y014983D02*
X036394Y014983D01*
X036394Y015141D02*
X035713Y015141D01*
X035703Y015300D02*
X036394Y015300D01*
X036394Y015458D02*
X035620Y015458D01*
X034862Y014349D02*
X034544Y014349D01*
X034817Y013556D02*
X036394Y013556D01*
X036394Y013398D02*
X034784Y013398D01*
X034660Y013239D02*
X036394Y013239D01*
X036394Y013081D02*
X032034Y013081D01*
X032193Y013239D02*
X034216Y013239D01*
X034092Y013398D02*
X032351Y013398D01*
X032510Y013556D02*
X034059Y013556D01*
X031876Y012922D02*
X036394Y012922D01*
X036394Y012764D02*
X031717Y012764D01*
X031559Y012605D02*
X036394Y012605D01*
X036394Y012447D02*
X031400Y012447D01*
X031242Y012288D02*
X036394Y012288D01*
X036394Y012130D02*
X031083Y012130D01*
X030925Y011971D02*
X036394Y011971D01*
X036394Y011813D02*
X030766Y011813D01*
X030608Y011654D02*
X036394Y011654D01*
X036394Y011496D02*
X030449Y011496D01*
X030291Y011337D02*
X036394Y011337D01*
X036394Y011179D02*
X030132Y011179D01*
X029974Y011020D02*
X036394Y011020D01*
X036394Y010862D02*
X029815Y010862D01*
X029657Y010703D02*
X036394Y010703D01*
X036394Y010545D02*
X029498Y010545D01*
X029340Y010386D02*
X036394Y010386D01*
X036394Y010228D02*
X029181Y010228D01*
X029023Y010069D02*
X036394Y010069D01*
X036394Y009911D02*
X028864Y009911D01*
X028706Y009752D02*
X036394Y009752D01*
X036394Y009594D02*
X028547Y009594D01*
X028389Y009435D02*
X036394Y009435D01*
X036394Y009277D02*
X029117Y009277D01*
X029089Y009289D02*
X028917Y009289D01*
X028758Y009223D01*
X028637Y009102D01*
X028571Y008943D01*
X028571Y008771D01*
X028637Y008613D01*
X028758Y008491D01*
X028917Y008426D01*
X029089Y008426D01*
X029247Y008491D01*
X029369Y008613D01*
X029434Y008771D01*
X029434Y008943D01*
X029369Y009102D01*
X029247Y009223D01*
X029089Y009289D01*
X028889Y009277D02*
X028230Y009277D01*
X028072Y009118D02*
X028654Y009118D01*
X028578Y008960D02*
X027913Y008960D01*
X027755Y008801D02*
X028571Y008801D01*
X028624Y008643D02*
X027596Y008643D01*
X027438Y008484D02*
X028775Y008484D01*
X028917Y008289D02*
X028758Y008223D01*
X028637Y008102D01*
X028571Y007943D01*
X028571Y007771D01*
X028637Y007613D01*
X028758Y007491D01*
X028917Y007426D01*
X029089Y007426D01*
X029247Y007491D01*
X029369Y007613D01*
X029434Y007771D01*
X029434Y007943D01*
X029369Y008102D01*
X029247Y008223D01*
X029089Y008289D01*
X028917Y008289D01*
X028703Y008167D02*
X027121Y008167D01*
X027279Y008326D02*
X036394Y008326D01*
X036394Y008484D02*
X029231Y008484D01*
X029381Y008643D02*
X036394Y008643D01*
X036394Y008801D02*
X029434Y008801D01*
X029427Y008960D02*
X036394Y008960D01*
X036394Y009118D02*
X029352Y009118D01*
X029303Y008167D02*
X036394Y008167D01*
X036394Y008009D02*
X029407Y008009D01*
X029434Y007850D02*
X036394Y007850D01*
X036387Y007692D02*
X029402Y007692D01*
X029289Y007533D02*
X036381Y007533D01*
X036363Y007375D02*
X026328Y007375D01*
X026254Y007216D02*
X028694Y007216D01*
X028695Y007218D02*
X028642Y007165D01*
X028599Y007105D01*
X028565Y007039D01*
X028542Y006968D01*
X028530Y006894D01*
X028530Y006875D01*
X028985Y006875D01*
X028985Y006840D01*
X028530Y006840D01*
X028530Y006820D01*
X028542Y006747D01*
X028565Y006676D01*
X028599Y006610D01*
X028642Y006549D01*
X028695Y006497D01*
X028755Y006453D01*
X028821Y006419D01*
X028892Y006396D01*
X028966Y006385D01*
X028985Y006385D01*
X028985Y006840D01*
X029020Y006840D01*
X029020Y006385D01*
X029040Y006385D01*
X029113Y006396D01*
X029184Y006419D01*
X029250Y006453D01*
X029311Y006497D01*
X029363Y006549D01*
X029407Y006610D01*
X029441Y006676D01*
X029464Y006747D01*
X029475Y006820D01*
X029475Y006840D01*
X029020Y006840D01*
X029020Y006875D01*
X028985Y006875D01*
X028985Y007330D01*
X028966Y007330D01*
X028892Y007318D01*
X028821Y007295D01*
X028755Y007261D01*
X028695Y007218D01*
X028575Y007058D02*
X026387Y007058D01*
X026434Y006899D02*
X028531Y006899D01*
X028544Y006741D02*
X026422Y006741D01*
X026338Y006582D02*
X028618Y006582D01*
X028812Y006424D02*
X026118Y006424D01*
X026146Y006265D02*
X028629Y006265D01*
X028653Y006289D02*
X028571Y006207D01*
X028571Y005507D01*
X028653Y005426D01*
X029353Y005426D01*
X029434Y005507D01*
X029434Y006207D01*
X029353Y006289D01*
X028653Y006289D01*
X028571Y006107D02*
X026363Y006107D01*
X026432Y005948D02*
X028571Y005948D01*
X028571Y005790D02*
X026434Y005790D01*
X026376Y005631D02*
X028571Y005631D01*
X028605Y005473D02*
X026203Y005473D01*
X025803Y005473D02*
X024610Y005473D01*
X024610Y005631D02*
X025629Y005631D01*
X025571Y005790D02*
X024610Y005790D01*
X024610Y005948D02*
X025574Y005948D01*
X025642Y006107D02*
X024505Y006107D01*
X024472Y006265D02*
X025771Y006265D01*
X025613Y006424D02*
X024472Y006424D01*
X024441Y006582D02*
X025454Y006582D01*
X025296Y006741D02*
X024282Y006741D01*
X024208Y006899D02*
X025137Y006899D01*
X024979Y007058D02*
X024367Y007058D01*
X024472Y007216D02*
X024820Y007216D01*
X024662Y007375D02*
X024472Y007375D01*
X024472Y007533D02*
X024503Y007533D01*
X024345Y007692D02*
X024331Y007692D01*
X024186Y007850D02*
X023786Y007850D01*
X023744Y008009D02*
X024028Y008009D01*
X023869Y008167D02*
X023744Y008167D01*
X023744Y008326D02*
X023860Y008326D01*
X023860Y008484D02*
X023744Y008484D01*
X023744Y008643D02*
X023860Y008643D01*
X023860Y008801D02*
X023744Y008801D01*
X023744Y008960D02*
X023860Y008960D01*
X023778Y009118D02*
X023744Y009118D01*
X023387Y009118D02*
X022678Y009118D01*
X022642Y008960D02*
X023387Y008960D01*
X023387Y008801D02*
X022642Y008801D01*
X022642Y008643D02*
X023387Y008643D01*
X023387Y008484D02*
X022642Y008484D01*
X022642Y008326D02*
X023387Y008326D01*
X023387Y008167D02*
X022642Y008167D01*
X022642Y008009D02*
X023387Y008009D01*
X023387Y007850D02*
X022642Y007850D01*
X022642Y007692D02*
X022674Y007692D01*
X023331Y007692D02*
X023439Y007692D01*
X023472Y007533D02*
X023534Y007533D01*
X023534Y007375D02*
X023472Y007375D01*
X023472Y007216D02*
X023534Y007216D01*
X023554Y007058D02*
X023639Y007058D01*
X023626Y006899D02*
X023797Y006899D01*
X023723Y006741D02*
X023626Y006741D01*
X022285Y006741D02*
X022282Y006741D01*
X022285Y006899D02*
X022208Y006899D01*
X020907Y008167D02*
X015703Y008167D01*
X015545Y008009D02*
X020749Y008009D01*
X020590Y007850D02*
X015386Y007850D01*
X015862Y008326D02*
X021066Y008326D01*
X021224Y008484D02*
X016020Y008484D01*
X016179Y008643D02*
X021383Y008643D01*
X021541Y008801D02*
X016337Y008801D01*
X016496Y008960D02*
X017115Y008960D01*
X016957Y009118D02*
X016654Y009118D01*
X016813Y009277D02*
X016948Y009277D01*
X017503Y009277D02*
X017503Y009277D01*
X017503Y009118D02*
X017503Y009118D01*
X017503Y008960D02*
X017503Y008960D01*
X017890Y008960D02*
X019173Y008960D01*
X019045Y009118D02*
X018049Y009118D01*
X018058Y009277D02*
X018989Y009277D01*
X018989Y009435D02*
X018058Y009435D01*
X018051Y009594D02*
X019018Y009594D01*
X019205Y009911D02*
X021233Y009911D01*
X021075Y009752D02*
X019835Y009752D01*
X019961Y009594D02*
X020916Y009594D01*
X021392Y010069D02*
X014716Y010069D01*
X014558Y010228D02*
X021550Y010228D01*
X021709Y010386D02*
X014399Y010386D01*
X014241Y010545D02*
X021867Y010545D01*
X022026Y010703D02*
X014082Y010703D01*
X013924Y010862D02*
X022184Y010862D01*
X022343Y011020D02*
X013765Y011020D01*
X013607Y011179D02*
X022218Y011179D01*
X022059Y011337D02*
X013846Y011337D01*
X013972Y011496D02*
X022034Y011496D01*
X022034Y011654D02*
X018263Y011654D01*
X018197Y011588D02*
X018472Y011863D01*
X018472Y012251D01*
X018197Y012526D01*
X017809Y012526D01*
X017534Y012251D01*
X017534Y011863D01*
X017809Y011588D01*
X018197Y011588D01*
X018422Y011813D02*
X022095Y011813D01*
X023493Y013081D02*
X014947Y013081D01*
X015106Y013239D02*
X023493Y013239D01*
X023522Y013398D02*
X015264Y013398D01*
X014918Y013556D02*
X014084Y013556D01*
X013926Y013398D02*
X014760Y013398D01*
X014601Y013239D02*
X013767Y013239D01*
X013711Y013081D02*
X014443Y013081D01*
X014284Y012922D02*
X013856Y012922D01*
X013230Y013239D02*
X011546Y013239D01*
X011705Y013081D02*
X013190Y013081D01*
X013032Y012922D02*
X011863Y012922D01*
X012022Y012764D02*
X012975Y012764D01*
X012975Y012605D02*
X012180Y012605D01*
X012339Y012447D02*
X013005Y012447D01*
X013163Y012288D02*
X012497Y012288D01*
X012408Y013398D02*
X013310Y013398D01*
X013580Y013556D02*
X012493Y013556D01*
X012505Y013715D02*
X013738Y013715D01*
X013897Y013873D02*
X012551Y013873D01*
X012709Y014032D02*
X014055Y014032D01*
X014214Y014190D02*
X012868Y014190D01*
X013026Y014349D02*
X014372Y014349D01*
X014531Y014507D02*
X013185Y014507D01*
X013343Y014666D02*
X014689Y014666D01*
X014848Y014824D02*
X013502Y014824D01*
X013660Y014983D02*
X014714Y014983D01*
X014555Y015141D02*
X013819Y015141D01*
X013977Y015300D02*
X014534Y015300D01*
X014534Y015458D02*
X014136Y015458D01*
X014294Y015617D02*
X014599Y015617D01*
X014107Y015934D02*
X013770Y015934D01*
X013948Y015775D02*
X012760Y015775D01*
X012760Y015617D02*
X013790Y015617D01*
X013631Y015458D02*
X012760Y015458D01*
X012760Y015300D02*
X013473Y015300D01*
X013314Y015141D02*
X012762Y015141D01*
X012717Y014983D02*
X013156Y014983D01*
X012997Y014824D02*
X012544Y014824D01*
X012505Y014666D02*
X012839Y014666D01*
X012680Y014507D02*
X012473Y014507D01*
X012522Y014349D02*
X012359Y014349D01*
X012363Y014190D02*
X011505Y014190D01*
X011483Y014032D02*
X011869Y014032D01*
X011717Y013873D02*
X011383Y013873D01*
X011264Y013715D02*
X011666Y013715D01*
X011678Y013556D02*
X011264Y013556D01*
X011388Y013398D02*
X011763Y013398D01*
X011812Y014349D02*
X011464Y014349D01*
X011339Y014507D02*
X011699Y014507D01*
X011666Y014666D02*
X011264Y014666D01*
X011392Y014824D02*
X011697Y014824D01*
X011808Y014983D02*
X011507Y014983D01*
X011546Y015141D02*
X012361Y015141D01*
X012403Y015300D02*
X011526Y015300D01*
X011443Y015458D02*
X011790Y015458D01*
X012094Y015458D02*
X012403Y015458D01*
X012403Y015617D02*
X012274Y015617D01*
X012321Y015775D02*
X012403Y015775D01*
X012403Y015934D02*
X012299Y015934D01*
X012403Y016092D02*
X012192Y016092D01*
X012760Y016092D02*
X012975Y016092D01*
X012975Y016251D02*
X012760Y016251D01*
X012843Y016409D02*
X012975Y016409D01*
X013001Y016568D02*
X013077Y016568D01*
X013875Y017043D02*
X015164Y017043D01*
X014480Y018153D02*
X013784Y018153D01*
X013784Y018311D02*
X014639Y018311D01*
X014797Y018470D02*
X013784Y018470D01*
X013784Y018628D02*
X014956Y018628D01*
X014946Y018787D02*
X013784Y018787D01*
X013784Y018945D02*
X014789Y018945D01*
X014723Y019104D02*
X013784Y019104D01*
X013784Y019262D02*
X014679Y019262D01*
X014679Y019421D02*
X013784Y019421D01*
X013784Y019579D02*
X014711Y019579D01*
X014776Y019738D02*
X013784Y019738D01*
X013784Y019896D02*
X014915Y019896D01*
X015053Y020055D02*
X013784Y020055D01*
X013784Y020213D02*
X014894Y020213D01*
X014736Y020372D02*
X013784Y020372D01*
X013784Y020530D02*
X014577Y020530D01*
X014529Y020689D02*
X013784Y020689D01*
X013784Y020847D02*
X014529Y020847D01*
X014529Y021006D02*
X013780Y021006D01*
X013621Y021164D02*
X014529Y021164D01*
X014535Y021323D02*
X013463Y021323D01*
X013304Y021481D02*
X014694Y021481D01*
X014852Y021640D02*
X013146Y021640D01*
X012987Y021798D02*
X015011Y021798D01*
X015169Y021957D02*
X012829Y021957D01*
X012670Y022115D02*
X015238Y022115D01*
X014722Y022274D02*
X014284Y022274D01*
X014249Y022239D02*
X014371Y022361D01*
X014437Y022521D01*
X014437Y022694D01*
X014371Y022853D01*
X014249Y022975D01*
X014089Y023041D01*
X013916Y023041D01*
X013757Y022975D01*
X013635Y022853D01*
X013569Y022694D01*
X013569Y022521D01*
X013635Y022361D01*
X013757Y022239D01*
X013916Y022173D01*
X014089Y022173D01*
X014249Y022239D01*
X014401Y022432D02*
X014605Y022432D01*
X014569Y022591D02*
X014437Y022591D01*
X014414Y022749D02*
X014592Y022749D01*
X014689Y022908D02*
X014316Y022908D01*
X014215Y023225D02*
X014791Y023225D01*
X014625Y023383D02*
X014380Y023383D01*
X014371Y023361D02*
X014437Y023521D01*
X014437Y023694D01*
X014371Y023853D01*
X014249Y023975D01*
X014089Y024041D01*
X013916Y024041D01*
X013757Y023975D01*
X013635Y023853D01*
X013569Y023694D01*
X013569Y023521D01*
X013635Y023361D01*
X013757Y023239D01*
X013916Y023173D01*
X014089Y023173D01*
X014249Y023239D01*
X014371Y023361D01*
X014437Y023542D02*
X014569Y023542D01*
X014571Y023700D02*
X014434Y023700D01*
X014365Y023859D02*
X014640Y023859D01*
X014858Y024017D02*
X014147Y024017D01*
X013858Y024017D02*
X013147Y024017D01*
X013089Y024041D02*
X012916Y024041D01*
X012757Y023975D01*
X012635Y023853D01*
X012569Y023694D01*
X012569Y023521D01*
X012635Y023361D01*
X012757Y023239D01*
X012916Y023173D01*
X013089Y023173D01*
X013249Y023239D01*
X013371Y023361D01*
X013437Y023521D01*
X013437Y023694D01*
X013371Y023853D01*
X013249Y023975D01*
X013089Y024041D01*
X012858Y024017D02*
X012147Y024017D01*
X012089Y024041D02*
X011916Y024041D01*
X011757Y023975D01*
X011635Y023853D01*
X011569Y023694D01*
X011569Y023521D01*
X011635Y023361D01*
X011757Y023239D01*
X011916Y023173D01*
X012089Y023173D01*
X012249Y023239D01*
X012371Y023361D01*
X012437Y023521D01*
X012437Y023694D01*
X012371Y023853D01*
X012249Y023975D01*
X012089Y024041D01*
X011858Y024017D02*
X011147Y024017D01*
X011089Y024041D02*
X010916Y024041D01*
X010757Y023975D01*
X010635Y023853D01*
X010569Y023694D01*
X010569Y023521D01*
X010635Y023361D01*
X010757Y023239D01*
X010916Y023173D01*
X011089Y023173D01*
X011249Y023239D01*
X011371Y023361D01*
X011437Y023521D01*
X011437Y023694D01*
X011371Y023853D01*
X011249Y023975D01*
X011089Y024041D01*
X010858Y024017D02*
X010244Y024017D01*
X010252Y024014D02*
X010185Y024048D01*
X010114Y024071D01*
X010040Y024082D01*
X010021Y024082D01*
X010021Y023626D01*
X009984Y023626D01*
X009984Y024082D01*
X009965Y024082D01*
X009892Y024071D01*
X009820Y024048D01*
X009754Y024014D01*
X009693Y023970D01*
X009640Y023917D01*
X009596Y023856D01*
X009562Y023790D01*
X009539Y023718D01*
X009528Y023645D01*
X009528Y023626D01*
X009984Y023626D01*
X009984Y023589D01*
X009528Y023589D01*
X009528Y023570D01*
X009539Y023496D01*
X009562Y023425D01*
X009596Y023358D01*
X009640Y023298D01*
X009693Y023245D01*
X009754Y023201D01*
X009820Y023167D01*
X009892Y023144D01*
X009965Y023132D01*
X009984Y023132D01*
X009984Y023589D01*
X010021Y023589D01*
X010021Y023132D01*
X010040Y023132D01*
X010114Y023144D01*
X010185Y023167D01*
X010252Y023201D01*
X010312Y023245D01*
X010365Y023298D01*
X010409Y023358D01*
X010443Y023425D01*
X010466Y023496D01*
X010478Y023570D01*
X010478Y023589D01*
X010021Y023589D01*
X010021Y023626D01*
X010478Y023626D01*
X010478Y023645D01*
X010466Y023718D01*
X010443Y023790D01*
X010409Y023856D01*
X010365Y023917D01*
X010312Y023970D01*
X010252Y024014D01*
X010407Y023859D02*
X010640Y023859D01*
X010571Y023700D02*
X010469Y023700D01*
X010474Y023542D02*
X010569Y023542D01*
X010625Y023383D02*
X010422Y023383D01*
X010285Y023225D02*
X010791Y023225D01*
X010916Y023041D02*
X010757Y022975D01*
X010635Y022853D01*
X010569Y022694D01*
X010569Y022521D01*
X010635Y022361D01*
X010757Y022239D01*
X010916Y022173D01*
X011089Y022173D01*
X011249Y022239D01*
X011371Y022361D01*
X011437Y022521D01*
X011437Y022694D01*
X011371Y022853D01*
X011249Y022975D01*
X011089Y023041D01*
X010916Y023041D01*
X010689Y022908D02*
X010478Y022908D01*
X010478Y022926D02*
X010466Y022972D01*
X010442Y023013D01*
X010409Y023046D01*
X010368Y023070D01*
X010322Y023082D01*
X010021Y023082D01*
X010021Y022626D01*
X009984Y022626D01*
X009984Y023082D01*
X009684Y023082D01*
X009638Y023070D01*
X009597Y023046D01*
X009564Y023013D01*
X009540Y022972D01*
X009528Y022926D01*
X009528Y022626D01*
X009984Y022626D01*
X009984Y022589D01*
X009528Y022589D01*
X009528Y022288D01*
X009540Y022242D01*
X009564Y022201D01*
X009597Y022168D01*
X009638Y022144D01*
X009684Y022132D01*
X009984Y022132D01*
X009984Y022589D01*
X010021Y022589D01*
X010021Y022132D01*
X010322Y022132D01*
X010368Y022144D01*
X010409Y022168D01*
X010442Y022201D01*
X010466Y022242D01*
X010478Y022288D01*
X010478Y022589D01*
X010021Y022589D01*
X010021Y022626D01*
X010478Y022626D01*
X010478Y022926D01*
X010374Y023066D02*
X015238Y023066D01*
X015238Y023225D02*
X015215Y023225D01*
X015365Y023859D02*
X015418Y023859D01*
X015576Y024017D02*
X015147Y024017D01*
X015735Y024176D02*
X008362Y024176D01*
X008362Y024017D02*
X009761Y024017D01*
X009984Y024017D02*
X010021Y024017D01*
X010021Y023859D02*
X009984Y023859D01*
X009984Y023700D02*
X010021Y023700D01*
X010021Y023542D02*
X009984Y023542D01*
X009984Y023383D02*
X010021Y023383D01*
X010021Y023225D02*
X009984Y023225D01*
X009984Y023066D02*
X010021Y023066D01*
X010021Y022908D02*
X009984Y022908D01*
X009984Y022749D02*
X010021Y022749D01*
X010021Y022591D02*
X010569Y022591D01*
X010592Y022749D02*
X010478Y022749D01*
X010478Y022432D02*
X010605Y022432D01*
X010722Y022274D02*
X010474Y022274D01*
X010021Y022274D02*
X009984Y022274D01*
X009984Y022432D02*
X010021Y022432D01*
X009984Y022591D02*
X008362Y022591D01*
X008362Y022749D02*
X009528Y022749D01*
X009528Y022908D02*
X008362Y022908D01*
X008362Y023066D02*
X009632Y023066D01*
X009720Y023225D02*
X008362Y023225D01*
X008362Y023383D02*
X009583Y023383D01*
X009532Y023542D02*
X008362Y023542D01*
X008362Y023700D02*
X009536Y023700D01*
X009598Y023859D02*
X008362Y023859D01*
X008362Y022432D02*
X009528Y022432D01*
X009531Y022274D02*
X008362Y022274D01*
X008362Y022115D02*
X012165Y022115D01*
X012324Y021957D02*
X008362Y021957D01*
X008362Y021798D02*
X012482Y021798D01*
X012757Y022239D02*
X012916Y022173D01*
X013089Y022173D01*
X013249Y022239D01*
X013371Y022361D01*
X013437Y022521D01*
X013437Y022694D01*
X013371Y022853D01*
X013249Y022975D01*
X013089Y023041D01*
X012916Y023041D01*
X012757Y022975D01*
X012635Y022853D01*
X012569Y022694D01*
X012569Y022521D01*
X012635Y022361D01*
X012757Y022239D01*
X012722Y022274D02*
X012512Y022274D01*
X012605Y022432D02*
X012401Y022432D01*
X012437Y022591D02*
X012569Y022591D01*
X012592Y022749D02*
X012414Y022749D01*
X012316Y022908D02*
X012689Y022908D01*
X012791Y023225D02*
X012215Y023225D01*
X012380Y023383D02*
X012625Y023383D01*
X012569Y023542D02*
X012437Y023542D01*
X012434Y023700D02*
X012571Y023700D01*
X012640Y023859D02*
X012365Y023859D01*
X011640Y023859D02*
X011365Y023859D01*
X011434Y023700D02*
X011571Y023700D01*
X011569Y023542D02*
X011437Y023542D01*
X011380Y023383D02*
X011625Y023383D01*
X011791Y023225D02*
X011215Y023225D01*
X011316Y022908D02*
X011689Y022908D01*
X011592Y022749D02*
X011414Y022749D01*
X011437Y022591D02*
X011569Y022591D01*
X011605Y022432D02*
X011401Y022432D01*
X011284Y022274D02*
X011722Y022274D01*
X011195Y021640D02*
X008362Y021640D01*
X008362Y021481D02*
X010920Y021481D01*
X010778Y021323D02*
X008362Y021323D01*
X008362Y021164D02*
X010713Y021164D01*
X010679Y021006D02*
X008362Y021006D01*
X008362Y020847D02*
X010679Y020847D01*
X010721Y020689D02*
X008362Y020689D01*
X008362Y020530D02*
X010787Y020530D01*
X010941Y020372D02*
X008362Y020372D01*
X008362Y020213D02*
X011024Y020213D01*
X010866Y020055D02*
X008362Y020055D01*
X008362Y019896D02*
X010707Y019896D01*
X010549Y019738D02*
X008362Y019738D01*
X008362Y019579D02*
X010513Y019579D01*
X010513Y019421D02*
X008716Y019421D01*
X009214Y019262D02*
X010513Y019262D01*
X010513Y019104D02*
X009532Y019104D01*
X009731Y018945D02*
X010513Y018945D01*
X010513Y018787D02*
X009930Y018787D01*
X010057Y018628D02*
X010513Y018628D01*
X010513Y018470D02*
X010183Y018470D01*
X010291Y018311D02*
X010513Y018311D01*
X010513Y018153D02*
X010367Y018153D01*
X010444Y017994D02*
X010513Y017994D01*
X010506Y017836D02*
X010513Y017836D01*
X010870Y018470D02*
X011065Y018470D01*
X011258Y018628D02*
X010870Y018628D01*
X010870Y018787D02*
X010946Y018787D01*
X011923Y017677D02*
X012083Y017677D01*
X012083Y017519D02*
X011923Y017519D01*
X011923Y017360D02*
X012083Y017360D01*
X012083Y017202D02*
X011923Y017202D01*
X011923Y017043D02*
X012083Y017043D01*
X011164Y017043D02*
X010870Y017043D01*
X010870Y017202D02*
X010893Y017202D01*
X012760Y015934D02*
X013118Y015934D01*
X014877Y014349D02*
X015711Y014349D01*
X015869Y014507D02*
X015035Y014507D01*
X015194Y014666D02*
X016028Y014666D01*
X016186Y014824D02*
X015352Y014824D01*
X015511Y014983D02*
X015656Y014983D01*
X016003Y014983D02*
X016003Y014983D01*
X016003Y015141D02*
X016003Y015141D01*
X016003Y015300D02*
X016003Y015300D01*
X016513Y015300D02*
X016662Y015300D01*
X016513Y015458D02*
X016820Y015458D01*
X016979Y015617D02*
X016464Y015617D01*
X016306Y015775D02*
X017137Y015775D01*
X017325Y015458D02*
X017538Y015458D01*
X017534Y015617D02*
X017483Y015617D01*
X017697Y015300D02*
X017166Y015300D01*
X017008Y015141D02*
X019055Y015141D01*
X019034Y015300D02*
X018309Y015300D01*
X018467Y015458D02*
X019034Y015458D01*
X019099Y015617D02*
X018472Y015617D01*
X019214Y014983D02*
X016849Y014983D01*
X016691Y014824D02*
X022114Y014824D01*
X021993Y014946D02*
X022292Y014647D01*
X022503Y014647D01*
X022714Y014647D01*
X023013Y014946D01*
X023013Y015157D01*
X022503Y015157D01*
X022503Y015157D01*
X022503Y014647D01*
X022503Y015157D01*
X022503Y015157D01*
X023013Y015157D01*
X023013Y015368D01*
X022714Y015667D01*
X022503Y015667D01*
X022503Y015157D01*
X021993Y015157D01*
X021993Y014946D01*
X021993Y014983D02*
X020850Y014983D01*
X021008Y015141D02*
X021993Y015141D01*
X021993Y015157D02*
X022503Y015157D01*
X022503Y015157D01*
X022503Y015157D01*
X022503Y015667D01*
X022292Y015667D01*
X021993Y015368D01*
X021993Y015157D01*
X021993Y015300D02*
X021013Y015300D01*
X021013Y015458D02*
X022083Y015458D01*
X022241Y015617D02*
X020964Y015617D01*
X021107Y015775D02*
X028755Y015775D01*
X028819Y015934D02*
X021265Y015934D01*
X021424Y016092D02*
X028661Y016092D01*
X028502Y016251D02*
X021582Y016251D01*
X021741Y016409D02*
X028344Y016409D01*
X028185Y016568D02*
X021899Y016568D01*
X022058Y016726D02*
X028027Y016726D01*
X027868Y016885D02*
X022216Y016885D01*
X022375Y017043D02*
X027710Y017043D01*
X027551Y017202D02*
X022445Y017202D01*
X022445Y017360D02*
X027393Y017360D01*
X027234Y017519D02*
X022445Y017519D01*
X022445Y017677D02*
X027076Y017677D01*
X026917Y017836D02*
X022445Y017836D01*
X022445Y017994D02*
X026759Y017994D01*
X026600Y018153D02*
X022445Y018153D01*
X022445Y018311D02*
X026442Y018311D01*
X026283Y018470D02*
X022445Y018470D01*
X022445Y018628D02*
X026125Y018628D01*
X025966Y018787D02*
X022445Y018787D01*
X022445Y018945D02*
X025808Y018945D01*
X025649Y019104D02*
X022445Y019104D01*
X022445Y019262D02*
X025491Y019262D01*
X025332Y019421D02*
X022445Y019421D01*
X022445Y019579D02*
X025174Y019579D01*
X025015Y019738D02*
X022445Y019738D01*
X022472Y019896D02*
X024857Y019896D01*
X024698Y020055D02*
X022630Y020055D01*
X022789Y020213D02*
X024540Y020213D01*
X024381Y020372D02*
X022947Y020372D01*
X023106Y020530D02*
X024293Y020530D01*
X024293Y020689D02*
X024204Y020689D01*
X023613Y020689D02*
X023264Y020689D01*
X023423Y020847D02*
X023502Y020847D01*
X024650Y021481D02*
X034258Y021481D01*
X034026Y021323D02*
X026221Y021323D01*
X026281Y021263D02*
X026157Y021387D01*
X025996Y021454D01*
X025821Y021454D01*
X025660Y021387D01*
X025536Y021263D01*
X025469Y021102D01*
X025469Y020927D01*
X025536Y020766D01*
X025660Y020642D01*
X025821Y020576D01*
X025996Y020576D01*
X026157Y020642D01*
X026281Y020766D01*
X026347Y020927D01*
X026347Y021102D01*
X026281Y021263D01*
X026322Y021164D02*
X033930Y021164D01*
X033890Y021006D02*
X026347Y021006D01*
X026314Y020847D02*
X033890Y020847D01*
X033954Y020689D02*
X026204Y020689D01*
X025831Y020372D02*
X035011Y020372D01*
X035170Y020213D02*
X025989Y020213D01*
X026148Y020055D02*
X034085Y020055D01*
X033939Y019896D02*
X026306Y019896D01*
X026465Y019738D02*
X033870Y019738D01*
X033869Y019421D02*
X026782Y019421D01*
X026940Y019262D02*
X033936Y019262D01*
X034080Y019104D02*
X027099Y019104D01*
X027257Y018945D02*
X035631Y018945D01*
X035631Y018787D02*
X027416Y018787D01*
X027574Y018628D02*
X035631Y018628D01*
X035631Y018470D02*
X027733Y018470D01*
X027891Y018311D02*
X035631Y018311D01*
X035631Y018153D02*
X028050Y018153D01*
X028208Y017994D02*
X033946Y017994D01*
X033943Y017991D02*
X033901Y017933D01*
X033868Y017868D01*
X033845Y017800D01*
X033834Y017728D01*
X033834Y017692D01*
X034294Y017692D01*
X034294Y018152D01*
X034258Y018152D01*
X034186Y018140D01*
X034118Y018118D01*
X034053Y018085D01*
X033995Y018043D01*
X033943Y017991D01*
X033857Y017836D02*
X028367Y017836D01*
X028525Y017677D02*
X033834Y017677D01*
X033834Y017692D02*
X033834Y017656D01*
X033845Y017584D01*
X033868Y017515D01*
X033901Y017451D01*
X033943Y017392D01*
X033995Y017341D01*
X034053Y017298D01*
X034118Y017266D01*
X034186Y017243D01*
X034258Y017232D01*
X034294Y017232D01*
X034294Y017692D01*
X034294Y017692D01*
X034294Y017692D01*
X034294Y018152D01*
X034330Y018152D01*
X034402Y018140D01*
X034471Y018118D01*
X034535Y018085D01*
X034594Y018043D01*
X034645Y017991D01*
X034688Y017933D01*
X034720Y017868D01*
X034743Y017800D01*
X034754Y017728D01*
X034754Y017692D01*
X034294Y017692D01*
X033834Y017692D01*
X033867Y017519D02*
X028684Y017519D01*
X028842Y017360D02*
X033975Y017360D01*
X034294Y017360D02*
X034294Y017360D01*
X034294Y017232D02*
X034330Y017232D01*
X034402Y017243D01*
X034471Y017266D01*
X034535Y017298D01*
X034594Y017341D01*
X034645Y017392D01*
X034688Y017451D01*
X034720Y017515D01*
X034743Y017584D01*
X034754Y017656D01*
X034754Y017692D01*
X034294Y017692D01*
X034294Y017692D01*
X034294Y017692D01*
X034294Y017232D01*
X034294Y017519D02*
X034294Y017519D01*
X034294Y017677D02*
X034294Y017677D01*
X034294Y017836D02*
X034294Y017836D01*
X034294Y017994D02*
X034294Y017994D01*
X034642Y017994D02*
X035631Y017994D01*
X035631Y017836D02*
X034731Y017836D01*
X034754Y017677D02*
X035496Y017677D01*
X035029Y017519D02*
X034722Y017519D01*
X034613Y017360D02*
X034910Y017360D01*
X034929Y019104D02*
X034809Y019104D01*
X034809Y019262D02*
X034929Y019262D01*
X034929Y019421D02*
X034809Y019421D01*
X034809Y019579D02*
X026623Y019579D01*
X025672Y020530D02*
X034083Y020530D01*
X034809Y020055D02*
X034929Y020055D01*
X034929Y019896D02*
X034809Y019896D01*
X034809Y019738D02*
X034929Y019738D01*
X031722Y022274D02*
X031284Y022274D01*
X031249Y022239D02*
X031371Y022361D01*
X031437Y022521D01*
X031437Y022694D01*
X031371Y022853D01*
X031249Y022975D01*
X031089Y023041D01*
X030916Y023041D01*
X030757Y022975D01*
X030635Y022853D01*
X030569Y022694D01*
X030569Y022521D01*
X030635Y022361D01*
X030757Y022239D01*
X030916Y022173D01*
X031089Y022173D01*
X031249Y022239D01*
X031401Y022432D02*
X031605Y022432D01*
X031569Y022591D02*
X031437Y022591D01*
X031414Y022749D02*
X031592Y022749D01*
X031689Y022908D02*
X031316Y022908D01*
X031215Y023225D02*
X031791Y023225D01*
X031625Y023383D02*
X031380Y023383D01*
X031437Y023542D02*
X031569Y023542D01*
X031571Y023700D02*
X031434Y023700D01*
X031365Y023859D02*
X031640Y023859D01*
X032248Y024176D02*
X020255Y024176D01*
X019625Y023383D02*
X019610Y023383D01*
X019610Y023225D02*
X019791Y023225D01*
X020316Y022908D02*
X020689Y022908D01*
X020592Y022749D02*
X020414Y022749D01*
X020437Y022591D02*
X020569Y022591D01*
X020605Y022432D02*
X020401Y022432D01*
X020284Y022274D02*
X020722Y022274D01*
X020317Y020530D02*
X019610Y020530D01*
X019610Y020372D02*
X020159Y020372D01*
X020000Y020213D02*
X019610Y020213D01*
X019610Y020055D02*
X019842Y020055D01*
X019683Y019896D02*
X019610Y019896D01*
X017862Y018311D02*
X017154Y018311D01*
X017270Y018153D02*
X017704Y018153D01*
X017545Y017994D02*
X017337Y017994D01*
X019906Y015617D02*
X020041Y015617D01*
X019993Y015458D02*
X019972Y015458D01*
X019972Y015300D02*
X019993Y015300D01*
X019997Y015141D02*
X019950Y015141D01*
X019792Y014983D02*
X020156Y014983D01*
X020503Y014983D02*
X020503Y014983D01*
X020503Y015141D02*
X020503Y015141D01*
X020503Y015300D02*
X020503Y015300D01*
X022273Y014666D02*
X016532Y014666D01*
X016374Y014507D02*
X027247Y014507D01*
X027089Y014349D02*
X016215Y014349D01*
X016057Y014190D02*
X026930Y014190D01*
X027406Y014666D02*
X022733Y014666D01*
X022891Y014824D02*
X025172Y014824D01*
X025309Y014688D02*
X025034Y014963D01*
X025034Y015351D01*
X025309Y015626D01*
X025697Y015626D01*
X025972Y015351D01*
X025972Y014963D01*
X025697Y014688D01*
X025309Y014688D01*
X025034Y014983D02*
X023013Y014983D01*
X023013Y015141D02*
X025034Y015141D01*
X025034Y015300D02*
X023013Y015300D01*
X022923Y015458D02*
X025141Y015458D01*
X025299Y015617D02*
X022764Y015617D01*
X022503Y015617D02*
X022503Y015617D01*
X022503Y015458D02*
X022503Y015458D01*
X022503Y015300D02*
X022503Y015300D01*
X022503Y015141D02*
X022503Y015141D01*
X022503Y014983D02*
X022503Y014983D01*
X022503Y014824D02*
X022503Y014824D01*
X022503Y014666D02*
X022503Y014666D01*
X020188Y012764D02*
X019759Y012764D01*
X019697Y012826D02*
X019309Y012826D01*
X019034Y012551D01*
X019034Y012163D01*
X019309Y011888D01*
X019697Y011888D01*
X019972Y012163D01*
X019972Y012551D01*
X019697Y012826D01*
X019918Y012605D02*
X020030Y012605D01*
X019993Y012447D02*
X019972Y012447D01*
X019972Y012288D02*
X019993Y012288D01*
X020009Y012130D02*
X019939Y012130D01*
X019780Y011971D02*
X020167Y011971D01*
X019225Y011971D02*
X018472Y011971D01*
X018472Y012130D02*
X019067Y012130D01*
X019034Y012288D02*
X018435Y012288D01*
X018276Y012447D02*
X019034Y012447D01*
X019088Y012605D02*
X016476Y012605D01*
X016513Y012568D02*
X016214Y012867D01*
X016003Y012867D01*
X016003Y012357D01*
X016003Y012357D01*
X016513Y012357D01*
X016513Y012146D01*
X016214Y011847D01*
X016003Y011847D01*
X016003Y012357D01*
X016003Y012357D01*
X016513Y012357D01*
X016513Y012568D01*
X016513Y012447D02*
X017729Y012447D01*
X017571Y012288D02*
X016513Y012288D01*
X016497Y012130D02*
X017534Y012130D01*
X017534Y011971D02*
X016338Y011971D01*
X016003Y011971D02*
X016003Y011971D01*
X016003Y011847D02*
X016003Y012357D01*
X015493Y012357D01*
X015493Y012146D01*
X015792Y011847D01*
X016003Y011847D01*
X016003Y012130D02*
X016003Y012130D01*
X016003Y012288D02*
X016003Y012288D01*
X016003Y012357D02*
X016003Y012357D01*
X016003Y012357D01*
X015493Y012357D01*
X015493Y012568D01*
X015792Y012867D01*
X016003Y012867D01*
X016003Y012357D01*
X016003Y012447D02*
X016003Y012447D01*
X016003Y012605D02*
X016003Y012605D01*
X016003Y012764D02*
X016003Y012764D01*
X016317Y012764D02*
X019246Y012764D01*
X017742Y011654D02*
X013972Y011654D01*
X013972Y011813D02*
X017584Y011813D01*
X015667Y011971D02*
X015280Y011971D01*
X015439Y012130D02*
X015509Y012130D01*
X015493Y012288D02*
X015472Y012288D01*
X015472Y012447D02*
X015493Y012447D01*
X015530Y012605D02*
X015418Y012605D01*
X015259Y012764D02*
X015688Y012764D01*
X014725Y011971D02*
X013852Y011971D01*
X013102Y011179D02*
X010612Y011179D01*
X010612Y011337D02*
X012943Y011337D01*
X013260Y011020D02*
X010612Y011020D01*
X010612Y010862D02*
X013419Y010862D01*
X013577Y010703D02*
X010612Y010703D01*
X010612Y010545D02*
X013736Y010545D01*
X013894Y010386D02*
X010612Y010386D01*
X010612Y010228D02*
X014053Y010228D01*
X014211Y010069D02*
X010612Y010069D01*
X010612Y009911D02*
X014370Y009911D01*
X014528Y009752D02*
X010591Y009752D01*
X010555Y009594D02*
X014576Y009594D01*
X014534Y009435D02*
X010519Y009435D01*
X010471Y009277D02*
X014534Y009277D01*
X014578Y009118D02*
X010395Y009118D01*
X010319Y008960D02*
X014737Y008960D01*
X015269Y008960D02*
X015679Y008960D01*
X015833Y008801D02*
X010229Y008801D01*
X011399Y007216D02*
X008362Y007216D01*
X008362Y007058D02*
X011240Y007058D01*
X011234Y006899D02*
X008362Y006899D01*
X008362Y006741D02*
X011234Y006741D01*
X011314Y006582D02*
X008362Y006582D01*
X008362Y006424D02*
X011473Y006424D01*
X011089Y005041D02*
X010916Y005041D01*
X010757Y004975D01*
X010635Y004853D01*
X010569Y004694D01*
X010569Y004521D01*
X010635Y004361D01*
X010757Y004239D01*
X010916Y004173D01*
X011089Y004173D01*
X011249Y004239D01*
X011371Y004361D01*
X011437Y004521D01*
X011437Y004694D01*
X011371Y004853D01*
X011249Y004975D01*
X011089Y005041D01*
X011196Y004997D02*
X011810Y004997D01*
X011757Y004975D02*
X011635Y004853D01*
X011569Y004694D01*
X011569Y004521D01*
X011635Y004361D01*
X011757Y004239D01*
X011916Y004173D01*
X012089Y004173D01*
X012249Y004239D01*
X012371Y004361D01*
X012437Y004521D01*
X012437Y004694D01*
X012371Y004853D01*
X012249Y004975D01*
X012089Y005041D01*
X011916Y005041D01*
X011757Y004975D01*
X011629Y004839D02*
X011377Y004839D01*
X011437Y004680D02*
X011569Y004680D01*
X011569Y004522D02*
X011437Y004522D01*
X011372Y004363D02*
X011634Y004363D01*
X011839Y004205D02*
X011167Y004205D01*
X011089Y004041D02*
X010916Y004041D01*
X010757Y003975D01*
X010635Y003853D01*
X010569Y003694D01*
X010569Y003521D01*
X010635Y003361D01*
X010757Y003239D01*
X010916Y003173D01*
X011089Y003173D01*
X011249Y003239D01*
X011371Y003361D01*
X011437Y003521D01*
X011437Y003694D01*
X011371Y003853D01*
X011249Y003975D01*
X011089Y004041D01*
X011336Y003888D02*
X011669Y003888D01*
X011635Y003853D02*
X011569Y003694D01*
X011569Y003521D01*
X011635Y003361D01*
X011757Y003239D01*
X011916Y003173D01*
X012089Y003173D01*
X012249Y003239D01*
X012371Y003361D01*
X012437Y003521D01*
X012437Y003694D01*
X012371Y003853D01*
X012249Y003975D01*
X012089Y004041D01*
X011916Y004041D01*
X011757Y003975D01*
X011635Y003853D01*
X011583Y003729D02*
X011422Y003729D01*
X011437Y003571D02*
X011569Y003571D01*
X011613Y003412D02*
X011392Y003412D01*
X011264Y003254D02*
X011742Y003254D01*
X012264Y003254D02*
X012742Y003254D01*
X012757Y003239D02*
X012916Y003173D01*
X013089Y003173D01*
X013249Y003239D01*
X013371Y003361D01*
X013437Y003521D01*
X013437Y003694D01*
X013371Y003853D01*
X013249Y003975D01*
X013089Y004041D01*
X012916Y004041D01*
X012757Y003975D01*
X012635Y003853D01*
X012569Y003694D01*
X012569Y003521D01*
X012635Y003361D01*
X012757Y003239D01*
X012613Y003412D02*
X012392Y003412D01*
X012437Y003571D02*
X012569Y003571D01*
X012583Y003729D02*
X012422Y003729D01*
X012336Y003888D02*
X012669Y003888D01*
X012839Y004205D02*
X012167Y004205D01*
X012372Y004363D02*
X012634Y004363D01*
X012635Y004361D02*
X012757Y004239D01*
X012916Y004173D01*
X013089Y004173D01*
X013249Y004239D01*
X013371Y004361D01*
X013437Y004521D01*
X013437Y004694D01*
X013371Y004853D01*
X013249Y004975D01*
X013089Y005041D01*
X012916Y005041D01*
X012757Y004975D01*
X012635Y004853D01*
X012569Y004694D01*
X012569Y004521D01*
X012635Y004361D01*
X012569Y004522D02*
X012437Y004522D01*
X012437Y004680D02*
X012569Y004680D01*
X012629Y004839D02*
X012377Y004839D01*
X012196Y004997D02*
X012810Y004997D01*
X013196Y004997D02*
X013810Y004997D01*
X013757Y004975D02*
X013635Y004853D01*
X013569Y004694D01*
X013569Y004521D01*
X013635Y004361D01*
X013757Y004239D01*
X013916Y004173D01*
X014089Y004173D01*
X014249Y004239D01*
X014371Y004361D01*
X014437Y004521D01*
X014437Y004694D01*
X014371Y004853D01*
X014249Y004975D01*
X014089Y005041D01*
X013916Y005041D01*
X013757Y004975D01*
X013629Y004839D02*
X013377Y004839D01*
X013437Y004680D02*
X013569Y004680D01*
X013569Y004522D02*
X013437Y004522D01*
X013372Y004363D02*
X013634Y004363D01*
X013839Y004205D02*
X013167Y004205D01*
X013336Y003888D02*
X013669Y003888D01*
X013635Y003853D02*
X013569Y003694D01*
X013569Y003521D01*
X013635Y003361D01*
X013757Y003239D01*
X013916Y003173D01*
X014089Y003173D01*
X014249Y003239D01*
X014371Y003361D01*
X014437Y003521D01*
X014437Y003694D01*
X014371Y003853D01*
X014249Y003975D01*
X014089Y004041D01*
X013916Y004041D01*
X013757Y003975D01*
X013635Y003853D01*
X013583Y003729D02*
X013422Y003729D01*
X013437Y003571D02*
X013569Y003571D01*
X013613Y003412D02*
X013392Y003412D01*
X013264Y003254D02*
X013742Y003254D01*
X014264Y003254D02*
X014742Y003254D01*
X014757Y003239D02*
X014916Y003173D01*
X015089Y003173D01*
X015249Y003239D01*
X015371Y003361D01*
X015437Y003521D01*
X015437Y003694D01*
X015371Y003853D01*
X015249Y003975D01*
X015089Y004041D01*
X014916Y004041D01*
X014757Y003975D01*
X014635Y003853D01*
X014569Y003694D01*
X014569Y003521D01*
X014635Y003361D01*
X014757Y003239D01*
X014613Y003412D02*
X014392Y003412D01*
X014437Y003571D02*
X014569Y003571D01*
X014583Y003729D02*
X014422Y003729D01*
X014336Y003888D02*
X014669Y003888D01*
X014839Y004205D02*
X014167Y004205D01*
X014372Y004363D02*
X014634Y004363D01*
X014635Y004361D02*
X014757Y004239D01*
X014916Y004173D01*
X015089Y004173D01*
X015249Y004239D01*
X015371Y004361D01*
X015437Y004521D01*
X015437Y004694D01*
X015371Y004853D01*
X015249Y004975D01*
X015089Y005041D01*
X014916Y005041D01*
X014757Y004975D01*
X014635Y004853D01*
X014569Y004694D01*
X014569Y004521D01*
X014635Y004361D01*
X014569Y004522D02*
X014437Y004522D01*
X014437Y004680D02*
X014569Y004680D01*
X014629Y004839D02*
X014377Y004839D01*
X014196Y004997D02*
X014810Y004997D01*
X015196Y004997D02*
X015810Y004997D01*
X015757Y004975D02*
X015635Y004853D01*
X015569Y004694D01*
X015569Y004521D01*
X015635Y004361D01*
X015757Y004239D01*
X015916Y004173D01*
X016089Y004173D01*
X016249Y004239D01*
X016371Y004361D01*
X016437Y004521D01*
X016437Y004694D01*
X016371Y004853D01*
X016249Y004975D01*
X016089Y005041D01*
X015916Y005041D01*
X015757Y004975D01*
X015629Y004839D02*
X015377Y004839D01*
X015437Y004680D02*
X015569Y004680D01*
X015569Y004522D02*
X015437Y004522D01*
X015372Y004363D02*
X015634Y004363D01*
X015839Y004205D02*
X015167Y004205D01*
X015336Y003888D02*
X015669Y003888D01*
X015635Y003853D02*
X015569Y003694D01*
X015569Y003521D01*
X015635Y003361D01*
X015757Y003239D01*
X015916Y003173D01*
X016089Y003173D01*
X016249Y003239D01*
X016371Y003361D01*
X016437Y003521D01*
X016437Y003694D01*
X016371Y003853D01*
X016249Y003975D01*
X016089Y004041D01*
X015916Y004041D01*
X015757Y003975D01*
X015635Y003853D01*
X015583Y003729D02*
X015422Y003729D01*
X015437Y003571D02*
X015569Y003571D01*
X015613Y003412D02*
X015392Y003412D01*
X015264Y003254D02*
X015742Y003254D01*
X016264Y003254D02*
X016742Y003254D01*
X016757Y003239D02*
X016916Y003173D01*
X017089Y003173D01*
X017249Y003239D01*
X017371Y003361D01*
X017437Y003521D01*
X017437Y003694D01*
X017371Y003853D01*
X017249Y003975D01*
X017089Y004041D01*
X016916Y004041D01*
X016757Y003975D01*
X016635Y003853D01*
X016569Y003694D01*
X016569Y003521D01*
X016635Y003361D01*
X016757Y003239D01*
X016613Y003412D02*
X016392Y003412D01*
X016437Y003571D02*
X016569Y003571D01*
X016583Y003729D02*
X016422Y003729D01*
X016336Y003888D02*
X016669Y003888D01*
X016839Y004205D02*
X016167Y004205D01*
X016372Y004363D02*
X016634Y004363D01*
X016635Y004361D02*
X016757Y004239D01*
X016916Y004173D01*
X017089Y004173D01*
X017249Y004239D01*
X017371Y004361D01*
X017437Y004521D01*
X017437Y004694D01*
X017371Y004853D01*
X017249Y004975D01*
X017089Y005041D01*
X016916Y005041D01*
X016757Y004975D01*
X016635Y004853D01*
X016569Y004694D01*
X016569Y004521D01*
X016635Y004361D01*
X016569Y004522D02*
X016437Y004522D01*
X016437Y004680D02*
X016569Y004680D01*
X016629Y004839D02*
X016377Y004839D01*
X016196Y004997D02*
X016810Y004997D01*
X017196Y004997D02*
X017810Y004997D01*
X017757Y004975D02*
X017635Y004853D01*
X017569Y004694D01*
X017569Y004521D01*
X017635Y004361D01*
X017757Y004239D01*
X017916Y004173D01*
X018089Y004173D01*
X018249Y004239D01*
X018371Y004361D01*
X018437Y004521D01*
X018437Y004694D01*
X018371Y004853D01*
X018249Y004975D01*
X018089Y005041D01*
X017916Y005041D01*
X017757Y004975D01*
X017629Y004839D02*
X017377Y004839D01*
X017437Y004680D02*
X017569Y004680D01*
X017569Y004522D02*
X017437Y004522D01*
X017372Y004363D02*
X017634Y004363D01*
X017839Y004205D02*
X017167Y004205D01*
X017336Y003888D02*
X017669Y003888D01*
X017635Y003853D02*
X017569Y003694D01*
X017569Y003521D01*
X017635Y003361D01*
X017757Y003239D01*
X017916Y003173D01*
X018089Y003173D01*
X018249Y003239D01*
X018371Y003361D01*
X018437Y003521D01*
X018437Y003694D01*
X018371Y003853D01*
X018249Y003975D01*
X018089Y004041D01*
X017916Y004041D01*
X017757Y003975D01*
X017635Y003853D01*
X017583Y003729D02*
X017422Y003729D01*
X017437Y003571D02*
X017569Y003571D01*
X017613Y003412D02*
X017392Y003412D01*
X017264Y003254D02*
X017742Y003254D01*
X018264Y003254D02*
X018742Y003254D01*
X018757Y003239D02*
X018916Y003173D01*
X019089Y003173D01*
X019249Y003239D01*
X019371Y003361D01*
X019437Y003521D01*
X019437Y003694D01*
X019371Y003853D01*
X019249Y003975D01*
X019089Y004041D01*
X018916Y004041D01*
X018757Y003975D01*
X018635Y003853D01*
X018569Y003694D01*
X018569Y003521D01*
X018635Y003361D01*
X018757Y003239D01*
X018613Y003412D02*
X018392Y003412D01*
X018437Y003571D02*
X018569Y003571D01*
X018583Y003729D02*
X018422Y003729D01*
X018336Y003888D02*
X018669Y003888D01*
X018839Y004205D02*
X018167Y004205D01*
X018372Y004363D02*
X018634Y004363D01*
X018635Y004361D02*
X018757Y004239D01*
X018916Y004173D01*
X019089Y004173D01*
X019249Y004239D01*
X019371Y004361D01*
X019437Y004521D01*
X019437Y004694D01*
X019371Y004853D01*
X019249Y004975D01*
X019089Y005041D01*
X018916Y005041D01*
X018757Y004975D01*
X018635Y004853D01*
X018569Y004694D01*
X018569Y004521D01*
X018635Y004361D01*
X018569Y004522D02*
X018437Y004522D01*
X018437Y004680D02*
X018569Y004680D01*
X018629Y004839D02*
X018377Y004839D01*
X018196Y004997D02*
X018810Y004997D01*
X019196Y004997D02*
X019810Y004997D01*
X019757Y004975D02*
X019635Y004853D01*
X019569Y004694D01*
X019569Y004521D01*
X019635Y004361D01*
X019757Y004239D01*
X019916Y004173D01*
X020089Y004173D01*
X020249Y004239D01*
X020371Y004361D01*
X020437Y004521D01*
X020437Y004694D01*
X020371Y004853D01*
X020249Y004975D01*
X020089Y005041D01*
X019916Y005041D01*
X019757Y004975D01*
X019629Y004839D02*
X019377Y004839D01*
X019437Y004680D02*
X019569Y004680D01*
X019569Y004522D02*
X019437Y004522D01*
X019372Y004363D02*
X019634Y004363D01*
X019839Y004205D02*
X019167Y004205D01*
X019336Y003888D02*
X019669Y003888D01*
X019635Y003853D02*
X019569Y003694D01*
X019569Y003521D01*
X019635Y003361D01*
X019757Y003239D01*
X019916Y003173D01*
X020089Y003173D01*
X020249Y003239D01*
X020371Y003361D01*
X020437Y003521D01*
X020437Y003694D01*
X020371Y003853D01*
X020249Y003975D01*
X020089Y004041D01*
X019916Y004041D01*
X019757Y003975D01*
X019635Y003853D01*
X019583Y003729D02*
X019422Y003729D01*
X019437Y003571D02*
X019569Y003571D01*
X019613Y003412D02*
X019392Y003412D01*
X019264Y003254D02*
X019742Y003254D01*
X020264Y003254D02*
X020742Y003254D01*
X020757Y003239D02*
X020916Y003173D01*
X021089Y003173D01*
X021249Y003239D01*
X021371Y003361D01*
X021437Y003521D01*
X021437Y003694D01*
X021371Y003853D01*
X021249Y003975D01*
X021089Y004041D01*
X020916Y004041D01*
X020757Y003975D01*
X020635Y003853D01*
X020569Y003694D01*
X020569Y003521D01*
X020635Y003361D01*
X020757Y003239D01*
X020613Y003412D02*
X020392Y003412D01*
X020437Y003571D02*
X020569Y003571D01*
X020583Y003729D02*
X020422Y003729D01*
X020336Y003888D02*
X020669Y003888D01*
X020839Y004205D02*
X020167Y004205D01*
X020372Y004363D02*
X020634Y004363D01*
X020569Y004522D02*
X020437Y004522D01*
X020437Y004680D02*
X020569Y004680D01*
X020505Y004839D02*
X020377Y004839D01*
X020395Y004997D02*
X020196Y004997D01*
X020395Y005156D02*
X008362Y005156D01*
X008362Y005314D02*
X020395Y005314D01*
X020395Y005473D02*
X008362Y005473D01*
X008362Y005631D02*
X020395Y005631D01*
X020395Y006107D02*
X019347Y006107D01*
X019423Y006265D02*
X020395Y006265D01*
X020395Y006424D02*
X019423Y006424D01*
X019372Y006582D02*
X020395Y006582D01*
X021196Y004997D02*
X021810Y004997D01*
X021629Y004839D02*
X021377Y004839D01*
X021437Y004680D02*
X021569Y004680D01*
X021569Y004522D02*
X021437Y004522D01*
X021372Y004363D02*
X021634Y004363D01*
X021839Y004205D02*
X021167Y004205D01*
X021336Y003888D02*
X021669Y003888D01*
X021635Y003853D02*
X021569Y003694D01*
X021569Y003521D01*
X021635Y003361D01*
X021757Y003239D01*
X021916Y003173D01*
X022089Y003173D01*
X022249Y003239D01*
X022371Y003361D01*
X022437Y003521D01*
X022437Y003694D01*
X022371Y003853D01*
X022249Y003975D01*
X022089Y004041D01*
X021916Y004041D01*
X021757Y003975D01*
X021635Y003853D01*
X021583Y003729D02*
X021422Y003729D01*
X021437Y003571D02*
X021569Y003571D01*
X021613Y003412D02*
X021392Y003412D01*
X021264Y003254D02*
X021742Y003254D01*
X022264Y003254D02*
X022742Y003254D01*
X022757Y003239D02*
X022916Y003173D01*
X023089Y003173D01*
X023249Y003239D01*
X023371Y003361D01*
X023437Y003521D01*
X023437Y003694D01*
X023371Y003853D01*
X023249Y003975D01*
X023089Y004041D01*
X022916Y004041D01*
X022757Y003975D01*
X022635Y003853D01*
X022569Y003694D01*
X022569Y003521D01*
X022635Y003361D01*
X022757Y003239D01*
X022613Y003412D02*
X022392Y003412D01*
X022437Y003571D02*
X022569Y003571D01*
X022583Y003729D02*
X022422Y003729D01*
X022336Y003888D02*
X022669Y003888D01*
X022839Y004205D02*
X022167Y004205D01*
X022372Y004363D02*
X022634Y004363D01*
X022635Y004361D02*
X022757Y004239D01*
X022916Y004173D01*
X023089Y004173D01*
X023249Y004239D01*
X023371Y004361D01*
X023437Y004521D01*
X023437Y004694D01*
X023371Y004853D01*
X023249Y004975D01*
X023089Y005041D01*
X022916Y005041D01*
X022757Y004975D01*
X022635Y004853D01*
X022569Y004694D01*
X022569Y004521D01*
X022635Y004361D01*
X022569Y004522D02*
X022437Y004522D01*
X022437Y004680D02*
X022569Y004680D01*
X022629Y004839D02*
X022493Y004839D01*
X022642Y004997D02*
X022810Y004997D01*
X023196Y004997D02*
X023810Y004997D01*
X023629Y004839D02*
X023377Y004839D01*
X023437Y004680D02*
X023569Y004680D01*
X023569Y004522D02*
X023437Y004522D01*
X023372Y004363D02*
X023634Y004363D01*
X023839Y004205D02*
X023167Y004205D01*
X023336Y003888D02*
X023669Y003888D01*
X023583Y003729D02*
X023422Y003729D01*
X023437Y003571D02*
X023569Y003571D01*
X023613Y003412D02*
X023392Y003412D01*
X023264Y003254D02*
X023742Y003254D01*
X024264Y003254D02*
X024742Y003254D01*
X024757Y003239D02*
X024916Y003173D01*
X025089Y003173D01*
X025249Y003239D01*
X025371Y003361D01*
X025437Y003521D01*
X025437Y003694D01*
X025371Y003853D01*
X025249Y003975D01*
X025089Y004041D01*
X024916Y004041D01*
X024757Y003975D01*
X024635Y003853D01*
X024569Y003694D01*
X024569Y003521D01*
X024635Y003361D01*
X024757Y003239D01*
X024613Y003412D02*
X024392Y003412D01*
X024437Y003571D02*
X024569Y003571D01*
X024583Y003729D02*
X024422Y003729D01*
X024336Y003888D02*
X024669Y003888D01*
X024839Y004205D02*
X024418Y004205D01*
X024576Y004363D02*
X024634Y004363D01*
X024610Y004839D02*
X024629Y004839D01*
X024610Y004997D02*
X024810Y004997D01*
X024610Y005156D02*
X035567Y005156D01*
X035680Y005314D02*
X024610Y005314D01*
X025196Y004997D02*
X025810Y004997D01*
X025757Y004975D02*
X025635Y004853D01*
X025569Y004694D01*
X025569Y004521D01*
X025635Y004361D01*
X025757Y004239D01*
X025916Y004173D01*
X026089Y004173D01*
X026249Y004239D01*
X026371Y004361D01*
X026437Y004521D01*
X026437Y004694D01*
X026371Y004853D01*
X026249Y004975D01*
X026089Y005041D01*
X025916Y005041D01*
X025757Y004975D01*
X025629Y004839D02*
X025377Y004839D01*
X025437Y004680D02*
X025569Y004680D01*
X025569Y004522D02*
X025437Y004522D01*
X025372Y004363D02*
X025634Y004363D01*
X025839Y004205D02*
X025167Y004205D01*
X025336Y003888D02*
X025669Y003888D01*
X025635Y003853D02*
X025569Y003694D01*
X025569Y003521D01*
X025635Y003361D01*
X025757Y003239D01*
X025916Y003173D01*
X026089Y003173D01*
X026249Y003239D01*
X026371Y003361D01*
X026437Y003521D01*
X026437Y003694D01*
X026371Y003853D01*
X026249Y003975D01*
X026089Y004041D01*
X025916Y004041D01*
X025757Y003975D01*
X025635Y003853D01*
X025583Y003729D02*
X025422Y003729D01*
X025437Y003571D02*
X025569Y003571D01*
X025613Y003412D02*
X025392Y003412D01*
X025264Y003254D02*
X025742Y003254D01*
X026264Y003254D02*
X026742Y003254D01*
X026757Y003239D02*
X026916Y003173D01*
X027089Y003173D01*
X027249Y003239D01*
X027371Y003361D01*
X027437Y003521D01*
X027437Y003694D01*
X027371Y003853D01*
X027249Y003975D01*
X027089Y004041D01*
X026916Y004041D01*
X026757Y003975D01*
X026635Y003853D01*
X026569Y003694D01*
X026569Y003521D01*
X026635Y003361D01*
X026757Y003239D01*
X026613Y003412D02*
X026392Y003412D01*
X026437Y003571D02*
X026569Y003571D01*
X026583Y003729D02*
X026422Y003729D01*
X026336Y003888D02*
X026669Y003888D01*
X026839Y004205D02*
X026167Y004205D01*
X026372Y004363D02*
X026634Y004363D01*
X026635Y004361D02*
X026757Y004239D01*
X026916Y004173D01*
X027089Y004173D01*
X027249Y004239D01*
X027371Y004361D01*
X027437Y004521D01*
X027437Y004694D01*
X027371Y004853D01*
X027249Y004975D01*
X027089Y005041D01*
X026916Y005041D01*
X026757Y004975D01*
X026635Y004853D01*
X026569Y004694D01*
X026569Y004521D01*
X026635Y004361D01*
X026569Y004522D02*
X026437Y004522D01*
X026437Y004680D02*
X026569Y004680D01*
X026629Y004839D02*
X026377Y004839D01*
X026196Y004997D02*
X026810Y004997D01*
X027196Y004997D02*
X027810Y004997D01*
X027757Y004975D02*
X027635Y004853D01*
X027569Y004694D01*
X027569Y004521D01*
X027635Y004361D01*
X027757Y004239D01*
X027916Y004173D01*
X028089Y004173D01*
X028249Y004239D01*
X028371Y004361D01*
X028437Y004521D01*
X028437Y004694D01*
X028371Y004853D01*
X028249Y004975D01*
X028089Y005041D01*
X027916Y005041D01*
X027757Y004975D01*
X027629Y004839D02*
X027377Y004839D01*
X027437Y004680D02*
X027569Y004680D01*
X027569Y004522D02*
X027437Y004522D01*
X027372Y004363D02*
X027634Y004363D01*
X027839Y004205D02*
X027167Y004205D01*
X027336Y003888D02*
X027669Y003888D01*
X027635Y003853D02*
X027569Y003694D01*
X027569Y003521D01*
X027635Y003361D01*
X027757Y003239D01*
X027916Y003173D01*
X028089Y003173D01*
X028249Y003239D01*
X028371Y003361D01*
X028437Y003521D01*
X028437Y003694D01*
X028371Y003853D01*
X028249Y003975D01*
X028089Y004041D01*
X027916Y004041D01*
X027757Y003975D01*
X027635Y003853D01*
X027583Y003729D02*
X027422Y003729D01*
X027437Y003571D02*
X027569Y003571D01*
X027613Y003412D02*
X027392Y003412D01*
X027264Y003254D02*
X027742Y003254D01*
X028264Y003254D02*
X028742Y003254D01*
X028757Y003239D02*
X028916Y003173D01*
X029089Y003173D01*
X029249Y003239D01*
X029371Y003361D01*
X029437Y003521D01*
X029437Y003694D01*
X029371Y003853D01*
X029249Y003975D01*
X029089Y004041D01*
X028916Y004041D01*
X028757Y003975D01*
X028635Y003853D01*
X028569Y003694D01*
X028569Y003521D01*
X028635Y003361D01*
X028757Y003239D01*
X028613Y003412D02*
X028392Y003412D01*
X028437Y003571D02*
X028569Y003571D01*
X028583Y003729D02*
X028422Y003729D01*
X028336Y003888D02*
X028669Y003888D01*
X028839Y004205D02*
X028167Y004205D01*
X028372Y004363D02*
X028634Y004363D01*
X028635Y004361D02*
X028757Y004239D01*
X028916Y004173D01*
X029089Y004173D01*
X029249Y004239D01*
X029371Y004361D01*
X029437Y004521D01*
X029437Y004694D01*
X029371Y004853D01*
X029249Y004975D01*
X029089Y005041D01*
X028916Y005041D01*
X028757Y004975D01*
X028635Y004853D01*
X028569Y004694D01*
X028569Y004521D01*
X028635Y004361D01*
X028569Y004522D02*
X028437Y004522D01*
X028437Y004680D02*
X028569Y004680D01*
X028629Y004839D02*
X028377Y004839D01*
X028196Y004997D02*
X028810Y004997D01*
X029196Y004997D02*
X029810Y004997D01*
X029757Y004975D02*
X029635Y004853D01*
X029569Y004694D01*
X029569Y004521D01*
X029635Y004361D01*
X029757Y004239D01*
X029916Y004173D01*
X030089Y004173D01*
X030249Y004239D01*
X030371Y004361D01*
X030437Y004521D01*
X030437Y004694D01*
X030371Y004853D01*
X030249Y004975D01*
X030089Y005041D01*
X029916Y005041D01*
X029757Y004975D01*
X029629Y004839D02*
X029377Y004839D01*
X029437Y004680D02*
X029569Y004680D01*
X029569Y004522D02*
X029437Y004522D01*
X029372Y004363D02*
X029634Y004363D01*
X029839Y004205D02*
X029167Y004205D01*
X029336Y003888D02*
X029669Y003888D01*
X029635Y003853D02*
X029569Y003694D01*
X029569Y003521D01*
X029635Y003361D01*
X029757Y003239D01*
X029916Y003173D01*
X030089Y003173D01*
X030249Y003239D01*
X030371Y003361D01*
X030437Y003521D01*
X030437Y003694D01*
X030371Y003853D01*
X030249Y003975D01*
X030089Y004041D01*
X029916Y004041D01*
X029757Y003975D01*
X029635Y003853D01*
X029583Y003729D02*
X029422Y003729D01*
X029437Y003571D02*
X029569Y003571D01*
X029613Y003412D02*
X029392Y003412D01*
X029264Y003254D02*
X029742Y003254D01*
X030264Y003254D02*
X030684Y003254D01*
X030693Y003245D02*
X030754Y003201D01*
X030820Y003167D01*
X030892Y003144D01*
X030965Y003132D01*
X030984Y003132D01*
X030984Y003589D01*
X030528Y003589D01*
X030528Y003570D01*
X030539Y003496D01*
X030562Y003425D01*
X030596Y003358D01*
X030640Y003298D01*
X030693Y003245D01*
X030569Y003412D02*
X030392Y003412D01*
X030437Y003571D02*
X030528Y003571D01*
X030528Y003626D02*
X030984Y003626D01*
X030984Y004082D01*
X030965Y004082D01*
X030892Y004071D01*
X030820Y004048D01*
X030754Y004014D01*
X030693Y003970D01*
X030640Y003917D01*
X030596Y003856D01*
X030562Y003790D01*
X030539Y003718D01*
X030528Y003645D01*
X030528Y003626D01*
X030543Y003729D02*
X030422Y003729D01*
X030336Y003888D02*
X030619Y003888D01*
X030818Y004046D02*
X024259Y004046D01*
X023860Y004046D02*
X010409Y004046D01*
X010368Y004070D01*
X010322Y004082D01*
X010021Y004082D01*
X010021Y003626D01*
X009984Y003626D01*
X009984Y004082D01*
X009684Y004082D01*
X009638Y004070D01*
X009597Y004046D01*
X008362Y004046D01*
X008362Y003888D02*
X009528Y003888D01*
X009528Y003926D02*
X009528Y003626D01*
X009984Y003626D01*
X009984Y003589D01*
X009528Y003589D01*
X009528Y003288D01*
X009540Y003242D01*
X009564Y003201D01*
X009597Y003168D01*
X009638Y003144D01*
X009684Y003132D01*
X009984Y003132D01*
X009984Y003589D01*
X010021Y003589D01*
X010021Y003132D01*
X010322Y003132D01*
X010368Y003144D01*
X010409Y003168D01*
X010442Y003201D01*
X010466Y003242D01*
X010478Y003288D01*
X010478Y003589D01*
X010021Y003589D01*
X010021Y003626D01*
X010478Y003626D01*
X010478Y003926D01*
X010466Y003972D01*
X010442Y004013D01*
X010409Y004046D01*
X010478Y003888D02*
X010669Y003888D01*
X010583Y003729D02*
X010478Y003729D01*
X010478Y003571D02*
X010569Y003571D01*
X010613Y003412D02*
X010478Y003412D01*
X010469Y003254D02*
X010742Y003254D01*
X010021Y003254D02*
X009984Y003254D01*
X009984Y003412D02*
X010021Y003412D01*
X010021Y003571D02*
X009984Y003571D01*
X009984Y003729D02*
X010021Y003729D01*
X010021Y003888D02*
X009984Y003888D01*
X009984Y004046D02*
X010021Y004046D01*
X010021Y004132D02*
X010040Y004132D01*
X010114Y004144D01*
X010185Y004167D01*
X010252Y004201D01*
X010312Y004245D01*
X010365Y004298D01*
X010409Y004358D01*
X010443Y004425D01*
X010466Y004496D01*
X010478Y004570D01*
X010478Y004589D01*
X010021Y004589D01*
X010021Y004132D01*
X009984Y004132D02*
X009984Y004589D01*
X009528Y004589D01*
X009528Y004570D01*
X009539Y004496D01*
X009562Y004425D01*
X009596Y004358D01*
X009640Y004298D01*
X009693Y004245D01*
X009754Y004201D01*
X009820Y004167D01*
X009892Y004144D01*
X009965Y004132D01*
X009984Y004132D01*
X009984Y004205D02*
X010021Y004205D01*
X010021Y004363D02*
X009984Y004363D01*
X009984Y004522D02*
X010021Y004522D01*
X010021Y004589D02*
X009984Y004589D01*
X009984Y004626D01*
X009984Y005082D01*
X009965Y005082D01*
X009892Y005071D01*
X009820Y005048D01*
X009754Y005014D01*
X009693Y004970D01*
X009640Y004917D01*
X009596Y004856D01*
X009562Y004790D01*
X009539Y004718D01*
X009528Y004645D01*
X009528Y004626D01*
X009984Y004626D01*
X010021Y004626D01*
X010021Y005082D01*
X010040Y005082D01*
X010114Y005071D01*
X010185Y005048D01*
X010252Y005014D01*
X010312Y004970D01*
X010365Y004917D01*
X010409Y004856D01*
X010443Y004790D01*
X010466Y004718D01*
X010478Y004645D01*
X010478Y004626D01*
X010021Y004626D01*
X010021Y004589D01*
X010021Y004680D02*
X009984Y004680D01*
X009984Y004839D02*
X010021Y004839D01*
X010021Y004997D02*
X009984Y004997D01*
X009731Y004997D02*
X008362Y004997D01*
X008362Y004839D02*
X009588Y004839D01*
X009533Y004680D02*
X008362Y004680D01*
X008362Y004522D02*
X009535Y004522D01*
X009594Y004363D02*
X008362Y004363D01*
X008362Y004205D02*
X009748Y004205D01*
X009597Y004046D02*
X009564Y004013D01*
X009540Y003972D01*
X009528Y003926D01*
X009528Y003729D02*
X008362Y003729D01*
X008362Y003571D02*
X009528Y003571D01*
X009528Y003412D02*
X008362Y003412D01*
X008362Y003254D02*
X009537Y003254D01*
X008362Y003095D02*
X032608Y003095D01*
X032365Y003298D02*
X032409Y003358D01*
X032443Y003425D01*
X032466Y003496D01*
X032478Y003570D01*
X032478Y003589D01*
X032021Y003589D01*
X032021Y003132D01*
X032040Y003132D01*
X032114Y003144D01*
X032185Y003167D01*
X032252Y003201D01*
X032312Y003245D01*
X032365Y003298D01*
X032322Y003254D02*
X033115Y003254D01*
X033520Y003412D02*
X032437Y003412D01*
X032478Y003571D02*
X033831Y003571D01*
X034117Y003729D02*
X032463Y003729D01*
X032466Y003718D02*
X032443Y003790D01*
X032409Y003856D01*
X032365Y003917D01*
X032312Y003970D01*
X032252Y004014D01*
X032185Y004048D01*
X032114Y004071D01*
X032040Y004082D01*
X032021Y004082D01*
X032021Y003626D01*
X031984Y003626D01*
X031984Y004082D01*
X031965Y004082D01*
X031892Y004071D01*
X031820Y004048D01*
X031754Y004014D01*
X031693Y003970D01*
X031640Y003917D01*
X031596Y003856D01*
X031562Y003790D01*
X031539Y003718D01*
X031528Y003645D01*
X031528Y003626D01*
X031984Y003626D01*
X031984Y003589D01*
X031528Y003589D01*
X031528Y003570D01*
X031539Y003496D01*
X031562Y003425D01*
X031596Y003358D01*
X031640Y003298D01*
X031693Y003245D01*
X031754Y003201D01*
X031820Y003167D01*
X031892Y003144D01*
X031965Y003132D01*
X031984Y003132D01*
X031984Y003589D01*
X032021Y003589D01*
X032021Y003626D01*
X032478Y003626D01*
X032478Y003645D01*
X032466Y003718D01*
X032386Y003888D02*
X034335Y003888D01*
X034553Y004046D02*
X032188Y004046D01*
X032185Y004167D02*
X032252Y004201D01*
X032312Y004245D01*
X032365Y004298D01*
X032409Y004358D01*
X032443Y004425D01*
X032466Y004496D01*
X032478Y004570D01*
X032478Y004589D01*
X032021Y004589D01*
X032021Y004132D01*
X032040Y004132D01*
X032114Y004144D01*
X032185Y004167D01*
X032258Y004205D02*
X034746Y004205D01*
X034905Y004363D02*
X032412Y004363D01*
X032471Y004522D02*
X035063Y004522D01*
X035222Y004680D02*
X032472Y004680D01*
X032478Y004645D02*
X032466Y004718D01*
X032443Y004790D01*
X032409Y004856D01*
X032365Y004917D01*
X032312Y004970D01*
X032252Y005014D01*
X032185Y005048D01*
X032114Y005071D01*
X032040Y005082D01*
X032021Y005082D01*
X032021Y004626D01*
X031984Y004626D01*
X031984Y005082D01*
X031965Y005082D01*
X031892Y005071D01*
X031820Y005048D01*
X031754Y005014D01*
X031693Y004970D01*
X031640Y004917D01*
X031596Y004856D01*
X031562Y004790D01*
X031539Y004718D01*
X031528Y004645D01*
X031528Y004626D01*
X031984Y004626D01*
X031984Y004589D01*
X031528Y004589D01*
X031528Y004570D01*
X031539Y004496D01*
X031562Y004425D01*
X031596Y004358D01*
X031640Y004298D01*
X031693Y004245D01*
X031754Y004201D01*
X031820Y004167D01*
X031892Y004144D01*
X031965Y004132D01*
X031984Y004132D01*
X031984Y004589D01*
X032021Y004589D01*
X032021Y004626D01*
X032478Y004626D01*
X032478Y004645D01*
X032418Y004839D02*
X035337Y004839D01*
X035452Y004997D02*
X032274Y004997D01*
X032021Y004997D02*
X031984Y004997D01*
X031984Y004839D02*
X032021Y004839D01*
X032021Y004680D02*
X031984Y004680D01*
X031984Y004522D02*
X032021Y004522D01*
X032021Y004363D02*
X031984Y004363D01*
X031984Y004205D02*
X032021Y004205D01*
X032021Y004046D02*
X031984Y004046D01*
X031984Y003888D02*
X032021Y003888D01*
X032021Y003729D02*
X031984Y003729D01*
X031984Y003571D02*
X032021Y003571D01*
X032021Y003412D02*
X031984Y003412D01*
X031984Y003254D02*
X032021Y003254D01*
X031684Y003254D02*
X031322Y003254D01*
X031312Y003245D02*
X031365Y003298D01*
X031409Y003358D01*
X031443Y003425D01*
X031466Y003496D01*
X031478Y003570D01*
X031478Y003589D01*
X031021Y003589D01*
X031021Y003132D01*
X031040Y003132D01*
X031114Y003144D01*
X031185Y003167D01*
X031252Y003201D01*
X031312Y003245D01*
X031437Y003412D02*
X031569Y003412D01*
X031528Y003571D02*
X031478Y003571D01*
X031478Y003626D02*
X031478Y003645D01*
X031466Y003718D01*
X031443Y003790D01*
X031409Y003856D01*
X031365Y003917D01*
X031312Y003970D01*
X031252Y004014D01*
X031185Y004048D01*
X031114Y004071D01*
X031040Y004082D01*
X031021Y004082D01*
X031021Y003626D01*
X030984Y003626D01*
X030984Y003589D01*
X031021Y003589D01*
X031021Y003626D01*
X031478Y003626D01*
X031463Y003729D02*
X031543Y003729D01*
X031619Y003888D02*
X031386Y003888D01*
X031188Y004046D02*
X031818Y004046D01*
X031748Y004205D02*
X031258Y004205D01*
X031252Y004201D02*
X031312Y004245D01*
X031365Y004298D01*
X031409Y004358D01*
X031443Y004425D01*
X031466Y004496D01*
X031478Y004570D01*
X031478Y004589D01*
X031021Y004589D01*
X031021Y004132D01*
X031040Y004132D01*
X031114Y004144D01*
X031185Y004167D01*
X031252Y004201D01*
X031412Y004363D02*
X031594Y004363D01*
X031535Y004522D02*
X031471Y004522D01*
X031478Y004626D02*
X031021Y004626D01*
X030984Y004626D01*
X030984Y005082D01*
X030965Y005082D01*
X030892Y005071D01*
X030820Y005048D01*
X030754Y005014D01*
X030693Y004970D01*
X030640Y004917D01*
X030596Y004856D01*
X030562Y004790D01*
X030539Y004718D01*
X030528Y004645D01*
X030528Y004626D01*
X030984Y004626D01*
X030984Y004589D01*
X030528Y004589D01*
X030528Y004570D01*
X030539Y004496D01*
X030562Y004425D01*
X030596Y004358D01*
X030640Y004298D01*
X030693Y004245D01*
X030754Y004201D01*
X030820Y004167D01*
X030892Y004144D01*
X030965Y004132D01*
X030984Y004132D01*
X030984Y004589D01*
X031021Y004589D01*
X031021Y004626D01*
X031021Y005082D01*
X031040Y005082D01*
X031114Y005071D01*
X031185Y005048D01*
X031252Y005014D01*
X031312Y004970D01*
X031365Y004917D01*
X031409Y004856D01*
X031443Y004790D01*
X031466Y004718D01*
X031478Y004645D01*
X031478Y004626D01*
X031472Y004680D02*
X031533Y004680D01*
X031588Y004839D02*
X031418Y004839D01*
X031274Y004997D02*
X031731Y004997D01*
X031021Y004997D02*
X030984Y004997D01*
X030984Y004839D02*
X031021Y004839D01*
X031021Y004680D02*
X030984Y004680D01*
X030984Y004522D02*
X031021Y004522D01*
X031021Y004363D02*
X030984Y004363D01*
X030984Y004205D02*
X031021Y004205D01*
X031021Y004046D02*
X030984Y004046D01*
X030984Y003888D02*
X031021Y003888D01*
X031021Y003729D02*
X030984Y003729D01*
X030984Y003571D02*
X031021Y003571D01*
X031021Y003412D02*
X030984Y003412D01*
X030984Y003254D02*
X031021Y003254D01*
X030748Y004205D02*
X030167Y004205D01*
X030372Y004363D02*
X030594Y004363D01*
X030535Y004522D02*
X030437Y004522D01*
X030437Y004680D02*
X030533Y004680D01*
X030588Y004839D02*
X030377Y004839D01*
X030196Y004997D02*
X030731Y004997D01*
X029400Y005473D02*
X035760Y005473D01*
X035841Y005631D02*
X029434Y005631D01*
X029434Y005790D02*
X035922Y005790D01*
X036003Y005948D02*
X029434Y005948D01*
X029434Y006107D02*
X036061Y006107D01*
X036113Y006265D02*
X029376Y006265D01*
X029193Y006424D02*
X036164Y006424D01*
X036216Y006582D02*
X029387Y006582D01*
X029462Y006741D02*
X036263Y006741D01*
X036288Y006899D02*
X029475Y006899D01*
X029475Y006894D02*
X029464Y006968D01*
X029441Y007039D01*
X029407Y007105D01*
X029363Y007165D01*
X029311Y007218D01*
X029250Y007261D01*
X029184Y007295D01*
X029113Y007318D01*
X029040Y007330D01*
X029020Y007330D01*
X029020Y006875D01*
X029475Y006875D01*
X029475Y006894D01*
X029431Y007058D02*
X036313Y007058D01*
X036338Y007216D02*
X029312Y007216D01*
X029020Y007216D02*
X028985Y007216D01*
X028985Y007058D02*
X029020Y007058D01*
X029020Y006899D02*
X028985Y006899D01*
X028985Y006741D02*
X029020Y006741D01*
X029020Y006582D02*
X028985Y006582D01*
X028985Y006424D02*
X029020Y006424D01*
X028716Y007533D02*
X026487Y007533D01*
X026645Y007692D02*
X028604Y007692D01*
X028571Y007850D02*
X026804Y007850D01*
X026962Y008009D02*
X028599Y008009D01*
X025018Y010703D02*
X024263Y010703D01*
X024104Y010545D02*
X024860Y010545D01*
X024701Y010386D02*
X023946Y010386D01*
X023787Y010228D02*
X024543Y010228D01*
X023636Y010069D02*
X023629Y010069D01*
X023478Y009911D02*
X023470Y009911D01*
X023387Y009752D02*
X023312Y009752D01*
X023387Y009594D02*
X023153Y009594D01*
X022995Y009435D02*
X023387Y009435D01*
X023387Y009277D02*
X022836Y009277D01*
X021858Y009118D02*
X019960Y009118D01*
X019833Y008960D02*
X021700Y008960D01*
X024421Y010862D02*
X025177Y010862D01*
X025335Y011020D02*
X024580Y011020D01*
X024738Y011179D02*
X025218Y011179D01*
X025059Y011337D02*
X024897Y011337D01*
X025833Y014824D02*
X027564Y014824D01*
X027723Y014983D02*
X025972Y014983D01*
X025972Y015141D02*
X027881Y015141D01*
X028040Y015300D02*
X025972Y015300D01*
X025865Y015458D02*
X028191Y015458D01*
X028245Y015617D02*
X025706Y015617D01*
X028650Y015617D02*
X028672Y015617D01*
X025613Y020689D02*
X025514Y020689D01*
X025502Y020847D02*
X025355Y020847D01*
X025347Y021006D02*
X025469Y021006D01*
X025495Y021164D02*
X025322Y021164D01*
X025221Y021323D02*
X025596Y021323D01*
X025916Y022173D02*
X026089Y022173D01*
X026249Y022239D01*
X026371Y022361D01*
X026437Y022521D01*
X026437Y022694D01*
X026371Y022853D01*
X026249Y022975D01*
X026089Y023041D01*
X025916Y023041D01*
X025757Y022975D01*
X025635Y022853D01*
X025569Y022694D01*
X025569Y022521D01*
X025635Y022361D01*
X025757Y022239D01*
X025916Y022173D01*
X025722Y022274D02*
X025284Y022274D01*
X025401Y022432D02*
X025605Y022432D01*
X025569Y022591D02*
X025437Y022591D01*
X025414Y022749D02*
X025592Y022749D01*
X025689Y022908D02*
X025316Y022908D01*
X025215Y023225D02*
X025791Y023225D01*
X025625Y023383D02*
X025380Y023383D01*
X025437Y023542D02*
X025569Y023542D01*
X025571Y023700D02*
X025434Y023700D01*
X025365Y023859D02*
X025640Y023859D01*
X026365Y023859D02*
X026640Y023859D01*
X026571Y023700D02*
X026434Y023700D01*
X026437Y023542D02*
X026569Y023542D01*
X026625Y023383D02*
X026380Y023383D01*
X026215Y023225D02*
X026791Y023225D01*
X026916Y023041D02*
X026757Y022975D01*
X026635Y022853D01*
X026569Y022694D01*
X026569Y022521D01*
X026635Y022361D01*
X026757Y022239D01*
X026916Y022173D01*
X027089Y022173D01*
X027249Y022239D01*
X027371Y022361D01*
X027437Y022521D01*
X027437Y022694D01*
X027371Y022853D01*
X027249Y022975D01*
X027089Y023041D01*
X026916Y023041D01*
X026689Y022908D02*
X026316Y022908D01*
X026414Y022749D02*
X026592Y022749D01*
X026569Y022591D02*
X026437Y022591D01*
X026401Y022432D02*
X026605Y022432D01*
X026722Y022274D02*
X026284Y022274D01*
X027284Y022274D02*
X027722Y022274D01*
X027757Y022239D02*
X027916Y022173D01*
X028089Y022173D01*
X028249Y022239D01*
X028371Y022361D01*
X028437Y022521D01*
X028437Y022694D01*
X028371Y022853D01*
X028249Y022975D01*
X028089Y023041D01*
X027916Y023041D01*
X027757Y022975D01*
X027635Y022853D01*
X027569Y022694D01*
X027569Y022521D01*
X027635Y022361D01*
X027757Y022239D01*
X027605Y022432D02*
X027401Y022432D01*
X027437Y022591D02*
X027569Y022591D01*
X027592Y022749D02*
X027414Y022749D01*
X027316Y022908D02*
X027689Y022908D01*
X027791Y023225D02*
X027215Y023225D01*
X027380Y023383D02*
X027625Y023383D01*
X027569Y023542D02*
X027437Y023542D01*
X027434Y023700D02*
X027571Y023700D01*
X027640Y023859D02*
X027365Y023859D01*
X028365Y023859D02*
X028640Y023859D01*
X028571Y023700D02*
X028434Y023700D01*
X028437Y023542D02*
X028569Y023542D01*
X028625Y023383D02*
X028380Y023383D01*
X028215Y023225D02*
X028791Y023225D01*
X028916Y023041D02*
X028757Y022975D01*
X028635Y022853D01*
X028569Y022694D01*
X028569Y022521D01*
X028635Y022361D01*
X028757Y022239D01*
X028916Y022173D01*
X029089Y022173D01*
X029249Y022239D01*
X029371Y022361D01*
X029437Y022521D01*
X029437Y022694D01*
X029371Y022853D01*
X029249Y022975D01*
X029089Y023041D01*
X028916Y023041D01*
X028689Y022908D02*
X028316Y022908D01*
X028414Y022749D02*
X028592Y022749D01*
X028569Y022591D02*
X028437Y022591D01*
X028401Y022432D02*
X028605Y022432D01*
X028722Y022274D02*
X028284Y022274D01*
X029284Y022274D02*
X029722Y022274D01*
X029757Y022239D02*
X029916Y022173D01*
X030089Y022173D01*
X030249Y022239D01*
X030371Y022361D01*
X030437Y022521D01*
X030437Y022694D01*
X030371Y022853D01*
X030249Y022975D01*
X030089Y023041D01*
X029916Y023041D01*
X029757Y022975D01*
X029635Y022853D01*
X029569Y022694D01*
X029569Y022521D01*
X029635Y022361D01*
X029757Y022239D01*
X029605Y022432D02*
X029401Y022432D01*
X029437Y022591D02*
X029569Y022591D01*
X029592Y022749D02*
X029414Y022749D01*
X029316Y022908D02*
X029689Y022908D01*
X029791Y023225D02*
X029215Y023225D01*
X029380Y023383D02*
X029625Y023383D01*
X029569Y023542D02*
X029437Y023542D01*
X029434Y023700D02*
X029571Y023700D01*
X029640Y023859D02*
X029365Y023859D01*
X030365Y023859D02*
X030640Y023859D01*
X030571Y023700D02*
X030434Y023700D01*
X030437Y023542D02*
X030569Y023542D01*
X030625Y023383D02*
X030380Y023383D01*
X030215Y023225D02*
X030791Y023225D01*
X030689Y022908D02*
X030316Y022908D01*
X030414Y022749D02*
X030592Y022749D01*
X030569Y022591D02*
X030437Y022591D01*
X030401Y022432D02*
X030605Y022432D01*
X030722Y022274D02*
X030284Y022274D01*
X034689Y023066D02*
X024533Y023066D01*
X024532Y022908D02*
X024689Y022908D01*
X024610Y023225D02*
X024791Y023225D01*
X024625Y023383D02*
X024577Y023383D01*
X024569Y023542D02*
X024437Y023542D01*
X024434Y023700D02*
X024571Y023700D01*
X024640Y023859D02*
X024365Y023859D01*
X024650Y022274D02*
X024722Y022274D01*
X013791Y023225D02*
X013215Y023225D01*
X013380Y023383D02*
X013625Y023383D01*
X013569Y023542D02*
X013437Y023542D01*
X013434Y023700D02*
X013571Y023700D01*
X013640Y023859D02*
X013365Y023859D01*
X013316Y022908D02*
X013689Y022908D01*
X013592Y022749D02*
X013414Y022749D01*
X013437Y022591D02*
X013569Y022591D01*
X013605Y022432D02*
X013401Y022432D01*
X013284Y022274D02*
X013722Y022274D01*
X013427Y020847D02*
X013327Y020847D01*
X013284Y020689D02*
X013427Y020689D01*
X013427Y020530D02*
X013219Y020530D01*
X013065Y020372D02*
X013427Y020372D01*
X013427Y020213D02*
X012760Y020213D01*
X012822Y020055D02*
X013427Y020055D01*
X013427Y019896D02*
X013091Y019896D01*
X013229Y019738D02*
X013427Y019738D01*
X013427Y019579D02*
X013295Y019579D01*
X013327Y019421D02*
X013427Y019421D01*
X013427Y019262D02*
X013327Y019262D01*
X013282Y019104D02*
X013427Y019104D01*
X013427Y018945D02*
X013217Y018945D01*
X013060Y018787D02*
X013427Y018787D01*
X014718Y014190D02*
X015552Y014190D01*
X015394Y014032D02*
X014560Y014032D01*
X014401Y013873D02*
X015235Y013873D01*
X015077Y013715D02*
X014243Y013715D01*
X015429Y009594D02*
X015518Y009594D01*
X015493Y009435D02*
X015472Y009435D01*
X015472Y009277D02*
X015493Y009277D01*
X015520Y009118D02*
X015427Y009118D01*
X014999Y007216D02*
X014752Y007216D01*
X014840Y007058D02*
X014594Y007058D01*
X014435Y006899D02*
X014834Y006899D01*
X010810Y004997D02*
X010274Y004997D01*
X010418Y004839D02*
X010629Y004839D01*
X010569Y004680D02*
X010472Y004680D01*
X010471Y004522D02*
X010569Y004522D01*
X010634Y004363D02*
X010412Y004363D01*
X010258Y004205D02*
X010839Y004205D01*
D24*
X016873Y009589D03*
X013487Y013211D03*
X013605Y017385D03*
X024353Y023251D03*
X028999Y015692D03*
X028448Y015456D03*
X025219Y013645D03*
M02*
