%
M48
M72
T01C0.0118
T02C0.0315
T03C0.0320
T04C0.0390
T05C0.0394
T06C0.0400
T07C0.0560
T08C0.0591
T09C0.0790
%
T01
X16873Y16832
X13487Y20454
X13605Y24628
X24353Y30494
X28999Y22935
X28448Y22698
X25219Y20887
T02
X34294Y21935
X34294Y22935
X34294Y23935
X34294Y24935
X35294Y24435
X35294Y23435
X35294Y22435
X35294Y21435
X12086Y21911
X11086Y21411
X12086Y20911
X11086Y22411
T03
X13444Y23514
X15003Y22600
X16003Y22600
X18003Y22900
X19503Y22600
X20503Y22600
X22503Y22400
X24003Y20400
X25503Y18800
X24003Y16800
X22503Y18800
X20503Y19600
X19503Y19600
X18003Y19300
X16003Y19600
X15003Y19600
X13444Y19914
X13503Y18900
X15003Y16600
X16003Y16600
X17503Y16600
X19503Y16600
X19003Y14600
X19003Y13600
X15303Y14100
X13503Y15300
X11703Y14100
X18203Y24600
X21803Y24600
X25503Y22400
X21988Y28254
X18388Y28254
T04
X26003Y16100
X26003Y15100
X26003Y14100
X26003Y13100
X29003Y13100
X29003Y14100
X29003Y15100
X29003Y16100
T05
X10003Y10850
X11003Y10850
X12003Y10850
X13003Y10850
X14003Y10850
X15003Y10850
X16003Y10850
X17003Y10850
X18003Y10850
X19003Y10850
X20003Y10850
X21003Y10850
X22003Y10850
X23003Y10850
X24003Y10850
X25003Y10850
X26003Y10850
X27003Y10850
X28003Y10850
X29003Y10850
X30003Y10850
X31003Y10850
X32003Y10850
X32003Y11850
X31003Y11850
X30003Y11850
X29003Y11850
X28003Y11850
X27003Y11850
X26003Y11850
X25003Y11850
X24003Y11850
X23003Y11850
X22003Y11850
X21003Y11850
X20003Y11850
X19003Y11850
X18003Y11850
X17003Y11850
X16003Y11850
X15003Y11850
X14003Y11850
X13003Y11850
X12003Y11850
X11003Y11850
X10003Y11850
X10003Y29850
X11003Y29850
X12003Y29850
X13003Y29850
X14003Y29850
X15003Y29850
X16003Y29850
X17003Y29850
X18003Y29850
X19003Y29850
X20003Y29850
X21003Y29850
X22003Y29850
X23003Y29850
X24003Y29850
X25003Y29850
X26003Y29850
X27003Y29850
X28003Y29850
X29003Y29850
X30003Y29850
X31003Y29850
X32003Y29850
X32003Y30850
X31003Y30850
X30003Y30850
X29003Y30850
X28003Y30850
X27003Y30850
X26003Y30850
X25003Y30850
X24003Y30850
X23003Y30850
X22003Y30850
X21003Y30850
X20003Y30850
X19003Y30850
X18003Y30850
X17003Y30850
X16003Y30850
X15003Y30850
X14003Y30850
X13003Y30850
X12003Y30850
X11003Y30850
X10003Y30850
T06
X23908Y28257
X24908Y28257
X25908Y28257
X24003Y14600
X24003Y13600
X23003Y13600
X23003Y14600
X22003Y14600
X22003Y13600
X21003Y13600
X21003Y14600
T07
X34869Y26820
X34869Y28198
T08
X34438Y20797
X11942Y23049
T09
X12003Y25020
X12003Y26600
X12003Y28180
X16003Y28180
X16003Y26600
X16003Y25020
M30
