G75*
G70*
%OFA0B0*%
%FSLAX24Y24*%
%IPPOS*%
%LPD*%
%AMOC8*
5,1,8,0,0,1.08239X$1,22.5*
%
%ADD10C,0.0520*%
%ADD11C,0.0640*%
%ADD12R,0.0690X0.0690*%
%ADD13C,0.0690*%
%ADD14C,0.0700*%
%ADD15C,0.0600*%
%ADD16C,0.0631*%
%ADD17C,0.0780*%
%ADD18C,0.0276*%
%ADD19C,0.1542*%
D10*
X012008Y012403D03*
X012008Y014303D03*
D11*
X017606Y014414D02*
X018206Y014414D01*
X018206Y015414D02*
X017606Y015414D01*
X017606Y013414D02*
X018206Y013414D01*
X018208Y012128D02*
X017608Y012128D01*
X017608Y011128D02*
X018208Y011128D01*
X018208Y010128D02*
X017608Y010128D01*
X017483Y008378D02*
X018083Y008378D01*
X018083Y007378D02*
X017483Y007378D01*
X017483Y006378D02*
X018083Y006378D01*
X018106Y004950D02*
X017506Y004950D01*
X017506Y003950D02*
X018106Y003950D01*
X018106Y002950D02*
X017506Y002950D01*
X004808Y009831D02*
X004208Y009831D01*
X004208Y010831D02*
X004808Y010831D01*
X004808Y011831D02*
X004208Y011831D01*
X004200Y013088D02*
X004800Y013088D01*
X004800Y014088D02*
X004200Y014088D01*
X004200Y015088D02*
X004800Y015088D01*
D12*
X006383Y015903D03*
X006333Y012728D03*
X016258Y013853D03*
X016258Y010153D03*
X016258Y006603D03*
X016258Y003078D03*
D13*
X016258Y004078D03*
X016258Y007603D03*
X016258Y011153D03*
X016258Y014853D03*
X006383Y014903D03*
X006333Y011728D03*
D14*
X008008Y011103D03*
X009133Y010666D03*
X008008Y010103D03*
X008008Y009103D03*
X008008Y008103D03*
X008008Y007103D03*
X009133Y007541D03*
X009133Y006541D03*
X008008Y006103D03*
X008008Y005103D03*
X008008Y004103D03*
X014008Y011103D03*
X014008Y013103D03*
X013508Y016103D03*
X012508Y016103D03*
X011508Y016103D03*
X010508Y016103D03*
X009508Y016103D03*
X008508Y016103D03*
X009133Y011666D03*
D15*
X004758Y007353D03*
X005758Y006853D03*
X004758Y006353D03*
X005758Y005853D03*
X004758Y005353D03*
X005758Y004853D03*
X004758Y004353D03*
X005758Y003853D03*
D16*
X004902Y003215D03*
D17*
X007008Y008353D03*
X007008Y009353D03*
X007008Y010353D03*
D18*
X007818Y012773D03*
X007320Y013219D03*
X008308Y013263D03*
X010198Y012213D03*
X014328Y014027D03*
X014818Y007803D03*
X013558Y006263D03*
X013558Y005843D03*
X013558Y005353D03*
D19*
X003091Y001721D03*
X019134Y001623D03*
X019134Y016682D03*
X003091Y016682D03*
M02*
