G75*
%MOIN*%
%OFA0B0*%
%FSLAX24Y24*%
%IPPOS*%
%LPD*%
%AMOC8*
5,1,8,0,0,1.08239X$1,22.5*
%
%ADD10R,0.0870X0.0240*%
%ADD11C,0.0480*%
%ADD12R,0.0472X0.0315*%
%ADD13R,0.0315X0.0472*%
%ADD14C,0.0740*%
%ADD15C,0.0531*%
%ADD16OC8,0.0740*%
%ADD17C,0.0560*%
%ADD18C,0.0059*%
%ADD19C,0.0236*%
%ADD20C,0.0160*%
%ADD21C,0.1227*%
D10*
X007670Y003720D03*
X007670Y004220D03*
X007670Y004720D03*
X007670Y005220D03*
X009730Y005220D03*
X009730Y004720D03*
X009730Y004220D03*
X009730Y003720D03*
D11*
X012680Y013230D03*
X012680Y015130D03*
D12*
X005550Y004654D03*
X005550Y003945D03*
D13*
X011316Y004710D03*
X012024Y004710D03*
D14*
X013310Y004880D03*
X013310Y003880D03*
X013310Y002880D03*
X010180Y008680D03*
X010180Y009680D03*
X010180Y010680D03*
X010180Y012680D03*
X009680Y015680D03*
X008680Y015680D03*
X007680Y015680D03*
X006680Y015680D03*
X005680Y015680D03*
X004680Y015680D03*
X004180Y006680D03*
X004180Y005680D03*
X004180Y004680D03*
X004180Y003680D03*
D15*
X010180Y007680D03*
D16*
X005880Y009570D03*
X005880Y010570D03*
X005880Y011570D03*
X005880Y012570D03*
X004880Y012570D03*
X004880Y011570D03*
X004880Y010570D03*
X004880Y009570D03*
D17*
X012490Y009900D03*
X012490Y010900D03*
X013490Y010400D03*
X013490Y009400D03*
X013490Y008400D03*
X013490Y007400D03*
X012490Y007900D03*
X012490Y008900D03*
D18*
X012550Y008940D01*
X012900Y009290D01*
X013180Y009290D01*
X013250Y009360D01*
X013460Y009360D01*
X013490Y009400D01*
X013460Y010060D02*
X013390Y010060D01*
X012830Y009500D01*
X012480Y009500D01*
X011710Y008730D01*
X011640Y008730D01*
X011640Y010480D01*
X010520Y011600D01*
X009120Y011600D01*
X009120Y012860D01*
X009820Y010620D02*
X010170Y010620D01*
X010180Y010680D01*
X009820Y010620D02*
X008490Y009290D01*
X008700Y008730D02*
X010170Y008730D01*
X010180Y008680D01*
X010030Y007820D02*
X008420Y007820D01*
X006180Y010060D01*
X004710Y010060D01*
X004360Y010410D01*
X004360Y010970D01*
X004430Y010970D01*
X004850Y011390D01*
X004850Y011530D01*
X004880Y011570D01*
X005880Y011570D02*
X005900Y011530D01*
X008700Y008730D01*
X008210Y007260D02*
X010310Y007260D01*
X010730Y007680D01*
X010730Y009640D01*
X010240Y009640D01*
X010180Y009680D01*
X011640Y008660D02*
X011640Y007330D01*
X011920Y007330D01*
X012490Y007900D01*
X011920Y007330D02*
X010450Y005860D01*
X009050Y005860D01*
X008630Y005440D01*
X008630Y004250D01*
X007720Y004250D01*
X007670Y004220D01*
X007650Y004180D01*
X007580Y004110D01*
X006880Y004110D01*
X006040Y003270D01*
X006110Y002990D02*
X007090Y003970D01*
X008280Y003970D01*
X008560Y003690D01*
X009680Y003690D01*
X009730Y003720D01*
X009820Y004110D02*
X010800Y004110D01*
X011990Y002920D01*
X013250Y002920D01*
X013310Y002880D01*
X013310Y003880D02*
X013250Y003900D01*
X012830Y003900D01*
X012060Y004670D01*
X012024Y004710D01*
X011360Y004740D02*
X011316Y004710D01*
X011290Y004670D01*
X009750Y004670D01*
X009730Y004720D01*
X009730Y004220D02*
X009750Y004180D01*
X009820Y004110D01*
X009750Y003060D02*
X008840Y003060D01*
X008210Y003690D01*
X007720Y003690D01*
X007670Y003720D01*
X007670Y005220D02*
X007720Y005230D01*
X008140Y005650D01*
X008210Y007260D02*
X005900Y009570D01*
X005880Y009570D01*
X004990Y006630D02*
X004220Y006630D01*
X004180Y006680D01*
X004990Y006630D02*
X006040Y005580D01*
X004990Y005020D02*
X004710Y004740D01*
X004220Y004740D01*
X004180Y004680D01*
X005550Y003945D02*
X005550Y002990D01*
X006110Y002990D01*
X009750Y003060D02*
X009890Y002920D01*
X011360Y004740D02*
X013250Y006630D01*
X013810Y006630D01*
X014230Y007050D01*
X014230Y008240D01*
X013810Y008240D01*
X013600Y008450D01*
X013530Y008450D01*
X013490Y008400D01*
X013460Y010060D02*
X013460Y010340D01*
X013490Y010400D01*
X011710Y008730D02*
X011640Y008660D01*
X010180Y007680D02*
X010170Y007680D01*
X010030Y007820D01*
D19*
X008490Y009290D03*
X009120Y012860D03*
X008140Y005650D03*
X006040Y005580D03*
X004990Y005020D03*
X006040Y003270D03*
X009890Y002920D03*
D20*
X002338Y003118D02*
X002412Y015741D01*
X002497Y015656D01*
X002810Y015526D01*
X003150Y015526D01*
X003463Y015656D01*
X003703Y015896D01*
X003833Y016210D01*
X003833Y016549D01*
X003703Y016863D01*
X003655Y016911D01*
X014013Y017020D01*
X013957Y016963D01*
X013827Y016649D01*
X013827Y016310D01*
X013957Y015996D01*
X014197Y015756D01*
X014510Y015626D01*
X014850Y015626D01*
X015163Y015756D01*
X015306Y015898D01*
X015265Y003302D01*
X015163Y003403D01*
X014850Y003533D01*
X014510Y003533D01*
X014197Y003403D01*
X013957Y003163D01*
X013905Y003038D01*
X013827Y003225D01*
X013673Y003380D01*
X013827Y003534D01*
X013920Y003758D01*
X013920Y004001D01*
X013827Y004225D01*
X013673Y004380D01*
X013827Y004534D01*
X013920Y004758D01*
X013920Y005001D01*
X013827Y005225D01*
X013656Y005397D01*
X013431Y005490D01*
X013189Y005490D01*
X012964Y005397D01*
X012793Y005225D01*
X012700Y005001D01*
X012700Y004758D01*
X012793Y004534D01*
X012947Y004380D01*
X012839Y004272D01*
X012422Y004689D01*
X012422Y004994D01*
X012385Y005082D01*
X012318Y005149D01*
X012230Y005186D01*
X012187Y005186D01*
X013362Y006360D01*
X013864Y006360D01*
X013963Y006401D01*
X014038Y006477D01*
X014383Y006821D01*
X014458Y006897D01*
X014500Y006996D01*
X014500Y008293D01*
X014458Y008392D01*
X014383Y008468D01*
X014284Y008509D01*
X014007Y008509D01*
X013931Y008694D01*
X013785Y008841D01*
X013642Y008900D01*
X013785Y008959D01*
X013931Y009105D01*
X014010Y009296D01*
X014010Y009503D01*
X013931Y009694D01*
X013785Y009841D01*
X013670Y009888D01*
X013688Y009907D01*
X013695Y009922D01*
X013785Y009959D01*
X013931Y010105D01*
X014010Y010296D01*
X014010Y010503D01*
X013931Y010694D01*
X013785Y010841D01*
X013593Y010920D01*
X013387Y010920D01*
X013195Y010841D01*
X013049Y010694D01*
X012970Y010503D01*
X012970Y010296D01*
X013049Y010105D01*
X013052Y010103D01*
X012993Y010044D01*
X012931Y010194D01*
X012785Y010341D01*
X012593Y010420D01*
X012387Y010420D01*
X012195Y010341D01*
X012049Y010194D01*
X011970Y010003D01*
X011970Y009796D01*
X012049Y009605D01*
X012127Y009528D01*
X011910Y009310D01*
X011910Y010533D01*
X011868Y010632D01*
X011793Y010708D01*
X010673Y011828D01*
X010574Y011869D01*
X009390Y011869D01*
X009390Y012623D01*
X009424Y012657D01*
X009478Y012788D01*
X009478Y012931D01*
X009424Y013063D01*
X009323Y013163D01*
X009191Y013218D01*
X009049Y013218D01*
X008917Y013163D01*
X008816Y013063D01*
X008762Y012931D01*
X008762Y012788D01*
X008816Y012657D01*
X008850Y012623D01*
X008850Y011546D01*
X008892Y011447D01*
X008967Y011371D01*
X009066Y011330D01*
X010408Y011330D01*
X011370Y010368D01*
X011370Y007276D01*
X011404Y007195D01*
X010338Y006129D01*
X008996Y006129D01*
X008897Y006088D01*
X008498Y005689D01*
X008498Y005721D01*
X008444Y005853D01*
X008343Y005953D01*
X008211Y006008D01*
X008069Y006008D01*
X007937Y005953D01*
X007836Y005853D01*
X007782Y005721D01*
X007782Y005673D01*
X007689Y005580D01*
X007187Y005580D01*
X007099Y005543D01*
X007032Y005476D01*
X006995Y005387D01*
X006995Y005052D01*
X007032Y004964D01*
X007074Y004921D01*
X007067Y004909D01*
X007055Y004863D01*
X007055Y004720D01*
X007670Y004720D01*
X007670Y004720D01*
X008285Y004720D01*
X008285Y004863D01*
X008273Y004909D01*
X008266Y004921D01*
X008308Y004964D01*
X008345Y005052D01*
X008345Y005348D01*
X008360Y005364D01*
X008360Y004519D01*
X008266Y004519D01*
X008273Y004530D01*
X008285Y004576D01*
X008285Y004720D01*
X007670Y004720D01*
X007670Y004720D01*
X007055Y004720D01*
X007055Y004576D01*
X007067Y004530D01*
X007074Y004518D01*
X007032Y004476D01*
X006995Y004387D01*
X006995Y004379D01*
X006826Y004379D01*
X006727Y004338D01*
X006652Y004262D01*
X006017Y003628D01*
X005969Y003628D01*
X005963Y003626D01*
X005990Y003652D01*
X006026Y003740D01*
X006026Y004151D01*
X005990Y004239D01*
X005922Y004306D01*
X005861Y004332D01*
X005897Y004353D01*
X005930Y004386D01*
X005954Y004427D01*
X005966Y004473D01*
X005966Y004654D01*
X005550Y004654D01*
X005134Y004654D01*
X005134Y004473D01*
X005146Y004427D01*
X005170Y004386D01*
X005203Y004353D01*
X005239Y004332D01*
X005178Y004306D01*
X005110Y004239D01*
X005074Y004151D01*
X005074Y003740D01*
X005110Y003652D01*
X005178Y003584D01*
X005266Y003548D01*
X005280Y003548D01*
X005280Y002936D01*
X005322Y002837D01*
X005397Y002761D01*
X005496Y002720D01*
X006164Y002720D01*
X006263Y002761D01*
X007012Y003511D01*
X007032Y003464D01*
X007099Y003396D01*
X007187Y003360D01*
X008153Y003360D01*
X008157Y003362D01*
X008687Y002831D01*
X008786Y002790D01*
X009556Y002790D01*
X009586Y002717D01*
X009687Y002616D01*
X009819Y002562D01*
X009961Y002562D01*
X010093Y002616D01*
X010194Y002717D01*
X010248Y002848D01*
X010248Y002991D01*
X010194Y003123D01*
X010093Y003223D01*
X009961Y003278D01*
X009913Y003278D01*
X009903Y003288D01*
X009804Y003329D01*
X008952Y003329D01*
X008861Y003420D01*
X009135Y003420D01*
X009159Y003396D01*
X009247Y003360D01*
X010213Y003360D01*
X010301Y003396D01*
X010368Y003464D01*
X010405Y003552D01*
X010405Y003840D01*
X010688Y003840D01*
X011762Y002767D01*
X011837Y002691D01*
X011936Y002650D01*
X012745Y002650D01*
X012793Y002534D01*
X012964Y002363D01*
X013189Y002270D01*
X013431Y002270D01*
X013656Y002363D01*
X013827Y002534D01*
X013827Y002510D01*
X013957Y002196D01*
X014126Y002027D01*
X003610Y002003D01*
X003803Y002196D01*
X003933Y002510D01*
X003933Y002849D01*
X003803Y003163D01*
X003563Y003403D01*
X003250Y003533D01*
X002910Y003533D01*
X002597Y003403D01*
X002357Y003163D01*
X002338Y003118D01*
X002338Y003203D02*
X002396Y003203D01*
X002339Y003361D02*
X002555Y003361D01*
X002340Y003520D02*
X002878Y003520D01*
X003282Y003520D02*
X003586Y003520D01*
X003570Y003558D02*
X003663Y003334D01*
X003834Y003163D01*
X004059Y003070D01*
X004301Y003070D01*
X004526Y003163D01*
X004697Y003334D01*
X004790Y003558D01*
X004790Y003801D01*
X004697Y004025D01*
X004543Y004180D01*
X004697Y004334D01*
X004753Y004470D01*
X004764Y004470D01*
X004863Y004511D01*
X004938Y004587D01*
X005013Y004662D01*
X005061Y004662D01*
X005134Y004692D01*
X005134Y004654D01*
X005550Y004654D01*
X005550Y004654D01*
X005550Y004654D01*
X005966Y004654D01*
X005966Y004835D01*
X005954Y004881D01*
X005930Y004922D01*
X005897Y004956D01*
X005856Y004979D01*
X005810Y004992D01*
X005550Y004992D01*
X005550Y004654D01*
X005550Y004992D01*
X005348Y004992D01*
X005348Y005091D01*
X005294Y005223D01*
X005193Y005323D01*
X005061Y005378D01*
X004919Y005378D01*
X004787Y005323D01*
X004686Y005223D01*
X004632Y005091D01*
X004632Y005090D01*
X004543Y005180D01*
X004697Y005334D01*
X004790Y005558D01*
X004790Y005801D01*
X004697Y006025D01*
X004543Y006180D01*
X004697Y006334D01*
X004708Y006360D01*
X004878Y006360D01*
X005682Y005557D01*
X005682Y005508D01*
X005736Y005377D01*
X005837Y005276D01*
X005969Y005222D01*
X006111Y005222D01*
X006243Y005276D01*
X006344Y005377D01*
X006398Y005508D01*
X006398Y005651D01*
X006344Y005783D01*
X006243Y005883D01*
X006111Y005938D01*
X006063Y005938D01*
X005218Y006782D01*
X005143Y006858D01*
X005044Y006899D01*
X004749Y006899D01*
X004697Y007025D01*
X004526Y007197D01*
X004301Y007290D01*
X004059Y007290D01*
X003834Y007197D01*
X003663Y007025D01*
X003570Y006801D01*
X003570Y006558D01*
X003663Y006334D01*
X003817Y006180D01*
X003663Y006025D01*
X003570Y005801D01*
X003570Y005558D01*
X003663Y005334D01*
X003817Y005180D01*
X003663Y005025D01*
X003570Y004801D01*
X003570Y004558D01*
X003663Y004334D01*
X003817Y004180D01*
X003663Y004025D01*
X003570Y003801D01*
X003570Y003558D01*
X003570Y003678D02*
X002341Y003678D01*
X002342Y003837D02*
X003585Y003837D01*
X003650Y003995D02*
X002343Y003995D01*
X002344Y004154D02*
X003791Y004154D01*
X003685Y004312D02*
X002345Y004312D01*
X002346Y004471D02*
X003606Y004471D01*
X003570Y004629D02*
X002347Y004629D01*
X002348Y004788D02*
X003570Y004788D01*
X003630Y004946D02*
X002349Y004946D01*
X002350Y005105D02*
X003742Y005105D01*
X003734Y005263D02*
X002351Y005263D01*
X002351Y005422D02*
X003627Y005422D01*
X003570Y005580D02*
X002352Y005580D01*
X002353Y005739D02*
X003570Y005739D01*
X003610Y005897D02*
X002354Y005897D01*
X002355Y006056D02*
X003693Y006056D01*
X003783Y006214D02*
X002356Y006214D01*
X002357Y006373D02*
X003647Y006373D01*
X003581Y006531D02*
X002358Y006531D01*
X002359Y006690D02*
X003570Y006690D01*
X003590Y006848D02*
X002360Y006848D01*
X002361Y007007D02*
X003655Y007007D01*
X003803Y007165D02*
X002362Y007165D01*
X002363Y007324D02*
X007765Y007324D01*
X007606Y007482D02*
X002363Y007482D01*
X002364Y007641D02*
X007448Y007641D01*
X007289Y007799D02*
X002365Y007799D01*
X002366Y007958D02*
X007131Y007958D01*
X006972Y008116D02*
X002367Y008116D01*
X002368Y008275D02*
X006814Y008275D01*
X006655Y008433D02*
X002369Y008433D01*
X002370Y008592D02*
X006497Y008592D01*
X006338Y008750D02*
X002371Y008750D01*
X002372Y008909D02*
X006180Y008909D01*
X006129Y008960D02*
X007982Y007107D01*
X008057Y007031D01*
X008156Y006990D01*
X010364Y006990D01*
X010463Y007031D01*
X010883Y007451D01*
X010958Y007527D01*
X011000Y007626D01*
X011000Y009693D01*
X010958Y009792D01*
X010883Y009868D01*
X010784Y009909D01*
X010745Y009909D01*
X010697Y010025D01*
X010543Y010180D01*
X010697Y010334D01*
X010790Y010558D01*
X010790Y010801D01*
X010697Y011025D01*
X010526Y011197D01*
X010301Y011290D01*
X010059Y011290D01*
X009834Y011197D01*
X009663Y011025D01*
X009570Y010801D01*
X009570Y010751D01*
X008467Y009648D01*
X008419Y009648D01*
X008287Y009593D01*
X008252Y009559D01*
X006490Y011321D01*
X006490Y011822D01*
X006243Y012070D01*
X006490Y012317D01*
X006490Y012822D01*
X006133Y013180D01*
X005627Y013180D01*
X005338Y012890D01*
X005108Y013120D01*
X004900Y013120D01*
X004900Y012590D01*
X004860Y012590D01*
X004860Y013120D01*
X004652Y013120D01*
X004330Y012798D01*
X004330Y012590D01*
X004860Y012590D01*
X004860Y012550D01*
X004330Y012550D01*
X004330Y012342D01*
X004560Y012112D01*
X004270Y011822D01*
X004270Y011317D01*
X004333Y011254D01*
X004318Y011239D01*
X004306Y011239D01*
X004207Y011198D01*
X004132Y011122D01*
X004090Y011023D01*
X004090Y010356D01*
X004132Y010257D01*
X004207Y010181D01*
X004418Y009970D01*
X004270Y009822D01*
X004270Y009317D01*
X004627Y008960D01*
X005133Y008960D01*
X005380Y009207D01*
X005627Y008960D01*
X006129Y008960D01*
X005520Y009067D02*
X005240Y009067D01*
X004520Y009067D02*
X002373Y009067D01*
X002374Y009226D02*
X004361Y009226D01*
X004270Y009384D02*
X002375Y009384D01*
X002376Y009543D02*
X004270Y009543D01*
X004270Y009701D02*
X002376Y009701D01*
X002377Y009860D02*
X004307Y009860D01*
X004370Y010018D02*
X002378Y010018D01*
X002379Y010177D02*
X004212Y010177D01*
X004099Y010335D02*
X002380Y010335D01*
X002381Y010494D02*
X004090Y010494D01*
X004090Y010652D02*
X002382Y010652D01*
X002383Y010811D02*
X004090Y010811D01*
X004090Y010969D02*
X002384Y010969D01*
X002385Y011128D02*
X004137Y011128D01*
X004301Y011286D02*
X002386Y011286D01*
X002387Y011445D02*
X004270Y011445D01*
X004270Y011603D02*
X002388Y011603D01*
X002389Y011762D02*
X004270Y011762D01*
X004368Y011920D02*
X002389Y011920D01*
X002390Y012079D02*
X004526Y012079D01*
X004435Y012237D02*
X002391Y012237D01*
X002392Y012396D02*
X004330Y012396D01*
X004330Y012713D02*
X002394Y012713D01*
X002395Y012871D02*
X004404Y012871D01*
X004562Y013030D02*
X002396Y013030D01*
X002397Y013188D02*
X008977Y013188D01*
X008803Y013030D02*
X006283Y013030D01*
X006441Y012871D02*
X008762Y012871D01*
X008793Y012713D02*
X006490Y012713D01*
X006490Y012554D02*
X008850Y012554D01*
X008850Y012396D02*
X006490Y012396D01*
X006410Y012237D02*
X008850Y012237D01*
X008850Y012079D02*
X006252Y012079D01*
X006392Y011920D02*
X008850Y011920D01*
X008850Y011762D02*
X006490Y011762D01*
X006490Y011603D02*
X008850Y011603D01*
X008894Y011445D02*
X006490Y011445D01*
X006525Y011286D02*
X010050Y011286D01*
X010310Y011286D02*
X010452Y011286D01*
X010595Y011128D02*
X010611Y011128D01*
X010720Y010969D02*
X010769Y010969D01*
X010786Y010811D02*
X010928Y010811D01*
X010790Y010652D02*
X011086Y010652D01*
X011245Y010494D02*
X010763Y010494D01*
X010698Y010335D02*
X011370Y010335D01*
X011370Y010177D02*
X010546Y010177D01*
X010700Y010018D02*
X011370Y010018D01*
X011370Y009860D02*
X010891Y009860D01*
X010996Y009701D02*
X011370Y009701D01*
X011370Y009543D02*
X011000Y009543D01*
X011000Y009384D02*
X011370Y009384D01*
X011370Y009226D02*
X011000Y009226D01*
X011000Y009067D02*
X011370Y009067D01*
X011370Y008909D02*
X011000Y008909D01*
X011000Y008750D02*
X011370Y008750D01*
X011370Y008592D02*
X011000Y008592D01*
X011000Y008433D02*
X011370Y008433D01*
X011370Y008275D02*
X011000Y008275D01*
X011000Y008116D02*
X011370Y008116D01*
X011370Y007958D02*
X011000Y007958D01*
X011000Y007799D02*
X011370Y007799D01*
X011370Y007641D02*
X011000Y007641D01*
X010914Y007482D02*
X011370Y007482D01*
X011370Y007324D02*
X010755Y007324D01*
X010597Y007165D02*
X011374Y007165D01*
X011216Y007007D02*
X010404Y007007D01*
X010740Y006531D02*
X005470Y006531D01*
X005628Y006373D02*
X010582Y006373D01*
X010423Y006214D02*
X005787Y006214D01*
X005945Y006056D02*
X008865Y006056D01*
X008706Y005897D02*
X008399Y005897D01*
X008491Y005739D02*
X008548Y005739D01*
X008360Y005263D02*
X008345Y005263D01*
X008345Y005105D02*
X008360Y005105D01*
X008360Y004946D02*
X008291Y004946D01*
X008285Y004788D02*
X008360Y004788D01*
X008360Y004629D02*
X008285Y004629D01*
X008651Y003980D02*
X008684Y003980D01*
X008783Y004021D01*
X008858Y004097D01*
X008900Y004196D01*
X008900Y005328D01*
X009162Y005590D01*
X010504Y005590D01*
X010603Y005631D01*
X010678Y005707D01*
X012073Y007101D01*
X012148Y007177D01*
X012362Y007390D01*
X012387Y007380D01*
X012593Y007380D01*
X012785Y007459D01*
X012931Y007605D01*
X013010Y007796D01*
X013010Y008003D01*
X012931Y008194D01*
X012785Y008341D01*
X012642Y008400D01*
X012785Y008459D01*
X012931Y008605D01*
X013010Y008796D01*
X013010Y009003D01*
X013005Y009014D01*
X013012Y009020D01*
X013134Y009020D01*
X013195Y008959D01*
X013338Y008900D01*
X013195Y008841D01*
X013049Y008694D01*
X012970Y008503D01*
X012970Y008296D01*
X013049Y008105D01*
X013195Y007959D01*
X013387Y007880D01*
X013593Y007880D01*
X013785Y007959D01*
X013796Y007970D01*
X013960Y007970D01*
X013960Y007161D01*
X013698Y006899D01*
X013196Y006899D01*
X013097Y006858D01*
X013022Y006782D01*
X011425Y005186D01*
X011110Y005186D01*
X011022Y005149D01*
X010955Y005082D01*
X010918Y004994D01*
X010918Y004939D01*
X010384Y004939D01*
X010371Y004970D01*
X010405Y005052D01*
X010405Y005387D01*
X010368Y005476D01*
X010301Y005543D01*
X010213Y005580D01*
X009247Y005580D01*
X009159Y005543D01*
X009092Y005476D01*
X009055Y005387D01*
X009055Y005052D01*
X009089Y004970D01*
X009055Y004887D01*
X009055Y004552D01*
X009089Y004470D01*
X009055Y004387D01*
X009055Y004052D01*
X009089Y003970D01*
X009085Y003959D01*
X008672Y003959D01*
X008651Y003980D01*
X008720Y003995D02*
X009079Y003995D01*
X009055Y004154D02*
X008882Y004154D01*
X008900Y004312D02*
X009055Y004312D01*
X009089Y004471D02*
X008900Y004471D01*
X008900Y004629D02*
X009055Y004629D01*
X009055Y004788D02*
X008900Y004788D01*
X008900Y004946D02*
X009079Y004946D01*
X009055Y005105D02*
X008900Y005105D01*
X008900Y005263D02*
X009055Y005263D01*
X009069Y005422D02*
X008993Y005422D01*
X009152Y005580D02*
X011819Y005580D01*
X011661Y005422D02*
X010391Y005422D01*
X010405Y005263D02*
X011502Y005263D01*
X010978Y005105D02*
X010405Y005105D01*
X010381Y004946D02*
X010918Y004946D01*
X010710Y005739D02*
X011978Y005739D01*
X012136Y005897D02*
X010869Y005897D01*
X011027Y006056D02*
X012295Y006056D01*
X012453Y006214D02*
X011186Y006214D01*
X011344Y006373D02*
X012612Y006373D01*
X012770Y006531D02*
X011503Y006531D01*
X011661Y006690D02*
X012929Y006690D01*
X013087Y006848D02*
X011820Y006848D01*
X011978Y007007D02*
X013248Y007007D01*
X013249Y007006D02*
X013313Y006973D01*
X013382Y006951D01*
X013454Y006940D01*
X013490Y006940D01*
X013490Y007400D01*
X013490Y007860D01*
X013454Y007860D01*
X013382Y007848D01*
X013313Y007826D01*
X013249Y007793D01*
X013190Y007751D01*
X013139Y007699D01*
X013097Y007641D01*
X013064Y007576D01*
X013041Y007507D01*
X013030Y007436D01*
X013030Y007400D01*
X013490Y007400D01*
X013490Y007400D01*
X013490Y007860D01*
X013526Y007860D01*
X013598Y007848D01*
X013667Y007826D01*
X013731Y007793D01*
X013790Y007751D01*
X013841Y007699D01*
X013883Y007641D01*
X013916Y007576D01*
X013939Y007507D01*
X013950Y007436D01*
X013950Y007400D01*
X013490Y007400D01*
X013490Y007400D01*
X013490Y007400D01*
X013030Y007400D01*
X013030Y007364D01*
X013041Y007292D01*
X013064Y007223D01*
X013097Y007159D01*
X013139Y007100D01*
X013190Y007049D01*
X013249Y007006D01*
X013093Y007165D02*
X012137Y007165D01*
X012148Y007177D02*
X012148Y007177D01*
X012073Y007101D02*
X012073Y007101D01*
X012295Y007324D02*
X013036Y007324D01*
X013037Y007482D02*
X012808Y007482D01*
X012946Y007641D02*
X013097Y007641D01*
X013010Y007799D02*
X013261Y007799D01*
X013198Y007958D02*
X013010Y007958D01*
X013045Y008116D02*
X012963Y008116D01*
X012979Y008275D02*
X012850Y008275D01*
X012970Y008433D02*
X012723Y008433D01*
X012917Y008592D02*
X013007Y008592D01*
X012991Y008750D02*
X013105Y008750D01*
X013010Y008909D02*
X013317Y008909D01*
X013663Y008909D02*
X015283Y008909D01*
X015284Y009067D02*
X013893Y009067D01*
X013981Y009226D02*
X015284Y009226D01*
X015285Y009384D02*
X014010Y009384D01*
X013994Y009543D02*
X015285Y009543D01*
X015286Y009701D02*
X013924Y009701D01*
X013738Y009860D02*
X015286Y009860D01*
X015287Y010018D02*
X013844Y010018D01*
X013960Y010177D02*
X015287Y010177D01*
X015288Y010335D02*
X014010Y010335D01*
X014010Y010494D02*
X015288Y010494D01*
X015289Y010652D02*
X013948Y010652D01*
X013814Y010811D02*
X015289Y010811D01*
X015290Y010969D02*
X012945Y010969D01*
X012950Y010936D02*
X012939Y011007D01*
X012916Y011076D01*
X012883Y011141D01*
X012841Y011199D01*
X012790Y011251D01*
X012731Y011293D01*
X012667Y011326D01*
X012598Y011348D01*
X012526Y011360D01*
X012490Y011360D01*
X012454Y011360D01*
X012382Y011348D01*
X012313Y011326D01*
X012249Y011293D01*
X012190Y011251D01*
X012139Y011199D01*
X012097Y011141D01*
X012064Y011076D01*
X012041Y011007D01*
X012030Y010936D01*
X012030Y010900D01*
X012490Y010900D01*
X012490Y011360D01*
X012490Y010900D01*
X012490Y010900D01*
X012490Y010900D01*
X012950Y010900D01*
X012950Y010936D01*
X012950Y010900D02*
X012490Y010900D01*
X012490Y010900D01*
X012030Y010900D01*
X012030Y010864D01*
X012041Y010792D01*
X012064Y010723D01*
X012097Y010659D01*
X012139Y010600D01*
X012190Y010549D01*
X012249Y010506D01*
X012313Y010473D01*
X012382Y010451D01*
X012454Y010440D01*
X012490Y010440D01*
X012490Y010900D01*
X012490Y010440D01*
X012526Y010440D01*
X012598Y010451D01*
X012667Y010473D01*
X012731Y010506D01*
X012790Y010549D01*
X012841Y010600D01*
X012883Y010659D01*
X012916Y010723D01*
X012939Y010792D01*
X012950Y010864D01*
X012950Y010900D01*
X012942Y010811D02*
X013166Y010811D01*
X013240Y011002D02*
X013453Y011002D01*
X013650Y011084D01*
X013800Y011234D01*
X013882Y011431D01*
X013882Y011644D01*
X013800Y011841D01*
X013650Y011991D01*
X013453Y012073D01*
X013240Y012073D01*
X013043Y011991D01*
X012893Y011841D01*
X012811Y011644D01*
X012811Y011431D01*
X012893Y011234D01*
X013043Y011084D01*
X013240Y011002D01*
X012999Y011128D02*
X012890Y011128D01*
X012871Y011286D02*
X012741Y011286D01*
X012811Y011445D02*
X011056Y011445D01*
X010898Y011603D02*
X012811Y011603D01*
X012860Y011762D02*
X010739Y011762D01*
X010323Y012079D02*
X015293Y012079D01*
X015294Y012237D02*
X010600Y012237D01*
X010526Y012163D02*
X010697Y012334D01*
X010790Y012558D01*
X010790Y012801D01*
X010697Y013025D01*
X010526Y013197D01*
X010301Y013290D01*
X010059Y013290D01*
X009834Y013197D01*
X009663Y013025D01*
X009570Y012801D01*
X009570Y012558D01*
X009663Y012334D01*
X009834Y012163D01*
X010059Y012070D01*
X010301Y012070D01*
X010526Y012163D01*
X010723Y012396D02*
X015294Y012396D01*
X015295Y012554D02*
X010788Y012554D01*
X010790Y012713D02*
X015295Y012713D01*
X015296Y012871D02*
X013000Y012871D01*
X012952Y012823D02*
X012775Y012750D01*
X012585Y012750D01*
X012408Y012823D01*
X012273Y012958D01*
X012200Y013134D01*
X012200Y013325D01*
X012273Y013502D01*
X012408Y013637D01*
X012585Y013710D01*
X012775Y013710D01*
X012952Y013637D01*
X013087Y013502D01*
X013160Y013325D01*
X013160Y013134D01*
X013087Y012958D01*
X012952Y012823D01*
X013117Y013030D02*
X015296Y013030D01*
X015297Y013188D02*
X013160Y013188D01*
X013151Y013347D02*
X015297Y013347D01*
X015298Y013505D02*
X013083Y013505D01*
X012886Y013664D02*
X015298Y013664D01*
X015299Y013822D02*
X002401Y013822D01*
X002400Y013664D02*
X012474Y013664D01*
X012277Y013505D02*
X002399Y013505D01*
X002398Y013347D02*
X012209Y013347D01*
X012200Y013188D02*
X010534Y013188D01*
X010693Y013030D02*
X012243Y013030D01*
X012360Y012871D02*
X010761Y012871D01*
X010037Y012079D02*
X009390Y012079D01*
X009390Y012237D02*
X009760Y012237D01*
X009637Y012396D02*
X009390Y012396D01*
X009390Y012554D02*
X009572Y012554D01*
X009570Y012713D02*
X009447Y012713D01*
X009478Y012871D02*
X009599Y012871D01*
X009667Y013030D02*
X009437Y013030D01*
X009263Y013188D02*
X009826Y013188D01*
X009390Y011920D02*
X012972Y011920D01*
X012490Y011286D02*
X012490Y011286D01*
X012490Y011128D02*
X012490Y011128D01*
X012490Y010969D02*
X012490Y010969D01*
X012490Y010900D02*
X012490Y010900D01*
X012490Y010811D02*
X012490Y010811D01*
X012490Y010652D02*
X012490Y010652D01*
X012490Y010494D02*
X012490Y010494D01*
X012274Y010494D02*
X011910Y010494D01*
X011910Y010335D02*
X012190Y010335D01*
X012042Y010177D02*
X011910Y010177D01*
X011910Y010018D02*
X011976Y010018D01*
X011970Y009860D02*
X011910Y009860D01*
X011910Y009701D02*
X012009Y009701D01*
X011910Y009543D02*
X012112Y009543D01*
X011983Y009384D02*
X011910Y009384D01*
X012790Y010335D02*
X012970Y010335D01*
X012970Y010494D02*
X012706Y010494D01*
X012879Y010652D02*
X013032Y010652D01*
X013020Y010177D02*
X012938Y010177D01*
X012101Y010652D02*
X011849Y010652D01*
X011690Y010811D02*
X012038Y010811D01*
X012035Y010969D02*
X011532Y010969D01*
X011373Y011128D02*
X012090Y011128D01*
X012239Y011286D02*
X011215Y011286D01*
X009765Y011128D02*
X006683Y011128D01*
X006842Y010969D02*
X009640Y010969D01*
X009574Y010811D02*
X007000Y010811D01*
X007159Y010652D02*
X009471Y010652D01*
X009313Y010494D02*
X007317Y010494D01*
X007476Y010335D02*
X009154Y010335D01*
X008996Y010177D02*
X007634Y010177D01*
X007793Y010018D02*
X008837Y010018D01*
X008679Y009860D02*
X007951Y009860D01*
X008110Y009701D02*
X008520Y009701D01*
X007923Y007165D02*
X004557Y007165D01*
X004705Y007007D02*
X008116Y007007D01*
X007881Y005897D02*
X006209Y005897D01*
X006362Y005739D02*
X007789Y005739D01*
X007689Y005580D02*
X006398Y005580D01*
X006362Y005422D02*
X007009Y005422D01*
X006995Y005263D02*
X006212Y005263D01*
X005868Y005263D02*
X005253Y005263D01*
X005342Y005105D02*
X006995Y005105D01*
X007049Y004946D02*
X005906Y004946D01*
X005966Y004788D02*
X007055Y004788D01*
X007055Y004629D02*
X005966Y004629D01*
X005966Y004471D02*
X007029Y004471D01*
X006701Y004312D02*
X005908Y004312D01*
X006025Y004154D02*
X006543Y004154D01*
X006384Y003995D02*
X006026Y003995D01*
X006026Y003837D02*
X006226Y003837D01*
X006067Y003678D02*
X006001Y003678D01*
X005280Y003520D02*
X004774Y003520D01*
X004790Y003678D02*
X005099Y003678D01*
X005074Y003837D02*
X004775Y003837D01*
X004710Y003995D02*
X005074Y003995D01*
X005075Y004154D02*
X004569Y004154D01*
X004675Y004312D02*
X005192Y004312D01*
X005134Y004471D02*
X004765Y004471D01*
X004981Y004629D02*
X005134Y004629D01*
X005550Y004654D02*
X005550Y004654D01*
X005550Y004788D02*
X005550Y004788D01*
X005550Y004946D02*
X005550Y004946D01*
X005718Y005422D02*
X004733Y005422D01*
X004727Y005263D02*
X004626Y005263D01*
X004618Y005105D02*
X004638Y005105D01*
X004790Y005580D02*
X005658Y005580D01*
X005500Y005739D02*
X004790Y005739D01*
X004750Y005897D02*
X005341Y005897D01*
X005183Y006056D02*
X004667Y006056D01*
X004577Y006214D02*
X005024Y006214D01*
X005311Y006690D02*
X010899Y006690D01*
X011057Y006848D02*
X005153Y006848D01*
X005280Y003361D02*
X004708Y003361D01*
X004566Y003203D02*
X005280Y003203D01*
X005280Y003044D02*
X003853Y003044D01*
X003794Y003203D02*
X003764Y003203D01*
X003652Y003361D02*
X003605Y003361D01*
X003918Y002886D02*
X005301Y002886D01*
X005479Y002727D02*
X003933Y002727D01*
X003933Y002569D02*
X009802Y002569D01*
X009978Y002569D02*
X012779Y002569D01*
X012917Y002410D02*
X003892Y002410D01*
X003826Y002252D02*
X013934Y002252D01*
X013868Y002410D02*
X013703Y002410D01*
X014060Y002093D02*
X003700Y002093D01*
X006181Y002727D02*
X009582Y002727D01*
X010113Y003203D02*
X011326Y003203D01*
X011167Y003361D02*
X010216Y003361D01*
X010392Y003520D02*
X011009Y003520D01*
X010850Y003678D02*
X010405Y003678D01*
X010405Y003837D02*
X010692Y003837D01*
X010226Y003044D02*
X011484Y003044D01*
X011643Y002886D02*
X010248Y002886D01*
X010198Y002727D02*
X011801Y002727D01*
X012799Y004312D02*
X012880Y004312D01*
X012856Y004471D02*
X012640Y004471D01*
X012753Y004629D02*
X012482Y004629D01*
X012422Y004788D02*
X012700Y004788D01*
X012700Y004946D02*
X012422Y004946D01*
X012362Y005105D02*
X012743Y005105D01*
X012831Y005263D02*
X012265Y005263D01*
X012423Y005422D02*
X013025Y005422D01*
X012740Y005739D02*
X015273Y005739D01*
X015273Y005897D02*
X012899Y005897D01*
X013057Y006056D02*
X015274Y006056D01*
X015274Y006214D02*
X013216Y006214D01*
X013894Y006373D02*
X015275Y006373D01*
X015275Y006531D02*
X014093Y006531D01*
X014038Y006477D02*
X014038Y006477D01*
X014251Y006690D02*
X015276Y006690D01*
X015276Y006848D02*
X014410Y006848D01*
X014383Y006821D02*
X014383Y006821D01*
X014500Y007007D02*
X015277Y007007D01*
X015277Y007165D02*
X014500Y007165D01*
X014500Y007324D02*
X015278Y007324D01*
X015278Y007482D02*
X014500Y007482D01*
X014500Y007641D02*
X015279Y007641D01*
X015279Y007799D02*
X014500Y007799D01*
X014500Y007958D02*
X015280Y007958D01*
X015281Y008116D02*
X014500Y008116D01*
X014500Y008275D02*
X015281Y008275D01*
X015282Y008433D02*
X014418Y008433D01*
X013973Y008592D02*
X015282Y008592D01*
X015283Y008750D02*
X013875Y008750D01*
X013960Y007958D02*
X013782Y007958D01*
X013719Y007799D02*
X013960Y007799D01*
X013960Y007641D02*
X013883Y007641D01*
X013943Y007482D02*
X013960Y007482D01*
X013950Y007400D02*
X013490Y007400D01*
X013490Y006940D01*
X013526Y006940D01*
X013598Y006951D01*
X013667Y006973D01*
X013731Y007006D01*
X013790Y007049D01*
X013841Y007100D01*
X013883Y007159D01*
X013916Y007223D01*
X013939Y007292D01*
X013950Y007364D01*
X013950Y007400D01*
X013944Y007324D02*
X013960Y007324D01*
X013960Y007165D02*
X013887Y007165D01*
X013806Y007007D02*
X013732Y007007D01*
X013490Y007007D02*
X013490Y007007D01*
X013490Y007165D02*
X013490Y007165D01*
X013490Y007324D02*
X013490Y007324D01*
X013490Y007400D02*
X013490Y007400D01*
X013490Y007482D02*
X013490Y007482D01*
X013490Y007641D02*
X013490Y007641D01*
X013490Y007799D02*
X013490Y007799D01*
X012582Y005580D02*
X015272Y005580D01*
X015272Y005422D02*
X013595Y005422D01*
X013789Y005263D02*
X015271Y005263D01*
X015271Y005105D02*
X013877Y005105D01*
X013920Y004946D02*
X015270Y004946D01*
X015270Y004788D02*
X013920Y004788D01*
X013867Y004629D02*
X015269Y004629D01*
X015269Y004471D02*
X013764Y004471D01*
X013740Y004312D02*
X015268Y004312D01*
X015268Y004154D02*
X013857Y004154D01*
X013920Y003995D02*
X015267Y003995D01*
X015267Y003837D02*
X013920Y003837D01*
X013887Y003678D02*
X015266Y003678D01*
X015266Y003520D02*
X014882Y003520D01*
X015205Y003361D02*
X015265Y003361D01*
X014478Y003520D02*
X013813Y003520D01*
X013691Y003361D02*
X014155Y003361D01*
X013996Y003203D02*
X013836Y003203D01*
X013902Y003044D02*
X013907Y003044D01*
X009244Y003361D02*
X008920Y003361D01*
X008633Y002886D02*
X006387Y002886D01*
X006546Y003044D02*
X008474Y003044D01*
X008316Y003203D02*
X006704Y003203D01*
X006863Y003361D02*
X007184Y003361D01*
X008156Y003361D02*
X008157Y003361D01*
X013694Y011128D02*
X015290Y011128D01*
X015291Y011286D02*
X013822Y011286D01*
X013882Y011445D02*
X015291Y011445D01*
X015292Y011603D02*
X013882Y011603D01*
X013833Y011762D02*
X015292Y011762D01*
X015293Y011920D02*
X013721Y011920D01*
X015299Y013981D02*
X002402Y013981D01*
X002402Y014139D02*
X015300Y014139D01*
X015300Y014298D02*
X002403Y014298D01*
X002404Y014456D02*
X015301Y014456D01*
X015301Y014615D02*
X002405Y014615D01*
X002406Y014773D02*
X012358Y014773D01*
X012408Y014723D02*
X012273Y014858D01*
X012200Y015034D01*
X012200Y015225D01*
X012273Y015402D01*
X012408Y015537D01*
X012585Y015610D01*
X012775Y015610D01*
X012952Y015537D01*
X013087Y015402D01*
X013160Y015225D01*
X013160Y015034D01*
X013087Y014858D01*
X012952Y014723D01*
X012775Y014650D01*
X012585Y014650D01*
X012408Y014723D01*
X012242Y014932D02*
X002407Y014932D01*
X002408Y015090D02*
X004509Y015090D01*
X004559Y015070D02*
X004801Y015070D01*
X005026Y015163D01*
X005180Y015317D01*
X005334Y015163D01*
X005559Y015070D01*
X005801Y015070D01*
X006026Y015163D01*
X006180Y015317D01*
X006334Y015163D01*
X006559Y015070D01*
X006801Y015070D01*
X007026Y015163D01*
X007180Y015317D01*
X007334Y015163D01*
X007559Y015070D01*
X007801Y015070D01*
X008026Y015163D01*
X008197Y015334D01*
X008217Y015382D01*
X008260Y015321D01*
X008322Y015260D01*
X008392Y015209D01*
X008469Y015170D01*
X008551Y015143D01*
X008637Y015130D01*
X008660Y015130D01*
X008660Y015660D01*
X008700Y015660D01*
X008700Y015130D01*
X008723Y015130D01*
X008809Y015143D01*
X008891Y015170D01*
X008968Y015209D01*
X009038Y015260D01*
X009100Y015321D01*
X009143Y015382D01*
X009163Y015334D01*
X009334Y015163D01*
X009559Y015070D01*
X009801Y015070D01*
X010026Y015163D01*
X010197Y015334D01*
X010290Y015558D01*
X010290Y015801D01*
X010197Y016025D01*
X010026Y016197D01*
X009801Y016290D01*
X009559Y016290D01*
X009334Y016197D01*
X009163Y016025D01*
X009143Y015978D01*
X009100Y016038D01*
X009038Y016099D01*
X008968Y016150D01*
X008891Y016189D01*
X008809Y016216D01*
X008723Y016230D01*
X008700Y016230D01*
X008700Y015700D01*
X008660Y015700D01*
X008660Y016230D01*
X008637Y016230D01*
X008551Y016216D01*
X008469Y016189D01*
X008392Y016150D01*
X008322Y016099D01*
X008260Y016038D01*
X008217Y015978D01*
X008197Y016025D01*
X008026Y016197D01*
X007801Y016290D01*
X007559Y016290D01*
X007334Y016197D01*
X007180Y016042D01*
X007026Y016197D01*
X006801Y016290D01*
X006559Y016290D01*
X006334Y016197D01*
X006180Y016042D01*
X006026Y016197D01*
X005801Y016290D01*
X005559Y016290D01*
X005334Y016197D01*
X005180Y016042D01*
X005026Y016197D01*
X004801Y016290D01*
X004559Y016290D01*
X004334Y016197D01*
X004163Y016025D01*
X004070Y015801D01*
X004070Y015558D01*
X004163Y015334D01*
X004334Y015163D01*
X004559Y015070D01*
X004851Y015090D02*
X005509Y015090D01*
X005248Y015249D02*
X005112Y015249D01*
X005851Y015090D02*
X006509Y015090D01*
X006248Y015249D02*
X006112Y015249D01*
X006851Y015090D02*
X007509Y015090D01*
X007248Y015249D02*
X007112Y015249D01*
X007851Y015090D02*
X009509Y015090D01*
X009248Y015249D02*
X009023Y015249D01*
X008700Y015249D02*
X008660Y015249D01*
X008660Y015407D02*
X008700Y015407D01*
X008700Y015566D02*
X008660Y015566D01*
X008660Y015724D02*
X008700Y015724D01*
X008700Y015883D02*
X008660Y015883D01*
X008660Y016041D02*
X008700Y016041D01*
X008700Y016200D02*
X008660Y016200D01*
X008501Y016200D02*
X008019Y016200D01*
X008181Y016041D02*
X008264Y016041D01*
X008859Y016200D02*
X009341Y016200D01*
X009179Y016041D02*
X009096Y016041D01*
X008337Y015249D02*
X008112Y015249D01*
X007341Y016200D02*
X007019Y016200D01*
X006341Y016200D02*
X006019Y016200D01*
X005341Y016200D02*
X005019Y016200D01*
X004341Y016200D02*
X003829Y016200D01*
X003833Y016358D02*
X013827Y016358D01*
X013827Y016517D02*
X003833Y016517D01*
X003781Y016675D02*
X013837Y016675D01*
X013903Y016834D02*
X003716Y016834D01*
X003763Y016041D02*
X004179Y016041D01*
X004104Y015883D02*
X003690Y015883D01*
X003531Y015724D02*
X004070Y015724D01*
X004070Y015566D02*
X003245Y015566D01*
X002715Y015566D02*
X002411Y015566D01*
X002412Y015724D02*
X002429Y015724D01*
X002410Y015407D02*
X004133Y015407D01*
X004248Y015249D02*
X002409Y015249D01*
X002393Y012554D02*
X004860Y012554D01*
X004860Y012713D02*
X004900Y012713D01*
X004900Y012871D02*
X004860Y012871D01*
X004860Y013030D02*
X004900Y013030D01*
X005198Y013030D02*
X005477Y013030D01*
X009851Y015090D02*
X012200Y015090D01*
X012210Y015249D02*
X010112Y015249D01*
X010227Y015407D02*
X012279Y015407D01*
X012478Y015566D02*
X010290Y015566D01*
X010290Y015724D02*
X014274Y015724D01*
X014070Y015883D02*
X010256Y015883D01*
X010181Y016041D02*
X013938Y016041D01*
X013872Y016200D02*
X010019Y016200D01*
X011394Y016992D02*
X013986Y016992D01*
X015086Y015724D02*
X015305Y015724D01*
X015305Y015566D02*
X012882Y015566D01*
X013081Y015407D02*
X015304Y015407D01*
X015304Y015249D02*
X013150Y015249D01*
X013160Y015090D02*
X015303Y015090D01*
X015303Y014932D02*
X013118Y014932D01*
X013002Y014773D02*
X015302Y014773D01*
X015290Y015883D02*
X015306Y015883D01*
D21*
X014680Y016480D03*
X002980Y016380D03*
X003080Y002680D03*
X014680Y002680D03*
M02*
