G75*
%MOIN*%
%OFA0B0*%
%FSLAX24Y24*%
%IPPOS*%
%LPD*%
%AMOC8*
5,1,8,0,0,1.08239X$1,22.5*
%
%ADD10C,0.0060*%
%ADD11C,0.0080*%
%ADD12C,0.0010*%
%ADD13C,0.0050*%
%ADD14C,0.0040*%
D10*
X005314Y004182D02*
X005314Y004418D01*
X005786Y004418D02*
X005786Y004182D01*
X007990Y003540D02*
X009410Y003540D01*
X009410Y005400D02*
X007990Y005400D01*
X011552Y004946D02*
X011788Y004946D01*
X011788Y004473D02*
X011552Y004473D01*
D11*
X008253Y003760D02*
X008255Y003775D01*
X008261Y003788D01*
X008270Y003800D01*
X008281Y003809D01*
X008295Y003815D01*
X008310Y003817D01*
X008325Y003815D01*
X008338Y003809D01*
X008350Y003800D01*
X008359Y003789D01*
X008365Y003775D01*
X008367Y003760D01*
X008365Y003745D01*
X008359Y003732D01*
X008350Y003720D01*
X008339Y003711D01*
X008325Y003705D01*
X008310Y003703D01*
X008295Y003705D01*
X008282Y003711D01*
X008270Y003720D01*
X008261Y003731D01*
X008255Y003745D01*
X008253Y003760D01*
D12*
X008705Y004025D02*
X008855Y004025D01*
X008855Y003975D02*
X008855Y004075D01*
X008855Y004122D02*
X008705Y004122D01*
X008755Y004122D02*
X008755Y004197D01*
X008780Y004222D01*
X008830Y004222D01*
X008855Y004197D01*
X008855Y004122D01*
X008755Y004172D02*
X008705Y004222D01*
X008705Y004269D02*
X008805Y004269D01*
X008855Y004319D01*
X008805Y004369D01*
X008705Y004369D01*
X008705Y004417D02*
X008855Y004417D01*
X008705Y004517D01*
X008855Y004517D01*
X008830Y004564D02*
X008805Y004564D01*
X008780Y004589D01*
X008780Y004639D01*
X008755Y004664D01*
X008730Y004664D01*
X008705Y004639D01*
X008705Y004589D01*
X008730Y004564D01*
X008830Y004564D02*
X008855Y004589D01*
X008855Y004639D01*
X008830Y004664D01*
X008830Y004711D02*
X008730Y004711D01*
X008705Y004736D01*
X008705Y004786D01*
X008730Y004811D01*
X008705Y004859D02*
X008705Y004959D01*
X008705Y005006D02*
X008705Y005056D01*
X008705Y005031D02*
X008855Y005031D01*
X008855Y005006D02*
X008855Y005056D01*
X008855Y005104D02*
X008755Y005104D01*
X008705Y005154D01*
X008755Y005204D01*
X008855Y005204D01*
X008855Y005252D02*
X008705Y005252D01*
X008705Y005352D01*
X008705Y005399D02*
X008855Y005399D01*
X008855Y005474D01*
X008830Y005499D01*
X008780Y005499D01*
X008755Y005474D01*
X008755Y005399D01*
X008755Y005449D02*
X008705Y005499D01*
X008855Y005352D02*
X008855Y005252D01*
X008780Y005252D02*
X008780Y005302D01*
X008855Y004959D02*
X008855Y004859D01*
X008705Y004859D01*
X008780Y004859D02*
X008780Y004909D01*
X008830Y004811D02*
X008855Y004786D01*
X008855Y004736D01*
X008830Y004711D01*
X008780Y004369D02*
X008780Y004269D01*
X011412Y004230D02*
X011512Y004230D01*
X011412Y004330D01*
X011412Y004355D01*
X011437Y004380D01*
X011487Y004380D01*
X011512Y004355D01*
X011560Y004355D02*
X011560Y004305D01*
X011585Y004280D01*
X011660Y004280D01*
X011660Y004230D02*
X011660Y004380D01*
X011585Y004380D01*
X011560Y004355D01*
X011610Y004280D02*
X011560Y004230D01*
X006030Y004202D02*
X005880Y004202D01*
X005880Y004152D02*
X005880Y004252D01*
X005980Y004152D02*
X006030Y004202D01*
X006005Y004105D02*
X005955Y004105D01*
X005930Y004080D01*
X005930Y004005D01*
X005930Y004055D02*
X005880Y004105D01*
X005880Y004005D02*
X006030Y004005D01*
X006030Y004080D01*
X006005Y004105D01*
D13*
X010680Y003180D02*
X010680Y016180D01*
D14*
X003903Y004200D02*
X003749Y004200D01*
X003826Y004200D02*
X003826Y004660D01*
X003903Y004660D02*
X003749Y004660D01*
X004056Y004660D02*
X004056Y004200D01*
X004363Y004660D01*
X004363Y004200D01*
X004516Y004200D02*
X004670Y004200D01*
X004593Y004200D02*
X004593Y004660D01*
X004670Y004660D02*
X004516Y004660D01*
X004823Y004660D02*
X004823Y004200D01*
X005130Y004200D02*
X005130Y004660D01*
X004977Y004507D01*
X004823Y004660D01*
X005284Y004123D02*
X005591Y004123D01*
X005744Y004276D02*
X005744Y004583D01*
X005821Y004660D01*
X005974Y004660D01*
X006051Y004583D01*
X006051Y004276D01*
X005974Y004200D01*
X005821Y004200D01*
X005744Y004276D01*
X006205Y004200D02*
X006205Y004660D01*
X006512Y004660D02*
X006205Y004200D01*
X006512Y004200D02*
X006512Y004660D01*
X006665Y004660D02*
X006818Y004660D01*
X006742Y004660D02*
X006742Y004200D01*
X006818Y004200D02*
X006665Y004200D01*
X006972Y004276D02*
X006972Y004660D01*
X007279Y004660D02*
X007279Y004276D01*
X007202Y004200D01*
X007049Y004200D01*
X006972Y004276D01*
X007432Y004276D02*
X007432Y004583D01*
X007509Y004660D01*
X007739Y004660D01*
X007739Y004200D01*
X007509Y004200D01*
X007432Y004276D01*
X007893Y004200D02*
X008046Y004353D01*
X007969Y004353D02*
X008200Y004353D01*
X008200Y004200D02*
X008200Y004660D01*
X007969Y004660D01*
X007893Y004583D01*
X007893Y004430D01*
X007969Y004353D01*
X008353Y004430D02*
X008660Y004430D01*
X008660Y004507D02*
X008660Y004200D01*
X008660Y004507D02*
X008507Y004660D01*
X008353Y004507D01*
X008353Y004200D01*
M02*
