G75*
%MOIN*%
%OFA0B0*%
%FSLAX24Y24*%
%IPPOS*%
%LPD*%
%AMOC8*
5,1,8,0,0,1.08239X$1,22.5*
%
%ADD10R,0.0910X0.0280*%
%ADD11C,0.0520*%
%ADD12R,0.0512X0.0355*%
%ADD13R,0.0355X0.0512*%
%ADD14C,0.0780*%
%ADD15C,0.0571*%
%ADD16OC8,0.0780*%
%ADD17C,0.0600*%
%ADD18C,0.0631*%
%ADD19C,0.0276*%
%ADD20C,0.1267*%
D10*
X007670Y003720D03*
X007670Y004220D03*
X007670Y004720D03*
X007670Y005220D03*
X009730Y005220D03*
X009730Y004720D03*
X009730Y004220D03*
X009730Y003720D03*
D11*
X012680Y013230D03*
X012680Y015130D03*
D12*
X005550Y004654D03*
X005550Y003945D03*
D13*
X011316Y004710D03*
X012024Y004710D03*
D14*
X013310Y004880D03*
X013310Y003880D03*
X013310Y002880D03*
X010180Y008680D03*
X010180Y009680D03*
X010180Y010680D03*
X010180Y012680D03*
X009680Y015680D03*
X008680Y015680D03*
X007680Y015680D03*
X006680Y015680D03*
X005680Y015680D03*
X004680Y015680D03*
X004180Y006680D03*
X004180Y005680D03*
X004180Y004680D03*
X004180Y003680D03*
D15*
X010180Y007680D03*
D16*
X005880Y009570D03*
X005880Y010570D03*
X005880Y011570D03*
X005880Y012570D03*
X004880Y012570D03*
X004880Y011570D03*
X004880Y010570D03*
X004880Y009570D03*
D17*
X012490Y009900D03*
X012490Y010900D03*
X013490Y010400D03*
X013490Y009400D03*
X013490Y008400D03*
X013490Y007400D03*
X012490Y007900D03*
X012490Y008900D03*
D18*
X013346Y011538D03*
D19*
X009120Y012860D03*
X008490Y009290D03*
X008140Y005650D03*
X006040Y005580D03*
X004990Y005020D03*
X006040Y003270D03*
X009890Y002920D03*
D20*
X003080Y002680D03*
X014680Y002680D03*
X002980Y016380D03*
X014680Y016480D03*
M02*
