G75*
%MOIN*%
%OFA0B0*%
%FSLAX24Y24*%
%IPPOS*%
%LPD*%
%AMOC8*
5,1,8,0,0,1.08239X$1,22.5*
%
%ADD10C,0.0000*%
D10*
X002090Y001760D02*
X002180Y017136D01*
X015550Y017276D01*
X015500Y001790D01*
X002090Y001760D01*
X013051Y011538D02*
X013053Y011572D01*
X013059Y011606D01*
X013069Y011639D01*
X013082Y011670D01*
X013100Y011700D01*
X013120Y011728D01*
X013144Y011753D01*
X013170Y011775D01*
X013198Y011793D01*
X013229Y011809D01*
X013261Y011821D01*
X013295Y011829D01*
X013329Y011833D01*
X013363Y011833D01*
X013397Y011829D01*
X013431Y011821D01*
X013463Y011809D01*
X013493Y011793D01*
X013522Y011775D01*
X013548Y011753D01*
X013572Y011728D01*
X013592Y011700D01*
X013610Y011670D01*
X013623Y011639D01*
X013633Y011606D01*
X013639Y011572D01*
X013641Y011538D01*
X013639Y011504D01*
X013633Y011470D01*
X013623Y011437D01*
X013610Y011406D01*
X013592Y011376D01*
X013572Y011348D01*
X013548Y011323D01*
X013522Y011301D01*
X013494Y011283D01*
X013463Y011267D01*
X013431Y011255D01*
X013397Y011247D01*
X013363Y011243D01*
X013329Y011243D01*
X013295Y011247D01*
X013261Y011255D01*
X013229Y011267D01*
X013198Y011283D01*
X013170Y011301D01*
X013144Y011323D01*
X013120Y011348D01*
X013100Y011376D01*
X013082Y011406D01*
X013069Y011437D01*
X013059Y011470D01*
X013053Y011504D01*
X013051Y011538D01*
M02*
