G75*
%MOIN*%
%OFA0B0*%
%FSLAX24Y24*%
%IPPOS*%
%LPD*%
%AMOC8*
5,1,8,0,0,1.08239X$1,22.5*
%
%ADD10C,0.0060*%
%ADD11C,0.0010*%
%ADD12C,0.0160*%
%ADD13C,0.0050*%
%ADD14C,0.0020*%
%ADD15R,0.0050X0.0200*%
%ADD16C,0.0080*%
%ADD17C,0.0040*%
D10*
X007100Y002720D02*
X007100Y007020D01*
X007102Y007043D01*
X007107Y007066D01*
X007116Y007088D01*
X007129Y007108D01*
X007144Y007126D01*
X007162Y007141D01*
X007182Y007154D01*
X007204Y007163D01*
X007227Y007168D01*
X007250Y007170D01*
X009890Y007170D01*
X009913Y007168D01*
X009936Y007163D01*
X009958Y007154D01*
X009978Y007141D01*
X009996Y007126D01*
X010011Y007108D01*
X010024Y007088D01*
X010033Y007066D01*
X010038Y007043D01*
X010040Y007020D01*
X010040Y002720D01*
X010038Y002697D01*
X010033Y002674D01*
X010024Y002652D01*
X010011Y002632D01*
X009996Y002614D01*
X009978Y002599D01*
X009958Y002586D01*
X009936Y002577D01*
X009913Y002572D01*
X009890Y002570D01*
X007250Y002570D01*
X007227Y002572D01*
X007204Y002577D01*
X007182Y002586D01*
X007162Y002599D01*
X007144Y002614D01*
X007129Y002632D01*
X007116Y002652D01*
X007107Y002674D01*
X007102Y002697D01*
X007100Y002720D01*
X008070Y002570D02*
X008072Y002614D01*
X008078Y002657D01*
X008087Y002699D01*
X008100Y002741D01*
X008117Y002781D01*
X008137Y002820D01*
X008160Y002857D01*
X008187Y002891D01*
X008216Y002924D01*
X008249Y002953D01*
X008283Y002980D01*
X008320Y003003D01*
X008359Y003023D01*
X008399Y003040D01*
X008441Y003053D01*
X008483Y003062D01*
X008526Y003068D01*
X008570Y003070D01*
X008614Y003068D01*
X008657Y003062D01*
X008699Y003053D01*
X008741Y003040D01*
X008781Y003023D01*
X008820Y003003D01*
X008857Y002980D01*
X008891Y002953D01*
X008924Y002924D01*
X008953Y002891D01*
X008980Y002857D01*
X009003Y002820D01*
X009023Y002781D01*
X009040Y002741D01*
X009053Y002699D01*
X009062Y002657D01*
X009068Y002614D01*
X009070Y002570D01*
X006130Y009070D02*
X004630Y009070D01*
X004380Y009320D01*
X004380Y009820D01*
X004630Y010070D01*
X004380Y010320D01*
X004380Y010820D01*
X004630Y011070D01*
X004380Y011320D01*
X004380Y011820D01*
X004630Y012070D01*
X004380Y012320D01*
X004380Y012820D01*
X004630Y013070D01*
X006130Y013070D01*
X006380Y012820D01*
X006380Y012320D01*
X006130Y012070D01*
X006380Y011820D01*
X006380Y011320D01*
X006130Y011070D01*
X006380Y010820D01*
X006380Y010320D01*
X006130Y010070D01*
X006380Y009820D01*
X006380Y009320D01*
X006130Y009070D01*
X007452Y013993D02*
X007688Y013993D01*
X007688Y014466D02*
X007452Y014466D01*
X011154Y014802D02*
X011154Y015038D01*
X011626Y015038D02*
X011626Y014802D01*
X012030Y015380D02*
X012030Y012980D01*
X011636Y013352D02*
X011636Y013588D01*
X011164Y013588D02*
X011164Y013352D01*
X012380Y013930D02*
X012680Y013930D01*
X012680Y013680D01*
X012680Y013930D02*
X012980Y013930D01*
X012980Y014080D02*
X012380Y014080D01*
X012380Y014280D01*
X012980Y014280D01*
X012980Y014080D01*
X012980Y014430D02*
X012680Y014430D01*
X012680Y014680D01*
X012680Y014430D02*
X012380Y014430D01*
X012030Y015380D02*
X012032Y015430D01*
X012038Y015479D01*
X012047Y015528D01*
X012060Y015576D01*
X012077Y015623D01*
X012097Y015668D01*
X012121Y015712D01*
X012148Y015754D01*
X012179Y015794D01*
X012212Y015831D01*
X012248Y015865D01*
X012286Y015897D01*
X012327Y015926D01*
X012369Y015951D01*
X012414Y015973D01*
X012460Y015992D01*
X012508Y016007D01*
X012556Y016018D01*
X012605Y016026D01*
X012655Y016030D01*
X012705Y016030D01*
X012755Y016026D01*
X012804Y016018D01*
X012852Y016007D01*
X012900Y015992D01*
X012946Y015973D01*
X012991Y015951D01*
X013033Y015926D01*
X013074Y015897D01*
X013112Y015865D01*
X013148Y015831D01*
X013181Y015794D01*
X013212Y015754D01*
X013239Y015712D01*
X013263Y015668D01*
X013283Y015623D01*
X013300Y015576D01*
X013313Y015528D01*
X013322Y015479D01*
X013328Y015430D01*
X013330Y015380D01*
X013330Y012980D01*
X013328Y012930D01*
X013322Y012881D01*
X013313Y012832D01*
X013300Y012784D01*
X013283Y012737D01*
X013263Y012692D01*
X013239Y012648D01*
X013212Y012606D01*
X013181Y012566D01*
X013148Y012529D01*
X013112Y012495D01*
X013074Y012463D01*
X013033Y012434D01*
X012991Y012409D01*
X012946Y012387D01*
X012900Y012368D01*
X012852Y012353D01*
X012804Y012342D01*
X012755Y012334D01*
X012705Y012330D01*
X012655Y012330D01*
X012605Y012334D01*
X012556Y012342D01*
X012508Y012353D01*
X012460Y012368D01*
X012414Y012387D01*
X012369Y012409D01*
X012327Y012434D01*
X012286Y012463D01*
X012248Y012495D01*
X012212Y012529D01*
X012179Y012566D01*
X012148Y012606D01*
X012121Y012648D01*
X012097Y012692D01*
X012077Y012737D01*
X012060Y012784D01*
X012047Y012832D01*
X012038Y012881D01*
X012032Y012930D01*
X012030Y012980D01*
D11*
X011855Y013480D02*
X011880Y013505D01*
X011880Y013555D01*
X011855Y013580D01*
X011880Y013627D02*
X011780Y013727D01*
X011755Y013727D01*
X011730Y013702D01*
X011730Y013652D01*
X011755Y013627D01*
X011755Y013580D02*
X011730Y013555D01*
X011730Y013505D01*
X011755Y013480D01*
X011855Y013480D01*
X011880Y013627D02*
X011880Y013727D01*
X011035Y014625D02*
X011060Y014650D01*
X011060Y014700D01*
X011035Y014725D01*
X011060Y014772D02*
X011060Y014872D01*
X011060Y014822D02*
X010910Y014822D01*
X010960Y014772D01*
X010935Y014725D02*
X010910Y014700D01*
X010910Y014650D01*
X010935Y014625D01*
X011035Y014625D01*
X008503Y013965D02*
X008503Y013865D01*
X008453Y013815D01*
X008403Y013865D01*
X008403Y013965D01*
X008356Y013940D02*
X008356Y013915D01*
X008331Y013890D01*
X008356Y013865D01*
X008356Y013840D01*
X008331Y013815D01*
X008281Y013815D01*
X008256Y013840D01*
X008207Y013840D02*
X008207Y013815D01*
X008182Y013815D01*
X008182Y013840D01*
X008207Y013840D01*
X008135Y013840D02*
X008110Y013815D01*
X008060Y013815D01*
X008035Y013840D01*
X008085Y013890D02*
X008110Y013890D01*
X008135Y013865D01*
X008135Y013840D01*
X008110Y013890D02*
X008135Y013915D01*
X008135Y013940D01*
X008110Y013965D01*
X008060Y013965D01*
X008035Y013940D01*
X007828Y013900D02*
X007728Y013900D01*
X007728Y013825D01*
X007778Y013850D01*
X007803Y013850D01*
X007828Y013825D01*
X007828Y013775D01*
X007803Y013750D01*
X007753Y013750D01*
X007728Y013775D01*
X007680Y013775D02*
X007655Y013750D01*
X007605Y013750D01*
X007580Y013775D01*
X007580Y013875D01*
X007605Y013900D01*
X007655Y013900D01*
X007680Y013875D01*
X008256Y013940D02*
X008281Y013965D01*
X008331Y013965D01*
X008356Y013940D01*
X008331Y013890D02*
X008306Y013890D01*
D12*
X011830Y012980D02*
X011830Y015380D01*
X011832Y015437D01*
X011838Y015493D01*
X011847Y015549D01*
X011860Y015605D01*
X011877Y015659D01*
X011897Y015712D01*
X011921Y015763D01*
X011949Y015813D01*
X011979Y015861D01*
X012013Y015907D01*
X012050Y015950D01*
X012089Y015991D01*
X012131Y016029D01*
X012176Y016064D01*
X012223Y016096D01*
X012272Y016125D01*
X012322Y016151D01*
X012375Y016173D01*
X012428Y016192D01*
X012483Y016207D01*
X012539Y016218D01*
X012595Y016226D01*
X012652Y016230D01*
X012708Y016230D01*
X012765Y016226D01*
X012821Y016218D01*
X012877Y016207D01*
X012932Y016192D01*
X012985Y016173D01*
X013038Y016151D01*
X013088Y016125D01*
X013137Y016096D01*
X013184Y016064D01*
X013229Y016029D01*
X013271Y015991D01*
X013310Y015950D01*
X013347Y015907D01*
X013381Y015861D01*
X013411Y015813D01*
X013439Y015763D01*
X013463Y015712D01*
X013483Y015659D01*
X013500Y015605D01*
X013513Y015549D01*
X013522Y015493D01*
X013528Y015437D01*
X013530Y015380D01*
X013530Y012980D01*
X013528Y012923D01*
X013522Y012867D01*
X013513Y012811D01*
X013500Y012755D01*
X013483Y012701D01*
X013463Y012648D01*
X013439Y012597D01*
X013411Y012547D01*
X013381Y012499D01*
X013347Y012453D01*
X013310Y012410D01*
X013271Y012369D01*
X013229Y012331D01*
X013184Y012296D01*
X013137Y012264D01*
X013088Y012235D01*
X013038Y012209D01*
X012985Y012187D01*
X012932Y012168D01*
X012877Y012153D01*
X012821Y012142D01*
X012765Y012134D01*
X012708Y012130D01*
X012652Y012130D01*
X012595Y012134D01*
X012539Y012142D01*
X012483Y012153D01*
X012428Y012168D01*
X012375Y012187D01*
X012322Y012209D01*
X012272Y012235D01*
X012223Y012264D01*
X012176Y012296D01*
X012131Y012331D01*
X012089Y012369D01*
X012050Y012410D01*
X012013Y012453D01*
X011979Y012499D01*
X011949Y012547D01*
X011921Y012597D01*
X011897Y012648D01*
X011877Y012701D01*
X011860Y012755D01*
X011847Y012811D01*
X011838Y012867D01*
X011832Y012923D01*
X011830Y012980D01*
D13*
X004981Y002070D02*
X005056Y001995D01*
X005206Y001995D01*
X005281Y002070D01*
X005441Y001995D02*
X005441Y002295D01*
X005591Y002445D01*
X005741Y002295D01*
X005741Y001995D01*
X005901Y001995D02*
X005901Y002445D01*
X006202Y001995D01*
X006202Y002445D01*
X005741Y002220D02*
X005441Y002220D01*
X005281Y002370D02*
X005206Y002445D01*
X005056Y002445D01*
X004981Y002370D01*
X004981Y002070D01*
X006362Y001920D02*
X006662Y001920D01*
X006822Y002070D02*
X006897Y001995D01*
X007047Y001995D01*
X007122Y002070D01*
X007283Y002070D02*
X007358Y001995D01*
X007508Y001995D01*
X007583Y002070D01*
X007583Y002370D01*
X007508Y002445D01*
X007358Y002445D01*
X007283Y002370D01*
X007283Y002070D01*
X007122Y002370D02*
X007047Y002445D01*
X006897Y002445D01*
X006822Y002370D01*
X006822Y002070D01*
X007743Y001995D02*
X007743Y002445D01*
X008043Y001995D01*
X008043Y002445D01*
X008203Y002445D02*
X008504Y002445D01*
X008354Y002445D02*
X008354Y001995D01*
X008664Y001995D02*
X008664Y002445D01*
X008889Y002445D01*
X008964Y002370D01*
X008964Y002220D01*
X008889Y002145D01*
X008664Y002145D01*
X008814Y002145D02*
X008964Y001995D01*
X009124Y002070D02*
X009199Y001995D01*
X009349Y001995D01*
X009424Y002070D01*
X009424Y002370D01*
X009349Y002445D01*
X009199Y002445D01*
X009124Y002370D01*
X009124Y002070D01*
X009585Y001995D02*
X009885Y001995D01*
X009585Y001995D02*
X009585Y002445D01*
X012006Y006788D02*
X012006Y011512D01*
X012399Y011512D01*
X012399Y011315D01*
X013581Y011315D01*
X013581Y011512D01*
X013974Y011512D01*
X013974Y006788D01*
X013581Y006788D01*
X013581Y006984D01*
X012399Y006984D01*
X012399Y006788D01*
X012006Y006788D01*
X014055Y005275D02*
X014505Y005275D01*
X014055Y004974D01*
X014505Y004974D01*
X014505Y004814D02*
X014205Y004814D01*
X014055Y004664D01*
X014205Y004514D01*
X014505Y004514D01*
X014430Y004354D02*
X014505Y004279D01*
X014505Y004129D01*
X014430Y004054D01*
X014130Y004054D01*
X014055Y004129D01*
X014055Y004279D01*
X014130Y004354D01*
X014280Y004514D02*
X014280Y004814D01*
X014580Y003893D02*
X014580Y003593D01*
X007105Y009412D02*
X006655Y009412D01*
X007105Y009712D01*
X006655Y009712D01*
X006655Y009872D02*
X006655Y010097D01*
X006730Y010172D01*
X006880Y010172D01*
X006955Y010097D01*
X006955Y009872D01*
X007105Y009872D02*
X006655Y009872D01*
X006955Y010022D02*
X007105Y010172D01*
X007105Y010332D02*
X006655Y010332D01*
X006655Y010633D01*
X006730Y010793D02*
X006655Y010868D01*
X006655Y011018D01*
X006730Y011093D01*
X006805Y011093D01*
X007105Y010793D01*
X007105Y011093D01*
X006880Y011253D02*
X006880Y011553D01*
X007105Y011478D02*
X006655Y011478D01*
X006880Y011253D01*
X006655Y011714D02*
X007105Y011714D01*
X007105Y012014D01*
X007030Y012174D02*
X006730Y012474D01*
X007030Y012474D01*
X007105Y012399D01*
X007105Y012249D01*
X007030Y012174D01*
X006730Y012174D01*
X006655Y012249D01*
X006655Y012399D01*
X006730Y012474D01*
X006805Y012634D02*
X006655Y012784D01*
X007105Y012784D01*
X007105Y012634D02*
X007105Y012935D01*
X006880Y010482D02*
X006880Y010332D01*
X011155Y012280D02*
X011155Y012430D01*
X011230Y012505D01*
X011530Y012505D01*
X011605Y012430D01*
X011605Y012280D01*
X011530Y012205D01*
X011230Y012205D01*
X011155Y012280D01*
X011455Y012355D02*
X011605Y012505D01*
X011605Y012665D02*
X011605Y012965D01*
X011605Y012815D02*
X011155Y012815D01*
X011305Y012665D01*
D14*
X009900Y007170D02*
X009900Y002570D01*
D15*
X010065Y002870D03*
X010065Y003370D03*
X010065Y003870D03*
X010065Y004370D03*
X010065Y004870D03*
X010065Y005370D03*
X010065Y005870D03*
X010065Y006370D03*
X010065Y006870D03*
X007075Y006870D03*
X007075Y006370D03*
X007075Y005870D03*
X007075Y005370D03*
X007075Y004870D03*
X007075Y004370D03*
X007075Y003870D03*
X007075Y003370D03*
X007075Y002870D03*
D16*
X012810Y002630D02*
X012810Y003130D01*
X013060Y003380D01*
X012810Y003630D01*
X012810Y004130D01*
X013060Y004380D01*
X012810Y004630D01*
X012810Y005130D01*
X013060Y005380D01*
X013560Y005380D01*
X013810Y005130D01*
X013810Y004630D01*
X013560Y004380D01*
X013810Y004130D01*
X013810Y003630D01*
X013560Y003380D01*
X013810Y003130D01*
X013810Y002630D01*
X013560Y002380D01*
X013060Y002380D01*
X012810Y002630D01*
X008940Y012791D02*
X008940Y013129D01*
X008486Y013279D02*
X008274Y013279D01*
X007820Y013129D02*
X007820Y012791D01*
D17*
X014191Y011182D02*
X014651Y011182D01*
X014191Y010875D01*
X014651Y010875D01*
X014651Y010721D02*
X014344Y010721D01*
X014191Y010568D01*
X014344Y010414D01*
X014651Y010414D01*
X014574Y010261D02*
X014651Y010184D01*
X014651Y010031D01*
X014574Y009954D01*
X014267Y009954D01*
X014191Y010031D01*
X014191Y010184D01*
X014267Y010261D01*
X014421Y010414D02*
X014421Y010721D01*
M02*
