%
M48
M72
T01C0.0118
T02C0.0315
T03C0.0320
T04C0.0354
T05C0.0400
T06C0.0591
T07C0.0827
%
T01
X4990Y5020
X6040Y5580
X8140Y5650
X6040Y3270
X9890Y2920
X8490Y9290
X9120Y12860
T02
X12490Y10900
X12490Y9900
X12490Y8900
X12490Y7900
X13490Y8400
X13490Y9400
X13490Y10400
X13490Y7400
T03
X12680Y13230
X12680Y15130
T04
X10180Y7680
T05
X10180Y8680
X10180Y9680
X10180Y10680
X10180Y12680
X9680Y15680
X8680Y15680
X7680Y15680
X6680Y15680
X5680Y15680
X4680Y15680
X4880Y12570
X4880Y11570
X4880Y10570
X4880Y9570
X5880Y9570
X5880Y10570
X5880Y11570
X5880Y12570
X4180Y6680
X4180Y5680
X4180Y4680
X4180Y3680
X13310Y3880
X13310Y2880
X13310Y4880
T06
X13346Y11538
T07
X3080Y2680
X14680Y2680
X2980Y16380
X14680Y16480
M30
