G75*
G70*
%OFA0B0*%
%FSLAX24Y24*%
%IPPOS*%
%LPD*%
%AMOC8*
5,1,8,0,0,1.08239X$1,22.5*
%
%ADD10C,0.0595*%
%ADD11C,0.0740*%
%ADD12C,0.0848*%
%ADD13C,0.0674*%
%ADD14R,0.0380X0.0300*%
%ADD15R,0.0710X0.0592*%
%ADD16R,0.0592X0.0671*%
%ADD17C,0.0640*%
%ADD18C,0.0640*%
%ADD19C,0.0671*%
%ADD20C,0.0780*%
%ADD21C,0.1261*%
%ADD22C,0.0476*%
%ADD23OC8,0.1346*%
D10*
X019065Y011228D03*
X019065Y012228D03*
X019065Y013228D03*
X019065Y014228D03*
X019065Y015228D03*
X019065Y016228D03*
X019065Y017228D03*
X019065Y018228D03*
X019065Y019228D03*
X019065Y020228D03*
X019065Y021228D03*
X019065Y022228D03*
X019065Y023228D03*
X019065Y024228D03*
X019065Y025228D03*
X019065Y026228D03*
X019065Y027228D03*
X019065Y028228D03*
X019065Y029228D03*
X019065Y030228D03*
X028065Y030228D03*
X028065Y029228D03*
X028065Y028228D03*
X028065Y027228D03*
X028065Y026228D03*
X028065Y025228D03*
X028065Y024228D03*
X028065Y023228D03*
X028065Y022228D03*
X028065Y021228D03*
X028065Y020228D03*
X028065Y019228D03*
X028065Y018228D03*
X028065Y017228D03*
X028065Y016228D03*
X028065Y015228D03*
X028065Y014228D03*
X028065Y013228D03*
X028065Y012228D03*
X028065Y011228D03*
D11*
X015419Y013117D03*
X014167Y013117D03*
X011667Y013117D03*
X011667Y019369D03*
X015415Y019369D03*
D12*
X009166Y013092D02*
X008398Y013092D01*
X008398Y011092D02*
X009166Y011092D01*
D13*
X025900Y006785D02*
X025900Y006191D01*
X026900Y006191D02*
X026900Y006785D01*
X027900Y006785D02*
X027900Y006191D01*
X029880Y006214D02*
X029880Y006807D01*
X030880Y006807D02*
X030880Y006214D01*
X031880Y006214D02*
X031880Y006807D01*
X032127Y009228D02*
X031534Y009228D01*
X031534Y010228D02*
X032127Y010228D01*
X032127Y011228D02*
X031534Y011228D01*
X031534Y012228D02*
X032127Y012228D01*
X032127Y014228D02*
X031534Y014228D01*
X031534Y015228D02*
X032127Y015228D01*
X032127Y016228D02*
X031534Y016228D01*
X031534Y018228D02*
X032127Y018228D01*
X032127Y019228D02*
X031534Y019228D01*
X031534Y020228D02*
X032127Y020228D01*
X032127Y022228D02*
X031534Y022228D01*
X031534Y023228D02*
X032127Y023228D01*
X032127Y024228D02*
X031534Y024228D01*
X031534Y025228D02*
X032127Y025228D01*
X032127Y027228D02*
X031534Y027228D01*
X031534Y028228D02*
X032127Y028228D01*
X032127Y029228D02*
X031534Y029228D01*
X031534Y030228D02*
X032127Y030228D01*
D14*
X024028Y027329D03*
X024028Y026829D03*
X024028Y026329D03*
X024028Y025829D03*
X022073Y025829D03*
X022073Y026329D03*
X022073Y026829D03*
X022073Y027329D03*
D15*
X024030Y025093D03*
X024030Y024345D03*
X024159Y018759D03*
X024159Y018011D03*
X030143Y012297D03*
X030143Y011549D03*
X030145Y010665D03*
X030145Y009917D03*
X030005Y027204D03*
X030005Y027952D03*
X030052Y028845D03*
X030052Y029593D03*
D16*
X023281Y028023D03*
X022533Y028023D03*
D17*
X022160Y016853D02*
X022160Y016293D01*
X023160Y016293D02*
X023160Y016853D01*
X024160Y016853D02*
X024160Y016293D01*
D18*
X024213Y007118D03*
X023213Y007118D03*
X022213Y007118D03*
X021213Y007118D03*
X021713Y006118D03*
X022713Y006118D03*
X023713Y006118D03*
X020713Y006118D03*
X018416Y007090D03*
X017416Y007090D03*
X016416Y007090D03*
X016916Y006090D03*
X017916Y006090D03*
X015916Y006090D03*
X013734Y007059D03*
X012734Y007059D03*
X011734Y007059D03*
X011234Y006059D03*
X012234Y006059D03*
X013234Y006059D03*
X012030Y025745D03*
X012030Y026745D03*
X011030Y026245D03*
X011030Y027245D03*
X011030Y028245D03*
X011030Y029245D03*
X011030Y030245D03*
X012030Y029745D03*
X012030Y028745D03*
X012030Y027745D03*
X015420Y029780D03*
X016420Y029780D03*
X015920Y030780D03*
X016920Y030780D03*
D19*
X014783Y030637D03*
X015602Y027019D03*
X016602Y027019D03*
X011174Y025108D03*
X017283Y021224D03*
X017283Y020224D03*
X015278Y006946D03*
X014372Y006202D03*
X020075Y006974D03*
D20*
X012512Y021042D03*
X012512Y022223D03*
X010937Y022223D03*
X010937Y021042D03*
X009362Y021042D03*
X009362Y022223D03*
D21*
X007787Y021632D03*
X014087Y021632D03*
D22*
X021260Y020256D03*
X024015Y020240D03*
X026090Y028122D03*
X024102Y010472D03*
D23*
X007821Y005961D03*
X033186Y005938D03*
X033184Y031167D03*
X007804Y031165D03*
M02*
