G75*
%MOIN*%
%OFA0B0*%
%FSLAX24Y24*%
%IPPOS*%
%LPD*%
%AMOC8*
5,1,8,0,0,1.08239X$1,22.5*
%
%ADD10C,0.0000*%
%ADD11C,0.0050*%
D10*
X003220Y005250D02*
X003220Y033746D01*
X026840Y033746D01*
X026840Y005250D01*
X003220Y005250D01*
X022063Y017144D02*
X022065Y017178D01*
X022071Y017212D01*
X022081Y017245D01*
X022094Y017276D01*
X022112Y017306D01*
X022132Y017334D01*
X022156Y017359D01*
X022182Y017381D01*
X022210Y017399D01*
X022241Y017415D01*
X022273Y017427D01*
X022307Y017435D01*
X022341Y017439D01*
X022375Y017439D01*
X022409Y017435D01*
X022443Y017427D01*
X022475Y017415D01*
X022505Y017399D01*
X022534Y017381D01*
X022560Y017359D01*
X022584Y017334D01*
X022604Y017306D01*
X022622Y017276D01*
X022635Y017245D01*
X022645Y017212D01*
X022651Y017178D01*
X022653Y017144D01*
X022651Y017110D01*
X022645Y017076D01*
X022635Y017043D01*
X022622Y017012D01*
X022604Y016982D01*
X022584Y016954D01*
X022560Y016929D01*
X022534Y016907D01*
X022506Y016889D01*
X022475Y016873D01*
X022443Y016861D01*
X022409Y016853D01*
X022375Y016849D01*
X022341Y016849D01*
X022307Y016853D01*
X022273Y016861D01*
X022241Y016873D01*
X022210Y016889D01*
X022182Y016907D01*
X022156Y016929D01*
X022132Y016954D01*
X022112Y016982D01*
X022094Y017012D01*
X022081Y017043D01*
X022071Y017076D01*
X022065Y017110D01*
X022063Y017144D01*
D11*
X018470Y008500D02*
X011470Y008500D01*
X011377Y008498D01*
X011284Y008492D01*
X011192Y008483D01*
X011100Y008469D01*
X011008Y008452D01*
X010918Y008431D01*
X010828Y008406D01*
X010739Y008378D01*
X010652Y008346D01*
X010566Y008310D01*
X010482Y008271D01*
X010399Y008229D01*
X010318Y008183D01*
X010239Y008134D01*
X010163Y008081D01*
X010088Y008026D01*
X010016Y007967D01*
X009946Y007905D01*
X009879Y007841D01*
X009815Y007774D01*
X009753Y007704D01*
X009694Y007632D01*
X009639Y007557D01*
X009586Y007481D01*
X009537Y007402D01*
X009491Y007321D01*
X009449Y007238D01*
X009410Y007154D01*
X009374Y007068D01*
X009342Y006981D01*
X009314Y006892D01*
X009289Y006802D01*
X009268Y006712D01*
X009251Y006620D01*
X009237Y006528D01*
X009228Y006436D01*
X009222Y006343D01*
X009220Y006250D01*
X004220Y006250D01*
X004220Y029500D01*
X004222Y029640D01*
X004228Y029780D01*
X004238Y029920D01*
X004251Y030060D01*
X004269Y030199D01*
X004291Y030338D01*
X004316Y030475D01*
X004345Y030613D01*
X004378Y030749D01*
X004415Y030884D01*
X004456Y031018D01*
X004501Y031151D01*
X004549Y031283D01*
X004601Y031413D01*
X004656Y031542D01*
X004715Y031669D01*
X004778Y031795D01*
X004844Y031919D01*
X004913Y032040D01*
X004986Y032160D01*
X005063Y032278D01*
X005142Y032393D01*
X005225Y032507D01*
X005311Y032617D01*
X005400Y032726D01*
X005492Y032832D01*
X005587Y032935D01*
X005684Y033036D01*
X005785Y033133D01*
X005888Y033228D01*
X005994Y033320D01*
X006103Y033409D01*
X006213Y033495D01*
X006327Y033578D01*
X006442Y033657D01*
X006560Y033734D01*
X006680Y033807D01*
X006801Y033876D01*
X006925Y033942D01*
X007051Y034005D01*
X007178Y034064D01*
X007307Y034119D01*
X007437Y034171D01*
X007569Y034219D01*
X007702Y034264D01*
X007836Y034305D01*
X007971Y034342D01*
X008107Y034375D01*
X008245Y034404D01*
X008382Y034429D01*
X008521Y034451D01*
X008660Y034469D01*
X008800Y034482D01*
X008940Y034492D01*
X009080Y034498D01*
X009220Y034500D01*
X020720Y034500D01*
X020860Y034498D01*
X021000Y034492D01*
X021140Y034482D01*
X021280Y034469D01*
X021419Y034451D01*
X021558Y034429D01*
X021695Y034404D01*
X021833Y034375D01*
X021969Y034342D01*
X022104Y034305D01*
X022238Y034264D01*
X022371Y034219D01*
X022503Y034171D01*
X022633Y034119D01*
X022762Y034064D01*
X022889Y034005D01*
X023015Y033942D01*
X023139Y033876D01*
X023260Y033807D01*
X023380Y033734D01*
X023498Y033657D01*
X023613Y033578D01*
X023727Y033495D01*
X023837Y033409D01*
X023946Y033320D01*
X024052Y033228D01*
X024155Y033133D01*
X024256Y033036D01*
X024353Y032935D01*
X024448Y032832D01*
X024540Y032726D01*
X024629Y032617D01*
X024715Y032507D01*
X024798Y032393D01*
X024877Y032278D01*
X024954Y032160D01*
X025027Y032040D01*
X025096Y031919D01*
X025162Y031795D01*
X025225Y031669D01*
X025284Y031542D01*
X025339Y031413D01*
X025391Y031283D01*
X025439Y031151D01*
X025484Y031018D01*
X025525Y030884D01*
X025562Y030749D01*
X025595Y030613D01*
X025624Y030475D01*
X025649Y030338D01*
X025671Y030199D01*
X025689Y030060D01*
X025702Y029920D01*
X025712Y029780D01*
X025718Y029640D01*
X025720Y029500D01*
X025720Y006250D01*
X020720Y006250D01*
X020718Y006343D01*
X020712Y006436D01*
X020703Y006528D01*
X020689Y006620D01*
X020672Y006712D01*
X020651Y006802D01*
X020626Y006892D01*
X020598Y006981D01*
X020566Y007068D01*
X020530Y007154D01*
X020491Y007238D01*
X020449Y007321D01*
X020403Y007402D01*
X020354Y007481D01*
X020301Y007557D01*
X020246Y007632D01*
X020187Y007704D01*
X020125Y007774D01*
X020061Y007841D01*
X019994Y007905D01*
X019924Y007967D01*
X019852Y008026D01*
X019777Y008081D01*
X019701Y008134D01*
X019622Y008183D01*
X019541Y008229D01*
X019458Y008271D01*
X019374Y008310D01*
X019288Y008346D01*
X019201Y008378D01*
X019112Y008406D01*
X019022Y008431D01*
X018932Y008452D01*
X018840Y008469D01*
X018748Y008483D01*
X018656Y008492D01*
X018563Y008498D01*
X018470Y008500D01*
M02*
