G75*
%MOIN*%
%OFA0B0*%
%FSLAX24Y24*%
%IPPOS*%
%LPD*%
%AMOC8*
5,1,8,0,0,1.08239X$1,22.5*
%
%ADD10R,0.0594X0.0594*%
%ADD11C,0.0594*%
%ADD12R,0.0590X0.0590*%
%ADD13C,0.0590*%
%ADD14OC8,0.0660*%
%ADD15C,0.0750*%
%ADD16OC8,0.0750*%
%ADD17OC8,0.0520*%
%ADD18C,0.1185*%
%ADD19C,0.0560*%
%ADD20C,0.0600*%
%ADD21C,0.0840*%
%ADD22C,0.0240*%
D10*
X005970Y008000D03*
X024970Y008000D03*
D11*
X023970Y008000D03*
X023970Y009000D03*
X024970Y009000D03*
X024970Y010000D03*
X024970Y011000D03*
X023970Y011000D03*
X023970Y010000D03*
X023970Y012000D03*
X024970Y012000D03*
X024970Y013000D03*
X024970Y014000D03*
X023970Y014000D03*
X023970Y013000D03*
X023970Y015000D03*
X024970Y015000D03*
X024970Y016000D03*
X024970Y017000D03*
X023970Y017000D03*
X023970Y016000D03*
X023970Y018000D03*
X024970Y018000D03*
X024970Y019000D03*
X023970Y019000D03*
X023970Y020000D03*
X023970Y021000D03*
X024970Y021000D03*
X024970Y020000D03*
X024970Y022000D03*
X023970Y022000D03*
X023970Y023000D03*
X023970Y024000D03*
X024970Y024000D03*
X024970Y023000D03*
X024970Y025000D03*
X023970Y025000D03*
X023970Y026000D03*
X024970Y026000D03*
X024970Y027000D03*
X024970Y028000D03*
X023970Y028000D03*
X023970Y027000D03*
X023970Y029000D03*
X024970Y029000D03*
X024970Y030000D03*
X023970Y030000D03*
X005970Y030000D03*
X005970Y029000D03*
X005970Y028000D03*
X005970Y027000D03*
X005970Y026000D03*
X005970Y025000D03*
X005970Y024000D03*
X005970Y023000D03*
X005970Y022000D03*
X005970Y021000D03*
X005970Y020000D03*
X005970Y019000D03*
X005970Y018000D03*
X005970Y017000D03*
X005970Y016000D03*
X005970Y015000D03*
X005970Y014000D03*
X005970Y013000D03*
X005970Y012000D03*
X005970Y011000D03*
X005970Y010000D03*
X005970Y009000D03*
X004970Y009000D03*
X004970Y008000D03*
X004970Y010000D03*
X004970Y011000D03*
X004970Y012000D03*
X004970Y013000D03*
X004970Y014000D03*
X004970Y015000D03*
X004970Y016000D03*
X004970Y017000D03*
X004970Y018000D03*
X004970Y019000D03*
X004970Y020000D03*
X004970Y021000D03*
X004970Y022000D03*
X004970Y023000D03*
X004970Y024000D03*
X004970Y025000D03*
X004970Y026000D03*
X004970Y027000D03*
X004970Y028000D03*
X004970Y029000D03*
X004970Y030000D03*
D12*
X019220Y010000D03*
D13*
X019220Y011000D03*
X019220Y012000D03*
X019220Y013000D03*
X016220Y013000D03*
X016220Y012000D03*
X016220Y011000D03*
X016220Y010000D03*
D14*
X015020Y010500D03*
X013220Y011450D03*
X011420Y010500D03*
X013220Y015050D03*
X015470Y017000D03*
X016470Y017000D03*
X015920Y015000D03*
X019520Y015000D03*
X021220Y015800D03*
X021220Y012200D03*
X016470Y020000D03*
X015470Y020000D03*
X013020Y021000D03*
X011520Y022250D03*
X009420Y021000D03*
X007920Y022250D03*
X008220Y024700D03*
X011220Y024700D03*
X014220Y024700D03*
X014220Y028300D03*
X014220Y030000D03*
X014220Y031000D03*
X011220Y031000D03*
X011220Y030000D03*
X011220Y028300D03*
X008220Y028300D03*
X008220Y030000D03*
X008220Y031000D03*
X020720Y027000D03*
X020720Y026000D03*
X020720Y025000D03*
X020720Y024000D03*
X021720Y024000D03*
X021720Y025000D03*
X021720Y026000D03*
X021720Y027000D03*
D15*
X012220Y016500D03*
D16*
X014220Y016500D03*
D17*
X017970Y019500D03*
X017970Y020500D03*
D18*
X011300Y019093D02*
X011300Y017908D01*
X009720Y017908D02*
X009720Y019093D01*
X008140Y019093D02*
X008140Y017908D01*
X008140Y015093D02*
X008140Y013908D01*
X009720Y013908D02*
X009720Y015093D01*
X011300Y015093D02*
X011300Y013908D01*
D19*
X018220Y017000D03*
X019220Y017000D03*
X020220Y017000D03*
X021220Y017000D03*
X020720Y018000D03*
X019720Y018000D03*
X018720Y018000D03*
X021720Y018000D03*
D20*
X009720Y011500D03*
X009720Y010500D03*
X009720Y009500D03*
D21*
X021031Y009580D02*
X021031Y010420D01*
X022409Y010420D02*
X022409Y009580D01*
D22*
X004765Y007524D02*
X004765Y006795D01*
X008728Y006795D01*
X008815Y007179D01*
X008815Y007179D01*
X009088Y007746D01*
X009088Y007746D01*
X009481Y008239D01*
X009481Y008239D01*
X009520Y008270D01*
X007125Y008270D01*
X006948Y008343D01*
X006813Y008478D01*
X006567Y008724D01*
X006527Y008628D01*
X006383Y008484D01*
X006402Y008473D01*
X006443Y008432D01*
X006472Y008382D01*
X006487Y008326D01*
X006487Y008000D01*
X005970Y008000D01*
X005970Y008000D01*
X005970Y008000D01*
X005487Y008000D01*
X004970Y008000D01*
X004970Y008000D01*
X004970Y008343D01*
X004970Y008343D01*
X004970Y008000D01*
X004970Y008000D01*
X004970Y008000D01*
X004765Y008000D01*
X004765Y008000D01*
X004970Y008000D01*
X005970Y008000D01*
X006487Y008000D01*
X006487Y007674D01*
X006472Y007618D01*
X006443Y007568D01*
X006402Y007527D01*
X006352Y007498D01*
X006296Y007483D01*
X005970Y007483D01*
X005970Y008000D01*
X005970Y008000D01*
X005970Y007483D01*
X005644Y007483D01*
X005588Y007498D01*
X005538Y007527D01*
X005497Y007568D01*
X005468Y007618D01*
X005453Y007674D01*
X005453Y007814D01*
X005449Y007802D01*
X005412Y007729D01*
X005364Y007663D01*
X005307Y007606D01*
X005241Y007558D01*
X005168Y007521D01*
X005091Y007496D01*
X005011Y007483D01*
X004970Y007483D01*
X004970Y008000D01*
X004970Y008000D01*
X004970Y007483D01*
X004929Y007483D01*
X004849Y007496D01*
X004772Y007521D01*
X004765Y007524D01*
X004765Y007348D02*
X008896Y007348D01*
X008799Y007109D02*
X004765Y007109D01*
X004765Y006871D02*
X008745Y006871D01*
X009011Y007586D02*
X006453Y007586D01*
X006487Y007825D02*
X009151Y007825D01*
X009341Y008063D02*
X006487Y008063D01*
X006487Y008302D02*
X007048Y008302D01*
X006751Y008540D02*
X006439Y008540D01*
X005970Y009000D02*
X005470Y009500D01*
X005470Y010250D01*
X005720Y010500D01*
X006220Y010500D01*
X006970Y011250D01*
X006970Y026000D01*
X007970Y027000D01*
X020720Y027000D01*
X020224Y027480D02*
X007875Y027480D01*
X007698Y027407D01*
X007563Y027272D01*
X006567Y026276D01*
X006527Y026372D01*
X006399Y026500D01*
X006527Y026628D01*
X006627Y026869D01*
X006627Y027131D01*
X006527Y027372D01*
X006399Y027500D01*
X006527Y027628D01*
X006627Y027869D01*
X006627Y028131D01*
X006527Y028372D01*
X006399Y028500D01*
X006527Y028628D01*
X006627Y028869D01*
X006627Y029131D01*
X006527Y029372D01*
X006399Y029500D01*
X006527Y029628D01*
X006627Y029869D01*
X006627Y030131D01*
X006527Y030372D01*
X006342Y030557D01*
X006101Y030657D01*
X005839Y030657D01*
X005598Y030557D01*
X005470Y030429D01*
X005342Y030557D01*
X005101Y030657D01*
X004926Y030657D01*
X005104Y031205D01*
X005421Y031828D01*
X005832Y032393D01*
X006327Y032888D01*
X006793Y033226D01*
X023147Y033226D01*
X023613Y032888D01*
X024108Y032393D01*
X024519Y031828D01*
X024836Y031205D01*
X025052Y030540D01*
X025057Y030510D01*
X025011Y030517D01*
X024970Y030517D01*
X024929Y030517D01*
X024849Y030504D01*
X024772Y030479D01*
X024699Y030442D01*
X024633Y030394D01*
X024576Y030337D01*
X024528Y030271D01*
X024491Y030198D01*
X024470Y030134D01*
X024449Y030198D01*
X024412Y030271D01*
X024364Y030337D01*
X024307Y030394D01*
X024241Y030442D01*
X024168Y030479D01*
X024091Y030504D01*
X024011Y030517D01*
X023970Y030517D01*
X023929Y030517D01*
X023849Y030504D01*
X023772Y030479D01*
X023699Y030442D01*
X023633Y030394D01*
X023576Y030337D01*
X023528Y030271D01*
X023491Y030198D01*
X023466Y030121D01*
X023453Y030041D01*
X023453Y030000D01*
X023453Y029959D01*
X023466Y029879D01*
X023491Y029802D01*
X023528Y029729D01*
X023576Y029663D01*
X023633Y029606D01*
X023699Y029558D01*
X023772Y029521D01*
X023836Y029500D01*
X023772Y029479D01*
X023699Y029442D01*
X023633Y029394D01*
X023576Y029337D01*
X023528Y029271D01*
X023491Y029198D01*
X023466Y029121D01*
X023453Y029041D01*
X023453Y029000D01*
X023453Y028959D01*
X023466Y028879D01*
X023491Y028802D01*
X023528Y028729D01*
X023576Y028663D01*
X023633Y028606D01*
X023663Y028584D01*
X023598Y028557D01*
X023413Y028372D01*
X023313Y028131D01*
X023313Y027869D01*
X023413Y027628D01*
X023541Y027500D01*
X023413Y027372D01*
X023313Y027131D01*
X023313Y026869D01*
X023413Y026628D01*
X023541Y026500D01*
X023413Y026372D01*
X023313Y026131D01*
X023313Y025869D01*
X023413Y025628D01*
X023541Y025500D01*
X023413Y025372D01*
X023313Y025131D01*
X023313Y024869D01*
X023413Y024628D01*
X023541Y024500D01*
X023431Y024390D01*
X023377Y024522D01*
X023242Y024657D01*
X022492Y025407D01*
X022315Y025480D01*
X022216Y025480D01*
X022196Y025500D01*
X022410Y025714D01*
X022410Y026286D01*
X022196Y026500D01*
X022410Y026714D01*
X022410Y027286D01*
X022006Y027690D01*
X021434Y027690D01*
X021220Y027476D01*
X021006Y027690D01*
X020434Y027690D01*
X020224Y027480D01*
X020364Y027620D02*
X014516Y027620D01*
X014506Y027610D02*
X014910Y028014D01*
X014910Y028586D01*
X014506Y028990D01*
X013934Y028990D01*
X013530Y028586D01*
X013530Y028014D01*
X013934Y027610D01*
X014506Y027610D01*
X014754Y027859D02*
X023318Y027859D01*
X023313Y028097D02*
X014910Y028097D01*
X014910Y028336D02*
X023398Y028336D01*
X023639Y028574D02*
X014910Y028574D01*
X014683Y028813D02*
X023487Y028813D01*
X023453Y029000D02*
X023970Y029000D01*
X024487Y029000D01*
X024970Y029000D01*
X025175Y029000D01*
X025175Y029000D01*
X024970Y029000D01*
X024970Y029000D01*
X024970Y029000D01*
X024970Y029483D01*
X024970Y030000D01*
X025137Y030000D01*
X025137Y030000D01*
X024970Y030000D01*
X024970Y030000D01*
X024970Y030000D01*
X024970Y030517D01*
X024970Y030000D01*
X024970Y030000D01*
X024970Y030000D01*
X024487Y030000D01*
X023970Y030000D01*
X023970Y030000D01*
X023970Y030000D01*
X023970Y030517D01*
X023970Y030000D01*
X023970Y029483D01*
X023970Y029000D01*
X023970Y029000D01*
X023970Y029000D01*
X024970Y029000D01*
X024970Y028657D01*
X024970Y029000D01*
X024970Y029000D01*
X024970Y029000D01*
X024970Y030000D01*
X023970Y030000D01*
X023970Y030000D01*
X023970Y030000D01*
X023453Y030000D01*
X023970Y030000D01*
X023970Y029000D01*
X023970Y029000D01*
X023453Y029000D01*
X023455Y029051D02*
X006627Y029051D01*
X006603Y028813D02*
X007757Y028813D01*
X007934Y028990D02*
X007530Y028586D01*
X007530Y028014D01*
X007934Y027610D01*
X008506Y027610D01*
X008910Y028014D01*
X008910Y028586D01*
X008506Y028990D01*
X007934Y028990D01*
X007934Y029310D02*
X008506Y029310D01*
X008910Y029714D01*
X008910Y030286D01*
X008597Y030599D01*
X008770Y030772D01*
X008770Y031000D01*
X008770Y031228D01*
X008448Y031550D01*
X008220Y031550D01*
X008220Y031000D01*
X008770Y031000D01*
X008220Y031000D01*
X008220Y031000D01*
X008220Y031000D01*
X008220Y031000D01*
X007670Y031000D01*
X007670Y031228D01*
X007992Y031550D01*
X008220Y031550D01*
X008220Y031000D01*
X007670Y031000D01*
X007670Y030772D01*
X007843Y030599D01*
X007530Y030286D01*
X007530Y029714D01*
X007934Y029310D01*
X007716Y029528D02*
X006427Y029528D01*
X006561Y029290D02*
X023541Y029290D01*
X023758Y029528D02*
X014724Y029528D01*
X014910Y029714D02*
X014910Y030286D01*
X014597Y030599D01*
X014770Y030772D01*
X014770Y031000D01*
X014770Y031228D01*
X014448Y031550D01*
X014220Y031550D01*
X014220Y031000D01*
X014770Y031000D01*
X014220Y031000D01*
X014220Y031000D01*
X014220Y031000D01*
X014220Y031000D01*
X013670Y031000D01*
X013670Y031228D01*
X013992Y031550D01*
X014220Y031550D01*
X014220Y031000D01*
X013670Y031000D01*
X013670Y030772D01*
X013843Y030599D01*
X013530Y030286D01*
X013530Y029714D01*
X013934Y029310D01*
X014506Y029310D01*
X014910Y029714D01*
X014910Y029767D02*
X023509Y029767D01*
X023453Y030005D02*
X014910Y030005D01*
X014910Y030244D02*
X023514Y030244D01*
X023781Y030482D02*
X014714Y030482D01*
X014718Y030721D02*
X024993Y030721D01*
X024970Y030482D02*
X024970Y030482D01*
X024781Y030482D02*
X024159Y030482D01*
X023970Y030482D02*
X023970Y030482D01*
X023970Y030244D02*
X023970Y030244D01*
X023970Y030005D02*
X023970Y030005D01*
X023970Y029767D02*
X023970Y029767D01*
X023970Y029528D02*
X023970Y029528D01*
X023970Y029290D02*
X023970Y029290D01*
X023970Y029051D02*
X023970Y029051D01*
X024970Y029051D02*
X024970Y029051D01*
X024970Y028813D02*
X024970Y028813D01*
X024970Y028657D02*
X024970Y028657D01*
X024970Y029290D02*
X024970Y029290D01*
X024970Y029528D02*
X024970Y029528D01*
X024970Y029767D02*
X024970Y029767D01*
X024970Y030005D02*
X024970Y030005D01*
X024970Y030244D02*
X024970Y030244D01*
X024514Y030244D02*
X024426Y030244D01*
X024916Y030959D02*
X014770Y030959D01*
X014770Y031198D02*
X024838Y031198D01*
X024718Y031436D02*
X014562Y031436D01*
X014220Y031436D02*
X014220Y031436D01*
X014220Y031198D02*
X014220Y031198D01*
X013878Y031436D02*
X011562Y031436D01*
X011448Y031550D02*
X011770Y031228D01*
X011770Y031000D01*
X011220Y031000D01*
X011220Y031000D01*
X011220Y031000D01*
X011220Y031550D01*
X011448Y031550D01*
X011220Y031550D02*
X010992Y031550D01*
X010670Y031228D01*
X010670Y031000D01*
X011220Y031000D01*
X011770Y031000D01*
X011770Y030772D01*
X011597Y030599D01*
X011910Y030286D01*
X011910Y029714D01*
X011506Y029310D01*
X010934Y029310D01*
X010530Y029714D01*
X010530Y030286D01*
X010843Y030599D01*
X010670Y030772D01*
X010670Y031000D01*
X011220Y031000D01*
X011220Y031000D01*
X011220Y031550D01*
X011220Y031436D02*
X011220Y031436D01*
X011220Y031198D02*
X011220Y031198D01*
X010878Y031436D02*
X008562Y031436D01*
X008770Y031198D02*
X010670Y031198D01*
X010670Y030959D02*
X008770Y030959D01*
X008718Y030721D02*
X010722Y030721D01*
X010726Y030482D02*
X008714Y030482D01*
X008910Y030244D02*
X010530Y030244D01*
X010530Y030005D02*
X008910Y030005D01*
X008910Y029767D02*
X010530Y029767D01*
X010716Y029528D02*
X008724Y029528D01*
X008683Y028813D02*
X010757Y028813D01*
X010934Y028990D02*
X010530Y028586D01*
X010530Y028014D01*
X010934Y027610D01*
X011506Y027610D01*
X011910Y028014D01*
X011910Y028586D01*
X011506Y028990D01*
X010934Y028990D01*
X010530Y028574D02*
X008910Y028574D01*
X008910Y028336D02*
X010530Y028336D01*
X010530Y028097D02*
X008910Y028097D01*
X008754Y027859D02*
X010686Y027859D01*
X010924Y027620D02*
X008516Y027620D01*
X007924Y027620D02*
X006519Y027620D01*
X006517Y027382D02*
X007673Y027382D01*
X007434Y027143D02*
X006622Y027143D01*
X006627Y026905D02*
X007196Y026905D01*
X006957Y026666D02*
X006543Y026666D01*
X006471Y026428D02*
X006719Y026428D01*
X007450Y025801D02*
X008169Y026520D01*
X020224Y026520D01*
X020244Y026500D01*
X020030Y026286D01*
X020030Y025714D01*
X020244Y025500D01*
X020030Y025286D01*
X020030Y024714D01*
X020244Y024500D01*
X020030Y024286D01*
X020030Y023714D01*
X020434Y023310D01*
X021006Y023310D01*
X021319Y023623D01*
X021492Y023450D01*
X021720Y023450D01*
X021948Y023450D01*
X022270Y023772D01*
X022270Y024000D01*
X022270Y024228D01*
X022097Y024401D01*
X022118Y024423D01*
X022490Y024051D01*
X022490Y017959D01*
X022220Y017959D01*
X022220Y017961D01*
X022220Y018000D01*
X022220Y018039D01*
X022208Y018117D01*
X022183Y018192D01*
X022148Y018262D01*
X022101Y018326D01*
X022046Y018381D01*
X021982Y018428D01*
X021912Y018463D01*
X021837Y018488D01*
X021759Y018500D01*
X021720Y018500D01*
X021720Y018000D01*
X021720Y024000D01*
X022270Y024000D01*
X021720Y024000D01*
X021720Y024000D01*
X021720Y023450D01*
X021720Y024000D01*
X021720Y024000D01*
X021720Y023804D02*
X021720Y023804D01*
X021720Y023566D02*
X021720Y023566D01*
X022063Y023566D02*
X022490Y023566D01*
X022490Y023804D02*
X022270Y023804D01*
X022270Y024043D02*
X022490Y024043D01*
X022260Y024281D02*
X022217Y024281D01*
X022220Y025000D02*
X021720Y025000D01*
X022220Y025000D02*
X022970Y024250D01*
X022970Y011750D01*
X022470Y011250D01*
X020470Y011250D01*
X019970Y010750D01*
X019970Y009250D01*
X019470Y008750D01*
X007220Y008750D01*
X005970Y010000D01*
X006627Y010022D02*
X006627Y010131D01*
X006598Y010200D01*
X007242Y010843D01*
X007377Y010978D01*
X007450Y011155D01*
X007450Y013478D01*
X007463Y013455D01*
X007528Y013371D01*
X007603Y013295D01*
X007688Y013230D01*
X007780Y013177D01*
X007878Y013136D01*
X007981Y013109D01*
X008062Y013098D01*
X008062Y014422D01*
X008218Y014422D01*
X008218Y013098D01*
X008299Y013109D01*
X008402Y013136D01*
X008500Y013177D01*
X008592Y013230D01*
X008677Y013295D01*
X008752Y013371D01*
X008817Y013455D01*
X008852Y013515D01*
X008913Y013368D01*
X009180Y013100D01*
X009531Y012955D01*
X009909Y012955D01*
X010260Y013100D01*
X010510Y013350D01*
X010760Y013100D01*
X011111Y012955D01*
X011489Y012955D01*
X011840Y013100D01*
X012107Y013368D01*
X012252Y013718D01*
X012252Y015282D01*
X012107Y015632D01*
X011904Y015835D01*
X012074Y015765D01*
X012366Y015765D01*
X012636Y015877D01*
X012843Y016084D01*
X012955Y016354D01*
X012955Y016646D01*
X012843Y016916D01*
X012636Y017123D01*
X012366Y017235D01*
X012074Y017235D01*
X011904Y017165D01*
X012107Y017368D01*
X012252Y017718D01*
X012252Y019282D01*
X012107Y019632D01*
X011840Y019900D01*
X011489Y020045D01*
X011111Y020045D01*
X010760Y019900D01*
X010510Y019650D01*
X010260Y019900D01*
X009909Y020045D01*
X009531Y020045D01*
X009180Y019900D01*
X008913Y019632D01*
X008852Y019485D01*
X008817Y019545D01*
X008752Y019629D01*
X008677Y019705D01*
X008592Y019770D01*
X008500Y019823D01*
X008402Y019864D01*
X008299Y019891D01*
X008218Y019902D01*
X008218Y018578D01*
X008062Y018578D01*
X008062Y019902D01*
X007981Y019891D01*
X007878Y019864D01*
X007780Y019823D01*
X007688Y019770D01*
X007603Y019705D01*
X007528Y019629D01*
X007463Y019545D01*
X007450Y019522D01*
X007450Y021744D01*
X007634Y021560D01*
X008206Y021560D01*
X008610Y021964D01*
X008610Y022536D01*
X008206Y022940D01*
X007634Y022940D01*
X007450Y022756D01*
X007450Y025801D01*
X007450Y025712D02*
X020032Y025712D01*
X020030Y025951D02*
X007599Y025951D01*
X007838Y026189D02*
X020030Y026189D01*
X020172Y026428D02*
X008076Y026428D01*
X007934Y025390D02*
X007530Y024986D01*
X007530Y024414D01*
X007934Y024010D01*
X008506Y024010D01*
X008910Y024414D01*
X008910Y024986D01*
X008506Y025390D01*
X007934Y025390D01*
X007779Y025235D02*
X007450Y025235D01*
X007450Y024997D02*
X007541Y024997D01*
X007530Y024758D02*
X007450Y024758D01*
X007450Y024520D02*
X007530Y024520D01*
X007450Y024281D02*
X007663Y024281D01*
X007450Y024043D02*
X007902Y024043D01*
X007450Y023804D02*
X020030Y023804D01*
X020030Y024043D02*
X014538Y024043D01*
X014506Y024010D02*
X013934Y024010D01*
X013530Y024414D01*
X013530Y024986D01*
X013934Y025390D01*
X014506Y025390D01*
X014910Y024986D01*
X014910Y024414D01*
X014506Y024010D01*
X014777Y024281D02*
X020030Y024281D01*
X020225Y024520D02*
X014910Y024520D01*
X014910Y024758D02*
X020030Y024758D01*
X020030Y024997D02*
X014899Y024997D01*
X014661Y025235D02*
X020030Y025235D01*
X020218Y025474D02*
X007450Y025474D01*
X008661Y025235D02*
X010779Y025235D01*
X010934Y025390D02*
X010530Y024986D01*
X010530Y024414D01*
X010934Y024010D01*
X011506Y024010D01*
X011910Y024414D01*
X011910Y024986D01*
X011506Y025390D01*
X010934Y025390D01*
X010541Y024997D02*
X008899Y024997D01*
X008910Y024758D02*
X010530Y024758D01*
X010530Y024520D02*
X008910Y024520D01*
X008777Y024281D02*
X010663Y024281D01*
X010902Y024043D02*
X008538Y024043D01*
X007450Y023566D02*
X020179Y023566D01*
X020417Y023327D02*
X007450Y023327D01*
X007450Y023089D02*
X022490Y023089D01*
X022490Y023327D02*
X021023Y023327D01*
X021261Y023566D02*
X021377Y023566D01*
X022490Y022850D02*
X011896Y022850D01*
X011806Y022940D02*
X011234Y022940D01*
X010830Y022536D01*
X010830Y021964D01*
X011234Y021560D01*
X011806Y021560D01*
X012210Y021964D01*
X012210Y022536D01*
X011806Y022940D01*
X012134Y022612D02*
X022490Y022612D01*
X022490Y022373D02*
X012210Y022373D01*
X012210Y022135D02*
X022490Y022135D01*
X022490Y021896D02*
X012142Y021896D01*
X011903Y021658D02*
X012702Y021658D01*
X012734Y021690D02*
X012330Y021286D01*
X012330Y020714D01*
X012734Y020310D01*
X013306Y020310D01*
X013710Y020714D01*
X013710Y021286D01*
X013306Y021690D01*
X012734Y021690D01*
X012463Y021419D02*
X009977Y021419D01*
X010110Y021286D02*
X009706Y021690D01*
X009134Y021690D01*
X008730Y021286D01*
X008730Y020714D01*
X009134Y020310D01*
X009706Y020310D01*
X010110Y020714D01*
X010110Y021286D01*
X010110Y021181D02*
X012330Y021181D01*
X012330Y020942D02*
X010110Y020942D01*
X010099Y020704D02*
X012341Y020704D01*
X012579Y020465D02*
X009861Y020465D01*
X010047Y019988D02*
X010973Y019988D01*
X010610Y019750D02*
X010410Y019750D01*
X009393Y019988D02*
X007450Y019988D01*
X007450Y019750D02*
X007662Y019750D01*
X008062Y019750D02*
X008218Y019750D01*
X008218Y019511D02*
X008062Y019511D01*
X008062Y019273D02*
X008218Y019273D01*
X008218Y019034D02*
X008062Y019034D01*
X008062Y018796D02*
X008218Y018796D01*
X008140Y018500D02*
X008140Y014500D01*
X008218Y014578D02*
X008062Y014578D01*
X008062Y015902D01*
X007981Y015891D01*
X007878Y015864D01*
X007780Y015823D01*
X007688Y015770D01*
X007603Y015705D01*
X007528Y015629D01*
X007463Y015545D01*
X007450Y015522D01*
X007450Y017478D01*
X007463Y017455D01*
X007528Y017371D01*
X007603Y017295D01*
X007688Y017230D01*
X007780Y017177D01*
X007878Y017136D01*
X007981Y017109D01*
X008062Y017098D01*
X008062Y018422D01*
X008218Y018422D01*
X008218Y017098D01*
X008299Y017109D01*
X008402Y017136D01*
X008500Y017177D01*
X008592Y017230D01*
X008677Y017295D01*
X008752Y017371D01*
X008817Y017455D01*
X008852Y017515D01*
X008913Y017368D01*
X009180Y017100D01*
X009531Y016955D01*
X009909Y016955D01*
X010260Y017100D01*
X010510Y017350D01*
X010760Y017100D01*
X011111Y016955D01*
X011489Y016955D01*
X011739Y017058D01*
X011597Y016916D01*
X011485Y016646D01*
X011485Y016354D01*
X011597Y016084D01*
X011739Y015942D01*
X011489Y016045D01*
X011111Y016045D01*
X010760Y015900D01*
X010510Y015650D01*
X010260Y015900D01*
X009909Y016045D01*
X009531Y016045D01*
X009180Y015900D01*
X008913Y015632D01*
X008852Y015485D01*
X008817Y015545D01*
X008752Y015629D01*
X008677Y015705D01*
X008592Y015770D01*
X008500Y015823D01*
X008402Y015864D01*
X008299Y015891D01*
X008218Y015902D01*
X008218Y014578D01*
X008218Y014741D02*
X008062Y014741D01*
X008062Y014980D02*
X008218Y014980D01*
X008218Y015218D02*
X008062Y015218D01*
X008062Y015457D02*
X008218Y015457D01*
X008218Y015695D02*
X008062Y015695D01*
X007593Y015695D02*
X007450Y015695D01*
X007450Y015934D02*
X009261Y015934D01*
X008975Y015695D02*
X008687Y015695D01*
X007450Y016172D02*
X011560Y016172D01*
X011485Y016411D02*
X007450Y016411D01*
X007450Y016649D02*
X011486Y016649D01*
X011585Y016888D02*
X007450Y016888D01*
X007450Y017126D02*
X007917Y017126D01*
X008062Y017126D02*
X008218Y017126D01*
X008363Y017126D02*
X009154Y017126D01*
X008916Y017365D02*
X008746Y017365D01*
X008218Y017365D02*
X008062Y017365D01*
X008062Y017603D02*
X008218Y017603D01*
X008218Y017842D02*
X008062Y017842D01*
X008062Y018080D02*
X008218Y018080D01*
X008218Y018319D02*
X008062Y018319D01*
X007534Y017365D02*
X007450Y017365D01*
X008837Y019511D02*
X008862Y019511D01*
X009030Y019750D02*
X008618Y019750D01*
X008979Y020465D02*
X007450Y020465D01*
X007450Y020227D02*
X014780Y020227D01*
X014780Y020286D02*
X014780Y019714D01*
X015184Y019310D01*
X015756Y019310D01*
X016069Y019623D01*
X016242Y019450D01*
X016470Y019450D01*
X016698Y019450D01*
X017020Y019772D01*
X017020Y020000D01*
X017020Y020228D01*
X016698Y020550D01*
X016470Y020550D01*
X016470Y020000D01*
X016470Y017000D01*
X017020Y017000D01*
X017020Y017228D01*
X016698Y017550D01*
X016470Y017550D01*
X016470Y017000D01*
X016470Y017000D01*
X016470Y017000D01*
X017020Y017000D01*
X017020Y016772D01*
X016698Y016450D01*
X016470Y016450D01*
X016470Y017000D01*
X016470Y017000D01*
X016470Y017550D01*
X016242Y017550D01*
X016069Y017377D01*
X015756Y017690D01*
X015184Y017690D01*
X014780Y017286D01*
X014780Y016781D01*
X014466Y017095D01*
X014220Y017095D01*
X014220Y016500D01*
X014815Y016500D01*
X014815Y016679D01*
X015184Y016310D01*
X015756Y016310D01*
X016069Y016623D01*
X016242Y016450D01*
X016470Y016450D01*
X016470Y017000D01*
X016470Y016888D02*
X016470Y016888D01*
X016470Y017126D02*
X016470Y017126D01*
X016470Y017365D02*
X016470Y017365D01*
X016883Y017365D02*
X017877Y017365D01*
X017894Y017381D02*
X017839Y017326D01*
X017792Y017262D01*
X017757Y017192D01*
X017732Y017117D01*
X017720Y017039D01*
X017720Y017000D01*
X018220Y017000D01*
X018220Y017000D01*
X018220Y017500D01*
X018259Y017500D01*
X018325Y017490D01*
X018177Y017637D01*
X018080Y017873D01*
X018080Y018127D01*
X018177Y018363D01*
X018357Y018543D01*
X018593Y018640D01*
X018847Y018640D01*
X019083Y018543D01*
X019220Y018405D01*
X019357Y018543D01*
X019593Y018640D01*
X019847Y018640D01*
X020083Y018543D01*
X020220Y018405D01*
X020357Y018543D01*
X020593Y018640D01*
X020847Y018640D01*
X021083Y018543D01*
X021263Y018363D01*
X021300Y018272D01*
X021339Y018326D01*
X021394Y018381D01*
X021458Y018428D01*
X021528Y018463D01*
X021603Y018488D01*
X021681Y018500D01*
X021720Y018500D01*
X021720Y018000D01*
X021720Y018000D01*
X022220Y018000D01*
X021720Y018000D01*
X021720Y018000D01*
X021720Y018080D02*
X021720Y018080D01*
X021720Y018319D02*
X021720Y018319D01*
X021333Y018319D02*
X021281Y018319D01*
X021048Y018557D02*
X022490Y018557D01*
X022490Y018319D02*
X022107Y018319D01*
X022214Y018080D02*
X022490Y018080D01*
X022490Y018796D02*
X012252Y018796D01*
X012252Y019034D02*
X017757Y019034D01*
X017771Y019020D02*
X017490Y019301D01*
X017490Y019500D01*
X017970Y019500D01*
X018450Y019500D01*
X018450Y019699D01*
X018248Y019901D01*
X018590Y020243D01*
X018590Y020757D01*
X018227Y021120D01*
X017713Y021120D01*
X017350Y020757D01*
X017350Y020243D01*
X017692Y019901D01*
X017490Y019699D01*
X017490Y019500D01*
X017970Y019500D01*
X017970Y019500D01*
X017970Y019500D01*
X018450Y019500D01*
X018450Y019301D01*
X018169Y019020D01*
X017970Y019020D01*
X017970Y019500D01*
X017970Y019500D01*
X017970Y019020D01*
X017771Y019020D01*
X017970Y019034D02*
X017970Y019034D01*
X018183Y019034D02*
X022490Y019034D01*
X022490Y019273D02*
X018421Y019273D01*
X018450Y019511D02*
X022490Y019511D01*
X022490Y019750D02*
X018399Y019750D01*
X018335Y019988D02*
X022490Y019988D01*
X022490Y020227D02*
X018573Y020227D01*
X018590Y020465D02*
X022490Y020465D01*
X022490Y020704D02*
X018590Y020704D01*
X018405Y020942D02*
X022490Y020942D01*
X022490Y021181D02*
X013710Y021181D01*
X013710Y020942D02*
X017535Y020942D01*
X017350Y020704D02*
X013699Y020704D01*
X013461Y020465D02*
X014959Y020465D01*
X014780Y020286D02*
X015184Y020690D01*
X015756Y020690D01*
X016069Y020377D01*
X016242Y020550D01*
X016470Y020550D01*
X016470Y020000D01*
X017020Y020000D01*
X016470Y020000D01*
X016470Y020000D01*
X016470Y020000D01*
X016470Y019450D01*
X016470Y020000D01*
X016470Y020000D01*
X016470Y019988D02*
X016470Y019988D01*
X016470Y019750D02*
X016470Y019750D01*
X016470Y019511D02*
X016470Y019511D01*
X016759Y019511D02*
X017490Y019511D01*
X017519Y019273D02*
X012252Y019273D01*
X012158Y019511D02*
X014983Y019511D01*
X014780Y019750D02*
X011990Y019750D01*
X011627Y019988D02*
X014780Y019988D01*
X015957Y019511D02*
X016181Y019511D01*
X016470Y020227D02*
X016470Y020227D01*
X016470Y020465D02*
X016470Y020465D01*
X016783Y020465D02*
X017350Y020465D01*
X017367Y020227D02*
X017020Y020227D01*
X017020Y019988D02*
X017605Y019988D01*
X017541Y019750D02*
X016997Y019750D01*
X016157Y020465D02*
X015981Y020465D01*
X017970Y019273D02*
X017970Y019273D01*
X018392Y018557D02*
X012252Y018557D01*
X012252Y018319D02*
X018159Y018319D01*
X018080Y018080D02*
X012252Y018080D01*
X012252Y017842D02*
X018093Y017842D01*
X018212Y017603D02*
X015843Y017603D01*
X015097Y017603D02*
X012205Y017603D01*
X012104Y017365D02*
X014859Y017365D01*
X014780Y017126D02*
X012629Y017126D01*
X012855Y016888D02*
X013766Y016888D01*
X013625Y016746D02*
X013625Y016500D01*
X014220Y016500D01*
X014220Y016500D01*
X014220Y016500D01*
X014815Y016500D01*
X014815Y016254D01*
X014466Y015905D01*
X014220Y015905D01*
X014220Y016500D01*
X014220Y016500D01*
X014220Y016500D01*
X014220Y017095D01*
X013974Y017095D01*
X013625Y016746D01*
X013625Y016649D02*
X012954Y016649D01*
X012955Y016411D02*
X013625Y016411D01*
X013625Y016500D02*
X013625Y016254D01*
X013974Y015905D01*
X014220Y015905D01*
X014220Y016500D01*
X013625Y016500D01*
X013707Y016172D02*
X012880Y016172D01*
X012693Y015934D02*
X013945Y015934D01*
X014220Y015934D02*
X014220Y015934D01*
X014220Y016172D02*
X014220Y016172D01*
X014220Y016411D02*
X014220Y016411D01*
X014220Y016649D02*
X014220Y016649D01*
X014220Y016888D02*
X014220Y016888D01*
X014674Y016888D02*
X014780Y016888D01*
X014815Y016649D02*
X014845Y016649D01*
X014815Y016411D02*
X015084Y016411D01*
X014733Y016172D02*
X019990Y016172D01*
X019990Y016345D02*
X019990Y015506D01*
X019806Y015690D01*
X019234Y015690D01*
X018830Y015286D01*
X018830Y014989D01*
X017321Y013480D01*
X016666Y013480D01*
X016591Y013555D01*
X016350Y013655D01*
X016090Y013655D01*
X015849Y013555D01*
X015665Y013371D01*
X015565Y013130D01*
X015565Y012870D01*
X015665Y012629D01*
X015794Y012500D01*
X015665Y012371D01*
X015565Y012130D01*
X015565Y011870D01*
X015665Y011629D01*
X015794Y011500D01*
X015665Y011371D01*
X015565Y011130D01*
X015565Y010931D01*
X015306Y011190D01*
X014734Y011190D01*
X014330Y010786D01*
X014330Y010214D01*
X014734Y009810D01*
X015306Y009810D01*
X015565Y010069D01*
X015565Y009870D01*
X015665Y009629D01*
X015849Y009445D01*
X016090Y009345D01*
X016350Y009345D01*
X016591Y009445D01*
X016775Y009629D01*
X016875Y009870D01*
X016875Y010130D01*
X016775Y010371D01*
X016646Y010500D01*
X016775Y010629D01*
X016875Y010870D01*
X016875Y011130D01*
X016775Y011371D01*
X016646Y011500D01*
X016775Y011629D01*
X016875Y011870D01*
X016875Y012130D01*
X016775Y012371D01*
X016646Y012500D01*
X016666Y012520D01*
X017615Y012520D01*
X017792Y012593D01*
X019509Y014310D01*
X019806Y014310D01*
X019990Y014494D01*
X019990Y012855D01*
X020063Y012678D01*
X020530Y012211D01*
X020530Y011914D01*
X020714Y011730D01*
X020375Y011730D01*
X020198Y011657D01*
X019707Y011166D01*
X019697Y011198D01*
X019660Y011270D01*
X019613Y011335D01*
X019555Y011393D01*
X019523Y011416D01*
X019591Y011445D01*
X019775Y011629D01*
X019875Y011870D01*
X019875Y012130D01*
X019775Y012371D01*
X019646Y012500D01*
X019775Y012629D01*
X019875Y012870D01*
X019875Y013130D01*
X019775Y013371D01*
X019591Y013555D01*
X019350Y013655D01*
X019090Y013655D01*
X018849Y013555D01*
X018665Y013371D01*
X018565Y013130D01*
X018565Y012870D01*
X018665Y012629D01*
X018794Y012500D01*
X018665Y012371D01*
X018565Y012130D01*
X018565Y011870D01*
X018665Y011629D01*
X018849Y011445D01*
X018917Y011416D01*
X018884Y011393D01*
X018827Y011335D01*
X018780Y011270D01*
X018743Y011198D01*
X018718Y011121D01*
X018705Y011041D01*
X018705Y011000D01*
X019220Y011000D01*
X019220Y011000D01*
X018705Y011000D01*
X018705Y010959D01*
X018718Y010879D01*
X018743Y010802D01*
X018780Y010730D01*
X018827Y010664D01*
X018842Y010650D01*
X018721Y010600D01*
X018620Y010499D01*
X018565Y010367D01*
X018565Y009633D01*
X018620Y009501D01*
X018721Y009400D01*
X018853Y009345D01*
X019386Y009345D01*
X019271Y009230D01*
X010323Y009230D01*
X010380Y009369D01*
X010380Y009631D01*
X010280Y009874D01*
X010153Y010000D01*
X010280Y010126D01*
X010380Y010369D01*
X010380Y010631D01*
X010280Y010874D01*
X010153Y011000D01*
X010280Y011126D01*
X010380Y011369D01*
X010380Y011631D01*
X010280Y011874D01*
X010094Y012060D01*
X009851Y012160D01*
X009589Y012160D01*
X009346Y012060D01*
X009160Y011874D01*
X009060Y011631D01*
X009060Y011369D01*
X009160Y011126D01*
X009287Y011000D01*
X009160Y010874D01*
X009060Y010631D01*
X009060Y010369D01*
X009160Y010126D01*
X009287Y010000D01*
X009160Y009874D01*
X009060Y009631D01*
X009060Y009369D01*
X009117Y009230D01*
X007419Y009230D01*
X006627Y010022D01*
X006678Y009971D02*
X009258Y009971D01*
X009126Y010210D02*
X006608Y010210D01*
X006847Y010448D02*
X009060Y010448D01*
X009083Y010687D02*
X007085Y010687D01*
X007324Y010925D02*
X009212Y010925D01*
X009145Y011164D02*
X007450Y011164D01*
X007450Y011402D02*
X009060Y011402D01*
X009064Y011641D02*
X007450Y011641D01*
X007450Y011879D02*
X009166Y011879D01*
X009486Y012118D02*
X007450Y012118D01*
X007450Y012356D02*
X015658Y012356D01*
X015699Y012595D02*
X007450Y012595D01*
X007450Y012833D02*
X015580Y012833D01*
X015565Y013072D02*
X011771Y013072D01*
X012050Y013310D02*
X015639Y013310D01*
X015842Y013549D02*
X012182Y013549D01*
X012252Y013787D02*
X017628Y013787D01*
X017390Y013549D02*
X016598Y013549D01*
X016220Y013000D02*
X017520Y013000D01*
X019520Y015000D01*
X019001Y015457D02*
X016241Y015457D01*
X016148Y015550D02*
X015920Y015550D01*
X015920Y015000D01*
X016470Y015000D01*
X016470Y015228D01*
X016148Y015550D01*
X015920Y015550D02*
X015692Y015550D01*
X015370Y015228D01*
X015370Y015000D01*
X015920Y015000D01*
X015920Y015000D01*
X015920Y015000D01*
X016470Y015000D01*
X016470Y014772D01*
X016148Y014450D01*
X015920Y014450D01*
X015920Y015000D01*
X015920Y015000D01*
X015920Y015000D01*
X015920Y015550D01*
X015920Y015457D02*
X015920Y015457D01*
X015920Y015218D02*
X015920Y015218D01*
X015920Y015000D02*
X015370Y015000D01*
X015370Y014772D01*
X015692Y014450D01*
X015920Y014450D01*
X015920Y015000D01*
X015920Y014980D02*
X015920Y014980D01*
X015920Y014741D02*
X015920Y014741D01*
X015920Y014503D02*
X015920Y014503D01*
X016200Y014503D02*
X018344Y014503D01*
X018582Y014741D02*
X016439Y014741D01*
X016470Y014980D02*
X018821Y014980D01*
X018830Y015218D02*
X016470Y015218D01*
X015640Y014503D02*
X013450Y014503D01*
X013448Y014500D02*
X013770Y014822D01*
X013770Y015050D01*
X013770Y015278D01*
X013448Y015600D01*
X013220Y015600D01*
X013220Y015050D01*
X013220Y015050D01*
X013770Y015050D01*
X013220Y015050D01*
X013220Y015050D01*
X013220Y015050D01*
X012670Y015050D01*
X012670Y015278D01*
X012992Y015600D01*
X013220Y015600D01*
X013220Y015050D01*
X013220Y014500D01*
X013448Y014500D01*
X013220Y014500D02*
X013220Y015050D01*
X013220Y015050D01*
X012670Y015050D01*
X012670Y014822D01*
X012992Y014500D01*
X013220Y014500D01*
X013220Y014503D02*
X013220Y014503D01*
X012990Y014503D02*
X012252Y014503D01*
X012252Y014741D02*
X012751Y014741D01*
X012670Y014980D02*
X012252Y014980D01*
X012252Y015218D02*
X012670Y015218D01*
X012849Y015457D02*
X012180Y015457D01*
X012045Y015695D02*
X019990Y015695D01*
X019990Y015934D02*
X014495Y015934D01*
X013770Y015218D02*
X015370Y015218D01*
X015370Y014980D02*
X013770Y014980D01*
X013689Y014741D02*
X015401Y014741D01*
X015599Y015457D02*
X013591Y015457D01*
X013220Y015457D02*
X013220Y015457D01*
X013220Y015218D02*
X013220Y015218D01*
X013220Y014980D02*
X013220Y014980D01*
X013220Y014741D02*
X013220Y014741D01*
X012252Y014264D02*
X018105Y014264D01*
X017867Y014026D02*
X012252Y014026D01*
X010829Y013072D02*
X010191Y013072D01*
X010470Y013310D02*
X010550Y013310D01*
X009249Y013072D02*
X007450Y013072D01*
X007450Y013310D02*
X007588Y013310D01*
X008062Y013310D02*
X008218Y013310D01*
X008218Y013549D02*
X008062Y013549D01*
X008062Y013787D02*
X008218Y013787D01*
X008218Y014026D02*
X008062Y014026D01*
X008062Y014264D02*
X008218Y014264D01*
X008692Y013310D02*
X008970Y013310D01*
X009954Y012118D02*
X012912Y012118D01*
X012934Y012140D02*
X012530Y011736D01*
X012530Y011164D01*
X012934Y010760D01*
X013506Y010760D01*
X013910Y011164D01*
X013910Y011736D01*
X013506Y012140D01*
X012934Y012140D01*
X012673Y011879D02*
X010274Y011879D01*
X010376Y011641D02*
X012530Y011641D01*
X012530Y011402D02*
X010380Y011402D01*
X010295Y011164D02*
X011108Y011164D01*
X011134Y011190D02*
X010730Y010786D01*
X010730Y010214D01*
X011134Y009810D01*
X011706Y009810D01*
X012110Y010214D01*
X012110Y010786D01*
X011706Y011190D01*
X011134Y011190D01*
X010869Y010925D02*
X010228Y010925D01*
X010357Y010687D02*
X010730Y010687D01*
X010730Y010448D02*
X010380Y010448D01*
X010314Y010210D02*
X010735Y010210D01*
X010973Y009971D02*
X010182Y009971D01*
X010338Y009733D02*
X015622Y009733D01*
X015565Y009971D02*
X015467Y009971D01*
X015800Y009494D02*
X010380Y009494D01*
X010333Y009256D02*
X019297Y009256D01*
X018627Y009494D02*
X016640Y009494D01*
X016818Y009733D02*
X018565Y009733D01*
X018565Y009971D02*
X016875Y009971D01*
X016842Y010210D02*
X018565Y010210D01*
X018599Y010448D02*
X016698Y010448D01*
X016799Y010687D02*
X018811Y010687D01*
X018710Y010925D02*
X016875Y010925D01*
X016861Y011164D02*
X018732Y011164D01*
X018897Y011402D02*
X016744Y011402D01*
X016780Y011641D02*
X018660Y011641D01*
X018565Y011879D02*
X016875Y011879D01*
X016875Y012118D02*
X018565Y012118D01*
X018658Y012356D02*
X016782Y012356D01*
X017793Y012595D02*
X018699Y012595D01*
X018580Y012833D02*
X018032Y012833D01*
X018270Y013072D02*
X018565Y013072D01*
X018509Y013310D02*
X018639Y013310D01*
X018747Y013549D02*
X018842Y013549D01*
X018986Y013787D02*
X019990Y013787D01*
X019990Y013549D02*
X019598Y013549D01*
X019801Y013310D02*
X019990Y013310D01*
X019990Y013072D02*
X019875Y013072D01*
X019860Y012833D02*
X019999Y012833D01*
X020147Y012595D02*
X019741Y012595D01*
X019782Y012356D02*
X020385Y012356D01*
X020530Y012118D02*
X019875Y012118D01*
X019875Y011879D02*
X020565Y011879D01*
X020182Y011641D02*
X019780Y011641D01*
X019943Y011402D02*
X019543Y011402D01*
X021011Y009980D02*
X021051Y009980D01*
X021051Y008940D01*
X021073Y008940D01*
X021156Y008951D01*
X021237Y008973D01*
X021315Y009005D01*
X021387Y009047D01*
X021454Y009098D01*
X021513Y009157D01*
X021564Y009224D01*
X021606Y009296D01*
X021638Y009374D01*
X021643Y009391D01*
X021748Y009138D01*
X021967Y008919D01*
X022254Y008800D01*
X022564Y008800D01*
X022851Y008919D01*
X023070Y009138D01*
X023189Y009425D01*
X023189Y010575D01*
X023070Y010862D01*
X022915Y011017D01*
X023242Y011343D01*
X023377Y011478D01*
X023431Y011610D01*
X023541Y011500D01*
X023413Y011372D01*
X023313Y011131D01*
X023313Y010869D01*
X023413Y010628D01*
X023541Y010500D01*
X023413Y010372D01*
X023313Y010131D01*
X023313Y009869D01*
X023413Y009628D01*
X023541Y009500D01*
X023413Y009372D01*
X023313Y009131D01*
X023313Y008869D01*
X023413Y008628D01*
X023598Y008443D01*
X023663Y008416D01*
X023633Y008394D01*
X023576Y008337D01*
X023528Y008271D01*
X023491Y008198D01*
X023466Y008121D01*
X023453Y008041D01*
X023453Y008000D01*
X023453Y007959D01*
X023466Y007879D01*
X023491Y007802D01*
X023528Y007729D01*
X023576Y007663D01*
X023633Y007606D01*
X023699Y007558D01*
X023772Y007521D01*
X023849Y007496D01*
X023929Y007483D01*
X023970Y007483D01*
X024011Y007483D01*
X024091Y007496D01*
X024168Y007521D01*
X024241Y007558D01*
X024307Y007606D01*
X024364Y007663D01*
X024412Y007729D01*
X024449Y007802D01*
X024453Y007814D01*
X024453Y007674D01*
X024468Y007618D01*
X024497Y007568D01*
X024538Y007527D01*
X024588Y007498D01*
X024644Y007483D01*
X024970Y007483D01*
X025175Y007483D01*
X025175Y006795D01*
X021212Y006795D01*
X021125Y007179D01*
X020852Y007746D01*
X020852Y007746D01*
X020459Y008239D01*
X020459Y008239D01*
X020459Y008239D01*
X020002Y008603D01*
X020377Y008978D01*
X020450Y009155D01*
X020450Y009310D01*
X020456Y009296D01*
X020498Y009224D01*
X020549Y009157D01*
X020608Y009098D01*
X020675Y009047D01*
X020747Y009005D01*
X020825Y008973D01*
X020906Y008951D01*
X020989Y008940D01*
X021011Y008940D01*
X021011Y009980D01*
X021011Y009971D02*
X021051Y009971D01*
X021051Y009733D02*
X021011Y009733D01*
X021011Y009494D02*
X021051Y009494D01*
X021051Y009256D02*
X021011Y009256D01*
X021011Y009017D02*
X021051Y009017D01*
X021336Y009017D02*
X021869Y009017D01*
X021699Y009256D02*
X021583Y009256D01*
X020726Y009017D02*
X020393Y009017D01*
X020450Y009256D02*
X020479Y009256D01*
X020177Y008779D02*
X023351Y008779D01*
X023313Y009017D02*
X022949Y009017D01*
X023119Y009256D02*
X023365Y009256D01*
X023535Y009494D02*
X023189Y009494D01*
X023189Y009733D02*
X023370Y009733D01*
X023313Y009971D02*
X023189Y009971D01*
X023189Y010210D02*
X023346Y010210D01*
X023489Y010448D02*
X023189Y010448D01*
X023143Y010687D02*
X023389Y010687D01*
X023313Y010925D02*
X023007Y010925D01*
X023062Y011164D02*
X023327Y011164D01*
X023242Y011343D02*
X023242Y011343D01*
X023301Y011402D02*
X023443Y011402D01*
X021220Y012200D02*
X020470Y012950D01*
X020470Y016250D01*
X021220Y017000D01*
X020010Y016394D02*
X019990Y016345D01*
X020010Y016394D02*
X019857Y016457D01*
X019720Y016595D01*
X019583Y016457D01*
X019347Y016360D01*
X019093Y016360D01*
X018857Y016457D01*
X018677Y016637D01*
X018640Y016728D01*
X018601Y016674D01*
X018546Y016619D01*
X018482Y016572D01*
X018412Y016537D01*
X018337Y016512D01*
X018259Y016500D01*
X018220Y016500D01*
X018220Y017000D01*
X018220Y017000D01*
X018220Y017000D01*
X018220Y017500D01*
X018181Y017500D01*
X018103Y017488D01*
X018028Y017463D01*
X017958Y017428D01*
X017894Y017381D01*
X017735Y017126D02*
X017020Y017126D01*
X017020Y016888D02*
X017732Y016888D01*
X017732Y016883D02*
X017757Y016808D01*
X017792Y016738D01*
X017839Y016674D01*
X017894Y016619D01*
X017958Y016572D01*
X018028Y016537D01*
X018103Y016512D01*
X018181Y016500D01*
X018220Y016500D01*
X018220Y017000D01*
X017720Y017000D01*
X017720Y016961D01*
X017732Y016883D01*
X017864Y016649D02*
X016897Y016649D01*
X016470Y016649D02*
X016470Y016649D01*
X015856Y016411D02*
X018971Y016411D01*
X018673Y016649D02*
X018576Y016649D01*
X018220Y016649D02*
X018220Y016649D01*
X018220Y016888D02*
X018220Y016888D01*
X018220Y017126D02*
X018220Y017126D01*
X018220Y017365D02*
X018220Y017365D01*
X019048Y018557D02*
X019392Y018557D01*
X020048Y018557D02*
X020392Y018557D01*
X019971Y016411D02*
X019469Y016411D01*
X019463Y014264D02*
X019990Y014264D01*
X019990Y014026D02*
X019224Y014026D01*
X015660Y011641D02*
X013910Y011641D01*
X013910Y011402D02*
X015696Y011402D01*
X015579Y011164D02*
X015332Y011164D01*
X014708Y011164D02*
X013909Y011164D01*
X013671Y010925D02*
X014469Y010925D01*
X014330Y010687D02*
X012110Y010687D01*
X012110Y010448D02*
X014330Y010448D01*
X014335Y010210D02*
X012105Y010210D01*
X011867Y009971D02*
X014573Y009971D01*
X012769Y010925D02*
X011971Y010925D01*
X011732Y011164D02*
X012531Y011164D01*
X013528Y012118D02*
X015565Y012118D01*
X015565Y011879D02*
X013767Y011879D01*
X010555Y015695D02*
X010465Y015695D01*
X010179Y015934D02*
X010841Y015934D01*
X010734Y017126D02*
X010286Y017126D01*
X008741Y020704D02*
X007450Y020704D01*
X007450Y020942D02*
X008730Y020942D01*
X008730Y021181D02*
X007450Y021181D01*
X007450Y021419D02*
X008863Y021419D01*
X009102Y021658D02*
X008303Y021658D01*
X008542Y021896D02*
X010898Y021896D01*
X010830Y022135D02*
X008610Y022135D01*
X008610Y022373D02*
X010830Y022373D01*
X010906Y022612D02*
X008534Y022612D01*
X008296Y022850D02*
X011144Y022850D01*
X011137Y021658D02*
X009738Y021658D01*
X007537Y021658D02*
X007450Y021658D01*
X007450Y022850D02*
X007544Y022850D01*
X011538Y024043D02*
X013902Y024043D01*
X013663Y024281D02*
X011777Y024281D01*
X011910Y024520D02*
X013530Y024520D01*
X013530Y024758D02*
X011910Y024758D01*
X011899Y024997D02*
X013541Y024997D01*
X013779Y025235D02*
X011661Y025235D01*
X011516Y027620D02*
X013924Y027620D01*
X013686Y027859D02*
X011754Y027859D01*
X011910Y028097D02*
X013530Y028097D01*
X013530Y028336D02*
X011910Y028336D01*
X011910Y028574D02*
X013530Y028574D01*
X013757Y028813D02*
X011683Y028813D01*
X011724Y029528D02*
X013716Y029528D01*
X013530Y029767D02*
X011910Y029767D01*
X011910Y030005D02*
X013530Y030005D01*
X013530Y030244D02*
X011910Y030244D01*
X011714Y030482D02*
X013726Y030482D01*
X013722Y030721D02*
X011718Y030721D01*
X011770Y030959D02*
X013670Y030959D01*
X013670Y031198D02*
X011770Y031198D01*
X008220Y031198D02*
X008220Y031198D01*
X008220Y031436D02*
X008220Y031436D01*
X007878Y031436D02*
X005222Y031436D01*
X005102Y031198D02*
X007670Y031198D01*
X007670Y030959D02*
X005024Y030959D01*
X004947Y030721D02*
X007722Y030721D01*
X007726Y030482D02*
X006417Y030482D01*
X006580Y030244D02*
X007530Y030244D01*
X007530Y030005D02*
X006627Y030005D01*
X006584Y029767D02*
X007530Y029767D01*
X007530Y028574D02*
X006473Y028574D01*
X006542Y028336D02*
X007530Y028336D01*
X007530Y028097D02*
X006627Y028097D01*
X006622Y027859D02*
X007686Y027859D01*
X005523Y030482D02*
X005417Y030482D01*
X005343Y031675D02*
X024597Y031675D01*
X024457Y031913D02*
X005483Y031913D01*
X005657Y032152D02*
X024283Y032152D01*
X024110Y032390D02*
X005830Y032390D01*
X006068Y032629D02*
X023872Y032629D01*
X023634Y032867D02*
X006306Y032867D01*
X006627Y033106D02*
X023313Y033106D01*
X023421Y027620D02*
X022076Y027620D01*
X022314Y027382D02*
X023423Y027382D01*
X023318Y027143D02*
X022410Y027143D01*
X022410Y026905D02*
X023313Y026905D01*
X023397Y026666D02*
X022362Y026666D01*
X022268Y026428D02*
X023469Y026428D01*
X023337Y026189D02*
X022410Y026189D01*
X022410Y025951D02*
X023313Y025951D01*
X023378Y025712D02*
X022408Y025712D01*
X022331Y025474D02*
X023515Y025474D01*
X023356Y025235D02*
X022664Y025235D01*
X022902Y024997D02*
X023313Y024997D01*
X023359Y024758D02*
X023141Y024758D01*
X023378Y024520D02*
X023522Y024520D01*
X022490Y021658D02*
X013338Y021658D01*
X013577Y021419D02*
X022490Y021419D01*
X021364Y027620D02*
X021076Y027620D01*
X009102Y009733D02*
X006916Y009733D01*
X007155Y009494D02*
X009060Y009494D01*
X009107Y009256D02*
X007393Y009256D01*
X005970Y007825D02*
X005970Y007825D01*
X005970Y007586D02*
X005970Y007586D01*
X005487Y007586D02*
X005280Y007586D01*
X004970Y007586D02*
X004970Y007586D01*
X004970Y007825D02*
X004970Y007825D01*
X004970Y008063D02*
X004970Y008063D01*
X004970Y008302D02*
X004970Y008302D01*
X020081Y008540D02*
X023501Y008540D01*
X023550Y008302D02*
X020380Y008302D01*
X020599Y008063D02*
X023457Y008063D01*
X023453Y008000D02*
X023970Y008000D01*
X024487Y008000D01*
X024970Y008000D01*
X025175Y008000D01*
X025175Y008000D01*
X024970Y008000D01*
X024970Y008000D01*
X024970Y008343D01*
X024970Y008343D01*
X024970Y008000D01*
X024970Y008000D01*
X024970Y007483D01*
X024970Y008000D01*
X024970Y008000D01*
X024970Y008000D01*
X023970Y008000D01*
X023970Y008000D01*
X023970Y007483D01*
X023970Y008000D01*
X023970Y008000D01*
X023970Y008000D01*
X023453Y008000D01*
X023484Y007825D02*
X020789Y007825D01*
X020929Y007586D02*
X023660Y007586D01*
X023970Y007586D02*
X023970Y007586D01*
X023970Y007825D02*
X023970Y007825D01*
X024280Y007586D02*
X024487Y007586D01*
X024970Y007586D02*
X024970Y007586D01*
X024970Y007825D02*
X024970Y007825D01*
X024970Y008063D02*
X024970Y008063D01*
X024970Y008302D02*
X024970Y008302D01*
X025175Y007348D02*
X021044Y007348D01*
X021125Y007179D02*
X021125Y007179D01*
X021141Y007109D02*
X025175Y007109D01*
X025175Y006871D02*
X021195Y006871D01*
M02*
