%
M48
M72
T01C0.0315
T02C0.0320
T03C0.0390
T04C0.0394
T05C0.0400
T06C0.0560
T07C0.0591
T08C0.0790
%
T01
X18220Y17000
X19220Y17000
X20220Y17000
X21220Y17000
X20720Y18000
X19720Y18000
X18720Y18000
X21720Y18000
T02
X21220Y15800
X19520Y15000
X21220Y12200
X16470Y17000
X15470Y17000
X14220Y16500
X13220Y15050
X12220Y16500
X15920Y15000
X13220Y11450
X15020Y10500
X11420Y10500
X17970Y19500
X17970Y20500
X16470Y20000
X15470Y20000
X13020Y21000
X11520Y22250
X9420Y21000
X7920Y22250
X8220Y24700
X11220Y24700
X14220Y24700
X14220Y28300
X14220Y30000
X14220Y31000
X11220Y31000
X11220Y30000
X11220Y28300
X8220Y28300
X8220Y30000
X8220Y31000
T03
X16220Y13000
X16220Y12000
X16220Y11000
X16220Y10000
X19220Y10000
X19220Y11000
X19220Y12000
X19220Y13000
T04
X4970Y8000
X4970Y9000
X4970Y10000
X4970Y11000
X4970Y12000
X4970Y13000
X4970Y14000
X4970Y15000
X4970Y16000
X4970Y17000
X4970Y18000
X4970Y19000
X4970Y20000
X4970Y21000
X4970Y22000
X4970Y23000
X4970Y24000
X4970Y25000
X4970Y26000
X4970Y27000
X4970Y28000
X4970Y29000
X4970Y30000
X5970Y30000
X5970Y29000
X5970Y28000
X5970Y27000
X5970Y26000
X5970Y25000
X5970Y24000
X5970Y23000
X5970Y22000
X5970Y21000
X5970Y20000
X5970Y19000
X5970Y18000
X5970Y17000
X5970Y16000
X5970Y15000
X5970Y14000
X5970Y13000
X5970Y12000
X5970Y11000
X5970Y10000
X5970Y9000
X5970Y8000
X23970Y8000
X24970Y8000
X24970Y9000
X23970Y9000
X23970Y10000
X23970Y11000
X24970Y11000
X24970Y10000
X24970Y12000
X23970Y12000
X23970Y13000
X23970Y14000
X24970Y14000
X24970Y13000
X24970Y15000
X23970Y15000
X23970Y16000
X23970Y17000
X24970Y17000
X24970Y16000
X24970Y18000
X23970Y18000
X23970Y19000
X24970Y19000
X24970Y20000
X24970Y21000
X23970Y21000
X23970Y20000
X23970Y22000
X24970Y22000
X24970Y23000
X24970Y24000
X23970Y24000
X23970Y23000
X23970Y25000
X24970Y25000
X24970Y26000
X23970Y26000
X23970Y27000
X23970Y28000
X24970Y28000
X24970Y27000
X24970Y29000
X23970Y29000
X23970Y30000
X24970Y30000
T05
X21720Y27000
X21720Y26000
X21720Y25000
X21720Y24000
X20720Y24000
X20720Y25000
X20720Y26000
X20720Y27000
X9720Y11500
X9720Y10500
X9720Y9500
T06
X21031Y10000
X22409Y10000
T07
X22358Y17144
T08
X11300Y18500
X9720Y18500
X8140Y18500
X8140Y14500
X9720Y14500
X11300Y14500
M30
