G75*
%MOIN*%
%OFA0B0*%
%FSLAX24Y24*%
%IPPOS*%
%LPD*%
%AMOC8*
5,1,8,0,0,1.08239X$1,22.5*
%
%ADD10C,0.0480*%
%ADD11R,0.0780X0.0220*%
%ADD12C,0.0740*%
%ADD13C,0.0840*%
%ADD14R,0.0740X0.0740*%
%ADD15C,0.0560*%
%ADD16C,0.0650*%
%ADD17R,0.0650X0.0650*%
%ADD18R,0.0472X0.0472*%
%ADD19R,0.0472X0.0315*%
%ADD20R,0.0315X0.0472*%
%ADD21C,0.0100*%
%ADD22C,0.0360*%
%ADD23C,0.0240*%
%ADD24C,0.0079*%
%ADD25C,0.0236*%
%ADD26C,0.0160*%
%ADD27C,0.0354*%
%ADD28C,0.1227*%
D10*
X019080Y003175D03*
X020980Y003175D03*
D11*
X010875Y003300D03*
X010875Y003800D03*
X010875Y004300D03*
X010875Y002800D03*
X008935Y002800D03*
X008935Y003300D03*
X008935Y003800D03*
X008935Y004300D03*
D12*
X006730Y003250D03*
X006730Y002250D03*
X004255Y002275D03*
X004255Y003275D03*
X004530Y005050D03*
X005530Y005050D03*
X006530Y005050D03*
X006530Y006175D03*
X005530Y006175D03*
X004530Y006175D03*
X004530Y007300D03*
X005530Y007300D03*
X006530Y007300D03*
X006530Y008425D03*
X005530Y008425D03*
X004530Y008425D03*
X004405Y011175D03*
X005405Y011175D03*
X006405Y011175D03*
X006405Y012300D03*
X005405Y012300D03*
X004405Y012300D03*
X004405Y013400D03*
X005405Y013400D03*
X006405Y013400D03*
X012405Y015325D03*
X012405Y016325D03*
X012405Y017325D03*
X014905Y016675D03*
X015905Y016675D03*
X016905Y016675D03*
X017905Y016675D03*
X018905Y016675D03*
X019905Y016675D03*
X018780Y017850D03*
X017780Y017850D03*
X014405Y013675D03*
X014405Y011675D03*
X014405Y010675D03*
X014405Y009675D03*
X014405Y008675D03*
X014405Y007675D03*
X014405Y006675D03*
X014405Y005675D03*
X014405Y004675D03*
X020405Y004675D03*
X020405Y005675D03*
X020405Y006675D03*
X020405Y007675D03*
D13*
X008844Y017638D02*
X008844Y018478D01*
X007466Y018478D02*
X007466Y017638D01*
X004994Y017613D02*
X004994Y018453D01*
X003616Y018453D02*
X003616Y017613D01*
D14*
X004255Y001275D03*
X006730Y001250D03*
D15*
X013780Y001375D03*
X014780Y001375D03*
X015780Y001375D03*
X015280Y002375D03*
X014280Y002375D03*
X016280Y002375D03*
X014530Y019175D03*
X013530Y019175D03*
X012530Y019175D03*
X011530Y019175D03*
X012030Y020175D03*
X013030Y020175D03*
X014030Y020175D03*
X015030Y020175D03*
D16*
X007755Y015725D03*
X003805Y015725D03*
D17*
X004805Y015725D03*
X008755Y015725D03*
D18*
X004943Y010175D03*
X004117Y010175D03*
X009180Y002063D03*
X009180Y001236D03*
D19*
X008355Y001195D03*
X008355Y001904D03*
D20*
X005884Y009550D03*
X005176Y009550D03*
D21*
X005175Y009570D01*
X004965Y009780D01*
X004965Y010130D01*
X004943Y010175D01*
X005455Y011110D02*
X005405Y011175D01*
X005875Y009570D02*
X005884Y009550D01*
X005875Y009500D01*
X006575Y009010D02*
X006575Y008310D01*
X006530Y008425D01*
X006575Y009010D02*
X007200Y010285D01*
X005530Y008425D02*
X005525Y008240D01*
X005595Y008310D02*
X005530Y008425D01*
X005525Y007330D02*
X005530Y007300D01*
X005525Y007260D01*
X005525Y006210D02*
X005530Y006175D01*
X006785Y003760D02*
X006785Y003270D01*
X006730Y003250D01*
X006715Y003270D01*
X004265Y003270D01*
X004255Y003275D01*
X004265Y002290D02*
X004255Y002275D01*
X004195Y002290D01*
X006715Y002290D02*
X006730Y002250D01*
X006785Y002220D01*
X006785Y001940D01*
X008325Y001940D01*
X008355Y001904D01*
X008395Y001940D01*
X008385Y002755D01*
X008885Y002780D01*
X008935Y002800D01*
X008885Y003760D02*
X008935Y003800D01*
X008885Y003760D02*
X006785Y003760D01*
X008395Y001240D02*
X008355Y001195D01*
X008395Y001240D02*
X009165Y001240D01*
X009180Y001236D01*
X010875Y003800D02*
X010915Y003830D01*
X013735Y003830D01*
X013756Y003832D01*
X013776Y003837D01*
X013795Y003846D01*
X013812Y003858D01*
X013827Y003873D01*
X013839Y003890D01*
X013848Y003909D01*
X013853Y003929D01*
X013855Y003950D01*
X013855Y012020D01*
X017985Y016150D01*
X018650Y016150D01*
X018895Y016395D01*
X018895Y016640D01*
X018905Y016675D01*
X018895Y016710D01*
X018895Y017550D01*
X018825Y017620D01*
X018780Y017850D01*
X017845Y017620D02*
X017780Y017850D01*
X017845Y017620D02*
X017845Y016710D01*
X017905Y016675D01*
X016905Y016675D02*
X016865Y016710D01*
X016865Y016850D01*
X016410Y017305D01*
X016445Y017340D01*
X016410Y017305D02*
X014555Y019160D01*
X014530Y019175D01*
X014485Y019230D01*
X014485Y020423D01*
X014139Y020770D01*
X012595Y020770D01*
X012035Y020210D01*
X012030Y020175D01*
X013030Y020175D02*
X013085Y020140D01*
X013085Y019650D01*
X013505Y019230D01*
X013530Y019175D01*
X008844Y018058D02*
X008815Y017550D01*
X015185Y013070D02*
X015397Y013275D01*
X015852Y013272D01*
X020351Y008800D01*
X020365Y007680D01*
X020405Y007675D01*
X019665Y008310D02*
X019665Y004670D01*
X020225Y004110D01*
X020925Y004110D01*
X020925Y006140D01*
X020435Y006630D01*
X020405Y006675D01*
X018940Y006845D02*
X018890Y008545D01*
X015535Y011950D01*
X015185Y011810D02*
X015185Y013070D01*
X015535Y012930D02*
X019875Y008590D01*
X019875Y005230D01*
X020365Y004740D01*
X020405Y004675D01*
X019665Y008310D02*
X015535Y012440D01*
X015185Y011810D02*
X015535Y011460D01*
D22*
X015535Y011460D03*
X015535Y011950D03*
X015535Y012440D03*
X015535Y012930D03*
X018940Y006845D03*
X007200Y010285D03*
X020230Y019860D03*
D23*
X020215Y019875D01*
X008815Y017550D02*
X008790Y015735D01*
X008755Y015725D01*
X004969Y015614D02*
X004805Y015725D01*
X003830Y014550D01*
X003480Y014000D01*
X003480Y013200D01*
X003455Y013175D01*
X003455Y002750D01*
X003915Y002290D01*
X004270Y002290D01*
X004255Y002275D01*
X004270Y002290D02*
X006715Y002290D01*
X005530Y006175D02*
X005525Y006180D01*
X005525Y006284D01*
X005525Y007260D01*
X005530Y007300D02*
X005525Y007305D01*
X005525Y008240D01*
X005530Y008425D02*
X005875Y008645D01*
X005875Y009500D01*
X005875Y010705D01*
X005405Y011175D01*
X004969Y015614D02*
X004994Y018033D01*
D24*
X010005Y010830D02*
X012315Y013140D01*
X010005Y010830D02*
X010005Y008800D01*
X011164Y008566D01*
X010005Y008800D02*
X009935Y008800D01*
X009935Y003550D01*
X010635Y002850D01*
X010845Y002850D01*
X010875Y002800D01*
X010915Y002780D01*
X010940Y001686D01*
X010942Y001649D01*
X010948Y001612D01*
X010957Y001576D01*
X010971Y001541D01*
X010988Y001507D01*
X011008Y001476D01*
X011032Y001447D01*
X011058Y001421D01*
X011087Y001397D01*
X011119Y001377D01*
X011152Y001360D01*
X011187Y001346D01*
X011223Y001337D01*
X011260Y001331D01*
X011297Y001329D01*
X011297Y001330D02*
X013715Y001380D01*
X013780Y001375D01*
X013505Y001940D02*
X013505Y002360D01*
X012315Y003550D01*
X010407Y003550D01*
X010407Y003549D02*
X010381Y003551D01*
X010355Y003556D01*
X010330Y003564D01*
X010306Y003576D01*
X010284Y003591D01*
X010264Y003608D01*
X010247Y003628D01*
X010232Y003650D01*
X010220Y003674D01*
X010212Y003699D01*
X010207Y003725D01*
X010205Y003751D01*
X010205Y004810D01*
X012595Y007050D01*
X014405Y006675D02*
X014415Y006630D01*
X015745Y005350D01*
X015745Y001430D01*
X015780Y001375D01*
X014780Y001375D02*
X014765Y001380D01*
X014205Y001940D01*
X013505Y001940D01*
X014415Y003270D02*
X014415Y004670D01*
X014405Y004675D01*
X014415Y003270D02*
X015255Y002430D01*
X015280Y002375D01*
X015955Y002710D02*
X015955Y006070D01*
X014415Y007610D01*
X014405Y007675D01*
X015955Y002710D02*
X016235Y002430D01*
X016280Y002375D01*
X009218Y002025D02*
X009165Y002080D01*
X009180Y002063D01*
X004530Y007300D02*
X004545Y007330D01*
X015030Y020175D02*
X015045Y020210D01*
X015030Y020175D01*
X015030Y020175D01*
D25*
X012315Y013140D03*
X011164Y008566D03*
X012595Y007050D03*
D26*
X012234Y007308D02*
X010358Y007308D01*
X010356Y007150D02*
X012162Y007150D01*
X012157Y007137D02*
X012157Y007132D01*
X010336Y005425D01*
X010370Y008360D01*
X010847Y008263D01*
X010916Y008195D01*
X011077Y008128D01*
X011251Y008128D01*
X011412Y008195D01*
X011536Y008318D01*
X011602Y008479D01*
X011602Y008653D01*
X011536Y008814D01*
X011412Y008938D01*
X011251Y009004D01*
X011077Y009004D01*
X010989Y008968D01*
X010379Y009091D01*
X010398Y010714D01*
X012385Y012702D01*
X012402Y012702D01*
X012563Y012768D01*
X012686Y012892D01*
X012753Y013053D01*
X012753Y013227D01*
X012686Y013388D01*
X012563Y013511D01*
X012402Y013578D01*
X012228Y013578D01*
X012067Y013511D01*
X011944Y013388D01*
X011877Y013227D01*
X011877Y013210D01*
X010409Y011742D01*
X010525Y021726D01*
X021613Y021726D01*
X021472Y021385D01*
X021472Y021014D01*
X021614Y020671D01*
X021876Y020409D01*
X022219Y020266D01*
X022591Y020266D01*
X022934Y020409D01*
X022955Y020430D01*
X022955Y002203D01*
X022641Y002333D01*
X022269Y002333D01*
X021926Y002191D01*
X021664Y001929D01*
X021522Y001585D01*
X021522Y001214D01*
X021664Y000871D01*
X021670Y000864D01*
X016069Y000845D01*
X016120Y000866D01*
X016289Y001035D01*
X016380Y001255D01*
X016380Y001494D01*
X016289Y001715D01*
X016229Y001775D01*
X016399Y001775D01*
X016620Y001866D01*
X016789Y002035D01*
X016880Y002255D01*
X016880Y002494D01*
X016789Y002715D01*
X016620Y002883D01*
X016399Y002975D01*
X016314Y002975D01*
X016314Y006141D01*
X016260Y006273D01*
X015066Y007467D01*
X015095Y007538D01*
X015095Y007812D01*
X014990Y008066D01*
X014881Y008175D01*
X014990Y008284D01*
X015095Y008538D01*
X015095Y008812D01*
X014990Y009066D01*
X014881Y009175D01*
X014990Y009284D01*
X015095Y009538D01*
X015095Y009812D01*
X014990Y010066D01*
X014881Y010175D01*
X014990Y010284D01*
X015095Y010538D01*
X015095Y010812D01*
X014990Y011066D01*
X014881Y011175D01*
X014990Y011284D01*
X015035Y011393D01*
X015035Y011360D01*
X015111Y011177D01*
X015252Y011036D01*
X015436Y010960D01*
X015634Y010960D01*
X015818Y011036D01*
X015867Y011085D01*
X018524Y008389D01*
X018560Y007172D01*
X018516Y007128D01*
X018440Y006944D01*
X018440Y006745D01*
X018516Y006562D01*
X018657Y006421D01*
X018841Y006345D01*
X019039Y006345D01*
X019223Y006421D01*
X019295Y006493D01*
X019295Y004596D01*
X019351Y004460D01*
X019911Y003900D01*
X020015Y003796D01*
X020151Y003740D01*
X020999Y003740D01*
X021135Y003796D01*
X021239Y003900D01*
X021295Y004036D01*
X021295Y006213D01*
X021239Y006349D01*
X021082Y006506D01*
X021095Y006538D01*
X021095Y006812D01*
X020990Y007066D01*
X020881Y007175D01*
X020990Y007284D01*
X021095Y007538D01*
X021095Y007812D01*
X020990Y008066D01*
X020796Y008260D01*
X020727Y008288D01*
X020721Y008803D01*
X020721Y008874D01*
X020720Y008876D01*
X020720Y008878D01*
X020692Y008944D01*
X020664Y009010D01*
X020663Y009012D01*
X020662Y009013D01*
X020611Y009063D01*
X016114Y013533D01*
X016064Y013584D01*
X016062Y013585D01*
X016061Y013586D01*
X015994Y013614D01*
X015979Y013620D01*
X018138Y015780D01*
X018724Y015780D01*
X018860Y015836D01*
X018964Y015940D01*
X019008Y015985D01*
X019042Y015985D01*
X019296Y016090D01*
X019405Y016199D01*
X019514Y016090D01*
X019768Y015985D01*
X020042Y015985D01*
X020296Y016090D01*
X020490Y016284D01*
X020595Y016538D01*
X020595Y016812D01*
X020490Y017066D01*
X020296Y017260D01*
X020042Y017365D01*
X019768Y017365D01*
X019514Y017260D01*
X019405Y017151D01*
X019296Y017260D01*
X019265Y017273D01*
X019265Y017359D01*
X019365Y017459D01*
X019470Y017713D01*
X019470Y017987D01*
X019365Y018241D01*
X019171Y018435D01*
X018917Y018540D01*
X018643Y018540D01*
X018389Y018435D01*
X018280Y018326D01*
X018171Y018435D01*
X018125Y018454D01*
X019131Y019460D01*
X019923Y019460D01*
X019947Y019436D01*
X020131Y019360D01*
X020329Y019360D01*
X020513Y019436D01*
X020654Y019577D01*
X020730Y019760D01*
X020730Y019959D01*
X020654Y020143D01*
X020513Y020284D01*
X020329Y020360D01*
X020131Y020360D01*
X019947Y020284D01*
X019923Y020260D01*
X018885Y020260D01*
X018738Y020199D01*
X018626Y020086D01*
X016389Y017849D01*
X015527Y018711D01*
X015545Y018703D01*
X015790Y018703D01*
X016016Y018797D01*
X016189Y018970D01*
X016283Y019196D01*
X016283Y019441D01*
X016189Y019667D01*
X016016Y019840D01*
X015790Y019934D01*
X015545Y019934D01*
X015365Y019859D01*
X015381Y019875D01*
X015423Y019934D01*
X015456Y019998D01*
X015479Y020067D01*
X015490Y020139D01*
X015490Y020175D01*
X015490Y020211D01*
X015479Y020283D01*
X015456Y020351D01*
X015423Y020416D01*
X015381Y020474D01*
X015330Y020526D01*
X015271Y020568D01*
X015207Y020601D01*
X015138Y020623D01*
X015066Y020635D01*
X015030Y020635D01*
X014994Y020635D01*
X014922Y020623D01*
X014853Y020601D01*
X014819Y020584D01*
X014799Y020633D01*
X014348Y021083D01*
X014212Y021140D01*
X012521Y021140D01*
X012385Y021083D01*
X012077Y020775D01*
X011911Y020775D01*
X011690Y020683D01*
X011521Y020515D01*
X011430Y020294D01*
X011430Y020055D01*
X011521Y019835D01*
X011690Y019666D01*
X011911Y019575D01*
X012081Y019575D01*
X012021Y019515D01*
X011955Y019354D01*
X011923Y019416D01*
X011881Y019474D01*
X011830Y019526D01*
X011771Y019568D01*
X011707Y019601D01*
X011638Y019623D01*
X011566Y019635D01*
X011530Y019635D01*
X011494Y019635D01*
X011422Y019623D01*
X011353Y019601D01*
X011289Y019568D01*
X011230Y019526D01*
X011179Y019474D01*
X011137Y019416D01*
X011104Y019351D01*
X011081Y019283D01*
X011070Y019211D01*
X011070Y019175D01*
X011530Y019175D01*
X011530Y019635D01*
X011530Y019175D01*
X011530Y019175D01*
X011530Y019175D01*
X011070Y019175D01*
X011070Y019139D01*
X011081Y019067D01*
X011104Y018998D01*
X011137Y018934D01*
X011179Y018875D01*
X011230Y018824D01*
X011289Y018781D01*
X011353Y018749D01*
X011422Y018726D01*
X011494Y018715D01*
X011530Y018715D01*
X011566Y018715D01*
X011638Y018726D01*
X011707Y018749D01*
X011771Y018781D01*
X011830Y018824D01*
X011881Y018875D01*
X011923Y018934D01*
X011955Y018995D01*
X012021Y018835D01*
X012190Y018666D01*
X012411Y018575D01*
X012649Y018575D01*
X012870Y018666D01*
X013030Y018826D01*
X013190Y018666D01*
X013411Y018575D01*
X013649Y018575D01*
X013870Y018666D01*
X014030Y018826D01*
X014190Y018666D01*
X014411Y018575D01*
X014617Y018575D01*
X015970Y017221D01*
X015948Y017225D01*
X015925Y017225D01*
X015925Y016695D01*
X015885Y016695D01*
X015885Y017225D01*
X015862Y017225D01*
X015776Y017211D01*
X015694Y017185D01*
X015617Y017145D01*
X015547Y017094D01*
X015498Y017046D01*
X015490Y017066D01*
X015296Y017260D01*
X015042Y017365D01*
X014768Y017365D01*
X014514Y017260D01*
X014320Y017066D01*
X014215Y016812D01*
X014215Y016538D01*
X014320Y016284D01*
X014514Y016090D01*
X014768Y015985D01*
X015042Y015985D01*
X015296Y016090D01*
X015490Y016284D01*
X015498Y016304D01*
X015547Y016255D01*
X015617Y016204D01*
X015694Y016165D01*
X015776Y016138D01*
X015862Y016125D01*
X015885Y016125D01*
X015885Y016655D01*
X015925Y016655D01*
X015925Y016125D01*
X015948Y016125D01*
X016034Y016138D01*
X016116Y016165D01*
X016193Y016204D01*
X016263Y016255D01*
X016312Y016304D01*
X016320Y016284D01*
X016514Y016090D01*
X016768Y015985D01*
X017042Y015985D01*
X017296Y016090D01*
X017405Y016199D01*
X017458Y016146D01*
X015095Y013783D01*
X015095Y013812D01*
X014990Y014066D01*
X014796Y014260D01*
X014542Y014365D01*
X014268Y014365D01*
X014014Y014260D01*
X013820Y014066D01*
X013715Y013812D01*
X013715Y013538D01*
X013820Y013284D01*
X014014Y013090D01*
X014268Y012985D01*
X014297Y012985D01*
X013541Y012229D01*
X013485Y012093D01*
X013485Y004200D01*
X011445Y004200D01*
X011445Y004300D01*
X011445Y004434D01*
X011433Y004479D01*
X011409Y004520D01*
X011376Y004554D01*
X011334Y004578D01*
X011289Y004590D01*
X010875Y004590D01*
X010564Y004590D01*
X010564Y004654D01*
X012653Y006612D01*
X012682Y006612D01*
X012843Y006678D01*
X012966Y006802D01*
X013033Y006963D01*
X013033Y007137D01*
X012966Y007298D01*
X012843Y007421D01*
X012682Y007488D01*
X012508Y007488D01*
X012347Y007421D01*
X012224Y007298D01*
X012157Y007137D01*
X012007Y006991D02*
X010354Y006991D01*
X010353Y006833D02*
X011838Y006833D01*
X011669Y006674D02*
X010351Y006674D01*
X010349Y006516D02*
X011500Y006516D01*
X011331Y006357D02*
X010347Y006357D01*
X010345Y006199D02*
X011162Y006199D01*
X010992Y006040D02*
X010343Y006040D01*
X010342Y005882D02*
X010823Y005882D01*
X010654Y005723D02*
X010340Y005723D01*
X010338Y005565D02*
X010485Y005565D01*
X011029Y005089D02*
X013485Y005089D01*
X013485Y004931D02*
X010860Y004931D01*
X010691Y004772D02*
X013485Y004772D01*
X013485Y004614D02*
X010564Y004614D01*
X010875Y004590D02*
X010875Y004300D01*
X010875Y004300D01*
X010875Y004590D01*
X010875Y004455D02*
X010875Y004455D01*
X010875Y004300D02*
X011445Y004300D01*
X010875Y004300D01*
X010875Y004300D01*
X011445Y004297D02*
X013485Y004297D01*
X013485Y004455D02*
X011439Y004455D01*
X011198Y005248D02*
X013485Y005248D01*
X013485Y005406D02*
X011367Y005406D01*
X011536Y005565D02*
X013485Y005565D01*
X013485Y005723D02*
X011705Y005723D01*
X011874Y005882D02*
X013485Y005882D01*
X013485Y006040D02*
X012043Y006040D01*
X012213Y006199D02*
X013485Y006199D01*
X013485Y006357D02*
X012382Y006357D01*
X012551Y006516D02*
X013485Y006516D01*
X013485Y006674D02*
X012833Y006674D01*
X012979Y006833D02*
X013485Y006833D01*
X013485Y006991D02*
X013033Y006991D01*
X013028Y007150D02*
X013485Y007150D01*
X013485Y007308D02*
X012956Y007308D01*
X012733Y007467D02*
X013485Y007467D01*
X013485Y007625D02*
X010362Y007625D01*
X010360Y007467D02*
X012457Y007467D01*
X013485Y007784D02*
X010364Y007784D01*
X010365Y007942D02*
X013485Y007942D01*
X013485Y008101D02*
X010367Y008101D01*
X010369Y008259D02*
X010851Y008259D01*
X011477Y008259D02*
X013485Y008259D01*
X013485Y008418D02*
X011577Y008418D01*
X011602Y008576D02*
X013485Y008576D01*
X013485Y008735D02*
X011569Y008735D01*
X011457Y008893D02*
X013485Y008893D01*
X013485Y009052D02*
X010574Y009052D01*
X010380Y009210D02*
X013485Y009210D01*
X013485Y009369D02*
X010382Y009369D01*
X010384Y009527D02*
X013485Y009527D01*
X013485Y009686D02*
X010386Y009686D01*
X010387Y009844D02*
X013485Y009844D01*
X013485Y010003D02*
X010389Y010003D01*
X010391Y010161D02*
X013485Y010161D01*
X013485Y010320D02*
X010393Y010320D01*
X010395Y010478D02*
X013485Y010478D01*
X013485Y010637D02*
X010397Y010637D01*
X010479Y010795D02*
X013485Y010795D01*
X013485Y010954D02*
X010637Y010954D01*
X010796Y011112D02*
X013485Y011112D01*
X013485Y011271D02*
X010954Y011271D01*
X011113Y011429D02*
X013485Y011429D01*
X013485Y011588D02*
X011271Y011588D01*
X011430Y011746D02*
X013485Y011746D01*
X013485Y011905D02*
X011588Y011905D01*
X011747Y012063D02*
X013485Y012063D01*
X013538Y012222D02*
X011905Y012222D01*
X012064Y012380D02*
X013692Y012380D01*
X013851Y012539D02*
X012222Y012539D01*
X012381Y012697D02*
X014009Y012697D01*
X014168Y012856D02*
X012651Y012856D01*
X012737Y013014D02*
X014196Y013014D01*
X013931Y013173D02*
X012753Y013173D01*
X012710Y013331D02*
X013800Y013331D01*
X013735Y013490D02*
X012585Y013490D01*
X012045Y013490D02*
X010430Y013490D01*
X010431Y013648D02*
X013715Y013648D01*
X013715Y013807D02*
X010433Y013807D01*
X010435Y013965D02*
X013778Y013965D01*
X013878Y014124D02*
X010437Y014124D01*
X010439Y014282D02*
X014069Y014282D01*
X014741Y014282D02*
X015594Y014282D01*
X015436Y014124D02*
X014932Y014124D01*
X015032Y013965D02*
X015277Y013965D01*
X015119Y013807D02*
X015095Y013807D01*
X015753Y014441D02*
X010441Y014441D01*
X010442Y014599D02*
X015911Y014599D01*
X016070Y014758D02*
X012814Y014758D01*
X012796Y014740D02*
X012990Y014934D01*
X013095Y015188D01*
X013095Y015462D01*
X012990Y015716D01*
X012881Y015825D01*
X012990Y015934D01*
X013095Y016188D01*
X013095Y016462D01*
X012990Y016716D01*
X012881Y016825D01*
X012990Y016934D01*
X013095Y017188D01*
X013095Y017462D01*
X012990Y017716D01*
X012796Y017910D01*
X012542Y018015D01*
X012268Y018015D01*
X012014Y017910D01*
X011820Y017716D01*
X011715Y017462D01*
X011715Y017188D01*
X011820Y016934D01*
X011929Y016825D01*
X011820Y016716D01*
X011715Y016462D01*
X011715Y016188D01*
X011820Y015934D01*
X011929Y015825D01*
X011820Y015716D01*
X011715Y015462D01*
X011715Y015188D01*
X011820Y014934D01*
X012014Y014740D01*
X012268Y014635D01*
X012542Y014635D01*
X012796Y014740D01*
X012972Y014916D02*
X016228Y014916D01*
X016387Y015075D02*
X013048Y015075D01*
X013095Y015233D02*
X016545Y015233D01*
X016704Y015392D02*
X013095Y015392D01*
X013058Y015550D02*
X016862Y015550D01*
X017021Y015709D02*
X012993Y015709D01*
X012923Y015867D02*
X017179Y015867D01*
X017141Y016026D02*
X017338Y016026D01*
X017390Y016184D02*
X017420Y016184D01*
X016669Y016026D02*
X015141Y016026D01*
X015390Y016184D02*
X015656Y016184D01*
X015885Y016184D02*
X015925Y016184D01*
X015925Y016343D02*
X015885Y016343D01*
X015885Y016501D02*
X015925Y016501D01*
X015925Y016818D02*
X015885Y016818D01*
X015885Y016977D02*
X015925Y016977D01*
X015925Y017135D02*
X015885Y017135D01*
X015898Y017294D02*
X015214Y017294D01*
X015420Y017135D02*
X015603Y017135D01*
X015739Y017452D02*
X013095Y017452D01*
X013095Y017294D02*
X014596Y017294D01*
X014390Y017135D02*
X013073Y017135D01*
X013008Y016977D02*
X014283Y016977D01*
X014218Y016818D02*
X012887Y016818D01*
X013013Y016660D02*
X014215Y016660D01*
X014230Y016501D02*
X013079Y016501D01*
X013095Y016343D02*
X014296Y016343D01*
X014420Y016184D02*
X013094Y016184D01*
X013028Y016026D02*
X014669Y016026D01*
X016154Y016184D02*
X016420Y016184D01*
X017433Y015075D02*
X022955Y015075D01*
X022955Y015233D02*
X017592Y015233D01*
X017750Y015392D02*
X022955Y015392D01*
X022955Y015550D02*
X017909Y015550D01*
X018067Y015709D02*
X022955Y015709D01*
X022955Y015867D02*
X018891Y015867D01*
X019141Y016026D02*
X019669Y016026D01*
X019420Y016184D02*
X019390Y016184D01*
X020141Y016026D02*
X022955Y016026D01*
X022955Y016184D02*
X020390Y016184D01*
X020514Y016343D02*
X022955Y016343D01*
X022955Y016501D02*
X020580Y016501D01*
X020595Y016660D02*
X022955Y016660D01*
X022955Y016818D02*
X020592Y016818D01*
X020527Y016977D02*
X022955Y016977D01*
X022955Y017135D02*
X020420Y017135D01*
X020214Y017294D02*
X022955Y017294D01*
X022955Y017452D02*
X019358Y017452D01*
X019428Y017611D02*
X022955Y017611D01*
X022955Y017769D02*
X019470Y017769D01*
X019470Y017928D02*
X022955Y017928D01*
X022955Y018086D02*
X019429Y018086D01*
X019361Y018245D02*
X022955Y018245D01*
X022955Y018403D02*
X019202Y018403D01*
X018550Y018879D02*
X022955Y018879D01*
X022955Y019037D02*
X018708Y019037D01*
X018867Y019196D02*
X022955Y019196D01*
X022955Y019354D02*
X019025Y019354D01*
X018965Y019860D02*
X020230Y019860D01*
X020693Y019671D02*
X022955Y019671D01*
X022955Y019513D02*
X020590Y019513D01*
X020730Y019830D02*
X022955Y019830D01*
X022955Y019988D02*
X020718Y019988D01*
X020650Y020147D02*
X022955Y020147D01*
X022955Y020305D02*
X022685Y020305D01*
X022125Y020305D02*
X020461Y020305D01*
X019999Y020305D02*
X015471Y020305D01*
X015490Y020175D02*
X015030Y020175D01*
X015030Y020635D01*
X015030Y020175D01*
X015030Y020175D01*
X015030Y020175D01*
X015490Y020175D01*
X015490Y020147D02*
X018686Y020147D01*
X018528Y019988D02*
X015451Y019988D01*
X015250Y019770D02*
X015146Y019667D01*
X015061Y019461D01*
X015039Y019515D01*
X014870Y019683D01*
X014855Y019690D01*
X014855Y019748D01*
X014922Y019726D01*
X014994Y019715D01*
X015030Y019715D01*
X015066Y019715D01*
X015138Y019726D01*
X015207Y019749D01*
X015250Y019770D01*
X015151Y019671D02*
X014882Y019671D01*
X015030Y019715D02*
X015030Y020175D01*
X015030Y019715D01*
X015030Y019830D02*
X015030Y019830D01*
X015030Y019988D02*
X015030Y019988D01*
X015030Y020147D02*
X015030Y020147D01*
X015030Y020175D02*
X015030Y020175D01*
X015030Y020305D02*
X015030Y020305D01*
X015030Y020464D02*
X015030Y020464D01*
X015030Y020622D02*
X015030Y020622D01*
X014919Y020622D02*
X014803Y020622D01*
X014651Y020781D02*
X021568Y020781D01*
X021503Y020939D02*
X014492Y020939D01*
X014313Y021098D02*
X021472Y021098D01*
X021472Y021256D02*
X010519Y021256D01*
X010518Y021098D02*
X012420Y021098D01*
X012241Y020939D02*
X010516Y020939D01*
X010514Y020781D02*
X012083Y020781D01*
X011629Y020622D02*
X010512Y020622D01*
X010510Y020464D02*
X011500Y020464D01*
X011435Y020305D02*
X010508Y020305D01*
X010507Y020147D02*
X011430Y020147D01*
X011458Y019988D02*
X010505Y019988D01*
X010503Y019830D02*
X011526Y019830D01*
X011685Y019671D02*
X010501Y019671D01*
X010499Y019513D02*
X011218Y019513D01*
X011105Y019354D02*
X010497Y019354D01*
X010496Y019196D02*
X011070Y019196D01*
X011091Y019037D02*
X010494Y019037D01*
X010492Y018879D02*
X011176Y018879D01*
X011459Y018720D02*
X010490Y018720D01*
X010488Y018562D02*
X014630Y018562D01*
X014788Y018403D02*
X010486Y018403D01*
X010485Y018245D02*
X014947Y018245D01*
X015105Y018086D02*
X010483Y018086D01*
X010481Y017928D02*
X012058Y017928D01*
X011874Y017769D02*
X010479Y017769D01*
X010477Y017611D02*
X011777Y017611D01*
X011715Y017452D02*
X010475Y017452D01*
X010474Y017294D02*
X011715Y017294D01*
X011737Y017135D02*
X010472Y017135D01*
X010470Y016977D02*
X011802Y016977D01*
X011923Y016818D02*
X010468Y016818D01*
X010466Y016660D02*
X011797Y016660D01*
X011731Y016501D02*
X010464Y016501D01*
X010463Y016343D02*
X011715Y016343D01*
X011716Y016184D02*
X010461Y016184D01*
X010459Y016026D02*
X011782Y016026D01*
X011887Y015867D02*
X010457Y015867D01*
X010455Y015709D02*
X011817Y015709D01*
X011752Y015550D02*
X010453Y015550D01*
X010452Y015392D02*
X011715Y015392D01*
X011715Y015233D02*
X010450Y015233D01*
X010448Y015075D02*
X011762Y015075D01*
X011838Y014916D02*
X010446Y014916D01*
X010444Y014758D02*
X011996Y014758D01*
X011920Y013331D02*
X010428Y013331D01*
X010426Y013173D02*
X011840Y013173D01*
X011681Y013014D02*
X010424Y013014D01*
X010422Y012856D02*
X011523Y012856D01*
X011364Y012697D02*
X010420Y012697D01*
X010419Y012539D02*
X011206Y012539D01*
X011047Y012380D02*
X010417Y012380D01*
X010415Y012222D02*
X010889Y012222D01*
X010730Y012063D02*
X010413Y012063D01*
X010411Y011905D02*
X010572Y011905D01*
X010413Y011746D02*
X010409Y011746D01*
X009720Y011746D02*
X006827Y011746D01*
X006818Y011737D02*
X006990Y011909D01*
X007095Y012163D01*
X007095Y012437D01*
X006990Y012691D01*
X006831Y012850D01*
X006990Y013009D01*
X007095Y013263D01*
X007095Y013537D01*
X006990Y013791D01*
X006796Y013985D01*
X006542Y014090D01*
X006268Y014090D01*
X006014Y013985D01*
X005905Y013876D01*
X005796Y013985D01*
X005542Y014090D01*
X005268Y014090D01*
X005014Y013985D01*
X004820Y013791D01*
X004812Y013771D01*
X004763Y013819D01*
X004693Y013870D01*
X004616Y013910D01*
X004534Y013936D01*
X004448Y013950D01*
X004425Y013950D01*
X004425Y013420D01*
X004385Y013420D01*
X004385Y013950D01*
X004362Y013950D01*
X004276Y013936D01*
X004194Y013910D01*
X004117Y013870D01*
X004047Y013819D01*
X003985Y013758D01*
X003935Y013688D01*
X003920Y013659D01*
X003920Y013872D01*
X004186Y014290D01*
X004842Y015080D01*
X005194Y015080D01*
X005311Y015129D01*
X005401Y015219D01*
X005450Y015336D01*
X005450Y016113D01*
X005415Y016198D01*
X005423Y016996D01*
X005621Y017194D01*
X005734Y017466D01*
X005734Y018600D01*
X005621Y018872D01*
X005413Y019080D01*
X005141Y019193D01*
X004847Y019193D01*
X004575Y019080D01*
X004367Y018872D01*
X004254Y018600D01*
X004254Y017466D01*
X004367Y017194D01*
X004543Y017017D01*
X004537Y016370D01*
X004416Y016370D01*
X004299Y016321D01*
X004209Y016231D01*
X004160Y016113D01*
X004160Y016084D01*
X004134Y016110D01*
X004070Y016157D01*
X003999Y016193D01*
X003923Y016217D01*
X003845Y016230D01*
X003805Y016230D01*
X003765Y016230D01*
X003687Y016217D01*
X003611Y016193D01*
X003540Y016157D01*
X003476Y016110D01*
X003420Y016054D01*
X003373Y015989D01*
X003337Y015919D01*
X003312Y015843D01*
X003300Y015765D01*
X003300Y015725D01*
X003805Y015725D01*
X003805Y016230D01*
X003805Y015725D01*
X003805Y015725D01*
X003805Y015725D01*
X003300Y015725D01*
X003300Y015685D01*
X003312Y015607D01*
X003337Y015531D01*
X003373Y015460D01*
X003420Y015396D01*
X003476Y015340D01*
X003540Y015293D01*
X003611Y015257D01*
X003687Y015232D01*
X003765Y015220D01*
X003805Y015220D01*
X003814Y015220D01*
X003529Y014876D01*
X003506Y014860D01*
X003474Y014809D01*
X003436Y014763D01*
X003427Y014736D01*
X003135Y014277D01*
X003107Y014249D01*
X003088Y014204D01*
X003062Y014162D01*
X003055Y014124D01*
X001634Y014124D01*
X001634Y014282D02*
X003138Y014282D01*
X003055Y014124D02*
X003040Y014087D01*
X003040Y014038D01*
X003031Y013990D01*
X003040Y013952D01*
X003040Y013323D01*
X003015Y013262D01*
X003015Y002662D01*
X003082Y002501D01*
X003206Y002377D01*
X003650Y001933D01*
X003670Y001884D01*
X003770Y001784D01*
X003741Y001755D01*
X003717Y001714D01*
X003705Y001669D01*
X003705Y001295D01*
X004235Y001295D01*
X004235Y001255D01*
X003705Y001255D01*
X003705Y000881D01*
X003717Y000835D01*
X003736Y000803D01*
X002969Y000800D01*
X003088Y001089D01*
X003088Y001460D01*
X002946Y001804D01*
X002684Y002066D01*
X002341Y002208D01*
X001969Y002208D01*
X001648Y002075D01*
X001627Y020423D01*
X001944Y020291D01*
X002316Y020291D01*
X002659Y020434D01*
X002921Y020696D01*
X003063Y021039D01*
X003063Y021410D01*
X002933Y021726D01*
X009777Y021726D01*
X009716Y011049D01*
X009700Y011033D01*
X009646Y010901D01*
X009646Y009019D01*
X009630Y009003D01*
X009576Y008871D01*
X009576Y004112D01*
X009506Y004181D01*
X009505Y004182D01*
X009505Y004300D01*
X009505Y004434D01*
X009493Y004479D01*
X009469Y004520D01*
X009436Y004554D01*
X009394Y004578D01*
X009349Y004590D01*
X008935Y004590D01*
X008521Y004590D01*
X008476Y004578D01*
X008434Y004554D01*
X008401Y004520D01*
X008377Y004479D01*
X008365Y004434D01*
X008365Y004300D01*
X008935Y004300D01*
X008935Y004590D01*
X008935Y004300D01*
X008935Y004300D01*
X008935Y004300D01*
X009505Y004300D01*
X008935Y004300D01*
X008935Y004300D01*
X009455Y004300D01*
X009505Y004350D01*
X009505Y004297D02*
X009576Y004297D01*
X009505Y004350D02*
X009528Y004348D01*
X009551Y004343D01*
X009573Y004334D01*
X009593Y004321D01*
X009611Y004306D01*
X009626Y004288D01*
X009639Y004268D01*
X009648Y004246D01*
X009653Y004223D01*
X009655Y004200D01*
X009655Y003325D01*
X009645Y003332D02*
X009671Y003305D01*
X009662Y001679D01*
X009597Y001744D01*
X009580Y001751D01*
X009584Y001757D01*
X009596Y001803D01*
X009596Y002025D01*
X009218Y002025D01*
X009218Y002101D01*
X009596Y002101D01*
X009596Y002323D01*
X009584Y002369D01*
X009560Y002410D01*
X009529Y002441D01*
X009596Y002509D01*
X009645Y002626D01*
X009645Y002973D01*
X009613Y003050D01*
X009645Y003126D01*
X009645Y003332D01*
X009655Y003325D02*
X009647Y003324D01*
X009640Y003320D01*
X009635Y003315D01*
X009631Y003308D01*
X009630Y003300D01*
X009630Y002025D01*
X009629Y002035D01*
X009625Y002044D01*
X009619Y002052D01*
X009611Y002058D01*
X009602Y002062D01*
X009592Y002063D01*
X009180Y002063D01*
X009218Y002078D02*
X009664Y002078D01*
X009665Y002236D02*
X009596Y002236D01*
X009569Y002395D02*
X009666Y002395D01*
X009667Y002553D02*
X009615Y002553D01*
X009645Y002712D02*
X009668Y002712D01*
X009669Y002870D02*
X009645Y002870D01*
X009622Y003029D02*
X009670Y003029D01*
X009671Y003187D02*
X009645Y003187D01*
X009576Y004138D02*
X009549Y004138D01*
X009576Y004455D02*
X009499Y004455D01*
X009576Y004614D02*
X007070Y004614D01*
X007115Y004659D02*
X007220Y004913D01*
X007220Y005187D01*
X007115Y005441D01*
X006943Y005612D01*
X007115Y005784D01*
X007220Y006038D01*
X007220Y006312D01*
X007115Y006566D01*
X006943Y006737D01*
X007115Y006909D01*
X007220Y007163D01*
X007220Y007437D01*
X007115Y007691D01*
X006943Y007862D01*
X007115Y008034D01*
X007220Y008288D01*
X007220Y008562D01*
X007115Y008816D01*
X006965Y008965D01*
X007384Y009820D01*
X007483Y009861D01*
X007624Y010002D01*
X007700Y010185D01*
X007700Y010384D01*
X007624Y010568D01*
X007483Y010709D01*
X007299Y010785D01*
X007101Y010785D01*
X006917Y010709D01*
X006776Y010568D01*
X006700Y010384D01*
X006700Y010185D01*
X006718Y010142D01*
X006362Y009416D01*
X006362Y009850D01*
X006315Y009963D01*
X006315Y010485D01*
X006542Y010485D01*
X006796Y010590D01*
X006990Y010784D01*
X007095Y011038D01*
X007095Y011312D01*
X006990Y011566D01*
X006818Y011737D01*
X006968Y011588D02*
X009719Y011588D01*
X009718Y011429D02*
X007046Y011429D01*
X007095Y011271D02*
X009717Y011271D01*
X009716Y011112D02*
X007095Y011112D01*
X007060Y010954D02*
X009667Y010954D01*
X009646Y010795D02*
X006995Y010795D01*
X006845Y010637D02*
X006843Y010637D01*
X006739Y010478D02*
X006315Y010478D01*
X006315Y010320D02*
X006700Y010320D01*
X006710Y010161D02*
X006315Y010161D01*
X006315Y010003D02*
X006650Y010003D01*
X006572Y009844D02*
X006362Y009844D01*
X006362Y009686D02*
X006494Y009686D01*
X006417Y009527D02*
X006362Y009527D01*
X007085Y009210D02*
X009646Y009210D01*
X009646Y009052D02*
X007008Y009052D01*
X007037Y008893D02*
X009585Y008893D01*
X009576Y008735D02*
X007148Y008735D01*
X007214Y008576D02*
X009576Y008576D01*
X009576Y008418D02*
X007220Y008418D01*
X007208Y008259D02*
X009576Y008259D01*
X009576Y008101D02*
X007143Y008101D01*
X007023Y007942D02*
X009576Y007942D01*
X009576Y007784D02*
X007022Y007784D01*
X007142Y007625D02*
X009576Y007625D01*
X009576Y007467D02*
X007208Y007467D01*
X007220Y007308D02*
X009576Y007308D01*
X009576Y007150D02*
X007215Y007150D01*
X007149Y006991D02*
X009576Y006991D01*
X009576Y006833D02*
X007039Y006833D01*
X007006Y006674D02*
X009576Y006674D01*
X009576Y006516D02*
X007136Y006516D01*
X007201Y006357D02*
X009576Y006357D01*
X009576Y006199D02*
X007220Y006199D01*
X007220Y006040D02*
X009576Y006040D01*
X009576Y005882D02*
X007155Y005882D01*
X007054Y005723D02*
X009576Y005723D01*
X009576Y005565D02*
X006991Y005565D01*
X007129Y005406D02*
X009576Y005406D01*
X009576Y005248D02*
X007195Y005248D01*
X007220Y005089D02*
X009576Y005089D01*
X009576Y004931D02*
X007220Y004931D01*
X007162Y004772D02*
X009576Y004772D01*
X008935Y004455D02*
X008935Y004455D01*
X008935Y004300D02*
X008365Y004300D01*
X008365Y004182D01*
X008364Y004181D01*
X008312Y004130D01*
X006711Y004130D01*
X006575Y004073D01*
X006471Y003969D01*
X006431Y003873D01*
X006339Y003835D01*
X006145Y003641D01*
X006145Y003640D01*
X004851Y003640D01*
X004840Y003666D01*
X004646Y003860D01*
X004392Y003965D01*
X004118Y003965D01*
X003895Y003873D01*
X003895Y009759D01*
X004079Y009759D01*
X004079Y010137D01*
X004155Y010137D01*
X004155Y009759D01*
X004377Y009759D01*
X004422Y009771D01*
X004429Y009775D01*
X004436Y009757D01*
X004526Y009667D01*
X004629Y009625D01*
X004651Y009570D01*
X004698Y009523D01*
X004698Y009250D01*
X004747Y009132D01*
X004837Y009042D01*
X004955Y008994D01*
X005123Y008994D01*
X004945Y008816D01*
X004937Y008796D01*
X004888Y008844D01*
X004818Y008895D01*
X004741Y008935D01*
X004659Y008961D01*
X004573Y008975D01*
X004550Y008975D01*
X004550Y008445D01*
X004510Y008445D01*
X004510Y008975D01*
X004487Y008975D01*
X004401Y008961D01*
X004319Y008935D01*
X004242Y008895D01*
X004172Y008844D01*
X004110Y008783D01*
X004060Y008713D01*
X004020Y008636D01*
X003994Y008554D01*
X003980Y008468D01*
X003980Y008445D01*
X004510Y008445D01*
X004510Y008405D01*
X003980Y008405D01*
X003980Y008382D01*
X003994Y008296D01*
X004020Y008214D01*
X004060Y008137D01*
X004110Y008067D01*
X004172Y008005D01*
X004242Y007954D01*
X004319Y007915D01*
X004401Y007888D01*
X004487Y007875D01*
X004510Y007875D01*
X004510Y008405D01*
X004550Y008405D01*
X004550Y007875D01*
X004573Y007875D01*
X004659Y007888D01*
X004741Y007915D01*
X004818Y007954D01*
X004888Y008005D01*
X004937Y008054D01*
X004945Y008034D01*
X005085Y007894D01*
X005085Y007831D01*
X004945Y007691D01*
X004937Y007671D01*
X004888Y007719D01*
X004818Y007770D01*
X004741Y007810D01*
X004659Y007836D01*
X004573Y007850D01*
X004550Y007850D01*
X004550Y007320D01*
X004510Y007320D01*
X004510Y007850D01*
X004487Y007850D01*
X004401Y007836D01*
X004319Y007810D01*
X004242Y007770D01*
X004172Y007719D01*
X004110Y007658D01*
X004060Y007588D01*
X004020Y007511D01*
X003994Y007429D01*
X003980Y007343D01*
X003980Y007320D01*
X004510Y007320D01*
X004510Y007280D01*
X003980Y007280D01*
X003980Y007257D01*
X003994Y007171D01*
X004020Y007089D01*
X004060Y007012D01*
X004110Y006942D01*
X004172Y006880D01*
X004242Y006829D01*
X004319Y006790D01*
X004401Y006763D01*
X004487Y006750D01*
X004510Y006750D01*
X004510Y007280D01*
X004550Y007280D01*
X004550Y006750D01*
X004573Y006750D01*
X004659Y006763D01*
X004741Y006790D01*
X004818Y006829D01*
X004888Y006880D01*
X004937Y006929D01*
X004945Y006909D01*
X005085Y006769D01*
X005085Y006706D01*
X004945Y006566D01*
X004937Y006546D01*
X004888Y006594D01*
X004818Y006645D01*
X004741Y006685D01*
X004659Y006711D01*
X004573Y006725D01*
X004550Y006725D01*
X004550Y006195D01*
X004510Y006195D01*
X004510Y006725D01*
X004487Y006725D01*
X004401Y006711D01*
X004319Y006685D01*
X004242Y006645D01*
X004172Y006594D01*
X004110Y006533D01*
X004060Y006463D01*
X004020Y006386D01*
X003994Y006304D01*
X003980Y006218D01*
X003980Y006195D01*
X004510Y006195D01*
X004510Y006155D01*
X003980Y006155D01*
X003980Y006132D01*
X003994Y006046D01*
X004020Y005964D01*
X004060Y005887D01*
X004110Y005817D01*
X004172Y005755D01*
X004242Y005704D01*
X004319Y005665D01*
X004401Y005638D01*
X004487Y005625D01*
X004510Y005625D01*
X004510Y006155D01*
X004550Y006155D01*
X004550Y005625D01*
X004573Y005625D01*
X004659Y005638D01*
X004741Y005665D01*
X004818Y005704D01*
X004888Y005755D01*
X004937Y005804D01*
X004945Y005784D01*
X005117Y005612D01*
X004945Y005441D01*
X004937Y005421D01*
X004888Y005469D01*
X004818Y005520D01*
X004741Y005560D01*
X004659Y005586D01*
X004573Y005600D01*
X004550Y005600D01*
X004550Y005070D01*
X004510Y005070D01*
X004510Y005600D01*
X004487Y005600D01*
X004401Y005586D01*
X004319Y005560D01*
X004242Y005520D01*
X004172Y005469D01*
X004110Y005408D01*
X004060Y005338D01*
X004020Y005261D01*
X003994Y005179D01*
X003980Y005093D01*
X003980Y005070D01*
X004510Y005070D01*
X004510Y005030D01*
X003980Y005030D01*
X003980Y005007D01*
X003994Y004921D01*
X004020Y004839D01*
X004060Y004762D01*
X004110Y004692D01*
X004172Y004630D01*
X004242Y004579D01*
X004319Y004540D01*
X004401Y004513D01*
X004487Y004500D01*
X004510Y004500D01*
X004510Y005030D01*
X004550Y005030D01*
X004550Y004500D01*
X004573Y004500D01*
X004659Y004513D01*
X004741Y004540D01*
X004818Y004579D01*
X004888Y004630D01*
X004937Y004679D01*
X004945Y004659D01*
X005139Y004465D01*
X005393Y004360D01*
X005667Y004360D01*
X005921Y004465D01*
X006030Y004574D01*
X006139Y004465D01*
X006393Y004360D01*
X006667Y004360D01*
X006921Y004465D01*
X007115Y004659D01*
X006898Y004455D02*
X008371Y004455D01*
X008365Y004297D02*
X003895Y004297D01*
X003895Y004455D02*
X005162Y004455D01*
X004990Y004614D02*
X004866Y004614D01*
X004550Y004614D02*
X004510Y004614D01*
X004510Y004772D02*
X004550Y004772D01*
X004550Y004931D02*
X004510Y004931D01*
X004510Y005089D02*
X004550Y005089D01*
X004550Y005248D02*
X004510Y005248D01*
X004510Y005406D02*
X004550Y005406D01*
X004550Y005565D02*
X004510Y005565D01*
X004510Y005723D02*
X004550Y005723D01*
X004550Y005882D02*
X004510Y005882D01*
X004510Y006040D02*
X004550Y006040D01*
X004550Y006199D02*
X004510Y006199D01*
X004510Y006357D02*
X004550Y006357D01*
X004550Y006516D02*
X004510Y006516D01*
X004510Y006674D02*
X004550Y006674D01*
X004550Y006833D02*
X004510Y006833D01*
X004510Y006991D02*
X004550Y006991D01*
X004550Y007150D02*
X004510Y007150D01*
X004510Y007308D02*
X003895Y007308D01*
X003895Y007150D02*
X004000Y007150D01*
X004074Y006991D02*
X003895Y006991D01*
X003895Y006833D02*
X004237Y006833D01*
X004299Y006674D02*
X003895Y006674D01*
X003895Y006516D02*
X004098Y006516D01*
X004011Y006357D02*
X003895Y006357D01*
X003895Y006199D02*
X003980Y006199D01*
X003995Y006040D02*
X003895Y006040D01*
X003895Y005882D02*
X004063Y005882D01*
X004216Y005723D02*
X003895Y005723D01*
X003895Y005565D02*
X004335Y005565D01*
X004109Y005406D02*
X003895Y005406D01*
X003895Y005248D02*
X004016Y005248D01*
X003980Y005089D02*
X003895Y005089D01*
X003895Y004931D02*
X003992Y004931D01*
X004054Y004772D02*
X003895Y004772D01*
X003895Y004614D02*
X004194Y004614D01*
X003895Y004138D02*
X008321Y004138D01*
X006482Y003980D02*
X003895Y003980D01*
X004684Y003821D02*
X006326Y003821D01*
X006167Y003663D02*
X004841Y003663D01*
X005898Y004455D02*
X006162Y004455D01*
X005555Y005050D02*
X005530Y005050D01*
X005505Y005025D01*
X005530Y005075D02*
X005555Y005050D01*
X005530Y005075D02*
X005530Y006275D01*
X005555Y006250D01*
X005555Y006175D01*
X005054Y006674D02*
X004761Y006674D01*
X004823Y006833D02*
X005021Y006833D01*
X004550Y007467D02*
X004510Y007467D01*
X004510Y007625D02*
X004550Y007625D01*
X004550Y007784D02*
X004510Y007784D01*
X004510Y007942D02*
X004550Y007942D01*
X004550Y008101D02*
X004510Y008101D01*
X004510Y008259D02*
X004550Y008259D01*
X004510Y008418D02*
X003895Y008418D01*
X003895Y008576D02*
X004001Y008576D01*
X004075Y008735D02*
X003895Y008735D01*
X003895Y008893D02*
X004239Y008893D01*
X004510Y008893D02*
X004550Y008893D01*
X004550Y008735D02*
X004510Y008735D01*
X004510Y008576D02*
X004550Y008576D01*
X004821Y008893D02*
X005023Y008893D01*
X004827Y009052D02*
X003895Y009052D01*
X003895Y009210D02*
X004715Y009210D01*
X004698Y009369D02*
X003895Y009369D01*
X003895Y009527D02*
X004694Y009527D01*
X004507Y009686D02*
X003895Y009686D01*
X003880Y009800D02*
X003905Y009825D01*
X003905Y010550D01*
X004005Y010450D01*
X004005Y009850D01*
X003980Y009825D01*
X003930Y009875D01*
X003930Y010625D01*
X004117Y010438D01*
X004117Y010175D01*
X004155Y010213D02*
X004079Y010213D01*
X004079Y010591D01*
X003895Y010591D01*
X003895Y010965D01*
X003895Y010964D01*
X003935Y010887D01*
X003985Y010817D01*
X004047Y010755D01*
X004117Y010704D01*
X004194Y010665D01*
X004276Y010638D01*
X004362Y010625D01*
X004385Y010625D01*
X004385Y011155D01*
X004425Y011155D01*
X004425Y010625D01*
X004448Y010625D01*
X004472Y010629D01*
X004436Y010592D01*
X004429Y010575D01*
X004422Y010579D01*
X004377Y010591D01*
X004155Y010591D01*
X004155Y010213D01*
X004155Y010320D02*
X004079Y010320D01*
X004079Y010478D02*
X004155Y010478D01*
X004286Y010637D02*
X003895Y010637D01*
X003895Y010795D02*
X004007Y010795D01*
X003900Y010954D02*
X003895Y010954D01*
X003895Y011385D02*
X003895Y012090D01*
X003895Y012089D01*
X003935Y012012D01*
X003985Y011942D01*
X004047Y011880D01*
X004117Y011829D01*
X004194Y011790D01*
X004276Y011763D01*
X004362Y011750D01*
X004385Y011750D01*
X004385Y012280D01*
X004425Y012280D01*
X004425Y011750D01*
X004448Y011750D01*
X004534Y011763D01*
X004616Y011790D01*
X004693Y011829D01*
X004763Y011880D01*
X004812Y011929D01*
X004820Y011909D01*
X004992Y011737D01*
X004820Y011566D01*
X004812Y011546D01*
X004763Y011594D01*
X004693Y011645D01*
X004616Y011685D01*
X004534Y011711D01*
X004448Y011725D01*
X004425Y011725D01*
X004425Y011195D01*
X004385Y011195D01*
X004385Y011725D01*
X004362Y011725D01*
X004276Y011711D01*
X004194Y011685D01*
X004117Y011645D01*
X004047Y011594D01*
X003985Y011533D01*
X003935Y011463D01*
X003895Y011386D01*
X003895Y011385D01*
X003895Y011429D02*
X003917Y011429D01*
X003895Y011588D02*
X004040Y011588D01*
X003895Y011746D02*
X004983Y011746D01*
X004842Y011588D02*
X004770Y011588D01*
X004788Y011905D02*
X004824Y011905D01*
X004425Y011905D02*
X004385Y011905D01*
X004385Y012063D02*
X004425Y012063D01*
X004425Y012222D02*
X004385Y012222D01*
X004385Y012320D02*
X004385Y012850D01*
X004385Y013380D01*
X004425Y013380D01*
X004425Y012850D01*
X004448Y012850D01*
X004534Y012863D01*
X004616Y012890D01*
X004693Y012929D01*
X004763Y012980D01*
X004812Y013029D01*
X004820Y013009D01*
X004979Y012850D01*
X004820Y012691D01*
X004812Y012671D01*
X004763Y012719D01*
X004693Y012770D01*
X004616Y012810D01*
X004534Y012836D01*
X004448Y012850D01*
X004425Y012850D01*
X004425Y012320D01*
X004385Y012320D01*
X004385Y012380D02*
X004425Y012380D01*
X004425Y012539D02*
X004385Y012539D01*
X004385Y012697D02*
X004425Y012697D01*
X004385Y012850D02*
X004362Y012850D01*
X004385Y012850D01*
X004385Y012856D02*
X004425Y012856D01*
X004486Y012856D02*
X004973Y012856D01*
X004827Y012697D02*
X004785Y012697D01*
X004797Y013014D02*
X004818Y013014D01*
X004425Y013014D02*
X004385Y013014D01*
X004385Y013173D02*
X004425Y013173D01*
X004425Y013331D02*
X004385Y013331D01*
X004385Y013490D02*
X004425Y013490D01*
X004425Y013648D02*
X004385Y013648D01*
X004385Y013807D02*
X004425Y013807D01*
X004034Y013807D02*
X003920Y013807D01*
X003980Y013965D02*
X004995Y013965D01*
X004836Y013807D02*
X004776Y013807D01*
X004181Y014282D02*
X009735Y014282D01*
X009734Y014124D02*
X004080Y014124D01*
X004311Y014441D02*
X009735Y014441D01*
X009736Y014599D02*
X004443Y014599D01*
X004574Y014758D02*
X009737Y014758D01*
X009738Y014916D02*
X004706Y014916D01*
X004837Y015075D02*
X009739Y015075D01*
X009740Y015233D02*
X009357Y015233D01*
X009351Y015219D02*
X009400Y015336D01*
X009400Y016113D01*
X009351Y016231D01*
X009261Y016321D01*
X009238Y016331D01*
X009248Y017004D01*
X009263Y017011D01*
X009471Y017219D01*
X009584Y017491D01*
X009584Y018625D01*
X009471Y018897D01*
X009263Y019105D01*
X008991Y019218D01*
X008697Y019218D01*
X008425Y019105D01*
X008217Y018897D01*
X008104Y018625D01*
X008104Y017491D01*
X008217Y017219D01*
X008368Y017067D01*
X008359Y016367D01*
X008249Y016321D01*
X008159Y016231D01*
X008110Y016113D01*
X008110Y016084D01*
X008084Y016110D01*
X008020Y016157D01*
X007949Y016193D01*
X007873Y016217D01*
X007795Y016230D01*
X007755Y016230D01*
X007715Y016230D01*
X007637Y016217D01*
X007561Y016193D01*
X007490Y016157D01*
X007426Y016110D01*
X007370Y016054D01*
X007323Y015989D01*
X007287Y015919D01*
X007262Y015843D01*
X007250Y015765D01*
X007250Y015725D01*
X007755Y015725D01*
X007755Y016230D01*
X007755Y015725D01*
X007755Y015725D01*
X007755Y015725D01*
X007250Y015725D01*
X007250Y015685D01*
X007262Y015607D01*
X007287Y015531D01*
X007323Y015460D01*
X007370Y015396D01*
X007426Y015340D01*
X007490Y015293D01*
X007561Y015257D01*
X007637Y015232D01*
X007715Y015220D01*
X007755Y015220D01*
X007795Y015220D01*
X007873Y015232D01*
X007949Y015257D01*
X008020Y015293D01*
X008084Y015340D01*
X008110Y015366D01*
X008110Y015336D01*
X008159Y015219D01*
X008249Y015129D01*
X008366Y015080D01*
X009144Y015080D01*
X009261Y015129D01*
X009351Y015219D01*
X009400Y015392D02*
X009741Y015392D01*
X009742Y015550D02*
X009400Y015550D01*
X009400Y015709D02*
X009743Y015709D01*
X009744Y015867D02*
X009400Y015867D01*
X009400Y016026D02*
X009745Y016026D01*
X009745Y016184D02*
X009371Y016184D01*
X009238Y016343D02*
X009746Y016343D01*
X009747Y016501D02*
X009241Y016501D01*
X009243Y016660D02*
X009748Y016660D01*
X009749Y016818D02*
X009245Y016818D01*
X009247Y016977D02*
X009750Y016977D01*
X009751Y017135D02*
X009388Y017135D01*
X009502Y017294D02*
X009752Y017294D01*
X009753Y017452D02*
X009568Y017452D01*
X009584Y017611D02*
X009754Y017611D01*
X009755Y017769D02*
X009584Y017769D01*
X009584Y017928D02*
X009756Y017928D01*
X009756Y018086D02*
X009584Y018086D01*
X009584Y018245D02*
X009757Y018245D01*
X009758Y018403D02*
X009584Y018403D01*
X009584Y018562D02*
X009759Y018562D01*
X009760Y018720D02*
X009545Y018720D01*
X009479Y018879D02*
X009761Y018879D01*
X009762Y019037D02*
X009331Y019037D01*
X009044Y019196D02*
X009763Y019196D01*
X009764Y019354D02*
X001628Y019354D01*
X001628Y019196D02*
X008644Y019196D01*
X008357Y019037D02*
X007686Y019037D01*
X007696Y019034D02*
X007607Y019063D01*
X007526Y019076D01*
X007526Y018118D01*
X007406Y018118D01*
X007406Y019076D01*
X007326Y019063D01*
X007236Y019034D01*
X007152Y018991D01*
X007075Y018936D01*
X007008Y018869D01*
X006953Y018792D01*
X006910Y018708D01*
X006881Y018618D01*
X006866Y018525D01*
X006866Y018118D01*
X007406Y018118D01*
X007406Y017998D01*
X006866Y017998D01*
X006866Y017591D01*
X006881Y017497D01*
X006910Y017408D01*
X006953Y017323D01*
X007008Y017247D01*
X007075Y017180D01*
X007152Y017125D01*
X007236Y017082D01*
X007326Y017053D01*
X007406Y017040D01*
X007406Y017998D01*
X007526Y017998D01*
X007526Y018118D01*
X008066Y018118D01*
X008066Y018525D01*
X008051Y018618D01*
X008022Y018708D01*
X007979Y018792D01*
X007924Y018869D01*
X007857Y018936D01*
X007780Y018991D01*
X007696Y019034D01*
X007526Y019037D02*
X007406Y019037D01*
X007406Y018879D02*
X007526Y018879D01*
X007526Y018720D02*
X007406Y018720D01*
X007406Y018562D02*
X007526Y018562D01*
X007526Y018403D02*
X007406Y018403D01*
X007406Y018245D02*
X007526Y018245D01*
X007526Y018086D02*
X008104Y018086D01*
X008066Y017998D02*
X007526Y017998D01*
X007526Y017040D01*
X007607Y017053D01*
X007696Y017082D01*
X007780Y017125D01*
X007857Y017180D01*
X007924Y017247D01*
X007979Y017323D01*
X008022Y017408D01*
X008051Y017497D01*
X008066Y017591D01*
X008066Y017998D01*
X008066Y017928D02*
X008104Y017928D01*
X008104Y017769D02*
X008066Y017769D01*
X008066Y017611D02*
X008104Y017611D01*
X008120Y017452D02*
X008037Y017452D01*
X007958Y017294D02*
X008186Y017294D01*
X008300Y017135D02*
X007795Y017135D01*
X007526Y017135D02*
X007406Y017135D01*
X007406Y017294D02*
X007526Y017294D01*
X007526Y017452D02*
X007406Y017452D01*
X007406Y017611D02*
X007526Y017611D01*
X007526Y017769D02*
X007406Y017769D01*
X007406Y017928D02*
X007526Y017928D01*
X007406Y018086D02*
X005734Y018086D01*
X005734Y017928D02*
X006866Y017928D01*
X006866Y017769D02*
X005734Y017769D01*
X005734Y017611D02*
X006866Y017611D01*
X006895Y017452D02*
X005728Y017452D01*
X005663Y017294D02*
X006974Y017294D01*
X007137Y017135D02*
X005563Y017135D01*
X005423Y016977D02*
X008367Y016977D01*
X008365Y016818D02*
X005421Y016818D01*
X005420Y016660D02*
X008363Y016660D01*
X008361Y016501D02*
X005418Y016501D01*
X005417Y016343D02*
X008301Y016343D01*
X008139Y016184D02*
X007965Y016184D01*
X007755Y016184D02*
X007755Y016184D01*
X007755Y016026D02*
X007755Y016026D01*
X007755Y015867D02*
X007755Y015867D01*
X007755Y015725D02*
X007755Y015220D01*
X007755Y015725D01*
X007755Y015725D01*
X007755Y015709D02*
X007755Y015709D01*
X007755Y015550D02*
X007755Y015550D01*
X007755Y015392D02*
X007755Y015392D01*
X007755Y015233D02*
X007755Y015233D01*
X007877Y015233D02*
X008153Y015233D01*
X007633Y015233D02*
X005407Y015233D01*
X005450Y015392D02*
X007374Y015392D01*
X007281Y015550D02*
X005450Y015550D01*
X005450Y015709D02*
X007250Y015709D01*
X007270Y015867D02*
X005450Y015867D01*
X005450Y016026D02*
X007350Y016026D01*
X007545Y016184D02*
X005421Y016184D01*
X004538Y016501D02*
X001631Y016501D01*
X001632Y016343D02*
X004351Y016343D01*
X004189Y016184D02*
X004015Y016184D01*
X003805Y016184D02*
X003805Y016184D01*
X003805Y016026D02*
X003805Y016026D01*
X003805Y015867D02*
X003805Y015867D01*
X003805Y015725D02*
X003805Y015220D01*
X003805Y015725D01*
X003805Y015725D01*
X003805Y015709D02*
X003805Y015709D01*
X003805Y015550D02*
X003805Y015550D01*
X003805Y015392D02*
X003805Y015392D01*
X003805Y015233D02*
X003805Y015233D01*
X003683Y015233D02*
X001633Y015233D01*
X001633Y015075D02*
X003694Y015075D01*
X003562Y014916D02*
X001633Y014916D01*
X001633Y014758D02*
X003434Y014758D01*
X003340Y014599D02*
X001634Y014599D01*
X001634Y014441D02*
X003239Y014441D01*
X003037Y013965D02*
X001634Y013965D01*
X001635Y013807D02*
X003040Y013807D01*
X003040Y013648D02*
X001635Y013648D01*
X001635Y013490D02*
X003040Y013490D01*
X003040Y013331D02*
X001635Y013331D01*
X001635Y013173D02*
X003015Y013173D01*
X003015Y013014D02*
X001635Y013014D01*
X001636Y012856D02*
X003015Y012856D01*
X003015Y012697D02*
X001636Y012697D01*
X001636Y012539D02*
X003015Y012539D01*
X003015Y012380D02*
X001636Y012380D01*
X001636Y012222D02*
X003015Y012222D01*
X003015Y012063D02*
X001637Y012063D01*
X001637Y011905D02*
X003015Y011905D01*
X003015Y011746D02*
X001637Y011746D01*
X001637Y011588D02*
X003015Y011588D01*
X003015Y011429D02*
X001637Y011429D01*
X001637Y011271D02*
X003015Y011271D01*
X003015Y011112D02*
X001638Y011112D01*
X001638Y010954D02*
X003015Y010954D01*
X003015Y010795D02*
X001638Y010795D01*
X001638Y010637D02*
X003015Y010637D01*
X003015Y010478D02*
X001638Y010478D01*
X001639Y010320D02*
X003015Y010320D01*
X003015Y010161D02*
X001639Y010161D01*
X001639Y010003D02*
X003015Y010003D01*
X003015Y009844D02*
X001639Y009844D01*
X001639Y009686D02*
X003015Y009686D01*
X003015Y009527D02*
X001640Y009527D01*
X001640Y009369D02*
X003015Y009369D01*
X003015Y009210D02*
X001640Y009210D01*
X001640Y009052D02*
X003015Y009052D01*
X003015Y008893D02*
X001640Y008893D01*
X001640Y008735D02*
X003015Y008735D01*
X003015Y008576D02*
X001641Y008576D01*
X001641Y008418D02*
X003015Y008418D01*
X003015Y008259D02*
X001641Y008259D01*
X001641Y008101D02*
X003015Y008101D01*
X003015Y007942D02*
X001641Y007942D01*
X001642Y007784D02*
X003015Y007784D01*
X003015Y007625D02*
X001642Y007625D01*
X001642Y007467D02*
X003015Y007467D01*
X003015Y007308D02*
X001642Y007308D01*
X001642Y007150D02*
X003015Y007150D01*
X003015Y006991D02*
X001642Y006991D01*
X001643Y006833D02*
X003015Y006833D01*
X003015Y006674D02*
X001643Y006674D01*
X001643Y006516D02*
X003015Y006516D01*
X003015Y006357D02*
X001643Y006357D01*
X001643Y006199D02*
X003015Y006199D01*
X003015Y006040D02*
X001644Y006040D01*
X001644Y005882D02*
X003015Y005882D01*
X003015Y005723D02*
X001644Y005723D01*
X001644Y005565D02*
X003015Y005565D01*
X003015Y005406D02*
X001644Y005406D01*
X001644Y005248D02*
X003015Y005248D01*
X003015Y005089D02*
X001645Y005089D01*
X001645Y004931D02*
X003015Y004931D01*
X003015Y004772D02*
X001645Y004772D01*
X001645Y004614D02*
X003015Y004614D01*
X003015Y004455D02*
X001645Y004455D01*
X001646Y004297D02*
X003015Y004297D01*
X003015Y004138D02*
X001646Y004138D01*
X001646Y003980D02*
X003015Y003980D01*
X003015Y003821D02*
X001646Y003821D01*
X001646Y003663D02*
X003015Y003663D01*
X003015Y003504D02*
X001646Y003504D01*
X001647Y003346D02*
X003015Y003346D01*
X003015Y003187D02*
X001647Y003187D01*
X001647Y003029D02*
X003015Y003029D01*
X003015Y002870D02*
X001647Y002870D01*
X001647Y002712D02*
X003015Y002712D01*
X003060Y002553D02*
X001648Y002553D01*
X001648Y002395D02*
X003188Y002395D01*
X003346Y002236D02*
X001648Y002236D01*
X001648Y002078D02*
X001655Y002078D01*
X002655Y002078D02*
X003505Y002078D01*
X003655Y001919D02*
X002830Y001919D01*
X002964Y001761D02*
X003746Y001761D01*
X003705Y001602D02*
X003030Y001602D01*
X003088Y001444D02*
X003705Y001444D01*
X003705Y001127D02*
X003088Y001127D01*
X003088Y001285D02*
X004235Y001285D01*
X004275Y001285D02*
X006180Y001285D01*
X006180Y001270D02*
X006710Y001270D01*
X006710Y001230D01*
X006180Y001230D01*
X006180Y000856D01*
X006192Y000811D01*
X004776Y000807D01*
X004793Y000835D01*
X004805Y000881D01*
X004805Y001255D01*
X004275Y001255D01*
X004275Y001295D01*
X004805Y001295D01*
X004805Y001669D01*
X004793Y001714D01*
X004769Y001755D01*
X004740Y001784D01*
X004806Y001850D01*
X006154Y001850D01*
X006245Y001759D01*
X006216Y001730D01*
X006192Y001689D01*
X006180Y001644D01*
X006180Y001270D01*
X006180Y001127D02*
X004805Y001127D01*
X004805Y000968D02*
X006180Y000968D01*
X006180Y001444D02*
X004805Y001444D01*
X004805Y001602D02*
X006180Y001602D01*
X006243Y001761D02*
X004764Y001761D01*
X004778Y000810D02*
X005723Y000810D01*
X006750Y001230D02*
X006750Y001270D01*
X007280Y001270D01*
X007280Y001570D01*
X007846Y001570D01*
X007847Y001565D01*
X007863Y001550D01*
X007847Y001534D01*
X007799Y001417D01*
X007799Y000974D01*
X007847Y000857D01*
X007887Y000817D01*
X007269Y000815D01*
X007280Y000856D01*
X007280Y001230D01*
X006750Y001230D01*
X007280Y001285D02*
X007799Y001285D01*
X007799Y001127D02*
X007280Y001127D01*
X007280Y000968D02*
X007801Y000968D01*
X007810Y001444D02*
X007280Y001444D01*
X009585Y001761D02*
X009662Y001761D01*
X009663Y001919D02*
X009596Y001919D01*
X012913Y003460D02*
X013832Y003460D01*
X014013Y003534D01*
X014056Y003577D01*
X014056Y003198D01*
X014110Y003066D01*
X014211Y002965D01*
X014347Y002830D01*
X014316Y002835D01*
X014280Y002835D01*
X014244Y002835D01*
X014172Y002823D01*
X014103Y002801D01*
X014039Y002768D01*
X013980Y002726D01*
X013929Y002674D01*
X013887Y002616D01*
X013854Y002551D01*
X013837Y002499D01*
X013810Y002563D01*
X012913Y003460D01*
X013027Y003346D02*
X014056Y003346D01*
X014056Y003504D02*
X013940Y003504D01*
X014013Y003534D02*
X014013Y003534D01*
X014060Y003187D02*
X013186Y003187D01*
X013344Y003029D02*
X014148Y003029D01*
X014306Y002870D02*
X013503Y002870D01*
X013661Y002712D02*
X013966Y002712D01*
X013855Y002553D02*
X013814Y002553D01*
X014280Y002553D02*
X014280Y002553D01*
X014280Y002395D02*
X014280Y002395D01*
X014280Y002375D02*
X014280Y002835D01*
X014280Y002375D01*
X014280Y002375D01*
X014280Y002712D02*
X014280Y002712D01*
X016314Y003029D02*
X018534Y003029D01*
X018520Y003063D02*
X018605Y002858D01*
X018763Y002700D01*
X018969Y002615D01*
X019191Y002615D01*
X019397Y002700D01*
X019555Y002858D01*
X019640Y003063D01*
X019640Y003286D01*
X019555Y003492D01*
X019397Y003650D01*
X019191Y003735D01*
X018969Y003735D01*
X018763Y003650D01*
X018605Y003492D01*
X018520Y003286D01*
X018520Y003063D01*
X018520Y003187D02*
X016314Y003187D01*
X016314Y003346D02*
X018545Y003346D01*
X018618Y003504D02*
X016314Y003504D01*
X016314Y003663D02*
X018795Y003663D01*
X019365Y003663D02*
X020695Y003663D01*
X020663Y003650D02*
X020505Y003492D01*
X020420Y003286D01*
X020420Y003063D01*
X020505Y002858D01*
X020663Y002700D01*
X020869Y002615D01*
X021091Y002615D01*
X021297Y002700D01*
X021455Y002858D01*
X021540Y003063D01*
X021540Y003286D01*
X021455Y003492D01*
X021297Y003650D01*
X021091Y003735D01*
X020869Y003735D01*
X020663Y003650D01*
X020518Y003504D02*
X019542Y003504D01*
X019615Y003346D02*
X020445Y003346D01*
X020420Y003187D02*
X019640Y003187D01*
X019626Y003029D02*
X020434Y003029D01*
X020500Y002870D02*
X019560Y002870D01*
X019409Y002712D02*
X020651Y002712D01*
X021309Y002712D02*
X022955Y002712D01*
X022955Y002870D02*
X021460Y002870D01*
X021526Y003029D02*
X022955Y003029D01*
X022955Y003187D02*
X021540Y003187D01*
X021515Y003346D02*
X022955Y003346D01*
X022955Y003504D02*
X021442Y003504D01*
X021265Y003663D02*
X022955Y003663D01*
X022955Y003821D02*
X021160Y003821D01*
X021272Y003980D02*
X022955Y003980D01*
X022955Y004138D02*
X021295Y004138D01*
X021295Y004297D02*
X022955Y004297D01*
X022955Y004455D02*
X021295Y004455D01*
X021295Y004614D02*
X022955Y004614D01*
X022955Y004772D02*
X021295Y004772D01*
X021295Y004931D02*
X022955Y004931D01*
X022955Y005089D02*
X021295Y005089D01*
X021295Y005248D02*
X022955Y005248D01*
X022955Y005406D02*
X021295Y005406D01*
X021295Y005565D02*
X022955Y005565D01*
X022955Y005723D02*
X021295Y005723D01*
X021295Y005882D02*
X022955Y005882D01*
X022955Y006040D02*
X021295Y006040D01*
X021295Y006199D02*
X022955Y006199D01*
X022955Y006357D02*
X021231Y006357D01*
X021086Y006516D02*
X022955Y006516D01*
X022955Y006674D02*
X021095Y006674D01*
X021086Y006833D02*
X022955Y006833D01*
X022955Y006991D02*
X021021Y006991D01*
X020906Y007150D02*
X022955Y007150D01*
X022955Y007308D02*
X021000Y007308D01*
X021066Y007467D02*
X022955Y007467D01*
X022955Y007625D02*
X021095Y007625D01*
X021095Y007784D02*
X022955Y007784D01*
X022955Y007942D02*
X021041Y007942D01*
X020955Y008101D02*
X022955Y008101D01*
X022955Y008259D02*
X020796Y008259D01*
X020726Y008418D02*
X022955Y008418D01*
X022955Y008576D02*
X020724Y008576D01*
X020722Y008735D02*
X022955Y008735D01*
X022955Y008893D02*
X020713Y008893D01*
X020623Y009052D02*
X022955Y009052D01*
X022955Y009210D02*
X020463Y009210D01*
X020303Y009369D02*
X022955Y009369D01*
X022955Y009527D02*
X020144Y009527D01*
X019985Y009686D02*
X022955Y009686D01*
X022955Y009844D02*
X019825Y009844D01*
X019666Y010003D02*
X022955Y010003D01*
X022955Y010161D02*
X019506Y010161D01*
X019347Y010320D02*
X022955Y010320D01*
X022955Y010478D02*
X019187Y010478D01*
X019028Y010637D02*
X022955Y010637D01*
X022955Y010795D02*
X018868Y010795D01*
X018709Y010954D02*
X022955Y010954D01*
X022955Y011112D02*
X018550Y011112D01*
X018390Y011271D02*
X022955Y011271D01*
X022955Y011429D02*
X018231Y011429D01*
X018071Y011588D02*
X022955Y011588D01*
X022955Y011746D02*
X017912Y011746D01*
X017752Y011905D02*
X022955Y011905D01*
X022955Y012063D02*
X017593Y012063D01*
X017433Y012222D02*
X022955Y012222D01*
X022955Y012380D02*
X017274Y012380D01*
X017114Y012539D02*
X022955Y012539D01*
X022955Y012697D02*
X016955Y012697D01*
X016796Y012856D02*
X022955Y012856D01*
X022955Y013014D02*
X016636Y013014D01*
X016477Y013173D02*
X022955Y013173D01*
X022955Y013331D02*
X016317Y013331D01*
X016158Y013490D02*
X022955Y013490D01*
X022955Y013648D02*
X016007Y013648D01*
X016165Y013807D02*
X022955Y013807D01*
X022955Y013965D02*
X016324Y013965D01*
X016482Y014124D02*
X022955Y014124D01*
X022955Y014282D02*
X016641Y014282D01*
X016799Y014441D02*
X022955Y014441D01*
X022955Y014599D02*
X016958Y014599D01*
X017116Y014758D02*
X022955Y014758D01*
X022955Y014916D02*
X017275Y014916D01*
X019265Y017294D02*
X019596Y017294D01*
X018358Y018403D02*
X018202Y018403D01*
X018233Y018562D02*
X022955Y018562D01*
X022955Y018720D02*
X018391Y018720D01*
X017735Y019196D02*
X016283Y019196D01*
X016283Y019354D02*
X017894Y019354D01*
X018052Y019513D02*
X016253Y019513D01*
X016185Y019671D02*
X018211Y019671D01*
X018369Y019830D02*
X016027Y019830D01*
X015389Y020464D02*
X021821Y020464D01*
X021662Y020622D02*
X015141Y020622D01*
X015082Y019513D02*
X015039Y019513D01*
X015832Y018720D02*
X017260Y018720D01*
X017101Y018562D02*
X015676Y018562D01*
X015835Y018403D02*
X016943Y018403D01*
X016784Y018245D02*
X015993Y018245D01*
X016152Y018086D02*
X016626Y018086D01*
X016467Y017928D02*
X016310Y017928D01*
X016445Y017340D02*
X018965Y019860D01*
X017577Y019037D02*
X016217Y019037D01*
X016098Y018879D02*
X017418Y018879D01*
X015581Y017611D02*
X013033Y017611D01*
X012936Y017769D02*
X015422Y017769D01*
X015264Y017928D02*
X012752Y017928D01*
X012924Y018720D02*
X013136Y018720D01*
X013924Y018720D02*
X014136Y018720D01*
X012136Y018720D02*
X011601Y018720D01*
X011530Y018720D02*
X011530Y018720D01*
X011530Y018715D02*
X011530Y019175D01*
X011530Y019175D01*
X011530Y018715D01*
X011530Y018879D02*
X011530Y018879D01*
X011530Y019037D02*
X011530Y019037D01*
X011530Y019196D02*
X011530Y019196D01*
X011530Y019354D02*
X011530Y019354D01*
X011530Y019513D02*
X011530Y019513D01*
X011842Y019513D02*
X012021Y019513D01*
X011955Y019354D02*
X011955Y019354D01*
X012003Y018879D02*
X011884Y018879D01*
X009765Y019513D02*
X001628Y019513D01*
X001628Y019671D02*
X009766Y019671D01*
X009766Y019830D02*
X001628Y019830D01*
X001627Y019988D02*
X009767Y019988D01*
X009768Y020147D02*
X001627Y020147D01*
X001627Y020305D02*
X001911Y020305D01*
X002349Y020305D02*
X009769Y020305D01*
X009770Y020464D02*
X002689Y020464D01*
X002848Y020622D02*
X009771Y020622D01*
X009772Y020781D02*
X002956Y020781D01*
X003022Y020939D02*
X009773Y020939D01*
X009774Y021098D02*
X003063Y021098D01*
X003063Y021256D02*
X009775Y021256D01*
X009776Y021415D02*
X003062Y021415D01*
X002996Y021573D02*
X009777Y021573D01*
X010523Y021573D02*
X021549Y021573D01*
X021484Y021415D02*
X010521Y021415D01*
X008209Y018879D02*
X007914Y018879D01*
X008016Y018720D02*
X008143Y018720D01*
X008104Y018562D02*
X008060Y018562D01*
X008066Y018403D02*
X008104Y018403D01*
X008104Y018245D02*
X008066Y018245D01*
X007246Y019037D02*
X005456Y019037D01*
X005615Y018879D02*
X007018Y018879D01*
X006916Y018720D02*
X005684Y018720D01*
X005734Y018562D02*
X006872Y018562D01*
X006866Y018403D02*
X005734Y018403D01*
X005734Y018245D02*
X006866Y018245D01*
X004532Y019037D02*
X003759Y019037D01*
X003757Y019038D02*
X003676Y019051D01*
X003676Y018093D01*
X003556Y018093D01*
X003556Y019051D01*
X003476Y019038D01*
X003386Y019009D01*
X003302Y018966D01*
X003225Y018911D01*
X003158Y018844D01*
X003103Y018767D01*
X003060Y018683D01*
X003031Y018593D01*
X003016Y018500D01*
X003016Y018093D01*
X003556Y018093D01*
X003556Y017973D01*
X003016Y017973D01*
X003016Y017566D01*
X003031Y017472D01*
X003060Y017383D01*
X003103Y017298D01*
X003158Y017222D01*
X003225Y017155D01*
X003302Y017100D01*
X003386Y017057D01*
X003476Y017028D01*
X003556Y017015D01*
X003556Y017973D01*
X003676Y017973D01*
X003676Y018093D01*
X004216Y018093D01*
X004216Y018500D01*
X004201Y018593D01*
X004172Y018683D01*
X004129Y018767D01*
X004074Y018844D01*
X004007Y018911D01*
X003930Y018966D01*
X003846Y019009D01*
X003757Y019038D01*
X003676Y019037D02*
X003556Y019037D01*
X003473Y019037D02*
X001628Y019037D01*
X001629Y018879D02*
X003193Y018879D01*
X003079Y018720D02*
X001629Y018720D01*
X001629Y018562D02*
X003026Y018562D01*
X003016Y018403D02*
X001629Y018403D01*
X001629Y018245D02*
X003016Y018245D01*
X003016Y017928D02*
X001630Y017928D01*
X001630Y018086D02*
X003556Y018086D01*
X003676Y018086D02*
X004254Y018086D01*
X004216Y017973D02*
X003676Y017973D01*
X003676Y017015D01*
X003757Y017028D01*
X003846Y017057D01*
X003930Y017100D01*
X004007Y017155D01*
X004074Y017222D01*
X004129Y017298D01*
X004172Y017383D01*
X004201Y017472D01*
X004216Y017566D01*
X004216Y017973D01*
X004216Y017928D02*
X004254Y017928D01*
X004254Y017769D02*
X004216Y017769D01*
X004216Y017611D02*
X004254Y017611D01*
X004259Y017452D02*
X004195Y017452D01*
X004126Y017294D02*
X004325Y017294D01*
X004425Y017135D02*
X003980Y017135D01*
X003676Y017135D02*
X003556Y017135D01*
X003556Y017294D02*
X003676Y017294D01*
X003676Y017452D02*
X003556Y017452D01*
X003556Y017611D02*
X003676Y017611D01*
X003676Y017769D02*
X003556Y017769D01*
X003556Y017928D02*
X003676Y017928D01*
X003676Y018245D02*
X003556Y018245D01*
X003556Y018403D02*
X003676Y018403D01*
X003676Y018562D02*
X003556Y018562D01*
X003556Y018720D02*
X003676Y018720D01*
X003676Y018879D02*
X003556Y018879D01*
X004039Y018879D02*
X004373Y018879D01*
X004304Y018720D02*
X004153Y018720D01*
X004206Y018562D02*
X004254Y018562D01*
X004254Y018403D02*
X004216Y018403D01*
X004216Y018245D02*
X004254Y018245D01*
X003016Y017769D02*
X001630Y017769D01*
X001630Y017611D02*
X003016Y017611D01*
X003037Y017452D02*
X001630Y017452D01*
X001631Y017294D02*
X003106Y017294D01*
X003253Y017135D02*
X001631Y017135D01*
X001631Y016977D02*
X004543Y016977D01*
X004541Y016818D02*
X001631Y016818D01*
X001631Y016660D02*
X004540Y016660D01*
X003595Y016184D02*
X001632Y016184D01*
X001632Y016026D02*
X003400Y016026D01*
X003320Y015867D02*
X001632Y015867D01*
X001632Y015709D02*
X003300Y015709D01*
X003331Y015550D02*
X001633Y015550D01*
X001633Y015392D02*
X003424Y015392D01*
X005815Y013965D02*
X005995Y013965D01*
X006815Y013965D02*
X009733Y013965D01*
X009732Y013807D02*
X006974Y013807D01*
X007049Y013648D02*
X009731Y013648D01*
X009730Y013490D02*
X007095Y013490D01*
X007095Y013331D02*
X009729Y013331D01*
X009728Y013173D02*
X007058Y013173D01*
X006992Y013014D02*
X009727Y013014D01*
X009726Y012856D02*
X006837Y012856D01*
X006983Y012697D02*
X009725Y012697D01*
X009724Y012539D02*
X007053Y012539D01*
X007095Y012380D02*
X009724Y012380D01*
X009723Y012222D02*
X007095Y012222D01*
X007054Y012063D02*
X009722Y012063D01*
X009721Y011905D02*
X006986Y011905D01*
X007555Y010637D02*
X009646Y010637D01*
X009646Y010478D02*
X007661Y010478D01*
X007700Y010320D02*
X009646Y010320D01*
X009646Y010161D02*
X007690Y010161D01*
X007624Y010003D02*
X009646Y010003D01*
X009646Y009844D02*
X007443Y009844D01*
X007318Y009686D02*
X009646Y009686D01*
X009646Y009527D02*
X007241Y009527D01*
X007163Y009369D02*
X009646Y009369D01*
X005037Y007942D02*
X004795Y007942D01*
X004792Y007784D02*
X005038Y007784D01*
X004268Y007784D02*
X003895Y007784D01*
X003895Y007942D02*
X004265Y007942D01*
X004086Y008101D02*
X003895Y008101D01*
X003895Y008259D02*
X004005Y008259D01*
X004087Y007625D02*
X003895Y007625D01*
X003895Y007467D02*
X004006Y007467D01*
X005525Y006284D02*
X005541Y006229D01*
X005555Y006174D01*
X005006Y005723D02*
X004844Y005723D01*
X004725Y005565D02*
X005069Y005565D01*
X004155Y009844D02*
X004079Y009844D01*
X004079Y010003D02*
X004155Y010003D01*
X004385Y010637D02*
X004425Y010637D01*
X004425Y010795D02*
X004385Y010795D01*
X004385Y010954D02*
X004425Y010954D01*
X004425Y011112D02*
X004385Y011112D01*
X004385Y011271D02*
X004425Y011271D01*
X004425Y011429D02*
X004385Y011429D01*
X004385Y011588D02*
X004425Y011588D01*
X004022Y011905D02*
X003895Y011905D01*
X003895Y012063D02*
X003908Y012063D01*
X003895Y012510D02*
X003895Y013052D01*
X003920Y013112D01*
X003920Y013140D01*
X003935Y013112D01*
X003985Y013042D01*
X004047Y012980D01*
X004117Y012929D01*
X004194Y012890D01*
X004276Y012863D01*
X004362Y012850D01*
X004276Y012836D01*
X004194Y012810D01*
X004117Y012770D01*
X004047Y012719D01*
X003985Y012658D01*
X003935Y012588D01*
X003895Y012511D01*
X003895Y012510D01*
X003895Y012539D02*
X003910Y012539D01*
X003895Y012697D02*
X004025Y012697D01*
X003895Y012856D02*
X004324Y012856D01*
X004013Y013014D02*
X003895Y013014D01*
X014943Y011112D02*
X015175Y011112D01*
X015072Y011271D02*
X014977Y011271D01*
X015036Y010954D02*
X015997Y010954D01*
X016153Y010795D02*
X015095Y010795D01*
X015095Y010637D02*
X016309Y010637D01*
X016465Y010478D02*
X015070Y010478D01*
X015005Y010320D02*
X016622Y010320D01*
X016778Y010161D02*
X014894Y010161D01*
X015016Y010003D02*
X016934Y010003D01*
X017090Y009844D02*
X015082Y009844D01*
X015095Y009686D02*
X017246Y009686D01*
X017402Y009527D02*
X015091Y009527D01*
X015025Y009369D02*
X017559Y009369D01*
X017715Y009210D02*
X014916Y009210D01*
X014996Y009052D02*
X017871Y009052D01*
X018027Y008893D02*
X015061Y008893D01*
X015095Y008735D02*
X018183Y008735D01*
X018340Y008576D02*
X015095Y008576D01*
X015045Y008418D02*
X018496Y008418D01*
X018528Y008259D02*
X014965Y008259D01*
X014955Y008101D02*
X018533Y008101D01*
X018538Y007942D02*
X015041Y007942D01*
X015095Y007784D02*
X018542Y007784D01*
X018547Y007625D02*
X015095Y007625D01*
X015066Y007467D02*
X018552Y007467D01*
X018556Y007308D02*
X015225Y007308D01*
X015383Y007150D02*
X018538Y007150D01*
X018459Y006991D02*
X015542Y006991D01*
X015700Y006833D02*
X018440Y006833D01*
X018469Y006674D02*
X015859Y006674D01*
X016017Y006516D02*
X018562Y006516D01*
X018810Y006357D02*
X016176Y006357D01*
X016291Y006199D02*
X019295Y006199D01*
X019295Y006357D02*
X019070Y006357D01*
X019295Y006040D02*
X016314Y006040D01*
X016314Y005882D02*
X019295Y005882D01*
X019295Y005723D02*
X016314Y005723D01*
X016314Y005565D02*
X019295Y005565D01*
X019295Y005406D02*
X016314Y005406D01*
X016314Y005248D02*
X019295Y005248D01*
X019295Y005089D02*
X016314Y005089D01*
X016314Y004931D02*
X019295Y004931D01*
X019295Y004772D02*
X016314Y004772D01*
X016314Y004614D02*
X019295Y004614D01*
X019356Y004455D02*
X016314Y004455D01*
X016314Y004297D02*
X019515Y004297D01*
X019673Y004138D02*
X016314Y004138D01*
X016314Y003980D02*
X019832Y003980D01*
X019990Y003821D02*
X016314Y003821D01*
X016633Y002870D02*
X018600Y002870D01*
X018751Y002712D02*
X016790Y002712D01*
X016855Y002553D02*
X022955Y002553D01*
X022955Y002395D02*
X016880Y002395D01*
X016872Y002236D02*
X022035Y002236D01*
X021813Y002078D02*
X016806Y002078D01*
X016673Y001919D02*
X021660Y001919D01*
X021594Y001761D02*
X016243Y001761D01*
X016335Y001602D02*
X021529Y001602D01*
X021522Y001444D02*
X016380Y001444D01*
X016380Y001285D02*
X021522Y001285D01*
X021558Y001127D02*
X016327Y001127D01*
X016222Y000968D02*
X021623Y000968D01*
X022875Y002236D02*
X022955Y002236D01*
X003732Y000810D02*
X002973Y000810D01*
X003038Y000968D02*
X003705Y000968D01*
D27*
X013080Y008400D03*
X013430Y012775D03*
X009055Y013725D03*
D28*
X002155Y001275D03*
X022455Y001400D03*
X022405Y021200D03*
X002130Y021225D03*
M02*
