G75*
%MOIN*%
%OFA0B0*%
%FSLAX24Y24*%
%IPPOS*%
%LPD*%
%AMOC8*
5,1,8,0,0,1.08239X$1,22.5*
%
%ADD10C,0.0040*%
%ADD11C,0.0020*%
%ADD12C,0.0030*%
%ADD13C,0.0000*%
%ADD14C,0.0050*%
%ADD15C,0.0160*%
%ADD16C,0.0060*%
%ADD17C,0.0080*%
%ADD18R,0.0413X0.1447*%
%ADD19C,0.0010*%
%ADD20R,0.0079X0.0079*%
D10*
X002107Y004950D02*
X002107Y005310D01*
X002287Y005310D01*
X002347Y005250D01*
X002347Y005130D01*
X002287Y005070D01*
X002107Y005070D01*
X002475Y004950D02*
X002595Y005070D01*
X002715Y004950D01*
X002715Y005310D01*
X002843Y005310D02*
X002963Y005190D01*
X003084Y005310D01*
X003084Y004950D01*
X003212Y005010D02*
X003272Y004950D01*
X003392Y004950D01*
X003452Y005010D01*
X003452Y005250D01*
X003392Y005310D01*
X003272Y005310D01*
X003212Y005250D01*
X003212Y005190D01*
X003272Y005130D01*
X003452Y005130D01*
X002843Y004950D02*
X002843Y005310D01*
X002475Y005310D02*
X002475Y004950D01*
X002535Y006075D02*
X002655Y006075D01*
X002715Y006135D01*
X002715Y006435D01*
X002843Y006435D02*
X003084Y006435D01*
X002963Y006435D02*
X002963Y006075D01*
X003212Y006135D02*
X003212Y006195D01*
X003272Y006255D01*
X003392Y006255D01*
X003452Y006195D01*
X003452Y006135D01*
X003392Y006075D01*
X003272Y006075D01*
X003212Y006135D01*
X003272Y006255D02*
X003212Y006315D01*
X003212Y006375D01*
X003272Y006435D01*
X003392Y006435D01*
X003452Y006375D01*
X003452Y006315D01*
X003392Y006255D01*
X002535Y006075D02*
X002475Y006135D01*
X002475Y006435D01*
X002347Y006375D02*
X002347Y006135D01*
X002287Y006075D01*
X002167Y006075D01*
X002107Y006135D01*
X002107Y006375D01*
X002167Y006435D01*
X002287Y006435D01*
X002347Y006375D01*
X002287Y007200D02*
X002347Y007260D01*
X002347Y007500D01*
X002287Y007560D01*
X002167Y007560D01*
X002107Y007500D01*
X002107Y007260D01*
X002167Y007200D01*
X002287Y007200D01*
X002475Y007260D02*
X002475Y007560D01*
X002715Y007560D02*
X002715Y007260D01*
X002655Y007200D01*
X002535Y007200D01*
X002475Y007260D01*
X002843Y007560D02*
X003084Y007560D01*
X002963Y007560D02*
X002963Y007200D01*
X003212Y007200D02*
X003212Y007260D01*
X003452Y007500D01*
X003452Y007560D01*
X003212Y007560D01*
X003272Y008325D02*
X003392Y008325D01*
X003452Y008385D01*
X003452Y008445D01*
X003392Y008505D01*
X003212Y008505D01*
X003212Y008385D01*
X003272Y008325D01*
X003084Y008325D02*
X003084Y008685D01*
X002963Y008565D01*
X002843Y008685D01*
X002843Y008325D01*
X002715Y008325D02*
X002715Y008685D01*
X002475Y008685D02*
X002475Y008325D01*
X002595Y008445D01*
X002715Y008325D01*
X002347Y008505D02*
X002287Y008445D01*
X002107Y008445D01*
X002107Y008325D02*
X002107Y008685D01*
X002287Y008685D01*
X002347Y008625D01*
X002347Y008505D01*
X003212Y008505D02*
X003332Y008625D01*
X003452Y008685D01*
X003267Y011075D02*
X003147Y011075D01*
X003087Y011135D01*
X003087Y011255D02*
X003207Y011315D01*
X003267Y011315D01*
X003327Y011255D01*
X003327Y011135D01*
X003267Y011075D01*
X003087Y011255D02*
X003087Y011435D01*
X003327Y011435D01*
X002959Y011435D02*
X002959Y011075D01*
X002718Y011075D02*
X002718Y011435D01*
X002838Y011315D01*
X002959Y011435D01*
X002590Y011435D02*
X002590Y011075D01*
X002470Y011195D01*
X002350Y011075D01*
X002350Y011435D01*
X002222Y011375D02*
X002222Y011255D01*
X002162Y011195D01*
X001982Y011195D01*
X001982Y011075D02*
X001982Y011435D01*
X002162Y011435D01*
X002222Y011375D01*
X002162Y012200D02*
X002042Y012200D01*
X001982Y012260D01*
X001982Y012500D01*
X002042Y012560D01*
X002162Y012560D01*
X002222Y012500D01*
X002222Y012260D01*
X002162Y012200D01*
X002350Y012260D02*
X002410Y012200D01*
X002530Y012200D01*
X002590Y012260D01*
X002590Y012560D01*
X002718Y012560D02*
X002959Y012560D01*
X002838Y012560D02*
X002838Y012200D01*
X003087Y012380D02*
X003327Y012380D01*
X003267Y012560D02*
X003087Y012380D01*
X003267Y012200D02*
X003267Y012560D01*
X003267Y013300D02*
X003147Y013300D01*
X003087Y013360D01*
X002959Y013300D02*
X002959Y013660D01*
X002838Y013540D01*
X002718Y013660D01*
X002718Y013300D01*
X002590Y013300D02*
X002590Y013660D01*
X002350Y013660D02*
X002350Y013300D01*
X002470Y013420D01*
X002590Y013300D01*
X002222Y013480D02*
X002222Y013600D01*
X002162Y013660D01*
X001982Y013660D01*
X001982Y013300D01*
X001982Y013420D02*
X002162Y013420D01*
X002222Y013480D01*
X003087Y013600D02*
X003147Y013660D01*
X003267Y013660D01*
X003327Y013600D01*
X003327Y013540D01*
X003267Y013480D01*
X003327Y013420D01*
X003327Y013360D01*
X003267Y013300D01*
X003267Y013480D02*
X003207Y013480D01*
X002350Y012560D02*
X002350Y012260D01*
X004093Y016864D02*
X004400Y017324D01*
X004554Y017248D02*
X004630Y017324D01*
X004784Y017324D01*
X004861Y017248D01*
X004861Y017171D01*
X004554Y016864D01*
X004861Y016864D01*
X004400Y016864D02*
X004093Y017324D01*
X005725Y017809D02*
X006185Y017809D01*
X006185Y017962D02*
X006185Y017655D01*
X005955Y017502D02*
X005955Y017195D01*
X006108Y017348D02*
X005801Y017348D01*
X005878Y017655D02*
X005725Y017809D01*
X005801Y018116D02*
X005725Y018192D01*
X005725Y018346D01*
X005801Y018423D01*
X005878Y018423D01*
X006185Y018116D01*
X006185Y018423D01*
X006032Y018576D02*
X006185Y018729D01*
X006032Y018883D01*
X005725Y018883D01*
X005725Y018576D02*
X006032Y018576D01*
X007943Y017349D02*
X008250Y016889D01*
X008404Y016889D02*
X008711Y016889D01*
X008557Y016889D02*
X008557Y017349D01*
X008404Y017196D01*
X008250Y017349D02*
X007943Y016889D01*
X009751Y017648D02*
X010058Y017648D01*
X009905Y017495D02*
X009905Y017802D01*
X009905Y017955D02*
X009828Y018109D01*
X009828Y018185D01*
X009905Y018262D01*
X010058Y018262D01*
X010135Y018185D01*
X010135Y018032D01*
X010058Y017955D01*
X009905Y017955D02*
X009675Y017955D01*
X009675Y018262D01*
X009675Y018416D02*
X009982Y018416D01*
X010135Y018569D01*
X009982Y018723D01*
X009675Y018723D01*
X014084Y018397D02*
X014084Y018090D01*
X014161Y018014D01*
X014314Y018014D01*
X014391Y018090D01*
X014545Y018014D02*
X014545Y018321D01*
X014698Y018474D01*
X014851Y018321D01*
X014851Y018014D01*
X015005Y018014D02*
X015005Y018474D01*
X015312Y018014D01*
X015312Y018474D01*
X014851Y018244D02*
X014545Y018244D01*
X014391Y018397D02*
X014314Y018474D01*
X014161Y018474D01*
X014084Y018397D01*
X016078Y005655D02*
X016232Y005502D01*
X016232Y005195D01*
X016385Y005195D02*
X016385Y005655D01*
X016616Y005655D01*
X016692Y005578D01*
X016692Y005425D01*
X016616Y005348D01*
X016385Y005348D01*
X016539Y005348D02*
X016692Y005195D01*
X016846Y005195D02*
X017076Y005195D01*
X017153Y005272D01*
X017153Y005578D01*
X017076Y005655D01*
X016846Y005655D01*
X016846Y005195D01*
X017306Y005272D02*
X017306Y005655D01*
X017613Y005655D02*
X017613Y005272D01*
X017536Y005195D01*
X017383Y005195D01*
X017306Y005272D01*
X017767Y005195D02*
X017920Y005195D01*
X017843Y005195D02*
X017843Y005655D01*
X017767Y005655D02*
X017920Y005655D01*
X018073Y005655D02*
X018380Y005195D01*
X018380Y005655D01*
X018534Y005578D02*
X018534Y005272D01*
X018611Y005195D01*
X018764Y005195D01*
X018841Y005272D01*
X018841Y005578D01*
X018764Y005655D01*
X018611Y005655D01*
X018534Y005578D01*
X018073Y005655D02*
X018073Y005195D01*
X016232Y005425D02*
X015925Y005425D01*
X015925Y005502D02*
X016078Y005655D01*
X015925Y005502D02*
X015925Y005195D01*
X015994Y003536D02*
X016300Y003076D01*
X016300Y003536D01*
X016454Y003460D02*
X016454Y003153D01*
X016531Y003076D01*
X016684Y003076D01*
X016761Y003153D01*
X016914Y003076D02*
X017221Y003076D01*
X017068Y003306D02*
X016914Y003306D01*
X016761Y003460D02*
X016684Y003536D01*
X016531Y003536D01*
X016454Y003460D01*
X016914Y003536D02*
X016914Y003076D01*
X016914Y003536D02*
X017221Y003536D01*
X015994Y003536D02*
X015994Y003076D01*
X015840Y003076D02*
X015840Y003383D01*
X015687Y003536D01*
X015533Y003383D01*
X015533Y003076D01*
X015380Y003153D02*
X015303Y003076D01*
X015149Y003076D01*
X015073Y003153D01*
X014919Y003153D02*
X014843Y003076D01*
X014689Y003076D01*
X014612Y003153D01*
X014689Y003306D02*
X014843Y003306D01*
X014919Y003229D01*
X014919Y003153D01*
X014689Y003306D02*
X014612Y003383D01*
X014612Y003460D01*
X014689Y003536D01*
X014843Y003536D01*
X014919Y003460D01*
X015073Y003460D02*
X015073Y003383D01*
X015149Y003306D01*
X015303Y003306D01*
X015380Y003229D01*
X015380Y003153D01*
X015533Y003306D02*
X015840Y003306D01*
X015380Y003460D02*
X015303Y003536D01*
X015149Y003536D01*
X015073Y003460D01*
X014459Y003536D02*
X014305Y003536D01*
X014382Y003536D02*
X014382Y003076D01*
X014305Y003076D02*
X014459Y003076D01*
X014152Y003153D02*
X014152Y003536D01*
X013845Y003536D02*
X013845Y003153D01*
X013922Y003076D01*
X014075Y003076D01*
X014152Y003153D01*
X013692Y003306D02*
X013615Y003229D01*
X013385Y003229D01*
X013385Y003076D02*
X013385Y003536D01*
X013615Y003536D01*
X013692Y003460D01*
X013692Y003306D01*
D11*
X008660Y002012D02*
X008587Y002086D01*
X008440Y002086D01*
X008440Y001939D02*
X008587Y001939D01*
X008660Y002012D01*
X008623Y001865D02*
X008660Y001828D01*
X008660Y001755D01*
X008623Y001718D01*
X008550Y001718D02*
X008513Y001791D01*
X008513Y001828D01*
X008550Y001865D01*
X008623Y001865D01*
X008550Y001718D02*
X008440Y001718D01*
X008440Y001865D01*
X008697Y001644D02*
X008697Y001497D01*
X008623Y001423D02*
X008477Y001423D01*
X008440Y001386D01*
X008440Y001276D01*
X008660Y001276D01*
X008660Y001386D01*
X008623Y001423D01*
X008660Y001202D02*
X008660Y001055D01*
X008440Y001055D01*
X008440Y001202D01*
X008550Y001128D02*
X008550Y001055D01*
X008660Y000981D02*
X008660Y000834D01*
X008440Y000834D01*
X005439Y009435D02*
X005513Y009508D01*
X005513Y009655D01*
X005366Y009655D02*
X005366Y009508D01*
X005439Y009435D01*
X005292Y009435D02*
X005145Y009435D01*
X005292Y009582D01*
X005292Y009618D01*
X005255Y009655D01*
X005182Y009655D01*
X005145Y009618D01*
X004997Y009655D02*
X004997Y009435D01*
X004924Y009435D02*
X005071Y009435D01*
X004924Y009582D02*
X004997Y009655D01*
X004850Y009398D02*
X004703Y009398D01*
X004629Y009472D02*
X004592Y009435D01*
X004482Y009435D01*
X004482Y009655D01*
X004592Y009655D01*
X004629Y009618D01*
X004629Y009472D01*
X004408Y009435D02*
X004261Y009435D01*
X004261Y009655D01*
X004408Y009655D01*
X004334Y009545D02*
X004261Y009545D01*
X004187Y009435D02*
X004040Y009435D01*
X004040Y009655D01*
X002758Y017835D02*
X002612Y017835D01*
X002575Y017872D01*
X002575Y017945D01*
X002612Y017982D01*
X002685Y017982D02*
X002685Y017908D01*
X002685Y017982D02*
X002758Y017982D01*
X002795Y017945D01*
X002795Y017872D01*
X002758Y017835D01*
X002795Y018056D02*
X002575Y018056D01*
X002795Y018203D01*
X002575Y018203D01*
X002575Y018277D02*
X002575Y018387D01*
X002612Y018424D01*
X002758Y018424D01*
X002795Y018387D01*
X002795Y018277D01*
X002575Y018277D01*
X006475Y018278D02*
X006695Y018278D01*
X006475Y018131D01*
X006695Y018131D01*
X006658Y018057D02*
X006585Y018057D01*
X006585Y017983D01*
X006512Y017910D02*
X006658Y017910D01*
X006695Y017947D01*
X006695Y018020D01*
X006658Y018057D01*
X006512Y018057D02*
X006475Y018020D01*
X006475Y017947D01*
X006512Y017910D01*
X006475Y018352D02*
X006475Y018462D01*
X006512Y018499D01*
X006658Y018499D01*
X006695Y018462D01*
X006695Y018352D01*
X006475Y018352D01*
D12*
X002140Y002190D02*
X002043Y002190D01*
X001995Y002238D01*
X001995Y002432D01*
X002043Y002480D01*
X002140Y002480D01*
X002188Y002432D01*
X002188Y002335D02*
X002092Y002335D01*
X002188Y002335D02*
X002188Y002238D01*
X002140Y002190D01*
X002290Y002190D02*
X002290Y002480D01*
X002483Y002190D01*
X002483Y002480D01*
X002584Y002480D02*
X002729Y002480D01*
X002778Y002432D01*
X002778Y002238D01*
X002729Y002190D01*
X002584Y002190D01*
X002584Y002480D01*
X002631Y002815D02*
X002728Y002912D01*
X002728Y003105D01*
X002534Y003105D02*
X002534Y002912D01*
X002631Y002815D01*
X002433Y002815D02*
X002240Y002815D01*
X002433Y003008D01*
X002433Y003057D01*
X002385Y003105D01*
X002288Y003105D01*
X002240Y003057D01*
X002042Y003105D02*
X002042Y002815D01*
X002138Y002815D02*
X001945Y002815D01*
X001945Y003008D02*
X002042Y003105D01*
X002040Y003365D02*
X002088Y003413D01*
X002088Y003607D01*
X002040Y003655D01*
X001895Y003655D01*
X001895Y003365D01*
X002040Y003365D01*
X002190Y003365D02*
X002190Y003558D01*
X002286Y003655D01*
X002383Y003558D01*
X002383Y003365D01*
X002383Y003510D02*
X002190Y003510D01*
X002484Y003655D02*
X002678Y003655D01*
X002581Y003655D02*
X002581Y003365D01*
X002779Y003365D02*
X002779Y003558D01*
X002876Y003655D01*
X002972Y003558D01*
X002972Y003365D01*
X002972Y003510D02*
X002779Y003510D01*
X003370Y003915D02*
X003370Y004162D01*
X003493Y004285D01*
X003617Y004162D01*
X003617Y003915D01*
X003738Y003915D02*
X003985Y004285D01*
X004107Y004100D02*
X004354Y004100D01*
X004475Y004162D02*
X004598Y004285D01*
X004598Y003915D01*
X004475Y003915D02*
X004722Y003915D01*
X004843Y003915D02*
X005090Y004162D01*
X005090Y004223D01*
X005028Y004285D01*
X004905Y004285D01*
X004843Y004223D01*
X004843Y003915D02*
X005090Y003915D01*
X003985Y003915D02*
X003738Y004285D01*
X003617Y004100D02*
X003370Y004100D01*
X010876Y002536D02*
X011190Y002223D01*
X011190Y002380D02*
X010876Y002380D01*
X010876Y002223D02*
X011190Y002536D01*
X011033Y002536D02*
X011033Y002223D01*
X019570Y017765D02*
X019570Y018055D01*
X019715Y018055D01*
X019763Y018007D01*
X019763Y017910D01*
X019715Y017862D01*
X019570Y017862D01*
X019667Y017862D02*
X019763Y017765D01*
X019865Y017765D02*
X020058Y018055D01*
X019865Y018055D02*
X020058Y017765D01*
X020454Y018055D02*
X020647Y018055D01*
X020551Y018055D02*
X020551Y017765D01*
X020749Y017765D02*
X020942Y018055D01*
X020749Y018055D02*
X020942Y017765D01*
X021338Y017765D02*
X021483Y017765D01*
X021531Y017813D01*
X021483Y017862D01*
X021386Y017862D01*
X021338Y017910D01*
X021386Y017958D01*
X021531Y017958D01*
X021633Y017958D02*
X021633Y017813D01*
X021681Y017765D01*
X021729Y017813D01*
X021778Y017765D01*
X021826Y017813D01*
X021826Y017958D01*
X021927Y017958D02*
X021976Y017958D01*
X021976Y017765D01*
X022024Y017765D02*
X021927Y017765D01*
X022172Y017813D02*
X022172Y018007D01*
X022124Y017958D02*
X022220Y017958D01*
X022320Y017910D02*
X022320Y017813D01*
X022368Y017765D01*
X022514Y017765D01*
X022615Y017765D02*
X022615Y018055D01*
X022663Y017958D02*
X022760Y017958D01*
X022808Y017910D01*
X022808Y017765D01*
X022615Y017910D02*
X022663Y017958D01*
X022514Y017958D02*
X022368Y017958D01*
X022320Y017910D01*
X022172Y017813D02*
X022220Y017765D01*
X021976Y018055D02*
X021976Y018103D01*
D13*
X020770Y014340D02*
X020760Y014330D01*
X020774Y014330D01*
X020770Y014320D02*
X020770Y014340D01*
X020749Y014340D02*
X020749Y014320D01*
X020755Y014320D02*
X020742Y014320D01*
X020737Y014323D02*
X020733Y014320D01*
X020727Y014320D01*
X020723Y014323D01*
X020737Y014336D01*
X020737Y014323D01*
X020742Y014333D02*
X020749Y014340D01*
X020737Y014336D02*
X020733Y014340D01*
X020727Y014340D01*
X020723Y014336D01*
X020723Y014323D01*
X020718Y014320D02*
X020705Y014320D01*
X020718Y014333D01*
X020718Y014336D01*
X020715Y014340D01*
X020708Y014340D01*
X020705Y014336D01*
D14*
X021962Y014953D02*
X022064Y014851D01*
X021962Y014953D02*
X021962Y015157D01*
X022064Y015258D01*
X022166Y015258D01*
X022573Y014851D01*
X022573Y015258D01*
X022471Y015459D02*
X022064Y015866D01*
X022471Y015866D01*
X022573Y015764D01*
X022573Y015561D01*
X022471Y015459D01*
X022064Y015459D01*
X021962Y015561D01*
X021962Y015764D01*
X022064Y015866D01*
X022166Y016067D02*
X021962Y016270D01*
X022573Y016270D01*
X022573Y016067D02*
X022573Y016474D01*
X022268Y016675D02*
X022268Y017082D01*
X022573Y016980D02*
X021962Y016980D01*
X022268Y016675D01*
X022166Y014043D02*
X022166Y013738D01*
X022268Y013636D01*
X022369Y013738D01*
X022369Y013941D01*
X022471Y014043D01*
X022573Y013941D01*
X022573Y013636D01*
X022166Y013435D02*
X022166Y013333D01*
X022369Y013130D01*
X022166Y013130D02*
X022573Y013130D01*
X022573Y012929D02*
X022166Y012929D01*
X022573Y012929D02*
X022573Y012624D01*
X022471Y012522D01*
X022166Y012522D01*
X022268Y012321D02*
X022166Y012219D01*
X022166Y012016D01*
X022268Y011914D01*
X022471Y011914D01*
X022573Y012016D01*
X022573Y012219D01*
X022369Y012321D02*
X022369Y011914D01*
X022268Y011713D02*
X022573Y011713D01*
X022268Y011713D02*
X022166Y011612D01*
X022166Y011306D01*
X022573Y011306D01*
X022573Y011106D02*
X022268Y011106D01*
X022166Y011004D01*
X022166Y010699D01*
X022573Y010699D01*
X022471Y010498D02*
X022268Y010498D01*
X022166Y010396D01*
X022166Y010193D01*
X022268Y010091D01*
X022471Y010091D01*
X022573Y010193D01*
X022573Y010396D01*
X022471Y010498D01*
X022573Y009889D02*
X022573Y009686D01*
X022573Y009788D02*
X022166Y009788D01*
X022166Y009686D01*
X022166Y009484D02*
X022166Y009281D01*
X022064Y009382D02*
X022471Y009382D01*
X022573Y009484D01*
X022573Y009080D02*
X022573Y008775D01*
X022471Y008673D01*
X022268Y008673D01*
X022166Y008775D01*
X022166Y009080D01*
X022268Y008472D02*
X022166Y008371D01*
X022166Y008167D01*
X022369Y008167D02*
X022471Y008065D01*
X022573Y008167D01*
X022573Y008472D01*
X022268Y008472D01*
X022369Y008472D02*
X022369Y008167D01*
X022369Y007257D02*
X022369Y006850D01*
X022268Y006850D02*
X022166Y006952D01*
X022166Y007155D01*
X022268Y007257D01*
X022369Y007257D01*
X022573Y007155D02*
X022573Y006952D01*
X022471Y006850D01*
X022268Y006850D01*
X022166Y006648D02*
X022166Y006445D01*
X022064Y006546D02*
X022471Y006546D01*
X022573Y006648D01*
X022166Y006244D02*
X022166Y006142D01*
X022369Y005938D01*
X022369Y005738D02*
X022369Y005432D01*
X022471Y005331D01*
X022573Y005432D01*
X022573Y005738D01*
X022268Y005738D01*
X022166Y005636D01*
X022166Y005432D01*
X022064Y005130D02*
X021962Y005028D01*
X021962Y004825D01*
X022064Y004723D01*
X022471Y004723D01*
X022573Y004825D01*
X022573Y005028D01*
X022471Y005130D01*
X022573Y005938D02*
X022166Y005938D01*
X021895Y002100D02*
X021595Y002100D01*
X021434Y002100D02*
X021434Y001650D01*
X021595Y001650D02*
X021895Y001650D01*
X021595Y001650D02*
X021595Y001725D01*
X021895Y002025D01*
X021895Y002100D01*
X021434Y001875D02*
X021134Y001875D01*
X021134Y001650D02*
X021134Y002100D01*
X020974Y002100D02*
X020974Y001650D01*
X020674Y001650D02*
X020674Y002100D01*
X020824Y001950D01*
X020974Y002100D01*
X020514Y002100D02*
X020364Y002025D01*
X020213Y001875D01*
X020439Y001875D01*
X020514Y001800D01*
X020514Y001725D01*
X020439Y001650D01*
X020288Y001650D01*
X020213Y001725D01*
X020213Y001875D01*
X020053Y001650D02*
X019753Y001650D01*
X019903Y001650D02*
X019903Y002100D01*
X019753Y001950D01*
X016892Y002465D02*
X016695Y002465D01*
X016695Y001284D01*
X016892Y001284D01*
X016892Y000891D01*
X013168Y000891D01*
X013168Y001284D01*
X013365Y001284D01*
X013365Y002465D01*
X013168Y002465D01*
X013168Y002859D01*
X016892Y002859D01*
X016892Y002465D01*
X010740Y002275D02*
X010740Y001975D01*
X010590Y001824D01*
X010440Y001975D01*
X010440Y002275D01*
X010280Y002275D02*
X010054Y002275D01*
X009979Y002200D01*
X009979Y001899D01*
X010054Y001824D01*
X010280Y001824D01*
X010280Y002275D01*
X010440Y002050D02*
X010740Y002050D01*
X009819Y002200D02*
X009819Y001824D01*
X009519Y001824D02*
X009519Y002200D01*
X009594Y002275D01*
X009744Y002275D01*
X009819Y002200D01*
X009359Y002275D02*
X009359Y001824D01*
X009209Y001975D01*
X009059Y001824D01*
X009059Y002275D01*
X008898Y002275D02*
X008598Y002275D01*
X008748Y002275D02*
X008748Y001824D01*
X008898Y001975D01*
X008438Y001899D02*
X008363Y001824D01*
X008213Y001824D01*
X008138Y001899D01*
X008138Y001975D01*
X008438Y002275D01*
X008138Y002275D01*
X007978Y002200D02*
X007903Y002275D01*
X007752Y002275D01*
X007677Y002200D01*
X007677Y002050D01*
X007752Y001975D01*
X007828Y001975D01*
X007978Y002050D01*
X007978Y001824D01*
X007677Y001824D01*
X007517Y001899D02*
X007517Y002200D01*
X007217Y001899D01*
X007217Y002200D01*
X007292Y002275D01*
X007442Y002275D01*
X007517Y002200D01*
X007517Y001899D02*
X007442Y001824D01*
X007292Y001824D01*
X007217Y001899D01*
X007230Y001250D02*
X007230Y003250D01*
X007730Y003250D01*
X007730Y001250D01*
X007230Y001250D01*
X007730Y001250D02*
X007730Y000750D01*
X005530Y000750D01*
X005530Y003750D01*
X007730Y003750D01*
X007730Y003250D01*
X005255Y003275D02*
X005255Y001275D01*
X004755Y001275D01*
X004755Y003275D01*
X005255Y003275D01*
X005255Y003775D01*
X003055Y003775D01*
X003055Y000775D01*
X005255Y000775D01*
X005255Y001275D01*
X008977Y009329D02*
X008875Y009431D01*
X008977Y009532D01*
X009282Y009532D01*
X009282Y009634D02*
X009282Y009329D01*
X008977Y009329D01*
X008977Y009736D02*
X009180Y009736D01*
X009282Y009634D01*
X009483Y009736D02*
X009686Y009329D01*
X009890Y009736D01*
X010090Y009634D02*
X010192Y009736D01*
X010396Y009736D01*
X010497Y009634D01*
X010497Y009532D01*
X010090Y009532D01*
X010090Y009431D02*
X010090Y009634D01*
X010090Y009431D02*
X010192Y009329D01*
X010396Y009329D01*
X010698Y009431D02*
X010698Y009634D01*
X010800Y009736D01*
X011105Y009736D01*
X011105Y009329D02*
X010800Y009329D01*
X010698Y009431D01*
X011285Y014820D02*
X011585Y014820D01*
X011660Y014895D01*
X011660Y015045D01*
X011585Y015120D01*
X011660Y015280D02*
X011360Y015280D01*
X011210Y015430D01*
X011360Y015580D01*
X011660Y015580D01*
X011660Y015741D02*
X011210Y015741D01*
X011660Y016041D01*
X011210Y016041D01*
X011435Y015580D02*
X011435Y015280D01*
X011285Y015120D02*
X011210Y015045D01*
X011210Y014895D01*
X011285Y014820D01*
X011735Y016201D02*
X011735Y016501D01*
X011660Y016661D02*
X011660Y016962D01*
X011660Y017122D02*
X011660Y017272D01*
X011660Y017197D02*
X011210Y017197D01*
X011210Y017122D02*
X011210Y017272D01*
X011210Y017429D02*
X011660Y017729D01*
X011210Y017729D01*
X011210Y017889D02*
X011660Y017889D01*
X011660Y018189D01*
X011435Y018039D02*
X011435Y017889D01*
X011210Y017889D02*
X011210Y018189D01*
X010918Y018691D02*
X010918Y019084D01*
X011115Y019084D01*
X011115Y020265D01*
X010918Y020265D01*
X010918Y020659D01*
X015642Y020659D01*
X015642Y020265D01*
X015445Y020265D01*
X015445Y019084D01*
X015642Y019084D01*
X015642Y018691D01*
X010918Y018691D01*
X011210Y017429D02*
X011660Y017429D01*
X011660Y016661D02*
X011210Y016661D01*
X017954Y016730D02*
X018029Y016655D01*
X018104Y016655D01*
X018179Y016730D01*
X018179Y017105D01*
X018104Y017105D02*
X018254Y017105D01*
X018414Y017105D02*
X018639Y017105D01*
X018714Y017030D01*
X018714Y016880D01*
X018639Y016805D01*
X018414Y016805D01*
X018414Y016655D02*
X018414Y017105D01*
X018875Y016880D02*
X018875Y016730D01*
X018950Y016655D01*
X019100Y016655D01*
X019175Y016730D01*
X019175Y016805D01*
X019100Y016880D01*
X018875Y016880D01*
X019025Y017030D01*
X019175Y017105D01*
X022268Y012321D02*
X022369Y012321D01*
X021962Y009788D02*
X021861Y009788D01*
D15*
X021230Y004025D02*
X018830Y004025D01*
X018773Y004023D01*
X018717Y004017D01*
X018661Y004008D01*
X018605Y003995D01*
X018551Y003978D01*
X018498Y003958D01*
X018447Y003934D01*
X018397Y003906D01*
X018349Y003876D01*
X018303Y003842D01*
X018260Y003805D01*
X018219Y003766D01*
X018181Y003724D01*
X018146Y003679D01*
X018114Y003632D01*
X018085Y003583D01*
X018059Y003533D01*
X018037Y003480D01*
X018018Y003427D01*
X018003Y003372D01*
X017992Y003316D01*
X017984Y003260D01*
X017980Y003203D01*
X017980Y003147D01*
X017984Y003090D01*
X017992Y003034D01*
X018003Y002978D01*
X018018Y002923D01*
X018037Y002870D01*
X018059Y002817D01*
X018085Y002767D01*
X018114Y002718D01*
X018146Y002671D01*
X018181Y002626D01*
X018219Y002584D01*
X018260Y002545D01*
X018303Y002508D01*
X018349Y002474D01*
X018397Y002444D01*
X018447Y002416D01*
X018498Y002392D01*
X018551Y002372D01*
X018605Y002355D01*
X018661Y002342D01*
X018717Y002333D01*
X018773Y002327D01*
X018830Y002325D01*
X021230Y002325D01*
X021287Y002327D01*
X021343Y002333D01*
X021399Y002342D01*
X021455Y002355D01*
X021509Y002372D01*
X021562Y002392D01*
X021613Y002416D01*
X021663Y002444D01*
X021711Y002474D01*
X021757Y002508D01*
X021800Y002545D01*
X021841Y002584D01*
X021879Y002626D01*
X021914Y002671D01*
X021946Y002718D01*
X021975Y002767D01*
X022001Y002817D01*
X022023Y002870D01*
X022042Y002923D01*
X022057Y002978D01*
X022068Y003034D01*
X022076Y003090D01*
X022080Y003147D01*
X022080Y003203D01*
X022076Y003260D01*
X022068Y003316D01*
X022057Y003372D01*
X022042Y003427D01*
X022023Y003480D01*
X022001Y003533D01*
X021975Y003583D01*
X021946Y003632D01*
X021914Y003679D01*
X021879Y003724D01*
X021841Y003766D01*
X021800Y003805D01*
X021757Y003842D01*
X021711Y003876D01*
X021663Y003906D01*
X021613Y003934D01*
X021562Y003958D01*
X021509Y003978D01*
X021455Y003995D01*
X021399Y004008D01*
X021343Y004017D01*
X021287Y004023D01*
X021230Y004025D01*
D16*
X021230Y003825D02*
X018830Y003825D01*
X018780Y003823D01*
X018731Y003817D01*
X018682Y003808D01*
X018634Y003795D01*
X018587Y003778D01*
X018542Y003758D01*
X018498Y003734D01*
X018456Y003707D01*
X018416Y003676D01*
X018379Y003643D01*
X018345Y003607D01*
X018313Y003569D01*
X018284Y003528D01*
X018259Y003486D01*
X018237Y003441D01*
X018218Y003395D01*
X018203Y003347D01*
X018192Y003299D01*
X018184Y003250D01*
X018180Y003200D01*
X018180Y003150D01*
X018184Y003100D01*
X018192Y003051D01*
X018203Y003003D01*
X018218Y002955D01*
X018237Y002909D01*
X018259Y002864D01*
X018284Y002822D01*
X018313Y002781D01*
X018345Y002743D01*
X018379Y002707D01*
X018416Y002674D01*
X018456Y002643D01*
X018498Y002616D01*
X018542Y002592D01*
X018587Y002572D01*
X018634Y002555D01*
X018682Y002542D01*
X018731Y002533D01*
X018780Y002527D01*
X018830Y002525D01*
X021230Y002525D01*
X021280Y002527D01*
X021329Y002533D01*
X021378Y002542D01*
X021426Y002555D01*
X021473Y002572D01*
X021518Y002592D01*
X021562Y002616D01*
X021604Y002643D01*
X021644Y002674D01*
X021681Y002707D01*
X021715Y002743D01*
X021747Y002781D01*
X021776Y002822D01*
X021801Y002864D01*
X021823Y002909D01*
X021842Y002955D01*
X021857Y003003D01*
X021868Y003051D01*
X021876Y003100D01*
X021880Y003150D01*
X021880Y003200D01*
X021876Y003250D01*
X021868Y003299D01*
X021857Y003347D01*
X021842Y003395D01*
X021823Y003441D01*
X021801Y003486D01*
X021776Y003528D01*
X021747Y003569D01*
X021715Y003607D01*
X021681Y003643D01*
X021644Y003676D01*
X021604Y003707D01*
X021562Y003734D01*
X021518Y003758D01*
X021473Y003778D01*
X021426Y003795D01*
X021378Y003808D01*
X021329Y003817D01*
X021280Y003823D01*
X021230Y003825D01*
X020530Y003175D02*
X020280Y003175D01*
X020280Y003475D01*
X020130Y003475D02*
X020130Y002875D01*
X019930Y002875D01*
X019930Y003475D01*
X020130Y003475D01*
X020280Y003175D02*
X020280Y002875D01*
X019780Y002875D02*
X019780Y003175D01*
X019530Y003175D01*
X019780Y003175D02*
X019780Y003475D01*
X010445Y002570D02*
X010025Y002570D01*
X009785Y002570D01*
X009365Y002570D01*
X009785Y002570D02*
X009787Y002591D01*
X009792Y002611D01*
X009801Y002630D01*
X009813Y002647D01*
X009828Y002662D01*
X009845Y002674D01*
X009864Y002683D01*
X009884Y002688D01*
X009905Y002690D01*
X009926Y002688D01*
X009946Y002683D01*
X009965Y002674D01*
X009982Y002662D01*
X009997Y002647D01*
X010009Y002630D01*
X010018Y002611D01*
X010023Y002591D01*
X010025Y002570D01*
X008591Y001668D02*
X008591Y001432D01*
X008119Y001432D02*
X008119Y001668D01*
X009365Y004530D02*
X010445Y004530D01*
X005648Y009314D02*
X005412Y009314D01*
X005412Y009786D02*
X005648Y009786D01*
D17*
X005780Y008925D02*
X005280Y008925D01*
X005030Y008675D01*
X004780Y008925D01*
X004280Y008925D01*
X004030Y008675D01*
X004030Y008175D01*
X004280Y007925D01*
X004780Y007925D01*
X005030Y008175D01*
X005280Y007925D01*
X005780Y007925D01*
X006030Y008175D01*
X006280Y007925D01*
X006780Y007925D01*
X007030Y008175D01*
X007030Y008675D01*
X006780Y008925D01*
X006280Y008925D01*
X006030Y008675D01*
X005780Y008925D01*
X005780Y007800D02*
X005280Y007800D01*
X005030Y007550D01*
X004780Y007800D01*
X004280Y007800D01*
X004030Y007550D01*
X004030Y007050D01*
X004280Y006800D01*
X004780Y006800D01*
X005030Y007050D01*
X005280Y006800D01*
X005780Y006800D01*
X006030Y007050D01*
X006280Y006800D01*
X006780Y006800D01*
X007030Y007050D01*
X007030Y007550D01*
X006780Y007800D01*
X006280Y007800D01*
X006030Y007550D01*
X005780Y007800D01*
X005780Y006675D02*
X005280Y006675D01*
X005030Y006425D01*
X004780Y006675D01*
X004280Y006675D01*
X004030Y006425D01*
X004030Y005925D01*
X004280Y005675D01*
X004780Y005675D01*
X005030Y005925D01*
X005280Y005675D01*
X005780Y005675D01*
X006030Y005925D01*
X006280Y005675D01*
X006780Y005675D01*
X007030Y005925D01*
X007030Y006425D01*
X006780Y006675D01*
X006280Y006675D01*
X006030Y006425D01*
X005780Y006675D01*
X005780Y005550D02*
X005280Y005550D01*
X005030Y005300D01*
X004780Y005550D01*
X004280Y005550D01*
X004030Y005300D01*
X004030Y004800D01*
X004280Y004550D01*
X004780Y004550D01*
X005030Y004800D01*
X005280Y004550D01*
X005780Y004550D01*
X006030Y004800D01*
X006280Y004550D01*
X006780Y004550D01*
X007030Y004800D01*
X007030Y005300D01*
X006780Y005550D01*
X006280Y005550D01*
X006030Y005300D01*
X005780Y005550D01*
X005655Y010675D02*
X005155Y010675D01*
X004905Y010925D01*
X004655Y010675D01*
X004155Y010675D01*
X003905Y010925D01*
X003905Y011425D01*
X004155Y011675D01*
X004655Y011675D01*
X004905Y011425D01*
X005155Y011675D01*
X005655Y011675D01*
X005905Y011425D01*
X006155Y011675D01*
X006655Y011675D01*
X006905Y011425D01*
X006905Y010925D01*
X006655Y010675D01*
X006155Y010675D01*
X005905Y010925D01*
X005655Y010675D01*
X005655Y011800D02*
X005155Y011800D01*
X004905Y012050D01*
X004655Y011800D01*
X004155Y011800D01*
X003905Y012050D01*
X003905Y012550D01*
X004155Y012800D01*
X004655Y012800D01*
X004905Y012550D01*
X005155Y012800D01*
X005655Y012800D01*
X005905Y012550D01*
X006155Y012800D01*
X006655Y012800D01*
X006905Y012550D01*
X006905Y012050D01*
X006655Y011800D01*
X006155Y011800D01*
X005905Y012050D01*
X005655Y011800D01*
X005655Y012900D02*
X005155Y012900D01*
X004905Y013150D01*
X004655Y012900D01*
X004155Y012900D01*
X003905Y013150D01*
X003905Y013650D01*
X004155Y013900D01*
X004655Y013900D01*
X004905Y013650D01*
X005155Y013900D01*
X005655Y013900D01*
X005905Y013650D01*
X006155Y013900D01*
X006655Y013900D01*
X006905Y013650D01*
X006905Y013150D01*
X006655Y012900D01*
X006155Y012900D01*
X005905Y013150D01*
X005655Y012900D01*
X003025Y015725D02*
X003027Y015796D01*
X003033Y015867D01*
X003043Y015938D01*
X003057Y016007D01*
X003074Y016076D01*
X003096Y016144D01*
X003121Y016211D01*
X003150Y016276D01*
X003182Y016339D01*
X003218Y016401D01*
X003257Y016460D01*
X003300Y016517D01*
X003345Y016572D01*
X003394Y016624D01*
X003445Y016673D01*
X003499Y016719D01*
X003556Y016763D01*
X003614Y016803D01*
X003675Y016839D01*
X003738Y016873D01*
X003803Y016902D01*
X003869Y016928D01*
X003937Y016951D01*
X004005Y016969D01*
X004075Y016984D01*
X004145Y016995D01*
X004216Y017002D01*
X004287Y017005D01*
X004358Y017004D01*
X004429Y016999D01*
X004500Y016990D01*
X004570Y016977D01*
X004639Y016961D01*
X004707Y016940D01*
X004774Y016916D01*
X004840Y016888D01*
X004903Y016856D01*
X004965Y016821D01*
X005025Y016783D01*
X005083Y016741D01*
X005138Y016697D01*
X005191Y016649D01*
X005241Y016598D01*
X005288Y016545D01*
X005332Y016489D01*
X005373Y016431D01*
X005411Y016370D01*
X005445Y016308D01*
X005475Y016243D01*
X005502Y016178D01*
X005526Y016110D01*
X005545Y016042D01*
X005561Y015973D01*
X005573Y015902D01*
X005581Y015832D01*
X005585Y015761D01*
X005585Y015689D01*
X005581Y015618D01*
X005573Y015548D01*
X005561Y015477D01*
X005545Y015408D01*
X005526Y015340D01*
X005502Y015272D01*
X005475Y015207D01*
X005445Y015142D01*
X005411Y015080D01*
X005373Y015019D01*
X005332Y014961D01*
X005288Y014905D01*
X005241Y014852D01*
X005191Y014801D01*
X005138Y014753D01*
X005083Y014709D01*
X005025Y014667D01*
X004965Y014629D01*
X004903Y014594D01*
X004840Y014562D01*
X004774Y014534D01*
X004707Y014510D01*
X004639Y014489D01*
X004570Y014473D01*
X004500Y014460D01*
X004429Y014451D01*
X004358Y014446D01*
X004287Y014445D01*
X004216Y014448D01*
X004145Y014455D01*
X004075Y014466D01*
X004005Y014481D01*
X003937Y014499D01*
X003869Y014522D01*
X003803Y014548D01*
X003738Y014577D01*
X003675Y014611D01*
X003614Y014647D01*
X003556Y014687D01*
X003499Y014731D01*
X003445Y014777D01*
X003394Y014826D01*
X003345Y014878D01*
X003300Y014933D01*
X003257Y014990D01*
X003218Y015049D01*
X003182Y015111D01*
X003150Y015174D01*
X003121Y015239D01*
X003096Y015306D01*
X003074Y015374D01*
X003057Y015443D01*
X003043Y015512D01*
X003033Y015583D01*
X003027Y015654D01*
X003025Y015725D01*
X003555Y016225D02*
X004055Y016225D01*
X002966Y017718D02*
X002966Y022009D01*
X005644Y022009D01*
X005644Y017718D01*
X006816Y017743D02*
X006816Y022034D01*
X009494Y022034D01*
X009494Y017743D01*
X008005Y016225D02*
X007505Y016225D01*
X006975Y015725D02*
X006977Y015796D01*
X006983Y015867D01*
X006993Y015938D01*
X007007Y016007D01*
X007024Y016076D01*
X007046Y016144D01*
X007071Y016211D01*
X007100Y016276D01*
X007132Y016339D01*
X007168Y016401D01*
X007207Y016460D01*
X007250Y016517D01*
X007295Y016572D01*
X007344Y016624D01*
X007395Y016673D01*
X007449Y016719D01*
X007506Y016763D01*
X007564Y016803D01*
X007625Y016839D01*
X007688Y016873D01*
X007753Y016902D01*
X007819Y016928D01*
X007887Y016951D01*
X007955Y016969D01*
X008025Y016984D01*
X008095Y016995D01*
X008166Y017002D01*
X008237Y017005D01*
X008308Y017004D01*
X008379Y016999D01*
X008450Y016990D01*
X008520Y016977D01*
X008589Y016961D01*
X008657Y016940D01*
X008724Y016916D01*
X008790Y016888D01*
X008853Y016856D01*
X008915Y016821D01*
X008975Y016783D01*
X009033Y016741D01*
X009088Y016697D01*
X009141Y016649D01*
X009191Y016598D01*
X009238Y016545D01*
X009282Y016489D01*
X009323Y016431D01*
X009361Y016370D01*
X009395Y016308D01*
X009425Y016243D01*
X009452Y016178D01*
X009476Y016110D01*
X009495Y016042D01*
X009511Y015973D01*
X009523Y015902D01*
X009531Y015832D01*
X009535Y015761D01*
X009535Y015689D01*
X009531Y015618D01*
X009523Y015548D01*
X009511Y015477D01*
X009495Y015408D01*
X009476Y015340D01*
X009452Y015272D01*
X009425Y015207D01*
X009395Y015142D01*
X009361Y015080D01*
X009323Y015019D01*
X009282Y014961D01*
X009238Y014905D01*
X009191Y014852D01*
X009141Y014801D01*
X009088Y014753D01*
X009033Y014709D01*
X008975Y014667D01*
X008915Y014629D01*
X008853Y014594D01*
X008790Y014562D01*
X008724Y014534D01*
X008657Y014510D01*
X008589Y014489D01*
X008520Y014473D01*
X008450Y014460D01*
X008379Y014451D01*
X008308Y014446D01*
X008237Y014445D01*
X008166Y014448D01*
X008095Y014455D01*
X008025Y014466D01*
X007955Y014481D01*
X007887Y014499D01*
X007819Y014522D01*
X007753Y014548D01*
X007688Y014577D01*
X007625Y014611D01*
X007564Y014647D01*
X007506Y014687D01*
X007449Y014731D01*
X007395Y014777D01*
X007344Y014826D01*
X007295Y014878D01*
X007250Y014933D01*
X007207Y014990D01*
X007168Y015049D01*
X007132Y015111D01*
X007100Y015174D01*
X007071Y015239D01*
X007046Y015306D01*
X007024Y015374D01*
X007007Y015443D01*
X006993Y015512D01*
X006983Y015583D01*
X006977Y015654D01*
X006975Y015725D01*
X011905Y015575D02*
X011905Y015075D01*
X012155Y014825D01*
X012655Y014825D01*
X012905Y015075D01*
X012905Y015575D01*
X012655Y015825D01*
X012905Y016075D01*
X012905Y016575D01*
X012655Y016825D01*
X012905Y017075D01*
X012905Y017575D01*
X012655Y017825D01*
X012155Y017825D01*
X011905Y017575D01*
X011905Y017075D01*
X012155Y016825D01*
X011905Y016575D01*
X011905Y016075D01*
X012155Y015825D01*
X011905Y015575D01*
X017280Y017600D02*
X017280Y018100D01*
X017530Y018350D01*
X018030Y018350D01*
X018280Y018100D01*
X018530Y018350D01*
X019030Y018350D01*
X019280Y018100D01*
X019280Y017600D01*
X019030Y017350D01*
X018530Y017350D01*
X018280Y017600D01*
X018030Y017350D01*
X017530Y017350D01*
X017280Y017600D01*
D18*
X008844Y021331D03*
X007466Y021331D03*
X004994Y021306D03*
X003616Y021306D03*
D19*
X004035Y016530D02*
X004010Y016505D01*
X004010Y016405D01*
X004035Y016380D01*
X004085Y016380D01*
X004110Y016405D01*
X004157Y016405D02*
X004182Y016380D01*
X004232Y016380D01*
X004257Y016405D01*
X004257Y016430D01*
X004232Y016455D01*
X004207Y016455D01*
X004232Y016455D02*
X004257Y016480D01*
X004257Y016505D01*
X004232Y016530D01*
X004182Y016530D01*
X004157Y016505D01*
X004110Y016505D02*
X004085Y016530D01*
X004035Y016530D01*
X007960Y016505D02*
X007960Y016405D01*
X007985Y016380D01*
X008035Y016380D01*
X008060Y016405D01*
X008107Y016455D02*
X008207Y016455D01*
X008182Y016380D02*
X008182Y016530D01*
X008107Y016455D01*
X008060Y016505D02*
X008035Y016530D01*
X007985Y016530D01*
X007960Y016505D01*
X005763Y009220D02*
X005688Y009145D01*
X005788Y009145D01*
X005763Y009070D02*
X005763Y009220D01*
X005640Y009195D02*
X005615Y009220D01*
X005540Y009220D01*
X005540Y009070D01*
X005540Y009120D02*
X005615Y009120D01*
X005640Y009145D01*
X005640Y009195D01*
X005590Y009120D02*
X005640Y009070D01*
X008710Y001808D02*
X008735Y001808D01*
X008760Y001783D01*
X008785Y001808D01*
X008810Y001808D01*
X008835Y001783D01*
X008835Y001732D01*
X008810Y001707D01*
X008835Y001660D02*
X008785Y001610D01*
X008785Y001635D02*
X008785Y001560D01*
X008835Y001560D02*
X008685Y001560D01*
X008685Y001635D01*
X008710Y001660D01*
X008760Y001660D01*
X008785Y001635D01*
X008710Y001707D02*
X008685Y001732D01*
X008685Y001783D01*
X008710Y001808D01*
X008760Y001783D02*
X008760Y001758D01*
D20*
X009180Y001689D03*
X004491Y010175D03*
M02*
