G75*
%MOIN*%
%OFA0B0*%
%FSLAX24Y24*%
%IPPOS*%
%LPD*%
%AMOC8*
5,1,8,0,0,1.08239X$1,22.5*
%
%ADD10C,0.0240*%
%ADD11C,0.0060*%
%ADD12C,0.0040*%
D10*
X007689Y017936D02*
X008102Y017936D01*
X007895Y017936D02*
X007895Y018556D01*
X008102Y018350D01*
X008423Y018350D02*
X008630Y018350D01*
X008527Y018453D02*
X008527Y018039D01*
X008423Y017936D01*
X009008Y018039D02*
X009008Y018246D01*
X009112Y018350D01*
X009319Y018350D01*
X009422Y018246D01*
X009422Y018039D01*
X009319Y017936D01*
X009112Y017936D01*
X009008Y018039D01*
X009800Y017936D02*
X009800Y018556D01*
X010007Y018350D01*
X010214Y018556D01*
X010214Y017936D01*
X031402Y019998D02*
X031815Y019998D01*
X031402Y020411D01*
X031402Y020515D01*
X031505Y020618D01*
X031712Y020618D01*
X031815Y020515D01*
X032136Y020411D02*
X032343Y020411D01*
X032240Y020515D02*
X032240Y020101D01*
X032136Y019998D01*
X032721Y020101D02*
X032721Y020308D01*
X032825Y020411D01*
X033032Y020411D01*
X033135Y020308D01*
X033135Y020101D01*
X033032Y019998D01*
X032825Y019998D01*
X032721Y020101D01*
X033513Y019998D02*
X033513Y020618D01*
X033720Y020411D01*
X033927Y020618D01*
X033927Y019998D01*
D11*
X033519Y019420D02*
X033305Y019420D01*
X033198Y019313D01*
X033198Y019099D01*
X033305Y018993D01*
X033519Y018993D01*
X033626Y019099D01*
X033626Y019313D01*
X033519Y019420D01*
X032981Y019420D02*
X032981Y019099D01*
X032874Y018993D01*
X032554Y018993D01*
X032554Y019420D01*
X032336Y019420D02*
X032123Y019420D01*
X032230Y019526D02*
X032230Y019099D01*
X032123Y018993D01*
X009738Y017301D02*
X009738Y017087D01*
X009631Y016981D01*
X009417Y016981D01*
X009310Y017087D01*
X009310Y017301D01*
X009417Y017408D01*
X009631Y017408D01*
X009738Y017301D01*
X009093Y017408D02*
X009093Y017087D01*
X008986Y016981D01*
X008666Y016981D01*
X008666Y017408D01*
X008448Y017408D02*
X008235Y017408D01*
X008342Y017514D02*
X008342Y017087D01*
X008235Y016981D01*
D12*
X023898Y014836D02*
X023974Y014760D01*
X024281Y014760D01*
X024358Y014836D01*
X024358Y014990D01*
X024281Y015067D01*
X024281Y015220D02*
X024205Y015220D01*
X024128Y015297D01*
X024128Y015527D01*
X024281Y015527D02*
X024358Y015450D01*
X024358Y015297D01*
X024281Y015220D01*
X023974Y015220D02*
X023898Y015297D01*
X023898Y015450D01*
X023974Y015527D01*
X024281Y015527D01*
X023974Y015067D02*
X023898Y014990D01*
X023898Y014836D01*
X023018Y019068D02*
X022711Y019068D01*
X022634Y019144D01*
X022634Y019298D01*
X022711Y019374D01*
X022634Y019528D02*
X022634Y019835D01*
X022634Y019681D02*
X023094Y019681D01*
X022941Y019528D01*
X023018Y019374D02*
X023094Y019298D01*
X023094Y019144D01*
X023018Y019068D01*
X023018Y019988D02*
X022711Y019988D01*
X023018Y020295D01*
X022711Y020295D01*
X022634Y020219D01*
X022634Y020065D01*
X022711Y019988D01*
X023018Y019988D02*
X023094Y020065D01*
X023094Y020219D01*
X023018Y020295D01*
M02*
