G75*
%MOIN*%
%OFA0B0*%
%FSLAX24Y24*%
%IPPOS*%
%LPD*%
%AMOC8*
5,1,8,0,0,1.08239X$1,22.5*
%
%ADD10C,0.0740*%
%ADD11R,0.0671X0.0592*%
%ADD12R,0.0710X0.0592*%
%ADD13R,0.0552X0.0552*%
%ADD14C,0.1182*%
%ADD15C,0.0600*%
%ADD16OC8,0.0600*%
%ADD17C,0.0600*%
%ADD18C,0.0905*%
%ADD19R,0.0316X0.0946*%
%ADD20C,0.0640*%
%ADD21C,0.0671*%
%ADD22C,0.1661*%
%ADD23C,0.0480*%
D10*
X008141Y011137D03*
X008760Y012811D03*
X010098Y012811D03*
X011437Y012811D03*
X012775Y012811D03*
X014114Y012811D03*
X015452Y012811D03*
X014783Y014811D03*
X013445Y014811D03*
X012106Y014811D03*
X010767Y014811D03*
X009429Y014811D03*
X014637Y019681D03*
X026510Y012811D03*
X027848Y012811D03*
X029187Y012811D03*
X030525Y012811D03*
X031864Y012811D03*
X033202Y012811D03*
X032533Y014811D03*
X031195Y014811D03*
X029856Y014811D03*
X028517Y014811D03*
X027179Y014811D03*
D11*
X025417Y014486D03*
X025417Y013738D03*
X016783Y013830D03*
X016783Y014578D03*
X016015Y010527D03*
X016015Y009779D03*
X010149Y008047D03*
X010149Y007299D03*
X007618Y013740D03*
X007618Y014488D03*
X034441Y014511D03*
X034441Y013763D03*
D12*
X033161Y010830D03*
X033161Y010082D03*
X031594Y006048D03*
X031594Y005300D03*
D13*
X033977Y005227D03*
X033977Y006054D03*
X031779Y010834D03*
X030952Y010834D03*
D14*
X030448Y017311D03*
X029071Y017311D03*
X021212Y017503D03*
X019835Y017503D03*
X012752Y017311D03*
X011374Y017311D03*
D15*
X024889Y004964D02*
X024889Y004444D01*
X025889Y004444D02*
X025889Y004964D01*
X026889Y004964D02*
X026889Y004444D01*
X027889Y004444D02*
X027889Y004964D01*
X028889Y004964D02*
X028889Y004444D01*
X029889Y004444D02*
X029889Y004964D01*
D16*
X019958Y010468D03*
D17*
X021958Y010468D03*
D18*
X022161Y013331D02*
X022161Y014156D01*
X019161Y014156D02*
X019161Y013331D01*
D19*
X014891Y010783D03*
X014391Y010783D03*
X013891Y010783D03*
X013391Y010783D03*
X012891Y010783D03*
X012391Y010783D03*
X011891Y010783D03*
X011391Y010783D03*
X011391Y007161D03*
X011891Y007161D03*
X012391Y007161D03*
X012891Y007161D03*
X013391Y007161D03*
X013891Y007161D03*
X014391Y007161D03*
X014891Y007161D03*
D20*
X013909Y005326D03*
X012909Y005326D03*
X011909Y005326D03*
X011409Y004326D03*
X012409Y004326D03*
X013409Y004326D03*
D21*
X010771Y005183D03*
D22*
X007719Y003959D03*
X007771Y020287D03*
X034732Y020215D03*
X034732Y003983D03*
D23*
X021645Y004405D03*
X024834Y015586D03*
M02*
