G75*
%MOIN*%
%OFA0B0*%
%FSLAX24Y24*%
%IPPOS*%
%LPD*%
%AMOC8*
5,1,8,0,0,1.08239X$1,22.5*
%
%ADD10C,0.0520*%
%ADD11R,0.0820X0.0260*%
%ADD12C,0.0780*%
%ADD13C,0.0880*%
%ADD14R,0.0780X0.0780*%
%ADD15C,0.0600*%
%ADD16C,0.0631*%
%ADD17C,0.0690*%
%ADD18R,0.0690X0.0690*%
%ADD19R,0.0512X0.0512*%
%ADD20R,0.0512X0.0355*%
%ADD21R,0.0355X0.0512*%
%ADD22C,0.0400*%
%ADD23C,0.0276*%
%ADD24C,0.0394*%
%ADD25C,0.1267*%
D10*
X019080Y003175D03*
X020980Y003175D03*
D11*
X010875Y003300D03*
X010875Y003800D03*
X010875Y004300D03*
X010875Y002800D03*
X008935Y002800D03*
X008935Y003300D03*
X008935Y003800D03*
X008935Y004300D03*
D12*
X006730Y003250D03*
X006730Y002250D03*
X004255Y002275D03*
X004255Y003275D03*
X004530Y005050D03*
X005530Y005050D03*
X006530Y005050D03*
X006530Y006175D03*
X005530Y006175D03*
X004530Y006175D03*
X004530Y007300D03*
X005530Y007300D03*
X006530Y007300D03*
X006530Y008425D03*
X005530Y008425D03*
X004530Y008425D03*
X004405Y011175D03*
X005405Y011175D03*
X006405Y011175D03*
X006405Y012300D03*
X005405Y012300D03*
X004405Y012300D03*
X004405Y013400D03*
X005405Y013400D03*
X006405Y013400D03*
X012405Y015325D03*
X012405Y016325D03*
X012405Y017325D03*
X014905Y016675D03*
X015905Y016675D03*
X016905Y016675D03*
X017905Y016675D03*
X018905Y016675D03*
X019905Y016675D03*
X018780Y017850D03*
X017780Y017850D03*
X014405Y013675D03*
X014405Y011675D03*
X014405Y010675D03*
X014405Y009675D03*
X014405Y008675D03*
X014405Y007675D03*
X014405Y006675D03*
X014405Y005675D03*
X014405Y004675D03*
X020405Y004675D03*
X020405Y005675D03*
X020405Y006675D03*
X020405Y007675D03*
D13*
X008844Y017638D02*
X008844Y018478D01*
X007466Y018478D02*
X007466Y017638D01*
X004994Y017613D02*
X004994Y018453D01*
X003616Y018453D02*
X003616Y017613D01*
D14*
X004255Y001275D03*
X006730Y001250D03*
D15*
X013780Y001375D03*
X014780Y001375D03*
X015780Y001375D03*
X015280Y002375D03*
X014280Y002375D03*
X016280Y002375D03*
X014530Y019175D03*
X013530Y019175D03*
X012530Y019175D03*
X011530Y019175D03*
X012030Y020175D03*
X013030Y020175D03*
X014030Y020175D03*
X015030Y020175D03*
D16*
X015668Y019319D03*
X013142Y002231D03*
D17*
X007755Y015725D03*
X003805Y015725D03*
D18*
X004805Y015725D03*
X008755Y015725D03*
D19*
X004943Y010175D03*
X004117Y010175D03*
X009180Y002063D03*
X009180Y001236D03*
D20*
X008355Y001195D03*
X008355Y001904D03*
D21*
X005884Y009550D03*
X005176Y009550D03*
D22*
X007200Y010285D03*
X015535Y011460D03*
X015535Y011950D03*
X015535Y012440D03*
X015535Y012930D03*
X018940Y006845D03*
X020230Y019860D03*
D23*
X012315Y013140D03*
X011164Y008566D03*
X012595Y007050D03*
D24*
X013080Y008400D03*
X013430Y012775D03*
X009055Y013725D03*
D25*
X002155Y001275D03*
X022455Y001400D03*
X022405Y021200D03*
X002130Y021225D03*
M02*
