%
M48
M72
T01C0.0118
T02C0.0236
T03C0.0240
T04C0.0276
T05C0.0315
T06C0.0320
T07C0.0400
T08C0.0560
T09C0.0591
T10C0.0827
%
T01
X11164Y8566
X12595Y7050
X12315Y13140
T02
X13430Y12775
X9055Y13725
X13080Y8400
T03
X15535Y11460
X15535Y11950
X15535Y12440
X15535Y12930
X18940Y6845
X7200Y10285
X20230Y19860
T04
X8755Y15725
X7755Y15725
X4805Y15725
X3805Y15725
T05
X11530Y19175
X12530Y19175
X13530Y19175
X14530Y19175
X14030Y20175
X15030Y20175
X13030Y20175
X12030Y20175
X14280Y2375
X15280Y2375
X16280Y2375
X15780Y1375
X14780Y1375
X13780Y1375
T06
X19080Y3175
X20980Y3175
T07
X20405Y4675
X20405Y5675
X20405Y6675
X20405Y7675
X14405Y7675
X14405Y8675
X14405Y9675
X14405Y10675
X14405Y11675
X14405Y13675
X12405Y15325
X12405Y16325
X12405Y17325
X14905Y16675
X15905Y16675
X16905Y16675
X17905Y16675
X18905Y16675
X19905Y16675
X18780Y17850
X17780Y17850
X6405Y13400
X5405Y13400
X4405Y13400
X4405Y12300
X5405Y12300
X6405Y12300
X6405Y11175
X5405Y11175
X4405Y11175
X4530Y8425
X5530Y8425
X6530Y8425
X6530Y7300
X5530Y7300
X4530Y7300
X4530Y6175
X5530Y6175
X6530Y6175
X6530Y5050
X5530Y5050
X4530Y5050
X4255Y3275
X4255Y2275
X4255Y1275
X6730Y1250
X6730Y2250
X6730Y3250
X14405Y4675
X14405Y5675
X14405Y6675
T08
X8844Y18058
X7466Y18058
X4994Y18033
X3616Y18033
T09
X15668Y19319
X13142Y2231
T10
X2155Y1275
X22455Y1400
X22405Y21200
X2130Y21225
M30
