G75*
%MOIN*%
%OFA0B0*%
%FSLAX24Y24*%
%IPPOS*%
%LPD*%
%AMOC8*
5,1,8,0,0,1.08239X$1,22.5*
%
%ADD10C,0.0060*%
%ADD11C,0.0160*%
%ADD12C,0.0040*%
%ADD13C,0.0030*%
%ADD14C,0.0080*%
%ADD15C,0.0050*%
%ADD16R,0.0240X0.0340*%
%ADD17R,0.0200X0.0800*%
%ADD18C,0.0100*%
%ADD19C,0.0010*%
%ADD20C,0.0070*%
%ADD21R,0.0340X0.0240*%
D10*
X009503Y003357D02*
X009503Y004857D01*
X009753Y005107D01*
X010253Y005107D01*
X010503Y004857D01*
X010503Y003357D01*
X010753Y003107D01*
X011253Y003107D01*
X011503Y003357D01*
X011503Y004857D01*
X011753Y005107D01*
X012253Y005107D01*
X012503Y004857D01*
X012503Y003357D01*
X012753Y003107D01*
X013253Y003107D01*
X013503Y003357D01*
X013503Y004857D01*
X013753Y005107D01*
X014253Y005107D01*
X014503Y004857D01*
X014503Y003357D01*
X014753Y003107D01*
X015253Y003107D01*
X015503Y003357D01*
X015503Y004857D01*
X015753Y005107D01*
X016253Y005107D01*
X016503Y004857D01*
X016503Y003357D01*
X016253Y003107D01*
X015753Y003107D01*
X015503Y003357D01*
X014503Y003357D02*
X014253Y003107D01*
X013753Y003107D01*
X013503Y003357D01*
X012503Y003357D02*
X012253Y003107D01*
X011753Y003107D01*
X011503Y003357D01*
X010503Y003357D02*
X010253Y003107D01*
X009753Y003107D01*
X009503Y003357D01*
X010503Y004857D02*
X010753Y005107D01*
X011253Y005107D01*
X011503Y004857D01*
X012503Y004857D02*
X012753Y005107D01*
X013253Y005107D01*
X013503Y004857D01*
X014503Y004857D02*
X014753Y005107D01*
X015253Y005107D01*
X015503Y004857D01*
X016503Y004857D02*
X016753Y005107D01*
X017253Y005107D01*
X017503Y004857D01*
X017503Y003357D01*
X017253Y003107D01*
X016753Y003107D01*
X016503Y003357D01*
X017503Y003357D02*
X017753Y003107D01*
X018253Y003107D01*
X018503Y003357D01*
X018503Y004857D01*
X018753Y005107D01*
X019253Y005107D01*
X019503Y004857D01*
X019503Y003357D01*
X019253Y003107D01*
X018753Y003107D01*
X018503Y003357D01*
X019503Y003357D02*
X019753Y003107D01*
X020253Y003107D01*
X020503Y003357D01*
X020503Y004857D01*
X020753Y005107D01*
X021253Y005107D01*
X021503Y004857D01*
X021503Y003357D01*
X021253Y003107D01*
X020753Y003107D01*
X020503Y003357D01*
X021503Y003357D02*
X021753Y003107D01*
X022253Y003107D01*
X022503Y003357D01*
X022503Y004857D01*
X022753Y005107D01*
X023253Y005107D01*
X023503Y004857D01*
X023503Y003357D01*
X023253Y003107D01*
X022753Y003107D01*
X022503Y003357D01*
X023503Y003357D02*
X023753Y003107D01*
X024253Y003107D01*
X024503Y003357D01*
X024503Y004857D01*
X024753Y005107D01*
X025253Y005107D01*
X025503Y004857D01*
X025753Y005107D01*
X026253Y005107D01*
X026503Y004857D01*
X026753Y005107D01*
X027253Y005107D01*
X027503Y004857D01*
X027753Y005107D01*
X028253Y005107D01*
X028503Y004857D01*
X028753Y005107D01*
X029253Y005107D01*
X029503Y004857D01*
X029753Y005107D01*
X030253Y005107D01*
X030503Y004857D01*
X030753Y005107D01*
X031253Y005107D01*
X031503Y004857D01*
X031753Y005107D01*
X032253Y005107D01*
X032503Y004857D01*
X032503Y003357D01*
X032253Y003107D01*
X031753Y003107D01*
X031503Y003357D01*
X031503Y004857D01*
X030503Y004857D02*
X030503Y003357D01*
X030753Y003107D01*
X031253Y003107D01*
X031503Y003357D01*
X030503Y003357D02*
X030253Y003107D01*
X029753Y003107D01*
X029503Y003357D01*
X029503Y004857D01*
X028693Y005427D02*
X026203Y005427D01*
X026503Y004857D02*
X026503Y003357D01*
X026753Y003107D01*
X027253Y003107D01*
X027503Y003357D01*
X027753Y003107D01*
X028253Y003107D01*
X028503Y003357D01*
X028753Y003107D01*
X029253Y003107D01*
X029503Y003357D01*
X028503Y003357D02*
X028503Y004857D01*
X027503Y004857D02*
X027503Y003357D01*
X026503Y003357D02*
X026253Y003107D01*
X025753Y003107D01*
X025503Y003357D01*
X025503Y004857D01*
X024503Y004857D02*
X024253Y005107D01*
X023753Y005107D01*
X023503Y004857D01*
X022503Y004857D02*
X022253Y005107D01*
X021753Y005107D01*
X021503Y004857D01*
X020503Y004857D02*
X020253Y005107D01*
X019753Y005107D01*
X019503Y004857D01*
X018503Y004857D02*
X018253Y005107D01*
X017753Y005107D01*
X017503Y004857D01*
X018353Y005907D02*
X019653Y005907D01*
X019670Y005909D01*
X019687Y005913D01*
X019703Y005920D01*
X019717Y005930D01*
X019730Y005943D01*
X019740Y005957D01*
X019747Y005973D01*
X019751Y005990D01*
X019753Y006007D01*
X019753Y007707D01*
X019751Y007724D01*
X019747Y007741D01*
X019740Y007757D01*
X019730Y007771D01*
X019717Y007784D01*
X019703Y007794D01*
X019687Y007801D01*
X019670Y007805D01*
X019653Y007807D01*
X018353Y007807D01*
X018336Y007805D01*
X018319Y007801D01*
X018303Y007794D01*
X018289Y007784D01*
X018276Y007771D01*
X018266Y007757D01*
X018259Y007741D01*
X018255Y007724D01*
X018253Y007707D01*
X018253Y006007D01*
X018255Y005990D01*
X018259Y005973D01*
X018266Y005957D01*
X018276Y005943D01*
X018289Y005930D01*
X018303Y005920D01*
X018319Y005913D01*
X018336Y005909D01*
X018353Y005907D01*
X019003Y006707D02*
X019003Y006757D01*
X019003Y006957D02*
X019003Y007007D01*
X020503Y007607D02*
X020503Y006107D01*
X020753Y005857D01*
X021253Y005857D01*
X021503Y006107D01*
X021503Y007607D01*
X021753Y007857D01*
X022253Y007857D01*
X022503Y007607D01*
X022503Y006107D01*
X022753Y005857D01*
X023253Y005857D01*
X023503Y006107D01*
X023753Y005857D01*
X024253Y005857D01*
X024503Y006107D01*
X024503Y007607D01*
X024253Y007857D01*
X023753Y007857D01*
X023503Y007607D01*
X023503Y006107D01*
X022503Y006107D02*
X022253Y005857D01*
X021753Y005857D01*
X021503Y006107D01*
X021503Y007607D02*
X021253Y007857D01*
X020753Y007857D01*
X020503Y007607D01*
X022503Y007607D02*
X022753Y007857D01*
X023253Y007857D01*
X023503Y007607D01*
X021822Y009297D02*
X021184Y009297D01*
X021184Y009334D01*
X021184Y009651D02*
X021184Y010063D01*
X021184Y010380D02*
X021184Y010417D01*
X021822Y010417D01*
X021822Y010380D01*
X021822Y010063D02*
X021822Y010026D01*
X021822Y009689D02*
X021822Y009651D01*
X021822Y009334D02*
X021822Y009297D01*
X023553Y010207D02*
X023553Y010357D01*
X023603Y010407D01*
X023603Y012307D01*
X023553Y012357D01*
X023553Y012507D01*
X023555Y012524D01*
X023559Y012541D01*
X023566Y012557D01*
X023576Y012571D01*
X023589Y012584D01*
X023603Y012594D01*
X023619Y012601D01*
X023636Y012605D01*
X023653Y012607D01*
X024353Y012607D01*
X024370Y012605D01*
X024387Y012601D01*
X024403Y012594D01*
X024417Y012584D01*
X024430Y012571D01*
X024440Y012557D01*
X024447Y012541D01*
X024451Y012524D01*
X024453Y012507D01*
X024453Y012357D01*
X024403Y012307D01*
X024403Y010407D01*
X024453Y010357D01*
X024453Y010207D01*
X024451Y010190D01*
X024447Y010173D01*
X024440Y010157D01*
X024430Y010143D01*
X024417Y010130D01*
X024403Y010120D01*
X024387Y010113D01*
X024370Y010109D01*
X024353Y010107D01*
X023653Y010107D01*
X023636Y010109D01*
X023619Y010113D01*
X023603Y010120D01*
X023589Y010130D01*
X023576Y010143D01*
X023566Y010157D01*
X023559Y010173D01*
X023555Y010190D01*
X023553Y010207D01*
X022853Y012107D02*
X022153Y012107D01*
X022136Y012109D01*
X022119Y012113D01*
X022103Y012120D01*
X022089Y012130D01*
X022076Y012143D01*
X022066Y012157D01*
X022059Y012173D01*
X022055Y012190D01*
X022053Y012207D01*
X022053Y012357D01*
X022103Y012407D01*
X022103Y014307D01*
X022053Y014357D01*
X022053Y014507D01*
X022055Y014524D01*
X022059Y014541D01*
X022066Y014557D01*
X022076Y014571D01*
X022089Y014584D01*
X022103Y014594D01*
X022119Y014601D01*
X022136Y014605D01*
X022153Y014607D01*
X022853Y014607D01*
X022870Y014605D01*
X022887Y014601D01*
X022903Y014594D01*
X022917Y014584D01*
X022930Y014571D01*
X022940Y014557D01*
X022947Y014541D01*
X022951Y014524D01*
X022953Y014507D01*
X022953Y014357D01*
X022903Y014307D01*
X022903Y012407D01*
X022953Y012357D01*
X022953Y012207D01*
X022951Y012190D01*
X022947Y012173D01*
X022940Y012157D01*
X022930Y012143D01*
X022917Y012130D01*
X022903Y012120D01*
X022887Y012113D01*
X022870Y012109D01*
X022853Y012107D01*
X025053Y012207D02*
X025053Y012357D01*
X025103Y012407D01*
X025103Y014307D01*
X025053Y014357D01*
X025053Y014507D01*
X025055Y014524D01*
X025059Y014541D01*
X025066Y014557D01*
X025076Y014571D01*
X025089Y014584D01*
X025103Y014594D01*
X025119Y014601D01*
X025136Y014605D01*
X025153Y014607D01*
X025853Y014607D01*
X025870Y014605D01*
X025887Y014601D01*
X025903Y014594D01*
X025917Y014584D01*
X025930Y014571D01*
X025940Y014557D01*
X025947Y014541D01*
X025951Y014524D01*
X025953Y014507D01*
X025953Y014357D01*
X025903Y014307D01*
X025903Y012407D01*
X025953Y012357D01*
X025953Y012207D01*
X025951Y012190D01*
X025947Y012173D01*
X025940Y012157D01*
X025930Y012143D01*
X025917Y012130D01*
X025903Y012120D01*
X025887Y012113D01*
X025870Y012109D01*
X025853Y012107D01*
X025153Y012107D01*
X025136Y012109D01*
X025119Y012113D01*
X025103Y012120D01*
X025089Y012130D01*
X025076Y012143D01*
X025066Y012157D01*
X025059Y012173D01*
X025055Y012190D01*
X025053Y012207D01*
X026203Y009287D02*
X028803Y009287D01*
X028803Y008477D02*
X028803Y008237D01*
X028803Y007477D02*
X028803Y007237D01*
X028803Y006477D02*
X028803Y006287D01*
X026203Y006237D02*
X026203Y006477D01*
X026203Y007237D02*
X026203Y007477D01*
X026203Y008237D02*
X026203Y008477D01*
X019003Y012357D02*
X019005Y012420D01*
X019011Y012482D01*
X019021Y012544D01*
X019034Y012606D01*
X019052Y012666D01*
X019073Y012725D01*
X019098Y012783D01*
X019127Y012839D01*
X019159Y012893D01*
X019194Y012945D01*
X019232Y012994D01*
X019274Y013042D01*
X019318Y013086D01*
X019366Y013128D01*
X019415Y013166D01*
X019467Y013201D01*
X019521Y013233D01*
X019577Y013262D01*
X019635Y013287D01*
X019694Y013308D01*
X019754Y013326D01*
X019816Y013339D01*
X019878Y013349D01*
X019940Y013355D01*
X020003Y013357D01*
X020066Y013355D01*
X020128Y013349D01*
X020190Y013339D01*
X020252Y013326D01*
X020312Y013308D01*
X020371Y013287D01*
X020429Y013262D01*
X020485Y013233D01*
X020539Y013201D01*
X020591Y013166D01*
X020640Y013128D01*
X020688Y013086D01*
X020732Y013042D01*
X020774Y012994D01*
X020812Y012945D01*
X020847Y012893D01*
X020879Y012839D01*
X020908Y012783D01*
X020933Y012725D01*
X020954Y012666D01*
X020972Y012606D01*
X020985Y012544D01*
X020995Y012482D01*
X021001Y012420D01*
X021003Y012357D01*
X021001Y012294D01*
X020995Y012232D01*
X020985Y012170D01*
X020972Y012108D01*
X020954Y012048D01*
X020933Y011989D01*
X020908Y011931D01*
X020879Y011875D01*
X020847Y011821D01*
X020812Y011769D01*
X020774Y011720D01*
X020732Y011672D01*
X020688Y011628D01*
X020640Y011586D01*
X020591Y011548D01*
X020539Y011513D01*
X020485Y011481D01*
X020429Y011452D01*
X020371Y011427D01*
X020312Y011406D01*
X020252Y011388D01*
X020190Y011375D01*
X020128Y011365D01*
X020066Y011359D01*
X020003Y011357D01*
X019940Y011359D01*
X019878Y011365D01*
X019816Y011375D01*
X019754Y011388D01*
X019694Y011406D01*
X019635Y011427D01*
X019577Y011452D01*
X019521Y011481D01*
X019467Y011513D01*
X019415Y011548D01*
X019366Y011586D01*
X019318Y011628D01*
X019274Y011672D01*
X019232Y011720D01*
X019194Y011769D01*
X019159Y011821D01*
X019127Y011875D01*
X019098Y011931D01*
X019073Y011989D01*
X019052Y012048D01*
X019034Y012108D01*
X019021Y012170D01*
X019011Y012232D01*
X019005Y012294D01*
X019003Y012357D01*
X018453Y012707D02*
X018453Y012857D01*
X018403Y012907D01*
X018403Y014807D01*
X018453Y014857D01*
X018453Y015007D01*
X018451Y015024D01*
X018447Y015041D01*
X018440Y015057D01*
X018430Y015071D01*
X018417Y015084D01*
X018403Y015094D01*
X018387Y015101D01*
X018370Y015105D01*
X018353Y015107D01*
X017653Y015107D01*
X017636Y015105D01*
X017619Y015101D01*
X017603Y015094D01*
X017589Y015084D01*
X017576Y015071D01*
X017566Y015057D01*
X017559Y015041D01*
X017555Y015024D01*
X017553Y015007D01*
X017553Y014857D01*
X017603Y014807D01*
X017603Y012907D01*
X017553Y012857D01*
X017553Y012707D01*
X017555Y012690D01*
X017559Y012673D01*
X017566Y012657D01*
X017576Y012643D01*
X017589Y012630D01*
X017603Y012620D01*
X017619Y012613D01*
X017636Y012609D01*
X017653Y012607D01*
X018353Y012607D01*
X018370Y012609D01*
X018387Y012613D01*
X018403Y012620D01*
X018417Y012630D01*
X018430Y012643D01*
X018440Y012657D01*
X018447Y012673D01*
X018451Y012690D01*
X018453Y012707D01*
X014503Y012357D02*
X014505Y012420D01*
X014511Y012482D01*
X014521Y012544D01*
X014534Y012606D01*
X014552Y012666D01*
X014573Y012725D01*
X014598Y012783D01*
X014627Y012839D01*
X014659Y012893D01*
X014694Y012945D01*
X014732Y012994D01*
X014774Y013042D01*
X014818Y013086D01*
X014866Y013128D01*
X014915Y013166D01*
X014967Y013201D01*
X015021Y013233D01*
X015077Y013262D01*
X015135Y013287D01*
X015194Y013308D01*
X015254Y013326D01*
X015316Y013339D01*
X015378Y013349D01*
X015440Y013355D01*
X015503Y013357D01*
X015566Y013355D01*
X015628Y013349D01*
X015690Y013339D01*
X015752Y013326D01*
X015812Y013308D01*
X015871Y013287D01*
X015929Y013262D01*
X015985Y013233D01*
X016039Y013201D01*
X016091Y013166D01*
X016140Y013128D01*
X016188Y013086D01*
X016232Y013042D01*
X016274Y012994D01*
X016312Y012945D01*
X016347Y012893D01*
X016379Y012839D01*
X016408Y012783D01*
X016433Y012725D01*
X016454Y012666D01*
X016472Y012606D01*
X016485Y012544D01*
X016495Y012482D01*
X016501Y012420D01*
X016503Y012357D01*
X016501Y012294D01*
X016495Y012232D01*
X016485Y012170D01*
X016472Y012108D01*
X016454Y012048D01*
X016433Y011989D01*
X016408Y011931D01*
X016379Y011875D01*
X016347Y011821D01*
X016312Y011769D01*
X016274Y011720D01*
X016232Y011672D01*
X016188Y011628D01*
X016140Y011586D01*
X016091Y011548D01*
X016039Y011513D01*
X015985Y011481D01*
X015929Y011452D01*
X015871Y011427D01*
X015812Y011406D01*
X015752Y011388D01*
X015690Y011375D01*
X015628Y011365D01*
X015566Y011359D01*
X015503Y011357D01*
X015440Y011359D01*
X015378Y011365D01*
X015316Y011375D01*
X015254Y011388D01*
X015194Y011406D01*
X015135Y011427D01*
X015077Y011452D01*
X015021Y011481D01*
X014967Y011513D01*
X014915Y011548D01*
X014866Y011586D01*
X014818Y011628D01*
X014774Y011672D01*
X014732Y011720D01*
X014694Y011769D01*
X014659Y011821D01*
X014627Y011875D01*
X014598Y011931D01*
X014573Y011989D01*
X014552Y012048D01*
X014534Y012108D01*
X014521Y012170D01*
X014511Y012232D01*
X014505Y012294D01*
X014503Y012357D01*
X013794Y013221D02*
X013094Y013221D01*
X013077Y013223D01*
X013060Y013227D01*
X013044Y013234D01*
X013030Y013244D01*
X013017Y013257D01*
X013007Y013271D01*
X013000Y013287D01*
X012996Y013304D01*
X012994Y013321D01*
X012994Y013471D01*
X013044Y013521D01*
X013044Y015421D01*
X012994Y015471D01*
X012994Y015621D01*
X012996Y015638D01*
X013000Y015655D01*
X013007Y015671D01*
X013017Y015685D01*
X013030Y015698D01*
X013044Y015708D01*
X013060Y015715D01*
X013077Y015719D01*
X013094Y015721D01*
X013794Y015721D01*
X013811Y015719D01*
X013828Y015715D01*
X013844Y015708D01*
X013858Y015698D01*
X013871Y015685D01*
X013881Y015671D01*
X013888Y015655D01*
X013892Y015638D01*
X013894Y015621D01*
X013894Y015471D01*
X013844Y015421D01*
X013844Y013521D01*
X013894Y013471D01*
X013894Y013321D01*
X013892Y013304D01*
X013888Y013287D01*
X013881Y013271D01*
X013871Y013257D01*
X013858Y013244D01*
X013844Y013234D01*
X013828Y013227D01*
X013811Y013223D01*
X013794Y013221D01*
X014503Y015357D02*
X014505Y015420D01*
X014511Y015482D01*
X014521Y015544D01*
X014534Y015606D01*
X014552Y015666D01*
X014573Y015725D01*
X014598Y015783D01*
X014627Y015839D01*
X014659Y015893D01*
X014694Y015945D01*
X014732Y015994D01*
X014774Y016042D01*
X014818Y016086D01*
X014866Y016128D01*
X014915Y016166D01*
X014967Y016201D01*
X015021Y016233D01*
X015077Y016262D01*
X015135Y016287D01*
X015194Y016308D01*
X015254Y016326D01*
X015316Y016339D01*
X015378Y016349D01*
X015440Y016355D01*
X015503Y016357D01*
X015566Y016355D01*
X015628Y016349D01*
X015690Y016339D01*
X015752Y016326D01*
X015812Y016308D01*
X015871Y016287D01*
X015929Y016262D01*
X015985Y016233D01*
X016039Y016201D01*
X016091Y016166D01*
X016140Y016128D01*
X016188Y016086D01*
X016232Y016042D01*
X016274Y015994D01*
X016312Y015945D01*
X016347Y015893D01*
X016379Y015839D01*
X016408Y015783D01*
X016433Y015725D01*
X016454Y015666D01*
X016472Y015606D01*
X016485Y015544D01*
X016495Y015482D01*
X016501Y015420D01*
X016503Y015357D01*
X016501Y015294D01*
X016495Y015232D01*
X016485Y015170D01*
X016472Y015108D01*
X016454Y015048D01*
X016433Y014989D01*
X016408Y014931D01*
X016379Y014875D01*
X016347Y014821D01*
X016312Y014769D01*
X016274Y014720D01*
X016232Y014672D01*
X016188Y014628D01*
X016140Y014586D01*
X016091Y014548D01*
X016039Y014513D01*
X015985Y014481D01*
X015929Y014452D01*
X015871Y014427D01*
X015812Y014406D01*
X015752Y014388D01*
X015690Y014375D01*
X015628Y014365D01*
X015566Y014359D01*
X015503Y014357D01*
X015440Y014359D01*
X015378Y014365D01*
X015316Y014375D01*
X015254Y014388D01*
X015194Y014406D01*
X015135Y014427D01*
X015077Y014452D01*
X015021Y014481D01*
X014967Y014513D01*
X014915Y014548D01*
X014866Y014586D01*
X014818Y014628D01*
X014774Y014672D01*
X014732Y014720D01*
X014694Y014769D01*
X014659Y014821D01*
X014627Y014875D01*
X014598Y014931D01*
X014573Y014989D01*
X014552Y015048D01*
X014534Y015108D01*
X014521Y015170D01*
X014511Y015232D01*
X014505Y015294D01*
X014503Y015357D01*
X014873Y016727D02*
X014623Y016977D01*
X014623Y018247D01*
X014303Y018457D01*
X014303Y020257D01*
X014623Y020487D01*
X014623Y021737D01*
X014873Y021987D01*
X017133Y021987D01*
X017383Y021737D01*
X017383Y020487D01*
X017703Y020257D01*
X017703Y018457D01*
X017383Y018227D01*
X017383Y016977D01*
X017133Y016727D01*
X014873Y016727D01*
X013383Y016977D02*
X013383Y018227D01*
X013703Y018457D01*
X013703Y020257D01*
X013383Y020487D01*
X013383Y021737D01*
X013133Y021987D01*
X010873Y021987D01*
X010623Y021737D01*
X010623Y020487D01*
X010303Y020257D01*
X010303Y018457D01*
X010623Y018247D01*
X010623Y016977D01*
X010873Y016727D01*
X013133Y016727D01*
X013383Y016977D01*
X018753Y017007D02*
X018753Y017707D01*
X018755Y017724D01*
X018759Y017741D01*
X018766Y017757D01*
X018776Y017771D01*
X018789Y017784D01*
X018803Y017794D01*
X018819Y017801D01*
X018836Y017805D01*
X018853Y017807D01*
X019003Y017807D01*
X019053Y017757D01*
X020953Y017757D01*
X021003Y017807D01*
X021153Y017807D01*
X021170Y017805D01*
X021187Y017801D01*
X021203Y017794D01*
X021217Y017784D01*
X021230Y017771D01*
X021240Y017757D01*
X021247Y017741D01*
X021251Y017724D01*
X021253Y017707D01*
X021253Y017007D01*
X021251Y016990D01*
X021247Y016973D01*
X021240Y016957D01*
X021230Y016943D01*
X021217Y016930D01*
X021203Y016920D01*
X021187Y016913D01*
X021170Y016909D01*
X021153Y016907D01*
X021003Y016907D01*
X020953Y016957D01*
X019053Y016957D01*
X019003Y016907D01*
X018853Y016907D01*
X018836Y016909D01*
X018819Y016913D01*
X018803Y016920D01*
X018789Y016930D01*
X018776Y016943D01*
X018766Y016957D01*
X018759Y016973D01*
X018755Y016990D01*
X018753Y017007D01*
X019003Y015357D02*
X019005Y015420D01*
X019011Y015482D01*
X019021Y015544D01*
X019034Y015606D01*
X019052Y015666D01*
X019073Y015725D01*
X019098Y015783D01*
X019127Y015839D01*
X019159Y015893D01*
X019194Y015945D01*
X019232Y015994D01*
X019274Y016042D01*
X019318Y016086D01*
X019366Y016128D01*
X019415Y016166D01*
X019467Y016201D01*
X019521Y016233D01*
X019577Y016262D01*
X019635Y016287D01*
X019694Y016308D01*
X019754Y016326D01*
X019816Y016339D01*
X019878Y016349D01*
X019940Y016355D01*
X020003Y016357D01*
X020066Y016355D01*
X020128Y016349D01*
X020190Y016339D01*
X020252Y016326D01*
X020312Y016308D01*
X020371Y016287D01*
X020429Y016262D01*
X020485Y016233D01*
X020539Y016201D01*
X020591Y016166D01*
X020640Y016128D01*
X020688Y016086D01*
X020732Y016042D01*
X020774Y015994D01*
X020812Y015945D01*
X020847Y015893D01*
X020879Y015839D01*
X020908Y015783D01*
X020933Y015725D01*
X020954Y015666D01*
X020972Y015606D01*
X020985Y015544D01*
X020995Y015482D01*
X021001Y015420D01*
X021003Y015357D01*
X021001Y015294D01*
X020995Y015232D01*
X020985Y015170D01*
X020972Y015108D01*
X020954Y015048D01*
X020933Y014989D01*
X020908Y014931D01*
X020879Y014875D01*
X020847Y014821D01*
X020812Y014769D01*
X020774Y014720D01*
X020732Y014672D01*
X020688Y014628D01*
X020640Y014586D01*
X020591Y014548D01*
X020539Y014513D01*
X020485Y014481D01*
X020429Y014452D01*
X020371Y014427D01*
X020312Y014406D01*
X020252Y014388D01*
X020190Y014375D01*
X020128Y014365D01*
X020066Y014359D01*
X020003Y014357D01*
X019940Y014359D01*
X019878Y014365D01*
X019816Y014375D01*
X019754Y014388D01*
X019694Y014406D01*
X019635Y014427D01*
X019577Y014452D01*
X019521Y014481D01*
X019467Y014513D01*
X019415Y014548D01*
X019366Y014586D01*
X019318Y014628D01*
X019274Y014672D01*
X019232Y014720D01*
X019194Y014769D01*
X019159Y014821D01*
X019127Y014875D01*
X019098Y014931D01*
X019073Y014989D01*
X019052Y015048D01*
X019034Y015108D01*
X019021Y015170D01*
X019011Y015232D01*
X019005Y015294D01*
X019003Y015357D01*
X013953Y011007D02*
X013953Y010857D01*
X013903Y010807D01*
X013903Y008907D01*
X013953Y008857D01*
X013953Y008707D01*
X013951Y008690D01*
X013947Y008673D01*
X013940Y008657D01*
X013930Y008643D01*
X013917Y008630D01*
X013903Y008620D01*
X013887Y008613D01*
X013870Y008609D01*
X013853Y008607D01*
X013153Y008607D01*
X013136Y008609D01*
X013119Y008613D01*
X013103Y008620D01*
X013089Y008630D01*
X013076Y008643D01*
X013066Y008657D01*
X013059Y008673D01*
X013055Y008690D01*
X013053Y008707D01*
X013053Y008857D01*
X013103Y008907D01*
X013103Y010807D01*
X013053Y010857D01*
X013053Y011007D01*
X013055Y011024D01*
X013059Y011041D01*
X013066Y011057D01*
X013076Y011071D01*
X013089Y011084D01*
X013103Y011094D01*
X013119Y011101D01*
X013136Y011105D01*
X013153Y011107D01*
X013853Y011107D01*
X013870Y011105D01*
X013887Y011101D01*
X013903Y011094D01*
X013917Y011084D01*
X013930Y011071D01*
X013940Y011057D01*
X013947Y011041D01*
X013951Y011024D01*
X013953Y011007D01*
X014503Y009357D02*
X014505Y009420D01*
X014511Y009482D01*
X014521Y009544D01*
X014534Y009606D01*
X014552Y009666D01*
X014573Y009725D01*
X014598Y009783D01*
X014627Y009839D01*
X014659Y009893D01*
X014694Y009945D01*
X014732Y009994D01*
X014774Y010042D01*
X014818Y010086D01*
X014866Y010128D01*
X014915Y010166D01*
X014967Y010201D01*
X015021Y010233D01*
X015077Y010262D01*
X015135Y010287D01*
X015194Y010308D01*
X015254Y010326D01*
X015316Y010339D01*
X015378Y010349D01*
X015440Y010355D01*
X015503Y010357D01*
X015566Y010355D01*
X015628Y010349D01*
X015690Y010339D01*
X015752Y010326D01*
X015812Y010308D01*
X015871Y010287D01*
X015929Y010262D01*
X015985Y010233D01*
X016039Y010201D01*
X016091Y010166D01*
X016140Y010128D01*
X016188Y010086D01*
X016232Y010042D01*
X016274Y009994D01*
X016312Y009945D01*
X016347Y009893D01*
X016379Y009839D01*
X016408Y009783D01*
X016433Y009725D01*
X016454Y009666D01*
X016472Y009606D01*
X016485Y009544D01*
X016495Y009482D01*
X016501Y009420D01*
X016503Y009357D01*
X016501Y009294D01*
X016495Y009232D01*
X016485Y009170D01*
X016472Y009108D01*
X016454Y009048D01*
X016433Y008989D01*
X016408Y008931D01*
X016379Y008875D01*
X016347Y008821D01*
X016312Y008769D01*
X016274Y008720D01*
X016232Y008672D01*
X016188Y008628D01*
X016140Y008586D01*
X016091Y008548D01*
X016039Y008513D01*
X015985Y008481D01*
X015929Y008452D01*
X015871Y008427D01*
X015812Y008406D01*
X015752Y008388D01*
X015690Y008375D01*
X015628Y008365D01*
X015566Y008359D01*
X015503Y008357D01*
X015440Y008359D01*
X015378Y008365D01*
X015316Y008375D01*
X015254Y008388D01*
X015194Y008406D01*
X015135Y008427D01*
X015077Y008452D01*
X015021Y008481D01*
X014967Y008513D01*
X014915Y008548D01*
X014866Y008586D01*
X014818Y008628D01*
X014774Y008672D01*
X014732Y008720D01*
X014694Y008769D01*
X014659Y008821D01*
X014627Y008875D01*
X014598Y008931D01*
X014573Y008989D01*
X014552Y009048D01*
X014534Y009108D01*
X014521Y009170D01*
X014511Y009232D01*
X014505Y009294D01*
X014503Y009357D01*
X014503Y007307D02*
X014453Y007257D01*
X012553Y007257D01*
X012503Y007307D01*
X012353Y007307D01*
X012336Y007305D01*
X012319Y007301D01*
X012303Y007294D01*
X012289Y007284D01*
X012276Y007271D01*
X012266Y007257D01*
X012259Y007241D01*
X012255Y007224D01*
X012253Y007207D01*
X012253Y006507D01*
X012255Y006490D01*
X012259Y006473D01*
X012266Y006457D01*
X012276Y006443D01*
X012289Y006430D01*
X012303Y006420D01*
X012319Y006413D01*
X012336Y006409D01*
X012353Y006407D01*
X012503Y006407D01*
X012553Y006457D01*
X014453Y006457D01*
X014503Y006407D01*
X014653Y006407D01*
X014670Y006409D01*
X014687Y006413D01*
X014703Y006420D01*
X014717Y006430D01*
X014730Y006443D01*
X014740Y006457D01*
X014747Y006473D01*
X014751Y006490D01*
X014753Y006507D01*
X014753Y007207D01*
X014751Y007224D01*
X014747Y007241D01*
X014740Y007257D01*
X014730Y007271D01*
X014717Y007284D01*
X014703Y007294D01*
X014687Y007301D01*
X014670Y007305D01*
X014653Y007307D01*
X014503Y007307D01*
X017953Y009357D02*
X018253Y009357D01*
X017834Y009796D02*
X017866Y009841D01*
X017900Y009883D01*
X017938Y009923D01*
X017977Y009960D01*
X018020Y009995D01*
X018064Y010026D01*
X018111Y010054D01*
X018160Y010080D01*
X018210Y010101D01*
X018261Y010120D01*
X018314Y010134D01*
X018367Y010145D01*
X018421Y010153D01*
X018476Y010157D01*
X018530Y010157D01*
X018585Y010153D01*
X018639Y010145D01*
X018692Y010134D01*
X018745Y010120D01*
X018796Y010101D01*
X018846Y010080D01*
X018895Y010054D01*
X018942Y010026D01*
X018986Y009995D01*
X019029Y009960D01*
X019068Y009923D01*
X019106Y009883D01*
X019140Y009841D01*
X019172Y009796D01*
X018803Y009757D02*
X018603Y009757D01*
X018603Y008957D01*
X018803Y008957D01*
X018803Y009357D01*
X018803Y009757D01*
X018803Y009357D02*
X019053Y009357D01*
X019003Y009207D02*
X019003Y009007D01*
X019103Y009107D02*
X018903Y009107D01*
X019172Y008918D02*
X019140Y008873D01*
X019106Y008831D01*
X019068Y008791D01*
X019029Y008754D01*
X018986Y008719D01*
X018942Y008688D01*
X018895Y008660D01*
X018846Y008634D01*
X018796Y008613D01*
X018745Y008594D01*
X018692Y008580D01*
X018639Y008569D01*
X018585Y008561D01*
X018530Y008557D01*
X018476Y008557D01*
X018421Y008561D01*
X018367Y008569D01*
X018314Y008580D01*
X018261Y008594D01*
X018210Y008613D01*
X018160Y008634D01*
X018111Y008660D01*
X018064Y008688D01*
X018020Y008719D01*
X017977Y008754D01*
X017938Y008791D01*
X017900Y008831D01*
X017866Y008873D01*
X017834Y008918D01*
X024503Y003357D02*
X024753Y003107D01*
X025253Y003107D01*
X025503Y003357D01*
X034372Y005924D02*
X034585Y006137D01*
X035012Y006137D01*
X035012Y006355D02*
X034372Y006355D01*
X034372Y006675D01*
X034478Y006782D01*
X034692Y006782D01*
X034799Y006675D01*
X034799Y006355D01*
X034799Y006568D02*
X035012Y006782D01*
X035012Y006999D02*
X035012Y007426D01*
X034905Y007644D02*
X035012Y007750D01*
X035012Y007964D01*
X034905Y008071D01*
X034799Y008071D01*
X034692Y007964D01*
X034692Y007750D01*
X034585Y007644D01*
X034478Y007644D01*
X034372Y007750D01*
X034372Y007964D01*
X034478Y008071D01*
X034372Y007426D02*
X034372Y006999D01*
X035012Y006999D01*
X034692Y006999D02*
X034692Y007213D01*
X034692Y006137D02*
X034692Y005710D01*
X034585Y005710D02*
X034372Y005924D01*
X034585Y005710D02*
X035012Y005710D01*
X035012Y008933D02*
X034585Y009360D01*
X034478Y009360D01*
X034372Y009253D01*
X034372Y009040D01*
X034478Y008933D01*
X035012Y008933D02*
X035012Y009360D01*
X034905Y009577D02*
X034478Y009577D01*
X034372Y009684D01*
X034372Y009898D01*
X034478Y010004D01*
X034905Y009577D01*
X035012Y009684D01*
X035012Y009898D01*
X034905Y010004D01*
X034478Y010004D01*
X034585Y010222D02*
X034372Y010435D01*
X035012Y010435D01*
X035012Y010222D02*
X035012Y010649D01*
X034692Y010866D02*
X034692Y011293D01*
X035012Y011187D02*
X034372Y011187D01*
X034692Y010866D01*
X031693Y013584D02*
X029895Y013584D01*
X030134Y015726D02*
X030136Y015752D01*
X030142Y015778D01*
X030151Y015802D01*
X030164Y015825D01*
X030180Y015846D01*
X030199Y015864D01*
X030220Y015880D01*
X030244Y015892D01*
X030268Y015900D01*
X030294Y015905D01*
X030321Y015906D01*
X030347Y015903D01*
X030372Y015896D01*
X030396Y015886D01*
X030419Y015872D01*
X030439Y015856D01*
X030456Y015836D01*
X030471Y015814D01*
X030482Y015790D01*
X030490Y015765D01*
X030494Y015739D01*
X030494Y015713D01*
X030490Y015687D01*
X030482Y015662D01*
X030471Y015638D01*
X030456Y015616D01*
X030439Y015596D01*
X030419Y015580D01*
X030396Y015566D01*
X030372Y015556D01*
X030347Y015549D01*
X030321Y015546D01*
X030294Y015547D01*
X030268Y015552D01*
X030244Y015560D01*
X030220Y015572D01*
X030199Y015588D01*
X030180Y015606D01*
X030164Y015627D01*
X030151Y015650D01*
X030142Y015674D01*
X030136Y015700D01*
X030134Y015726D01*
X029895Y016076D02*
X031693Y016076D01*
X026408Y020765D02*
X026158Y020515D01*
X025658Y020515D01*
X025408Y020765D01*
X025158Y020515D01*
X024658Y020515D01*
X024408Y020765D01*
X024158Y020515D01*
X023658Y020515D01*
X023408Y020765D01*
X023408Y021265D01*
X023658Y021515D01*
X024158Y021515D01*
X024408Y021265D01*
X024658Y021515D01*
X025158Y021515D01*
X025408Y021265D01*
X025658Y021515D01*
X026158Y021515D01*
X026408Y021265D01*
X026408Y020765D01*
X025408Y020765D02*
X025408Y021265D01*
X024408Y021265D02*
X024408Y020765D01*
X024253Y022107D02*
X023753Y022107D01*
X023503Y022357D01*
X023503Y023857D01*
X023753Y024107D01*
X024253Y024107D01*
X024503Y023857D01*
X024503Y022357D01*
X024253Y022107D01*
X024503Y022357D02*
X024753Y022107D01*
X025253Y022107D01*
X025503Y022357D01*
X025753Y022107D01*
X026253Y022107D01*
X026503Y022357D01*
X026753Y022107D01*
X027253Y022107D01*
X027503Y022357D01*
X027753Y022107D01*
X028253Y022107D01*
X028503Y022357D01*
X028753Y022107D01*
X029253Y022107D01*
X029503Y022357D01*
X029753Y022107D01*
X030253Y022107D01*
X030503Y022357D01*
X030753Y022107D01*
X031253Y022107D01*
X031503Y022357D01*
X031753Y022107D01*
X032253Y022107D01*
X032503Y022357D01*
X032503Y023857D01*
X032253Y024107D01*
X031753Y024107D01*
X031503Y023857D01*
X031503Y022357D01*
X030503Y022357D02*
X030503Y023857D01*
X030753Y024107D01*
X031253Y024107D01*
X031503Y023857D01*
X030503Y023857D02*
X030253Y024107D01*
X029753Y024107D01*
X029503Y023857D01*
X029503Y022357D01*
X028503Y022357D02*
X028503Y023857D01*
X028753Y024107D01*
X029253Y024107D01*
X029503Y023857D01*
X028503Y023857D02*
X028253Y024107D01*
X027753Y024107D01*
X027503Y023857D01*
X027503Y022357D01*
X026503Y022357D02*
X026503Y023857D01*
X026753Y024107D01*
X027253Y024107D01*
X027503Y023857D01*
X026503Y023857D02*
X026253Y024107D01*
X025753Y024107D01*
X025503Y023857D01*
X025503Y022357D01*
X025503Y023857D02*
X025253Y024107D01*
X024753Y024107D01*
X024503Y023857D01*
X023503Y023857D02*
X023253Y024107D01*
X022753Y024107D01*
X022503Y023857D01*
X022503Y022357D01*
X022253Y022107D01*
X021753Y022107D01*
X021503Y022357D01*
X021503Y023857D01*
X021753Y024107D01*
X022253Y024107D01*
X022503Y023857D01*
X021503Y023857D02*
X021253Y024107D01*
X020753Y024107D01*
X020503Y023857D01*
X020503Y022357D01*
X020253Y022107D01*
X019753Y022107D01*
X019503Y022357D01*
X019503Y023857D01*
X019753Y024107D01*
X020253Y024107D01*
X020503Y023857D01*
X019503Y023857D02*
X019253Y024107D01*
X018753Y024107D01*
X018503Y023857D01*
X018503Y022357D01*
X018253Y022107D01*
X017753Y022107D01*
X017503Y022357D01*
X017503Y023857D01*
X017753Y024107D01*
X018253Y024107D01*
X018503Y023857D01*
X017503Y023857D02*
X017253Y024107D01*
X016753Y024107D01*
X016503Y023857D01*
X016503Y022357D01*
X016253Y022107D01*
X015753Y022107D01*
X015503Y022357D01*
X015503Y023857D01*
X015753Y024107D01*
X016253Y024107D01*
X016503Y023857D01*
X015503Y023857D02*
X015253Y024107D01*
X014753Y024107D01*
X014503Y023857D01*
X014503Y022357D01*
X014753Y022107D01*
X015253Y022107D01*
X015503Y022357D01*
X014503Y022357D02*
X014253Y022107D01*
X013753Y022107D01*
X013503Y022357D01*
X013503Y023857D01*
X013753Y024107D01*
X014253Y024107D01*
X014503Y023857D01*
X013503Y023857D02*
X013253Y024107D01*
X012753Y024107D01*
X012503Y023857D01*
X012503Y022357D01*
X012753Y022107D01*
X013253Y022107D01*
X013503Y022357D01*
X012503Y022357D02*
X012253Y022107D01*
X011753Y022107D01*
X011503Y022357D01*
X011503Y023857D01*
X011753Y024107D01*
X012253Y024107D01*
X012503Y023857D01*
X011503Y023857D02*
X011253Y024107D01*
X010753Y024107D01*
X010503Y023857D01*
X010503Y022357D01*
X010753Y022107D01*
X011253Y022107D01*
X011503Y022357D01*
X010503Y022357D02*
X010253Y022107D01*
X009753Y022107D01*
X009503Y022357D01*
X009503Y023857D01*
X009753Y024107D01*
X010253Y024107D01*
X010503Y023857D01*
X016503Y022357D02*
X016753Y022107D01*
X017253Y022107D01*
X017503Y022357D01*
X018503Y022357D02*
X018753Y022107D01*
X019253Y022107D01*
X019503Y022357D01*
X019188Y021461D02*
X019038Y021461D01*
X019021Y021459D01*
X019004Y021455D01*
X018988Y021448D01*
X018974Y021438D01*
X018961Y021425D01*
X018951Y021411D01*
X018944Y021395D01*
X018940Y021378D01*
X018938Y021361D01*
X018938Y020661D01*
X018940Y020644D01*
X018944Y020627D01*
X018951Y020611D01*
X018961Y020597D01*
X018974Y020584D01*
X018988Y020574D01*
X019004Y020567D01*
X019021Y020563D01*
X019038Y020561D01*
X019188Y020561D01*
X019238Y020611D01*
X021138Y020611D01*
X021188Y020561D01*
X021338Y020561D01*
X021355Y020563D01*
X021372Y020567D01*
X021388Y020574D01*
X021402Y020584D01*
X021415Y020597D01*
X021425Y020611D01*
X021432Y020627D01*
X021436Y020644D01*
X021438Y020661D01*
X021438Y021361D01*
X021436Y021378D01*
X021432Y021395D01*
X021425Y021411D01*
X021415Y021425D01*
X021402Y021438D01*
X021388Y021448D01*
X021372Y021455D01*
X021355Y021459D01*
X021338Y021461D01*
X021188Y021461D01*
X021138Y021411D01*
X019238Y021411D01*
X019188Y021461D01*
X020503Y022357D02*
X020753Y022107D01*
X021253Y022107D01*
X021503Y022357D01*
X022503Y022357D02*
X022753Y022107D01*
X023253Y022107D01*
X023503Y022357D01*
D11*
X031971Y007971D02*
X033198Y007971D01*
X032278Y007971D02*
X032278Y006744D01*
X031971Y006744D02*
X031357Y007357D01*
X031971Y007971D01*
X031971Y006744D02*
X033198Y006744D01*
X033198Y006130D02*
X033198Y005516D01*
X033198Y005823D02*
X031357Y005823D01*
X031357Y005516D02*
X031357Y006130D01*
D12*
X033209Y013796D02*
X033133Y013873D01*
X033133Y014027D01*
X033209Y014103D01*
X033133Y014257D02*
X033593Y014257D01*
X033440Y014257D02*
X033133Y014564D01*
X033286Y014717D02*
X033133Y014871D01*
X033593Y014871D01*
X033593Y015024D02*
X033593Y014717D01*
X033593Y014564D02*
X033363Y014334D01*
X033440Y014103D02*
X033516Y014103D01*
X033593Y014027D01*
X033593Y013873D01*
X033516Y013796D01*
X033363Y013873D02*
X033363Y014027D01*
X033440Y014103D01*
X033363Y013873D02*
X033286Y013796D01*
X033209Y013796D01*
X030603Y016246D02*
X030362Y016246D01*
X030483Y016246D02*
X030483Y016606D01*
X030362Y016486D01*
X030234Y016606D02*
X030234Y016306D01*
X030174Y016246D01*
X030054Y016246D01*
X029994Y016306D01*
X029994Y016606D01*
X032912Y019598D02*
X033373Y019905D01*
X033373Y020058D02*
X033373Y020365D01*
X033373Y020211D02*
X032912Y020211D01*
X033066Y020058D01*
X032912Y019905D02*
X033373Y019598D01*
X020733Y010201D02*
X020733Y009894D01*
X020733Y010048D02*
X020272Y010048D01*
X020426Y009894D01*
X020349Y009741D02*
X020272Y009664D01*
X020272Y009511D01*
X020349Y009434D01*
X020656Y009434D01*
X020733Y009511D01*
X020733Y009664D01*
X020656Y009741D01*
X020733Y009281D02*
X020733Y009127D01*
X020733Y009204D02*
X020272Y009204D01*
X020272Y009127D02*
X020272Y009281D01*
X013247Y014299D02*
X013247Y014453D01*
X013170Y014529D01*
X012786Y014529D01*
X012863Y014683D02*
X012786Y014759D01*
X012786Y014913D01*
X012863Y014990D01*
X012863Y015143D02*
X012786Y015220D01*
X012786Y015373D01*
X012863Y015450D01*
X012940Y015450D01*
X013016Y015373D01*
X013093Y015450D01*
X013170Y015450D01*
X013247Y015373D01*
X013247Y015220D01*
X013170Y015143D01*
X013170Y014990D02*
X013093Y014990D01*
X013016Y014913D01*
X013016Y014759D01*
X012940Y014683D01*
X012863Y014683D01*
X012709Y014836D02*
X013323Y014836D01*
X013247Y014759D02*
X013247Y014913D01*
X013170Y014990D01*
X013247Y014759D02*
X013170Y014683D01*
X013247Y014299D02*
X013170Y014222D01*
X012786Y014222D01*
X013016Y015297D02*
X013016Y015373D01*
X012383Y012885D02*
X012383Y012424D01*
X012536Y012424D02*
X012229Y012424D01*
X012076Y012424D02*
X011769Y012424D01*
X011922Y012424D02*
X011922Y012885D01*
X011769Y012731D01*
X011615Y012655D02*
X011538Y012578D01*
X011308Y012578D01*
X011308Y012424D02*
X011308Y012885D01*
X011538Y012885D01*
X011615Y012808D01*
X011615Y012655D01*
X011462Y012578D02*
X011615Y012424D01*
X012229Y012731D02*
X012383Y012885D01*
X012392Y011235D02*
X012469Y011158D01*
X012162Y010852D01*
X012239Y010775D01*
X012392Y010775D01*
X012469Y010852D01*
X012469Y011158D01*
X012392Y011235D02*
X012239Y011235D01*
X012162Y011158D01*
X012162Y010852D01*
X012009Y010775D02*
X011702Y010775D01*
X011855Y010775D02*
X011855Y011235D01*
X011702Y011082D01*
X011548Y011158D02*
X011548Y011005D01*
X011472Y010928D01*
X011241Y010928D01*
X011241Y010775D02*
X011241Y011235D01*
X011472Y011235D01*
X011548Y011158D01*
X011395Y010928D02*
X011548Y010775D01*
X010137Y006914D02*
X010137Y006300D01*
X010213Y006377D02*
X010290Y006454D01*
X010290Y006531D01*
X010213Y006607D01*
X010060Y006607D01*
X009983Y006684D01*
X009983Y006761D01*
X010060Y006838D01*
X010213Y006838D01*
X010290Y006761D01*
X010444Y006684D02*
X010597Y006838D01*
X010597Y006377D01*
X010444Y006377D02*
X010751Y006377D01*
X010213Y006377D02*
X010060Y006377D01*
X009983Y006454D01*
X009830Y006454D02*
X009830Y006838D01*
X009523Y006838D02*
X009523Y006454D01*
X009600Y006377D01*
X009753Y006377D01*
X009830Y006454D01*
X010137Y021300D02*
X010137Y021914D01*
X010213Y021838D02*
X010290Y021761D01*
X010213Y021838D02*
X010060Y021838D01*
X009983Y021761D01*
X009983Y021684D01*
X010060Y021607D01*
X010213Y021607D01*
X010290Y021531D01*
X010290Y021454D01*
X010213Y021377D01*
X010060Y021377D01*
X009983Y021454D01*
X009830Y021454D02*
X009830Y021838D01*
X009523Y021838D02*
X009523Y021454D01*
X009600Y021377D01*
X009753Y021377D01*
X009830Y021454D01*
X010444Y021377D02*
X010751Y021377D01*
X010597Y021377D02*
X010597Y021838D01*
X010444Y021684D01*
D13*
X028904Y005424D02*
X029218Y005110D01*
X029218Y005267D02*
X028904Y005267D01*
X028904Y005110D02*
X029218Y005424D01*
X029061Y005424D02*
X029061Y005110D01*
D14*
X029009Y005097D02*
X028763Y005097D01*
X028639Y004974D01*
X028639Y004357D01*
X028378Y004480D02*
X028378Y004603D01*
X028254Y004727D01*
X028007Y004727D01*
X027884Y004850D01*
X027884Y004974D01*
X028007Y005097D01*
X028254Y005097D01*
X028378Y004974D01*
X028131Y005221D02*
X028131Y004233D01*
X028254Y004357D02*
X028007Y004357D01*
X027884Y004480D01*
X027623Y004480D02*
X027499Y004357D01*
X027252Y004357D01*
X027129Y004480D01*
X027129Y004603D01*
X027623Y005097D01*
X027129Y005097D01*
X028254Y004357D02*
X028378Y004480D01*
X029133Y004357D02*
X029133Y004974D01*
X029009Y005097D01*
X021003Y011607D02*
X021003Y013107D01*
X021003Y014607D02*
X021003Y016107D01*
X016503Y016107D02*
X016503Y014607D01*
X016503Y013107D02*
X016503Y011607D01*
X016503Y010107D02*
X016503Y008607D01*
X033530Y018652D02*
X036444Y018652D01*
X036444Y021881D01*
X033530Y021881D01*
X033530Y018652D01*
X035902Y018751D02*
X035902Y019095D01*
X036040Y019233D01*
X036385Y019233D01*
X036385Y019922D02*
X036040Y019922D01*
X035902Y020060D01*
X035902Y020473D01*
X036040Y020611D01*
X036385Y020611D01*
X036385Y021300D02*
X036040Y021300D01*
X035902Y021438D01*
X035902Y021782D01*
D15*
X035778Y018304D02*
X035385Y018304D01*
X035385Y018107D01*
X034204Y018107D01*
X034204Y018304D01*
X033810Y018304D01*
X033810Y013580D01*
X034204Y013580D01*
X034204Y013776D01*
X035385Y013776D01*
X035385Y013580D01*
X035778Y013580D01*
X035778Y018304D01*
X026303Y019820D02*
X026003Y019820D01*
X026153Y019820D02*
X026153Y020270D01*
X026003Y020120D01*
X025843Y020195D02*
X025843Y020045D01*
X025768Y019970D01*
X025543Y019970D01*
X025543Y019820D02*
X025543Y020270D01*
X025768Y020270D01*
X025843Y020195D01*
X025382Y020270D02*
X025232Y020270D01*
X025307Y020270D02*
X025307Y019895D01*
X025232Y019820D01*
X025157Y019820D01*
X025082Y019895D01*
X021253Y020161D02*
X020952Y020161D01*
X021178Y020386D01*
X021178Y019936D01*
X020792Y019936D02*
X020642Y020086D01*
X020717Y020086D02*
X020492Y020086D01*
X020492Y019936D02*
X020492Y020386D01*
X020717Y020386D01*
X020792Y020311D01*
X020792Y020161D01*
X020717Y020086D01*
X019588Y018433D02*
X019288Y018433D01*
X019288Y018207D01*
X019438Y018282D01*
X019513Y018282D01*
X019588Y018207D01*
X019588Y018057D01*
X019513Y017982D01*
X019363Y017982D01*
X019288Y018057D01*
X019128Y017982D02*
X018978Y018132D01*
X019053Y018132D02*
X018828Y018132D01*
X018828Y017982D02*
X018828Y018433D01*
X019053Y018433D01*
X019128Y018357D01*
X019128Y018207D01*
X019053Y018132D01*
X018384Y016043D02*
X018459Y015967D01*
X018459Y015892D01*
X018384Y015817D01*
X018459Y015742D01*
X018459Y015667D01*
X018384Y015592D01*
X018234Y015592D01*
X018159Y015667D01*
X017999Y015667D02*
X017999Y015967D01*
X017924Y016043D01*
X017699Y016043D01*
X017699Y015592D01*
X017924Y015592D01*
X017999Y015667D01*
X018309Y015817D02*
X018384Y015817D01*
X018384Y016043D02*
X018234Y016043D01*
X018159Y015967D01*
X017538Y016043D02*
X017238Y016043D01*
X017238Y015592D01*
X017538Y015592D01*
X017388Y015817D02*
X017238Y015817D01*
X017078Y015592D02*
X016778Y015592D01*
X016778Y016043D01*
X014519Y015236D02*
X014444Y015236D01*
X014143Y015536D01*
X014068Y015536D01*
X014068Y015236D01*
X014143Y015076D02*
X014294Y015076D01*
X014369Y015001D01*
X014369Y014776D01*
X014369Y014926D02*
X014519Y015076D01*
X014519Y014776D02*
X014068Y014776D01*
X014068Y015001D01*
X014143Y015076D01*
X012570Y015780D02*
X012176Y015780D01*
X012176Y015584D01*
X010995Y015584D01*
X010995Y015780D01*
X010601Y015780D01*
X010601Y013056D01*
X010995Y013056D01*
X010995Y013253D01*
X012176Y013253D01*
X012176Y013056D01*
X012570Y013056D01*
X012570Y015780D01*
X016778Y013043D02*
X016778Y012592D01*
X017078Y012592D01*
X017238Y012592D02*
X017238Y013043D01*
X017538Y013043D01*
X017699Y013043D02*
X017699Y012592D01*
X017924Y012592D01*
X017999Y012667D01*
X017999Y012967D01*
X017924Y013043D01*
X017699Y013043D01*
X017378Y012982D02*
X017228Y012832D01*
X017238Y012817D02*
X017388Y012817D01*
X017378Y012682D02*
X016927Y012682D01*
X016927Y012907D01*
X017003Y012982D01*
X017153Y012982D01*
X017228Y012907D01*
X017228Y012682D01*
X017238Y012592D02*
X017538Y012592D01*
X017303Y013143D02*
X017153Y013143D01*
X017153Y013368D01*
X017228Y013443D01*
X017303Y013443D01*
X017378Y013368D01*
X017378Y013218D01*
X017303Y013143D01*
X017153Y013143D02*
X017003Y013293D01*
X016927Y013443D01*
X018159Y012817D02*
X018459Y012817D01*
X018384Y012592D02*
X018384Y013043D01*
X018159Y012817D01*
X021278Y012592D02*
X021578Y012592D01*
X021738Y012592D02*
X021738Y013043D01*
X022038Y013043D01*
X022199Y013043D02*
X022424Y013043D01*
X022499Y012967D01*
X022499Y012667D01*
X022424Y012592D01*
X022199Y012592D01*
X022199Y013043D01*
X021888Y012817D02*
X021738Y012817D01*
X021738Y012592D02*
X022038Y012592D01*
X022659Y012592D02*
X022959Y012892D01*
X022959Y012967D01*
X022884Y013043D01*
X022734Y013043D01*
X022659Y012967D01*
X022659Y012592D02*
X022959Y012592D01*
X023127Y013661D02*
X023127Y013887D01*
X023203Y013962D01*
X023353Y013962D01*
X023428Y013887D01*
X023428Y013661D01*
X023578Y013661D02*
X023127Y013661D01*
X023428Y013812D02*
X023578Y013962D01*
X023578Y014122D02*
X023278Y014422D01*
X023203Y014422D01*
X023127Y014347D01*
X023127Y014197D01*
X023203Y014122D01*
X023578Y014122D02*
X023578Y014422D01*
X022959Y015592D02*
X022659Y015592D01*
X022809Y015592D02*
X022809Y016043D01*
X022659Y015892D01*
X022499Y015967D02*
X022499Y015667D01*
X022424Y015592D01*
X022199Y015592D01*
X022199Y016043D01*
X022424Y016043D01*
X022499Y015967D01*
X022038Y016043D02*
X021738Y016043D01*
X021738Y015592D01*
X022038Y015592D01*
X021888Y015817D02*
X021738Y015817D01*
X021578Y015592D02*
X021278Y015592D01*
X021278Y016043D01*
X021278Y013043D02*
X021278Y012592D01*
X024427Y012407D02*
X024427Y012182D01*
X024878Y012182D01*
X024853Y012272D02*
X024853Y012347D01*
X024928Y012422D01*
X025003Y012422D01*
X025078Y012347D01*
X025078Y012197D01*
X025003Y012122D01*
X025078Y011962D02*
X024928Y011812D01*
X024928Y011887D02*
X024928Y011661D01*
X025078Y011661D02*
X024627Y011661D01*
X024627Y011887D01*
X024703Y011962D01*
X024853Y011962D01*
X024928Y011887D01*
X024703Y012122D02*
X024627Y012197D01*
X024627Y012347D01*
X024703Y012422D01*
X024778Y012422D01*
X024853Y012347D01*
X024728Y012332D02*
X024878Y012482D01*
X024878Y012643D02*
X024878Y012943D01*
X024878Y012793D02*
X024427Y012793D01*
X024578Y012643D01*
X024653Y012482D02*
X024728Y012407D01*
X024728Y012182D01*
X024653Y012482D02*
X024503Y012482D01*
X024427Y012407D01*
X021674Y008583D02*
X021524Y008583D01*
X021449Y008507D01*
X021288Y008507D02*
X021288Y008357D01*
X021213Y008282D01*
X020988Y008282D01*
X020988Y008132D02*
X020988Y008583D01*
X021213Y008583D01*
X021288Y008507D01*
X021674Y008583D02*
X021749Y008507D01*
X021749Y008432D01*
X021449Y008132D01*
X021749Y008132D01*
X020828Y008583D02*
X020678Y008583D01*
X020753Y008583D02*
X020753Y008207D01*
X020678Y008132D01*
X020603Y008132D01*
X020528Y008207D01*
X020328Y007622D02*
X020328Y007322D01*
X020028Y007622D01*
X019953Y007622D01*
X019877Y007547D01*
X019877Y007397D01*
X019953Y007322D01*
X019953Y007162D02*
X019877Y007087D01*
X019877Y006936D01*
X019953Y006861D01*
X020253Y006861D01*
X020328Y006936D01*
X020328Y007087D01*
X020253Y007162D01*
X017518Y008382D02*
X017217Y008382D01*
X017368Y008382D02*
X017368Y008833D01*
X017217Y008682D01*
X017057Y008757D02*
X016982Y008833D01*
X016832Y008833D01*
X016757Y008757D01*
X016757Y008457D01*
X016832Y008382D01*
X016982Y008382D01*
X017057Y008457D01*
X017078Y009592D02*
X016778Y009592D01*
X016778Y010043D01*
X017238Y010043D02*
X017238Y009592D01*
X017538Y009592D01*
X017699Y009592D02*
X017924Y009592D01*
X017999Y009667D01*
X017999Y009967D01*
X017924Y010043D01*
X017699Y010043D01*
X017699Y009592D01*
X017388Y009817D02*
X017238Y009817D01*
X017238Y010043D02*
X017538Y010043D01*
X018159Y010043D02*
X018159Y009817D01*
X018309Y009892D01*
X018384Y009892D01*
X018459Y009817D01*
X018459Y009667D01*
X018384Y009592D01*
X018234Y009592D01*
X018159Y009667D01*
X018159Y010043D02*
X018459Y010043D01*
X014578Y010161D02*
X014127Y010161D01*
X014127Y010387D01*
X014203Y010462D01*
X014353Y010462D01*
X014428Y010387D01*
X014428Y010161D01*
X014428Y010312D02*
X014578Y010462D01*
X014503Y010622D02*
X014578Y010697D01*
X014578Y010847D01*
X014503Y010922D01*
X014203Y010922D01*
X014127Y010847D01*
X014127Y010697D01*
X014203Y010622D01*
X014278Y010622D01*
X014353Y010697D01*
X014353Y010922D01*
X014343Y006233D02*
X014493Y006233D01*
X014568Y006157D01*
X014568Y006082D01*
X014493Y006007D01*
X014343Y006007D01*
X014267Y006082D01*
X014267Y006157D01*
X014343Y006233D01*
X014343Y006007D02*
X014267Y005932D01*
X014267Y005857D01*
X014343Y005782D01*
X014493Y005782D01*
X014568Y005857D01*
X014568Y005932D01*
X014493Y006007D01*
X014107Y006007D02*
X014032Y005932D01*
X013807Y005932D01*
X013807Y005782D02*
X013807Y006233D01*
X014032Y006233D01*
X014107Y006157D01*
X014107Y006007D01*
X013957Y005932D02*
X014107Y005782D01*
D16*
X013503Y008437D03*
X013503Y011277D03*
X013444Y013051D03*
X013444Y015891D03*
X018003Y015277D03*
X018003Y012437D03*
X022503Y011937D03*
X024003Y012777D03*
X025503Y011937D03*
X024003Y009937D03*
X025503Y014777D03*
X022503Y014777D03*
D17*
X018303Y009357D03*
D18*
X018703Y006957D02*
X019003Y006957D01*
X019303Y006957D01*
X019303Y006757D02*
X019003Y006757D01*
X018703Y006757D01*
D19*
X016535Y010137D02*
X016463Y010083D01*
X016464Y010084D02*
X016421Y010137D01*
X016376Y010188D01*
X016327Y010236D01*
X016276Y010281D01*
X016222Y010324D01*
X016166Y010363D01*
X016108Y010399D01*
X016048Y010432D01*
X015987Y010461D01*
X015923Y010486D01*
X015859Y010508D01*
X015793Y010527D01*
X015726Y010541D01*
X015659Y010552D01*
X015591Y010559D01*
X015523Y010562D01*
X015454Y010561D01*
X015386Y010556D01*
X015318Y010548D01*
X015251Y010535D01*
X015185Y010519D01*
X015120Y010499D01*
X015055Y010476D01*
X014993Y010449D01*
X014932Y010418D01*
X014873Y010384D01*
X014815Y010347D01*
X014760Y010306D01*
X014708Y010262D01*
X014658Y010216D01*
X014611Y010167D01*
X014566Y010115D01*
X014525Y010061D01*
X014486Y010004D01*
X014451Y009945D01*
X014420Y009885D01*
X014392Y009823D01*
X014367Y009759D01*
X014346Y009694D01*
X014329Y009628D01*
X014315Y009561D01*
X014306Y009493D01*
X014300Y009425D01*
X014298Y009357D01*
X014300Y009289D01*
X014306Y009221D01*
X014315Y009153D01*
X014329Y009086D01*
X014346Y009020D01*
X014367Y008955D01*
X014392Y008891D01*
X014420Y008829D01*
X014451Y008769D01*
X014486Y008710D01*
X014525Y008653D01*
X014566Y008599D01*
X014611Y008547D01*
X014658Y008498D01*
X014708Y008452D01*
X014760Y008408D01*
X014815Y008367D01*
X014873Y008330D01*
X014932Y008296D01*
X014993Y008265D01*
X015055Y008238D01*
X015120Y008215D01*
X015185Y008195D01*
X015251Y008179D01*
X015318Y008166D01*
X015386Y008158D01*
X015454Y008153D01*
X015523Y008152D01*
X015591Y008155D01*
X015659Y008162D01*
X015726Y008173D01*
X015793Y008187D01*
X015859Y008206D01*
X015923Y008228D01*
X015987Y008253D01*
X016048Y008282D01*
X016108Y008315D01*
X016166Y008351D01*
X016222Y008390D01*
X016276Y008433D01*
X016327Y008478D01*
X016376Y008526D01*
X016421Y008577D01*
X016464Y008630D01*
X016535Y008577D01*
X016536Y008576D01*
X016492Y008521D01*
X016444Y008468D01*
X016394Y008417D01*
X016341Y008370D01*
X016286Y008326D01*
X016228Y008284D01*
X016168Y008246D01*
X016107Y008211D01*
X016043Y008180D01*
X015978Y008152D01*
X015911Y008128D01*
X015843Y008107D01*
X015774Y008091D01*
X015704Y008078D01*
X015634Y008069D01*
X015563Y008063D01*
X015492Y008062D01*
X015421Y008065D01*
X015350Y008071D01*
X015280Y008081D01*
X015211Y008095D01*
X015142Y008113D01*
X015074Y008135D01*
X015008Y008160D01*
X014943Y008189D01*
X014880Y008222D01*
X014819Y008258D01*
X014760Y008297D01*
X014703Y008339D01*
X014648Y008384D01*
X014596Y008433D01*
X014547Y008484D01*
X014500Y008537D01*
X014457Y008594D01*
X014417Y008652D01*
X014380Y008713D01*
X014346Y008775D01*
X014316Y008839D01*
X014289Y008905D01*
X014266Y008972D01*
X014247Y009041D01*
X014232Y009110D01*
X014220Y009180D01*
X014212Y009251D01*
X014208Y009322D01*
X014208Y009392D01*
X014212Y009463D01*
X014220Y009534D01*
X014232Y009604D01*
X014247Y009673D01*
X014266Y009742D01*
X014289Y009809D01*
X014316Y009875D01*
X014346Y009939D01*
X014380Y010001D01*
X014417Y010062D01*
X014457Y010120D01*
X014500Y010177D01*
X014547Y010230D01*
X014596Y010281D01*
X014648Y010330D01*
X014703Y010375D01*
X014760Y010417D01*
X014819Y010456D01*
X014880Y010492D01*
X014943Y010525D01*
X015008Y010554D01*
X015074Y010579D01*
X015142Y010601D01*
X015211Y010619D01*
X015280Y010633D01*
X015350Y010643D01*
X015421Y010649D01*
X015492Y010652D01*
X015563Y010651D01*
X015634Y010645D01*
X015704Y010636D01*
X015774Y010623D01*
X015843Y010607D01*
X015911Y010586D01*
X015978Y010562D01*
X016043Y010534D01*
X016107Y010503D01*
X016168Y010468D01*
X016228Y010430D01*
X016286Y010388D01*
X016341Y010344D01*
X016394Y010297D01*
X016444Y010246D01*
X016492Y010193D01*
X016536Y010138D01*
X016529Y010133D01*
X016484Y010188D01*
X016437Y010241D01*
X016386Y010292D01*
X016333Y010339D01*
X016277Y010384D01*
X016219Y010425D01*
X016159Y010463D01*
X016097Y010498D01*
X016033Y010529D01*
X015967Y010556D01*
X015900Y010580D01*
X015831Y010600D01*
X015762Y010617D01*
X015692Y010629D01*
X015621Y010638D01*
X015550Y010642D01*
X015479Y010643D01*
X015408Y010639D01*
X015337Y010632D01*
X015266Y010621D01*
X015197Y010606D01*
X015128Y010587D01*
X015060Y010564D01*
X014994Y010538D01*
X014929Y010508D01*
X014867Y010474D01*
X014806Y010438D01*
X014747Y010397D01*
X014690Y010354D01*
X014636Y010307D01*
X014585Y010258D01*
X014537Y010205D01*
X014491Y010151D01*
X014449Y010093D01*
X014410Y010034D01*
X014374Y009972D01*
X014341Y009909D01*
X014313Y009844D01*
X014287Y009777D01*
X014266Y009709D01*
X014248Y009640D01*
X014235Y009570D01*
X014225Y009499D01*
X014219Y009428D01*
X014217Y009357D01*
X014219Y009286D01*
X014225Y009215D01*
X014235Y009144D01*
X014248Y009074D01*
X014266Y009005D01*
X014287Y008937D01*
X014313Y008870D01*
X014341Y008805D01*
X014374Y008742D01*
X014410Y008680D01*
X014449Y008621D01*
X014491Y008563D01*
X014537Y008509D01*
X014585Y008456D01*
X014636Y008407D01*
X014690Y008360D01*
X014747Y008317D01*
X014806Y008276D01*
X014867Y008240D01*
X014929Y008206D01*
X014994Y008176D01*
X015060Y008150D01*
X015128Y008127D01*
X015197Y008108D01*
X015266Y008093D01*
X015337Y008082D01*
X015408Y008075D01*
X015479Y008071D01*
X015550Y008072D01*
X015621Y008076D01*
X015692Y008085D01*
X015762Y008097D01*
X015831Y008114D01*
X015900Y008134D01*
X015967Y008158D01*
X016033Y008185D01*
X016097Y008216D01*
X016159Y008251D01*
X016219Y008289D01*
X016277Y008330D01*
X016333Y008375D01*
X016386Y008422D01*
X016437Y008473D01*
X016484Y008526D01*
X016529Y008581D01*
X016522Y008587D01*
X016477Y008532D01*
X016430Y008479D01*
X016380Y008429D01*
X016327Y008382D01*
X016272Y008338D01*
X016214Y008296D01*
X016155Y008259D01*
X016093Y008224D01*
X016029Y008193D01*
X015964Y008166D01*
X015897Y008142D01*
X015829Y008122D01*
X015760Y008106D01*
X015691Y008094D01*
X015620Y008085D01*
X015550Y008081D01*
X015479Y008080D01*
X015408Y008084D01*
X015338Y008091D01*
X015268Y008102D01*
X015199Y008117D01*
X015131Y008136D01*
X015063Y008158D01*
X014998Y008184D01*
X014933Y008214D01*
X014871Y008247D01*
X014811Y008284D01*
X014752Y008324D01*
X014696Y008367D01*
X014642Y008413D01*
X014592Y008463D01*
X014543Y008514D01*
X014498Y008569D01*
X014456Y008626D01*
X014417Y008685D01*
X014382Y008746D01*
X014349Y008809D01*
X014321Y008874D01*
X014296Y008940D01*
X014275Y009008D01*
X014257Y009076D01*
X014244Y009146D01*
X014234Y009216D01*
X014228Y009286D01*
X014226Y009357D01*
X014228Y009428D01*
X014234Y009498D01*
X014244Y009568D01*
X014257Y009638D01*
X014275Y009706D01*
X014296Y009774D01*
X014321Y009840D01*
X014349Y009905D01*
X014382Y009968D01*
X014417Y010029D01*
X014456Y010088D01*
X014498Y010145D01*
X014543Y010200D01*
X014592Y010251D01*
X014642Y010301D01*
X014696Y010347D01*
X014752Y010390D01*
X014811Y010430D01*
X014871Y010467D01*
X014933Y010500D01*
X014998Y010530D01*
X015063Y010556D01*
X015131Y010578D01*
X015199Y010597D01*
X015268Y010612D01*
X015338Y010623D01*
X015408Y010630D01*
X015479Y010634D01*
X015550Y010633D01*
X015620Y010629D01*
X015691Y010620D01*
X015760Y010608D01*
X015829Y010592D01*
X015897Y010572D01*
X015964Y010548D01*
X016029Y010521D01*
X016093Y010490D01*
X016155Y010455D01*
X016214Y010418D01*
X016272Y010376D01*
X016327Y010332D01*
X016380Y010285D01*
X016430Y010235D01*
X016477Y010182D01*
X016522Y010127D01*
X016514Y010122D01*
X016470Y010177D01*
X016422Y010230D01*
X016372Y010280D01*
X016319Y010328D01*
X016263Y010372D01*
X016205Y010413D01*
X016145Y010450D01*
X016083Y010485D01*
X016019Y010515D01*
X015953Y010542D01*
X015886Y010566D01*
X015818Y010585D01*
X015748Y010601D01*
X015678Y010613D01*
X015608Y010621D01*
X015537Y010625D01*
X015466Y010624D01*
X015395Y010620D01*
X015324Y010612D01*
X015254Y010600D01*
X015185Y010584D01*
X015117Y010565D01*
X015049Y010541D01*
X014984Y010514D01*
X014920Y010483D01*
X014858Y010449D01*
X014798Y010411D01*
X014740Y010369D01*
X014684Y010325D01*
X014631Y010278D01*
X014581Y010227D01*
X014534Y010174D01*
X014489Y010119D01*
X014448Y010061D01*
X014411Y010001D01*
X014376Y009938D01*
X014345Y009874D01*
X014318Y009809D01*
X014295Y009742D01*
X014275Y009673D01*
X014259Y009604D01*
X014247Y009534D01*
X014239Y009463D01*
X014235Y009393D01*
X014235Y009321D01*
X014239Y009251D01*
X014247Y009180D01*
X014259Y009110D01*
X014275Y009041D01*
X014295Y008972D01*
X014318Y008905D01*
X014345Y008840D01*
X014376Y008776D01*
X014411Y008713D01*
X014448Y008653D01*
X014489Y008595D01*
X014534Y008540D01*
X014581Y008487D01*
X014631Y008436D01*
X014684Y008389D01*
X014740Y008345D01*
X014798Y008303D01*
X014858Y008265D01*
X014920Y008231D01*
X014984Y008200D01*
X015049Y008173D01*
X015117Y008149D01*
X015185Y008130D01*
X015254Y008114D01*
X015324Y008102D01*
X015395Y008094D01*
X015466Y008090D01*
X015537Y008089D01*
X015608Y008093D01*
X015678Y008101D01*
X015748Y008113D01*
X015818Y008129D01*
X015886Y008148D01*
X015953Y008172D01*
X016019Y008199D01*
X016083Y008229D01*
X016145Y008264D01*
X016205Y008301D01*
X016263Y008342D01*
X016319Y008386D01*
X016372Y008434D01*
X016422Y008484D01*
X016470Y008537D01*
X016514Y008592D01*
X016507Y008598D01*
X016463Y008543D01*
X016416Y008490D01*
X016366Y008440D01*
X016313Y008393D01*
X016258Y008349D01*
X016200Y008309D01*
X016141Y008271D01*
X016079Y008237D01*
X016015Y008207D01*
X015950Y008180D01*
X015883Y008157D01*
X015815Y008137D01*
X015747Y008122D01*
X015677Y008110D01*
X015607Y008102D01*
X015536Y008098D01*
X015466Y008099D01*
X015395Y008103D01*
X015325Y008111D01*
X015256Y008123D01*
X015187Y008138D01*
X015119Y008158D01*
X015053Y008181D01*
X014988Y008208D01*
X014924Y008239D01*
X014862Y008273D01*
X014803Y008311D01*
X014745Y008352D01*
X014690Y008396D01*
X014637Y008443D01*
X014588Y008493D01*
X014541Y008545D01*
X014497Y008601D01*
X014456Y008658D01*
X014418Y008718D01*
X014384Y008780D01*
X014354Y008843D01*
X014327Y008908D01*
X014303Y008975D01*
X014284Y009043D01*
X014268Y009112D01*
X014256Y009181D01*
X014248Y009251D01*
X014244Y009322D01*
X014244Y009392D01*
X014248Y009463D01*
X014256Y009533D01*
X014268Y009602D01*
X014284Y009671D01*
X014303Y009739D01*
X014327Y009806D01*
X014354Y009871D01*
X014384Y009934D01*
X014418Y009996D01*
X014456Y010056D01*
X014497Y010113D01*
X014541Y010169D01*
X014588Y010221D01*
X014637Y010271D01*
X014690Y010318D01*
X014745Y010362D01*
X014803Y010403D01*
X014862Y010441D01*
X014924Y010475D01*
X014988Y010506D01*
X015053Y010533D01*
X015119Y010556D01*
X015187Y010576D01*
X015256Y010591D01*
X015325Y010603D01*
X015395Y010611D01*
X015466Y010615D01*
X015536Y010616D01*
X015607Y010612D01*
X015677Y010604D01*
X015747Y010592D01*
X015815Y010577D01*
X015883Y010557D01*
X015950Y010534D01*
X016015Y010507D01*
X016079Y010477D01*
X016141Y010443D01*
X016200Y010405D01*
X016258Y010365D01*
X016313Y010321D01*
X016366Y010274D01*
X016416Y010224D01*
X016463Y010171D01*
X016507Y010116D01*
X016500Y010111D01*
X016456Y010166D01*
X016409Y010218D01*
X016360Y010267D01*
X016307Y010314D01*
X016253Y010357D01*
X016195Y010398D01*
X016136Y010435D01*
X016075Y010469D01*
X016011Y010499D01*
X015947Y010526D01*
X015880Y010549D01*
X015813Y010568D01*
X015745Y010583D01*
X015676Y010595D01*
X015606Y010603D01*
X015536Y010607D01*
X015466Y010606D01*
X015396Y010602D01*
X015327Y010594D01*
X015258Y010583D01*
X015189Y010567D01*
X015122Y010548D01*
X015056Y010524D01*
X014991Y010497D01*
X014928Y010467D01*
X014867Y010433D01*
X014808Y010396D01*
X014750Y010355D01*
X014696Y010311D01*
X014644Y010265D01*
X014594Y010215D01*
X014547Y010163D01*
X014504Y010108D01*
X014463Y010051D01*
X014426Y009992D01*
X014392Y009930D01*
X014362Y009867D01*
X014335Y009802D01*
X014312Y009736D01*
X014293Y009669D01*
X014277Y009601D01*
X014265Y009532D01*
X014257Y009462D01*
X014253Y009392D01*
X014253Y009322D01*
X014257Y009252D01*
X014265Y009182D01*
X014277Y009113D01*
X014293Y009045D01*
X014312Y008978D01*
X014335Y008912D01*
X014362Y008847D01*
X014392Y008784D01*
X014426Y008722D01*
X014463Y008663D01*
X014504Y008606D01*
X014547Y008551D01*
X014594Y008499D01*
X014644Y008449D01*
X014696Y008403D01*
X014750Y008359D01*
X014808Y008318D01*
X014867Y008281D01*
X014928Y008247D01*
X014991Y008217D01*
X015056Y008190D01*
X015122Y008166D01*
X015189Y008147D01*
X015258Y008131D01*
X015327Y008120D01*
X015396Y008112D01*
X015466Y008108D01*
X015536Y008107D01*
X015606Y008111D01*
X015676Y008119D01*
X015745Y008131D01*
X015813Y008146D01*
X015880Y008165D01*
X015947Y008188D01*
X016011Y008215D01*
X016075Y008245D01*
X016136Y008279D01*
X016195Y008316D01*
X016253Y008357D01*
X016307Y008400D01*
X016360Y008447D01*
X016409Y008496D01*
X016456Y008548D01*
X016500Y008603D01*
X016493Y008608D01*
X016449Y008554D01*
X016403Y008502D01*
X016354Y008453D01*
X016302Y008407D01*
X016247Y008364D01*
X016190Y008324D01*
X016131Y008287D01*
X016070Y008253D01*
X016008Y008223D01*
X015943Y008197D01*
X015878Y008174D01*
X015811Y008155D01*
X015743Y008139D01*
X015674Y008128D01*
X015605Y008120D01*
X015536Y008116D01*
X015466Y008117D01*
X015397Y008121D01*
X015328Y008128D01*
X015259Y008140D01*
X015192Y008156D01*
X015125Y008175D01*
X015059Y008198D01*
X014995Y008225D01*
X014932Y008255D01*
X014871Y008289D01*
X014813Y008326D01*
X014756Y008366D01*
X014702Y008409D01*
X014650Y008456D01*
X014601Y008505D01*
X014554Y008557D01*
X014511Y008611D01*
X014471Y008668D01*
X014434Y008727D01*
X014400Y008788D01*
X014370Y008851D01*
X014343Y008915D01*
X014320Y008980D01*
X014301Y009047D01*
X014286Y009115D01*
X014274Y009184D01*
X014266Y009253D01*
X014262Y009322D01*
X014262Y009392D01*
X014266Y009461D01*
X014274Y009530D01*
X014286Y009599D01*
X014301Y009667D01*
X014320Y009734D01*
X014343Y009799D01*
X014370Y009863D01*
X014400Y009926D01*
X014434Y009987D01*
X014471Y010046D01*
X014511Y010103D01*
X014554Y010157D01*
X014601Y010209D01*
X014650Y010258D01*
X014702Y010305D01*
X014756Y010348D01*
X014813Y010388D01*
X014871Y010425D01*
X014932Y010459D01*
X014995Y010489D01*
X015059Y010516D01*
X015125Y010539D01*
X015192Y010558D01*
X015259Y010574D01*
X015328Y010586D01*
X015397Y010593D01*
X015466Y010597D01*
X015536Y010598D01*
X015605Y010594D01*
X015674Y010586D01*
X015743Y010575D01*
X015811Y010559D01*
X015878Y010540D01*
X015943Y010517D01*
X016008Y010491D01*
X016070Y010461D01*
X016131Y010427D01*
X016190Y010390D01*
X016247Y010350D01*
X016302Y010307D01*
X016354Y010261D01*
X016403Y010212D01*
X016449Y010160D01*
X016493Y010106D01*
X016486Y010100D01*
X016442Y010154D01*
X016396Y010205D01*
X016347Y010254D01*
X016296Y010300D01*
X016242Y010343D01*
X016185Y010383D01*
X016127Y010419D01*
X016066Y010453D01*
X016004Y010483D01*
X015940Y010509D01*
X015875Y010531D01*
X015809Y010550D01*
X015741Y010566D01*
X015673Y010577D01*
X015605Y010585D01*
X015536Y010589D01*
X015467Y010588D01*
X015398Y010584D01*
X015329Y010577D01*
X015261Y010565D01*
X015194Y010550D01*
X015127Y010530D01*
X015062Y010507D01*
X014999Y010481D01*
X014936Y010451D01*
X014876Y010418D01*
X014818Y010381D01*
X014761Y010341D01*
X014707Y010298D01*
X014656Y010252D01*
X014607Y010203D01*
X014561Y010151D01*
X014518Y010097D01*
X014478Y010041D01*
X014442Y009982D01*
X014408Y009922D01*
X014378Y009860D01*
X014352Y009796D01*
X014329Y009731D01*
X014310Y009664D01*
X014295Y009597D01*
X014283Y009529D01*
X014275Y009460D01*
X014271Y009392D01*
X014271Y009322D01*
X014275Y009254D01*
X014283Y009185D01*
X014295Y009117D01*
X014310Y009050D01*
X014329Y008983D01*
X014352Y008918D01*
X014378Y008854D01*
X014408Y008792D01*
X014442Y008732D01*
X014478Y008673D01*
X014518Y008617D01*
X014561Y008563D01*
X014607Y008511D01*
X014656Y008462D01*
X014707Y008416D01*
X014761Y008373D01*
X014818Y008333D01*
X014876Y008296D01*
X014936Y008263D01*
X014999Y008233D01*
X015062Y008207D01*
X015127Y008184D01*
X015194Y008164D01*
X015261Y008149D01*
X015329Y008137D01*
X015398Y008130D01*
X015467Y008126D01*
X015536Y008125D01*
X015605Y008129D01*
X015673Y008137D01*
X015741Y008148D01*
X015809Y008164D01*
X015875Y008183D01*
X015940Y008205D01*
X016004Y008231D01*
X016066Y008261D01*
X016127Y008295D01*
X016185Y008331D01*
X016242Y008371D01*
X016296Y008414D01*
X016347Y008460D01*
X016396Y008509D01*
X016442Y008560D01*
X016486Y008614D01*
X016478Y008619D01*
X016435Y008565D01*
X016389Y008514D01*
X016339Y008465D01*
X016288Y008419D01*
X016233Y008376D01*
X016176Y008336D01*
X016118Y008300D01*
X016057Y008266D01*
X015994Y008237D01*
X015930Y008211D01*
X015864Y008189D01*
X015797Y008170D01*
X015730Y008155D01*
X015661Y008144D01*
X015592Y008137D01*
X015523Y008134D01*
X015454Y008135D01*
X015384Y008140D01*
X015316Y008148D01*
X015248Y008161D01*
X015180Y008177D01*
X015114Y008198D01*
X015049Y008221D01*
X014985Y008249D01*
X014923Y008280D01*
X014863Y008315D01*
X014805Y008353D01*
X014749Y008394D01*
X014696Y008438D01*
X014645Y008485D01*
X014597Y008535D01*
X014552Y008588D01*
X014510Y008643D01*
X014471Y008700D01*
X014436Y008760D01*
X014404Y008821D01*
X014375Y008884D01*
X014350Y008949D01*
X014329Y009015D01*
X014311Y009082D01*
X014298Y009150D01*
X014288Y009219D01*
X014282Y009288D01*
X014280Y009357D01*
X014282Y009426D01*
X014288Y009495D01*
X014298Y009564D01*
X014311Y009632D01*
X014329Y009699D01*
X014350Y009765D01*
X014375Y009830D01*
X014404Y009893D01*
X014436Y009954D01*
X014471Y010014D01*
X014510Y010071D01*
X014552Y010126D01*
X014597Y010179D01*
X014645Y010229D01*
X014696Y010276D01*
X014749Y010320D01*
X014805Y010361D01*
X014863Y010399D01*
X014923Y010434D01*
X014985Y010465D01*
X015049Y010493D01*
X015114Y010516D01*
X015180Y010537D01*
X015248Y010553D01*
X015316Y010566D01*
X015384Y010574D01*
X015454Y010579D01*
X015523Y010580D01*
X015592Y010577D01*
X015661Y010570D01*
X015730Y010559D01*
X015797Y010544D01*
X015864Y010525D01*
X015930Y010503D01*
X015994Y010477D01*
X016057Y010448D01*
X016118Y010414D01*
X016176Y010378D01*
X016233Y010338D01*
X016288Y010295D01*
X016339Y010249D01*
X016389Y010200D01*
X016435Y010149D01*
X016478Y010095D01*
X016471Y010089D01*
X016428Y010143D01*
X016382Y010194D01*
X016333Y010243D01*
X016282Y010288D01*
X016228Y010331D01*
X016171Y010370D01*
X016113Y010407D01*
X016053Y010440D01*
X015990Y010469D01*
X015927Y010495D01*
X015861Y010517D01*
X015795Y010535D01*
X015728Y010550D01*
X015660Y010561D01*
X015591Y010568D01*
X015523Y010571D01*
X015454Y010570D01*
X015385Y010565D01*
X015317Y010557D01*
X015249Y010544D01*
X015183Y010528D01*
X015117Y010508D01*
X015052Y010484D01*
X014989Y010457D01*
X014928Y010426D01*
X014868Y010392D01*
X014810Y010354D01*
X014755Y010313D01*
X014702Y010269D01*
X014652Y010222D01*
X014604Y010173D01*
X014559Y010121D01*
X014517Y010066D01*
X014479Y010009D01*
X014444Y009950D01*
X014412Y009889D01*
X014383Y009826D01*
X014359Y009762D01*
X014337Y009696D01*
X014320Y009630D01*
X014307Y009562D01*
X014297Y009494D01*
X014291Y009426D01*
X014289Y009357D01*
X014291Y009288D01*
X014297Y009220D01*
X014307Y009152D01*
X014320Y009084D01*
X014337Y009018D01*
X014359Y008952D01*
X014383Y008888D01*
X014412Y008825D01*
X014444Y008764D01*
X014479Y008705D01*
X014517Y008648D01*
X014559Y008593D01*
X014604Y008541D01*
X014652Y008492D01*
X014702Y008445D01*
X014755Y008401D01*
X014810Y008360D01*
X014868Y008322D01*
X014928Y008288D01*
X014989Y008257D01*
X015052Y008230D01*
X015117Y008206D01*
X015183Y008186D01*
X015249Y008170D01*
X015317Y008157D01*
X015385Y008149D01*
X015454Y008144D01*
X015523Y008143D01*
X015591Y008146D01*
X015660Y008153D01*
X015728Y008164D01*
X015795Y008179D01*
X015861Y008197D01*
X015927Y008219D01*
X015990Y008245D01*
X016053Y008274D01*
X016113Y008307D01*
X016171Y008344D01*
X016228Y008383D01*
X016282Y008426D01*
X016333Y008471D01*
X016382Y008520D01*
X016428Y008571D01*
X016471Y008625D01*
X016535Y013137D02*
X016463Y013083D01*
X016464Y013084D02*
X016421Y013137D01*
X016376Y013188D01*
X016327Y013236D01*
X016276Y013281D01*
X016222Y013324D01*
X016166Y013363D01*
X016108Y013399D01*
X016048Y013432D01*
X015987Y013461D01*
X015923Y013486D01*
X015859Y013508D01*
X015793Y013527D01*
X015726Y013541D01*
X015659Y013552D01*
X015591Y013559D01*
X015523Y013562D01*
X015454Y013561D01*
X015386Y013556D01*
X015318Y013548D01*
X015251Y013535D01*
X015185Y013519D01*
X015120Y013499D01*
X015055Y013476D01*
X014993Y013449D01*
X014932Y013418D01*
X014873Y013384D01*
X014815Y013347D01*
X014760Y013306D01*
X014708Y013262D01*
X014658Y013216D01*
X014611Y013167D01*
X014566Y013115D01*
X014525Y013061D01*
X014486Y013004D01*
X014451Y012945D01*
X014420Y012885D01*
X014392Y012823D01*
X014367Y012759D01*
X014346Y012694D01*
X014329Y012628D01*
X014315Y012561D01*
X014306Y012493D01*
X014300Y012425D01*
X014298Y012357D01*
X014300Y012289D01*
X014306Y012221D01*
X014315Y012153D01*
X014329Y012086D01*
X014346Y012020D01*
X014367Y011955D01*
X014392Y011891D01*
X014420Y011829D01*
X014451Y011769D01*
X014486Y011710D01*
X014525Y011653D01*
X014566Y011599D01*
X014611Y011547D01*
X014658Y011498D01*
X014708Y011452D01*
X014760Y011408D01*
X014815Y011367D01*
X014873Y011330D01*
X014932Y011296D01*
X014993Y011265D01*
X015055Y011238D01*
X015120Y011215D01*
X015185Y011195D01*
X015251Y011179D01*
X015318Y011166D01*
X015386Y011158D01*
X015454Y011153D01*
X015523Y011152D01*
X015591Y011155D01*
X015659Y011162D01*
X015726Y011173D01*
X015793Y011187D01*
X015859Y011206D01*
X015923Y011228D01*
X015987Y011253D01*
X016048Y011282D01*
X016108Y011315D01*
X016166Y011351D01*
X016222Y011390D01*
X016276Y011433D01*
X016327Y011478D01*
X016376Y011526D01*
X016421Y011577D01*
X016464Y011630D01*
X016535Y011577D01*
X016536Y011576D01*
X016492Y011521D01*
X016444Y011468D01*
X016394Y011417D01*
X016341Y011370D01*
X016286Y011326D01*
X016228Y011284D01*
X016168Y011246D01*
X016107Y011211D01*
X016043Y011180D01*
X015978Y011152D01*
X015911Y011128D01*
X015843Y011107D01*
X015774Y011091D01*
X015704Y011078D01*
X015634Y011069D01*
X015563Y011063D01*
X015492Y011062D01*
X015421Y011065D01*
X015350Y011071D01*
X015280Y011081D01*
X015211Y011095D01*
X015142Y011113D01*
X015074Y011135D01*
X015008Y011160D01*
X014943Y011189D01*
X014880Y011222D01*
X014819Y011258D01*
X014760Y011297D01*
X014703Y011339D01*
X014648Y011384D01*
X014596Y011433D01*
X014547Y011484D01*
X014500Y011537D01*
X014457Y011594D01*
X014417Y011652D01*
X014380Y011713D01*
X014346Y011775D01*
X014316Y011839D01*
X014289Y011905D01*
X014266Y011972D01*
X014247Y012041D01*
X014232Y012110D01*
X014220Y012180D01*
X014212Y012251D01*
X014208Y012322D01*
X014208Y012392D01*
X014212Y012463D01*
X014220Y012534D01*
X014232Y012604D01*
X014247Y012673D01*
X014266Y012742D01*
X014289Y012809D01*
X014316Y012875D01*
X014346Y012939D01*
X014380Y013001D01*
X014417Y013062D01*
X014457Y013120D01*
X014500Y013177D01*
X014547Y013230D01*
X014596Y013281D01*
X014648Y013330D01*
X014703Y013375D01*
X014760Y013417D01*
X014819Y013456D01*
X014880Y013492D01*
X014943Y013525D01*
X015008Y013554D01*
X015074Y013579D01*
X015142Y013601D01*
X015211Y013619D01*
X015280Y013633D01*
X015350Y013643D01*
X015421Y013649D01*
X015492Y013652D01*
X015563Y013651D01*
X015634Y013645D01*
X015704Y013636D01*
X015774Y013623D01*
X015843Y013607D01*
X015911Y013586D01*
X015978Y013562D01*
X016043Y013534D01*
X016107Y013503D01*
X016168Y013468D01*
X016228Y013430D01*
X016286Y013388D01*
X016341Y013344D01*
X016394Y013297D01*
X016444Y013246D01*
X016492Y013193D01*
X016536Y013138D01*
X016529Y013133D01*
X016484Y013188D01*
X016437Y013241D01*
X016386Y013292D01*
X016333Y013339D01*
X016277Y013384D01*
X016219Y013425D01*
X016159Y013463D01*
X016097Y013498D01*
X016033Y013529D01*
X015967Y013556D01*
X015900Y013580D01*
X015831Y013600D01*
X015762Y013617D01*
X015692Y013629D01*
X015621Y013638D01*
X015550Y013642D01*
X015479Y013643D01*
X015408Y013639D01*
X015337Y013632D01*
X015266Y013621D01*
X015197Y013606D01*
X015128Y013587D01*
X015060Y013564D01*
X014994Y013538D01*
X014929Y013508D01*
X014867Y013474D01*
X014806Y013438D01*
X014747Y013397D01*
X014690Y013354D01*
X014636Y013307D01*
X014585Y013258D01*
X014537Y013205D01*
X014491Y013151D01*
X014449Y013093D01*
X014410Y013034D01*
X014374Y012972D01*
X014341Y012909D01*
X014313Y012844D01*
X014287Y012777D01*
X014266Y012709D01*
X014248Y012640D01*
X014235Y012570D01*
X014225Y012499D01*
X014219Y012428D01*
X014217Y012357D01*
X014219Y012286D01*
X014225Y012215D01*
X014235Y012144D01*
X014248Y012074D01*
X014266Y012005D01*
X014287Y011937D01*
X014313Y011870D01*
X014341Y011805D01*
X014374Y011742D01*
X014410Y011680D01*
X014449Y011621D01*
X014491Y011563D01*
X014537Y011509D01*
X014585Y011456D01*
X014636Y011407D01*
X014690Y011360D01*
X014747Y011317D01*
X014806Y011276D01*
X014867Y011240D01*
X014929Y011206D01*
X014994Y011176D01*
X015060Y011150D01*
X015128Y011127D01*
X015197Y011108D01*
X015266Y011093D01*
X015337Y011082D01*
X015408Y011075D01*
X015479Y011071D01*
X015550Y011072D01*
X015621Y011076D01*
X015692Y011085D01*
X015762Y011097D01*
X015831Y011114D01*
X015900Y011134D01*
X015967Y011158D01*
X016033Y011185D01*
X016097Y011216D01*
X016159Y011251D01*
X016219Y011289D01*
X016277Y011330D01*
X016333Y011375D01*
X016386Y011422D01*
X016437Y011473D01*
X016484Y011526D01*
X016529Y011581D01*
X016522Y011587D01*
X016477Y011532D01*
X016430Y011479D01*
X016380Y011429D01*
X016327Y011382D01*
X016272Y011338D01*
X016214Y011296D01*
X016155Y011259D01*
X016093Y011224D01*
X016029Y011193D01*
X015964Y011166D01*
X015897Y011142D01*
X015829Y011122D01*
X015760Y011106D01*
X015691Y011094D01*
X015620Y011085D01*
X015550Y011081D01*
X015479Y011080D01*
X015408Y011084D01*
X015338Y011091D01*
X015268Y011102D01*
X015199Y011117D01*
X015131Y011136D01*
X015063Y011158D01*
X014998Y011184D01*
X014933Y011214D01*
X014871Y011247D01*
X014811Y011284D01*
X014752Y011324D01*
X014696Y011367D01*
X014642Y011413D01*
X014592Y011463D01*
X014543Y011514D01*
X014498Y011569D01*
X014456Y011626D01*
X014417Y011685D01*
X014382Y011746D01*
X014349Y011809D01*
X014321Y011874D01*
X014296Y011940D01*
X014275Y012008D01*
X014257Y012076D01*
X014244Y012146D01*
X014234Y012216D01*
X014228Y012286D01*
X014226Y012357D01*
X014228Y012428D01*
X014234Y012498D01*
X014244Y012568D01*
X014257Y012638D01*
X014275Y012706D01*
X014296Y012774D01*
X014321Y012840D01*
X014349Y012905D01*
X014382Y012968D01*
X014417Y013029D01*
X014456Y013088D01*
X014498Y013145D01*
X014543Y013200D01*
X014592Y013251D01*
X014642Y013301D01*
X014696Y013347D01*
X014752Y013390D01*
X014811Y013430D01*
X014871Y013467D01*
X014933Y013500D01*
X014998Y013530D01*
X015063Y013556D01*
X015131Y013578D01*
X015199Y013597D01*
X015268Y013612D01*
X015338Y013623D01*
X015408Y013630D01*
X015479Y013634D01*
X015550Y013633D01*
X015620Y013629D01*
X015691Y013620D01*
X015760Y013608D01*
X015829Y013592D01*
X015897Y013572D01*
X015964Y013548D01*
X016029Y013521D01*
X016093Y013490D01*
X016155Y013455D01*
X016214Y013418D01*
X016272Y013376D01*
X016327Y013332D01*
X016380Y013285D01*
X016430Y013235D01*
X016477Y013182D01*
X016522Y013127D01*
X016514Y013122D01*
X016470Y013177D01*
X016422Y013230D01*
X016372Y013280D01*
X016319Y013328D01*
X016263Y013372D01*
X016205Y013413D01*
X016145Y013450D01*
X016083Y013485D01*
X016019Y013515D01*
X015953Y013542D01*
X015886Y013566D01*
X015818Y013585D01*
X015748Y013601D01*
X015678Y013613D01*
X015608Y013621D01*
X015537Y013625D01*
X015466Y013624D01*
X015395Y013620D01*
X015324Y013612D01*
X015254Y013600D01*
X015185Y013584D01*
X015117Y013565D01*
X015049Y013541D01*
X014984Y013514D01*
X014920Y013483D01*
X014858Y013449D01*
X014798Y013411D01*
X014740Y013369D01*
X014684Y013325D01*
X014631Y013278D01*
X014581Y013227D01*
X014534Y013174D01*
X014489Y013119D01*
X014448Y013061D01*
X014411Y013001D01*
X014376Y012938D01*
X014345Y012874D01*
X014318Y012809D01*
X014295Y012742D01*
X014275Y012673D01*
X014259Y012604D01*
X014247Y012534D01*
X014239Y012463D01*
X014235Y012393D01*
X014235Y012321D01*
X014239Y012251D01*
X014247Y012180D01*
X014259Y012110D01*
X014275Y012041D01*
X014295Y011972D01*
X014318Y011905D01*
X014345Y011840D01*
X014376Y011776D01*
X014411Y011713D01*
X014448Y011653D01*
X014489Y011595D01*
X014534Y011540D01*
X014581Y011487D01*
X014631Y011436D01*
X014684Y011389D01*
X014740Y011345D01*
X014798Y011303D01*
X014858Y011265D01*
X014920Y011231D01*
X014984Y011200D01*
X015049Y011173D01*
X015117Y011149D01*
X015185Y011130D01*
X015254Y011114D01*
X015324Y011102D01*
X015395Y011094D01*
X015466Y011090D01*
X015537Y011089D01*
X015608Y011093D01*
X015678Y011101D01*
X015748Y011113D01*
X015818Y011129D01*
X015886Y011148D01*
X015953Y011172D01*
X016019Y011199D01*
X016083Y011229D01*
X016145Y011264D01*
X016205Y011301D01*
X016263Y011342D01*
X016319Y011386D01*
X016372Y011434D01*
X016422Y011484D01*
X016470Y011537D01*
X016514Y011592D01*
X016507Y011598D01*
X016463Y011543D01*
X016416Y011490D01*
X016366Y011440D01*
X016313Y011393D01*
X016258Y011349D01*
X016200Y011309D01*
X016141Y011271D01*
X016079Y011237D01*
X016015Y011207D01*
X015950Y011180D01*
X015883Y011157D01*
X015815Y011137D01*
X015747Y011122D01*
X015677Y011110D01*
X015607Y011102D01*
X015536Y011098D01*
X015466Y011099D01*
X015395Y011103D01*
X015325Y011111D01*
X015256Y011123D01*
X015187Y011138D01*
X015119Y011158D01*
X015053Y011181D01*
X014988Y011208D01*
X014924Y011239D01*
X014862Y011273D01*
X014803Y011311D01*
X014745Y011352D01*
X014690Y011396D01*
X014637Y011443D01*
X014588Y011493D01*
X014541Y011545D01*
X014497Y011601D01*
X014456Y011658D01*
X014418Y011718D01*
X014384Y011780D01*
X014354Y011843D01*
X014327Y011908D01*
X014303Y011975D01*
X014284Y012043D01*
X014268Y012112D01*
X014256Y012181D01*
X014248Y012251D01*
X014244Y012322D01*
X014244Y012392D01*
X014248Y012463D01*
X014256Y012533D01*
X014268Y012602D01*
X014284Y012671D01*
X014303Y012739D01*
X014327Y012806D01*
X014354Y012871D01*
X014384Y012934D01*
X014418Y012996D01*
X014456Y013056D01*
X014497Y013113D01*
X014541Y013169D01*
X014588Y013221D01*
X014637Y013271D01*
X014690Y013318D01*
X014745Y013362D01*
X014803Y013403D01*
X014862Y013441D01*
X014924Y013475D01*
X014988Y013506D01*
X015053Y013533D01*
X015119Y013556D01*
X015187Y013576D01*
X015256Y013591D01*
X015325Y013603D01*
X015395Y013611D01*
X015466Y013615D01*
X015536Y013616D01*
X015607Y013612D01*
X015677Y013604D01*
X015747Y013592D01*
X015815Y013577D01*
X015883Y013557D01*
X015950Y013534D01*
X016015Y013507D01*
X016079Y013477D01*
X016141Y013443D01*
X016200Y013405D01*
X016258Y013365D01*
X016313Y013321D01*
X016366Y013274D01*
X016416Y013224D01*
X016463Y013171D01*
X016507Y013116D01*
X016500Y013111D01*
X016456Y013166D01*
X016409Y013218D01*
X016360Y013267D01*
X016307Y013314D01*
X016253Y013357D01*
X016195Y013398D01*
X016136Y013435D01*
X016075Y013469D01*
X016011Y013499D01*
X015947Y013526D01*
X015880Y013549D01*
X015813Y013568D01*
X015745Y013583D01*
X015676Y013595D01*
X015606Y013603D01*
X015536Y013607D01*
X015466Y013606D01*
X015396Y013602D01*
X015327Y013594D01*
X015258Y013583D01*
X015189Y013567D01*
X015122Y013548D01*
X015056Y013524D01*
X014991Y013497D01*
X014928Y013467D01*
X014867Y013433D01*
X014808Y013396D01*
X014750Y013355D01*
X014696Y013311D01*
X014644Y013265D01*
X014594Y013215D01*
X014547Y013163D01*
X014504Y013108D01*
X014463Y013051D01*
X014426Y012992D01*
X014392Y012930D01*
X014362Y012867D01*
X014335Y012802D01*
X014312Y012736D01*
X014293Y012669D01*
X014277Y012601D01*
X014265Y012532D01*
X014257Y012462D01*
X014253Y012392D01*
X014253Y012322D01*
X014257Y012252D01*
X014265Y012182D01*
X014277Y012113D01*
X014293Y012045D01*
X014312Y011978D01*
X014335Y011912D01*
X014362Y011847D01*
X014392Y011784D01*
X014426Y011722D01*
X014463Y011663D01*
X014504Y011606D01*
X014547Y011551D01*
X014594Y011499D01*
X014644Y011449D01*
X014696Y011403D01*
X014750Y011359D01*
X014808Y011318D01*
X014867Y011281D01*
X014928Y011247D01*
X014991Y011217D01*
X015056Y011190D01*
X015122Y011166D01*
X015189Y011147D01*
X015258Y011131D01*
X015327Y011120D01*
X015396Y011112D01*
X015466Y011108D01*
X015536Y011107D01*
X015606Y011111D01*
X015676Y011119D01*
X015745Y011131D01*
X015813Y011146D01*
X015880Y011165D01*
X015947Y011188D01*
X016011Y011215D01*
X016075Y011245D01*
X016136Y011279D01*
X016195Y011316D01*
X016253Y011357D01*
X016307Y011400D01*
X016360Y011447D01*
X016409Y011496D01*
X016456Y011548D01*
X016500Y011603D01*
X016493Y011608D01*
X016449Y011554D01*
X016403Y011502D01*
X016354Y011453D01*
X016302Y011407D01*
X016247Y011364D01*
X016190Y011324D01*
X016131Y011287D01*
X016070Y011253D01*
X016008Y011223D01*
X015943Y011197D01*
X015878Y011174D01*
X015811Y011155D01*
X015743Y011139D01*
X015674Y011128D01*
X015605Y011120D01*
X015536Y011116D01*
X015466Y011117D01*
X015397Y011121D01*
X015328Y011128D01*
X015259Y011140D01*
X015192Y011156D01*
X015125Y011175D01*
X015059Y011198D01*
X014995Y011225D01*
X014932Y011255D01*
X014871Y011289D01*
X014813Y011326D01*
X014756Y011366D01*
X014702Y011409D01*
X014650Y011456D01*
X014601Y011505D01*
X014554Y011557D01*
X014511Y011611D01*
X014471Y011668D01*
X014434Y011727D01*
X014400Y011788D01*
X014370Y011851D01*
X014343Y011915D01*
X014320Y011980D01*
X014301Y012047D01*
X014286Y012115D01*
X014274Y012184D01*
X014266Y012253D01*
X014262Y012322D01*
X014262Y012392D01*
X014266Y012461D01*
X014274Y012530D01*
X014286Y012599D01*
X014301Y012667D01*
X014320Y012734D01*
X014343Y012799D01*
X014370Y012863D01*
X014400Y012926D01*
X014434Y012987D01*
X014471Y013046D01*
X014511Y013103D01*
X014554Y013157D01*
X014601Y013209D01*
X014650Y013258D01*
X014702Y013305D01*
X014756Y013348D01*
X014813Y013388D01*
X014871Y013425D01*
X014932Y013459D01*
X014995Y013489D01*
X015059Y013516D01*
X015125Y013539D01*
X015192Y013558D01*
X015259Y013574D01*
X015328Y013586D01*
X015397Y013593D01*
X015466Y013597D01*
X015536Y013598D01*
X015605Y013594D01*
X015674Y013586D01*
X015743Y013575D01*
X015811Y013559D01*
X015878Y013540D01*
X015943Y013517D01*
X016008Y013491D01*
X016070Y013461D01*
X016131Y013427D01*
X016190Y013390D01*
X016247Y013350D01*
X016302Y013307D01*
X016354Y013261D01*
X016403Y013212D01*
X016449Y013160D01*
X016493Y013106D01*
X016486Y013100D01*
X016442Y013154D01*
X016396Y013205D01*
X016347Y013254D01*
X016296Y013300D01*
X016242Y013343D01*
X016185Y013383D01*
X016127Y013419D01*
X016066Y013453D01*
X016004Y013483D01*
X015940Y013509D01*
X015875Y013531D01*
X015809Y013550D01*
X015741Y013566D01*
X015673Y013577D01*
X015605Y013585D01*
X015536Y013589D01*
X015467Y013588D01*
X015398Y013584D01*
X015329Y013577D01*
X015261Y013565D01*
X015194Y013550D01*
X015127Y013530D01*
X015062Y013507D01*
X014999Y013481D01*
X014936Y013451D01*
X014876Y013418D01*
X014818Y013381D01*
X014761Y013341D01*
X014707Y013298D01*
X014656Y013252D01*
X014607Y013203D01*
X014561Y013151D01*
X014518Y013097D01*
X014478Y013041D01*
X014442Y012982D01*
X014408Y012922D01*
X014378Y012860D01*
X014352Y012796D01*
X014329Y012731D01*
X014310Y012664D01*
X014295Y012597D01*
X014283Y012529D01*
X014275Y012460D01*
X014271Y012392D01*
X014271Y012322D01*
X014275Y012254D01*
X014283Y012185D01*
X014295Y012117D01*
X014310Y012050D01*
X014329Y011983D01*
X014352Y011918D01*
X014378Y011854D01*
X014408Y011792D01*
X014442Y011732D01*
X014478Y011673D01*
X014518Y011617D01*
X014561Y011563D01*
X014607Y011511D01*
X014656Y011462D01*
X014707Y011416D01*
X014761Y011373D01*
X014818Y011333D01*
X014876Y011296D01*
X014936Y011263D01*
X014999Y011233D01*
X015062Y011207D01*
X015127Y011184D01*
X015194Y011164D01*
X015261Y011149D01*
X015329Y011137D01*
X015398Y011130D01*
X015467Y011126D01*
X015536Y011125D01*
X015605Y011129D01*
X015673Y011137D01*
X015741Y011148D01*
X015809Y011164D01*
X015875Y011183D01*
X015940Y011205D01*
X016004Y011231D01*
X016066Y011261D01*
X016127Y011295D01*
X016185Y011331D01*
X016242Y011371D01*
X016296Y011414D01*
X016347Y011460D01*
X016396Y011509D01*
X016442Y011560D01*
X016486Y011614D01*
X016478Y011619D01*
X016435Y011565D01*
X016389Y011514D01*
X016339Y011465D01*
X016288Y011419D01*
X016233Y011376D01*
X016176Y011336D01*
X016118Y011300D01*
X016057Y011266D01*
X015994Y011237D01*
X015930Y011211D01*
X015864Y011189D01*
X015797Y011170D01*
X015730Y011155D01*
X015661Y011144D01*
X015592Y011137D01*
X015523Y011134D01*
X015454Y011135D01*
X015384Y011140D01*
X015316Y011148D01*
X015248Y011161D01*
X015180Y011177D01*
X015114Y011198D01*
X015049Y011221D01*
X014985Y011249D01*
X014923Y011280D01*
X014863Y011315D01*
X014805Y011353D01*
X014749Y011394D01*
X014696Y011438D01*
X014645Y011485D01*
X014597Y011535D01*
X014552Y011588D01*
X014510Y011643D01*
X014471Y011700D01*
X014436Y011760D01*
X014404Y011821D01*
X014375Y011884D01*
X014350Y011949D01*
X014329Y012015D01*
X014311Y012082D01*
X014298Y012150D01*
X014288Y012219D01*
X014282Y012288D01*
X014280Y012357D01*
X014282Y012426D01*
X014288Y012495D01*
X014298Y012564D01*
X014311Y012632D01*
X014329Y012699D01*
X014350Y012765D01*
X014375Y012830D01*
X014404Y012893D01*
X014436Y012954D01*
X014471Y013014D01*
X014510Y013071D01*
X014552Y013126D01*
X014597Y013179D01*
X014645Y013229D01*
X014696Y013276D01*
X014749Y013320D01*
X014805Y013361D01*
X014863Y013399D01*
X014923Y013434D01*
X014985Y013465D01*
X015049Y013493D01*
X015114Y013516D01*
X015180Y013537D01*
X015248Y013553D01*
X015316Y013566D01*
X015384Y013574D01*
X015454Y013579D01*
X015523Y013580D01*
X015592Y013577D01*
X015661Y013570D01*
X015730Y013559D01*
X015797Y013544D01*
X015864Y013525D01*
X015930Y013503D01*
X015994Y013477D01*
X016057Y013448D01*
X016118Y013414D01*
X016176Y013378D01*
X016233Y013338D01*
X016288Y013295D01*
X016339Y013249D01*
X016389Y013200D01*
X016435Y013149D01*
X016478Y013095D01*
X016471Y013089D01*
X016428Y013143D01*
X016382Y013194D01*
X016333Y013243D01*
X016282Y013288D01*
X016228Y013331D01*
X016171Y013370D01*
X016113Y013407D01*
X016053Y013440D01*
X015990Y013469D01*
X015927Y013495D01*
X015861Y013517D01*
X015795Y013535D01*
X015728Y013550D01*
X015660Y013561D01*
X015591Y013568D01*
X015523Y013571D01*
X015454Y013570D01*
X015385Y013565D01*
X015317Y013557D01*
X015249Y013544D01*
X015183Y013528D01*
X015117Y013508D01*
X015052Y013484D01*
X014989Y013457D01*
X014928Y013426D01*
X014868Y013392D01*
X014810Y013354D01*
X014755Y013313D01*
X014702Y013269D01*
X014652Y013222D01*
X014604Y013173D01*
X014559Y013121D01*
X014517Y013066D01*
X014479Y013009D01*
X014444Y012950D01*
X014412Y012889D01*
X014383Y012826D01*
X014359Y012762D01*
X014337Y012696D01*
X014320Y012630D01*
X014307Y012562D01*
X014297Y012494D01*
X014291Y012426D01*
X014289Y012357D01*
X014291Y012288D01*
X014297Y012220D01*
X014307Y012152D01*
X014320Y012084D01*
X014337Y012018D01*
X014359Y011952D01*
X014383Y011888D01*
X014412Y011825D01*
X014444Y011764D01*
X014479Y011705D01*
X014517Y011648D01*
X014559Y011593D01*
X014604Y011541D01*
X014652Y011492D01*
X014702Y011445D01*
X014755Y011401D01*
X014810Y011360D01*
X014868Y011322D01*
X014928Y011288D01*
X014989Y011257D01*
X015052Y011230D01*
X015117Y011206D01*
X015183Y011186D01*
X015249Y011170D01*
X015317Y011157D01*
X015385Y011149D01*
X015454Y011144D01*
X015523Y011143D01*
X015591Y011146D01*
X015660Y011153D01*
X015728Y011164D01*
X015795Y011179D01*
X015861Y011197D01*
X015927Y011219D01*
X015990Y011245D01*
X016053Y011274D01*
X016113Y011307D01*
X016171Y011344D01*
X016228Y011383D01*
X016282Y011426D01*
X016333Y011471D01*
X016382Y011520D01*
X016428Y011571D01*
X016471Y011625D01*
X021035Y013137D02*
X020963Y013083D01*
X020964Y013084D02*
X020921Y013137D01*
X020876Y013188D01*
X020827Y013236D01*
X020776Y013281D01*
X020722Y013324D01*
X020666Y013363D01*
X020608Y013399D01*
X020548Y013432D01*
X020487Y013461D01*
X020423Y013486D01*
X020359Y013508D01*
X020293Y013527D01*
X020226Y013541D01*
X020159Y013552D01*
X020091Y013559D01*
X020023Y013562D01*
X019954Y013561D01*
X019886Y013556D01*
X019818Y013548D01*
X019751Y013535D01*
X019685Y013519D01*
X019620Y013499D01*
X019555Y013476D01*
X019493Y013449D01*
X019432Y013418D01*
X019373Y013384D01*
X019315Y013347D01*
X019260Y013306D01*
X019208Y013262D01*
X019158Y013216D01*
X019111Y013167D01*
X019066Y013115D01*
X019025Y013061D01*
X018986Y013004D01*
X018951Y012945D01*
X018920Y012885D01*
X018892Y012823D01*
X018867Y012759D01*
X018846Y012694D01*
X018829Y012628D01*
X018815Y012561D01*
X018806Y012493D01*
X018800Y012425D01*
X018798Y012357D01*
X018800Y012289D01*
X018806Y012221D01*
X018815Y012153D01*
X018829Y012086D01*
X018846Y012020D01*
X018867Y011955D01*
X018892Y011891D01*
X018920Y011829D01*
X018951Y011769D01*
X018986Y011710D01*
X019025Y011653D01*
X019066Y011599D01*
X019111Y011547D01*
X019158Y011498D01*
X019208Y011452D01*
X019260Y011408D01*
X019315Y011367D01*
X019373Y011330D01*
X019432Y011296D01*
X019493Y011265D01*
X019555Y011238D01*
X019620Y011215D01*
X019685Y011195D01*
X019751Y011179D01*
X019818Y011166D01*
X019886Y011158D01*
X019954Y011153D01*
X020023Y011152D01*
X020091Y011155D01*
X020159Y011162D01*
X020226Y011173D01*
X020293Y011187D01*
X020359Y011206D01*
X020423Y011228D01*
X020487Y011253D01*
X020548Y011282D01*
X020608Y011315D01*
X020666Y011351D01*
X020722Y011390D01*
X020776Y011433D01*
X020827Y011478D01*
X020876Y011526D01*
X020921Y011577D01*
X020964Y011630D01*
X021035Y011577D01*
X021036Y011576D01*
X020992Y011521D01*
X020944Y011468D01*
X020894Y011417D01*
X020841Y011370D01*
X020786Y011326D01*
X020728Y011284D01*
X020668Y011246D01*
X020607Y011211D01*
X020543Y011180D01*
X020478Y011152D01*
X020411Y011128D01*
X020343Y011107D01*
X020274Y011091D01*
X020204Y011078D01*
X020134Y011069D01*
X020063Y011063D01*
X019992Y011062D01*
X019921Y011065D01*
X019850Y011071D01*
X019780Y011081D01*
X019711Y011095D01*
X019642Y011113D01*
X019574Y011135D01*
X019508Y011160D01*
X019443Y011189D01*
X019380Y011222D01*
X019319Y011258D01*
X019260Y011297D01*
X019203Y011339D01*
X019148Y011384D01*
X019096Y011433D01*
X019047Y011484D01*
X019000Y011537D01*
X018957Y011594D01*
X018917Y011652D01*
X018880Y011713D01*
X018846Y011775D01*
X018816Y011839D01*
X018789Y011905D01*
X018766Y011972D01*
X018747Y012041D01*
X018732Y012110D01*
X018720Y012180D01*
X018712Y012251D01*
X018708Y012322D01*
X018708Y012392D01*
X018712Y012463D01*
X018720Y012534D01*
X018732Y012604D01*
X018747Y012673D01*
X018766Y012742D01*
X018789Y012809D01*
X018816Y012875D01*
X018846Y012939D01*
X018880Y013001D01*
X018917Y013062D01*
X018957Y013120D01*
X019000Y013177D01*
X019047Y013230D01*
X019096Y013281D01*
X019148Y013330D01*
X019203Y013375D01*
X019260Y013417D01*
X019319Y013456D01*
X019380Y013492D01*
X019443Y013525D01*
X019508Y013554D01*
X019574Y013579D01*
X019642Y013601D01*
X019711Y013619D01*
X019780Y013633D01*
X019850Y013643D01*
X019921Y013649D01*
X019992Y013652D01*
X020063Y013651D01*
X020134Y013645D01*
X020204Y013636D01*
X020274Y013623D01*
X020343Y013607D01*
X020411Y013586D01*
X020478Y013562D01*
X020543Y013534D01*
X020607Y013503D01*
X020668Y013468D01*
X020728Y013430D01*
X020786Y013388D01*
X020841Y013344D01*
X020894Y013297D01*
X020944Y013246D01*
X020992Y013193D01*
X021036Y013138D01*
X021029Y013133D01*
X020984Y013188D01*
X020937Y013241D01*
X020886Y013292D01*
X020833Y013339D01*
X020777Y013384D01*
X020719Y013425D01*
X020659Y013463D01*
X020597Y013498D01*
X020533Y013529D01*
X020467Y013556D01*
X020400Y013580D01*
X020331Y013600D01*
X020262Y013617D01*
X020192Y013629D01*
X020121Y013638D01*
X020050Y013642D01*
X019979Y013643D01*
X019908Y013639D01*
X019837Y013632D01*
X019766Y013621D01*
X019697Y013606D01*
X019628Y013587D01*
X019560Y013564D01*
X019494Y013538D01*
X019429Y013508D01*
X019367Y013474D01*
X019306Y013438D01*
X019247Y013397D01*
X019190Y013354D01*
X019136Y013307D01*
X019085Y013258D01*
X019037Y013205D01*
X018991Y013151D01*
X018949Y013093D01*
X018910Y013034D01*
X018874Y012972D01*
X018841Y012909D01*
X018813Y012844D01*
X018787Y012777D01*
X018766Y012709D01*
X018748Y012640D01*
X018735Y012570D01*
X018725Y012499D01*
X018719Y012428D01*
X018717Y012357D01*
X018719Y012286D01*
X018725Y012215D01*
X018735Y012144D01*
X018748Y012074D01*
X018766Y012005D01*
X018787Y011937D01*
X018813Y011870D01*
X018841Y011805D01*
X018874Y011742D01*
X018910Y011680D01*
X018949Y011621D01*
X018991Y011563D01*
X019037Y011509D01*
X019085Y011456D01*
X019136Y011407D01*
X019190Y011360D01*
X019247Y011317D01*
X019306Y011276D01*
X019367Y011240D01*
X019429Y011206D01*
X019494Y011176D01*
X019560Y011150D01*
X019628Y011127D01*
X019697Y011108D01*
X019766Y011093D01*
X019837Y011082D01*
X019908Y011075D01*
X019979Y011071D01*
X020050Y011072D01*
X020121Y011076D01*
X020192Y011085D01*
X020262Y011097D01*
X020331Y011114D01*
X020400Y011134D01*
X020467Y011158D01*
X020533Y011185D01*
X020597Y011216D01*
X020659Y011251D01*
X020719Y011289D01*
X020777Y011330D01*
X020833Y011375D01*
X020886Y011422D01*
X020937Y011473D01*
X020984Y011526D01*
X021029Y011581D01*
X021022Y011587D01*
X020977Y011532D01*
X020930Y011479D01*
X020880Y011429D01*
X020827Y011382D01*
X020772Y011338D01*
X020714Y011296D01*
X020655Y011259D01*
X020593Y011224D01*
X020529Y011193D01*
X020464Y011166D01*
X020397Y011142D01*
X020329Y011122D01*
X020260Y011106D01*
X020191Y011094D01*
X020120Y011085D01*
X020050Y011081D01*
X019979Y011080D01*
X019908Y011084D01*
X019838Y011091D01*
X019768Y011102D01*
X019699Y011117D01*
X019631Y011136D01*
X019563Y011158D01*
X019498Y011184D01*
X019433Y011214D01*
X019371Y011247D01*
X019311Y011284D01*
X019252Y011324D01*
X019196Y011367D01*
X019142Y011413D01*
X019092Y011463D01*
X019043Y011514D01*
X018998Y011569D01*
X018956Y011626D01*
X018917Y011685D01*
X018882Y011746D01*
X018849Y011809D01*
X018821Y011874D01*
X018796Y011940D01*
X018775Y012008D01*
X018757Y012076D01*
X018744Y012146D01*
X018734Y012216D01*
X018728Y012286D01*
X018726Y012357D01*
X018728Y012428D01*
X018734Y012498D01*
X018744Y012568D01*
X018757Y012638D01*
X018775Y012706D01*
X018796Y012774D01*
X018821Y012840D01*
X018849Y012905D01*
X018882Y012968D01*
X018917Y013029D01*
X018956Y013088D01*
X018998Y013145D01*
X019043Y013200D01*
X019092Y013251D01*
X019142Y013301D01*
X019196Y013347D01*
X019252Y013390D01*
X019311Y013430D01*
X019371Y013467D01*
X019433Y013500D01*
X019498Y013530D01*
X019563Y013556D01*
X019631Y013578D01*
X019699Y013597D01*
X019768Y013612D01*
X019838Y013623D01*
X019908Y013630D01*
X019979Y013634D01*
X020050Y013633D01*
X020120Y013629D01*
X020191Y013620D01*
X020260Y013608D01*
X020329Y013592D01*
X020397Y013572D01*
X020464Y013548D01*
X020529Y013521D01*
X020593Y013490D01*
X020655Y013455D01*
X020714Y013418D01*
X020772Y013376D01*
X020827Y013332D01*
X020880Y013285D01*
X020930Y013235D01*
X020977Y013182D01*
X021022Y013127D01*
X021014Y013122D01*
X020970Y013177D01*
X020922Y013230D01*
X020872Y013280D01*
X020819Y013328D01*
X020763Y013372D01*
X020705Y013413D01*
X020645Y013450D01*
X020583Y013485D01*
X020519Y013515D01*
X020453Y013542D01*
X020386Y013566D01*
X020318Y013585D01*
X020248Y013601D01*
X020178Y013613D01*
X020108Y013621D01*
X020037Y013625D01*
X019966Y013624D01*
X019895Y013620D01*
X019824Y013612D01*
X019754Y013600D01*
X019685Y013584D01*
X019617Y013565D01*
X019549Y013541D01*
X019484Y013514D01*
X019420Y013483D01*
X019358Y013449D01*
X019298Y013411D01*
X019240Y013369D01*
X019184Y013325D01*
X019131Y013278D01*
X019081Y013227D01*
X019034Y013174D01*
X018989Y013119D01*
X018948Y013061D01*
X018911Y013001D01*
X018876Y012938D01*
X018845Y012874D01*
X018818Y012809D01*
X018795Y012742D01*
X018775Y012673D01*
X018759Y012604D01*
X018747Y012534D01*
X018739Y012463D01*
X018735Y012393D01*
X018735Y012321D01*
X018739Y012251D01*
X018747Y012180D01*
X018759Y012110D01*
X018775Y012041D01*
X018795Y011972D01*
X018818Y011905D01*
X018845Y011840D01*
X018876Y011776D01*
X018911Y011713D01*
X018948Y011653D01*
X018989Y011595D01*
X019034Y011540D01*
X019081Y011487D01*
X019131Y011436D01*
X019184Y011389D01*
X019240Y011345D01*
X019298Y011303D01*
X019358Y011265D01*
X019420Y011231D01*
X019484Y011200D01*
X019549Y011173D01*
X019617Y011149D01*
X019685Y011130D01*
X019754Y011114D01*
X019824Y011102D01*
X019895Y011094D01*
X019966Y011090D01*
X020037Y011089D01*
X020108Y011093D01*
X020178Y011101D01*
X020248Y011113D01*
X020318Y011129D01*
X020386Y011148D01*
X020453Y011172D01*
X020519Y011199D01*
X020583Y011229D01*
X020645Y011264D01*
X020705Y011301D01*
X020763Y011342D01*
X020819Y011386D01*
X020872Y011434D01*
X020922Y011484D01*
X020970Y011537D01*
X021014Y011592D01*
X021007Y011598D01*
X020963Y011543D01*
X020916Y011490D01*
X020866Y011440D01*
X020813Y011393D01*
X020758Y011349D01*
X020700Y011309D01*
X020641Y011271D01*
X020579Y011237D01*
X020515Y011207D01*
X020450Y011180D01*
X020383Y011157D01*
X020315Y011137D01*
X020247Y011122D01*
X020177Y011110D01*
X020107Y011102D01*
X020036Y011098D01*
X019966Y011099D01*
X019895Y011103D01*
X019825Y011111D01*
X019756Y011123D01*
X019687Y011138D01*
X019619Y011158D01*
X019553Y011181D01*
X019488Y011208D01*
X019424Y011239D01*
X019362Y011273D01*
X019303Y011311D01*
X019245Y011352D01*
X019190Y011396D01*
X019137Y011443D01*
X019088Y011493D01*
X019041Y011545D01*
X018997Y011601D01*
X018956Y011658D01*
X018918Y011718D01*
X018884Y011780D01*
X018854Y011843D01*
X018827Y011908D01*
X018803Y011975D01*
X018784Y012043D01*
X018768Y012112D01*
X018756Y012181D01*
X018748Y012251D01*
X018744Y012322D01*
X018744Y012392D01*
X018748Y012463D01*
X018756Y012533D01*
X018768Y012602D01*
X018784Y012671D01*
X018803Y012739D01*
X018827Y012806D01*
X018854Y012871D01*
X018884Y012934D01*
X018918Y012996D01*
X018956Y013056D01*
X018997Y013113D01*
X019041Y013169D01*
X019088Y013221D01*
X019137Y013271D01*
X019190Y013318D01*
X019245Y013362D01*
X019303Y013403D01*
X019362Y013441D01*
X019424Y013475D01*
X019488Y013506D01*
X019553Y013533D01*
X019619Y013556D01*
X019687Y013576D01*
X019756Y013591D01*
X019825Y013603D01*
X019895Y013611D01*
X019966Y013615D01*
X020036Y013616D01*
X020107Y013612D01*
X020177Y013604D01*
X020247Y013592D01*
X020315Y013577D01*
X020383Y013557D01*
X020450Y013534D01*
X020515Y013507D01*
X020579Y013477D01*
X020641Y013443D01*
X020700Y013405D01*
X020758Y013365D01*
X020813Y013321D01*
X020866Y013274D01*
X020916Y013224D01*
X020963Y013171D01*
X021007Y013116D01*
X021000Y013111D01*
X020956Y013166D01*
X020909Y013218D01*
X020860Y013267D01*
X020807Y013314D01*
X020753Y013357D01*
X020695Y013398D01*
X020636Y013435D01*
X020575Y013469D01*
X020511Y013499D01*
X020447Y013526D01*
X020380Y013549D01*
X020313Y013568D01*
X020245Y013583D01*
X020176Y013595D01*
X020106Y013603D01*
X020036Y013607D01*
X019966Y013606D01*
X019896Y013602D01*
X019827Y013594D01*
X019758Y013583D01*
X019689Y013567D01*
X019622Y013548D01*
X019556Y013524D01*
X019491Y013497D01*
X019428Y013467D01*
X019367Y013433D01*
X019308Y013396D01*
X019250Y013355D01*
X019196Y013311D01*
X019144Y013265D01*
X019094Y013215D01*
X019047Y013163D01*
X019004Y013108D01*
X018963Y013051D01*
X018926Y012992D01*
X018892Y012930D01*
X018862Y012867D01*
X018835Y012802D01*
X018812Y012736D01*
X018793Y012669D01*
X018777Y012601D01*
X018765Y012532D01*
X018757Y012462D01*
X018753Y012392D01*
X018753Y012322D01*
X018757Y012252D01*
X018765Y012182D01*
X018777Y012113D01*
X018793Y012045D01*
X018812Y011978D01*
X018835Y011912D01*
X018862Y011847D01*
X018892Y011784D01*
X018926Y011722D01*
X018963Y011663D01*
X019004Y011606D01*
X019047Y011551D01*
X019094Y011499D01*
X019144Y011449D01*
X019196Y011403D01*
X019250Y011359D01*
X019308Y011318D01*
X019367Y011281D01*
X019428Y011247D01*
X019491Y011217D01*
X019556Y011190D01*
X019622Y011166D01*
X019689Y011147D01*
X019758Y011131D01*
X019827Y011120D01*
X019896Y011112D01*
X019966Y011108D01*
X020036Y011107D01*
X020106Y011111D01*
X020176Y011119D01*
X020245Y011131D01*
X020313Y011146D01*
X020380Y011165D01*
X020447Y011188D01*
X020511Y011215D01*
X020575Y011245D01*
X020636Y011279D01*
X020695Y011316D01*
X020753Y011357D01*
X020807Y011400D01*
X020860Y011447D01*
X020909Y011496D01*
X020956Y011548D01*
X021000Y011603D01*
X020993Y011608D01*
X020949Y011554D01*
X020903Y011502D01*
X020854Y011453D01*
X020802Y011407D01*
X020747Y011364D01*
X020690Y011324D01*
X020631Y011287D01*
X020570Y011253D01*
X020508Y011223D01*
X020443Y011197D01*
X020378Y011174D01*
X020311Y011155D01*
X020243Y011139D01*
X020174Y011128D01*
X020105Y011120D01*
X020036Y011116D01*
X019966Y011117D01*
X019897Y011121D01*
X019828Y011128D01*
X019759Y011140D01*
X019692Y011156D01*
X019625Y011175D01*
X019559Y011198D01*
X019495Y011225D01*
X019432Y011255D01*
X019371Y011289D01*
X019313Y011326D01*
X019256Y011366D01*
X019202Y011409D01*
X019150Y011456D01*
X019101Y011505D01*
X019054Y011557D01*
X019011Y011611D01*
X018971Y011668D01*
X018934Y011727D01*
X018900Y011788D01*
X018870Y011851D01*
X018843Y011915D01*
X018820Y011980D01*
X018801Y012047D01*
X018786Y012115D01*
X018774Y012184D01*
X018766Y012253D01*
X018762Y012322D01*
X018762Y012392D01*
X018766Y012461D01*
X018774Y012530D01*
X018786Y012599D01*
X018801Y012667D01*
X018820Y012734D01*
X018843Y012799D01*
X018870Y012863D01*
X018900Y012926D01*
X018934Y012987D01*
X018971Y013046D01*
X019011Y013103D01*
X019054Y013157D01*
X019101Y013209D01*
X019150Y013258D01*
X019202Y013305D01*
X019256Y013348D01*
X019313Y013388D01*
X019371Y013425D01*
X019432Y013459D01*
X019495Y013489D01*
X019559Y013516D01*
X019625Y013539D01*
X019692Y013558D01*
X019759Y013574D01*
X019828Y013586D01*
X019897Y013593D01*
X019966Y013597D01*
X020036Y013598D01*
X020105Y013594D01*
X020174Y013586D01*
X020243Y013575D01*
X020311Y013559D01*
X020378Y013540D01*
X020443Y013517D01*
X020508Y013491D01*
X020570Y013461D01*
X020631Y013427D01*
X020690Y013390D01*
X020747Y013350D01*
X020802Y013307D01*
X020854Y013261D01*
X020903Y013212D01*
X020949Y013160D01*
X020993Y013106D01*
X020986Y013100D01*
X020942Y013154D01*
X020896Y013205D01*
X020847Y013254D01*
X020796Y013300D01*
X020742Y013343D01*
X020685Y013383D01*
X020627Y013419D01*
X020566Y013453D01*
X020504Y013483D01*
X020440Y013509D01*
X020375Y013531D01*
X020309Y013550D01*
X020241Y013566D01*
X020173Y013577D01*
X020105Y013585D01*
X020036Y013589D01*
X019967Y013588D01*
X019898Y013584D01*
X019829Y013577D01*
X019761Y013565D01*
X019694Y013550D01*
X019627Y013530D01*
X019562Y013507D01*
X019499Y013481D01*
X019436Y013451D01*
X019376Y013418D01*
X019318Y013381D01*
X019261Y013341D01*
X019207Y013298D01*
X019156Y013252D01*
X019107Y013203D01*
X019061Y013151D01*
X019018Y013097D01*
X018978Y013041D01*
X018942Y012982D01*
X018908Y012922D01*
X018878Y012860D01*
X018852Y012796D01*
X018829Y012731D01*
X018810Y012664D01*
X018795Y012597D01*
X018783Y012529D01*
X018775Y012460D01*
X018771Y012392D01*
X018771Y012322D01*
X018775Y012254D01*
X018783Y012185D01*
X018795Y012117D01*
X018810Y012050D01*
X018829Y011983D01*
X018852Y011918D01*
X018878Y011854D01*
X018908Y011792D01*
X018942Y011732D01*
X018978Y011673D01*
X019018Y011617D01*
X019061Y011563D01*
X019107Y011511D01*
X019156Y011462D01*
X019207Y011416D01*
X019261Y011373D01*
X019318Y011333D01*
X019376Y011296D01*
X019436Y011263D01*
X019499Y011233D01*
X019562Y011207D01*
X019627Y011184D01*
X019694Y011164D01*
X019761Y011149D01*
X019829Y011137D01*
X019898Y011130D01*
X019967Y011126D01*
X020036Y011125D01*
X020105Y011129D01*
X020173Y011137D01*
X020241Y011148D01*
X020309Y011164D01*
X020375Y011183D01*
X020440Y011205D01*
X020504Y011231D01*
X020566Y011261D01*
X020627Y011295D01*
X020685Y011331D01*
X020742Y011371D01*
X020796Y011414D01*
X020847Y011460D01*
X020896Y011509D01*
X020942Y011560D01*
X020986Y011614D01*
X020978Y011619D01*
X020935Y011565D01*
X020889Y011514D01*
X020839Y011465D01*
X020788Y011419D01*
X020733Y011376D01*
X020676Y011336D01*
X020618Y011300D01*
X020557Y011266D01*
X020494Y011237D01*
X020430Y011211D01*
X020364Y011189D01*
X020297Y011170D01*
X020230Y011155D01*
X020161Y011144D01*
X020092Y011137D01*
X020023Y011134D01*
X019954Y011135D01*
X019884Y011140D01*
X019816Y011148D01*
X019748Y011161D01*
X019680Y011177D01*
X019614Y011198D01*
X019549Y011221D01*
X019485Y011249D01*
X019423Y011280D01*
X019363Y011315D01*
X019305Y011353D01*
X019249Y011394D01*
X019196Y011438D01*
X019145Y011485D01*
X019097Y011535D01*
X019052Y011588D01*
X019010Y011643D01*
X018971Y011700D01*
X018936Y011760D01*
X018904Y011821D01*
X018875Y011884D01*
X018850Y011949D01*
X018829Y012015D01*
X018811Y012082D01*
X018798Y012150D01*
X018788Y012219D01*
X018782Y012288D01*
X018780Y012357D01*
X018782Y012426D01*
X018788Y012495D01*
X018798Y012564D01*
X018811Y012632D01*
X018829Y012699D01*
X018850Y012765D01*
X018875Y012830D01*
X018904Y012893D01*
X018936Y012954D01*
X018971Y013014D01*
X019010Y013071D01*
X019052Y013126D01*
X019097Y013179D01*
X019145Y013229D01*
X019196Y013276D01*
X019249Y013320D01*
X019305Y013361D01*
X019363Y013399D01*
X019423Y013434D01*
X019485Y013465D01*
X019549Y013493D01*
X019614Y013516D01*
X019680Y013537D01*
X019748Y013553D01*
X019816Y013566D01*
X019884Y013574D01*
X019954Y013579D01*
X020023Y013580D01*
X020092Y013577D01*
X020161Y013570D01*
X020230Y013559D01*
X020297Y013544D01*
X020364Y013525D01*
X020430Y013503D01*
X020494Y013477D01*
X020557Y013448D01*
X020618Y013414D01*
X020676Y013378D01*
X020733Y013338D01*
X020788Y013295D01*
X020839Y013249D01*
X020889Y013200D01*
X020935Y013149D01*
X020978Y013095D01*
X020971Y013089D01*
X020928Y013143D01*
X020882Y013194D01*
X020833Y013243D01*
X020782Y013288D01*
X020728Y013331D01*
X020671Y013370D01*
X020613Y013407D01*
X020553Y013440D01*
X020490Y013469D01*
X020427Y013495D01*
X020361Y013517D01*
X020295Y013535D01*
X020228Y013550D01*
X020160Y013561D01*
X020091Y013568D01*
X020023Y013571D01*
X019954Y013570D01*
X019885Y013565D01*
X019817Y013557D01*
X019749Y013544D01*
X019683Y013528D01*
X019617Y013508D01*
X019552Y013484D01*
X019489Y013457D01*
X019428Y013426D01*
X019368Y013392D01*
X019310Y013354D01*
X019255Y013313D01*
X019202Y013269D01*
X019152Y013222D01*
X019104Y013173D01*
X019059Y013121D01*
X019017Y013066D01*
X018979Y013009D01*
X018944Y012950D01*
X018912Y012889D01*
X018883Y012826D01*
X018859Y012762D01*
X018837Y012696D01*
X018820Y012630D01*
X018807Y012562D01*
X018797Y012494D01*
X018791Y012426D01*
X018789Y012357D01*
X018791Y012288D01*
X018797Y012220D01*
X018807Y012152D01*
X018820Y012084D01*
X018837Y012018D01*
X018859Y011952D01*
X018883Y011888D01*
X018912Y011825D01*
X018944Y011764D01*
X018979Y011705D01*
X019017Y011648D01*
X019059Y011593D01*
X019104Y011541D01*
X019152Y011492D01*
X019202Y011445D01*
X019255Y011401D01*
X019310Y011360D01*
X019368Y011322D01*
X019428Y011288D01*
X019489Y011257D01*
X019552Y011230D01*
X019617Y011206D01*
X019683Y011186D01*
X019749Y011170D01*
X019817Y011157D01*
X019885Y011149D01*
X019954Y011144D01*
X020023Y011143D01*
X020091Y011146D01*
X020160Y011153D01*
X020228Y011164D01*
X020295Y011179D01*
X020361Y011197D01*
X020427Y011219D01*
X020490Y011245D01*
X020553Y011274D01*
X020613Y011307D01*
X020671Y011344D01*
X020728Y011383D01*
X020782Y011426D01*
X020833Y011471D01*
X020882Y011520D01*
X020928Y011571D01*
X020971Y011625D01*
X021035Y016137D02*
X020963Y016083D01*
X020964Y016084D02*
X020921Y016137D01*
X020876Y016188D01*
X020827Y016236D01*
X020776Y016281D01*
X020722Y016324D01*
X020666Y016363D01*
X020608Y016399D01*
X020548Y016432D01*
X020487Y016461D01*
X020423Y016486D01*
X020359Y016508D01*
X020293Y016527D01*
X020226Y016541D01*
X020159Y016552D01*
X020091Y016559D01*
X020023Y016562D01*
X019954Y016561D01*
X019886Y016556D01*
X019818Y016548D01*
X019751Y016535D01*
X019685Y016519D01*
X019620Y016499D01*
X019555Y016476D01*
X019493Y016449D01*
X019432Y016418D01*
X019373Y016384D01*
X019315Y016347D01*
X019260Y016306D01*
X019208Y016262D01*
X019158Y016216D01*
X019111Y016167D01*
X019066Y016115D01*
X019025Y016061D01*
X018986Y016004D01*
X018951Y015945D01*
X018920Y015885D01*
X018892Y015823D01*
X018867Y015759D01*
X018846Y015694D01*
X018829Y015628D01*
X018815Y015561D01*
X018806Y015493D01*
X018800Y015425D01*
X018798Y015357D01*
X018800Y015289D01*
X018806Y015221D01*
X018815Y015153D01*
X018829Y015086D01*
X018846Y015020D01*
X018867Y014955D01*
X018892Y014891D01*
X018920Y014829D01*
X018951Y014769D01*
X018986Y014710D01*
X019025Y014653D01*
X019066Y014599D01*
X019111Y014547D01*
X019158Y014498D01*
X019208Y014452D01*
X019260Y014408D01*
X019315Y014367D01*
X019373Y014330D01*
X019432Y014296D01*
X019493Y014265D01*
X019555Y014238D01*
X019620Y014215D01*
X019685Y014195D01*
X019751Y014179D01*
X019818Y014166D01*
X019886Y014158D01*
X019954Y014153D01*
X020023Y014152D01*
X020091Y014155D01*
X020159Y014162D01*
X020226Y014173D01*
X020293Y014187D01*
X020359Y014206D01*
X020423Y014228D01*
X020487Y014253D01*
X020548Y014282D01*
X020608Y014315D01*
X020666Y014351D01*
X020722Y014390D01*
X020776Y014433D01*
X020827Y014478D01*
X020876Y014526D01*
X020921Y014577D01*
X020964Y014630D01*
X021035Y014577D01*
X021036Y014576D01*
X020992Y014521D01*
X020944Y014468D01*
X020894Y014417D01*
X020841Y014370D01*
X020786Y014326D01*
X020728Y014284D01*
X020668Y014246D01*
X020607Y014211D01*
X020543Y014180D01*
X020478Y014152D01*
X020411Y014128D01*
X020343Y014107D01*
X020274Y014091D01*
X020204Y014078D01*
X020134Y014069D01*
X020063Y014063D01*
X019992Y014062D01*
X019921Y014065D01*
X019850Y014071D01*
X019780Y014081D01*
X019711Y014095D01*
X019642Y014113D01*
X019574Y014135D01*
X019508Y014160D01*
X019443Y014189D01*
X019380Y014222D01*
X019319Y014258D01*
X019260Y014297D01*
X019203Y014339D01*
X019148Y014384D01*
X019096Y014433D01*
X019047Y014484D01*
X019000Y014537D01*
X018957Y014594D01*
X018917Y014652D01*
X018880Y014713D01*
X018846Y014775D01*
X018816Y014839D01*
X018789Y014905D01*
X018766Y014972D01*
X018747Y015041D01*
X018732Y015110D01*
X018720Y015180D01*
X018712Y015251D01*
X018708Y015322D01*
X018708Y015392D01*
X018712Y015463D01*
X018720Y015534D01*
X018732Y015604D01*
X018747Y015673D01*
X018766Y015742D01*
X018789Y015809D01*
X018816Y015875D01*
X018846Y015939D01*
X018880Y016001D01*
X018917Y016062D01*
X018957Y016120D01*
X019000Y016177D01*
X019047Y016230D01*
X019096Y016281D01*
X019148Y016330D01*
X019203Y016375D01*
X019260Y016417D01*
X019319Y016456D01*
X019380Y016492D01*
X019443Y016525D01*
X019508Y016554D01*
X019574Y016579D01*
X019642Y016601D01*
X019711Y016619D01*
X019780Y016633D01*
X019850Y016643D01*
X019921Y016649D01*
X019992Y016652D01*
X020063Y016651D01*
X020134Y016645D01*
X020204Y016636D01*
X020274Y016623D01*
X020343Y016607D01*
X020411Y016586D01*
X020478Y016562D01*
X020543Y016534D01*
X020607Y016503D01*
X020668Y016468D01*
X020728Y016430D01*
X020786Y016388D01*
X020841Y016344D01*
X020894Y016297D01*
X020944Y016246D01*
X020992Y016193D01*
X021036Y016138D01*
X021029Y016133D01*
X020984Y016188D01*
X020937Y016241D01*
X020886Y016292D01*
X020833Y016339D01*
X020777Y016384D01*
X020719Y016425D01*
X020659Y016463D01*
X020597Y016498D01*
X020533Y016529D01*
X020467Y016556D01*
X020400Y016580D01*
X020331Y016600D01*
X020262Y016617D01*
X020192Y016629D01*
X020121Y016638D01*
X020050Y016642D01*
X019979Y016643D01*
X019908Y016639D01*
X019837Y016632D01*
X019766Y016621D01*
X019697Y016606D01*
X019628Y016587D01*
X019560Y016564D01*
X019494Y016538D01*
X019429Y016508D01*
X019367Y016474D01*
X019306Y016438D01*
X019247Y016397D01*
X019190Y016354D01*
X019136Y016307D01*
X019085Y016258D01*
X019037Y016205D01*
X018991Y016151D01*
X018949Y016093D01*
X018910Y016034D01*
X018874Y015972D01*
X018841Y015909D01*
X018813Y015844D01*
X018787Y015777D01*
X018766Y015709D01*
X018748Y015640D01*
X018735Y015570D01*
X018725Y015499D01*
X018719Y015428D01*
X018717Y015357D01*
X018719Y015286D01*
X018725Y015215D01*
X018735Y015144D01*
X018748Y015074D01*
X018766Y015005D01*
X018787Y014937D01*
X018813Y014870D01*
X018841Y014805D01*
X018874Y014742D01*
X018910Y014680D01*
X018949Y014621D01*
X018991Y014563D01*
X019037Y014509D01*
X019085Y014456D01*
X019136Y014407D01*
X019190Y014360D01*
X019247Y014317D01*
X019306Y014276D01*
X019367Y014240D01*
X019429Y014206D01*
X019494Y014176D01*
X019560Y014150D01*
X019628Y014127D01*
X019697Y014108D01*
X019766Y014093D01*
X019837Y014082D01*
X019908Y014075D01*
X019979Y014071D01*
X020050Y014072D01*
X020121Y014076D01*
X020192Y014085D01*
X020262Y014097D01*
X020331Y014114D01*
X020400Y014134D01*
X020467Y014158D01*
X020533Y014185D01*
X020597Y014216D01*
X020659Y014251D01*
X020719Y014289D01*
X020777Y014330D01*
X020833Y014375D01*
X020886Y014422D01*
X020937Y014473D01*
X020984Y014526D01*
X021029Y014581D01*
X021022Y014587D01*
X020977Y014532D01*
X020930Y014479D01*
X020880Y014429D01*
X020827Y014382D01*
X020772Y014338D01*
X020714Y014296D01*
X020655Y014259D01*
X020593Y014224D01*
X020529Y014193D01*
X020464Y014166D01*
X020397Y014142D01*
X020329Y014122D01*
X020260Y014106D01*
X020191Y014094D01*
X020120Y014085D01*
X020050Y014081D01*
X019979Y014080D01*
X019908Y014084D01*
X019838Y014091D01*
X019768Y014102D01*
X019699Y014117D01*
X019631Y014136D01*
X019563Y014158D01*
X019498Y014184D01*
X019433Y014214D01*
X019371Y014247D01*
X019311Y014284D01*
X019252Y014324D01*
X019196Y014367D01*
X019142Y014413D01*
X019092Y014463D01*
X019043Y014514D01*
X018998Y014569D01*
X018956Y014626D01*
X018917Y014685D01*
X018882Y014746D01*
X018849Y014809D01*
X018821Y014874D01*
X018796Y014940D01*
X018775Y015008D01*
X018757Y015076D01*
X018744Y015146D01*
X018734Y015216D01*
X018728Y015286D01*
X018726Y015357D01*
X018728Y015428D01*
X018734Y015498D01*
X018744Y015568D01*
X018757Y015638D01*
X018775Y015706D01*
X018796Y015774D01*
X018821Y015840D01*
X018849Y015905D01*
X018882Y015968D01*
X018917Y016029D01*
X018956Y016088D01*
X018998Y016145D01*
X019043Y016200D01*
X019092Y016251D01*
X019142Y016301D01*
X019196Y016347D01*
X019252Y016390D01*
X019311Y016430D01*
X019371Y016467D01*
X019433Y016500D01*
X019498Y016530D01*
X019563Y016556D01*
X019631Y016578D01*
X019699Y016597D01*
X019768Y016612D01*
X019838Y016623D01*
X019908Y016630D01*
X019979Y016634D01*
X020050Y016633D01*
X020120Y016629D01*
X020191Y016620D01*
X020260Y016608D01*
X020329Y016592D01*
X020397Y016572D01*
X020464Y016548D01*
X020529Y016521D01*
X020593Y016490D01*
X020655Y016455D01*
X020714Y016418D01*
X020772Y016376D01*
X020827Y016332D01*
X020880Y016285D01*
X020930Y016235D01*
X020977Y016182D01*
X021022Y016127D01*
X021014Y016122D01*
X020970Y016177D01*
X020922Y016230D01*
X020872Y016280D01*
X020819Y016328D01*
X020763Y016372D01*
X020705Y016413D01*
X020645Y016450D01*
X020583Y016485D01*
X020519Y016515D01*
X020453Y016542D01*
X020386Y016566D01*
X020318Y016585D01*
X020248Y016601D01*
X020178Y016613D01*
X020108Y016621D01*
X020037Y016625D01*
X019966Y016624D01*
X019895Y016620D01*
X019824Y016612D01*
X019754Y016600D01*
X019685Y016584D01*
X019617Y016565D01*
X019549Y016541D01*
X019484Y016514D01*
X019420Y016483D01*
X019358Y016449D01*
X019298Y016411D01*
X019240Y016369D01*
X019184Y016325D01*
X019131Y016278D01*
X019081Y016227D01*
X019034Y016174D01*
X018989Y016119D01*
X018948Y016061D01*
X018911Y016001D01*
X018876Y015938D01*
X018845Y015874D01*
X018818Y015809D01*
X018795Y015742D01*
X018775Y015673D01*
X018759Y015604D01*
X018747Y015534D01*
X018739Y015463D01*
X018735Y015393D01*
X018735Y015321D01*
X018739Y015251D01*
X018747Y015180D01*
X018759Y015110D01*
X018775Y015041D01*
X018795Y014972D01*
X018818Y014905D01*
X018845Y014840D01*
X018876Y014776D01*
X018911Y014713D01*
X018948Y014653D01*
X018989Y014595D01*
X019034Y014540D01*
X019081Y014487D01*
X019131Y014436D01*
X019184Y014389D01*
X019240Y014345D01*
X019298Y014303D01*
X019358Y014265D01*
X019420Y014231D01*
X019484Y014200D01*
X019549Y014173D01*
X019617Y014149D01*
X019685Y014130D01*
X019754Y014114D01*
X019824Y014102D01*
X019895Y014094D01*
X019966Y014090D01*
X020037Y014089D01*
X020108Y014093D01*
X020178Y014101D01*
X020248Y014113D01*
X020318Y014129D01*
X020386Y014148D01*
X020453Y014172D01*
X020519Y014199D01*
X020583Y014229D01*
X020645Y014264D01*
X020705Y014301D01*
X020763Y014342D01*
X020819Y014386D01*
X020872Y014434D01*
X020922Y014484D01*
X020970Y014537D01*
X021014Y014592D01*
X021007Y014598D01*
X020963Y014543D01*
X020916Y014490D01*
X020866Y014440D01*
X020813Y014393D01*
X020758Y014349D01*
X020700Y014309D01*
X020641Y014271D01*
X020579Y014237D01*
X020515Y014207D01*
X020450Y014180D01*
X020383Y014157D01*
X020315Y014137D01*
X020247Y014122D01*
X020177Y014110D01*
X020107Y014102D01*
X020036Y014098D01*
X019966Y014099D01*
X019895Y014103D01*
X019825Y014111D01*
X019756Y014123D01*
X019687Y014138D01*
X019619Y014158D01*
X019553Y014181D01*
X019488Y014208D01*
X019424Y014239D01*
X019362Y014273D01*
X019303Y014311D01*
X019245Y014352D01*
X019190Y014396D01*
X019137Y014443D01*
X019088Y014493D01*
X019041Y014545D01*
X018997Y014601D01*
X018956Y014658D01*
X018918Y014718D01*
X018884Y014780D01*
X018854Y014843D01*
X018827Y014908D01*
X018803Y014975D01*
X018784Y015043D01*
X018768Y015112D01*
X018756Y015181D01*
X018748Y015251D01*
X018744Y015322D01*
X018744Y015392D01*
X018748Y015463D01*
X018756Y015533D01*
X018768Y015602D01*
X018784Y015671D01*
X018803Y015739D01*
X018827Y015806D01*
X018854Y015871D01*
X018884Y015934D01*
X018918Y015996D01*
X018956Y016056D01*
X018997Y016113D01*
X019041Y016169D01*
X019088Y016221D01*
X019137Y016271D01*
X019190Y016318D01*
X019245Y016362D01*
X019303Y016403D01*
X019362Y016441D01*
X019424Y016475D01*
X019488Y016506D01*
X019553Y016533D01*
X019619Y016556D01*
X019687Y016576D01*
X019756Y016591D01*
X019825Y016603D01*
X019895Y016611D01*
X019966Y016615D01*
X020036Y016616D01*
X020107Y016612D01*
X020177Y016604D01*
X020247Y016592D01*
X020315Y016577D01*
X020383Y016557D01*
X020450Y016534D01*
X020515Y016507D01*
X020579Y016477D01*
X020641Y016443D01*
X020700Y016405D01*
X020758Y016365D01*
X020813Y016321D01*
X020866Y016274D01*
X020916Y016224D01*
X020963Y016171D01*
X021007Y016116D01*
X021000Y016111D01*
X020956Y016166D01*
X020909Y016218D01*
X020860Y016267D01*
X020807Y016314D01*
X020753Y016357D01*
X020695Y016398D01*
X020636Y016435D01*
X020575Y016469D01*
X020511Y016499D01*
X020447Y016526D01*
X020380Y016549D01*
X020313Y016568D01*
X020245Y016583D01*
X020176Y016595D01*
X020106Y016603D01*
X020036Y016607D01*
X019966Y016606D01*
X019896Y016602D01*
X019827Y016594D01*
X019758Y016583D01*
X019689Y016567D01*
X019622Y016548D01*
X019556Y016524D01*
X019491Y016497D01*
X019428Y016467D01*
X019367Y016433D01*
X019308Y016396D01*
X019250Y016355D01*
X019196Y016311D01*
X019144Y016265D01*
X019094Y016215D01*
X019047Y016163D01*
X019004Y016108D01*
X018963Y016051D01*
X018926Y015992D01*
X018892Y015930D01*
X018862Y015867D01*
X018835Y015802D01*
X018812Y015736D01*
X018793Y015669D01*
X018777Y015601D01*
X018765Y015532D01*
X018757Y015462D01*
X018753Y015392D01*
X018753Y015322D01*
X018757Y015252D01*
X018765Y015182D01*
X018777Y015113D01*
X018793Y015045D01*
X018812Y014978D01*
X018835Y014912D01*
X018862Y014847D01*
X018892Y014784D01*
X018926Y014722D01*
X018963Y014663D01*
X019004Y014606D01*
X019047Y014551D01*
X019094Y014499D01*
X019144Y014449D01*
X019196Y014403D01*
X019250Y014359D01*
X019308Y014318D01*
X019367Y014281D01*
X019428Y014247D01*
X019491Y014217D01*
X019556Y014190D01*
X019622Y014166D01*
X019689Y014147D01*
X019758Y014131D01*
X019827Y014120D01*
X019896Y014112D01*
X019966Y014108D01*
X020036Y014107D01*
X020106Y014111D01*
X020176Y014119D01*
X020245Y014131D01*
X020313Y014146D01*
X020380Y014165D01*
X020447Y014188D01*
X020511Y014215D01*
X020575Y014245D01*
X020636Y014279D01*
X020695Y014316D01*
X020753Y014357D01*
X020807Y014400D01*
X020860Y014447D01*
X020909Y014496D01*
X020956Y014548D01*
X021000Y014603D01*
X020993Y014608D01*
X020949Y014554D01*
X020903Y014502D01*
X020854Y014453D01*
X020802Y014407D01*
X020747Y014364D01*
X020690Y014324D01*
X020631Y014287D01*
X020570Y014253D01*
X020508Y014223D01*
X020443Y014197D01*
X020378Y014174D01*
X020311Y014155D01*
X020243Y014139D01*
X020174Y014128D01*
X020105Y014120D01*
X020036Y014116D01*
X019966Y014117D01*
X019897Y014121D01*
X019828Y014128D01*
X019759Y014140D01*
X019692Y014156D01*
X019625Y014175D01*
X019559Y014198D01*
X019495Y014225D01*
X019432Y014255D01*
X019371Y014289D01*
X019313Y014326D01*
X019256Y014366D01*
X019202Y014409D01*
X019150Y014456D01*
X019101Y014505D01*
X019054Y014557D01*
X019011Y014611D01*
X018971Y014668D01*
X018934Y014727D01*
X018900Y014788D01*
X018870Y014851D01*
X018843Y014915D01*
X018820Y014980D01*
X018801Y015047D01*
X018786Y015115D01*
X018774Y015184D01*
X018766Y015253D01*
X018762Y015322D01*
X018762Y015392D01*
X018766Y015461D01*
X018774Y015530D01*
X018786Y015599D01*
X018801Y015667D01*
X018820Y015734D01*
X018843Y015799D01*
X018870Y015863D01*
X018900Y015926D01*
X018934Y015987D01*
X018971Y016046D01*
X019011Y016103D01*
X019054Y016157D01*
X019101Y016209D01*
X019150Y016258D01*
X019202Y016305D01*
X019256Y016348D01*
X019313Y016388D01*
X019371Y016425D01*
X019432Y016459D01*
X019495Y016489D01*
X019559Y016516D01*
X019625Y016539D01*
X019692Y016558D01*
X019759Y016574D01*
X019828Y016586D01*
X019897Y016593D01*
X019966Y016597D01*
X020036Y016598D01*
X020105Y016594D01*
X020174Y016586D01*
X020243Y016575D01*
X020311Y016559D01*
X020378Y016540D01*
X020443Y016517D01*
X020508Y016491D01*
X020570Y016461D01*
X020631Y016427D01*
X020690Y016390D01*
X020747Y016350D01*
X020802Y016307D01*
X020854Y016261D01*
X020903Y016212D01*
X020949Y016160D01*
X020993Y016106D01*
X020986Y016100D01*
X020942Y016154D01*
X020896Y016205D01*
X020847Y016254D01*
X020796Y016300D01*
X020742Y016343D01*
X020685Y016383D01*
X020627Y016419D01*
X020566Y016453D01*
X020504Y016483D01*
X020440Y016509D01*
X020375Y016531D01*
X020309Y016550D01*
X020241Y016566D01*
X020173Y016577D01*
X020105Y016585D01*
X020036Y016589D01*
X019967Y016588D01*
X019898Y016584D01*
X019829Y016577D01*
X019761Y016565D01*
X019694Y016550D01*
X019627Y016530D01*
X019562Y016507D01*
X019499Y016481D01*
X019436Y016451D01*
X019376Y016418D01*
X019318Y016381D01*
X019261Y016341D01*
X019207Y016298D01*
X019156Y016252D01*
X019107Y016203D01*
X019061Y016151D01*
X019018Y016097D01*
X018978Y016041D01*
X018942Y015982D01*
X018908Y015922D01*
X018878Y015860D01*
X018852Y015796D01*
X018829Y015731D01*
X018810Y015664D01*
X018795Y015597D01*
X018783Y015529D01*
X018775Y015460D01*
X018771Y015392D01*
X018771Y015322D01*
X018775Y015254D01*
X018783Y015185D01*
X018795Y015117D01*
X018810Y015050D01*
X018829Y014983D01*
X018852Y014918D01*
X018878Y014854D01*
X018908Y014792D01*
X018942Y014732D01*
X018978Y014673D01*
X019018Y014617D01*
X019061Y014563D01*
X019107Y014511D01*
X019156Y014462D01*
X019207Y014416D01*
X019261Y014373D01*
X019318Y014333D01*
X019376Y014296D01*
X019436Y014263D01*
X019499Y014233D01*
X019562Y014207D01*
X019627Y014184D01*
X019694Y014164D01*
X019761Y014149D01*
X019829Y014137D01*
X019898Y014130D01*
X019967Y014126D01*
X020036Y014125D01*
X020105Y014129D01*
X020173Y014137D01*
X020241Y014148D01*
X020309Y014164D01*
X020375Y014183D01*
X020440Y014205D01*
X020504Y014231D01*
X020566Y014261D01*
X020627Y014295D01*
X020685Y014331D01*
X020742Y014371D01*
X020796Y014414D01*
X020847Y014460D01*
X020896Y014509D01*
X020942Y014560D01*
X020986Y014614D01*
X020978Y014619D01*
X020935Y014565D01*
X020889Y014514D01*
X020839Y014465D01*
X020788Y014419D01*
X020733Y014376D01*
X020676Y014336D01*
X020618Y014300D01*
X020557Y014266D01*
X020494Y014237D01*
X020430Y014211D01*
X020364Y014189D01*
X020297Y014170D01*
X020230Y014155D01*
X020161Y014144D01*
X020092Y014137D01*
X020023Y014134D01*
X019954Y014135D01*
X019884Y014140D01*
X019816Y014148D01*
X019748Y014161D01*
X019680Y014177D01*
X019614Y014198D01*
X019549Y014221D01*
X019485Y014249D01*
X019423Y014280D01*
X019363Y014315D01*
X019305Y014353D01*
X019249Y014394D01*
X019196Y014438D01*
X019145Y014485D01*
X019097Y014535D01*
X019052Y014588D01*
X019010Y014643D01*
X018971Y014700D01*
X018936Y014760D01*
X018904Y014821D01*
X018875Y014884D01*
X018850Y014949D01*
X018829Y015015D01*
X018811Y015082D01*
X018798Y015150D01*
X018788Y015219D01*
X018782Y015288D01*
X018780Y015357D01*
X018782Y015426D01*
X018788Y015495D01*
X018798Y015564D01*
X018811Y015632D01*
X018829Y015699D01*
X018850Y015765D01*
X018875Y015830D01*
X018904Y015893D01*
X018936Y015954D01*
X018971Y016014D01*
X019010Y016071D01*
X019052Y016126D01*
X019097Y016179D01*
X019145Y016229D01*
X019196Y016276D01*
X019249Y016320D01*
X019305Y016361D01*
X019363Y016399D01*
X019423Y016434D01*
X019485Y016465D01*
X019549Y016493D01*
X019614Y016516D01*
X019680Y016537D01*
X019748Y016553D01*
X019816Y016566D01*
X019884Y016574D01*
X019954Y016579D01*
X020023Y016580D01*
X020092Y016577D01*
X020161Y016570D01*
X020230Y016559D01*
X020297Y016544D01*
X020364Y016525D01*
X020430Y016503D01*
X020494Y016477D01*
X020557Y016448D01*
X020618Y016414D01*
X020676Y016378D01*
X020733Y016338D01*
X020788Y016295D01*
X020839Y016249D01*
X020889Y016200D01*
X020935Y016149D01*
X020978Y016095D01*
X020971Y016089D01*
X020928Y016143D01*
X020882Y016194D01*
X020833Y016243D01*
X020782Y016288D01*
X020728Y016331D01*
X020671Y016370D01*
X020613Y016407D01*
X020553Y016440D01*
X020490Y016469D01*
X020427Y016495D01*
X020361Y016517D01*
X020295Y016535D01*
X020228Y016550D01*
X020160Y016561D01*
X020091Y016568D01*
X020023Y016571D01*
X019954Y016570D01*
X019885Y016565D01*
X019817Y016557D01*
X019749Y016544D01*
X019683Y016528D01*
X019617Y016508D01*
X019552Y016484D01*
X019489Y016457D01*
X019428Y016426D01*
X019368Y016392D01*
X019310Y016354D01*
X019255Y016313D01*
X019202Y016269D01*
X019152Y016222D01*
X019104Y016173D01*
X019059Y016121D01*
X019017Y016066D01*
X018979Y016009D01*
X018944Y015950D01*
X018912Y015889D01*
X018883Y015826D01*
X018859Y015762D01*
X018837Y015696D01*
X018820Y015630D01*
X018807Y015562D01*
X018797Y015494D01*
X018791Y015426D01*
X018789Y015357D01*
X018791Y015288D01*
X018797Y015220D01*
X018807Y015152D01*
X018820Y015084D01*
X018837Y015018D01*
X018859Y014952D01*
X018883Y014888D01*
X018912Y014825D01*
X018944Y014764D01*
X018979Y014705D01*
X019017Y014648D01*
X019059Y014593D01*
X019104Y014541D01*
X019152Y014492D01*
X019202Y014445D01*
X019255Y014401D01*
X019310Y014360D01*
X019368Y014322D01*
X019428Y014288D01*
X019489Y014257D01*
X019552Y014230D01*
X019617Y014206D01*
X019683Y014186D01*
X019749Y014170D01*
X019817Y014157D01*
X019885Y014149D01*
X019954Y014144D01*
X020023Y014143D01*
X020091Y014146D01*
X020160Y014153D01*
X020228Y014164D01*
X020295Y014179D01*
X020361Y014197D01*
X020427Y014219D01*
X020490Y014245D01*
X020553Y014274D01*
X020613Y014307D01*
X020671Y014344D01*
X020728Y014383D01*
X020782Y014426D01*
X020833Y014471D01*
X020882Y014520D01*
X020928Y014571D01*
X020971Y014625D01*
X016535Y016137D02*
X016463Y016083D01*
X016464Y016084D02*
X016421Y016137D01*
X016376Y016188D01*
X016327Y016236D01*
X016276Y016281D01*
X016222Y016324D01*
X016166Y016363D01*
X016108Y016399D01*
X016048Y016432D01*
X015987Y016461D01*
X015923Y016486D01*
X015859Y016508D01*
X015793Y016527D01*
X015726Y016541D01*
X015659Y016552D01*
X015591Y016559D01*
X015523Y016562D01*
X015454Y016561D01*
X015386Y016556D01*
X015318Y016548D01*
X015251Y016535D01*
X015185Y016519D01*
X015120Y016499D01*
X015055Y016476D01*
X014993Y016449D01*
X014932Y016418D01*
X014873Y016384D01*
X014815Y016347D01*
X014760Y016306D01*
X014708Y016262D01*
X014658Y016216D01*
X014611Y016167D01*
X014566Y016115D01*
X014525Y016061D01*
X014486Y016004D01*
X014451Y015945D01*
X014420Y015885D01*
X014392Y015823D01*
X014367Y015759D01*
X014346Y015694D01*
X014329Y015628D01*
X014315Y015561D01*
X014306Y015493D01*
X014300Y015425D01*
X014298Y015357D01*
X014300Y015289D01*
X014306Y015221D01*
X014315Y015153D01*
X014329Y015086D01*
X014346Y015020D01*
X014367Y014955D01*
X014392Y014891D01*
X014420Y014829D01*
X014451Y014769D01*
X014486Y014710D01*
X014525Y014653D01*
X014566Y014599D01*
X014611Y014547D01*
X014658Y014498D01*
X014708Y014452D01*
X014760Y014408D01*
X014815Y014367D01*
X014873Y014330D01*
X014932Y014296D01*
X014993Y014265D01*
X015055Y014238D01*
X015120Y014215D01*
X015185Y014195D01*
X015251Y014179D01*
X015318Y014166D01*
X015386Y014158D01*
X015454Y014153D01*
X015523Y014152D01*
X015591Y014155D01*
X015659Y014162D01*
X015726Y014173D01*
X015793Y014187D01*
X015859Y014206D01*
X015923Y014228D01*
X015987Y014253D01*
X016048Y014282D01*
X016108Y014315D01*
X016166Y014351D01*
X016222Y014390D01*
X016276Y014433D01*
X016327Y014478D01*
X016376Y014526D01*
X016421Y014577D01*
X016464Y014630D01*
X016535Y014577D01*
X016536Y014576D01*
X016492Y014521D01*
X016444Y014468D01*
X016394Y014417D01*
X016341Y014370D01*
X016286Y014326D01*
X016228Y014284D01*
X016168Y014246D01*
X016107Y014211D01*
X016043Y014180D01*
X015978Y014152D01*
X015911Y014128D01*
X015843Y014107D01*
X015774Y014091D01*
X015704Y014078D01*
X015634Y014069D01*
X015563Y014063D01*
X015492Y014062D01*
X015421Y014065D01*
X015350Y014071D01*
X015280Y014081D01*
X015211Y014095D01*
X015142Y014113D01*
X015074Y014135D01*
X015008Y014160D01*
X014943Y014189D01*
X014880Y014222D01*
X014819Y014258D01*
X014760Y014297D01*
X014703Y014339D01*
X014648Y014384D01*
X014596Y014433D01*
X014547Y014484D01*
X014500Y014537D01*
X014457Y014594D01*
X014417Y014652D01*
X014380Y014713D01*
X014346Y014775D01*
X014316Y014839D01*
X014289Y014905D01*
X014266Y014972D01*
X014247Y015041D01*
X014232Y015110D01*
X014220Y015180D01*
X014212Y015251D01*
X014208Y015322D01*
X014208Y015392D01*
X014212Y015463D01*
X014220Y015534D01*
X014232Y015604D01*
X014247Y015673D01*
X014266Y015742D01*
X014289Y015809D01*
X014316Y015875D01*
X014346Y015939D01*
X014380Y016001D01*
X014417Y016062D01*
X014457Y016120D01*
X014500Y016177D01*
X014547Y016230D01*
X014596Y016281D01*
X014648Y016330D01*
X014703Y016375D01*
X014760Y016417D01*
X014819Y016456D01*
X014880Y016492D01*
X014943Y016525D01*
X015008Y016554D01*
X015074Y016579D01*
X015142Y016601D01*
X015211Y016619D01*
X015280Y016633D01*
X015350Y016643D01*
X015421Y016649D01*
X015492Y016652D01*
X015563Y016651D01*
X015634Y016645D01*
X015704Y016636D01*
X015774Y016623D01*
X015843Y016607D01*
X015911Y016586D01*
X015978Y016562D01*
X016043Y016534D01*
X016107Y016503D01*
X016168Y016468D01*
X016228Y016430D01*
X016286Y016388D01*
X016341Y016344D01*
X016394Y016297D01*
X016444Y016246D01*
X016492Y016193D01*
X016536Y016138D01*
X016529Y016133D01*
X016484Y016188D01*
X016437Y016241D01*
X016386Y016292D01*
X016333Y016339D01*
X016277Y016384D01*
X016219Y016425D01*
X016159Y016463D01*
X016097Y016498D01*
X016033Y016529D01*
X015967Y016556D01*
X015900Y016580D01*
X015831Y016600D01*
X015762Y016617D01*
X015692Y016629D01*
X015621Y016638D01*
X015550Y016642D01*
X015479Y016643D01*
X015408Y016639D01*
X015337Y016632D01*
X015266Y016621D01*
X015197Y016606D01*
X015128Y016587D01*
X015060Y016564D01*
X014994Y016538D01*
X014929Y016508D01*
X014867Y016474D01*
X014806Y016438D01*
X014747Y016397D01*
X014690Y016354D01*
X014636Y016307D01*
X014585Y016258D01*
X014537Y016205D01*
X014491Y016151D01*
X014449Y016093D01*
X014410Y016034D01*
X014374Y015972D01*
X014341Y015909D01*
X014313Y015844D01*
X014287Y015777D01*
X014266Y015709D01*
X014248Y015640D01*
X014235Y015570D01*
X014225Y015499D01*
X014219Y015428D01*
X014217Y015357D01*
X014219Y015286D01*
X014225Y015215D01*
X014235Y015144D01*
X014248Y015074D01*
X014266Y015005D01*
X014287Y014937D01*
X014313Y014870D01*
X014341Y014805D01*
X014374Y014742D01*
X014410Y014680D01*
X014449Y014621D01*
X014491Y014563D01*
X014537Y014509D01*
X014585Y014456D01*
X014636Y014407D01*
X014690Y014360D01*
X014747Y014317D01*
X014806Y014276D01*
X014867Y014240D01*
X014929Y014206D01*
X014994Y014176D01*
X015060Y014150D01*
X015128Y014127D01*
X015197Y014108D01*
X015266Y014093D01*
X015337Y014082D01*
X015408Y014075D01*
X015479Y014071D01*
X015550Y014072D01*
X015621Y014076D01*
X015692Y014085D01*
X015762Y014097D01*
X015831Y014114D01*
X015900Y014134D01*
X015967Y014158D01*
X016033Y014185D01*
X016097Y014216D01*
X016159Y014251D01*
X016219Y014289D01*
X016277Y014330D01*
X016333Y014375D01*
X016386Y014422D01*
X016437Y014473D01*
X016484Y014526D01*
X016529Y014581D01*
X016522Y014587D01*
X016477Y014532D01*
X016430Y014479D01*
X016380Y014429D01*
X016327Y014382D01*
X016272Y014338D01*
X016214Y014296D01*
X016155Y014259D01*
X016093Y014224D01*
X016029Y014193D01*
X015964Y014166D01*
X015897Y014142D01*
X015829Y014122D01*
X015760Y014106D01*
X015691Y014094D01*
X015620Y014085D01*
X015550Y014081D01*
X015479Y014080D01*
X015408Y014084D01*
X015338Y014091D01*
X015268Y014102D01*
X015199Y014117D01*
X015131Y014136D01*
X015063Y014158D01*
X014998Y014184D01*
X014933Y014214D01*
X014871Y014247D01*
X014811Y014284D01*
X014752Y014324D01*
X014696Y014367D01*
X014642Y014413D01*
X014592Y014463D01*
X014543Y014514D01*
X014498Y014569D01*
X014456Y014626D01*
X014417Y014685D01*
X014382Y014746D01*
X014349Y014809D01*
X014321Y014874D01*
X014296Y014940D01*
X014275Y015008D01*
X014257Y015076D01*
X014244Y015146D01*
X014234Y015216D01*
X014228Y015286D01*
X014226Y015357D01*
X014228Y015428D01*
X014234Y015498D01*
X014244Y015568D01*
X014257Y015638D01*
X014275Y015706D01*
X014296Y015774D01*
X014321Y015840D01*
X014349Y015905D01*
X014382Y015968D01*
X014417Y016029D01*
X014456Y016088D01*
X014498Y016145D01*
X014543Y016200D01*
X014592Y016251D01*
X014642Y016301D01*
X014696Y016347D01*
X014752Y016390D01*
X014811Y016430D01*
X014871Y016467D01*
X014933Y016500D01*
X014998Y016530D01*
X015063Y016556D01*
X015131Y016578D01*
X015199Y016597D01*
X015268Y016612D01*
X015338Y016623D01*
X015408Y016630D01*
X015479Y016634D01*
X015550Y016633D01*
X015620Y016629D01*
X015691Y016620D01*
X015760Y016608D01*
X015829Y016592D01*
X015897Y016572D01*
X015964Y016548D01*
X016029Y016521D01*
X016093Y016490D01*
X016155Y016455D01*
X016214Y016418D01*
X016272Y016376D01*
X016327Y016332D01*
X016380Y016285D01*
X016430Y016235D01*
X016477Y016182D01*
X016522Y016127D01*
X016514Y016122D01*
X016470Y016177D01*
X016422Y016230D01*
X016372Y016280D01*
X016319Y016328D01*
X016263Y016372D01*
X016205Y016413D01*
X016145Y016450D01*
X016083Y016485D01*
X016019Y016515D01*
X015953Y016542D01*
X015886Y016566D01*
X015818Y016585D01*
X015748Y016601D01*
X015678Y016613D01*
X015608Y016621D01*
X015537Y016625D01*
X015466Y016624D01*
X015395Y016620D01*
X015324Y016612D01*
X015254Y016600D01*
X015185Y016584D01*
X015117Y016565D01*
X015049Y016541D01*
X014984Y016514D01*
X014920Y016483D01*
X014858Y016449D01*
X014798Y016411D01*
X014740Y016369D01*
X014684Y016325D01*
X014631Y016278D01*
X014581Y016227D01*
X014534Y016174D01*
X014489Y016119D01*
X014448Y016061D01*
X014411Y016001D01*
X014376Y015938D01*
X014345Y015874D01*
X014318Y015809D01*
X014295Y015742D01*
X014275Y015673D01*
X014259Y015604D01*
X014247Y015534D01*
X014239Y015463D01*
X014235Y015393D01*
X014235Y015321D01*
X014239Y015251D01*
X014247Y015180D01*
X014259Y015110D01*
X014275Y015041D01*
X014295Y014972D01*
X014318Y014905D01*
X014345Y014840D01*
X014376Y014776D01*
X014411Y014713D01*
X014448Y014653D01*
X014489Y014595D01*
X014534Y014540D01*
X014581Y014487D01*
X014631Y014436D01*
X014684Y014389D01*
X014740Y014345D01*
X014798Y014303D01*
X014858Y014265D01*
X014920Y014231D01*
X014984Y014200D01*
X015049Y014173D01*
X015117Y014149D01*
X015185Y014130D01*
X015254Y014114D01*
X015324Y014102D01*
X015395Y014094D01*
X015466Y014090D01*
X015537Y014089D01*
X015608Y014093D01*
X015678Y014101D01*
X015748Y014113D01*
X015818Y014129D01*
X015886Y014148D01*
X015953Y014172D01*
X016019Y014199D01*
X016083Y014229D01*
X016145Y014264D01*
X016205Y014301D01*
X016263Y014342D01*
X016319Y014386D01*
X016372Y014434D01*
X016422Y014484D01*
X016470Y014537D01*
X016514Y014592D01*
X016507Y014598D01*
X016463Y014543D01*
X016416Y014490D01*
X016366Y014440D01*
X016313Y014393D01*
X016258Y014349D01*
X016200Y014309D01*
X016141Y014271D01*
X016079Y014237D01*
X016015Y014207D01*
X015950Y014180D01*
X015883Y014157D01*
X015815Y014137D01*
X015747Y014122D01*
X015677Y014110D01*
X015607Y014102D01*
X015536Y014098D01*
X015466Y014099D01*
X015395Y014103D01*
X015325Y014111D01*
X015256Y014123D01*
X015187Y014138D01*
X015119Y014158D01*
X015053Y014181D01*
X014988Y014208D01*
X014924Y014239D01*
X014862Y014273D01*
X014803Y014311D01*
X014745Y014352D01*
X014690Y014396D01*
X014637Y014443D01*
X014588Y014493D01*
X014541Y014545D01*
X014497Y014601D01*
X014456Y014658D01*
X014418Y014718D01*
X014384Y014780D01*
X014354Y014843D01*
X014327Y014908D01*
X014303Y014975D01*
X014284Y015043D01*
X014268Y015112D01*
X014256Y015181D01*
X014248Y015251D01*
X014244Y015322D01*
X014244Y015392D01*
X014248Y015463D01*
X014256Y015533D01*
X014268Y015602D01*
X014284Y015671D01*
X014303Y015739D01*
X014327Y015806D01*
X014354Y015871D01*
X014384Y015934D01*
X014418Y015996D01*
X014456Y016056D01*
X014497Y016113D01*
X014541Y016169D01*
X014588Y016221D01*
X014637Y016271D01*
X014690Y016318D01*
X014745Y016362D01*
X014803Y016403D01*
X014862Y016441D01*
X014924Y016475D01*
X014988Y016506D01*
X015053Y016533D01*
X015119Y016556D01*
X015187Y016576D01*
X015256Y016591D01*
X015325Y016603D01*
X015395Y016611D01*
X015466Y016615D01*
X015536Y016616D01*
X015607Y016612D01*
X015677Y016604D01*
X015747Y016592D01*
X015815Y016577D01*
X015883Y016557D01*
X015950Y016534D01*
X016015Y016507D01*
X016079Y016477D01*
X016141Y016443D01*
X016200Y016405D01*
X016258Y016365D01*
X016313Y016321D01*
X016366Y016274D01*
X016416Y016224D01*
X016463Y016171D01*
X016507Y016116D01*
X016500Y016111D01*
X016456Y016166D01*
X016409Y016218D01*
X016360Y016267D01*
X016307Y016314D01*
X016253Y016357D01*
X016195Y016398D01*
X016136Y016435D01*
X016075Y016469D01*
X016011Y016499D01*
X015947Y016526D01*
X015880Y016549D01*
X015813Y016568D01*
X015745Y016583D01*
X015676Y016595D01*
X015606Y016603D01*
X015536Y016607D01*
X015466Y016606D01*
X015396Y016602D01*
X015327Y016594D01*
X015258Y016583D01*
X015189Y016567D01*
X015122Y016548D01*
X015056Y016524D01*
X014991Y016497D01*
X014928Y016467D01*
X014867Y016433D01*
X014808Y016396D01*
X014750Y016355D01*
X014696Y016311D01*
X014644Y016265D01*
X014594Y016215D01*
X014547Y016163D01*
X014504Y016108D01*
X014463Y016051D01*
X014426Y015992D01*
X014392Y015930D01*
X014362Y015867D01*
X014335Y015802D01*
X014312Y015736D01*
X014293Y015669D01*
X014277Y015601D01*
X014265Y015532D01*
X014257Y015462D01*
X014253Y015392D01*
X014253Y015322D01*
X014257Y015252D01*
X014265Y015182D01*
X014277Y015113D01*
X014293Y015045D01*
X014312Y014978D01*
X014335Y014912D01*
X014362Y014847D01*
X014392Y014784D01*
X014426Y014722D01*
X014463Y014663D01*
X014504Y014606D01*
X014547Y014551D01*
X014594Y014499D01*
X014644Y014449D01*
X014696Y014403D01*
X014750Y014359D01*
X014808Y014318D01*
X014867Y014281D01*
X014928Y014247D01*
X014991Y014217D01*
X015056Y014190D01*
X015122Y014166D01*
X015189Y014147D01*
X015258Y014131D01*
X015327Y014120D01*
X015396Y014112D01*
X015466Y014108D01*
X015536Y014107D01*
X015606Y014111D01*
X015676Y014119D01*
X015745Y014131D01*
X015813Y014146D01*
X015880Y014165D01*
X015947Y014188D01*
X016011Y014215D01*
X016075Y014245D01*
X016136Y014279D01*
X016195Y014316D01*
X016253Y014357D01*
X016307Y014400D01*
X016360Y014447D01*
X016409Y014496D01*
X016456Y014548D01*
X016500Y014603D01*
X016493Y014608D01*
X016449Y014554D01*
X016403Y014502D01*
X016354Y014453D01*
X016302Y014407D01*
X016247Y014364D01*
X016190Y014324D01*
X016131Y014287D01*
X016070Y014253D01*
X016008Y014223D01*
X015943Y014197D01*
X015878Y014174D01*
X015811Y014155D01*
X015743Y014139D01*
X015674Y014128D01*
X015605Y014120D01*
X015536Y014116D01*
X015466Y014117D01*
X015397Y014121D01*
X015328Y014128D01*
X015259Y014140D01*
X015192Y014156D01*
X015125Y014175D01*
X015059Y014198D01*
X014995Y014225D01*
X014932Y014255D01*
X014871Y014289D01*
X014813Y014326D01*
X014756Y014366D01*
X014702Y014409D01*
X014650Y014456D01*
X014601Y014505D01*
X014554Y014557D01*
X014511Y014611D01*
X014471Y014668D01*
X014434Y014727D01*
X014400Y014788D01*
X014370Y014851D01*
X014343Y014915D01*
X014320Y014980D01*
X014301Y015047D01*
X014286Y015115D01*
X014274Y015184D01*
X014266Y015253D01*
X014262Y015322D01*
X014262Y015392D01*
X014266Y015461D01*
X014274Y015530D01*
X014286Y015599D01*
X014301Y015667D01*
X014320Y015734D01*
X014343Y015799D01*
X014370Y015863D01*
X014400Y015926D01*
X014434Y015987D01*
X014471Y016046D01*
X014511Y016103D01*
X014554Y016157D01*
X014601Y016209D01*
X014650Y016258D01*
X014702Y016305D01*
X014756Y016348D01*
X014813Y016388D01*
X014871Y016425D01*
X014932Y016459D01*
X014995Y016489D01*
X015059Y016516D01*
X015125Y016539D01*
X015192Y016558D01*
X015259Y016574D01*
X015328Y016586D01*
X015397Y016593D01*
X015466Y016597D01*
X015536Y016598D01*
X015605Y016594D01*
X015674Y016586D01*
X015743Y016575D01*
X015811Y016559D01*
X015878Y016540D01*
X015943Y016517D01*
X016008Y016491D01*
X016070Y016461D01*
X016131Y016427D01*
X016190Y016390D01*
X016247Y016350D01*
X016302Y016307D01*
X016354Y016261D01*
X016403Y016212D01*
X016449Y016160D01*
X016493Y016106D01*
X016486Y016100D01*
X016442Y016154D01*
X016396Y016205D01*
X016347Y016254D01*
X016296Y016300D01*
X016242Y016343D01*
X016185Y016383D01*
X016127Y016419D01*
X016066Y016453D01*
X016004Y016483D01*
X015940Y016509D01*
X015875Y016531D01*
X015809Y016550D01*
X015741Y016566D01*
X015673Y016577D01*
X015605Y016585D01*
X015536Y016589D01*
X015467Y016588D01*
X015398Y016584D01*
X015329Y016577D01*
X015261Y016565D01*
X015194Y016550D01*
X015127Y016530D01*
X015062Y016507D01*
X014999Y016481D01*
X014936Y016451D01*
X014876Y016418D01*
X014818Y016381D01*
X014761Y016341D01*
X014707Y016298D01*
X014656Y016252D01*
X014607Y016203D01*
X014561Y016151D01*
X014518Y016097D01*
X014478Y016041D01*
X014442Y015982D01*
X014408Y015922D01*
X014378Y015860D01*
X014352Y015796D01*
X014329Y015731D01*
X014310Y015664D01*
X014295Y015597D01*
X014283Y015529D01*
X014275Y015460D01*
X014271Y015392D01*
X014271Y015322D01*
X014275Y015254D01*
X014283Y015185D01*
X014295Y015117D01*
X014310Y015050D01*
X014329Y014983D01*
X014352Y014918D01*
X014378Y014854D01*
X014408Y014792D01*
X014442Y014732D01*
X014478Y014673D01*
X014518Y014617D01*
X014561Y014563D01*
X014607Y014511D01*
X014656Y014462D01*
X014707Y014416D01*
X014761Y014373D01*
X014818Y014333D01*
X014876Y014296D01*
X014936Y014263D01*
X014999Y014233D01*
X015062Y014207D01*
X015127Y014184D01*
X015194Y014164D01*
X015261Y014149D01*
X015329Y014137D01*
X015398Y014130D01*
X015467Y014126D01*
X015536Y014125D01*
X015605Y014129D01*
X015673Y014137D01*
X015741Y014148D01*
X015809Y014164D01*
X015875Y014183D01*
X015940Y014205D01*
X016004Y014231D01*
X016066Y014261D01*
X016127Y014295D01*
X016185Y014331D01*
X016242Y014371D01*
X016296Y014414D01*
X016347Y014460D01*
X016396Y014509D01*
X016442Y014560D01*
X016486Y014614D01*
X016478Y014619D01*
X016435Y014565D01*
X016389Y014514D01*
X016339Y014465D01*
X016288Y014419D01*
X016233Y014376D01*
X016176Y014336D01*
X016118Y014300D01*
X016057Y014266D01*
X015994Y014237D01*
X015930Y014211D01*
X015864Y014189D01*
X015797Y014170D01*
X015730Y014155D01*
X015661Y014144D01*
X015592Y014137D01*
X015523Y014134D01*
X015454Y014135D01*
X015384Y014140D01*
X015316Y014148D01*
X015248Y014161D01*
X015180Y014177D01*
X015114Y014198D01*
X015049Y014221D01*
X014985Y014249D01*
X014923Y014280D01*
X014863Y014315D01*
X014805Y014353D01*
X014749Y014394D01*
X014696Y014438D01*
X014645Y014485D01*
X014597Y014535D01*
X014552Y014588D01*
X014510Y014643D01*
X014471Y014700D01*
X014436Y014760D01*
X014404Y014821D01*
X014375Y014884D01*
X014350Y014949D01*
X014329Y015015D01*
X014311Y015082D01*
X014298Y015150D01*
X014288Y015219D01*
X014282Y015288D01*
X014280Y015357D01*
X014282Y015426D01*
X014288Y015495D01*
X014298Y015564D01*
X014311Y015632D01*
X014329Y015699D01*
X014350Y015765D01*
X014375Y015830D01*
X014404Y015893D01*
X014436Y015954D01*
X014471Y016014D01*
X014510Y016071D01*
X014552Y016126D01*
X014597Y016179D01*
X014645Y016229D01*
X014696Y016276D01*
X014749Y016320D01*
X014805Y016361D01*
X014863Y016399D01*
X014923Y016434D01*
X014985Y016465D01*
X015049Y016493D01*
X015114Y016516D01*
X015180Y016537D01*
X015248Y016553D01*
X015316Y016566D01*
X015384Y016574D01*
X015454Y016579D01*
X015523Y016580D01*
X015592Y016577D01*
X015661Y016570D01*
X015730Y016559D01*
X015797Y016544D01*
X015864Y016525D01*
X015930Y016503D01*
X015994Y016477D01*
X016057Y016448D01*
X016118Y016414D01*
X016176Y016378D01*
X016233Y016338D01*
X016288Y016295D01*
X016339Y016249D01*
X016389Y016200D01*
X016435Y016149D01*
X016478Y016095D01*
X016471Y016089D01*
X016428Y016143D01*
X016382Y016194D01*
X016333Y016243D01*
X016282Y016288D01*
X016228Y016331D01*
X016171Y016370D01*
X016113Y016407D01*
X016053Y016440D01*
X015990Y016469D01*
X015927Y016495D01*
X015861Y016517D01*
X015795Y016535D01*
X015728Y016550D01*
X015660Y016561D01*
X015591Y016568D01*
X015523Y016571D01*
X015454Y016570D01*
X015385Y016565D01*
X015317Y016557D01*
X015249Y016544D01*
X015183Y016528D01*
X015117Y016508D01*
X015052Y016484D01*
X014989Y016457D01*
X014928Y016426D01*
X014868Y016392D01*
X014810Y016354D01*
X014755Y016313D01*
X014702Y016269D01*
X014652Y016222D01*
X014604Y016173D01*
X014559Y016121D01*
X014517Y016066D01*
X014479Y016009D01*
X014444Y015950D01*
X014412Y015889D01*
X014383Y015826D01*
X014359Y015762D01*
X014337Y015696D01*
X014320Y015630D01*
X014307Y015562D01*
X014297Y015494D01*
X014291Y015426D01*
X014289Y015357D01*
X014291Y015288D01*
X014297Y015220D01*
X014307Y015152D01*
X014320Y015084D01*
X014337Y015018D01*
X014359Y014952D01*
X014383Y014888D01*
X014412Y014825D01*
X014444Y014764D01*
X014479Y014705D01*
X014517Y014648D01*
X014559Y014593D01*
X014604Y014541D01*
X014652Y014492D01*
X014702Y014445D01*
X014755Y014401D01*
X014810Y014360D01*
X014868Y014322D01*
X014928Y014288D01*
X014989Y014257D01*
X015052Y014230D01*
X015117Y014206D01*
X015183Y014186D01*
X015249Y014170D01*
X015317Y014157D01*
X015385Y014149D01*
X015454Y014144D01*
X015523Y014143D01*
X015591Y014146D01*
X015660Y014153D01*
X015728Y014164D01*
X015795Y014179D01*
X015861Y014197D01*
X015927Y014219D01*
X015990Y014245D01*
X016053Y014274D01*
X016113Y014307D01*
X016171Y014344D01*
X016228Y014383D01*
X016282Y014426D01*
X016333Y014471D01*
X016382Y014520D01*
X016428Y014571D01*
X016471Y014625D01*
D20*
X016103Y022392D02*
X015682Y022392D01*
X015893Y022392D02*
X015893Y023023D01*
X015682Y022813D01*
X015458Y022918D02*
X015353Y023023D01*
X015143Y023023D01*
X015038Y022918D01*
X015038Y022813D01*
X015143Y022707D01*
X015353Y022707D01*
X015458Y022602D01*
X015458Y022497D01*
X015353Y022392D01*
X015143Y022392D01*
X015038Y022497D01*
X012103Y022392D02*
X011682Y022392D01*
X012103Y022813D01*
X012103Y022918D01*
X011998Y023023D01*
X011787Y023023D01*
X011682Y022918D01*
X011458Y022918D02*
X011353Y023023D01*
X011143Y023023D01*
X011038Y022918D01*
X011038Y022813D01*
X011143Y022707D01*
X011353Y022707D01*
X011458Y022602D01*
X011458Y022497D01*
X011353Y022392D01*
X011143Y022392D01*
X011038Y022497D01*
D21*
X018768Y021011D03*
X021608Y021011D03*
X021423Y017357D03*
X018583Y017357D03*
X014923Y006857D03*
X012083Y006857D03*
M02*
