%
M48
M72
T01C0.0118
T02C0.0315
T03C0.0320
T04C0.0390
T05C0.0394
T06C0.0400
T07C0.0560
T08C0.0591
T09C0.0790
%
T01
X16873Y9589
X13487Y13211
X13605Y17385
X24353Y23251
X28999Y15692
X28448Y15456
X25219Y13645
T02
X34294Y14692
X35294Y15192
X35294Y16192
X34294Y16692
X34294Y15692
X35294Y17192
X34294Y17692
X35294Y14192
X12086Y14668
X11086Y14168
X12086Y13668
X11086Y15168
T03
X13444Y16271
X15003Y15357
X16003Y15357
X18003Y15657
X19503Y15357
X20503Y15357
X22503Y15157
X21803Y17357
X18203Y17357
X18388Y21011
X21988Y21011
X25503Y15157
X24003Y13157
X25503Y11557
X24003Y9557
X22503Y11557
X20503Y12357
X19503Y12357
X18003Y12057
X16003Y12357
X15003Y12357
X13444Y12671
X13503Y11657
X15003Y9357
X16003Y9357
X17503Y9357
X19503Y9357
X19003Y7357
X19003Y6357
X15303Y6857
X13503Y8057
X11703Y6857
T04
X26003Y6857
X26003Y7857
X26003Y8857
X29003Y8857
X29003Y7857
X29003Y6857
X29003Y5857
X26003Y5857
T05
X10003Y3607
X11003Y3607
X12003Y3607
X13003Y3607
X14003Y3607
X15003Y3607
X16003Y3607
X17003Y3607
X18003Y3607
X19003Y3607
X20003Y3607
X21003Y3607
X22003Y3607
X23003Y3607
X24003Y3607
X25003Y3607
X26003Y3607
X27003Y3607
X28003Y3607
X29003Y3607
X30003Y3607
X31003Y3607
X32003Y3607
X32003Y4607
X31003Y4607
X30003Y4607
X29003Y4607
X28003Y4607
X27003Y4607
X26003Y4607
X25003Y4607
X24003Y4607
X23003Y4607
X22003Y4607
X21003Y4607
X20003Y4607
X19003Y4607
X18003Y4607
X17003Y4607
X16003Y4607
X15003Y4607
X14003Y4607
X13003Y4607
X12003Y4607
X11003Y4607
X10003Y4607
X10003Y22607
X11003Y22607
X12003Y22607
X13003Y22607
X14003Y22607
X15003Y22607
X16003Y22607
X17003Y22607
X18003Y22607
X19003Y22607
X20003Y22607
X21003Y22607
X22003Y22607
X23003Y22607
X24003Y22607
X25003Y22607
X26003Y22607
X27003Y22607
X28003Y22607
X29003Y22607
X30003Y22607
X31003Y22607
X32003Y22607
X32003Y23607
X31003Y23607
X30003Y23607
X29003Y23607
X28003Y23607
X27003Y23607
X26003Y23607
X25003Y23607
X24003Y23607
X23003Y23607
X22003Y23607
X21003Y23607
X20003Y23607
X19003Y23607
X18003Y23607
X17003Y23607
X16003Y23607
X15003Y23607
X14003Y23607
X13003Y23607
X12003Y23607
X11003Y23607
X10003Y23607
T06
X23908Y21015
X24908Y21015
X25908Y21015
X24003Y7357
X23003Y7357
X23003Y6357
X24003Y6357
X22003Y6357
X21003Y6357
X21003Y7357
X22003Y7357
T07
X34869Y19578
X34869Y20956
T08
X34438Y13554
X11942Y15806
T09
X12003Y17777
X12003Y19357
X12003Y20937
X16003Y20937
X16003Y19357
X16003Y17777
M30
