G75*
%MOIN*%
%OFA0B0*%
%FSLAX24Y24*%
%IPPOS*%
%LPD*%
%AMOC8*
5,1,8,0,0,1.08239X$1,22.5*
%
%ADD10R,0.0631X0.0631*%
%ADD11C,0.0631*%
%ADD12R,0.0625X0.0625*%
%ADD13C,0.0625*%
%ADD14OC8,0.0700*%
%ADD15R,0.0430X0.0160*%
%ADD16R,0.0512X0.0257*%
%ADD17C,0.0790*%
%ADD18OC8,0.0790*%
%ADD19OC8,0.0520*%
%ADD20C,0.1225*%
%ADD21C,0.0600*%
%ADD22C,0.0640*%
%ADD23C,0.0880*%
%ADD24R,0.0552X0.0631*%
%ADD25C,0.0276*%
D10*
X010003Y003607D03*
X010003Y022607D03*
D11*
X011003Y022607D03*
X012003Y022607D03*
X013003Y022607D03*
X014003Y022607D03*
X015003Y022607D03*
X016003Y022607D03*
X017003Y022607D03*
X018003Y022607D03*
X019003Y022607D03*
X020003Y022607D03*
X021003Y022607D03*
X022003Y022607D03*
X023003Y022607D03*
X024003Y022607D03*
X025003Y022607D03*
X026003Y022607D03*
X027003Y022607D03*
X028003Y022607D03*
X029003Y022607D03*
X030003Y022607D03*
X031003Y022607D03*
X032003Y022607D03*
X032003Y023607D03*
X031003Y023607D03*
X030003Y023607D03*
X029003Y023607D03*
X028003Y023607D03*
X027003Y023607D03*
X026003Y023607D03*
X025003Y023607D03*
X024003Y023607D03*
X023003Y023607D03*
X022003Y023607D03*
X021003Y023607D03*
X020003Y023607D03*
X019003Y023607D03*
X018003Y023607D03*
X017003Y023607D03*
X016003Y023607D03*
X015003Y023607D03*
X014003Y023607D03*
X013003Y023607D03*
X012003Y023607D03*
X011003Y023607D03*
X010003Y023607D03*
X011942Y015806D03*
X012003Y004607D03*
X013003Y004607D03*
X014003Y004607D03*
X015003Y004607D03*
X016003Y004607D03*
X017003Y004607D03*
X018003Y004607D03*
X019003Y004607D03*
X020003Y004607D03*
X021003Y004607D03*
X022003Y004607D03*
X023003Y004607D03*
X024003Y004607D03*
X025003Y004607D03*
X026003Y004607D03*
X027003Y004607D03*
X028003Y004607D03*
X029003Y004607D03*
X030003Y004607D03*
X031003Y004607D03*
X032003Y004607D03*
X032003Y003607D03*
X031003Y003607D03*
X030003Y003607D03*
X029003Y003607D03*
X028003Y003607D03*
X027003Y003607D03*
X026003Y003607D03*
X025003Y003607D03*
X024003Y003607D03*
X023003Y003607D03*
X022003Y003607D03*
X021003Y003607D03*
X020003Y003607D03*
X019003Y003607D03*
X018003Y003607D03*
X017003Y003607D03*
X016003Y003607D03*
X015003Y003607D03*
X014003Y003607D03*
X013003Y003607D03*
X012003Y003607D03*
X011003Y003607D03*
X011003Y004607D03*
X010003Y004607D03*
X034438Y013554D03*
D12*
X029003Y005857D03*
D13*
X029003Y006857D03*
X029003Y007857D03*
X029003Y008857D03*
X026003Y008857D03*
X026003Y007857D03*
X026003Y006857D03*
X026003Y005857D03*
D14*
X024003Y006357D03*
X023003Y006357D03*
X023003Y007357D03*
X024003Y007357D03*
X022003Y007357D03*
X021003Y007357D03*
X021003Y006357D03*
X022003Y006357D03*
X024003Y009557D03*
X025503Y011557D03*
X024003Y013157D03*
X022503Y011557D03*
X020503Y012357D03*
X019503Y012357D03*
X018003Y012057D03*
X016003Y012357D03*
X015003Y012357D03*
X013444Y012671D03*
X013503Y011657D03*
X015003Y009357D03*
X016003Y009357D03*
X013503Y008057D03*
X011703Y006857D03*
X015303Y006857D03*
X015003Y015357D03*
X016003Y015357D03*
X018003Y015657D03*
X019503Y015357D03*
X020503Y015357D03*
X022503Y015157D03*
X021803Y017357D03*
X018203Y017357D03*
X013444Y016271D03*
X018388Y021011D03*
X021988Y021011D03*
X025503Y015157D03*
D15*
X029645Y015213D03*
X029645Y014958D03*
X029645Y014702D03*
X029645Y014446D03*
X029645Y014190D03*
X029645Y013934D03*
X029645Y013678D03*
X031943Y013678D03*
X031943Y013934D03*
X031943Y014190D03*
X031943Y014446D03*
X031943Y014702D03*
X031943Y014958D03*
X031943Y015213D03*
X031943Y015469D03*
X031943Y015725D03*
X031943Y015981D03*
X029645Y015981D03*
X029645Y015725D03*
X029645Y015469D03*
D16*
X022015Y010231D03*
X022015Y009857D03*
X022015Y009483D03*
X020991Y009483D03*
X020991Y010231D03*
D17*
X019503Y009357D03*
D18*
X017503Y009357D03*
D19*
X019003Y007357D03*
X019003Y006357D03*
D20*
X016595Y017777D02*
X015410Y017777D01*
X015410Y019357D02*
X016595Y019357D01*
X016595Y020937D02*
X015410Y020937D01*
X012595Y020937D02*
X011410Y020937D01*
X011410Y019357D02*
X012595Y019357D01*
X012595Y017777D02*
X011410Y017777D01*
D21*
X011086Y015168D03*
X012086Y014668D03*
X011086Y014168D03*
X012086Y013668D03*
X034294Y014692D03*
X035294Y015192D03*
X035294Y016192D03*
X034294Y016692D03*
X034294Y015692D03*
X035294Y017192D03*
X034294Y017692D03*
X035294Y014192D03*
D22*
X025908Y021015D03*
X024908Y021015D03*
X023908Y021015D03*
D23*
X034449Y020956D02*
X035289Y020956D01*
X035289Y019578D02*
X034449Y019578D01*
D24*
X011912Y011904D03*
X011164Y011904D03*
X011097Y010255D03*
X011845Y010255D03*
D25*
X013487Y013211D03*
X016873Y009589D03*
X025219Y013645D03*
X028448Y015456D03*
X028999Y015692D03*
X024353Y023251D03*
X013605Y017385D03*
M02*
