G75*
%MOIN*%
%OFA0B0*%
%FSLAX24Y24*%
%IPPOS*%
%LPD*%
%AMOC8*
5,1,8,0,0,1.08239X$1,22.5*
%
%ADD10C,0.0000*%
%ADD11C,0.0050*%
D10*
X002503Y002897D02*
X002503Y024353D01*
X036558Y024353D01*
X036558Y002897D01*
X002503Y002897D01*
X011647Y015806D02*
X011649Y015840D01*
X011655Y015874D01*
X011665Y015907D01*
X011678Y015938D01*
X011696Y015968D01*
X011716Y015996D01*
X011740Y016021D01*
X011766Y016043D01*
X011794Y016061D01*
X011825Y016077D01*
X011857Y016089D01*
X011891Y016097D01*
X011925Y016101D01*
X011959Y016101D01*
X011993Y016097D01*
X012027Y016089D01*
X012059Y016077D01*
X012089Y016061D01*
X012118Y016043D01*
X012144Y016021D01*
X012168Y015996D01*
X012188Y015968D01*
X012206Y015938D01*
X012219Y015907D01*
X012229Y015874D01*
X012235Y015840D01*
X012237Y015806D01*
X012235Y015772D01*
X012229Y015738D01*
X012219Y015705D01*
X012206Y015674D01*
X012188Y015644D01*
X012168Y015616D01*
X012144Y015591D01*
X012118Y015569D01*
X012090Y015551D01*
X012059Y015535D01*
X012027Y015523D01*
X011993Y015515D01*
X011959Y015511D01*
X011925Y015511D01*
X011891Y015515D01*
X011857Y015523D01*
X011825Y015535D01*
X011794Y015551D01*
X011766Y015569D01*
X011740Y015591D01*
X011716Y015616D01*
X011696Y015644D01*
X011678Y015674D01*
X011665Y015705D01*
X011655Y015738D01*
X011649Y015772D01*
X011647Y015806D01*
X034143Y013554D02*
X034145Y013588D01*
X034151Y013622D01*
X034161Y013655D01*
X034174Y013686D01*
X034192Y013716D01*
X034212Y013744D01*
X034236Y013769D01*
X034262Y013791D01*
X034290Y013809D01*
X034321Y013825D01*
X034353Y013837D01*
X034387Y013845D01*
X034421Y013849D01*
X034455Y013849D01*
X034489Y013845D01*
X034523Y013837D01*
X034555Y013825D01*
X034585Y013809D01*
X034614Y013791D01*
X034640Y013769D01*
X034664Y013744D01*
X034684Y013716D01*
X034702Y013686D01*
X034715Y013655D01*
X034725Y013622D01*
X034731Y013588D01*
X034733Y013554D01*
X034731Y013520D01*
X034725Y013486D01*
X034715Y013453D01*
X034702Y013422D01*
X034684Y013392D01*
X034664Y013364D01*
X034640Y013339D01*
X034614Y013317D01*
X034586Y013299D01*
X034555Y013283D01*
X034523Y013271D01*
X034489Y013263D01*
X034455Y013259D01*
X034421Y013259D01*
X034387Y013263D01*
X034353Y013271D01*
X034321Y013283D01*
X034290Y013299D01*
X034262Y013317D01*
X034236Y013339D01*
X034212Y013364D01*
X034192Y013392D01*
X034174Y013422D01*
X034161Y013453D01*
X034151Y013486D01*
X034145Y013520D01*
X034143Y013554D01*
D11*
X036503Y007857D02*
X036503Y019357D01*
X036501Y019497D01*
X036495Y019637D01*
X036485Y019777D01*
X036472Y019917D01*
X036454Y020056D01*
X036432Y020195D01*
X036407Y020332D01*
X036378Y020470D01*
X036345Y020606D01*
X036308Y020741D01*
X036267Y020875D01*
X036222Y021008D01*
X036174Y021140D01*
X036122Y021270D01*
X036067Y021399D01*
X036008Y021526D01*
X035945Y021652D01*
X035879Y021776D01*
X035810Y021897D01*
X035737Y022017D01*
X035660Y022135D01*
X035581Y022250D01*
X035498Y022364D01*
X035412Y022474D01*
X035323Y022583D01*
X035231Y022689D01*
X035136Y022792D01*
X035039Y022893D01*
X034938Y022990D01*
X034835Y023085D01*
X034729Y023177D01*
X034620Y023266D01*
X034510Y023352D01*
X034396Y023435D01*
X034281Y023514D01*
X034163Y023591D01*
X034043Y023664D01*
X033922Y023733D01*
X033798Y023799D01*
X033672Y023862D01*
X033545Y023921D01*
X033416Y023976D01*
X033286Y024028D01*
X033154Y024076D01*
X033021Y024121D01*
X032887Y024162D01*
X032752Y024199D01*
X032616Y024232D01*
X032478Y024261D01*
X032341Y024286D01*
X032202Y024308D01*
X032063Y024326D01*
X031923Y024339D01*
X031783Y024349D01*
X031643Y024355D01*
X031503Y024357D01*
X008253Y024357D01*
X008253Y019357D01*
X008346Y019355D01*
X008439Y019349D01*
X008531Y019340D01*
X008623Y019326D01*
X008715Y019309D01*
X008805Y019288D01*
X008895Y019263D01*
X008984Y019235D01*
X009071Y019203D01*
X009157Y019167D01*
X009241Y019128D01*
X009324Y019086D01*
X009405Y019040D01*
X009484Y018991D01*
X009560Y018938D01*
X009635Y018883D01*
X009707Y018824D01*
X009777Y018762D01*
X009844Y018698D01*
X009908Y018631D01*
X009970Y018561D01*
X010029Y018489D01*
X010084Y018414D01*
X010137Y018338D01*
X010186Y018259D01*
X010232Y018178D01*
X010274Y018095D01*
X010313Y018011D01*
X010349Y017925D01*
X010381Y017838D01*
X010409Y017749D01*
X010434Y017659D01*
X010455Y017569D01*
X010472Y017477D01*
X010486Y017385D01*
X010495Y017293D01*
X010501Y017200D01*
X010503Y017107D01*
X010503Y010107D01*
X010501Y010014D01*
X010495Y009921D01*
X010486Y009829D01*
X010472Y009737D01*
X010455Y009645D01*
X010434Y009555D01*
X010409Y009465D01*
X010381Y009376D01*
X010349Y009289D01*
X010313Y009203D01*
X010274Y009119D01*
X010232Y009036D01*
X010186Y008955D01*
X010137Y008876D01*
X010084Y008800D01*
X010029Y008725D01*
X009970Y008653D01*
X009908Y008583D01*
X009844Y008516D01*
X009777Y008452D01*
X009707Y008390D01*
X009635Y008331D01*
X009560Y008276D01*
X009484Y008223D01*
X009405Y008174D01*
X009324Y008128D01*
X009241Y008086D01*
X009157Y008047D01*
X009071Y008011D01*
X008984Y007979D01*
X008895Y007951D01*
X008805Y007926D01*
X008715Y007905D01*
X008623Y007888D01*
X008531Y007874D01*
X008439Y007865D01*
X008346Y007859D01*
X008253Y007857D01*
X008253Y002857D01*
X031503Y002857D01*
X031643Y002859D01*
X031783Y002865D01*
X031923Y002875D01*
X032063Y002888D01*
X032202Y002906D01*
X032341Y002928D01*
X032478Y002953D01*
X032616Y002982D01*
X032752Y003015D01*
X032887Y003052D01*
X033021Y003093D01*
X033154Y003138D01*
X033286Y003186D01*
X033416Y003238D01*
X033545Y003293D01*
X033672Y003352D01*
X033798Y003415D01*
X033922Y003481D01*
X034043Y003550D01*
X034163Y003623D01*
X034281Y003700D01*
X034396Y003779D01*
X034510Y003862D01*
X034620Y003948D01*
X034729Y004037D01*
X034835Y004129D01*
X034938Y004224D01*
X035039Y004321D01*
X035136Y004422D01*
X035231Y004525D01*
X035323Y004631D01*
X035412Y004740D01*
X035498Y004850D01*
X035581Y004964D01*
X035660Y005079D01*
X035737Y005197D01*
X035810Y005317D01*
X035879Y005438D01*
X035945Y005562D01*
X036008Y005688D01*
X036067Y005815D01*
X036122Y005944D01*
X036174Y006074D01*
X036222Y006206D01*
X036267Y006339D01*
X036308Y006473D01*
X036345Y006608D01*
X036378Y006744D01*
X036407Y006882D01*
X036432Y007019D01*
X036454Y007158D01*
X036472Y007297D01*
X036485Y007437D01*
X036495Y007577D01*
X036501Y007717D01*
X036503Y007857D01*
M02*
