G75*
G70*
%OFA0B0*%
%FSLAX24Y24*%
%IPPOS*%
%LPD*%
%AMOC8*
5,1,8,0,0,1.08239X$1,22.5*
%
%ADD10C,0.0515*%
%ADD11C,0.0660*%
%ADD12C,0.0768*%
%ADD13C,0.0594*%
%ADD14R,0.0300X0.0220*%
%ADD15R,0.0630X0.0512*%
%ADD16R,0.0512X0.0591*%
%ADD17C,0.0560*%
%ADD18C,0.0560*%
%ADD19C,0.0700*%
%ADD20C,0.1181*%
%ADD21C,0.0591*%
%ADD22C,0.0160*%
%ADD23C,0.0240*%
%ADD24C,0.0396*%
%ADD25OC8,0.1266*%
D10*
X019065Y011228D03*
X019065Y012228D03*
X019065Y013228D03*
X019065Y014228D03*
X019065Y015228D03*
X019065Y016228D03*
X019065Y017228D03*
X019065Y018228D03*
X019065Y019228D03*
X019065Y020228D03*
X019065Y021228D03*
X019065Y022228D03*
X019065Y023228D03*
X019065Y024228D03*
X019065Y025228D03*
X019065Y026228D03*
X019065Y027228D03*
X019065Y028228D03*
X019065Y029228D03*
X019065Y030228D03*
X028065Y030228D03*
X028065Y029228D03*
X028065Y028228D03*
X028065Y027228D03*
X028065Y026228D03*
X028065Y025228D03*
X028065Y024228D03*
X028065Y023228D03*
X028065Y022228D03*
X028065Y021228D03*
X028065Y020228D03*
X028065Y019228D03*
X028065Y018228D03*
X028065Y017228D03*
X028065Y016228D03*
X028065Y015228D03*
X028065Y014228D03*
X028065Y013228D03*
X028065Y012228D03*
X028065Y011228D03*
D11*
X015419Y013117D03*
X014167Y013117D03*
X011667Y013117D03*
X011667Y019369D03*
X015415Y019369D03*
D12*
X009166Y013092D02*
X008398Y013092D01*
X008398Y011092D02*
X009166Y011092D01*
D13*
X025900Y006785D02*
X025900Y006191D01*
X026900Y006191D02*
X026900Y006785D01*
X027900Y006785D02*
X027900Y006191D01*
X029880Y006214D02*
X029880Y006807D01*
X030880Y006807D02*
X030880Y006214D01*
X031880Y006214D02*
X031880Y006807D01*
X032127Y009228D02*
X031534Y009228D01*
X031534Y010228D02*
X032127Y010228D01*
X032127Y011228D02*
X031534Y011228D01*
X031534Y012228D02*
X032127Y012228D01*
X032127Y014228D02*
X031534Y014228D01*
X031534Y015228D02*
X032127Y015228D01*
X032127Y016228D02*
X031534Y016228D01*
X031534Y018228D02*
X032127Y018228D01*
X032127Y019228D02*
X031534Y019228D01*
X031534Y020228D02*
X032127Y020228D01*
X032127Y022228D02*
X031534Y022228D01*
X031534Y023228D02*
X032127Y023228D01*
X032127Y024228D02*
X031534Y024228D01*
X031534Y025228D02*
X032127Y025228D01*
X032127Y027228D02*
X031534Y027228D01*
X031534Y028228D02*
X032127Y028228D01*
X032127Y029228D02*
X031534Y029228D01*
X031534Y030228D02*
X032127Y030228D01*
D14*
X024028Y027329D03*
X024028Y026829D03*
X024028Y026329D03*
X024028Y025829D03*
X022073Y025829D03*
X022073Y026329D03*
X022073Y026829D03*
X022073Y027329D03*
D15*
X024030Y025093D03*
X024030Y024345D03*
X024159Y018759D03*
X024159Y018011D03*
X030143Y012297D03*
X030143Y011549D03*
X030145Y010665D03*
X030145Y009917D03*
X030005Y027204D03*
X030005Y027952D03*
X030052Y028845D03*
X030052Y029593D03*
D16*
X023281Y028023D03*
X022533Y028023D03*
D17*
X022160Y016853D02*
X022160Y016293D01*
X023160Y016293D02*
X023160Y016853D01*
X024160Y016853D02*
X024160Y016293D01*
D18*
X024213Y007118D03*
X023213Y007118D03*
X022213Y007118D03*
X021213Y007118D03*
X021713Y006118D03*
X022713Y006118D03*
X023713Y006118D03*
X020713Y006118D03*
X018416Y007090D03*
X017416Y007090D03*
X016416Y007090D03*
X016916Y006090D03*
X017916Y006090D03*
X015916Y006090D03*
X013734Y007059D03*
X012734Y007059D03*
X011734Y007059D03*
X011234Y006059D03*
X012234Y006059D03*
X013234Y006059D03*
X012030Y025745D03*
X012030Y026745D03*
X011030Y026245D03*
X011030Y027245D03*
X011030Y028245D03*
X011030Y029245D03*
X011030Y030245D03*
X012030Y029745D03*
X012030Y028745D03*
X012030Y027745D03*
X015420Y029780D03*
X016420Y029780D03*
X015920Y030780D03*
X016920Y030780D03*
D19*
X012512Y022223D03*
X012512Y021042D03*
X010937Y021042D03*
X010937Y022223D03*
X009362Y022223D03*
X009362Y021042D03*
D20*
X007787Y021632D03*
X014087Y021632D03*
D21*
X017283Y021224D03*
X017283Y020224D03*
X016602Y027019D03*
X015602Y027019D03*
D22*
X015548Y025228D02*
X019065Y025228D01*
X019465Y025829D02*
X019065Y026228D01*
X019465Y025829D02*
X022073Y025829D01*
X022073Y026828D02*
X022073Y026829D01*
X022073Y026828D02*
X022316Y026828D01*
X022533Y027045D01*
X022533Y028023D01*
X022073Y027329D02*
X021972Y027228D01*
X019065Y027228D01*
X019065Y024228D02*
X015548Y024228D01*
X012030Y027745D01*
X012030Y028745D02*
X015548Y025228D01*
X015548Y023228D02*
X019065Y023228D01*
X019065Y022228D02*
X015548Y022228D01*
X012030Y025745D01*
X012030Y026745D02*
X015548Y023228D01*
X023145Y025862D02*
X023145Y018635D01*
X023160Y016573D01*
X023160Y009790D01*
X022186Y008817D01*
X022186Y007144D01*
X022213Y007118D01*
X022213Y006618D01*
X022713Y006118D01*
X023213Y007118D02*
X023215Y007120D01*
X023215Y008202D01*
X025168Y010155D01*
X025168Y018732D01*
X025141Y018759D01*
X024159Y018759D01*
X024159Y018011D02*
X024159Y016574D01*
X024160Y016573D01*
X025900Y018063D02*
X025900Y006488D01*
X029647Y009917D02*
X029018Y010546D01*
X029018Y012276D01*
X028065Y013228D01*
X028065Y014228D02*
X029996Y012297D01*
X030143Y012297D01*
X031761Y012297D01*
X031830Y012228D01*
X031830Y011228D02*
X030464Y011228D01*
X030143Y011549D01*
X030143Y010668D01*
X030145Y010665D01*
X030145Y009917D02*
X029647Y009917D01*
X030145Y009917D02*
X031014Y009917D01*
X031275Y010178D01*
X031780Y010178D01*
X031830Y010228D01*
X029880Y007423D02*
X029880Y006510D01*
X029880Y007423D02*
X026837Y010467D01*
X026837Y018000D01*
X028065Y019228D01*
X028065Y020228D02*
X025900Y018063D01*
X025168Y018732D02*
X025168Y026400D01*
X024739Y026829D01*
X024028Y026829D01*
X024028Y026329D02*
X023612Y026329D01*
X023145Y025862D01*
X028065Y026228D02*
X030065Y024228D01*
X031830Y024228D01*
X031830Y023228D02*
X030065Y023228D01*
X028065Y025228D01*
X028103Y027204D02*
X028065Y027228D01*
X028103Y027204D02*
X030005Y027204D01*
X029832Y027228D01*
X031830Y027228D01*
X031544Y027953D02*
X031830Y028228D01*
X031544Y027953D02*
X030005Y027952D01*
X030018Y028877D01*
X030052Y028845D01*
X030052Y029593D02*
X029417Y029579D01*
X028065Y028228D01*
X030052Y029593D02*
X030795Y029579D01*
X031145Y029230D01*
X031829Y029230D01*
X031830Y029228D01*
X031830Y018228D02*
X028065Y018228D01*
X028065Y017228D02*
X031065Y014228D01*
X031830Y014228D01*
D23*
X032318Y014728D02*
X032430Y014774D01*
X032581Y014925D01*
X032662Y015122D01*
X032662Y015334D01*
X032581Y015531D01*
X032430Y015681D01*
X032293Y015738D01*
X032326Y015749D01*
X032398Y015786D01*
X032464Y015834D01*
X032521Y015891D01*
X032569Y015957D01*
X032606Y016030D01*
X032631Y016107D01*
X032644Y016187D01*
X032644Y016228D01*
X032644Y016269D01*
X032631Y016349D01*
X032606Y016426D01*
X032569Y016499D01*
X032521Y016565D01*
X032464Y016622D01*
X032398Y016670D01*
X032326Y016707D01*
X032248Y016732D01*
X032168Y016745D01*
X031830Y016745D01*
X031493Y016745D01*
X031413Y016732D01*
X031335Y016707D01*
X031263Y016670D01*
X031197Y016622D01*
X031139Y016565D01*
X031091Y016499D01*
X031055Y016426D01*
X031029Y016349D01*
X031017Y016269D01*
X031017Y016228D01*
X031830Y016228D01*
X031830Y016228D01*
X031017Y016228D01*
X031017Y016187D01*
X031029Y016107D01*
X031055Y016030D01*
X031091Y015957D01*
X031139Y015891D01*
X031197Y015834D01*
X031263Y015786D01*
X031335Y015749D01*
X031368Y015738D01*
X031230Y015681D01*
X031080Y015531D01*
X030999Y015334D01*
X030999Y015122D01*
X031080Y014925D01*
X031230Y014774D01*
X031343Y014728D01*
X031230Y014681D01*
X031146Y014597D01*
X028561Y017182D01*
X028561Y017327D01*
X028486Y017509D01*
X028346Y017648D01*
X028164Y017724D01*
X027967Y017724D01*
X027785Y017648D01*
X027645Y017509D01*
X027570Y017327D01*
X027570Y017129D01*
X027645Y016947D01*
X027785Y016808D01*
X027967Y016732D01*
X028111Y016732D01*
X028120Y016724D01*
X027967Y016724D01*
X027785Y016648D01*
X027645Y016509D01*
X027570Y016327D01*
X027570Y016129D01*
X027645Y015947D01*
X027785Y015808D01*
X027967Y015732D01*
X028164Y015732D01*
X028346Y015808D01*
X028486Y015947D01*
X028561Y016129D01*
X028561Y016282D01*
X030796Y014048D01*
X030885Y013958D01*
X031002Y013910D01*
X031095Y013910D01*
X031230Y013774D01*
X031427Y013693D01*
X032234Y013693D01*
X032430Y013774D01*
X032581Y013925D01*
X032662Y014122D01*
X032662Y014334D01*
X032581Y014531D01*
X032430Y014681D01*
X032318Y014728D01*
X032373Y014751D02*
X033342Y014751D01*
X033342Y014989D02*
X032607Y014989D01*
X032662Y015228D02*
X033342Y015228D01*
X033342Y015466D02*
X032608Y015466D01*
X032374Y015705D02*
X033342Y015705D01*
X033342Y015943D02*
X032559Y015943D01*
X032643Y016182D02*
X033342Y016182D01*
X033342Y016420D02*
X032608Y016420D01*
X032644Y016228D02*
X031830Y016228D01*
X031830Y016745D01*
X031830Y016228D01*
X031830Y016228D01*
X031830Y016228D01*
X032644Y016228D01*
X032414Y016659D02*
X033342Y016659D01*
X033342Y016897D02*
X028846Y016897D01*
X029084Y016659D02*
X031247Y016659D01*
X031053Y016420D02*
X029323Y016420D01*
X029561Y016182D02*
X031018Y016182D01*
X031102Y015943D02*
X029800Y015943D01*
X030038Y015705D02*
X031287Y015705D01*
X031053Y015466D02*
X030277Y015466D01*
X030515Y015228D02*
X030999Y015228D01*
X031053Y014989D02*
X030754Y014989D01*
X030992Y014751D02*
X031288Y014751D01*
X030808Y014035D02*
X028708Y014035D01*
X028561Y014182D02*
X028561Y014327D01*
X028486Y014509D01*
X028346Y014648D01*
X028164Y014724D01*
X027967Y014724D01*
X027785Y014648D01*
X027645Y014509D01*
X027570Y014327D01*
X027570Y014129D01*
X027645Y013947D01*
X027785Y013808D01*
X027967Y013732D01*
X028111Y013732D01*
X028120Y013724D01*
X027967Y013724D01*
X027785Y013648D01*
X027645Y013509D01*
X027570Y013327D01*
X027570Y013129D01*
X027645Y012947D01*
X027785Y012808D01*
X027967Y012732D01*
X028111Y012732D01*
X028120Y012724D01*
X027967Y012724D01*
X027785Y012648D01*
X027645Y012509D01*
X027570Y012327D01*
X027570Y012129D01*
X027645Y011947D01*
X027785Y011808D01*
X027967Y011732D01*
X028164Y011732D01*
X028346Y011808D01*
X028486Y011947D01*
X028561Y012129D01*
X028561Y012282D01*
X028700Y012144D01*
X028700Y010483D01*
X028748Y010366D01*
X028838Y010277D01*
X029467Y009648D01*
X029584Y009599D01*
X029592Y009599D01*
X029592Y009563D01*
X029732Y009423D01*
X030559Y009423D01*
X030699Y009563D01*
X030699Y009599D01*
X031077Y009599D01*
X031194Y009648D01*
X031295Y009748D01*
X031368Y009718D01*
X031335Y009707D01*
X031263Y009670D01*
X031197Y009622D01*
X031139Y009565D01*
X031091Y009499D01*
X031055Y009426D01*
X031029Y009349D01*
X031017Y009269D01*
X031017Y009228D01*
X031830Y009228D01*
X031830Y009228D01*
X031017Y009228D01*
X031017Y009187D01*
X031029Y009107D01*
X031055Y009030D01*
X031091Y008957D01*
X031139Y008891D01*
X031197Y008834D01*
X031263Y008786D01*
X031335Y008749D01*
X031413Y008724D01*
X031493Y008711D01*
X031830Y008711D01*
X031830Y009228D01*
X031830Y009228D01*
X031830Y008711D01*
X032168Y008711D01*
X032248Y008724D01*
X032326Y008749D01*
X032398Y008786D01*
X032464Y008834D01*
X032521Y008891D01*
X032569Y008957D01*
X032606Y009030D01*
X032631Y009107D01*
X032644Y009187D01*
X032644Y009228D01*
X032644Y009269D01*
X032631Y009349D01*
X032606Y009426D01*
X032569Y009499D01*
X032521Y009565D01*
X032464Y009622D01*
X032398Y009670D01*
X032326Y009707D01*
X032293Y009718D01*
X032430Y009774D01*
X032581Y009925D01*
X032662Y010122D01*
X032662Y010334D01*
X032581Y010531D01*
X032430Y010681D01*
X032318Y010728D01*
X032430Y010774D01*
X032581Y010925D01*
X032662Y011122D01*
X032662Y011334D01*
X032581Y011531D01*
X032430Y011681D01*
X032318Y011728D01*
X032430Y011774D01*
X032581Y011925D01*
X032662Y012122D01*
X032662Y012334D01*
X032581Y012531D01*
X032430Y012681D01*
X032234Y012763D01*
X031427Y012763D01*
X031230Y012681D01*
X031164Y012615D01*
X030696Y012615D01*
X030696Y012652D01*
X030557Y012791D01*
X029952Y012791D01*
X028561Y014182D01*
X028561Y014274D02*
X030570Y014274D01*
X030331Y014512D02*
X028482Y014512D01*
X028346Y014808D02*
X028486Y014947D01*
X028561Y015129D01*
X028561Y015327D01*
X028486Y015509D01*
X028346Y015648D01*
X028164Y015724D01*
X027967Y015724D01*
X027785Y015648D01*
X027645Y015509D01*
X027570Y015327D01*
X027570Y015129D01*
X027645Y014947D01*
X027785Y014808D01*
X027967Y014732D01*
X028164Y014732D01*
X028346Y014808D01*
X028208Y014751D02*
X030093Y014751D01*
X029854Y014989D02*
X028503Y014989D01*
X028561Y015228D02*
X029616Y015228D01*
X029377Y015466D02*
X028503Y015466D01*
X028209Y015705D02*
X029139Y015705D01*
X028900Y015943D02*
X028482Y015943D01*
X028561Y016182D02*
X028662Y016182D01*
X027921Y015705D02*
X027155Y015705D01*
X027155Y015943D02*
X027649Y015943D01*
X027570Y016182D02*
X027155Y016182D01*
X027155Y016420D02*
X027609Y016420D01*
X027810Y016659D02*
X027155Y016659D01*
X027155Y016897D02*
X027695Y016897D01*
X027570Y017136D02*
X027155Y017136D01*
X027155Y017374D02*
X027590Y017374D01*
X027749Y017613D02*
X027155Y017613D01*
X027155Y017851D02*
X027741Y017851D01*
X027785Y017808D02*
X027967Y017732D01*
X028164Y017732D01*
X028346Y017808D01*
X028448Y017910D01*
X031095Y017910D01*
X031230Y017774D01*
X031427Y017693D01*
X032234Y017693D01*
X032430Y017774D01*
X032581Y017925D01*
X032662Y018122D01*
X032662Y018334D01*
X032581Y018531D01*
X032430Y018681D01*
X032318Y018728D01*
X032430Y018774D01*
X032581Y018925D01*
X032662Y019122D01*
X032662Y019334D01*
X032581Y019531D01*
X032430Y019681D01*
X032293Y019738D01*
X032326Y019749D01*
X032398Y019786D01*
X032464Y019834D01*
X032521Y019891D01*
X032569Y019957D01*
X032606Y020030D01*
X032631Y020107D01*
X032644Y020187D01*
X032644Y020228D01*
X032644Y020269D01*
X032631Y020349D01*
X032606Y020426D01*
X032569Y020499D01*
X032521Y020565D01*
X032464Y020622D01*
X032398Y020670D01*
X032326Y020707D01*
X032248Y020732D01*
X032168Y020745D01*
X031830Y020745D01*
X031493Y020745D01*
X031413Y020732D01*
X031335Y020707D01*
X031263Y020670D01*
X031197Y020622D01*
X031139Y020565D01*
X031091Y020499D01*
X031055Y020426D01*
X031029Y020349D01*
X031017Y020269D01*
X031017Y020228D01*
X031830Y020228D01*
X031830Y020228D01*
X031017Y020228D01*
X031017Y020187D01*
X031029Y020107D01*
X031055Y020030D01*
X031091Y019957D01*
X031139Y019891D01*
X031197Y019834D01*
X031263Y019786D01*
X031335Y019749D01*
X031368Y019738D01*
X031230Y019681D01*
X031080Y019531D01*
X030999Y019334D01*
X030999Y019122D01*
X031080Y018925D01*
X031230Y018774D01*
X031343Y018728D01*
X031230Y018681D01*
X031095Y018546D01*
X028448Y018546D01*
X028346Y018648D01*
X028164Y018724D01*
X028011Y018724D01*
X028020Y018732D01*
X028164Y018732D01*
X028346Y018808D01*
X028486Y018947D01*
X028561Y019129D01*
X028561Y019327D01*
X028486Y019509D01*
X028346Y019648D01*
X028164Y019724D01*
X028011Y019724D01*
X028020Y019732D01*
X028164Y019732D01*
X028346Y019808D01*
X028486Y019947D01*
X028561Y020129D01*
X028561Y020327D01*
X028486Y020509D01*
X028346Y020648D01*
X028164Y020724D01*
X027967Y020724D01*
X027785Y020648D01*
X027645Y020509D01*
X027570Y020327D01*
X027570Y020182D01*
X025720Y018333D01*
X025631Y018243D01*
X025582Y018126D01*
X025582Y007223D01*
X025447Y007088D01*
X025365Y006891D01*
X025365Y006085D01*
X025447Y005888D01*
X025548Y005787D01*
X024116Y005789D01*
X024152Y005824D01*
X024231Y006015D01*
X024231Y006221D01*
X024152Y006411D01*
X024006Y006557D01*
X023816Y006636D01*
X023610Y006636D01*
X023419Y006557D01*
X023274Y006411D01*
X023213Y006265D01*
X023152Y006411D01*
X023006Y006557D01*
X022816Y006636D01*
X022645Y006636D01*
X022554Y006727D01*
X022652Y006824D01*
X022713Y006971D01*
X022774Y006824D01*
X022919Y006679D01*
X023110Y006600D01*
X023316Y006600D01*
X023506Y006679D01*
X023652Y006824D01*
X023725Y007001D01*
X023725Y007001D01*
X023749Y006926D01*
X023785Y006856D01*
X023831Y006792D01*
X023887Y006737D01*
X023951Y006690D01*
X024021Y006655D01*
X024096Y006630D01*
X024173Y006618D01*
X024213Y006618D01*
X024252Y006618D01*
X024330Y006630D01*
X024405Y006655D01*
X024475Y006690D01*
X024539Y006737D01*
X024594Y006792D01*
X024640Y006856D01*
X024676Y006926D01*
X024700Y007001D01*
X024713Y007079D01*
X024713Y007118D01*
X024713Y007157D01*
X024700Y007235D01*
X024676Y007310D01*
X024640Y007380D01*
X024594Y007444D01*
X024539Y007499D01*
X024475Y007546D01*
X024405Y007581D01*
X024330Y007606D01*
X024252Y007618D01*
X024213Y007618D01*
X024213Y007118D01*
X024713Y007118D01*
X024213Y007118D01*
X024213Y007118D01*
X024213Y007118D01*
X024213Y006618D01*
X024213Y007118D01*
X024213Y007118D01*
X024213Y007618D01*
X024173Y007618D01*
X024096Y007606D01*
X024021Y007581D01*
X023951Y007546D01*
X023887Y007499D01*
X023831Y007444D01*
X023785Y007380D01*
X023749Y007310D01*
X023725Y007235D01*
X023652Y007411D01*
X023533Y007530D01*
X023533Y008071D01*
X025437Y009975D01*
X025486Y010092D01*
X025486Y026463D01*
X025437Y026580D01*
X025348Y026669D01*
X024919Y027098D01*
X024802Y027147D01*
X024416Y027147D01*
X024416Y027537D01*
X024277Y027677D01*
X023780Y027677D01*
X023736Y027633D01*
X023742Y027643D01*
X023757Y027699D01*
X023757Y028015D01*
X023289Y028015D01*
X023289Y028031D01*
X023757Y028031D01*
X023757Y028347D01*
X023742Y028403D01*
X023713Y028453D01*
X023672Y028494D01*
X023622Y028523D01*
X023566Y028538D01*
X023554Y028538D01*
X025910Y030893D01*
X031733Y030893D01*
X031882Y030745D01*
X031830Y030745D01*
X031493Y030745D01*
X031413Y030732D01*
X031335Y030707D01*
X031263Y030670D01*
X031197Y030622D01*
X031139Y030565D01*
X031091Y030499D01*
X031055Y030426D01*
X031029Y030349D01*
X031017Y030269D01*
X031017Y030228D01*
X031830Y030228D01*
X031830Y030228D01*
X031017Y030228D01*
X031017Y030187D01*
X031029Y030107D01*
X031055Y030030D01*
X031091Y029957D01*
X031139Y029891D01*
X031197Y029834D01*
X031263Y029786D01*
X031335Y029749D01*
X031368Y029738D01*
X031230Y029681D01*
X031187Y029638D01*
X031022Y029802D01*
X030980Y029846D01*
X030977Y029847D01*
X030975Y029849D01*
X030919Y029872D01*
X030864Y029896D01*
X030861Y029896D01*
X030858Y029898D01*
X030798Y029898D01*
X030605Y029901D01*
X030605Y029947D01*
X030465Y030087D01*
X029638Y030087D01*
X029498Y029947D01*
X029498Y029899D01*
X029414Y029898D01*
X029354Y029898D01*
X029350Y029896D01*
X029347Y029896D01*
X029292Y029872D01*
X029237Y029849D01*
X029234Y029847D01*
X029231Y029845D01*
X029190Y029802D01*
X028561Y029173D01*
X028561Y029327D01*
X028486Y029509D01*
X028346Y029648D01*
X028164Y029724D01*
X027967Y029724D01*
X027785Y029648D01*
X027645Y029509D01*
X027570Y029327D01*
X027570Y029129D01*
X027645Y028947D01*
X027785Y028808D01*
X027967Y028732D01*
X028120Y028732D01*
X028111Y028724D01*
X027967Y028724D01*
X027785Y028648D01*
X027645Y028509D01*
X027570Y028327D01*
X027570Y028129D01*
X027645Y027947D01*
X027785Y027808D01*
X027967Y027732D01*
X028164Y027732D01*
X028346Y027808D01*
X028486Y027947D01*
X028561Y028129D01*
X028561Y028274D01*
X029512Y029225D01*
X029518Y029219D01*
X029498Y029199D01*
X029498Y028490D01*
X029567Y028422D01*
X029452Y028307D01*
X029452Y027597D01*
X029471Y027578D01*
X029452Y027558D01*
X029452Y027522D01*
X028472Y027522D01*
X028346Y027648D01*
X028164Y027724D01*
X027967Y027724D01*
X027785Y027648D01*
X027645Y027509D01*
X027570Y027327D01*
X027570Y027129D01*
X027645Y026947D01*
X027785Y026808D01*
X027967Y026732D01*
X028164Y026732D01*
X028346Y026808D01*
X028424Y026885D01*
X029452Y026886D01*
X029452Y026849D01*
X029591Y026710D01*
X030418Y026710D01*
X030558Y026849D01*
X030558Y026910D01*
X031095Y026910D01*
X031230Y026774D01*
X031427Y026693D01*
X032234Y026693D01*
X032430Y026774D01*
X032581Y026925D01*
X032662Y027122D01*
X032662Y027334D01*
X032581Y027531D01*
X032430Y027681D01*
X032318Y027728D01*
X032430Y027774D01*
X032526Y027870D01*
X032811Y027870D01*
X032943Y027924D01*
X033043Y028025D01*
X033288Y028269D01*
X033342Y028401D01*
X033342Y030220D01*
X033311Y030296D01*
X033343Y030296D01*
X033342Y006809D01*
X032825Y006809D01*
X032397Y006381D01*
X032397Y006510D01*
X031880Y006510D01*
X031880Y006510D01*
X031880Y007324D01*
X031840Y007324D01*
X031759Y007311D01*
X031682Y007286D01*
X031609Y007249D01*
X031544Y007202D01*
X031486Y007144D01*
X031438Y007078D01*
X031401Y007006D01*
X031391Y006973D01*
X031334Y007110D01*
X031183Y007261D01*
X030987Y007342D01*
X030774Y007342D01*
X030577Y007261D01*
X030427Y007110D01*
X030380Y006998D01*
X030334Y007110D01*
X030198Y007246D01*
X030198Y007487D01*
X030150Y007603D01*
X030061Y007693D01*
X027155Y010598D01*
X027155Y017868D01*
X027570Y018282D01*
X027570Y018129D01*
X027645Y017947D01*
X027785Y017808D01*
X027586Y018090D02*
X027377Y018090D01*
X026954Y018567D02*
X026854Y018567D01*
X026716Y018328D02*
X026616Y018328D01*
X026657Y018269D02*
X026567Y018180D01*
X026519Y018063D01*
X026519Y010403D01*
X026567Y010286D01*
X029562Y007291D01*
X029562Y007246D01*
X029427Y007110D01*
X029345Y006914D01*
X029345Y006107D01*
X029427Y005911D01*
X029554Y005783D01*
X028220Y005785D01*
X028237Y005797D01*
X028295Y005854D01*
X028342Y005920D01*
X028379Y005993D01*
X028405Y006070D01*
X028417Y006150D01*
X028417Y006488D01*
X028417Y006825D01*
X028405Y006906D01*
X028379Y006983D01*
X028342Y007056D01*
X028295Y007122D01*
X028237Y007179D01*
X028171Y007227D01*
X028099Y007264D01*
X028021Y007289D01*
X027941Y007302D01*
X027900Y007302D01*
X027860Y007302D01*
X027779Y007289D01*
X027702Y007264D01*
X027629Y007227D01*
X027564Y007179D01*
X027506Y007122D01*
X027458Y007056D01*
X027421Y006983D01*
X027411Y006951D01*
X027354Y007088D01*
X027203Y007238D01*
X027007Y007320D01*
X026794Y007320D01*
X026597Y007238D01*
X026447Y007088D01*
X026400Y006976D01*
X026354Y007088D01*
X026218Y007223D01*
X026218Y017931D01*
X027570Y019282D01*
X027570Y019282D01*
X027570Y019182D01*
X026657Y018269D01*
X026657Y018269D01*
X026530Y018090D02*
X026377Y018090D01*
X026519Y017851D02*
X026218Y017851D01*
X026218Y017613D02*
X026519Y017613D01*
X026519Y017374D02*
X026218Y017374D01*
X026218Y017136D02*
X026519Y017136D01*
X026519Y016897D02*
X026218Y016897D01*
X026218Y016659D02*
X026519Y016659D01*
X026519Y016420D02*
X026218Y016420D01*
X026218Y016182D02*
X026519Y016182D01*
X026519Y015943D02*
X026218Y015943D01*
X026218Y015705D02*
X026519Y015705D01*
X026519Y015466D02*
X026218Y015466D01*
X026218Y015228D02*
X026519Y015228D01*
X026519Y014989D02*
X026218Y014989D01*
X026218Y014751D02*
X026519Y014751D01*
X026519Y014512D02*
X026218Y014512D01*
X026218Y014274D02*
X026519Y014274D01*
X026519Y014035D02*
X026218Y014035D01*
X026218Y013797D02*
X026519Y013797D01*
X026519Y013558D02*
X026218Y013558D01*
X026218Y013320D02*
X026519Y013320D01*
X026519Y013081D02*
X026218Y013081D01*
X026218Y012843D02*
X026519Y012843D01*
X026519Y012604D02*
X026218Y012604D01*
X026218Y012366D02*
X026519Y012366D01*
X026519Y012127D02*
X026218Y012127D01*
X026218Y011889D02*
X026519Y011889D01*
X026519Y011650D02*
X026218Y011650D01*
X026218Y011412D02*
X026519Y011412D01*
X026519Y011173D02*
X026218Y011173D01*
X026218Y010935D02*
X026519Y010935D01*
X026519Y010696D02*
X026218Y010696D01*
X026218Y010458D02*
X026519Y010458D01*
X026634Y010219D02*
X026218Y010219D01*
X026218Y009981D02*
X026873Y009981D01*
X027111Y009742D02*
X026218Y009742D01*
X026218Y009504D02*
X027350Y009504D01*
X027588Y009265D02*
X026218Y009265D01*
X026218Y009027D02*
X027827Y009027D01*
X028065Y008788D02*
X026218Y008788D01*
X026218Y008550D02*
X028304Y008550D01*
X028542Y008311D02*
X026218Y008311D01*
X026218Y008073D02*
X028781Y008073D01*
X029019Y007834D02*
X026218Y007834D01*
X026218Y007596D02*
X029258Y007596D01*
X029496Y007357D02*
X026218Y007357D01*
X026323Y007119D02*
X026478Y007119D01*
X027323Y007119D02*
X027504Y007119D01*
X027900Y007119D02*
X027900Y007119D01*
X027900Y007302D02*
X027900Y006488D01*
X027900Y007302D01*
X027900Y006880D02*
X027900Y006880D01*
X027900Y006642D02*
X027900Y006642D01*
X027900Y006488D02*
X027900Y006488D01*
X028417Y006488D01*
X027900Y006488D01*
X027900Y006488D01*
X028417Y006403D02*
X029345Y006403D01*
X029345Y006165D02*
X028417Y006165D01*
X028346Y005926D02*
X029420Y005926D01*
X029345Y006642D02*
X028417Y006642D01*
X028409Y006880D02*
X029345Y006880D01*
X029435Y007119D02*
X028297Y007119D01*
X029442Y008311D02*
X033342Y008311D01*
X033342Y008073D02*
X029681Y008073D01*
X029919Y007834D02*
X033342Y007834D01*
X033342Y007596D02*
X030153Y007596D01*
X030198Y007357D02*
X033342Y007357D01*
X033342Y007119D02*
X032293Y007119D01*
X032275Y007144D02*
X032217Y007202D01*
X032151Y007249D01*
X032079Y007286D01*
X032001Y007311D01*
X031921Y007324D01*
X031880Y007324D01*
X031880Y006510D01*
X031880Y006510D01*
X032397Y006510D01*
X032397Y006848D01*
X032385Y006928D01*
X032359Y007006D01*
X032322Y007078D01*
X032275Y007144D01*
X032392Y006880D02*
X033342Y006880D01*
X032658Y006642D02*
X032397Y006642D01*
X032397Y006403D02*
X032420Y006403D01*
X031880Y006642D02*
X031880Y006642D01*
X031880Y006880D02*
X031880Y006880D01*
X031880Y007119D02*
X031880Y007119D01*
X031468Y007119D02*
X031325Y007119D01*
X030435Y007119D02*
X030325Y007119D01*
X029204Y008550D02*
X033342Y008550D01*
X033342Y008788D02*
X032401Y008788D01*
X032605Y009027D02*
X033342Y009027D01*
X033342Y009265D02*
X032644Y009265D01*
X032644Y009228D02*
X031830Y009228D01*
X031830Y009228D01*
X032644Y009228D01*
X032566Y009504D02*
X033342Y009504D01*
X033342Y009742D02*
X032353Y009742D01*
X032604Y009981D02*
X033342Y009981D01*
X033342Y010219D02*
X032662Y010219D01*
X032611Y010458D02*
X033342Y010458D01*
X033342Y010696D02*
X032395Y010696D01*
X032585Y010935D02*
X033342Y010935D01*
X033342Y011173D02*
X032662Y011173D01*
X032630Y011412D02*
X033342Y011412D01*
X033342Y011650D02*
X032461Y011650D01*
X032545Y011889D02*
X033342Y011889D01*
X033342Y012127D02*
X032662Y012127D01*
X032649Y012366D02*
X033342Y012366D01*
X033342Y012604D02*
X032507Y012604D01*
X033342Y012843D02*
X029900Y012843D01*
X029662Y013081D02*
X033342Y013081D01*
X033342Y013320D02*
X029423Y013320D01*
X029185Y013558D02*
X033342Y013558D01*
X033342Y013797D02*
X032453Y013797D01*
X032626Y014035D02*
X033342Y014035D01*
X033342Y014274D02*
X032662Y014274D01*
X032589Y014512D02*
X033342Y014512D01*
X031830Y016420D02*
X031830Y016420D01*
X031830Y016659D02*
X031830Y016659D01*
X031154Y017851D02*
X028390Y017851D01*
X028381Y017613D02*
X033343Y017613D01*
X033343Y017851D02*
X032507Y017851D01*
X032649Y018090D02*
X033343Y018090D01*
X033343Y018328D02*
X032662Y018328D01*
X032545Y018567D02*
X033343Y018567D01*
X033343Y018805D02*
X032461Y018805D01*
X032630Y019044D02*
X033343Y019044D01*
X033343Y019282D02*
X032662Y019282D01*
X032585Y019521D02*
X033343Y019521D01*
X033343Y019759D02*
X032346Y019759D01*
X032590Y019998D02*
X033343Y019998D01*
X033343Y020236D02*
X032644Y020236D01*
X032644Y020228D02*
X031830Y020228D01*
X031830Y020745D01*
X031830Y020228D01*
X031830Y020228D01*
X031830Y020228D01*
X032644Y020228D01*
X032582Y020475D02*
X033343Y020475D01*
X033343Y020713D02*
X032306Y020713D01*
X031830Y020713D02*
X031830Y020713D01*
X031830Y020475D02*
X031830Y020475D01*
X031830Y020236D02*
X031830Y020236D01*
X031355Y020713D02*
X028189Y020713D01*
X028164Y020732D02*
X028346Y020808D01*
X028486Y020947D01*
X028561Y021129D01*
X028561Y021327D01*
X028486Y021509D01*
X028346Y021648D01*
X028164Y021724D01*
X027967Y021724D01*
X027785Y021648D01*
X027645Y021509D01*
X027570Y021327D01*
X027570Y021129D01*
X027645Y020947D01*
X027785Y020808D01*
X027967Y020732D01*
X028164Y020732D01*
X027942Y020713D02*
X025486Y020713D01*
X025486Y020475D02*
X027631Y020475D01*
X027570Y020236D02*
X025486Y020236D01*
X025486Y019998D02*
X027385Y019998D01*
X027147Y019759D02*
X025486Y019759D01*
X025486Y019521D02*
X026908Y019521D01*
X026670Y019282D02*
X025486Y019282D01*
X025486Y019044D02*
X026431Y019044D01*
X026193Y018805D02*
X025486Y018805D01*
X025486Y018567D02*
X025954Y018567D01*
X025716Y018328D02*
X025486Y018328D01*
X025486Y018090D02*
X025582Y018090D01*
X025582Y017851D02*
X025486Y017851D01*
X025486Y017613D02*
X025582Y017613D01*
X025582Y017374D02*
X025486Y017374D01*
X025486Y017136D02*
X025582Y017136D01*
X025582Y016897D02*
X025486Y016897D01*
X025486Y016659D02*
X025582Y016659D01*
X025582Y016420D02*
X025486Y016420D01*
X025486Y016182D02*
X025582Y016182D01*
X025582Y015943D02*
X025486Y015943D01*
X025486Y015705D02*
X025582Y015705D01*
X025582Y015466D02*
X025486Y015466D01*
X025486Y015228D02*
X025582Y015228D01*
X025582Y014989D02*
X025486Y014989D01*
X025486Y014751D02*
X025582Y014751D01*
X025582Y014512D02*
X025486Y014512D01*
X025486Y014274D02*
X025582Y014274D01*
X025582Y014035D02*
X025486Y014035D01*
X025486Y013797D02*
X025582Y013797D01*
X025582Y013558D02*
X025486Y013558D01*
X025486Y013320D02*
X025582Y013320D01*
X025582Y013081D02*
X025486Y013081D01*
X025486Y012843D02*
X025582Y012843D01*
X025582Y012604D02*
X025486Y012604D01*
X025486Y012366D02*
X025582Y012366D01*
X025582Y012127D02*
X025486Y012127D01*
X025486Y011889D02*
X025582Y011889D01*
X025582Y011650D02*
X025486Y011650D01*
X025486Y011412D02*
X025582Y011412D01*
X025582Y011173D02*
X025486Y011173D01*
X025486Y010935D02*
X025582Y010935D01*
X025582Y010696D02*
X025486Y010696D01*
X025486Y010458D02*
X025582Y010458D01*
X025582Y010219D02*
X025486Y010219D01*
X025440Y009981D02*
X025582Y009981D01*
X025582Y009742D02*
X025205Y009742D01*
X024966Y009504D02*
X025582Y009504D01*
X025582Y009265D02*
X024728Y009265D01*
X024489Y009027D02*
X025582Y009027D01*
X025582Y008788D02*
X024251Y008788D01*
X024012Y008550D02*
X025582Y008550D01*
X025582Y008311D02*
X023774Y008311D01*
X023535Y008073D02*
X025582Y008073D01*
X025582Y007834D02*
X023533Y007834D01*
X023533Y007596D02*
X024065Y007596D01*
X024213Y007596D02*
X024213Y007596D01*
X024360Y007596D02*
X025582Y007596D01*
X025582Y007357D02*
X024652Y007357D01*
X024713Y007119D02*
X025478Y007119D01*
X025365Y006880D02*
X024653Y006880D01*
X024365Y006642D02*
X025365Y006642D01*
X025365Y006403D02*
X024155Y006403D01*
X024213Y006642D02*
X024213Y006642D01*
X024060Y006642D02*
X023417Y006642D01*
X023270Y006403D02*
X023155Y006403D01*
X023009Y006642D02*
X022639Y006642D01*
X022675Y006880D02*
X022750Y006880D01*
X022713Y007265D02*
X022652Y007411D01*
X022506Y007557D01*
X022504Y007558D01*
X022504Y008685D01*
X023429Y009610D01*
X023478Y009727D01*
X023478Y015878D01*
X023599Y016000D01*
X023660Y016146D01*
X023720Y016000D01*
X023866Y015854D01*
X024057Y015775D01*
X024263Y015775D01*
X024453Y015854D01*
X024599Y016000D01*
X024678Y016190D01*
X024678Y016956D01*
X024599Y017146D01*
X024477Y017268D01*
X024477Y017517D01*
X024572Y017517D01*
X024712Y017656D01*
X024712Y018365D01*
X024692Y018385D01*
X024712Y018404D01*
X024712Y018441D01*
X024850Y018441D01*
X024850Y010287D01*
X023035Y008472D01*
X022945Y008383D01*
X022897Y008266D01*
X022897Y007535D01*
X022774Y007411D01*
X022713Y007265D01*
X022674Y007357D02*
X022751Y007357D01*
X022897Y007596D02*
X022504Y007596D01*
X022504Y007834D02*
X022897Y007834D01*
X022897Y008073D02*
X022504Y008073D01*
X022504Y008311D02*
X022916Y008311D01*
X023113Y008550D02*
X022504Y008550D01*
X022607Y008788D02*
X023351Y008788D01*
X023590Y009027D02*
X022846Y009027D01*
X023084Y009265D02*
X023828Y009265D01*
X024067Y009504D02*
X023323Y009504D01*
X023478Y009742D02*
X024305Y009742D01*
X024544Y009981D02*
X023478Y009981D01*
X023478Y010219D02*
X024782Y010219D01*
X024850Y010458D02*
X023478Y010458D01*
X023478Y010696D02*
X024850Y010696D01*
X024850Y010935D02*
X023478Y010935D01*
X023478Y011173D02*
X024850Y011173D01*
X024850Y011412D02*
X023478Y011412D01*
X023478Y011650D02*
X024850Y011650D01*
X024850Y011889D02*
X023478Y011889D01*
X023478Y012127D02*
X024850Y012127D01*
X024850Y012366D02*
X023478Y012366D01*
X023478Y012604D02*
X024850Y012604D01*
X024850Y012843D02*
X023478Y012843D01*
X023478Y013081D02*
X024850Y013081D01*
X024850Y013320D02*
X023478Y013320D01*
X023478Y013558D02*
X024850Y013558D01*
X024850Y013797D02*
X023478Y013797D01*
X023478Y014035D02*
X024850Y014035D01*
X024850Y014274D02*
X023478Y014274D01*
X023478Y014512D02*
X024850Y014512D01*
X024850Y014751D02*
X023478Y014751D01*
X023478Y014989D02*
X024850Y014989D01*
X024850Y015228D02*
X023478Y015228D01*
X023478Y015466D02*
X024850Y015466D01*
X024850Y015705D02*
X023478Y015705D01*
X023543Y015943D02*
X023777Y015943D01*
X024543Y015943D02*
X024850Y015943D01*
X024850Y016182D02*
X024674Y016182D01*
X024678Y016420D02*
X024850Y016420D01*
X024850Y016659D02*
X024678Y016659D01*
X024678Y016897D02*
X024850Y016897D01*
X024850Y017136D02*
X024603Y017136D01*
X024477Y017374D02*
X024850Y017374D01*
X024850Y017613D02*
X024669Y017613D01*
X024712Y017851D02*
X024850Y017851D01*
X024850Y018090D02*
X024712Y018090D01*
X024712Y018328D02*
X024850Y018328D01*
X024850Y019077D02*
X024712Y019077D01*
X024712Y019113D01*
X024572Y019253D01*
X023745Y019253D01*
X023606Y019113D01*
X023606Y018404D01*
X023625Y018385D01*
X023606Y018365D01*
X023606Y017656D01*
X023745Y017517D01*
X023841Y017517D01*
X023841Y017267D01*
X023720Y017146D01*
X023660Y017000D01*
X023599Y017146D01*
X023473Y017272D01*
X023463Y018636D01*
X023463Y025730D01*
X023640Y025907D01*
X023640Y025620D01*
X023672Y025588D01*
X023672Y025587D01*
X023617Y025587D01*
X023477Y025448D01*
X023477Y024739D01*
X023518Y024699D01*
X023510Y024686D01*
X023495Y024630D01*
X023495Y024353D01*
X024022Y024353D01*
X024022Y024337D01*
X023495Y024337D01*
X023495Y024060D01*
X023510Y024004D01*
X023539Y023954D01*
X023580Y023913D01*
X023631Y023884D01*
X023686Y023869D01*
X024022Y023869D01*
X024022Y024337D01*
X024038Y024337D01*
X024038Y023869D01*
X024374Y023869D01*
X024430Y023884D01*
X024480Y023913D01*
X024521Y023954D01*
X024550Y024004D01*
X024565Y024060D01*
X024565Y024337D01*
X024038Y024337D01*
X024038Y024353D01*
X024565Y024353D01*
X024565Y024630D01*
X024550Y024686D01*
X024543Y024699D01*
X024583Y024739D01*
X024583Y025448D01*
X024444Y025587D01*
X024389Y025587D01*
X024389Y025592D01*
X024416Y025620D01*
X024416Y026037D01*
X024375Y026079D01*
X024416Y026120D01*
X024416Y026511D01*
X024607Y026511D01*
X024850Y026268D01*
X024850Y019077D01*
X024850Y019282D02*
X023463Y019282D01*
X023463Y019044D02*
X023606Y019044D01*
X023606Y018805D02*
X023463Y018805D01*
X023464Y018567D02*
X023606Y018567D01*
X023606Y018328D02*
X023466Y018328D01*
X023467Y018090D02*
X023606Y018090D01*
X023606Y017851D02*
X023469Y017851D01*
X023471Y017613D02*
X023649Y017613D01*
X023472Y017374D02*
X023841Y017374D01*
X023716Y017136D02*
X023603Y017136D01*
X022837Y017263D02*
X022720Y017146D01*
X022660Y017000D01*
X022599Y017146D01*
X022453Y017292D01*
X022263Y017371D01*
X022057Y017371D01*
X021866Y017292D01*
X021720Y017146D01*
X021641Y016956D01*
X021641Y016190D01*
X021720Y016000D01*
X021866Y015854D01*
X022057Y015775D01*
X022263Y015775D01*
X022453Y015854D01*
X022599Y016000D01*
X022660Y016146D01*
X022720Y016000D01*
X022841Y015878D01*
X022841Y009922D01*
X022006Y009087D01*
X021917Y008997D01*
X021868Y008880D01*
X021868Y007506D01*
X021774Y007411D01*
X021713Y007265D01*
X021652Y007411D01*
X021506Y007557D01*
X021316Y007636D01*
X021110Y007636D01*
X020919Y007557D01*
X020776Y007413D01*
X020766Y007436D01*
X020537Y007665D01*
X020237Y007790D01*
X019913Y007790D01*
X019613Y007665D01*
X019384Y007436D01*
X019260Y007136D01*
X019260Y006812D01*
X019384Y006512D01*
X019613Y006283D01*
X019913Y006159D01*
X020213Y006159D01*
X020213Y006157D01*
X020213Y006118D01*
X020713Y006118D01*
X020713Y006118D01*
X020213Y006118D01*
X020213Y006079D01*
X020225Y006001D01*
X020249Y005926D01*
X020285Y005856D01*
X020331Y005792D01*
X018353Y005794D01*
X018355Y005796D01*
X018434Y005987D01*
X018434Y006193D01*
X018355Y006383D01*
X018209Y006529D01*
X018019Y006608D01*
X017813Y006608D01*
X017622Y006529D01*
X017477Y006383D01*
X017416Y006237D01*
X017355Y006383D01*
X017209Y006529D01*
X017019Y006608D01*
X016813Y006608D01*
X016622Y006529D01*
X016477Y006383D01*
X016416Y006237D01*
X016355Y006383D01*
X016209Y006529D01*
X016020Y006608D01*
X016070Y006728D01*
X016090Y006709D01*
X016154Y006662D01*
X016224Y006627D01*
X016299Y006602D01*
X016376Y006590D01*
X016416Y006590D01*
X016455Y006590D01*
X016533Y006602D01*
X016608Y006627D01*
X016678Y006662D01*
X016742Y006709D01*
X016797Y006764D01*
X016843Y006828D01*
X016879Y006898D01*
X016904Y006973D01*
X016977Y006796D01*
X017122Y006651D01*
X017313Y006572D01*
X017519Y006572D01*
X017709Y006651D01*
X017855Y006796D01*
X017916Y006943D01*
X017977Y006796D01*
X018122Y006651D01*
X018313Y006572D01*
X018519Y006572D01*
X018709Y006651D01*
X018855Y006796D01*
X018934Y006987D01*
X018934Y007193D01*
X018855Y007383D01*
X018709Y007529D01*
X018519Y007608D01*
X018313Y007608D01*
X018122Y007529D01*
X017977Y007383D01*
X017916Y007237D01*
X017855Y007383D01*
X017709Y007529D01*
X017519Y007608D01*
X017313Y007608D01*
X017122Y007529D01*
X016977Y007383D01*
X016904Y007207D01*
X016904Y007207D01*
X016879Y007282D01*
X016843Y007352D01*
X016797Y007416D01*
X016742Y007471D01*
X016678Y007518D01*
X016608Y007553D01*
X016533Y007578D01*
X016455Y007590D01*
X016416Y007590D01*
X016416Y007090D01*
X016416Y007090D01*
X016416Y006590D01*
X016416Y007090D01*
X016416Y007090D01*
X016416Y007590D01*
X016376Y007590D01*
X016299Y007578D01*
X016224Y007553D01*
X016154Y007518D01*
X016090Y007471D01*
X016034Y007416D01*
X015991Y007356D01*
X015969Y007408D01*
X015740Y007637D01*
X015440Y007762D01*
X015116Y007762D01*
X014816Y007637D01*
X014587Y007408D01*
X014463Y007108D01*
X014463Y007018D01*
X014252Y007018D01*
X014252Y007162D01*
X014173Y007352D01*
X014028Y007498D01*
X013837Y007577D01*
X013631Y007577D01*
X013441Y007498D01*
X013295Y007352D01*
X013234Y007205D01*
X013173Y007352D01*
X013028Y007498D01*
X012837Y007577D01*
X012631Y007577D01*
X012441Y007498D01*
X012295Y007352D01*
X012222Y007176D01*
X012197Y007251D01*
X012162Y007321D01*
X012115Y007384D01*
X012060Y007440D01*
X011996Y007486D01*
X011926Y007522D01*
X011851Y007546D01*
X011773Y007559D01*
X011734Y007559D01*
X011695Y007559D01*
X011617Y007546D01*
X011542Y007522D01*
X011472Y007486D01*
X011408Y007440D01*
X011353Y007384D01*
X011306Y007321D01*
X011271Y007251D01*
X011246Y007176D01*
X011234Y007098D01*
X011234Y007059D01*
X011734Y007059D01*
X011734Y007559D01*
X011734Y007059D01*
X011734Y007059D01*
X011734Y007059D01*
X011234Y007059D01*
X011234Y007019D01*
X011246Y006942D01*
X011271Y006867D01*
X011306Y006797D01*
X011353Y006733D01*
X011408Y006677D01*
X011472Y006631D01*
X011542Y006595D01*
X011617Y006571D01*
X011695Y006559D01*
X011734Y006559D01*
X011734Y007059D01*
X011734Y007059D01*
X011734Y006559D01*
X011773Y006559D01*
X011851Y006571D01*
X011926Y006595D01*
X011996Y006631D01*
X012060Y006677D01*
X012115Y006733D01*
X012162Y006797D01*
X012197Y006867D01*
X012222Y006942D01*
X012295Y006765D01*
X012441Y006619D01*
X012631Y006541D01*
X012837Y006541D01*
X013028Y006619D01*
X013173Y006765D01*
X013234Y006912D01*
X013295Y006765D01*
X013441Y006619D01*
X013630Y006541D01*
X013587Y006438D01*
X013528Y006498D01*
X013337Y006577D01*
X013131Y006577D01*
X012941Y006498D01*
X012795Y006352D01*
X012734Y006205D01*
X012673Y006352D01*
X012528Y006498D01*
X012337Y006577D01*
X012131Y006577D01*
X011941Y006498D01*
X011795Y006352D01*
X011734Y006205D01*
X011673Y006352D01*
X011528Y006498D01*
X011337Y006577D01*
X011131Y006577D01*
X010941Y006498D01*
X010795Y006352D01*
X010716Y006162D01*
X010716Y005956D01*
X010780Y005802D01*
X008692Y005804D01*
X008692Y006321D01*
X008181Y006832D01*
X007666Y006832D01*
X007658Y020804D01*
X007952Y020804D01*
X008257Y020930D01*
X008490Y021163D01*
X008616Y021467D01*
X008616Y021797D01*
X008490Y022102D01*
X008257Y022335D01*
X007952Y022461D01*
X007657Y022461D01*
X007652Y030293D01*
X008165Y030293D01*
X008676Y030804D01*
X008676Y031338D01*
X014341Y031336D01*
X014321Y031328D01*
X014091Y031099D01*
X013967Y030799D01*
X013967Y030475D01*
X014091Y030175D01*
X014321Y029946D01*
X014620Y029821D01*
X014921Y029821D01*
X014920Y029820D01*
X014920Y029780D01*
X014920Y029741D01*
X014933Y029663D01*
X014957Y029589D01*
X014993Y029518D01*
X015039Y029455D01*
X015095Y029399D01*
X015100Y029395D01*
X014690Y029395D01*
X013466Y030619D01*
X013335Y030673D01*
X011335Y030673D01*
X011324Y030685D01*
X011133Y030764D01*
X010927Y030764D01*
X010737Y030685D01*
X010591Y030539D01*
X010512Y030349D01*
X010512Y030142D01*
X010591Y029952D01*
X010737Y029806D01*
X010884Y029745D01*
X010737Y029685D01*
X010591Y029539D01*
X010512Y029349D01*
X010512Y029142D01*
X010591Y028952D01*
X010737Y028806D01*
X010884Y028745D01*
X010737Y028685D01*
X010591Y028539D01*
X010512Y028349D01*
X010512Y028142D01*
X010591Y027952D01*
X010737Y027806D01*
X010884Y027745D01*
X010737Y027685D01*
X010591Y027539D01*
X010512Y027349D01*
X010512Y027142D01*
X010591Y026952D01*
X010737Y026806D01*
X010884Y026745D01*
X010737Y026685D01*
X010591Y026539D01*
X010512Y026349D01*
X010512Y026142D01*
X010591Y025952D01*
X010735Y025808D01*
X010712Y025799D01*
X010483Y025569D01*
X010359Y025270D01*
X010359Y024945D01*
X010483Y024646D01*
X010712Y024416D01*
X011012Y024292D01*
X011336Y024292D01*
X011636Y024416D01*
X011865Y024646D01*
X011989Y024945D01*
X011989Y025227D01*
X012099Y025227D01*
X015278Y022048D01*
X015278Y022048D01*
X015368Y021958D01*
X015485Y021910D01*
X018683Y021910D01*
X018785Y021808D01*
X018967Y021732D01*
X019164Y021732D01*
X019346Y021808D01*
X019486Y021947D01*
X019561Y022129D01*
X019561Y022327D01*
X019486Y022509D01*
X019346Y022648D01*
X019164Y022724D01*
X018967Y022724D01*
X018785Y022648D01*
X018683Y022546D01*
X015680Y022546D01*
X012548Y025677D01*
X012548Y025777D01*
X015278Y023048D01*
X015278Y023048D01*
X015368Y022958D01*
X015485Y022910D01*
X018683Y022910D01*
X018785Y022808D01*
X018967Y022732D01*
X019164Y022732D01*
X019346Y022808D01*
X019486Y022947D01*
X019561Y023129D01*
X019561Y023327D01*
X019486Y023509D01*
X019346Y023648D01*
X019164Y023724D01*
X018967Y023724D01*
X018785Y023648D01*
X018683Y023546D01*
X015680Y023546D01*
X012548Y026677D01*
X012548Y026777D01*
X015278Y024048D01*
X015368Y023958D01*
X015485Y023910D01*
X018683Y023910D01*
X018785Y023808D01*
X018967Y023732D01*
X019164Y023732D01*
X019346Y023808D01*
X019486Y023947D01*
X019561Y024129D01*
X019561Y024327D01*
X019486Y024509D01*
X019346Y024648D01*
X019164Y024724D01*
X018967Y024724D01*
X018785Y024648D01*
X018683Y024546D01*
X015680Y024546D01*
X012548Y027677D01*
X012548Y027777D01*
X015278Y025048D01*
X015368Y024958D01*
X015485Y024910D01*
X018683Y024910D01*
X018785Y024808D01*
X018967Y024732D01*
X019164Y024732D01*
X019346Y024808D01*
X019486Y024947D01*
X019561Y025129D01*
X019561Y025327D01*
X019486Y025509D01*
X019484Y025511D01*
X021795Y025511D01*
X021825Y025481D01*
X022322Y025481D01*
X022461Y025620D01*
X022461Y026037D01*
X022405Y026094D01*
X022428Y026134D01*
X022443Y026190D01*
X022443Y026329D01*
X022443Y026468D01*
X022428Y026524D01*
X022425Y026529D01*
X022496Y026559D01*
X022586Y026648D01*
X022802Y026865D01*
X022851Y026982D01*
X022851Y027490D01*
X022887Y027490D01*
X022928Y027530D01*
X022940Y027523D01*
X022996Y027508D01*
X023273Y027508D01*
X023273Y028015D01*
X023289Y028015D01*
X023289Y027508D01*
X023566Y027508D01*
X023622Y027523D01*
X023640Y027533D01*
X023640Y027120D01*
X023681Y027079D01*
X023640Y027037D01*
X023640Y026647D01*
X023549Y026647D01*
X023432Y026598D01*
X022965Y026131D01*
X022876Y026042D01*
X022827Y025925D01*
X022827Y018697D01*
X022827Y018696D01*
X022827Y018634D01*
X022827Y018572D01*
X022828Y018571D01*
X022837Y017263D01*
X022836Y017374D02*
X019541Y017374D01*
X019561Y017327D02*
X019486Y017509D01*
X019346Y017648D01*
X019164Y017724D01*
X018967Y017724D01*
X018785Y017648D01*
X018645Y017509D01*
X018570Y017327D01*
X018570Y017129D01*
X018645Y016947D01*
X018785Y016808D01*
X018967Y016732D01*
X019164Y016732D01*
X019346Y016808D01*
X019486Y016947D01*
X019561Y017129D01*
X019561Y017327D01*
X019561Y017136D02*
X021716Y017136D01*
X021641Y016897D02*
X019436Y016897D01*
X019346Y016648D02*
X019164Y016724D01*
X018967Y016724D01*
X018785Y016648D01*
X018645Y016509D01*
X018570Y016327D01*
X018570Y016129D01*
X018645Y015947D01*
X018785Y015808D01*
X018967Y015732D01*
X019164Y015732D01*
X019346Y015808D01*
X019486Y015947D01*
X019561Y016129D01*
X019561Y016327D01*
X019486Y016509D01*
X019346Y016648D01*
X019320Y016659D02*
X021641Y016659D01*
X021641Y016420D02*
X019522Y016420D01*
X019561Y016182D02*
X021645Y016182D01*
X021777Y015943D02*
X019482Y015943D01*
X019346Y015648D02*
X019164Y015724D01*
X018967Y015724D01*
X018785Y015648D01*
X018645Y015509D01*
X018570Y015327D01*
X018570Y015129D01*
X018645Y014947D01*
X018785Y014808D01*
X018967Y014732D01*
X019164Y014732D01*
X019346Y014808D01*
X019486Y014947D01*
X019561Y015129D01*
X019561Y015327D01*
X019486Y015509D01*
X019346Y015648D01*
X019209Y015705D02*
X022841Y015705D01*
X022841Y015466D02*
X019503Y015466D01*
X019561Y015228D02*
X022841Y015228D01*
X022841Y014989D02*
X019503Y014989D01*
X019346Y014648D02*
X019164Y014724D01*
X018967Y014724D01*
X018785Y014648D01*
X018645Y014509D01*
X018570Y014327D01*
X018570Y014129D01*
X018645Y013947D01*
X018785Y013808D01*
X018967Y013732D01*
X019164Y013732D01*
X019346Y013808D01*
X019486Y013947D01*
X019561Y014129D01*
X019561Y014327D01*
X019486Y014509D01*
X019346Y014648D01*
X019208Y014751D02*
X022841Y014751D01*
X022841Y014512D02*
X019482Y014512D01*
X019561Y014274D02*
X022841Y014274D01*
X022841Y014035D02*
X019522Y014035D01*
X019319Y013797D02*
X022841Y013797D01*
X022841Y013558D02*
X019436Y013558D01*
X019486Y013509D02*
X019346Y013648D01*
X019164Y013724D01*
X018967Y013724D01*
X018785Y013648D01*
X018645Y013509D01*
X018570Y013327D01*
X018570Y013129D01*
X018645Y012947D01*
X018785Y012808D01*
X018967Y012732D01*
X019164Y012732D01*
X019346Y012808D01*
X019486Y012947D01*
X019561Y013129D01*
X019561Y013327D01*
X019486Y013509D01*
X019561Y013320D02*
X022841Y013320D01*
X022841Y013081D02*
X019541Y013081D01*
X019381Y012843D02*
X022841Y012843D01*
X022841Y012604D02*
X019390Y012604D01*
X019346Y012648D02*
X019164Y012724D01*
X018967Y012724D01*
X018785Y012648D01*
X018645Y012509D01*
X018570Y012327D01*
X018570Y012129D01*
X018645Y011947D01*
X018785Y011808D01*
X018967Y011732D01*
X019164Y011732D01*
X019346Y011808D01*
X019486Y011947D01*
X019561Y012129D01*
X019561Y012327D01*
X019486Y012509D01*
X019346Y012648D01*
X019545Y012366D02*
X022841Y012366D01*
X022841Y012127D02*
X019560Y012127D01*
X019427Y011889D02*
X022841Y011889D01*
X022841Y011650D02*
X019341Y011650D01*
X019346Y011648D02*
X019164Y011724D01*
X018967Y011724D01*
X018785Y011648D01*
X018645Y011509D01*
X018570Y011327D01*
X018570Y011129D01*
X018645Y010947D01*
X018785Y010808D01*
X018967Y010732D01*
X019164Y010732D01*
X019346Y010808D01*
X019486Y010947D01*
X019561Y011129D01*
X019561Y011327D01*
X019486Y011509D01*
X019346Y011648D01*
X019526Y011412D02*
X022841Y011412D01*
X022841Y011173D02*
X019561Y011173D01*
X019473Y010935D02*
X022841Y010935D01*
X022841Y010696D02*
X009650Y010696D01*
X009693Y010740D02*
X009788Y010968D01*
X009788Y011216D01*
X009693Y011444D01*
X009518Y011619D01*
X009290Y011714D01*
X008274Y011714D01*
X008046Y011619D01*
X007871Y011444D01*
X007776Y011216D01*
X007776Y010968D01*
X007871Y010740D01*
X008046Y010565D01*
X008274Y010470D01*
X009290Y010470D01*
X009518Y010565D01*
X009693Y010740D01*
X009774Y010935D02*
X018658Y010935D01*
X018570Y011173D02*
X009788Y011173D01*
X009707Y011412D02*
X018605Y011412D01*
X018790Y011650D02*
X009443Y011650D01*
X009307Y012503D02*
X009213Y012488D01*
X008790Y012488D01*
X008790Y013084D01*
X008790Y013100D01*
X008774Y013100D01*
X008774Y013696D01*
X008351Y013696D01*
X008257Y013681D01*
X008166Y013652D01*
X008082Y013608D01*
X008005Y013552D01*
X007938Y013485D01*
X007882Y013408D01*
X007839Y013324D01*
X007809Y013233D01*
X007794Y013139D01*
X007794Y013100D01*
X008774Y013100D01*
X008774Y013084D01*
X007794Y013084D01*
X007794Y013044D01*
X007809Y012950D01*
X007839Y012860D01*
X007882Y012775D01*
X007938Y012699D01*
X008005Y012631D01*
X008082Y012575D01*
X008166Y012532D01*
X008257Y012503D01*
X008351Y012488D01*
X008774Y012488D01*
X008774Y013084D01*
X008790Y013084D01*
X009770Y013084D01*
X009770Y013044D01*
X009755Y012950D01*
X009726Y012860D01*
X009682Y012775D01*
X009626Y012699D01*
X009559Y012631D01*
X009482Y012575D01*
X009398Y012532D01*
X009307Y012503D01*
X009522Y012604D02*
X011466Y012604D01*
X011456Y012608D02*
X011538Y012581D01*
X011624Y012567D01*
X011667Y012567D01*
X011710Y012567D01*
X011796Y012581D01*
X011878Y012608D01*
X011955Y012647D01*
X012025Y012698D01*
X012086Y012759D01*
X012137Y012829D01*
X012177Y012906D01*
X012203Y012989D01*
X012217Y013074D01*
X012217Y013117D01*
X011667Y013117D01*
X011667Y012567D01*
X011667Y013117D01*
X011667Y013117D01*
X011667Y013117D01*
X011117Y013117D01*
X011117Y013074D01*
X011130Y012989D01*
X011157Y012906D01*
X011196Y012829D01*
X011247Y012759D01*
X011309Y012698D01*
X011379Y012647D01*
X011456Y012608D01*
X011667Y012604D02*
X011667Y012604D01*
X011868Y012604D02*
X013921Y012604D01*
X013845Y012636D02*
X014054Y012549D01*
X014280Y012549D01*
X014489Y012636D01*
X014648Y012796D01*
X014735Y013004D01*
X014735Y013230D01*
X014648Y013439D01*
X014489Y013599D01*
X014280Y013685D01*
X014054Y013685D01*
X013845Y013599D01*
X013685Y013439D01*
X013599Y013230D01*
X013599Y013004D01*
X013685Y012796D01*
X013845Y012636D01*
X013666Y012843D02*
X012144Y012843D01*
X012217Y013081D02*
X013599Y013081D01*
X013636Y013320D02*
X012179Y013320D01*
X012177Y013328D02*
X012137Y013406D01*
X012086Y013476D01*
X012025Y013537D01*
X011955Y013588D01*
X011878Y013627D01*
X011796Y013654D01*
X011710Y013667D01*
X011667Y013667D01*
X011667Y013117D01*
X011667Y013117D01*
X012217Y013117D01*
X012217Y013161D01*
X012203Y013246D01*
X012177Y013328D01*
X011996Y013558D02*
X013804Y013558D01*
X014529Y013558D02*
X015056Y013558D01*
X015097Y013599D02*
X014937Y013439D01*
X014851Y013230D01*
X014851Y013004D01*
X014937Y012796D01*
X015097Y012636D01*
X015306Y012549D01*
X015532Y012549D01*
X015741Y012636D01*
X015900Y012796D01*
X015987Y013004D01*
X015987Y013230D01*
X015900Y013439D01*
X015741Y013599D01*
X015532Y013685D01*
X015306Y013685D01*
X015097Y013599D01*
X014888Y013320D02*
X014698Y013320D01*
X014735Y013081D02*
X014851Y013081D01*
X014918Y012843D02*
X014668Y012843D01*
X014413Y012604D02*
X015173Y012604D01*
X015665Y012604D02*
X018741Y012604D01*
X018750Y012843D02*
X015920Y012843D01*
X015987Y013081D02*
X018590Y013081D01*
X018570Y013320D02*
X015950Y013320D01*
X015781Y013558D02*
X018695Y013558D01*
X018811Y013797D02*
X007662Y013797D01*
X007662Y014035D02*
X018609Y014035D01*
X018570Y014274D02*
X007662Y014274D01*
X007661Y014512D02*
X018649Y014512D01*
X018922Y014751D02*
X007661Y014751D01*
X007661Y014989D02*
X018628Y014989D01*
X018570Y015228D02*
X007661Y015228D01*
X007661Y015466D02*
X018628Y015466D01*
X018921Y015705D02*
X007661Y015705D01*
X007661Y015943D02*
X018649Y015943D01*
X018570Y016182D02*
X007660Y016182D01*
X007660Y016420D02*
X018609Y016420D01*
X018810Y016659D02*
X007660Y016659D01*
X007660Y016897D02*
X018695Y016897D01*
X018570Y017136D02*
X007660Y017136D01*
X007660Y017374D02*
X018590Y017374D01*
X018749Y017613D02*
X007660Y017613D01*
X007659Y017851D02*
X018741Y017851D01*
X018785Y017808D02*
X018967Y017732D01*
X019164Y017732D01*
X019346Y017808D01*
X019486Y017947D01*
X019561Y018129D01*
X019561Y018327D01*
X019486Y018509D01*
X019346Y018648D01*
X019164Y018724D01*
X018967Y018724D01*
X018785Y018648D01*
X018645Y018509D01*
X018570Y018327D01*
X018570Y018129D01*
X018645Y017947D01*
X018785Y017808D01*
X018586Y018090D02*
X007659Y018090D01*
X007659Y018328D02*
X018571Y018328D01*
X018703Y018567D02*
X007659Y018567D01*
X007659Y018805D02*
X011544Y018805D01*
X011554Y018801D02*
X011780Y018801D01*
X011989Y018888D01*
X012148Y019047D01*
X012235Y019256D01*
X012235Y019482D01*
X012148Y019691D01*
X011989Y019851D01*
X011780Y019937D01*
X011554Y019937D01*
X011345Y019851D01*
X011185Y019691D01*
X011099Y019482D01*
X011099Y019256D01*
X011185Y019047D01*
X011345Y018888D01*
X011554Y018801D01*
X011790Y018805D02*
X015292Y018805D01*
X015302Y018801D02*
X015528Y018801D01*
X015737Y018888D01*
X015896Y019047D01*
X015983Y019256D01*
X015983Y019482D01*
X015896Y019691D01*
X015737Y019851D01*
X015528Y019937D01*
X015302Y019937D01*
X015093Y019851D01*
X014933Y019691D01*
X014847Y019482D01*
X014847Y019256D01*
X014933Y019047D01*
X015093Y018888D01*
X015302Y018801D01*
X015538Y018805D02*
X018791Y018805D01*
X018785Y018808D02*
X018967Y018732D01*
X019164Y018732D01*
X019346Y018808D01*
X019486Y018947D01*
X019561Y019129D01*
X019561Y019327D01*
X019486Y019509D01*
X019346Y019648D01*
X019164Y019724D01*
X018967Y019724D01*
X018785Y019648D01*
X018645Y019509D01*
X018570Y019327D01*
X018570Y019129D01*
X018645Y018947D01*
X018785Y018808D01*
X018605Y019044D02*
X015893Y019044D01*
X015983Y019282D02*
X018570Y019282D01*
X018657Y019521D02*
X015967Y019521D01*
X015828Y019759D02*
X017011Y019759D01*
X016981Y019772D02*
X017177Y019691D01*
X017389Y019691D01*
X017585Y019772D01*
X017735Y019922D01*
X017817Y020118D01*
X017817Y020330D01*
X017735Y020526D01*
X017585Y020676D01*
X017470Y020724D01*
X017585Y020772D01*
X017735Y020922D01*
X017817Y021118D01*
X017817Y021330D01*
X017735Y021526D01*
X017585Y021676D01*
X017389Y021757D01*
X017177Y021757D01*
X016981Y021676D01*
X016831Y021526D01*
X016750Y021330D01*
X016750Y021118D01*
X016831Y020922D01*
X016981Y020772D01*
X017096Y020724D01*
X016981Y020676D01*
X016831Y020526D01*
X016750Y020330D01*
X016750Y020118D01*
X016831Y019922D01*
X016981Y019772D01*
X016800Y019998D02*
X007658Y019998D01*
X007658Y020236D02*
X016750Y020236D01*
X016810Y020475D02*
X012680Y020475D01*
X012629Y020454D02*
X012845Y020543D01*
X013010Y020709D01*
X013100Y020925D01*
X013100Y021159D01*
X013010Y021375D01*
X012845Y021540D01*
X012629Y021630D01*
X012395Y021630D01*
X012179Y021540D01*
X012013Y021375D01*
X011924Y021159D01*
X011924Y020925D01*
X012013Y020709D01*
X012179Y020543D01*
X012395Y020454D01*
X012629Y020454D01*
X012344Y020475D02*
X011105Y020475D01*
X011054Y020454D02*
X011270Y020543D01*
X011436Y020709D01*
X011525Y020925D01*
X011525Y021159D01*
X011436Y021375D01*
X011270Y021540D01*
X011054Y021630D01*
X010820Y021630D01*
X010604Y021540D01*
X010439Y021375D01*
X010349Y021159D01*
X010349Y020925D01*
X010439Y020709D01*
X010604Y020543D01*
X010820Y020454D01*
X011054Y020454D01*
X010769Y020475D02*
X009530Y020475D01*
X009479Y020454D02*
X009695Y020543D01*
X009861Y020709D01*
X009950Y020925D01*
X009950Y021159D01*
X009861Y021375D01*
X009695Y021540D01*
X009479Y021630D01*
X009245Y021630D01*
X009029Y021540D01*
X008864Y021375D01*
X008774Y021159D01*
X008774Y020925D01*
X008864Y020709D01*
X009029Y020543D01*
X009245Y020454D01*
X009479Y020454D01*
X009194Y020475D02*
X007658Y020475D01*
X007658Y020713D02*
X008862Y020713D01*
X008774Y020952D02*
X008279Y020952D01*
X008501Y021190D02*
X008787Y021190D01*
X008918Y021429D02*
X008600Y021429D01*
X008616Y021667D02*
X009167Y021667D01*
X009245Y021635D02*
X009029Y021724D01*
X008864Y021890D01*
X008774Y022106D01*
X008774Y022340D01*
X008864Y022556D01*
X009029Y022721D01*
X009245Y022811D01*
X009479Y022811D01*
X009695Y022721D01*
X009861Y022556D01*
X009950Y022340D01*
X009950Y022106D01*
X009861Y021890D01*
X009695Y021724D01*
X009479Y021635D01*
X009245Y021635D01*
X009558Y021667D02*
X010742Y021667D01*
X010820Y021635D02*
X011054Y021635D01*
X011270Y021724D01*
X011436Y021890D01*
X011525Y022106D01*
X011525Y022340D01*
X011436Y022556D01*
X011270Y022721D01*
X011054Y022811D01*
X010820Y022811D01*
X010604Y022721D01*
X010439Y022556D01*
X010349Y022340D01*
X010349Y022106D01*
X010439Y021890D01*
X010604Y021724D01*
X010820Y021635D01*
X011133Y021667D02*
X012316Y021667D01*
X012395Y021635D02*
X012629Y021635D01*
X012845Y021724D01*
X013010Y021890D01*
X013100Y022106D01*
X013100Y022340D01*
X013010Y022556D01*
X012845Y022721D01*
X012629Y022811D01*
X012395Y022811D01*
X012179Y022721D01*
X012013Y022556D01*
X011924Y022340D01*
X011924Y022106D01*
X012013Y021890D01*
X012179Y021724D01*
X012395Y021635D01*
X012707Y021667D02*
X013258Y021667D01*
X013258Y021797D02*
X013258Y021467D01*
X013384Y021163D01*
X013617Y020930D01*
X013922Y020804D01*
X014252Y020804D01*
X014556Y020930D01*
X014789Y021163D01*
X014915Y021467D01*
X014915Y021797D01*
X014789Y022102D01*
X014556Y022335D01*
X014252Y022461D01*
X013922Y022461D01*
X013617Y022335D01*
X013384Y022102D01*
X013258Y021797D01*
X013303Y021906D02*
X013017Y021906D01*
X013100Y022144D02*
X013427Y022144D01*
X013733Y022383D02*
X013082Y022383D01*
X012945Y022621D02*
X014705Y022621D01*
X014943Y022383D02*
X014440Y022383D01*
X014747Y022144D02*
X015182Y022144D01*
X014870Y021906D02*
X018687Y021906D01*
X018785Y021648D02*
X018645Y021509D01*
X018570Y021327D01*
X018570Y021129D01*
X018645Y020947D01*
X018785Y020808D01*
X018967Y020732D01*
X019164Y020732D01*
X019346Y020808D01*
X019486Y020947D01*
X019561Y021129D01*
X019561Y021327D01*
X019486Y021509D01*
X019346Y021648D01*
X019164Y021724D01*
X018967Y021724D01*
X018785Y021648D01*
X018831Y021667D02*
X017594Y021667D01*
X017776Y021429D02*
X018612Y021429D01*
X018570Y021190D02*
X017817Y021190D01*
X017748Y020952D02*
X018643Y020952D01*
X018785Y020648D02*
X018645Y020509D01*
X018570Y020327D01*
X018570Y020129D01*
X018645Y019947D01*
X018785Y019808D01*
X018967Y019732D01*
X019164Y019732D01*
X019346Y019808D01*
X019486Y019947D01*
X019561Y020129D01*
X019561Y020327D01*
X019486Y020509D01*
X019346Y020648D01*
X019164Y020724D01*
X018967Y020724D01*
X018785Y020648D01*
X018942Y020713D02*
X017496Y020713D01*
X017757Y020475D02*
X018631Y020475D01*
X018570Y020236D02*
X017817Y020236D01*
X017767Y019998D02*
X018624Y019998D01*
X018902Y019759D02*
X017555Y019759D01*
X017071Y020713D02*
X013012Y020713D01*
X013100Y020952D02*
X013595Y020952D01*
X013373Y021190D02*
X013087Y021190D01*
X012957Y021429D02*
X013274Y021429D01*
X012067Y021429D02*
X011382Y021429D01*
X011512Y021190D02*
X011937Y021190D01*
X011924Y020952D02*
X011525Y020952D01*
X011438Y020713D02*
X012011Y020713D01*
X012080Y019759D02*
X015001Y019759D01*
X014863Y019521D02*
X012219Y019521D01*
X012235Y019282D02*
X014847Y019282D01*
X014937Y019044D02*
X012145Y019044D01*
X011189Y019044D02*
X007659Y019044D01*
X007658Y019282D02*
X011099Y019282D01*
X011115Y019521D02*
X007658Y019521D01*
X007658Y019759D02*
X011253Y019759D01*
X010437Y020713D02*
X009863Y020713D01*
X009950Y020952D02*
X010349Y020952D01*
X010362Y021190D02*
X009937Y021190D01*
X009807Y021429D02*
X010492Y021429D01*
X010432Y021906D02*
X009868Y021906D01*
X009950Y022144D02*
X010349Y022144D01*
X010367Y022383D02*
X009933Y022383D01*
X009796Y022621D02*
X010504Y022621D01*
X011370Y022621D02*
X012079Y022621D01*
X011942Y022383D02*
X011507Y022383D01*
X011525Y022144D02*
X011924Y022144D01*
X012007Y021906D02*
X011442Y021906D01*
X013512Y023814D02*
X007656Y023814D01*
X007656Y024052D02*
X013274Y024052D01*
X013035Y024291D02*
X007655Y024291D01*
X007655Y024529D02*
X010599Y024529D01*
X010432Y024768D02*
X007655Y024768D01*
X007655Y025006D02*
X010359Y025006D01*
X010359Y025245D02*
X007655Y025245D01*
X007655Y025483D02*
X010447Y025483D01*
X010635Y025722D02*
X007655Y025722D01*
X007654Y025960D02*
X010588Y025960D01*
X010512Y026199D02*
X007654Y026199D01*
X007654Y026437D02*
X010549Y026437D01*
X010728Y026676D02*
X007654Y026676D01*
X007654Y026914D02*
X010629Y026914D01*
X010512Y027153D02*
X007654Y027153D01*
X007654Y027391D02*
X010530Y027391D01*
X010682Y027630D02*
X007653Y027630D01*
X007653Y027868D02*
X010675Y027868D01*
X010527Y028107D02*
X007653Y028107D01*
X007653Y028345D02*
X010512Y028345D01*
X010636Y028584D02*
X007653Y028584D01*
X007653Y028822D02*
X010721Y028822D01*
X010546Y029061D02*
X007653Y029061D01*
X007652Y029299D02*
X010512Y029299D01*
X010591Y029538D02*
X007652Y029538D01*
X007652Y029776D02*
X010809Y029776D01*
X010565Y030015D02*
X007652Y030015D01*
X007652Y030253D02*
X010512Y030253D01*
X010572Y030492D02*
X008364Y030492D01*
X008602Y030730D02*
X010847Y030730D01*
X011214Y030730D02*
X013967Y030730D01*
X013967Y030492D02*
X013593Y030492D01*
X013832Y030253D02*
X014059Y030253D01*
X014070Y030015D02*
X014252Y030015D01*
X014309Y029776D02*
X014920Y029776D01*
X014920Y029780D02*
X015420Y029780D01*
X015420Y029780D01*
X014920Y029780D01*
X014983Y029538D02*
X014547Y029538D01*
X014541Y029037D02*
X015551Y029037D01*
X015602Y028986D01*
X015602Y027019D01*
X015220Y027391D02*
X013834Y027391D01*
X013596Y027630D02*
X015244Y027630D01*
X015244Y027416D02*
X015150Y027321D01*
X015069Y027125D01*
X015069Y026913D01*
X015150Y026717D01*
X015300Y026567D01*
X015496Y026486D01*
X015708Y026486D01*
X015904Y026567D01*
X016054Y026717D01*
X016113Y026858D01*
X016125Y026821D01*
X016161Y026749D01*
X016209Y026684D01*
X016266Y026626D01*
X016332Y026579D01*
X016404Y026542D01*
X016481Y026517D01*
X016561Y026504D01*
X016602Y026504D01*
X016602Y027019D01*
X016602Y027019D01*
X016602Y026504D01*
X016643Y026504D01*
X016723Y026517D01*
X016800Y026542D01*
X016872Y026579D01*
X016938Y026626D01*
X016995Y026684D01*
X017043Y026749D01*
X017080Y026821D01*
X017105Y026899D01*
X017117Y026979D01*
X017117Y027019D01*
X016602Y027019D01*
X016602Y027019D01*
X017117Y027019D01*
X017117Y027060D01*
X017105Y027140D01*
X017080Y027217D01*
X017043Y027289D01*
X016995Y027355D01*
X016938Y027412D01*
X016872Y027460D01*
X016800Y027497D01*
X016723Y027522D01*
X016643Y027535D01*
X016602Y027535D01*
X016561Y027535D01*
X016481Y027522D01*
X016404Y027497D01*
X016332Y027460D01*
X016266Y027412D01*
X016209Y027355D01*
X016161Y027289D01*
X016125Y027217D01*
X016113Y027180D01*
X016054Y027321D01*
X015960Y027416D01*
X015960Y028679D01*
X018859Y028679D01*
X018785Y028648D01*
X018645Y028509D01*
X018570Y028327D01*
X018570Y028129D01*
X018645Y027947D01*
X018785Y027808D01*
X018967Y027732D01*
X019164Y027732D01*
X019346Y027808D01*
X019486Y027947D01*
X019561Y028129D01*
X019561Y028327D01*
X019486Y028509D01*
X019346Y028648D01*
X019165Y028723D01*
X021326Y028723D01*
X022039Y028011D01*
X022039Y027677D01*
X021825Y027677D01*
X021694Y027546D01*
X019448Y027546D01*
X019346Y027648D01*
X019164Y027724D01*
X018967Y027724D01*
X018785Y027648D01*
X018645Y027509D01*
X018570Y027327D01*
X018570Y027129D01*
X018645Y026947D01*
X018785Y026808D01*
X018967Y026732D01*
X019164Y026732D01*
X019346Y026808D01*
X019448Y026910D01*
X021685Y026910D01*
X021685Y026620D01*
X021741Y026564D01*
X021718Y026524D01*
X021703Y026468D01*
X021703Y026329D01*
X022073Y026329D01*
X022073Y026329D01*
X022443Y026329D01*
X022073Y026329D01*
X022073Y026329D01*
X021703Y026329D01*
X021703Y026190D01*
X021715Y026147D01*
X019596Y026147D01*
X019561Y026182D01*
X019561Y026327D01*
X019486Y026509D01*
X019346Y026648D01*
X019164Y026724D01*
X018967Y026724D01*
X018785Y026648D01*
X018645Y026509D01*
X018570Y026327D01*
X018570Y026129D01*
X018645Y025947D01*
X018785Y025808D01*
X018967Y025732D01*
X019111Y025732D01*
X019120Y025724D01*
X018967Y025724D01*
X018785Y025648D01*
X018683Y025546D01*
X015680Y025546D01*
X012548Y028677D01*
X012548Y028849D01*
X012470Y029039D01*
X012324Y029185D01*
X012147Y029258D01*
X012147Y029258D01*
X012222Y029282D01*
X012292Y029318D01*
X012356Y029364D01*
X012412Y029420D01*
X012458Y029483D01*
X012494Y029554D01*
X012518Y029628D01*
X012530Y029706D01*
X012530Y029745D01*
X012030Y029745D01*
X011530Y029745D01*
X011530Y029706D01*
X011543Y029628D01*
X011567Y029554D01*
X011603Y029483D01*
X011649Y029420D01*
X011705Y029364D01*
X011768Y029318D01*
X011838Y029282D01*
X011913Y029258D01*
X011913Y029258D01*
X011737Y029185D01*
X011591Y029039D01*
X011512Y028849D01*
X011512Y028642D01*
X011591Y028452D01*
X011737Y028306D01*
X011884Y028245D01*
X011737Y028185D01*
X011591Y028039D01*
X011512Y027849D01*
X011512Y027642D01*
X011591Y027452D01*
X011737Y027306D01*
X011884Y027245D01*
X011737Y027185D01*
X011591Y027039D01*
X011512Y026849D01*
X011512Y026642D01*
X011591Y026452D01*
X011737Y026306D01*
X011884Y026245D01*
X011737Y026185D01*
X011591Y026039D01*
X011513Y025850D01*
X011410Y025892D01*
X011470Y025952D01*
X011548Y026142D01*
X011548Y026349D01*
X011470Y026539D01*
X011324Y026685D01*
X011177Y026745D01*
X011324Y026806D01*
X011470Y026952D01*
X011548Y027142D01*
X011548Y027349D01*
X011470Y027539D01*
X011324Y027685D01*
X011177Y027745D01*
X011324Y027806D01*
X011470Y027952D01*
X011548Y028142D01*
X011548Y028349D01*
X011470Y028539D01*
X011324Y028685D01*
X011177Y028745D01*
X011324Y028806D01*
X011470Y028952D01*
X011548Y029142D01*
X011548Y029349D01*
X011470Y029539D01*
X011324Y029685D01*
X011177Y029745D01*
X011324Y029806D01*
X011470Y029952D01*
X011472Y029957D01*
X011577Y029957D01*
X011567Y029937D01*
X011543Y029863D01*
X011530Y029785D01*
X011530Y029745D01*
X012030Y029745D01*
X012030Y029745D01*
X012030Y029745D01*
X012530Y029745D01*
X012530Y029785D01*
X012518Y029863D01*
X012494Y029937D01*
X012484Y029957D01*
X013115Y029957D01*
X014238Y028834D01*
X014339Y028733D01*
X014470Y028679D01*
X015244Y028679D01*
X015244Y027416D01*
X015080Y027153D02*
X014073Y027153D01*
X014311Y026914D02*
X015069Y026914D01*
X015191Y026676D02*
X014550Y026676D01*
X014788Y026437D02*
X018616Y026437D01*
X018570Y026199D02*
X015027Y026199D01*
X015265Y025960D02*
X018640Y025960D01*
X018963Y025722D02*
X015504Y025722D01*
X015081Y025245D02*
X014981Y025245D01*
X014843Y025483D02*
X014742Y025483D01*
X014604Y025722D02*
X014504Y025722D01*
X014366Y025960D02*
X014265Y025960D01*
X014127Y026199D02*
X014027Y026199D01*
X013889Y026437D02*
X013788Y026437D01*
X013650Y026676D02*
X013550Y026676D01*
X013412Y026914D02*
X013311Y026914D01*
X013173Y027153D02*
X013073Y027153D01*
X012935Y027391D02*
X012834Y027391D01*
X012696Y027630D02*
X012596Y027630D01*
X013119Y028107D02*
X015244Y028107D01*
X015244Y028345D02*
X012880Y028345D01*
X012642Y028584D02*
X015244Y028584D01*
X015551Y029037D02*
X018874Y029037D01*
X018919Y029081D01*
X021474Y029081D01*
X022533Y028023D01*
X025761Y031252D01*
X031882Y031252D01*
X032984Y030149D01*
X032984Y028472D01*
X032740Y028228D01*
X031830Y028228D01*
X032524Y027868D02*
X033343Y027868D01*
X033343Y027630D02*
X032482Y027630D01*
X032639Y027391D02*
X033343Y027391D01*
X033343Y027153D02*
X032662Y027153D01*
X032570Y026914D02*
X033343Y026914D01*
X033343Y026676D02*
X028279Y026676D01*
X028346Y026648D02*
X028164Y026724D01*
X027967Y026724D01*
X027785Y026648D01*
X027645Y026509D01*
X027570Y026327D01*
X027570Y026129D01*
X027645Y025947D01*
X027785Y025808D01*
X027967Y025732D01*
X028111Y025732D01*
X028120Y025724D01*
X027967Y025724D01*
X027785Y025648D01*
X027645Y025509D01*
X027570Y025327D01*
X027570Y025129D01*
X027645Y024947D01*
X027785Y024808D01*
X027967Y024732D01*
X028111Y024732D01*
X028120Y024724D01*
X027967Y024724D01*
X027785Y024648D01*
X027645Y024509D01*
X027570Y024327D01*
X027570Y024129D01*
X027645Y023947D01*
X027785Y023808D01*
X027967Y023732D01*
X028164Y023732D01*
X028346Y023808D01*
X028486Y023947D01*
X028561Y024129D01*
X028561Y024282D01*
X029885Y022958D01*
X030002Y022910D01*
X031095Y022910D01*
X031230Y022774D01*
X031343Y022728D01*
X031230Y022681D01*
X031080Y022531D01*
X030999Y022334D01*
X030999Y022122D01*
X031080Y021925D01*
X031230Y021774D01*
X031427Y021693D01*
X032234Y021693D01*
X032430Y021774D01*
X032581Y021925D01*
X032662Y022122D01*
X032662Y022334D01*
X032581Y022531D01*
X032430Y022681D01*
X032318Y022728D01*
X032430Y022774D01*
X032581Y022925D01*
X032662Y023122D01*
X032662Y023334D01*
X032581Y023531D01*
X032430Y023681D01*
X032318Y023728D01*
X032430Y023774D01*
X032581Y023925D01*
X032662Y024122D01*
X032662Y024334D01*
X032581Y024531D01*
X032430Y024681D01*
X032293Y024738D01*
X032326Y024749D01*
X032398Y024786D01*
X032464Y024834D01*
X032521Y024891D01*
X032569Y024957D01*
X032606Y025030D01*
X032631Y025107D01*
X032644Y025187D01*
X032644Y025228D01*
X032644Y025269D01*
X032631Y025349D01*
X032606Y025426D01*
X032569Y025499D01*
X032521Y025565D01*
X032464Y025622D01*
X032398Y025670D01*
X032326Y025707D01*
X032248Y025732D01*
X032168Y025745D01*
X031830Y025745D01*
X031493Y025745D01*
X031413Y025732D01*
X031335Y025707D01*
X031263Y025670D01*
X031197Y025622D01*
X031139Y025565D01*
X031091Y025499D01*
X031055Y025426D01*
X031029Y025349D01*
X031017Y025269D01*
X031017Y025228D01*
X031830Y025228D01*
X031830Y025228D01*
X031017Y025228D01*
X031017Y025187D01*
X031029Y025107D01*
X031055Y025030D01*
X031091Y024957D01*
X031139Y024891D01*
X031197Y024834D01*
X031263Y024786D01*
X031335Y024749D01*
X031368Y024738D01*
X031230Y024681D01*
X031095Y024546D01*
X030197Y024546D01*
X028561Y026182D01*
X028561Y026327D01*
X028486Y026509D01*
X028346Y026648D01*
X028515Y026437D02*
X033343Y026437D01*
X033343Y026199D02*
X028561Y026199D01*
X028783Y025960D02*
X033343Y025960D01*
X033343Y025722D02*
X032280Y025722D01*
X032577Y025483D02*
X033343Y025483D01*
X033343Y025245D02*
X032644Y025245D01*
X032644Y025228D02*
X031830Y025228D01*
X031830Y025745D01*
X031830Y025228D01*
X031830Y025228D01*
X031830Y025228D01*
X032644Y025228D01*
X032594Y025006D02*
X033343Y025006D01*
X033343Y024768D02*
X032363Y024768D01*
X032581Y024529D02*
X033343Y024529D01*
X033343Y024291D02*
X032662Y024291D01*
X032633Y024052D02*
X033343Y024052D01*
X033343Y023814D02*
X032470Y023814D01*
X032536Y023575D02*
X033343Y023575D01*
X033343Y023337D02*
X032661Y023337D01*
X032653Y023098D02*
X033343Y023098D01*
X033343Y022860D02*
X032516Y022860D01*
X032490Y022621D02*
X033343Y022621D01*
X033343Y022383D02*
X032642Y022383D01*
X032662Y022144D02*
X033343Y022144D01*
X033343Y021906D02*
X032562Y021906D01*
X033343Y021667D02*
X028300Y021667D01*
X028346Y021808D02*
X028486Y021947D01*
X028561Y022129D01*
X028561Y022327D01*
X028486Y022509D01*
X028346Y022648D01*
X028164Y022724D01*
X027967Y022724D01*
X027785Y022648D01*
X027645Y022509D01*
X027570Y022327D01*
X027570Y022129D01*
X027645Y021947D01*
X027785Y021808D01*
X027967Y021732D01*
X028164Y021732D01*
X028346Y021808D01*
X028444Y021906D02*
X031099Y021906D01*
X030999Y022144D02*
X028561Y022144D01*
X028538Y022383D02*
X031019Y022383D01*
X031170Y022621D02*
X028373Y022621D01*
X028346Y022808D02*
X028486Y022947D01*
X028561Y023129D01*
X028561Y023327D01*
X028486Y023509D01*
X028346Y023648D01*
X028164Y023724D01*
X027967Y023724D01*
X027785Y023648D01*
X027645Y023509D01*
X027570Y023327D01*
X027570Y023129D01*
X027645Y022947D01*
X027785Y022808D01*
X027967Y022732D01*
X028164Y022732D01*
X028346Y022808D01*
X028398Y022860D02*
X031145Y022860D01*
X029745Y023098D02*
X028548Y023098D01*
X028557Y023337D02*
X029507Y023337D01*
X029268Y023575D02*
X028419Y023575D01*
X028352Y023814D02*
X029030Y023814D01*
X028791Y024052D02*
X028529Y024052D01*
X027779Y023814D02*
X025486Y023814D01*
X025486Y024052D02*
X027602Y024052D01*
X027570Y024291D02*
X025486Y024291D01*
X025486Y024529D02*
X027666Y024529D01*
X027881Y024768D02*
X025486Y024768D01*
X025486Y025006D02*
X027621Y025006D01*
X027570Y025245D02*
X025486Y025245D01*
X025486Y025483D02*
X027635Y025483D01*
X027963Y025722D02*
X025486Y025722D01*
X025486Y025960D02*
X027640Y025960D01*
X027570Y026199D02*
X025486Y026199D01*
X025486Y026437D02*
X027616Y026437D01*
X027851Y026676D02*
X025341Y026676D01*
X025103Y026914D02*
X027678Y026914D01*
X027570Y027153D02*
X024416Y027153D01*
X024416Y027391D02*
X027597Y027391D01*
X027766Y027630D02*
X024324Y027630D01*
X023757Y027868D02*
X027724Y027868D01*
X027579Y028107D02*
X023757Y028107D01*
X023757Y028345D02*
X027578Y028345D01*
X027720Y028584D02*
X023600Y028584D01*
X023838Y028822D02*
X027770Y028822D01*
X027598Y029061D02*
X024077Y029061D01*
X024315Y029299D02*
X027570Y029299D01*
X027674Y029538D02*
X024554Y029538D01*
X024792Y029776D02*
X027861Y029776D01*
X027785Y029808D02*
X027967Y029732D01*
X028164Y029732D01*
X028346Y029808D01*
X028486Y029947D01*
X028561Y030129D01*
X028561Y030327D01*
X028486Y030509D01*
X028346Y030648D01*
X028164Y030724D01*
X027967Y030724D01*
X027785Y030648D01*
X027645Y030509D01*
X027570Y030327D01*
X027570Y030129D01*
X027645Y029947D01*
X027785Y029808D01*
X027617Y030015D02*
X025031Y030015D01*
X025269Y030253D02*
X027570Y030253D01*
X027638Y030492D02*
X025508Y030492D01*
X025746Y030730D02*
X031407Y030730D01*
X031088Y030492D02*
X028493Y030492D01*
X028561Y030253D02*
X031017Y030253D01*
X031062Y030015D02*
X030537Y030015D01*
X031048Y029776D02*
X031282Y029776D01*
X031830Y030228D02*
X031830Y030745D01*
X031830Y030228D01*
X031830Y030228D01*
X031830Y030253D02*
X031830Y030253D01*
X031830Y030492D02*
X031830Y030492D01*
X031830Y030730D02*
X031830Y030730D01*
X033328Y030253D02*
X033343Y030253D01*
X033342Y030015D02*
X033343Y030015D01*
X033342Y029776D02*
X033343Y029776D01*
X033342Y029538D02*
X033343Y029538D01*
X033342Y029299D02*
X033343Y029299D01*
X033342Y029061D02*
X033343Y029061D01*
X033342Y028822D02*
X033343Y028822D01*
X033342Y028584D02*
X033343Y028584D01*
X033343Y028345D02*
X033319Y028345D01*
X033343Y028107D02*
X033125Y028107D01*
X031830Y025722D02*
X031830Y025722D01*
X031830Y025483D02*
X031830Y025483D01*
X031830Y025245D02*
X031830Y025245D01*
X031381Y025722D02*
X029021Y025722D01*
X029260Y025483D02*
X031084Y025483D01*
X031017Y025245D02*
X029498Y025245D01*
X029737Y025006D02*
X031066Y025006D01*
X031298Y024768D02*
X029975Y024768D01*
X027712Y023575D02*
X025486Y023575D01*
X025486Y023337D02*
X027574Y023337D01*
X027583Y023098D02*
X025486Y023098D01*
X025486Y022860D02*
X027733Y022860D01*
X027758Y022621D02*
X025486Y022621D01*
X025486Y022383D02*
X027593Y022383D01*
X027570Y022144D02*
X025486Y022144D01*
X025486Y021906D02*
X027687Y021906D01*
X027831Y021667D02*
X025486Y021667D01*
X025486Y021429D02*
X027612Y021429D01*
X027570Y021190D02*
X025486Y021190D01*
X025486Y020952D02*
X027643Y020952D01*
X028487Y020952D02*
X033343Y020952D01*
X033343Y021190D02*
X028561Y021190D01*
X028519Y021429D02*
X033343Y021429D01*
X031315Y019759D02*
X028229Y019759D01*
X028473Y019521D02*
X031076Y019521D01*
X030999Y019282D02*
X028561Y019282D01*
X028526Y019044D02*
X031031Y019044D01*
X031200Y018805D02*
X028340Y018805D01*
X028427Y018567D02*
X031116Y018567D01*
X031071Y019998D02*
X028506Y019998D01*
X028561Y020236D02*
X031017Y020236D01*
X031079Y020475D02*
X028500Y020475D01*
X027431Y019044D02*
X027331Y019044D01*
X027193Y018805D02*
X027093Y018805D01*
X028541Y017374D02*
X033343Y017374D01*
X033343Y017136D02*
X028607Y017136D01*
X027628Y015466D02*
X027155Y015466D01*
X027155Y015228D02*
X027570Y015228D01*
X027628Y014989D02*
X027155Y014989D01*
X027155Y014751D02*
X027922Y014751D01*
X027649Y014512D02*
X027155Y014512D01*
X027155Y014274D02*
X027570Y014274D01*
X027609Y014035D02*
X027155Y014035D01*
X027155Y013797D02*
X027811Y013797D01*
X027695Y013558D02*
X027155Y013558D01*
X027155Y013320D02*
X027570Y013320D01*
X027590Y013081D02*
X027155Y013081D01*
X027155Y012843D02*
X027750Y012843D01*
X027741Y012604D02*
X027155Y012604D01*
X027155Y012366D02*
X027586Y012366D01*
X027571Y012127D02*
X027155Y012127D01*
X027155Y011889D02*
X027704Y011889D01*
X027790Y011650D02*
X027155Y011650D01*
X027155Y011412D02*
X027605Y011412D01*
X027570Y011327D02*
X027570Y011129D01*
X027645Y010947D01*
X027785Y010808D01*
X027967Y010732D01*
X028164Y010732D01*
X028346Y010808D01*
X028486Y010947D01*
X028561Y011129D01*
X028561Y011327D01*
X028486Y011509D01*
X028346Y011648D01*
X028164Y011724D01*
X027967Y011724D01*
X027785Y011648D01*
X027645Y011509D01*
X027570Y011327D01*
X027570Y011173D02*
X027155Y011173D01*
X027155Y010935D02*
X027658Y010935D01*
X027155Y010696D02*
X028700Y010696D01*
X028710Y010458D02*
X027296Y010458D01*
X027534Y010219D02*
X028895Y010219D01*
X029134Y009981D02*
X027773Y009981D01*
X028011Y009742D02*
X029372Y009742D01*
X029651Y009504D02*
X028250Y009504D01*
X028488Y009265D02*
X031017Y009265D01*
X031056Y009027D02*
X028727Y009027D01*
X028965Y008788D02*
X031259Y008788D01*
X031830Y008788D02*
X031830Y008788D01*
X031830Y009027D02*
X031830Y009027D01*
X031095Y009504D02*
X030640Y009504D01*
X031289Y009742D02*
X031308Y009742D01*
X028700Y010935D02*
X028473Y010935D01*
X028561Y011173D02*
X028700Y011173D01*
X028700Y011412D02*
X028526Y011412D01*
X028700Y011650D02*
X028341Y011650D01*
X028427Y011889D02*
X028700Y011889D01*
X028700Y012127D02*
X028560Y012127D01*
X028946Y013797D02*
X031208Y013797D01*
X024850Y019521D02*
X023463Y019521D01*
X023463Y019759D02*
X024850Y019759D01*
X024850Y019998D02*
X023463Y019998D01*
X023463Y020236D02*
X024850Y020236D01*
X024850Y020475D02*
X023463Y020475D01*
X023463Y020713D02*
X024850Y020713D01*
X024850Y020952D02*
X023463Y020952D01*
X023463Y021190D02*
X024850Y021190D01*
X024850Y021429D02*
X023463Y021429D01*
X023463Y021667D02*
X024850Y021667D01*
X024850Y021906D02*
X023463Y021906D01*
X023463Y022144D02*
X024850Y022144D01*
X024850Y022383D02*
X023463Y022383D01*
X023463Y022621D02*
X024850Y022621D01*
X024850Y022860D02*
X023463Y022860D01*
X023463Y023098D02*
X024850Y023098D01*
X024850Y023337D02*
X023463Y023337D01*
X023463Y023575D02*
X024850Y023575D01*
X024850Y023814D02*
X023463Y023814D01*
X023463Y024052D02*
X023498Y024052D01*
X023495Y024291D02*
X023463Y024291D01*
X023463Y024529D02*
X023495Y024529D01*
X023477Y024768D02*
X023463Y024768D01*
X023463Y025006D02*
X023477Y025006D01*
X023463Y025245D02*
X023477Y025245D01*
X023463Y025483D02*
X023513Y025483D01*
X023463Y025722D02*
X023640Y025722D01*
X024028Y025829D02*
X024030Y025826D01*
X024030Y025093D01*
X024583Y025006D02*
X024850Y025006D01*
X024850Y024768D02*
X024583Y024768D01*
X024565Y024529D02*
X024850Y024529D01*
X024850Y024291D02*
X024565Y024291D01*
X024563Y024052D02*
X024850Y024052D01*
X024038Y024052D02*
X024022Y024052D01*
X024022Y024291D02*
X024038Y024291D01*
X024583Y025245D02*
X024850Y025245D01*
X024850Y025483D02*
X024548Y025483D01*
X024416Y025722D02*
X024850Y025722D01*
X024850Y025960D02*
X024416Y025960D01*
X024416Y026199D02*
X024850Y026199D01*
X024680Y026437D02*
X024416Y026437D01*
X023640Y026676D02*
X022614Y026676D01*
X022443Y026437D02*
X023271Y026437D01*
X023032Y026199D02*
X022443Y026199D01*
X022461Y025960D02*
X022842Y025960D01*
X022827Y025722D02*
X022461Y025722D01*
X022325Y025483D02*
X022827Y025483D01*
X022827Y025245D02*
X019561Y025245D01*
X019510Y025006D02*
X022827Y025006D01*
X022827Y024768D02*
X019249Y024768D01*
X019465Y024529D02*
X022827Y024529D01*
X022827Y024291D02*
X019561Y024291D01*
X019529Y024052D02*
X022827Y024052D01*
X022827Y023814D02*
X019352Y023814D01*
X019419Y023575D02*
X022827Y023575D01*
X022827Y023337D02*
X019557Y023337D01*
X019548Y023098D02*
X022827Y023098D01*
X022827Y022860D02*
X019398Y022860D01*
X019373Y022621D02*
X022827Y022621D01*
X022827Y022383D02*
X019538Y022383D01*
X019561Y022144D02*
X022827Y022144D01*
X022827Y021906D02*
X019444Y021906D01*
X019300Y021667D02*
X022827Y021667D01*
X022827Y021429D02*
X019519Y021429D01*
X019561Y021190D02*
X022827Y021190D01*
X022827Y020952D02*
X019487Y020952D01*
X019189Y020713D02*
X022827Y020713D01*
X022827Y020475D02*
X019500Y020475D01*
X019561Y020236D02*
X022827Y020236D01*
X022827Y019998D02*
X019506Y019998D01*
X019229Y019759D02*
X022827Y019759D01*
X022827Y019521D02*
X019473Y019521D01*
X019561Y019282D02*
X022827Y019282D01*
X022827Y019044D02*
X019526Y019044D01*
X019340Y018805D02*
X022827Y018805D01*
X022828Y018567D02*
X019427Y018567D01*
X019560Y018328D02*
X022829Y018328D01*
X022831Y018090D02*
X019545Y018090D01*
X019390Y017851D02*
X022833Y017851D01*
X022834Y017613D02*
X019381Y017613D01*
X022543Y015943D02*
X022777Y015943D01*
X022716Y017136D02*
X022603Y017136D01*
X018586Y012366D02*
X007663Y012366D01*
X007663Y012604D02*
X008042Y012604D01*
X007847Y012843D02*
X007662Y012843D01*
X007662Y013081D02*
X007794Y013081D01*
X007837Y013320D02*
X007662Y013320D01*
X007662Y013558D02*
X008013Y013558D01*
X008774Y013558D02*
X008790Y013558D01*
X008790Y013696D02*
X008790Y013100D01*
X009770Y013100D01*
X009770Y013139D01*
X009755Y013233D01*
X009726Y013324D01*
X009682Y013408D01*
X009626Y013485D01*
X009559Y013552D01*
X009482Y013608D01*
X009398Y013652D01*
X009307Y013681D01*
X009213Y013696D01*
X008790Y013696D01*
X008774Y013320D02*
X008790Y013320D01*
X008774Y013081D02*
X008790Y013081D01*
X008774Y012843D02*
X008790Y012843D01*
X008774Y012604D02*
X008790Y012604D01*
X009717Y012843D02*
X011189Y012843D01*
X011117Y013081D02*
X009770Y013081D01*
X009727Y013320D02*
X011154Y013320D01*
X011157Y013328D02*
X011130Y013246D01*
X011117Y013161D01*
X011117Y013117D01*
X011667Y013117D01*
X011667Y013117D01*
X011667Y013667D01*
X011624Y013667D01*
X011538Y013654D01*
X011456Y013627D01*
X011379Y013588D01*
X011309Y013537D01*
X011247Y013476D01*
X011196Y013406D01*
X011157Y013328D01*
X011338Y013558D02*
X009551Y013558D01*
X007663Y012127D02*
X018571Y012127D01*
X018704Y011889D02*
X007663Y011889D01*
X007663Y011650D02*
X008121Y011650D01*
X007857Y011412D02*
X007663Y011412D01*
X007663Y011173D02*
X007776Y011173D01*
X007790Y010935D02*
X007664Y010935D01*
X007664Y010696D02*
X007914Y010696D01*
X007664Y010458D02*
X022841Y010458D01*
X022841Y010219D02*
X007664Y010219D01*
X007664Y009981D02*
X022841Y009981D01*
X022662Y009742D02*
X007664Y009742D01*
X007664Y009504D02*
X022423Y009504D01*
X022185Y009265D02*
X007665Y009265D01*
X007665Y009027D02*
X021946Y009027D01*
X021868Y008788D02*
X007665Y008788D01*
X007665Y008550D02*
X021868Y008550D01*
X021868Y008311D02*
X007665Y008311D01*
X007665Y008073D02*
X021868Y008073D01*
X021868Y007834D02*
X007665Y007834D01*
X007666Y007596D02*
X014775Y007596D01*
X014566Y007357D02*
X014168Y007357D01*
X014252Y007119D02*
X014467Y007119D01*
X013418Y006642D02*
X013050Y006642D01*
X013221Y006880D02*
X013247Y006880D01*
X013300Y007357D02*
X013168Y007357D01*
X012418Y006642D02*
X012011Y006642D01*
X011734Y006642D02*
X011734Y006642D01*
X011734Y006880D02*
X011734Y006880D01*
X011734Y007119D02*
X011734Y007119D01*
X011734Y007357D02*
X011734Y007357D01*
X011333Y007357D02*
X007666Y007357D01*
X007666Y007119D02*
X011237Y007119D01*
X011266Y006880D02*
X007666Y006880D01*
X008371Y006642D02*
X011457Y006642D01*
X011622Y006403D02*
X011846Y006403D01*
X012202Y006880D02*
X012247Y006880D01*
X012222Y006942D02*
X012222Y006942D01*
X012222Y007176D02*
X012222Y007176D01*
X012300Y007357D02*
X012135Y007357D01*
X012622Y006403D02*
X012846Y006403D01*
X010846Y006403D02*
X008610Y006403D01*
X008692Y006165D02*
X010717Y006165D01*
X010728Y005926D02*
X008692Y005926D01*
X015781Y007596D02*
X017283Y007596D01*
X017549Y007596D02*
X018283Y007596D01*
X018549Y007596D02*
X019544Y007596D01*
X019351Y007357D02*
X018866Y007357D01*
X018934Y007119D02*
X019260Y007119D01*
X019260Y006880D02*
X018890Y006880D01*
X018688Y006642D02*
X019330Y006642D01*
X019493Y006403D02*
X018335Y006403D01*
X018434Y006165D02*
X019899Y006165D01*
X020249Y005926D02*
X018409Y005926D01*
X018144Y006642D02*
X017688Y006642D01*
X017496Y006403D02*
X017335Y006403D01*
X017144Y006642D02*
X016638Y006642D01*
X016416Y006642D02*
X016416Y006642D01*
X016194Y006642D02*
X016034Y006642D01*
X016335Y006403D02*
X016496Y006403D01*
X016416Y006880D02*
X016416Y006880D01*
X016416Y007119D02*
X016416Y007119D01*
X016416Y007357D02*
X016416Y007357D01*
X016840Y007357D02*
X016966Y007357D01*
X016904Y006973D02*
X016904Y006973D01*
X016870Y006880D02*
X016942Y006880D01*
X017890Y006880D02*
X017942Y006880D01*
X017966Y007357D02*
X017866Y007357D01*
X015992Y007357D02*
X015990Y007357D01*
X020606Y007596D02*
X021012Y007596D01*
X021413Y007596D02*
X021868Y007596D01*
X021751Y007357D02*
X021674Y007357D01*
X023674Y007357D02*
X023774Y007357D01*
X023725Y007235D02*
X023725Y007235D01*
X023675Y006880D02*
X023773Y006880D01*
X024213Y006880D02*
X024213Y006880D01*
X024213Y007119D02*
X024213Y007119D01*
X024213Y007357D02*
X024213Y007357D01*
X024231Y006165D02*
X025365Y006165D01*
X025431Y005926D02*
X024194Y005926D01*
X011667Y012843D02*
X011667Y012843D01*
X011667Y013081D02*
X011667Y013081D01*
X011667Y013320D02*
X011667Y013320D01*
X011667Y013558D02*
X011667Y013558D01*
X014578Y020952D02*
X016819Y020952D01*
X016750Y021190D02*
X014801Y021190D01*
X014899Y021429D02*
X016791Y021429D01*
X016972Y021667D02*
X014915Y021667D01*
X015604Y022621D02*
X018758Y022621D01*
X018733Y022860D02*
X015366Y022860D01*
X015228Y023098D02*
X015127Y023098D01*
X014989Y023337D02*
X014889Y023337D01*
X014751Y023575D02*
X014650Y023575D01*
X014512Y023814D02*
X014412Y023814D01*
X014274Y024052D02*
X014173Y024052D01*
X014035Y024291D02*
X013935Y024291D01*
X013797Y024529D02*
X013696Y024529D01*
X013558Y024768D02*
X013458Y024768D01*
X013320Y025006D02*
X013219Y025006D01*
X013081Y025245D02*
X012981Y025245D01*
X012843Y025483D02*
X012742Y025483D01*
X012604Y025722D02*
X012548Y025722D01*
X013027Y026199D02*
X013127Y026199D01*
X013265Y025960D02*
X013366Y025960D01*
X013504Y025722D02*
X013604Y025722D01*
X013742Y025483D02*
X013843Y025483D01*
X013981Y025245D02*
X014081Y025245D01*
X014219Y025006D02*
X014320Y025006D01*
X014458Y024768D02*
X014558Y024768D01*
X014696Y024529D02*
X014797Y024529D01*
X014935Y024291D02*
X015035Y024291D01*
X015173Y024052D02*
X015274Y024052D01*
X015412Y023814D02*
X018779Y023814D01*
X018712Y023575D02*
X015650Y023575D01*
X015458Y024768D02*
X018881Y024768D01*
X019496Y025483D02*
X021822Y025483D01*
X021703Y026199D02*
X019561Y026199D01*
X019515Y026437D02*
X021703Y026437D01*
X021685Y026676D02*
X019279Y026676D01*
X018851Y026676D02*
X016987Y026676D01*
X017107Y026914D02*
X018678Y026914D01*
X018570Y027153D02*
X017100Y027153D01*
X016959Y027391D02*
X018597Y027391D01*
X018766Y027630D02*
X015960Y027630D01*
X015960Y027868D02*
X018724Y027868D01*
X018579Y028107D02*
X015960Y028107D01*
X015960Y028345D02*
X018578Y028345D01*
X018720Y028584D02*
X015960Y028584D01*
X015244Y027868D02*
X013357Y027868D01*
X012548Y028822D02*
X014250Y028822D01*
X014011Y029061D02*
X012448Y029061D01*
X012256Y029299D02*
X013773Y029299D01*
X013534Y029538D02*
X012486Y029538D01*
X012530Y029776D02*
X013296Y029776D01*
X013263Y030315D02*
X014541Y029037D01*
X015514Y030272D02*
X015567Y030401D01*
X015627Y030341D01*
X015817Y030262D01*
X016023Y030262D01*
X016214Y030341D01*
X016360Y030487D01*
X016420Y030634D01*
X016481Y030487D01*
X016627Y030341D01*
X016817Y030262D01*
X017023Y030262D01*
X017214Y030341D01*
X017360Y030487D01*
X017438Y030677D01*
X017438Y030884D01*
X017360Y031074D01*
X017214Y031220D01*
X017023Y031299D01*
X016817Y031299D01*
X016627Y031220D01*
X016481Y031074D01*
X016420Y030927D01*
X016360Y031074D01*
X016214Y031220D01*
X016023Y031299D01*
X015817Y031299D01*
X015627Y031220D01*
X015483Y031076D01*
X015474Y031099D01*
X015244Y031328D01*
X015225Y031336D01*
X025336Y031333D01*
X022560Y028556D01*
X022506Y028556D01*
X021778Y029284D01*
X021677Y029385D01*
X021546Y029439D01*
X019514Y029439D01*
X019486Y029509D01*
X019346Y029648D01*
X019164Y029724D01*
X018967Y029724D01*
X018785Y029648D01*
X018645Y029509D01*
X018598Y029395D01*
X016768Y029395D01*
X016860Y029487D01*
X016938Y029677D01*
X016938Y029884D01*
X016860Y030074D01*
X016714Y030220D01*
X016523Y030299D01*
X016317Y030299D01*
X016127Y030220D01*
X015981Y030074D01*
X015908Y029898D01*
X015884Y029972D01*
X015848Y030043D01*
X015802Y030106D01*
X015746Y030162D01*
X015682Y030208D01*
X015612Y030244D01*
X015537Y030268D01*
X015514Y030272D01*
X015583Y030253D02*
X016208Y030253D01*
X016362Y030492D02*
X016479Y030492D01*
X016633Y030253D02*
X018588Y030253D01*
X018588Y030266D02*
X018588Y030228D01*
X019065Y030228D01*
X019065Y030228D01*
X018588Y030228D01*
X018588Y030190D01*
X018600Y030116D01*
X018623Y030045D01*
X018657Y029978D01*
X018701Y029917D01*
X018754Y029864D01*
X018815Y029820D01*
X018882Y029785D01*
X018954Y029762D01*
X019028Y029750D01*
X019065Y029750D01*
X019065Y030228D01*
X019065Y030705D01*
X019028Y030705D01*
X018954Y030694D01*
X018882Y030670D01*
X018815Y030636D01*
X018754Y030592D01*
X018701Y030539D01*
X018657Y030478D01*
X018623Y030411D01*
X018600Y030340D01*
X018588Y030266D01*
X018667Y030492D02*
X017362Y030492D01*
X017438Y030730D02*
X024734Y030730D01*
X024972Y030969D02*
X017403Y030969D01*
X017226Y031207D02*
X025211Y031207D01*
X024495Y030492D02*
X019464Y030492D01*
X019474Y030478D02*
X019430Y030539D01*
X019376Y030592D01*
X019316Y030636D01*
X019249Y030670D01*
X019177Y030694D01*
X019103Y030705D01*
X019065Y030705D01*
X019065Y030228D01*
X019065Y030228D01*
X019065Y030228D01*
X019065Y029750D01*
X019103Y029750D01*
X019177Y029762D01*
X019249Y029785D01*
X019316Y029820D01*
X019376Y029864D01*
X019430Y029917D01*
X019474Y029978D01*
X019508Y030045D01*
X019531Y030116D01*
X019543Y030190D01*
X019543Y030228D01*
X019543Y030266D01*
X019531Y030340D01*
X019508Y030411D01*
X019474Y030478D01*
X019543Y030253D02*
X024257Y030253D01*
X024018Y030015D02*
X019493Y030015D01*
X019543Y030228D02*
X019065Y030228D01*
X019543Y030228D01*
X019220Y029776D02*
X023780Y029776D01*
X023541Y029538D02*
X019456Y029538D01*
X019065Y029776D02*
X019065Y029776D01*
X018910Y029776D02*
X016938Y029776D01*
X016884Y030015D02*
X018638Y030015D01*
X019065Y030015D02*
X019065Y030015D01*
X019065Y030228D02*
X019065Y030228D01*
X019065Y030253D02*
X019065Y030253D01*
X019065Y030492D02*
X019065Y030492D01*
X018674Y029538D02*
X016881Y029538D01*
X015908Y029898D02*
X015908Y029898D01*
X015862Y030015D02*
X015957Y030015D01*
X016403Y030969D02*
X016438Y030969D01*
X016614Y031207D02*
X016226Y031207D01*
X015614Y031207D02*
X015365Y031207D01*
X014200Y031207D02*
X008676Y031207D01*
X008676Y030969D02*
X014038Y030969D01*
X013263Y030315D02*
X011100Y030315D01*
X011030Y030245D01*
X011252Y029776D02*
X011530Y029776D01*
X011575Y029538D02*
X011470Y029538D01*
X011548Y029299D02*
X011805Y029299D01*
X011613Y029061D02*
X011515Y029061D01*
X011512Y028822D02*
X011340Y028822D01*
X011425Y028584D02*
X011537Y028584D01*
X011548Y028345D02*
X011698Y028345D01*
X011659Y028107D02*
X011534Y028107D01*
X011520Y027868D02*
X011386Y027868D01*
X011379Y027630D02*
X011517Y027630D01*
X011531Y027391D02*
X011652Y027391D01*
X011705Y027153D02*
X011548Y027153D01*
X011540Y026914D02*
X011432Y026914D01*
X011512Y026676D02*
X011333Y026676D01*
X011512Y026437D02*
X011606Y026437D01*
X011548Y026199D02*
X011771Y026199D01*
X011559Y025960D02*
X011473Y025960D01*
X011989Y025006D02*
X012320Y025006D01*
X012558Y024768D02*
X011916Y024768D01*
X011749Y024529D02*
X012797Y024529D01*
X013751Y023575D02*
X007656Y023575D01*
X007656Y023337D02*
X013989Y023337D01*
X014228Y023098D02*
X007656Y023098D01*
X007656Y022860D02*
X014466Y022860D01*
X015219Y025006D02*
X015320Y025006D01*
X016013Y026676D02*
X016217Y026676D01*
X016602Y026676D02*
X016602Y026676D01*
X016602Y026914D02*
X016602Y026914D01*
X016602Y027019D02*
X016602Y027535D01*
X016602Y027019D01*
X016602Y027019D01*
X016602Y027153D02*
X016602Y027153D01*
X016602Y027391D02*
X016602Y027391D01*
X016245Y027391D02*
X015984Y027391D01*
X012889Y026437D02*
X012788Y026437D01*
X012650Y026676D02*
X012550Y026676D01*
X008929Y022621D02*
X007656Y022621D01*
X008141Y022383D02*
X008792Y022383D01*
X008774Y022144D02*
X008447Y022144D01*
X008571Y021906D02*
X008857Y021906D01*
X018919Y029081D02*
X019065Y029228D01*
X019410Y028584D02*
X021466Y028584D01*
X021704Y028345D02*
X019553Y028345D01*
X019552Y028107D02*
X021943Y028107D01*
X022039Y027868D02*
X019407Y027868D01*
X019364Y027630D02*
X021778Y027630D01*
X022851Y027391D02*
X023640Y027391D01*
X023640Y027153D02*
X022851Y027153D01*
X022823Y026914D02*
X023640Y026914D01*
X023289Y027630D02*
X023273Y027630D01*
X023273Y027868D02*
X023289Y027868D01*
X022587Y028584D02*
X022478Y028584D01*
X022240Y028822D02*
X022826Y028822D01*
X023064Y029061D02*
X022001Y029061D01*
X021763Y029299D02*
X023303Y029299D01*
X028270Y029776D02*
X029164Y029776D01*
X028925Y029538D02*
X028456Y029538D01*
X028561Y029299D02*
X028687Y029299D01*
X029110Y028822D02*
X029498Y028822D01*
X029498Y028584D02*
X028871Y028584D01*
X028633Y028345D02*
X029491Y028345D01*
X029452Y028107D02*
X028552Y028107D01*
X028407Y027868D02*
X029452Y027868D01*
X029452Y027630D02*
X028364Y027630D01*
X029348Y029061D02*
X029498Y029061D01*
X029566Y030015D02*
X028514Y030015D01*
D24*
X026090Y028122D03*
X024015Y020240D03*
X021260Y020256D03*
X024102Y010472D03*
D25*
X007821Y005961D03*
X033186Y005938D03*
X033184Y031167D03*
X007804Y031165D03*
M02*
