%
M48
M72
T01C0.0236
T02C0.0315
T03C0.0360
T04C0.0394
T05C0.0402
T06C0.0512
T07C0.0591
T08C0.0787
T09C0.0866
%
T01
X21260Y20256
X24015Y20240
X26090Y28122
X24102Y10472
T02
X24213Y7118
X23213Y7118
X22213Y7118
X21213Y7118
X21713Y6118
X22713Y6118
X23713Y6118
X20713Y6118
X18416Y7090
X17416Y7090
X16416Y7090
X16916Y6090
X17916Y6090
X15916Y6090
X13734Y7059
X12734Y7059
X11734Y7059
X11234Y6059
X12234Y6059
X13234Y6059
X19065Y11228
X19065Y12228
X19065Y13228
X19065Y14228
X19065Y15228
X19065Y16228
X19065Y17228
X19065Y18228
X19065Y19228
X19065Y20228
X19065Y21228
X19065Y22228
X19065Y23228
X19065Y24228
X19065Y25228
X19065Y26228
X19065Y27228
X19065Y28228
X19065Y29228
X19065Y30228
X16920Y30780
X15920Y30780
X15420Y29780
X16420Y29780
X16602Y27019
X15602Y27019
X12030Y26745
X12030Y25745
X11030Y26245
X11030Y27245
X11030Y28245
X11030Y29245
X11030Y30245
X12030Y29745
X12030Y28745
X12030Y27745
X17283Y21224
X17283Y20224
X28065Y20228
X28065Y21228
X28065Y22228
X28065Y23228
X28065Y24228
X28065Y25228
X28065Y26228
X28065Y27228
X28065Y28228
X28065Y29228
X28065Y30228
X28065Y19228
X28065Y18228
X28065Y17228
X28065Y16228
X28065Y15228
X28065Y14228
X28065Y13228
X28065Y12228
X28065Y11228
T03
X24160Y16573
X23160Y16573
X22160Y16573
T04
X12512Y21042
X12512Y22223
X10937Y22223
X10937Y21042
X9362Y21042
X9362Y22223
X25900Y6488
X26900Y6488
X27900Y6488
X29880Y6510
X30880Y6510
X31880Y6510
X31830Y9228
X31830Y10228
X31830Y11228
X31830Y12228
X31830Y14228
X31830Y15228
X31830Y16228
X31830Y18228
X31830Y19228
X31830Y20228
X31830Y22228
X31830Y23228
X31830Y24228
X31830Y25228
X31830Y27228
X31830Y28228
X31830Y29228
X31830Y30228
T05
X15415Y19369
X11667Y19369
X11667Y13117
X14167Y13117
X15419Y13117
T06
X8782Y13092
X8782Y11092
T07
X14372Y6202
X15278Y6946
X20075Y6974
X11174Y25108
X14783Y30637
T08
X14087Y21632
X7787Y21632
T09
X7821Y5961
X33186Y5938
X33184Y31167
X7804Y31165
M30
