%
M48
M72
T01C0.0118
T02C0.0276
T03C0.0315
T04C0.0320
T05C0.0400
T06C0.0591
T07C0.0827
%
T01
X13558Y3680
X13558Y4170
X13558Y4590
X14818Y6130
X10198Y10540
X8308Y11590
X7818Y11100
X7320Y11546
X14328Y13830
T02
X16258Y13180
X16258Y12180
X16258Y9480
X16258Y8480
X16258Y5930
X16258Y4930
X16258Y2405
X16258Y1405
X6333Y10055
X6333Y11055
X6383Y13230
X6383Y14230
T03
X4758Y5680
X5758Y5180
X4758Y4680
X5758Y4180
X4758Y3680
X5758Y3180
X4758Y2680
X5758Y2180
T04
X12008Y10730
X12008Y12630
T05
X14008Y11430
X14008Y9430
X17908Y9455
X17908Y8455
X17783Y6705
X17783Y5705
X17783Y4705
X17708Y3080
X17708Y2080
X17708Y1080
X9133Y4868
X8008Y4430
X8008Y3430
X8008Y2430
X8008Y5430
X9133Y5868
X8008Y6430
X7008Y6680
X8008Y7430
X7008Y7680
X8008Y8430
X7008Y8680
X8008Y9430
X9133Y8993
X9133Y9993
X4508Y10158
X4508Y9158
X4508Y8158
X4500Y11415
X4500Y12415
X4500Y13415
X8508Y14430
X9508Y14430
X10508Y14430
X11508Y14430
X12508Y14430
X13508Y14430
X17808Y14430
X17808Y13430
X17808Y12430
X17908Y10455
T06
X4902Y1542
T07
X3058Y1180
X19183Y1105
X19258Y14380
X3008Y14455
M30
