G75*
%MOIN*%
%OFA0B0*%
%FSLAX24Y24*%
%IPPOS*%
%LPD*%
%AMOC8*
5,1,8,0,0,1.08239X$1,22.5*
%
%ADD10C,0.0640*%
%ADD11C,0.0671*%
%ADD12C,0.0674*%
%ADD13C,0.1265*%
%ADD14R,0.0671X0.0592*%
%ADD15R,0.0710X0.0592*%
%ADD16R,0.0552X0.0552*%
%ADD17R,0.0820X0.0820*%
%ADD18C,0.0820*%
%ADD19C,0.0437*%
%ADD20C,0.1346*%
D10*
X010248Y007241D03*
X010248Y008241D03*
X011248Y007741D03*
X011248Y008741D03*
D11*
X010391Y009379D03*
D12*
X006769Y015201D02*
X006769Y015795D01*
X005769Y015795D02*
X005769Y015201D01*
D13*
X006241Y013047D02*
X006241Y011862D01*
X007821Y011862D02*
X007821Y013047D01*
X007861Y008913D02*
X007861Y007728D01*
X006281Y007728D02*
X006281Y008913D01*
X004701Y008913D02*
X004701Y007728D01*
X004661Y011862D02*
X004661Y013047D01*
D14*
X010690Y011240D03*
X010690Y010492D03*
D15*
X009381Y009194D03*
X009381Y008446D03*
X010643Y014136D03*
X010643Y014884D03*
X001777Y015104D03*
X001777Y014356D03*
D16*
X001777Y012781D03*
X001777Y011955D03*
X009381Y007233D03*
X009381Y006407D03*
X010655Y011947D03*
X010655Y012774D03*
D17*
X001781Y009820D03*
D18*
X001781Y008820D03*
X001781Y007820D03*
D19*
X003881Y010820D03*
X002381Y013820D03*
X002881Y015320D03*
X008381Y010320D03*
X009881Y010320D03*
X009881Y014820D03*
D20*
X000950Y006089D03*
X000950Y017762D03*
X011422Y017762D03*
X011422Y005989D03*
M02*
