G75*
G70*
%OFA0B0*%
%FSLAX24Y24*%
%IPPOS*%
%LPD*%
%AMOC8*
5,1,8,0,0,1.08239X$1,22.5*
%
%ADD10C,0.0515*%
%ADD11C,0.0660*%
%ADD12R,0.0630X0.0512*%
%ADD13R,0.0630X0.1063*%
%ADD14R,0.0630X0.1575*%
%ADD15C,0.0768*%
%ADD16C,0.0594*%
%ADD17R,0.0472X0.0472*%
%ADD18R,0.0512X0.0630*%
%ADD19C,0.0560*%
%ADD20C,0.0560*%
%ADD21C,0.0700*%
%ADD22C,0.1181*%
%ADD23C,0.0591*%
%ADD24C,0.0160*%
%ADD25C,0.0240*%
%ADD26C,0.0396*%
%ADD27OC8,0.1266*%
D10*
X019065Y011228D03*
X019065Y012228D03*
X019065Y013228D03*
X019065Y014228D03*
X019065Y015228D03*
X019065Y016228D03*
X019065Y017228D03*
X019065Y018228D03*
X019065Y019228D03*
X019065Y020228D03*
X019065Y021228D03*
X019065Y022228D03*
X019065Y023228D03*
X019065Y024228D03*
X019065Y025228D03*
X019065Y026228D03*
X019065Y027228D03*
X019065Y028228D03*
X019065Y029228D03*
X019065Y030228D03*
X028065Y030228D03*
X028065Y029228D03*
X028065Y028228D03*
X028065Y027228D03*
X028065Y026228D03*
X028065Y025228D03*
X028065Y024228D03*
X028065Y023228D03*
X028065Y022228D03*
X028065Y021228D03*
X028065Y020228D03*
X028065Y019228D03*
X028065Y018228D03*
X028065Y017228D03*
X028065Y016228D03*
X028065Y015228D03*
X028065Y014228D03*
X028065Y013228D03*
X028065Y012228D03*
X028065Y011228D03*
D11*
X015419Y013117D03*
X014167Y013117D03*
X011667Y013117D03*
X011667Y019369D03*
X015415Y019369D03*
D12*
X017034Y019365D03*
X017034Y018617D03*
D13*
X013414Y011482D03*
X012311Y011482D03*
D14*
X008868Y016425D03*
X008868Y018826D03*
D15*
X009166Y013092D02*
X008398Y013092D01*
X008398Y011092D02*
X009166Y011092D01*
D16*
X025900Y006785D02*
X025900Y006191D01*
X026900Y006191D02*
X026900Y006785D01*
X027900Y006785D02*
X027900Y006191D01*
X029880Y006214D02*
X029880Y006807D01*
X030880Y006807D02*
X030880Y006214D01*
X031880Y006214D02*
X031880Y006807D01*
X032127Y009228D02*
X031534Y009228D01*
X031534Y010228D02*
X032127Y010228D01*
X032127Y011228D02*
X031534Y011228D01*
X031534Y012228D02*
X032127Y012228D01*
X032127Y014228D02*
X031534Y014228D01*
X031534Y015228D02*
X032127Y015228D01*
X032127Y016228D02*
X031534Y016228D01*
X031534Y018228D02*
X032127Y018228D01*
X032127Y019228D02*
X031534Y019228D01*
X031534Y020228D02*
X032127Y020228D01*
X032127Y022228D02*
X031534Y022228D01*
X031534Y023228D02*
X032127Y023228D01*
X032127Y024228D02*
X031534Y024228D01*
X031534Y025228D02*
X032127Y025228D01*
X032127Y027228D02*
X031534Y027228D01*
X031534Y028228D02*
X032127Y028228D01*
X032127Y029228D02*
X031534Y029228D01*
X031534Y030228D02*
X032127Y030228D01*
D17*
X010786Y023998D03*
X009959Y023998D03*
D18*
X008680Y024006D03*
X007932Y024006D03*
D19*
X022160Y016853D02*
X022160Y016293D01*
X023160Y016293D02*
X023160Y016853D01*
X024160Y016853D02*
X024160Y016293D01*
D20*
X024213Y007118D03*
X023213Y007118D03*
X022213Y007118D03*
X021213Y007118D03*
X021713Y006118D03*
X022713Y006118D03*
X023713Y006118D03*
X020713Y006118D03*
X018416Y007090D03*
X017416Y007090D03*
X016416Y007090D03*
X016916Y006090D03*
X017916Y006090D03*
X015916Y006090D03*
X013734Y007059D03*
X012734Y007059D03*
X011734Y007059D03*
X011234Y006059D03*
X012234Y006059D03*
X013234Y006059D03*
X012030Y025745D03*
X012030Y026745D03*
X011030Y026245D03*
X011030Y027245D03*
X011030Y028245D03*
X011030Y029245D03*
X011030Y030245D03*
X012030Y029745D03*
X012030Y028745D03*
X012030Y027745D03*
X015420Y029780D03*
X016420Y029780D03*
X015920Y030780D03*
X016920Y030780D03*
D21*
X012512Y022223D03*
X012512Y021042D03*
X010937Y021042D03*
X010937Y022223D03*
X009362Y022223D03*
X009362Y021042D03*
D22*
X007787Y021632D03*
X014087Y021632D03*
D23*
X017283Y021224D03*
X017283Y020224D03*
X016602Y027019D03*
X015602Y027019D03*
D24*
X015770Y024737D02*
X012268Y028239D01*
X011824Y028239D01*
X011281Y028782D01*
X011281Y028995D01*
X011030Y029245D01*
X011030Y028245D02*
X011432Y027843D01*
X011432Y027588D01*
X011774Y027246D01*
X012235Y027246D01*
X015754Y023727D01*
X027567Y023727D01*
X028065Y023228D01*
X027560Y022733D02*
X015705Y022733D01*
X012194Y026244D01*
X011811Y026244D01*
X011372Y026684D01*
X011372Y026904D01*
X011030Y027245D01*
X011030Y026245D02*
X011030Y025996D01*
X015285Y021742D01*
X027551Y021742D01*
X028065Y021228D01*
X028065Y022228D02*
X027560Y022733D01*
X028065Y024228D02*
X027556Y024737D01*
X015770Y024737D01*
X017287Y021228D02*
X017283Y021224D01*
X017287Y021228D02*
X019065Y021228D01*
X019065Y020228D02*
X019061Y020224D01*
X017283Y020224D01*
X019065Y019228D02*
X021213Y017080D01*
X021213Y010072D01*
X019620Y008479D01*
X019620Y006780D01*
X018930Y006090D01*
X017916Y006090D01*
X017648Y006578D02*
X018771Y006578D01*
X019105Y006912D01*
X019099Y008759D01*
X020718Y010379D01*
X020726Y016565D01*
X020726Y016567D01*
X019065Y018228D01*
X019065Y017228D02*
X020271Y016023D01*
X020271Y010656D01*
X018416Y008802D01*
X018416Y007090D01*
X017648Y006578D02*
X017160Y006090D01*
X016916Y006090D01*
X017416Y007090D02*
X017416Y008446D01*
X019843Y010874D01*
X019843Y015499D01*
X019114Y016228D01*
X019065Y016228D01*
X019065Y015228D02*
X012234Y008397D01*
X012234Y006059D01*
X013234Y006059D02*
X013234Y007397D01*
X019065Y013228D01*
X019065Y014228D02*
X012734Y007897D01*
X012734Y007059D01*
X013734Y007059D02*
X013896Y007059D01*
X019065Y012228D01*
X020863Y007118D02*
X019781Y006035D01*
X019781Y005487D01*
X019715Y005421D01*
X020863Y007118D02*
X021213Y007118D01*
X021713Y006118D02*
X023213Y007118D01*
X019065Y028228D02*
X017973Y028228D01*
X016420Y029780D01*
X015920Y030780D02*
X016762Y031626D01*
X026616Y031626D01*
X028065Y030228D01*
X028065Y029228D02*
X026047Y031246D01*
X017386Y031246D01*
X016920Y030780D01*
D25*
X016420Y030634D02*
X016481Y030487D01*
X016627Y030341D01*
X016817Y030262D01*
X017023Y030262D01*
X017214Y030341D01*
X017360Y030487D01*
X017438Y030677D01*
X017438Y030849D01*
X017518Y030928D01*
X025915Y030928D01*
X027570Y029274D01*
X027570Y029129D01*
X027645Y028947D01*
X027785Y028808D01*
X027967Y028732D01*
X028164Y028732D01*
X028346Y028808D01*
X028486Y028947D01*
X028561Y029129D01*
X028561Y029327D01*
X028486Y029509D01*
X028346Y029648D01*
X028164Y029724D01*
X028020Y029724D01*
X028011Y029732D01*
X028164Y029732D01*
X028346Y029808D01*
X028486Y029947D01*
X028561Y030129D01*
X028561Y030327D01*
X028486Y030509D01*
X028346Y030648D01*
X028164Y030724D01*
X028010Y030724D01*
X027379Y031333D01*
X032312Y031331D01*
X032312Y030806D01*
X032823Y030296D01*
X033343Y030296D01*
X033342Y006809D01*
X032825Y006809D01*
X032397Y006381D01*
X032397Y006510D01*
X031880Y006510D01*
X031880Y006510D01*
X031880Y007324D01*
X031840Y007324D01*
X031759Y007311D01*
X031682Y007286D01*
X031609Y007249D01*
X031544Y007202D01*
X031486Y007144D01*
X031438Y007078D01*
X031401Y007006D01*
X031391Y006973D01*
X031351Y007069D01*
X032021Y007739D01*
X032496Y007739D01*
X032628Y007793D01*
X033102Y008268D01*
X033203Y008368D01*
X033257Y008500D01*
X033257Y022073D01*
X033258Y022073D01*
X033257Y022144D01*
X033257Y022215D01*
X033246Y027925D01*
X033246Y027996D01*
X033245Y027996D01*
X033245Y027996D01*
X033218Y028062D01*
X033191Y028127D01*
X033191Y028128D01*
X033140Y028178D01*
X032888Y028431D01*
X032787Y028532D01*
X032655Y028586D01*
X032526Y028586D01*
X032430Y028681D01*
X032318Y028728D01*
X032430Y028774D01*
X032581Y028925D01*
X032662Y029122D01*
X032662Y029334D01*
X032581Y029531D01*
X032430Y029681D01*
X032293Y029738D01*
X032326Y029749D01*
X032398Y029786D01*
X032464Y029834D01*
X032521Y029891D01*
X032569Y029957D01*
X032606Y030030D01*
X032631Y030107D01*
X032644Y030187D01*
X032644Y030228D01*
X032644Y030269D01*
X032631Y030349D01*
X032606Y030426D01*
X032569Y030499D01*
X032521Y030565D01*
X032464Y030622D01*
X032398Y030670D01*
X032326Y030707D01*
X032248Y030732D01*
X032168Y030745D01*
X031830Y030745D01*
X031493Y030745D01*
X031413Y030732D01*
X031335Y030707D01*
X031263Y030670D01*
X031197Y030622D01*
X031139Y030565D01*
X031091Y030499D01*
X031055Y030426D01*
X031029Y030349D01*
X031017Y030269D01*
X031017Y030228D01*
X031830Y030228D01*
X031830Y030228D01*
X031017Y030228D01*
X031017Y030187D01*
X031029Y030107D01*
X031055Y030030D01*
X031091Y029957D01*
X031139Y029891D01*
X031197Y029834D01*
X031263Y029786D01*
X031335Y029749D01*
X031368Y029738D01*
X031230Y029681D01*
X031080Y029531D01*
X030999Y029334D01*
X030999Y029122D01*
X031080Y028925D01*
X031230Y028774D01*
X031343Y028728D01*
X031230Y028681D01*
X031080Y028531D01*
X030999Y028334D01*
X030999Y028122D01*
X031080Y027925D01*
X031230Y027774D01*
X031343Y027728D01*
X031230Y027681D01*
X031080Y027531D01*
X030999Y027334D01*
X030999Y027122D01*
X031080Y026925D01*
X031230Y026774D01*
X031427Y026693D01*
X032234Y026693D01*
X032430Y026774D01*
X032531Y026876D01*
X032534Y025547D01*
X032521Y025565D01*
X032464Y025622D01*
X032398Y025670D01*
X032326Y025707D01*
X032248Y025732D01*
X032168Y025745D01*
X031830Y025745D01*
X031493Y025745D01*
X031413Y025732D01*
X031335Y025707D01*
X031263Y025670D01*
X031197Y025622D01*
X031139Y025565D01*
X031091Y025499D01*
X031055Y025426D01*
X031029Y025349D01*
X031017Y025269D01*
X031017Y025228D01*
X031830Y025228D01*
X031830Y025228D01*
X031017Y025228D01*
X031017Y025187D01*
X031029Y025107D01*
X031055Y025030D01*
X031091Y024957D01*
X031139Y024891D01*
X031197Y024834D01*
X031263Y024786D01*
X031335Y024749D01*
X031368Y024738D01*
X031230Y024681D01*
X031080Y024531D01*
X030999Y024334D01*
X030999Y024122D01*
X031080Y023925D01*
X031230Y023774D01*
X031343Y023728D01*
X031230Y023681D01*
X031080Y023531D01*
X030999Y023334D01*
X030999Y023122D01*
X031080Y022925D01*
X031230Y022774D01*
X031343Y022728D01*
X031230Y022681D01*
X031080Y022531D01*
X030999Y022334D01*
X030999Y022122D01*
X031080Y021925D01*
X031230Y021774D01*
X031427Y021693D01*
X032234Y021693D01*
X032430Y021774D01*
X032526Y021870D01*
X032541Y021870D01*
X032541Y020538D01*
X032521Y020565D01*
X032464Y020622D01*
X032398Y020670D01*
X032326Y020707D01*
X032248Y020732D01*
X032168Y020745D01*
X031830Y020745D01*
X031493Y020745D01*
X031413Y020732D01*
X031335Y020707D01*
X031263Y020670D01*
X031197Y020622D01*
X031139Y020565D01*
X031091Y020499D01*
X031055Y020426D01*
X031029Y020349D01*
X031017Y020269D01*
X031017Y020228D01*
X031830Y020228D01*
X031830Y020228D01*
X031017Y020228D01*
X031017Y020187D01*
X031029Y020107D01*
X031055Y020030D01*
X031091Y019957D01*
X031139Y019891D01*
X031197Y019834D01*
X031263Y019786D01*
X031335Y019749D01*
X031368Y019738D01*
X031230Y019681D01*
X031080Y019531D01*
X030999Y019334D01*
X030999Y019122D01*
X031080Y018925D01*
X031230Y018774D01*
X031343Y018728D01*
X031230Y018681D01*
X031080Y018531D01*
X030999Y018334D01*
X030999Y018122D01*
X031080Y017925D01*
X031230Y017774D01*
X031427Y017693D01*
X032234Y017693D01*
X032430Y017774D01*
X032541Y017885D01*
X032541Y016538D01*
X032521Y016565D01*
X032464Y016622D01*
X032398Y016670D01*
X032326Y016707D01*
X032248Y016732D01*
X032168Y016745D01*
X031830Y016745D01*
X031493Y016745D01*
X031413Y016732D01*
X031335Y016707D01*
X031263Y016670D01*
X031197Y016622D01*
X031139Y016565D01*
X031091Y016499D01*
X031055Y016426D01*
X031029Y016349D01*
X031017Y016269D01*
X031017Y016228D01*
X031830Y016228D01*
X031830Y016228D01*
X031017Y016228D01*
X031017Y016187D01*
X031029Y016107D01*
X031055Y016030D01*
X031091Y015957D01*
X031139Y015891D01*
X031197Y015834D01*
X031263Y015786D01*
X031335Y015749D01*
X031368Y015738D01*
X031230Y015681D01*
X031080Y015531D01*
X030999Y015334D01*
X030999Y015122D01*
X031080Y014925D01*
X031230Y014774D01*
X031343Y014728D01*
X031230Y014681D01*
X031080Y014531D01*
X030999Y014334D01*
X030999Y014122D01*
X031080Y013925D01*
X031230Y013774D01*
X031427Y013693D01*
X032234Y013693D01*
X032430Y013774D01*
X032541Y013885D01*
X032541Y012571D01*
X032430Y012681D01*
X032234Y012763D01*
X031427Y012763D01*
X031230Y012681D01*
X031080Y012531D01*
X030999Y012334D01*
X030999Y012122D01*
X031080Y011925D01*
X031230Y011774D01*
X031343Y011728D01*
X031230Y011681D01*
X031080Y011531D01*
X030999Y011334D01*
X030999Y011122D01*
X031080Y010925D01*
X031230Y010774D01*
X031343Y010728D01*
X031230Y010681D01*
X031080Y010531D01*
X030999Y010334D01*
X030999Y010122D01*
X031080Y009925D01*
X031230Y009774D01*
X031368Y009718D01*
X031335Y009707D01*
X031263Y009670D01*
X031197Y009622D01*
X031139Y009565D01*
X031091Y009499D01*
X031055Y009426D01*
X031029Y009349D01*
X031017Y009269D01*
X031017Y009228D01*
X031830Y009228D01*
X031830Y009228D01*
X031017Y009228D01*
X031017Y009187D01*
X031029Y009107D01*
X031055Y009030D01*
X031091Y008957D01*
X031139Y008891D01*
X031197Y008834D01*
X031263Y008786D01*
X031335Y008749D01*
X031413Y008724D01*
X031493Y008711D01*
X031830Y008711D01*
X031830Y009228D01*
X031830Y009228D01*
X031830Y008711D01*
X032168Y008711D01*
X032248Y008724D01*
X032326Y008749D01*
X032398Y008786D01*
X032464Y008834D01*
X032521Y008891D01*
X032541Y008918D01*
X032541Y008720D01*
X032277Y008455D01*
X031801Y008455D01*
X031670Y008400D01*
X031569Y008300D01*
X030577Y007308D01*
X030543Y007227D01*
X030427Y007110D01*
X030380Y006998D01*
X030334Y007110D01*
X030183Y007261D01*
X029987Y007342D01*
X029774Y007342D01*
X029577Y007261D01*
X029427Y007110D01*
X029345Y006914D01*
X029345Y006107D01*
X029427Y005911D01*
X029554Y005783D01*
X028220Y005785D01*
X028237Y005797D01*
X028295Y005854D01*
X028342Y005920D01*
X028379Y005993D01*
X028405Y006070D01*
X028417Y006150D01*
X028417Y006488D01*
X028417Y006825D01*
X028405Y006906D01*
X028379Y006983D01*
X028342Y007056D01*
X028295Y007122D01*
X028237Y007179D01*
X028171Y007227D01*
X028099Y007264D01*
X028021Y007289D01*
X027941Y007302D01*
X027900Y007302D01*
X027860Y007302D01*
X027779Y007289D01*
X027702Y007264D01*
X027629Y007227D01*
X027564Y007179D01*
X027506Y007122D01*
X027458Y007056D01*
X027421Y006983D01*
X027411Y006951D01*
X027354Y007088D01*
X027203Y007238D01*
X027007Y007320D01*
X026794Y007320D01*
X026597Y007238D01*
X026447Y007088D01*
X026400Y006976D01*
X026354Y007088D01*
X026203Y007238D01*
X026007Y007320D01*
X025794Y007320D01*
X025597Y007238D01*
X025447Y007088D01*
X025365Y006891D01*
X025365Y006085D01*
X025447Y005888D01*
X025548Y005787D01*
X024116Y005789D01*
X024152Y005824D01*
X024231Y006015D01*
X024231Y006221D01*
X024152Y006411D01*
X024006Y006557D01*
X023816Y006636D01*
X023610Y006636D01*
X023419Y006557D01*
X023274Y006411D01*
X023213Y006265D01*
X023152Y006411D01*
X023006Y006557D01*
X022969Y006573D01*
X023048Y006626D01*
X023110Y006600D01*
X023316Y006600D01*
X023506Y006679D01*
X023652Y006824D01*
X023725Y007001D01*
X023725Y007001D01*
X023749Y006926D01*
X023785Y006856D01*
X023831Y006792D01*
X023887Y006737D01*
X023951Y006690D01*
X024021Y006655D01*
X024096Y006630D01*
X024173Y006618D01*
X024213Y006618D01*
X024252Y006618D01*
X024330Y006630D01*
X024405Y006655D01*
X024475Y006690D01*
X024539Y006737D01*
X024594Y006792D01*
X024640Y006856D01*
X024676Y006926D01*
X024700Y007001D01*
X024713Y007079D01*
X024713Y007118D01*
X024713Y007157D01*
X024700Y007235D01*
X024676Y007310D01*
X024640Y007380D01*
X024594Y007444D01*
X024539Y007499D01*
X024475Y007546D01*
X024405Y007581D01*
X024330Y007606D01*
X024252Y007618D01*
X024213Y007618D01*
X024213Y007118D01*
X024713Y007118D01*
X024213Y007118D01*
X024213Y007118D01*
X024213Y007118D01*
X024213Y006618D01*
X024213Y007118D01*
X024213Y007118D01*
X024213Y007618D01*
X024173Y007618D01*
X024096Y007606D01*
X024021Y007581D01*
X023951Y007546D01*
X023887Y007499D01*
X023831Y007444D01*
X023785Y007380D01*
X023749Y007310D01*
X023725Y007235D01*
X023652Y007411D01*
X023506Y007557D01*
X023316Y007636D01*
X023110Y007636D01*
X022919Y007557D01*
X022774Y007411D01*
X022713Y007265D01*
X022652Y007411D01*
X022506Y007557D01*
X022316Y007636D01*
X022110Y007636D01*
X021919Y007557D01*
X021774Y007411D01*
X021713Y007265D01*
X021652Y007411D01*
X021506Y007557D01*
X021316Y007636D01*
X021110Y007636D01*
X020919Y007557D01*
X020797Y007435D01*
X020771Y007424D01*
X020766Y007436D01*
X020537Y007665D01*
X020237Y007790D01*
X019938Y007790D01*
X019938Y008347D01*
X021393Y009803D01*
X021483Y009892D01*
X021531Y010009D01*
X021531Y017144D01*
X021483Y017260D01*
X019561Y019182D01*
X019561Y019327D01*
X019486Y019509D01*
X019346Y019648D01*
X019164Y019724D01*
X018967Y019724D01*
X018785Y019648D01*
X018645Y019509D01*
X018570Y019327D01*
X018570Y019129D01*
X018645Y018947D01*
X018785Y018808D01*
X018967Y018732D01*
X019111Y018732D01*
X019120Y018724D01*
X018967Y018724D01*
X018785Y018648D01*
X018645Y018509D01*
X018570Y018327D01*
X018570Y018129D01*
X018645Y017947D01*
X018785Y017808D01*
X018967Y017732D01*
X019111Y017732D01*
X019120Y017724D01*
X018967Y017724D01*
X018785Y017648D01*
X018645Y017509D01*
X018570Y017327D01*
X018570Y017129D01*
X018645Y016947D01*
X018785Y016808D01*
X018967Y016732D01*
X019111Y016732D01*
X019120Y016724D01*
X018967Y016724D01*
X018785Y016648D01*
X018645Y016509D01*
X018570Y016327D01*
X018570Y016129D01*
X018645Y015947D01*
X018785Y015808D01*
X018967Y015732D01*
X019160Y015732D01*
X019172Y015720D01*
X019164Y015724D01*
X018967Y015724D01*
X018785Y015648D01*
X018645Y015509D01*
X018570Y015327D01*
X018570Y015182D01*
X011964Y008577D01*
X011916Y008460D01*
X011916Y007525D01*
X011851Y007546D01*
X011773Y007559D01*
X011734Y007559D01*
X011695Y007559D01*
X011617Y007546D01*
X011542Y007522D01*
X011472Y007486D01*
X011408Y007440D01*
X011353Y007384D01*
X011306Y007321D01*
X011271Y007251D01*
X011246Y007176D01*
X011234Y007098D01*
X011234Y007059D01*
X011734Y007059D01*
X011734Y007559D01*
X011734Y007059D01*
X011734Y007059D01*
X011734Y007059D01*
X011234Y007059D01*
X011234Y007019D01*
X011246Y006942D01*
X011271Y006867D01*
X011306Y006797D01*
X011353Y006733D01*
X011408Y006677D01*
X011472Y006631D01*
X011542Y006595D01*
X011617Y006571D01*
X011695Y006559D01*
X011734Y006559D01*
X011734Y007059D01*
X011734Y007059D01*
X011734Y006559D01*
X011773Y006559D01*
X011851Y006571D01*
X011916Y006592D01*
X011916Y006473D01*
X011795Y006352D01*
X011734Y006205D01*
X011673Y006352D01*
X011528Y006498D01*
X011337Y006577D01*
X011131Y006577D01*
X010941Y006498D01*
X010795Y006352D01*
X010716Y006162D01*
X010716Y005956D01*
X010780Y005802D01*
X008692Y005804D01*
X008692Y006321D01*
X008181Y006832D01*
X007666Y006832D01*
X007658Y020804D01*
X007952Y020804D01*
X008257Y020930D01*
X008490Y021163D01*
X008616Y021467D01*
X008616Y021797D01*
X008490Y022102D01*
X008257Y022335D01*
X007952Y022461D01*
X007657Y022461D01*
X007656Y023471D01*
X007924Y023471D01*
X007924Y023998D01*
X007940Y023998D01*
X007940Y023471D01*
X008217Y023471D01*
X008273Y023486D01*
X008285Y023493D01*
X008325Y023453D01*
X009034Y023453D01*
X009174Y023592D01*
X009174Y023648D01*
X009500Y023648D01*
X009624Y023523D01*
X010294Y023523D01*
X010373Y023602D01*
X010451Y023523D01*
X010754Y023523D01*
X011928Y022349D01*
X011924Y022340D01*
X011924Y022106D01*
X012013Y021890D01*
X012154Y021749D01*
X012154Y021515D01*
X012013Y021375D01*
X011924Y021159D01*
X011924Y020925D01*
X012013Y020709D01*
X012179Y020543D01*
X012395Y020454D01*
X012629Y020454D01*
X012845Y020543D01*
X013010Y020709D01*
X013100Y020925D01*
X013100Y021159D01*
X013010Y021375D01*
X012870Y021515D01*
X012870Y021749D01*
X013010Y021890D01*
X013100Y022106D01*
X013100Y022340D01*
X013010Y022556D01*
X012845Y022721D01*
X012629Y022811D01*
X012479Y022811D01*
X012471Y022819D01*
X012434Y022863D01*
X012421Y022869D01*
X011260Y024030D01*
X011260Y024292D01*
X011336Y024292D01*
X011636Y024416D01*
X011865Y024646D01*
X011885Y024692D01*
X014116Y022461D01*
X013922Y022461D01*
X013617Y022335D01*
X013384Y022102D01*
X013258Y021797D01*
X013258Y021467D01*
X013384Y021163D01*
X013617Y020930D01*
X013922Y020804D01*
X014252Y020804D01*
X014556Y020930D01*
X014789Y021163D01*
X014915Y021467D01*
X014915Y021662D01*
X015105Y021472D01*
X015221Y021424D01*
X016789Y021424D01*
X016750Y021330D01*
X016750Y021118D01*
X016831Y020922D01*
X016981Y020772D01*
X017096Y020724D01*
X016981Y020676D01*
X016831Y020526D01*
X016750Y020330D01*
X016750Y020118D01*
X016831Y019922D01*
X016894Y019859D01*
X016620Y019859D01*
X016489Y019727D01*
X015860Y019727D01*
X015737Y019851D01*
X015528Y019937D01*
X015302Y019937D01*
X015093Y019851D01*
X014933Y019691D01*
X014847Y019482D01*
X014847Y019256D01*
X014933Y019047D01*
X015093Y018888D01*
X015302Y018801D01*
X015528Y018801D01*
X015737Y018888D01*
X015860Y019011D01*
X016481Y019011D01*
X016481Y019011D01*
X016521Y018970D01*
X016514Y018958D01*
X016499Y018902D01*
X016499Y018625D01*
X017026Y018625D01*
X017026Y018609D01*
X017042Y018609D01*
X017042Y018141D01*
X017378Y018141D01*
X017434Y018156D01*
X017484Y018185D01*
X017525Y018226D01*
X017554Y018276D01*
X017569Y018332D01*
X017569Y018609D01*
X017042Y018609D01*
X017042Y018625D01*
X017569Y018625D01*
X017569Y018902D01*
X017554Y018958D01*
X017547Y018970D01*
X017587Y019011D01*
X017587Y019720D01*
X017550Y019757D01*
X017585Y019772D01*
X017719Y019906D01*
X018687Y019906D01*
X018785Y019808D01*
X018967Y019732D01*
X019164Y019732D01*
X019346Y019808D01*
X019486Y019947D01*
X019561Y020129D01*
X019561Y020327D01*
X019486Y020509D01*
X019346Y020648D01*
X019164Y020724D01*
X018967Y020724D01*
X018785Y020648D01*
X018679Y020542D01*
X017719Y020542D01*
X017585Y020676D01*
X017470Y020724D01*
X017585Y020772D01*
X017723Y020910D01*
X018683Y020910D01*
X018785Y020808D01*
X018967Y020732D01*
X019164Y020732D01*
X019346Y020808D01*
X019486Y020947D01*
X019561Y021129D01*
X019561Y021327D01*
X019521Y021424D01*
X027419Y021424D01*
X027570Y021274D01*
X027570Y021129D01*
X027645Y020947D01*
X027785Y020808D01*
X027967Y020732D01*
X028164Y020732D01*
X028346Y020808D01*
X028486Y020947D01*
X028561Y021129D01*
X028561Y021327D01*
X028486Y021509D01*
X028346Y021648D01*
X028164Y021724D01*
X028020Y021724D01*
X028011Y021732D01*
X028164Y021732D01*
X028346Y021808D01*
X028486Y021947D01*
X028561Y022129D01*
X028561Y022327D01*
X028486Y022509D01*
X028346Y022648D01*
X028164Y022724D01*
X028020Y022724D01*
X028011Y022732D01*
X028164Y022732D01*
X028346Y022808D01*
X028486Y022947D01*
X028561Y023129D01*
X028561Y023327D01*
X028486Y023509D01*
X028346Y023648D01*
X028164Y023724D01*
X028020Y023724D01*
X028011Y023732D01*
X028164Y023732D01*
X028346Y023808D01*
X028486Y023947D01*
X028561Y024129D01*
X028561Y024327D01*
X028486Y024509D01*
X028346Y024648D01*
X028164Y024724D01*
X028020Y024724D01*
X028011Y024732D01*
X028164Y024732D01*
X028346Y024808D01*
X028486Y024947D01*
X028561Y025129D01*
X028561Y025327D01*
X028486Y025509D01*
X028346Y025648D01*
X028164Y025724D01*
X027967Y025724D01*
X027785Y025648D01*
X027645Y025509D01*
X027570Y025327D01*
X027570Y025129D01*
X027601Y025055D01*
X019530Y025055D01*
X019561Y025129D01*
X019561Y025327D01*
X019486Y025509D01*
X019346Y025648D01*
X019164Y025724D01*
X018967Y025724D01*
X018785Y025648D01*
X018645Y025509D01*
X018570Y025327D01*
X018570Y025129D01*
X018601Y025055D01*
X015902Y025055D01*
X012538Y028419D01*
X012480Y028477D01*
X012548Y028642D01*
X012548Y028849D01*
X012470Y029039D01*
X012324Y029185D01*
X012147Y029258D01*
X012147Y029258D01*
X012222Y029282D01*
X012292Y029318D01*
X012356Y029364D01*
X012412Y029420D01*
X012458Y029483D01*
X012494Y029554D01*
X012518Y029628D01*
X012530Y029706D01*
X012530Y029745D01*
X012030Y029745D01*
X011530Y029745D01*
X011530Y029706D01*
X011543Y029628D01*
X011567Y029554D01*
X011603Y029483D01*
X011649Y029420D01*
X011705Y029364D01*
X011768Y029318D01*
X011838Y029282D01*
X011913Y029258D01*
X011913Y029258D01*
X011737Y029185D01*
X011599Y029047D01*
X011599Y029058D01*
X011551Y029175D01*
X011548Y029177D01*
X011548Y029349D01*
X011470Y029539D01*
X011324Y029685D01*
X011177Y029745D01*
X011324Y029806D01*
X011470Y029952D01*
X011548Y030142D01*
X011548Y030349D01*
X011470Y030539D01*
X011324Y030685D01*
X011133Y030764D01*
X010927Y030764D01*
X010737Y030685D01*
X010591Y030539D01*
X010512Y030349D01*
X010512Y030234D01*
X009295Y029017D01*
X009241Y028885D01*
X009241Y025488D01*
X009295Y025357D01*
X009396Y025256D01*
X010180Y024472D01*
X009624Y024472D01*
X009516Y024364D01*
X009174Y024364D01*
X009174Y024419D01*
X009034Y024559D01*
X008325Y024559D01*
X008285Y024519D01*
X008273Y024526D01*
X008217Y024541D01*
X007940Y024541D01*
X007940Y024014D01*
X007924Y024014D01*
X007924Y024541D01*
X007655Y024541D01*
X007652Y030293D01*
X008165Y030293D01*
X008676Y030804D01*
X008676Y031338D01*
X014341Y031336D01*
X014321Y031328D01*
X014091Y031099D01*
X013967Y030799D01*
X013967Y030475D01*
X014091Y030175D01*
X014321Y029946D01*
X014620Y029821D01*
X014921Y029821D01*
X014920Y029820D01*
X014920Y029780D01*
X014920Y029741D01*
X014933Y029663D01*
X014957Y029589D01*
X014993Y029518D01*
X015039Y029455D01*
X015095Y029399D01*
X015158Y029353D01*
X015228Y029317D01*
X015303Y029293D01*
X015381Y029280D01*
X015420Y029280D01*
X015420Y029780D01*
X015420Y029780D01*
X014920Y029780D01*
X015420Y029780D01*
X015420Y029780D01*
X015420Y029280D01*
X015460Y029280D01*
X015537Y029293D01*
X015612Y029317D01*
X015682Y029353D01*
X015746Y029399D01*
X015802Y029455D01*
X015848Y029518D01*
X015884Y029589D01*
X015908Y029663D01*
X015908Y029663D01*
X015981Y029487D01*
X016127Y029341D01*
X016317Y029262D01*
X016489Y029262D01*
X017703Y028048D01*
X017793Y027958D01*
X017910Y027910D01*
X018683Y027910D01*
X018785Y027808D01*
X018967Y027732D01*
X019164Y027732D01*
X019346Y027808D01*
X019486Y027947D01*
X019561Y028129D01*
X019561Y028327D01*
X019486Y028509D01*
X019346Y028648D01*
X019164Y028724D01*
X018967Y028724D01*
X018785Y028648D01*
X018683Y028546D01*
X018105Y028546D01*
X016938Y029712D01*
X016938Y029884D01*
X016860Y030074D01*
X016714Y030220D01*
X016523Y030299D01*
X016317Y030299D01*
X016127Y030220D01*
X015981Y030074D01*
X015908Y029898D01*
X015884Y029972D01*
X015848Y030043D01*
X015802Y030106D01*
X015746Y030162D01*
X015682Y030208D01*
X015612Y030244D01*
X015537Y030268D01*
X015514Y030272D01*
X015567Y030401D01*
X015627Y030341D01*
X015817Y030262D01*
X016023Y030262D01*
X016214Y030341D01*
X016360Y030487D01*
X016420Y030634D01*
X016362Y030492D02*
X016479Y030492D01*
X016633Y030253D02*
X018588Y030253D01*
X018588Y030266D02*
X018588Y030228D01*
X019065Y030228D01*
X019065Y030228D01*
X018588Y030228D01*
X018588Y030190D01*
X018600Y030116D01*
X018623Y030045D01*
X018657Y029978D01*
X018701Y029917D01*
X018754Y029864D01*
X018815Y029820D01*
X018882Y029785D01*
X018954Y029762D01*
X019028Y029750D01*
X019065Y029750D01*
X019065Y030228D01*
X019065Y030705D01*
X019028Y030705D01*
X018954Y030694D01*
X018882Y030670D01*
X018815Y030636D01*
X018754Y030592D01*
X018701Y030539D01*
X018657Y030478D01*
X018623Y030411D01*
X018600Y030340D01*
X018588Y030266D01*
X018667Y030492D02*
X017362Y030492D01*
X017438Y030730D02*
X026113Y030730D01*
X026352Y030492D02*
X019464Y030492D01*
X019474Y030478D02*
X019430Y030539D01*
X019376Y030592D01*
X019316Y030636D01*
X019249Y030670D01*
X019177Y030694D01*
X019103Y030705D01*
X019065Y030705D01*
X019065Y030228D01*
X019065Y030228D01*
X019065Y030228D01*
X019065Y029750D01*
X019103Y029750D01*
X019177Y029762D01*
X019249Y029785D01*
X019316Y029820D01*
X019376Y029864D01*
X019430Y029917D01*
X019474Y029978D01*
X019508Y030045D01*
X019531Y030116D01*
X019543Y030190D01*
X019543Y030228D01*
X019543Y030266D01*
X019531Y030340D01*
X019508Y030411D01*
X019474Y030478D01*
X019543Y030253D02*
X026590Y030253D01*
X026829Y030015D02*
X019493Y030015D01*
X019543Y030228D02*
X019065Y030228D01*
X019543Y030228D01*
X019220Y029776D02*
X027067Y029776D01*
X027306Y029538D02*
X019456Y029538D01*
X019486Y029509D02*
X019346Y029648D01*
X019164Y029724D01*
X018967Y029724D01*
X018785Y029648D01*
X018645Y029509D01*
X018570Y029327D01*
X018570Y029129D01*
X018645Y028947D01*
X018785Y028808D01*
X018967Y028732D01*
X019164Y028732D01*
X019346Y028808D01*
X019486Y028947D01*
X019561Y029129D01*
X019561Y029327D01*
X019486Y029509D01*
X019561Y029299D02*
X027544Y029299D01*
X027598Y029061D02*
X019533Y029061D01*
X019361Y028822D02*
X027770Y028822D01*
X027785Y028648D02*
X027967Y028724D01*
X028164Y028724D01*
X028346Y028648D01*
X028486Y028509D01*
X028561Y028327D01*
X028561Y028129D01*
X028486Y027947D01*
X028346Y027808D01*
X028164Y027732D01*
X027967Y027732D01*
X027785Y027808D01*
X027645Y027947D01*
X027570Y028129D01*
X027570Y028327D01*
X027645Y028509D01*
X027785Y028648D01*
X027720Y028584D02*
X019410Y028584D01*
X019553Y028345D02*
X027578Y028345D01*
X027579Y028107D02*
X019552Y028107D01*
X019407Y027868D02*
X027724Y027868D01*
X027785Y027648D02*
X027967Y027724D01*
X028164Y027724D01*
X028346Y027648D01*
X028486Y027509D01*
X028561Y027327D01*
X028561Y027129D01*
X028486Y026947D01*
X028346Y026808D01*
X028164Y026732D01*
X027967Y026732D01*
X027785Y026808D01*
X027645Y026947D01*
X027570Y027129D01*
X027570Y027327D01*
X027645Y027509D01*
X027785Y027648D01*
X027766Y027630D02*
X019364Y027630D01*
X019346Y027648D02*
X019164Y027724D01*
X018967Y027724D01*
X018785Y027648D01*
X018645Y027509D01*
X018570Y027327D01*
X018570Y027129D01*
X018645Y026947D01*
X018785Y026808D01*
X018967Y026732D01*
X019164Y026732D01*
X019346Y026808D01*
X019486Y026947D01*
X019561Y027129D01*
X019561Y027327D01*
X019486Y027509D01*
X019346Y027648D01*
X019534Y027391D02*
X027597Y027391D01*
X027570Y027153D02*
X019561Y027153D01*
X019453Y026914D02*
X027678Y026914D01*
X027785Y026648D02*
X027645Y026509D01*
X027570Y026327D01*
X027570Y026129D01*
X027645Y025947D01*
X027785Y025808D01*
X027967Y025732D01*
X028164Y025732D01*
X028346Y025808D01*
X028486Y025947D01*
X028561Y026129D01*
X028561Y026327D01*
X028486Y026509D01*
X028346Y026648D01*
X028164Y026724D01*
X027967Y026724D01*
X027785Y026648D01*
X027851Y026676D02*
X019279Y026676D01*
X019346Y026648D02*
X019164Y026724D01*
X018967Y026724D01*
X018785Y026648D01*
X018645Y026509D01*
X018570Y026327D01*
X018570Y026129D01*
X018645Y025947D01*
X018785Y025808D01*
X018967Y025732D01*
X019164Y025732D01*
X019346Y025808D01*
X019486Y025947D01*
X019561Y026129D01*
X019561Y026327D01*
X019486Y026509D01*
X019346Y026648D01*
X019515Y026437D02*
X027616Y026437D01*
X027570Y026199D02*
X019561Y026199D01*
X019491Y025960D02*
X027640Y025960D01*
X027963Y025722D02*
X019168Y025722D01*
X018963Y025722D02*
X015235Y025722D01*
X014997Y025960D02*
X018640Y025960D01*
X018570Y026199D02*
X014758Y026199D01*
X014520Y026437D02*
X018616Y026437D01*
X018851Y026676D02*
X016987Y026676D01*
X016995Y026684D02*
X017043Y026749D01*
X017080Y026821D01*
X017105Y026899D01*
X017117Y026979D01*
X017117Y027019D01*
X016602Y027019D01*
X016602Y027019D01*
X016602Y026504D01*
X016561Y026504D01*
X016481Y026517D01*
X016404Y026542D01*
X016332Y026579D01*
X016266Y026626D01*
X016209Y026684D01*
X016161Y026749D01*
X016125Y026821D01*
X016113Y026858D01*
X016054Y026717D01*
X015904Y026567D01*
X015708Y026486D01*
X015496Y026486D01*
X015300Y026567D01*
X015150Y026717D01*
X015069Y026913D01*
X015069Y027125D01*
X015150Y027321D01*
X015300Y027471D01*
X015496Y027553D01*
X015708Y027553D01*
X015904Y027471D01*
X016054Y027321D01*
X016113Y027180D01*
X016125Y027217D01*
X016161Y027289D01*
X016209Y027355D01*
X016266Y027412D01*
X016332Y027460D01*
X016404Y027497D01*
X016481Y027522D01*
X016561Y027535D01*
X016602Y027535D01*
X016602Y027019D01*
X016602Y026504D01*
X016643Y026504D01*
X016723Y026517D01*
X016800Y026542D01*
X016872Y026579D01*
X016938Y026626D01*
X016995Y026684D01*
X017107Y026914D02*
X018678Y026914D01*
X018570Y027153D02*
X017100Y027153D01*
X017105Y027140D02*
X017080Y027217D01*
X017043Y027289D01*
X016995Y027355D01*
X016938Y027412D01*
X016872Y027460D01*
X016800Y027497D01*
X016723Y027522D01*
X016643Y027535D01*
X016602Y027535D01*
X016602Y027019D01*
X016602Y027019D01*
X017117Y027019D01*
X017117Y027060D01*
X017105Y027140D01*
X016959Y027391D02*
X018597Y027391D01*
X018766Y027630D02*
X013327Y027630D01*
X013089Y027868D02*
X018724Y027868D01*
X018720Y028584D02*
X018067Y028584D01*
X017828Y028822D02*
X018770Y028822D01*
X018598Y029061D02*
X017590Y029061D01*
X017351Y029299D02*
X018570Y029299D01*
X018674Y029538D02*
X017113Y029538D01*
X016938Y029776D02*
X018910Y029776D01*
X019065Y029776D02*
X019065Y029776D01*
X019065Y030015D02*
X019065Y030015D01*
X019065Y030228D02*
X019065Y030228D01*
X019065Y030253D02*
X019065Y030253D01*
X019065Y030492D02*
X019065Y030492D01*
X018638Y030015D02*
X016884Y030015D01*
X016208Y030253D02*
X015583Y030253D01*
X015862Y030015D02*
X015957Y030015D01*
X015908Y029898D02*
X015908Y029898D01*
X015858Y029538D02*
X015960Y029538D01*
X016228Y029299D02*
X015558Y029299D01*
X015420Y029299D02*
X015420Y029299D01*
X015283Y029299D02*
X012256Y029299D01*
X012448Y029061D02*
X016690Y029061D01*
X016929Y028822D02*
X012548Y028822D01*
X012524Y028584D02*
X017167Y028584D01*
X017406Y028345D02*
X012612Y028345D01*
X012850Y028107D02*
X017644Y028107D01*
X016602Y027391D02*
X016602Y027391D01*
X016602Y027153D02*
X016602Y027153D01*
X016602Y027019D02*
X016602Y027019D01*
X016602Y026914D02*
X016602Y026914D01*
X016602Y026676D02*
X016602Y026676D01*
X016217Y026676D02*
X016013Y026676D01*
X015984Y027391D02*
X016245Y027391D01*
X015220Y027391D02*
X013566Y027391D01*
X013804Y027153D02*
X015080Y027153D01*
X015069Y026914D02*
X014043Y026914D01*
X014281Y026676D02*
X015191Y026676D01*
X015474Y025483D02*
X018635Y025483D01*
X018570Y025245D02*
X015712Y025245D01*
X013479Y023098D02*
X012192Y023098D01*
X011953Y023337D02*
X013240Y023337D01*
X013002Y023575D02*
X011715Y023575D01*
X011476Y023814D02*
X012763Y023814D01*
X012525Y024052D02*
X011260Y024052D01*
X011260Y024291D02*
X012286Y024291D01*
X012048Y024529D02*
X011749Y024529D01*
X010786Y024372D02*
X010786Y023998D01*
X012209Y022575D01*
X012512Y022223D01*
X012512Y021042D01*
X012957Y021429D02*
X013274Y021429D01*
X013258Y021667D02*
X012870Y021667D01*
X013017Y021906D02*
X013303Y021906D01*
X013427Y022144D02*
X013100Y022144D01*
X013082Y022383D02*
X013733Y022383D01*
X013956Y022621D02*
X012945Y022621D01*
X012436Y022860D02*
X013717Y022860D01*
X014899Y021429D02*
X015210Y021429D01*
X014801Y021190D02*
X016750Y021190D01*
X016819Y020952D02*
X014578Y020952D01*
X013595Y020952D02*
X013100Y020952D01*
X013087Y021190D02*
X013373Y021190D01*
X013012Y020713D02*
X017071Y020713D01*
X016810Y020475D02*
X012680Y020475D01*
X012344Y020475D02*
X011299Y020475D01*
X011299Y020572D02*
X011436Y020709D01*
X011525Y020925D01*
X011525Y021159D01*
X011436Y021375D01*
X011295Y021515D01*
X011295Y021749D01*
X011436Y021890D01*
X011525Y022106D01*
X011525Y022340D01*
X011436Y022556D01*
X011270Y022721D01*
X011054Y022811D01*
X010820Y022811D01*
X010604Y022721D01*
X010439Y022556D01*
X010349Y022340D01*
X010349Y022106D01*
X010439Y021890D01*
X010579Y021749D01*
X010579Y021515D01*
X010439Y021375D01*
X010349Y021159D01*
X010349Y020925D01*
X010439Y020709D01*
X010583Y020565D01*
X010583Y019727D01*
X009406Y019727D01*
X009282Y019852D01*
X008455Y019852D01*
X008315Y019712D01*
X008315Y017940D01*
X008455Y017801D01*
X009282Y017801D01*
X009421Y017940D01*
X009421Y018873D01*
X009560Y019011D01*
X011222Y019011D01*
X011345Y018888D01*
X011554Y018801D01*
X011780Y018801D01*
X011989Y018888D01*
X012148Y019047D01*
X012235Y019256D01*
X012235Y019482D01*
X012148Y019691D01*
X011989Y019851D01*
X011780Y019937D01*
X011554Y019937D01*
X011345Y019851D01*
X011299Y019805D01*
X011299Y020572D01*
X011438Y020713D02*
X012011Y020713D01*
X011924Y020952D02*
X011525Y020952D01*
X011512Y021190D02*
X011937Y021190D01*
X012067Y021429D02*
X011382Y021429D01*
X011295Y021667D02*
X012154Y021667D01*
X012007Y021906D02*
X011442Y021906D01*
X011525Y022144D02*
X011924Y022144D01*
X011894Y022383D02*
X011507Y022383D01*
X011370Y022621D02*
X011656Y022621D01*
X011417Y022860D02*
X007656Y022860D01*
X007656Y023098D02*
X011179Y023098D01*
X010940Y023337D02*
X007656Y023337D01*
X007924Y023575D02*
X007940Y023575D01*
X007924Y023814D02*
X007940Y023814D01*
X007924Y024052D02*
X007940Y024052D01*
X007924Y024291D02*
X007940Y024291D01*
X007924Y024529D02*
X007940Y024529D01*
X008259Y024529D02*
X008296Y024529D01*
X008680Y024006D02*
X009951Y024006D01*
X009959Y023998D01*
X009572Y023575D02*
X009157Y023575D01*
X009245Y022811D02*
X009029Y022721D01*
X008864Y022556D01*
X008774Y022340D01*
X008774Y022106D01*
X008864Y021890D01*
X009029Y021724D01*
X009245Y021635D01*
X009479Y021635D01*
X009695Y021724D01*
X009861Y021890D01*
X009950Y022106D01*
X009950Y022340D01*
X009861Y022556D01*
X009695Y022721D01*
X009479Y022811D01*
X009245Y022811D01*
X008929Y022621D02*
X007656Y022621D01*
X008141Y022383D02*
X008792Y022383D01*
X008774Y022144D02*
X008447Y022144D01*
X008571Y021906D02*
X008857Y021906D01*
X008616Y021667D02*
X009167Y021667D01*
X009245Y021630D02*
X009029Y021540D01*
X008864Y021375D01*
X008774Y021159D01*
X008774Y020925D01*
X008864Y020709D01*
X009029Y020543D01*
X009245Y020454D01*
X009479Y020454D01*
X009695Y020543D01*
X009861Y020709D01*
X009950Y020925D01*
X009950Y021159D01*
X009861Y021375D01*
X009695Y021540D01*
X009479Y021630D01*
X009245Y021630D01*
X009558Y021667D02*
X010579Y021667D01*
X010492Y021429D02*
X009807Y021429D01*
X009937Y021190D02*
X010362Y021190D01*
X010349Y020952D02*
X009950Y020952D01*
X009863Y020713D02*
X010437Y020713D01*
X010583Y020475D02*
X009530Y020475D01*
X009194Y020475D02*
X007658Y020475D01*
X007658Y020713D02*
X008862Y020713D01*
X008774Y020952D02*
X008279Y020952D01*
X008501Y021190D02*
X008787Y021190D01*
X008918Y021429D02*
X008600Y021429D01*
X009868Y021906D02*
X010432Y021906D01*
X010349Y022144D02*
X009950Y022144D01*
X009933Y022383D02*
X010367Y022383D01*
X010504Y022621D02*
X009796Y022621D01*
X010346Y023575D02*
X010399Y023575D01*
X010786Y024372D02*
X009599Y025559D01*
X009599Y028814D01*
X011030Y030245D01*
X011252Y029776D02*
X011530Y029776D01*
X011530Y029785D02*
X011530Y029745D01*
X012030Y029745D01*
X012030Y029745D01*
X012030Y029745D01*
X012030Y030245D01*
X011991Y030245D01*
X011913Y030233D01*
X011838Y030209D01*
X011768Y030173D01*
X011705Y030127D01*
X011649Y030071D01*
X011603Y030008D01*
X011567Y029937D01*
X011543Y029863D01*
X011530Y029785D01*
X011496Y030015D02*
X011608Y030015D01*
X011548Y030253D02*
X014059Y030253D01*
X013967Y030492D02*
X011489Y030492D01*
X011214Y030730D02*
X013967Y030730D01*
X014038Y030969D02*
X008676Y030969D01*
X008676Y031207D02*
X014200Y031207D01*
X014252Y030015D02*
X012453Y030015D01*
X012458Y030008D02*
X012412Y030071D01*
X012356Y030127D01*
X012292Y030173D01*
X012222Y030209D01*
X012147Y030233D01*
X012070Y030245D01*
X012030Y030245D01*
X012030Y029745D01*
X012030Y029745D01*
X012530Y029745D01*
X012530Y029785D01*
X012518Y029863D01*
X012494Y029937D01*
X012458Y030008D01*
X012530Y029776D02*
X014920Y029776D01*
X014983Y029538D02*
X012486Y029538D01*
X012030Y029776D02*
X012030Y029776D01*
X012030Y030015D02*
X012030Y030015D01*
X011575Y029538D02*
X011470Y029538D01*
X011548Y029299D02*
X011805Y029299D01*
X011613Y029061D02*
X011598Y029061D01*
X010512Y030253D02*
X007652Y030253D01*
X007652Y030015D02*
X010293Y030015D01*
X010055Y029776D02*
X007652Y029776D01*
X007652Y029538D02*
X009816Y029538D01*
X009578Y029299D02*
X007652Y029299D01*
X007653Y029061D02*
X009339Y029061D01*
X009241Y028822D02*
X007653Y028822D01*
X007653Y028584D02*
X009241Y028584D01*
X009241Y028345D02*
X007653Y028345D01*
X007653Y028107D02*
X009241Y028107D01*
X009241Y027868D02*
X007653Y027868D01*
X007653Y027630D02*
X009241Y027630D01*
X009241Y027391D02*
X007654Y027391D01*
X007654Y027153D02*
X009241Y027153D01*
X009241Y026914D02*
X007654Y026914D01*
X007654Y026676D02*
X009241Y026676D01*
X009241Y026437D02*
X007654Y026437D01*
X007654Y026199D02*
X009241Y026199D01*
X009241Y025960D02*
X007654Y025960D01*
X007655Y025722D02*
X009241Y025722D01*
X009243Y025483D02*
X007655Y025483D01*
X007655Y025245D02*
X009407Y025245D01*
X009646Y025006D02*
X007655Y025006D01*
X007655Y024768D02*
X009884Y024768D01*
X010123Y024529D02*
X009064Y024529D01*
X010937Y022223D02*
X010937Y021042D01*
X010941Y021030D01*
X010941Y019369D01*
X011667Y019369D01*
X012080Y019759D02*
X015001Y019759D01*
X014863Y019521D02*
X012219Y019521D01*
X012235Y019282D02*
X014847Y019282D01*
X014937Y019044D02*
X012145Y019044D01*
X011790Y018805D02*
X015292Y018805D01*
X015538Y018805D02*
X016499Y018805D01*
X016499Y018609D02*
X016499Y018332D01*
X016514Y018276D01*
X016543Y018226D01*
X016584Y018185D01*
X016634Y018156D01*
X016690Y018141D01*
X017026Y018141D01*
X017026Y018609D01*
X016499Y018609D01*
X016499Y018567D02*
X009421Y018567D01*
X009421Y018805D02*
X011544Y018805D01*
X010941Y019369D02*
X009411Y019369D01*
X008868Y018826D01*
X008315Y018805D02*
X007659Y018805D01*
X007659Y018567D02*
X008315Y018567D01*
X008315Y018328D02*
X007659Y018328D01*
X007659Y018090D02*
X008315Y018090D01*
X008404Y017851D02*
X007659Y017851D01*
X007660Y017613D02*
X018749Y017613D01*
X018741Y017851D02*
X009333Y017851D01*
X009421Y018090D02*
X018586Y018090D01*
X018571Y018328D02*
X017568Y018328D01*
X017569Y018567D02*
X018703Y018567D01*
X018791Y018805D02*
X017569Y018805D01*
X017587Y019044D02*
X018605Y019044D01*
X018570Y019282D02*
X017587Y019282D01*
X017587Y019521D02*
X018657Y019521D01*
X018902Y019759D02*
X017555Y019759D01*
X017034Y019365D02*
X017030Y019369D01*
X015415Y019369D01*
X015828Y019759D02*
X016520Y019759D01*
X016800Y019998D02*
X011299Y019998D01*
X011299Y020236D02*
X016750Y020236D01*
X017496Y020713D02*
X018942Y020713D01*
X019189Y020713D02*
X027942Y020713D01*
X027967Y020724D02*
X027785Y020648D01*
X027645Y020509D01*
X027570Y020327D01*
X027570Y020129D01*
X027645Y019947D01*
X027785Y019808D01*
X027967Y019732D01*
X028164Y019732D01*
X028346Y019808D01*
X028486Y019947D01*
X028561Y020129D01*
X028561Y020327D01*
X028486Y020509D01*
X028346Y020648D01*
X028164Y020724D01*
X027967Y020724D01*
X028189Y020713D02*
X031355Y020713D01*
X031079Y020475D02*
X028500Y020475D01*
X028561Y020236D02*
X031017Y020236D01*
X031071Y019998D02*
X028506Y019998D01*
X028229Y019759D02*
X031315Y019759D01*
X031076Y019521D02*
X028473Y019521D01*
X028486Y019509D02*
X028346Y019648D01*
X028164Y019724D01*
X027967Y019724D01*
X027785Y019648D01*
X027645Y019509D01*
X027570Y019327D01*
X027570Y019129D01*
X027645Y018947D01*
X027785Y018808D01*
X027967Y018732D01*
X028164Y018732D01*
X028346Y018808D01*
X028486Y018947D01*
X028561Y019129D01*
X028561Y019327D01*
X028486Y019509D01*
X028561Y019282D02*
X030999Y019282D01*
X031031Y019044D02*
X028526Y019044D01*
X028340Y018805D02*
X031200Y018805D01*
X031116Y018567D02*
X028427Y018567D01*
X028486Y018509D02*
X028346Y018648D01*
X028164Y018724D01*
X027967Y018724D01*
X027785Y018648D01*
X027645Y018509D01*
X027570Y018327D01*
X027570Y018129D01*
X027645Y017947D01*
X027785Y017808D01*
X027967Y017732D01*
X028164Y017732D01*
X028346Y017808D01*
X028486Y017947D01*
X028561Y018129D01*
X028561Y018327D01*
X028486Y018509D01*
X028560Y018328D02*
X030999Y018328D01*
X031012Y018090D02*
X028545Y018090D01*
X028390Y017851D02*
X031154Y017851D01*
X031247Y016659D02*
X028320Y016659D01*
X028346Y016648D02*
X028164Y016724D01*
X027967Y016724D01*
X027785Y016648D01*
X027645Y016509D01*
X027570Y016327D01*
X027570Y016129D01*
X027645Y015947D01*
X027785Y015808D01*
X027967Y015732D01*
X028164Y015732D01*
X028346Y015808D01*
X028486Y015947D01*
X028561Y016129D01*
X028561Y016327D01*
X028486Y016509D01*
X028346Y016648D01*
X028346Y016808D02*
X028164Y016732D01*
X027967Y016732D01*
X027785Y016808D01*
X027645Y016947D01*
X027570Y017129D01*
X027570Y017327D01*
X027645Y017509D01*
X027785Y017648D01*
X027967Y017724D01*
X028164Y017724D01*
X028346Y017648D01*
X028486Y017509D01*
X028561Y017327D01*
X028561Y017129D01*
X028486Y016947D01*
X028346Y016808D01*
X028436Y016897D02*
X032541Y016897D01*
X032541Y016659D02*
X032414Y016659D01*
X031830Y016659D02*
X031830Y016659D01*
X031830Y016745D02*
X031830Y016228D01*
X031830Y016228D01*
X031830Y016745D01*
X031830Y016420D02*
X031830Y016420D01*
X031102Y015943D02*
X028482Y015943D01*
X028561Y016182D02*
X031018Y016182D01*
X031053Y016420D02*
X028522Y016420D01*
X027810Y016659D02*
X024678Y016659D01*
X024678Y016897D02*
X027695Y016897D01*
X027570Y017136D02*
X024603Y017136D01*
X024599Y017146D02*
X024678Y016956D01*
X024678Y016190D01*
X024599Y016000D01*
X024453Y015854D01*
X024263Y015775D01*
X024057Y015775D01*
X023866Y015854D01*
X023720Y016000D01*
X023660Y016146D01*
X023599Y016000D01*
X023453Y015854D01*
X023263Y015775D01*
X023057Y015775D01*
X022866Y015854D01*
X022720Y016000D01*
X022660Y016146D01*
X022599Y016000D01*
X022453Y015854D01*
X022263Y015775D01*
X022057Y015775D01*
X021866Y015854D01*
X021720Y016000D01*
X021641Y016190D01*
X021641Y016956D01*
X021720Y017146D01*
X021866Y017292D01*
X022057Y017371D01*
X022263Y017371D01*
X022453Y017292D01*
X022599Y017146D01*
X022660Y017000D01*
X022720Y017146D01*
X022866Y017292D01*
X023057Y017371D01*
X023263Y017371D01*
X023453Y017292D01*
X023599Y017146D01*
X023660Y017000D01*
X023720Y017146D01*
X023866Y017292D01*
X024057Y017371D01*
X024263Y017371D01*
X024453Y017292D01*
X024599Y017146D01*
X023716Y017136D02*
X023603Y017136D01*
X022716Y017136D02*
X022603Y017136D01*
X021716Y017136D02*
X021531Y017136D01*
X021531Y016897D02*
X021641Y016897D01*
X021641Y016659D02*
X021531Y016659D01*
X021531Y016420D02*
X021641Y016420D01*
X021645Y016182D02*
X021531Y016182D01*
X021531Y015943D02*
X021777Y015943D01*
X021531Y015705D02*
X027921Y015705D01*
X027967Y015724D02*
X027785Y015648D01*
X027645Y015509D01*
X027570Y015327D01*
X027570Y015129D01*
X027645Y014947D01*
X027785Y014808D01*
X027967Y014732D01*
X028164Y014732D01*
X028346Y014808D01*
X028486Y014947D01*
X028561Y015129D01*
X028561Y015327D01*
X028486Y015509D01*
X028346Y015648D01*
X028164Y015724D01*
X027967Y015724D01*
X028209Y015705D02*
X031287Y015705D01*
X031053Y015466D02*
X028503Y015466D01*
X028561Y015228D02*
X030999Y015228D01*
X031053Y014989D02*
X028503Y014989D01*
X028346Y014648D02*
X028164Y014724D01*
X027967Y014724D01*
X027785Y014648D01*
X027645Y014509D01*
X027570Y014327D01*
X027570Y014129D01*
X027645Y013947D01*
X027785Y013808D01*
X027967Y013732D01*
X028164Y013732D01*
X028346Y013808D01*
X028486Y013947D01*
X028561Y014129D01*
X028561Y014327D01*
X028486Y014509D01*
X028346Y014648D01*
X028208Y014751D02*
X031288Y014751D01*
X031072Y014512D02*
X028482Y014512D01*
X028561Y014274D02*
X030999Y014274D01*
X031034Y014035D02*
X028522Y014035D01*
X028319Y013797D02*
X031208Y013797D01*
X031153Y012604D02*
X028390Y012604D01*
X028346Y012648D02*
X028486Y012509D01*
X028561Y012327D01*
X028561Y012129D01*
X028486Y011947D01*
X028346Y011808D01*
X028164Y011732D01*
X027967Y011732D01*
X027785Y011808D01*
X027645Y011947D01*
X027570Y012129D01*
X027570Y012327D01*
X027645Y012509D01*
X027785Y012648D01*
X027967Y012724D01*
X028164Y012724D01*
X028346Y012648D01*
X028346Y012808D02*
X028486Y012947D01*
X028561Y013129D01*
X028561Y013327D01*
X028486Y013509D01*
X028346Y013648D01*
X028164Y013724D01*
X027967Y013724D01*
X027785Y013648D01*
X027645Y013509D01*
X027570Y013327D01*
X027570Y013129D01*
X027645Y012947D01*
X027785Y012808D01*
X027967Y012732D01*
X028164Y012732D01*
X028346Y012808D01*
X028381Y012843D02*
X032541Y012843D01*
X032541Y013081D02*
X028541Y013081D01*
X028561Y013320D02*
X032541Y013320D01*
X032541Y013558D02*
X028436Y013558D01*
X027811Y013797D02*
X021531Y013797D01*
X021531Y014035D02*
X027609Y014035D01*
X027570Y014274D02*
X021531Y014274D01*
X021531Y014512D02*
X027649Y014512D01*
X027922Y014751D02*
X021531Y014751D01*
X021531Y014989D02*
X027628Y014989D01*
X027570Y015228D02*
X021531Y015228D01*
X021531Y015466D02*
X027628Y015466D01*
X027649Y015943D02*
X024543Y015943D01*
X024674Y016182D02*
X027570Y016182D01*
X027609Y016420D02*
X024678Y016420D01*
X023777Y015943D02*
X023543Y015943D01*
X022777Y015943D02*
X022543Y015943D01*
X021369Y017374D02*
X027590Y017374D01*
X027749Y017613D02*
X021130Y017613D01*
X020892Y017851D02*
X027741Y017851D01*
X027586Y018090D02*
X020653Y018090D01*
X020415Y018328D02*
X027571Y018328D01*
X027703Y018567D02*
X020176Y018567D01*
X019938Y018805D02*
X027791Y018805D01*
X027605Y019044D02*
X019699Y019044D01*
X019561Y019282D02*
X027570Y019282D01*
X027657Y019521D02*
X019473Y019521D01*
X019229Y019759D02*
X027902Y019759D01*
X027624Y019998D02*
X019506Y019998D01*
X019561Y020236D02*
X027570Y020236D01*
X027631Y020475D02*
X019500Y020475D01*
X019487Y020952D02*
X027643Y020952D01*
X027570Y021190D02*
X019561Y021190D01*
X017042Y018567D02*
X017026Y018567D01*
X017026Y018328D02*
X017042Y018328D01*
X016500Y018328D02*
X009421Y018328D01*
X009212Y017432D02*
X008906Y017432D01*
X008906Y016462D01*
X009403Y016462D01*
X009403Y017241D01*
X009388Y017297D01*
X009359Y017347D01*
X009318Y017388D01*
X009268Y017417D01*
X009212Y017432D01*
X009332Y017374D02*
X018590Y017374D01*
X018570Y017136D02*
X009403Y017136D01*
X009403Y016897D02*
X018695Y016897D01*
X018810Y016659D02*
X009403Y016659D01*
X009403Y016387D02*
X008906Y016387D01*
X008906Y016462D01*
X008831Y016462D01*
X008831Y017432D01*
X008524Y017432D01*
X008468Y017417D01*
X008418Y017388D01*
X008377Y017347D01*
X008348Y017297D01*
X008333Y017241D01*
X008333Y016462D01*
X008831Y016462D01*
X008831Y016387D01*
X008906Y016387D01*
X008906Y015417D01*
X009212Y015417D01*
X009268Y015432D01*
X009318Y015461D01*
X009359Y015502D01*
X009388Y015552D01*
X009403Y015608D01*
X009403Y016387D01*
X009403Y016182D02*
X018570Y016182D01*
X018609Y016420D02*
X008906Y016420D01*
X008831Y016420D02*
X007660Y016420D01*
X007660Y016182D02*
X008333Y016182D01*
X008333Y016387D02*
X008333Y015608D01*
X008348Y015552D01*
X008377Y015502D01*
X008418Y015461D01*
X008468Y015432D01*
X008524Y015417D01*
X008831Y015417D01*
X008831Y016387D01*
X008333Y016387D01*
X008333Y016659D02*
X007660Y016659D01*
X007660Y016897D02*
X008333Y016897D01*
X008333Y017136D02*
X007660Y017136D01*
X007660Y017374D02*
X008404Y017374D01*
X008831Y017374D02*
X008906Y017374D01*
X008906Y017136D02*
X008831Y017136D01*
X008831Y016897D02*
X008906Y016897D01*
X008906Y016659D02*
X008831Y016659D01*
X008831Y016182D02*
X008906Y016182D01*
X008906Y015943D02*
X008831Y015943D01*
X008831Y015705D02*
X008906Y015705D01*
X008906Y015466D02*
X008831Y015466D01*
X008413Y015466D02*
X007661Y015466D01*
X007661Y015228D02*
X018570Y015228D01*
X018628Y015466D02*
X009323Y015466D01*
X009403Y015705D02*
X018921Y015705D01*
X018649Y015943D02*
X009403Y015943D01*
X008333Y015943D02*
X007661Y015943D01*
X007661Y015705D02*
X008333Y015705D01*
X007661Y014989D02*
X018377Y014989D01*
X018138Y014751D02*
X007661Y014751D01*
X007661Y014512D02*
X017900Y014512D01*
X017661Y014274D02*
X007662Y014274D01*
X007662Y014035D02*
X017423Y014035D01*
X017184Y013797D02*
X007662Y013797D01*
X007662Y013558D02*
X008013Y013558D01*
X008005Y013552D02*
X007938Y013485D01*
X007882Y013408D01*
X007839Y013324D01*
X007809Y013233D01*
X007794Y013139D01*
X007794Y013100D01*
X008774Y013100D01*
X008774Y013696D01*
X008351Y013696D01*
X008257Y013681D01*
X008166Y013652D01*
X008082Y013608D01*
X008005Y013552D01*
X007837Y013320D02*
X007662Y013320D01*
X007662Y013081D02*
X007794Y013081D01*
X007794Y013084D02*
X007794Y013044D01*
X007809Y012950D01*
X007839Y012860D01*
X007882Y012775D01*
X007938Y012699D01*
X008005Y012631D01*
X008082Y012575D01*
X008166Y012532D01*
X008257Y012503D01*
X008351Y012488D01*
X008774Y012488D01*
X008774Y013084D01*
X007794Y013084D01*
X007847Y012843D02*
X007662Y012843D01*
X007663Y012604D02*
X008042Y012604D01*
X007663Y012366D02*
X013791Y012366D01*
X013809Y012383D02*
X013677Y012251D01*
X013000Y012251D01*
X012861Y012112D01*
X012861Y010851D01*
X012958Y010754D01*
X012394Y010191D01*
X010189Y010191D01*
X009667Y010713D01*
X009693Y010740D01*
X009788Y010968D01*
X009788Y011216D01*
X009693Y011444D01*
X009518Y011619D01*
X009290Y011714D01*
X008274Y011714D01*
X008046Y011619D01*
X007871Y011444D01*
X007776Y011216D01*
X007776Y010968D01*
X007871Y010740D01*
X008046Y010565D01*
X008274Y010470D01*
X008898Y010470D01*
X009737Y009630D01*
X009838Y009529D01*
X009970Y009475D01*
X012614Y009475D01*
X012745Y009529D01*
X013614Y010398D01*
X013714Y010498D01*
X013769Y010630D01*
X013769Y010712D01*
X013827Y010712D01*
X013967Y010851D01*
X013967Y011528D01*
X014370Y011931D01*
X014470Y012032D01*
X014525Y012164D01*
X014525Y012672D01*
X014648Y012796D01*
X014735Y013004D01*
X014735Y013230D01*
X014648Y013439D01*
X014489Y013599D01*
X014280Y013685D01*
X014054Y013685D01*
X013845Y013599D01*
X013685Y013439D01*
X013599Y013230D01*
X013599Y013004D01*
X013685Y012796D01*
X013809Y012672D01*
X013809Y012383D01*
X013809Y012604D02*
X011868Y012604D01*
X011878Y012608D02*
X011955Y012647D01*
X012025Y012698D01*
X012086Y012759D01*
X012137Y012829D01*
X012177Y012906D01*
X012203Y012989D01*
X012217Y013074D01*
X012217Y013117D01*
X011667Y013117D01*
X011667Y012567D01*
X011710Y012567D01*
X011796Y012581D01*
X011878Y012608D01*
X011667Y012604D02*
X011667Y012604D01*
X011667Y012567D02*
X011667Y013117D01*
X011667Y013117D01*
X011667Y013117D01*
X011117Y013117D01*
X011117Y013074D01*
X011130Y012989D01*
X011157Y012906D01*
X011196Y012829D01*
X011247Y012759D01*
X011309Y012698D01*
X011379Y012647D01*
X011456Y012608D01*
X011538Y012581D01*
X011624Y012567D01*
X011667Y012567D01*
X011466Y012604D02*
X009522Y012604D01*
X009559Y012631D02*
X009626Y012699D01*
X009682Y012775D01*
X009726Y012860D01*
X009755Y012950D01*
X009770Y013044D01*
X009770Y013084D01*
X008790Y013084D01*
X008790Y013100D01*
X008774Y013100D01*
X008774Y013084D01*
X008790Y013084D01*
X008790Y012488D01*
X009213Y012488D01*
X009307Y012503D01*
X009398Y012532D01*
X009482Y012575D01*
X009559Y012631D01*
X009717Y012843D02*
X011189Y012843D01*
X011117Y013081D02*
X009770Y013081D01*
X009770Y013100D02*
X009770Y013139D01*
X009755Y013233D01*
X009726Y013324D01*
X009682Y013408D01*
X009626Y013485D01*
X009559Y013552D01*
X009482Y013608D01*
X009398Y013652D01*
X009307Y013681D01*
X009213Y013696D01*
X008790Y013696D01*
X008790Y013100D01*
X009770Y013100D01*
X009727Y013320D02*
X011154Y013320D01*
X011157Y013328D02*
X011130Y013246D01*
X011117Y013161D01*
X011117Y013117D01*
X011667Y013117D01*
X011667Y013117D01*
X012217Y013117D01*
X012217Y013161D01*
X012203Y013246D01*
X012177Y013328D01*
X012137Y013406D01*
X012086Y013476D01*
X012025Y013537D01*
X011955Y013588D01*
X011878Y013627D01*
X011796Y013654D01*
X011710Y013667D01*
X011667Y013667D01*
X011667Y013117D01*
X011667Y013117D01*
X011667Y013667D01*
X011624Y013667D01*
X011538Y013654D01*
X011456Y013627D01*
X011379Y013588D01*
X011309Y013537D01*
X011247Y013476D01*
X011196Y013406D01*
X011157Y013328D01*
X011338Y013558D02*
X009551Y013558D01*
X008790Y013558D02*
X008774Y013558D01*
X008774Y013320D02*
X008790Y013320D01*
X008774Y013081D02*
X008790Y013081D01*
X008774Y012843D02*
X008790Y012843D01*
X008774Y012604D02*
X008790Y012604D01*
X009443Y011650D02*
X011776Y011650D01*
X011776Y011519D02*
X012274Y011519D01*
X012274Y012233D01*
X011967Y012233D01*
X011911Y012218D01*
X011861Y012189D01*
X011820Y012148D01*
X011791Y012098D01*
X011776Y012042D01*
X011776Y011519D01*
X011776Y011444D02*
X011776Y010921D01*
X011791Y010865D01*
X011820Y010815D01*
X011861Y010774D01*
X011911Y010745D01*
X011967Y010730D01*
X012274Y010730D01*
X012274Y011444D01*
X012349Y011444D01*
X012349Y011519D01*
X012846Y011519D01*
X012846Y012042D01*
X012831Y012098D01*
X012802Y012148D01*
X012761Y012189D01*
X012711Y012218D01*
X012655Y012233D01*
X012349Y012233D01*
X012349Y011519D01*
X012274Y011519D01*
X012274Y011444D01*
X011776Y011444D01*
X011776Y011412D02*
X009707Y011412D01*
X009788Y011173D02*
X011776Y011173D01*
X011776Y010935D02*
X009774Y010935D01*
X009684Y010696D02*
X012899Y010696D01*
X012802Y010815D02*
X012831Y010865D01*
X012846Y010921D01*
X012846Y011444D01*
X012349Y011444D01*
X012349Y010730D01*
X012655Y010730D01*
X012711Y010745D01*
X012761Y010774D01*
X012802Y010815D01*
X012846Y010935D02*
X012861Y010935D01*
X012846Y011173D02*
X012861Y011173D01*
X012846Y011412D02*
X012861Y011412D01*
X012846Y011650D02*
X012861Y011650D01*
X012846Y011889D02*
X012861Y011889D01*
X012876Y012127D02*
X012814Y012127D01*
X012349Y012127D02*
X012274Y012127D01*
X012274Y011889D02*
X012349Y011889D01*
X012349Y011650D02*
X012274Y011650D01*
X012274Y011412D02*
X012349Y011412D01*
X012349Y011173D02*
X012274Y011173D01*
X012274Y010935D02*
X012349Y010935D01*
X012661Y010458D02*
X009923Y010458D01*
X010161Y010219D02*
X012422Y010219D01*
X012543Y009833D02*
X013411Y010701D01*
X013411Y011479D01*
X013414Y011482D01*
X014167Y012235D01*
X014167Y013117D01*
X014668Y012843D02*
X014918Y012843D01*
X014937Y012796D02*
X015097Y012636D01*
X015306Y012549D01*
X015532Y012549D01*
X015741Y012636D01*
X015900Y012796D01*
X015987Y013004D01*
X015987Y013230D01*
X015900Y013439D01*
X015741Y013599D01*
X015532Y013685D01*
X015306Y013685D01*
X015097Y013599D01*
X014937Y013439D01*
X014851Y013230D01*
X014851Y013004D01*
X014937Y012796D01*
X014851Y013081D02*
X014735Y013081D01*
X014698Y013320D02*
X014888Y013320D01*
X015056Y013558D02*
X014529Y013558D01*
X013804Y013558D02*
X011996Y013558D01*
X012179Y013320D02*
X013636Y013320D01*
X013599Y013081D02*
X012217Y013081D01*
X012144Y012843D02*
X013666Y012843D01*
X014525Y012604D02*
X015173Y012604D01*
X015665Y012604D02*
X015992Y012604D01*
X015920Y012843D02*
X016230Y012843D01*
X016469Y013081D02*
X015987Y013081D01*
X015950Y013320D02*
X016707Y013320D01*
X016946Y013558D02*
X015781Y013558D01*
X015753Y012366D02*
X014525Y012366D01*
X014510Y012127D02*
X015515Y012127D01*
X015276Y011889D02*
X014327Y011889D01*
X014089Y011650D02*
X015038Y011650D01*
X014799Y011412D02*
X013967Y011412D01*
X013967Y011173D02*
X014561Y011173D01*
X014322Y010935D02*
X013967Y010935D01*
X014084Y010696D02*
X013769Y010696D01*
X013845Y010458D02*
X013674Y010458D01*
X013607Y010219D02*
X013435Y010219D01*
X013368Y009981D02*
X013197Y009981D01*
X013130Y009742D02*
X012958Y009742D01*
X012891Y009504D02*
X012683Y009504D01*
X012653Y009265D02*
X007665Y009265D01*
X007665Y009027D02*
X012414Y009027D01*
X012176Y008788D02*
X007665Y008788D01*
X007665Y008550D02*
X011953Y008550D01*
X011916Y008311D02*
X007665Y008311D01*
X007665Y008073D02*
X011916Y008073D01*
X011916Y007834D02*
X007665Y007834D01*
X007666Y007596D02*
X011916Y007596D01*
X011734Y007357D02*
X011734Y007357D01*
X011734Y007119D02*
X011734Y007119D01*
X011734Y006880D02*
X011734Y006880D01*
X011734Y006642D02*
X011734Y006642D01*
X011622Y006403D02*
X011846Y006403D01*
X011457Y006642D02*
X008371Y006642D01*
X008610Y006403D02*
X010846Y006403D01*
X010717Y006165D02*
X008692Y006165D01*
X008692Y005926D02*
X010728Y005926D01*
X011234Y006059D02*
X011872Y005421D01*
X015913Y005421D01*
X015916Y005424D01*
X015916Y006090D01*
X016416Y006237D02*
X016355Y006383D01*
X016209Y006529D01*
X016020Y006608D01*
X016070Y006728D01*
X016090Y006709D01*
X016154Y006662D01*
X016224Y006627D01*
X016299Y006602D01*
X016376Y006590D01*
X016416Y006590D01*
X016455Y006590D01*
X016533Y006602D01*
X016608Y006627D01*
X016678Y006662D01*
X016742Y006709D01*
X016797Y006764D01*
X016843Y006828D01*
X016879Y006898D01*
X016904Y006973D01*
X016977Y006796D01*
X017122Y006651D01*
X017227Y006607D01*
X017167Y006547D01*
X017019Y006608D01*
X016813Y006608D01*
X016622Y006529D01*
X016477Y006383D01*
X016416Y006237D01*
X016335Y006403D02*
X016496Y006403D01*
X016416Y006590D02*
X016416Y007090D01*
X016416Y007090D01*
X016416Y007590D01*
X016455Y007590D01*
X016533Y007578D01*
X016608Y007553D01*
X016678Y007518D01*
X016742Y007471D01*
X016797Y007416D01*
X016843Y007352D01*
X016879Y007282D01*
X016904Y007207D01*
X016904Y007207D01*
X016977Y007383D01*
X017098Y007505D01*
X017098Y008510D01*
X017146Y008627D01*
X019314Y010795D01*
X019164Y010732D01*
X018967Y010732D01*
X018785Y010808D01*
X018645Y010947D01*
X018570Y011129D01*
X018570Y011282D01*
X015001Y007714D01*
X015116Y007762D01*
X015440Y007762D01*
X015740Y007637D01*
X015969Y007408D01*
X015991Y007356D01*
X016034Y007416D01*
X016090Y007471D01*
X016154Y007518D01*
X016224Y007553D01*
X016299Y007578D01*
X016376Y007590D01*
X016416Y007590D01*
X016416Y007090D01*
X016416Y007090D01*
X016416Y006590D01*
X016416Y006642D02*
X016416Y006642D01*
X016638Y006642D02*
X017144Y006642D01*
X016942Y006880D02*
X016870Y006880D01*
X016904Y006973D02*
X016904Y006973D01*
X016966Y007357D02*
X016840Y007357D01*
X017098Y007596D02*
X015781Y007596D01*
X015990Y007357D02*
X015992Y007357D01*
X016416Y007357D02*
X016416Y007357D01*
X016416Y007119D02*
X016416Y007119D01*
X016416Y006880D02*
X016416Y006880D01*
X016194Y006642D02*
X016034Y006642D01*
X015913Y005421D02*
X019715Y005421D01*
X023715Y005421D01*
X026845Y005421D01*
X026900Y005476D01*
X026900Y006488D01*
X026478Y007119D02*
X026323Y007119D01*
X027323Y007119D02*
X027504Y007119D01*
X027900Y007119D02*
X027900Y007119D01*
X027900Y007302D02*
X027900Y006488D01*
X027900Y007302D01*
X027900Y006880D02*
X027900Y006880D01*
X027900Y006642D02*
X027900Y006642D01*
X027900Y006488D02*
X027900Y006488D01*
X028417Y006488D01*
X027900Y006488D01*
X027900Y006488D01*
X028417Y006403D02*
X029345Y006403D01*
X029345Y006165D02*
X028417Y006165D01*
X028346Y005926D02*
X029420Y005926D01*
X029345Y006642D02*
X028417Y006642D01*
X028409Y006880D02*
X029345Y006880D01*
X029435Y007119D02*
X028297Y007119D01*
X030325Y007119D02*
X030435Y007119D01*
X030626Y007357D02*
X024652Y007357D01*
X024713Y007119D02*
X025478Y007119D01*
X025365Y006880D02*
X024653Y006880D01*
X024365Y006642D02*
X025365Y006642D01*
X025365Y006403D02*
X024155Y006403D01*
X024213Y006642D02*
X024213Y006642D01*
X024060Y006642D02*
X023417Y006642D01*
X023270Y006403D02*
X023155Y006403D01*
X023713Y006118D02*
X023715Y005421D01*
X024194Y005926D02*
X025431Y005926D01*
X025365Y006165D02*
X024231Y006165D01*
X024213Y006880D02*
X024213Y006880D01*
X024213Y007119D02*
X024213Y007119D01*
X024213Y007357D02*
X024213Y007357D01*
X024213Y007596D02*
X024213Y007596D01*
X024360Y007596D02*
X030865Y007596D01*
X031103Y007834D02*
X019938Y007834D01*
X019938Y008073D02*
X031342Y008073D01*
X031580Y008311D02*
X019938Y008311D01*
X020140Y008550D02*
X032371Y008550D01*
X032401Y008788D02*
X032541Y008788D01*
X032899Y008571D02*
X032899Y011192D01*
X031866Y011192D01*
X031830Y011228D01*
X031199Y011650D02*
X028341Y011650D01*
X028346Y011648D02*
X028164Y011724D01*
X027967Y011724D01*
X027785Y011648D01*
X027645Y011509D01*
X027570Y011327D01*
X027570Y011129D01*
X027645Y010947D01*
X027785Y010808D01*
X027967Y010732D01*
X028164Y010732D01*
X028346Y010808D01*
X028486Y010947D01*
X028561Y011129D01*
X028561Y011327D01*
X028486Y011509D01*
X028346Y011648D01*
X028427Y011889D02*
X031116Y011889D01*
X030999Y012127D02*
X028560Y012127D01*
X028545Y012366D02*
X031012Y012366D01*
X031031Y011412D02*
X028526Y011412D01*
X028561Y011173D02*
X030999Y011173D01*
X031076Y010935D02*
X028473Y010935D01*
X027658Y010935D02*
X021531Y010935D01*
X021531Y011173D02*
X027570Y011173D01*
X027605Y011412D02*
X021531Y011412D01*
X021531Y011650D02*
X027790Y011650D01*
X027704Y011889D02*
X021531Y011889D01*
X021531Y012127D02*
X027571Y012127D01*
X027586Y012366D02*
X021531Y012366D01*
X021531Y012604D02*
X027741Y012604D01*
X027750Y012843D02*
X021531Y012843D01*
X021531Y013081D02*
X027590Y013081D01*
X027570Y013320D02*
X021531Y013320D01*
X021531Y013558D02*
X027695Y013558D01*
X031050Y010458D02*
X021531Y010458D01*
X021531Y010696D02*
X031266Y010696D01*
X030999Y010219D02*
X021531Y010219D01*
X021519Y009981D02*
X031057Y009981D01*
X031308Y009742D02*
X021333Y009742D01*
X021393Y009803D02*
X021393Y009803D01*
X021094Y009504D02*
X031095Y009504D01*
X031017Y009265D02*
X020856Y009265D01*
X020617Y009027D02*
X031056Y009027D01*
X031259Y008788D02*
X020379Y008788D01*
X020606Y007596D02*
X021012Y007596D01*
X021413Y007596D02*
X022012Y007596D01*
X021751Y007357D02*
X021674Y007357D01*
X022413Y007596D02*
X023012Y007596D01*
X022751Y007357D02*
X022674Y007357D01*
X023413Y007596D02*
X024065Y007596D01*
X023774Y007357D02*
X023674Y007357D01*
X023725Y007235D02*
X023725Y007235D01*
X023675Y006880D02*
X023773Y006880D01*
X026845Y005421D02*
X030285Y005421D01*
X030878Y006013D01*
X030878Y006508D01*
X030880Y006510D01*
X030880Y007105D01*
X031873Y008097D01*
X032425Y008097D01*
X032899Y008571D01*
X033146Y008311D02*
X033342Y008311D01*
X033342Y008073D02*
X032907Y008073D01*
X032669Y007834D02*
X033342Y007834D01*
X033342Y007596D02*
X031878Y007596D01*
X031880Y007324D02*
X031880Y006510D01*
X031880Y006510D01*
X032397Y006510D01*
X032397Y006848D01*
X032385Y006928D01*
X032359Y007006D01*
X032322Y007078D01*
X032275Y007144D01*
X032217Y007202D01*
X032151Y007249D01*
X032079Y007286D01*
X032001Y007311D01*
X031921Y007324D01*
X031880Y007324D01*
X031880Y007119D02*
X031880Y007119D01*
X031880Y006880D02*
X031880Y006880D01*
X031880Y006642D02*
X031880Y006642D01*
X032397Y006642D02*
X032658Y006642D01*
X032420Y006403D02*
X032397Y006403D01*
X032392Y006880D02*
X033342Y006880D01*
X033342Y007119D02*
X032293Y007119D01*
X031639Y007357D02*
X033342Y007357D01*
X033342Y008550D02*
X033257Y008550D01*
X033257Y008788D02*
X033342Y008788D01*
X033342Y009027D02*
X033257Y009027D01*
X033257Y009265D02*
X033342Y009265D01*
X033342Y009504D02*
X033257Y009504D01*
X033257Y009742D02*
X033342Y009742D01*
X033342Y009981D02*
X033257Y009981D01*
X033257Y010219D02*
X033342Y010219D01*
X033342Y010458D02*
X033257Y010458D01*
X033257Y010696D02*
X033342Y010696D01*
X033342Y010935D02*
X033257Y010935D01*
X033257Y011173D02*
X033342Y011173D01*
X033342Y011412D02*
X033257Y011412D01*
X033257Y011650D02*
X033342Y011650D01*
X033342Y011889D02*
X033257Y011889D01*
X033257Y012127D02*
X033342Y012127D01*
X033342Y012366D02*
X033257Y012366D01*
X033257Y012604D02*
X033342Y012604D01*
X033342Y012843D02*
X033257Y012843D01*
X033257Y013081D02*
X033342Y013081D01*
X033342Y013320D02*
X033257Y013320D01*
X033257Y013558D02*
X033342Y013558D01*
X033342Y013797D02*
X033257Y013797D01*
X033257Y014035D02*
X033342Y014035D01*
X033342Y014274D02*
X033257Y014274D01*
X033257Y014512D02*
X033342Y014512D01*
X033342Y014751D02*
X033257Y014751D01*
X033257Y014989D02*
X033342Y014989D01*
X033342Y015228D02*
X033257Y015228D01*
X033257Y015466D02*
X033342Y015466D01*
X033342Y015705D02*
X033257Y015705D01*
X033257Y015943D02*
X033342Y015943D01*
X033342Y016182D02*
X033257Y016182D01*
X033257Y016420D02*
X033342Y016420D01*
X033342Y016659D02*
X033257Y016659D01*
X033257Y016897D02*
X033342Y016897D01*
X033343Y017136D02*
X033257Y017136D01*
X033257Y017374D02*
X033343Y017374D01*
X033343Y017613D02*
X033257Y017613D01*
X033257Y017851D02*
X033343Y017851D01*
X033343Y018090D02*
X033257Y018090D01*
X033257Y018328D02*
X033343Y018328D01*
X033343Y018567D02*
X033257Y018567D01*
X033257Y018805D02*
X033343Y018805D01*
X033343Y019044D02*
X033257Y019044D01*
X033257Y019282D02*
X033343Y019282D01*
X033343Y019521D02*
X033257Y019521D01*
X033257Y019759D02*
X033343Y019759D01*
X033343Y019998D02*
X033257Y019998D01*
X033257Y020236D02*
X033343Y020236D01*
X033343Y020475D02*
X033257Y020475D01*
X033257Y020713D02*
X033343Y020713D01*
X033343Y020952D02*
X033257Y020952D01*
X033257Y021190D02*
X033343Y021190D01*
X033343Y021429D02*
X033257Y021429D01*
X033257Y021667D02*
X033343Y021667D01*
X033343Y021906D02*
X033257Y021906D01*
X033257Y022144D02*
X033343Y022144D01*
X033257Y022215D02*
X033257Y022215D01*
X033257Y022383D02*
X033343Y022383D01*
X033343Y022621D02*
X033256Y022621D01*
X033256Y022860D02*
X033343Y022860D01*
X033343Y023098D02*
X033255Y023098D01*
X033255Y023337D02*
X033343Y023337D01*
X033343Y023575D02*
X033254Y023575D01*
X033254Y023814D02*
X033343Y023814D01*
X033343Y024052D02*
X033253Y024052D01*
X033253Y024291D02*
X033343Y024291D01*
X033343Y024529D02*
X033253Y024529D01*
X033252Y024768D02*
X033343Y024768D01*
X033343Y025006D02*
X033252Y025006D01*
X033251Y025245D02*
X033343Y025245D01*
X033343Y025483D02*
X033251Y025483D01*
X033250Y025722D02*
X033343Y025722D01*
X033343Y025960D02*
X033250Y025960D01*
X033249Y026199D02*
X033343Y026199D01*
X033343Y026437D02*
X033249Y026437D01*
X033248Y026676D02*
X033343Y026676D01*
X033343Y026914D02*
X033248Y026914D01*
X033247Y027153D02*
X033343Y027153D01*
X033343Y027391D02*
X033247Y027391D01*
X033246Y027630D02*
X033343Y027630D01*
X033343Y027868D02*
X033246Y027868D01*
X033200Y028107D02*
X033343Y028107D01*
X033191Y028128D02*
X033191Y028128D01*
X033343Y028345D02*
X032973Y028345D01*
X032661Y028584D02*
X033343Y028584D01*
X033343Y028822D02*
X032478Y028822D01*
X032637Y029061D02*
X033343Y029061D01*
X033343Y029299D02*
X032662Y029299D01*
X032574Y029538D02*
X033343Y029538D01*
X033343Y029776D02*
X032379Y029776D01*
X032599Y030015D02*
X033343Y030015D01*
X033343Y030253D02*
X032644Y030253D01*
X032644Y030228D02*
X031830Y030228D01*
X031830Y030745D01*
X031830Y030228D01*
X031830Y030228D01*
X031830Y030228D01*
X032644Y030228D01*
X032627Y030492D02*
X032573Y030492D01*
X032389Y030730D02*
X032254Y030730D01*
X032312Y030969D02*
X027756Y030969D01*
X028003Y030730D02*
X031407Y030730D01*
X031088Y030492D02*
X028493Y030492D01*
X028561Y030253D02*
X031017Y030253D01*
X031062Y030015D02*
X028514Y030015D01*
X028270Y029776D02*
X031282Y029776D01*
X031087Y029538D02*
X028456Y029538D01*
X028561Y029299D02*
X030999Y029299D01*
X031024Y029061D02*
X028533Y029061D01*
X028361Y028822D02*
X031183Y028822D01*
X031133Y028584D02*
X028410Y028584D01*
X028553Y028345D02*
X031003Y028345D01*
X031005Y028107D02*
X028552Y028107D01*
X028407Y027868D02*
X031137Y027868D01*
X031179Y027630D02*
X028364Y027630D01*
X028534Y027391D02*
X031022Y027391D01*
X030999Y027153D02*
X028561Y027153D01*
X028453Y026914D02*
X031091Y026914D01*
X031381Y025722D02*
X028168Y025722D01*
X028491Y025960D02*
X032533Y025960D01*
X032534Y025722D02*
X032280Y025722D01*
X031830Y025722D02*
X031830Y025722D01*
X031830Y025745D02*
X031830Y025228D01*
X031830Y025228D01*
X031830Y025745D01*
X031830Y025483D02*
X031830Y025483D01*
X031830Y025245D02*
X031830Y025245D01*
X031298Y024768D02*
X028249Y024768D01*
X028465Y024529D02*
X031079Y024529D01*
X030999Y024291D02*
X028561Y024291D01*
X028529Y024052D02*
X031027Y024052D01*
X031191Y023814D02*
X028352Y023814D01*
X028419Y023575D02*
X031124Y023575D01*
X031000Y023337D02*
X028557Y023337D01*
X028548Y023098D02*
X031008Y023098D01*
X031145Y022860D02*
X028398Y022860D01*
X028373Y022621D02*
X031170Y022621D01*
X031019Y022383D02*
X028538Y022383D01*
X028561Y022144D02*
X030999Y022144D01*
X031099Y021906D02*
X028444Y021906D01*
X028300Y021667D02*
X032541Y021667D01*
X032541Y021429D02*
X028519Y021429D01*
X028561Y021190D02*
X032541Y021190D01*
X032541Y020952D02*
X028487Y020952D01*
X031830Y020745D02*
X031830Y020228D01*
X031830Y020228D01*
X031830Y020745D01*
X031830Y020713D02*
X031830Y020713D01*
X031830Y020475D02*
X031830Y020475D01*
X031830Y020236D02*
X031830Y020236D01*
X032306Y020713D02*
X032541Y020713D01*
X032899Y022144D02*
X032815Y022228D01*
X031830Y022228D01*
X032899Y022144D02*
X032887Y027924D01*
X032584Y028228D01*
X031830Y028228D01*
X032532Y026676D02*
X028279Y026676D01*
X028515Y026437D02*
X032532Y026437D01*
X032533Y026199D02*
X028561Y026199D01*
X028496Y025483D02*
X031084Y025483D01*
X031017Y025245D02*
X028561Y025245D01*
X028510Y025006D02*
X031066Y025006D01*
X032899Y022144D02*
X032899Y019205D01*
X032876Y019228D01*
X031830Y019228D01*
X032899Y019205D02*
X032899Y015206D01*
X031852Y015206D01*
X031830Y015228D01*
X032899Y015206D02*
X032899Y011192D01*
X032541Y012604D02*
X032507Y012604D01*
X032541Y013797D02*
X032453Y013797D01*
X032541Y017136D02*
X028561Y017136D01*
X028541Y017374D02*
X032541Y017374D01*
X032541Y017613D02*
X028381Y017613D01*
X032507Y017851D02*
X032541Y017851D01*
X027570Y025245D02*
X019561Y025245D01*
X019496Y025483D02*
X027635Y025483D01*
X031830Y030253D02*
X031830Y030253D01*
X031830Y030492D02*
X031830Y030492D01*
X031830Y030730D02*
X031830Y030730D01*
X032312Y031207D02*
X027508Y031207D01*
X015420Y029776D02*
X015420Y029776D01*
X015420Y029538D02*
X015420Y029538D01*
X010847Y030730D02*
X008602Y030730D01*
X008364Y030492D02*
X010572Y030492D01*
X010583Y020236D02*
X007658Y020236D01*
X007658Y019998D02*
X010583Y019998D01*
X010583Y019759D02*
X009374Y019759D01*
X008362Y019759D02*
X007658Y019759D01*
X007658Y019521D02*
X008315Y019521D01*
X008315Y019282D02*
X007658Y019282D01*
X007659Y019044D02*
X008315Y019044D01*
X011667Y013558D02*
X011667Y013558D01*
X011667Y013320D02*
X011667Y013320D01*
X011667Y013081D02*
X011667Y013081D01*
X011667Y012843D02*
X011667Y012843D01*
X011808Y012127D02*
X007663Y012127D01*
X007663Y011889D02*
X011776Y011889D01*
X012543Y009833D02*
X010041Y009833D01*
X008782Y011092D01*
X008910Y010458D02*
X007664Y010458D01*
X007664Y010696D02*
X007914Y010696D01*
X007790Y010935D02*
X007664Y010935D01*
X007663Y011173D02*
X007776Y011173D01*
X007857Y011412D02*
X007663Y011412D01*
X007663Y011650D02*
X008121Y011650D01*
X007664Y010219D02*
X009148Y010219D01*
X009387Y009981D02*
X007664Y009981D01*
X007664Y009742D02*
X009625Y009742D01*
X009900Y009504D02*
X007664Y009504D01*
X007666Y007357D02*
X011333Y007357D01*
X011237Y007119D02*
X007666Y007119D01*
X007666Y006880D02*
X011266Y006880D01*
X015122Y007834D02*
X017098Y007834D01*
X017098Y008073D02*
X015360Y008073D01*
X015599Y008311D02*
X017098Y008311D01*
X017114Y008550D02*
X015837Y008550D01*
X016076Y008788D02*
X017308Y008788D01*
X017546Y009027D02*
X016314Y009027D01*
X016553Y009265D02*
X017785Y009265D01*
X018023Y009504D02*
X016791Y009504D01*
X017030Y009742D02*
X018262Y009742D01*
X018500Y009981D02*
X017268Y009981D01*
X017507Y010219D02*
X018739Y010219D01*
X018977Y010458D02*
X017745Y010458D01*
X017984Y010696D02*
X019216Y010696D01*
X018658Y010935D02*
X018222Y010935D01*
X018461Y011173D02*
X018570Y011173D01*
X031401Y007119D02*
X031468Y007119D01*
X031830Y008788D02*
X031830Y008788D01*
X031830Y009027D02*
X031830Y009027D01*
D26*
X024102Y010472D03*
X024015Y020240D03*
X021260Y020256D03*
X026090Y028122D03*
D27*
X007821Y005961D03*
X033186Y005938D03*
X033184Y031167D03*
X007804Y031165D03*
M02*
