G75*
%MOIN*%
%OFA0B0*%
%FSLAX24Y24*%
%IPPOS*%
%LPD*%
%AMOC8*
5,1,8,0,0,1.08239X$1,22.5*
%
%ADD10C,0.0050*%
%ADD11C,0.0040*%
D10*
X011433Y011601D02*
X012973Y011601D01*
X012973Y013531D01*
X011433Y013531D01*
X011433Y011601D01*
X011580Y011816D02*
X011582Y011836D01*
X011588Y011854D01*
X011597Y011872D01*
X011609Y011887D01*
X011624Y011899D01*
X011642Y011908D01*
X011660Y011914D01*
X011680Y011916D01*
X011700Y011914D01*
X011718Y011908D01*
X011736Y011899D01*
X011751Y011887D01*
X011763Y011872D01*
X011772Y011854D01*
X011778Y011836D01*
X011780Y011816D01*
X011778Y011796D01*
X011772Y011778D01*
X011763Y011760D01*
X011751Y011745D01*
X011736Y011733D01*
X011718Y011724D01*
X011700Y011718D01*
X011680Y011716D01*
X011660Y011718D01*
X011642Y011724D01*
X011624Y011733D01*
X011609Y011745D01*
X011597Y011760D01*
X011588Y011778D01*
X011582Y011796D01*
X011580Y011816D01*
D11*
X001412Y010442D02*
X001259Y010442D01*
X001182Y010519D01*
X001182Y010826D01*
X001489Y010519D01*
X001412Y010442D01*
X001489Y010519D02*
X001489Y010826D01*
X001412Y010902D01*
X001259Y010902D01*
X001182Y010826D01*
X001643Y010442D02*
X001950Y010442D01*
X002103Y010442D02*
X002257Y010595D01*
X002180Y010595D02*
X002410Y010595D01*
X002410Y010442D02*
X002410Y010902D01*
X002180Y010902D01*
X002103Y010826D01*
X002103Y010672D01*
X002180Y010595D01*
X001950Y010749D02*
X001796Y010902D01*
X001796Y010442D01*
X001796Y014336D02*
X001796Y014796D01*
X001950Y014643D01*
X002103Y014719D02*
X002103Y014566D01*
X002180Y014489D01*
X002410Y014489D01*
X002410Y014336D02*
X002410Y014796D01*
X002180Y014796D01*
X002103Y014719D01*
X002257Y014489D02*
X002103Y014336D01*
X001950Y014336D02*
X001643Y014336D01*
X001489Y014336D02*
X001182Y014336D01*
X001336Y014336D02*
X001336Y014796D01*
X001489Y014643D01*
X010700Y012603D02*
X010700Y012296D01*
X010700Y012449D02*
X011160Y012449D01*
X011007Y012296D01*
X011084Y012143D02*
X011160Y012066D01*
X011160Y011912D01*
X011084Y011836D01*
X010777Y011836D01*
X010700Y011912D01*
X010700Y012066D01*
X010777Y012143D01*
X012200Y010932D02*
X012200Y010625D01*
X012200Y010472D02*
X012353Y010318D01*
X012353Y010395D02*
X012353Y010165D01*
X012200Y010165D02*
X012660Y010165D01*
X012660Y010395D01*
X012584Y010472D01*
X012430Y010472D01*
X012353Y010395D01*
X012507Y010625D02*
X012660Y010779D01*
X012200Y010779D01*
X013777Y008182D02*
X013700Y008105D01*
X013700Y007952D01*
X013777Y007875D01*
X013930Y007875D02*
X014007Y008029D01*
X014007Y008105D01*
X013930Y008182D01*
X013777Y008182D01*
X013930Y007875D02*
X014160Y007875D01*
X014160Y008182D01*
X014084Y007722D02*
X013930Y007722D01*
X013853Y007645D01*
X013853Y007415D01*
X013700Y007415D02*
X014160Y007415D01*
X014160Y007645D01*
X014084Y007722D01*
X013853Y007568D02*
X013700Y007722D01*
M02*
