G75*
%MOIN*%
%OFA0B0*%
%FSLAX24Y24*%
%IPPOS*%
%LPD*%
%AMOC8*
5,1,8,0,0,1.08239X$1,22.5*
%
%ADD10C,0.0000*%
D10*
X000180Y000816D02*
X000180Y026812D01*
X029050Y026812D01*
X029050Y000816D01*
X000180Y000816D01*
X001529Y005678D02*
X001531Y005712D01*
X001537Y005746D01*
X001547Y005779D01*
X001560Y005810D01*
X001578Y005840D01*
X001598Y005868D01*
X001622Y005893D01*
X001648Y005915D01*
X001676Y005933D01*
X001707Y005949D01*
X001739Y005961D01*
X001773Y005969D01*
X001807Y005973D01*
X001841Y005973D01*
X001875Y005969D01*
X001909Y005961D01*
X001941Y005949D01*
X001971Y005933D01*
X002000Y005915D01*
X002026Y005893D01*
X002050Y005868D01*
X002070Y005840D01*
X002088Y005810D01*
X002101Y005779D01*
X002111Y005746D01*
X002117Y005712D01*
X002119Y005678D01*
X002117Y005644D01*
X002111Y005610D01*
X002101Y005577D01*
X002088Y005546D01*
X002070Y005516D01*
X002050Y005488D01*
X002026Y005463D01*
X002000Y005441D01*
X001972Y005423D01*
X001941Y005407D01*
X001909Y005395D01*
X001875Y005387D01*
X001841Y005383D01*
X001807Y005383D01*
X001773Y005387D01*
X001739Y005395D01*
X001707Y005407D01*
X001676Y005423D01*
X001648Y005441D01*
X001622Y005463D01*
X001598Y005488D01*
X001578Y005516D01*
X001560Y005546D01*
X001547Y005577D01*
X001537Y005610D01*
X001531Y005644D01*
X001529Y005678D01*
X001529Y010678D02*
X001531Y010712D01*
X001537Y010746D01*
X001547Y010779D01*
X001560Y010810D01*
X001578Y010840D01*
X001598Y010868D01*
X001622Y010893D01*
X001648Y010915D01*
X001676Y010933D01*
X001707Y010949D01*
X001739Y010961D01*
X001773Y010969D01*
X001807Y010973D01*
X001841Y010973D01*
X001875Y010969D01*
X001909Y010961D01*
X001941Y010949D01*
X001971Y010933D01*
X002000Y010915D01*
X002026Y010893D01*
X002050Y010868D01*
X002070Y010840D01*
X002088Y010810D01*
X002101Y010779D01*
X002111Y010746D01*
X002117Y010712D01*
X002119Y010678D01*
X002117Y010644D01*
X002111Y010610D01*
X002101Y010577D01*
X002088Y010546D01*
X002070Y010516D01*
X002050Y010488D01*
X002026Y010463D01*
X002000Y010441D01*
X001972Y010423D01*
X001941Y010407D01*
X001909Y010395D01*
X001875Y010387D01*
X001841Y010383D01*
X001807Y010383D01*
X001773Y010387D01*
X001739Y010395D01*
X001707Y010407D01*
X001676Y010423D01*
X001648Y010441D01*
X001622Y010463D01*
X001598Y010488D01*
X001578Y010516D01*
X001560Y010546D01*
X001547Y010577D01*
X001537Y010610D01*
X001531Y010644D01*
X001529Y010678D01*
X026529Y007678D02*
X026531Y007712D01*
X026537Y007746D01*
X026547Y007779D01*
X026560Y007810D01*
X026578Y007840D01*
X026598Y007868D01*
X026622Y007893D01*
X026648Y007915D01*
X026676Y007933D01*
X026707Y007949D01*
X026739Y007961D01*
X026773Y007969D01*
X026807Y007973D01*
X026841Y007973D01*
X026875Y007969D01*
X026909Y007961D01*
X026941Y007949D01*
X026971Y007933D01*
X027000Y007915D01*
X027026Y007893D01*
X027050Y007868D01*
X027070Y007840D01*
X027088Y007810D01*
X027101Y007779D01*
X027111Y007746D01*
X027117Y007712D01*
X027119Y007678D01*
X027117Y007644D01*
X027111Y007610D01*
X027101Y007577D01*
X027088Y007546D01*
X027070Y007516D01*
X027050Y007488D01*
X027026Y007463D01*
X027000Y007441D01*
X026972Y007423D01*
X026941Y007407D01*
X026909Y007395D01*
X026875Y007387D01*
X026841Y007383D01*
X026807Y007383D01*
X026773Y007387D01*
X026739Y007395D01*
X026707Y007407D01*
X026676Y007423D01*
X026648Y007441D01*
X026622Y007463D01*
X026598Y007488D01*
X026578Y007516D01*
X026560Y007546D01*
X026547Y007577D01*
X026537Y007610D01*
X026531Y007644D01*
X026529Y007678D01*
X026529Y002178D02*
X026531Y002212D01*
X026537Y002246D01*
X026547Y002279D01*
X026560Y002310D01*
X026578Y002340D01*
X026598Y002368D01*
X026622Y002393D01*
X026648Y002415D01*
X026676Y002433D01*
X026707Y002449D01*
X026739Y002461D01*
X026773Y002469D01*
X026807Y002473D01*
X026841Y002473D01*
X026875Y002469D01*
X026909Y002461D01*
X026941Y002449D01*
X026971Y002433D01*
X027000Y002415D01*
X027026Y002393D01*
X027050Y002368D01*
X027070Y002340D01*
X027088Y002310D01*
X027101Y002279D01*
X027111Y002246D01*
X027117Y002212D01*
X027119Y002178D01*
X027117Y002144D01*
X027111Y002110D01*
X027101Y002077D01*
X027088Y002046D01*
X027070Y002016D01*
X027050Y001988D01*
X027026Y001963D01*
X027000Y001941D01*
X026972Y001923D01*
X026941Y001907D01*
X026909Y001895D01*
X026875Y001887D01*
X026841Y001883D01*
X026807Y001883D01*
X026773Y001887D01*
X026739Y001895D01*
X026707Y001907D01*
X026676Y001923D01*
X026648Y001941D01*
X026622Y001963D01*
X026598Y001988D01*
X026578Y002016D01*
X026560Y002046D01*
X026547Y002077D01*
X026537Y002110D01*
X026531Y002144D01*
X026529Y002178D01*
X026529Y018678D02*
X026531Y018712D01*
X026537Y018746D01*
X026547Y018779D01*
X026560Y018810D01*
X026578Y018840D01*
X026598Y018868D01*
X026622Y018893D01*
X026648Y018915D01*
X026676Y018933D01*
X026707Y018949D01*
X026739Y018961D01*
X026773Y018969D01*
X026807Y018973D01*
X026841Y018973D01*
X026875Y018969D01*
X026909Y018961D01*
X026941Y018949D01*
X026971Y018933D01*
X027000Y018915D01*
X027026Y018893D01*
X027050Y018868D01*
X027070Y018840D01*
X027088Y018810D01*
X027101Y018779D01*
X027111Y018746D01*
X027117Y018712D01*
X027119Y018678D01*
X027117Y018644D01*
X027111Y018610D01*
X027101Y018577D01*
X027088Y018546D01*
X027070Y018516D01*
X027050Y018488D01*
X027026Y018463D01*
X027000Y018441D01*
X026972Y018423D01*
X026941Y018407D01*
X026909Y018395D01*
X026875Y018387D01*
X026841Y018383D01*
X026807Y018383D01*
X026773Y018387D01*
X026739Y018395D01*
X026707Y018407D01*
X026676Y018423D01*
X026648Y018441D01*
X026622Y018463D01*
X026598Y018488D01*
X026578Y018516D01*
X026560Y018546D01*
X026547Y018577D01*
X026537Y018610D01*
X026531Y018644D01*
X026529Y018678D01*
M02*
