G75*
%MOIN*%
%OFA0B0*%
%FSLAX24Y24*%
%IPPOS*%
%LPD*%
%AMOC8*
5,1,8,0,0,1.08239X$1,22.5*
%
%ADD10C,0.0236*%
%ADD11C,0.0040*%
%ADD12C,0.0000*%
%ADD13C,0.0050*%
%ADD14C,0.0060*%
%ADD15C,0.0260*%
%ADD16R,0.0240X0.0200*%
%ADD17C,0.0300*%
%ADD18R,0.0300X0.0200*%
%ADD19R,0.0300X0.0400*%
D10*
X020495Y001153D02*
X020495Y003192D01*
X022424Y003192D02*
X022424Y001153D01*
X020495Y001153D01*
D11*
X025519Y002279D02*
X025595Y002202D01*
X025902Y002202D01*
X025979Y002279D01*
X025979Y002433D01*
X025902Y002509D01*
X025979Y002663D02*
X025672Y002663D01*
X025519Y002816D01*
X025672Y002970D01*
X025979Y002970D01*
X025979Y003123D02*
X025519Y003123D01*
X025979Y003430D01*
X025519Y003430D01*
X025749Y002970D02*
X025749Y002663D01*
X025595Y002509D02*
X025519Y002433D01*
X025519Y002279D01*
X025672Y007702D02*
X025519Y007856D01*
X025672Y008009D01*
X025979Y008009D01*
X025979Y008163D02*
X025979Y008393D01*
X025902Y008470D01*
X025595Y008470D01*
X025519Y008393D01*
X025519Y008163D01*
X025979Y008163D01*
X025749Y008009D02*
X025749Y007702D01*
X025672Y007702D02*
X025979Y007702D01*
X025902Y008623D02*
X025595Y008623D01*
X025519Y008700D01*
X025519Y008853D01*
X025595Y008930D01*
X025672Y009084D02*
X025519Y009237D01*
X025979Y009237D01*
X025979Y009084D02*
X025979Y009390D01*
X025902Y008930D02*
X025979Y008853D01*
X025979Y008700D01*
X025902Y008623D01*
X028016Y013599D02*
X027940Y013675D01*
X027940Y013829D01*
X028016Y013906D01*
X028093Y013906D01*
X028170Y013829D01*
X028247Y013906D01*
X028323Y013906D01*
X028400Y013829D01*
X028400Y013675D01*
X028323Y013599D01*
X028170Y013752D02*
X028170Y013829D01*
X028247Y014059D02*
X027940Y014059D01*
X028247Y014059D02*
X028400Y014213D01*
X028247Y014366D01*
X027940Y014366D01*
X028016Y014520D02*
X027940Y014596D01*
X027940Y014750D01*
X028016Y014826D01*
X028093Y014826D01*
X028170Y014750D01*
X028247Y014826D01*
X028323Y014826D01*
X028400Y014750D01*
X028400Y014596D01*
X028323Y014520D01*
X028170Y014673D02*
X028170Y014750D01*
X025979Y018702D02*
X025672Y018702D01*
X025519Y018856D01*
X025672Y019009D01*
X025979Y019009D01*
X025979Y019163D02*
X025979Y019393D01*
X025902Y019470D01*
X025595Y019470D01*
X025519Y019393D01*
X025519Y019163D01*
X025979Y019163D01*
X025749Y019009D02*
X025749Y018702D01*
X025595Y019623D02*
X025902Y019623D01*
X025979Y019700D01*
X025979Y019853D01*
X025902Y019930D01*
X025902Y020084D02*
X025595Y020084D01*
X025519Y020160D01*
X025519Y020314D01*
X025595Y020390D01*
X025902Y020084D01*
X025979Y020160D01*
X025979Y020314D01*
X025902Y020390D01*
X025595Y020390D01*
X025595Y019930D02*
X025519Y019853D01*
X025519Y019700D01*
X025595Y019623D01*
X009497Y018553D02*
X009497Y018476D01*
X009420Y018399D01*
X009497Y018322D01*
X009497Y018246D01*
X009420Y018169D01*
X009267Y018169D01*
X009190Y018246D01*
X009036Y018169D02*
X008883Y018322D01*
X008960Y018322D02*
X008730Y018322D01*
X008730Y018169D02*
X008730Y018629D01*
X008960Y018629D01*
X009036Y018553D01*
X009036Y018399D01*
X008960Y018322D01*
X009190Y018553D02*
X009267Y018629D01*
X009420Y018629D01*
X009497Y018553D01*
X009420Y018399D02*
X009343Y018399D01*
X009400Y017346D02*
X009247Y017346D01*
X009170Y017269D01*
X009017Y017269D02*
X009017Y017116D01*
X008940Y017039D01*
X008710Y017039D01*
X008863Y017039D02*
X009017Y016885D01*
X009170Y016885D02*
X009477Y017192D01*
X009477Y017269D01*
X009400Y017346D01*
X009477Y016885D02*
X009170Y016885D01*
X009017Y017269D02*
X008940Y017346D01*
X008710Y017346D01*
X008710Y016885D01*
X008682Y019740D02*
X008682Y020200D01*
X008912Y020200D01*
X008989Y020123D01*
X008989Y019970D01*
X008912Y019893D01*
X008682Y019893D01*
X008836Y019893D02*
X008989Y019740D01*
X009143Y019970D02*
X009450Y019970D01*
X009373Y019740D02*
X009373Y020200D01*
X009143Y019970D01*
X009160Y021067D02*
X009084Y021143D01*
X009084Y021297D01*
X009314Y021297D01*
X009391Y021220D01*
X009391Y021143D01*
X009314Y021067D01*
X009160Y021067D01*
X008930Y021067D02*
X008777Y021220D01*
X008853Y021220D02*
X008623Y021220D01*
X008623Y021067D02*
X008623Y021527D01*
X008853Y021527D01*
X008930Y021450D01*
X008930Y021297D01*
X008853Y021220D01*
X009084Y021297D02*
X009237Y021450D01*
X009391Y021527D01*
X000979Y013772D02*
X000825Y013618D01*
X000825Y013695D02*
X000825Y013465D01*
X000979Y013465D02*
X000519Y013465D01*
X000519Y013695D01*
X000595Y013772D01*
X000749Y013772D01*
X000825Y013695D01*
X000902Y013311D02*
X000519Y013311D01*
X000519Y013004D02*
X000902Y013004D01*
X000979Y013081D01*
X000979Y013235D01*
X000902Y013311D01*
X000979Y012851D02*
X000979Y012544D01*
X000519Y012544D01*
X000519Y012851D01*
X000749Y012697D02*
X000749Y012544D01*
X000979Y012390D02*
X000979Y012084D01*
X000519Y012084D01*
X000519Y011930D02*
X000902Y011930D01*
X000979Y011853D01*
X000979Y011700D01*
X000902Y011623D01*
X000519Y011623D01*
X000595Y011470D02*
X000519Y011393D01*
X000519Y011240D01*
X000595Y011163D01*
X000902Y011163D01*
X000979Y011240D01*
X000979Y011393D01*
X000902Y011470D01*
X000595Y011470D01*
X000595Y011009D02*
X000519Y010933D01*
X000519Y010779D01*
X000595Y010702D01*
X000902Y010702D01*
X000979Y010779D01*
X000979Y010933D01*
X000902Y011009D01*
X000902Y008772D02*
X000595Y008772D01*
X000519Y008695D01*
X000519Y008465D01*
X000979Y008465D01*
X000979Y008695D01*
X000902Y008772D01*
X000979Y008311D02*
X000519Y008311D01*
X000519Y008004D02*
X000979Y008311D01*
X000979Y008004D02*
X000519Y008004D01*
X000672Y007851D02*
X000519Y007697D01*
X000672Y007544D01*
X000979Y007544D01*
X000979Y007390D02*
X000519Y007390D01*
X000672Y007237D01*
X000519Y007084D01*
X000979Y007084D01*
X000979Y006930D02*
X000519Y006930D01*
X000672Y006777D01*
X000519Y006623D01*
X000979Y006623D01*
X000902Y006470D02*
X000595Y006470D01*
X000519Y006393D01*
X000519Y006240D01*
X000595Y006163D01*
X000902Y006163D01*
X000979Y006240D01*
X000979Y006393D01*
X000902Y006470D01*
X000902Y006009D02*
X000979Y005933D01*
X000979Y005779D01*
X000902Y005702D01*
X000595Y005702D01*
X000519Y005779D01*
X000519Y005933D01*
X000595Y006009D01*
X000749Y007544D02*
X000749Y007851D01*
X000672Y007851D02*
X000979Y007851D01*
D12*
X004680Y000598D02*
X004680Y026598D01*
X024680Y026598D01*
X024680Y000598D01*
X004680Y000598D01*
D13*
X003164Y005486D02*
X002771Y005486D01*
X002771Y005682D01*
X001589Y005682D01*
X001589Y005486D01*
X001196Y005486D01*
X001196Y009210D01*
X001589Y009210D01*
X001589Y009013D01*
X002771Y009013D01*
X002771Y009210D01*
X003164Y009210D01*
X003164Y005486D01*
X003164Y010486D02*
X002771Y010486D01*
X002771Y010682D01*
X001589Y010682D01*
X001589Y010486D01*
X001196Y010486D01*
X001196Y013210D01*
X001589Y013210D01*
X001589Y013013D01*
X002771Y013013D01*
X002771Y013210D01*
X003164Y013210D01*
X003164Y010486D01*
X005180Y012098D02*
X005180Y012998D01*
X005280Y013098D01*
X005180Y013198D01*
X005180Y013998D01*
X005280Y014098D01*
X005180Y014198D01*
X005180Y014998D01*
X005280Y015098D01*
X005180Y015198D01*
X005180Y015998D01*
X005280Y016098D01*
X005180Y016198D01*
X005180Y016998D01*
X005280Y017098D01*
X005180Y017198D01*
X005180Y017998D01*
X005280Y018098D01*
X005180Y018198D01*
X005180Y018998D01*
X005280Y019098D01*
X005180Y019198D01*
X005180Y019998D01*
X005280Y020098D01*
X005180Y020198D01*
X005180Y020998D01*
X005280Y021098D01*
X005180Y021198D01*
X005180Y022098D01*
X006180Y022098D01*
X007180Y022098D01*
X007180Y021198D01*
X007080Y021098D01*
X007180Y020998D01*
X007180Y020198D01*
X007080Y020098D01*
X007180Y019998D01*
X007180Y019198D01*
X007080Y019098D01*
X007180Y018998D01*
X007180Y018198D01*
X007080Y018098D01*
X007180Y017998D01*
X007180Y017198D01*
X007080Y017098D01*
X007180Y016998D01*
X007180Y016198D01*
X007080Y016098D01*
X007180Y015998D01*
X007180Y015198D01*
X007080Y015098D01*
X007180Y014998D01*
X007180Y014198D01*
X007080Y014098D01*
X007180Y013998D01*
X007180Y013198D01*
X007080Y013098D01*
X007180Y012998D01*
X007180Y012098D01*
X006180Y012098D01*
X006180Y012998D01*
X006280Y013098D01*
X006180Y013198D01*
X006180Y013998D01*
X006280Y014098D01*
X006180Y014198D01*
X006180Y014998D01*
X006280Y015098D01*
X006180Y015198D01*
X006180Y015998D01*
X006280Y016098D01*
X006180Y016198D01*
X006180Y016998D01*
X006280Y017098D01*
X006180Y017198D01*
X006180Y017998D01*
X006280Y018098D01*
X006180Y018198D01*
X006180Y018998D01*
X006280Y019098D01*
X006180Y019198D01*
X006180Y019998D01*
X006280Y020098D01*
X006180Y020198D01*
X006180Y020998D01*
X006280Y021098D01*
X006180Y021198D01*
X006180Y022098D01*
X006180Y021198D02*
X006080Y021098D01*
X006180Y020998D01*
X006180Y020198D02*
X006080Y020098D01*
X006180Y019998D01*
X006180Y019198D02*
X006080Y019098D01*
X006180Y018998D01*
X006180Y018198D02*
X006080Y018098D01*
X006180Y017998D01*
X006180Y017198D02*
X006080Y017098D01*
X006180Y016998D01*
X006180Y016198D02*
X006080Y016098D01*
X006180Y015998D01*
X006180Y015198D02*
X006080Y015098D01*
X006180Y014998D01*
X006180Y014198D02*
X006080Y014098D01*
X006180Y013998D01*
X006180Y013198D02*
X006080Y013098D01*
X006180Y012998D01*
X006180Y012098D02*
X005180Y012098D01*
X002905Y014673D02*
X002905Y014973D01*
X002905Y014823D02*
X002455Y014823D01*
X002605Y014673D01*
X002005Y015198D02*
X002005Y015348D01*
X001930Y015423D01*
X001630Y015423D01*
X001555Y015348D01*
X001555Y015198D01*
X001630Y015123D01*
X001930Y015123D01*
X002005Y015198D01*
X002005Y015583D02*
X001555Y015583D01*
X001555Y015808D01*
X001630Y015883D01*
X001930Y015883D01*
X002005Y015808D01*
X002005Y015583D01*
X001930Y016044D02*
X001630Y016044D01*
X001555Y016119D01*
X001555Y016269D01*
X001630Y016344D01*
X001930Y016344D01*
X002005Y016269D01*
X002005Y016119D01*
X001930Y016044D01*
X002080Y016504D02*
X002080Y016804D01*
X001930Y016964D02*
X002005Y017039D01*
X002005Y017190D01*
X001930Y017265D01*
X001780Y017265D01*
X001780Y017114D01*
X001630Y016964D02*
X001930Y016964D01*
X001630Y016964D02*
X001555Y017039D01*
X001555Y017190D01*
X001630Y017265D01*
X002680Y019223D02*
X002680Y019523D01*
X002605Y019673D02*
X002455Y019823D01*
X002905Y019823D01*
X002905Y019673D02*
X002905Y019973D01*
X002905Y019448D02*
X002455Y019448D01*
X002680Y019223D01*
X001930Y020123D02*
X001630Y020123D01*
X001555Y020198D01*
X001555Y020348D01*
X001630Y020423D01*
X001930Y020423D01*
X002005Y020348D01*
X002005Y020198D01*
X001930Y020123D01*
X002005Y020583D02*
X001555Y020583D01*
X001555Y020808D01*
X001630Y020883D01*
X001930Y020883D01*
X002005Y020808D01*
X002005Y020583D01*
X001930Y021044D02*
X001630Y021044D01*
X001555Y021119D01*
X001555Y021269D01*
X001630Y021344D01*
X001930Y021344D01*
X002005Y021269D01*
X002005Y021119D01*
X001930Y021044D01*
X002080Y021504D02*
X002080Y021804D01*
X002005Y021964D02*
X002005Y022190D01*
X001930Y022265D01*
X001630Y022265D01*
X001555Y022190D01*
X001555Y021964D01*
X002005Y021964D01*
X002680Y024223D02*
X002680Y024523D01*
X002905Y024448D02*
X002455Y024448D01*
X002680Y024223D01*
X022180Y022098D02*
X022180Y021198D01*
X022280Y021098D01*
X022180Y020998D01*
X022180Y020198D01*
X022280Y020098D01*
X022180Y019998D01*
X022180Y019198D01*
X022280Y019098D01*
X022180Y018998D01*
X022180Y018198D01*
X022280Y018098D01*
X022180Y017998D01*
X022180Y017198D01*
X022280Y017098D01*
X022180Y016998D01*
X022180Y016198D01*
X022280Y016098D01*
X022180Y015998D01*
X022180Y015198D01*
X022280Y015098D01*
X022180Y014998D01*
X022180Y014198D01*
X022280Y014098D01*
X022180Y013998D01*
X022180Y013198D01*
X022280Y013098D01*
X022180Y012998D01*
X022180Y012098D01*
X023180Y012098D01*
X023180Y012998D01*
X023080Y013098D01*
X023180Y013198D01*
X023180Y013998D01*
X023080Y014098D01*
X023180Y014198D01*
X023180Y014998D01*
X023080Y015098D01*
X023180Y015198D01*
X023180Y015998D01*
X023080Y016098D01*
X023180Y016198D01*
X023180Y016998D01*
X023080Y017098D01*
X023180Y017198D01*
X023180Y017998D01*
X023080Y018098D01*
X023180Y018198D01*
X023180Y018998D01*
X023080Y019098D01*
X023180Y019198D01*
X023180Y019998D01*
X023080Y020098D01*
X023180Y020198D01*
X023180Y020998D01*
X023080Y021098D01*
X023180Y021198D01*
X023180Y022098D01*
X022180Y022098D01*
X023180Y022098D02*
X024180Y022098D01*
X024180Y021198D01*
X024080Y021098D01*
X024180Y020998D01*
X024180Y020198D01*
X024080Y020098D01*
X024180Y019998D01*
X024180Y019198D01*
X024080Y019098D01*
X024180Y018998D01*
X024180Y018198D01*
X024080Y018098D01*
X024180Y017998D01*
X024180Y017198D01*
X024080Y017098D01*
X024180Y016998D01*
X024180Y016198D01*
X024080Y016098D01*
X024180Y015998D01*
X024180Y015198D01*
X024080Y015098D01*
X024180Y014998D01*
X024180Y014198D01*
X024080Y014098D01*
X024180Y013998D01*
X024180Y013198D01*
X024080Y013098D01*
X024180Y012998D01*
X024180Y012098D01*
X023180Y012098D01*
X023180Y012998D02*
X023280Y013098D01*
X023180Y013198D01*
X023180Y013998D02*
X023280Y014098D01*
X023180Y014198D01*
X023180Y014998D02*
X023280Y015098D01*
X023180Y015198D01*
X023180Y015998D02*
X023280Y016098D01*
X023180Y016198D01*
X023180Y016998D02*
X023280Y017098D01*
X023180Y017198D01*
X023180Y017998D02*
X023280Y018098D01*
X023180Y018198D01*
X023180Y018998D02*
X023280Y019098D01*
X023180Y019198D01*
X023180Y019998D02*
X023280Y020098D01*
X023180Y020198D01*
X023180Y020998D02*
X023280Y021098D01*
X023180Y021198D01*
X026196Y022210D02*
X026196Y018486D01*
X026589Y018486D01*
X026589Y018682D01*
X027771Y018682D01*
X027771Y018486D01*
X028164Y018486D01*
X028164Y022210D01*
X027771Y022210D01*
X027771Y022013D01*
X026589Y022013D01*
X026589Y022210D01*
X026196Y022210D01*
X027405Y017413D02*
X027405Y017112D01*
X027405Y017262D02*
X026955Y017262D01*
X027105Y017112D01*
X027855Y016963D02*
X027855Y016662D01*
X027855Y016812D02*
X028305Y016812D01*
X028305Y016502D02*
X028155Y016352D01*
X028155Y016427D02*
X028155Y016202D01*
X028305Y016202D02*
X027855Y016202D01*
X027855Y016427D01*
X027930Y016502D01*
X028080Y016502D01*
X028155Y016427D01*
X028080Y016042D02*
X028080Y015742D01*
X028005Y015742D02*
X027855Y015892D01*
X028005Y016042D01*
X028305Y016042D01*
X028305Y015742D02*
X028005Y015742D01*
X027855Y015581D02*
X028230Y015581D01*
X028305Y015506D01*
X028305Y015356D01*
X028230Y015281D01*
X027855Y015281D01*
X027180Y012863D02*
X027180Y012562D01*
X026955Y012788D01*
X027405Y012788D01*
X027771Y011210D02*
X027771Y011013D01*
X026589Y011013D01*
X026589Y011210D01*
X026196Y011210D01*
X026196Y007486D01*
X026589Y007486D01*
X026589Y007682D01*
X027771Y007682D01*
X027771Y007486D01*
X028164Y007486D01*
X028164Y011210D01*
X027771Y011210D01*
X027771Y006710D02*
X027771Y006513D01*
X026589Y006513D01*
X026589Y006710D01*
X026196Y006710D01*
X026196Y001986D01*
X026589Y001986D01*
X026589Y002182D01*
X027771Y002182D01*
X027771Y001986D01*
X028164Y001986D01*
X028164Y006710D01*
X027771Y006710D01*
X023092Y004591D02*
X022642Y004591D01*
X022642Y004291D02*
X023092Y004591D01*
X023092Y004291D02*
X022642Y004291D01*
X022792Y004131D02*
X023092Y004131D01*
X022867Y004131D02*
X022867Y003830D01*
X022792Y003830D02*
X022642Y003980D01*
X022792Y004131D01*
X022792Y003830D02*
X023092Y003830D01*
X023017Y003670D02*
X023092Y003595D01*
X023092Y003445D01*
X023017Y003370D01*
X022717Y003370D01*
X022642Y003445D01*
X022642Y003595D01*
X022717Y003670D01*
X022717Y003210D02*
X022867Y003210D01*
X022942Y003135D01*
X022942Y002910D01*
X022942Y003060D02*
X023092Y003210D01*
X023092Y002910D02*
X022642Y002910D01*
X022642Y003135D01*
X022717Y003210D01*
X022642Y002749D02*
X022642Y002449D01*
X023092Y002449D01*
X023092Y002749D01*
X022867Y002599D02*
X022867Y002449D01*
X022867Y002289D02*
X022942Y002214D01*
X022942Y001989D01*
X023092Y001989D02*
X022642Y001989D01*
X022642Y002214D01*
X022717Y002289D01*
X022867Y002289D01*
X022642Y001829D02*
X023092Y001829D01*
X023092Y001528D02*
X022642Y001528D01*
X022792Y001678D01*
X022642Y001829D01*
X022642Y001368D02*
X023017Y001368D01*
X023092Y001293D01*
X023092Y001143D01*
X023017Y001068D01*
X022642Y001068D01*
X022642Y000908D02*
X022642Y000758D01*
X022642Y000833D02*
X023017Y000833D01*
X023092Y000758D01*
X023092Y000683D01*
X023017Y000608D01*
X021960Y003961D02*
X021733Y003961D01*
X021847Y003961D02*
X021847Y004301D01*
X021733Y004188D01*
X021010Y004188D02*
X021010Y004245D01*
X020953Y004301D01*
X020840Y004301D01*
X020783Y004245D01*
X021010Y004188D02*
X020783Y003961D01*
X021010Y003961D01*
X020060Y004018D02*
X020003Y003961D01*
X019890Y003961D01*
X019833Y004018D01*
X019947Y004131D02*
X020003Y004131D01*
X020060Y004075D01*
X020060Y004018D01*
X020003Y004131D02*
X020060Y004188D01*
X020060Y004245D01*
X020003Y004301D01*
X019890Y004301D01*
X019833Y004245D01*
X015716Y004379D02*
X015566Y004529D01*
X015716Y004679D01*
X015266Y004679D01*
X015266Y004840D02*
X015416Y004990D01*
X015266Y005140D01*
X015716Y005140D01*
X015716Y004840D02*
X015266Y004840D01*
X015266Y004379D02*
X015716Y004379D01*
X015491Y004219D02*
X015566Y004144D01*
X015566Y003919D01*
X015716Y003919D02*
X015266Y003919D01*
X015266Y004144D01*
X015341Y004219D01*
X015491Y004219D01*
D14*
X014991Y004525D02*
X014991Y003525D01*
X013991Y003525D01*
X012991Y003525D01*
X011991Y003525D01*
X010991Y003525D01*
X009991Y003525D01*
X008991Y003525D01*
X008991Y004525D01*
X009991Y004525D01*
X009991Y003525D01*
X009991Y004525D02*
X010991Y004525D01*
X010991Y003525D01*
X010991Y004525D02*
X011991Y004525D01*
X011991Y003525D01*
X011991Y004525D02*
X012991Y004525D01*
X012991Y003525D01*
X012991Y004525D02*
X013991Y004525D01*
X013991Y003525D01*
X013991Y004525D02*
X014991Y004525D01*
X019467Y004626D02*
X019467Y003826D01*
X019567Y003726D01*
X020367Y003726D01*
X020467Y003826D01*
X020567Y003726D01*
X021367Y003726D01*
X021467Y003826D01*
X021567Y003726D01*
X022367Y003726D01*
X022467Y003826D01*
X022467Y004626D01*
X022367Y004726D01*
X021567Y004726D01*
X021467Y004626D01*
X021367Y004726D01*
X020567Y004726D01*
X020467Y004626D01*
X020467Y003826D01*
X020467Y004626D02*
X020367Y004726D01*
X019567Y004726D01*
X019467Y004626D01*
X021467Y004626D02*
X021467Y003826D01*
X026930Y013098D02*
X026680Y013348D01*
X026680Y013848D01*
X026930Y014098D01*
X026680Y014348D01*
X026680Y014848D01*
X026930Y015098D01*
X026680Y015348D01*
X026680Y015848D01*
X026930Y016098D01*
X026680Y016348D01*
X026680Y016848D01*
X026930Y017098D01*
X027430Y017098D01*
X027680Y016848D01*
X027680Y016348D01*
X027430Y016098D01*
X027680Y015848D01*
X027680Y015348D01*
X027430Y015098D01*
X027680Y014848D01*
X027680Y014348D01*
X027430Y014098D01*
X027680Y013848D01*
X027680Y013348D01*
X027430Y013098D01*
X026930Y013098D01*
X003180Y015348D02*
X003180Y015848D01*
X002930Y016098D01*
X003180Y016348D01*
X003180Y016848D01*
X002930Y017098D01*
X003180Y017348D01*
X003180Y017848D01*
X002930Y018098D01*
X003180Y018348D01*
X003180Y018848D01*
X002930Y019098D01*
X002430Y019098D01*
X002180Y018848D01*
X002180Y018348D01*
X002430Y018098D01*
X002180Y017848D01*
X002180Y017348D01*
X002430Y017098D01*
X002180Y016848D01*
X002180Y016348D01*
X002430Y016098D01*
X002180Y015848D01*
X002180Y015348D01*
X002430Y015098D01*
X002930Y015098D01*
X003180Y015348D01*
X002930Y020098D02*
X002430Y020098D01*
X002180Y020348D01*
X002180Y020848D01*
X002430Y021098D01*
X002180Y021348D01*
X002180Y021848D01*
X002430Y022098D01*
X002180Y022348D01*
X002180Y022848D01*
X002430Y023098D01*
X002180Y023348D01*
X002180Y023848D01*
X002430Y024098D01*
X002930Y024098D01*
X003180Y023848D01*
X003180Y023348D01*
X002930Y023098D01*
X003180Y022848D01*
X003180Y022348D01*
X002930Y022098D01*
X003180Y021848D01*
X003180Y021348D01*
X002930Y021098D01*
X003180Y020848D01*
X003180Y020348D01*
X002930Y020098D01*
D15*
X019967Y003526D02*
X019967Y001576D01*
X020967Y001576D02*
X020967Y003526D01*
X021967Y003526D02*
X021967Y001576D01*
D16*
X021967Y003626D03*
X020967Y003626D03*
X019967Y003626D03*
X019967Y004826D03*
X020967Y004826D03*
X021967Y004826D03*
D17*
X014491Y003275D02*
X014491Y001025D01*
X013491Y001025D02*
X013491Y003275D01*
X012491Y003275D02*
X012491Y001025D01*
X011491Y001025D02*
X011491Y003275D01*
X010491Y003275D02*
X010491Y001025D01*
X009491Y001025D02*
X009491Y003275D01*
D18*
X009491Y003425D03*
X010491Y003425D03*
X011491Y003425D03*
X012491Y003425D03*
X013491Y003425D03*
X014491Y003425D03*
D19*
X014491Y004725D03*
X013491Y004725D03*
X012491Y004725D03*
X011491Y004725D03*
X010491Y004725D03*
X009491Y004725D03*
M02*
