G75*
%MOIN*%
%OFA0B0*%
%FSLAX24Y24*%
%IPPOS*%
%LPD*%
%AMOC8*
5,1,8,0,0,1.08239X$1,22.5*
%
%ADD10OC8,0.0670*%
%ADD11R,0.0340X0.0260*%
%ADD12R,0.0631X0.0552*%
%ADD13C,0.0640*%
%ADD14C,0.0580*%
%ADD15R,0.0670X0.0552*%
%ADD16C,0.0600*%
%ADD17C,0.0631*%
%ADD18R,0.0552X0.0631*%
%ADD19C,0.0316*%
%ADD20C,0.0276*%
%ADD21C,0.0394*%
D10*
X005680Y012598D03*
X005680Y013598D03*
X006680Y013598D03*
X006680Y012598D03*
X006680Y014598D03*
X005680Y014598D03*
X005680Y015598D03*
X005680Y016598D03*
X006680Y016598D03*
X006680Y015598D03*
X006680Y017598D03*
X005680Y017598D03*
X005680Y018598D03*
X006680Y018598D03*
X006680Y019598D03*
X006680Y020598D03*
X005680Y020598D03*
X005680Y019598D03*
X005680Y021598D03*
X006680Y021598D03*
X022680Y021598D03*
X023680Y021598D03*
X023680Y020598D03*
X022680Y020598D03*
X022680Y019598D03*
X023680Y019598D03*
X023680Y018598D03*
X022680Y018598D03*
X022680Y017598D03*
X023680Y017598D03*
X023680Y016598D03*
X022680Y016598D03*
X022680Y015598D03*
X023680Y015598D03*
X023680Y014598D03*
X022680Y014598D03*
X022680Y013598D03*
X023680Y013598D03*
X023680Y012598D03*
X022680Y012598D03*
D11*
X013180Y012598D03*
X013180Y013098D03*
X013180Y012098D03*
X013180Y011598D03*
X011225Y011598D03*
X011225Y012098D03*
X011225Y012598D03*
X011225Y013098D03*
D12*
X010180Y012472D03*
X010180Y011724D03*
X013180Y010972D03*
X013180Y010224D03*
D13*
X013491Y005575D02*
X013491Y004975D01*
X012491Y004975D02*
X012491Y005575D01*
X011491Y005575D02*
X011491Y004975D01*
X010491Y004975D02*
X010491Y005575D01*
X009491Y005575D02*
X009491Y004975D01*
X014491Y004975D02*
X014491Y005575D01*
X002980Y015598D02*
X002380Y015598D01*
X002380Y016598D02*
X002980Y016598D01*
X002980Y017598D02*
X002380Y017598D01*
X002380Y018598D02*
X002980Y018598D01*
X002980Y020598D02*
X002380Y020598D01*
X002380Y021598D02*
X002980Y021598D01*
X002980Y022598D02*
X002380Y022598D01*
X002380Y023598D02*
X002980Y023598D01*
X026880Y016598D02*
X027480Y016598D01*
X027480Y015598D02*
X026880Y015598D01*
X026880Y014598D02*
X027480Y014598D01*
X027480Y013598D02*
X026880Y013598D01*
D14*
X021967Y005596D02*
X021967Y005056D01*
X020967Y005056D02*
X020967Y005596D01*
X019967Y005596D02*
X019967Y005056D01*
D15*
X014680Y007224D03*
X014680Y007972D03*
D16*
X026680Y008598D03*
X026680Y009598D03*
X026680Y010598D03*
X027680Y010098D03*
X027680Y009098D03*
X027680Y008098D03*
X026680Y006098D03*
X026680Y005098D03*
X026680Y004098D03*
X026680Y003098D03*
X027680Y003598D03*
X027680Y004598D03*
X027680Y005598D03*
X027680Y002598D03*
X027680Y019098D03*
X027680Y020098D03*
X027680Y021098D03*
X026680Y021598D03*
X026680Y020598D03*
X026680Y019598D03*
X002680Y012098D03*
X002680Y011098D03*
X001680Y011598D03*
X001680Y012598D03*
X001680Y008598D03*
X001680Y007598D03*
X001680Y006598D03*
X002680Y007098D03*
X002680Y008098D03*
X002680Y006098D03*
D17*
X001824Y005460D03*
X001824Y010460D03*
X026824Y007460D03*
X026824Y001960D03*
X026824Y018460D03*
D18*
X002554Y013598D03*
X001806Y013598D03*
X001806Y009704D03*
X002554Y009704D03*
D19*
X004365Y013661D03*
X012487Y015322D03*
X015089Y009759D03*
D20*
X017975Y007488D03*
X019865Y006188D03*
X021755Y012488D03*
X020456Y013984D03*
X019314Y013826D03*
X014117Y019220D03*
X009629Y014417D03*
X008920Y013354D03*
X007345Y011818D03*
X007975Y011267D03*
X006715Y010243D03*
X005731Y011228D03*
X005101Y011228D03*
X004983Y012212D03*
X006467Y011897D03*
X004944Y017094D03*
X025259Y014456D03*
X025928Y013905D03*
X025889Y016346D03*
D21*
X009263Y021830D03*
M02*
