G75*
G70*
%OFA0B0*%
%FSLAX24Y24*%
%IPPOS*%
%LPD*%
%AMOC8*
5,1,8,0,0,1.08239X$1,22.5*
%
%ADD10C,0.0030*%
%ADD11C,0.0060*%
%ADD12C,0.0080*%
%ADD13C,0.0010*%
%ADD14C,0.0020*%
%ADD15C,0.0050*%
%ADD16R,0.0050X0.0200*%
%ADD17C,0.0000*%
D10*
X011996Y009214D02*
X012310Y009528D01*
X012153Y009528D02*
X012153Y009214D01*
X012310Y009214D02*
X011996Y009528D01*
X011996Y009371D02*
X012310Y009371D01*
X015784Y009366D02*
X015784Y009076D01*
X015977Y009366D01*
X015977Y009076D01*
X016079Y009076D02*
X016079Y009269D01*
X016175Y009366D01*
X016272Y009269D01*
X016272Y009076D01*
X016373Y009124D02*
X016422Y009076D01*
X016518Y009076D01*
X016567Y009124D01*
X016567Y009318D01*
X016518Y009366D01*
X016422Y009366D01*
X016373Y009318D01*
X016272Y009221D02*
X016079Y009221D01*
X016962Y009269D02*
X017010Y009269D01*
X017107Y009173D01*
X017107Y009269D02*
X017107Y009076D01*
X017208Y009173D02*
X017402Y009173D01*
X017402Y009221D02*
X017353Y009269D01*
X017256Y009269D01*
X017208Y009221D01*
X017208Y009173D01*
X017256Y009076D02*
X017353Y009076D01*
X017402Y009124D01*
X017402Y009221D01*
X017501Y009076D02*
X017598Y009076D01*
X017550Y009076D02*
X017550Y009366D01*
X017598Y009366D01*
X017746Y009366D02*
X017746Y009076D01*
X017794Y009076D02*
X017698Y009076D01*
X017896Y009124D02*
X017896Y009221D01*
X017944Y009269D01*
X018041Y009269D01*
X018089Y009221D01*
X018089Y009124D01*
X018041Y009076D01*
X017944Y009076D01*
X017896Y009124D01*
X017794Y009366D02*
X017746Y009366D01*
X018189Y009269D02*
X018238Y009269D01*
X018335Y009173D01*
X018335Y009269D02*
X018335Y009076D01*
X018434Y009076D02*
X018483Y009124D01*
X018483Y009318D01*
X018531Y009269D02*
X018434Y009269D01*
X018632Y009221D02*
X018632Y009076D01*
X018632Y009221D02*
X018681Y009269D01*
X018826Y009269D01*
X018826Y009076D01*
X018927Y009124D02*
X018927Y009221D01*
X018975Y009269D01*
X019072Y009269D01*
X019120Y009221D01*
X019120Y009124D01*
X019072Y009076D01*
X018975Y009076D01*
X018927Y009124D01*
X019222Y009124D02*
X019270Y009076D01*
X019367Y009076D01*
X019415Y009124D01*
X019415Y009318D01*
X019367Y009366D01*
X019270Y009366D01*
X019222Y009318D01*
X013236Y004590D02*
X012922Y004276D01*
X012922Y004433D02*
X013236Y004433D01*
X013236Y004276D02*
X012922Y004590D01*
X013079Y004590D02*
X013079Y004276D01*
X012310Y013214D02*
X011996Y013528D01*
X011996Y013371D02*
X012310Y013371D01*
X012310Y013528D02*
X011996Y013214D01*
X012153Y013214D02*
X012153Y013528D01*
D11*
X005144Y003054D02*
X005144Y002818D01*
X005616Y002818D02*
X005616Y003054D01*
X008655Y005141D02*
X008655Y005221D01*
X008655Y005141D02*
X011655Y005141D01*
X011655Y005221D01*
X011831Y004243D02*
X011411Y004243D01*
X011831Y004243D02*
X012071Y004243D01*
X012491Y004243D01*
X012491Y002283D02*
X011411Y002283D01*
X007795Y005951D02*
X007355Y005951D01*
X008655Y009141D02*
X008655Y009221D01*
X008655Y009201D02*
X008655Y009281D01*
X010035Y009281D01*
X010275Y009281D01*
X011655Y009281D01*
X011655Y009201D01*
X011655Y009221D02*
X011655Y009141D01*
X008655Y009141D01*
X007795Y009951D02*
X007355Y009951D01*
X010035Y009281D02*
X010037Y009260D01*
X010042Y009240D01*
X010051Y009221D01*
X010063Y009204D01*
X010078Y009189D01*
X010095Y009177D01*
X010114Y009168D01*
X010134Y009163D01*
X010155Y009161D01*
X010176Y009163D01*
X010196Y009168D01*
X010215Y009177D01*
X010232Y009189D01*
X010247Y009204D01*
X010259Y009221D01*
X010268Y009240D01*
X010273Y009260D01*
X010275Y009281D01*
X013890Y007838D02*
X014210Y007838D01*
X014317Y007731D01*
X014210Y007624D01*
X013996Y007624D01*
X013890Y007518D01*
X013996Y007411D01*
X014317Y007411D01*
X014533Y007838D02*
X014640Y007838D01*
X014854Y007624D01*
X014854Y007411D02*
X014854Y007838D01*
X015071Y007838D02*
X015071Y007411D01*
X015392Y007411D01*
X015498Y007518D01*
X015498Y007838D01*
X015716Y007731D02*
X015716Y007624D01*
X016143Y007624D01*
X016143Y007518D02*
X016143Y007731D01*
X016036Y007838D01*
X015823Y007838D01*
X015716Y007731D01*
X015823Y007411D02*
X016036Y007411D01*
X016143Y007518D01*
X016360Y007411D02*
X016360Y007731D01*
X016467Y007838D01*
X016787Y007838D01*
X016787Y007411D01*
X017005Y007411D02*
X017005Y007731D01*
X017112Y007838D01*
X017432Y007838D01*
X017432Y007411D01*
X017649Y007518D02*
X017649Y007731D01*
X017756Y007838D01*
X017970Y007838D01*
X018077Y007731D01*
X018077Y007518D01*
X017970Y007411D01*
X017756Y007411D01*
X017649Y007518D01*
X017710Y007211D02*
X017603Y007105D01*
X018030Y006678D01*
X017924Y006571D01*
X017710Y006571D01*
X017603Y006678D01*
X017603Y007105D01*
X017710Y007211D02*
X017924Y007211D01*
X018030Y007105D01*
X018030Y006678D01*
X018248Y006571D02*
X018675Y006571D01*
X018248Y006998D01*
X018248Y007105D01*
X018355Y007211D01*
X018568Y007211D01*
X018675Y007105D01*
X018722Y007411D02*
X018829Y007518D01*
X018829Y007945D01*
X018936Y007838D02*
X018722Y007838D01*
X018506Y007838D02*
X018399Y007838D01*
X018399Y007411D01*
X018293Y007411D02*
X018506Y007411D01*
X019153Y007411D02*
X019474Y007411D01*
X019580Y007518D01*
X019580Y007731D01*
X019474Y007838D01*
X019153Y007838D01*
X019178Y008131D02*
X018965Y008131D01*
X018858Y008238D01*
X018640Y008238D02*
X018534Y008131D01*
X018213Y008131D01*
X018213Y008451D01*
X018320Y008558D01*
X018534Y008558D01*
X018534Y008344D02*
X018213Y008344D01*
X017996Y008344D02*
X017782Y008558D01*
X017676Y008558D01*
X017459Y008558D02*
X017245Y008558D01*
X017352Y008665D02*
X017352Y008238D01*
X017245Y008131D01*
X017029Y008238D02*
X017029Y008451D01*
X016922Y008558D01*
X016709Y008558D01*
X016602Y008451D01*
X016602Y008344D01*
X017029Y008344D01*
X017029Y008238D02*
X016922Y008131D01*
X016709Y008131D01*
X016421Y007211D02*
X016741Y006891D01*
X016314Y006891D01*
X016421Y006571D02*
X016421Y007211D01*
X016959Y006571D02*
X017386Y006571D01*
X017172Y006571D02*
X017172Y007211D01*
X017386Y006998D01*
X017996Y008131D02*
X017996Y008558D01*
X018399Y008158D02*
X018399Y008051D01*
X018640Y008238D02*
X018534Y008344D01*
X018858Y008665D02*
X018965Y008771D01*
X019178Y008771D01*
X019285Y008665D01*
X019285Y008238D01*
X019178Y008131D01*
X019798Y007838D02*
X019798Y007411D01*
X020225Y007411D02*
X020225Y007838D01*
X020011Y008051D01*
X019798Y007838D01*
X019798Y007731D02*
X020225Y007731D01*
X019475Y009786D02*
X016835Y009786D01*
X016812Y009788D01*
X016789Y009793D01*
X016767Y009802D01*
X016747Y009815D01*
X016729Y009830D01*
X016714Y009848D01*
X016701Y009868D01*
X016692Y009890D01*
X016687Y009913D01*
X016685Y009936D01*
X016685Y014236D01*
X016687Y014259D01*
X016692Y014282D01*
X016701Y014304D01*
X016714Y014324D01*
X016729Y014342D01*
X016747Y014357D01*
X016767Y014370D01*
X016789Y014379D01*
X016812Y014384D01*
X016835Y014386D01*
X019475Y014386D01*
X019498Y014384D01*
X019521Y014379D01*
X019543Y014370D01*
X019563Y014357D01*
X019581Y014342D01*
X019596Y014324D01*
X019609Y014304D01*
X019618Y014282D01*
X019623Y014259D01*
X019625Y014236D01*
X019625Y009936D01*
X019623Y009913D01*
X019618Y009890D01*
X019609Y009868D01*
X019596Y009848D01*
X019581Y009830D01*
X019563Y009815D01*
X019543Y009802D01*
X019521Y009793D01*
X019498Y009788D01*
X019475Y009786D01*
X018655Y014386D02*
X018653Y014342D01*
X018647Y014299D01*
X018638Y014257D01*
X018625Y014215D01*
X018608Y014175D01*
X018588Y014136D01*
X018565Y014099D01*
X018538Y014065D01*
X018509Y014032D01*
X018476Y014003D01*
X018442Y013976D01*
X018405Y013953D01*
X018366Y013933D01*
X018326Y013916D01*
X018284Y013903D01*
X018242Y013894D01*
X018199Y013888D01*
X018155Y013886D01*
X018111Y013888D01*
X018068Y013894D01*
X018026Y013903D01*
X017984Y013916D01*
X017944Y013933D01*
X017905Y013953D01*
X017868Y013976D01*
X017834Y014003D01*
X017801Y014032D01*
X017772Y014065D01*
X017745Y014099D01*
X017722Y014136D01*
X017702Y014175D01*
X017685Y014215D01*
X017672Y014257D01*
X017663Y014299D01*
X017657Y014342D01*
X017655Y014386D01*
X017320Y018906D02*
X018740Y018906D01*
X018740Y020766D02*
X017320Y020766D01*
X017837Y020925D02*
X018073Y020925D01*
X018073Y021397D02*
X017837Y021397D01*
X011366Y017079D02*
X011366Y016843D01*
X010894Y016843D02*
X010894Y017079D01*
X010275Y013281D02*
X010035Y013281D01*
X008655Y013281D01*
X008655Y013201D01*
X010035Y013281D02*
X010037Y013260D01*
X010042Y013240D01*
X010051Y013221D01*
X010063Y013204D01*
X010078Y013189D01*
X010095Y013177D01*
X010114Y013168D01*
X010134Y013163D01*
X010155Y013161D01*
X010176Y013163D01*
X010196Y013168D01*
X010215Y013177D01*
X010232Y013189D01*
X010247Y013204D01*
X010259Y013221D01*
X010268Y013240D01*
X010273Y013260D01*
X010275Y013281D01*
X011655Y013281D01*
X011655Y013201D01*
X018862Y002297D02*
X019098Y002297D01*
X019098Y001825D02*
X018862Y001825D01*
X020537Y001800D02*
X020773Y001800D01*
X020773Y002272D02*
X020537Y002272D01*
D12*
X013751Y004756D02*
X013628Y004633D01*
X013381Y004633D01*
X013257Y004756D01*
X013257Y005373D01*
X012996Y005127D02*
X012749Y005373D01*
X012749Y004633D01*
X012996Y004633D02*
X012502Y004633D01*
X013751Y004756D02*
X013751Y005373D01*
X018363Y020546D02*
X018365Y020561D01*
X018371Y020574D01*
X018380Y020586D01*
X018391Y020595D01*
X018405Y020601D01*
X018420Y020603D01*
X018435Y020601D01*
X018448Y020595D01*
X018460Y020586D01*
X018469Y020575D01*
X018475Y020561D01*
X018477Y020546D01*
X018475Y020531D01*
X018469Y020518D01*
X018460Y020506D01*
X018449Y020497D01*
X018435Y020491D01*
X018420Y020489D01*
X018405Y020491D01*
X018392Y020497D01*
X018380Y020506D01*
X018371Y020517D01*
X018365Y020531D01*
X018363Y020546D01*
D13*
X018025Y020269D02*
X018000Y020294D01*
X017950Y020294D01*
X017925Y020269D01*
X017925Y020193D01*
X017875Y020193D02*
X018025Y020193D01*
X018025Y020269D01*
X017925Y020244D02*
X017875Y020294D01*
X017875Y020146D02*
X017875Y020046D01*
X018025Y020046D01*
X018025Y020146D01*
X017950Y020096D02*
X017950Y020046D01*
X017925Y019999D02*
X018025Y019999D01*
X017925Y019999D02*
X017875Y019949D01*
X017925Y019899D01*
X018025Y019899D01*
X018025Y019851D02*
X018025Y019801D01*
X018025Y019826D02*
X017875Y019826D01*
X017875Y019801D02*
X017875Y019851D01*
X017875Y019753D02*
X017875Y019653D01*
X018025Y019653D01*
X018025Y019753D01*
X017950Y019703D02*
X017950Y019653D01*
X017900Y019606D02*
X017875Y019581D01*
X017875Y019531D01*
X017900Y019506D01*
X018000Y019506D01*
X018025Y019531D01*
X018025Y019581D01*
X018000Y019606D01*
X018000Y019459D02*
X018025Y019434D01*
X018025Y019384D01*
X018000Y019359D01*
X017975Y019359D01*
X017950Y019384D01*
X017950Y019434D01*
X017925Y019459D01*
X017900Y019459D01*
X017875Y019434D01*
X017875Y019384D01*
X017900Y019359D01*
X017875Y019311D02*
X018025Y019311D01*
X018025Y019211D02*
X017875Y019211D01*
X017875Y019164D02*
X017975Y019164D01*
X018025Y019114D01*
X017975Y019064D01*
X017875Y019064D01*
X017875Y019017D02*
X017925Y018967D01*
X017925Y018992D02*
X017925Y018917D01*
X017875Y018917D02*
X018025Y018917D01*
X018025Y018992D01*
X018000Y019017D01*
X017950Y019017D01*
X017925Y018992D01*
X017950Y019064D02*
X017950Y019164D01*
X018025Y019211D02*
X017875Y019311D01*
X018025Y018869D02*
X018025Y018769D01*
X018025Y018819D02*
X017875Y018819D01*
X017845Y020681D02*
X017895Y020731D01*
X017870Y020731D02*
X017945Y020731D01*
X017945Y020681D02*
X017945Y020831D01*
X017870Y020831D01*
X017845Y020806D01*
X017845Y020756D01*
X017870Y020731D01*
X017797Y020781D02*
X017747Y020831D01*
X017747Y020681D01*
X017797Y020681D02*
X017697Y020681D01*
X010800Y017194D02*
X010800Y017143D01*
X010775Y017118D01*
X010775Y017071D02*
X010725Y017071D01*
X010700Y017046D01*
X010700Y016971D01*
X010650Y016971D02*
X010800Y016971D01*
X010800Y017046D01*
X010775Y017071D01*
X010700Y017021D02*
X010650Y017071D01*
X010650Y017118D02*
X010750Y017219D01*
X010775Y017219D01*
X010800Y017194D01*
X010650Y017219D02*
X010650Y017118D01*
X005860Y002888D02*
X005860Y002788D01*
X005785Y002788D01*
X005810Y002838D01*
X005810Y002863D01*
X005785Y002888D01*
X005735Y002888D01*
X005710Y002863D01*
X005710Y002813D01*
X005735Y002788D01*
X005710Y002741D02*
X005760Y002691D01*
X005760Y002716D02*
X005760Y002641D01*
X005710Y002641D02*
X005860Y002641D01*
X005860Y002716D01*
X005835Y002741D01*
X005785Y002741D01*
X005760Y002716D01*
X019028Y002391D02*
X019128Y002391D01*
X019078Y002391D02*
X019078Y002541D01*
X019128Y002491D01*
X019175Y002516D02*
X019200Y002541D01*
X019250Y002541D01*
X019275Y002516D01*
X019275Y002416D01*
X019250Y002391D01*
X019200Y002391D01*
X019175Y002416D01*
X020397Y001681D02*
X020422Y001706D01*
X020472Y001706D01*
X020497Y001681D01*
X020545Y001681D02*
X020570Y001706D01*
X020620Y001706D01*
X020645Y001681D01*
X020645Y001581D01*
X020620Y001556D01*
X020570Y001556D01*
X020545Y001581D01*
X020497Y001556D02*
X020397Y001656D01*
X020397Y001681D01*
X020397Y001556D02*
X020497Y001556D01*
D14*
X019485Y009786D02*
X019485Y014386D01*
D15*
X019505Y014511D02*
X019355Y014511D01*
X019280Y014586D01*
X019120Y014586D02*
X019120Y014886D01*
X019045Y014961D01*
X018894Y014961D01*
X018819Y014886D01*
X018819Y014586D01*
X018894Y014511D01*
X019045Y014511D01*
X019120Y014586D01*
X019280Y014886D02*
X019355Y014961D01*
X019505Y014961D01*
X019580Y014886D01*
X019580Y014586D01*
X019505Y014511D01*
X018659Y014511D02*
X018659Y014961D01*
X018359Y014511D01*
X018359Y014961D01*
X018199Y014961D02*
X017899Y014961D01*
X018049Y014961D02*
X018049Y014511D01*
X017738Y014511D02*
X017738Y014961D01*
X017513Y014961D01*
X017438Y014886D01*
X017438Y014736D01*
X017513Y014661D01*
X017738Y014661D01*
X017588Y014661D02*
X017438Y014511D01*
X017278Y014586D02*
X017278Y014886D01*
X017203Y014961D01*
X017053Y014961D01*
X016978Y014886D01*
X016978Y014586D01*
X017053Y014511D01*
X017203Y014511D01*
X017278Y014586D01*
X016818Y014511D02*
X016818Y014961D01*
X016818Y014511D02*
X016517Y014511D01*
X016357Y014511D02*
X016057Y014511D01*
X015897Y014511D02*
X015597Y014511D01*
X015436Y014511D02*
X015436Y014961D01*
X015211Y014961D01*
X015136Y014886D01*
X015136Y014736D01*
X015211Y014661D01*
X015436Y014661D01*
X015286Y014661D02*
X015136Y014511D01*
X015597Y014961D02*
X015897Y014961D01*
X015897Y014511D01*
X015897Y014736D02*
X015747Y014736D01*
X016357Y014961D02*
X016357Y014511D01*
X011490Y012786D02*
X011490Y012486D01*
X011490Y012711D02*
X011190Y012711D01*
X011190Y012786D02*
X011190Y012486D01*
X011030Y012486D02*
X010804Y012486D01*
X010729Y012561D01*
X010729Y012861D01*
X010804Y012936D01*
X011030Y012936D01*
X011030Y012486D01*
X011190Y012786D02*
X011340Y012936D01*
X011490Y012786D01*
X010569Y012936D02*
X010569Y012561D01*
X010494Y012486D01*
X010344Y012486D01*
X010269Y012561D01*
X010269Y012936D01*
X010109Y012936D02*
X009959Y012786D01*
X009809Y012936D01*
X009809Y012486D01*
X009648Y012486D02*
X009348Y012486D01*
X009498Y012486D02*
X009498Y012936D01*
X009648Y012786D01*
X010109Y012936D02*
X010109Y012486D01*
X009188Y012711D02*
X008888Y012711D01*
X008728Y012561D02*
X008728Y012861D01*
X008653Y012936D01*
X008502Y012936D01*
X008427Y012861D01*
X008728Y012561D01*
X008653Y012486D01*
X008502Y012486D01*
X008427Y012561D01*
X008427Y012861D01*
X008267Y012861D02*
X008267Y012561D01*
X007967Y012861D01*
X007967Y012561D01*
X008042Y012486D01*
X008192Y012486D01*
X008267Y012561D01*
X008267Y012861D02*
X008192Y012936D01*
X008042Y012936D01*
X007967Y012861D01*
X007807Y012411D02*
X007507Y012411D01*
X008963Y012486D02*
X008963Y012936D01*
X009188Y012711D01*
X008963Y008936D02*
X009188Y008711D01*
X008888Y008711D01*
X008728Y008561D02*
X008728Y008861D01*
X008653Y008936D01*
X008502Y008936D01*
X008427Y008861D01*
X008728Y008561D01*
X008653Y008486D01*
X008502Y008486D01*
X008427Y008561D01*
X008427Y008861D01*
X008267Y008861D02*
X008192Y008936D01*
X008042Y008936D01*
X007967Y008861D01*
X008267Y008561D01*
X008192Y008486D01*
X008042Y008486D01*
X007967Y008561D01*
X007967Y008861D01*
X008267Y008861D02*
X008267Y008561D01*
X008963Y008486D02*
X008963Y008936D01*
X009498Y008936D02*
X009498Y008486D01*
X009648Y008486D02*
X009348Y008486D01*
X009648Y008786D02*
X009498Y008936D01*
X009809Y008936D02*
X009809Y008486D01*
X010109Y008486D02*
X010109Y008936D01*
X009959Y008786D01*
X009809Y008936D01*
X010269Y008936D02*
X010269Y008561D01*
X010344Y008486D01*
X010494Y008486D01*
X010569Y008561D01*
X010569Y008936D01*
X010729Y008861D02*
X010804Y008936D01*
X011030Y008936D01*
X011030Y008486D01*
X010804Y008486D01*
X010729Y008561D01*
X010729Y008861D01*
X011190Y008786D02*
X011190Y008486D01*
X011190Y008711D02*
X011490Y008711D01*
X011490Y008786D02*
X011340Y008936D01*
X011190Y008786D01*
X011490Y008786D02*
X011490Y008486D01*
D16*
X016660Y010086D03*
X016660Y010586D03*
X016660Y011086D03*
X016660Y011586D03*
X016660Y012086D03*
X016660Y012586D03*
X016660Y013086D03*
X016660Y013586D03*
X016660Y014086D03*
X019650Y014086D03*
X019650Y013586D03*
X019650Y013086D03*
X019650Y012586D03*
X019650Y012086D03*
X019650Y011586D03*
X019650Y011086D03*
X019650Y010586D03*
X019650Y010086D03*
D17*
X012071Y004243D02*
X012069Y004222D01*
X012064Y004202D01*
X012055Y004183D01*
X012043Y004166D01*
X012028Y004151D01*
X012011Y004139D01*
X011992Y004130D01*
X011972Y004125D01*
X011951Y004123D01*
X011930Y004125D01*
X011910Y004130D01*
X011891Y004139D01*
X011874Y004151D01*
X011859Y004166D01*
X011847Y004183D01*
X011838Y004202D01*
X011833Y004222D01*
X011831Y004243D01*
M02*
