%
M48
M72
T01C0.0118
T02C0.0197
T03C0.0236
T04C0.0240
T05C0.0276
T06C0.0315
T07C0.0320
T08C0.0400
T09C0.0560
T10C0.0591
T11C0.1102
%
T01
X10355Y3151
X10985Y4341
X13435Y6441
X12595Y6931
X12595Y8751
X12035Y13301
X16165Y14421
T02
X13295Y8555
X12161Y4754
X7702Y5034
T03
X13430Y12936
X9055Y13886
T04
X7200Y10446
X15535Y11621
X15535Y12111
X15535Y12601
X15535Y13091
X18940Y7006
X20230Y20021
T05
X8755Y15886
X7755Y15886
X4805Y15886
X3805Y15886
T06
X11530Y19336
X12530Y19336
X13530Y19336
X14530Y19336
X14030Y20336
X13030Y20336
X12030Y20336
X15030Y20336
X15505Y2375
X16505Y2375
X17505Y2375
X17005Y1375
X16005Y1375
X15005Y1375
T07
X19080Y3336
X20980Y3336
T08
X20405Y4836
X20405Y5836
X20405Y6836
X20405Y7836
X14405Y7836
X14405Y6836
X14405Y5836
X14405Y4836
X14405Y8836
X14405Y9836
X14405Y10836
X14405Y11836
X14405Y13836
X12405Y15486
X12405Y16486
X12405Y17486
X14905Y16836
X15905Y16836
X16905Y16836
X17905Y16836
X18905Y16836
X19905Y16836
X6530Y8586
X5530Y8586
X4530Y8586
X4530Y7461
X5530Y7461
X6530Y7461
X6530Y6336
X5530Y6336
X4530Y6336
X4530Y5211
X5530Y5211
X6530Y5211
X6730Y3411
X6730Y2411
X6730Y1411
X4255Y1436
X4255Y2436
X4255Y3436
X4405Y11336
X5405Y11336
X6405Y11336
X6405Y12461
X5405Y12461
X4405Y12461
X4405Y13561
X5405Y13561
X6405Y13561
T09
X7466Y18219
X8844Y18219
X4994Y18194
X3616Y18194
T10
X15668Y19480
X14367Y2231
T11
X2158Y1478
X22423Y1541
X22472Y21386
X2095Y21365
M30
