%
M48
M72
T01C0.0118
T02C0.0315
T03C0.0320
T04C0.0354
T05C0.0400
T06C0.0591
T07C0.0827
%
T01
X7420Y8375
X8050Y8725
X10150Y8795
X8050Y6415
X11900Y6065
X10220Y12365
X10500Y13065
X11270Y16145
T02
X14500Y14045
X14500Y13045
X14500Y12045
X14500Y11045
X15500Y10545
X15500Y11545
X15500Y12545
X15500Y13545
T03
X14690Y16375
X14690Y18275
T04
X12190Y10825
T05
X12190Y11825
X12190Y12825
X12190Y13825
X12190Y15825
X11690Y18825
X10690Y18825
X9690Y18825
X8690Y18825
X7690Y18825
X6690Y18825
X6890Y15715
X6890Y14715
X6890Y13715
X6890Y12715
X7890Y12715
X7890Y13715
X7890Y14715
X7890Y15715
X6190Y9825
X6190Y8825
X6190Y7825
X6190Y6825
X15320Y7025
X15320Y6025
X15320Y8025
T06
X15356Y14683
T07
X5090Y5825
X16690Y5825
X16690Y19625
X4990Y19525
M30
