G75*
G70*
%OFA0B0*%
%FSLAX24Y24*%
%IPPOS*%
%LPD*%
%AMOC8*
5,1,8,0,0,1.08239X$1,22.5*
%
%ADD10C,0.0000*%
D10*
X001305Y000661D02*
X001305Y022207D01*
X023275Y022207D01*
X023275Y000661D01*
X001305Y000661D01*
X014072Y002231D02*
X014074Y002265D01*
X014080Y002299D01*
X014090Y002332D01*
X014103Y002363D01*
X014121Y002393D01*
X014141Y002421D01*
X014165Y002446D01*
X014191Y002468D01*
X014219Y002486D01*
X014250Y002502D01*
X014282Y002514D01*
X014316Y002522D01*
X014350Y002526D01*
X014384Y002526D01*
X014418Y002522D01*
X014452Y002514D01*
X014484Y002502D01*
X014514Y002486D01*
X014543Y002468D01*
X014569Y002446D01*
X014593Y002421D01*
X014613Y002393D01*
X014631Y002363D01*
X014644Y002332D01*
X014654Y002299D01*
X014660Y002265D01*
X014662Y002231D01*
X014660Y002197D01*
X014654Y002163D01*
X014644Y002130D01*
X014631Y002099D01*
X014613Y002069D01*
X014593Y002041D01*
X014569Y002016D01*
X014543Y001994D01*
X014515Y001976D01*
X014484Y001960D01*
X014452Y001948D01*
X014418Y001940D01*
X014384Y001936D01*
X014350Y001936D01*
X014316Y001940D01*
X014282Y001948D01*
X014250Y001960D01*
X014219Y001976D01*
X014191Y001994D01*
X014165Y002016D01*
X014141Y002041D01*
X014121Y002069D01*
X014103Y002099D01*
X014090Y002130D01*
X014080Y002163D01*
X014074Y002197D01*
X014072Y002231D01*
X015373Y019480D02*
X015375Y019514D01*
X015381Y019548D01*
X015391Y019581D01*
X015404Y019612D01*
X015422Y019642D01*
X015442Y019670D01*
X015466Y019695D01*
X015492Y019717D01*
X015520Y019735D01*
X015551Y019751D01*
X015583Y019763D01*
X015617Y019771D01*
X015651Y019775D01*
X015685Y019775D01*
X015719Y019771D01*
X015753Y019763D01*
X015785Y019751D01*
X015815Y019735D01*
X015844Y019717D01*
X015870Y019695D01*
X015894Y019670D01*
X015914Y019642D01*
X015932Y019612D01*
X015945Y019581D01*
X015955Y019548D01*
X015961Y019514D01*
X015963Y019480D01*
X015961Y019446D01*
X015955Y019412D01*
X015945Y019379D01*
X015932Y019348D01*
X015914Y019318D01*
X015894Y019290D01*
X015870Y019265D01*
X015844Y019243D01*
X015816Y019225D01*
X015785Y019209D01*
X015753Y019197D01*
X015719Y019189D01*
X015685Y019185D01*
X015651Y019185D01*
X015617Y019189D01*
X015583Y019197D01*
X015551Y019209D01*
X015520Y019225D01*
X015492Y019243D01*
X015466Y019265D01*
X015442Y019290D01*
X015422Y019318D01*
X015404Y019348D01*
X015391Y019379D01*
X015381Y019412D01*
X015375Y019446D01*
X015373Y019480D01*
M02*
