%FSTAX23Y23*%
%MOIN*%
%SFA1B1*%

%IPPOS*%
%ADD10C,0.005000*%
%ADD11C,0.004000*%
%ADD13C,0.006000*%
%ADD14C,0.024000*%
%ADD15C,0.003000*%
%ADD16C,0.016000*%
%ADD17C,0.012000*%
%ADD19C,0.010000*%
%ADD20R,0.007900X0.007900*%
%ADD21C,0.026000*%
%ADD22R,0.024000X0.020000*%
%LNseri_top-1*%
%LPD*%
G54D13*
X00827Y0096D02*
Y0097D01*
X0087Y01013*
Y01024*
X00827*
X00892Y00992D02*
X00934D01*
X00956Y01013D02*
X00967Y01024D01*
X00988*
X00999Y01013*
Y01002*
X00988Y00992*
X00999Y00981*
Y0097*
X00988Y0096*
X00967*
X00956Y0097*
X00978Y00992D02*
X00988D01*
X01021D02*
X01053D01*
X01063Y00981*
Y0097*
X01053Y0096*
X01031*
X01021Y0097*
Y00992*
X01042Y01013*
X01063Y01024*
X01085D02*
Y00981D01*
X01106Y0096*
X01128Y00981*
Y01024*
X01125Y0085D02*
X01103D01*
X01093Y0084*
Y00829*
X01103Y00818*
X01125*
X01135Y00808*
Y00797*
X01125Y00786*
X01103*
X01093Y00797*
X01135Y0084D02*
X01125Y0085D01*
X01157D02*
Y00786D01*
Y00818D02*
X012D01*
X01222D02*
X01264D01*
Y00829D02*
Y00786D01*
X01286D02*
Y0085D01*
X01318*
X01329Y0084*
Y00818*
X01318Y00808*
X01286*
X01307D02*
X01329Y00786D01*
X0135D02*
Y0085D01*
X01383*
X01393Y0084*
Y00818*
X01383Y00808*
X0135*
X01264Y00829D02*
X01243Y0085D01*
X01222Y00829*
Y00786*
X012D02*
Y0085D01*
X01443Y00897D02*
X01454Y00886D01*
X01475*
X01486Y00897*
X01508D02*
Y00918D01*
X01519Y00929*
X0154*
X01551Y00918*
Y00897*
X0154Y00886*
X01519*
X01508Y00897*
X01486Y00939D02*
X01475Y0095D01*
X01454*
X01443Y00939*
Y00897*
X01572Y00886D02*
Y00929D01*
X01583*
X01594Y00918*
X01604Y00929*
X01615Y00918*
Y00886*
X01594D02*
Y00918D01*
X01637Y00929D02*
Y00886D01*
X01658D02*
Y00918D01*
X01669Y00929*
X0168Y00918*
Y00886*
X01701Y00897D02*
X01712Y00907D01*
X01744*
Y00918D02*
Y00886D01*
X01712*
X01701Y00897*
X01712Y00929D02*
X01733D01*
X01744Y00918*
X01766Y00929D02*
X01798D01*
X01808Y00918*
Y00886*
X0183Y00897D02*
Y00918D01*
X01841Y00929*
X01873*
Y0095D02*
Y00886D01*
X01841*
X0183Y00897*
X01895D02*
Y00918D01*
X01905Y00929*
X01927*
X01937Y00918*
Y00907*
X01895*
Y00897D02*
X01905Y00886D01*
X01927*
X01959D02*
X01991D01*
X02002Y00897*
X01991Y00907*
X0197*
X01959Y00918*
X0197Y00929*
X02002*
X02002Y00824D02*
X02034D01*
X02023Y00802D02*
X02002D01*
X01991Y00813*
X02002Y00824*
X02023Y00802D02*
X02034Y00792D01*
X02023Y00781*
X01991*
X0197Y00824D02*
X01959D01*
X01938Y00802*
Y00824D02*
Y00781D01*
X01916D02*
Y00824D01*
Y00781D02*
X01884D01*
X01873Y00792*
Y00824*
X01851Y00813D02*
Y00802D01*
X01809*
Y00813D02*
Y00792D01*
X01819Y00781*
X01841*
X01851Y00813D02*
X01841Y00824D01*
X01819*
X01809Y00813*
X01787Y00824D02*
X01766D01*
X01776Y00834D02*
Y00792D01*
X01787Y00781*
X01744Y00792D02*
Y00813D01*
X01733Y00824*
X01712*
X01701Y00813*
Y00792*
X01712Y00781*
X01733*
X01744Y00792*
X0168Y00781D02*
Y00845D01*
X01658Y00824*
X01637Y00845*
Y00781*
X01658Y00918D02*
X01648Y00929D01*
X01637*
X01766D02*
Y00886D01*
X0214Y00844D02*
Y00801D01*
X0215Y0079*
X02172*
X02182Y00801*
X02204Y0079D02*
Y00833D01*
X02225Y00854*
X02247Y00833*
Y0079*
X02268D02*
Y00854D01*
X02311Y0079*
Y00854*
X02247Y00822D02*
X02204D01*
X02182Y00844D02*
X02172Y00854D01*
X0215*
X0214Y00844*
X02317Y01141D02*
Y01194D01*
X02328Y01205*
X02349Y01184D02*
X0236D01*
Y01141*
X02349D02*
X02371D01*
X02392D02*
Y01184D01*
X02424*
X02435Y01173*
Y01141*
X02521D02*
X02543D01*
X02532D02*
Y01205D01*
X02521*
X02564Y01184D02*
X02575D01*
Y01141*
X02564D02*
X02586D01*
X02607Y01152D02*
Y01173D01*
X02618Y01184*
X0265*
Y0113*
X02639Y0112*
X02629*
X02618Y01141D02*
X0265D01*
X02672D02*
Y01184D01*
X02704*
X02714Y01173*
Y01141*
X02736Y01152D02*
Y01173D01*
X02747Y01184*
X02768*
X02779Y01173*
Y01162*
X02736*
Y01152D02*
X02747Y01141D01*
X02768*
X02618D02*
X02607Y01152D01*
X02575Y01205D02*
Y01216D01*
X0236D02*
Y01205D01*
X02328Y01173D02*
X02306D01*
X0254Y00871D02*
X02572D01*
X02583Y00861*
Y00839*
X02572Y00829*
X0254*
Y00807D02*
Y00871D01*
X02604D02*
Y00807D01*
X02626Y00829*
X02647Y00807*
Y00871*
X02669D02*
X0269Y0085D01*
X02712Y00871*
Y00807*
X02733Y00839D02*
X02776D01*
X02765Y00807D02*
Y00871D01*
X02733Y00839*
X02669Y00807D02*
Y00871D01*
X0296Y00854D02*
Y0079D01*
Y00811D02*
X02992D01*
X03003Y00822*
Y00843*
X02992Y00854*
X0296*
X0297Y00889D02*
X03013D01*
X03024Y009*
Y00921*
X03013Y00932*
Y00954D02*
X02992D01*
X02981Y00964*
Y00986*
X02992Y00996*
X03013*
X03024Y00986*
Y00964*
X03013Y00954*
X0297Y00932D02*
X0296Y00921D01*
Y009*
X0297Y00889*
X03025Y00854D02*
Y0079D01*
X03046Y00811*
X03068Y0079*
Y00854*
X03089D02*
X03111Y00832D01*
X03132Y00854*
Y0079*
X03154Y008D02*
X03164Y0079D01*
X03186*
X03196Y008*
Y00811*
X03186Y00822*
X03175*
X03186D02*
X03196Y00832D01*
Y00843*
X03186Y00854*
X03164*
X03154Y00843*
X03089Y00854D02*
Y0079D01*
X03013Y01018D02*
X02992D01*
X02981Y01029*
Y01061*
X0296D02*
X03024D01*
Y01029*
X03013Y01018*
Y01082D02*
X02992D01*
X02981Y01093*
Y01115*
X02992Y01125*
X03002*
Y01082*
X03013D02*
X03024Y01093D01*
Y01115*
X03013Y01147D02*
X02981D01*
X03013D02*
X03024Y01158D01*
Y0119*
X02981*
Y01211D02*
X03024D01*
X03002D02*
X02981Y01233D01*
Y01243*
Y0133D02*
X0296Y01351D01*
X03024*
Y01372D02*
Y0133D01*
X03021Y01379D02*
X02956D01*
Y01411*
X02967Y01422*
X02989*
X02999Y01411*
Y01379*
X03021Y01444D02*
X02956D01*
X02999Y01465D02*
X03021Y01486D01*
X02956*
Y01508D02*
X02978Y0153D01*
X02956Y01551*
X03021*
Y01573D02*
Y01615D01*
Y01594D02*
X02956D01*
X02978Y01573*
X02956Y01508D02*
X03021D01*
X02999Y01465D02*
X03021Y01444D01*
X03018Y01779D02*
X02954D01*
Y01811*
X02964Y01822*
X02986*
X02996Y01811*
Y01779*
X03018Y01844D02*
X02954D01*
Y01886D02*
X03018D01*
X02996Y01865*
X03018Y01844*
Y01908D02*
X02954D01*
X02975Y0193*
X02954Y01951*
X03018*
Y01973D02*
X02975Y02015D01*
X02964*
X02954Y02005*
Y01983*
X02964Y01973*
X03018D02*
Y02015D01*
X03023Y02233D02*
X02969D01*
Y02276D02*
X03023D01*
X03034Y02265*
Y02244*
X03023Y02233*
X03034Y02297D02*
X02991D01*
X02969Y02319*
X02991Y0234*
X03034*
Y02362D02*
X02969D01*
Y02394*
X0298Y02404*
X03001*
X03012Y02394*
Y02362*
Y02383D02*
X03034Y02404D01*
Y02448D02*
X02969D01*
Y02469D02*
Y02426D01*
X03001Y0234D02*
Y02297D01*
X03018Y02716D02*
X02975D01*
X02964Y02727*
Y02748*
X02975Y02759*
X02996Y02781D02*
X03018D01*
X03028Y02791*
Y02813*
X03018Y02823*
X02996*
X02986Y02813*
Y02791*
X02996Y02781*
X03018Y02759D02*
X03028Y02748D01*
Y02727*
X03018Y02716*
Y02845D02*
X02996D01*
X02986Y02856*
Y02888*
X02964D02*
X03028D01*
Y02856*
X03018Y02845*
Y0291D02*
X02996D01*
X02986Y0292*
Y02942*
X02996Y02952*
X03007*
Y0291*
X03018D02*
X03028Y0292D01*
Y02942*
X03018Y02974D02*
X02986D01*
X03018D02*
X03028Y02985D01*
Y03017*
X02986*
Y03038D02*
X03028D01*
X03007D02*
X02986Y0306D01*
Y0307*
X02975Y03157D02*
X02964Y03167D01*
Y03189*
X02975Y03199*
X02986*
X03028Y03157*
Y03199*
X02381Y02634D02*
Y02599D01*
X02311*
Y02634*
X02323Y02646*
X02369*
X02381Y02634*
Y02576D02*
X02358Y02552D01*
Y02564D02*
Y02529D01*
X02381D02*
X02311D01*
Y02564*
X02323Y02576*
X02346*
X02358Y02564*
X02346Y02506D02*
Y02459D01*
X02334D02*
X02311Y02482D01*
X02334Y02506*
X02381*
Y02459D02*
X02334D01*
X02323Y02436D02*
X02311Y02424D01*
Y02401*
X02323Y02389*
X02369*
X02381Y02401*
Y02424*
X02369Y02436*
X02323*
Y02366D02*
X02334D01*
X02346Y02354*
Y02319*
X02381D02*
X02311D01*
Y02354*
X02323Y02366*
X02346Y02354D02*
X02358Y02366D01*
X02369*
X02381Y02354*
Y02319*
X02311Y02226D02*
Y02179D01*
Y02156D02*
Y02109D01*
X02381*
Y02156*
X02346Y02133D02*
Y02109D01*
X02381Y02086D02*
X02311D01*
Y02039D02*
X02381Y02086D01*
Y02039D02*
X02311D01*
X02323Y02016D02*
X02346D01*
X02358Y02004*
Y01969*
X02381D02*
X02311D01*
Y02004*
X02323Y02016*
X02358Y01993D02*
X02381Y02016D01*
X02369Y01946D02*
X02323D01*
X02311Y01934*
Y01911*
X02323Y01899*
X02369*
X02381Y01911*
Y01934*
X02369Y01946*
X02381Y01876D02*
X02311D01*
X02346D02*
Y01829D01*
X02381D02*
X02311D01*
X02276Y01597D02*
X02266Y01587D01*
Y01507*
X02276Y01497*
X02356*
X02366Y01507*
X02376Y01497*
X02456*
X02466Y01507*
Y01587*
X02456Y01597*
X02376*
X02366Y01587*
X02356Y01597*
X02276*
X02266Y01587D02*
X02256Y01597D01*
X02176*
X02166Y01587*
Y01507*
X02176Y01497*
X02256*
X02266Y01507*
X02366D02*
Y01587D01*
X02381Y02203D02*
X02311D01*
X018Y02845D02*
Y02877D01*
X0179Y02888*
X01758*
Y02845*
X01736Y02856D02*
Y02877D01*
X01725Y02888*
X01704*
X01693Y02877*
Y02856*
X01704Y02845*
X01725*
X01736Y02856*
X01672Y02845D02*
X01661Y02856D01*
Y02899*
X0165Y02888D02*
X01672D01*
X01628D02*
Y02845D01*
X01596*
X01586Y02856*
Y02888*
X01564Y02877D02*
Y02856D01*
X01553Y02845*
X01532*
X01521Y02856*
Y02877*
X01532Y02888*
X01553*
X01564Y02877*
X015Y02867D02*
Y02856D01*
X01489Y02845*
X01457*
Y02909*
X01489*
X015Y02899*
Y02888*
X01489Y02877*
X01457*
X01489D02*
X015Y02867D01*
X01026Y02857D02*
Y02835D01*
X01016Y02824*
X00994*
X00984Y02835*
Y02857*
X00994Y02867*
X01016*
X01026Y02857*
Y02889D02*
X00984D01*
Y02921*
X00994Y02932*
X01026*
Y02953D02*
Y02985D01*
X01016Y02996*
X01005Y02985*
Y02964*
X00994Y02953*
X00984Y02964*
Y02996*
Y02803D02*
Y02771D01*
X00994Y0276*
X01005Y02771*
Y02792*
X01016Y02803*
X01026Y02792*
Y0276*
X00994Y02738D02*
Y02696D01*
Y02674D02*
X00984Y02663D01*
Y02642*
X01005D02*
Y02674D01*
X00994D02*
X01026D01*
Y02642*
X01016Y02631*
X01005Y02642*
X00984Y02609D02*
Y02599D01*
X01005Y02577*
X01026D02*
X00984D01*
Y02556D02*
Y02534D01*
X00973Y02545D02*
X01016D01*
X01026Y02556*
Y02513D02*
Y02491D01*
Y02502D02*
X00962D01*
Y02491*
Y0247D02*
X01016D01*
X01026Y02459*
Y02438*
X01016Y02427*
X00962*
X00953Y02359D02*
X00985D01*
X00995Y02348*
Y02327*
X00985Y02316*
X00953*
Y02295D02*
Y02359D01*
X01017Y02348D02*
Y02305D01*
X01028Y02295*
X01049*
X0106Y02305*
Y02348*
X01049Y02359*
X01028*
X01017Y02348*
X01082Y02359D02*
Y02295D01*
X01103Y02316*
X01124Y02295*
Y02359*
X01146D02*
Y02295D01*
X01189*
X01211D02*
Y02359D01*
X01243*
X01253Y02348*
Y02327*
X01243Y02316*
X01211*
X01232D02*
X01253Y02295D01*
X01189Y02359D02*
X01146D01*
Y02327D02*
X01167D01*
X00949Y01454D02*
X00917D01*
Y0139*
X00949*
X0096Y014*
Y01443*
X00949Y01454*
X00895D02*
Y0139D01*
X00852Y01454*
Y0139*
X00831Y014D02*
Y01422D01*
X00809*
X00831Y01443D02*
X0082Y01454D01*
X00799*
X00788Y01443*
Y014*
X00799Y0139*
X0082*
X00831Y014*
G54D14*
X0232Y01235D02*
X02412D01*
G54D15*
X02557Y00573D02*
X02575D01*
X02582Y00567*
Y00555*
X02575Y00548*
X02557*
Y00536D02*
Y00573D01*
X02631Y00555D02*
X02655D01*
X02667D02*
X0268Y00561D01*
X02686*
X02692Y00555*
Y00542*
X02686Y00536*
X02674*
X02667Y00542*
Y00555D02*
Y00573D01*
X02692*
X02704D02*
Y00548D01*
X02717Y00536*
X02729Y00548*
Y00573*
X02778Y00567D02*
Y00542D01*
X02784Y00536*
X02796*
X02803Y00542*
Y00555*
X0279*
X02778Y00567D02*
X02784Y00573D01*
X02796*
X02803Y00567*
X02815Y00573D02*
X02839Y00536D01*
Y00573*
X02852D02*
X0287D01*
X02876Y00567*
Y00542*
X0287Y00536*
X02852*
Y00573*
X02815D02*
Y00536D01*
X02956Y00538D02*
Y00575D01*
X02974*
X0298Y00569*
Y00557*
X02974Y00551*
X02956*
X03029Y00557D02*
X03054D01*
X03066D02*
X03079Y00563D01*
X03085*
X03091Y00557*
Y00545*
X03085Y00538*
X03072*
X03066Y00545*
Y00557D02*
Y00575D01*
X03091*
X03103D02*
Y00551D01*
X03115Y00538*
X03128Y00551*
Y00575*
X03177Y00569D02*
Y00545D01*
X03183Y00538*
X03195*
X03201Y00545*
Y00557*
X03189*
X03177Y00569D02*
X03183Y00575D01*
X03195*
X03201Y00569*
X03214Y00575D02*
X03238Y00538D01*
Y00575*
X0325D02*
Y00538D01*
X03269*
X03275Y00545*
Y00569*
X03269Y00575*
X0325*
X03214D02*
Y00538D01*
X03042Y00545D02*
Y00569D01*
X03334Y00861D02*
X03359D01*
X03365Y00867*
Y00879*
X03359Y00886*
X03347*
Y00873*
X03334Y00861D02*
X03328Y00867D01*
Y00879*
X03334Y00886*
X03328Y00898D02*
X03365Y00922D01*
X03328*
Y00935D02*
Y00953D01*
X03334Y00959*
X03359*
X03365Y00953*
Y00935*
X03328*
Y00898D02*
X03365D01*
X03341Y01045D02*
X03365Y01057D01*
X03341Y0107*
Y01082D02*
X03328Y01094D01*
X03365*
Y01082D02*
Y01107D01*
X03347Y01156D02*
Y0118D01*
Y01192D02*
X03341Y01205D01*
Y01211*
X03347Y01217*
X03359*
X03365Y01211*
Y01199*
X03359Y01192*
X03347D02*
X03328D01*
Y01217*
Y01229D02*
X03353D01*
X03365Y01242*
X03353Y01254*
X03328*
X03334Y01168D02*
X03359D01*
X03341Y0134D02*
X03365Y01352D01*
X03341Y01364*
X03334Y01376D02*
X03328Y01383D01*
Y01395*
X03334Y01401*
X03341*
X03365Y01376*
Y01401*
X03356Y01402D02*
Y01384D01*
X03368D02*
X03331D01*
Y01402*
X03337Y01408*
X0335*
X03356Y01402*
X0335Y01457D02*
Y01482D01*
Y01494D02*
X03343Y01507D01*
Y01513*
X0335Y01519*
X03362*
X03368Y01513*
Y015*
X03362Y01494*
X0335D02*
X03331D01*
Y01519*
Y01531D02*
X03356D01*
X03368Y01543*
X03356Y01556*
X03331*
X03337Y01605D02*
X03362D01*
X03368Y01611*
Y01623*
X03362Y01629*
X0335*
Y01617*
X03337Y01629D02*
X03331Y01623D01*
Y01611*
X03337Y01605*
X03331Y01642D02*
X03368Y01666D01*
X03331*
Y01678D02*
Y01697D01*
X03337Y01703*
X03362*
X03368Y01697*
Y01678*
X03331*
Y01642D02*
X03368D01*
X03372Y01783D02*
X03335D01*
Y01801*
X03342Y01807*
X03354*
X0336Y01801*
Y01783*
X03354Y01856D02*
Y01881D01*
Y01893D02*
X03348Y01905D01*
Y01912*
X03354Y01918*
X03366*
X03372Y01912*
Y01899*
X03366Y01893*
X03354D02*
X03335D01*
Y01918*
Y0193D02*
X0336D01*
X03372Y01942*
X0336Y01955*
X03335*
X03342Y02003D02*
X03366D01*
X03372Y0201*
Y02022*
X03366Y02028*
X03354*
Y02016*
X03342Y02028D02*
X03335Y02022D01*
Y0201*
X03342Y02003*
X03335Y0204D02*
X03372Y02065D01*
X03335*
Y02077D02*
Y02096D01*
X03342Y02102*
X03366*
X03372Y02096*
Y02077*
X03335*
Y0204D02*
X03372D01*
X0335Y02154D02*
Y02179D01*
Y02191D02*
X03343Y02203D01*
Y0221*
X0335Y02216*
X03362*
X03368Y0221*
Y02197*
X03362Y02191*
X0335D02*
X03331D01*
Y02216*
Y02228D02*
X03356D01*
X03368Y0224*
X03356Y02253*
X03331*
X03337Y02167D02*
X03362D01*
X03331Y02338D02*
Y02363D01*
Y02351D02*
X03368D01*
Y02375D02*
X03343Y024D01*
X03368D02*
X03343Y02375D01*
X03356Y02486D02*
Y02504D01*
X0335Y0251*
X03337*
X03331Y02504*
Y02486*
X03368*
X03356Y02498D02*
X03368Y0251D01*
Y02522D02*
X03343Y02547D01*
X03368D02*
X03343Y02522D01*
X03337Y02633D02*
X03362D01*
X03368Y02639*
Y02651*
X03362Y02658*
X0335*
Y02645*
X0336Y02652D02*
X03367Y02658D01*
Y02671*
X0336Y02677*
X03348*
Y02665*
X03337Y02658D02*
X03331Y02651D01*
Y02639*
X03337Y02633*
X03336Y02652D02*
X0336D01*
X03368Y0267D02*
X03331D01*
X03368Y02694*
X03331*
X03329Y02689D02*
X03367Y02714D01*
X03329*
X03331Y02707D02*
Y02725D01*
X03337Y02731*
X03362*
X03368Y02725*
Y02707*
X03331*
X03329Y02689D02*
X03367D01*
X03336Y02677D02*
X03329Y02671D01*
Y02658*
X03336Y02652*
X03329Y02726D02*
Y02744D01*
X03336Y02751*
X0336*
X03367Y02744*
Y02726*
X03329*
X03342Y02836D02*
X03367Y02849D01*
X03342Y02861*
Y02873D02*
X03329Y02886D01*
X03367*
Y02898D02*
Y02873D01*
X03348Y02947D02*
Y02972D01*
Y02984D02*
X03342Y02996D01*
Y03002*
X03348Y03008*
X0336*
X03367Y03002*
Y0299*
X0336Y02984*
X03348D02*
X03329D01*
Y03008*
Y03021D02*
X03354D01*
X03367Y03033*
X03354Y03045*
X03329*
X03336Y02959D02*
X0336D01*
X03342Y03131D02*
X03367Y03143D01*
X03342Y03156*
X03336Y03168D02*
X03329Y03174D01*
Y03186*
X03336Y03193*
X03342*
X03367Y03168*
Y03193*
X03366Y01869D02*
X03342D01*
X03337Y0147D02*
X03362D01*
X02643Y00567D02*
Y00542D01*
X01753Y02612D02*
X01734D01*
Y02649*
X01753*
X01759Y02643*
Y02619*
X01753Y02612*
X01722D02*
Y02649D01*
X01697D02*
Y02612D01*
X01685Y02619D02*
Y02631D01*
X01673*
X01685Y02643D02*
X01679Y02649D01*
X01667*
X0166Y02643*
Y02619*
X01667Y02612*
X01679*
X01685Y02619*
X01697Y02649D02*
X01722Y02612D01*
X01575Y02625D02*
Y02649D01*
X0155D02*
Y02625D01*
X01562Y02612*
X01575Y02625*
X01538Y02619D02*
X01532Y02612D01*
X01519*
X01513Y02619*
Y02631D02*
X01525Y02637D01*
X01532*
X01538Y02631*
Y02619*
X01513Y02631D02*
Y02649D01*
X01538*
X01501Y02631D02*
X01476D01*
X01489Y02643D02*
Y02619D01*
G54D16*
X01849Y03109D02*
X01866Y03126D01*
X02848*
X02863Y03111*
Y01035*
X02846Y01018*
X02659*
X02655Y01018*
X02651Y01018*
X02647Y01017*
X02643Y01016*
X0264Y01014*
X02636Y01012*
X02632Y0101*
X02629Y01007*
X02626Y01005*
X02623Y01002*
X02621Y00998*
X02619Y00995*
X02617Y00991*
X02615Y00988*
X02614Y00984*
X02613Y0098*
X02613Y00976*
X02612Y00972*
X02613D02*
Y00951D01*
X02579Y00918*
X02105*
X021Y00924*
Y00971*
X021D02*
X021Y00975D01*
X02099Y00979*
X02098Y00983*
X02097Y00987*
X02095Y00991*
X02094Y00994*
X02091Y00998*
X02089Y01001*
X02086Y01004*
X02083Y01007*
X0208Y01009*
X02076Y01012*
X02073Y01014*
X02069Y01015*
X02065Y01016*
X02061Y01017*
X02057Y01018*
X02053Y01018*
Y01018D02*
X01863D01*
X01849Y01033*
Y03109*
G54D17*
X00994Y01381D02*
X00742D01*
Y01034*
X00995*
X01053Y01072*
Y01343*
X00994Y01381*
G54D10*
X01084Y01229D02*
X01623D01*
Y02016*
X01084*
Y01229*
X01062Y00754D02*
X01434D01*
Y00714*
X01414*
Y00596*
X01434*
Y00557*
X01062*
Y00596*
X01081*
Y00714*
X01062*
Y00754*
X0153Y00757D02*
Y00718D01*
X0155*
Y00599*
X0153*
Y0056*
X01902*
Y00599*
X01883*
Y00718*
X01902*
Y00757*
X0153*
X01856Y01072D02*
Y03072D01*
X01956*
Y01072*
X01856*
X0201Y0076D02*
Y0072D01*
X02029*
Y00602*
X0201*
Y00563*
X02482*
Y00602*
X02462*
Y0072*
X02482*
Y0076*
X0201*
X02756Y01072D02*
X02856D01*
Y03072*
X02756*
Y01072*
X02415Y0152D02*
X02392D01*
X02403D02*
Y01554D01*
X02392Y01543*
X0232D02*
Y01549D01*
X02314Y01554*
X02303*
X02297Y01549*
X0232Y01543D02*
X02297Y0152D01*
X0232*
X02225Y01526D02*
X02219Y0152D01*
X02208*
X02202Y01526*
X02213Y01537D02*
X02219D01*
X02225Y01532*
Y01526*
X02219Y01537D02*
X02225Y01543D01*
Y01549*
X02219Y01554*
X02208*
X02202Y01549*
X01408Y02045D02*
X00778D01*
Y02281*
X01408*
Y02045*
X01251Y02513D02*
X01212D01*
Y02533*
X01094*
Y02513*
X01054*
Y03085*
X01094*
Y03066*
X01212*
Y03085*
X01251*
Y02513*
X0148Y02929D02*
Y02969D01*
X015*
Y03087*
X0148*
Y03126*
X01753*
Y03087*
X01733*
Y02969*
X01753*
Y02929*
X0148*
G54D11*
X01365Y01971D02*
X01373Y01964D01*
Y01948*
X01365Y01941*
X01335Y01971*
X01365*
Y01941D02*
X01335D01*
X01327Y01948*
Y01964*
X01335Y01971*
Y01925D02*
X01327Y01918D01*
Y01902*
X01335Y01895*
X01365*
X01335Y01925*
X01365*
X01373Y01918*
Y01902*
X01365Y01895*
Y01879D02*
X01373Y01871D01*
Y01856*
X01365Y01848*
X01335Y01879*
X01365*
Y01848D02*
X01335D01*
X01327Y01856*
Y01871*
X01335Y01879*
Y01833D02*
X01327Y01825D01*
Y0181*
X01335Y01802*
X01342*
X0135Y0181*
Y01825*
X01358Y01833*
X01365*
X01373Y01825*
Y0181*
X01365Y01802*
X01358*
X0135Y0181*
Y01825D02*
X01342Y01833D01*
X01335*
Y01787D02*
X01327D01*
Y01756*
X0135Y01741D02*
Y0171D01*
X01373Y01695D02*
X01327D01*
Y01664D02*
X01373Y01695D01*
Y01664D02*
X01327D01*
Y01649D02*
Y01618D01*
Y01634D02*
X01373D01*
X0135Y01603D02*
X01358Y01595D01*
Y01572*
X01373D02*
X01327D01*
Y01595*
X01335Y01603*
X0135*
Y01557D02*
Y01526D01*
X01327Y01511D02*
X01358Y0148D01*
X0135Y01488D02*
X01373Y01511D01*
Y0148D02*
X01327D01*
X01335Y01465D02*
X01327Y01457D01*
Y01442*
X01335Y01434*
X01365*
X01373Y01442*
Y01457*
X01365Y01465*
X0135Y01419D02*
X01358Y01411D01*
Y01388*
X01373D02*
X01327D01*
Y01411*
X01335Y01419*
X0135*
X01365Y01756D02*
X01373D01*
X01365D02*
X01335Y01787D01*
G54D19*
X0254Y00773D02*
Y00598D01*
X0284*
Y00523*
X0254*
Y00598*
Y00773D02*
X0284D01*
Y00598*
X02938Y00601D02*
Y00526D01*
X03238*
Y00601*
X02938*
Y00776*
X03238*
Y00601*
X03233Y00872D02*
X03058D01*
Y01272*
X03233*
Y00872*
X03308*
Y01272*
X03233*
Y01372D02*
Y01672D01*
X03308*
Y01372*
X03233*
X03058*
Y01672*
X03233*
Y01772D02*
Y02072D01*
X03308*
Y01772*
X03233*
X03058*
Y02072*
X03233*
Y02172D02*
Y02572D01*
X03308*
Y02172*
X03233*
X03058*
Y02572*
X03233*
X03308Y02672D02*
X03133D01*
Y03072*
X03308*
Y02672*
X03133D02*
X03058D01*
Y03072*
X03133*
G54D20*
X01033Y02399D03*
G54D21*
X02216Y01477D02*
Y01282D01*
X02316D02*
Y01477D01*
X02416D02*
Y01282D01*
G54D22*
X02416Y01487D03*
X02316D03*
X02216D03*
Y01607D03*
X02316D03*
X02416D03*
M02*