G75*
%MOIN*%
%OFA0B0*%
%FSLAX24Y24*%
%IPPOS*%
%LPD*%
%AMOC8*
5,1,8,0,0,1.08239X$1,22.5*
%
%ADD10R,0.0870X0.0240*%
%ADD11R,0.0472X0.0315*%
%ADD12C,0.0480*%
%ADD13R,0.0800X0.0260*%
%ADD14C,0.0600*%
%ADD15R,0.0650X0.0650*%
%ADD16C,0.0650*%
%ADD17C,0.0660*%
%ADD18C,0.0560*%
%ADD19C,0.0740*%
%ADD20C,0.0079*%
%ADD21C,0.0236*%
%ADD22C,0.0100*%
%ADD23C,0.1227*%
D10*
X007978Y011930D03*
X007978Y012430D03*
X007978Y012930D03*
X007978Y013430D03*
X010038Y013430D03*
X010038Y012930D03*
X010038Y012430D03*
X010038Y011930D03*
D11*
X013258Y012576D03*
X013258Y013284D03*
X013258Y011034D03*
X013258Y010326D03*
X006983Y004559D03*
X006983Y003851D03*
X004758Y006576D03*
X004758Y007284D03*
D12*
X012008Y010730D03*
X012008Y012630D03*
D13*
X010328Y006180D03*
X010328Y005680D03*
X010328Y005180D03*
X010328Y004680D03*
X010328Y004180D03*
X010328Y003680D03*
X010328Y003180D03*
X010328Y002680D03*
X010328Y002180D03*
X014188Y002180D03*
X014188Y002680D03*
X014188Y003180D03*
X014188Y003680D03*
X014188Y004180D03*
X014188Y004680D03*
X014188Y005180D03*
X014188Y005680D03*
X014188Y006180D03*
D14*
X017483Y005705D02*
X018083Y005705D01*
X018083Y004705D02*
X017483Y004705D01*
X017408Y003080D02*
X018008Y003080D01*
X018008Y002080D02*
X017408Y002080D01*
X017408Y001080D02*
X018008Y001080D01*
X018083Y006705D02*
X017483Y006705D01*
X017608Y008455D02*
X018208Y008455D01*
X018208Y009455D02*
X017608Y009455D01*
X017608Y010455D02*
X018208Y010455D01*
X018108Y012430D02*
X017508Y012430D01*
X017508Y013430D02*
X018108Y013430D01*
X018108Y014430D02*
X017508Y014430D01*
X004800Y013415D02*
X004200Y013415D01*
X004200Y012415D02*
X004800Y012415D01*
X004800Y011415D02*
X004200Y011415D01*
X004208Y010158D02*
X004808Y010158D01*
X004808Y009158D02*
X004208Y009158D01*
X004208Y008158D02*
X004808Y008158D01*
D15*
X006333Y011055D03*
X006383Y014230D03*
X016258Y012180D03*
X016258Y008480D03*
X016258Y004930D03*
X016258Y001405D03*
D16*
X016258Y002405D03*
X016258Y005930D03*
X016258Y009480D03*
X016258Y013180D03*
X006383Y013230D03*
X006333Y010055D03*
D17*
X008008Y009430D03*
X009133Y008993D03*
X008008Y008430D03*
X008008Y007430D03*
X008008Y006430D03*
X009133Y005868D03*
X008008Y005430D03*
X009133Y004868D03*
X008008Y004430D03*
X008008Y003430D03*
X008008Y002430D03*
X014008Y009430D03*
X014008Y011430D03*
X013508Y014430D03*
X012508Y014430D03*
X011508Y014430D03*
X010508Y014430D03*
X009508Y014430D03*
X008508Y014430D03*
X009133Y009993D03*
D18*
X004758Y005680D03*
X005758Y005180D03*
X004758Y004680D03*
X005758Y004180D03*
X004758Y003680D03*
X005758Y003180D03*
X004758Y002680D03*
X005758Y002180D03*
D19*
X007008Y006680D03*
X007008Y007680D03*
X007008Y008680D03*
D20*
X007048Y009000D01*
X006138Y008090D01*
X006138Y006340D01*
X006558Y005920D01*
X006558Y005010D01*
X005788Y004240D01*
X005758Y004180D01*
X005578Y004590D02*
X005578Y004940D01*
X005718Y005080D01*
X005718Y005150D01*
X005758Y005180D01*
X005578Y004590D02*
X005298Y004310D01*
X005298Y004240D01*
X004068Y004240D01*
X003758Y004550D01*
X003758Y009420D01*
X004458Y010120D01*
X004508Y010158D01*
X005858Y010680D02*
X005998Y010540D01*
X007328Y010540D01*
X007328Y010610D01*
X007818Y011100D01*
X008308Y011590D02*
X008028Y011870D01*
X007978Y011930D01*
X008728Y012150D02*
X008728Y011660D01*
X006138Y009070D01*
X006138Y008650D01*
X004808Y007320D01*
X004758Y007284D01*
X007008Y007680D02*
X007048Y007740D01*
X007048Y007670D02*
X007008Y007680D01*
X007048Y007670D02*
X007538Y007180D01*
X007538Y006130D01*
X007048Y005640D01*
X007073Y004560D01*
X006983Y004559D01*
X007398Y004520D02*
X007398Y004100D01*
X007048Y003750D01*
X007023Y003810D01*
X006983Y003851D01*
X006980Y003816D01*
X006974Y003781D01*
X006964Y003748D01*
X006950Y003716D01*
X006933Y003685D01*
X006912Y003657D01*
X006889Y003631D01*
X006862Y003608D01*
X006834Y003587D01*
X006803Y003571D01*
X006770Y003557D01*
X006737Y003548D01*
X006702Y003542D01*
X006667Y003540D01*
X006138Y003540D01*
X005788Y003190D01*
X005758Y003180D01*
X005298Y003190D02*
X005298Y004240D01*
X005298Y003190D02*
X004808Y002700D01*
X004758Y002680D01*
X007398Y004520D02*
X007408Y004660D01*
X007408Y005525D01*
X007608Y005850D01*
X007608Y005920D01*
X008168Y005920D01*
X008518Y006270D01*
X008518Y006410D01*
X009988Y007880D01*
X009988Y010260D01*
X009148Y011100D01*
X009148Y011940D01*
X009568Y012360D01*
X009568Y012430D01*
X010038Y012430D01*
X009428Y012570D02*
X008938Y012080D01*
X008938Y011520D01*
X007048Y009630D01*
X007048Y009000D01*
X007048Y008720D01*
X007008Y008680D01*
X005858Y010680D02*
X005858Y011380D01*
X004528Y011380D01*
X004500Y011415D01*
X006333Y011055D02*
X006348Y011100D01*
X006838Y011590D01*
X006838Y012990D01*
X006838Y013760D01*
X008028Y014950D01*
X011246Y014950D01*
X011458Y014738D01*
X011458Y014460D01*
X011508Y014430D01*
X010548Y013690D02*
X008658Y013690D01*
X008378Y013410D01*
X008028Y013410D01*
X007978Y013430D01*
X007958Y012990D02*
X007978Y012930D01*
X007958Y012990D02*
X006838Y012990D01*
X005998Y013480D02*
X006558Y014040D01*
X006383Y014230D01*
X006418Y014180D01*
X006558Y014040D01*
X006838Y013760D01*
X005998Y013480D02*
X004528Y013480D01*
X004500Y013415D01*
X008728Y012150D02*
X009148Y012570D01*
X009148Y012920D01*
X009638Y013410D01*
X009988Y013410D01*
X010038Y013430D01*
X010038Y012930D02*
X009988Y012920D01*
X009428Y012920D01*
X009428Y012570D01*
X010548Y013690D02*
X010968Y013270D01*
X010968Y006830D01*
X010338Y006200D01*
X010328Y006180D01*
X010268Y005710D02*
X009778Y005710D01*
X009778Y006410D01*
X010198Y006830D01*
X010198Y010540D01*
X011248Y011730D02*
X011948Y012430D01*
X011948Y012570D01*
X012008Y012630D01*
X012018Y012640D01*
X013208Y012640D01*
X013258Y012576D01*
X014008Y011430D02*
X014048Y011380D01*
X014048Y011100D01*
X015098Y010050D01*
X015098Y005855D01*
X015096Y005832D01*
X015091Y005810D01*
X015082Y005789D01*
X015070Y005770D01*
X015056Y005752D01*
X015038Y005738D01*
X015019Y005726D01*
X014998Y005717D01*
X014976Y005712D01*
X014953Y005710D01*
X014188Y005710D01*
X014188Y005680D01*
X014188Y006130D02*
X014188Y006180D01*
X014188Y006200D01*
X014188Y006130D02*
X014818Y006130D01*
X015518Y005640D02*
X015518Y007250D01*
X016218Y007950D01*
X016218Y008440D01*
X016258Y008480D01*
X016218Y008510D01*
X015518Y009210D01*
X015518Y010960D01*
X016218Y011660D01*
X016218Y012150D01*
X016258Y012180D01*
X016288Y012220D01*
X016288Y012430D01*
X017808Y012430D01*
X017808Y014430D02*
X017758Y014460D01*
X014528Y014460D01*
X014328Y014260D01*
X014328Y013830D01*
X011248Y011730D02*
X011248Y003480D01*
X011246Y003448D01*
X011241Y003415D01*
X011232Y003384D01*
X011219Y003354D01*
X011204Y003326D01*
X011185Y003299D01*
X011163Y003275D01*
X011139Y003253D01*
X011112Y003234D01*
X011084Y003219D01*
X011054Y003206D01*
X011023Y003197D01*
X010990Y003192D01*
X010958Y003190D01*
X010338Y003190D01*
X010328Y003180D01*
X010328Y002680D02*
X010338Y002630D01*
X012126Y002630D01*
X012163Y002632D01*
X012201Y002637D01*
X012237Y002646D01*
X012272Y002659D01*
X012306Y002675D01*
X012338Y002694D01*
X012368Y002717D01*
X012396Y002742D01*
X012421Y002770D01*
X012444Y002800D01*
X012463Y002832D01*
X012479Y002866D01*
X012492Y002901D01*
X012501Y002937D01*
X012506Y002975D01*
X012508Y003012D01*
X012508Y010260D01*
X013208Y010260D01*
X013258Y010326D01*
X012508Y010260D02*
X012228Y010260D01*
X012228Y010540D01*
X012018Y010750D01*
X012008Y010730D01*
X014008Y009430D02*
X014048Y009420D01*
X014048Y009140D01*
X013278Y008370D01*
X013278Y003431D01*
X013280Y003402D01*
X013285Y003373D01*
X013294Y003346D01*
X013306Y003319D01*
X013321Y003294D01*
X013339Y003271D01*
X013359Y003251D01*
X013382Y003233D01*
X013407Y003218D01*
X013434Y003206D01*
X013461Y003197D01*
X013490Y003192D01*
X013519Y003190D01*
X014188Y003190D01*
X014188Y003180D01*
X014188Y003680D02*
X013558Y003680D01*
X013558Y004170D02*
X014188Y004170D01*
X014188Y004180D01*
X014188Y004660D02*
X013558Y004660D01*
X013558Y004590D01*
X014188Y004660D02*
X014188Y004680D01*
X014718Y005150D02*
X014755Y005148D01*
X014792Y005143D01*
X014828Y005134D01*
X014863Y005121D01*
X014897Y005105D01*
X014929Y005086D01*
X014959Y005064D01*
X014987Y005039D01*
X015012Y005011D01*
X015034Y004981D01*
X015053Y004949D01*
X015069Y004915D01*
X015082Y004880D01*
X015091Y004844D01*
X015096Y004807D01*
X015098Y004770D01*
X015098Y002456D01*
X015023Y002275D02*
X014407Y001659D01*
X014217Y001580D02*
X008385Y001580D01*
X008357Y001582D01*
X008329Y001587D01*
X008302Y001597D01*
X008277Y001609D01*
X008253Y001625D01*
X008232Y001644D01*
X008213Y001665D01*
X008197Y001689D01*
X008185Y001714D01*
X008175Y001741D01*
X008170Y001769D01*
X008168Y001797D01*
X008168Y002070D01*
X007958Y002280D01*
X007958Y002420D01*
X008008Y002430D01*
X010268Y005710D02*
X010328Y005680D01*
X014188Y005180D02*
X014188Y005150D01*
X014718Y005150D01*
X015518Y005640D02*
X016218Y004940D01*
X016258Y004930D01*
X016218Y004870D01*
X016218Y004380D01*
X015518Y003680D01*
X015518Y002140D01*
X016218Y001440D01*
X016258Y001405D01*
X016288Y001370D01*
X016288Y001090D01*
X017688Y001090D01*
X017708Y001080D01*
X015023Y002276D02*
X015042Y002297D01*
X015059Y002320D01*
X015073Y002345D01*
X015084Y002372D01*
X015092Y002399D01*
X015096Y002427D01*
X015098Y002456D01*
X014407Y001659D02*
X014385Y001639D01*
X014360Y001621D01*
X014334Y001607D01*
X014306Y001595D01*
X014277Y001587D01*
X014247Y001582D01*
X014217Y001580D01*
X016288Y008440D02*
X016258Y008480D01*
X016288Y008440D02*
X017898Y008440D01*
X017908Y008455D01*
D21*
X014818Y006130D03*
X013558Y004590D03*
X013558Y004170D03*
X013558Y003680D03*
X010198Y010540D03*
X008308Y011590D03*
X007818Y011100D03*
X007320Y011546D03*
X014328Y013830D03*
D22*
X002541Y013758D02*
X002520Y001807D01*
X002592Y001878D01*
X002894Y002003D01*
X003222Y002003D01*
X003524Y001878D01*
X003756Y001646D01*
X003881Y001344D01*
X003881Y001016D01*
X003756Y000714D01*
X003656Y000613D01*
X017249Y000594D01*
X017119Y000648D01*
X016976Y000791D01*
X016955Y000841D01*
X016238Y000841D01*
X016167Y000870D01*
X015846Y000870D01*
X015723Y000993D01*
X015723Y001582D01*
X015377Y001929D01*
X015307Y001999D01*
X015269Y002090D01*
X015269Y002168D01*
X015235Y002134D01*
X015207Y002106D01*
X015200Y002099D01*
X015190Y002089D01*
X015165Y002064D01*
X014618Y001518D01*
X014618Y001518D01*
X014583Y001482D01*
X014510Y001410D01*
X014510Y001410D01*
X014320Y001331D01*
X008292Y001331D01*
X008121Y001402D01*
X008121Y001402D01*
X007990Y001533D01*
X007990Y001533D01*
X007919Y001704D01*
X007919Y001890D01*
X007901Y001890D01*
X007702Y001972D01*
X007550Y002124D01*
X007468Y002323D01*
X007468Y002537D01*
X007550Y002736D01*
X007702Y002888D01*
X007804Y002930D01*
X007702Y002972D01*
X007550Y003124D01*
X007468Y003323D01*
X007468Y003537D01*
X007550Y003736D01*
X007702Y003888D01*
X007804Y003930D01*
X007702Y003972D01*
X007641Y004034D01*
X007609Y003959D01*
X007429Y003779D01*
X007429Y003606D01*
X007306Y003483D01*
X007094Y003483D01*
X006984Y003375D01*
X006984Y003375D01*
X006779Y003291D01*
X006243Y003291D01*
X006248Y003277D01*
X006248Y003083D01*
X006173Y002902D01*
X006036Y002765D01*
X005855Y002690D01*
X005661Y002690D01*
X005480Y002765D01*
X005353Y002892D01*
X005245Y002784D01*
X005248Y002777D01*
X005248Y002583D01*
X005173Y002402D01*
X005036Y002265D01*
X004855Y002190D01*
X004661Y002190D01*
X004480Y002265D01*
X004343Y002402D01*
X004268Y002583D01*
X004268Y002777D01*
X004343Y002958D01*
X004480Y003095D01*
X004661Y003170D01*
X004855Y003170D01*
X004905Y003150D01*
X005009Y003254D01*
X004855Y003190D01*
X004661Y003190D01*
X004480Y003265D01*
X004343Y003402D01*
X004268Y003583D01*
X004268Y003777D01*
X004343Y003958D01*
X004376Y003991D01*
X004019Y003991D01*
X003927Y004029D01*
X003857Y004099D01*
X003547Y004409D01*
X003509Y004501D01*
X003509Y009470D01*
X003547Y009561D01*
X003815Y009830D01*
X003776Y009869D01*
X003698Y010057D01*
X003698Y010259D01*
X003776Y010447D01*
X003919Y010590D01*
X004107Y010668D01*
X004909Y010668D01*
X005097Y010590D01*
X005240Y010447D01*
X005318Y010259D01*
X005318Y010057D01*
X005240Y009869D01*
X005097Y009726D01*
X004909Y009648D01*
X004339Y009648D01*
X004299Y009608D01*
X004458Y009608D01*
X004458Y009208D01*
X004558Y009208D01*
X005256Y009208D01*
X005247Y009263D01*
X005225Y009331D01*
X005193Y009394D01*
X005151Y009451D01*
X005101Y009501D01*
X005044Y009543D01*
X004981Y009575D01*
X004913Y009597D01*
X004843Y009608D01*
X004558Y009608D01*
X004558Y009208D01*
X004558Y009108D01*
X005256Y009108D01*
X005247Y009053D01*
X005225Y008985D01*
X005193Y008922D01*
X005151Y008865D01*
X005101Y008815D01*
X005044Y008773D01*
X004981Y008741D01*
X004913Y008719D01*
X004843Y008708D01*
X004558Y008708D01*
X004558Y009108D01*
X004458Y009108D01*
X004458Y008708D01*
X004173Y008708D01*
X004103Y008719D01*
X004035Y008741D01*
X004007Y008755D01*
X004007Y008627D01*
X004107Y008668D01*
X004909Y008668D01*
X005097Y008590D01*
X005240Y008447D01*
X005318Y008259D01*
X005318Y008183D01*
X005889Y008753D01*
X005889Y009120D01*
X005927Y009211D01*
X005997Y009281D01*
X005997Y009281D01*
X006295Y009580D01*
X006222Y009592D01*
X006151Y009615D01*
X006084Y009649D01*
X006024Y009693D01*
X005971Y009746D01*
X005927Y009806D01*
X005893Y009873D01*
X005870Y009944D01*
X005858Y010018D01*
X005858Y010036D01*
X006314Y010036D01*
X006314Y010074D01*
X005858Y010074D01*
X005858Y010092D01*
X005870Y010166D01*
X005893Y010237D01*
X005925Y010300D01*
X005857Y010329D01*
X005787Y010399D01*
X005647Y010539D01*
X005609Y010630D01*
X005609Y011131D01*
X005234Y011131D01*
X005232Y011126D01*
X005089Y010983D01*
X004901Y010905D01*
X004099Y010905D01*
X003911Y010983D01*
X003768Y011126D01*
X003690Y011314D01*
X003690Y011516D01*
X003768Y011704D01*
X003911Y011847D01*
X004099Y011925D01*
X004901Y011925D01*
X005089Y011847D01*
X005232Y011704D01*
X005263Y011629D01*
X005908Y011629D01*
X005999Y011591D01*
X006001Y011590D01*
X006485Y011590D01*
X006589Y011693D01*
X006589Y012802D01*
X006565Y012790D01*
X006494Y012767D01*
X006420Y012755D01*
X006402Y012755D01*
X006402Y013211D01*
X006364Y013211D01*
X006364Y012755D01*
X006346Y012755D01*
X006272Y012767D01*
X006201Y012790D01*
X006134Y012824D01*
X006074Y012868D01*
X006021Y012921D01*
X005977Y012981D01*
X005943Y013048D01*
X005920Y013119D01*
X005908Y013193D01*
X005908Y013211D01*
X006364Y013211D01*
X006364Y013249D01*
X006092Y013249D01*
X006048Y013231D01*
X005276Y013231D01*
X005232Y013126D01*
X005089Y012983D01*
X004901Y012905D01*
X004099Y012905D01*
X003911Y012983D01*
X003768Y013126D01*
X003690Y013314D01*
X003690Y013516D01*
X003768Y013704D01*
X003911Y013847D01*
X004099Y013925D01*
X004901Y013925D01*
X005089Y013847D01*
X005207Y013729D01*
X005895Y013729D01*
X005916Y013750D01*
X005848Y013818D01*
X005848Y014642D01*
X005971Y014765D01*
X006795Y014765D01*
X006918Y014642D01*
X006918Y014193D01*
X007626Y014901D01*
X003710Y014912D01*
X003831Y014619D01*
X003831Y014291D01*
X003706Y013989D01*
X003474Y013757D01*
X003172Y013632D01*
X002844Y013632D01*
X002542Y013757D01*
X002541Y013758D01*
X002541Y013744D02*
X002574Y013744D01*
X002540Y013645D02*
X002812Y013645D01*
X002540Y013547D02*
X003702Y013547D01*
X003690Y013448D02*
X002540Y013448D01*
X002540Y013350D02*
X003690Y013350D01*
X003716Y013251D02*
X002540Y013251D01*
X002540Y013153D02*
X003757Y013153D01*
X003840Y013054D02*
X002539Y013054D01*
X002539Y012956D02*
X003977Y012956D01*
X004027Y012832D02*
X003964Y012800D01*
X003907Y012758D01*
X003857Y012708D01*
X003815Y012651D01*
X003783Y012588D01*
X003761Y012520D01*
X003752Y012465D01*
X004450Y012465D01*
X004450Y012865D01*
X004165Y012865D01*
X004095Y012854D01*
X004027Y012832D01*
X004114Y012857D02*
X002539Y012857D01*
X002539Y012759D02*
X003907Y012759D01*
X003822Y012660D02*
X002539Y012660D01*
X002539Y012562D02*
X003774Y012562D01*
X003752Y012365D02*
X003761Y012310D01*
X003783Y012242D01*
X003815Y012179D01*
X003857Y012122D01*
X003907Y012072D01*
X003964Y012030D01*
X004027Y011998D01*
X004095Y011976D01*
X004165Y011965D01*
X004450Y011965D01*
X004450Y012365D01*
X004550Y012365D01*
X004550Y012465D01*
X004450Y012465D01*
X004450Y012365D01*
X003752Y012365D01*
X002538Y012365D01*
X002538Y012463D02*
X004450Y012463D01*
X004450Y012365D02*
X004550Y012365D01*
X005248Y012365D01*
X005239Y012310D01*
X005217Y012242D01*
X005185Y012179D01*
X005143Y012122D01*
X005093Y012072D01*
X005036Y012030D01*
X004973Y011998D01*
X004905Y011976D01*
X004835Y011965D01*
X004550Y011965D01*
X004550Y012365D01*
X004550Y012463D02*
X006589Y012463D01*
X006589Y012365D02*
X005248Y012365D01*
X005248Y012465D02*
X005239Y012520D01*
X005217Y012588D01*
X005185Y012651D01*
X005143Y012708D01*
X005093Y012758D01*
X005036Y012800D01*
X004973Y012832D01*
X004905Y012854D01*
X004835Y012865D01*
X004550Y012865D01*
X004550Y012465D01*
X005248Y012465D01*
X005226Y012562D02*
X006589Y012562D01*
X006589Y012660D02*
X005178Y012660D01*
X005093Y012759D02*
X006323Y012759D01*
X006364Y012759D02*
X006402Y012759D01*
X006443Y012759D02*
X006589Y012759D01*
X006402Y012857D02*
X006364Y012857D01*
X006364Y012956D02*
X006402Y012956D01*
X006402Y013054D02*
X006364Y013054D01*
X006364Y013153D02*
X006402Y013153D01*
X006088Y012857D02*
X004886Y012857D01*
X005023Y012956D02*
X005995Y012956D01*
X005941Y013054D02*
X005160Y013054D01*
X005243Y013153D02*
X005914Y013153D01*
X005909Y013744D02*
X005193Y013744D01*
X005094Y013842D02*
X005848Y013842D01*
X005848Y013941D02*
X003658Y013941D01*
X003727Y014039D02*
X005848Y014039D01*
X005848Y014138D02*
X003768Y014138D01*
X003809Y014236D02*
X005848Y014236D01*
X005848Y014335D02*
X003831Y014335D01*
X003831Y014433D02*
X005848Y014433D01*
X005848Y014532D02*
X003831Y014532D01*
X003827Y014630D02*
X005848Y014630D01*
X005935Y014729D02*
X003786Y014729D01*
X003745Y014827D02*
X007552Y014827D01*
X007454Y014729D02*
X006831Y014729D01*
X006918Y014630D02*
X007355Y014630D01*
X007257Y014532D02*
X006918Y014532D01*
X006918Y014433D02*
X007158Y014433D01*
X007060Y014335D02*
X006918Y014335D01*
X006918Y014236D02*
X006961Y014236D01*
X008623Y013302D02*
X008623Y013223D01*
X008580Y013180D01*
X008623Y013137D01*
X008623Y012723D01*
X008536Y012636D01*
X008553Y012608D01*
X008563Y012570D01*
X008563Y012440D01*
X007988Y012440D01*
X007988Y012420D01*
X008563Y012420D01*
X008563Y012338D01*
X008899Y012673D01*
X008899Y012970D01*
X008937Y013061D01*
X009316Y013441D01*
X008761Y013441D01*
X008623Y013302D01*
X008623Y013251D02*
X009126Y013251D01*
X009028Y013153D02*
X008607Y013153D01*
X008623Y013054D02*
X008934Y013054D01*
X008899Y012956D02*
X008623Y012956D01*
X008623Y012857D02*
X008899Y012857D01*
X008899Y012759D02*
X008623Y012759D01*
X008560Y012660D02*
X008885Y012660D01*
X008787Y012562D02*
X008563Y012562D01*
X008563Y012463D02*
X008688Y012463D01*
X008590Y012365D02*
X008563Y012365D01*
X007968Y012420D02*
X007393Y012420D01*
X007393Y012290D01*
X007403Y012252D01*
X007420Y012224D01*
X007333Y012137D01*
X007333Y011723D01*
X007456Y011600D01*
X007945Y011600D01*
X007980Y011565D01*
X007980Y011525D01*
X008030Y011404D01*
X008075Y011359D01*
X008049Y011333D01*
X008004Y011378D01*
X007883Y011428D01*
X007753Y011428D01*
X007632Y011378D01*
X007540Y011286D01*
X007490Y011165D01*
X007490Y011125D01*
X007155Y010789D01*
X006868Y010789D01*
X006868Y011267D01*
X006979Y011379D01*
X007049Y011449D01*
X007087Y011540D01*
X007087Y012741D01*
X007333Y012741D01*
X007333Y012723D01*
X007420Y012636D01*
X007403Y012608D01*
X007393Y012570D01*
X007393Y012440D01*
X007968Y012440D01*
X007968Y012420D01*
X007399Y012266D02*
X007087Y012266D01*
X007087Y012168D02*
X007364Y012168D01*
X007333Y012069D02*
X007087Y012069D01*
X007087Y011971D02*
X007333Y011971D01*
X007333Y011872D02*
X007087Y011872D01*
X007087Y011774D02*
X007333Y011774D01*
X007381Y011675D02*
X007087Y011675D01*
X007087Y011577D02*
X007969Y011577D01*
X007999Y011478D02*
X007062Y011478D01*
X006980Y011380D02*
X007635Y011380D01*
X007538Y011281D02*
X006882Y011281D01*
X006868Y011183D02*
X007497Y011183D01*
X007449Y011084D02*
X006868Y011084D01*
X006868Y010986D02*
X007351Y010986D01*
X007252Y010887D02*
X006868Y010887D01*
X005923Y010296D02*
X005303Y010296D01*
X005318Y010198D02*
X005880Y010198D01*
X005859Y010099D02*
X005318Y010099D01*
X005295Y010001D02*
X005861Y010001D01*
X005883Y009902D02*
X005254Y009902D01*
X005175Y009804D02*
X005929Y009804D01*
X006011Y009705D02*
X005047Y009705D01*
X005092Y009508D02*
X006223Y009508D01*
X006176Y009607D02*
X004853Y009607D01*
X004558Y009607D02*
X004458Y009607D01*
X004458Y009508D02*
X004558Y009508D01*
X004558Y009410D02*
X004458Y009410D01*
X004458Y009311D02*
X004558Y009311D01*
X004558Y009213D02*
X004458Y009213D01*
X004558Y009114D02*
X005889Y009114D01*
X005889Y009016D02*
X005235Y009016D01*
X005189Y008917D02*
X005889Y008917D01*
X005889Y008819D02*
X005105Y008819D01*
X004916Y008720D02*
X005855Y008720D01*
X005757Y008622D02*
X005022Y008622D01*
X005164Y008523D02*
X005658Y008523D01*
X005560Y008425D02*
X005250Y008425D01*
X005290Y008326D02*
X005461Y008326D01*
X005363Y008228D02*
X005318Y008228D01*
X005674Y007834D02*
X005889Y007834D01*
X005889Y007932D02*
X005773Y007932D01*
X005871Y008031D02*
X005889Y008031D01*
X005889Y008048D02*
X005889Y006290D01*
X005927Y006199D01*
X005997Y006129D01*
X006309Y005817D01*
X006309Y005113D01*
X006227Y005032D01*
X006248Y005083D01*
X006248Y005277D01*
X006173Y005458D01*
X006036Y005595D01*
X005855Y005670D01*
X005661Y005670D01*
X005480Y005595D01*
X005343Y005458D01*
X005268Y005277D01*
X005268Y005083D01*
X005329Y004936D01*
X005329Y004693D01*
X005248Y004613D01*
X005248Y004777D01*
X005173Y004958D01*
X005036Y005095D01*
X004855Y005170D01*
X004661Y005170D01*
X004480Y005095D01*
X004343Y004958D01*
X004268Y004777D01*
X004268Y004583D01*
X004078Y004583D01*
X004007Y004654D02*
X004172Y004489D01*
X004307Y004489D01*
X004268Y004583D01*
X004268Y004682D02*
X004007Y004682D01*
X004007Y004654D02*
X004007Y007689D01*
X004107Y007648D01*
X004431Y007648D01*
X004312Y007529D01*
X004312Y007040D01*
X004435Y006917D01*
X005081Y006917D01*
X005204Y007040D01*
X005204Y007364D01*
X005889Y008048D01*
X005889Y007735D02*
X005576Y007735D01*
X005477Y007637D02*
X005889Y007637D01*
X005889Y007538D02*
X005379Y007538D01*
X005280Y007440D02*
X005889Y007440D01*
X005889Y007341D02*
X005204Y007341D01*
X005204Y007243D02*
X005889Y007243D01*
X005889Y007144D02*
X005204Y007144D01*
X005204Y007046D02*
X005889Y007046D01*
X005889Y006947D02*
X005111Y006947D01*
X005052Y006873D02*
X005014Y006883D01*
X004787Y006883D01*
X004787Y006604D01*
X005144Y006604D01*
X005144Y006753D01*
X005134Y006791D01*
X005114Y006825D01*
X005086Y006853D01*
X005052Y006873D01*
X005091Y006849D02*
X005889Y006849D01*
X005889Y006750D02*
X005144Y006750D01*
X005144Y006652D02*
X005889Y006652D01*
X005889Y006553D02*
X004787Y006553D01*
X004787Y006547D02*
X004787Y006604D01*
X004729Y006604D01*
X004729Y006547D01*
X004372Y006547D01*
X004372Y006398D01*
X004382Y006360D01*
X004402Y006326D01*
X004430Y006298D01*
X004464Y006278D01*
X004502Y006268D01*
X004729Y006268D01*
X004729Y006547D01*
X004787Y006547D01*
X005144Y006547D01*
X005144Y006398D01*
X005134Y006360D01*
X005114Y006326D01*
X005086Y006298D01*
X005052Y006278D01*
X005014Y006268D01*
X004787Y006268D01*
X004787Y006547D01*
X004729Y006553D02*
X004007Y006553D01*
X004007Y006455D02*
X004372Y006455D01*
X004384Y006356D02*
X004007Y006356D01*
X004007Y006258D02*
X005902Y006258D01*
X005889Y006356D02*
X005132Y006356D01*
X005144Y006455D02*
X005889Y006455D01*
X005966Y006159D02*
X004007Y006159D01*
X004007Y006061D02*
X004558Y006061D01*
X004533Y006048D02*
X004593Y006078D01*
X004657Y006099D01*
X004724Y006110D01*
X004729Y006110D01*
X004729Y005709D01*
X004787Y005709D01*
X004787Y006110D01*
X004792Y006110D01*
X004859Y006099D01*
X004923Y006078D01*
X004983Y006048D01*
X005038Y006008D01*
X005086Y005960D01*
X005126Y005905D01*
X005156Y005845D01*
X005177Y005781D01*
X005188Y005714D01*
X005188Y005709D01*
X004787Y005709D01*
X004787Y005651D01*
X005188Y005651D01*
X005188Y005646D01*
X005177Y005579D01*
X005156Y005515D01*
X005126Y005455D01*
X005086Y005400D01*
X005038Y005352D01*
X004983Y005312D01*
X004923Y005282D01*
X004859Y005261D01*
X004792Y005250D01*
X004787Y005250D01*
X004787Y005651D01*
X004729Y005651D01*
X004328Y005651D01*
X004328Y005646D01*
X004339Y005579D01*
X004360Y005515D01*
X004390Y005455D01*
X004430Y005400D01*
X004478Y005352D01*
X004533Y005312D01*
X004593Y005282D01*
X004657Y005261D01*
X004724Y005250D01*
X004729Y005250D01*
X004729Y005651D01*
X004729Y005709D01*
X004328Y005709D01*
X004328Y005714D01*
X004339Y005781D01*
X004360Y005845D01*
X004390Y005905D01*
X004430Y005960D01*
X004478Y006008D01*
X004533Y006048D01*
X004432Y005962D02*
X004007Y005962D01*
X004007Y005864D02*
X004369Y005864D01*
X004336Y005765D02*
X004007Y005765D01*
X004007Y005667D02*
X004729Y005667D01*
X004787Y005667D02*
X005652Y005667D01*
X005864Y005667D02*
X006309Y005667D01*
X006309Y005765D02*
X005180Y005765D01*
X005147Y005864D02*
X006262Y005864D01*
X006163Y005962D02*
X005084Y005962D01*
X004958Y006061D02*
X006065Y006061D01*
X006063Y005568D02*
X006309Y005568D01*
X006309Y005470D02*
X006161Y005470D01*
X006209Y005371D02*
X006309Y005371D01*
X006309Y005273D02*
X006248Y005273D01*
X006248Y005174D02*
X006309Y005174D01*
X006271Y005076D02*
X006245Y005076D01*
X005453Y005568D02*
X005174Y005568D01*
X005133Y005470D02*
X005355Y005470D01*
X005307Y005371D02*
X005057Y005371D01*
X004895Y005273D02*
X005268Y005273D01*
X005268Y005174D02*
X004007Y005174D01*
X004007Y005076D02*
X004461Y005076D01*
X004362Y004977D02*
X004007Y004977D01*
X004007Y004879D02*
X004310Y004879D01*
X004269Y004780D02*
X004007Y004780D01*
X003509Y004780D02*
X002525Y004780D01*
X002525Y004682D02*
X003509Y004682D01*
X003509Y004583D02*
X002525Y004583D01*
X002525Y004485D02*
X003515Y004485D01*
X003570Y004386D02*
X002525Y004386D01*
X002525Y004288D02*
X003668Y004288D01*
X003767Y004189D02*
X002524Y004189D01*
X002524Y004091D02*
X003865Y004091D01*
X004016Y003992D02*
X002524Y003992D01*
X002524Y003894D02*
X004316Y003894D01*
X004275Y003795D02*
X002524Y003795D01*
X002524Y003697D02*
X004268Y003697D01*
X004268Y003598D02*
X002523Y003598D01*
X002523Y003500D02*
X004302Y003500D01*
X004344Y003401D02*
X002523Y003401D01*
X002523Y003303D02*
X004443Y003303D01*
X004505Y003106D02*
X002523Y003106D01*
X002523Y003204D02*
X004627Y003204D01*
X004889Y003204D02*
X004959Y003204D01*
X005271Y002810D02*
X005435Y002810D01*
X005609Y002712D02*
X005248Y002712D01*
X005248Y002613D02*
X007499Y002613D01*
X007468Y002515D02*
X006029Y002515D01*
X006038Y002508D02*
X005983Y002548D01*
X005923Y002578D01*
X005859Y002599D01*
X005792Y002610D01*
X005787Y002610D01*
X005787Y002209D01*
X005729Y002209D01*
X005729Y002610D01*
X005724Y002610D01*
X005657Y002599D01*
X005593Y002578D01*
X005533Y002548D01*
X005478Y002508D01*
X005430Y002460D01*
X005390Y002405D01*
X005360Y002345D01*
X005339Y002281D01*
X005328Y002214D01*
X005328Y002209D01*
X005729Y002209D01*
X005729Y002151D01*
X005328Y002151D01*
X005328Y002146D01*
X005339Y002079D01*
X005360Y002015D01*
X005390Y001955D01*
X005430Y001900D01*
X005478Y001852D01*
X005533Y001812D01*
X005593Y001782D01*
X005657Y001761D01*
X005724Y001750D01*
X005729Y001750D01*
X005729Y002151D01*
X005787Y002151D01*
X005787Y002209D01*
X006188Y002209D01*
X006188Y002214D01*
X006177Y002281D01*
X006156Y002345D01*
X006126Y002405D01*
X006086Y002460D01*
X006038Y002508D01*
X006118Y002416D02*
X007468Y002416D01*
X007470Y002318D02*
X006165Y002318D01*
X006187Y002219D02*
X007511Y002219D01*
X007554Y002121D02*
X006184Y002121D01*
X006188Y002146D02*
X006188Y002151D01*
X005787Y002151D01*
X005787Y001750D01*
X005792Y001750D01*
X005859Y001761D01*
X005923Y001782D01*
X005983Y001812D01*
X006038Y001852D01*
X006086Y001900D01*
X006126Y001955D01*
X006156Y002015D01*
X006177Y002079D01*
X006188Y002146D01*
X006159Y002022D02*
X007652Y002022D01*
X007820Y001924D02*
X006103Y001924D01*
X006001Y001825D02*
X007919Y001825D01*
X007919Y001727D02*
X005372Y001727D01*
X005407Y001643D02*
X005330Y001828D01*
X005188Y001971D01*
X005002Y002047D01*
X004801Y002047D01*
X004615Y001971D01*
X004473Y001828D01*
X004396Y001643D01*
X004396Y001442D01*
X004473Y001256D01*
X004615Y001114D01*
X004801Y001037D01*
X003881Y001037D01*
X003881Y001136D02*
X004594Y001136D01*
X004495Y001234D02*
X003881Y001234D01*
X003881Y001333D02*
X004442Y001333D01*
X004401Y001431D02*
X003845Y001431D01*
X003804Y001530D02*
X004396Y001530D01*
X004396Y001628D02*
X003764Y001628D01*
X003676Y001727D02*
X004431Y001727D01*
X004472Y001825D02*
X003577Y001825D01*
X003415Y001924D02*
X004568Y001924D01*
X004740Y002022D02*
X002521Y002022D01*
X002521Y001924D02*
X002701Y001924D01*
X002539Y001825D02*
X002520Y001825D01*
X002521Y002121D02*
X005332Y002121D01*
X005329Y002219D02*
X004926Y002219D01*
X005088Y002318D02*
X005351Y002318D01*
X005398Y002416D02*
X005179Y002416D01*
X005220Y002515D02*
X005487Y002515D01*
X005729Y002515D02*
X005787Y002515D01*
X005787Y002416D02*
X005729Y002416D01*
X005729Y002318D02*
X005787Y002318D01*
X005787Y002219D02*
X005729Y002219D01*
X005729Y002121D02*
X005787Y002121D01*
X005787Y002022D02*
X005729Y002022D01*
X005729Y001924D02*
X005787Y001924D01*
X005787Y001825D02*
X005729Y001825D01*
X005515Y001825D02*
X005331Y001825D01*
X005413Y001924D02*
X005235Y001924D01*
X005357Y002022D02*
X005064Y002022D01*
X005407Y001643D02*
X005407Y001442D01*
X005330Y001256D01*
X005188Y001114D01*
X005002Y001037D01*
X004801Y001037D01*
X005002Y001037D02*
X015723Y001037D01*
X015723Y001136D02*
X005210Y001136D01*
X005308Y001234D02*
X015723Y001234D01*
X015723Y001333D02*
X014324Y001333D01*
X014532Y001431D02*
X015723Y001431D01*
X015723Y001530D02*
X014630Y001530D01*
X014729Y001628D02*
X015677Y001628D01*
X015579Y001727D02*
X014827Y001727D01*
X014926Y001825D02*
X015480Y001825D01*
X015382Y001924D02*
X015024Y001924D01*
X015123Y002022D02*
X015297Y002022D01*
X015269Y002121D02*
X015221Y002121D01*
X015767Y002243D02*
X015849Y002162D01*
X015818Y002223D01*
X015795Y002294D01*
X015783Y002368D01*
X015783Y002386D01*
X016239Y002386D01*
X016239Y002424D01*
X016239Y002880D01*
X016221Y002880D01*
X016147Y002868D01*
X016076Y002845D01*
X016009Y002811D01*
X015949Y002767D01*
X015896Y002714D01*
X015852Y002654D01*
X015818Y002587D01*
X015795Y002516D01*
X015783Y002442D01*
X015783Y002424D01*
X016239Y002424D01*
X016277Y002424D01*
X016277Y002880D01*
X016295Y002880D01*
X016369Y002868D01*
X016440Y002845D01*
X016507Y002811D01*
X016567Y002767D01*
X016620Y002714D01*
X016664Y002654D01*
X016698Y002587D01*
X016721Y002516D01*
X016733Y002442D01*
X016733Y002424D01*
X016277Y002424D01*
X016277Y002386D01*
X016733Y002386D01*
X016733Y002368D01*
X016721Y002294D01*
X016698Y002223D01*
X016664Y002156D01*
X016620Y002096D01*
X016567Y002043D01*
X016507Y001999D01*
X016440Y001965D01*
X016369Y001942D01*
X016359Y001940D01*
X016670Y001940D01*
X016793Y001817D01*
X016793Y001339D01*
X016963Y001339D01*
X016976Y001369D01*
X017119Y001512D01*
X017307Y001590D01*
X018109Y001590D01*
X018297Y001512D01*
X018413Y001397D01*
X018485Y001571D01*
X018717Y001803D01*
X019019Y001928D01*
X019347Y001928D01*
X019649Y001803D01*
X019678Y001775D01*
X019759Y013716D01*
X019724Y013682D01*
X019422Y013557D01*
X019094Y013557D01*
X018792Y013682D01*
X018560Y013914D01*
X018488Y014088D01*
X018397Y013998D01*
X018209Y013920D01*
X017407Y013920D01*
X017219Y013998D01*
X017076Y014141D01*
X017047Y014211D01*
X014631Y014211D01*
X014577Y014157D01*
X014577Y014045D01*
X014606Y014016D01*
X014656Y013895D01*
X014656Y013765D01*
X014606Y013644D01*
X014514Y013552D01*
X014393Y013502D01*
X014263Y013502D01*
X014142Y013552D01*
X014050Y013644D01*
X014000Y013765D01*
X014000Y013895D01*
X014050Y014016D01*
X014079Y014045D01*
X014079Y014310D01*
X014117Y014401D01*
X014387Y014671D01*
X014478Y014709D01*
X017072Y014709D01*
X017076Y014719D01*
X017219Y014862D01*
X017247Y014874D01*
X013818Y014884D01*
X013966Y014736D01*
X014048Y014537D01*
X014048Y014323D01*
X013966Y014124D01*
X013814Y013972D01*
X013615Y013890D01*
X013401Y013890D01*
X013202Y013972D01*
X013050Y014124D01*
X012973Y014309D01*
X012953Y014246D01*
X012919Y014178D01*
X012874Y014117D01*
X012821Y014064D01*
X012760Y014019D01*
X012692Y013985D01*
X012620Y013962D01*
X012558Y013952D01*
X012558Y014380D01*
X012458Y014380D01*
X012458Y013952D01*
X012396Y013962D01*
X012324Y013985D01*
X012256Y014019D01*
X012195Y014064D01*
X012142Y014117D01*
X012097Y014178D01*
X012063Y014246D01*
X012043Y014309D01*
X011966Y014124D01*
X011814Y013972D01*
X011615Y013890D01*
X011401Y013890D01*
X011202Y013972D01*
X011050Y014124D01*
X011008Y014226D01*
X010966Y014124D01*
X010814Y013972D01*
X010666Y013911D01*
X010689Y013901D01*
X010759Y013831D01*
X011179Y013411D01*
X011217Y013320D01*
X011217Y012052D01*
X011601Y012436D01*
X011558Y012540D01*
X011558Y012720D01*
X011627Y012885D01*
X011753Y013011D01*
X011918Y013080D01*
X012098Y013080D01*
X012263Y013011D01*
X012385Y012889D01*
X012881Y012889D01*
X012935Y012943D01*
X013581Y012943D01*
X013704Y012820D01*
X013704Y012331D01*
X013581Y012208D01*
X012935Y012208D01*
X012812Y012331D01*
X012812Y012391D01*
X012396Y012391D01*
X012389Y012375D01*
X012263Y012249D01*
X012098Y012180D01*
X012051Y012180D01*
X011497Y011627D01*
X011497Y003373D01*
X011415Y003175D01*
X011415Y003175D01*
X011263Y003023D01*
X011065Y002941D01*
X011065Y002941D01*
X010916Y002941D01*
X010905Y002930D01*
X010938Y002897D01*
X010938Y002879D01*
X012126Y002879D01*
X012152Y002882D01*
X012200Y002902D01*
X012236Y002938D01*
X012256Y002986D01*
X012259Y003012D01*
X012259Y010011D01*
X012178Y010011D01*
X012087Y010049D01*
X012017Y010119D01*
X011979Y010210D01*
X011979Y010280D01*
X011918Y010280D01*
X011753Y010349D01*
X011627Y010475D01*
X011558Y010640D01*
X011558Y010820D01*
X011627Y010985D01*
X011753Y011111D01*
X011918Y011180D01*
X012098Y011180D01*
X012263Y011111D01*
X012389Y010985D01*
X012458Y010820D01*
X012458Y010640D01*
X012457Y010638D01*
X012477Y010590D01*
X012477Y010509D01*
X012812Y010509D01*
X012812Y010570D01*
X012935Y010693D01*
X013581Y010693D01*
X013704Y010570D01*
X013704Y010081D01*
X013581Y009958D01*
X012935Y009958D01*
X012882Y010011D01*
X012757Y010011D01*
X012757Y002886D01*
X012661Y002654D01*
X012661Y002654D01*
X012484Y002477D01*
X012484Y002477D01*
X012252Y002381D01*
X012176Y002381D01*
X010860Y002381D01*
X010868Y002368D01*
X010878Y002330D01*
X010878Y002195D01*
X010343Y002195D01*
X010343Y002165D01*
X010878Y002165D01*
X010878Y002030D01*
X010868Y001992D01*
X010848Y001958D01*
X010820Y001930D01*
X010786Y001910D01*
X010748Y001900D01*
X010343Y001900D01*
X010343Y002165D01*
X010313Y002165D01*
X010313Y001900D01*
X009908Y001900D01*
X009870Y001910D01*
X009836Y001930D01*
X009808Y001958D01*
X009788Y001992D01*
X009778Y002030D01*
X009778Y002165D01*
X010313Y002165D01*
X010313Y002195D01*
X009778Y002195D01*
X009778Y002330D01*
X009788Y002368D01*
X009797Y002384D01*
X009718Y002463D01*
X009718Y002897D01*
X009751Y002930D01*
X009718Y002963D01*
X009718Y003397D01*
X009751Y003430D01*
X009718Y003463D01*
X009718Y003897D01*
X009751Y003930D01*
X009718Y003963D01*
X009718Y004397D01*
X009751Y004430D01*
X009718Y004463D01*
X009718Y004897D01*
X009751Y004930D01*
X009718Y004963D01*
X009718Y005397D01*
X009751Y005430D01*
X009718Y005463D01*
X009718Y005465D01*
X009637Y005499D01*
X009582Y005553D01*
X009439Y005410D01*
X009337Y005367D01*
X009439Y005325D01*
X009591Y005173D01*
X009673Y004975D01*
X009673Y004760D01*
X009591Y004562D01*
X009439Y004410D01*
X009240Y004328D01*
X009026Y004328D01*
X008827Y004410D01*
X008675Y004562D01*
X008593Y004760D01*
X008593Y004975D01*
X008675Y005173D01*
X008827Y005325D01*
X008929Y005367D01*
X008827Y005410D01*
X008675Y005562D01*
X008593Y005760D01*
X008593Y005975D01*
X008605Y006005D01*
X008401Y005801D01*
X008466Y005736D01*
X008548Y005537D01*
X008548Y005323D01*
X008466Y005124D01*
X008314Y004972D01*
X008212Y004930D01*
X008314Y004888D01*
X008466Y004736D01*
X008548Y004537D01*
X008548Y004323D01*
X008466Y004124D01*
X008314Y003972D01*
X008212Y003930D01*
X008314Y003888D01*
X008466Y003736D01*
X008548Y003537D01*
X008548Y003323D01*
X008466Y003124D01*
X008314Y002972D01*
X008212Y002930D01*
X008314Y002888D01*
X008466Y002736D01*
X008548Y002537D01*
X008548Y002323D01*
X008466Y002124D01*
X008417Y002076D01*
X008417Y001829D01*
X014217Y001829D01*
X014220Y001830D01*
X014227Y001833D01*
X014230Y001835D01*
X014235Y001840D01*
X013701Y001840D01*
X013578Y001963D01*
X013578Y002397D01*
X013611Y002430D01*
X013578Y002463D01*
X013578Y002897D01*
X013611Y002930D01*
X013600Y002941D01*
X013421Y002941D01*
X013241Y003015D01*
X013241Y003015D01*
X013103Y003153D01*
X013103Y003153D01*
X013029Y003333D01*
X013029Y008420D01*
X013067Y008511D01*
X013615Y009059D01*
X013550Y009124D01*
X013468Y009323D01*
X013468Y009537D01*
X013550Y009736D01*
X013702Y009888D01*
X013901Y009970D01*
X014115Y009970D01*
X014314Y009888D01*
X014466Y009736D01*
X014548Y009537D01*
X014548Y009323D01*
X014466Y009124D01*
X014314Y008972D01*
X014176Y008915D01*
X013527Y008267D01*
X013527Y004918D01*
X013599Y004918D01*
X013611Y004930D01*
X013578Y004963D01*
X013578Y005397D01*
X013611Y005430D01*
X013578Y005463D01*
X013578Y005897D01*
X013611Y005930D01*
X013578Y005963D01*
X013578Y006397D01*
X013701Y006520D01*
X014675Y006520D01*
X014742Y006453D01*
X014753Y006458D01*
X014849Y006458D01*
X014849Y009947D01*
X013907Y010889D01*
X013905Y010890D01*
X013901Y010890D01*
X013702Y010972D01*
X013611Y011063D01*
X013287Y011063D01*
X013287Y011006D01*
X013644Y011006D01*
X013644Y010857D01*
X013634Y010819D01*
X013614Y010785D01*
X013586Y010757D01*
X013552Y010737D01*
X013514Y010727D01*
X013287Y010727D01*
X013287Y011006D01*
X013229Y011006D01*
X012872Y011006D01*
X012872Y010857D01*
X012882Y010819D01*
X012902Y010785D01*
X012930Y010757D01*
X012964Y010737D01*
X013002Y010727D01*
X013229Y010727D01*
X013229Y011006D01*
X013229Y011063D01*
X012872Y011063D01*
X012872Y011212D01*
X012882Y011250D01*
X012902Y011284D01*
X012930Y011312D01*
X012964Y011332D01*
X013002Y011342D01*
X013229Y011342D01*
X013229Y011063D01*
X013287Y011063D01*
X013287Y011342D01*
X013468Y011342D01*
X013468Y011537D01*
X013550Y011736D01*
X013702Y011888D01*
X013901Y011970D01*
X014115Y011970D01*
X014314Y011888D01*
X014466Y011736D01*
X014548Y011537D01*
X014548Y011323D01*
X014466Y011124D01*
X014421Y011079D01*
X015269Y010232D01*
X015269Y011010D01*
X015307Y011101D01*
X015850Y011645D01*
X015846Y011645D01*
X015723Y011768D01*
X015723Y012592D01*
X015846Y012715D01*
X016157Y012715D01*
X016147Y012717D01*
X016076Y012740D01*
X016009Y012774D01*
X015949Y012818D01*
X015896Y012871D01*
X015852Y012931D01*
X015818Y012998D01*
X015795Y013069D01*
X015783Y013143D01*
X015783Y013161D01*
X016239Y013161D01*
X016239Y013199D01*
X016239Y013655D01*
X016221Y013655D01*
X016147Y013643D01*
X016076Y013620D01*
X016009Y013586D01*
X015949Y013542D01*
X015896Y013489D01*
X015852Y013429D01*
X015818Y013362D01*
X015795Y013291D01*
X015783Y013217D01*
X015783Y013199D01*
X016239Y013199D01*
X016277Y013199D01*
X016277Y013655D01*
X016295Y013655D01*
X016369Y013643D01*
X016440Y013620D01*
X016507Y013586D01*
X016567Y013542D01*
X016620Y013489D01*
X016664Y013429D01*
X016698Y013362D01*
X016721Y013291D01*
X016733Y013217D01*
X016733Y013199D01*
X016277Y013199D01*
X016277Y013161D01*
X016733Y013161D01*
X016733Y013143D01*
X016721Y013069D01*
X016698Y012998D01*
X016664Y012931D01*
X016620Y012871D01*
X016567Y012818D01*
X016507Y012774D01*
X016440Y012740D01*
X016369Y012717D01*
X016359Y012715D01*
X016670Y012715D01*
X016706Y012679D01*
X017059Y012679D01*
X017076Y012719D01*
X017219Y012862D01*
X017407Y012940D01*
X018209Y012940D01*
X018397Y012862D01*
X018540Y012719D01*
X018618Y012531D01*
X018618Y012329D01*
X018540Y012141D01*
X018397Y011998D01*
X018209Y011920D01*
X017407Y011920D01*
X017219Y011998D01*
X017076Y012141D01*
X017059Y012181D01*
X016793Y012181D01*
X016793Y011768D01*
X016670Y011645D01*
X016467Y011645D01*
X016467Y011610D01*
X016429Y011519D01*
X016359Y011449D01*
X015767Y010857D01*
X015767Y009313D01*
X015857Y009223D01*
X015852Y009231D01*
X015818Y009298D01*
X015795Y009369D01*
X015783Y009443D01*
X015783Y009461D01*
X016239Y009461D01*
X016239Y009499D01*
X016239Y009955D01*
X016221Y009955D01*
X016147Y009943D01*
X016076Y009920D01*
X016009Y009886D01*
X015949Y009842D01*
X015896Y009789D01*
X015852Y009729D01*
X015818Y009662D01*
X015795Y009591D01*
X015783Y009517D01*
X015783Y009499D01*
X016239Y009499D01*
X016277Y009499D01*
X016277Y009955D01*
X016295Y009955D01*
X016369Y009943D01*
X016440Y009920D01*
X016507Y009886D01*
X016567Y009842D01*
X016620Y009789D01*
X016664Y009729D01*
X016698Y009662D01*
X016721Y009591D01*
X016733Y009517D01*
X016733Y009499D01*
X016277Y009499D01*
X016277Y009461D01*
X016733Y009461D01*
X016733Y009443D01*
X016721Y009369D01*
X016698Y009298D01*
X016664Y009231D01*
X016620Y009171D01*
X016567Y009118D01*
X016507Y009074D01*
X016440Y009040D01*
X016369Y009017D01*
X016359Y009015D01*
X016670Y009015D01*
X016793Y008892D01*
X016793Y008689D01*
X017153Y008689D01*
X017176Y008744D01*
X017319Y008887D01*
X017507Y008965D01*
X018309Y008965D01*
X018497Y008887D01*
X018640Y008744D01*
X018718Y008556D01*
X018718Y008354D01*
X018640Y008166D01*
X018497Y008023D01*
X018309Y007945D01*
X017507Y007945D01*
X017319Y008023D01*
X017176Y008166D01*
X017165Y008191D01*
X016793Y008191D01*
X016793Y008068D01*
X016670Y007945D01*
X016467Y007945D01*
X016467Y007900D01*
X016429Y007809D01*
X016359Y007739D01*
X015767Y007147D01*
X015767Y005743D01*
X016046Y005465D01*
X016157Y005465D01*
X016147Y005467D01*
X016076Y005490D01*
X016009Y005524D01*
X015949Y005568D01*
X015896Y005621D01*
X015852Y005681D01*
X015818Y005748D01*
X015795Y005819D01*
X015783Y005893D01*
X015783Y005911D01*
X016239Y005911D01*
X016239Y005949D01*
X016239Y006405D01*
X016221Y006405D01*
X016147Y006393D01*
X016076Y006370D01*
X016009Y006336D01*
X015949Y006292D01*
X015896Y006239D01*
X015852Y006179D01*
X015818Y006112D01*
X015795Y006041D01*
X015783Y005967D01*
X015783Y005949D01*
X016239Y005949D01*
X016277Y005949D01*
X016277Y006405D01*
X016295Y006405D01*
X016369Y006393D01*
X016440Y006370D01*
X016507Y006336D01*
X016567Y006292D01*
X016620Y006239D01*
X016664Y006179D01*
X016698Y006112D01*
X016721Y006041D01*
X016733Y005967D01*
X016733Y005949D01*
X016277Y005949D01*
X016277Y005911D01*
X016733Y005911D01*
X016733Y005893D01*
X016721Y005819D01*
X016698Y005748D01*
X016664Y005681D01*
X016620Y005621D01*
X016567Y005568D01*
X016507Y005524D01*
X016440Y005490D01*
X016369Y005467D01*
X016359Y005465D01*
X016670Y005465D01*
X016793Y005342D01*
X016793Y004518D01*
X016670Y004395D01*
X016467Y004395D01*
X016467Y004330D01*
X016429Y004239D01*
X016359Y004169D01*
X015767Y003577D01*
X015767Y002243D01*
X015792Y002219D02*
X015820Y002219D01*
X015791Y002318D02*
X015767Y002318D01*
X015767Y002416D02*
X016239Y002416D01*
X016277Y002416D02*
X017108Y002416D01*
X017115Y002423D02*
X017065Y002373D01*
X017023Y002316D01*
X016991Y002253D01*
X016969Y002185D01*
X016960Y002130D01*
X017658Y002130D01*
X017658Y002530D01*
X017373Y002530D01*
X017303Y002519D01*
X017235Y002497D01*
X017172Y002465D01*
X017115Y002423D01*
X017024Y002318D02*
X016725Y002318D01*
X016696Y002219D02*
X016980Y002219D01*
X016960Y002030D02*
X016969Y001975D01*
X016991Y001907D01*
X017023Y001844D01*
X017065Y001787D01*
X017115Y001737D01*
X017172Y001695D01*
X017235Y001663D01*
X017303Y001641D01*
X017373Y001630D01*
X017658Y001630D01*
X017658Y002030D01*
X017758Y002030D01*
X017758Y002130D01*
X017658Y002130D01*
X017658Y002030D01*
X016960Y002030D01*
X016962Y002022D02*
X016539Y002022D01*
X016638Y002121D02*
X017658Y002121D01*
X017658Y002219D02*
X017758Y002219D01*
X017758Y002130D02*
X017758Y002530D01*
X018043Y002530D01*
X018113Y002519D01*
X018181Y002497D01*
X018244Y002465D01*
X018301Y002423D01*
X018351Y002373D01*
X018393Y002316D01*
X018425Y002253D01*
X018447Y002185D01*
X018456Y002130D01*
X017758Y002130D01*
X017758Y002121D02*
X019680Y002121D01*
X019681Y002219D02*
X018436Y002219D01*
X018392Y002318D02*
X019681Y002318D01*
X019682Y002416D02*
X018308Y002416D01*
X018127Y002515D02*
X019683Y002515D01*
X019683Y002613D02*
X018213Y002613D01*
X018297Y002648D02*
X018440Y002791D01*
X018518Y002979D01*
X018518Y003181D01*
X018440Y003369D01*
X018297Y003512D01*
X018109Y003590D01*
X017307Y003590D01*
X017119Y003512D01*
X016976Y003369D01*
X016898Y003181D01*
X016898Y002979D01*
X016976Y002791D01*
X017119Y002648D01*
X017307Y002570D01*
X018109Y002570D01*
X018297Y002648D01*
X018361Y002712D02*
X019684Y002712D01*
X019685Y002810D02*
X018448Y002810D01*
X018489Y002909D02*
X019685Y002909D01*
X019686Y003007D02*
X018518Y003007D01*
X018518Y003106D02*
X019687Y003106D01*
X019687Y003204D02*
X018509Y003204D01*
X018468Y003303D02*
X019688Y003303D01*
X019689Y003401D02*
X018408Y003401D01*
X018310Y003500D02*
X019689Y003500D01*
X019690Y003598D02*
X015789Y003598D01*
X015767Y003500D02*
X017106Y003500D01*
X017008Y003401D02*
X015767Y003401D01*
X015767Y003303D02*
X016948Y003303D01*
X016907Y003204D02*
X015767Y003204D01*
X015767Y003106D02*
X016898Y003106D01*
X016898Y003007D02*
X015767Y003007D01*
X015767Y002909D02*
X016927Y002909D01*
X016968Y002810D02*
X016509Y002810D01*
X016622Y002712D02*
X017055Y002712D01*
X017203Y002613D02*
X016685Y002613D01*
X016722Y002515D02*
X017289Y002515D01*
X017658Y002515D02*
X017758Y002515D01*
X017758Y002416D02*
X017658Y002416D01*
X017658Y002318D02*
X017758Y002318D01*
X017758Y002030D02*
X018456Y002030D01*
X018447Y001975D01*
X018425Y001907D01*
X018393Y001844D01*
X018351Y001787D01*
X018301Y001737D01*
X018244Y001695D01*
X018181Y001663D01*
X018113Y001641D01*
X018043Y001630D01*
X017758Y001630D01*
X017758Y002030D01*
X017758Y002022D02*
X017658Y002022D01*
X017658Y001924D02*
X017758Y001924D01*
X017758Y001825D02*
X017658Y001825D01*
X017658Y001727D02*
X017758Y001727D01*
X018287Y001727D02*
X018640Y001727D01*
X018542Y001628D02*
X016793Y001628D01*
X016793Y001530D02*
X017161Y001530D01*
X017038Y001431D02*
X016793Y001431D01*
X016793Y001727D02*
X017129Y001727D01*
X017037Y001825D02*
X016785Y001825D01*
X016686Y001924D02*
X016986Y001924D01*
X016277Y002515D02*
X016239Y002515D01*
X016239Y002613D02*
X016277Y002613D01*
X016277Y002712D02*
X016239Y002712D01*
X016239Y002810D02*
X016277Y002810D01*
X016007Y002810D02*
X015767Y002810D01*
X015767Y002712D02*
X015894Y002712D01*
X015831Y002613D02*
X015767Y002613D01*
X015767Y002515D02*
X015794Y002515D01*
X015887Y003697D02*
X019691Y003697D01*
X019691Y003795D02*
X015986Y003795D01*
X016084Y003894D02*
X019692Y003894D01*
X019693Y003992D02*
X016183Y003992D01*
X016281Y004091D02*
X019693Y004091D01*
X019694Y004189D02*
X016380Y004189D01*
X016450Y004288D02*
X017179Y004288D01*
X017194Y004273D02*
X017382Y004195D01*
X018184Y004195D01*
X018372Y004273D01*
X018515Y004416D01*
X018593Y004604D01*
X018593Y004806D01*
X018515Y004994D01*
X018372Y005137D01*
X018184Y005215D01*
X017382Y005215D01*
X017194Y005137D01*
X017051Y004994D01*
X016973Y004806D01*
X016973Y004604D01*
X017051Y004416D01*
X017194Y004273D01*
X017081Y004386D02*
X016467Y004386D01*
X016760Y004485D02*
X017022Y004485D01*
X016982Y004583D02*
X016793Y004583D01*
X016793Y004682D02*
X016973Y004682D01*
X016973Y004780D02*
X016793Y004780D01*
X016793Y004879D02*
X017003Y004879D01*
X017044Y004977D02*
X016793Y004977D01*
X016793Y005076D02*
X017132Y005076D01*
X017283Y005174D02*
X016793Y005174D01*
X016793Y005273D02*
X017358Y005273D01*
X017378Y005266D02*
X017448Y005255D01*
X017733Y005255D01*
X017733Y005655D01*
X017833Y005655D01*
X017833Y005755D01*
X017733Y005755D01*
X017733Y006155D01*
X017448Y006155D01*
X017378Y006144D01*
X017310Y006122D01*
X017247Y006090D01*
X017190Y006048D01*
X017140Y005998D01*
X017098Y005941D01*
X017066Y005878D01*
X017044Y005810D01*
X017035Y005755D01*
X017733Y005755D01*
X017733Y005655D01*
X017035Y005655D01*
X017044Y005600D01*
X017066Y005532D01*
X017098Y005469D01*
X017140Y005412D01*
X017190Y005362D01*
X017247Y005320D01*
X017310Y005288D01*
X017378Y005266D01*
X017181Y005371D02*
X016764Y005371D01*
X016568Y005568D02*
X017054Y005568D01*
X017098Y005470D02*
X016378Y005470D01*
X016138Y005470D02*
X016041Y005470D01*
X015948Y005568D02*
X015943Y005568D01*
X015862Y005667D02*
X015844Y005667D01*
X015812Y005765D02*
X015767Y005765D01*
X015767Y005864D02*
X015788Y005864D01*
X015783Y005962D02*
X015767Y005962D01*
X015767Y006061D02*
X015801Y006061D01*
X015767Y006159D02*
X015842Y006159D01*
X015914Y006258D02*
X015767Y006258D01*
X015767Y006356D02*
X016048Y006356D01*
X016239Y006356D02*
X016277Y006356D01*
X016277Y006258D02*
X016239Y006258D01*
X016239Y006159D02*
X016277Y006159D01*
X016277Y006061D02*
X016239Y006061D01*
X016239Y005962D02*
X016277Y005962D01*
X016468Y006356D02*
X017111Y006356D01*
X017051Y006416D02*
X017194Y006273D01*
X017382Y006195D01*
X018184Y006195D01*
X018372Y006273D01*
X018515Y006416D01*
X018593Y006604D01*
X018593Y006806D01*
X018515Y006994D01*
X018372Y007137D01*
X018184Y007215D01*
X017382Y007215D01*
X017194Y007137D01*
X017051Y006994D01*
X016973Y006806D01*
X016973Y006604D01*
X017051Y006416D01*
X017035Y006455D02*
X015767Y006455D01*
X015767Y006553D02*
X016994Y006553D01*
X016973Y006652D02*
X015767Y006652D01*
X015767Y006750D02*
X016973Y006750D01*
X016990Y006849D02*
X015767Y006849D01*
X015767Y006947D02*
X017031Y006947D01*
X017102Y007046D02*
X015767Y007046D01*
X015767Y007144D02*
X017210Y007144D01*
X016356Y007735D02*
X019718Y007735D01*
X019717Y007637D02*
X016257Y007637D01*
X016159Y007538D02*
X019717Y007538D01*
X019716Y007440D02*
X016060Y007440D01*
X015962Y007341D02*
X019715Y007341D01*
X019715Y007243D02*
X015863Y007243D01*
X016440Y007834D02*
X019719Y007834D01*
X019719Y007932D02*
X016467Y007932D01*
X016756Y008031D02*
X017311Y008031D01*
X017213Y008129D02*
X016793Y008129D01*
X016793Y008720D02*
X017166Y008720D01*
X017250Y008819D02*
X016793Y008819D01*
X016768Y008917D02*
X017391Y008917D01*
X017435Y009038D02*
X017503Y009016D01*
X017573Y009005D01*
X017858Y009005D01*
X017858Y009405D01*
X017958Y009405D01*
X017958Y009505D01*
X017858Y009505D01*
X017858Y009905D01*
X017573Y009905D01*
X017503Y009894D01*
X017435Y009872D01*
X017372Y009840D01*
X017315Y009798D01*
X017265Y009748D01*
X017223Y009691D01*
X017191Y009628D01*
X017169Y009560D01*
X017160Y009505D01*
X017858Y009505D01*
X017858Y009405D01*
X017160Y009405D01*
X017169Y009350D01*
X017191Y009282D01*
X017223Y009219D01*
X017265Y009162D01*
X017315Y009112D01*
X017372Y009070D01*
X017435Y009038D01*
X017506Y009016D02*
X016362Y009016D01*
X016562Y009114D02*
X017313Y009114D01*
X017228Y009213D02*
X016651Y009213D01*
X016703Y009311D02*
X017182Y009311D01*
X017161Y009508D02*
X016733Y009508D01*
X016728Y009410D02*
X017858Y009410D01*
X017858Y009508D02*
X017958Y009508D01*
X017958Y009505D02*
X017958Y009905D01*
X018243Y009905D01*
X018313Y009894D01*
X018381Y009872D01*
X018444Y009840D01*
X018501Y009798D01*
X018551Y009748D01*
X018593Y009691D01*
X018625Y009628D01*
X018647Y009560D01*
X018656Y009505D01*
X017958Y009505D01*
X017958Y009410D02*
X019730Y009410D01*
X019730Y009508D02*
X018655Y009508D01*
X018632Y009607D02*
X019731Y009607D01*
X019732Y009705D02*
X018583Y009705D01*
X018494Y009804D02*
X019732Y009804D01*
X019733Y009902D02*
X018262Y009902D01*
X018309Y009945D02*
X018497Y010023D01*
X018640Y010166D01*
X018718Y010354D01*
X018718Y010556D01*
X018640Y010744D01*
X018497Y010887D01*
X019740Y010887D01*
X019739Y010789D02*
X018596Y010789D01*
X018663Y010690D02*
X019738Y010690D01*
X019738Y010592D02*
X018703Y010592D01*
X018718Y010493D02*
X019737Y010493D01*
X019736Y010395D02*
X018718Y010395D01*
X018694Y010296D02*
X019736Y010296D01*
X019735Y010198D02*
X018653Y010198D01*
X018573Y010099D02*
X019734Y010099D01*
X019734Y010001D02*
X018444Y010001D01*
X018309Y009945D02*
X017507Y009945D01*
X017319Y010023D01*
X017176Y010166D01*
X017098Y010354D01*
X017098Y010556D01*
X017176Y010744D01*
X017319Y010887D01*
X015798Y010887D01*
X015767Y010789D02*
X017220Y010789D01*
X017153Y010690D02*
X015767Y010690D01*
X015767Y010592D02*
X017113Y010592D01*
X017098Y010493D02*
X015767Y010493D01*
X015767Y010395D02*
X017098Y010395D01*
X017122Y010296D02*
X015767Y010296D01*
X015767Y010198D02*
X017163Y010198D01*
X017243Y010099D02*
X015767Y010099D01*
X015767Y010001D02*
X017372Y010001D01*
X017322Y009804D02*
X016606Y009804D01*
X016676Y009705D02*
X017233Y009705D01*
X017184Y009607D02*
X016716Y009607D01*
X016476Y009902D02*
X017554Y009902D01*
X017858Y009902D02*
X017958Y009902D01*
X017958Y009804D02*
X017858Y009804D01*
X017858Y009705D02*
X017958Y009705D01*
X017958Y009607D02*
X017858Y009607D01*
X017958Y009405D02*
X018656Y009405D01*
X018647Y009350D01*
X018625Y009282D01*
X018593Y009219D01*
X018551Y009162D01*
X018501Y009112D01*
X018444Y009070D01*
X018381Y009038D01*
X018313Y009016D01*
X018243Y009005D01*
X017958Y009005D01*
X017958Y009405D01*
X017958Y009311D02*
X017858Y009311D01*
X017858Y009213D02*
X017958Y009213D01*
X017958Y009114D02*
X017858Y009114D01*
X017858Y009016D02*
X017958Y009016D01*
X018310Y009016D02*
X019727Y009016D01*
X019728Y009114D02*
X018503Y009114D01*
X018588Y009213D02*
X019728Y009213D01*
X019729Y009311D02*
X018634Y009311D01*
X018425Y008917D02*
X019726Y008917D01*
X019725Y008819D02*
X018566Y008819D01*
X018650Y008720D02*
X019725Y008720D01*
X019724Y008622D02*
X018691Y008622D01*
X018718Y008523D02*
X019723Y008523D01*
X019723Y008425D02*
X018718Y008425D01*
X018707Y008326D02*
X019722Y008326D01*
X019721Y008228D02*
X018666Y008228D01*
X018603Y008129D02*
X019721Y008129D01*
X019720Y008031D02*
X018505Y008031D01*
X018356Y007144D02*
X019714Y007144D01*
X019713Y007046D02*
X018464Y007046D01*
X018535Y006947D02*
X019713Y006947D01*
X019712Y006849D02*
X018576Y006849D01*
X018593Y006750D02*
X019711Y006750D01*
X019711Y006652D02*
X018593Y006652D01*
X018572Y006553D02*
X019710Y006553D01*
X019709Y006455D02*
X018531Y006455D01*
X018455Y006356D02*
X019709Y006356D01*
X019708Y006258D02*
X018335Y006258D01*
X018256Y006122D02*
X018188Y006144D01*
X018118Y006155D01*
X017833Y006155D01*
X017833Y005755D01*
X018531Y005755D01*
X018522Y005810D01*
X018500Y005878D01*
X018468Y005941D01*
X018426Y005998D01*
X018376Y006048D01*
X018319Y006090D01*
X018256Y006122D01*
X018359Y006061D02*
X019707Y006061D01*
X019707Y006159D02*
X016674Y006159D01*
X016715Y006061D02*
X017207Y006061D01*
X017114Y005962D02*
X016733Y005962D01*
X016728Y005864D02*
X017061Y005864D01*
X017037Y005765D02*
X016704Y005765D01*
X016654Y005667D02*
X017733Y005667D01*
X017733Y005765D02*
X017833Y005765D01*
X017833Y005667D02*
X019704Y005667D01*
X019705Y005765D02*
X018529Y005765D01*
X018505Y005864D02*
X019705Y005864D01*
X019706Y005962D02*
X018452Y005962D01*
X018531Y005655D02*
X017833Y005655D01*
X017833Y005255D01*
X018118Y005255D01*
X018188Y005266D01*
X018256Y005288D01*
X018319Y005320D01*
X018376Y005362D01*
X018426Y005412D01*
X018468Y005469D01*
X018500Y005532D01*
X018522Y005600D01*
X018531Y005655D01*
X018512Y005568D02*
X019703Y005568D01*
X019703Y005470D02*
X018468Y005470D01*
X018385Y005371D02*
X019702Y005371D01*
X019701Y005273D02*
X018208Y005273D01*
X018283Y005174D02*
X019701Y005174D01*
X019700Y005076D02*
X018434Y005076D01*
X018522Y004977D02*
X019699Y004977D01*
X019699Y004879D02*
X018563Y004879D01*
X018593Y004780D02*
X019698Y004780D01*
X019697Y004682D02*
X018593Y004682D01*
X018584Y004583D02*
X019697Y004583D01*
X019696Y004485D02*
X018544Y004485D01*
X018485Y004386D02*
X019695Y004386D01*
X019695Y004288D02*
X018387Y004288D01*
X017833Y005273D02*
X017733Y005273D01*
X017733Y005371D02*
X017833Y005371D01*
X017833Y005470D02*
X017733Y005470D01*
X017733Y005568D02*
X017833Y005568D01*
X017833Y005864D02*
X017733Y005864D01*
X017733Y005962D02*
X017833Y005962D01*
X017833Y006061D02*
X017733Y006061D01*
X017231Y006258D02*
X016602Y006258D01*
X014849Y006553D02*
X013527Y006553D01*
X013527Y006455D02*
X013636Y006455D01*
X013578Y006356D02*
X013527Y006356D01*
X013527Y006258D02*
X013578Y006258D01*
X013578Y006159D02*
X013527Y006159D01*
X013527Y006061D02*
X013578Y006061D01*
X013579Y005962D02*
X013527Y005962D01*
X013527Y005864D02*
X013578Y005864D01*
X013578Y005765D02*
X013527Y005765D01*
X013527Y005667D02*
X013578Y005667D01*
X013578Y005568D02*
X013527Y005568D01*
X013527Y005470D02*
X013578Y005470D01*
X013578Y005371D02*
X013527Y005371D01*
X013527Y005273D02*
X013578Y005273D01*
X013578Y005174D02*
X013527Y005174D01*
X013527Y005076D02*
X013578Y005076D01*
X013578Y004977D02*
X013527Y004977D01*
X013029Y004977D02*
X012757Y004977D01*
X012757Y004879D02*
X013029Y004879D01*
X013029Y004780D02*
X012757Y004780D01*
X012757Y004682D02*
X013029Y004682D01*
X013029Y004583D02*
X012757Y004583D01*
X012757Y004485D02*
X013029Y004485D01*
X013029Y004386D02*
X012757Y004386D01*
X012757Y004288D02*
X013029Y004288D01*
X013029Y004189D02*
X012757Y004189D01*
X012757Y004091D02*
X013029Y004091D01*
X013029Y003992D02*
X012757Y003992D01*
X012757Y003894D02*
X013029Y003894D01*
X013029Y003795D02*
X012757Y003795D01*
X012757Y003697D02*
X013029Y003697D01*
X013029Y003598D02*
X012757Y003598D01*
X012757Y003500D02*
X013029Y003500D01*
X013029Y003401D02*
X012757Y003401D01*
X012757Y003303D02*
X013041Y003303D01*
X013082Y003204D02*
X012757Y003204D01*
X012757Y003106D02*
X013151Y003106D01*
X013261Y003007D02*
X012757Y003007D01*
X012757Y002909D02*
X013590Y002909D01*
X013578Y002810D02*
X012726Y002810D01*
X012685Y002712D02*
X013578Y002712D01*
X013578Y002613D02*
X012620Y002613D01*
X012522Y002515D02*
X013578Y002515D01*
X013597Y002416D02*
X012337Y002416D01*
X012252Y002381D02*
X012252Y002381D01*
X012207Y002909D02*
X010926Y002909D01*
X011225Y003007D02*
X012258Y003007D01*
X012259Y003106D02*
X011346Y003106D01*
X011427Y003204D02*
X012259Y003204D01*
X012259Y003303D02*
X011468Y003303D01*
X011497Y003401D02*
X012259Y003401D01*
X012259Y003500D02*
X011497Y003500D01*
X011497Y003598D02*
X012259Y003598D01*
X012259Y003697D02*
X011497Y003697D01*
X011497Y003795D02*
X012259Y003795D01*
X012259Y003894D02*
X011497Y003894D01*
X011497Y003992D02*
X012259Y003992D01*
X012259Y004091D02*
X011497Y004091D01*
X011497Y004189D02*
X012259Y004189D01*
X012259Y004288D02*
X011497Y004288D01*
X011497Y004386D02*
X012259Y004386D01*
X012259Y004485D02*
X011497Y004485D01*
X011497Y004583D02*
X012259Y004583D01*
X012259Y004682D02*
X011497Y004682D01*
X011497Y004780D02*
X012259Y004780D01*
X012259Y004879D02*
X011497Y004879D01*
X011497Y004977D02*
X012259Y004977D01*
X012259Y005076D02*
X011497Y005076D01*
X011497Y005174D02*
X012259Y005174D01*
X012259Y005273D02*
X011497Y005273D01*
X011497Y005371D02*
X012259Y005371D01*
X012259Y005470D02*
X011497Y005470D01*
X011497Y005568D02*
X012259Y005568D01*
X012259Y005667D02*
X011497Y005667D01*
X011497Y005765D02*
X012259Y005765D01*
X012259Y005864D02*
X011497Y005864D01*
X011497Y005962D02*
X012259Y005962D01*
X012259Y006061D02*
X011497Y006061D01*
X011497Y006159D02*
X012259Y006159D01*
X012259Y006258D02*
X011497Y006258D01*
X011497Y006356D02*
X012259Y006356D01*
X012259Y006455D02*
X011497Y006455D01*
X011497Y006553D02*
X012259Y006553D01*
X012259Y006652D02*
X011497Y006652D01*
X011497Y006750D02*
X012259Y006750D01*
X012259Y006849D02*
X011497Y006849D01*
X011497Y006947D02*
X012259Y006947D01*
X012259Y007046D02*
X011497Y007046D01*
X011497Y007144D02*
X012259Y007144D01*
X012259Y007243D02*
X011497Y007243D01*
X011497Y007341D02*
X012259Y007341D01*
X012259Y007440D02*
X011497Y007440D01*
X011497Y007538D02*
X012259Y007538D01*
X012259Y007637D02*
X011497Y007637D01*
X011497Y007735D02*
X012259Y007735D01*
X012259Y007834D02*
X011497Y007834D01*
X011497Y007932D02*
X012259Y007932D01*
X012259Y008031D02*
X011497Y008031D01*
X011497Y008129D02*
X012259Y008129D01*
X012259Y008228D02*
X011497Y008228D01*
X011497Y008326D02*
X012259Y008326D01*
X012259Y008425D02*
X011497Y008425D01*
X011497Y008523D02*
X012259Y008523D01*
X012259Y008622D02*
X011497Y008622D01*
X011497Y008720D02*
X012259Y008720D01*
X012259Y008819D02*
X011497Y008819D01*
X011497Y008917D02*
X012259Y008917D01*
X012259Y009016D02*
X011497Y009016D01*
X011497Y009114D02*
X012259Y009114D01*
X012259Y009213D02*
X011497Y009213D01*
X011497Y009311D02*
X012259Y009311D01*
X012259Y009410D02*
X011497Y009410D01*
X011497Y009508D02*
X012259Y009508D01*
X012259Y009607D02*
X011497Y009607D01*
X011497Y009705D02*
X012259Y009705D01*
X012259Y009804D02*
X011497Y009804D01*
X011497Y009902D02*
X012259Y009902D01*
X012259Y010001D02*
X011497Y010001D01*
X011497Y010099D02*
X012036Y010099D01*
X011984Y010198D02*
X011497Y010198D01*
X011497Y010296D02*
X011880Y010296D01*
X011707Y010395D02*
X011497Y010395D01*
X011497Y010493D02*
X011619Y010493D01*
X011578Y010592D02*
X011497Y010592D01*
X011497Y010690D02*
X011558Y010690D01*
X011558Y010789D02*
X011497Y010789D01*
X011497Y010887D02*
X011586Y010887D01*
X011627Y010986D02*
X011497Y010986D01*
X011497Y011084D02*
X011726Y011084D01*
X011497Y011183D02*
X012872Y011183D01*
X012872Y011084D02*
X012290Y011084D01*
X012389Y010986D02*
X012872Y010986D01*
X012872Y010887D02*
X012430Y010887D01*
X012458Y010789D02*
X012900Y010789D01*
X012932Y010690D02*
X012458Y010690D01*
X012477Y010592D02*
X012833Y010592D01*
X013229Y010789D02*
X013287Y010789D01*
X013287Y010887D02*
X013229Y010887D01*
X013229Y010986D02*
X013287Y010986D01*
X013287Y011084D02*
X013229Y011084D01*
X013229Y011183D02*
X013287Y011183D01*
X013287Y011281D02*
X013229Y011281D01*
X013468Y011380D02*
X011497Y011380D01*
X011497Y011478D02*
X013468Y011478D01*
X013484Y011577D02*
X011497Y011577D01*
X011546Y011675D02*
X013525Y011675D01*
X013588Y011774D02*
X011644Y011774D01*
X011743Y011872D02*
X013686Y011872D01*
X013639Y012266D02*
X015723Y012266D01*
X015723Y012168D02*
X012038Y012168D01*
X011940Y012069D02*
X015723Y012069D01*
X015723Y011971D02*
X011841Y011971D01*
X011431Y012266D02*
X011217Y012266D01*
X011217Y012168D02*
X011333Y012168D01*
X011234Y012069D02*
X011217Y012069D01*
X011217Y012365D02*
X011530Y012365D01*
X011590Y012463D02*
X011217Y012463D01*
X011217Y012562D02*
X011558Y012562D01*
X011558Y012660D02*
X011217Y012660D01*
X011217Y012759D02*
X011574Y012759D01*
X011615Y012857D02*
X011217Y012857D01*
X011217Y012956D02*
X011697Y012956D01*
X011856Y013054D02*
X011217Y013054D01*
X011217Y013153D02*
X012872Y013153D01*
X012872Y013107D02*
X012882Y013069D01*
X012902Y013035D01*
X012930Y013007D01*
X012964Y012987D01*
X013002Y012977D01*
X013229Y012977D01*
X013229Y013256D01*
X012872Y013256D01*
X012872Y013107D01*
X012891Y013054D02*
X012160Y013054D01*
X012319Y012956D02*
X015839Y012956D01*
X015799Y013054D02*
X013625Y013054D01*
X013634Y013069D02*
X013644Y013107D01*
X013644Y013256D01*
X013287Y013256D01*
X013287Y013313D01*
X013644Y013313D01*
X013644Y013462D01*
X013634Y013500D01*
X013614Y013534D01*
X013586Y013562D01*
X013552Y013582D01*
X013514Y013592D01*
X013287Y013592D01*
X013287Y013313D01*
X013229Y013313D01*
X013229Y013256D01*
X013287Y013256D01*
X013287Y012977D01*
X013514Y012977D01*
X013552Y012987D01*
X013586Y013007D01*
X013614Y013035D01*
X013634Y013069D01*
X013644Y013153D02*
X015783Y013153D01*
X015788Y013251D02*
X013644Y013251D01*
X013644Y013350D02*
X015814Y013350D01*
X015866Y013448D02*
X013644Y013448D01*
X013602Y013547D02*
X014155Y013547D01*
X014049Y013645D02*
X010946Y013645D01*
X011044Y013547D02*
X012914Y013547D01*
X012902Y013534D02*
X012882Y013500D01*
X012872Y013462D01*
X012872Y013313D01*
X013229Y013313D01*
X013229Y013592D01*
X013002Y013592D01*
X012964Y013582D01*
X012930Y013562D01*
X012902Y013534D01*
X012872Y013448D02*
X011143Y013448D01*
X011205Y013350D02*
X012872Y013350D01*
X012872Y013251D02*
X011217Y013251D01*
X010847Y013744D02*
X014009Y013744D01*
X014000Y013842D02*
X010749Y013842D01*
X010737Y013941D02*
X011279Y013941D01*
X011135Y014039D02*
X010881Y014039D01*
X010971Y014138D02*
X011045Y014138D01*
X011737Y013941D02*
X013279Y013941D01*
X013135Y014039D02*
X012787Y014039D01*
X012889Y014138D02*
X013045Y014138D01*
X013004Y014236D02*
X012948Y014236D01*
X012558Y014236D02*
X012458Y014236D01*
X012458Y014138D02*
X012558Y014138D01*
X012558Y014039D02*
X012458Y014039D01*
X012229Y014039D02*
X011881Y014039D01*
X011971Y014138D02*
X012127Y014138D01*
X012068Y014236D02*
X012012Y014236D01*
X012458Y014335D02*
X012558Y014335D01*
X013229Y013547D02*
X013287Y013547D01*
X013287Y013448D02*
X013229Y013448D01*
X013229Y013350D02*
X013287Y013350D01*
X013287Y013251D02*
X013229Y013251D01*
X013229Y013153D02*
X013287Y013153D01*
X013287Y013054D02*
X013229Y013054D01*
X013667Y012857D02*
X015909Y012857D01*
X016039Y012759D02*
X013704Y012759D01*
X013704Y012660D02*
X015791Y012660D01*
X015723Y012562D02*
X013704Y012562D01*
X013704Y012463D02*
X015723Y012463D01*
X015723Y012365D02*
X013704Y012365D01*
X014330Y011872D02*
X015723Y011872D01*
X015723Y011774D02*
X014428Y011774D01*
X014491Y011675D02*
X015816Y011675D01*
X015782Y011577D02*
X014532Y011577D01*
X014548Y011478D02*
X015683Y011478D01*
X015585Y011380D02*
X014548Y011380D01*
X014531Y011281D02*
X015486Y011281D01*
X015388Y011183D02*
X014490Y011183D01*
X014426Y011084D02*
X015299Y011084D01*
X015269Y010986D02*
X014515Y010986D01*
X014614Y010887D02*
X015269Y010887D01*
X015269Y010789D02*
X014712Y010789D01*
X014811Y010690D02*
X015269Y010690D01*
X015269Y010592D02*
X014909Y010592D01*
X015008Y010493D02*
X015269Y010493D01*
X015269Y010395D02*
X015106Y010395D01*
X015205Y010296D02*
X015269Y010296D01*
X014795Y010001D02*
X013624Y010001D01*
X013704Y010099D02*
X014696Y010099D01*
X014598Y010198D02*
X013704Y010198D01*
X013704Y010296D02*
X014499Y010296D01*
X014401Y010395D02*
X013704Y010395D01*
X013704Y010493D02*
X014302Y010493D01*
X014204Y010592D02*
X013683Y010592D01*
X013584Y010690D02*
X014105Y010690D01*
X014007Y010789D02*
X013616Y010789D01*
X013644Y010887D02*
X013908Y010887D01*
X013689Y010986D02*
X013644Y010986D01*
X012900Y011281D02*
X011497Y011281D01*
X012280Y012266D02*
X012877Y012266D01*
X012812Y012365D02*
X012379Y012365D01*
X014501Y013547D02*
X015954Y013547D01*
X016158Y013645D02*
X014607Y013645D01*
X014647Y013744D02*
X017185Y013744D01*
X017165Y013723D02*
X017123Y013666D01*
X017091Y013603D01*
X017069Y013535D01*
X017060Y013480D01*
X017758Y013480D01*
X017758Y013880D01*
X017473Y013880D01*
X017403Y013869D01*
X017335Y013847D01*
X017272Y013815D01*
X017215Y013773D01*
X017165Y013723D01*
X017113Y013645D02*
X016358Y013645D01*
X016277Y013645D02*
X016239Y013645D01*
X016239Y013547D02*
X016277Y013547D01*
X016277Y013448D02*
X016239Y013448D01*
X016239Y013350D02*
X016277Y013350D01*
X016277Y013251D02*
X016239Y013251D01*
X016562Y013547D02*
X017073Y013547D01*
X017060Y013380D02*
X017069Y013325D01*
X017091Y013257D01*
X017123Y013194D01*
X017165Y013137D01*
X017215Y013087D01*
X017272Y013045D01*
X017335Y013013D01*
X017403Y012991D01*
X017473Y012980D01*
X017758Y012980D01*
X017758Y013380D01*
X017858Y013380D01*
X017858Y013480D01*
X017758Y013480D01*
X017758Y013380D01*
X017060Y013380D01*
X017065Y013350D02*
X016702Y013350D01*
X016728Y013251D02*
X017094Y013251D01*
X017153Y013153D02*
X016733Y013153D01*
X016717Y013054D02*
X017260Y013054D01*
X017214Y012857D02*
X016607Y012857D01*
X016677Y012956D02*
X019754Y012956D01*
X019754Y013054D02*
X018356Y013054D01*
X018344Y013045D02*
X018401Y013087D01*
X018451Y013137D01*
X018493Y013194D01*
X018525Y013257D01*
X018547Y013325D01*
X018556Y013380D01*
X017858Y013380D01*
X017858Y012980D01*
X018143Y012980D01*
X018213Y012991D01*
X018281Y013013D01*
X018344Y013045D01*
X018463Y013153D02*
X019755Y013153D01*
X019756Y013251D02*
X018522Y013251D01*
X018551Y013350D02*
X019756Y013350D01*
X019757Y013448D02*
X017858Y013448D01*
X017858Y013480D02*
X018556Y013480D01*
X018547Y013535D01*
X018525Y013603D01*
X018493Y013666D01*
X018451Y013723D01*
X018401Y013773D01*
X018344Y013815D01*
X018281Y013847D01*
X018213Y013869D01*
X018143Y013880D01*
X017858Y013880D01*
X017858Y013480D01*
X017858Y013547D02*
X017758Y013547D01*
X017758Y013645D02*
X017858Y013645D01*
X017858Y013744D02*
X017758Y013744D01*
X017758Y013842D02*
X017858Y013842D01*
X017758Y013448D02*
X016650Y013448D01*
X017325Y013842D02*
X014656Y013842D01*
X014637Y013941D02*
X017357Y013941D01*
X017178Y014039D02*
X014583Y014039D01*
X014577Y014138D02*
X017079Y014138D01*
X017085Y014729D02*
X013969Y014729D01*
X014010Y014630D02*
X014345Y014630D01*
X014247Y014532D02*
X014048Y014532D01*
X014048Y014433D02*
X014148Y014433D01*
X014089Y014335D02*
X014048Y014335D01*
X014079Y014236D02*
X014012Y014236D01*
X013971Y014138D02*
X014079Y014138D01*
X014073Y014039D02*
X013881Y014039D01*
X014019Y013941D02*
X013737Y013941D01*
X013875Y014827D02*
X017184Y014827D01*
X018259Y013941D02*
X018549Y013941D01*
X018508Y014039D02*
X018438Y014039D01*
X018291Y013842D02*
X018632Y013842D01*
X018730Y013744D02*
X018431Y013744D01*
X018503Y013645D02*
X018881Y013645D01*
X018543Y013547D02*
X019758Y013547D01*
X019758Y013645D02*
X019635Y013645D01*
X019753Y012857D02*
X018402Y012857D01*
X018501Y012759D02*
X019752Y012759D01*
X019752Y012660D02*
X018565Y012660D01*
X018606Y012562D02*
X019751Y012562D01*
X019750Y012463D02*
X018618Y012463D01*
X018618Y012365D02*
X019750Y012365D01*
X019749Y012266D02*
X018592Y012266D01*
X018551Y012168D02*
X019748Y012168D01*
X019748Y012069D02*
X018468Y012069D01*
X018331Y011971D02*
X019747Y011971D01*
X019746Y011872D02*
X016793Y011872D01*
X016793Y011774D02*
X019746Y011774D01*
X019745Y011675D02*
X016700Y011675D01*
X016453Y011577D02*
X019744Y011577D01*
X019744Y011478D02*
X016389Y011478D01*
X016290Y011380D02*
X019743Y011380D01*
X019742Y011281D02*
X016192Y011281D01*
X016093Y011183D02*
X019742Y011183D01*
X019741Y011084D02*
X015995Y011084D01*
X015896Y010986D02*
X019740Y010986D01*
X018497Y010887D02*
X018309Y010965D01*
X017507Y010965D01*
X017319Y010887D01*
X016277Y009902D02*
X016239Y009902D01*
X016239Y009804D02*
X016277Y009804D01*
X016277Y009705D02*
X016239Y009705D01*
X016239Y009607D02*
X016277Y009607D01*
X016277Y009508D02*
X016239Y009508D01*
X015910Y009804D02*
X015767Y009804D01*
X015767Y009902D02*
X016040Y009902D01*
X015840Y009705D02*
X015767Y009705D01*
X015767Y009607D02*
X015800Y009607D01*
X015783Y009508D02*
X015767Y009508D01*
X015767Y009410D02*
X015788Y009410D01*
X015770Y009311D02*
X015813Y009311D01*
X014849Y009311D02*
X014543Y009311D01*
X014548Y009410D02*
X014849Y009410D01*
X014849Y009508D02*
X014548Y009508D01*
X014519Y009607D02*
X014849Y009607D01*
X014849Y009705D02*
X014479Y009705D01*
X014398Y009804D02*
X014849Y009804D01*
X014849Y009902D02*
X014279Y009902D01*
X013737Y009902D02*
X012757Y009902D01*
X012757Y009804D02*
X013618Y009804D01*
X013537Y009705D02*
X012757Y009705D01*
X012757Y009607D02*
X013497Y009607D01*
X013468Y009508D02*
X012757Y009508D01*
X012757Y009410D02*
X013468Y009410D01*
X013473Y009311D02*
X012757Y009311D01*
X012757Y009213D02*
X013514Y009213D01*
X013560Y009114D02*
X012757Y009114D01*
X012757Y009016D02*
X013571Y009016D01*
X013472Y008917D02*
X012757Y008917D01*
X012757Y008819D02*
X013374Y008819D01*
X013275Y008720D02*
X012757Y008720D01*
X012757Y008622D02*
X013177Y008622D01*
X013078Y008523D02*
X012757Y008523D01*
X012757Y008425D02*
X013031Y008425D01*
X013029Y008326D02*
X012757Y008326D01*
X012757Y008228D02*
X013029Y008228D01*
X013029Y008129D02*
X012757Y008129D01*
X012757Y008031D02*
X013029Y008031D01*
X013029Y007932D02*
X012757Y007932D01*
X012757Y007834D02*
X013029Y007834D01*
X013029Y007735D02*
X012757Y007735D01*
X012757Y007637D02*
X013029Y007637D01*
X013029Y007538D02*
X012757Y007538D01*
X012757Y007440D02*
X013029Y007440D01*
X013029Y007341D02*
X012757Y007341D01*
X012757Y007243D02*
X013029Y007243D01*
X013029Y007144D02*
X012757Y007144D01*
X012757Y007046D02*
X013029Y007046D01*
X013029Y006947D02*
X012757Y006947D01*
X012757Y006849D02*
X013029Y006849D01*
X013029Y006750D02*
X012757Y006750D01*
X012757Y006652D02*
X013029Y006652D01*
X013029Y006553D02*
X012757Y006553D01*
X012757Y006455D02*
X013029Y006455D01*
X013029Y006356D02*
X012757Y006356D01*
X012757Y006258D02*
X013029Y006258D01*
X013029Y006159D02*
X012757Y006159D01*
X012757Y006061D02*
X013029Y006061D01*
X013029Y005962D02*
X012757Y005962D01*
X012757Y005864D02*
X013029Y005864D01*
X013029Y005765D02*
X012757Y005765D01*
X012757Y005667D02*
X013029Y005667D01*
X013029Y005568D02*
X012757Y005568D01*
X012757Y005470D02*
X013029Y005470D01*
X013029Y005371D02*
X012757Y005371D01*
X012757Y005273D02*
X013029Y005273D01*
X013029Y005174D02*
X012757Y005174D01*
X012757Y005076D02*
X013029Y005076D01*
X014740Y006455D02*
X014744Y006455D01*
X014849Y006652D02*
X013527Y006652D01*
X013527Y006750D02*
X014849Y006750D01*
X014849Y006849D02*
X013527Y006849D01*
X013527Y006947D02*
X014849Y006947D01*
X014849Y007046D02*
X013527Y007046D01*
X013527Y007144D02*
X014849Y007144D01*
X014849Y007243D02*
X013527Y007243D01*
X013527Y007341D02*
X014849Y007341D01*
X014849Y007440D02*
X013527Y007440D01*
X013527Y007538D02*
X014849Y007538D01*
X014849Y007637D02*
X013527Y007637D01*
X013527Y007735D02*
X014849Y007735D01*
X014849Y007834D02*
X013527Y007834D01*
X013527Y007932D02*
X014849Y007932D01*
X014849Y008031D02*
X013527Y008031D01*
X013527Y008129D02*
X014849Y008129D01*
X014849Y008228D02*
X013527Y008228D01*
X013587Y008326D02*
X014849Y008326D01*
X014849Y008425D02*
X013685Y008425D01*
X013784Y008523D02*
X014849Y008523D01*
X014849Y008622D02*
X013882Y008622D01*
X013981Y008720D02*
X014849Y008720D01*
X014849Y008819D02*
X014079Y008819D01*
X014181Y008917D02*
X014849Y008917D01*
X014849Y009016D02*
X014357Y009016D01*
X014456Y009114D02*
X014849Y009114D01*
X014849Y009213D02*
X014502Y009213D01*
X012892Y010001D02*
X012757Y010001D01*
X016793Y011971D02*
X017285Y011971D01*
X017148Y012069D02*
X016793Y012069D01*
X016793Y012168D02*
X017065Y012168D01*
X017115Y012759D02*
X016477Y012759D01*
X017758Y013054D02*
X017858Y013054D01*
X017858Y013153D02*
X017758Y013153D01*
X017758Y013251D02*
X017858Y013251D01*
X017858Y013350D02*
X017758Y013350D01*
X009225Y013350D02*
X008670Y013350D01*
X007396Y012660D02*
X007087Y012660D01*
X007087Y012562D02*
X007393Y012562D01*
X007393Y012463D02*
X007087Y012463D01*
X007087Y012365D02*
X007393Y012365D01*
X006589Y012266D02*
X005225Y012266D01*
X005176Y012168D02*
X006589Y012168D01*
X006589Y012069D02*
X005089Y012069D01*
X005029Y011872D02*
X006589Y011872D01*
X006589Y011774D02*
X005163Y011774D01*
X005244Y011675D02*
X006570Y011675D01*
X006589Y011971D02*
X004870Y011971D01*
X004550Y011971D02*
X004450Y011971D01*
X004450Y012069D02*
X004550Y012069D01*
X004550Y012168D02*
X004450Y012168D01*
X004450Y012266D02*
X004550Y012266D01*
X004550Y012562D02*
X004450Y012562D01*
X004450Y012660D02*
X004550Y012660D01*
X004550Y012759D02*
X004450Y012759D01*
X004450Y012857D02*
X004550Y012857D01*
X003775Y012266D02*
X002538Y012266D01*
X002538Y012168D02*
X003824Y012168D01*
X003911Y012069D02*
X002538Y012069D01*
X002538Y011971D02*
X004130Y011971D01*
X003971Y011872D02*
X002537Y011872D01*
X002537Y011774D02*
X003837Y011774D01*
X003756Y011675D02*
X002537Y011675D01*
X002537Y011577D02*
X003715Y011577D01*
X003690Y011478D02*
X002537Y011478D01*
X002537Y011380D02*
X003690Y011380D01*
X003703Y011281D02*
X002536Y011281D01*
X002536Y011183D02*
X003744Y011183D01*
X003810Y011084D02*
X002536Y011084D01*
X002536Y010986D02*
X003908Y010986D01*
X003922Y010592D02*
X002535Y010592D01*
X002535Y010690D02*
X005609Y010690D01*
X005609Y010789D02*
X002536Y010789D01*
X002536Y010887D02*
X005609Y010887D01*
X005609Y010986D02*
X005092Y010986D01*
X005190Y011084D02*
X005609Y011084D01*
X005625Y010592D02*
X005094Y010592D01*
X005194Y010493D02*
X005692Y010493D01*
X005791Y010395D02*
X005262Y010395D01*
X005181Y009410D02*
X006125Y009410D01*
X006026Y009311D02*
X005231Y009311D01*
X005255Y009213D02*
X005928Y009213D01*
X004558Y009016D02*
X004458Y009016D01*
X004458Y008917D02*
X004558Y008917D01*
X004558Y008819D02*
X004458Y008819D01*
X004458Y008720D02*
X004558Y008720D01*
X004100Y008720D02*
X004007Y008720D01*
X003509Y008720D02*
X002532Y008720D01*
X002532Y008622D02*
X003509Y008622D01*
X003509Y008523D02*
X002532Y008523D01*
X002532Y008425D02*
X003509Y008425D01*
X003509Y008326D02*
X002531Y008326D01*
X002531Y008228D02*
X003509Y008228D01*
X003509Y008129D02*
X002531Y008129D01*
X002531Y008031D02*
X003509Y008031D01*
X003509Y007932D02*
X002531Y007932D01*
X002531Y007834D02*
X003509Y007834D01*
X003509Y007735D02*
X002530Y007735D01*
X002530Y007637D02*
X003509Y007637D01*
X003509Y007538D02*
X002530Y007538D01*
X002530Y007440D02*
X003509Y007440D01*
X003509Y007341D02*
X002530Y007341D01*
X002530Y007243D02*
X003509Y007243D01*
X003509Y007144D02*
X002529Y007144D01*
X002529Y007046D02*
X003509Y007046D01*
X003509Y006947D02*
X002529Y006947D01*
X002529Y006849D02*
X003509Y006849D01*
X003509Y006750D02*
X002529Y006750D01*
X002529Y006652D02*
X003509Y006652D01*
X003509Y006553D02*
X002528Y006553D01*
X002528Y006455D02*
X003509Y006455D01*
X003509Y006356D02*
X002528Y006356D01*
X002528Y006258D02*
X003509Y006258D01*
X003509Y006159D02*
X002528Y006159D01*
X002528Y006061D02*
X003509Y006061D01*
X003509Y005962D02*
X002527Y005962D01*
X002527Y005864D02*
X003509Y005864D01*
X003509Y005765D02*
X002527Y005765D01*
X002527Y005667D02*
X003509Y005667D01*
X003509Y005568D02*
X002527Y005568D01*
X002527Y005470D02*
X003509Y005470D01*
X003509Y005371D02*
X002526Y005371D01*
X002526Y005273D02*
X003509Y005273D01*
X003509Y005174D02*
X002526Y005174D01*
X002526Y005076D02*
X003509Y005076D01*
X003509Y004977D02*
X002526Y004977D01*
X002526Y004879D02*
X003509Y004879D01*
X004007Y005273D02*
X004621Y005273D01*
X004729Y005273D02*
X004787Y005273D01*
X004787Y005371D02*
X004729Y005371D01*
X004729Y005470D02*
X004787Y005470D01*
X004787Y005568D02*
X004729Y005568D01*
X004729Y005765D02*
X004787Y005765D01*
X004787Y005864D02*
X004729Y005864D01*
X004729Y005962D02*
X004787Y005962D01*
X004787Y006061D02*
X004729Y006061D01*
X004729Y006356D02*
X004787Y006356D01*
X004787Y006455D02*
X004729Y006455D01*
X004729Y006604D02*
X004372Y006604D01*
X004372Y006753D01*
X004382Y006791D01*
X004402Y006825D01*
X004430Y006853D01*
X004464Y006873D01*
X004502Y006883D01*
X004729Y006883D01*
X004729Y006604D01*
X004729Y006652D02*
X004787Y006652D01*
X004787Y006750D02*
X004729Y006750D01*
X004729Y006849D02*
X004787Y006849D01*
X004425Y006849D02*
X004007Y006849D01*
X004007Y006947D02*
X004405Y006947D01*
X004312Y007046D02*
X004007Y007046D01*
X004007Y007144D02*
X004312Y007144D01*
X004312Y007243D02*
X004007Y007243D01*
X004007Y007341D02*
X004312Y007341D01*
X004312Y007440D02*
X004007Y007440D01*
X004007Y007538D02*
X004321Y007538D01*
X004420Y007637D02*
X004007Y007637D01*
X004007Y006750D02*
X004372Y006750D01*
X004372Y006652D02*
X004007Y006652D01*
X004007Y005568D02*
X004342Y005568D01*
X004383Y005470D02*
X004007Y005470D01*
X004007Y005371D02*
X004459Y005371D01*
X005055Y005076D02*
X005271Y005076D01*
X005312Y004977D02*
X005154Y004977D01*
X005206Y004879D02*
X005329Y004879D01*
X005329Y004780D02*
X005247Y004780D01*
X005248Y004682D02*
X005317Y004682D01*
X007011Y003401D02*
X007468Y003401D01*
X007468Y003500D02*
X007323Y003500D01*
X007421Y003598D02*
X007493Y003598D01*
X007534Y003697D02*
X007429Y003697D01*
X007446Y003795D02*
X007609Y003795D01*
X007544Y003894D02*
X007716Y003894D01*
X007682Y003992D02*
X007623Y003992D01*
X008300Y003894D02*
X009718Y003894D01*
X009718Y003992D02*
X008334Y003992D01*
X008432Y004091D02*
X009718Y004091D01*
X009718Y004189D02*
X008493Y004189D01*
X008533Y004288D02*
X009718Y004288D01*
X009718Y004386D02*
X009382Y004386D01*
X009514Y004485D02*
X009718Y004485D01*
X009718Y004583D02*
X009600Y004583D01*
X009640Y004682D02*
X009718Y004682D01*
X009718Y004780D02*
X009673Y004780D01*
X009673Y004879D02*
X009718Y004879D01*
X009718Y004977D02*
X009672Y004977D01*
X009631Y005076D02*
X009718Y005076D01*
X009718Y005174D02*
X009590Y005174D01*
X009492Y005273D02*
X009718Y005273D01*
X009718Y005371D02*
X009345Y005371D01*
X009499Y005470D02*
X009707Y005470D01*
X008921Y005371D02*
X008548Y005371D01*
X008548Y005470D02*
X008767Y005470D01*
X008673Y005568D02*
X008535Y005568D01*
X008495Y005667D02*
X008632Y005667D01*
X008593Y005765D02*
X008437Y005765D01*
X008464Y005864D02*
X008593Y005864D01*
X008593Y005962D02*
X008563Y005962D01*
X008527Y005273D02*
X008774Y005273D01*
X008676Y005174D02*
X008486Y005174D01*
X008417Y005076D02*
X008635Y005076D01*
X008594Y004977D02*
X008319Y004977D01*
X008323Y004879D02*
X008593Y004879D01*
X008593Y004780D02*
X008422Y004780D01*
X008488Y004682D02*
X008626Y004682D01*
X008666Y004583D02*
X008529Y004583D01*
X008548Y004485D02*
X008752Y004485D01*
X008884Y004386D02*
X008548Y004386D01*
X008407Y003795D02*
X009718Y003795D01*
X009718Y003697D02*
X008482Y003697D01*
X008523Y003598D02*
X009718Y003598D01*
X009718Y003500D02*
X008548Y003500D01*
X008548Y003401D02*
X009722Y003401D01*
X009718Y003303D02*
X008540Y003303D01*
X008499Y003204D02*
X009718Y003204D01*
X009718Y003106D02*
X008447Y003106D01*
X008349Y003007D02*
X009718Y003007D01*
X009730Y002909D02*
X008264Y002909D01*
X008392Y002810D02*
X009718Y002810D01*
X009718Y002712D02*
X008476Y002712D01*
X008517Y002613D02*
X009718Y002613D01*
X009718Y002515D02*
X008548Y002515D01*
X008548Y002416D02*
X009765Y002416D01*
X009778Y002318D02*
X008546Y002318D01*
X008505Y002219D02*
X009778Y002219D01*
X009778Y002121D02*
X008462Y002121D01*
X008417Y002022D02*
X009780Y002022D01*
X009847Y001924D02*
X008417Y001924D01*
X007950Y001628D02*
X005407Y001628D01*
X005407Y001530D02*
X007993Y001530D01*
X008092Y001431D02*
X005403Y001431D01*
X005362Y001333D02*
X008288Y001333D01*
X007540Y002712D02*
X005907Y002712D01*
X006081Y002810D02*
X007624Y002810D01*
X007752Y002909D02*
X006176Y002909D01*
X006217Y003007D02*
X007667Y003007D01*
X007569Y003106D02*
X006248Y003106D01*
X006248Y003204D02*
X007517Y003204D01*
X007476Y003303D02*
X006808Y003303D01*
X004590Y002219D02*
X002521Y002219D01*
X002521Y002318D02*
X004428Y002318D01*
X004337Y002416D02*
X002521Y002416D01*
X002522Y002515D02*
X004296Y002515D01*
X004268Y002613D02*
X002522Y002613D01*
X002522Y002712D02*
X004268Y002712D01*
X004281Y002810D02*
X002522Y002810D01*
X002522Y002909D02*
X004322Y002909D01*
X004392Y003007D02*
X002522Y003007D01*
X003849Y000939D02*
X015777Y000939D01*
X016955Y000840D02*
X003808Y000840D01*
X003768Y000742D02*
X017025Y000742D01*
X017130Y000643D02*
X003685Y000643D01*
X010313Y001924D02*
X010343Y001924D01*
X010343Y002022D02*
X010313Y002022D01*
X010313Y002121D02*
X010343Y002121D01*
X010809Y001924D02*
X013617Y001924D01*
X013578Y002022D02*
X010876Y002022D01*
X010878Y002121D02*
X013578Y002121D01*
X013578Y002219D02*
X010878Y002219D01*
X010878Y002318D02*
X013578Y002318D01*
X018255Y001530D02*
X018468Y001530D01*
X018427Y001431D02*
X018378Y001431D01*
X018379Y001825D02*
X018770Y001825D01*
X019007Y001924D02*
X018430Y001924D01*
X018454Y002022D02*
X019679Y002022D01*
X019679Y001924D02*
X019359Y001924D01*
X019596Y001825D02*
X019678Y001825D01*
X008054Y011380D02*
X008001Y011380D01*
X003822Y010493D02*
X002535Y010493D01*
X002535Y010395D02*
X003754Y010395D01*
X003713Y010296D02*
X002535Y010296D01*
X002535Y010198D02*
X003698Y010198D01*
X003698Y010099D02*
X002534Y010099D01*
X002534Y010001D02*
X003721Y010001D01*
X003762Y009902D02*
X002534Y009902D01*
X002534Y009804D02*
X003789Y009804D01*
X003690Y009705D02*
X002534Y009705D01*
X002534Y009607D02*
X003592Y009607D01*
X003525Y009508D02*
X002533Y009508D01*
X002533Y009410D02*
X003509Y009410D01*
X003509Y009311D02*
X002533Y009311D01*
X002533Y009213D02*
X003509Y009213D01*
X003509Y009114D02*
X002533Y009114D01*
X002533Y009016D02*
X003509Y009016D01*
X003509Y008917D02*
X002532Y008917D01*
X002532Y008819D02*
X003509Y008819D01*
X003743Y013645D02*
X003204Y013645D01*
X003442Y013744D02*
X003807Y013744D01*
X003906Y013842D02*
X003559Y013842D01*
D23*
X003008Y014455D03*
X019258Y014380D03*
X003058Y001180D03*
X019183Y001105D03*
M02*
