G75*
%MOIN*%
%OFA0B0*%
%FSLAX24Y24*%
%IPPOS*%
%LPD*%
%AMOC8*
5,1,8,0,0,1.08239X$1,22.5*
%
%ADD10R,0.0591X0.0591*%
%ADD11C,0.0591*%
%ADD12R,0.0585X0.0585*%
%ADD13C,0.0585*%
%ADD14OC8,0.0660*%
%ADD15C,0.0750*%
%ADD16OC8,0.0750*%
%ADD17OC8,0.0480*%
%ADD18C,0.1185*%
%ADD19C,0.0560*%
%ADD20C,0.0600*%
%ADD21C,0.0840*%
%ADD22C,0.0079*%
%ADD23C,0.0160*%
%ADD24C,0.0236*%
D10*
X010003Y003607D03*
X010003Y022607D03*
D11*
X011003Y022607D03*
X012003Y022607D03*
X013003Y022607D03*
X014003Y022607D03*
X015003Y022607D03*
X016003Y022607D03*
X017003Y022607D03*
X018003Y022607D03*
X019003Y022607D03*
X020003Y022607D03*
X021003Y022607D03*
X022003Y022607D03*
X023003Y022607D03*
X024003Y022607D03*
X025003Y022607D03*
X026003Y022607D03*
X027003Y022607D03*
X028003Y022607D03*
X029003Y022607D03*
X030003Y022607D03*
X031003Y022607D03*
X032003Y022607D03*
X032003Y023607D03*
X031003Y023607D03*
X030003Y023607D03*
X029003Y023607D03*
X028003Y023607D03*
X027003Y023607D03*
X026003Y023607D03*
X025003Y023607D03*
X024003Y023607D03*
X023003Y023607D03*
X022003Y023607D03*
X021003Y023607D03*
X020003Y023607D03*
X019003Y023607D03*
X018003Y023607D03*
X017003Y023607D03*
X016003Y023607D03*
X015003Y023607D03*
X014003Y023607D03*
X013003Y023607D03*
X012003Y023607D03*
X011003Y023607D03*
X010003Y023607D03*
X010003Y004607D03*
X011003Y004607D03*
X012003Y004607D03*
X013003Y004607D03*
X014003Y004607D03*
X015003Y004607D03*
X016003Y004607D03*
X017003Y004607D03*
X018003Y004607D03*
X019003Y004607D03*
X020003Y004607D03*
X021003Y004607D03*
X022003Y004607D03*
X023003Y004607D03*
X024003Y004607D03*
X025003Y004607D03*
X026003Y004607D03*
X027003Y004607D03*
X028003Y004607D03*
X029003Y004607D03*
X030003Y004607D03*
X031003Y004607D03*
X032003Y004607D03*
X032003Y003607D03*
X031003Y003607D03*
X030003Y003607D03*
X029003Y003607D03*
X028003Y003607D03*
X027003Y003607D03*
X026003Y003607D03*
X025003Y003607D03*
X024003Y003607D03*
X023003Y003607D03*
X022003Y003607D03*
X021003Y003607D03*
X020003Y003607D03*
X019003Y003607D03*
X018003Y003607D03*
X017003Y003607D03*
X016003Y003607D03*
X015003Y003607D03*
X014003Y003607D03*
X013003Y003607D03*
X012003Y003607D03*
X011003Y003607D03*
D12*
X029003Y005857D03*
D13*
X029003Y006857D03*
X029003Y007857D03*
X029003Y008857D03*
X026003Y008857D03*
X026003Y007857D03*
X026003Y006857D03*
X026003Y005857D03*
D14*
X024003Y006357D03*
X023003Y006357D03*
X023003Y007357D03*
X024003Y007357D03*
X022003Y007357D03*
X021003Y007357D03*
X021003Y006357D03*
X022003Y006357D03*
X024003Y009557D03*
X025503Y011557D03*
X024003Y013157D03*
X022503Y011557D03*
X020503Y012357D03*
X019503Y012357D03*
X018003Y012057D03*
X016003Y012357D03*
X015003Y012357D03*
X013444Y012671D03*
X013503Y011657D03*
X015003Y009357D03*
X016003Y009357D03*
X013503Y008057D03*
X011703Y006857D03*
X015303Y006857D03*
X015003Y015357D03*
X016003Y015357D03*
X018003Y015657D03*
X019503Y015357D03*
X020503Y015357D03*
X022503Y015157D03*
X021803Y017357D03*
X018203Y017357D03*
X013444Y016271D03*
X018388Y021011D03*
X021988Y021011D03*
X025503Y015157D03*
D15*
X019503Y009357D03*
D16*
X017503Y009357D03*
D17*
X019003Y007357D03*
X019003Y006357D03*
D18*
X016595Y017777D02*
X015410Y017777D01*
X015410Y019357D02*
X016595Y019357D01*
X016595Y020937D02*
X015410Y020937D01*
X012595Y020937D02*
X011410Y020937D01*
X011410Y019357D02*
X012595Y019357D01*
X012595Y017777D02*
X011410Y017777D01*
D19*
X011086Y015168D03*
X012086Y014668D03*
X011086Y014168D03*
X012086Y013668D03*
X034294Y014692D03*
X035294Y015192D03*
X035294Y016192D03*
X034294Y016692D03*
X034294Y015692D03*
X035294Y017192D03*
X034294Y017692D03*
X035294Y014192D03*
D20*
X025908Y021015D03*
X024908Y021015D03*
X023908Y021015D03*
D21*
X034449Y020956D02*
X035289Y020956D01*
X035289Y019578D02*
X034449Y019578D01*
D22*
X034904Y020731D02*
X035810Y019826D01*
X035810Y017739D01*
X035298Y017227D01*
X035294Y017192D01*
X035259Y016794D02*
X035141Y016794D01*
X034274Y017660D01*
X034294Y017692D01*
X034294Y016692D02*
X034314Y016676D01*
X034314Y016282D01*
X031991Y013960D01*
X024944Y021007D01*
X024908Y021015D01*
X024471Y020534D02*
X029235Y015771D01*
X029235Y014668D01*
X024589Y010023D01*
X023841Y010023D01*
X023566Y009747D01*
X023566Y007818D01*
X023999Y007385D01*
X024003Y007357D01*
X023448Y006912D02*
X023003Y007357D01*
X023448Y006912D02*
X023448Y006282D01*
X023999Y005731D01*
X023999Y004629D01*
X024003Y004607D01*
X024432Y004471D02*
X024038Y004078D01*
X024038Y003645D01*
X024003Y003607D01*
X024432Y004471D02*
X024432Y005928D01*
X024003Y006357D01*
X024038Y008251D02*
X025967Y006322D01*
X025967Y005889D01*
X026003Y005857D01*
X026003Y006857D02*
X026007Y006873D01*
X026007Y007306D01*
X034274Y015574D01*
X034274Y015692D01*
X034294Y015692D01*
X034314Y016243D02*
X035259Y015298D01*
X035259Y015219D01*
X035294Y015192D01*
X035692Y015023D02*
X035692Y016361D01*
X035259Y016794D01*
X034314Y016282D02*
X034314Y016243D01*
X035692Y015023D02*
X035298Y014629D01*
X035298Y014196D01*
X035294Y014192D01*
X031991Y013960D02*
X026007Y007975D01*
X026007Y007857D01*
X026003Y007857D01*
X024038Y008251D02*
X024038Y009550D01*
X024003Y009557D01*
X022463Y009156D02*
X022463Y005062D01*
X022030Y004629D01*
X022003Y004607D01*
X021003Y004607D02*
X020967Y004629D01*
X020574Y005023D01*
X020574Y007582D01*
X028448Y015456D01*
X028999Y015692D02*
X022463Y009156D01*
X020967Y009393D02*
X019511Y009393D01*
X019503Y009357D01*
X019471Y009393D01*
X018999Y009865D01*
X014668Y009865D01*
X011086Y013448D01*
X011086Y014168D01*
X011086Y014629D01*
X010692Y015023D01*
X010692Y019629D01*
X011991Y020928D01*
X012003Y020937D01*
X012030Y022503D02*
X013605Y020928D01*
X013605Y017385D01*
X015023Y018487D02*
X012306Y015771D01*
X012306Y014865D01*
X012109Y014668D01*
X012086Y014668D01*
X012109Y013684D02*
X012086Y013668D01*
X012109Y013684D02*
X014235Y015810D01*
X015613Y015810D01*
X019432Y019629D01*
X019432Y023763D01*
X019156Y024038D01*
X018841Y024038D01*
X018448Y023645D01*
X018015Y023645D01*
X018003Y023607D01*
X018999Y023605D02*
X018999Y023172D01*
X018408Y022582D01*
X018408Y021676D01*
X017306Y020574D01*
X017306Y019078D01*
X016715Y018487D01*
X015023Y018487D01*
X016003Y019357D02*
X014708Y020652D01*
X014708Y021243D01*
X015416Y021952D01*
X015416Y023605D01*
X016007Y024196D01*
X019983Y024196D01*
X020534Y023645D01*
X020967Y023645D01*
X021003Y023607D01*
X021991Y023605D02*
X021991Y023172D01*
X021400Y022582D01*
X021400Y021361D01*
X015456Y015416D01*
X015456Y015180D01*
X013487Y013211D01*
X013448Y012700D02*
X013444Y012671D01*
X013448Y012700D02*
X014314Y012700D01*
X022424Y020810D01*
X022424Y022621D01*
X022975Y023172D01*
X022975Y023605D01*
X023003Y023607D01*
X023999Y023605D02*
X023999Y023172D01*
X023408Y022582D01*
X023408Y021282D01*
X021834Y019708D01*
X021834Y017385D01*
X021803Y017357D01*
X022267Y017188D02*
X020889Y015810D01*
X018133Y015810D01*
X018015Y015692D01*
X018003Y015657D01*
X022267Y017188D02*
X022267Y019944D01*
X023999Y021676D01*
X023999Y022582D01*
X024003Y022607D01*
X024353Y022818D02*
X024471Y022700D01*
X024471Y020534D01*
X024353Y022818D02*
X024353Y023251D01*
X024003Y023607D02*
X023999Y023605D01*
X022003Y023607D02*
X021991Y023605D01*
X019003Y023607D02*
X018999Y023605D01*
X012030Y022582D02*
X012030Y022503D01*
X012030Y022582D02*
X012003Y022607D01*
X022503Y015157D02*
X022503Y015141D01*
X023999Y013645D01*
X023999Y013172D01*
X024003Y013157D01*
X025219Y013645D02*
X020967Y009393D01*
X016873Y009589D02*
X014156Y006873D01*
X011715Y006873D01*
X011703Y006857D01*
X034904Y020731D02*
X034904Y020928D01*
X034869Y020956D01*
D23*
X008362Y007748D02*
X008362Y002980D01*
X031869Y002980D01*
X031887Y002981D01*
X032645Y003101D01*
X033375Y003338D01*
X034058Y003687D01*
X034679Y004138D01*
X035222Y004681D01*
X035673Y005302D01*
X036022Y005985D01*
X036259Y006715D01*
X036379Y007473D01*
X036394Y007857D01*
X036394Y019357D01*
X036379Y019741D01*
X036259Y020499D01*
X036022Y021229D01*
X035673Y021913D01*
X035222Y022534D01*
X034679Y023076D01*
X034058Y023527D01*
X033375Y023876D01*
X032645Y024113D01*
X031887Y024233D01*
X031503Y024248D01*
X020183Y024248D01*
X020608Y023823D01*
X020622Y023823D01*
X020635Y023853D01*
X020757Y023975D01*
X020916Y024041D01*
X021089Y024041D01*
X021249Y023975D01*
X021371Y023853D01*
X021437Y023694D01*
X021437Y023521D01*
X021371Y023361D01*
X021249Y023239D01*
X021089Y023173D01*
X020916Y023173D01*
X020757Y023239D01*
X020635Y023361D01*
X020591Y023466D01*
X020460Y023466D01*
X020428Y023499D01*
X020371Y023361D01*
X020249Y023239D01*
X020089Y023173D01*
X019916Y023173D01*
X019757Y023239D01*
X019635Y023361D01*
X019610Y023420D01*
X019610Y022795D01*
X019635Y022853D01*
X019757Y022975D01*
X019916Y023041D01*
X020089Y023041D01*
X020249Y022975D01*
X020371Y022853D01*
X020437Y022694D01*
X020437Y022521D01*
X020371Y022361D01*
X020249Y022239D01*
X020089Y022173D01*
X019916Y022173D01*
X019757Y022239D01*
X019635Y022361D01*
X019610Y022420D01*
X019610Y019823D01*
X021222Y021435D01*
X021222Y022228D01*
X021089Y022173D01*
X020916Y022173D01*
X020757Y022239D01*
X020635Y022361D01*
X020569Y022521D01*
X020569Y022694D01*
X020635Y022853D01*
X020757Y022975D01*
X020916Y023041D01*
X021089Y023041D01*
X021249Y022975D01*
X021371Y022853D01*
X021385Y022819D01*
X021791Y023225D01*
X021757Y023239D01*
X021635Y023361D01*
X021569Y023521D01*
X021569Y023694D01*
X021635Y023853D01*
X021757Y023975D01*
X021916Y024041D01*
X022089Y024041D01*
X022249Y023975D01*
X022371Y023853D01*
X022437Y023694D01*
X022437Y023521D01*
X022371Y023361D01*
X022249Y023239D01*
X022169Y023206D01*
X022169Y023098D01*
X022106Y023035D01*
X022249Y022975D01*
X022371Y022853D01*
X022381Y022830D01*
X022780Y023229D01*
X022757Y023239D01*
X022635Y023361D01*
X022569Y023521D01*
X022569Y023694D01*
X022635Y023853D01*
X022757Y023975D01*
X022916Y024041D01*
X023089Y024041D01*
X023249Y023975D01*
X023371Y023853D01*
X023437Y023694D01*
X023437Y023521D01*
X023371Y023361D01*
X023249Y023239D01*
X023154Y023200D01*
X023154Y023098D01*
X023095Y023039D01*
X023249Y022975D01*
X023371Y022853D01*
X023388Y022813D01*
X023797Y023222D01*
X023757Y023239D01*
X023635Y023361D01*
X023569Y023521D01*
X023569Y023694D01*
X023635Y023853D01*
X023757Y023975D01*
X023916Y024041D01*
X024089Y024041D01*
X024249Y023975D01*
X024371Y023853D01*
X024437Y023694D01*
X024437Y023521D01*
X024428Y023498D01*
X024499Y023469D01*
X024571Y023397D01*
X024610Y023302D01*
X024610Y023200D01*
X024571Y023105D01*
X024532Y023066D01*
X024532Y022892D01*
X024545Y022878D01*
X024616Y022808D01*
X024635Y022853D01*
X024757Y022975D01*
X024916Y023041D01*
X025089Y023041D01*
X025249Y022975D01*
X025371Y022853D01*
X025437Y022694D01*
X025437Y022521D01*
X025371Y022361D01*
X025249Y022239D01*
X025089Y022173D01*
X024916Y022173D01*
X024757Y022239D01*
X024650Y022346D01*
X024650Y021377D01*
X024660Y021387D01*
X024821Y021454D01*
X024996Y021454D01*
X025157Y021387D01*
X025281Y021263D01*
X025347Y021102D01*
X025347Y020927D01*
X025326Y020877D01*
X031991Y014212D01*
X034098Y016319D01*
X034057Y016337D01*
X033939Y016454D01*
X033875Y016608D01*
X033875Y016775D01*
X033939Y016929D01*
X034057Y017047D01*
X034211Y017111D01*
X034378Y017111D01*
X034532Y017047D01*
X034649Y016929D01*
X034713Y016775D01*
X034713Y016608D01*
X034649Y016454D01*
X034532Y016337D01*
X034492Y016320D01*
X034492Y016317D01*
X035202Y015607D01*
X035211Y015611D01*
X035378Y015611D01*
X035532Y015547D01*
X035649Y015429D01*
X035713Y015275D01*
X035713Y015108D01*
X035649Y014954D01*
X035532Y014837D01*
X035378Y014773D01*
X035211Y014773D01*
X035057Y014837D01*
X034939Y014954D01*
X034875Y015108D01*
X034875Y015275D01*
X034920Y015384D01*
X034708Y015596D01*
X034649Y015454D01*
X034532Y015337D01*
X034378Y015273D01*
X034226Y015273D01*
X026197Y007244D01*
X026247Y007223D01*
X026369Y007102D01*
X026434Y006943D01*
X026434Y006771D01*
X026369Y006613D01*
X026247Y006491D01*
X026108Y006434D01*
X026146Y006396D01*
X026146Y006265D01*
X026247Y006223D01*
X026369Y006102D01*
X026434Y005943D01*
X026434Y005771D01*
X026369Y005613D01*
X026247Y005491D01*
X026089Y005426D01*
X025917Y005426D01*
X025758Y005491D01*
X025637Y005613D01*
X025571Y005771D01*
X025571Y005943D01*
X025637Y006102D01*
X025758Y006223D01*
X025789Y006236D01*
X025789Y006248D01*
X023964Y008072D01*
X023860Y008177D01*
X023860Y009088D01*
X023809Y009088D01*
X023744Y009152D01*
X023744Y007892D01*
X023810Y007826D01*
X024197Y007826D01*
X024472Y007551D01*
X024472Y007163D01*
X024197Y006888D01*
X023809Y006888D01*
X023534Y007163D01*
X023534Y007551D01*
X023557Y007574D01*
X023387Y007744D01*
X023387Y009821D01*
X023492Y009925D01*
X023768Y010201D01*
X024516Y010201D01*
X025403Y011088D01*
X025309Y011088D01*
X025034Y011363D01*
X025034Y011474D01*
X022642Y009082D01*
X022642Y007660D01*
X022809Y007826D01*
X023197Y007826D01*
X023472Y007551D01*
X023472Y007163D01*
X023461Y007152D01*
X023626Y006986D01*
X023626Y006644D01*
X023809Y006826D01*
X024197Y006826D01*
X024472Y006551D01*
X024472Y006163D01*
X024461Y006152D01*
X024610Y006002D01*
X024610Y004795D01*
X024635Y004853D01*
X024757Y004975D01*
X024916Y005041D01*
X025089Y005041D01*
X025249Y004975D01*
X025371Y004853D01*
X025437Y004694D01*
X025437Y004521D01*
X025371Y004361D01*
X025249Y004239D01*
X025089Y004173D01*
X024916Y004173D01*
X024757Y004239D01*
X024635Y004361D01*
X024610Y004420D01*
X024610Y004397D01*
X024506Y004293D01*
X024217Y004004D01*
X024217Y003989D01*
X024249Y003975D01*
X024371Y003853D01*
X024437Y003694D01*
X024437Y003521D01*
X024371Y003361D01*
X024249Y003239D01*
X024089Y003173D01*
X023916Y003173D01*
X023757Y003239D01*
X023635Y003361D01*
X023569Y003521D01*
X023569Y003694D01*
X023635Y003853D01*
X023757Y003975D01*
X023860Y004018D01*
X023860Y004152D01*
X023891Y004183D01*
X023757Y004239D01*
X023635Y004361D01*
X023569Y004521D01*
X023569Y004694D01*
X023635Y004853D01*
X023757Y004975D01*
X023820Y005002D01*
X023820Y005657D01*
X023393Y006084D01*
X023197Y005888D01*
X022809Y005888D01*
X022642Y006055D01*
X022642Y004988D01*
X022411Y004757D01*
X022437Y004694D01*
X022437Y004521D01*
X022371Y004361D01*
X022249Y004239D01*
X022089Y004173D01*
X021916Y004173D01*
X021757Y004239D01*
X021635Y004361D01*
X021569Y004521D01*
X021569Y004694D01*
X021635Y004853D01*
X021757Y004975D01*
X021916Y005041D01*
X022089Y005041D01*
X022161Y005012D01*
X022285Y005136D01*
X022285Y005976D01*
X022197Y005888D01*
X021809Y005888D01*
X021534Y006163D01*
X021534Y006551D01*
X021809Y006826D01*
X022197Y006826D01*
X022285Y006738D01*
X022285Y006976D01*
X022197Y006888D01*
X021809Y006888D01*
X021534Y007163D01*
X021534Y007551D01*
X021809Y007826D01*
X022197Y007826D01*
X022285Y007738D01*
X022285Y009041D01*
X021071Y007826D01*
X021197Y007826D01*
X021472Y007551D01*
X021472Y007163D01*
X021197Y006888D01*
X020809Y006888D01*
X020752Y006945D01*
X020752Y006828D01*
X020792Y006867D01*
X020983Y006867D01*
X020983Y006377D01*
X021023Y006377D01*
X021513Y006377D01*
X021513Y006568D01*
X021214Y006867D01*
X021023Y006867D01*
X021023Y006377D01*
X021023Y006337D01*
X021513Y006337D01*
X021513Y006146D01*
X021214Y005847D01*
X021023Y005847D01*
X021023Y006337D01*
X020983Y006337D01*
X020983Y005847D01*
X020792Y005847D01*
X020752Y005887D01*
X020752Y005096D01*
X020839Y005009D01*
X020916Y005041D01*
X021089Y005041D01*
X021249Y004975D01*
X021371Y004853D01*
X021437Y004694D01*
X021437Y004521D01*
X021371Y004361D01*
X021249Y004239D01*
X021089Y004173D01*
X020916Y004173D01*
X020757Y004239D01*
X020635Y004361D01*
X020569Y004521D01*
X020569Y004694D01*
X020592Y004751D01*
X020395Y004949D01*
X020395Y007655D01*
X020500Y007760D01*
X028191Y015451D01*
X028191Y015507D01*
X028230Y015601D01*
X028302Y015674D01*
X028397Y015713D01*
X028499Y015713D01*
X028593Y015674D01*
X028661Y015606D01*
X028742Y015687D01*
X028742Y015743D01*
X028781Y015837D01*
X028848Y015905D01*
X024293Y020460D01*
X024293Y020796D01*
X024281Y020766D01*
X024157Y020642D01*
X023996Y020576D01*
X023821Y020576D01*
X023660Y020642D01*
X023536Y020766D01*
X023479Y020904D01*
X022445Y019870D01*
X022445Y017114D01*
X020963Y015631D01*
X020950Y015631D01*
X021013Y015568D01*
X021013Y015357D01*
X020503Y015357D01*
X020503Y015357D01*
X020503Y014847D01*
X020714Y014847D01*
X021013Y015146D01*
X021013Y015357D01*
X020503Y015357D01*
X020503Y015357D01*
X020503Y014847D01*
X020292Y014847D01*
X019993Y015146D01*
X019993Y015357D01*
X020503Y015357D01*
X020503Y015357D01*
X019993Y015357D01*
X019993Y015568D01*
X020056Y015631D01*
X019892Y015631D01*
X019972Y015551D01*
X019972Y015163D01*
X019697Y014888D01*
X019309Y014888D01*
X019034Y015163D01*
X019034Y015551D01*
X019114Y015631D01*
X018472Y015631D01*
X018472Y015463D01*
X018197Y015188D01*
X017809Y015188D01*
X017534Y015463D01*
X017534Y015667D01*
X014492Y012626D01*
X014388Y012521D01*
X013913Y012521D01*
X013913Y012477D01*
X013638Y012202D01*
X013249Y012202D01*
X012975Y012477D01*
X012975Y012866D01*
X013241Y013132D01*
X013230Y013160D01*
X013230Y013263D01*
X013269Y013357D01*
X013341Y013430D01*
X013436Y013469D01*
X013492Y013469D01*
X014911Y014888D01*
X014809Y014888D01*
X014534Y015163D01*
X014534Y015551D01*
X014614Y015631D01*
X014309Y015631D01*
X012482Y013805D01*
X012505Y013752D01*
X012505Y013585D01*
X012441Y013431D01*
X012323Y013313D01*
X012169Y013249D01*
X012002Y013249D01*
X011848Y013313D01*
X011730Y013431D01*
X011666Y013585D01*
X011666Y013752D01*
X011730Y013906D01*
X011848Y014023D01*
X012002Y014087D01*
X012169Y014087D01*
X012233Y014061D01*
X014161Y015988D01*
X015539Y015988D01*
X016555Y017005D01*
X016083Y017005D01*
X016083Y017697D01*
X017248Y017697D01*
X019254Y019703D01*
X019254Y022244D01*
X019249Y022239D01*
X019089Y022173D01*
X018916Y022173D01*
X018757Y022239D01*
X018635Y022361D01*
X018587Y022477D01*
X018587Y021602D01*
X018464Y021480D01*
X018582Y021480D01*
X018857Y021205D01*
X018857Y020816D01*
X018582Y020542D01*
X018194Y020542D01*
X017919Y020816D01*
X017919Y020934D01*
X017484Y020500D01*
X017484Y019004D01*
X016947Y018466D01*
X017025Y018421D01*
X017106Y018359D01*
X017177Y018288D01*
X017239Y018207D01*
X017290Y018120D01*
X017328Y018026D01*
X017355Y017928D01*
X017364Y017857D01*
X016083Y017857D01*
X016083Y017697D01*
X015923Y017697D01*
X015923Y017005D01*
X015360Y017005D01*
X015259Y017018D01*
X015161Y017044D01*
X015068Y017083D01*
X014980Y017133D01*
X014900Y017195D01*
X014828Y017267D01*
X014767Y017347D01*
X014716Y017435D01*
X014677Y017528D01*
X014651Y017626D01*
X014642Y017697D01*
X015923Y017697D01*
X015923Y017857D01*
X014645Y017857D01*
X013528Y016740D01*
X013638Y016740D01*
X013913Y016466D01*
X013913Y016077D01*
X013638Y015802D01*
X013249Y015802D01*
X012975Y016077D01*
X012975Y016187D01*
X012484Y015697D01*
X012484Y014800D01*
X012505Y014752D01*
X012505Y014585D01*
X012441Y014431D01*
X012323Y014313D01*
X012169Y014249D01*
X012002Y014249D01*
X011848Y014313D01*
X011730Y014431D01*
X011666Y014585D01*
X011666Y014752D01*
X011730Y014906D01*
X011848Y015023D01*
X012002Y015087D01*
X012128Y015087D01*
X012128Y015472D01*
X012017Y015427D01*
X011866Y015427D01*
X011727Y015485D01*
X011620Y015591D01*
X011563Y015731D01*
X011563Y015881D01*
X011620Y016021D01*
X011727Y016127D01*
X011866Y016185D01*
X012017Y016185D01*
X012157Y016127D01*
X012263Y016021D01*
X012275Y015992D01*
X013455Y017172D01*
X013387Y017239D01*
X013348Y017334D01*
X013348Y017436D01*
X013387Y017530D01*
X013427Y017570D01*
X013427Y020854D01*
X013327Y020954D01*
X013327Y020792D01*
X013216Y020523D01*
X013010Y020317D01*
X012741Y020206D01*
X011521Y020206D01*
X011404Y020089D01*
X012741Y020089D01*
X013010Y019977D01*
X013216Y019772D01*
X013327Y019503D01*
X013327Y019212D01*
X013216Y018943D01*
X013010Y018737D01*
X012741Y018626D01*
X011265Y018626D01*
X010996Y018737D01*
X010870Y018863D01*
X010870Y018330D01*
X010900Y018359D01*
X010980Y018421D01*
X011068Y018471D01*
X011161Y018510D01*
X011259Y018536D01*
X011360Y018550D01*
X011923Y018550D01*
X011923Y017857D01*
X012083Y017857D01*
X013364Y017857D01*
X013355Y017928D01*
X013328Y018026D01*
X013290Y018120D01*
X013239Y018207D01*
X013177Y018288D01*
X013106Y018359D01*
X013025Y018421D01*
X012938Y018471D01*
X012844Y018510D01*
X012746Y018536D01*
X012646Y018550D01*
X012083Y018550D01*
X012083Y017857D01*
X012083Y017697D01*
X013364Y017697D01*
X013355Y017626D01*
X013328Y017528D01*
X013290Y017435D01*
X013239Y017347D01*
X013177Y017267D01*
X013106Y017195D01*
X013025Y017133D01*
X012938Y017083D01*
X012844Y017044D01*
X012746Y017018D01*
X012646Y017005D01*
X012083Y017005D01*
X012083Y017697D01*
X011923Y017697D01*
X011923Y017005D01*
X011360Y017005D01*
X011259Y017018D01*
X011161Y017044D01*
X011068Y017083D01*
X010980Y017133D01*
X010900Y017195D01*
X010870Y017225D01*
X010870Y015575D01*
X010909Y015594D01*
X010978Y015617D01*
X011049Y015628D01*
X011086Y015628D01*
X011086Y015168D01*
X011086Y015168D01*
X011546Y015168D01*
X011546Y015132D01*
X011534Y015060D01*
X011512Y014992D01*
X011479Y014927D01*
X011436Y014869D01*
X011385Y014817D01*
X011327Y014775D01*
X011262Y014742D01*
X011234Y014733D01*
X011264Y014703D01*
X011264Y014548D01*
X011323Y014523D01*
X011441Y014406D01*
X011505Y014252D01*
X011505Y014085D01*
X011441Y013931D01*
X011323Y013813D01*
X011264Y013789D01*
X011264Y013522D01*
X013034Y011752D01*
X013034Y011851D01*
X013309Y012126D01*
X013697Y012126D01*
X013972Y011851D01*
X013972Y011463D01*
X013697Y011188D01*
X013597Y011188D01*
X014742Y010043D01*
X019073Y010043D01*
X019291Y009826D01*
X019401Y009871D01*
X019605Y009871D01*
X019794Y009793D01*
X019939Y009648D01*
X019971Y009571D01*
X020893Y009571D01*
X022411Y011088D01*
X022309Y011088D01*
X022034Y011363D01*
X022034Y011751D01*
X022309Y012026D01*
X022697Y012026D01*
X022972Y011751D01*
X022972Y011649D01*
X023970Y012647D01*
X023792Y012647D01*
X023493Y012946D01*
X023493Y013157D01*
X024003Y013157D01*
X024003Y013157D01*
X024003Y013157D01*
X024003Y013667D01*
X024214Y013667D01*
X024513Y013368D01*
X024513Y013190D01*
X024962Y013640D01*
X024962Y013696D01*
X025001Y013790D01*
X025074Y013863D01*
X025168Y013902D01*
X025271Y013902D01*
X025365Y013863D01*
X025437Y013790D01*
X025477Y013696D01*
X025477Y013593D01*
X025437Y013499D01*
X025365Y013427D01*
X025271Y013387D01*
X025215Y013387D01*
X021146Y009319D01*
X021041Y009214D01*
X020000Y009214D01*
X019939Y009066D01*
X019794Y008921D01*
X019605Y008843D01*
X019401Y008843D01*
X019212Y008921D01*
X019067Y009066D01*
X018989Y009255D01*
X018989Y009459D01*
X019037Y009575D01*
X018925Y009687D01*
X017958Y009687D01*
X018058Y009587D01*
X018058Y009357D01*
X017503Y009357D01*
X017503Y009357D01*
X017503Y008802D01*
X017733Y008802D01*
X018058Y009127D01*
X018058Y009357D01*
X017503Y009357D01*
X017503Y009357D01*
X017503Y008802D01*
X017273Y008802D01*
X016948Y009127D01*
X016948Y009342D01*
X016924Y009332D01*
X016868Y009332D01*
X014335Y006799D01*
X014335Y006799D01*
X014230Y006694D01*
X012172Y006694D01*
X012172Y006663D01*
X011897Y006388D01*
X011509Y006388D01*
X011234Y006663D01*
X011234Y007051D01*
X011509Y007326D01*
X011897Y007326D01*
X012172Y007051D01*
X012172Y007051D01*
X014082Y007051D01*
X015878Y008847D01*
X015792Y008847D01*
X015493Y009146D01*
X015493Y009357D01*
X016003Y009357D01*
X016003Y009357D01*
X015493Y009357D01*
X015493Y009568D01*
X015611Y009687D01*
X015337Y009687D01*
X015472Y009551D01*
X015472Y009163D01*
X015197Y008888D01*
X014809Y008888D01*
X014534Y009163D01*
X014534Y009551D01*
X014669Y009687D01*
X014594Y009687D01*
X014490Y009791D01*
X010907Y013374D01*
X010907Y013789D01*
X010848Y013813D01*
X010730Y013931D01*
X010666Y014085D01*
X010666Y014252D01*
X010730Y014406D01*
X010848Y014523D01*
X010907Y014548D01*
X010907Y014555D01*
X010618Y014844D01*
X010612Y014850D01*
X010612Y009841D01*
X010493Y009323D01*
X010493Y009323D01*
X010263Y008844D01*
X010263Y008844D01*
X009931Y008429D01*
X009931Y008429D01*
X009931Y008429D01*
X009516Y008097D01*
X009516Y008097D01*
X009037Y007867D01*
X009037Y007867D01*
X008519Y007748D01*
X008362Y007748D01*
X008362Y007598D02*
X013299Y007598D01*
X013309Y007588D02*
X013697Y007588D01*
X013972Y007863D01*
X013972Y008251D01*
X013697Y008526D01*
X013309Y008526D01*
X013034Y008251D01*
X013034Y007863D01*
X013309Y007588D01*
X013140Y007756D02*
X008553Y007756D01*
X008362Y007439D02*
X014470Y007439D01*
X014312Y007281D02*
X011943Y007281D01*
X012101Y007122D02*
X014153Y007122D01*
X014341Y006805D02*
X014834Y006805D01*
X014834Y006663D02*
X015109Y006388D01*
X015497Y006388D01*
X015772Y006663D01*
X015772Y007051D01*
X015497Y007326D01*
X015109Y007326D01*
X014834Y007051D01*
X014834Y006663D01*
X014850Y006647D02*
X012156Y006647D01*
X011997Y006488D02*
X015008Y006488D01*
X015597Y006488D02*
X018583Y006488D01*
X018583Y006531D02*
X018583Y006357D01*
X018583Y006183D01*
X018829Y005937D01*
X019003Y005937D01*
X019177Y005937D01*
X019423Y006183D01*
X019423Y006357D01*
X019003Y006357D01*
X019003Y006357D01*
X019003Y005937D01*
X019003Y006357D01*
X019003Y006357D01*
X019423Y006357D01*
X019423Y006531D01*
X019177Y006777D01*
X019003Y006777D01*
X019003Y006357D01*
X018583Y006357D01*
X019003Y006357D01*
X019003Y006357D01*
X019003Y006357D01*
X019003Y006777D01*
X018829Y006777D01*
X018583Y006531D01*
X018698Y006647D02*
X015756Y006647D01*
X015772Y006805D02*
X020395Y006805D01*
X020395Y006647D02*
X019307Y006647D01*
X019423Y006488D02*
X020395Y006488D01*
X020395Y006330D02*
X019423Y006330D01*
X019411Y006171D02*
X020395Y006171D01*
X020395Y006013D02*
X019252Y006013D01*
X019003Y006013D02*
X019003Y006013D01*
X019003Y006171D02*
X019003Y006171D01*
X019003Y006330D02*
X019003Y006330D01*
X019003Y006488D02*
X019003Y006488D01*
X019003Y006647D02*
X019003Y006647D01*
X019160Y006978D02*
X019382Y007200D01*
X019382Y007514D01*
X019160Y007736D01*
X018846Y007736D01*
X018624Y007514D01*
X018624Y007200D01*
X018846Y006978D01*
X019160Y006978D01*
X019304Y007122D02*
X020395Y007122D01*
X020395Y006964D02*
X015772Y006964D01*
X015701Y007122D02*
X018702Y007122D01*
X018624Y007281D02*
X015543Y007281D01*
X015063Y007281D02*
X014816Y007281D01*
X014905Y007122D02*
X014658Y007122D01*
X014499Y006964D02*
X014834Y006964D01*
X014975Y007439D02*
X018624Y007439D01*
X018707Y007598D02*
X015133Y007598D01*
X015292Y007756D02*
X020496Y007756D01*
X020395Y007598D02*
X019298Y007598D01*
X019382Y007439D02*
X020395Y007439D01*
X020395Y007281D02*
X019382Y007281D01*
X018583Y006330D02*
X008362Y006330D01*
X008362Y006488D02*
X011408Y006488D01*
X011250Y006647D02*
X008362Y006647D01*
X008362Y006805D02*
X011234Y006805D01*
X011234Y006964D02*
X008362Y006964D01*
X008362Y007122D02*
X011305Y007122D01*
X011463Y007281D02*
X008362Y007281D01*
X009137Y007915D02*
X013034Y007915D01*
X013034Y008073D02*
X009466Y008073D01*
X009685Y008232D02*
X013034Y008232D01*
X013173Y008390D02*
X009883Y008390D01*
X010027Y008549D02*
X015580Y008549D01*
X015738Y008707D02*
X010154Y008707D01*
X010273Y008866D02*
X015773Y008866D01*
X015615Y009024D02*
X015333Y009024D01*
X015472Y009183D02*
X015493Y009183D01*
X015493Y009341D02*
X015472Y009341D01*
X015472Y009500D02*
X015493Y009500D01*
X015583Y009658D02*
X015365Y009658D01*
X014641Y009658D02*
X010570Y009658D01*
X010534Y009500D02*
X014534Y009500D01*
X014534Y009341D02*
X010498Y009341D01*
X010426Y009183D02*
X014534Y009183D01*
X014672Y009024D02*
X010350Y009024D01*
X010606Y009817D02*
X014464Y009817D01*
X014306Y009975D02*
X010612Y009975D01*
X010612Y010134D02*
X014147Y010134D01*
X013989Y010292D02*
X010612Y010292D01*
X010612Y010451D02*
X013830Y010451D01*
X013672Y010609D02*
X010612Y010609D01*
X010612Y010768D02*
X013513Y010768D01*
X013355Y010926D02*
X010612Y010926D01*
X010612Y011085D02*
X013196Y011085D01*
X013038Y011243D02*
X010612Y011243D01*
X010612Y011402D02*
X012879Y011402D01*
X012721Y011560D02*
X010612Y011560D01*
X010612Y011719D02*
X012562Y011719D01*
X012404Y011877D02*
X010612Y011877D01*
X010612Y012036D02*
X012245Y012036D01*
X012087Y012194D02*
X010612Y012194D01*
X010612Y012353D02*
X011928Y012353D01*
X011770Y012511D02*
X010612Y012511D01*
X010612Y012670D02*
X011611Y012670D01*
X011453Y012828D02*
X010612Y012828D01*
X010612Y012987D02*
X011294Y012987D01*
X011136Y013145D02*
X010612Y013145D01*
X010612Y013304D02*
X010977Y013304D01*
X010907Y013462D02*
X010612Y013462D01*
X010612Y013621D02*
X010907Y013621D01*
X010907Y013779D02*
X010612Y013779D01*
X010612Y013938D02*
X010727Y013938D01*
X010666Y014096D02*
X010612Y014096D01*
X010612Y014255D02*
X010668Y014255D01*
X010612Y014413D02*
X010738Y014413D01*
X010612Y014572D02*
X010890Y014572D01*
X010732Y014730D02*
X010612Y014730D01*
X011236Y014730D02*
X011666Y014730D01*
X011672Y014572D02*
X011264Y014572D01*
X011433Y014413D02*
X011748Y014413D01*
X011989Y014255D02*
X011503Y014255D01*
X011505Y014096D02*
X012269Y014096D01*
X012182Y014255D02*
X012428Y014255D01*
X012423Y014413D02*
X012586Y014413D01*
X012499Y014572D02*
X012745Y014572D01*
X012903Y014730D02*
X012505Y014730D01*
X012484Y014889D02*
X013062Y014889D01*
X013220Y015047D02*
X012484Y015047D01*
X012484Y015206D02*
X013379Y015206D01*
X013537Y015364D02*
X012484Y015364D01*
X012484Y015523D02*
X013696Y015523D01*
X013854Y015681D02*
X012484Y015681D01*
X012627Y015840D02*
X013212Y015840D01*
X013054Y015998D02*
X012786Y015998D01*
X012944Y016157D02*
X012975Y016157D01*
X012757Y016474D02*
X010870Y016474D01*
X010870Y016632D02*
X012915Y016632D01*
X013074Y016791D02*
X010870Y016791D01*
X010870Y016949D02*
X013232Y016949D01*
X013391Y017108D02*
X012981Y017108D01*
X013177Y017266D02*
X013376Y017266D01*
X013348Y017425D02*
X013284Y017425D01*
X013343Y017583D02*
X013427Y017583D01*
X013427Y017742D02*
X012083Y017742D01*
X012083Y017900D02*
X011923Y017900D01*
X011923Y018059D02*
X012083Y018059D01*
X012083Y018217D02*
X011923Y018217D01*
X011923Y018376D02*
X012083Y018376D01*
X012083Y018534D02*
X011923Y018534D01*
X011251Y018534D02*
X010870Y018534D01*
X010870Y018376D02*
X010921Y018376D01*
X010870Y018693D02*
X011103Y018693D01*
X010882Y018851D02*
X010870Y018851D01*
X010513Y018851D02*
X009849Y018851D01*
X009931Y018786D02*
X009516Y019117D01*
X009516Y019117D01*
X009037Y019348D01*
X009037Y019348D01*
X008519Y019466D01*
X008362Y019466D01*
X008362Y024248D01*
X015807Y024248D01*
X015383Y023824D01*
X015371Y023853D01*
X015249Y023975D01*
X015089Y024041D01*
X014916Y024041D01*
X014757Y023975D01*
X014635Y023853D01*
X014569Y023694D01*
X014569Y023521D01*
X014635Y023361D01*
X014757Y023239D01*
X014916Y023173D01*
X015089Y023173D01*
X015238Y023234D01*
X015238Y022980D01*
X015089Y023041D01*
X014916Y023041D01*
X014757Y022975D01*
X014635Y022853D01*
X014569Y022694D01*
X014569Y022521D01*
X014635Y022361D01*
X014757Y022239D01*
X014916Y022173D01*
X015089Y022173D01*
X015238Y022234D01*
X015238Y022026D01*
X014634Y021421D01*
X014529Y021317D01*
X014529Y020579D01*
X015091Y020017D01*
X014996Y019977D01*
X014790Y019772D01*
X014679Y019503D01*
X014679Y019212D01*
X014790Y018943D01*
X014996Y018737D01*
X015168Y018666D01*
X014949Y018666D01*
X013818Y017535D01*
X013784Y017570D01*
X013784Y021002D01*
X013679Y021106D01*
X012387Y022399D01*
X012437Y022521D01*
X012437Y022694D01*
X012371Y022853D01*
X012249Y022975D01*
X012089Y023041D01*
X011916Y023041D01*
X011757Y022975D01*
X011635Y022853D01*
X011569Y022694D01*
X011569Y022521D01*
X011635Y022361D01*
X011757Y022239D01*
X011916Y022173D01*
X012089Y022173D01*
X012103Y022178D01*
X012612Y021669D01*
X011265Y021669D01*
X010996Y021557D01*
X010790Y021352D01*
X010679Y021083D01*
X010679Y020792D01*
X010790Y020523D01*
X010996Y020317D01*
X011089Y020278D01*
X010513Y019703D01*
X010513Y017804D01*
X010493Y017891D01*
X010263Y018370D01*
X009931Y018786D01*
X009931Y018786D01*
X010006Y018693D02*
X010513Y018693D01*
X010513Y018534D02*
X010132Y018534D01*
X010258Y018376D02*
X010513Y018376D01*
X010513Y018217D02*
X010336Y018217D01*
X010413Y018059D02*
X010513Y018059D01*
X010513Y017900D02*
X010489Y017900D01*
X010870Y017108D02*
X011025Y017108D01*
X011923Y017108D02*
X012083Y017108D01*
X012083Y017266D02*
X011923Y017266D01*
X011923Y017425D02*
X012083Y017425D01*
X012083Y017583D02*
X011923Y017583D01*
X013084Y018376D02*
X013427Y018376D01*
X013427Y018534D02*
X012755Y018534D01*
X012903Y018693D02*
X013427Y018693D01*
X013427Y018851D02*
X013124Y018851D01*
X013243Y019010D02*
X013427Y019010D01*
X013427Y019168D02*
X013309Y019168D01*
X013327Y019327D02*
X013427Y019327D01*
X013427Y019485D02*
X013327Y019485D01*
X013268Y019644D02*
X013427Y019644D01*
X013427Y019802D02*
X013185Y019802D01*
X013026Y019961D02*
X013427Y019961D01*
X013427Y020119D02*
X011435Y020119D01*
X011088Y020278D02*
X008362Y020278D01*
X008362Y020436D02*
X010877Y020436D01*
X010760Y020595D02*
X008362Y020595D01*
X008362Y020753D02*
X010695Y020753D01*
X010679Y020912D02*
X008362Y020912D01*
X008362Y021070D02*
X010679Y021070D01*
X010739Y021229D02*
X008362Y021229D01*
X008362Y021387D02*
X010826Y021387D01*
X010984Y021546D02*
X008362Y021546D01*
X008362Y021704D02*
X012577Y021704D01*
X012418Y021863D02*
X008362Y021863D01*
X008362Y022021D02*
X012260Y022021D01*
X012447Y022338D02*
X012658Y022338D01*
X012635Y022361D02*
X012757Y022239D01*
X012916Y022173D01*
X013089Y022173D01*
X013249Y022239D01*
X013371Y022361D01*
X013437Y022521D01*
X013437Y022694D01*
X013371Y022853D01*
X013249Y022975D01*
X013089Y023041D01*
X012916Y023041D01*
X012757Y022975D01*
X012635Y022853D01*
X012569Y022694D01*
X012569Y022521D01*
X012635Y022361D01*
X012578Y022497D02*
X012427Y022497D01*
X012437Y022655D02*
X012569Y022655D01*
X012618Y022814D02*
X012387Y022814D01*
X012252Y022972D02*
X012754Y022972D01*
X012916Y023173D02*
X012757Y023239D01*
X012635Y023361D01*
X012569Y023521D01*
X012569Y023694D01*
X012635Y023853D01*
X012757Y023975D01*
X012916Y024041D01*
X013089Y024041D01*
X013249Y023975D01*
X013371Y023853D01*
X013437Y023694D01*
X013437Y023521D01*
X013371Y023361D01*
X013249Y023239D01*
X013089Y023173D01*
X012916Y023173D01*
X012707Y023289D02*
X012299Y023289D01*
X012249Y023239D02*
X012371Y023361D01*
X012437Y023521D01*
X012437Y023694D01*
X012371Y023853D01*
X012249Y023975D01*
X012089Y024041D01*
X011916Y024041D01*
X011757Y023975D01*
X011635Y023853D01*
X011569Y023694D01*
X011569Y023521D01*
X011635Y023361D01*
X011757Y023239D01*
X011916Y023173D01*
X012089Y023173D01*
X012249Y023239D01*
X012407Y023448D02*
X012599Y023448D01*
X012569Y023606D02*
X012437Y023606D01*
X012408Y023765D02*
X012598Y023765D01*
X012705Y023923D02*
X012301Y023923D01*
X011705Y023923D02*
X011301Y023923D01*
X011249Y023975D02*
X011371Y023853D01*
X011437Y023694D01*
X011437Y023521D01*
X011371Y023361D01*
X011249Y023239D01*
X011089Y023173D01*
X010916Y023173D01*
X010757Y023239D01*
X010635Y023361D01*
X010569Y023521D01*
X010569Y023694D01*
X010635Y023853D01*
X010757Y023975D01*
X010916Y024041D01*
X011089Y024041D01*
X011249Y023975D01*
X011408Y023765D02*
X011598Y023765D01*
X011569Y023606D02*
X011437Y023606D01*
X011407Y023448D02*
X011599Y023448D01*
X011707Y023289D02*
X011299Y023289D01*
X011249Y022975D02*
X011089Y023041D01*
X010916Y023041D01*
X010757Y022975D01*
X010635Y022853D01*
X010569Y022694D01*
X010569Y022521D01*
X010635Y022361D01*
X010757Y022239D01*
X010916Y022173D01*
X011089Y022173D01*
X011249Y022239D01*
X011371Y022361D01*
X011437Y022521D01*
X011437Y022694D01*
X011371Y022853D01*
X011249Y022975D01*
X011252Y022972D02*
X011754Y022972D01*
X011618Y022814D02*
X011387Y022814D01*
X011437Y022655D02*
X011569Y022655D01*
X011578Y022497D02*
X011427Y022497D01*
X011348Y022338D02*
X011658Y022338D01*
X011900Y022180D02*
X011106Y022180D01*
X010900Y022180D02*
X010420Y022180D01*
X010409Y022168D02*
X010442Y022201D01*
X010466Y022242D01*
X010478Y022288D01*
X010478Y022589D01*
X010021Y022589D01*
X010021Y022132D01*
X010322Y022132D01*
X010368Y022144D01*
X010409Y022168D01*
X010478Y022338D02*
X010658Y022338D01*
X010578Y022497D02*
X010478Y022497D01*
X010478Y022626D02*
X010021Y022626D01*
X009984Y022626D01*
X009984Y023082D01*
X009684Y023082D01*
X009638Y023070D01*
X009597Y023046D01*
X009564Y023013D01*
X009540Y022972D01*
X009528Y022926D01*
X009528Y022626D01*
X009984Y022626D01*
X009984Y022589D01*
X009528Y022589D01*
X009528Y022288D01*
X009540Y022242D01*
X009564Y022201D01*
X009597Y022168D01*
X009638Y022144D01*
X009684Y022132D01*
X009984Y022132D01*
X009984Y022589D01*
X010021Y022589D01*
X010021Y022626D01*
X010021Y023082D01*
X010322Y023082D01*
X010368Y023070D01*
X010409Y023046D01*
X010442Y023013D01*
X010466Y022972D01*
X010478Y022926D01*
X010478Y022626D01*
X010478Y022655D02*
X010569Y022655D01*
X010618Y022814D02*
X010478Y022814D01*
X010466Y022972D02*
X010754Y022972D01*
X010707Y023289D02*
X010357Y023289D01*
X010365Y023298D02*
X010409Y023358D01*
X010443Y023425D01*
X010466Y023496D01*
X010478Y023570D01*
X010478Y023589D01*
X010021Y023589D01*
X010021Y023132D01*
X010040Y023132D01*
X010114Y023144D01*
X010185Y023167D01*
X010252Y023201D01*
X010312Y023245D01*
X010365Y023298D01*
X010451Y023448D02*
X010599Y023448D01*
X010569Y023606D02*
X010021Y023606D01*
X010021Y023589D02*
X010021Y023626D01*
X009984Y023626D01*
X009984Y024082D01*
X010021Y024082D01*
X010040Y024082D01*
X010114Y024071D01*
X010185Y024048D01*
X010252Y024014D01*
X010312Y023970D01*
X010365Y023917D01*
X010409Y023856D01*
X010443Y023790D01*
X010466Y023718D01*
X010478Y023645D01*
X010478Y023626D01*
X010021Y023626D01*
X010021Y024082D01*
X010045Y024082D02*
X015640Y024082D01*
X015482Y023923D02*
X015301Y023923D01*
X015799Y024240D02*
X008362Y024240D01*
X008362Y024082D02*
X009961Y024082D01*
X009965Y024082D02*
X009892Y024071D01*
X009820Y024048D01*
X009754Y024014D01*
X009693Y023970D01*
X009640Y023917D01*
X009596Y023856D01*
X009562Y023790D01*
X009539Y023718D01*
X009528Y023645D01*
X009528Y023626D01*
X009984Y023626D01*
X009984Y023589D01*
X009528Y023589D01*
X009528Y023570D01*
X009539Y023496D01*
X009562Y023425D01*
X009596Y023358D01*
X009640Y023298D01*
X009693Y023245D01*
X009754Y023201D01*
X009820Y023167D01*
X009892Y023144D01*
X009965Y023132D01*
X009984Y023132D01*
X009984Y023589D01*
X010021Y023589D01*
X009984Y023606D02*
X008362Y023606D01*
X008362Y023448D02*
X009555Y023448D01*
X009649Y023289D02*
X008362Y023289D01*
X008362Y023131D02*
X015238Y023131D01*
X014754Y022972D02*
X014252Y022972D01*
X014249Y022975D02*
X014089Y023041D01*
X013916Y023041D01*
X013757Y022975D01*
X013635Y022853D01*
X013569Y022694D01*
X013569Y022521D01*
X013635Y022361D01*
X013757Y022239D01*
X013916Y022173D01*
X014089Y022173D01*
X014249Y022239D01*
X014371Y022361D01*
X014437Y022521D01*
X014437Y022694D01*
X014371Y022853D01*
X014249Y022975D01*
X014387Y022814D02*
X014618Y022814D01*
X014569Y022655D02*
X014437Y022655D01*
X014427Y022497D02*
X014578Y022497D01*
X014658Y022338D02*
X014348Y022338D01*
X014106Y022180D02*
X014900Y022180D01*
X015106Y022180D02*
X015238Y022180D01*
X015233Y022021D02*
X012764Y022021D01*
X012900Y022180D02*
X012606Y022180D01*
X012923Y021863D02*
X015075Y021863D01*
X014916Y021704D02*
X013081Y021704D01*
X013240Y021546D02*
X014758Y021546D01*
X014599Y021387D02*
X013398Y021387D01*
X013557Y021229D02*
X014529Y021229D01*
X014529Y021070D02*
X013715Y021070D01*
X013784Y020912D02*
X014529Y020912D01*
X014529Y020753D02*
X013784Y020753D01*
X013784Y020595D02*
X014529Y020595D01*
X014671Y020436D02*
X013784Y020436D01*
X013784Y020278D02*
X014830Y020278D01*
X014988Y020119D02*
X013784Y020119D01*
X013784Y019961D02*
X014979Y019961D01*
X014821Y019802D02*
X013784Y019802D01*
X013784Y019644D02*
X014737Y019644D01*
X014679Y019485D02*
X013784Y019485D01*
X013784Y019327D02*
X014679Y019327D01*
X014697Y019168D02*
X013784Y019168D01*
X013784Y019010D02*
X014762Y019010D01*
X014882Y018851D02*
X013784Y018851D01*
X013784Y018693D02*
X015103Y018693D01*
X014817Y018534D02*
X013784Y018534D01*
X013784Y018376D02*
X014659Y018376D01*
X014500Y018217D02*
X013784Y018217D01*
X013784Y018059D02*
X014342Y018059D01*
X014183Y017900D02*
X013784Y017900D01*
X013784Y017742D02*
X014025Y017742D01*
X013866Y017583D02*
X013784Y017583D01*
X014054Y017266D02*
X014829Y017266D01*
X014722Y017425D02*
X014212Y017425D01*
X014371Y017583D02*
X014663Y017583D01*
X014529Y017742D02*
X015923Y017742D01*
X015923Y017583D02*
X016083Y017583D01*
X016083Y017425D02*
X015923Y017425D01*
X015923Y017266D02*
X016083Y017266D01*
X016083Y017108D02*
X015923Y017108D01*
X016342Y016791D02*
X013578Y016791D01*
X013737Y016949D02*
X016500Y016949D01*
X016183Y016632D02*
X013746Y016632D01*
X013905Y016474D02*
X016025Y016474D01*
X015866Y016315D02*
X013913Y016315D01*
X013913Y016157D02*
X015708Y016157D01*
X015549Y015998D02*
X013834Y015998D01*
X013675Y015840D02*
X014013Y015840D01*
X014200Y015523D02*
X014534Y015523D01*
X014534Y015364D02*
X014042Y015364D01*
X013883Y015206D02*
X014534Y015206D01*
X014649Y015047D02*
X013725Y015047D01*
X013566Y014889D02*
X014808Y014889D01*
X014753Y014730D02*
X013408Y014730D01*
X013249Y014572D02*
X014595Y014572D01*
X014436Y014413D02*
X013091Y014413D01*
X012932Y014255D02*
X014278Y014255D01*
X014119Y014096D02*
X012774Y014096D01*
X012615Y013938D02*
X013961Y013938D01*
X013802Y013779D02*
X012493Y013779D01*
X012505Y013621D02*
X013644Y013621D01*
X013420Y013462D02*
X012454Y013462D01*
X012301Y013304D02*
X013247Y013304D01*
X013236Y013145D02*
X011640Y013145D01*
X011482Y013304D02*
X011870Y013304D01*
X011717Y013462D02*
X011323Y013462D01*
X011264Y013621D02*
X011666Y013621D01*
X011678Y013779D02*
X011264Y013779D01*
X011444Y013938D02*
X011762Y013938D01*
X011799Y012987D02*
X013096Y012987D01*
X012975Y012828D02*
X011957Y012828D01*
X012116Y012670D02*
X012975Y012670D01*
X012975Y012511D02*
X012274Y012511D01*
X012433Y012353D02*
X013099Y012353D01*
X013218Y012036D02*
X012750Y012036D01*
X012591Y012194D02*
X014534Y012194D01*
X014534Y012163D02*
X014809Y011888D01*
X015197Y011888D01*
X015472Y012163D01*
X015472Y012551D01*
X015197Y012826D01*
X014809Y012826D01*
X014534Y012551D01*
X014534Y012163D01*
X014661Y012036D02*
X013788Y012036D01*
X013946Y011877D02*
X015762Y011877D01*
X015792Y011847D02*
X016003Y011847D01*
X016214Y011847D01*
X016513Y012146D01*
X016513Y012357D01*
X016003Y012357D01*
X016003Y012357D01*
X016003Y011847D01*
X016003Y012357D01*
X016003Y012357D01*
X016513Y012357D01*
X016513Y012568D01*
X016214Y012867D01*
X016003Y012867D01*
X016003Y012357D01*
X015493Y012357D01*
X015493Y012146D01*
X015792Y011847D01*
X016003Y011877D02*
X016003Y011877D01*
X016003Y012036D02*
X016003Y012036D01*
X016003Y012194D02*
X016003Y012194D01*
X016003Y012353D02*
X016003Y012353D01*
X016003Y012357D02*
X016003Y012357D01*
X016003Y012357D01*
X015493Y012357D01*
X015493Y012568D01*
X015792Y012867D01*
X016003Y012867D01*
X016003Y012357D01*
X016003Y012511D02*
X016003Y012511D01*
X016003Y012670D02*
X016003Y012670D01*
X016003Y012828D02*
X016003Y012828D01*
X016253Y012828D02*
X020253Y012828D01*
X020292Y012867D02*
X019993Y012568D01*
X019993Y012357D01*
X019993Y012146D01*
X020292Y011847D01*
X020503Y011847D01*
X020714Y011847D01*
X021013Y012146D01*
X021013Y012357D01*
X020503Y012357D01*
X020503Y012357D01*
X020503Y011847D01*
X020503Y012357D01*
X020503Y012357D01*
X021013Y012357D01*
X021013Y012568D01*
X020714Y012867D01*
X020503Y012867D01*
X020503Y012357D01*
X019993Y012357D01*
X020503Y012357D01*
X020503Y012357D01*
X020503Y012357D01*
X020503Y012867D01*
X020292Y012867D01*
X020503Y012828D02*
X020503Y012828D01*
X020503Y012670D02*
X020503Y012670D01*
X020503Y012511D02*
X020503Y012511D01*
X020503Y012353D02*
X020503Y012353D01*
X020503Y012194D02*
X020503Y012194D01*
X020503Y012036D02*
X020503Y012036D01*
X020503Y011877D02*
X020503Y011877D01*
X020744Y011877D02*
X022160Y011877D01*
X022034Y011719D02*
X018328Y011719D01*
X018197Y011588D02*
X017809Y011588D01*
X017534Y011863D01*
X017534Y012251D01*
X017809Y012526D01*
X018197Y012526D01*
X018472Y012251D01*
X018472Y011863D01*
X018197Y011588D01*
X018472Y011877D02*
X020262Y011877D01*
X020103Y012036D02*
X019845Y012036D01*
X019972Y012163D02*
X019697Y011888D01*
X019309Y011888D01*
X019034Y012163D01*
X019034Y012551D01*
X019309Y012826D01*
X019697Y012826D01*
X019972Y012551D01*
X019972Y012163D01*
X019972Y012194D02*
X019993Y012194D01*
X019993Y012353D02*
X019972Y012353D01*
X019972Y012511D02*
X019993Y012511D01*
X020094Y012670D02*
X019854Y012670D01*
X019152Y012670D02*
X016412Y012670D01*
X016513Y012511D02*
X017794Y012511D01*
X017635Y012353D02*
X016513Y012353D01*
X016513Y012194D02*
X017534Y012194D01*
X017534Y012036D02*
X016403Y012036D01*
X016244Y011877D02*
X017534Y011877D01*
X017678Y011719D02*
X013972Y011719D01*
X013972Y011560D02*
X022034Y011560D01*
X022034Y011402D02*
X013911Y011402D01*
X013752Y011243D02*
X022153Y011243D01*
X022407Y011085D02*
X013701Y011085D01*
X013859Y010926D02*
X022249Y010926D01*
X022090Y010768D02*
X014018Y010768D01*
X014176Y010609D02*
X021932Y010609D01*
X021773Y010451D02*
X014335Y010451D01*
X014493Y010292D02*
X021615Y010292D01*
X021456Y010134D02*
X014652Y010134D01*
X016401Y008866D02*
X017209Y008866D01*
X017051Y009024D02*
X016560Y009024D01*
X016718Y009183D02*
X016948Y009183D01*
X016946Y009341D02*
X016948Y009341D01*
X017503Y009341D02*
X017503Y009341D01*
X017503Y009183D02*
X017503Y009183D01*
X017503Y009024D02*
X017503Y009024D01*
X017503Y008866D02*
X017503Y008866D01*
X017796Y008866D02*
X019346Y008866D01*
X019109Y009024D02*
X017955Y009024D01*
X018058Y009183D02*
X019019Y009183D01*
X018989Y009341D02*
X018058Y009341D01*
X018058Y009500D02*
X019005Y009500D01*
X018953Y009658D02*
X017987Y009658D01*
X019141Y009975D02*
X021298Y009975D01*
X021139Y009817D02*
X019737Y009817D01*
X019929Y009658D02*
X020981Y009658D01*
X021168Y009341D02*
X022081Y009341D01*
X021922Y009183D02*
X019987Y009183D01*
X019897Y009024D02*
X021764Y009024D01*
X021605Y008866D02*
X019660Y008866D01*
X020813Y008073D02*
X015609Y008073D01*
X015450Y007915D02*
X020654Y007915D01*
X020971Y008232D02*
X015767Y008232D01*
X015926Y008390D02*
X021130Y008390D01*
X021288Y008549D02*
X016084Y008549D01*
X016243Y008707D02*
X021447Y008707D01*
X021635Y008390D02*
X022285Y008390D01*
X022285Y008232D02*
X021476Y008232D01*
X021318Y008073D02*
X022285Y008073D01*
X022285Y007915D02*
X021159Y007915D01*
X021267Y007756D02*
X021739Y007756D01*
X021580Y007598D02*
X021426Y007598D01*
X021472Y007439D02*
X021534Y007439D01*
X021534Y007281D02*
X021472Y007281D01*
X021431Y007122D02*
X021574Y007122D01*
X021733Y006964D02*
X021273Y006964D01*
X021276Y006805D02*
X021788Y006805D01*
X021629Y006647D02*
X021435Y006647D01*
X021513Y006488D02*
X021534Y006488D01*
X021534Y006330D02*
X021513Y006330D01*
X021513Y006171D02*
X021534Y006171D01*
X021684Y006013D02*
X021380Y006013D01*
X021221Y005854D02*
X022285Y005854D01*
X022285Y005696D02*
X020752Y005696D01*
X020752Y005854D02*
X020785Y005854D01*
X020983Y005854D02*
X021023Y005854D01*
X021023Y006013D02*
X020983Y006013D01*
X020983Y006171D02*
X021023Y006171D01*
X021023Y006330D02*
X020983Y006330D01*
X020983Y006488D02*
X021023Y006488D01*
X021023Y006647D02*
X020983Y006647D01*
X020983Y006805D02*
X021023Y006805D01*
X020395Y005854D02*
X008362Y005854D01*
X008362Y005696D02*
X020395Y005696D01*
X020395Y005537D02*
X008362Y005537D01*
X008362Y005379D02*
X020395Y005379D01*
X020395Y005220D02*
X008362Y005220D01*
X008362Y005062D02*
X009864Y005062D01*
X009892Y005071D02*
X009820Y005048D01*
X009754Y005014D01*
X009693Y004970D01*
X009640Y004917D01*
X009596Y004856D01*
X009562Y004790D01*
X009539Y004718D01*
X009528Y004645D01*
X009528Y004626D01*
X009984Y004626D01*
X009984Y005082D01*
X009965Y005082D01*
X009892Y005071D01*
X009984Y005062D02*
X010021Y005062D01*
X010021Y005082D02*
X010040Y005082D01*
X010114Y005071D01*
X010185Y005048D01*
X010252Y005014D01*
X010312Y004970D01*
X010365Y004917D01*
X010409Y004856D01*
X010443Y004790D01*
X010466Y004718D01*
X010478Y004645D01*
X010478Y004626D01*
X010021Y004626D01*
X009984Y004626D01*
X009984Y004589D01*
X009528Y004589D01*
X009528Y004570D01*
X009539Y004496D01*
X009562Y004425D01*
X009596Y004358D01*
X009640Y004298D01*
X009693Y004245D01*
X009754Y004201D01*
X009820Y004167D01*
X009892Y004144D01*
X009965Y004132D01*
X009984Y004132D01*
X009984Y004589D01*
X010021Y004589D01*
X010021Y004132D01*
X010040Y004132D01*
X010114Y004144D01*
X010185Y004167D01*
X010252Y004201D01*
X010312Y004245D01*
X010365Y004298D01*
X010409Y004358D01*
X010443Y004425D01*
X010466Y004496D01*
X010478Y004570D01*
X010478Y004589D01*
X010021Y004589D01*
X010021Y004626D01*
X010021Y005082D01*
X010142Y005062D02*
X020395Y005062D01*
X020441Y004903D02*
X020321Y004903D01*
X020371Y004853D02*
X020249Y004975D01*
X020089Y005041D01*
X019916Y005041D01*
X019757Y004975D01*
X019635Y004853D01*
X019569Y004694D01*
X019569Y004521D01*
X019635Y004361D01*
X019757Y004239D01*
X019916Y004173D01*
X020089Y004173D01*
X020249Y004239D01*
X020371Y004361D01*
X020437Y004521D01*
X020437Y004694D01*
X020371Y004853D01*
X020416Y004745D02*
X020590Y004745D01*
X020569Y004586D02*
X020437Y004586D01*
X020399Y004428D02*
X020607Y004428D01*
X020727Y004269D02*
X020279Y004269D01*
X020249Y003975D02*
X020089Y004041D01*
X019916Y004041D01*
X019757Y003975D01*
X019635Y003853D01*
X019569Y003694D01*
X019569Y003521D01*
X019635Y003361D01*
X019757Y003239D01*
X019916Y003173D01*
X020089Y003173D01*
X020249Y003239D01*
X020371Y003361D01*
X020437Y003521D01*
X020437Y003694D01*
X020371Y003853D01*
X020249Y003975D01*
X020272Y003952D02*
X020734Y003952D01*
X020757Y003975D02*
X020635Y003853D01*
X020569Y003694D01*
X020569Y003521D01*
X020635Y003361D01*
X020757Y003239D01*
X020916Y003173D01*
X021089Y003173D01*
X021249Y003239D01*
X021371Y003361D01*
X021437Y003521D01*
X021437Y003694D01*
X021371Y003853D01*
X021249Y003975D01*
X021089Y004041D01*
X020916Y004041D01*
X020757Y003975D01*
X020610Y003794D02*
X020396Y003794D01*
X020437Y003635D02*
X020569Y003635D01*
X020587Y003477D02*
X020419Y003477D01*
X020328Y003318D02*
X020678Y003318D01*
X021328Y003318D02*
X021678Y003318D01*
X021635Y003361D02*
X021757Y003239D01*
X021916Y003173D01*
X022089Y003173D01*
X022249Y003239D01*
X022371Y003361D01*
X022437Y003521D01*
X022437Y003694D01*
X022371Y003853D01*
X022249Y003975D01*
X022089Y004041D01*
X021916Y004041D01*
X021757Y003975D01*
X021635Y003853D01*
X021569Y003694D01*
X021569Y003521D01*
X021635Y003361D01*
X021587Y003477D02*
X021419Y003477D01*
X021437Y003635D02*
X021569Y003635D01*
X021610Y003794D02*
X021396Y003794D01*
X021272Y003952D02*
X021734Y003952D01*
X021727Y004269D02*
X021279Y004269D01*
X021399Y004428D02*
X021607Y004428D01*
X021569Y004586D02*
X021437Y004586D01*
X021416Y004745D02*
X021590Y004745D01*
X021685Y004903D02*
X021321Y004903D01*
X020787Y005062D02*
X022211Y005062D01*
X022285Y005220D02*
X020752Y005220D01*
X020752Y005379D02*
X022285Y005379D01*
X022285Y005537D02*
X020752Y005537D01*
X019685Y004903D02*
X019321Y004903D01*
X019371Y004853D02*
X019249Y004975D01*
X019089Y005041D01*
X018916Y005041D01*
X018757Y004975D01*
X018635Y004853D01*
X018569Y004694D01*
X018569Y004521D01*
X018635Y004361D01*
X018757Y004239D01*
X018916Y004173D01*
X019089Y004173D01*
X019249Y004239D01*
X019371Y004361D01*
X019437Y004521D01*
X019437Y004694D01*
X019371Y004853D01*
X019416Y004745D02*
X019590Y004745D01*
X019569Y004586D02*
X019437Y004586D01*
X019399Y004428D02*
X019607Y004428D01*
X019727Y004269D02*
X019279Y004269D01*
X019249Y003975D02*
X019089Y004041D01*
X018916Y004041D01*
X018757Y003975D01*
X018635Y003853D01*
X018569Y003694D01*
X018569Y003521D01*
X018635Y003361D01*
X018757Y003239D01*
X018916Y003173D01*
X019089Y003173D01*
X019249Y003239D01*
X019371Y003361D01*
X019437Y003521D01*
X019437Y003694D01*
X019371Y003853D01*
X019249Y003975D01*
X019272Y003952D02*
X019734Y003952D01*
X019610Y003794D02*
X019396Y003794D01*
X019437Y003635D02*
X019569Y003635D01*
X019587Y003477D02*
X019419Y003477D01*
X019328Y003318D02*
X019678Y003318D01*
X018678Y003318D02*
X018328Y003318D01*
X018371Y003361D02*
X018437Y003521D01*
X018437Y003694D01*
X018371Y003853D01*
X018249Y003975D01*
X018089Y004041D01*
X017916Y004041D01*
X017757Y003975D01*
X017635Y003853D01*
X017569Y003694D01*
X017569Y003521D01*
X017635Y003361D01*
X017757Y003239D01*
X017916Y003173D01*
X018089Y003173D01*
X018249Y003239D01*
X018371Y003361D01*
X018419Y003477D02*
X018587Y003477D01*
X018569Y003635D02*
X018437Y003635D01*
X018396Y003794D02*
X018610Y003794D01*
X018734Y003952D02*
X018272Y003952D01*
X018089Y004173D02*
X017916Y004173D01*
X017757Y004239D01*
X017635Y004361D01*
X017569Y004521D01*
X017569Y004694D01*
X017635Y004853D01*
X017757Y004975D01*
X017916Y005041D01*
X018089Y005041D01*
X018249Y004975D01*
X018371Y004853D01*
X018437Y004694D01*
X018437Y004521D01*
X018371Y004361D01*
X018249Y004239D01*
X018089Y004173D01*
X018279Y004269D02*
X018727Y004269D01*
X018607Y004428D02*
X018399Y004428D01*
X018437Y004586D02*
X018569Y004586D01*
X018590Y004745D02*
X018416Y004745D01*
X018321Y004903D02*
X018685Y004903D01*
X017685Y004903D02*
X017321Y004903D01*
X017371Y004853D02*
X017249Y004975D01*
X017089Y005041D01*
X016916Y005041D01*
X016757Y004975D01*
X016635Y004853D01*
X016569Y004694D01*
X016569Y004521D01*
X016635Y004361D01*
X016757Y004239D01*
X016916Y004173D01*
X017089Y004173D01*
X017249Y004239D01*
X017371Y004361D01*
X017437Y004521D01*
X017437Y004694D01*
X017371Y004853D01*
X017416Y004745D02*
X017590Y004745D01*
X017569Y004586D02*
X017437Y004586D01*
X017399Y004428D02*
X017607Y004428D01*
X017727Y004269D02*
X017279Y004269D01*
X017249Y003975D02*
X017089Y004041D01*
X016916Y004041D01*
X016757Y003975D01*
X016635Y003853D01*
X016569Y003694D01*
X016569Y003521D01*
X016635Y003361D01*
X016757Y003239D01*
X016916Y003173D01*
X017089Y003173D01*
X017249Y003239D01*
X017371Y003361D01*
X017437Y003521D01*
X017437Y003694D01*
X017371Y003853D01*
X017249Y003975D01*
X017272Y003952D02*
X017734Y003952D01*
X017610Y003794D02*
X017396Y003794D01*
X017437Y003635D02*
X017569Y003635D01*
X017587Y003477D02*
X017419Y003477D01*
X017328Y003318D02*
X017678Y003318D01*
X016678Y003318D02*
X016328Y003318D01*
X016371Y003361D02*
X016437Y003521D01*
X016437Y003694D01*
X016371Y003853D01*
X016249Y003975D01*
X016089Y004041D01*
X015916Y004041D01*
X015757Y003975D01*
X015635Y003853D01*
X015569Y003694D01*
X015569Y003521D01*
X015635Y003361D01*
X015757Y003239D01*
X015916Y003173D01*
X016089Y003173D01*
X016249Y003239D01*
X016371Y003361D01*
X016419Y003477D02*
X016587Y003477D01*
X016569Y003635D02*
X016437Y003635D01*
X016396Y003794D02*
X016610Y003794D01*
X016734Y003952D02*
X016272Y003952D01*
X016089Y004173D02*
X015916Y004173D01*
X015757Y004239D01*
X015635Y004361D01*
X015569Y004521D01*
X015569Y004694D01*
X015635Y004853D01*
X015757Y004975D01*
X015916Y005041D01*
X016089Y005041D01*
X016249Y004975D01*
X016371Y004853D01*
X016437Y004694D01*
X016437Y004521D01*
X016371Y004361D01*
X016249Y004239D01*
X016089Y004173D01*
X016279Y004269D02*
X016727Y004269D01*
X016607Y004428D02*
X016399Y004428D01*
X016437Y004586D02*
X016569Y004586D01*
X016590Y004745D02*
X016416Y004745D01*
X016321Y004903D02*
X016685Y004903D01*
X015685Y004903D02*
X015321Y004903D01*
X015371Y004853D02*
X015249Y004975D01*
X015089Y005041D01*
X014916Y005041D01*
X014757Y004975D01*
X014635Y004853D01*
X014569Y004694D01*
X014569Y004521D01*
X014635Y004361D01*
X014757Y004239D01*
X014916Y004173D01*
X015089Y004173D01*
X015249Y004239D01*
X015371Y004361D01*
X015437Y004521D01*
X015437Y004694D01*
X015371Y004853D01*
X015416Y004745D02*
X015590Y004745D01*
X015569Y004586D02*
X015437Y004586D01*
X015399Y004428D02*
X015607Y004428D01*
X015727Y004269D02*
X015279Y004269D01*
X015249Y003975D02*
X015089Y004041D01*
X014916Y004041D01*
X014757Y003975D01*
X014635Y003853D01*
X014569Y003694D01*
X014569Y003521D01*
X014635Y003361D01*
X014757Y003239D01*
X014916Y003173D01*
X015089Y003173D01*
X015249Y003239D01*
X015371Y003361D01*
X015437Y003521D01*
X015437Y003694D01*
X015371Y003853D01*
X015249Y003975D01*
X015272Y003952D02*
X015734Y003952D01*
X015610Y003794D02*
X015396Y003794D01*
X015437Y003635D02*
X015569Y003635D01*
X015587Y003477D02*
X015419Y003477D01*
X015328Y003318D02*
X015678Y003318D01*
X014678Y003318D02*
X014328Y003318D01*
X014371Y003361D02*
X014437Y003521D01*
X014437Y003694D01*
X014371Y003853D01*
X014249Y003975D01*
X014089Y004041D01*
X013916Y004041D01*
X013757Y003975D01*
X013635Y003853D01*
X013569Y003694D01*
X013569Y003521D01*
X013635Y003361D01*
X013757Y003239D01*
X013916Y003173D01*
X014089Y003173D01*
X014249Y003239D01*
X014371Y003361D01*
X014419Y003477D02*
X014587Y003477D01*
X014569Y003635D02*
X014437Y003635D01*
X014396Y003794D02*
X014610Y003794D01*
X014734Y003952D02*
X014272Y003952D01*
X014089Y004173D02*
X013916Y004173D01*
X013757Y004239D01*
X013635Y004361D01*
X013569Y004521D01*
X013569Y004694D01*
X013635Y004853D01*
X013757Y004975D01*
X013916Y005041D01*
X014089Y005041D01*
X014249Y004975D01*
X014371Y004853D01*
X014437Y004694D01*
X014437Y004521D01*
X014371Y004361D01*
X014249Y004239D01*
X014089Y004173D01*
X014279Y004269D02*
X014727Y004269D01*
X014607Y004428D02*
X014399Y004428D01*
X014437Y004586D02*
X014569Y004586D01*
X014590Y004745D02*
X014416Y004745D01*
X014321Y004903D02*
X014685Y004903D01*
X013685Y004903D02*
X013321Y004903D01*
X013371Y004853D02*
X013249Y004975D01*
X013089Y005041D01*
X012916Y005041D01*
X012757Y004975D01*
X012635Y004853D01*
X012569Y004694D01*
X012569Y004521D01*
X012635Y004361D01*
X012757Y004239D01*
X012916Y004173D01*
X013089Y004173D01*
X013249Y004239D01*
X013371Y004361D01*
X013437Y004521D01*
X013437Y004694D01*
X013371Y004853D01*
X013416Y004745D02*
X013590Y004745D01*
X013569Y004586D02*
X013437Y004586D01*
X013399Y004428D02*
X013607Y004428D01*
X013727Y004269D02*
X013279Y004269D01*
X013249Y003975D02*
X013089Y004041D01*
X012916Y004041D01*
X012757Y003975D01*
X012635Y003853D01*
X012569Y003694D01*
X012569Y003521D01*
X012635Y003361D01*
X012757Y003239D01*
X012916Y003173D01*
X013089Y003173D01*
X013249Y003239D01*
X013371Y003361D01*
X013437Y003521D01*
X013437Y003694D01*
X013371Y003853D01*
X013249Y003975D01*
X013272Y003952D02*
X013734Y003952D01*
X013610Y003794D02*
X013396Y003794D01*
X013437Y003635D02*
X013569Y003635D01*
X013587Y003477D02*
X013419Y003477D01*
X013328Y003318D02*
X013678Y003318D01*
X012678Y003318D02*
X012328Y003318D01*
X012371Y003361D02*
X012437Y003521D01*
X012437Y003694D01*
X012371Y003853D01*
X012249Y003975D01*
X012089Y004041D01*
X011916Y004041D01*
X011757Y003975D01*
X011635Y003853D01*
X011569Y003694D01*
X011569Y003521D01*
X011635Y003361D01*
X011757Y003239D01*
X011916Y003173D01*
X012089Y003173D01*
X012249Y003239D01*
X012371Y003361D01*
X012419Y003477D02*
X012587Y003477D01*
X012569Y003635D02*
X012437Y003635D01*
X012396Y003794D02*
X012610Y003794D01*
X012734Y003952D02*
X012272Y003952D01*
X012089Y004173D02*
X011916Y004173D01*
X011757Y004239D01*
X011635Y004361D01*
X011569Y004521D01*
X011569Y004694D01*
X011635Y004853D01*
X011757Y004975D01*
X011916Y005041D01*
X012089Y005041D01*
X012249Y004975D01*
X012371Y004853D01*
X012437Y004694D01*
X012437Y004521D01*
X012371Y004361D01*
X012249Y004239D01*
X012089Y004173D01*
X012279Y004269D02*
X012727Y004269D01*
X012607Y004428D02*
X012399Y004428D01*
X012437Y004586D02*
X012569Y004586D01*
X012590Y004745D02*
X012416Y004745D01*
X012321Y004903D02*
X012685Y004903D01*
X011685Y004903D02*
X011321Y004903D01*
X011371Y004853D02*
X011249Y004975D01*
X011089Y005041D01*
X010916Y005041D01*
X010757Y004975D01*
X010635Y004853D01*
X010569Y004694D01*
X010569Y004521D01*
X010635Y004361D01*
X010757Y004239D01*
X010916Y004173D01*
X011089Y004173D01*
X011249Y004239D01*
X011371Y004361D01*
X011437Y004521D01*
X011437Y004694D01*
X011371Y004853D01*
X011416Y004745D02*
X011590Y004745D01*
X011569Y004586D02*
X011437Y004586D01*
X011399Y004428D02*
X011607Y004428D01*
X011727Y004269D02*
X011279Y004269D01*
X011249Y003975D02*
X011089Y004041D01*
X010916Y004041D01*
X010757Y003975D01*
X010635Y003853D01*
X010569Y003694D01*
X010569Y003521D01*
X010635Y003361D01*
X010757Y003239D01*
X010916Y003173D01*
X011089Y003173D01*
X011249Y003239D01*
X011371Y003361D01*
X011437Y003521D01*
X011437Y003694D01*
X011371Y003853D01*
X011249Y003975D01*
X011272Y003952D02*
X011734Y003952D01*
X011610Y003794D02*
X011396Y003794D01*
X011437Y003635D02*
X011569Y003635D01*
X011587Y003477D02*
X011419Y003477D01*
X011328Y003318D02*
X011678Y003318D01*
X010678Y003318D02*
X010478Y003318D01*
X010478Y003288D02*
X010478Y003589D01*
X010021Y003589D01*
X010021Y003132D01*
X010322Y003132D01*
X010368Y003144D01*
X010409Y003168D01*
X010442Y003201D01*
X010466Y003242D01*
X010478Y003288D01*
X010394Y003160D02*
X030842Y003160D01*
X030820Y003167D02*
X030892Y003144D01*
X030965Y003132D01*
X030984Y003132D01*
X030984Y003589D01*
X030528Y003589D01*
X030528Y003570D01*
X030539Y003496D01*
X030562Y003425D01*
X030596Y003358D01*
X030640Y003298D01*
X030693Y003245D01*
X030754Y003201D01*
X030820Y003167D01*
X030984Y003160D02*
X031021Y003160D01*
X031021Y003132D02*
X031040Y003132D01*
X031114Y003144D01*
X031185Y003167D01*
X031252Y003201D01*
X031312Y003245D01*
X031365Y003298D01*
X031409Y003358D01*
X031443Y003425D01*
X031466Y003496D01*
X031478Y003570D01*
X031478Y003589D01*
X031021Y003589D01*
X031021Y003132D01*
X031164Y003160D02*
X031842Y003160D01*
X031820Y003167D02*
X031892Y003144D01*
X031965Y003132D01*
X031984Y003132D01*
X031984Y003589D01*
X031528Y003589D01*
X031528Y003570D01*
X031539Y003496D01*
X031562Y003425D01*
X031596Y003358D01*
X031640Y003298D01*
X031693Y003245D01*
X031754Y003201D01*
X031820Y003167D01*
X031984Y003160D02*
X032021Y003160D01*
X032021Y003132D02*
X032040Y003132D01*
X032114Y003144D01*
X032185Y003167D01*
X032252Y003201D01*
X032312Y003245D01*
X032365Y003298D01*
X032409Y003358D01*
X032443Y003425D01*
X032466Y003496D01*
X032478Y003570D01*
X032478Y003589D01*
X032021Y003589D01*
X032021Y003132D01*
X032013Y003001D02*
X008362Y003001D01*
X008362Y003160D02*
X009611Y003160D01*
X009597Y003168D02*
X009638Y003144D01*
X009684Y003132D01*
X009984Y003132D01*
X009984Y003589D01*
X009528Y003589D01*
X009528Y003288D01*
X009540Y003242D01*
X009564Y003201D01*
X009597Y003168D01*
X009528Y003318D02*
X008362Y003318D01*
X008362Y003477D02*
X009528Y003477D01*
X009528Y003626D02*
X009984Y003626D01*
X009984Y004082D01*
X009684Y004082D01*
X009638Y004070D01*
X009597Y004046D01*
X009564Y004013D01*
X009540Y003972D01*
X009528Y003926D01*
X009528Y003626D01*
X009528Y003635D02*
X008362Y003635D01*
X008362Y003794D02*
X009528Y003794D01*
X009535Y003952D02*
X008362Y003952D01*
X008362Y004111D02*
X023860Y004111D01*
X023734Y003952D02*
X023272Y003952D01*
X023249Y003975D02*
X023089Y004041D01*
X022916Y004041D01*
X022757Y003975D01*
X022635Y003853D01*
X022569Y003694D01*
X022569Y003521D01*
X022635Y003361D01*
X022757Y003239D01*
X022916Y003173D01*
X023089Y003173D01*
X023249Y003239D01*
X023371Y003361D01*
X023437Y003521D01*
X023437Y003694D01*
X023371Y003853D01*
X023249Y003975D01*
X023396Y003794D02*
X023610Y003794D01*
X023569Y003635D02*
X023437Y003635D01*
X023419Y003477D02*
X023587Y003477D01*
X023678Y003318D02*
X023328Y003318D01*
X022678Y003318D02*
X022328Y003318D01*
X022419Y003477D02*
X022587Y003477D01*
X022569Y003635D02*
X022437Y003635D01*
X022396Y003794D02*
X022610Y003794D01*
X022734Y003952D02*
X022272Y003952D01*
X022279Y004269D02*
X022727Y004269D01*
X022757Y004239D02*
X022916Y004173D01*
X023089Y004173D01*
X023249Y004239D01*
X023371Y004361D01*
X023437Y004521D01*
X023437Y004694D01*
X023371Y004853D01*
X023249Y004975D01*
X023089Y005041D01*
X022916Y005041D01*
X022757Y004975D01*
X022635Y004853D01*
X022569Y004694D01*
X022569Y004521D01*
X022635Y004361D01*
X022757Y004239D01*
X022607Y004428D02*
X022399Y004428D01*
X022437Y004586D02*
X022569Y004586D01*
X022590Y004745D02*
X022416Y004745D01*
X022557Y004903D02*
X022685Y004903D01*
X022642Y005062D02*
X023820Y005062D01*
X023820Y005220D02*
X022642Y005220D01*
X022642Y005379D02*
X023820Y005379D01*
X023820Y005537D02*
X022642Y005537D01*
X022642Y005696D02*
X023782Y005696D01*
X023624Y005854D02*
X022642Y005854D01*
X022642Y006013D02*
X022684Y006013D01*
X023322Y006013D02*
X023465Y006013D01*
X023626Y006647D02*
X023629Y006647D01*
X023626Y006805D02*
X023788Y006805D01*
X023733Y006964D02*
X023626Y006964D01*
X023574Y007122D02*
X023490Y007122D01*
X023472Y007281D02*
X023534Y007281D01*
X023534Y007439D02*
X023472Y007439D01*
X023426Y007598D02*
X023534Y007598D01*
X023387Y007756D02*
X023267Y007756D01*
X023387Y007915D02*
X022642Y007915D01*
X022642Y008073D02*
X023387Y008073D01*
X023387Y008232D02*
X022642Y008232D01*
X022642Y008390D02*
X023387Y008390D01*
X023387Y008549D02*
X022642Y008549D01*
X022642Y008707D02*
X023387Y008707D01*
X023387Y008866D02*
X022642Y008866D01*
X022642Y009024D02*
X023387Y009024D01*
X023387Y009183D02*
X022742Y009183D01*
X022901Y009341D02*
X023387Y009341D01*
X023387Y009500D02*
X023059Y009500D01*
X023218Y009658D02*
X023387Y009658D01*
X023376Y009817D02*
X023387Y009817D01*
X023535Y009975D02*
X023542Y009975D01*
X023693Y010134D02*
X023700Y010134D01*
X023852Y010292D02*
X024607Y010292D01*
X024765Y010451D02*
X024010Y010451D01*
X024169Y010609D02*
X024924Y010609D01*
X025082Y010768D02*
X024327Y010768D01*
X024486Y010926D02*
X025241Y010926D01*
X025399Y011085D02*
X024644Y011085D01*
X024803Y011243D02*
X025153Y011243D01*
X025034Y011402D02*
X024961Y011402D01*
X024617Y011877D02*
X023704Y011877D01*
X023546Y011719D02*
X024458Y011719D01*
X024300Y011560D02*
X023387Y011560D01*
X023229Y011402D02*
X024141Y011402D01*
X023983Y011243D02*
X023070Y011243D01*
X022912Y011085D02*
X023824Y011085D01*
X023666Y010926D02*
X022753Y010926D01*
X022595Y010768D02*
X023507Y010768D01*
X023349Y010609D02*
X022436Y010609D01*
X022278Y010451D02*
X023190Y010451D01*
X023032Y010292D02*
X022119Y010292D01*
X021961Y010134D02*
X022873Y010134D01*
X022715Y009975D02*
X021802Y009975D01*
X021644Y009817D02*
X022556Y009817D01*
X022398Y009658D02*
X021485Y009658D01*
X021327Y009500D02*
X022239Y009500D01*
X022269Y009024D02*
X022285Y009024D01*
X022285Y008866D02*
X022110Y008866D01*
X021952Y008707D02*
X022285Y008707D01*
X022285Y008549D02*
X021793Y008549D01*
X022267Y007756D02*
X022285Y007756D01*
X022642Y007756D02*
X022739Y007756D01*
X022285Y006964D02*
X022273Y006964D01*
X022285Y006805D02*
X022218Y006805D01*
X023744Y007915D02*
X024122Y007915D01*
X024267Y007756D02*
X024281Y007756D01*
X024426Y007598D02*
X024439Y007598D01*
X024472Y007439D02*
X024598Y007439D01*
X024472Y007281D02*
X024756Y007281D01*
X024915Y007122D02*
X024431Y007122D01*
X024273Y006964D02*
X025073Y006964D01*
X025232Y006805D02*
X024218Y006805D01*
X024377Y006647D02*
X025390Y006647D01*
X025549Y006488D02*
X024472Y006488D01*
X024472Y006330D02*
X025707Y006330D01*
X025707Y006171D02*
X024472Y006171D01*
X024600Y006013D02*
X025600Y006013D01*
X025571Y005854D02*
X024610Y005854D01*
X024610Y005696D02*
X025603Y005696D01*
X025713Y005537D02*
X024610Y005537D01*
X024610Y005379D02*
X035712Y005379D01*
X035793Y005537D02*
X029434Y005537D01*
X029434Y005507D02*
X029434Y006207D01*
X029353Y006289D01*
X028653Y006289D01*
X028571Y006207D01*
X028571Y005507D01*
X028653Y005426D01*
X029353Y005426D01*
X029434Y005507D01*
X029434Y005696D02*
X035874Y005696D01*
X035955Y005854D02*
X029434Y005854D01*
X029434Y006013D02*
X036030Y006013D01*
X036082Y006171D02*
X029434Y006171D01*
X029250Y006453D02*
X029184Y006419D01*
X029113Y006396D01*
X029040Y006385D01*
X029020Y006385D01*
X029020Y006840D01*
X028985Y006840D01*
X028530Y006840D01*
X028530Y006820D01*
X028542Y006747D01*
X028565Y006676D01*
X028599Y006610D01*
X028642Y006549D01*
X028695Y006497D01*
X028755Y006453D01*
X028821Y006419D01*
X028892Y006396D01*
X028966Y006385D01*
X028985Y006385D01*
X028985Y006840D01*
X028985Y006875D01*
X028530Y006875D01*
X028530Y006894D01*
X028542Y006968D01*
X028565Y007039D01*
X028599Y007105D01*
X028642Y007165D01*
X028695Y007218D01*
X028755Y007261D01*
X028821Y007295D01*
X028892Y007318D01*
X028966Y007330D01*
X028985Y007330D01*
X028985Y006875D01*
X029020Y006875D01*
X029020Y007330D01*
X029040Y007330D01*
X029113Y007318D01*
X029184Y007295D01*
X029250Y007261D01*
X029311Y007218D01*
X029363Y007165D01*
X029407Y007105D01*
X029441Y007039D01*
X029464Y006968D01*
X029475Y006894D01*
X029475Y006875D01*
X029020Y006875D01*
X029020Y006840D01*
X029475Y006840D01*
X029475Y006820D01*
X029464Y006747D01*
X029441Y006676D01*
X029407Y006610D01*
X029363Y006549D01*
X029311Y006497D01*
X029250Y006453D01*
X029299Y006488D02*
X036185Y006488D01*
X036133Y006330D02*
X026146Y006330D01*
X026240Y006488D02*
X028707Y006488D01*
X028580Y006647D02*
X026383Y006647D01*
X026434Y006805D02*
X028533Y006805D01*
X028541Y006964D02*
X026426Y006964D01*
X026348Y007122D02*
X028611Y007122D01*
X028793Y007281D02*
X026234Y007281D01*
X026392Y007439D02*
X028884Y007439D01*
X028917Y007426D02*
X029089Y007426D01*
X029247Y007491D01*
X029369Y007613D01*
X029434Y007771D01*
X029434Y007943D01*
X029369Y008102D01*
X029247Y008223D01*
X029089Y008289D01*
X028917Y008289D01*
X028758Y008223D01*
X028637Y008102D01*
X028571Y007943D01*
X028571Y007771D01*
X028637Y007613D01*
X028758Y007491D01*
X028917Y007426D01*
X028985Y007281D02*
X029020Y007281D01*
X029020Y007122D02*
X028985Y007122D01*
X028985Y006964D02*
X029020Y006964D01*
X029020Y006805D02*
X028985Y006805D01*
X028985Y006647D02*
X029020Y006647D01*
X029020Y006488D02*
X028985Y006488D01*
X029426Y006647D02*
X036236Y006647D01*
X036273Y006805D02*
X029473Y006805D01*
X029464Y006964D02*
X036298Y006964D01*
X036323Y007122D02*
X029394Y007122D01*
X029212Y007281D02*
X036348Y007281D01*
X036373Y007439D02*
X029121Y007439D01*
X029354Y007598D02*
X036384Y007598D01*
X036390Y007756D02*
X029428Y007756D01*
X029434Y007915D02*
X036394Y007915D01*
X036394Y008073D02*
X029380Y008073D01*
X029226Y008232D02*
X036394Y008232D01*
X036394Y008390D02*
X027343Y008390D01*
X027185Y008232D02*
X028779Y008232D01*
X028625Y008073D02*
X027026Y008073D01*
X026868Y007915D02*
X028571Y007915D01*
X028578Y007756D02*
X026709Y007756D01*
X026551Y007598D02*
X028652Y007598D01*
X028917Y008426D02*
X028758Y008491D01*
X028637Y008613D01*
X028571Y008771D01*
X028571Y008943D01*
X028637Y009102D01*
X028758Y009223D01*
X028917Y009289D01*
X029089Y009289D01*
X029247Y009223D01*
X029369Y009102D01*
X029434Y008943D01*
X029434Y008771D01*
X029369Y008613D01*
X029247Y008491D01*
X029089Y008426D01*
X028917Y008426D01*
X028701Y008549D02*
X027502Y008549D01*
X027660Y008707D02*
X028598Y008707D01*
X028571Y008866D02*
X027819Y008866D01*
X027977Y009024D02*
X028605Y009024D01*
X028718Y009183D02*
X028136Y009183D01*
X028294Y009341D02*
X036394Y009341D01*
X036394Y009183D02*
X029288Y009183D01*
X029401Y009024D02*
X036394Y009024D01*
X036394Y008866D02*
X029434Y008866D01*
X029408Y008707D02*
X036394Y008707D01*
X036394Y008549D02*
X029305Y008549D01*
X028453Y009500D02*
X036394Y009500D01*
X036394Y009658D02*
X028611Y009658D01*
X028770Y009817D02*
X036394Y009817D01*
X036394Y009975D02*
X028928Y009975D01*
X029087Y010134D02*
X036394Y010134D01*
X036394Y010292D02*
X029245Y010292D01*
X029404Y010451D02*
X036394Y010451D01*
X036394Y010609D02*
X029562Y010609D01*
X029721Y010768D02*
X036394Y010768D01*
X036394Y010926D02*
X029879Y010926D01*
X030038Y011085D02*
X036394Y011085D01*
X036394Y011243D02*
X030196Y011243D01*
X030355Y011402D02*
X036394Y011402D01*
X036394Y011560D02*
X030513Y011560D01*
X030672Y011719D02*
X036394Y011719D01*
X036394Y011877D02*
X030830Y011877D01*
X030989Y012036D02*
X036394Y012036D01*
X036394Y012194D02*
X031147Y012194D01*
X031306Y012353D02*
X036394Y012353D01*
X036394Y012511D02*
X031464Y012511D01*
X031623Y012670D02*
X036394Y012670D01*
X036394Y012828D02*
X031781Y012828D01*
X031940Y012987D02*
X036394Y012987D01*
X036394Y013145D02*
X032098Y013145D01*
X032257Y013304D02*
X034152Y013304D01*
X034116Y013339D02*
X034223Y013233D01*
X034362Y013175D01*
X034513Y013175D01*
X034653Y013233D01*
X034759Y013339D01*
X034817Y013479D01*
X034817Y013629D01*
X034759Y013769D01*
X034653Y013875D01*
X034513Y013933D01*
X034362Y013933D01*
X034223Y013875D01*
X034116Y013769D01*
X034059Y013629D01*
X034059Y013479D01*
X034116Y013339D01*
X034065Y013462D02*
X032415Y013462D01*
X032574Y013621D02*
X034059Y013621D01*
X034127Y013779D02*
X032732Y013779D01*
X032891Y013938D02*
X034910Y013938D01*
X034901Y013951D02*
X034943Y013892D01*
X034995Y013841D01*
X035053Y013798D01*
X035118Y013766D01*
X035186Y013743D01*
X035258Y013732D01*
X035294Y013732D01*
X035294Y014192D01*
X035294Y014652D01*
X035258Y014652D01*
X035186Y014640D01*
X035118Y014618D01*
X035053Y014585D01*
X034995Y014543D01*
X034943Y014491D01*
X034901Y014433D01*
X034868Y014368D01*
X034845Y014300D01*
X034834Y014228D01*
X034834Y014192D01*
X035294Y014192D01*
X035294Y014192D01*
X035294Y014192D01*
X035294Y014652D01*
X035330Y014652D01*
X035402Y014640D01*
X035471Y014618D01*
X035535Y014585D01*
X035594Y014543D01*
X035645Y014491D01*
X035688Y014433D01*
X035720Y014368D01*
X035743Y014300D01*
X035754Y014228D01*
X035754Y014192D01*
X035294Y014192D01*
X034834Y014192D01*
X034834Y014156D01*
X034845Y014084D01*
X034868Y014015D01*
X034901Y013951D01*
X034844Y014096D02*
X033049Y014096D01*
X033208Y014255D02*
X034838Y014255D01*
X034891Y014413D02*
X034608Y014413D01*
X034649Y014454D02*
X034713Y014608D01*
X034713Y014775D01*
X034649Y014929D01*
X034532Y015047D01*
X034378Y015111D01*
X034211Y015111D01*
X034057Y015047D01*
X033939Y014929D01*
X033875Y014775D01*
X033875Y014608D01*
X033939Y014454D01*
X034057Y014337D01*
X034211Y014273D01*
X034378Y014273D01*
X034532Y014337D01*
X034649Y014454D01*
X034698Y014572D02*
X035034Y014572D01*
X035294Y014572D02*
X035294Y014572D01*
X035294Y014413D02*
X035294Y014413D01*
X035294Y014255D02*
X035294Y014255D01*
X035294Y014192D02*
X035294Y014192D01*
X035294Y014192D01*
X035294Y013732D01*
X035330Y013732D01*
X035402Y013743D01*
X035471Y013766D01*
X035535Y013798D01*
X035594Y013841D01*
X035645Y013892D01*
X035688Y013951D01*
X035720Y014015D01*
X035743Y014084D01*
X035754Y014156D01*
X035754Y014192D01*
X035294Y014192D01*
X035294Y014096D02*
X035294Y014096D01*
X035294Y013938D02*
X035294Y013938D01*
X035294Y013779D02*
X035294Y013779D01*
X035091Y013779D02*
X034749Y013779D01*
X034817Y013621D02*
X036394Y013621D01*
X036394Y013779D02*
X035498Y013779D01*
X035678Y013938D02*
X036394Y013938D01*
X036394Y014096D02*
X035745Y014096D01*
X035750Y014255D02*
X036394Y014255D01*
X036394Y014413D02*
X035698Y014413D01*
X035554Y014572D02*
X036394Y014572D01*
X036394Y014730D02*
X034713Y014730D01*
X034666Y014889D02*
X035005Y014889D01*
X034900Y015047D02*
X034531Y015047D01*
X034559Y015364D02*
X034912Y015364D01*
X034875Y015206D02*
X034159Y015206D01*
X034057Y015047D02*
X034000Y015047D01*
X033922Y014889D02*
X033842Y014889D01*
X033875Y014730D02*
X033683Y014730D01*
X033525Y014572D02*
X033890Y014572D01*
X033980Y014413D02*
X033366Y014413D01*
X032826Y015047D02*
X031156Y015047D01*
X031314Y014889D02*
X032668Y014889D01*
X032509Y014730D02*
X031473Y014730D01*
X031631Y014572D02*
X032351Y014572D01*
X032192Y014413D02*
X031790Y014413D01*
X031948Y014255D02*
X032034Y014255D01*
X032985Y015206D02*
X030997Y015206D01*
X030839Y015364D02*
X033143Y015364D01*
X033302Y015523D02*
X030680Y015523D01*
X030522Y015681D02*
X033460Y015681D01*
X033619Y015840D02*
X030363Y015840D01*
X030205Y015998D02*
X033777Y015998D01*
X033936Y016157D02*
X030046Y016157D01*
X029888Y016315D02*
X034094Y016315D01*
X033931Y016474D02*
X029729Y016474D01*
X029571Y016632D02*
X033875Y016632D01*
X033882Y016791D02*
X029412Y016791D01*
X029254Y016949D02*
X033959Y016949D01*
X034203Y017108D02*
X029095Y017108D01*
X028937Y017266D02*
X034116Y017266D01*
X034118Y017266D02*
X034186Y017243D01*
X034258Y017232D01*
X034294Y017232D01*
X034294Y017692D01*
X034294Y018152D01*
X034258Y018152D01*
X034186Y018140D01*
X034118Y018118D01*
X034053Y018085D01*
X033995Y018043D01*
X033943Y017991D01*
X033901Y017933D01*
X033868Y017868D01*
X033845Y017800D01*
X033834Y017728D01*
X033834Y017692D01*
X034294Y017692D01*
X034294Y017692D01*
X034294Y017692D01*
X034294Y018152D01*
X034330Y018152D01*
X034402Y018140D01*
X034471Y018118D01*
X034535Y018085D01*
X034594Y018043D01*
X034645Y017991D01*
X034688Y017933D01*
X034720Y017868D01*
X034743Y017800D01*
X034754Y017728D01*
X034754Y017692D01*
X034294Y017692D01*
X033834Y017692D01*
X033834Y017656D01*
X033845Y017584D01*
X033868Y017515D01*
X033901Y017451D01*
X033943Y017392D01*
X033995Y017341D01*
X034053Y017298D01*
X034118Y017266D01*
X034294Y017266D02*
X034294Y017266D01*
X034294Y017232D02*
X034330Y017232D01*
X034402Y017243D01*
X034471Y017266D01*
X034535Y017298D01*
X034594Y017341D01*
X034645Y017392D01*
X034688Y017451D01*
X034720Y017515D01*
X034743Y017584D01*
X034754Y017656D01*
X034754Y017692D01*
X034294Y017692D01*
X034294Y017692D01*
X034294Y017692D01*
X034294Y017232D01*
X034385Y017108D02*
X034875Y017108D01*
X034939Y016954D01*
X035057Y016837D01*
X035211Y016773D01*
X035378Y016773D01*
X035532Y016837D01*
X035649Y016954D01*
X035713Y017108D01*
X036394Y017108D01*
X036394Y017266D02*
X035713Y017266D01*
X035713Y017275D02*
X035680Y017356D01*
X035988Y017665D01*
X035988Y019900D01*
X035884Y020004D01*
X035465Y020423D01*
X035606Y020482D01*
X035763Y020639D01*
X035848Y020844D01*
X035848Y021067D01*
X035763Y021272D01*
X035606Y021430D01*
X035400Y021515D01*
X034338Y021515D01*
X034132Y021430D01*
X033975Y021272D01*
X033890Y021067D01*
X033890Y020844D01*
X033975Y020639D01*
X034132Y020482D01*
X034338Y020397D01*
X034987Y020397D01*
X035206Y020178D01*
X034929Y020178D01*
X034929Y019638D01*
X034809Y019638D01*
X034809Y020178D01*
X034402Y020178D01*
X034308Y020163D01*
X034219Y020134D01*
X034135Y020091D01*
X034058Y020035D01*
X033991Y019969D01*
X033936Y019892D01*
X033893Y019808D01*
X033864Y019718D01*
X033851Y019638D01*
X034809Y019638D01*
X034809Y019518D01*
X033851Y019518D01*
X033864Y019437D01*
X033893Y019347D01*
X033936Y019263D01*
X033991Y019187D01*
X034058Y019120D01*
X034135Y019064D01*
X034219Y019022D01*
X034308Y018992D01*
X034402Y018978D01*
X034809Y018978D01*
X034809Y019518D01*
X034929Y019518D01*
X034929Y018978D01*
X035336Y018978D01*
X035429Y018992D01*
X035519Y019022D01*
X035603Y019064D01*
X035631Y019085D01*
X035631Y017813D01*
X035414Y017596D01*
X035378Y017611D01*
X035211Y017611D01*
X035057Y017547D01*
X034939Y017429D01*
X034875Y017275D01*
X034875Y017108D01*
X034875Y017266D02*
X034472Y017266D01*
X034294Y017425D02*
X034294Y017425D01*
X034294Y017583D02*
X034294Y017583D01*
X034294Y017742D02*
X034294Y017742D01*
X034294Y017900D02*
X034294Y017900D01*
X034294Y018059D02*
X034294Y018059D01*
X034017Y018059D02*
X028144Y018059D01*
X027986Y018217D02*
X035631Y018217D01*
X035631Y018059D02*
X034572Y018059D01*
X034704Y017900D02*
X035631Y017900D01*
X035560Y017742D02*
X034752Y017742D01*
X034743Y017583D02*
X035144Y017583D01*
X034937Y017425D02*
X034669Y017425D01*
X034629Y016949D02*
X034944Y016949D01*
X035167Y016791D02*
X034707Y016791D01*
X034713Y016632D02*
X036394Y016632D01*
X036394Y016474D02*
X035605Y016474D01*
X035649Y016429D02*
X035532Y016547D01*
X035378Y016611D01*
X035211Y016611D01*
X035057Y016547D01*
X034939Y016429D01*
X034875Y016275D01*
X034875Y016108D01*
X034939Y015954D01*
X035057Y015837D01*
X035211Y015773D01*
X035378Y015773D01*
X035532Y015837D01*
X035649Y015954D01*
X035713Y016108D01*
X035713Y016275D01*
X035649Y016429D01*
X035697Y016315D02*
X036394Y016315D01*
X036394Y016157D02*
X035713Y016157D01*
X035668Y015998D02*
X036394Y015998D01*
X036394Y015840D02*
X035535Y015840D01*
X035556Y015523D02*
X036394Y015523D01*
X036394Y015681D02*
X035128Y015681D01*
X035054Y015840D02*
X034969Y015840D01*
X034921Y015998D02*
X034811Y015998D01*
X034875Y016157D02*
X034652Y016157D01*
X034494Y016315D02*
X034892Y016315D01*
X034983Y016474D02*
X034657Y016474D01*
X035421Y016791D02*
X036394Y016791D01*
X036394Y016949D02*
X035644Y016949D01*
X035713Y017108D02*
X035713Y017275D01*
X035748Y017425D02*
X036394Y017425D01*
X036394Y017583D02*
X035906Y017583D01*
X035988Y017742D02*
X036394Y017742D01*
X036394Y017900D02*
X035988Y017900D01*
X035988Y018059D02*
X036394Y018059D01*
X036394Y018217D02*
X035988Y018217D01*
X035988Y018376D02*
X036394Y018376D01*
X036394Y018534D02*
X035988Y018534D01*
X035988Y018693D02*
X036394Y018693D01*
X036394Y018851D02*
X035988Y018851D01*
X035988Y019010D02*
X036394Y019010D01*
X036394Y019168D02*
X035988Y019168D01*
X035988Y019327D02*
X036394Y019327D01*
X036389Y019485D02*
X035988Y019485D01*
X035988Y019644D02*
X036383Y019644D01*
X036369Y019802D02*
X035988Y019802D01*
X035927Y019961D02*
X036344Y019961D01*
X036319Y020119D02*
X035769Y020119D01*
X035610Y020278D02*
X036294Y020278D01*
X036269Y020436D02*
X035496Y020436D01*
X035719Y020595D02*
X036228Y020595D01*
X036176Y020753D02*
X035810Y020753D01*
X035848Y020912D02*
X036125Y020912D01*
X036073Y021070D02*
X035847Y021070D01*
X035781Y021229D02*
X036022Y021229D01*
X035941Y021387D02*
X035648Y021387D01*
X035860Y021546D02*
X024650Y021546D01*
X024650Y021704D02*
X035779Y021704D01*
X035699Y021863D02*
X024650Y021863D01*
X024650Y022021D02*
X035594Y022021D01*
X035479Y022180D02*
X032106Y022180D01*
X032089Y022173D02*
X032249Y022239D01*
X032371Y022361D01*
X032437Y022521D01*
X032437Y022694D01*
X032371Y022853D01*
X032249Y022975D01*
X032089Y023041D01*
X031916Y023041D01*
X031757Y022975D01*
X031635Y022853D01*
X031569Y022694D01*
X031569Y022521D01*
X031635Y022361D01*
X031757Y022239D01*
X031916Y022173D01*
X032089Y022173D01*
X031900Y022180D02*
X031106Y022180D01*
X031089Y022173D02*
X031249Y022239D01*
X031371Y022361D01*
X031437Y022521D01*
X031437Y022694D01*
X031371Y022853D01*
X031249Y022975D01*
X031089Y023041D01*
X030916Y023041D01*
X030757Y022975D01*
X030635Y022853D01*
X030569Y022694D01*
X030569Y022521D01*
X030635Y022361D01*
X030757Y022239D01*
X030916Y022173D01*
X031089Y022173D01*
X030900Y022180D02*
X030106Y022180D01*
X030089Y022173D02*
X030249Y022239D01*
X030371Y022361D01*
X030437Y022521D01*
X030437Y022694D01*
X030371Y022853D01*
X030249Y022975D01*
X030089Y023041D01*
X029916Y023041D01*
X029757Y022975D01*
X029635Y022853D01*
X029569Y022694D01*
X029569Y022521D01*
X029635Y022361D01*
X029757Y022239D01*
X029916Y022173D01*
X030089Y022173D01*
X029900Y022180D02*
X029106Y022180D01*
X029089Y022173D02*
X029249Y022239D01*
X029371Y022361D01*
X029437Y022521D01*
X029437Y022694D01*
X029371Y022853D01*
X029249Y022975D01*
X029089Y023041D01*
X028916Y023041D01*
X028757Y022975D01*
X028635Y022853D01*
X028569Y022694D01*
X028569Y022521D01*
X028635Y022361D01*
X028757Y022239D01*
X028916Y022173D01*
X029089Y022173D01*
X028900Y022180D02*
X028106Y022180D01*
X028089Y022173D02*
X028249Y022239D01*
X028371Y022361D01*
X028437Y022521D01*
X028437Y022694D01*
X028371Y022853D01*
X028249Y022975D01*
X028089Y023041D01*
X027916Y023041D01*
X027757Y022975D01*
X027635Y022853D01*
X027569Y022694D01*
X027569Y022521D01*
X027635Y022361D01*
X027757Y022239D01*
X027916Y022173D01*
X028089Y022173D01*
X027900Y022180D02*
X027106Y022180D01*
X027089Y022173D02*
X027249Y022239D01*
X027371Y022361D01*
X027437Y022521D01*
X027437Y022694D01*
X027371Y022853D01*
X027249Y022975D01*
X027089Y023041D01*
X026916Y023041D01*
X026757Y022975D01*
X026635Y022853D01*
X026569Y022694D01*
X026569Y022521D01*
X026635Y022361D01*
X026757Y022239D01*
X026916Y022173D01*
X027089Y022173D01*
X026900Y022180D02*
X026106Y022180D01*
X026089Y022173D02*
X026249Y022239D01*
X026371Y022361D01*
X026437Y022521D01*
X026437Y022694D01*
X026371Y022853D01*
X026249Y022975D01*
X026089Y023041D01*
X025916Y023041D01*
X025757Y022975D01*
X025635Y022853D01*
X025569Y022694D01*
X025569Y022521D01*
X025635Y022361D01*
X025757Y022239D01*
X025916Y022173D01*
X026089Y022173D01*
X025900Y022180D02*
X025106Y022180D01*
X024900Y022180D02*
X024650Y022180D01*
X024650Y022338D02*
X024658Y022338D01*
X024618Y022814D02*
X024610Y022814D01*
X024532Y022972D02*
X024754Y022972D01*
X024582Y023131D02*
X034605Y023131D01*
X034783Y022972D02*
X032252Y022972D01*
X032387Y022814D02*
X034942Y022814D01*
X035100Y022655D02*
X032437Y022655D01*
X032427Y022497D02*
X035249Y022497D01*
X035364Y022338D02*
X032348Y022338D01*
X031658Y022338D02*
X031348Y022338D01*
X031427Y022497D02*
X031578Y022497D01*
X031569Y022655D02*
X031437Y022655D01*
X031387Y022814D02*
X031618Y022814D01*
X031754Y022972D02*
X031252Y022972D01*
X031089Y023173D02*
X031249Y023239D01*
X031371Y023361D01*
X031437Y023521D01*
X031437Y023694D01*
X031371Y023853D01*
X031249Y023975D01*
X031089Y024041D01*
X030916Y024041D01*
X030757Y023975D01*
X030635Y023853D01*
X030569Y023694D01*
X030569Y023521D01*
X030635Y023361D01*
X030757Y023239D01*
X030916Y023173D01*
X031089Y023173D01*
X031299Y023289D02*
X031707Y023289D01*
X031757Y023239D02*
X031916Y023173D01*
X032089Y023173D01*
X032249Y023239D01*
X032371Y023361D01*
X032437Y023521D01*
X032437Y023694D01*
X032371Y023853D01*
X032249Y023975D01*
X032089Y024041D01*
X031916Y024041D01*
X031757Y023975D01*
X031635Y023853D01*
X031569Y023694D01*
X031569Y023521D01*
X031635Y023361D01*
X031757Y023239D01*
X031599Y023448D02*
X031407Y023448D01*
X031437Y023606D02*
X031569Y023606D01*
X031598Y023765D02*
X031408Y023765D01*
X031301Y023923D02*
X031705Y023923D01*
X032301Y023923D02*
X033229Y023923D01*
X033593Y023765D02*
X032408Y023765D01*
X032437Y023606D02*
X033904Y023606D01*
X034168Y023448D02*
X032407Y023448D01*
X032299Y023289D02*
X034386Y023289D01*
X032741Y024082D02*
X020350Y024082D01*
X020508Y023923D02*
X020705Y023923D01*
X020599Y023448D02*
X020407Y023448D01*
X020299Y023289D02*
X020707Y023289D01*
X020754Y022972D02*
X020252Y022972D01*
X020387Y022814D02*
X020618Y022814D01*
X020569Y022655D02*
X020437Y022655D01*
X020427Y022497D02*
X020578Y022497D01*
X020658Y022338D02*
X020348Y022338D01*
X020106Y022180D02*
X020900Y022180D01*
X021106Y022180D02*
X021222Y022180D01*
X021222Y022021D02*
X019610Y022021D01*
X019610Y021863D02*
X021222Y021863D01*
X021222Y021704D02*
X019610Y021704D01*
X019610Y021546D02*
X021222Y021546D01*
X021174Y021387D02*
X019610Y021387D01*
X019610Y021229D02*
X021016Y021229D01*
X020857Y021070D02*
X019610Y021070D01*
X019610Y020912D02*
X020699Y020912D01*
X020540Y020753D02*
X019610Y020753D01*
X019610Y020595D02*
X020382Y020595D01*
X020223Y020436D02*
X019610Y020436D01*
X019610Y020278D02*
X020065Y020278D01*
X019906Y020119D02*
X019610Y020119D01*
X019610Y019961D02*
X019748Y019961D01*
X019254Y019961D02*
X017484Y019961D01*
X017484Y020119D02*
X019254Y020119D01*
X019254Y020278D02*
X017484Y020278D01*
X017484Y020436D02*
X019254Y020436D01*
X019254Y020595D02*
X018635Y020595D01*
X018794Y020753D02*
X019254Y020753D01*
X019254Y020912D02*
X018857Y020912D01*
X018857Y021070D02*
X019254Y021070D01*
X019254Y021229D02*
X018833Y021229D01*
X018675Y021387D02*
X019254Y021387D01*
X019254Y021546D02*
X018530Y021546D01*
X018587Y021704D02*
X019254Y021704D01*
X019254Y021863D02*
X018587Y021863D01*
X018587Y022021D02*
X019254Y022021D01*
X019254Y022180D02*
X019106Y022180D01*
X018900Y022180D02*
X018587Y022180D01*
X018587Y022338D02*
X018658Y022338D01*
X019610Y022338D02*
X019658Y022338D01*
X019610Y022180D02*
X019900Y022180D01*
X019618Y022814D02*
X019610Y022814D01*
X019610Y022972D02*
X019754Y022972D01*
X019610Y023131D02*
X021697Y023131D01*
X021707Y023289D02*
X021299Y023289D01*
X021407Y023448D02*
X021599Y023448D01*
X021569Y023606D02*
X021437Y023606D01*
X021408Y023765D02*
X021598Y023765D01*
X021705Y023923D02*
X021301Y023923D01*
X022301Y023923D02*
X022705Y023923D01*
X022598Y023765D02*
X022408Y023765D01*
X022437Y023606D02*
X022569Y023606D01*
X022599Y023448D02*
X022407Y023448D01*
X022299Y023289D02*
X022707Y023289D01*
X022682Y023131D02*
X022169Y023131D01*
X022252Y022972D02*
X022523Y022972D01*
X023154Y023131D02*
X023705Y023131D01*
X023707Y023289D02*
X023299Y023289D01*
X023407Y023448D02*
X023599Y023448D01*
X023569Y023606D02*
X023437Y023606D01*
X023408Y023765D02*
X023598Y023765D01*
X023705Y023923D02*
X023301Y023923D01*
X024301Y023923D02*
X024705Y023923D01*
X024757Y023975D02*
X024635Y023853D01*
X024569Y023694D01*
X024569Y023521D01*
X024635Y023361D01*
X024757Y023239D01*
X024916Y023173D01*
X025089Y023173D01*
X025249Y023239D01*
X025371Y023361D01*
X025437Y023521D01*
X025437Y023694D01*
X025371Y023853D01*
X025249Y023975D01*
X025089Y024041D01*
X024916Y024041D01*
X024757Y023975D01*
X024598Y023765D02*
X024408Y023765D01*
X024437Y023606D02*
X024569Y023606D01*
X024599Y023448D02*
X024520Y023448D01*
X024610Y023289D02*
X024707Y023289D01*
X025299Y023289D02*
X025707Y023289D01*
X025757Y023239D02*
X025916Y023173D01*
X026089Y023173D01*
X026249Y023239D01*
X026371Y023361D01*
X026437Y023521D01*
X026437Y023694D01*
X026371Y023853D01*
X026249Y023975D01*
X026089Y024041D01*
X025916Y024041D01*
X025757Y023975D01*
X025635Y023853D01*
X025569Y023694D01*
X025569Y023521D01*
X025635Y023361D01*
X025757Y023239D01*
X025599Y023448D02*
X025407Y023448D01*
X025437Y023606D02*
X025569Y023606D01*
X025598Y023765D02*
X025408Y023765D01*
X025301Y023923D02*
X025705Y023923D01*
X026301Y023923D02*
X026705Y023923D01*
X026757Y023975D02*
X026635Y023853D01*
X026569Y023694D01*
X026569Y023521D01*
X026635Y023361D01*
X026757Y023239D01*
X026916Y023173D01*
X027089Y023173D01*
X027249Y023239D01*
X027371Y023361D01*
X027437Y023521D01*
X027437Y023694D01*
X027371Y023853D01*
X027249Y023975D01*
X027089Y024041D01*
X026916Y024041D01*
X026757Y023975D01*
X026598Y023765D02*
X026408Y023765D01*
X026437Y023606D02*
X026569Y023606D01*
X026599Y023448D02*
X026407Y023448D01*
X026299Y023289D02*
X026707Y023289D01*
X026754Y022972D02*
X026252Y022972D01*
X026387Y022814D02*
X026618Y022814D01*
X026569Y022655D02*
X026437Y022655D01*
X026427Y022497D02*
X026578Y022497D01*
X026658Y022338D02*
X026348Y022338D01*
X025658Y022338D02*
X025348Y022338D01*
X025427Y022497D02*
X025578Y022497D01*
X025569Y022655D02*
X025437Y022655D01*
X025387Y022814D02*
X025618Y022814D01*
X025754Y022972D02*
X025252Y022972D01*
X025156Y021387D02*
X025660Y021387D01*
X025536Y021263D01*
X025469Y021102D01*
X025469Y020927D01*
X025536Y020766D01*
X025660Y020642D01*
X025821Y020576D01*
X025996Y020576D01*
X026157Y020642D01*
X026281Y020766D01*
X026347Y020927D01*
X026347Y021102D01*
X026281Y021263D01*
X026157Y021387D01*
X025996Y021454D01*
X025821Y021454D01*
X025660Y021387D01*
X025522Y021229D02*
X025295Y021229D01*
X025347Y021070D02*
X025469Y021070D01*
X025476Y020912D02*
X025341Y020912D01*
X025450Y020753D02*
X025549Y020753D01*
X025608Y020595D02*
X025775Y020595D01*
X025767Y020436D02*
X034242Y020436D01*
X034019Y020595D02*
X026042Y020595D01*
X026268Y020753D02*
X033928Y020753D01*
X033890Y020912D02*
X026341Y020912D01*
X026347Y021070D02*
X033891Y021070D01*
X033957Y021229D02*
X026295Y021229D01*
X026156Y021387D02*
X034090Y021387D01*
X035106Y020278D02*
X025925Y020278D01*
X026084Y020119D02*
X034190Y020119D01*
X033986Y019961D02*
X026242Y019961D01*
X026401Y019802D02*
X033891Y019802D01*
X033852Y019644D02*
X026559Y019644D01*
X026718Y019485D02*
X033856Y019485D01*
X033903Y019327D02*
X026876Y019327D01*
X027035Y019168D02*
X034010Y019168D01*
X034255Y019010D02*
X027193Y019010D01*
X027352Y018851D02*
X035631Y018851D01*
X035631Y018693D02*
X027510Y018693D01*
X027669Y018534D02*
X035631Y018534D01*
X035631Y018376D02*
X027827Y018376D01*
X028303Y017900D02*
X033884Y017900D01*
X033836Y017742D02*
X028461Y017742D01*
X028620Y017583D02*
X033846Y017583D01*
X033920Y017425D02*
X028778Y017425D01*
X027804Y016949D02*
X022280Y016949D01*
X022122Y016791D02*
X027963Y016791D01*
X028121Y016632D02*
X021963Y016632D01*
X021805Y016474D02*
X028280Y016474D01*
X028438Y016315D02*
X021646Y016315D01*
X021488Y016157D02*
X028597Y016157D01*
X028755Y015998D02*
X021329Y015998D01*
X021171Y015840D02*
X028783Y015840D01*
X028736Y015681D02*
X028575Y015681D01*
X028320Y015681D02*
X021012Y015681D01*
X021013Y015523D02*
X022147Y015523D01*
X022292Y015667D02*
X021993Y015368D01*
X021993Y015157D01*
X021993Y014946D01*
X022292Y014647D01*
X022503Y014647D01*
X022714Y014647D01*
X023013Y014946D01*
X023013Y015157D01*
X022503Y015157D01*
X022503Y015157D01*
X022503Y014647D01*
X022503Y015157D01*
X022503Y015157D01*
X023013Y015157D01*
X023013Y015368D01*
X022714Y015667D01*
X022503Y015667D01*
X022503Y015157D01*
X021993Y015157D01*
X022503Y015157D01*
X022503Y015157D01*
X022503Y015157D01*
X022503Y015667D01*
X022292Y015667D01*
X022503Y015523D02*
X022503Y015523D01*
X022503Y015364D02*
X022503Y015364D01*
X022503Y015206D02*
X022503Y015206D01*
X022503Y015047D02*
X022503Y015047D01*
X022503Y014889D02*
X022503Y014889D01*
X022503Y014730D02*
X022503Y014730D01*
X022797Y014730D02*
X025266Y014730D01*
X025309Y014688D02*
X025697Y014688D01*
X025972Y014963D01*
X025972Y015351D01*
X025697Y015626D01*
X025309Y015626D01*
X025034Y015351D01*
X025034Y014963D01*
X025309Y014688D01*
X025108Y014889D02*
X022956Y014889D01*
X023013Y015047D02*
X025034Y015047D01*
X025034Y015206D02*
X023013Y015206D01*
X023013Y015364D02*
X025047Y015364D01*
X025205Y015523D02*
X022859Y015523D01*
X022050Y014889D02*
X020756Y014889D01*
X020914Y015047D02*
X021993Y015047D01*
X021993Y015206D02*
X021013Y015206D01*
X021013Y015364D02*
X021993Y015364D01*
X022209Y014730D02*
X016597Y014730D01*
X016755Y014889D02*
X019308Y014889D01*
X019149Y015047D02*
X016914Y015047D01*
X017072Y015206D02*
X017791Y015206D01*
X017632Y015364D02*
X017231Y015364D01*
X017389Y015523D02*
X017534Y015523D01*
X017202Y015840D02*
X016242Y015840D01*
X016214Y015867D02*
X016159Y015867D01*
X017734Y017442D01*
X017734Y017163D01*
X018009Y016888D01*
X018250Y016888D01*
X016513Y015151D01*
X016513Y015357D01*
X016003Y015357D01*
X016003Y014847D01*
X016209Y014847D01*
X014240Y012878D01*
X013900Y012878D01*
X013707Y013071D01*
X013744Y013160D01*
X013744Y013216D01*
X015583Y015055D01*
X015792Y014847D01*
X016003Y014847D01*
X016003Y015357D01*
X016003Y015357D01*
X016003Y015357D01*
X016513Y015357D01*
X016513Y015568D01*
X016214Y015867D01*
X016290Y015998D02*
X017360Y015998D01*
X017519Y016157D02*
X016448Y016157D01*
X016607Y016315D02*
X017677Y016315D01*
X017836Y016474D02*
X016765Y016474D01*
X016924Y016632D02*
X017994Y016632D01*
X018153Y016791D02*
X017082Y016791D01*
X017241Y016949D02*
X017947Y016949D01*
X017789Y017108D02*
X017399Y017108D01*
X017558Y017266D02*
X017734Y017266D01*
X017734Y017425D02*
X017716Y017425D01*
X017293Y017742D02*
X016083Y017742D01*
X017084Y018376D02*
X017927Y018376D01*
X018085Y018534D02*
X017015Y018534D01*
X017173Y018693D02*
X018244Y018693D01*
X018402Y018851D02*
X017332Y018851D01*
X017484Y019010D02*
X018561Y019010D01*
X018719Y019168D02*
X017484Y019168D01*
X017484Y019327D02*
X018878Y019327D01*
X019036Y019485D02*
X017484Y019485D01*
X017484Y019644D02*
X019195Y019644D01*
X019254Y019802D02*
X017484Y019802D01*
X017579Y020595D02*
X018141Y020595D01*
X017982Y020753D02*
X017738Y020753D01*
X017896Y020912D02*
X017919Y020912D01*
X019610Y023289D02*
X019707Y023289D01*
X020191Y024240D02*
X031707Y024240D01*
X030705Y023923D02*
X030301Y023923D01*
X030249Y023975D02*
X030371Y023853D01*
X030437Y023694D01*
X030437Y023521D01*
X030371Y023361D01*
X030249Y023239D01*
X030089Y023173D01*
X029916Y023173D01*
X029757Y023239D01*
X029635Y023361D01*
X029569Y023521D01*
X029569Y023694D01*
X029635Y023853D01*
X029757Y023975D01*
X029916Y024041D01*
X030089Y024041D01*
X030249Y023975D01*
X030408Y023765D02*
X030598Y023765D01*
X030569Y023606D02*
X030437Y023606D01*
X030407Y023448D02*
X030599Y023448D01*
X030707Y023289D02*
X030299Y023289D01*
X030252Y022972D02*
X030754Y022972D01*
X030618Y022814D02*
X030387Y022814D01*
X030437Y022655D02*
X030569Y022655D01*
X030578Y022497D02*
X030427Y022497D01*
X030348Y022338D02*
X030658Y022338D01*
X029658Y022338D02*
X029348Y022338D01*
X029427Y022497D02*
X029578Y022497D01*
X029569Y022655D02*
X029437Y022655D01*
X029387Y022814D02*
X029618Y022814D01*
X029754Y022972D02*
X029252Y022972D01*
X029089Y023173D02*
X029249Y023239D01*
X029371Y023361D01*
X029437Y023521D01*
X029437Y023694D01*
X029371Y023853D01*
X029249Y023975D01*
X029089Y024041D01*
X028916Y024041D01*
X028757Y023975D01*
X028635Y023853D01*
X028569Y023694D01*
X028569Y023521D01*
X028635Y023361D01*
X028757Y023239D01*
X028916Y023173D01*
X029089Y023173D01*
X029299Y023289D02*
X029707Y023289D01*
X029599Y023448D02*
X029407Y023448D01*
X029437Y023606D02*
X029569Y023606D01*
X029598Y023765D02*
X029408Y023765D01*
X029301Y023923D02*
X029705Y023923D01*
X028705Y023923D02*
X028301Y023923D01*
X028249Y023975D02*
X028371Y023853D01*
X028437Y023694D01*
X028437Y023521D01*
X028371Y023361D01*
X028249Y023239D01*
X028089Y023173D01*
X027916Y023173D01*
X027757Y023239D01*
X027635Y023361D01*
X027569Y023521D01*
X027569Y023694D01*
X027635Y023853D01*
X027757Y023975D01*
X027916Y024041D01*
X028089Y024041D01*
X028249Y023975D01*
X028408Y023765D02*
X028598Y023765D01*
X028569Y023606D02*
X028437Y023606D01*
X028407Y023448D02*
X028599Y023448D01*
X028707Y023289D02*
X028299Y023289D01*
X028252Y022972D02*
X028754Y022972D01*
X028618Y022814D02*
X028387Y022814D01*
X028437Y022655D02*
X028569Y022655D01*
X028578Y022497D02*
X028427Y022497D01*
X028348Y022338D02*
X028658Y022338D01*
X027658Y022338D02*
X027348Y022338D01*
X027427Y022497D02*
X027578Y022497D01*
X027569Y022655D02*
X027437Y022655D01*
X027387Y022814D02*
X027618Y022814D01*
X027754Y022972D02*
X027252Y022972D01*
X027299Y023289D02*
X027707Y023289D01*
X027599Y023448D02*
X027407Y023448D01*
X027437Y023606D02*
X027569Y023606D01*
X027598Y023765D02*
X027408Y023765D01*
X027301Y023923D02*
X027705Y023923D01*
X024660Y021387D02*
X024650Y021387D01*
X024293Y020753D02*
X024268Y020753D01*
X024293Y020595D02*
X024042Y020595D01*
X023775Y020595D02*
X023170Y020595D01*
X023328Y020753D02*
X023549Y020753D01*
X023011Y020436D02*
X024317Y020436D01*
X024476Y020278D02*
X022853Y020278D01*
X022694Y020119D02*
X024634Y020119D01*
X024793Y019961D02*
X022536Y019961D01*
X022445Y019802D02*
X024951Y019802D01*
X025110Y019644D02*
X022445Y019644D01*
X022445Y019485D02*
X025268Y019485D01*
X025427Y019327D02*
X022445Y019327D01*
X022445Y019168D02*
X025585Y019168D01*
X025744Y019010D02*
X022445Y019010D01*
X022445Y018851D02*
X025902Y018851D01*
X026061Y018693D02*
X022445Y018693D01*
X022445Y018534D02*
X026219Y018534D01*
X026378Y018376D02*
X022445Y018376D01*
X022445Y018217D02*
X026536Y018217D01*
X026695Y018059D02*
X022445Y018059D01*
X022445Y017900D02*
X026853Y017900D01*
X027012Y017742D02*
X022445Y017742D01*
X022445Y017583D02*
X027170Y017583D01*
X027329Y017425D02*
X022445Y017425D01*
X022445Y017266D02*
X027487Y017266D01*
X027646Y017108D02*
X022439Y017108D01*
X020503Y015206D02*
X020503Y015206D01*
X020503Y015047D02*
X020503Y015047D01*
X020503Y014889D02*
X020503Y014889D01*
X020250Y014889D02*
X019698Y014889D01*
X019856Y015047D02*
X020092Y015047D01*
X019993Y015206D02*
X019972Y015206D01*
X019972Y015364D02*
X019993Y015364D01*
X019993Y015523D02*
X019972Y015523D01*
X019034Y015523D02*
X018472Y015523D01*
X018373Y015364D02*
X019034Y015364D01*
X019034Y015206D02*
X018215Y015206D01*
X017043Y015681D02*
X016400Y015681D01*
X016513Y015523D02*
X016885Y015523D01*
X016726Y015364D02*
X016513Y015364D01*
X016513Y015206D02*
X016568Y015206D01*
X016003Y015206D02*
X016003Y015206D01*
X016003Y015047D02*
X016003Y015047D01*
X016003Y014889D02*
X016003Y014889D01*
X016092Y014730D02*
X015258Y014730D01*
X015100Y014572D02*
X015934Y014572D01*
X015775Y014413D02*
X014941Y014413D01*
X014783Y014255D02*
X015617Y014255D01*
X015458Y014096D02*
X014624Y014096D01*
X014466Y013938D02*
X015300Y013938D01*
X015141Y013779D02*
X014307Y013779D01*
X014149Y013621D02*
X014983Y013621D01*
X014824Y013462D02*
X013990Y013462D01*
X013832Y013304D02*
X014666Y013304D01*
X014507Y013145D02*
X013738Y013145D01*
X013792Y012987D02*
X014349Y012987D01*
X014536Y012670D02*
X014652Y012670D01*
X014695Y012828D02*
X015753Y012828D01*
X015594Y012670D02*
X015354Y012670D01*
X015472Y012511D02*
X015493Y012511D01*
X015493Y012353D02*
X015472Y012353D01*
X015472Y012194D02*
X015493Y012194D01*
X015603Y012036D02*
X015345Y012036D01*
X014534Y012353D02*
X013788Y012353D01*
X013913Y012511D02*
X014534Y012511D01*
X014853Y012987D02*
X023493Y012987D01*
X023493Y013145D02*
X015012Y013145D01*
X015170Y013304D02*
X023493Y013304D01*
X023493Y013368D02*
X023493Y013157D01*
X024003Y013157D01*
X024003Y013667D01*
X023792Y013667D01*
X023493Y013368D01*
X023587Y013462D02*
X015329Y013462D01*
X015487Y013621D02*
X023745Y013621D01*
X024003Y013621D02*
X024003Y013621D01*
X024003Y013462D02*
X024003Y013462D01*
X024003Y013304D02*
X024003Y013304D01*
X024261Y013621D02*
X024943Y013621D01*
X024997Y013779D02*
X015646Y013779D01*
X015804Y013938D02*
X026677Y013938D01*
X026519Y013779D02*
X025442Y013779D01*
X025477Y013621D02*
X026360Y013621D01*
X026202Y013462D02*
X025401Y013462D01*
X025131Y013304D02*
X026043Y013304D01*
X025885Y013145D02*
X024972Y013145D01*
X024814Y012987D02*
X025726Y012987D01*
X025568Y012828D02*
X024655Y012828D01*
X024497Y012670D02*
X025409Y012670D01*
X025251Y012511D02*
X024338Y012511D01*
X024180Y012353D02*
X025092Y012353D01*
X024934Y012194D02*
X024021Y012194D01*
X023863Y012036D02*
X024775Y012036D01*
X023834Y012511D02*
X021013Y012511D01*
X021013Y012353D02*
X023675Y012353D01*
X023517Y012194D02*
X021013Y012194D01*
X020903Y012036D02*
X023358Y012036D01*
X023200Y011877D02*
X022846Y011877D01*
X022972Y011719D02*
X023041Y011719D01*
X023769Y012670D02*
X020912Y012670D01*
X020753Y012828D02*
X023611Y012828D01*
X024513Y013304D02*
X024626Y013304D01*
X024785Y013462D02*
X024419Y013462D01*
X025739Y014730D02*
X027470Y014730D01*
X027311Y014572D02*
X016438Y014572D01*
X016280Y014413D02*
X027153Y014413D01*
X026994Y014255D02*
X016121Y014255D01*
X015963Y014096D02*
X026836Y014096D01*
X027628Y014889D02*
X025898Y014889D01*
X025972Y015047D02*
X027787Y015047D01*
X027945Y015206D02*
X025972Y015206D01*
X025959Y015364D02*
X028104Y015364D01*
X028197Y015523D02*
X025801Y015523D01*
X019034Y012511D02*
X018212Y012511D01*
X018371Y012353D02*
X019034Y012353D01*
X019034Y012194D02*
X018472Y012194D01*
X018472Y012036D02*
X019161Y012036D01*
X015750Y014889D02*
X015417Y014889D01*
X015575Y015047D02*
X015592Y015047D01*
X012598Y016315D02*
X010870Y016315D01*
X010870Y016157D02*
X011798Y016157D01*
X011611Y015998D02*
X010870Y015998D01*
X010870Y015840D02*
X011563Y015840D01*
X011583Y015681D02*
X010870Y015681D01*
X011086Y015628D02*
X011086Y015168D01*
X011546Y015168D01*
X011546Y015204D01*
X011534Y015276D01*
X011512Y015345D01*
X011479Y015409D01*
X011436Y015468D01*
X011385Y015519D01*
X011327Y015562D01*
X011262Y015594D01*
X011193Y015617D01*
X011122Y015628D01*
X011086Y015628D01*
X011086Y015523D02*
X011086Y015523D01*
X011086Y015364D02*
X011086Y015364D01*
X011086Y015206D02*
X011086Y015206D01*
X011086Y015168D02*
X011086Y015168D01*
X011451Y014889D02*
X011723Y014889D01*
X011905Y015047D02*
X011530Y015047D01*
X011545Y015206D02*
X012128Y015206D01*
X012128Y015364D02*
X011502Y015364D01*
X011380Y015523D02*
X011689Y015523D01*
X012086Y016157D02*
X012440Y016157D01*
X012281Y015998D02*
X012273Y015998D01*
X013895Y017108D02*
X015025Y017108D01*
X013427Y017900D02*
X013358Y017900D01*
X013315Y018059D02*
X013427Y018059D01*
X013427Y018217D02*
X013231Y018217D01*
X010513Y019010D02*
X009651Y019010D01*
X009410Y019168D02*
X010513Y019168D01*
X010513Y019327D02*
X009081Y019327D01*
X008362Y019485D02*
X010513Y019485D01*
X010513Y019644D02*
X008362Y019644D01*
X008362Y019802D02*
X010613Y019802D01*
X010771Y019961D02*
X008362Y019961D01*
X008362Y020119D02*
X010930Y020119D01*
X012915Y020278D02*
X013427Y020278D01*
X013427Y020436D02*
X013129Y020436D01*
X013245Y020595D02*
X013427Y020595D01*
X013427Y020753D02*
X013311Y020753D01*
X013327Y020912D02*
X013369Y020912D01*
X013106Y022180D02*
X013900Y022180D01*
X013658Y022338D02*
X013348Y022338D01*
X013427Y022497D02*
X013578Y022497D01*
X013569Y022655D02*
X013437Y022655D01*
X013387Y022814D02*
X013618Y022814D01*
X013754Y022972D02*
X013252Y022972D01*
X013299Y023289D02*
X013707Y023289D01*
X013757Y023239D02*
X013916Y023173D01*
X014089Y023173D01*
X014249Y023239D01*
X014371Y023361D01*
X014437Y023521D01*
X014437Y023694D01*
X014371Y023853D01*
X014249Y023975D01*
X014089Y024041D01*
X013916Y024041D01*
X013757Y023975D01*
X013635Y023853D01*
X013569Y023694D01*
X013569Y023521D01*
X013635Y023361D01*
X013757Y023239D01*
X013599Y023448D02*
X013407Y023448D01*
X013437Y023606D02*
X013569Y023606D01*
X013598Y023765D02*
X013408Y023765D01*
X013301Y023923D02*
X013705Y023923D01*
X014301Y023923D02*
X014705Y023923D01*
X014598Y023765D02*
X014408Y023765D01*
X014437Y023606D02*
X014569Y023606D01*
X014599Y023448D02*
X014407Y023448D01*
X014299Y023289D02*
X014707Y023289D01*
X010705Y023923D02*
X010359Y023923D01*
X010451Y023765D02*
X010598Y023765D01*
X010021Y023765D02*
X009984Y023765D01*
X009984Y023923D02*
X010021Y023923D01*
X009984Y024082D02*
X009965Y024082D01*
X009647Y023923D02*
X008362Y023923D01*
X008362Y023765D02*
X009554Y023765D01*
X009984Y023448D02*
X010021Y023448D01*
X010021Y023289D02*
X009984Y023289D01*
X009984Y022972D02*
X010021Y022972D01*
X010021Y022814D02*
X009984Y022814D01*
X009984Y022655D02*
X010021Y022655D01*
X010021Y022497D02*
X009984Y022497D01*
X009984Y022338D02*
X010021Y022338D01*
X010021Y022180D02*
X009984Y022180D01*
X009585Y022180D02*
X008362Y022180D01*
X008362Y022338D02*
X009528Y022338D01*
X009528Y022497D02*
X008362Y022497D01*
X008362Y022655D02*
X009528Y022655D01*
X009528Y022814D02*
X008362Y022814D01*
X008362Y022972D02*
X009540Y022972D01*
X017231Y018217D02*
X017768Y018217D01*
X017610Y018059D02*
X017315Y018059D01*
X017358Y017900D02*
X017451Y017900D01*
X021252Y022972D02*
X021539Y022972D01*
X023252Y022972D02*
X023547Y022972D01*
X023387Y022814D02*
X023388Y022814D01*
X034678Y015523D02*
X034782Y015523D01*
X035584Y014889D02*
X036394Y014889D01*
X036394Y015047D02*
X035688Y015047D01*
X035713Y015206D02*
X036394Y015206D01*
X036394Y015364D02*
X035676Y015364D01*
X036394Y013462D02*
X034810Y013462D01*
X034724Y013304D02*
X036394Y013304D01*
X035631Y019010D02*
X035483Y019010D01*
X034929Y019010D02*
X034809Y019010D01*
X034809Y019168D02*
X034929Y019168D01*
X034929Y019327D02*
X034809Y019327D01*
X034809Y019485D02*
X034929Y019485D01*
X034929Y019644D02*
X034809Y019644D01*
X034809Y019802D02*
X034929Y019802D01*
X034929Y019961D02*
X034809Y019961D01*
X034809Y020119D02*
X034929Y020119D01*
X023860Y009024D02*
X023744Y009024D01*
X023744Y008866D02*
X023860Y008866D01*
X023860Y008707D02*
X023744Y008707D01*
X023744Y008549D02*
X023860Y008549D01*
X023860Y008390D02*
X023744Y008390D01*
X023744Y008232D02*
X023860Y008232D01*
X023964Y008073D02*
X023744Y008073D01*
X026299Y006171D02*
X028571Y006171D01*
X028571Y006013D02*
X026406Y006013D01*
X026434Y005854D02*
X028571Y005854D01*
X028571Y005696D02*
X026403Y005696D01*
X026293Y005537D02*
X028571Y005537D01*
X028757Y004975D02*
X028635Y004853D01*
X028569Y004694D01*
X028569Y004521D01*
X028635Y004361D01*
X028757Y004239D01*
X028916Y004173D01*
X029089Y004173D01*
X029249Y004239D01*
X029371Y004361D01*
X029437Y004521D01*
X029437Y004694D01*
X029371Y004853D01*
X029249Y004975D01*
X029089Y005041D01*
X028916Y005041D01*
X028757Y004975D01*
X028685Y004903D02*
X028321Y004903D01*
X028371Y004853D02*
X028249Y004975D01*
X028089Y005041D01*
X027916Y005041D01*
X027757Y004975D01*
X027635Y004853D01*
X027569Y004694D01*
X027569Y004521D01*
X027635Y004361D01*
X027757Y004239D01*
X027916Y004173D01*
X028089Y004173D01*
X028249Y004239D01*
X028371Y004361D01*
X028437Y004521D01*
X028437Y004694D01*
X028371Y004853D01*
X028416Y004745D02*
X028590Y004745D01*
X028569Y004586D02*
X028437Y004586D01*
X028399Y004428D02*
X028607Y004428D01*
X028727Y004269D02*
X028279Y004269D01*
X028249Y003975D02*
X028089Y004041D01*
X027916Y004041D01*
X027757Y003975D01*
X027635Y003853D01*
X027569Y003694D01*
X027569Y003521D01*
X027635Y003361D01*
X027757Y003239D01*
X027916Y003173D01*
X028089Y003173D01*
X028249Y003239D01*
X028371Y003361D01*
X028437Y003521D01*
X028437Y003694D01*
X028371Y003853D01*
X028249Y003975D01*
X028272Y003952D02*
X028734Y003952D01*
X028757Y003975D02*
X028635Y003853D01*
X028569Y003694D01*
X028569Y003521D01*
X028635Y003361D01*
X028757Y003239D01*
X028916Y003173D01*
X029089Y003173D01*
X029249Y003239D01*
X029371Y003361D01*
X029437Y003521D01*
X029437Y003694D01*
X029371Y003853D01*
X029249Y003975D01*
X029089Y004041D01*
X028916Y004041D01*
X028757Y003975D01*
X028610Y003794D02*
X028396Y003794D01*
X028437Y003635D02*
X028569Y003635D01*
X028587Y003477D02*
X028419Y003477D01*
X028328Y003318D02*
X028678Y003318D01*
X029328Y003318D02*
X029678Y003318D01*
X029635Y003361D02*
X029757Y003239D01*
X029916Y003173D01*
X030089Y003173D01*
X030249Y003239D01*
X030371Y003361D01*
X030437Y003521D01*
X030437Y003694D01*
X030371Y003853D01*
X030249Y003975D01*
X030089Y004041D01*
X029916Y004041D01*
X029757Y003975D01*
X029635Y003853D01*
X029569Y003694D01*
X029569Y003521D01*
X029635Y003361D01*
X029587Y003477D02*
X029419Y003477D01*
X029437Y003635D02*
X029569Y003635D01*
X029610Y003794D02*
X029396Y003794D01*
X029272Y003952D02*
X029734Y003952D01*
X029916Y004173D02*
X030089Y004173D01*
X030249Y004239D01*
X030371Y004361D01*
X030437Y004521D01*
X030437Y004694D01*
X030371Y004853D01*
X030249Y004975D01*
X030089Y005041D01*
X029916Y005041D01*
X029757Y004975D01*
X029635Y004853D01*
X029569Y004694D01*
X029569Y004521D01*
X029635Y004361D01*
X029757Y004239D01*
X029916Y004173D01*
X029727Y004269D02*
X029279Y004269D01*
X029399Y004428D02*
X029607Y004428D01*
X029569Y004586D02*
X029437Y004586D01*
X029416Y004745D02*
X029590Y004745D01*
X029685Y004903D02*
X029321Y004903D01*
X030321Y004903D02*
X030630Y004903D01*
X030640Y004917D02*
X030596Y004856D01*
X030562Y004790D01*
X030539Y004718D01*
X030528Y004645D01*
X030528Y004626D01*
X030984Y004626D01*
X030984Y005082D01*
X030965Y005082D01*
X030892Y005071D01*
X030820Y005048D01*
X030754Y005014D01*
X030693Y004970D01*
X030640Y004917D01*
X030548Y004745D02*
X030416Y004745D01*
X030437Y004586D02*
X030528Y004586D01*
X030528Y004589D02*
X030528Y004570D01*
X030539Y004496D01*
X030562Y004425D01*
X030596Y004358D01*
X030640Y004298D01*
X030693Y004245D01*
X030754Y004201D01*
X030820Y004167D01*
X030892Y004144D01*
X030965Y004132D01*
X030984Y004132D01*
X030984Y004589D01*
X030528Y004589D01*
X030561Y004428D02*
X030399Y004428D01*
X030279Y004269D02*
X030669Y004269D01*
X030820Y004048D02*
X030754Y004014D01*
X030693Y003970D01*
X030640Y003917D01*
X030596Y003856D01*
X030562Y003790D01*
X030539Y003718D01*
X030528Y003645D01*
X030528Y003626D01*
X030984Y003626D01*
X030984Y004082D01*
X030965Y004082D01*
X030892Y004071D01*
X030820Y004048D01*
X030676Y003952D02*
X030272Y003952D01*
X030396Y003794D02*
X030564Y003794D01*
X030528Y003635D02*
X030437Y003635D01*
X030419Y003477D02*
X030545Y003477D01*
X030625Y003318D02*
X030328Y003318D01*
X030984Y003318D02*
X031021Y003318D01*
X031021Y003477D02*
X030984Y003477D01*
X030984Y003589D02*
X031021Y003589D01*
X031021Y003626D01*
X030984Y003626D01*
X030984Y003589D01*
X030984Y003635D02*
X031021Y003635D01*
X031021Y003626D02*
X031021Y004082D01*
X031040Y004082D01*
X031114Y004071D01*
X031185Y004048D01*
X031252Y004014D01*
X031312Y003970D01*
X031365Y003917D01*
X031409Y003856D01*
X031443Y003790D01*
X031466Y003718D01*
X031478Y003645D01*
X031478Y003626D01*
X031021Y003626D01*
X031021Y003794D02*
X030984Y003794D01*
X030984Y003952D02*
X031021Y003952D01*
X031021Y004132D02*
X031040Y004132D01*
X031114Y004144D01*
X031185Y004167D01*
X031252Y004201D01*
X031312Y004245D01*
X031365Y004298D01*
X031409Y004358D01*
X031443Y004425D01*
X031466Y004496D01*
X031478Y004570D01*
X031478Y004589D01*
X031021Y004589D01*
X031021Y004132D01*
X031021Y004269D02*
X030984Y004269D01*
X030984Y004428D02*
X031021Y004428D01*
X031021Y004586D02*
X030984Y004586D01*
X030984Y004589D02*
X031021Y004589D01*
X031021Y004626D01*
X030984Y004626D01*
X030984Y004589D01*
X031021Y004626D02*
X031478Y004626D01*
X031478Y004645D01*
X031466Y004718D01*
X031443Y004790D01*
X031409Y004856D01*
X031365Y004917D01*
X031312Y004970D01*
X031252Y005014D01*
X031185Y005048D01*
X031114Y005071D01*
X031040Y005082D01*
X031021Y005082D01*
X031021Y004626D01*
X031021Y004745D02*
X030984Y004745D01*
X030984Y004903D02*
X031021Y004903D01*
X031021Y005062D02*
X030984Y005062D01*
X030864Y005062D02*
X024610Y005062D01*
X024610Y005220D02*
X035614Y005220D01*
X035499Y005062D02*
X032142Y005062D01*
X032114Y005071D02*
X032040Y005082D01*
X032021Y005082D01*
X032021Y004626D01*
X031984Y004626D01*
X031984Y005082D01*
X031965Y005082D01*
X031892Y005071D01*
X031820Y005048D01*
X031754Y005014D01*
X031693Y004970D01*
X031640Y004917D01*
X031596Y004856D01*
X031562Y004790D01*
X031539Y004718D01*
X031528Y004645D01*
X031528Y004626D01*
X031984Y004626D01*
X031984Y004589D01*
X031528Y004589D01*
X031528Y004570D01*
X031539Y004496D01*
X031562Y004425D01*
X031596Y004358D01*
X031640Y004298D01*
X031693Y004245D01*
X031754Y004201D01*
X031820Y004167D01*
X031892Y004144D01*
X031965Y004132D01*
X031984Y004132D01*
X031984Y004589D01*
X032021Y004589D01*
X032021Y004132D01*
X032040Y004132D01*
X032114Y004144D01*
X032185Y004167D01*
X032252Y004201D01*
X032312Y004245D01*
X032365Y004298D01*
X032409Y004358D01*
X032443Y004425D01*
X032466Y004496D01*
X032478Y004570D01*
X032478Y004589D01*
X032021Y004589D01*
X032021Y004626D01*
X032478Y004626D01*
X032478Y004645D01*
X032466Y004718D01*
X032443Y004790D01*
X032409Y004856D01*
X032365Y004917D01*
X032312Y004970D01*
X032252Y005014D01*
X032185Y005048D01*
X032114Y005071D01*
X032021Y005062D02*
X031984Y005062D01*
X031864Y005062D02*
X031142Y005062D01*
X031375Y004903D02*
X031630Y004903D01*
X031548Y004745D02*
X031458Y004745D01*
X031478Y004586D02*
X031528Y004586D01*
X031561Y004428D02*
X031444Y004428D01*
X031337Y004269D02*
X031669Y004269D01*
X031820Y004048D02*
X031754Y004014D01*
X031693Y003970D01*
X031640Y003917D01*
X031596Y003856D01*
X031562Y003790D01*
X031539Y003718D01*
X031528Y003645D01*
X031528Y003626D01*
X031984Y003626D01*
X031984Y004082D01*
X031965Y004082D01*
X031892Y004071D01*
X031820Y004048D01*
X031676Y003952D02*
X031330Y003952D01*
X031441Y003794D02*
X031564Y003794D01*
X031528Y003635D02*
X031478Y003635D01*
X031460Y003477D02*
X031545Y003477D01*
X031625Y003318D02*
X031380Y003318D01*
X031984Y003318D02*
X032021Y003318D01*
X032021Y003477D02*
X031984Y003477D01*
X031984Y003589D02*
X032021Y003589D01*
X032021Y003626D01*
X031984Y003626D01*
X031984Y003589D01*
X031984Y003635D02*
X032021Y003635D01*
X032021Y003626D02*
X032021Y004082D01*
X032040Y004082D01*
X032114Y004071D01*
X032185Y004048D01*
X032252Y004014D01*
X032312Y003970D01*
X032365Y003917D01*
X032409Y003856D01*
X032443Y003790D01*
X032466Y003718D01*
X032478Y003645D01*
X032478Y003626D01*
X032021Y003626D01*
X032021Y003794D02*
X031984Y003794D01*
X031984Y003952D02*
X032021Y003952D01*
X032330Y003952D02*
X034424Y003952D01*
X034642Y004111D02*
X024324Y004111D01*
X024272Y003952D02*
X024734Y003952D01*
X024757Y003975D02*
X024635Y003853D01*
X024569Y003694D01*
X024569Y003521D01*
X024635Y003361D01*
X024757Y003239D01*
X024916Y003173D01*
X025089Y003173D01*
X025249Y003239D01*
X025371Y003361D01*
X025437Y003521D01*
X025437Y003694D01*
X025371Y003853D01*
X025249Y003975D01*
X025089Y004041D01*
X024916Y004041D01*
X024757Y003975D01*
X024610Y003794D02*
X024396Y003794D01*
X024437Y003635D02*
X024569Y003635D01*
X024587Y003477D02*
X024419Y003477D01*
X024328Y003318D02*
X024678Y003318D01*
X025328Y003318D02*
X025678Y003318D01*
X025635Y003361D02*
X025757Y003239D01*
X025916Y003173D01*
X026089Y003173D01*
X026249Y003239D01*
X026371Y003361D01*
X026437Y003521D01*
X026437Y003694D01*
X026371Y003853D01*
X026249Y003975D01*
X026089Y004041D01*
X025916Y004041D01*
X025757Y003975D01*
X025635Y003853D01*
X025569Y003694D01*
X025569Y003521D01*
X025635Y003361D01*
X025587Y003477D02*
X025419Y003477D01*
X025437Y003635D02*
X025569Y003635D01*
X025610Y003794D02*
X025396Y003794D01*
X025272Y003952D02*
X025734Y003952D01*
X025916Y004173D02*
X026089Y004173D01*
X026249Y004239D01*
X026371Y004361D01*
X026437Y004521D01*
X026437Y004694D01*
X026371Y004853D01*
X026249Y004975D01*
X026089Y005041D01*
X025916Y005041D01*
X025757Y004975D01*
X025635Y004853D01*
X025569Y004694D01*
X025569Y004521D01*
X025635Y004361D01*
X025757Y004239D01*
X025916Y004173D01*
X025727Y004269D02*
X025279Y004269D01*
X025399Y004428D02*
X025607Y004428D01*
X025569Y004586D02*
X025437Y004586D01*
X025416Y004745D02*
X025590Y004745D01*
X025685Y004903D02*
X025321Y004903D01*
X024685Y004903D02*
X024610Y004903D01*
X023685Y004903D02*
X023321Y004903D01*
X023416Y004745D02*
X023590Y004745D01*
X023569Y004586D02*
X023437Y004586D01*
X023399Y004428D02*
X023607Y004428D01*
X023727Y004269D02*
X023279Y004269D01*
X024482Y004269D02*
X024727Y004269D01*
X026279Y004269D02*
X026727Y004269D01*
X026757Y004239D02*
X026916Y004173D01*
X027089Y004173D01*
X027249Y004239D01*
X027371Y004361D01*
X027437Y004521D01*
X027437Y004694D01*
X027371Y004853D01*
X027249Y004975D01*
X027089Y005041D01*
X026916Y005041D01*
X026757Y004975D01*
X026635Y004853D01*
X026569Y004694D01*
X026569Y004521D01*
X026635Y004361D01*
X026757Y004239D01*
X026607Y004428D02*
X026399Y004428D01*
X026437Y004586D02*
X026569Y004586D01*
X026590Y004745D02*
X026416Y004745D01*
X026321Y004903D02*
X026685Y004903D01*
X027321Y004903D02*
X027685Y004903D01*
X027590Y004745D02*
X027416Y004745D01*
X027437Y004586D02*
X027569Y004586D01*
X027607Y004428D02*
X027399Y004428D01*
X027279Y004269D02*
X027727Y004269D01*
X027734Y003952D02*
X027272Y003952D01*
X027249Y003975D02*
X027089Y004041D01*
X026916Y004041D01*
X026757Y003975D01*
X026635Y003853D01*
X026569Y003694D01*
X026569Y003521D01*
X026635Y003361D01*
X026757Y003239D01*
X026916Y003173D01*
X027089Y003173D01*
X027249Y003239D01*
X027371Y003361D01*
X027437Y003521D01*
X027437Y003694D01*
X027371Y003853D01*
X027249Y003975D01*
X027396Y003794D02*
X027610Y003794D01*
X027569Y003635D02*
X027437Y003635D01*
X027419Y003477D02*
X027587Y003477D01*
X027678Y003318D02*
X027328Y003318D01*
X026678Y003318D02*
X026328Y003318D01*
X026419Y003477D02*
X026587Y003477D01*
X026569Y003635D02*
X026437Y003635D01*
X026396Y003794D02*
X026610Y003794D01*
X026734Y003952D02*
X026272Y003952D01*
X031984Y004269D02*
X032021Y004269D01*
X032021Y004428D02*
X031984Y004428D01*
X031984Y004586D02*
X032021Y004586D01*
X032021Y004745D02*
X031984Y004745D01*
X031984Y004903D02*
X032021Y004903D01*
X032375Y004903D02*
X035384Y004903D01*
X035269Y004745D02*
X032458Y004745D01*
X032478Y004586D02*
X035128Y004586D01*
X034969Y004428D02*
X032444Y004428D01*
X032337Y004269D02*
X034811Y004269D01*
X034205Y003794D02*
X032441Y003794D01*
X032478Y003635D02*
X033957Y003635D01*
X033646Y003477D02*
X032460Y003477D01*
X032380Y003318D02*
X033312Y003318D01*
X032824Y003160D02*
X032164Y003160D01*
X018753Y006013D02*
X008362Y006013D01*
X008362Y006171D02*
X018595Y006171D01*
X015421Y008390D02*
X013833Y008390D01*
X013972Y008232D02*
X015263Y008232D01*
X015104Y008073D02*
X013972Y008073D01*
X013972Y007915D02*
X014946Y007915D01*
X014787Y007756D02*
X013865Y007756D01*
X013707Y007598D02*
X014629Y007598D01*
X010685Y004903D02*
X010375Y004903D01*
X010458Y004745D02*
X010590Y004745D01*
X010569Y004586D02*
X010478Y004586D01*
X010444Y004428D02*
X010607Y004428D01*
X010727Y004269D02*
X010337Y004269D01*
X010322Y004082D02*
X010021Y004082D01*
X010021Y003626D01*
X009984Y003626D01*
X009984Y003589D01*
X010021Y003589D01*
X010021Y003626D01*
X010478Y003626D01*
X010478Y003926D01*
X010466Y003972D01*
X010442Y004013D01*
X010409Y004046D01*
X010368Y004070D01*
X010322Y004082D01*
X010471Y003952D02*
X010734Y003952D01*
X010610Y003794D02*
X010478Y003794D01*
X010478Y003635D02*
X010569Y003635D01*
X010587Y003477D02*
X010478Y003477D01*
X010021Y003477D02*
X009984Y003477D01*
X009984Y003635D02*
X010021Y003635D01*
X010021Y003794D02*
X009984Y003794D01*
X009984Y003952D02*
X010021Y003952D01*
X010021Y004269D02*
X009984Y004269D01*
X009984Y004428D02*
X010021Y004428D01*
X010021Y004586D02*
X009984Y004586D01*
X009984Y004745D02*
X010021Y004745D01*
X010021Y004903D02*
X009984Y004903D01*
X009630Y004903D02*
X008362Y004903D01*
X008362Y004745D02*
X009548Y004745D01*
X009528Y004586D02*
X008362Y004586D01*
X008362Y004428D02*
X009561Y004428D01*
X009669Y004269D02*
X008362Y004269D01*
X009984Y003318D02*
X010021Y003318D01*
X010021Y003160D02*
X009984Y003160D01*
X012908Y011877D02*
X013060Y011877D01*
D24*
X013487Y013211D03*
X016873Y009589D03*
X025219Y013645D03*
X028448Y015456D03*
X028999Y015692D03*
X024353Y023251D03*
X013605Y017385D03*
M02*
