G75*
%MOIN*%
%OFA0B0*%
%FSLAX24Y24*%
%IPPOS*%
%LPD*%
%AMOC8*
5,1,8,0,0,1.08239X$1,22.5*
%
%ADD10C,0.0000*%
D10*
X000633Y001964D02*
X000633Y030704D01*
X020279Y030704D01*
X020279Y001964D01*
X000633Y001964D01*
X013197Y004040D02*
X013199Y004074D01*
X013205Y004108D01*
X013215Y004141D01*
X013228Y004172D01*
X013246Y004202D01*
X013266Y004230D01*
X013290Y004255D01*
X013316Y004277D01*
X013344Y004295D01*
X013375Y004311D01*
X013407Y004323D01*
X013441Y004331D01*
X013475Y004335D01*
X013509Y004335D01*
X013543Y004331D01*
X013577Y004323D01*
X013609Y004311D01*
X013639Y004295D01*
X013668Y004277D01*
X013694Y004255D01*
X013718Y004230D01*
X013738Y004202D01*
X013756Y004172D01*
X013769Y004141D01*
X013779Y004108D01*
X013785Y004074D01*
X013787Y004040D01*
X013785Y004006D01*
X013779Y003972D01*
X013769Y003939D01*
X013756Y003908D01*
X013738Y003878D01*
X013718Y003850D01*
X013694Y003825D01*
X013668Y003803D01*
X013640Y003785D01*
X013609Y003769D01*
X013577Y003757D01*
X013543Y003749D01*
X013509Y003745D01*
X013475Y003745D01*
X013441Y003749D01*
X013407Y003757D01*
X013375Y003769D01*
X013344Y003785D01*
X013316Y003803D01*
X013290Y003825D01*
X013266Y003850D01*
X013246Y003878D01*
X013228Y003908D01*
X013215Y003939D01*
X013205Y003972D01*
X013199Y004006D01*
X013197Y004040D01*
M02*
