%
M48
M72
T01C0.0157
T02C0.0315
T03C0.0320
T04C0.0394
T05C0.0400
T06C0.0560
T07C0.0591
T08C0.0787
%
T01
X5862Y6046
X7161Y5113
X7507Y4452
X8507Y6255
X7641Y6373
X9618Y7129
X10436Y6255
X10476Y5507
X11342Y5586
X12011Y9995
X12429Y11141
X13704Y13027
X13744Y14956
X13606Y16672
X14216Y18290
X15200Y18499
X16657Y20389
X17129Y20231
X17090Y21412
X17377Y17235
X15555Y14956
X15559Y13164
X15476Y11255
X13814Y11007
X12366Y15901
X12444Y18617
X10161Y18538
X9925Y19050
X9177Y18027
X10007Y17381
X8232Y19247
X8625Y20231
X8625Y23027
X10476Y25979
X10358Y27948
X7996Y26176
X7877Y26924
X5751Y22042
X4531Y18775
X6224Y17082
X6224Y15034
X5791Y14011
X5318Y12751
X3980Y11412
X1972Y17082
X8586Y13617
X9177Y13027
X8783Y14956
X17051Y10389
X17917Y9523
X13744Y28145
T02
X16303Y25889
X16303Y24889
X16303Y23889
X16303Y22889
X16303Y21889
X16303Y20889
X16303Y19889
X16303Y18889
X16303Y17889
X16303Y16889
X16303Y15889
X16303Y14889
X16303Y13889
X16303Y12889
X16303Y11889
X16303Y10889
X16303Y9889
X16303Y8889
X16303Y7889
X16303Y6889
X16629Y4184
X16129Y3184
X15629Y4184
X15129Y3184
X14629Y4184
X14129Y3184
X7303Y6889
X7303Y7889
X7303Y8889
X7303Y9889
X7303Y10889
X7303Y11889
X7303Y12889
X7303Y13889
X7303Y14889
X7303Y15889
X7303Y16889
X7303Y17889
X7303Y18889
X7303Y19889
X7303Y20889
X7303Y21889
X7303Y22889
X7303Y23889
X7303Y24889
X7303Y25889
T03
X1633Y14958
X1633Y13958
X1633Y12958
X1633Y11958
X2633Y12458
X2633Y13458
X2633Y14458
X2633Y11458
T04
X4271Y3464
X5271Y3464
X6271Y3464
X8559Y3464
X9559Y3464
X10559Y3464
X2133Y22920
X2133Y23920
X3952Y29208
X4952Y29208
X5952Y29208
X7559Y29208
X8559Y29208
X9559Y29208
X11165Y29208
X12165Y29208
X13165Y29208
X14771Y29208
X15771Y29208
X16771Y29208
T05
X18909Y23645
X18909Y22645
X18909Y21645
X18909Y20645
X18909Y17857
X18909Y16857
X18909Y15857
X18909Y14857
X18952Y12003
X18952Y11003
X18952Y10003
X18913Y8534
X18913Y7534
X18913Y6534
X2066Y17747
X2066Y18747
X2066Y19747
T06
X4700Y8290
X4700Y6912
T07
X13492Y4040
T08
X1814Y3145
X1814Y29523
X19098Y29523
X19098Y3145
M30
