G75*
%MOIN*%
%OFA0B0*%
%FSLAX24Y24*%
%IPPOS*%
%LPD*%
%AMOC8*
5,1,8,0,0,1.08239X$1,22.5*
%
%ADD10C,0.0515*%
%ADD11C,0.0520*%
%ADD12C,0.0594*%
%ADD13C,0.0600*%
%ADD14C,0.0840*%
%ADD15R,0.0630X0.0512*%
%ADD16C,0.0560*%
%ADD17C,0.0740*%
%ADD18C,0.0317*%
%ADD19C,0.0100*%
%ADD20C,0.0157*%
%ADD21C,0.0160*%
%ADD22C,0.0320*%
%ADD23C,0.1181*%
D10*
X007303Y006889D03*
X007303Y007889D03*
X007303Y008889D03*
X007303Y009889D03*
X007303Y010889D03*
X007303Y011889D03*
X007303Y012889D03*
X007303Y013889D03*
X007303Y014889D03*
X007303Y015889D03*
X007303Y016889D03*
X007303Y017889D03*
X007303Y018889D03*
X007303Y019889D03*
X007303Y020889D03*
X007303Y021889D03*
X007303Y022889D03*
X007303Y023889D03*
X007303Y024889D03*
X007303Y025889D03*
X016303Y025889D03*
X016303Y024889D03*
X016303Y023889D03*
X016303Y022889D03*
X016303Y021889D03*
X016303Y020889D03*
X016303Y019889D03*
X016303Y018889D03*
X016303Y017889D03*
X016303Y016889D03*
X016303Y015889D03*
X016303Y014889D03*
X016303Y013889D03*
X016303Y012889D03*
X016303Y011889D03*
X016303Y010889D03*
X016303Y009889D03*
X016303Y008889D03*
X016303Y007889D03*
X016303Y006889D03*
D11*
X002633Y011458D03*
X002633Y012458D03*
X002633Y013458D03*
X002633Y014458D03*
X001633Y014958D03*
X001633Y013958D03*
X001633Y012958D03*
X001633Y011958D03*
D12*
X004271Y003760D02*
X004271Y003167D01*
X005271Y003167D02*
X005271Y003760D01*
X006271Y003760D02*
X006271Y003167D01*
X008559Y003167D02*
X008559Y003760D01*
X009559Y003760D02*
X009559Y003167D01*
X010559Y003167D02*
X010559Y003760D01*
X002430Y022920D02*
X001836Y022920D01*
X001836Y023920D02*
X002430Y023920D01*
X003952Y028911D02*
X003952Y029505D01*
X004952Y029505D02*
X004952Y028911D01*
X005952Y028911D02*
X005952Y029505D01*
X007559Y029505D02*
X007559Y028911D01*
X008559Y028911D02*
X008559Y029505D01*
X009559Y029505D02*
X009559Y028911D01*
X011165Y028911D02*
X011165Y029505D01*
X012165Y029505D02*
X012165Y028911D01*
X013165Y028911D02*
X013165Y029505D01*
X014771Y029505D02*
X014771Y028911D01*
X015771Y028911D02*
X015771Y029505D01*
X016771Y029505D02*
X016771Y028911D01*
D13*
X018609Y023645D02*
X019209Y023645D01*
X019209Y022645D02*
X018609Y022645D01*
X018609Y021645D02*
X019209Y021645D01*
X019209Y020645D02*
X018609Y020645D01*
X018609Y017857D02*
X019209Y017857D01*
X019209Y016857D02*
X018609Y016857D01*
X018609Y015857D02*
X019209Y015857D01*
X019209Y014857D02*
X018609Y014857D01*
X002366Y017747D02*
X001766Y017747D01*
X001766Y018747D02*
X002366Y018747D01*
X002366Y019747D02*
X001766Y019747D01*
D14*
X004280Y008290D02*
X005120Y008290D01*
X005120Y006912D02*
X004280Y006912D01*
D15*
X003059Y005082D03*
X003059Y004334D03*
D16*
X014129Y003184D03*
X014629Y004184D03*
X015129Y003184D03*
X015629Y004184D03*
X016129Y003184D03*
X016629Y004184D03*
D17*
X018913Y006534D03*
X018913Y007534D03*
X018913Y008534D03*
X018952Y010003D03*
X018952Y011003D03*
X018952Y012003D03*
D18*
X017917Y009523D03*
X017051Y010389D03*
X015476Y011255D03*
X015559Y013164D03*
X015555Y014956D03*
X013744Y014956D03*
X013606Y016672D03*
X014216Y018290D03*
X015200Y018499D03*
X016657Y020389D03*
X017129Y020231D03*
X017090Y021412D03*
X017377Y017235D03*
X013704Y013027D03*
X013814Y011007D03*
X012429Y011141D03*
X012011Y009995D03*
X009618Y007129D03*
X010436Y006255D03*
X010476Y005507D03*
X011342Y005586D03*
X008507Y006255D03*
X007641Y006373D03*
X007161Y005113D03*
X007507Y004452D03*
X005862Y006046D03*
X003980Y011412D03*
X005318Y012751D03*
X005791Y014011D03*
X006224Y015034D03*
X006224Y017082D03*
X004531Y018775D03*
X005751Y022042D03*
X008232Y019247D03*
X008625Y020231D03*
X009925Y019050D03*
X010161Y018538D03*
X010007Y017381D03*
X009177Y018027D03*
X008783Y014956D03*
X008586Y013617D03*
X009177Y013027D03*
X012366Y015901D03*
X012444Y018617D03*
X008625Y023027D03*
X010476Y025979D03*
X010358Y027948D03*
X007996Y026176D03*
X007877Y026924D03*
X013744Y028145D03*
X001972Y017082D03*
D19*
X000841Y030496D02*
X000841Y002171D01*
X020072Y002171D01*
X020072Y013926D01*
X019584Y013393D01*
X019582Y013387D01*
X019546Y013351D01*
X019512Y013314D01*
X019506Y013311D01*
X019501Y013307D01*
X019454Y013287D01*
X019408Y013266D01*
X019401Y013265D01*
X019395Y013263D01*
X019344Y013263D01*
X019294Y013260D01*
X019287Y013263D01*
X018404Y013263D01*
X018349Y013262D01*
X018347Y013263D01*
X018344Y013263D01*
X018294Y013284D01*
X018243Y013303D01*
X018241Y013305D01*
X018238Y013307D01*
X018200Y013345D01*
X017337Y014175D01*
X017337Y013481D01*
X017293Y013376D01*
X017213Y013296D01*
X016768Y012851D01*
X016768Y012796D01*
X016697Y012625D01*
X016566Y012495D01*
X016395Y012424D01*
X016210Y012424D01*
X016039Y012495D01*
X015908Y012625D01*
X015838Y012796D01*
X015838Y012981D01*
X015908Y013152D01*
X016039Y013283D01*
X016210Y013354D01*
X016395Y013354D01*
X016442Y013334D01*
X016764Y013657D01*
X016764Y013789D01*
X016697Y013625D01*
X016566Y013495D01*
X016395Y013424D01*
X016210Y013424D01*
X016039Y013495D01*
X015908Y013625D01*
X015838Y013796D01*
X015838Y013981D01*
X015908Y014152D01*
X016039Y014283D01*
X016210Y014354D01*
X016395Y014354D01*
X016566Y014283D01*
X016697Y014152D01*
X016764Y013989D01*
X016764Y014789D01*
X016697Y014625D01*
X016566Y014495D01*
X016395Y014424D01*
X016210Y014424D01*
X016039Y014495D01*
X015908Y014625D01*
X015860Y014743D01*
X015762Y014645D01*
X015627Y014590D01*
X015593Y014590D01*
X015284Y014280D01*
X015178Y014236D01*
X013232Y014236D01*
X009654Y010658D01*
X009549Y010614D01*
X007686Y010614D01*
X007566Y010495D01*
X007395Y010424D01*
X007210Y010424D01*
X007039Y010495D01*
X006908Y010625D01*
X006838Y010796D01*
X006838Y010981D01*
X006908Y011152D01*
X007039Y011283D01*
X007210Y011354D01*
X007395Y011354D01*
X007566Y011283D01*
X007662Y011187D01*
X009373Y011187D01*
X012856Y014670D01*
X009317Y014670D01*
X009211Y014713D01*
X009118Y014807D01*
X009093Y014748D01*
X008990Y014645D01*
X008856Y014590D01*
X008710Y014590D01*
X008575Y014645D01*
X008472Y014748D01*
X008417Y014883D01*
X008417Y014917D01*
X008231Y015103D01*
X007717Y015103D01*
X007768Y014981D01*
X007768Y014796D01*
X007697Y014625D01*
X007566Y014495D01*
X007395Y014424D01*
X007210Y014424D01*
X007039Y014495D01*
X006908Y014625D01*
X006838Y014796D01*
X006838Y014981D01*
X006908Y015152D01*
X006915Y015159D01*
X006893Y015181D01*
X006559Y015181D01*
X006590Y015107D01*
X006590Y014962D01*
X006534Y014827D01*
X006510Y014803D01*
X006510Y009011D01*
X007180Y008341D01*
X007210Y008354D01*
X007395Y008354D01*
X007566Y008283D01*
X007697Y008152D01*
X007768Y007981D01*
X007768Y007796D01*
X007697Y007625D01*
X007566Y007495D01*
X007395Y007424D01*
X007210Y007424D01*
X007039Y007495D01*
X006908Y007625D01*
X006838Y007796D01*
X006838Y007874D01*
X006353Y008359D01*
X006353Y008145D01*
X007163Y007334D01*
X007210Y007354D01*
X007395Y007354D01*
X007566Y007283D01*
X007697Y007152D01*
X007768Y006981D01*
X007768Y006796D01*
X007740Y006729D01*
X007849Y006684D01*
X007952Y006580D01*
X007968Y006541D01*
X008276Y006541D01*
X008300Y006565D01*
X008435Y006621D01*
X008580Y006621D01*
X008715Y006565D01*
X008818Y006462D01*
X008874Y006328D01*
X008874Y006215D01*
X011725Y009051D01*
X011725Y009763D01*
X011701Y009788D01*
X011645Y009922D01*
X011645Y010068D01*
X011701Y010203D01*
X011804Y010306D01*
X011938Y010361D01*
X012084Y010361D01*
X012219Y010306D01*
X012322Y010203D01*
X012378Y010068D01*
X012378Y009922D01*
X012322Y009788D01*
X012298Y009763D01*
X012298Y008989D01*
X012298Y008988D01*
X012298Y008932D01*
X012298Y008875D01*
X012297Y008875D01*
X012297Y008874D01*
X012276Y008822D01*
X012254Y008770D01*
X012254Y008770D01*
X012254Y008769D01*
X012213Y008729D01*
X012173Y008689D01*
X012173Y008689D01*
X008393Y004930D01*
X009958Y004930D01*
X010093Y004874D01*
X010733Y004234D01*
X010844Y004188D01*
X010986Y004046D01*
X011063Y003861D01*
X011063Y003066D01*
X011002Y002919D01*
X013428Y002919D01*
X013642Y003133D01*
X013642Y003281D01*
X013716Y003460D01*
X013853Y003597D01*
X014005Y003660D01*
X013913Y003751D01*
X013776Y003614D01*
X013592Y003538D01*
X013392Y003538D01*
X013207Y003614D01*
X013065Y003756D01*
X012989Y003940D01*
X012989Y004140D01*
X013065Y004325D01*
X013207Y004467D01*
X013392Y004543D01*
X013592Y004543D01*
X013776Y004467D01*
X013812Y004431D01*
X013812Y004461D01*
X013855Y004567D01*
X013936Y004647D01*
X013936Y004647D01*
X015911Y006623D01*
X015908Y006625D01*
X015838Y006796D01*
X015838Y006981D01*
X015908Y007152D01*
X016039Y007283D01*
X016210Y007354D01*
X016395Y007354D01*
X016528Y007299D01*
X016528Y007479D01*
X016395Y007424D01*
X016210Y007424D01*
X016039Y007495D01*
X015908Y007625D01*
X015838Y007796D01*
X015838Y007981D01*
X015908Y008152D01*
X016039Y008283D01*
X016210Y008354D01*
X016395Y008354D01*
X016528Y008299D01*
X016528Y008479D01*
X016395Y008424D01*
X016210Y008424D01*
X016039Y008495D01*
X015908Y008625D01*
X015838Y008796D01*
X015838Y008981D01*
X015908Y009152D01*
X016039Y009283D01*
X016164Y009335D01*
X016060Y009439D01*
X016035Y009498D01*
X015908Y009625D01*
X015838Y009796D01*
X015838Y009981D01*
X015908Y010152D01*
X016039Y010283D01*
X016210Y010354D01*
X016395Y010354D01*
X016566Y010283D01*
X016697Y010152D01*
X016768Y009981D01*
X016768Y009796D01*
X016697Y009625D01*
X016690Y009619D01*
X016977Y009332D01*
X017057Y009252D01*
X017101Y009147D01*
X017101Y004320D01*
X017117Y004281D01*
X017117Y004087D01*
X017043Y003908D01*
X016906Y003771D01*
X016726Y003697D01*
X016532Y003697D01*
X016353Y003771D01*
X016216Y003908D01*
X016142Y004087D01*
X016142Y004281D01*
X016216Y004460D01*
X016353Y004597D01*
X016528Y004670D01*
X016528Y006430D01*
X016465Y006367D01*
X016465Y006367D01*
X014706Y004607D01*
X014730Y004603D01*
X014794Y004583D01*
X014855Y004552D01*
X014910Y004512D01*
X014957Y004464D01*
X014997Y004409D01*
X015028Y004349D01*
X015049Y004285D01*
X015059Y004218D01*
X015059Y004213D01*
X014658Y004213D01*
X014658Y004155D01*
X015059Y004155D01*
X015059Y004150D01*
X015049Y004083D01*
X015028Y004019D01*
X014997Y003959D01*
X014957Y003904D01*
X014910Y003856D01*
X014855Y003816D01*
X014794Y003786D01*
X014730Y003765D01*
X014712Y003762D01*
X014870Y003604D01*
X015032Y003672D01*
X015226Y003672D01*
X015406Y003597D01*
X015543Y003460D01*
X015617Y003281D01*
X015617Y003087D01*
X015543Y002908D01*
X015406Y002771D01*
X015226Y002697D01*
X015032Y002697D01*
X014853Y002771D01*
X014716Y002908D01*
X014687Y002977D01*
X014643Y003022D01*
X014643Y003022D01*
X014605Y003059D01*
X014543Y002908D01*
X014406Y002771D01*
X014226Y002697D01*
X014032Y002697D01*
X014020Y002702D01*
X013709Y002390D01*
X013604Y002347D01*
X003765Y002347D01*
X003660Y002390D01*
X003580Y002471D01*
X002517Y003533D01*
X002612Y003303D01*
X002612Y002986D01*
X002491Y002693D01*
X002266Y002468D01*
X001973Y002347D01*
X001656Y002347D01*
X001362Y002468D01*
X001138Y002693D01*
X001016Y002986D01*
X001016Y003303D01*
X001138Y003597D01*
X001362Y003821D01*
X001656Y003943D01*
X001973Y003943D01*
X002203Y003848D01*
X001414Y004636D01*
X001371Y004741D01*
X001371Y011560D01*
X001369Y011561D01*
X001237Y011693D01*
X001166Y011865D01*
X001166Y012051D01*
X001237Y012223D01*
X001369Y012354D01*
X001540Y012425D01*
X001726Y012425D01*
X001898Y012354D01*
X002030Y012223D01*
X002101Y012051D01*
X002101Y011865D01*
X002030Y011693D01*
X001943Y011606D01*
X001943Y004917D01*
X002536Y004324D01*
X002536Y004676D01*
X002568Y004708D01*
X002536Y004740D01*
X002536Y005424D01*
X002658Y005545D01*
X003459Y005545D01*
X003581Y005424D01*
X003581Y005360D01*
X003801Y005360D01*
X003906Y005316D01*
X005020Y004202D01*
X005171Y004265D01*
X005371Y004265D01*
X005557Y004188D01*
X005699Y004046D01*
X005771Y003871D01*
X005844Y004046D01*
X005896Y004098D01*
X005896Y004339D01*
X004445Y005790D01*
X004394Y005841D01*
X004393Y005841D01*
X004393Y005842D01*
X004365Y005909D01*
X004337Y005975D01*
X004337Y005976D01*
X004337Y005977D01*
X004337Y006049D01*
X004336Y006285D01*
X004155Y006285D01*
X003925Y006380D01*
X003748Y006557D01*
X003653Y006788D01*
X003653Y007037D01*
X003748Y007268D01*
X003925Y007444D01*
X004155Y007540D01*
X005245Y007540D01*
X005476Y007444D01*
X005652Y007268D01*
X005748Y007037D01*
X005748Y006788D01*
X005652Y006557D01*
X005476Y006380D01*
X005245Y006285D01*
X005071Y006285D01*
X005071Y006203D01*
X006345Y004930D01*
X006809Y004930D01*
X006944Y004874D01*
X007186Y004632D01*
X007197Y004659D01*
X007300Y004762D01*
X007435Y004818D01*
X007470Y004818D01*
X008546Y005889D01*
X008435Y005889D01*
X008300Y005944D01*
X008276Y005969D01*
X007702Y005969D01*
X007610Y006007D01*
X007568Y006007D01*
X007434Y006063D01*
X007331Y006166D01*
X007275Y006300D01*
X007275Y006424D01*
X007210Y006424D01*
X007039Y006495D01*
X006908Y006625D01*
X006838Y006796D01*
X006838Y006851D01*
X005904Y007784D01*
X005824Y007864D01*
X005780Y007970D01*
X005780Y008420D01*
X005722Y008479D01*
X005748Y008415D01*
X005748Y008166D01*
X005652Y007935D01*
X005476Y007758D01*
X005245Y007663D01*
X004155Y007663D01*
X003925Y007758D01*
X003748Y007935D01*
X003653Y008166D01*
X003653Y008415D01*
X003748Y008646D01*
X003925Y008822D01*
X004155Y008918D01*
X005245Y008918D01*
X005476Y008822D01*
X005505Y008793D01*
X005505Y012432D01*
X005391Y012385D01*
X005357Y012385D01*
X004346Y011374D01*
X004346Y011340D01*
X004290Y011205D01*
X004187Y011102D01*
X004053Y011046D01*
X003907Y011046D01*
X003772Y011102D01*
X003669Y011205D01*
X003614Y011340D01*
X003614Y011485D01*
X003669Y011620D01*
X003772Y011723D01*
X003907Y011779D01*
X003941Y011779D01*
X004952Y012790D01*
X004952Y012824D01*
X005008Y012958D01*
X005111Y013061D01*
X005246Y013117D01*
X005391Y013117D01*
X005505Y013070D01*
X005505Y013779D01*
X005480Y013803D01*
X005425Y013938D01*
X005425Y014084D01*
X005480Y014218D01*
X005583Y014321D01*
X005718Y014377D01*
X005864Y014377D01*
X005938Y014346D01*
X005938Y014803D01*
X005913Y014827D01*
X005878Y014913D01*
X003197Y012233D01*
X003092Y012189D01*
X003026Y012189D01*
X002898Y012061D01*
X002726Y011990D01*
X002540Y011990D01*
X002369Y012061D01*
X002237Y012193D01*
X002166Y012365D01*
X002166Y012551D01*
X002237Y012723D01*
X002369Y012854D01*
X002540Y012925D01*
X002726Y012925D01*
X002898Y012854D01*
X002953Y012799D01*
X005784Y015630D01*
X005865Y015710D01*
X005970Y015754D01*
X006855Y015754D01*
X006838Y015796D01*
X006838Y015981D01*
X006908Y016152D01*
X007039Y016283D01*
X007210Y016354D01*
X007395Y016354D01*
X007566Y016283D01*
X007697Y016152D01*
X007768Y015981D01*
X007768Y015796D01*
X007717Y015675D01*
X008249Y015675D01*
X007470Y016455D01*
X007395Y016424D01*
X007210Y016424D01*
X007039Y016495D01*
X006908Y016625D01*
X006838Y016796D01*
X006838Y016981D01*
X006908Y017152D01*
X007039Y017283D01*
X007040Y017283D01*
X007040Y017494D01*
X007039Y017495D01*
X006908Y017625D01*
X006838Y017796D01*
X006838Y017981D01*
X006908Y018152D01*
X007039Y018283D01*
X007210Y018354D01*
X007395Y018354D01*
X007566Y018283D01*
X007697Y018152D01*
X007768Y017981D01*
X007768Y017796D01*
X007697Y017625D01*
X007612Y017541D01*
X007612Y017237D01*
X007697Y017152D01*
X007768Y016981D01*
X007768Y016966D01*
X009492Y015242D01*
X010966Y015242D01*
X007989Y018219D01*
X007946Y018324D01*
X007946Y019015D01*
X007921Y019040D01*
X007866Y019174D01*
X007866Y019320D01*
X007921Y019455D01*
X008024Y019558D01*
X008159Y019613D01*
X008248Y019613D01*
X007700Y020161D01*
X007694Y020155D01*
X007697Y020152D01*
X007768Y019981D01*
X007768Y019796D01*
X007697Y019625D01*
X007566Y019495D01*
X007395Y019424D01*
X007210Y019424D01*
X007039Y019495D01*
X006908Y019625D01*
X006838Y019796D01*
X006838Y019981D01*
X006888Y020103D01*
X004846Y020103D01*
X003990Y019247D01*
X003990Y014387D01*
X003947Y014282D01*
X003866Y014201D01*
X003101Y013436D01*
X003101Y013365D01*
X003030Y013193D01*
X002898Y013061D01*
X002726Y012990D01*
X002540Y012990D01*
X002455Y013026D01*
X002173Y012745D01*
X002068Y012701D01*
X002033Y012701D01*
X002030Y012693D01*
X001898Y012561D01*
X001726Y012490D01*
X001540Y012490D01*
X001369Y012561D01*
X001237Y012693D01*
X001166Y012865D01*
X001166Y013051D01*
X001237Y013223D01*
X001369Y013354D01*
X001540Y013425D01*
X001726Y013425D01*
X001898Y013354D01*
X001936Y013316D01*
X002166Y013547D01*
X002166Y013551D01*
X002237Y013723D01*
X002369Y013854D01*
X002540Y013925D01*
X002726Y013925D01*
X002765Y013909D01*
X003418Y014562D01*
X003418Y018674D01*
X003317Y018573D01*
X003317Y018573D01*
X003236Y018493D01*
X003131Y018449D01*
X002786Y018449D01*
X002654Y018317D01*
X002485Y018247D01*
X002654Y018177D01*
X002797Y018035D01*
X002874Y017848D01*
X002874Y017646D01*
X002797Y017460D01*
X002654Y017317D01*
X002467Y017240D01*
X002303Y017240D01*
X002338Y017155D01*
X002338Y017009D01*
X002282Y016874D01*
X002179Y016771D01*
X002045Y016715D01*
X001899Y016715D01*
X001764Y016771D01*
X001740Y016795D01*
X001679Y016795D01*
X001574Y016839D01*
X001140Y017272D01*
X001060Y017353D01*
X001016Y017458D01*
X001016Y026627D01*
X001060Y026732D01*
X003448Y029120D01*
X003448Y029605D01*
X003525Y029790D01*
X003667Y029932D01*
X003852Y030009D01*
X004053Y030009D01*
X004238Y029932D01*
X004380Y029790D01*
X004457Y029605D01*
X004457Y028811D01*
X004380Y028625D01*
X004238Y028483D01*
X004053Y028407D01*
X003852Y028407D01*
X003667Y028483D01*
X003644Y028506D01*
X001589Y026451D01*
X001589Y024364D01*
X001736Y024425D01*
X002531Y024425D01*
X002716Y024348D01*
X002858Y024206D01*
X002935Y024021D01*
X002935Y023820D01*
X002858Y023635D01*
X002716Y023493D01*
X002541Y023420D01*
X002716Y023348D01*
X002858Y023206D01*
X002935Y023021D01*
X002935Y022820D01*
X002858Y022635D01*
X002716Y022493D01*
X002531Y022416D01*
X001736Y022416D01*
X001589Y022477D01*
X001589Y020223D01*
X001665Y020255D01*
X002467Y020255D01*
X002654Y020177D01*
X002797Y020035D01*
X002874Y019848D01*
X002874Y019646D01*
X002797Y019460D01*
X002654Y019317D01*
X002485Y019247D01*
X002654Y019177D01*
X002797Y019035D01*
X002802Y019021D01*
X002956Y019021D01*
X003422Y019488D01*
X003422Y019488D01*
X003503Y019568D01*
X004566Y020631D01*
X004671Y020675D01*
X006888Y020675D01*
X006838Y020796D01*
X006838Y020981D01*
X006908Y021152D01*
X007039Y021283D01*
X007210Y021354D01*
X007395Y021354D01*
X007566Y021283D01*
X007697Y021152D01*
X007768Y020981D01*
X007768Y020796D01*
X007766Y020793D01*
X007816Y020793D01*
X007921Y020750D01*
X008002Y020669D01*
X008291Y020380D01*
X008315Y020439D01*
X008339Y020463D01*
X008339Y022795D01*
X008315Y022819D01*
X008259Y022954D01*
X008259Y023099D01*
X008315Y023234D01*
X008418Y023337D01*
X008532Y023384D01*
X007464Y024452D01*
X007395Y024424D01*
X007210Y024424D01*
X007039Y024495D01*
X006908Y024625D01*
X006838Y024796D01*
X006838Y024981D01*
X006843Y024995D01*
X005745Y026093D01*
X005701Y026198D01*
X005701Y028469D01*
X005667Y028483D01*
X005525Y028625D01*
X005448Y028811D01*
X005448Y029605D01*
X005525Y029790D01*
X005667Y029932D01*
X005852Y030009D01*
X006053Y030009D01*
X006238Y029932D01*
X006380Y029790D01*
X006457Y029605D01*
X006457Y028811D01*
X006381Y028628D01*
X007130Y028628D01*
X007054Y028811D01*
X007054Y029605D01*
X007131Y029790D01*
X007273Y029932D01*
X007458Y030009D01*
X007659Y030009D01*
X007844Y029932D01*
X007986Y029790D01*
X008063Y029605D01*
X008063Y028811D01*
X007987Y028628D01*
X008212Y028628D01*
X008176Y028677D01*
X008144Y028739D01*
X008123Y028806D01*
X008112Y028876D01*
X008112Y029159D01*
X008510Y029159D01*
X008510Y029256D01*
X008112Y029256D01*
X008112Y029540D01*
X008123Y029609D01*
X008144Y029676D01*
X008176Y029739D01*
X008218Y029796D01*
X008267Y029845D01*
X008324Y029887D01*
X008387Y029919D01*
X008454Y029940D01*
X008510Y029949D01*
X008510Y029256D01*
X008607Y029256D01*
X009005Y029256D01*
X009005Y029540D01*
X008994Y029609D01*
X008973Y029676D01*
X008941Y029739D01*
X008899Y029796D01*
X008850Y029845D01*
X008793Y029887D01*
X008730Y029919D01*
X008663Y029940D01*
X008607Y029949D01*
X008607Y029256D01*
X008607Y029159D01*
X009005Y029159D01*
X009005Y029008D01*
X009054Y029057D01*
X009054Y029605D01*
X009131Y029790D01*
X009273Y029932D01*
X009458Y030009D01*
X009659Y030009D01*
X009844Y029932D01*
X009986Y029790D01*
X010063Y029605D01*
X010063Y028811D01*
X009986Y028625D01*
X009844Y028483D01*
X009659Y028407D01*
X009458Y028407D01*
X009285Y028478D01*
X008986Y028179D01*
X008906Y028099D01*
X008801Y028055D01*
X006274Y028055D01*
X006274Y026373D01*
X006935Y025712D01*
X006925Y025732D01*
X006905Y025793D01*
X006895Y025857D01*
X006895Y025860D01*
X007274Y025860D01*
X007331Y025860D01*
X007331Y025481D01*
X007335Y025481D01*
X007398Y025491D01*
X007459Y025511D01*
X007516Y025540D01*
X007568Y025578D01*
X007613Y025623D01*
X007651Y025675D01*
X007680Y025732D01*
X007700Y025793D01*
X007710Y025857D01*
X007710Y025860D01*
X007331Y025860D01*
X007331Y025918D01*
X007274Y025918D01*
X007274Y026296D01*
X007271Y026296D01*
X007207Y026286D01*
X007146Y026266D01*
X007089Y026237D01*
X007037Y026200D01*
X006992Y026154D01*
X006954Y026102D01*
X006925Y026045D01*
X006905Y025984D01*
X006895Y025921D01*
X006895Y025918D01*
X007274Y025918D01*
X007274Y025860D01*
X007274Y025481D01*
X007271Y025481D01*
X007207Y025491D01*
X007146Y025511D01*
X007126Y025522D01*
X007294Y025354D01*
X007395Y025354D01*
X007566Y025283D01*
X007697Y025152D01*
X007768Y024981D01*
X007768Y024959D01*
X010128Y022598D01*
X010172Y022493D01*
X010172Y019336D01*
X012068Y019336D01*
X012173Y019293D01*
X012483Y018983D01*
X012517Y018983D01*
X012652Y018928D01*
X012755Y018825D01*
X012811Y018690D01*
X012811Y018544D01*
X012755Y018410D01*
X012658Y018313D01*
X013850Y018313D01*
X013850Y018363D01*
X013906Y018498D01*
X013930Y018522D01*
X013930Y019778D01*
X013431Y020277D01*
X013431Y020277D01*
X013391Y020317D01*
X013351Y020357D01*
X007955Y025810D01*
X007923Y025810D01*
X007788Y025866D01*
X007706Y025948D01*
X007710Y025921D01*
X007710Y025918D01*
X007331Y025918D01*
X007331Y026296D01*
X007335Y026296D01*
X007398Y026286D01*
X007459Y026266D01*
X007516Y026237D01*
X007568Y026200D01*
X007613Y026154D01*
X007629Y026132D01*
X007629Y026249D01*
X007685Y026384D01*
X007788Y026487D01*
X007923Y026542D01*
X008068Y026542D01*
X008203Y026487D01*
X008306Y026384D01*
X008362Y026249D01*
X008362Y026213D01*
X013797Y020721D01*
X014378Y020139D01*
X014378Y020139D01*
X014459Y020059D01*
X014502Y019954D01*
X014502Y018522D01*
X014526Y018498D01*
X014582Y018363D01*
X014582Y018218D01*
X014526Y018083D01*
X014447Y018003D01*
X016130Y016321D01*
X016210Y016354D01*
X016395Y016354D01*
X016566Y016283D01*
X016697Y016152D01*
X016764Y015989D01*
X016764Y016789D01*
X016697Y016625D01*
X016566Y016495D01*
X016395Y016424D01*
X016210Y016424D01*
X016039Y016495D01*
X015908Y016625D01*
X015838Y016796D01*
X015838Y016981D01*
X015908Y017152D01*
X016039Y017283D01*
X016210Y017354D01*
X016395Y017354D01*
X016566Y017283D01*
X016697Y017152D01*
X016764Y016989D01*
X016764Y017789D01*
X016697Y017625D01*
X016566Y017495D01*
X016395Y017424D01*
X016210Y017424D01*
X016039Y017495D01*
X015908Y017625D01*
X015838Y017796D01*
X015838Y017981D01*
X015908Y018152D01*
X016039Y018283D01*
X016210Y018354D01*
X016395Y018354D01*
X016566Y018283D01*
X016697Y018152D01*
X016764Y017989D01*
X016764Y018789D01*
X016697Y018625D01*
X016566Y018495D01*
X016395Y018424D01*
X016210Y018424D01*
X016039Y018495D01*
X015908Y018625D01*
X015838Y018796D01*
X015838Y018981D01*
X015908Y019152D01*
X016039Y019283D01*
X016210Y019354D01*
X016395Y019354D01*
X016566Y019283D01*
X016697Y019152D01*
X016764Y018989D01*
X016764Y019789D01*
X016697Y019625D01*
X016566Y019495D01*
X016395Y019424D01*
X016210Y019424D01*
X016039Y019495D01*
X015908Y019625D01*
X015838Y019796D01*
X015838Y019981D01*
X015908Y020152D01*
X016039Y020283D01*
X016210Y020354D01*
X016291Y020354D01*
X016291Y020424D01*
X016210Y020424D01*
X016039Y020495D01*
X015908Y020625D01*
X015838Y020796D01*
X015838Y020981D01*
X015908Y021152D01*
X016039Y021283D01*
X016210Y021354D01*
X016395Y021354D01*
X016566Y021283D01*
X016697Y021152D01*
X016768Y020981D01*
X016768Y020904D01*
X016941Y021078D01*
X016883Y021102D01*
X016780Y021205D01*
X016724Y021340D01*
X016724Y021485D01*
X016780Y021620D01*
X016804Y021644D01*
X016804Y026058D01*
X016223Y026638D01*
X008109Y026638D01*
X008085Y026614D01*
X007950Y026558D01*
X007805Y026558D01*
X007670Y026614D01*
X007567Y026717D01*
X007511Y026851D01*
X007511Y026997D01*
X007567Y027132D01*
X007670Y027235D01*
X007805Y027290D01*
X007950Y027290D01*
X008085Y027235D01*
X008109Y027210D01*
X016399Y027210D01*
X016504Y027167D01*
X016585Y027086D01*
X017333Y026338D01*
X017376Y026233D01*
X017376Y021644D01*
X017400Y021620D01*
X017425Y021561D01*
X017674Y021811D01*
X017755Y021891D01*
X017860Y021935D01*
X018181Y021935D01*
X018321Y022075D01*
X018490Y022145D01*
X018321Y022214D01*
X018179Y022357D01*
X018101Y022544D01*
X018101Y022746D01*
X018179Y022932D01*
X018321Y023075D01*
X018508Y023152D01*
X019310Y023152D01*
X019496Y023075D01*
X019639Y022932D01*
X019716Y022746D01*
X019716Y022544D01*
X019639Y022357D01*
X019496Y022214D01*
X019328Y022145D01*
X019496Y022075D01*
X019639Y021932D01*
X019716Y021746D01*
X019716Y021544D01*
X019639Y021357D01*
X019496Y021214D01*
X019328Y021145D01*
X019496Y021075D01*
X019639Y020932D01*
X019716Y020746D01*
X019716Y020544D01*
X019639Y020357D01*
X019496Y020214D01*
X019310Y020137D01*
X018779Y020137D01*
X018085Y019443D01*
X018085Y015625D01*
X018393Y015317D01*
X018490Y015357D01*
X018321Y015427D01*
X018179Y015570D01*
X018101Y015756D01*
X018101Y015958D01*
X018179Y016145D01*
X018321Y016288D01*
X018490Y016357D01*
X018321Y016427D01*
X018179Y016570D01*
X018101Y016756D01*
X018101Y016958D01*
X018179Y017145D01*
X018321Y017288D01*
X018508Y017365D01*
X019310Y017365D01*
X019496Y017288D01*
X019639Y017145D01*
X019716Y016958D01*
X019716Y016756D01*
X019639Y016570D01*
X019496Y016427D01*
X019328Y016357D01*
X019496Y016288D01*
X019639Y016145D01*
X019716Y015958D01*
X019716Y015756D01*
X019639Y015570D01*
X019621Y015552D01*
X020072Y015101D01*
X020072Y030496D01*
X000841Y030496D01*
X000841Y030430D02*
X020072Y030430D01*
X020072Y030332D02*
X000841Y030332D01*
X000841Y030233D02*
X001444Y030233D01*
X001362Y030199D02*
X001138Y029975D01*
X001016Y029681D01*
X001016Y029364D01*
X001138Y029071D01*
X001362Y028846D01*
X001656Y028725D01*
X001973Y028725D01*
X002266Y028846D01*
X002491Y029071D01*
X002612Y029364D01*
X002612Y029681D01*
X002491Y029975D01*
X002266Y030199D01*
X001973Y030321D01*
X001656Y030321D01*
X001362Y030199D01*
X001298Y030135D02*
X000841Y030135D01*
X000841Y030036D02*
X001199Y030036D01*
X001123Y029938D02*
X000841Y029938D01*
X000841Y029839D02*
X001082Y029839D01*
X001041Y029741D02*
X000841Y029741D01*
X000841Y029642D02*
X001016Y029642D01*
X001016Y029544D02*
X000841Y029544D01*
X000841Y029445D02*
X001016Y029445D01*
X001024Y029347D02*
X000841Y029347D01*
X000841Y029248D02*
X001064Y029248D01*
X001105Y029150D02*
X000841Y029150D01*
X000841Y029051D02*
X001157Y029051D01*
X001256Y028953D02*
X000841Y028953D01*
X000841Y028854D02*
X001354Y028854D01*
X001581Y028756D02*
X000841Y028756D01*
X000841Y028657D02*
X002985Y028657D01*
X002887Y028559D02*
X000841Y028559D01*
X000841Y028460D02*
X002788Y028460D01*
X002690Y028362D02*
X000841Y028362D01*
X000841Y028263D02*
X002591Y028263D01*
X002493Y028165D02*
X000841Y028165D01*
X000841Y028066D02*
X002394Y028066D01*
X002296Y027968D02*
X000841Y027968D01*
X000841Y027869D02*
X002197Y027869D01*
X002099Y027771D02*
X000841Y027771D01*
X000841Y027672D02*
X002000Y027672D01*
X001902Y027574D02*
X000841Y027574D01*
X000841Y027475D02*
X001803Y027475D01*
X001705Y027377D02*
X000841Y027377D01*
X000841Y027278D02*
X001606Y027278D01*
X001508Y027180D02*
X000841Y027180D01*
X000841Y027081D02*
X001409Y027081D01*
X001311Y026983D02*
X000841Y026983D01*
X000841Y026884D02*
X001212Y026884D01*
X001114Y026786D02*
X000841Y026786D01*
X000841Y026687D02*
X001041Y026687D01*
X001016Y026589D02*
X000841Y026589D01*
X000841Y026490D02*
X001016Y026490D01*
X001016Y026392D02*
X000841Y026392D01*
X000841Y026293D02*
X001016Y026293D01*
X001016Y026195D02*
X000841Y026195D01*
X000841Y026096D02*
X001016Y026096D01*
X001016Y025998D02*
X000841Y025998D01*
X000841Y025899D02*
X001016Y025899D01*
X001016Y025801D02*
X000841Y025801D01*
X000841Y025702D02*
X001016Y025702D01*
X001016Y025604D02*
X000841Y025604D01*
X000841Y025505D02*
X001016Y025505D01*
X001016Y025407D02*
X000841Y025407D01*
X000841Y025308D02*
X001016Y025308D01*
X001016Y025210D02*
X000841Y025210D01*
X000841Y025111D02*
X001016Y025111D01*
X001016Y025013D02*
X000841Y025013D01*
X000841Y024914D02*
X001016Y024914D01*
X001016Y024816D02*
X000841Y024816D01*
X000841Y024717D02*
X001016Y024717D01*
X001016Y024619D02*
X000841Y024619D01*
X000841Y024520D02*
X001016Y024520D01*
X001016Y024422D02*
X000841Y024422D01*
X000841Y024323D02*
X001016Y024323D01*
X001016Y024225D02*
X000841Y024225D01*
X000841Y024126D02*
X001016Y024126D01*
X001016Y024028D02*
X000841Y024028D01*
X000841Y023929D02*
X001016Y023929D01*
X001016Y023831D02*
X000841Y023831D01*
X000841Y023732D02*
X001016Y023732D01*
X001016Y023634D02*
X000841Y023634D01*
X000841Y023535D02*
X001016Y023535D01*
X001016Y023437D02*
X000841Y023437D01*
X000841Y023338D02*
X001016Y023338D01*
X001016Y023240D02*
X000841Y023240D01*
X000841Y023141D02*
X001016Y023141D01*
X001016Y023043D02*
X000841Y023043D01*
X000841Y022944D02*
X001016Y022944D01*
X001016Y022846D02*
X000841Y022846D01*
X000841Y022747D02*
X001016Y022747D01*
X001016Y022649D02*
X000841Y022649D01*
X000841Y022550D02*
X001016Y022550D01*
X001016Y022452D02*
X000841Y022452D01*
X000841Y022353D02*
X001016Y022353D01*
X001016Y022255D02*
X000841Y022255D01*
X000841Y022156D02*
X001016Y022156D01*
X001016Y022058D02*
X000841Y022058D01*
X000841Y021959D02*
X001016Y021959D01*
X001016Y021861D02*
X000841Y021861D01*
X000841Y021762D02*
X001016Y021762D01*
X001016Y021664D02*
X000841Y021664D01*
X000841Y021565D02*
X001016Y021565D01*
X001016Y021467D02*
X000841Y021467D01*
X000841Y021368D02*
X001016Y021368D01*
X001016Y021270D02*
X000841Y021270D01*
X000841Y021171D02*
X001016Y021171D01*
X001016Y021073D02*
X000841Y021073D01*
X000841Y020974D02*
X001016Y020974D01*
X001016Y020876D02*
X000841Y020876D01*
X000841Y020777D02*
X001016Y020777D01*
X001016Y020679D02*
X000841Y020679D01*
X000841Y020580D02*
X001016Y020580D01*
X001016Y020482D02*
X000841Y020482D01*
X000841Y020383D02*
X001016Y020383D01*
X001016Y020285D02*
X000841Y020285D01*
X000841Y020186D02*
X001016Y020186D01*
X001016Y020088D02*
X000841Y020088D01*
X000841Y019989D02*
X001016Y019989D01*
X001016Y019891D02*
X000841Y019891D01*
X000841Y019792D02*
X001016Y019792D01*
X001016Y019694D02*
X000841Y019694D01*
X000841Y019595D02*
X001016Y019595D01*
X001016Y019497D02*
X000841Y019497D01*
X000841Y019398D02*
X001016Y019398D01*
X001016Y019300D02*
X000841Y019300D01*
X000841Y019201D02*
X001016Y019201D01*
X001016Y019103D02*
X000841Y019103D01*
X000841Y019004D02*
X001016Y019004D01*
X001016Y018906D02*
X000841Y018906D01*
X000841Y018807D02*
X001016Y018807D01*
X001016Y018709D02*
X000841Y018709D01*
X000841Y018610D02*
X001016Y018610D01*
X001016Y018512D02*
X000841Y018512D01*
X000841Y018413D02*
X001016Y018413D01*
X001016Y018315D02*
X000841Y018315D01*
X000841Y018216D02*
X001016Y018216D01*
X001016Y018118D02*
X000841Y018118D01*
X000841Y018019D02*
X001016Y018019D01*
X001016Y017921D02*
X000841Y017921D01*
X000841Y017822D02*
X001016Y017822D01*
X001016Y017724D02*
X000841Y017724D01*
X000841Y017625D02*
X001016Y017625D01*
X001016Y017527D02*
X000841Y017527D01*
X000841Y017428D02*
X001029Y017428D01*
X001083Y017330D02*
X000841Y017330D01*
X000841Y017231D02*
X001181Y017231D01*
X001280Y017133D02*
X000841Y017133D01*
X000841Y017034D02*
X001378Y017034D01*
X001477Y016936D02*
X000841Y016936D01*
X000841Y016837D02*
X001578Y016837D01*
X001843Y016739D02*
X000841Y016739D01*
X000841Y016640D02*
X003418Y016640D01*
X003418Y016542D02*
X000841Y016542D01*
X000841Y016443D02*
X003418Y016443D01*
X003418Y016345D02*
X000841Y016345D01*
X000841Y016246D02*
X003418Y016246D01*
X003418Y016148D02*
X000841Y016148D01*
X000841Y016049D02*
X003418Y016049D01*
X003418Y015951D02*
X000841Y015951D01*
X000841Y015852D02*
X003418Y015852D01*
X003418Y015754D02*
X000841Y015754D01*
X000841Y015655D02*
X003418Y015655D01*
X003418Y015557D02*
X000841Y015557D01*
X000841Y015458D02*
X003418Y015458D01*
X003418Y015360D02*
X001716Y015360D01*
X001729Y015358D02*
X001666Y015368D01*
X001663Y015368D01*
X001663Y014988D01*
X001603Y014988D01*
X001603Y014928D01*
X001223Y014928D01*
X001223Y014925D01*
X001233Y014862D01*
X001253Y014800D01*
X001283Y014743D01*
X001321Y014691D01*
X001366Y014645D01*
X001418Y014607D01*
X001476Y014578D01*
X001537Y014558D01*
X001601Y014548D01*
X001603Y014548D01*
X001603Y014928D01*
X001663Y014928D01*
X001663Y014548D01*
X001666Y014548D01*
X001729Y014558D01*
X001791Y014578D01*
X001848Y014607D01*
X001900Y014645D01*
X001946Y014691D01*
X001984Y014743D01*
X002013Y014800D01*
X002033Y014862D01*
X002043Y014925D01*
X002043Y014928D01*
X001663Y014928D01*
X001663Y014988D01*
X002043Y014988D01*
X002043Y014990D01*
X002033Y015054D01*
X002013Y015115D01*
X001984Y015173D01*
X001946Y015225D01*
X001900Y015270D01*
X001848Y015308D01*
X001791Y015338D01*
X001729Y015358D01*
X001663Y015360D02*
X001603Y015360D01*
X001603Y015368D02*
X001601Y015368D01*
X001537Y015358D01*
X001476Y015338D01*
X001418Y015308D01*
X001366Y015270D01*
X001321Y015225D01*
X001283Y015173D01*
X001253Y015115D01*
X001233Y015054D01*
X001223Y014990D01*
X001223Y014988D01*
X001603Y014988D01*
X001603Y015368D01*
X001550Y015360D02*
X000841Y015360D01*
X000841Y015261D02*
X001357Y015261D01*
X001278Y015163D02*
X000841Y015163D01*
X000841Y015064D02*
X001237Y015064D01*
X001233Y014867D02*
X000841Y014867D01*
X000841Y014769D02*
X001270Y014769D01*
X001341Y014670D02*
X000841Y014670D01*
X000841Y014572D02*
X001495Y014572D01*
X001603Y014572D02*
X001663Y014572D01*
X001663Y014670D02*
X001603Y014670D01*
X001603Y014769D02*
X001663Y014769D01*
X001663Y014867D02*
X001603Y014867D01*
X001603Y014966D02*
X000841Y014966D01*
X000841Y014473D02*
X002166Y014473D01*
X002166Y014551D02*
X002166Y014365D01*
X002237Y014193D01*
X002369Y014061D01*
X002540Y013990D01*
X002726Y013990D01*
X002898Y014061D01*
X003030Y014193D01*
X003101Y014365D01*
X003101Y014551D01*
X003030Y014723D01*
X002898Y014854D01*
X002726Y014925D01*
X002540Y014925D01*
X002369Y014854D01*
X002237Y014723D01*
X002166Y014551D01*
X002175Y014572D02*
X001772Y014572D01*
X001726Y014425D02*
X001540Y014425D01*
X001369Y014354D01*
X001237Y014223D01*
X001166Y014051D01*
X001166Y013865D01*
X001237Y013693D01*
X001369Y013561D01*
X001540Y013490D01*
X001726Y013490D01*
X001898Y013561D01*
X002030Y013693D01*
X002101Y013865D01*
X002101Y014051D01*
X002030Y014223D01*
X001898Y014354D01*
X001726Y014425D01*
X001848Y014375D02*
X002166Y014375D01*
X002203Y014276D02*
X001976Y014276D01*
X002048Y014178D02*
X002252Y014178D01*
X002351Y014079D02*
X002089Y014079D01*
X002101Y013981D02*
X002836Y013981D01*
X002916Y014079D02*
X002935Y014079D01*
X003014Y014178D02*
X003033Y014178D01*
X003064Y014276D02*
X003132Y014276D01*
X003101Y014375D02*
X003230Y014375D01*
X003329Y014473D02*
X003101Y014473D01*
X003092Y014572D02*
X003418Y014572D01*
X003418Y014670D02*
X003051Y014670D01*
X002984Y014769D02*
X003418Y014769D01*
X003418Y014867D02*
X002866Y014867D01*
X003418Y014966D02*
X001663Y014966D01*
X001663Y015064D02*
X001603Y015064D01*
X001603Y015163D02*
X001663Y015163D01*
X001663Y015261D02*
X001603Y015261D01*
X001910Y015261D02*
X003418Y015261D01*
X003418Y015163D02*
X001989Y015163D01*
X002030Y015064D02*
X003418Y015064D01*
X003990Y015064D02*
X005219Y015064D01*
X005317Y015163D02*
X003990Y015163D01*
X003990Y015261D02*
X005416Y015261D01*
X005514Y015360D02*
X003990Y015360D01*
X003990Y015458D02*
X005613Y015458D01*
X005711Y015557D02*
X003990Y015557D01*
X003990Y015655D02*
X005810Y015655D01*
X005970Y015754D02*
X003990Y015754D01*
X003990Y015852D02*
X006838Y015852D01*
X006838Y015951D02*
X003990Y015951D01*
X003990Y016049D02*
X006866Y016049D01*
X006907Y016148D02*
X003990Y016148D01*
X003990Y016246D02*
X007002Y016246D01*
X007188Y016345D02*
X003990Y016345D01*
X003990Y016443D02*
X007164Y016443D01*
X006992Y016542D02*
X003990Y016542D01*
X003990Y016640D02*
X006902Y016640D01*
X006862Y016739D02*
X006353Y016739D01*
X006297Y016715D02*
X006431Y016771D01*
X006534Y016874D01*
X006590Y017009D01*
X006590Y017155D01*
X006534Y017289D01*
X006431Y017392D01*
X006297Y017448D01*
X006262Y017448D01*
X004897Y018813D01*
X004897Y018847D01*
X004841Y018982D01*
X004738Y019085D01*
X004604Y019141D01*
X004458Y019141D01*
X004324Y019085D01*
X004221Y018982D01*
X004165Y018847D01*
X004165Y018702D01*
X004221Y018567D01*
X004324Y018464D01*
X004458Y018408D01*
X004492Y018408D01*
X005858Y017043D01*
X005858Y017009D01*
X005913Y016874D01*
X006016Y016771D01*
X006151Y016715D01*
X006297Y016715D01*
X006095Y016739D02*
X003990Y016739D01*
X003990Y016837D02*
X005951Y016837D01*
X005888Y016936D02*
X003990Y016936D01*
X003990Y017034D02*
X005858Y017034D01*
X005768Y017133D02*
X003990Y017133D01*
X003990Y017231D02*
X005670Y017231D01*
X005571Y017330D02*
X003990Y017330D01*
X003990Y017428D02*
X005473Y017428D01*
X005374Y017527D02*
X003990Y017527D01*
X003990Y017625D02*
X005276Y017625D01*
X005177Y017724D02*
X003990Y017724D01*
X003990Y017822D02*
X005079Y017822D01*
X004980Y017921D02*
X003990Y017921D01*
X003990Y018019D02*
X004882Y018019D01*
X004783Y018118D02*
X003990Y018118D01*
X003990Y018216D02*
X004685Y018216D01*
X004586Y018315D02*
X003990Y018315D01*
X003990Y018413D02*
X004447Y018413D01*
X004276Y018512D02*
X003990Y018512D01*
X003990Y018610D02*
X004203Y018610D01*
X004165Y018709D02*
X003990Y018709D01*
X003990Y018807D02*
X004165Y018807D01*
X004189Y018906D02*
X003990Y018906D01*
X003990Y019004D02*
X004243Y019004D01*
X004366Y019103D02*
X003990Y019103D01*
X003990Y019201D02*
X006957Y019201D01*
X006908Y019152D02*
X006838Y018981D01*
X006838Y018796D01*
X006908Y018625D01*
X007039Y018495D01*
X007210Y018424D01*
X007395Y018424D01*
X007566Y018495D01*
X007697Y018625D01*
X007768Y018796D01*
X007768Y018981D01*
X007697Y019152D01*
X007566Y019283D01*
X007395Y019354D01*
X007210Y019354D01*
X007039Y019283D01*
X006908Y019152D01*
X006888Y019103D02*
X004696Y019103D01*
X004819Y019004D02*
X006847Y019004D01*
X006838Y018906D02*
X004873Y018906D01*
X004903Y018807D02*
X006838Y018807D01*
X006874Y018709D02*
X005002Y018709D01*
X005100Y018610D02*
X006924Y018610D01*
X007022Y018512D02*
X005199Y018512D01*
X005297Y018413D02*
X007946Y018413D01*
X007949Y018315D02*
X007490Y018315D01*
X007633Y018216D02*
X007992Y018216D01*
X008090Y018118D02*
X007711Y018118D01*
X007752Y018019D02*
X008189Y018019D01*
X008287Y017921D02*
X007768Y017921D01*
X007768Y017822D02*
X008386Y017822D01*
X008484Y017724D02*
X007737Y017724D01*
X007697Y017625D02*
X008583Y017625D01*
X008681Y017527D02*
X007612Y017527D01*
X007612Y017428D02*
X008780Y017428D01*
X008878Y017330D02*
X007612Y017330D01*
X007618Y017231D02*
X008977Y017231D01*
X009075Y017133D02*
X007705Y017133D01*
X007746Y017034D02*
X009174Y017034D01*
X009272Y016936D02*
X007798Y016936D01*
X007897Y016837D02*
X009371Y016837D01*
X009469Y016739D02*
X007995Y016739D01*
X008094Y016640D02*
X009568Y016640D01*
X009666Y016542D02*
X008192Y016542D01*
X008291Y016443D02*
X009765Y016443D01*
X009863Y016345D02*
X008389Y016345D01*
X008488Y016246D02*
X009962Y016246D01*
X010060Y016148D02*
X008586Y016148D01*
X008685Y016049D02*
X010159Y016049D01*
X010257Y015951D02*
X008783Y015951D01*
X008882Y015852D02*
X010356Y015852D01*
X010454Y015754D02*
X008980Y015754D01*
X009079Y015655D02*
X010553Y015655D01*
X010651Y015557D02*
X009177Y015557D01*
X009276Y015458D02*
X010750Y015458D01*
X010848Y015360D02*
X009374Y015360D01*
X009473Y015261D02*
X010947Y015261D01*
X011342Y015675D02*
X009326Y017692D01*
X009384Y017716D01*
X009408Y017740D01*
X013901Y017740D01*
X015838Y015803D01*
X015838Y015796D01*
X015908Y015625D01*
X016039Y015495D01*
X016210Y015424D01*
X016395Y015424D01*
X016566Y015495D01*
X016697Y015625D01*
X016764Y015789D01*
X016764Y014989D01*
X016697Y015152D01*
X016566Y015283D01*
X016395Y015354D01*
X016210Y015354D01*
X016169Y015337D01*
X015874Y015631D01*
X015769Y015675D01*
X011342Y015675D01*
X011264Y015754D02*
X015855Y015754D01*
X015817Y015655D02*
X015896Y015655D01*
X015949Y015557D02*
X015977Y015557D01*
X016048Y015458D02*
X016127Y015458D01*
X016146Y015360D02*
X016764Y015360D01*
X016764Y015458D02*
X016478Y015458D01*
X016628Y015557D02*
X016764Y015557D01*
X016764Y015655D02*
X016709Y015655D01*
X016750Y015754D02*
X016764Y015754D01*
X016764Y016049D02*
X016739Y016049D01*
X016764Y016148D02*
X016699Y016148D01*
X016764Y016246D02*
X016603Y016246D01*
X016764Y016345D02*
X016417Y016345D01*
X016442Y016443D02*
X016764Y016443D01*
X016764Y016542D02*
X016613Y016542D01*
X016703Y016640D02*
X016764Y016640D01*
X016764Y016739D02*
X016744Y016739D01*
X016746Y017034D02*
X016764Y017034D01*
X016764Y017133D02*
X016705Y017133D01*
X016764Y017231D02*
X016618Y017231D01*
X016764Y017330D02*
X016453Y017330D01*
X016405Y017428D02*
X016764Y017428D01*
X016764Y017527D02*
X016598Y017527D01*
X016697Y017625D02*
X016764Y017625D01*
X016764Y017724D02*
X016737Y017724D01*
X016752Y018019D02*
X016764Y018019D01*
X016764Y018118D02*
X016711Y018118D01*
X016764Y018216D02*
X016633Y018216D01*
X016764Y018315D02*
X016490Y018315D01*
X016583Y018512D02*
X016764Y018512D01*
X016764Y018610D02*
X016682Y018610D01*
X016731Y018709D02*
X016764Y018709D01*
X016758Y019004D02*
X016764Y019004D01*
X016764Y019103D02*
X016717Y019103D01*
X016764Y019201D02*
X016648Y019201D01*
X016764Y019300D02*
X016526Y019300D01*
X016568Y019497D02*
X016764Y019497D01*
X016764Y019595D02*
X016667Y019595D01*
X016725Y019694D02*
X016764Y019694D01*
X016764Y019398D02*
X014502Y019398D01*
X014502Y019300D02*
X016079Y019300D01*
X015957Y019201D02*
X014502Y019201D01*
X014502Y019103D02*
X015888Y019103D01*
X015847Y019004D02*
X014502Y019004D01*
X014502Y018906D02*
X015838Y018906D01*
X015838Y018807D02*
X014502Y018807D01*
X014502Y018709D02*
X015874Y018709D01*
X015924Y018610D02*
X014502Y018610D01*
X014513Y018512D02*
X016022Y018512D01*
X015826Y018499D02*
X015826Y018357D01*
X016767Y018357D01*
X016767Y014460D01*
X016764Y014473D02*
X016514Y014473D01*
X016643Y014572D02*
X016764Y014572D01*
X016764Y014670D02*
X016715Y014670D01*
X016756Y014769D02*
X016764Y014769D01*
X016764Y015064D02*
X016733Y015064D01*
X016764Y015163D02*
X016686Y015163D01*
X016764Y015261D02*
X016588Y015261D01*
X016764Y014375D02*
X015378Y014375D01*
X015477Y014473D02*
X016091Y014473D01*
X015962Y014572D02*
X015575Y014572D01*
X015787Y014670D02*
X015890Y014670D01*
X016032Y014276D02*
X015274Y014276D01*
X015878Y014079D02*
X013075Y014079D01*
X012976Y013981D02*
X015838Y013981D01*
X015838Y013882D02*
X012878Y013882D01*
X012779Y013784D02*
X015843Y013784D01*
X015884Y013685D02*
X012681Y013685D01*
X012582Y013587D02*
X015947Y013587D01*
X016055Y013488D02*
X012484Y013488D01*
X012385Y013390D02*
X013624Y013390D01*
X013631Y013393D02*
X013497Y013337D01*
X013394Y013234D01*
X013338Y013099D01*
X013338Y012954D01*
X013394Y012819D01*
X013497Y012716D01*
X013631Y012660D01*
X013666Y012660D01*
X015110Y011216D01*
X015110Y011182D01*
X015165Y011047D01*
X015268Y010944D01*
X015403Y010889D01*
X015549Y010889D01*
X015683Y010944D01*
X015786Y011047D01*
X015842Y011182D01*
X015842Y011328D01*
X015786Y011462D01*
X015683Y011565D01*
X015549Y011621D01*
X015514Y011621D01*
X014070Y013065D01*
X014070Y013099D01*
X014015Y013234D01*
X013912Y013337D01*
X013777Y013393D01*
X013631Y013393D01*
X013785Y013390D02*
X016497Y013390D01*
X016550Y013488D02*
X016596Y013488D01*
X016658Y013587D02*
X016694Y013587D01*
X016722Y013685D02*
X016764Y013685D01*
X016762Y013784D02*
X016764Y013784D01*
X016764Y014079D02*
X016727Y014079D01*
X016764Y014178D02*
X016671Y014178D01*
X016764Y014276D02*
X016573Y014276D01*
X015934Y014178D02*
X013173Y014178D01*
X012758Y014572D02*
X007643Y014572D01*
X007715Y014670D02*
X008551Y014670D01*
X008464Y014769D02*
X007756Y014769D01*
X007768Y014867D02*
X008423Y014867D01*
X008368Y014966D02*
X007768Y014966D01*
X007733Y015064D02*
X008270Y015064D01*
X008171Y015754D02*
X007750Y015754D01*
X007768Y015852D02*
X008072Y015852D01*
X007974Y015951D02*
X007768Y015951D01*
X007739Y016049D02*
X007875Y016049D01*
X007777Y016148D02*
X007699Y016148D01*
X007678Y016246D02*
X007603Y016246D01*
X007580Y016345D02*
X007417Y016345D01*
X007442Y016443D02*
X007481Y016443D01*
X006987Y017231D02*
X006558Y017231D01*
X006590Y017133D02*
X006900Y017133D01*
X006860Y017034D02*
X006590Y017034D01*
X006560Y016936D02*
X006838Y016936D01*
X006838Y016837D02*
X006497Y016837D01*
X006494Y017330D02*
X007040Y017330D01*
X007040Y017428D02*
X006345Y017428D01*
X006184Y017527D02*
X007007Y017527D01*
X006909Y017625D02*
X006085Y017625D01*
X005987Y017724D02*
X006868Y017724D01*
X006838Y017822D02*
X005888Y017822D01*
X005790Y017921D02*
X006838Y017921D01*
X006853Y018019D02*
X005691Y018019D01*
X005593Y018118D02*
X006894Y018118D01*
X006972Y018216D02*
X005494Y018216D01*
X005396Y018315D02*
X007116Y018315D01*
X007583Y018512D02*
X007946Y018512D01*
X007946Y018610D02*
X007682Y018610D01*
X007731Y018709D02*
X007946Y018709D01*
X007946Y018807D02*
X007768Y018807D01*
X007768Y018906D02*
X007946Y018906D01*
X007946Y019004D02*
X007758Y019004D01*
X007717Y019103D02*
X007895Y019103D01*
X007866Y019201D02*
X007648Y019201D01*
X007526Y019300D02*
X007866Y019300D01*
X007898Y019398D02*
X004142Y019398D01*
X004043Y019300D02*
X007079Y019300D01*
X007037Y019497D02*
X004240Y019497D01*
X004339Y019595D02*
X006939Y019595D01*
X006880Y019694D02*
X004437Y019694D01*
X004536Y019792D02*
X006839Y019792D01*
X006838Y019891D02*
X004634Y019891D01*
X004733Y019989D02*
X006841Y019989D01*
X006882Y020088D02*
X004831Y020088D01*
X004514Y020580D02*
X001589Y020580D01*
X001589Y020482D02*
X004416Y020482D01*
X004317Y020383D02*
X001589Y020383D01*
X001589Y020285D02*
X004219Y020285D01*
X004120Y020186D02*
X002632Y020186D01*
X002744Y020088D02*
X004022Y020088D01*
X003923Y019989D02*
X002815Y019989D01*
X002856Y019891D02*
X003825Y019891D01*
X003726Y019792D02*
X002874Y019792D01*
X002874Y019694D02*
X003628Y019694D01*
X003529Y019595D02*
X002853Y019595D01*
X002812Y019497D02*
X003431Y019497D01*
X003332Y019398D02*
X002735Y019398D01*
X002612Y019300D02*
X003234Y019300D01*
X003135Y019201D02*
X002596Y019201D01*
X002729Y019103D02*
X003037Y019103D01*
X003255Y018512D02*
X003418Y018512D01*
X003418Y018610D02*
X003354Y018610D01*
X003418Y018413D02*
X002750Y018413D01*
X002649Y018315D02*
X003418Y018315D01*
X003418Y018216D02*
X002560Y018216D01*
X002714Y018118D02*
X003418Y018118D01*
X003418Y018019D02*
X002803Y018019D01*
X002844Y017921D02*
X003418Y017921D01*
X003418Y017822D02*
X002874Y017822D01*
X002874Y017724D02*
X003418Y017724D01*
X003418Y017625D02*
X002865Y017625D01*
X002824Y017527D02*
X003418Y017527D01*
X003418Y017428D02*
X002765Y017428D01*
X002667Y017330D02*
X003418Y017330D01*
X003418Y017231D02*
X002306Y017231D01*
X002338Y017133D02*
X003418Y017133D01*
X003418Y017034D02*
X002338Y017034D01*
X002308Y016936D02*
X003418Y016936D01*
X003418Y016837D02*
X002245Y016837D01*
X002101Y016739D02*
X003418Y016739D01*
X003990Y014966D02*
X005120Y014966D01*
X005022Y014867D02*
X003990Y014867D01*
X003990Y014769D02*
X004923Y014769D01*
X004825Y014670D02*
X003990Y014670D01*
X003990Y014572D02*
X004726Y014572D01*
X004628Y014473D02*
X003990Y014473D01*
X003985Y014375D02*
X004529Y014375D01*
X004431Y014276D02*
X003941Y014276D01*
X003843Y014178D02*
X004332Y014178D01*
X004234Y014079D02*
X003744Y014079D01*
X003646Y013981D02*
X004135Y013981D01*
X004037Y013882D02*
X003547Y013882D01*
X003449Y013784D02*
X003938Y013784D01*
X003840Y013685D02*
X003350Y013685D01*
X003252Y013587D02*
X003741Y013587D01*
X003643Y013488D02*
X003153Y013488D01*
X003101Y013390D02*
X003544Y013390D01*
X003446Y013291D02*
X003070Y013291D01*
X003029Y013193D02*
X003347Y013193D01*
X003249Y013094D02*
X002931Y013094D01*
X002739Y012996D02*
X003150Y012996D01*
X003052Y012897D02*
X002794Y012897D01*
X002527Y012996D02*
X002424Y012996D01*
X002473Y012897D02*
X002326Y012897D01*
X002313Y012799D02*
X002227Y012799D01*
X002228Y012700D02*
X002033Y012700D01*
X001938Y012602D02*
X002187Y012602D01*
X002166Y012503D02*
X001757Y012503D01*
X001776Y012405D02*
X002166Y012405D01*
X002190Y012306D02*
X001946Y012306D01*
X002036Y012208D02*
X002231Y012208D01*
X002321Y012109D02*
X002077Y012109D01*
X002101Y012011D02*
X002491Y012011D01*
X002537Y011858D02*
X002476Y011838D01*
X002418Y011808D01*
X002366Y011770D01*
X002321Y011725D01*
X002283Y011673D01*
X002253Y011615D01*
X002233Y011554D01*
X002223Y011490D01*
X002223Y011488D01*
X002603Y011488D01*
X002603Y011428D01*
X002223Y011428D01*
X002223Y011425D01*
X002233Y011362D01*
X002253Y011300D01*
X002283Y011243D01*
X002321Y011191D01*
X002366Y011145D01*
X002418Y011107D01*
X002476Y011078D01*
X002537Y011058D01*
X002601Y011048D01*
X002603Y011048D01*
X002603Y011428D01*
X002663Y011428D01*
X002663Y011048D01*
X002666Y011048D01*
X002729Y011058D01*
X002791Y011078D01*
X002848Y011107D01*
X002900Y011145D01*
X002946Y011191D01*
X002984Y011243D01*
X003013Y011300D01*
X003033Y011362D01*
X003043Y011425D01*
X003043Y011428D01*
X002663Y011428D01*
X002663Y011488D01*
X002603Y011488D01*
X002603Y011868D01*
X002601Y011868D01*
X002537Y011858D01*
X002603Y011814D02*
X002663Y011814D01*
X002663Y011868D02*
X002663Y011488D01*
X003043Y011488D01*
X003043Y011490D01*
X003033Y011554D01*
X003013Y011615D01*
X002984Y011673D01*
X002946Y011725D01*
X002900Y011770D01*
X002848Y011808D01*
X002791Y011838D01*
X002729Y011858D01*
X002666Y011868D01*
X002663Y011868D01*
X002663Y011715D02*
X002603Y011715D01*
X002603Y011617D02*
X002663Y011617D01*
X002663Y011518D02*
X002603Y011518D01*
X002603Y011420D02*
X002663Y011420D01*
X002663Y011321D02*
X002603Y011321D01*
X002603Y011223D02*
X002663Y011223D01*
X002663Y011124D02*
X002603Y011124D01*
X002395Y011124D02*
X001943Y011124D01*
X001943Y011026D02*
X005505Y011026D01*
X005505Y011124D02*
X004209Y011124D01*
X004298Y011223D02*
X005505Y011223D01*
X005505Y011321D02*
X004338Y011321D01*
X004392Y011420D02*
X005505Y011420D01*
X005505Y011518D02*
X004490Y011518D01*
X004589Y011617D02*
X005505Y011617D01*
X005505Y011715D02*
X004687Y011715D01*
X004786Y011814D02*
X005505Y011814D01*
X005505Y011912D02*
X004884Y011912D01*
X004983Y012011D02*
X005505Y012011D01*
X005505Y012109D02*
X005081Y012109D01*
X005180Y012208D02*
X005505Y012208D01*
X005505Y012306D02*
X005278Y012306D01*
X005439Y012405D02*
X005505Y012405D01*
X004952Y012799D02*
X003763Y012799D01*
X003861Y012897D02*
X004983Y012897D01*
X005045Y012996D02*
X003960Y012996D01*
X004058Y013094D02*
X005190Y013094D01*
X005447Y013094D02*
X005505Y013094D01*
X005505Y013193D02*
X004157Y013193D01*
X004255Y013291D02*
X005505Y013291D01*
X005505Y013390D02*
X004354Y013390D01*
X004452Y013488D02*
X005505Y013488D01*
X005505Y013587D02*
X004551Y013587D01*
X004649Y013685D02*
X005505Y013685D01*
X005500Y013784D02*
X004748Y013784D01*
X004846Y013882D02*
X005448Y013882D01*
X005425Y013981D02*
X004945Y013981D01*
X005043Y014079D02*
X005425Y014079D01*
X005464Y014178D02*
X005142Y014178D01*
X005240Y014276D02*
X005538Y014276D01*
X005712Y014375D02*
X005339Y014375D01*
X005437Y014473D02*
X005938Y014473D01*
X005938Y014375D02*
X005870Y014375D01*
X005938Y014572D02*
X005536Y014572D01*
X005634Y014670D02*
X005938Y014670D01*
X005938Y014769D02*
X005733Y014769D01*
X005831Y014867D02*
X005897Y014867D01*
X006510Y014769D02*
X006849Y014769D01*
X006838Y014867D02*
X006551Y014867D01*
X006590Y014966D02*
X006838Y014966D01*
X006872Y015064D02*
X006590Y015064D01*
X006567Y015163D02*
X006911Y015163D01*
X006890Y014670D02*
X006510Y014670D01*
X006510Y014572D02*
X006962Y014572D01*
X007091Y014473D02*
X006510Y014473D01*
X006510Y014375D02*
X012561Y014375D01*
X012659Y014473D02*
X007514Y014473D01*
X007395Y014354D02*
X007210Y014354D01*
X007039Y014283D01*
X006908Y014152D01*
X006838Y013981D01*
X006838Y013796D01*
X006908Y013625D01*
X007039Y013495D01*
X007210Y013424D01*
X007395Y013424D01*
X007566Y013495D01*
X007697Y013625D01*
X007768Y013796D01*
X007768Y013981D01*
X007697Y014152D01*
X007566Y014283D01*
X007395Y014354D01*
X007573Y014276D02*
X012462Y014276D01*
X012364Y014178D02*
X007671Y014178D01*
X007727Y014079D02*
X012265Y014079D01*
X012167Y013981D02*
X008666Y013981D01*
X008659Y013983D02*
X008513Y013983D01*
X008379Y013928D01*
X008276Y013825D01*
X008220Y013690D01*
X008220Y013544D01*
X008276Y013410D01*
X008379Y013307D01*
X008513Y013251D01*
X008548Y013251D01*
X008810Y012988D01*
X008810Y012954D01*
X008866Y012819D01*
X008969Y012716D01*
X009104Y012660D01*
X009249Y012660D01*
X009384Y012716D01*
X009487Y012819D01*
X009543Y012954D01*
X009543Y013099D01*
X009487Y013234D01*
X009384Y013337D01*
X009249Y013393D01*
X009215Y013393D01*
X008952Y013656D01*
X008952Y013690D01*
X008897Y013825D01*
X008794Y013928D01*
X008659Y013983D01*
X008507Y013981D02*
X007768Y013981D01*
X007768Y013882D02*
X008333Y013882D01*
X008259Y013784D02*
X007762Y013784D01*
X007722Y013685D02*
X008220Y013685D01*
X008220Y013587D02*
X007658Y013587D01*
X007550Y013488D02*
X008243Y013488D01*
X008296Y013390D02*
X006510Y013390D01*
X006510Y013488D02*
X007055Y013488D01*
X006947Y013587D02*
X006510Y013587D01*
X006510Y013685D02*
X006884Y013685D01*
X006843Y013784D02*
X006510Y013784D01*
X006510Y013882D02*
X006838Y013882D01*
X006838Y013981D02*
X006510Y013981D01*
X006510Y014079D02*
X006878Y014079D01*
X006934Y014178D02*
X006510Y014178D01*
X006510Y014276D02*
X007032Y014276D01*
X007210Y013354D02*
X007039Y013283D01*
X006908Y013152D01*
X006838Y012981D01*
X006838Y012796D01*
X006908Y012625D01*
X007039Y012495D01*
X007210Y012424D01*
X007395Y012424D01*
X007566Y012495D01*
X007697Y012625D01*
X007768Y012796D01*
X007768Y012981D01*
X007697Y013152D01*
X007566Y013283D01*
X007395Y013354D01*
X007210Y013354D01*
X007059Y013291D02*
X006510Y013291D01*
X006510Y013193D02*
X006949Y013193D01*
X006884Y013094D02*
X006510Y013094D01*
X006510Y012996D02*
X006844Y012996D01*
X006838Y012897D02*
X006510Y012897D01*
X006510Y012799D02*
X006838Y012799D01*
X006878Y012700D02*
X006510Y012700D01*
X006510Y012602D02*
X006932Y012602D01*
X007031Y012503D02*
X006510Y012503D01*
X006510Y012405D02*
X010591Y012405D01*
X010689Y012503D02*
X007575Y012503D01*
X007673Y012602D02*
X010788Y012602D01*
X010886Y012700D02*
X009345Y012700D01*
X009467Y012799D02*
X010985Y012799D01*
X011083Y012897D02*
X009519Y012897D01*
X009543Y012996D02*
X011182Y012996D01*
X011280Y013094D02*
X009543Y013094D01*
X009504Y013193D02*
X011379Y013193D01*
X011477Y013291D02*
X009430Y013291D01*
X009257Y013390D02*
X011576Y013390D01*
X011674Y013488D02*
X009120Y013488D01*
X009021Y013587D02*
X011773Y013587D01*
X011871Y013685D02*
X008952Y013685D01*
X008914Y013784D02*
X011970Y013784D01*
X012068Y013882D02*
X008839Y013882D01*
X008416Y013291D02*
X007546Y013291D01*
X007656Y013193D02*
X008606Y013193D01*
X008704Y013094D02*
X007721Y013094D01*
X007762Y012996D02*
X008803Y012996D01*
X008834Y012897D02*
X007768Y012897D01*
X007768Y012799D02*
X008887Y012799D01*
X009008Y012700D02*
X007728Y012700D01*
X007566Y012283D02*
X007395Y012354D01*
X007210Y012354D01*
X007039Y012283D01*
X006908Y012152D01*
X006838Y011981D01*
X006838Y011796D01*
X006908Y011625D01*
X007039Y011495D01*
X007210Y011424D01*
X007395Y011424D01*
X007566Y011495D01*
X007697Y011625D01*
X007768Y011796D01*
X007768Y011981D01*
X007697Y012152D01*
X007566Y012283D01*
X007510Y012306D02*
X010492Y012306D01*
X010394Y012208D02*
X007641Y012208D01*
X007715Y012109D02*
X010295Y012109D01*
X010197Y012011D02*
X007755Y012011D01*
X007768Y011912D02*
X010098Y011912D01*
X010000Y011814D02*
X007768Y011814D01*
X007734Y011715D02*
X009901Y011715D01*
X009803Y011617D02*
X007688Y011617D01*
X007590Y011518D02*
X009704Y011518D01*
X009606Y011420D02*
X006510Y011420D01*
X006510Y011518D02*
X007016Y011518D01*
X006917Y011617D02*
X006510Y011617D01*
X006510Y011715D02*
X006871Y011715D01*
X006838Y011814D02*
X006510Y011814D01*
X006510Y011912D02*
X006838Y011912D01*
X006850Y012011D02*
X006510Y012011D01*
X006510Y012109D02*
X006891Y012109D01*
X006964Y012208D02*
X006510Y012208D01*
X006510Y012306D02*
X007095Y012306D01*
X007131Y011321D02*
X006510Y011321D01*
X006510Y011223D02*
X006979Y011223D01*
X006897Y011124D02*
X006510Y011124D01*
X006510Y011026D02*
X006856Y011026D01*
X006838Y010927D02*
X006510Y010927D01*
X006510Y010829D02*
X006838Y010829D01*
X006865Y010730D02*
X006510Y010730D01*
X006510Y010632D02*
X006906Y010632D01*
X007001Y010533D02*
X006510Y010533D01*
X006510Y010435D02*
X007184Y010435D01*
X007210Y010354D02*
X007039Y010283D01*
X006908Y010152D01*
X006838Y009981D01*
X006838Y009796D01*
X006908Y009625D01*
X007039Y009495D01*
X007210Y009424D01*
X007395Y009424D01*
X007566Y009495D01*
X007697Y009625D01*
X007768Y009796D01*
X007768Y009981D01*
X007697Y010152D01*
X007566Y010283D01*
X007395Y010354D01*
X007210Y010354D01*
X007168Y010336D02*
X006510Y010336D01*
X006510Y010238D02*
X006994Y010238D01*
X006903Y010139D02*
X006510Y010139D01*
X006510Y010041D02*
X006862Y010041D01*
X006838Y009942D02*
X006510Y009942D01*
X006510Y009844D02*
X006838Y009844D01*
X006859Y009745D02*
X006510Y009745D01*
X006510Y009647D02*
X006900Y009647D01*
X006986Y009548D02*
X006510Y009548D01*
X006510Y009450D02*
X007148Y009450D01*
X007204Y009351D02*
X006510Y009351D01*
X006510Y009253D02*
X007009Y009253D01*
X007039Y009283D02*
X006908Y009152D01*
X006838Y008981D01*
X006838Y008796D01*
X006908Y008625D01*
X007039Y008495D01*
X007210Y008424D01*
X007395Y008424D01*
X007566Y008495D01*
X007697Y008625D01*
X007768Y008796D01*
X007768Y008981D01*
X007697Y009152D01*
X007566Y009283D01*
X007395Y009354D01*
X007210Y009354D01*
X007039Y009283D01*
X006910Y009154D02*
X006510Y009154D01*
X006510Y009056D02*
X006868Y009056D01*
X006838Y008957D02*
X006564Y008957D01*
X006663Y008859D02*
X006838Y008859D01*
X006853Y008760D02*
X006761Y008760D01*
X006860Y008662D02*
X006893Y008662D01*
X006958Y008563D02*
X006971Y008563D01*
X007057Y008465D02*
X007112Y008465D01*
X007155Y008366D02*
X011036Y008366D01*
X010937Y008268D02*
X007581Y008268D01*
X007680Y008169D02*
X010838Y008169D01*
X010739Y008071D02*
X007731Y008071D01*
X007768Y007972D02*
X010640Y007972D01*
X010541Y007874D02*
X007768Y007874D01*
X007759Y007775D02*
X010442Y007775D01*
X010343Y007677D02*
X007718Y007677D01*
X007649Y007578D02*
X010244Y007578D01*
X010145Y007480D02*
X007530Y007480D01*
X007566Y007283D02*
X009947Y007283D01*
X010046Y007381D02*
X007117Y007381D01*
X007075Y007480D02*
X007018Y007480D01*
X006956Y007578D02*
X006920Y007578D01*
X006887Y007677D02*
X006821Y007677D01*
X006846Y007775D02*
X006723Y007775D01*
X006624Y007874D02*
X006838Y007874D01*
X006740Y007972D02*
X006526Y007972D01*
X006427Y008071D02*
X006641Y008071D01*
X006543Y008169D02*
X006353Y008169D01*
X006353Y008268D02*
X006444Y008268D01*
X006012Y007677D02*
X005278Y007677D01*
X005391Y007480D02*
X006209Y007480D01*
X006307Y007381D02*
X005539Y007381D01*
X005637Y007283D02*
X006406Y007283D01*
X006504Y007184D02*
X005687Y007184D01*
X005728Y007086D02*
X006603Y007086D01*
X006701Y006987D02*
X005748Y006987D01*
X005748Y006889D02*
X006800Y006889D01*
X006840Y006790D02*
X005748Y006790D01*
X005708Y006692D02*
X006881Y006692D01*
X006941Y006593D02*
X005667Y006593D01*
X005590Y006495D02*
X007039Y006495D01*
X007275Y006396D02*
X005491Y006396D01*
X005276Y006298D02*
X007276Y006298D01*
X007317Y006199D02*
X005075Y006199D01*
X005173Y006101D02*
X007396Y006101D01*
X007622Y006002D02*
X005272Y006002D01*
X005370Y005904D02*
X008399Y005904D01*
X008462Y005805D02*
X005469Y005805D01*
X005567Y005707D02*
X008363Y005707D01*
X008264Y005608D02*
X005666Y005608D01*
X005764Y005510D02*
X008165Y005510D01*
X008066Y005411D02*
X005863Y005411D01*
X005961Y005313D02*
X007967Y005313D01*
X007868Y005214D02*
X006060Y005214D01*
X006159Y005116D02*
X007769Y005116D01*
X007670Y005017D02*
X006257Y005017D01*
X005809Y004426D02*
X004796Y004426D01*
X004895Y004328D02*
X005896Y004328D01*
X005896Y004229D02*
X005458Y004229D01*
X005614Y004131D02*
X005896Y004131D01*
X005838Y004032D02*
X005704Y004032D01*
X005745Y003934D02*
X005797Y003934D01*
X005710Y004525D02*
X004698Y004525D01*
X004599Y004623D02*
X005612Y004623D01*
X005513Y004722D02*
X004501Y004722D01*
X004402Y004820D02*
X005415Y004820D01*
X005316Y004919D02*
X004304Y004919D01*
X004205Y005017D02*
X005218Y005017D01*
X005119Y005116D02*
X004107Y005116D01*
X004008Y005214D02*
X005021Y005214D01*
X004922Y005313D02*
X003910Y005313D01*
X003581Y005411D02*
X004824Y005411D01*
X004725Y005510D02*
X003495Y005510D01*
X003909Y006396D02*
X001943Y006396D01*
X001943Y006298D02*
X004125Y006298D01*
X004336Y006199D02*
X001943Y006199D01*
X001943Y006101D02*
X004336Y006101D01*
X004337Y006002D02*
X001943Y006002D01*
X001943Y005904D02*
X004367Y005904D01*
X004429Y005805D02*
X001943Y005805D01*
X001943Y005707D02*
X004528Y005707D01*
X004627Y005608D02*
X001943Y005608D01*
X001943Y005510D02*
X002622Y005510D01*
X002536Y005411D02*
X001943Y005411D01*
X001943Y005313D02*
X002536Y005313D01*
X002536Y005214D02*
X001943Y005214D01*
X001943Y005116D02*
X002536Y005116D01*
X002536Y005017D02*
X001943Y005017D01*
X001943Y004919D02*
X002536Y004919D01*
X002536Y004820D02*
X002040Y004820D01*
X002138Y004722D02*
X002554Y004722D01*
X002536Y004623D02*
X002237Y004623D01*
X002335Y004525D02*
X002536Y004525D01*
X002536Y004426D02*
X002434Y004426D01*
X002532Y004328D02*
X002536Y004328D01*
X002117Y003934D02*
X001995Y003934D01*
X002018Y004032D02*
X000841Y004032D01*
X000841Y003934D02*
X001634Y003934D01*
X001396Y003835D02*
X000841Y003835D01*
X000841Y003737D02*
X001278Y003737D01*
X001179Y003638D02*
X000841Y003638D01*
X000841Y003540D02*
X001114Y003540D01*
X001073Y003441D02*
X000841Y003441D01*
X000841Y003343D02*
X001033Y003343D01*
X001016Y003244D02*
X000841Y003244D01*
X000841Y003146D02*
X001016Y003146D01*
X001016Y003047D02*
X000841Y003047D01*
X000841Y002949D02*
X001032Y002949D01*
X001073Y002850D02*
X000841Y002850D01*
X000841Y002752D02*
X001113Y002752D01*
X001177Y002653D02*
X000841Y002653D01*
X000841Y002555D02*
X001276Y002555D01*
X001392Y002456D02*
X000841Y002456D01*
X000841Y002358D02*
X001629Y002358D01*
X002000Y002358D02*
X003739Y002358D01*
X003594Y002456D02*
X002237Y002456D01*
X002353Y002555D02*
X003496Y002555D01*
X003397Y002653D02*
X002451Y002653D01*
X002515Y002752D02*
X003299Y002752D01*
X003200Y002850D02*
X002556Y002850D01*
X002597Y002949D02*
X003102Y002949D01*
X003003Y003047D02*
X002612Y003047D01*
X002612Y003146D02*
X002905Y003146D01*
X002806Y003244D02*
X002612Y003244D01*
X002596Y003343D02*
X002708Y003343D01*
X002609Y003441D02*
X002555Y003441D01*
X001920Y004131D02*
X000841Y004131D01*
X000841Y004229D02*
X001821Y004229D01*
X001723Y004328D02*
X000841Y004328D01*
X000841Y004426D02*
X001624Y004426D01*
X001526Y004525D02*
X000841Y004525D01*
X000841Y004623D02*
X001427Y004623D01*
X001379Y004722D02*
X000841Y004722D01*
X000841Y004820D02*
X001371Y004820D01*
X001371Y004919D02*
X000841Y004919D01*
X000841Y005017D02*
X001371Y005017D01*
X001371Y005116D02*
X000841Y005116D01*
X000841Y005214D02*
X001371Y005214D01*
X001371Y005313D02*
X000841Y005313D01*
X000841Y005411D02*
X001371Y005411D01*
X001371Y005510D02*
X000841Y005510D01*
X000841Y005608D02*
X001371Y005608D01*
X001371Y005707D02*
X000841Y005707D01*
X000841Y005805D02*
X001371Y005805D01*
X001371Y005904D02*
X000841Y005904D01*
X000841Y006002D02*
X001371Y006002D01*
X001371Y006101D02*
X000841Y006101D01*
X000841Y006199D02*
X001371Y006199D01*
X001371Y006298D02*
X000841Y006298D01*
X000841Y006396D02*
X001371Y006396D01*
X001371Y006495D02*
X000841Y006495D01*
X000841Y006593D02*
X001371Y006593D01*
X001371Y006692D02*
X000841Y006692D01*
X000841Y006790D02*
X001371Y006790D01*
X001371Y006889D02*
X000841Y006889D01*
X000841Y006987D02*
X001371Y006987D01*
X001371Y007086D02*
X000841Y007086D01*
X000841Y007184D02*
X001371Y007184D01*
X001371Y007283D02*
X000841Y007283D01*
X000841Y007381D02*
X001371Y007381D01*
X001371Y007480D02*
X000841Y007480D01*
X000841Y007578D02*
X001371Y007578D01*
X001371Y007677D02*
X000841Y007677D01*
X000841Y007775D02*
X001371Y007775D01*
X001371Y007874D02*
X000841Y007874D01*
X000841Y007972D02*
X001371Y007972D01*
X001371Y008071D02*
X000841Y008071D01*
X000841Y008169D02*
X001371Y008169D01*
X001371Y008268D02*
X000841Y008268D01*
X000841Y008366D02*
X001371Y008366D01*
X001371Y008465D02*
X000841Y008465D01*
X000841Y008563D02*
X001371Y008563D01*
X001371Y008662D02*
X000841Y008662D01*
X000841Y008760D02*
X001371Y008760D01*
X001371Y008859D02*
X000841Y008859D01*
X000841Y008957D02*
X001371Y008957D01*
X001371Y009056D02*
X000841Y009056D01*
X000841Y009154D02*
X001371Y009154D01*
X001371Y009253D02*
X000841Y009253D01*
X000841Y009351D02*
X001371Y009351D01*
X001371Y009450D02*
X000841Y009450D01*
X000841Y009548D02*
X001371Y009548D01*
X001371Y009647D02*
X000841Y009647D01*
X000841Y009745D02*
X001371Y009745D01*
X001371Y009844D02*
X000841Y009844D01*
X000841Y009942D02*
X001371Y009942D01*
X001371Y010041D02*
X000841Y010041D01*
X000841Y010139D02*
X001371Y010139D01*
X001371Y010238D02*
X000841Y010238D01*
X000841Y010336D02*
X001371Y010336D01*
X001371Y010435D02*
X000841Y010435D01*
X000841Y010533D02*
X001371Y010533D01*
X001371Y010632D02*
X000841Y010632D01*
X000841Y010730D02*
X001371Y010730D01*
X001371Y010829D02*
X000841Y010829D01*
X000841Y010927D02*
X001371Y010927D01*
X001371Y011026D02*
X000841Y011026D01*
X000841Y011124D02*
X001371Y011124D01*
X001371Y011223D02*
X000841Y011223D01*
X000841Y011321D02*
X001371Y011321D01*
X001371Y011420D02*
X000841Y011420D01*
X000841Y011518D02*
X001371Y011518D01*
X001313Y011617D02*
X000841Y011617D01*
X000841Y011715D02*
X001228Y011715D01*
X001187Y011814D02*
X000841Y011814D01*
X000841Y011912D02*
X001166Y011912D01*
X001166Y012011D02*
X000841Y012011D01*
X000841Y012109D02*
X001190Y012109D01*
X001231Y012208D02*
X000841Y012208D01*
X000841Y012306D02*
X001321Y012306D01*
X001491Y012405D02*
X000841Y012405D01*
X000841Y012503D02*
X001509Y012503D01*
X001328Y012602D02*
X000841Y012602D01*
X000841Y012700D02*
X001234Y012700D01*
X001193Y012799D02*
X000841Y012799D01*
X000841Y012897D02*
X001166Y012897D01*
X001166Y012996D02*
X000841Y012996D01*
X000841Y013094D02*
X001184Y013094D01*
X001225Y013193D02*
X000841Y013193D01*
X000841Y013291D02*
X001306Y013291D01*
X001455Y013390D02*
X000841Y013390D01*
X000841Y013488D02*
X002107Y013488D01*
X002181Y013587D02*
X001923Y013587D01*
X002022Y013685D02*
X002222Y013685D01*
X002298Y013784D02*
X002067Y013784D01*
X002101Y013882D02*
X002436Y013882D01*
X002009Y013390D02*
X001812Y013390D01*
X001343Y013587D02*
X000841Y013587D01*
X000841Y013685D02*
X001245Y013685D01*
X001199Y013784D02*
X000841Y013784D01*
X000841Y013882D02*
X001166Y013882D01*
X001166Y013981D02*
X000841Y013981D01*
X000841Y014079D02*
X001178Y014079D01*
X001218Y014178D02*
X000841Y014178D01*
X000841Y014276D02*
X001291Y014276D01*
X001418Y014375D02*
X000841Y014375D01*
X001926Y014670D02*
X002215Y014670D01*
X002283Y014769D02*
X001997Y014769D01*
X002034Y014867D02*
X002400Y014867D01*
X003664Y012700D02*
X004863Y012700D01*
X004764Y012602D02*
X003566Y012602D01*
X003467Y012503D02*
X004666Y012503D01*
X004567Y012405D02*
X003369Y012405D01*
X003270Y012306D02*
X004469Y012306D01*
X004370Y012208D02*
X003136Y012208D01*
X002946Y012109D02*
X004272Y012109D01*
X004173Y012011D02*
X002776Y012011D01*
X002838Y011814D02*
X003976Y011814D01*
X004075Y011912D02*
X002101Y011912D01*
X002080Y011814D02*
X002429Y011814D01*
X002314Y011715D02*
X002039Y011715D01*
X001953Y011617D02*
X002254Y011617D01*
X002228Y011518D02*
X001943Y011518D01*
X001943Y011420D02*
X002224Y011420D01*
X002247Y011321D02*
X001943Y011321D01*
X001943Y011223D02*
X002297Y011223D01*
X001943Y010927D02*
X005505Y010927D01*
X005505Y010829D02*
X001943Y010829D01*
X001943Y010730D02*
X005505Y010730D01*
X005505Y010632D02*
X001943Y010632D01*
X001943Y010533D02*
X005505Y010533D01*
X005505Y010435D02*
X001943Y010435D01*
X001943Y010336D02*
X005505Y010336D01*
X005505Y010238D02*
X001943Y010238D01*
X001943Y010139D02*
X005505Y010139D01*
X005505Y010041D02*
X001943Y010041D01*
X001943Y009942D02*
X005505Y009942D01*
X005505Y009844D02*
X001943Y009844D01*
X001943Y009745D02*
X005505Y009745D01*
X005505Y009647D02*
X001943Y009647D01*
X001943Y009548D02*
X005505Y009548D01*
X005505Y009450D02*
X001943Y009450D01*
X001943Y009351D02*
X005505Y009351D01*
X005505Y009253D02*
X001943Y009253D01*
X001943Y009154D02*
X005505Y009154D01*
X005505Y009056D02*
X001943Y009056D01*
X001943Y008957D02*
X005505Y008957D01*
X005505Y008859D02*
X005388Y008859D01*
X005727Y008465D02*
X005735Y008465D01*
X005748Y008366D02*
X005780Y008366D01*
X005780Y008268D02*
X005748Y008268D01*
X005748Y008169D02*
X005780Y008169D01*
X005780Y008071D02*
X005708Y008071D01*
X005668Y007972D02*
X005780Y007972D01*
X005820Y007874D02*
X005591Y007874D01*
X005492Y007775D02*
X005913Y007775D01*
X006110Y007578D02*
X001943Y007578D01*
X001943Y007480D02*
X004010Y007480D01*
X003862Y007381D02*
X001943Y007381D01*
X001943Y007283D02*
X003763Y007283D01*
X003714Y007184D02*
X001943Y007184D01*
X001943Y007086D02*
X003673Y007086D01*
X003653Y006987D02*
X001943Y006987D01*
X001943Y006889D02*
X003653Y006889D01*
X003653Y006790D02*
X001943Y006790D01*
X001943Y006692D02*
X003693Y006692D01*
X003733Y006593D02*
X001943Y006593D01*
X001943Y006495D02*
X003811Y006495D01*
X004122Y007677D02*
X001943Y007677D01*
X001943Y007775D02*
X003908Y007775D01*
X003810Y007874D02*
X001943Y007874D01*
X001943Y007972D02*
X003733Y007972D01*
X003692Y008071D02*
X001943Y008071D01*
X001943Y008169D02*
X003653Y008169D01*
X003653Y008268D02*
X001943Y008268D01*
X001943Y008366D02*
X003653Y008366D01*
X003673Y008465D02*
X001943Y008465D01*
X001943Y008563D02*
X003714Y008563D01*
X003764Y008662D02*
X001943Y008662D01*
X001943Y008760D02*
X003863Y008760D01*
X004012Y008859D02*
X001943Y008859D01*
X002872Y011124D02*
X003750Y011124D01*
X003662Y011223D02*
X002969Y011223D01*
X003020Y011321D02*
X003621Y011321D01*
X003614Y011420D02*
X003042Y011420D01*
X003039Y011518D02*
X003627Y011518D01*
X003668Y011617D02*
X003013Y011617D01*
X002953Y011715D02*
X003765Y011715D01*
X007474Y011321D02*
X009507Y011321D01*
X009409Y011223D02*
X007626Y011223D01*
X007605Y010533D02*
X016001Y010533D01*
X016039Y010495D02*
X016210Y010424D01*
X016395Y010424D01*
X016566Y010495D01*
X016697Y010625D01*
X016768Y010796D01*
X016768Y010981D01*
X016697Y011152D01*
X016566Y011283D01*
X016395Y011354D01*
X016210Y011354D01*
X016039Y011283D01*
X015908Y011152D01*
X015838Y010981D01*
X015838Y010796D01*
X015908Y010625D01*
X016039Y010495D01*
X016184Y010435D02*
X007421Y010435D01*
X007438Y010336D02*
X011878Y010336D01*
X011736Y010238D02*
X007611Y010238D01*
X007702Y010139D02*
X011675Y010139D01*
X011645Y010041D02*
X007743Y010041D01*
X007768Y009942D02*
X011645Y009942D01*
X011678Y009844D02*
X007768Y009844D01*
X007746Y009745D02*
X011725Y009745D01*
X011725Y009647D02*
X007706Y009647D01*
X007619Y009548D02*
X011725Y009548D01*
X011725Y009450D02*
X007457Y009450D01*
X007401Y009351D02*
X011725Y009351D01*
X011725Y009253D02*
X007596Y009253D01*
X007695Y009154D02*
X011725Y009154D01*
X011725Y009056D02*
X007737Y009056D01*
X007768Y008957D02*
X011631Y008957D01*
X011532Y008859D02*
X007768Y008859D01*
X007753Y008760D02*
X011433Y008760D01*
X011334Y008662D02*
X007712Y008662D01*
X007634Y008563D02*
X011235Y008563D01*
X011135Y008465D02*
X007494Y008465D01*
X007665Y007184D02*
X009848Y007184D01*
X009749Y007086D02*
X007724Y007086D01*
X007765Y006987D02*
X009650Y006987D01*
X009551Y006889D02*
X007768Y006889D01*
X007765Y006790D02*
X009452Y006790D01*
X009353Y006692D02*
X007829Y006692D01*
X007939Y006593D02*
X008367Y006593D01*
X008648Y006593D02*
X009254Y006593D01*
X009155Y006495D02*
X008786Y006495D01*
X008845Y006396D02*
X009056Y006396D01*
X008957Y006298D02*
X008874Y006298D01*
X009274Y005805D02*
X010256Y005805D01*
X010268Y005817D02*
X010165Y005714D01*
X010110Y005580D01*
X010110Y005434D01*
X010165Y005299D01*
X010268Y005196D01*
X010403Y005141D01*
X010549Y005141D01*
X010683Y005196D01*
X010786Y005299D01*
X010842Y005434D01*
X010842Y005580D01*
X010786Y005714D01*
X010683Y005817D01*
X010549Y005873D01*
X010403Y005873D01*
X010268Y005817D01*
X010328Y005904D02*
X009373Y005904D01*
X009472Y006002D02*
X010171Y006002D01*
X010126Y006047D02*
X010229Y005944D01*
X010364Y005889D01*
X010509Y005889D01*
X010598Y005925D01*
X010976Y005547D01*
X010976Y005513D01*
X011032Y005378D01*
X011135Y005275D01*
X011269Y005219D01*
X011415Y005219D01*
X011549Y005275D01*
X011652Y005378D01*
X011708Y005513D01*
X011708Y005658D01*
X011652Y005793D01*
X011549Y005896D01*
X011415Y005952D01*
X011381Y005952D01*
X010835Y006498D01*
X010730Y006541D01*
X010668Y006541D01*
X010644Y006565D01*
X010509Y006621D01*
X010364Y006621D01*
X010229Y006565D01*
X010126Y006462D01*
X010070Y006328D01*
X010070Y006182D01*
X010126Y006047D01*
X010104Y006101D02*
X009571Y006101D01*
X009670Y006199D02*
X010070Y006199D01*
X010070Y006298D02*
X009769Y006298D01*
X009868Y006396D02*
X010099Y006396D01*
X010158Y006495D02*
X009967Y006495D01*
X010066Y006593D02*
X010296Y006593D01*
X010165Y006692D02*
X015881Y006692D01*
X015882Y006593D02*
X010577Y006593D01*
X010838Y006495D02*
X015783Y006495D01*
X015685Y006396D02*
X010936Y006396D01*
X011035Y006298D02*
X015586Y006298D01*
X015488Y006199D02*
X011133Y006199D01*
X011232Y006101D02*
X015389Y006101D01*
X015291Y006002D02*
X011330Y006002D01*
X011531Y005904D02*
X015192Y005904D01*
X015094Y005805D02*
X011640Y005805D01*
X011688Y005707D02*
X014995Y005707D01*
X014897Y005608D02*
X011708Y005608D01*
X011707Y005510D02*
X014798Y005510D01*
X014700Y005411D02*
X011666Y005411D01*
X011587Y005313D02*
X014601Y005313D01*
X014503Y005214D02*
X010701Y005214D01*
X010792Y005313D02*
X011097Y005313D01*
X011018Y005411D02*
X010833Y005411D01*
X010842Y005510D02*
X010977Y005510D01*
X010915Y005608D02*
X010830Y005608D01*
X010816Y005707D02*
X010790Y005707D01*
X010718Y005805D02*
X010696Y005805D01*
X010619Y005904D02*
X010545Y005904D01*
X010162Y005707D02*
X009175Y005707D01*
X009076Y005608D02*
X010121Y005608D01*
X010110Y005510D02*
X008977Y005510D01*
X008878Y005411D02*
X010119Y005411D01*
X010160Y005313D02*
X008779Y005313D01*
X008680Y005214D02*
X010251Y005214D01*
X010147Y004820D02*
X014109Y004820D01*
X014207Y004919D02*
X009985Y004919D01*
X010245Y004722D02*
X014010Y004722D01*
X013912Y004623D02*
X010344Y004623D01*
X010442Y004525D02*
X013347Y004525D01*
X013166Y004426D02*
X010541Y004426D01*
X010639Y004328D02*
X013068Y004328D01*
X013026Y004229D02*
X010745Y004229D01*
X010902Y004131D02*
X012989Y004131D01*
X012989Y004032D02*
X010992Y004032D01*
X011033Y003934D02*
X012992Y003934D01*
X013032Y003835D02*
X011063Y003835D01*
X011063Y003737D02*
X013084Y003737D01*
X013183Y003638D02*
X011063Y003638D01*
X011063Y003540D02*
X013387Y003540D01*
X013596Y003540D02*
X013796Y003540D01*
X013800Y003638D02*
X013952Y003638D01*
X013928Y003737D02*
X013899Y003737D01*
X013708Y003441D02*
X011063Y003441D01*
X011063Y003343D02*
X013667Y003343D01*
X013642Y003244D02*
X011063Y003244D01*
X011063Y003146D02*
X013642Y003146D01*
X013556Y003047D02*
X011055Y003047D01*
X011014Y002949D02*
X013458Y002949D01*
X013873Y002555D02*
X018559Y002555D01*
X018646Y002468D02*
X018939Y002347D01*
X019257Y002347D01*
X019550Y002468D01*
X019774Y002693D01*
X019896Y002986D01*
X019896Y003303D01*
X019774Y003597D01*
X019550Y003821D01*
X019257Y003943D01*
X018939Y003943D01*
X018646Y003821D01*
X018421Y003597D01*
X018300Y003303D01*
X018300Y002986D01*
X018421Y002693D01*
X018646Y002468D01*
X018675Y002456D02*
X013775Y002456D01*
X013630Y002358D02*
X018913Y002358D01*
X019283Y002358D02*
X020072Y002358D01*
X020072Y002456D02*
X019521Y002456D01*
X019636Y002555D02*
X020072Y002555D01*
X020072Y002653D02*
X019735Y002653D01*
X019799Y002752D02*
X020072Y002752D01*
X020072Y002850D02*
X019840Y002850D01*
X019880Y002949D02*
X020072Y002949D01*
X020072Y003047D02*
X019896Y003047D01*
X019896Y003146D02*
X020072Y003146D01*
X020072Y003244D02*
X019896Y003244D01*
X019880Y003343D02*
X020072Y003343D01*
X020072Y003441D02*
X019839Y003441D01*
X019798Y003540D02*
X020072Y003540D01*
X020072Y003638D02*
X019733Y003638D01*
X019635Y003737D02*
X020072Y003737D01*
X020072Y003835D02*
X019516Y003835D01*
X019279Y003934D02*
X020072Y003934D01*
X020072Y004032D02*
X017094Y004032D01*
X017117Y004131D02*
X020072Y004131D01*
X020072Y004229D02*
X017117Y004229D01*
X017101Y004328D02*
X020072Y004328D01*
X020072Y004426D02*
X017101Y004426D01*
X017101Y004525D02*
X020072Y004525D01*
X020072Y004623D02*
X017101Y004623D01*
X017101Y004722D02*
X020072Y004722D01*
X020072Y004820D02*
X017101Y004820D01*
X017101Y004919D02*
X020072Y004919D01*
X020072Y005017D02*
X017101Y005017D01*
X017101Y005116D02*
X020072Y005116D01*
X020072Y005214D02*
X017101Y005214D01*
X017101Y005313D02*
X020072Y005313D01*
X020072Y005411D02*
X017101Y005411D01*
X017101Y005510D02*
X020072Y005510D01*
X020072Y005608D02*
X017101Y005608D01*
X017101Y005707D02*
X020072Y005707D01*
X020072Y005805D02*
X017101Y005805D01*
X017101Y005904D02*
X020072Y005904D01*
X020072Y006002D02*
X017101Y006002D01*
X017101Y006101D02*
X018625Y006101D01*
X018640Y006090D02*
X018574Y006138D01*
X018516Y006196D01*
X018468Y006262D01*
X018431Y006335D01*
X018406Y006413D01*
X018394Y006484D01*
X018863Y006484D01*
X018963Y006484D01*
X018963Y006016D01*
X019035Y006027D01*
X019112Y006053D01*
X019185Y006090D01*
X019252Y006138D01*
X019309Y006196D01*
X019358Y006262D01*
X019395Y006335D01*
X019420Y006413D01*
X019431Y006484D01*
X018963Y006484D01*
X018963Y006584D01*
X019431Y006584D01*
X019420Y006656D01*
X019395Y006734D01*
X019358Y006807D01*
X019309Y006873D01*
X019252Y006931D01*
X019185Y006979D01*
X019139Y007003D01*
X019240Y007045D01*
X019402Y007207D01*
X019490Y007420D01*
X019490Y007649D01*
X019402Y007862D01*
X019240Y008024D01*
X019215Y008034D01*
X019240Y008045D01*
X019402Y008207D01*
X019490Y008420D01*
X019490Y008649D01*
X019402Y008862D01*
X019240Y009024D01*
X019028Y009112D01*
X018798Y009112D01*
X018586Y009024D01*
X018423Y008862D01*
X018335Y008649D01*
X018335Y008420D01*
X018423Y008207D01*
X018586Y008045D01*
X018611Y008034D01*
X018586Y008024D01*
X018423Y007862D01*
X018335Y007649D01*
X018335Y007420D01*
X018423Y007207D01*
X018586Y007045D01*
X018687Y007003D01*
X018640Y006979D01*
X018574Y006931D01*
X018516Y006873D01*
X018468Y006807D01*
X018431Y006734D01*
X018406Y006656D01*
X018394Y006584D01*
X018863Y006584D01*
X018863Y006484D01*
X018863Y006016D01*
X018791Y006027D01*
X018713Y006053D01*
X018640Y006090D01*
X018514Y006199D02*
X017101Y006199D01*
X017101Y006298D02*
X018450Y006298D01*
X018411Y006396D02*
X017101Y006396D01*
X017101Y006495D02*
X018863Y006495D01*
X018863Y006396D02*
X018963Y006396D01*
X018963Y006298D02*
X018863Y006298D01*
X018863Y006199D02*
X018963Y006199D01*
X018963Y006101D02*
X018863Y006101D01*
X019200Y006101D02*
X020072Y006101D01*
X020072Y006199D02*
X019312Y006199D01*
X019376Y006298D02*
X020072Y006298D01*
X020072Y006396D02*
X019415Y006396D01*
X019430Y006593D02*
X020072Y006593D01*
X020072Y006495D02*
X018963Y006495D01*
X019409Y006692D02*
X020072Y006692D01*
X020072Y006790D02*
X019366Y006790D01*
X019294Y006889D02*
X020072Y006889D01*
X020072Y006987D02*
X019170Y006987D01*
X019281Y007086D02*
X020072Y007086D01*
X020072Y007184D02*
X019379Y007184D01*
X019434Y007283D02*
X020072Y007283D01*
X020072Y007381D02*
X019474Y007381D01*
X019490Y007480D02*
X020072Y007480D01*
X020072Y007578D02*
X019490Y007578D01*
X019479Y007677D02*
X020072Y007677D01*
X020072Y007775D02*
X019438Y007775D01*
X019390Y007874D02*
X020072Y007874D01*
X020072Y007972D02*
X019292Y007972D01*
X019266Y008071D02*
X020072Y008071D01*
X020072Y008169D02*
X019364Y008169D01*
X019427Y008268D02*
X020072Y008268D01*
X020072Y008366D02*
X019468Y008366D01*
X019490Y008465D02*
X020072Y008465D01*
X020072Y008563D02*
X019490Y008563D01*
X019485Y008662D02*
X020072Y008662D01*
X020072Y008760D02*
X019444Y008760D01*
X019404Y008859D02*
X020072Y008859D01*
X020072Y008957D02*
X019307Y008957D01*
X019164Y009056D02*
X020072Y009056D01*
X020072Y009154D02*
X017098Y009154D01*
X017101Y009056D02*
X018662Y009056D01*
X018519Y008957D02*
X017101Y008957D01*
X017101Y008859D02*
X018422Y008859D01*
X018381Y008760D02*
X017101Y008760D01*
X017101Y008662D02*
X018340Y008662D01*
X018335Y008563D02*
X017101Y008563D01*
X017101Y008465D02*
X018335Y008465D01*
X018358Y008366D02*
X017101Y008366D01*
X017101Y008268D02*
X018398Y008268D01*
X018462Y008169D02*
X017101Y008169D01*
X017101Y008071D02*
X018560Y008071D01*
X018534Y007972D02*
X017101Y007972D01*
X017101Y007874D02*
X018435Y007874D01*
X018387Y007775D02*
X017101Y007775D01*
X017101Y007677D02*
X018347Y007677D01*
X018335Y007578D02*
X017101Y007578D01*
X017101Y007480D02*
X018335Y007480D01*
X018351Y007381D02*
X017101Y007381D01*
X017101Y007283D02*
X018392Y007283D01*
X018447Y007184D02*
X017101Y007184D01*
X017101Y007086D02*
X018545Y007086D01*
X018656Y006987D02*
X017101Y006987D01*
X017101Y006889D02*
X018532Y006889D01*
X018460Y006790D02*
X017101Y006790D01*
X017101Y006692D02*
X018417Y006692D01*
X018396Y006593D02*
X017101Y006593D01*
X016528Y006396D02*
X016494Y006396D01*
X016528Y006298D02*
X016396Y006298D01*
X016297Y006199D02*
X016528Y006199D01*
X016528Y006101D02*
X016199Y006101D01*
X016100Y006002D02*
X016528Y006002D01*
X016528Y005904D02*
X016002Y005904D01*
X015903Y005805D02*
X016528Y005805D01*
X016528Y005707D02*
X015805Y005707D01*
X015706Y005608D02*
X016528Y005608D01*
X016528Y005510D02*
X015608Y005510D01*
X015509Y005411D02*
X016528Y005411D01*
X016528Y005313D02*
X015411Y005313D01*
X015312Y005214D02*
X016528Y005214D01*
X016528Y005116D02*
X015214Y005116D01*
X015115Y005017D02*
X016528Y005017D01*
X016528Y004919D02*
X015017Y004919D01*
X014918Y004820D02*
X016528Y004820D01*
X016528Y004722D02*
X014820Y004722D01*
X014721Y004623D02*
X015415Y004623D01*
X015353Y004597D02*
X015216Y004460D01*
X015142Y004281D01*
X015142Y004087D01*
X015216Y003908D01*
X015353Y003771D01*
X015532Y003697D01*
X015726Y003697D01*
X015906Y003771D01*
X016043Y003908D01*
X016117Y004087D01*
X016117Y004281D01*
X016043Y004460D01*
X015906Y004597D01*
X015726Y004672D01*
X015532Y004672D01*
X015353Y004597D01*
X015281Y004525D02*
X014892Y004525D01*
X014985Y004426D02*
X015202Y004426D01*
X015161Y004328D02*
X015035Y004328D01*
X015058Y004229D02*
X015142Y004229D01*
X015142Y004131D02*
X015056Y004131D01*
X015032Y004032D02*
X015165Y004032D01*
X015205Y003934D02*
X014979Y003934D01*
X014881Y003835D02*
X015289Y003835D01*
X015436Y003737D02*
X014738Y003737D01*
X014836Y003638D02*
X014952Y003638D01*
X015307Y003638D02*
X015952Y003638D01*
X016032Y003672D02*
X015853Y003597D01*
X015716Y003460D01*
X015642Y003281D01*
X015642Y003087D01*
X015716Y002908D01*
X015853Y002771D01*
X016032Y002697D01*
X016226Y002697D01*
X016406Y002771D01*
X016543Y002908D01*
X016617Y003087D01*
X016617Y003281D01*
X016543Y003460D01*
X016406Y003597D01*
X016226Y003672D01*
X016032Y003672D01*
X015970Y003835D02*
X016289Y003835D01*
X016205Y003934D02*
X016053Y003934D01*
X016094Y004032D02*
X016165Y004032D01*
X016142Y004131D02*
X016117Y004131D01*
X016117Y004229D02*
X016142Y004229D01*
X016161Y004328D02*
X016098Y004328D01*
X016057Y004426D02*
X016202Y004426D01*
X016281Y004525D02*
X015978Y004525D01*
X015843Y004623D02*
X016415Y004623D01*
X016970Y003835D02*
X018679Y003835D01*
X018561Y003737D02*
X016823Y003737D01*
X017053Y003934D02*
X018917Y003934D01*
X018463Y003638D02*
X016307Y003638D01*
X016436Y003737D02*
X015823Y003737D01*
X015796Y003540D02*
X015463Y003540D01*
X015551Y003441D02*
X015708Y003441D01*
X015667Y003343D02*
X015591Y003343D01*
X015617Y003244D02*
X015642Y003244D01*
X015642Y003146D02*
X015617Y003146D01*
X015600Y003047D02*
X015658Y003047D01*
X015699Y002949D02*
X015560Y002949D01*
X015485Y002850D02*
X015774Y002850D01*
X015900Y002752D02*
X015359Y002752D01*
X014900Y002752D02*
X014359Y002752D01*
X014485Y002850D02*
X014774Y002850D01*
X014699Y002949D02*
X014560Y002949D01*
X014600Y003047D02*
X014617Y003047D01*
X013972Y002653D02*
X018461Y002653D01*
X018397Y002752D02*
X016359Y002752D01*
X016485Y002850D02*
X018356Y002850D01*
X018315Y002949D02*
X016560Y002949D01*
X016600Y003047D02*
X018300Y003047D01*
X018300Y003146D02*
X016617Y003146D01*
X016617Y003244D02*
X018300Y003244D01*
X018316Y003343D02*
X016591Y003343D01*
X016551Y003441D02*
X018357Y003441D01*
X018398Y003540D02*
X016463Y003540D01*
X014404Y005116D02*
X008581Y005116D01*
X008481Y005017D02*
X014306Y005017D01*
X013838Y004525D02*
X013636Y004525D01*
X015840Y006790D02*
X010264Y006790D01*
X010363Y006889D02*
X015838Y006889D01*
X015840Y006987D02*
X010462Y006987D01*
X010561Y007086D02*
X015881Y007086D01*
X015940Y007184D02*
X010660Y007184D01*
X010759Y007283D02*
X016039Y007283D01*
X016075Y007480D02*
X010957Y007480D01*
X011056Y007578D02*
X015956Y007578D01*
X015887Y007677D02*
X011155Y007677D01*
X011254Y007775D02*
X015846Y007775D01*
X015838Y007874D02*
X011353Y007874D01*
X011452Y007972D02*
X015838Y007972D01*
X015875Y008071D02*
X011551Y008071D01*
X011650Y008169D02*
X015925Y008169D01*
X016024Y008268D02*
X011749Y008268D01*
X011848Y008366D02*
X016528Y008366D01*
X016528Y008465D02*
X016494Y008465D01*
X016112Y008465D02*
X011947Y008465D01*
X012046Y008563D02*
X015971Y008563D01*
X015893Y008662D02*
X012145Y008662D01*
X012244Y008760D02*
X015853Y008760D01*
X015838Y008859D02*
X012291Y008859D01*
X012298Y008957D02*
X015838Y008957D01*
X015868Y009056D02*
X012298Y009056D01*
X012298Y009154D02*
X015910Y009154D01*
X016009Y009253D02*
X012298Y009253D01*
X012298Y009351D02*
X016148Y009351D01*
X016056Y009450D02*
X012298Y009450D01*
X012298Y009548D02*
X015986Y009548D01*
X015900Y009647D02*
X012298Y009647D01*
X012298Y009745D02*
X015859Y009745D01*
X015838Y009844D02*
X012345Y009844D01*
X012378Y009942D02*
X015838Y009942D01*
X015862Y010041D02*
X012378Y010041D01*
X012348Y010139D02*
X015903Y010139D01*
X015994Y010238D02*
X012287Y010238D01*
X012145Y010336D02*
X016168Y010336D01*
X015906Y010632D02*
X009590Y010632D01*
X009726Y010730D02*
X015865Y010730D01*
X015838Y010829D02*
X009824Y010829D01*
X009923Y010927D02*
X015310Y010927D01*
X015187Y011026D02*
X010021Y011026D01*
X010120Y011124D02*
X015134Y011124D01*
X015103Y011223D02*
X010218Y011223D01*
X010317Y011321D02*
X015005Y011321D01*
X014906Y011420D02*
X010415Y011420D01*
X010514Y011518D02*
X014808Y011518D01*
X014709Y011617D02*
X010612Y011617D01*
X010711Y011715D02*
X014611Y011715D01*
X014512Y011814D02*
X010809Y011814D01*
X010908Y011912D02*
X014414Y011912D01*
X014315Y012011D02*
X011006Y012011D01*
X011105Y012109D02*
X014217Y012109D01*
X014118Y012208D02*
X011203Y012208D01*
X011302Y012306D02*
X014020Y012306D01*
X013921Y012405D02*
X011400Y012405D01*
X011499Y012503D02*
X013823Y012503D01*
X013724Y012602D02*
X011597Y012602D01*
X011696Y012700D02*
X013535Y012700D01*
X013414Y012799D02*
X011794Y012799D01*
X011893Y012897D02*
X013361Y012897D01*
X013338Y012996D02*
X011991Y012996D01*
X012090Y013094D02*
X013338Y013094D01*
X013377Y013193D02*
X012188Y013193D01*
X012287Y013291D02*
X013451Y013291D01*
X013958Y013291D02*
X016059Y013291D01*
X015949Y013193D02*
X014032Y013193D01*
X014070Y013094D02*
X015884Y013094D01*
X015844Y012996D02*
X014140Y012996D01*
X014238Y012897D02*
X015838Y012897D01*
X015838Y012799D02*
X014337Y012799D01*
X014435Y012700D02*
X015878Y012700D01*
X015932Y012602D02*
X014534Y012602D01*
X014632Y012503D02*
X016031Y012503D01*
X016095Y012306D02*
X014829Y012306D01*
X014731Y012405D02*
X018537Y012405D01*
X018463Y012330D02*
X018375Y012118D01*
X018375Y011888D01*
X018463Y011676D01*
X018625Y011513D01*
X018650Y011503D01*
X018625Y011493D01*
X018463Y011330D01*
X018375Y011118D01*
X018375Y010888D01*
X018463Y010676D01*
X018625Y010513D01*
X018726Y010471D01*
X018680Y010448D01*
X018613Y010400D01*
X018556Y010342D01*
X018507Y010276D01*
X018470Y010203D01*
X018445Y010125D01*
X018434Y010053D01*
X018902Y010053D01*
X018902Y009953D01*
X018434Y009953D01*
X018445Y009881D01*
X018470Y009803D01*
X018507Y009730D01*
X018556Y009664D01*
X018613Y009606D01*
X018680Y009558D01*
X018753Y009521D01*
X018830Y009496D01*
X018902Y009484D01*
X018902Y009953D01*
X019002Y009953D01*
X019002Y009484D01*
X019074Y009496D01*
X019152Y009521D01*
X019225Y009558D01*
X019291Y009606D01*
X019349Y009664D01*
X019397Y009730D01*
X019434Y009803D01*
X019459Y009881D01*
X019471Y009953D01*
X019002Y009953D01*
X019002Y010053D01*
X019471Y010053D01*
X019459Y010125D01*
X019434Y010203D01*
X019397Y010276D01*
X019349Y010342D01*
X019291Y010400D01*
X019225Y010448D01*
X019178Y010471D01*
X019279Y010513D01*
X019442Y010676D01*
X019530Y010888D01*
X019530Y011118D01*
X019442Y011330D01*
X019279Y011493D01*
X019254Y011503D01*
X019279Y011513D01*
X019442Y011676D01*
X019530Y011888D01*
X019530Y012118D01*
X019442Y012330D01*
X019279Y012493D01*
X019067Y012580D01*
X018837Y012580D01*
X018625Y012493D01*
X018463Y012330D01*
X018453Y012306D02*
X016510Y012306D01*
X016566Y012283D02*
X016395Y012354D01*
X016210Y012354D01*
X016039Y012283D01*
X015908Y012152D01*
X015838Y011981D01*
X015838Y011796D01*
X015908Y011625D01*
X016039Y011495D01*
X016210Y011424D01*
X016395Y011424D01*
X016566Y011495D01*
X016697Y011625D01*
X016768Y011796D01*
X016768Y011981D01*
X016697Y012152D01*
X016566Y012283D01*
X016641Y012208D02*
X018412Y012208D01*
X018375Y012109D02*
X016715Y012109D01*
X016755Y012011D02*
X018375Y012011D01*
X018375Y011912D02*
X016768Y011912D01*
X016768Y011814D02*
X018406Y011814D01*
X018446Y011715D02*
X016734Y011715D01*
X016688Y011617D02*
X018522Y011617D01*
X018620Y011518D02*
X016590Y011518D01*
X016474Y011321D02*
X018459Y011321D01*
X018418Y011223D02*
X016626Y011223D01*
X016708Y011124D02*
X018377Y011124D01*
X018375Y011026D02*
X016749Y011026D01*
X016768Y010927D02*
X018375Y010927D01*
X018399Y010829D02*
X016768Y010829D01*
X016740Y010730D02*
X016918Y010730D01*
X016978Y010755D02*
X016843Y010699D01*
X016740Y010596D01*
X016684Y010462D01*
X016684Y010316D01*
X016740Y010181D01*
X016843Y010078D01*
X016978Y010023D01*
X017012Y010023D01*
X017551Y009484D01*
X017551Y009450D01*
X017606Y009315D01*
X017709Y009212D01*
X017844Y009156D01*
X017990Y009156D01*
X018124Y009212D01*
X018227Y009315D01*
X018283Y009450D01*
X018283Y009596D01*
X018227Y009730D01*
X018124Y009833D01*
X017990Y009889D01*
X017955Y009889D01*
X017417Y010427D01*
X017417Y010462D01*
X017361Y010596D01*
X017258Y010699D01*
X017124Y010755D01*
X016978Y010755D01*
X017184Y010730D02*
X018440Y010730D01*
X018507Y010632D02*
X017326Y010632D01*
X017387Y010533D02*
X018605Y010533D01*
X018662Y010435D02*
X017417Y010435D01*
X017508Y010336D02*
X018552Y010336D01*
X018488Y010238D02*
X017607Y010238D01*
X017705Y010139D02*
X018450Y010139D01*
X018435Y009942D02*
X017902Y009942D01*
X017804Y010041D02*
X018902Y010041D01*
X018902Y009942D02*
X019002Y009942D01*
X019002Y009844D02*
X018902Y009844D01*
X018902Y009745D02*
X019002Y009745D01*
X019002Y009647D02*
X018902Y009647D01*
X018902Y009548D02*
X019002Y009548D01*
X019205Y009548D02*
X020072Y009548D01*
X020072Y009450D02*
X018283Y009450D01*
X018283Y009548D02*
X018700Y009548D01*
X018573Y009647D02*
X018262Y009647D01*
X018212Y009745D02*
X018500Y009745D01*
X018457Y009844D02*
X018099Y009844D01*
X018242Y009351D02*
X020072Y009351D01*
X020072Y009253D02*
X018165Y009253D01*
X017669Y009253D02*
X017056Y009253D01*
X016958Y009351D02*
X017591Y009351D01*
X017551Y009450D02*
X016859Y009450D01*
X016761Y009548D02*
X017487Y009548D01*
X017388Y009647D02*
X016706Y009647D01*
X016746Y009745D02*
X017290Y009745D01*
X017191Y009844D02*
X016768Y009844D01*
X016768Y009942D02*
X017093Y009942D01*
X016934Y010041D02*
X016743Y010041D01*
X016782Y010139D02*
X016702Y010139D01*
X016717Y010238D02*
X016611Y010238D01*
X016684Y010336D02*
X016438Y010336D01*
X016421Y010435D02*
X016684Y010435D01*
X016714Y010533D02*
X016605Y010533D01*
X016699Y010632D02*
X016776Y010632D01*
X016131Y011321D02*
X015842Y011321D01*
X015842Y011223D02*
X015979Y011223D01*
X015897Y011124D02*
X015818Y011124D01*
X015856Y011026D02*
X015764Y011026D01*
X015838Y010927D02*
X015641Y010927D01*
X015804Y011420D02*
X018552Y011420D01*
X018651Y012503D02*
X016575Y012503D01*
X016673Y012602D02*
X020072Y012602D01*
X020072Y012700D02*
X016728Y012700D01*
X016768Y012799D02*
X020072Y012799D01*
X020072Y012897D02*
X016814Y012897D01*
X016913Y012996D02*
X020072Y012996D01*
X020072Y013094D02*
X017011Y013094D01*
X017110Y013193D02*
X020072Y013193D01*
X020072Y013291D02*
X019464Y013291D01*
X019583Y013390D02*
X020072Y013390D01*
X020072Y013488D02*
X019671Y013488D01*
X019761Y013587D02*
X020072Y013587D01*
X020072Y013685D02*
X019851Y013685D01*
X019941Y013784D02*
X020072Y013784D01*
X020072Y013882D02*
X020031Y013882D01*
X020010Y015163D02*
X020072Y015163D01*
X020072Y015261D02*
X019912Y015261D01*
X019813Y015360D02*
X020072Y015360D01*
X020072Y015458D02*
X019715Y015458D01*
X019626Y015557D02*
X020072Y015557D01*
X020072Y015655D02*
X019674Y015655D01*
X019715Y015754D02*
X020072Y015754D01*
X020072Y015852D02*
X019716Y015852D01*
X019716Y015951D02*
X020072Y015951D01*
X020072Y016049D02*
X019679Y016049D01*
X019636Y016148D02*
X020072Y016148D01*
X020072Y016246D02*
X019538Y016246D01*
X019512Y016443D02*
X020072Y016443D01*
X020072Y016345D02*
X019358Y016345D01*
X019611Y016542D02*
X020072Y016542D01*
X020072Y016640D02*
X019668Y016640D01*
X019709Y016739D02*
X020072Y016739D01*
X020072Y016837D02*
X019716Y016837D01*
X019716Y016936D02*
X020072Y016936D01*
X020072Y017034D02*
X019685Y017034D01*
X019644Y017133D02*
X020072Y017133D01*
X020072Y017231D02*
X019553Y017231D01*
X019395Y017330D02*
X020072Y017330D01*
X020072Y017428D02*
X019344Y017428D01*
X019314Y017418D02*
X019382Y017440D01*
X019445Y017472D01*
X019502Y017514D01*
X019552Y017564D01*
X019594Y017621D01*
X019626Y017685D01*
X019648Y017752D01*
X019657Y017807D01*
X018959Y017807D01*
X018959Y017407D01*
X019244Y017407D01*
X019314Y017418D01*
X019515Y017527D02*
X020072Y017527D01*
X020072Y017625D02*
X019596Y017625D01*
X019639Y017724D02*
X020072Y017724D01*
X020072Y017822D02*
X018959Y017822D01*
X018959Y017807D02*
X018959Y017907D01*
X019657Y017907D01*
X019648Y017963D01*
X019626Y018030D01*
X019594Y018093D01*
X019552Y018150D01*
X019502Y018201D01*
X019445Y018242D01*
X019382Y018274D01*
X019314Y018296D01*
X019244Y018307D01*
X018959Y018307D01*
X018959Y017907D01*
X018859Y017907D01*
X018859Y017807D01*
X018959Y017807D01*
X018959Y017724D02*
X018859Y017724D01*
X018859Y017807D02*
X018859Y017407D01*
X018574Y017407D01*
X018504Y017418D01*
X018436Y017440D01*
X018373Y017472D01*
X018316Y017514D01*
X018266Y017564D01*
X018224Y017621D01*
X018192Y017685D01*
X018170Y017752D01*
X018161Y017807D01*
X018859Y017807D01*
X018859Y017822D02*
X018085Y017822D01*
X018085Y017724D02*
X018179Y017724D01*
X018222Y017625D02*
X018085Y017625D01*
X018085Y017527D02*
X018303Y017527D01*
X018474Y017428D02*
X018085Y017428D01*
X018085Y017330D02*
X018423Y017330D01*
X018265Y017231D02*
X018085Y017231D01*
X018085Y017133D02*
X018174Y017133D01*
X018133Y017034D02*
X018085Y017034D01*
X018085Y016936D02*
X018101Y016936D01*
X018101Y016837D02*
X018085Y016837D01*
X018085Y016739D02*
X018109Y016739D01*
X018085Y016640D02*
X018150Y016640D01*
X018207Y016542D02*
X018085Y016542D01*
X018085Y016443D02*
X018305Y016443D01*
X018459Y016345D02*
X018085Y016345D01*
X018085Y016246D02*
X018280Y016246D01*
X018182Y016148D02*
X018085Y016148D01*
X018085Y016049D02*
X018139Y016049D01*
X018101Y015951D02*
X018085Y015951D01*
X018085Y015852D02*
X018101Y015852D01*
X018103Y015754D02*
X018085Y015754D01*
X018085Y015655D02*
X018143Y015655D01*
X018154Y015557D02*
X018192Y015557D01*
X018252Y015458D02*
X018290Y015458D01*
X018351Y015360D02*
X018484Y015360D01*
X017437Y014079D02*
X017337Y014079D01*
X017337Y013981D02*
X017539Y013981D01*
X017641Y013882D02*
X017337Y013882D01*
X017337Y013784D02*
X017744Y013784D01*
X017846Y013685D02*
X017337Y013685D01*
X017337Y013587D02*
X017949Y013587D01*
X018051Y013488D02*
X017337Y013488D01*
X017299Y013390D02*
X018153Y013390D01*
X018274Y013291D02*
X017208Y013291D01*
X016016Y011518D02*
X015731Y011518D01*
X015560Y011617D02*
X015917Y011617D01*
X015871Y011715D02*
X015420Y011715D01*
X015322Y011814D02*
X015838Y011814D01*
X015838Y011912D02*
X015223Y011912D01*
X015125Y012011D02*
X015850Y012011D01*
X015891Y012109D02*
X015026Y012109D01*
X014928Y012208D02*
X015964Y012208D01*
X015789Y015852D02*
X011165Y015852D01*
X011067Y015951D02*
X015690Y015951D01*
X015592Y016049D02*
X010968Y016049D01*
X010870Y016148D02*
X015493Y016148D01*
X015395Y016246D02*
X010771Y016246D01*
X010673Y016345D02*
X015296Y016345D01*
X015198Y016443D02*
X010574Y016443D01*
X010476Y016542D02*
X015099Y016542D01*
X015001Y016640D02*
X010377Y016640D01*
X010279Y016739D02*
X014902Y016739D01*
X014804Y016837D02*
X010180Y016837D01*
X010082Y016936D02*
X014705Y016936D01*
X014607Y017034D02*
X009983Y017034D01*
X009885Y017133D02*
X014508Y017133D01*
X014410Y017231D02*
X009786Y017231D01*
X009688Y017330D02*
X014311Y017330D01*
X014213Y017428D02*
X009589Y017428D01*
X009491Y017527D02*
X014114Y017527D01*
X014016Y017625D02*
X009392Y017625D01*
X009392Y017724D02*
X013917Y017724D01*
X013850Y018315D02*
X012660Y018315D01*
X012756Y018413D02*
X013870Y018413D01*
X013919Y018512D02*
X012797Y018512D01*
X012811Y018610D02*
X013930Y018610D01*
X013930Y018709D02*
X012803Y018709D01*
X012762Y018807D02*
X013930Y018807D01*
X013930Y018906D02*
X012674Y018906D01*
X012462Y019004D02*
X013930Y019004D01*
X013930Y019103D02*
X012364Y019103D01*
X012265Y019201D02*
X013930Y019201D01*
X013930Y019300D02*
X012157Y019300D01*
X013033Y020679D02*
X010172Y020679D01*
X010172Y020777D02*
X012936Y020777D01*
X012838Y020876D02*
X010172Y020876D01*
X010172Y020974D02*
X012741Y020974D01*
X012643Y021073D02*
X010172Y021073D01*
X010172Y021171D02*
X012546Y021171D01*
X012448Y021270D02*
X010172Y021270D01*
X010172Y021368D02*
X012351Y021368D01*
X012253Y021467D02*
X010172Y021467D01*
X010172Y021565D02*
X012156Y021565D01*
X012058Y021664D02*
X010172Y021664D01*
X010172Y021762D02*
X011961Y021762D01*
X011863Y021861D02*
X010172Y021861D01*
X010172Y021959D02*
X011766Y021959D01*
X011668Y022058D02*
X010172Y022058D01*
X010172Y022156D02*
X011571Y022156D01*
X011473Y022255D02*
X010172Y022255D01*
X010172Y022353D02*
X011376Y022353D01*
X011279Y022452D02*
X010172Y022452D01*
X010148Y022550D02*
X011181Y022550D01*
X011084Y022649D02*
X010077Y022649D01*
X009979Y022747D02*
X010986Y022747D01*
X010889Y022846D02*
X009880Y022846D01*
X009782Y022944D02*
X010791Y022944D01*
X010694Y023043D02*
X009683Y023043D01*
X009585Y023141D02*
X010596Y023141D01*
X010499Y023240D02*
X009486Y023240D01*
X009388Y023338D02*
X010401Y023338D01*
X010304Y023437D02*
X009289Y023437D01*
X009191Y023535D02*
X010206Y023535D01*
X010109Y023634D02*
X009092Y023634D01*
X008994Y023732D02*
X010011Y023732D01*
X009914Y023831D02*
X008895Y023831D01*
X008797Y023929D02*
X009816Y023929D01*
X009719Y024028D02*
X008698Y024028D01*
X008600Y024126D02*
X009622Y024126D01*
X009524Y024225D02*
X008501Y024225D01*
X008403Y024323D02*
X009427Y024323D01*
X009329Y024422D02*
X008304Y024422D01*
X008206Y024520D02*
X009232Y024520D01*
X009134Y024619D02*
X008107Y024619D01*
X008009Y024717D02*
X009037Y024717D01*
X008939Y024816D02*
X007910Y024816D01*
X007812Y024914D02*
X008842Y024914D01*
X008744Y025013D02*
X007755Y025013D01*
X007714Y025111D02*
X008647Y025111D01*
X008549Y025210D02*
X007639Y025210D01*
X007505Y025308D02*
X008452Y025308D01*
X008354Y025407D02*
X007241Y025407D01*
X007274Y025505D02*
X007331Y025505D01*
X007331Y025604D02*
X007274Y025604D01*
X007274Y025702D02*
X007331Y025702D01*
X007331Y025801D02*
X007274Y025801D01*
X007274Y025899D02*
X006748Y025899D01*
X006650Y025998D02*
X006910Y025998D01*
X006951Y026096D02*
X006551Y026096D01*
X006453Y026195D02*
X007032Y026195D01*
X007251Y026293D02*
X006354Y026293D01*
X006274Y026392D02*
X007693Y026392D01*
X007648Y026293D02*
X007354Y026293D01*
X007331Y026293D02*
X007274Y026293D01*
X007274Y026195D02*
X007331Y026195D01*
X007331Y026096D02*
X007274Y026096D01*
X007274Y025998D02*
X007331Y025998D01*
X007331Y025899D02*
X007755Y025899D01*
X007701Y025801D02*
X007964Y025801D01*
X008062Y025702D02*
X007665Y025702D01*
X007594Y025604D02*
X008159Y025604D01*
X008257Y025505D02*
X007441Y025505D01*
X007165Y025505D02*
X007142Y025505D01*
X006904Y025801D02*
X006847Y025801D01*
X006431Y025407D02*
X001589Y025407D01*
X001589Y025505D02*
X006333Y025505D01*
X006234Y025604D02*
X001589Y025604D01*
X001589Y025702D02*
X006136Y025702D01*
X006037Y025801D02*
X001589Y025801D01*
X001589Y025899D02*
X005939Y025899D01*
X005840Y025998D02*
X001589Y025998D01*
X001589Y026096D02*
X005744Y026096D01*
X005703Y026195D02*
X001589Y026195D01*
X001589Y026293D02*
X005701Y026293D01*
X005701Y026392D02*
X001589Y026392D01*
X001628Y026490D02*
X005701Y026490D01*
X005701Y026589D02*
X001726Y026589D01*
X001825Y026687D02*
X005701Y026687D01*
X005701Y026786D02*
X001923Y026786D01*
X002022Y026884D02*
X005701Y026884D01*
X005701Y026983D02*
X002120Y026983D01*
X002219Y027081D02*
X005701Y027081D01*
X005701Y027180D02*
X002317Y027180D01*
X002416Y027278D02*
X005701Y027278D01*
X005701Y027377D02*
X002514Y027377D01*
X002613Y027475D02*
X005701Y027475D01*
X005701Y027574D02*
X002711Y027574D01*
X002810Y027672D02*
X005701Y027672D01*
X005701Y027771D02*
X002908Y027771D01*
X003007Y027869D02*
X005701Y027869D01*
X005701Y027968D02*
X003105Y027968D01*
X003204Y028066D02*
X005701Y028066D01*
X005701Y028165D02*
X003302Y028165D01*
X003401Y028263D02*
X005701Y028263D01*
X005701Y028362D02*
X003499Y028362D01*
X003598Y028460D02*
X003722Y028460D01*
X004182Y028460D02*
X005701Y028460D01*
X005591Y028559D02*
X005228Y028559D01*
X005243Y028570D02*
X005293Y028620D01*
X005334Y028677D01*
X005366Y028739D01*
X005388Y028806D01*
X005399Y028876D01*
X005399Y029159D01*
X005001Y029159D01*
X005001Y029256D01*
X005399Y029256D01*
X005399Y029540D01*
X005388Y029609D01*
X005366Y029676D01*
X005334Y029739D01*
X005293Y029796D01*
X005243Y029845D01*
X005186Y029887D01*
X005124Y029919D01*
X005057Y029940D01*
X005001Y029949D01*
X005001Y029256D01*
X004904Y029256D01*
X004904Y029949D01*
X004848Y029940D01*
X004781Y029919D01*
X004718Y029887D01*
X004661Y029845D01*
X004611Y029796D01*
X004570Y029739D01*
X004538Y029676D01*
X004516Y029609D01*
X004505Y029540D01*
X004505Y029256D01*
X004904Y029256D01*
X004904Y029159D01*
X005001Y029159D01*
X005001Y028466D01*
X005057Y028475D01*
X005124Y028497D01*
X005186Y028529D01*
X005243Y028570D01*
X005320Y028657D02*
X005511Y028657D01*
X005471Y028756D02*
X005372Y028756D01*
X005396Y028854D02*
X005448Y028854D01*
X005448Y028953D02*
X005399Y028953D01*
X005399Y029051D02*
X005448Y029051D01*
X005448Y029150D02*
X005399Y029150D01*
X005448Y029248D02*
X005001Y029248D01*
X004904Y029248D02*
X004457Y029248D01*
X004457Y029150D02*
X004505Y029150D01*
X004505Y029159D02*
X004505Y028876D01*
X004516Y028806D01*
X004538Y028739D01*
X004570Y028677D01*
X004611Y028620D01*
X004661Y028570D01*
X004718Y028529D01*
X004781Y028497D01*
X004848Y028475D01*
X004904Y028466D01*
X004904Y029159D01*
X004505Y029159D01*
X004505Y029051D02*
X004457Y029051D01*
X004457Y028953D02*
X004505Y028953D01*
X004509Y028854D02*
X004457Y028854D01*
X004434Y028756D02*
X004533Y028756D01*
X004584Y028657D02*
X004393Y028657D01*
X004313Y028559D02*
X004677Y028559D01*
X004904Y028559D02*
X005001Y028559D01*
X005001Y028657D02*
X004904Y028657D01*
X004904Y028756D02*
X005001Y028756D01*
X005001Y028854D02*
X004904Y028854D01*
X004904Y028953D02*
X005001Y028953D01*
X005001Y029051D02*
X004904Y029051D01*
X004904Y029150D02*
X005001Y029150D01*
X005001Y029347D02*
X004904Y029347D01*
X004904Y029445D02*
X005001Y029445D01*
X005001Y029544D02*
X004904Y029544D01*
X004904Y029642D02*
X005001Y029642D01*
X005001Y029741D02*
X004904Y029741D01*
X004904Y029839D02*
X005001Y029839D01*
X005001Y029938D02*
X004904Y029938D01*
X004839Y029938D02*
X004224Y029938D01*
X004331Y029839D02*
X004655Y029839D01*
X004571Y029741D02*
X004400Y029741D01*
X004441Y029642D02*
X004527Y029642D01*
X004506Y029544D02*
X004457Y029544D01*
X004457Y029445D02*
X004505Y029445D01*
X004505Y029347D02*
X004457Y029347D01*
X005065Y029938D02*
X005680Y029938D01*
X005574Y029839D02*
X005250Y029839D01*
X005333Y029741D02*
X005504Y029741D01*
X005463Y029642D02*
X005377Y029642D01*
X005398Y029544D02*
X005448Y029544D01*
X005448Y029445D02*
X005399Y029445D01*
X005399Y029347D02*
X005448Y029347D01*
X006224Y029938D02*
X007286Y029938D01*
X007180Y029839D02*
X006331Y029839D01*
X006400Y029741D02*
X007110Y029741D01*
X007070Y029642D02*
X006441Y029642D01*
X006457Y029544D02*
X007054Y029544D01*
X007054Y029445D02*
X006457Y029445D01*
X006457Y029347D02*
X007054Y029347D01*
X007054Y029248D02*
X006457Y029248D01*
X006457Y029150D02*
X007054Y029150D01*
X007054Y029051D02*
X006457Y029051D01*
X006457Y028953D02*
X007054Y028953D01*
X007054Y028854D02*
X006457Y028854D01*
X006434Y028756D02*
X007077Y028756D01*
X007118Y028657D02*
X006393Y028657D01*
X006274Y027968D02*
X009992Y027968D01*
X009992Y028021D02*
X009992Y027875D01*
X010047Y027740D01*
X010150Y027637D01*
X010285Y027582D01*
X010431Y027582D01*
X010565Y027637D01*
X010668Y027740D01*
X010724Y027875D01*
X010724Y027909D01*
X011221Y028407D01*
X011265Y028407D01*
X011451Y028483D01*
X011592Y028625D01*
X011669Y028811D01*
X011669Y029605D01*
X011592Y029790D01*
X011451Y029932D01*
X011265Y030009D01*
X011065Y030009D01*
X010879Y029932D01*
X010737Y029790D01*
X010660Y029605D01*
X010660Y028811D01*
X010706Y028701D01*
X010319Y028314D01*
X010285Y028314D01*
X010150Y028258D01*
X010047Y028155D01*
X009992Y028021D01*
X010010Y028066D02*
X008827Y028066D01*
X008971Y028165D02*
X010057Y028165D01*
X010162Y028263D02*
X009070Y028263D01*
X009168Y028362D02*
X010367Y028362D01*
X010465Y028460D02*
X009788Y028460D01*
X009920Y028559D02*
X010564Y028559D01*
X010662Y028657D02*
X009999Y028657D01*
X010040Y028756D02*
X010683Y028756D01*
X010660Y028854D02*
X010063Y028854D01*
X010063Y028953D02*
X010660Y028953D01*
X010660Y029051D02*
X010063Y029051D01*
X010063Y029150D02*
X010660Y029150D01*
X010660Y029248D02*
X010063Y029248D01*
X010063Y029347D02*
X010660Y029347D01*
X010660Y029445D02*
X010063Y029445D01*
X010063Y029544D02*
X010660Y029544D01*
X010676Y029642D02*
X010047Y029642D01*
X010007Y029741D02*
X010717Y029741D01*
X010786Y029839D02*
X009937Y029839D01*
X009831Y029938D02*
X010893Y029938D01*
X011437Y029938D02*
X012052Y029938D01*
X012060Y029940D02*
X011993Y029919D01*
X011931Y029887D01*
X011874Y029845D01*
X011824Y029796D01*
X011783Y029739D01*
X011751Y029676D01*
X011729Y029609D01*
X011718Y029540D01*
X011718Y029256D01*
X012116Y029256D01*
X012116Y029159D01*
X011718Y029159D01*
X011718Y028876D01*
X011729Y028806D01*
X011751Y028739D01*
X011783Y028677D01*
X011824Y028620D01*
X011874Y028570D01*
X011931Y028529D01*
X011993Y028497D01*
X012060Y028475D01*
X012116Y028466D01*
X012116Y029159D01*
X012213Y029159D01*
X012213Y028466D01*
X012269Y028475D01*
X012336Y028497D01*
X012399Y028529D01*
X012456Y028570D01*
X012506Y028620D01*
X012547Y028677D01*
X012579Y028739D01*
X012601Y028806D01*
X012612Y028876D01*
X012612Y029159D01*
X012213Y029159D01*
X012213Y029256D01*
X012116Y029256D01*
X012116Y029949D01*
X012060Y029940D01*
X012116Y029938D02*
X012213Y029938D01*
X012213Y029949D02*
X012213Y029256D01*
X012612Y029256D01*
X012612Y029540D01*
X012601Y029609D01*
X012579Y029676D01*
X012547Y029739D01*
X012506Y029796D01*
X012456Y029845D01*
X012399Y029887D01*
X012336Y029919D01*
X012269Y029940D01*
X012213Y029949D01*
X012278Y029938D02*
X012893Y029938D01*
X012879Y029932D02*
X012737Y029790D01*
X012660Y029605D01*
X012660Y028811D01*
X012737Y028625D01*
X012879Y028483D01*
X013065Y028407D01*
X013265Y028407D01*
X013451Y028483D01*
X013592Y028625D01*
X013669Y028811D01*
X013669Y029605D01*
X013592Y029790D01*
X013451Y029932D01*
X013265Y030009D01*
X013065Y030009D01*
X012879Y029932D01*
X012786Y029839D02*
X012462Y029839D01*
X012546Y029741D02*
X012717Y029741D01*
X012676Y029642D02*
X012590Y029642D01*
X012611Y029544D02*
X012660Y029544D01*
X012660Y029445D02*
X012612Y029445D01*
X012612Y029347D02*
X012660Y029347D01*
X012660Y029248D02*
X012213Y029248D01*
X012116Y029248D02*
X011669Y029248D01*
X011669Y029150D02*
X011718Y029150D01*
X011718Y029051D02*
X011669Y029051D01*
X011669Y028953D02*
X011718Y028953D01*
X011721Y028854D02*
X011669Y028854D01*
X011646Y028756D02*
X011745Y028756D01*
X011797Y028657D02*
X011606Y028657D01*
X011526Y028559D02*
X011889Y028559D01*
X012116Y028559D02*
X012213Y028559D01*
X012213Y028657D02*
X012116Y028657D01*
X012116Y028756D02*
X012213Y028756D01*
X012213Y028854D02*
X012116Y028854D01*
X012116Y028953D02*
X012213Y028953D01*
X012213Y029051D02*
X012116Y029051D01*
X012116Y029150D02*
X012213Y029150D01*
X012213Y029347D02*
X012116Y029347D01*
X012116Y029445D02*
X012213Y029445D01*
X012213Y029544D02*
X012116Y029544D01*
X012116Y029642D02*
X012213Y029642D01*
X012213Y029741D02*
X012116Y029741D01*
X012116Y029839D02*
X012213Y029839D01*
X011868Y029839D02*
X011543Y029839D01*
X011613Y029741D02*
X011784Y029741D01*
X011740Y029642D02*
X011654Y029642D01*
X011669Y029544D02*
X011719Y029544D01*
X011718Y029445D02*
X011669Y029445D01*
X011669Y029347D02*
X011718Y029347D01*
X011395Y028460D02*
X012935Y028460D01*
X012804Y028559D02*
X012440Y028559D01*
X012533Y028657D02*
X012724Y028657D01*
X012683Y028756D02*
X012584Y028756D01*
X012608Y028854D02*
X012660Y028854D01*
X012660Y028953D02*
X012612Y028953D01*
X012612Y029051D02*
X012660Y029051D01*
X012660Y029150D02*
X012612Y029150D01*
X013395Y028460D02*
X013548Y028460D01*
X013536Y028455D02*
X013433Y028352D01*
X013377Y028218D01*
X013377Y028072D01*
X013433Y027937D01*
X013536Y027834D01*
X013671Y027778D01*
X013816Y027778D01*
X013951Y027834D01*
X014054Y027937D01*
X014110Y028072D01*
X014110Y028106D01*
X014486Y028483D01*
X014671Y028407D01*
X014871Y028407D01*
X015057Y028483D01*
X015199Y028625D01*
X015275Y028811D01*
X015275Y029605D01*
X015199Y029790D01*
X015057Y029932D01*
X014871Y030009D01*
X014671Y030009D01*
X014485Y029932D01*
X014344Y029790D01*
X014267Y029605D01*
X014267Y029073D01*
X013705Y028511D01*
X013671Y028511D01*
X013536Y028455D01*
X013526Y028559D02*
X013753Y028559D01*
X013851Y028657D02*
X013606Y028657D01*
X013646Y028756D02*
X013950Y028756D01*
X014048Y028854D02*
X013669Y028854D01*
X013669Y028953D02*
X014147Y028953D01*
X014245Y029051D02*
X013669Y029051D01*
X013669Y029150D02*
X014267Y029150D01*
X014267Y029248D02*
X013669Y029248D01*
X013669Y029347D02*
X014267Y029347D01*
X014267Y029445D02*
X013669Y029445D01*
X013669Y029544D02*
X014267Y029544D01*
X014282Y029642D02*
X013654Y029642D01*
X013613Y029741D02*
X014323Y029741D01*
X014393Y029839D02*
X013543Y029839D01*
X013437Y029938D02*
X014499Y029938D01*
X015043Y029938D02*
X015658Y029938D01*
X015666Y029940D02*
X015600Y029919D01*
X015537Y029887D01*
X015480Y029845D01*
X015430Y029796D01*
X015389Y029739D01*
X015357Y029676D01*
X015335Y029609D01*
X015324Y029540D01*
X015324Y029256D01*
X015723Y029256D01*
X015723Y029949D01*
X015666Y029940D01*
X015723Y029938D02*
X015820Y029938D01*
X015820Y029949D02*
X015820Y029256D01*
X016218Y029256D01*
X016218Y029540D01*
X016207Y029609D01*
X016185Y029676D01*
X016153Y029739D01*
X016112Y029796D01*
X016062Y029845D01*
X016005Y029887D01*
X015943Y029919D01*
X015876Y029940D01*
X015820Y029949D01*
X015884Y029938D02*
X016499Y029938D01*
X016485Y029932D02*
X016344Y029790D01*
X016267Y029605D01*
X016267Y028811D01*
X016344Y028625D01*
X016485Y028483D01*
X016671Y028407D01*
X016871Y028407D01*
X017057Y028483D01*
X017199Y028625D01*
X017275Y028811D01*
X017275Y029605D01*
X017199Y029790D01*
X017057Y029932D01*
X016871Y030009D01*
X016671Y030009D01*
X016485Y029932D01*
X016393Y029839D02*
X016068Y029839D01*
X016152Y029741D02*
X016323Y029741D01*
X016282Y029642D02*
X016196Y029642D01*
X016217Y029544D02*
X016267Y029544D01*
X016267Y029445D02*
X016218Y029445D01*
X016218Y029347D02*
X016267Y029347D01*
X016267Y029248D02*
X015820Y029248D01*
X015820Y029256D02*
X015820Y029159D01*
X016218Y029159D01*
X016218Y028876D01*
X016207Y028806D01*
X016185Y028739D01*
X016153Y028677D01*
X016112Y028620D01*
X016062Y028570D01*
X016005Y028529D01*
X015943Y028497D01*
X015876Y028475D01*
X015820Y028466D01*
X015820Y029159D01*
X015723Y029159D01*
X015723Y028466D01*
X015666Y028475D01*
X015600Y028497D01*
X015537Y028529D01*
X015480Y028570D01*
X015430Y028620D01*
X015389Y028677D01*
X015357Y028739D01*
X015335Y028806D01*
X015324Y028876D01*
X015324Y029159D01*
X015723Y029159D01*
X015723Y029256D01*
X015820Y029256D01*
X015820Y029347D02*
X015723Y029347D01*
X015723Y029445D02*
X015820Y029445D01*
X015820Y029544D02*
X015723Y029544D01*
X015723Y029642D02*
X015820Y029642D01*
X015820Y029741D02*
X015723Y029741D01*
X015723Y029839D02*
X015820Y029839D01*
X015474Y029839D02*
X015150Y029839D01*
X015219Y029741D02*
X015390Y029741D01*
X015346Y029642D02*
X015260Y029642D01*
X015275Y029544D02*
X015325Y029544D01*
X015324Y029445D02*
X015275Y029445D01*
X015275Y029347D02*
X015324Y029347D01*
X015275Y029248D02*
X015723Y029248D01*
X015723Y029150D02*
X015820Y029150D01*
X015820Y029051D02*
X015723Y029051D01*
X015723Y028953D02*
X015820Y028953D01*
X015820Y028854D02*
X015723Y028854D01*
X015723Y028756D02*
X015820Y028756D01*
X015820Y028657D02*
X015723Y028657D01*
X015723Y028559D02*
X015820Y028559D01*
X016047Y028559D02*
X016410Y028559D01*
X016330Y028657D02*
X016139Y028657D01*
X016191Y028756D02*
X016290Y028756D01*
X016267Y028854D02*
X016215Y028854D01*
X016218Y028953D02*
X016267Y028953D01*
X016267Y029051D02*
X016218Y029051D01*
X016218Y029150D02*
X016267Y029150D01*
X016541Y028460D02*
X015001Y028460D01*
X015132Y028559D02*
X015496Y028559D01*
X015403Y028657D02*
X015212Y028657D01*
X015253Y028756D02*
X015352Y028756D01*
X015328Y028854D02*
X015275Y028854D01*
X015275Y028953D02*
X015324Y028953D01*
X015324Y029051D02*
X015275Y029051D01*
X015275Y029150D02*
X015324Y029150D01*
X014541Y028460D02*
X014464Y028460D01*
X014365Y028362D02*
X020072Y028362D01*
X020072Y028460D02*
X017001Y028460D01*
X017132Y028559D02*
X020072Y028559D01*
X020072Y028657D02*
X017212Y028657D01*
X017253Y028756D02*
X018864Y028756D01*
X018939Y028725D02*
X019257Y028725D01*
X019550Y028846D01*
X019774Y029071D01*
X019896Y029364D01*
X019896Y029681D01*
X019774Y029975D01*
X019550Y030199D01*
X019257Y030321D01*
X018939Y030321D01*
X018646Y030199D01*
X018421Y029975D01*
X018300Y029681D01*
X018300Y029364D01*
X018421Y029071D01*
X018646Y028846D01*
X018939Y028725D01*
X018638Y028854D02*
X017275Y028854D01*
X017275Y028953D02*
X018539Y028953D01*
X018441Y029051D02*
X017275Y029051D01*
X017275Y029150D02*
X018389Y029150D01*
X018348Y029248D02*
X017275Y029248D01*
X017275Y029347D02*
X018307Y029347D01*
X018300Y029445D02*
X017275Y029445D01*
X017275Y029544D02*
X018300Y029544D01*
X018300Y029642D02*
X017260Y029642D01*
X017219Y029741D02*
X018324Y029741D01*
X018365Y029839D02*
X017150Y029839D01*
X017043Y029938D02*
X018406Y029938D01*
X018483Y030036D02*
X002430Y030036D01*
X002506Y029938D02*
X003680Y029938D01*
X003574Y029839D02*
X002547Y029839D01*
X002588Y029741D02*
X003504Y029741D01*
X003463Y029642D02*
X002612Y029642D01*
X002612Y029544D02*
X003448Y029544D01*
X003448Y029445D02*
X002612Y029445D01*
X002605Y029347D02*
X003448Y029347D01*
X003448Y029248D02*
X002565Y029248D01*
X002524Y029150D02*
X003448Y029150D01*
X003379Y029051D02*
X002472Y029051D01*
X002373Y028953D02*
X003281Y028953D01*
X003182Y028854D02*
X002275Y028854D01*
X002048Y028756D02*
X003084Y028756D01*
X002331Y030135D02*
X018581Y030135D01*
X018728Y030233D02*
X002184Y030233D01*
X001589Y025308D02*
X006530Y025308D01*
X006628Y025210D02*
X001589Y025210D01*
X001589Y025111D02*
X006727Y025111D01*
X006825Y025013D02*
X001589Y025013D01*
X001589Y024914D02*
X006838Y024914D01*
X006838Y024816D02*
X001589Y024816D01*
X001589Y024717D02*
X006870Y024717D01*
X006915Y024619D02*
X001589Y024619D01*
X001589Y024520D02*
X007014Y024520D01*
X007136Y024323D02*
X002741Y024323D01*
X002839Y024225D02*
X006981Y024225D01*
X007039Y024283D02*
X006908Y024152D01*
X006838Y023981D01*
X006838Y023796D01*
X006908Y023625D01*
X007039Y023495D01*
X007210Y023424D01*
X007395Y023424D01*
X007566Y023495D01*
X007697Y023625D01*
X007768Y023796D01*
X007768Y023981D01*
X007697Y024152D01*
X007566Y024283D01*
X007395Y024354D01*
X007210Y024354D01*
X007039Y024283D01*
X006898Y024126D02*
X002891Y024126D01*
X002932Y024028D02*
X006857Y024028D01*
X006838Y023929D02*
X002935Y023929D01*
X002935Y023831D02*
X006838Y023831D01*
X006864Y023732D02*
X002898Y023732D01*
X002857Y023634D02*
X006905Y023634D01*
X006999Y023535D02*
X002758Y023535D01*
X002726Y023338D02*
X007172Y023338D01*
X007210Y023354D02*
X007039Y023283D01*
X006908Y023152D01*
X006838Y022981D01*
X006838Y022796D01*
X006908Y022625D01*
X007039Y022495D01*
X007210Y022424D01*
X007395Y022424D01*
X007566Y022495D01*
X007697Y022625D01*
X007768Y022796D01*
X007768Y022981D01*
X007697Y023152D01*
X007566Y023283D01*
X007395Y023354D01*
X007210Y023354D01*
X007179Y023437D02*
X002580Y023437D01*
X002824Y023240D02*
X006996Y023240D01*
X006904Y023141D02*
X002885Y023141D01*
X002925Y023043D02*
X006863Y023043D01*
X006838Y022944D02*
X002935Y022944D01*
X002935Y022846D02*
X006838Y022846D01*
X006858Y022747D02*
X002904Y022747D01*
X002864Y022649D02*
X006899Y022649D01*
X006984Y022550D02*
X002773Y022550D01*
X002617Y022452D02*
X007143Y022452D01*
X007209Y022353D02*
X005958Y022353D01*
X005959Y022353D02*
X005824Y022409D01*
X005679Y022409D01*
X005544Y022353D01*
X005441Y022250D01*
X005385Y022115D01*
X005385Y021969D01*
X005441Y021835D01*
X005544Y021732D01*
X005679Y021676D01*
X005824Y021676D01*
X005959Y021732D01*
X006062Y021835D01*
X006118Y021969D01*
X006118Y022115D01*
X006062Y022250D01*
X005959Y022353D01*
X006057Y022255D02*
X007011Y022255D01*
X007039Y022283D02*
X006908Y022152D01*
X006838Y021981D01*
X006838Y021796D01*
X006908Y021625D01*
X007039Y021495D01*
X007210Y021424D01*
X007395Y021424D01*
X007566Y021495D01*
X007697Y021625D01*
X007768Y021796D01*
X007768Y021981D01*
X007697Y022152D01*
X007566Y022283D01*
X007395Y022354D01*
X007210Y022354D01*
X007039Y022283D01*
X006912Y022156D02*
X006101Y022156D01*
X006118Y022058D02*
X006869Y022058D01*
X006838Y021959D02*
X006113Y021959D01*
X006073Y021861D02*
X006838Y021861D01*
X006852Y021762D02*
X005989Y021762D01*
X005545Y022353D02*
X001589Y022353D01*
X001589Y022255D02*
X005446Y022255D01*
X005402Y022156D02*
X001589Y022156D01*
X001589Y022058D02*
X005385Y022058D01*
X005390Y021959D02*
X001589Y021959D01*
X001589Y021861D02*
X005430Y021861D01*
X005514Y021762D02*
X001589Y021762D01*
X001589Y021664D02*
X006893Y021664D01*
X006969Y021565D02*
X001589Y021565D01*
X001589Y021467D02*
X007107Y021467D01*
X007026Y021270D02*
X001589Y021270D01*
X001589Y021368D02*
X008339Y021368D01*
X008339Y021270D02*
X007579Y021270D01*
X007678Y021171D02*
X008339Y021171D01*
X008339Y021073D02*
X007730Y021073D01*
X007768Y020974D02*
X008339Y020974D01*
X008339Y020876D02*
X007768Y020876D01*
X007855Y020777D02*
X008339Y020777D01*
X008339Y020679D02*
X007992Y020679D01*
X008091Y020580D02*
X008339Y020580D01*
X008339Y020482D02*
X008189Y020482D01*
X008288Y020383D02*
X008292Y020383D01*
X007872Y019989D02*
X007764Y019989D01*
X007768Y019891D02*
X007971Y019891D01*
X008069Y019792D02*
X007766Y019792D01*
X007725Y019694D02*
X008168Y019694D01*
X008115Y019595D02*
X007667Y019595D01*
X007568Y019497D02*
X007963Y019497D01*
X007774Y020088D02*
X007724Y020088D01*
X006886Y020679D02*
X001589Y020679D01*
X001589Y020777D02*
X006846Y020777D01*
X006838Y020876D02*
X001589Y020876D01*
X001589Y020974D02*
X006838Y020974D01*
X006876Y021073D02*
X001589Y021073D01*
X001589Y021171D02*
X006927Y021171D01*
X007498Y021467D02*
X008339Y021467D01*
X008339Y021565D02*
X007637Y021565D01*
X007713Y021664D02*
X008339Y021664D01*
X008339Y021762D02*
X007753Y021762D01*
X007768Y021861D02*
X008339Y021861D01*
X008339Y021959D02*
X007768Y021959D01*
X007736Y022058D02*
X008339Y022058D01*
X008339Y022156D02*
X007693Y022156D01*
X007594Y022255D02*
X008339Y022255D01*
X008339Y022353D02*
X007397Y022353D01*
X007462Y022452D02*
X008339Y022452D01*
X008339Y022550D02*
X007622Y022550D01*
X007706Y022649D02*
X008339Y022649D01*
X008339Y022747D02*
X007747Y022747D01*
X007768Y022846D02*
X008304Y022846D01*
X008263Y022944D02*
X007768Y022944D01*
X007742Y023043D02*
X008259Y023043D01*
X008277Y023141D02*
X007701Y023141D01*
X007609Y023240D02*
X008321Y023240D01*
X008421Y023338D02*
X007433Y023338D01*
X007426Y023437D02*
X008480Y023437D01*
X008381Y023535D02*
X007607Y023535D01*
X007700Y023634D02*
X008283Y023634D01*
X008184Y023732D02*
X007741Y023732D01*
X007768Y023831D02*
X008086Y023831D01*
X007987Y023929D02*
X007768Y023929D01*
X007748Y024028D02*
X007889Y024028D01*
X007790Y024126D02*
X007708Y024126D01*
X007692Y024225D02*
X007624Y024225D01*
X007593Y024323D02*
X007469Y024323D01*
X007495Y024422D02*
X002538Y024422D01*
X001729Y024422D02*
X001589Y024422D01*
X001589Y022452D02*
X001650Y022452D01*
X006274Y026490D02*
X007797Y026490D01*
X007731Y026589D02*
X006274Y026589D01*
X006274Y026687D02*
X007597Y026687D01*
X007538Y026786D02*
X006274Y026786D01*
X006274Y026884D02*
X007511Y026884D01*
X007511Y026983D02*
X006274Y026983D01*
X006274Y027081D02*
X007546Y027081D01*
X007615Y027180D02*
X006274Y027180D01*
X006274Y027278D02*
X007775Y027278D01*
X007980Y027278D02*
X020072Y027278D01*
X020072Y027180D02*
X016473Y027180D01*
X016590Y027081D02*
X020072Y027081D01*
X020072Y026983D02*
X016688Y026983D01*
X016787Y026884D02*
X020072Y026884D01*
X020072Y026786D02*
X016885Y026786D01*
X016984Y026687D02*
X020072Y026687D01*
X020072Y026589D02*
X017082Y026589D01*
X017181Y026490D02*
X020072Y026490D01*
X020072Y026392D02*
X017279Y026392D01*
X017351Y026293D02*
X020072Y026293D01*
X020072Y026195D02*
X017376Y026195D01*
X017376Y026096D02*
X020072Y026096D01*
X020072Y025998D02*
X017376Y025998D01*
X017376Y025899D02*
X020072Y025899D01*
X020072Y025801D02*
X017376Y025801D01*
X017376Y025702D02*
X020072Y025702D01*
X020072Y025604D02*
X017376Y025604D01*
X017376Y025505D02*
X020072Y025505D01*
X020072Y025407D02*
X017376Y025407D01*
X017376Y025308D02*
X020072Y025308D01*
X020072Y025210D02*
X017376Y025210D01*
X017376Y025111D02*
X020072Y025111D01*
X020072Y025013D02*
X017376Y025013D01*
X017376Y024914D02*
X020072Y024914D01*
X020072Y024816D02*
X017376Y024816D01*
X017376Y024717D02*
X020072Y024717D01*
X020072Y024619D02*
X017376Y024619D01*
X017376Y024520D02*
X020072Y024520D01*
X020072Y024422D02*
X017376Y024422D01*
X017376Y024323D02*
X020072Y024323D01*
X020072Y024225D02*
X017376Y024225D01*
X017376Y024126D02*
X020072Y024126D01*
X020072Y024028D02*
X019447Y024028D01*
X019445Y024030D02*
X019502Y023988D01*
X019552Y023938D01*
X019594Y023881D01*
X019626Y023817D01*
X019648Y023750D01*
X019657Y023695D01*
X018959Y023695D01*
X018859Y023695D01*
X018859Y024095D01*
X018574Y024095D01*
X018504Y024084D01*
X018436Y024062D01*
X018373Y024030D01*
X018316Y023988D01*
X018266Y023938D01*
X018224Y023881D01*
X018192Y023817D01*
X018170Y023750D01*
X018161Y023695D01*
X018859Y023695D01*
X018859Y023595D01*
X018161Y023595D01*
X018170Y023539D01*
X018192Y023472D01*
X018224Y023409D01*
X018266Y023352D01*
X018316Y023301D01*
X018373Y023260D01*
X018436Y023228D01*
X018504Y023206D01*
X018574Y023195D01*
X018859Y023195D01*
X018859Y023595D01*
X018959Y023595D01*
X018959Y023695D01*
X018959Y024095D01*
X019244Y024095D01*
X019314Y024084D01*
X019382Y024062D01*
X019445Y024030D01*
X019558Y023929D02*
X020072Y023929D01*
X020072Y023831D02*
X019619Y023831D01*
X019651Y023732D02*
X020072Y023732D01*
X020072Y023634D02*
X018959Y023634D01*
X018959Y023595D02*
X019657Y023595D01*
X019648Y023539D01*
X019626Y023472D01*
X019594Y023409D01*
X019552Y023352D01*
X019502Y023301D01*
X019445Y023260D01*
X019382Y023228D01*
X019314Y023206D01*
X019244Y023195D01*
X018959Y023195D01*
X018959Y023595D01*
X018959Y023535D02*
X018859Y023535D01*
X018859Y023437D02*
X018959Y023437D01*
X018959Y023338D02*
X018859Y023338D01*
X018859Y023240D02*
X018959Y023240D01*
X018859Y023634D02*
X017376Y023634D01*
X017376Y023732D02*
X018167Y023732D01*
X018199Y023831D02*
X017376Y023831D01*
X017376Y023929D02*
X018259Y023929D01*
X018370Y024028D02*
X017376Y024028D01*
X017376Y023535D02*
X018171Y023535D01*
X018210Y023437D02*
X017376Y023437D01*
X017376Y023338D02*
X018279Y023338D01*
X018413Y023240D02*
X017376Y023240D01*
X017376Y023141D02*
X018481Y023141D01*
X018289Y023043D02*
X017376Y023043D01*
X017376Y022944D02*
X018191Y022944D01*
X018143Y022846D02*
X017376Y022846D01*
X017376Y022747D02*
X018102Y022747D01*
X018101Y022649D02*
X017376Y022649D01*
X017376Y022550D02*
X018101Y022550D01*
X018140Y022452D02*
X017376Y022452D01*
X017376Y022353D02*
X018183Y022353D01*
X018281Y022255D02*
X017376Y022255D01*
X017376Y022156D02*
X018462Y022156D01*
X018304Y022058D02*
X017376Y022058D01*
X017376Y021959D02*
X018206Y021959D01*
X017724Y021861D02*
X017376Y021861D01*
X017376Y021762D02*
X017626Y021762D01*
X017527Y021664D02*
X017376Y021664D01*
X017423Y021565D02*
X017429Y021565D01*
X016804Y021664D02*
X016713Y021664D01*
X016697Y021625D02*
X016768Y021796D01*
X016768Y021981D01*
X016697Y022152D01*
X016566Y022283D01*
X016395Y022354D01*
X016210Y022354D01*
X016039Y022283D01*
X015908Y022152D01*
X015838Y021981D01*
X015838Y021796D01*
X015908Y021625D01*
X016039Y021495D01*
X016210Y021424D01*
X016395Y021424D01*
X016566Y021495D01*
X016697Y021625D01*
X016637Y021565D02*
X016757Y021565D01*
X016724Y021467D02*
X016498Y021467D01*
X016579Y021270D02*
X016753Y021270D01*
X016724Y021368D02*
X013156Y021368D01*
X013254Y021270D02*
X016026Y021270D01*
X015927Y021171D02*
X013351Y021171D01*
X013448Y021073D02*
X015876Y021073D01*
X015838Y020974D02*
X013546Y020974D01*
X013643Y020876D02*
X015838Y020876D01*
X015846Y020777D02*
X013741Y020777D01*
X013839Y020679D02*
X015886Y020679D01*
X015954Y020580D02*
X013937Y020580D01*
X014036Y020482D02*
X016071Y020482D01*
X016043Y020285D02*
X014233Y020285D01*
X014134Y020383D02*
X016291Y020383D01*
X015942Y020186D02*
X014331Y020186D01*
X014430Y020088D02*
X015882Y020088D01*
X015841Y019989D02*
X014488Y019989D01*
X014502Y019891D02*
X015838Y019891D01*
X015839Y019792D02*
X014502Y019792D01*
X014502Y019694D02*
X015880Y019694D01*
X015939Y019595D02*
X014502Y019595D01*
X014502Y019497D02*
X016037Y019497D01*
X015826Y018499D02*
X015200Y018499D01*
X014562Y018413D02*
X016764Y018413D01*
X016116Y018315D02*
X014582Y018315D01*
X014582Y018216D02*
X015972Y018216D01*
X015894Y018118D02*
X014541Y018118D01*
X014463Y018019D02*
X015853Y018019D01*
X015838Y017921D02*
X014530Y017921D01*
X014628Y017822D02*
X015838Y017822D01*
X015868Y017724D02*
X014727Y017724D01*
X014825Y017625D02*
X015909Y017625D01*
X016007Y017527D02*
X014924Y017527D01*
X015022Y017428D02*
X016200Y017428D01*
X016152Y017330D02*
X015121Y017330D01*
X015219Y017231D02*
X015987Y017231D01*
X015900Y017133D02*
X015318Y017133D01*
X015416Y017034D02*
X015860Y017034D01*
X015838Y016936D02*
X015515Y016936D01*
X015613Y016837D02*
X015838Y016837D01*
X015862Y016739D02*
X015712Y016739D01*
X015810Y016640D02*
X015902Y016640D01*
X015909Y016542D02*
X015992Y016542D01*
X016007Y016443D02*
X016164Y016443D01*
X016188Y016345D02*
X016106Y016345D01*
X018085Y017921D02*
X018163Y017921D01*
X018161Y017907D02*
X018859Y017907D01*
X018859Y018307D01*
X018574Y018307D01*
X018504Y018296D01*
X018436Y018274D01*
X018373Y018242D01*
X018316Y018201D01*
X018266Y018150D01*
X018224Y018093D01*
X018192Y018030D01*
X018170Y017963D01*
X018161Y017907D01*
X018188Y018019D02*
X018085Y018019D01*
X018085Y018118D02*
X018242Y018118D01*
X018337Y018216D02*
X018085Y018216D01*
X018085Y018315D02*
X020072Y018315D01*
X020072Y018413D02*
X018085Y018413D01*
X018085Y018512D02*
X020072Y018512D01*
X020072Y018610D02*
X018085Y018610D01*
X018085Y018709D02*
X020072Y018709D01*
X020072Y018807D02*
X018085Y018807D01*
X018085Y018906D02*
X020072Y018906D01*
X020072Y019004D02*
X018085Y019004D01*
X018085Y019103D02*
X020072Y019103D01*
X020072Y019201D02*
X018085Y019201D01*
X018085Y019300D02*
X020072Y019300D01*
X020072Y019398D02*
X018085Y019398D01*
X018138Y019497D02*
X020072Y019497D01*
X020072Y019595D02*
X018237Y019595D01*
X018335Y019694D02*
X020072Y019694D01*
X020072Y019792D02*
X018434Y019792D01*
X018532Y019891D02*
X020072Y019891D01*
X020072Y019989D02*
X018631Y019989D01*
X018729Y020088D02*
X020072Y020088D01*
X020072Y020186D02*
X019428Y020186D01*
X019567Y020285D02*
X020072Y020285D01*
X020072Y020383D02*
X019650Y020383D01*
X019691Y020482D02*
X020072Y020482D01*
X020072Y020580D02*
X019716Y020580D01*
X019716Y020679D02*
X020072Y020679D01*
X020072Y020777D02*
X019703Y020777D01*
X019663Y020876D02*
X020072Y020876D01*
X020072Y020974D02*
X019597Y020974D01*
X019499Y021073D02*
X020072Y021073D01*
X020072Y021171D02*
X019392Y021171D01*
X019552Y021270D02*
X020072Y021270D01*
X020072Y021368D02*
X019644Y021368D01*
X019684Y021467D02*
X020072Y021467D01*
X020072Y021565D02*
X019716Y021565D01*
X019716Y021664D02*
X020072Y021664D01*
X020072Y021762D02*
X019710Y021762D01*
X019669Y021861D02*
X020072Y021861D01*
X020072Y021959D02*
X019612Y021959D01*
X019514Y022058D02*
X020072Y022058D01*
X020072Y022156D02*
X019356Y022156D01*
X019537Y022255D02*
X020072Y022255D01*
X020072Y022353D02*
X019635Y022353D01*
X019678Y022452D02*
X020072Y022452D01*
X020072Y022550D02*
X019716Y022550D01*
X019716Y022649D02*
X020072Y022649D01*
X020072Y022747D02*
X019716Y022747D01*
X019675Y022846D02*
X020072Y022846D01*
X020072Y022944D02*
X019627Y022944D01*
X019529Y023043D02*
X020072Y023043D01*
X020072Y023141D02*
X019336Y023141D01*
X019405Y023240D02*
X020072Y023240D01*
X020072Y023338D02*
X019539Y023338D01*
X019608Y023437D02*
X020072Y023437D01*
X020072Y023535D02*
X019646Y023535D01*
X018959Y023732D02*
X018859Y023732D01*
X018859Y023831D02*
X018959Y023831D01*
X018959Y023929D02*
X018859Y023929D01*
X018859Y024028D02*
X018959Y024028D01*
X016804Y024028D02*
X016748Y024028D01*
X016768Y023981D02*
X016697Y024152D01*
X016566Y024283D01*
X016395Y024354D01*
X016210Y024354D01*
X016039Y024283D01*
X015908Y024152D01*
X015838Y023981D01*
X015838Y023796D01*
X015908Y023625D01*
X016039Y023495D01*
X016210Y023424D01*
X016395Y023424D01*
X016566Y023495D01*
X016697Y023625D01*
X016768Y023796D01*
X016768Y023981D01*
X016768Y023929D02*
X016804Y023929D01*
X016804Y023831D02*
X016768Y023831D01*
X016741Y023732D02*
X016804Y023732D01*
X016804Y023634D02*
X016700Y023634D01*
X016607Y023535D02*
X016804Y023535D01*
X016804Y023437D02*
X016426Y023437D01*
X016395Y023354D02*
X016210Y023354D01*
X016039Y023283D01*
X015908Y023152D01*
X015838Y022981D01*
X015838Y022796D01*
X015908Y022625D01*
X016039Y022495D01*
X016210Y022424D01*
X016395Y022424D01*
X016566Y022495D01*
X016697Y022625D01*
X016768Y022796D01*
X016768Y022981D01*
X016697Y023152D01*
X016566Y023283D01*
X016395Y023354D01*
X016433Y023338D02*
X016804Y023338D01*
X016804Y023240D02*
X016609Y023240D01*
X016701Y023141D02*
X016804Y023141D01*
X016804Y023043D02*
X016742Y023043D01*
X016768Y022944D02*
X016804Y022944D01*
X016804Y022846D02*
X016768Y022846D01*
X016747Y022747D02*
X016804Y022747D01*
X016804Y022649D02*
X016706Y022649D01*
X016622Y022550D02*
X016804Y022550D01*
X016804Y022452D02*
X016462Y022452D01*
X016397Y022353D02*
X016804Y022353D01*
X016804Y022255D02*
X016594Y022255D01*
X016693Y022156D02*
X016804Y022156D01*
X016804Y022058D02*
X016736Y022058D01*
X016768Y021959D02*
X016804Y021959D01*
X016804Y021861D02*
X016768Y021861D01*
X016753Y021762D02*
X016804Y021762D01*
X016813Y021171D02*
X016678Y021171D01*
X016730Y021073D02*
X016936Y021073D01*
X016838Y020974D02*
X016768Y020974D01*
X016107Y021467D02*
X013059Y021467D01*
X012961Y021565D02*
X015969Y021565D01*
X015893Y021664D02*
X012864Y021664D01*
X012766Y021762D02*
X015852Y021762D01*
X015838Y021861D02*
X012669Y021861D01*
X012571Y021959D02*
X015838Y021959D01*
X015869Y022058D02*
X012474Y022058D01*
X012376Y022156D02*
X015912Y022156D01*
X016011Y022255D02*
X012279Y022255D01*
X012181Y022353D02*
X016209Y022353D01*
X016143Y022452D02*
X012084Y022452D01*
X011986Y022550D02*
X015984Y022550D01*
X015899Y022649D02*
X011889Y022649D01*
X011791Y022747D02*
X015858Y022747D01*
X015838Y022846D02*
X011694Y022846D01*
X011597Y022944D02*
X015838Y022944D01*
X015863Y023043D02*
X011499Y023043D01*
X011402Y023141D02*
X015904Y023141D01*
X015996Y023240D02*
X011304Y023240D01*
X011207Y023338D02*
X016172Y023338D01*
X016179Y023437D02*
X011109Y023437D01*
X011012Y023535D02*
X015999Y023535D01*
X015905Y023634D02*
X010914Y023634D01*
X010817Y023732D02*
X015864Y023732D01*
X015838Y023831D02*
X010719Y023831D01*
X010622Y023929D02*
X015838Y023929D01*
X015857Y024028D02*
X010524Y024028D01*
X010427Y024126D02*
X015898Y024126D01*
X015981Y024225D02*
X010329Y024225D01*
X010232Y024323D02*
X016136Y024323D01*
X016210Y024424D02*
X016039Y024495D01*
X015908Y024625D01*
X015838Y024796D01*
X015838Y024981D01*
X015908Y025152D01*
X016039Y025283D01*
X016210Y025354D01*
X016395Y025354D01*
X016566Y025283D01*
X016697Y025152D01*
X016768Y024981D01*
X016768Y024796D01*
X016697Y024625D01*
X016566Y024495D01*
X016395Y024424D01*
X016210Y024424D01*
X016014Y024520D02*
X010037Y024520D01*
X010134Y024422D02*
X016804Y024422D01*
X016804Y024520D02*
X016592Y024520D01*
X016690Y024619D02*
X016804Y024619D01*
X016804Y024717D02*
X016735Y024717D01*
X016768Y024816D02*
X016804Y024816D01*
X016804Y024914D02*
X016768Y024914D01*
X016755Y025013D02*
X016804Y025013D01*
X016804Y025111D02*
X016714Y025111D01*
X016639Y025210D02*
X016804Y025210D01*
X016804Y025308D02*
X016505Y025308D01*
X016395Y025424D02*
X016210Y025424D01*
X016039Y025495D01*
X015908Y025625D01*
X015838Y025796D01*
X015838Y025981D01*
X015908Y026152D01*
X016039Y026283D01*
X016210Y026354D01*
X016395Y026354D01*
X016566Y026283D01*
X016697Y026152D01*
X016768Y025981D01*
X016768Y025796D01*
X016697Y025625D01*
X016566Y025495D01*
X016395Y025424D01*
X016577Y025505D02*
X016804Y025505D01*
X016804Y025407D02*
X009160Y025407D01*
X009062Y025505D02*
X016029Y025505D01*
X015930Y025604D02*
X008965Y025604D01*
X008867Y025702D02*
X015877Y025702D01*
X015838Y025801D02*
X008770Y025801D01*
X008672Y025899D02*
X015838Y025899D01*
X015844Y025998D02*
X008575Y025998D01*
X008477Y026096D02*
X015885Y026096D01*
X015951Y026195D02*
X008380Y026195D01*
X008343Y026293D02*
X016064Y026293D01*
X016273Y026589D02*
X008024Y026589D01*
X008195Y026490D02*
X016371Y026490D01*
X016470Y026392D02*
X008298Y026392D01*
X007629Y026195D02*
X007573Y026195D01*
X006274Y027377D02*
X020072Y027377D01*
X020072Y027475D02*
X006274Y027475D01*
X006274Y027574D02*
X020072Y027574D01*
X020072Y027672D02*
X010600Y027672D01*
X010681Y027771D02*
X020072Y027771D01*
X020072Y027869D02*
X013986Y027869D01*
X014067Y027968D02*
X020072Y027968D01*
X020072Y028066D02*
X014107Y028066D01*
X014168Y028165D02*
X020072Y028165D01*
X020072Y028263D02*
X014267Y028263D01*
X013443Y028362D02*
X011176Y028362D01*
X011078Y028263D02*
X013396Y028263D01*
X013377Y028165D02*
X010979Y028165D01*
X010881Y028066D02*
X013380Y028066D01*
X013421Y027968D02*
X010782Y027968D01*
X010722Y027869D02*
X013501Y027869D01*
X015891Y025111D02*
X009452Y025111D01*
X009550Y025013D02*
X015851Y025013D01*
X015838Y024914D02*
X009647Y024914D01*
X009745Y024816D02*
X015838Y024816D01*
X015870Y024717D02*
X009842Y024717D01*
X009939Y024619D02*
X015915Y024619D01*
X015966Y025210D02*
X009355Y025210D01*
X009257Y025308D02*
X016100Y025308D01*
X016675Y025604D02*
X016804Y025604D01*
X016804Y025702D02*
X016729Y025702D01*
X016768Y025801D02*
X016804Y025801D01*
X016804Y025899D02*
X016768Y025899D01*
X016761Y025998D02*
X016804Y025998D01*
X016765Y026096D02*
X016720Y026096D01*
X016667Y026195D02*
X016654Y026195D01*
X016568Y026293D02*
X016541Y026293D01*
X016469Y024323D02*
X016804Y024323D01*
X016804Y024225D02*
X016624Y024225D01*
X016708Y024126D02*
X016804Y024126D01*
X013930Y019694D02*
X010172Y019694D01*
X010172Y019792D02*
X013916Y019792D01*
X013817Y019891D02*
X010172Y019891D01*
X010172Y019989D02*
X013719Y019989D01*
X013620Y020088D02*
X010172Y020088D01*
X010172Y020186D02*
X013522Y020186D01*
X013423Y020285D02*
X010172Y020285D01*
X010172Y020383D02*
X013325Y020383D01*
X013351Y020357D02*
X013351Y020357D01*
X013228Y020482D02*
X010172Y020482D01*
X010172Y020580D02*
X013131Y020580D01*
X013930Y019595D02*
X010172Y019595D01*
X010172Y019497D02*
X013930Y019497D01*
X013930Y019398D02*
X010172Y019398D01*
X009156Y014769D02*
X009102Y014769D01*
X009015Y014670D02*
X009315Y014670D01*
X010858Y007381D02*
X016528Y007381D01*
X019002Y010041D02*
X020072Y010041D01*
X020072Y010139D02*
X019455Y010139D01*
X019416Y010238D02*
X020072Y010238D01*
X020072Y010336D02*
X019353Y010336D01*
X019243Y010435D02*
X020072Y010435D01*
X020072Y010533D02*
X019299Y010533D01*
X019398Y010632D02*
X020072Y010632D01*
X020072Y010730D02*
X019464Y010730D01*
X019505Y010829D02*
X020072Y010829D01*
X020072Y010927D02*
X019530Y010927D01*
X019530Y011026D02*
X020072Y011026D01*
X020072Y011124D02*
X019527Y011124D01*
X019486Y011223D02*
X020072Y011223D01*
X020072Y011321D02*
X019446Y011321D01*
X019352Y011420D02*
X020072Y011420D01*
X020072Y011518D02*
X019284Y011518D01*
X019383Y011617D02*
X020072Y011617D01*
X020072Y011715D02*
X019458Y011715D01*
X019499Y011814D02*
X020072Y011814D01*
X020072Y011912D02*
X019530Y011912D01*
X019530Y012011D02*
X020072Y012011D01*
X020072Y012109D02*
X019530Y012109D01*
X019493Y012208D02*
X020072Y012208D01*
X020072Y012306D02*
X019452Y012306D01*
X019367Y012405D02*
X020072Y012405D01*
X020072Y012503D02*
X019254Y012503D01*
X019469Y009942D02*
X020072Y009942D01*
X020072Y009844D02*
X019447Y009844D01*
X019404Y009745D02*
X020072Y009745D01*
X020072Y009647D02*
X019331Y009647D01*
X020072Y002259D02*
X000841Y002259D01*
X004993Y004229D02*
X005085Y004229D01*
X006835Y004919D02*
X007571Y004919D01*
X007472Y004820D02*
X006997Y004820D01*
X007096Y004722D02*
X007259Y004722D01*
X018859Y017428D02*
X018959Y017428D01*
X018959Y017527D02*
X018859Y017527D01*
X018859Y017625D02*
X018959Y017625D01*
X018959Y017921D02*
X018859Y017921D01*
X018859Y018019D02*
X018959Y018019D01*
X018959Y018118D02*
X018859Y018118D01*
X018859Y018216D02*
X018959Y018216D01*
X019481Y018216D02*
X020072Y018216D01*
X020072Y018118D02*
X019576Y018118D01*
X019629Y018019D02*
X020072Y018019D01*
X020072Y017921D02*
X019654Y017921D01*
X019332Y028756D02*
X020072Y028756D01*
X020072Y028854D02*
X019558Y028854D01*
X019656Y028953D02*
X020072Y028953D01*
X020072Y029051D02*
X019755Y029051D01*
X019807Y029150D02*
X020072Y029150D01*
X020072Y029248D02*
X019848Y029248D01*
X019889Y029347D02*
X020072Y029347D01*
X020072Y029445D02*
X019896Y029445D01*
X019896Y029544D02*
X020072Y029544D01*
X020072Y029642D02*
X019896Y029642D01*
X019871Y029741D02*
X020072Y029741D01*
X020072Y029839D02*
X019831Y029839D01*
X019790Y029938D02*
X020072Y029938D01*
X020072Y030036D02*
X019713Y030036D01*
X019614Y030135D02*
X020072Y030135D01*
X020072Y030233D02*
X019468Y030233D01*
X010116Y027672D02*
X006274Y027672D01*
X006274Y027771D02*
X010035Y027771D01*
X009994Y027869D02*
X006274Y027869D01*
X007937Y029839D02*
X008261Y029839D01*
X008178Y029741D02*
X008007Y029741D01*
X008047Y029642D02*
X008133Y029642D01*
X008112Y029544D02*
X008063Y029544D01*
X008063Y029445D02*
X008112Y029445D01*
X008112Y029347D02*
X008063Y029347D01*
X008063Y029248D02*
X008510Y029248D01*
X008607Y029248D02*
X009054Y029248D01*
X009054Y029150D02*
X009005Y029150D01*
X009005Y029051D02*
X009048Y029051D01*
X009054Y029347D02*
X009005Y029347D01*
X009005Y029445D02*
X009054Y029445D01*
X009054Y029544D02*
X009005Y029544D01*
X008984Y029642D02*
X009070Y029642D01*
X009110Y029741D02*
X008939Y029741D01*
X008856Y029839D02*
X009180Y029839D01*
X009286Y029938D02*
X008672Y029938D01*
X008607Y029938D02*
X008510Y029938D01*
X008446Y029938D02*
X007831Y029938D01*
X008063Y029150D02*
X008112Y029150D01*
X008112Y029051D02*
X008063Y029051D01*
X008063Y028953D02*
X008112Y028953D01*
X008115Y028854D02*
X008063Y028854D01*
X008040Y028756D02*
X008139Y028756D01*
X008190Y028657D02*
X007999Y028657D01*
X008510Y029347D02*
X008607Y029347D01*
X008607Y029445D02*
X008510Y029445D01*
X008510Y029544D02*
X008607Y029544D01*
X008607Y029642D02*
X008510Y029642D01*
X008510Y029741D02*
X008607Y029741D01*
X008607Y029839D02*
X008510Y029839D01*
X009267Y028460D02*
X009329Y028460D01*
D20*
X008744Y028342D02*
X009531Y029129D01*
X009531Y029208D01*
X009559Y029208D01*
X008744Y028342D02*
X005988Y028342D01*
X005988Y029208D01*
X005952Y029208D01*
X005988Y028342D02*
X005988Y026255D01*
X007287Y024956D01*
X007303Y024889D01*
X007366Y024838D01*
X007484Y024838D01*
X009885Y022436D01*
X009885Y019090D01*
X009925Y019050D01*
X012011Y019050D01*
X012444Y018617D01*
X014216Y019897D02*
X013594Y020519D01*
X007996Y026176D01*
X007877Y026924D02*
X016342Y026924D01*
X017090Y026176D01*
X017090Y021412D01*
X017917Y021649D02*
X016657Y020389D01*
X017051Y020153D02*
X017129Y020231D01*
X017051Y020153D02*
X017051Y013538D01*
X016421Y012908D01*
X016303Y012908D01*
X016303Y012889D01*
X015476Y011255D02*
X013704Y013027D01*
X013114Y014523D02*
X015122Y014523D01*
X015555Y014956D01*
X015712Y015389D02*
X016185Y014916D01*
X016303Y014916D01*
X016303Y014889D01*
X015712Y015389D02*
X011224Y015389D01*
X008232Y018381D01*
X008232Y019247D01*
X008625Y020231D02*
X008625Y023027D01*
X007759Y020507D02*
X007641Y020507D01*
X007523Y020389D01*
X004728Y020389D01*
X003665Y019326D01*
X003704Y019286D01*
X003704Y014444D01*
X002759Y013499D01*
X002681Y013499D01*
X002633Y013458D01*
X002602Y013420D01*
X002444Y013420D01*
X002011Y012987D01*
X001657Y012987D01*
X001633Y012958D01*
X001633Y011958D02*
X001657Y011924D01*
X001657Y004798D01*
X003822Y002633D01*
X013547Y002633D01*
X014098Y003184D01*
X014129Y003184D01*
X014885Y003184D02*
X014098Y003971D01*
X014098Y004405D01*
X016303Y006609D01*
X016303Y006889D01*
X016814Y009090D02*
X016814Y004365D01*
X016657Y004208D01*
X016629Y004184D01*
X015129Y003184D02*
X014885Y003184D01*
X011342Y005586D02*
X010673Y006255D01*
X010436Y006255D01*
X010555Y003499D02*
X010559Y003464D01*
X008507Y006255D02*
X007759Y006255D01*
X007641Y006373D01*
X007303Y006889D02*
X007287Y006924D01*
X007169Y006924D01*
X006066Y008027D01*
X006066Y008538D01*
X005791Y008814D01*
X005791Y014011D01*
X006224Y015034D02*
X006224Y008893D01*
X007208Y007908D01*
X007287Y007908D01*
X007303Y007889D01*
X007303Y010889D02*
X007326Y010901D01*
X009492Y010901D01*
X013114Y014523D01*
X013744Y014956D02*
X009373Y014956D01*
X007444Y016885D01*
X007326Y016885D01*
X007303Y016889D01*
X007326Y016964D01*
X007326Y017869D01*
X007303Y017889D01*
X006224Y017082D02*
X004531Y018775D01*
X003665Y019326D02*
X003074Y018735D01*
X002090Y018735D01*
X002066Y018747D01*
X001303Y017515D02*
X001303Y026570D01*
X003940Y029208D01*
X003952Y029208D01*
X007759Y020507D02*
X009728Y018538D01*
X010161Y018538D01*
X009177Y018027D02*
X014019Y018027D01*
X016145Y015901D01*
X016303Y015901D01*
X016303Y015889D01*
X017799Y015507D02*
X017799Y019562D01*
X018901Y020664D01*
X018909Y020645D01*
X018909Y021645D02*
X018901Y021649D01*
X017917Y021649D01*
X014216Y019897D02*
X014216Y018290D01*
X017799Y015507D02*
X018429Y014877D01*
X018901Y014877D01*
X018909Y014857D01*
X017051Y010389D02*
X017917Y009523D01*
X016814Y009090D02*
X016303Y009601D01*
X016303Y009889D01*
X012011Y009995D02*
X012011Y008932D01*
X007507Y004452D01*
X006263Y004562D02*
X006240Y004515D01*
X006263Y003499D02*
X006271Y003464D01*
X005271Y003464D02*
X005240Y003499D01*
X005240Y003578D01*
X003744Y005074D01*
X003074Y005074D01*
X003059Y005082D01*
X003059Y004334D02*
X003074Y004326D01*
X003429Y004326D01*
X004255Y003499D01*
X004271Y003464D01*
X003980Y011412D02*
X005318Y012751D01*
X003035Y012475D02*
X006027Y015468D01*
X007011Y015468D01*
X007090Y015389D01*
X008350Y015389D01*
X008783Y014956D01*
X008586Y013617D02*
X009177Y013027D01*
X003035Y012475D02*
X002641Y012475D01*
X002633Y012458D01*
X001972Y017082D02*
X001736Y017082D01*
X001303Y017515D01*
X010358Y027948D02*
X011145Y028735D01*
X011145Y029208D01*
X011165Y029208D01*
X013744Y028145D02*
X014807Y029208D01*
X014771Y029208D01*
D21*
X017377Y017235D02*
X017366Y014546D01*
X018401Y013550D01*
X019338Y013550D01*
X019933Y014200D01*
X019933Y014834D01*
X018909Y015857D01*
D22*
X009885Y004562D02*
X010555Y003893D01*
X010555Y003499D01*
X009885Y004562D02*
X008232Y004562D01*
X007641Y003971D01*
X007326Y003971D01*
X006736Y004562D01*
X006263Y004562D01*
X006263Y003499D01*
X006240Y004515D02*
X004704Y006050D01*
X004700Y006912D01*
D23*
X001814Y003145D03*
X001814Y029523D03*
X019098Y029523D03*
X019098Y003145D03*
M02*
