G75*
%MOIN*%
%OFA0B0*%
%FSLAX24Y24*%
%IPPOS*%
%LPD*%
%AMOC8*
5,1,8,0,0,1.08239X$1,22.5*
%
%ADD10C,0.0560*%
%ADD11C,0.0594*%
%ADD12C,0.1185*%
%ADD13R,0.0740X0.0740*%
%ADD14C,0.0740*%
%ADD15C,0.0240*%
%ADD16C,0.0197*%
%ADD17C,0.0357*%
%ADD18C,0.1266*%
D10*
X010248Y007241D03*
X010248Y008241D03*
X011248Y007741D03*
X011248Y008741D03*
D11*
X006769Y015201D02*
X006769Y015795D01*
X005769Y015795D02*
X005769Y015201D01*
D12*
X006241Y013047D02*
X006241Y011862D01*
X007821Y011862D02*
X007821Y013047D01*
X007861Y008913D02*
X007861Y007728D01*
X006281Y007728D02*
X006281Y008913D01*
X004701Y008913D02*
X004701Y007728D01*
X004661Y011862D02*
X004661Y013047D01*
D13*
X001781Y009820D03*
D14*
X001781Y008820D03*
X001781Y007820D03*
D15*
X001900Y005900D02*
X001875Y005840D01*
X010472Y005840D01*
X010472Y005909D01*
X010463Y005905D01*
X003798Y005905D01*
X003645Y005968D01*
X003145Y006468D01*
X003145Y006468D01*
X003029Y006585D01*
X002965Y006737D01*
X002965Y008317D01*
X002467Y007820D01*
X002467Y007683D01*
X002363Y007431D01*
X002170Y007238D01*
X001917Y007133D01*
X001644Y007133D01*
X001392Y007238D01*
X001198Y007431D01*
X001094Y007683D01*
X001094Y007957D01*
X001198Y008209D01*
X001309Y008320D01*
X001198Y008431D01*
X001094Y008683D01*
X001094Y008957D01*
X001198Y009209D01*
X001201Y009212D01*
X001142Y009271D01*
X001094Y009387D01*
X001094Y010253D01*
X001142Y010369D01*
X001231Y010459D01*
X001348Y010507D01*
X001465Y010507D01*
X001465Y013903D01*
X001529Y014055D01*
X001645Y014172D01*
X001798Y014235D01*
X002095Y014235D01*
X002100Y014240D01*
X002282Y014315D01*
X002479Y014315D01*
X002661Y014240D01*
X002801Y014101D01*
X002876Y013919D01*
X002876Y013721D01*
X002801Y013539D01*
X002661Y013400D01*
X002479Y013325D01*
X002296Y013325D01*
X002296Y010473D01*
X002330Y010459D01*
X002419Y010369D01*
X002465Y010258D01*
X002465Y010903D01*
X002529Y011055D01*
X002645Y011172D01*
X002798Y011235D01*
X003595Y011235D01*
X003600Y011240D01*
X003782Y011315D01*
X003979Y011315D01*
X004116Y011259D01*
X004049Y011325D01*
X003984Y011410D01*
X003931Y011502D01*
X003890Y011600D01*
X003863Y011703D01*
X003849Y011809D01*
X003849Y012377D01*
X004584Y012377D01*
X004739Y012377D01*
X004739Y011053D01*
X004820Y011064D01*
X004923Y011091D01*
X005021Y011132D01*
X005114Y011185D01*
X005198Y011250D01*
X005273Y011325D01*
X005338Y011410D01*
X005392Y011502D01*
X005399Y011520D01*
X005470Y011347D01*
X005726Y011091D01*
X006060Y010953D01*
X006422Y010953D01*
X006756Y011091D01*
X007012Y011347D01*
X007031Y011393D01*
X007050Y011347D01*
X007185Y011212D01*
X006709Y010735D01*
X004376Y010735D01*
X004376Y010919D01*
X004301Y011101D01*
X004226Y011176D01*
X004301Y011132D01*
X004400Y011091D01*
X004502Y011064D01*
X004584Y011053D01*
X004584Y012377D01*
X004584Y012532D01*
X004584Y013856D01*
X004502Y013846D01*
X004400Y013818D01*
X004301Y013777D01*
X004209Y013724D01*
X004124Y013659D01*
X004049Y013584D01*
X003984Y013500D01*
X003931Y013407D01*
X003890Y013309D01*
X003863Y013206D01*
X003849Y013100D01*
X003849Y012532D01*
X004584Y012532D01*
X004739Y012532D01*
X004739Y013856D01*
X004820Y013846D01*
X004923Y013818D01*
X005021Y013777D01*
X005114Y013724D01*
X005198Y013659D01*
X005273Y013584D01*
X005338Y013500D01*
X005392Y013407D01*
X005399Y013390D01*
X005470Y013562D01*
X005726Y013818D01*
X006060Y013956D01*
X006422Y013956D01*
X006428Y013954D01*
X007645Y015172D01*
X007798Y015235D01*
X009595Y015235D01*
X009600Y015240D01*
X009782Y015315D01*
X009798Y015315D01*
X008206Y016908D01*
X006348Y016940D01*
X006616Y016672D01*
X006733Y016555D01*
X006793Y016409D01*
X006891Y016409D01*
X007116Y016315D01*
X007289Y016142D01*
X007383Y015917D01*
X007383Y015079D01*
X007289Y014853D01*
X007116Y014681D01*
X006891Y014587D01*
X006647Y014587D01*
X006421Y014681D01*
X006269Y014833D01*
X006116Y014681D01*
X005891Y014587D01*
X005735Y014587D01*
X005733Y014585D01*
X005616Y014468D01*
X005463Y014405D01*
X002298Y014405D01*
X002145Y014468D01*
X002029Y014585D01*
X001965Y014737D01*
X001965Y017179D01*
X001957Y017220D01*
X001965Y017261D01*
X001965Y017303D01*
X001981Y017341D01*
X001990Y017382D01*
X002013Y017417D01*
X002029Y017455D01*
X002058Y017485D01*
X002082Y017520D01*
X002116Y017543D01*
X002145Y017572D01*
X002184Y017588D01*
X002419Y017745D01*
X002452Y017776D01*
X002487Y017790D01*
X002519Y017811D01*
X002563Y017820D01*
X002605Y017837D01*
X002644Y017836D01*
X002681Y017843D01*
X002725Y017835D01*
X008384Y017735D01*
X008463Y017735D01*
X008467Y017734D01*
X008471Y017734D01*
X008543Y017702D01*
X008616Y017672D01*
X008619Y017669D01*
X008622Y017668D01*
X008677Y017611D01*
X010616Y015672D01*
X010733Y015555D01*
X010796Y015403D01*
X010796Y010237D01*
X010745Y010115D01*
X010853Y010070D01*
X011082Y009841D01*
X011207Y009541D01*
X011207Y009241D01*
X011208Y009241D01*
X011248Y009241D01*
X011248Y008741D01*
X011248Y008741D01*
X011248Y009241D01*
X011287Y009241D01*
X011365Y009229D01*
X011439Y009205D01*
X011510Y009169D01*
X011572Y009124D01*
X011572Y016812D01*
X011233Y016812D01*
X010884Y016956D01*
X010617Y017224D01*
X010472Y017573D01*
X010472Y017911D01*
X001900Y017911D01*
X001900Y017573D01*
X001755Y017224D01*
X001488Y016956D01*
X001139Y016812D01*
X000801Y016812D01*
X000801Y007039D01*
X001139Y007039D01*
X001488Y006895D01*
X001755Y006627D01*
X001900Y006278D01*
X001900Y005900D01*
X001889Y005875D02*
X010472Y005875D01*
X011248Y008975D02*
X011248Y008975D01*
X011248Y009214D02*
X011248Y009214D01*
X011412Y009214D02*
X011572Y009214D01*
X011572Y009452D02*
X011207Y009452D01*
X011145Y009691D02*
X011572Y009691D01*
X011572Y009929D02*
X010994Y009929D01*
X010767Y010168D02*
X011572Y010168D01*
X011572Y010406D02*
X010796Y010406D01*
X010796Y010645D02*
X011572Y010645D01*
X011572Y010883D02*
X010796Y010883D01*
X010796Y011122D02*
X011572Y011122D01*
X011572Y011360D02*
X010796Y011360D01*
X010796Y011599D02*
X011572Y011599D01*
X011572Y011837D02*
X010796Y011837D01*
X010796Y012076D02*
X011572Y012076D01*
X011572Y012314D02*
X010796Y012314D01*
X010796Y012553D02*
X011572Y012553D01*
X011572Y012791D02*
X010796Y012791D01*
X010796Y013030D02*
X011572Y013030D01*
X011572Y013268D02*
X010796Y013268D01*
X010796Y013507D02*
X011572Y013507D01*
X011572Y013745D02*
X010796Y013745D01*
X010796Y013984D02*
X011572Y013984D01*
X011572Y014222D02*
X010796Y014222D01*
X010796Y014461D02*
X011572Y014461D01*
X011572Y014699D02*
X010796Y014699D01*
X010796Y014938D02*
X011572Y014938D01*
X011572Y015176D02*
X010796Y015176D01*
X010791Y015415D02*
X011572Y015415D01*
X011572Y015653D02*
X010635Y015653D01*
X010396Y015892D02*
X011572Y015892D01*
X011572Y016130D02*
X010158Y016130D01*
X009919Y016369D02*
X011572Y016369D01*
X011572Y016607D02*
X009681Y016607D01*
X009442Y016846D02*
X011152Y016846D01*
X010757Y017084D02*
X009204Y017084D01*
X008965Y017323D02*
X010576Y017323D01*
X010477Y017561D02*
X008727Y017561D01*
X008268Y016846D02*
X006442Y016846D01*
X006681Y016607D02*
X008506Y016607D01*
X008745Y016369D02*
X006987Y016369D01*
X007294Y016130D02*
X008983Y016130D01*
X009222Y015892D02*
X007383Y015892D01*
X007383Y015653D02*
X009460Y015653D01*
X009699Y015415D02*
X007383Y015415D01*
X007383Y015176D02*
X007655Y015176D01*
X007411Y014938D02*
X007324Y014938D01*
X007172Y014699D02*
X007135Y014699D01*
X006934Y014461D02*
X005598Y014461D01*
X006135Y014699D02*
X006403Y014699D01*
X006695Y014222D02*
X002679Y014222D01*
X002849Y013984D02*
X006457Y013984D01*
X005653Y013745D02*
X005078Y013745D01*
X004739Y013745D02*
X004584Y013745D01*
X004584Y013507D02*
X004739Y013507D01*
X004739Y013268D02*
X004584Y013268D01*
X004584Y013030D02*
X004739Y013030D01*
X004739Y012791D02*
X004584Y012791D01*
X004584Y012553D02*
X004739Y012553D01*
X004739Y012314D02*
X004584Y012314D01*
X004584Y012076D02*
X004739Y012076D01*
X004739Y011837D02*
X004584Y011837D01*
X004584Y011599D02*
X004739Y011599D01*
X004739Y011360D02*
X004584Y011360D01*
X004584Y011122D02*
X004739Y011122D01*
X004996Y011122D02*
X005696Y011122D01*
X005465Y011360D02*
X005300Y011360D01*
X004326Y011122D02*
X004280Y011122D01*
X004376Y010883D02*
X006856Y010883D01*
X006787Y011122D02*
X007095Y011122D01*
X007045Y011360D02*
X007018Y011360D01*
X005447Y013507D02*
X005333Y013507D01*
X004245Y013745D02*
X002876Y013745D01*
X002768Y013507D02*
X003990Y013507D01*
X003879Y013268D02*
X002296Y013268D01*
X002296Y013030D02*
X003849Y013030D01*
X003849Y012791D02*
X002296Y012791D01*
X002296Y012553D02*
X003849Y012553D01*
X003849Y012314D02*
X002296Y012314D01*
X002296Y012076D02*
X003849Y012076D01*
X003849Y011837D02*
X002296Y011837D01*
X002296Y011599D02*
X003891Y011599D01*
X004022Y011360D02*
X002296Y011360D01*
X002296Y011122D02*
X002595Y011122D01*
X002465Y010883D02*
X002296Y010883D01*
X002296Y010645D02*
X002465Y010645D01*
X002465Y010406D02*
X002383Y010406D01*
X001465Y010645D02*
X000801Y010645D01*
X000801Y010883D02*
X001465Y010883D01*
X001465Y011122D02*
X000801Y011122D01*
X000801Y011360D02*
X001465Y011360D01*
X001465Y011599D02*
X000801Y011599D01*
X000801Y011837D02*
X001465Y011837D01*
X001465Y012076D02*
X000801Y012076D01*
X000801Y012314D02*
X001465Y012314D01*
X001465Y012553D02*
X000801Y012553D01*
X000801Y012791D02*
X001465Y012791D01*
X001465Y013030D02*
X000801Y013030D01*
X000801Y013268D02*
X001465Y013268D01*
X001465Y013507D02*
X000801Y013507D01*
X000801Y013745D02*
X001465Y013745D01*
X001499Y013984D02*
X000801Y013984D01*
X000801Y014222D02*
X001766Y014222D01*
X001981Y014699D02*
X000801Y014699D01*
X000801Y014461D02*
X002163Y014461D01*
X001965Y014938D02*
X000801Y014938D01*
X000801Y015176D02*
X001965Y015176D01*
X001965Y015415D02*
X000801Y015415D01*
X000801Y015653D02*
X001965Y015653D01*
X001965Y015892D02*
X000801Y015892D01*
X000801Y016130D02*
X001965Y016130D01*
X001965Y016369D02*
X000801Y016369D01*
X000801Y016607D02*
X001965Y016607D01*
X001965Y016846D02*
X001220Y016846D01*
X001616Y017084D02*
X001965Y017084D01*
X001974Y017323D02*
X001796Y017323D01*
X001895Y017561D02*
X002134Y017561D01*
X001900Y017800D02*
X002501Y017800D01*
X004722Y017800D02*
X010472Y017800D01*
X002965Y008260D02*
X002907Y008260D01*
X002965Y008021D02*
X002669Y008021D01*
X002467Y007783D02*
X002965Y007783D01*
X002965Y007544D02*
X002410Y007544D01*
X002237Y007306D02*
X002965Y007306D01*
X002965Y007067D02*
X000801Y007067D01*
X000801Y007306D02*
X001324Y007306D01*
X001152Y007544D02*
X000801Y007544D01*
X000801Y007783D02*
X001094Y007783D01*
X001120Y008021D02*
X000801Y008021D01*
X000801Y008260D02*
X001249Y008260D01*
X001171Y008498D02*
X000801Y008498D01*
X000801Y008737D02*
X001094Y008737D01*
X001101Y008975D02*
X000801Y008975D01*
X000801Y009214D02*
X001199Y009214D01*
X001094Y009452D02*
X000801Y009452D01*
X000801Y009691D02*
X001094Y009691D01*
X001094Y009929D02*
X000801Y009929D01*
X000801Y010168D02*
X001094Y010168D01*
X001179Y010406D02*
X000801Y010406D01*
X001554Y006829D02*
X002965Y006829D01*
X003026Y006590D02*
X001771Y006590D01*
X001869Y006352D02*
X003262Y006352D01*
X003500Y006113D02*
X001900Y006113D01*
D16*
X001881Y007820D02*
X001781Y007820D01*
X001881Y007820D02*
X002881Y008820D01*
X002881Y010820D01*
X003881Y010820D01*
X003381Y010320D02*
X006881Y010320D01*
X007881Y011320D01*
X007881Y012320D01*
X007821Y012455D01*
X008881Y013320D02*
X008381Y013820D01*
X008381Y014820D01*
X009881Y014820D01*
X010381Y015320D02*
X010381Y010320D01*
X009881Y010320D01*
X009381Y009820D01*
X009381Y008820D01*
X009881Y008320D01*
X010381Y008320D01*
X010248Y008241D01*
X010381Y007320D02*
X009881Y007320D01*
X008881Y008320D01*
X008881Y013320D01*
X008381Y014820D02*
X007881Y014820D01*
X005881Y012820D01*
X006241Y012455D01*
X005381Y014820D02*
X002381Y014820D01*
X002381Y017220D01*
X002681Y017420D01*
X008381Y017320D01*
X010381Y015320D01*
X006881Y015320D02*
X006769Y015498D01*
X006881Y015320D02*
X006381Y015320D01*
X006381Y016320D01*
X005881Y016820D01*
X004381Y016820D01*
X002881Y015320D01*
X002381Y013820D02*
X001881Y013820D01*
X001881Y009820D01*
X001781Y009820D01*
X003381Y010320D02*
X003381Y006820D01*
X003881Y006320D01*
X010381Y006320D01*
X010881Y006820D01*
X010881Y007320D01*
X011381Y007820D01*
X011248Y007741D01*
X010381Y007320D02*
X010248Y007241D01*
X007881Y009820D02*
X008381Y010320D01*
X007881Y009820D02*
X005381Y009820D01*
X004881Y009320D01*
X004881Y008320D01*
X004701Y008320D01*
X005381Y014820D02*
X005881Y015320D01*
X005769Y015498D01*
D17*
X002881Y015320D03*
X002381Y013820D03*
X003881Y010820D03*
X008381Y010320D03*
X009881Y010320D03*
X009881Y014820D03*
D18*
X011422Y017762D03*
X011422Y005989D03*
X000950Y006089D03*
X000950Y017762D03*
M02*
