G75*
G70*
%OFA0B0*%
%FSLAX24Y24*%
%IPPOS*%
%LPD*%
%AMOC8*
5,1,8,0,0,1.08239X$1,22.5*
%
%ADD10C,0.0000*%
%ADD11C,0.0040*%
%ADD12C,0.0060*%
%ADD13C,0.0010*%
%ADD14C,0.0160*%
%ADD15C,0.0050*%
%ADD16C,0.0020*%
%ADD17R,0.0050X0.0200*%
%ADD18C,0.0080*%
D10*
X000789Y000548D02*
X000789Y000548D01*
X000789Y000548D01*
X000789Y000548D01*
X000789Y000548D01*
X000789Y000548D01*
X000789Y000548D01*
X000789Y000548D01*
X000789Y000548D01*
X000789Y000548D01*
X000789Y000548D01*
X000789Y000548D01*
X000789Y000548D01*
X000789Y000548D01*
X000789Y000548D01*
X000789Y000548D01*
X000789Y000548D01*
X000789Y000548D01*
X000789Y000548D01*
X000789Y000549D02*
X000789Y000549D01*
X000789Y000549D01*
X000789Y000549D01*
X000789Y000549D01*
X000789Y000549D01*
X000789Y000549D01*
X000789Y000549D01*
X000789Y000549D01*
X000789Y000549D01*
X000789Y000549D01*
X000789Y000549D01*
X000789Y000549D01*
X000789Y000549D01*
X000789Y000549D01*
X000789Y000549D01*
X000789Y000549D01*
X000789Y000549D01*
X000789Y000549D01*
X000789Y000549D01*
X000789Y000549D01*
X000789Y000550D01*
X000789Y000550D01*
X000789Y000550D01*
X000789Y000550D01*
X000789Y000550D01*
X000789Y000550D01*
X000789Y000550D01*
X000789Y000550D01*
X000789Y000550D01*
X000789Y000550D01*
X000789Y000550D01*
X000789Y000550D01*
X000789Y000550D01*
X000789Y000550D01*
X000789Y000550D01*
X000789Y000550D01*
X000789Y000550D01*
X000789Y000550D01*
X000789Y000550D01*
X000789Y000550D01*
X000789Y000550D01*
X000789Y000550D01*
X000789Y000550D01*
X000789Y000550D01*
X000789Y000550D01*
X000789Y000550D01*
X000789Y000550D01*
X000789Y000550D01*
X000789Y000551D01*
X000789Y000551D01*
X000789Y000551D01*
X000789Y000551D01*
X000789Y000550D02*
X000789Y000550D01*
X000789Y000549D01*
X000789Y000549D01*
X000789Y000550D01*
X000300Y002553D02*
X000300Y002553D01*
X000300Y002553D01*
X000300Y002553D01*
X000300Y002553D01*
X000300Y002553D01*
X000300Y002553D01*
X000300Y002553D01*
X000300Y002553D01*
X000300Y002553D01*
X000300Y002553D01*
X000300Y002554D01*
X000300Y002554D01*
X000300Y002554D01*
X000300Y002554D01*
X000300Y002554D01*
X000300Y002554D01*
X000300Y002554D01*
X000300Y002554D01*
X000300Y002554D01*
X000300Y002554D01*
X000300Y002554D01*
X000300Y002554D01*
X000300Y002554D01*
X000300Y002554D01*
X000300Y002554D01*
X000300Y002554D01*
X000300Y002554D01*
X000300Y002554D01*
X000300Y002554D01*
X000300Y002554D01*
X000300Y002554D01*
X000300Y002554D01*
X000300Y002555D01*
X000300Y002555D01*
X000300Y002555D01*
X000300Y002555D01*
X000300Y002555D01*
X000300Y002555D01*
X000300Y002555D01*
X000300Y002555D01*
X000300Y002555D01*
X000300Y002555D01*
X000300Y002555D01*
X000300Y002555D01*
X000300Y002555D01*
X000300Y002555D01*
X000300Y002555D01*
X000300Y002555D01*
X000300Y002555D01*
X000300Y002555D01*
X000300Y002555D01*
X000300Y002555D01*
X000300Y002555D01*
X000300Y002555D01*
X000300Y002555D01*
X000300Y002556D01*
X000300Y002556D01*
X000300Y002556D01*
X000300Y002556D01*
X000300Y002556D01*
X000300Y002556D01*
X000300Y002556D01*
X000300Y002555D01*
X000300Y002555D01*
X000300Y002555D01*
X000300Y002555D01*
X000300Y002555D01*
X000300Y002555D01*
X000300Y002555D01*
X000300Y002555D01*
X000300Y002554D01*
X000300Y002555D02*
X000300Y002555D01*
X000300Y002556D02*
X000300Y002556D01*
X000300Y002555D01*
X004881Y010574D02*
X004881Y010574D01*
X004881Y010574D01*
X004881Y010574D01*
X004881Y010574D01*
X004881Y010574D01*
X004881Y010574D01*
X004881Y010574D01*
X004881Y010574D01*
X004881Y010574D01*
X004881Y010574D01*
X004881Y010574D01*
X004881Y010574D01*
X004881Y010574D01*
X004881Y010574D01*
X004881Y010575D01*
X004881Y010575D01*
X004881Y010575D01*
X004881Y010575D01*
X004881Y010575D01*
X004881Y010575D01*
X004881Y010575D01*
X004881Y010575D01*
X004881Y010575D01*
X004881Y010575D01*
X004881Y010575D01*
X004881Y010575D01*
X004881Y010575D01*
X004881Y010575D01*
X004881Y010575D01*
X004881Y010575D01*
X004881Y010575D01*
X004881Y010575D01*
X004881Y010575D01*
X004881Y010576D01*
X004881Y010576D01*
X004881Y010576D01*
X004881Y010576D01*
X004881Y010576D01*
X004881Y010576D01*
X004881Y010576D01*
X004881Y010576D01*
X004881Y010576D01*
X004881Y010576D01*
X004881Y010576D01*
X004881Y010576D01*
X004881Y010576D01*
X004881Y010576D01*
X004881Y010576D01*
X004881Y010576D01*
X004881Y010576D01*
X004881Y010576D01*
X004881Y010576D01*
X004881Y010576D01*
X004881Y010576D01*
X004881Y010576D01*
X004881Y010576D01*
X004881Y010576D01*
X004881Y010576D01*
X004881Y010576D01*
X004881Y010576D01*
X004881Y010576D01*
X004881Y010576D01*
X004881Y010576D01*
X004881Y010576D01*
X004881Y010577D01*
X004881Y010577D01*
X004881Y010577D01*
X004881Y010577D01*
X004881Y010577D01*
X004881Y010576D01*
X004881Y010575D01*
X004881Y010574D01*
X004881Y010575D02*
X004881Y010576D01*
X004881Y010576D01*
X005237Y017748D02*
X005237Y017748D01*
X005237Y017748D01*
X005237Y017748D01*
X005237Y017748D01*
X005237Y017748D01*
X005237Y017748D01*
X005237Y017748D01*
X005237Y017748D01*
X005237Y017748D01*
X005237Y017748D01*
X005237Y017749D01*
X005237Y017749D01*
X005237Y017749D01*
X005237Y017749D01*
X005237Y017749D01*
X005237Y017749D01*
X005237Y017749D01*
X005237Y017749D01*
X005237Y017749D01*
X005237Y017749D01*
X005237Y017749D01*
X005237Y017749D01*
X005237Y017749D01*
X005237Y017749D01*
X005237Y017749D01*
X005237Y017749D01*
X005237Y017750D01*
X005237Y017750D01*
X005237Y017750D01*
X005237Y017750D01*
X005237Y017750D01*
X005237Y017750D01*
X005237Y017750D01*
X005237Y017750D01*
X005237Y017750D01*
X005237Y017750D01*
X005237Y017750D01*
X005237Y017750D01*
X005237Y017750D01*
X005237Y017750D01*
X005237Y017750D01*
X005237Y017750D01*
X005237Y017750D01*
X005237Y017750D01*
X005237Y017750D01*
X005237Y017750D01*
X005237Y017750D01*
X005237Y017750D01*
X005237Y017750D01*
X005237Y017750D01*
X005237Y017750D01*
X005237Y017750D01*
X005237Y017750D01*
X005237Y017750D01*
X005237Y017751D01*
X005237Y017751D01*
X005237Y017751D01*
X005237Y017751D01*
X005237Y017751D01*
X005237Y017751D01*
X005237Y017751D01*
X005237Y017751D01*
X005237Y017751D01*
X005237Y017751D01*
X005237Y017750D01*
X005237Y017750D01*
X005237Y017750D01*
X005237Y017750D01*
X005237Y017749D01*
X005237Y017749D01*
X005237Y017749D01*
X005237Y017750D02*
X005237Y017751D01*
X005237Y017751D01*
X005237Y017751D01*
D11*
X006394Y019589D02*
X006394Y019936D01*
X006567Y020110D01*
X006741Y019936D01*
X006741Y019589D01*
X006909Y019589D02*
X006909Y020110D01*
X007169Y020110D01*
X007256Y020023D01*
X007256Y019850D01*
X007169Y019763D01*
X006909Y019763D01*
X007083Y019763D02*
X007256Y019589D01*
X007425Y019589D02*
X007772Y019589D01*
X007941Y019676D02*
X008027Y019589D01*
X008201Y019589D01*
X008287Y019676D01*
X008287Y019763D01*
X008201Y019850D01*
X008027Y019850D01*
X007941Y019936D01*
X007941Y020023D01*
X008027Y020110D01*
X008201Y020110D01*
X008287Y020023D01*
X007772Y020110D02*
X007425Y020110D01*
X007425Y019589D01*
X007425Y019850D02*
X007598Y019850D01*
X006741Y019850D02*
X006394Y019850D01*
X008972Y020023D02*
X009059Y020110D01*
X009232Y020110D01*
X009319Y020023D01*
X009319Y019936D01*
X008972Y019589D01*
X009319Y019589D01*
X009487Y019676D02*
X009834Y020023D01*
X009834Y019676D01*
X009748Y019589D01*
X009574Y019589D01*
X009487Y019676D01*
X009487Y020023D01*
X009574Y020110D01*
X009748Y020110D01*
X009834Y020023D01*
X010003Y019936D02*
X010177Y020110D01*
X010177Y019589D01*
X010350Y019589D02*
X010003Y019589D01*
X010519Y019850D02*
X010866Y019850D01*
X010779Y020110D02*
X010779Y019589D01*
X010519Y019850D02*
X010779Y020110D01*
X011346Y019951D02*
X011346Y019874D01*
X011653Y019567D01*
X011653Y019720D02*
X011499Y019567D01*
X011423Y019567D01*
X011346Y019644D01*
X011346Y019720D01*
X011499Y019874D01*
X011499Y019951D01*
X011423Y020027D01*
X011346Y019951D01*
X012267Y020027D02*
X012267Y019567D01*
X012497Y019567D01*
X012574Y019644D01*
X012574Y019951D01*
X012497Y020027D01*
X012267Y020027D01*
X012727Y019874D02*
X012804Y019874D01*
X012804Y019567D01*
X012880Y019567D02*
X012727Y019567D01*
X013034Y019567D02*
X013264Y019567D01*
X013341Y019644D01*
X013341Y019797D01*
X013264Y019874D01*
X013034Y019874D01*
X013034Y019413D01*
X013494Y019644D02*
X013571Y019567D01*
X013724Y019567D01*
X013801Y019644D01*
X013801Y019797D01*
X013724Y019874D01*
X013571Y019874D01*
X013494Y019797D01*
X013494Y019644D01*
X013955Y019567D02*
X014108Y019567D01*
X014031Y019567D02*
X014031Y020027D01*
X013955Y020027D01*
X014262Y019797D02*
X014338Y019874D01*
X014492Y019874D01*
X014569Y019797D01*
X014569Y019720D01*
X014262Y019720D01*
X014262Y019644D02*
X014262Y019797D01*
X014262Y019644D02*
X014338Y019567D01*
X014492Y019567D01*
X012804Y020027D02*
X012804Y020104D01*
X016200Y014327D02*
X016661Y014327D01*
X016200Y014020D01*
X016661Y014020D01*
X016661Y013866D02*
X016354Y013866D01*
X016200Y013713D01*
X016354Y013560D01*
X016661Y013560D01*
X016584Y013406D02*
X016661Y013329D01*
X016661Y013176D01*
X016584Y013099D01*
X016277Y013099D01*
X016200Y013176D01*
X016200Y013329D01*
X016277Y013406D01*
X016430Y013560D02*
X016430Y013866D01*
X004950Y013999D02*
X004643Y013999D01*
X004490Y013846D01*
X004643Y013692D01*
X004950Y013692D01*
X004873Y013539D02*
X004950Y013462D01*
X004950Y013309D01*
X004873Y013232D01*
X004566Y013232D01*
X004490Y013309D01*
X004490Y013462D01*
X004566Y013539D01*
X004720Y013692D02*
X004720Y013999D01*
X004950Y014153D02*
X004490Y014153D01*
X004950Y014460D01*
X004490Y014460D01*
X004720Y013078D02*
X004720Y012772D01*
X004950Y012618D02*
X004950Y012311D01*
X004950Y012465D02*
X004490Y012465D01*
X004643Y012311D01*
X004566Y012158D02*
X004873Y011851D01*
X004950Y011927D01*
X004950Y012081D01*
X004873Y012158D01*
X004566Y012158D01*
X004490Y012081D01*
X004490Y011927D01*
X004566Y011851D01*
X004873Y011851D01*
X004950Y011697D02*
X004950Y011544D01*
X004950Y011621D02*
X004490Y011621D01*
X004490Y011544D01*
X004490Y011314D02*
X004720Y011083D01*
X004720Y011390D01*
X004950Y011314D02*
X004490Y011314D01*
X004566Y010930D02*
X004490Y010853D01*
X004490Y010700D01*
X004566Y010623D01*
X004490Y010470D02*
X004566Y010393D01*
X004950Y010393D01*
X004950Y010623D02*
X004643Y010930D01*
X004566Y010930D01*
X004950Y010930D02*
X004950Y010623D01*
X004720Y010470D02*
X004720Y010316D01*
X004643Y010163D02*
X004643Y010086D01*
X004797Y009932D01*
X004950Y009932D02*
X004643Y009932D01*
X004490Y009779D02*
X004950Y009779D01*
X004490Y009472D01*
X004950Y009472D01*
X004797Y008858D02*
X004797Y008551D01*
X004873Y008551D02*
X004720Y008551D01*
X004643Y008628D01*
X004643Y008781D01*
X004720Y008858D01*
X004797Y008858D01*
X004950Y008781D02*
X004950Y008628D01*
X004873Y008551D01*
X004950Y008398D02*
X004873Y008321D01*
X004566Y008321D01*
X004643Y008244D02*
X004643Y008398D01*
X004643Y008091D02*
X004643Y008014D01*
X004797Y007861D01*
X004950Y007861D02*
X004643Y007861D01*
X004720Y007707D02*
X004643Y007630D01*
X004643Y007477D01*
X004797Y007477D02*
X004797Y007707D01*
X004720Y007707D02*
X004950Y007707D01*
X004950Y007477D01*
X004873Y007400D01*
X004797Y007477D01*
X004873Y007247D02*
X004950Y007170D01*
X004950Y007017D01*
X004873Y006940D01*
X004566Y006940D01*
X004490Y007017D01*
X004490Y007170D01*
X004566Y007247D01*
D12*
X009110Y005865D02*
X009110Y010165D01*
X009112Y010188D01*
X009117Y010211D01*
X009126Y010233D01*
X009139Y010253D01*
X009154Y010271D01*
X009172Y010286D01*
X009192Y010299D01*
X009214Y010308D01*
X009237Y010313D01*
X009260Y010315D01*
X011900Y010315D01*
X011923Y010313D01*
X011946Y010308D01*
X011968Y010299D01*
X011988Y010286D01*
X012006Y010271D01*
X012021Y010253D01*
X012034Y010233D01*
X012043Y010211D01*
X012048Y010188D01*
X012050Y010165D01*
X012050Y005865D01*
X012048Y005842D01*
X012043Y005819D01*
X012034Y005797D01*
X012021Y005777D01*
X012006Y005759D01*
X011988Y005744D01*
X011968Y005731D01*
X011946Y005722D01*
X011923Y005717D01*
X011900Y005715D01*
X009260Y005715D01*
X009237Y005717D01*
X009214Y005722D01*
X009192Y005731D01*
X009172Y005744D01*
X009154Y005759D01*
X009139Y005777D01*
X009126Y005797D01*
X009117Y005819D01*
X009112Y005842D01*
X009110Y005865D01*
X010080Y005715D02*
X010082Y005759D01*
X010088Y005802D01*
X010097Y005844D01*
X010110Y005886D01*
X010127Y005926D01*
X010147Y005965D01*
X010170Y006002D01*
X010197Y006036D01*
X010226Y006069D01*
X010259Y006098D01*
X010293Y006125D01*
X010330Y006148D01*
X010369Y006168D01*
X010409Y006185D01*
X010451Y006198D01*
X010493Y006207D01*
X010536Y006213D01*
X010580Y006215D01*
X010624Y006213D01*
X010667Y006207D01*
X010709Y006198D01*
X010751Y006185D01*
X010791Y006168D01*
X010830Y006148D01*
X010867Y006125D01*
X010901Y006098D01*
X010934Y006069D01*
X010963Y006036D01*
X010990Y006002D01*
X011013Y005965D01*
X011033Y005926D01*
X011050Y005886D01*
X011063Y005844D01*
X011072Y005802D01*
X011078Y005759D01*
X011080Y005715D01*
X008480Y015635D02*
X007980Y015635D01*
X007730Y015885D01*
X007480Y015635D01*
X006980Y015635D01*
X006730Y015885D01*
X006480Y015635D01*
X005980Y015635D01*
X005730Y015885D01*
X005480Y015635D01*
X004980Y015635D01*
X004730Y015885D01*
X004730Y017385D01*
X004980Y017635D01*
X005480Y017635D01*
X005730Y017385D01*
X005980Y017635D01*
X006480Y017635D01*
X006730Y017385D01*
X006980Y017635D01*
X007480Y017635D01*
X007730Y017385D01*
X007980Y017635D01*
X008480Y017635D01*
X008730Y017385D01*
X008730Y015885D01*
X008480Y015635D01*
X009461Y017139D02*
X009698Y017139D01*
X009698Y017611D02*
X009461Y017611D01*
X013163Y017947D02*
X013163Y018183D01*
X013636Y018183D02*
X013636Y017947D01*
X014040Y018525D02*
X014040Y016125D01*
X013646Y016497D02*
X013646Y016733D01*
X013173Y016733D02*
X013173Y016497D01*
X014390Y017075D02*
X014690Y017075D01*
X014690Y016825D01*
X014690Y017075D02*
X014990Y017075D01*
X014990Y017225D02*
X014390Y017225D01*
X014390Y017425D01*
X014990Y017425D01*
X014990Y017225D01*
X014990Y017575D02*
X014690Y017575D01*
X014690Y017825D01*
X014690Y017575D02*
X014390Y017575D01*
X014040Y018525D02*
X014042Y018575D01*
X014048Y018624D01*
X014057Y018673D01*
X014070Y018721D01*
X014087Y018768D01*
X014107Y018813D01*
X014131Y018857D01*
X014158Y018899D01*
X014189Y018939D01*
X014222Y018976D01*
X014258Y019010D01*
X014296Y019042D01*
X014337Y019071D01*
X014379Y019096D01*
X014424Y019118D01*
X014470Y019137D01*
X014518Y019152D01*
X014566Y019163D01*
X014615Y019171D01*
X014665Y019175D01*
X014715Y019175D01*
X014765Y019171D01*
X014814Y019163D01*
X014862Y019152D01*
X014910Y019137D01*
X014956Y019118D01*
X015001Y019096D01*
X015043Y019071D01*
X015084Y019042D01*
X015122Y019010D01*
X015158Y018976D01*
X015191Y018939D01*
X015222Y018899D01*
X015249Y018857D01*
X015273Y018813D01*
X015293Y018768D01*
X015310Y018721D01*
X015323Y018673D01*
X015332Y018624D01*
X015338Y018575D01*
X015340Y018525D01*
X015340Y016125D01*
X015338Y016075D01*
X015332Y016026D01*
X015323Y015977D01*
X015310Y015929D01*
X015293Y015882D01*
X015273Y015837D01*
X015249Y015793D01*
X015222Y015751D01*
X015191Y015711D01*
X015158Y015674D01*
X015122Y015640D01*
X015084Y015608D01*
X015043Y015579D01*
X015001Y015554D01*
X014956Y015532D01*
X014910Y015513D01*
X014862Y015498D01*
X014814Y015487D01*
X014765Y015479D01*
X014715Y015475D01*
X014665Y015475D01*
X014615Y015479D01*
X014566Y015487D01*
X014518Y015498D01*
X014470Y015513D01*
X014424Y015532D01*
X014379Y015554D01*
X014337Y015579D01*
X014296Y015608D01*
X014258Y015640D01*
X014222Y015674D01*
X014189Y015711D01*
X014158Y015751D01*
X014131Y015793D01*
X014107Y015837D01*
X014087Y015882D01*
X014070Y015929D01*
X014057Y015977D01*
X014048Y016026D01*
X014042Y016075D01*
X014040Y016125D01*
D13*
X013864Y016625D02*
X013890Y016650D01*
X013890Y016700D01*
X013864Y016725D01*
X013890Y016773D02*
X013789Y016873D01*
X013764Y016873D01*
X013739Y016848D01*
X013739Y016798D01*
X013764Y016773D01*
X013764Y016725D02*
X013739Y016700D01*
X013739Y016650D01*
X013764Y016625D01*
X013864Y016625D01*
X013890Y016773D02*
X013890Y016873D01*
X013044Y017770D02*
X013070Y017795D01*
X013070Y017845D01*
X013044Y017870D01*
X013070Y017917D02*
X013070Y018017D01*
X013070Y017967D02*
X012919Y017967D01*
X012969Y017917D01*
X012944Y017870D02*
X012919Y017845D01*
X012919Y017795D01*
X012944Y017770D01*
X013044Y017770D01*
X010513Y017110D02*
X010513Y017010D01*
X010463Y016960D01*
X010413Y017010D01*
X010413Y017110D01*
X010366Y017085D02*
X010366Y017060D01*
X010341Y017035D01*
X010366Y017010D01*
X010366Y016985D01*
X010341Y016960D01*
X010291Y016960D01*
X010265Y016985D01*
X010217Y016985D02*
X010217Y016960D01*
X010192Y016960D01*
X010192Y016985D01*
X010217Y016985D01*
X010145Y016985D02*
X010120Y016960D01*
X010070Y016960D01*
X010045Y016985D01*
X010095Y017035D02*
X010120Y017035D01*
X010145Y017010D01*
X010145Y016985D01*
X010120Y017035D02*
X010145Y017060D01*
X010145Y017085D01*
X010120Y017110D01*
X010070Y017110D01*
X010045Y017085D01*
X009837Y017045D02*
X009737Y017045D01*
X009737Y016970D01*
X009787Y016995D01*
X009812Y016995D01*
X009837Y016970D01*
X009837Y016920D01*
X009812Y016895D01*
X009762Y016895D01*
X009737Y016920D01*
X009690Y016920D02*
X009665Y016895D01*
X009615Y016895D01*
X009590Y016920D01*
X009590Y017020D01*
X009615Y017045D01*
X009665Y017045D01*
X009690Y017020D01*
X010265Y017085D02*
X010291Y017110D01*
X010341Y017110D01*
X010366Y017085D01*
X010341Y017035D02*
X010316Y017035D01*
D14*
X013840Y016125D02*
X013840Y018525D01*
X013842Y018582D01*
X013848Y018638D01*
X013857Y018694D01*
X013870Y018750D01*
X013887Y018804D01*
X013907Y018857D01*
X013931Y018908D01*
X013959Y018958D01*
X013989Y019006D01*
X014023Y019052D01*
X014060Y019095D01*
X014099Y019136D01*
X014141Y019174D01*
X014186Y019209D01*
X014233Y019241D01*
X014282Y019270D01*
X014332Y019296D01*
X014385Y019318D01*
X014438Y019337D01*
X014493Y019352D01*
X014549Y019363D01*
X014605Y019371D01*
X014662Y019375D01*
X014718Y019375D01*
X014775Y019371D01*
X014831Y019363D01*
X014887Y019352D01*
X014942Y019337D01*
X014995Y019318D01*
X015048Y019296D01*
X015098Y019270D01*
X015147Y019241D01*
X015194Y019209D01*
X015239Y019174D01*
X015281Y019136D01*
X015320Y019095D01*
X015357Y019052D01*
X015391Y019006D01*
X015421Y018958D01*
X015449Y018908D01*
X015473Y018857D01*
X015493Y018804D01*
X015510Y018750D01*
X015523Y018694D01*
X015532Y018638D01*
X015538Y018582D01*
X015540Y018525D01*
X015540Y016125D01*
X015538Y016068D01*
X015532Y016012D01*
X015523Y015956D01*
X015510Y015900D01*
X015493Y015846D01*
X015473Y015793D01*
X015449Y015742D01*
X015421Y015692D01*
X015391Y015644D01*
X015357Y015598D01*
X015320Y015555D01*
X015281Y015514D01*
X015239Y015476D01*
X015194Y015441D01*
X015147Y015409D01*
X015098Y015380D01*
X015048Y015354D01*
X014995Y015332D01*
X014942Y015313D01*
X014887Y015298D01*
X014831Y015287D01*
X014775Y015279D01*
X014718Y015275D01*
X014662Y015275D01*
X014605Y015279D01*
X014549Y015287D01*
X014493Y015298D01*
X014438Y015313D01*
X014385Y015332D01*
X014332Y015354D01*
X014282Y015380D01*
X014233Y015409D01*
X014186Y015441D01*
X014141Y015476D01*
X014099Y015514D01*
X014060Y015555D01*
X014023Y015598D01*
X013989Y015644D01*
X013959Y015692D01*
X013931Y015742D01*
X013907Y015793D01*
X013887Y015846D01*
X013870Y015900D01*
X013857Y015956D01*
X013848Y016012D01*
X013842Y016068D01*
X013840Y016125D01*
D15*
X013615Y016111D02*
X013615Y015810D01*
X013615Y015961D02*
X013164Y015961D01*
X013314Y015810D01*
X013239Y015650D02*
X013164Y015575D01*
X013164Y015425D01*
X013239Y015350D01*
X013539Y015350D01*
X013615Y015425D01*
X013615Y015575D01*
X013539Y015650D01*
X013239Y015650D01*
X013464Y015500D02*
X013615Y015650D01*
X014015Y014657D02*
X014409Y014657D01*
X014409Y014460D01*
X015590Y014460D01*
X015590Y014657D01*
X015984Y014657D01*
X015984Y009933D01*
X015590Y009933D01*
X015590Y010130D01*
X014409Y010130D01*
X014409Y009933D01*
X014015Y009933D01*
X014015Y014657D01*
X016064Y008420D02*
X016515Y008420D01*
X016064Y008120D01*
X016515Y008120D01*
X016515Y007959D02*
X016214Y007959D01*
X016064Y007809D01*
X016214Y007659D01*
X016515Y007659D01*
X016439Y007499D02*
X016515Y007424D01*
X016515Y007274D01*
X016439Y007199D01*
X016139Y007199D01*
X016064Y007274D01*
X016064Y007424D01*
X016139Y007499D01*
X016289Y007659D02*
X016289Y007959D01*
X016590Y007039D02*
X016590Y006738D01*
X011894Y005140D02*
X011594Y005140D01*
X011594Y005590D01*
X011434Y005515D02*
X011359Y005590D01*
X011209Y005590D01*
X011134Y005515D01*
X011134Y005215D01*
X011209Y005140D01*
X011359Y005140D01*
X011434Y005215D01*
X011434Y005515D01*
X010974Y005515D02*
X010974Y005365D01*
X010899Y005290D01*
X010673Y005290D01*
X010673Y005140D02*
X010673Y005590D01*
X010899Y005590D01*
X010974Y005515D01*
X010823Y005290D02*
X010974Y005140D01*
X010513Y005590D02*
X010213Y005590D01*
X010363Y005590D02*
X010363Y005140D01*
X010053Y005140D02*
X010053Y005590D01*
X009753Y005590D02*
X009753Y005140D01*
X009592Y005215D02*
X009592Y005515D01*
X009517Y005590D01*
X009367Y005590D01*
X009292Y005515D01*
X009292Y005215D01*
X009367Y005140D01*
X009517Y005140D01*
X009592Y005215D01*
X009753Y005590D02*
X010053Y005140D01*
X009132Y005215D02*
X009057Y005140D01*
X008907Y005140D01*
X008832Y005215D01*
X008832Y005515D01*
X008907Y005590D01*
X009057Y005590D01*
X009132Y005515D01*
X008672Y005065D02*
X008371Y005065D01*
X008211Y005140D02*
X008211Y005590D01*
X007911Y005590D02*
X008211Y005140D01*
X007911Y005140D02*
X007911Y005590D01*
X007751Y005440D02*
X007751Y005140D01*
X007751Y005365D02*
X007451Y005365D01*
X007451Y005440D02*
X007601Y005590D01*
X007751Y005440D01*
X007451Y005440D02*
X007451Y005140D01*
X007290Y005215D02*
X007215Y005140D01*
X007065Y005140D01*
X006990Y005215D01*
X006990Y005515D01*
X007065Y005590D01*
X007215Y005590D01*
X007290Y005515D01*
X007357Y017910D02*
X007056Y017910D01*
X007056Y018360D01*
X006821Y018360D02*
X006596Y018135D01*
X006896Y018135D01*
X006821Y017910D02*
X006821Y018360D01*
X006436Y018285D02*
X006436Y018210D01*
X006136Y017910D01*
X006436Y017910D01*
X006436Y018285D02*
X006361Y018360D01*
X006211Y018360D01*
X006136Y018285D01*
X005976Y018360D02*
X005675Y018360D01*
X005675Y017910D01*
X005515Y017910D02*
X005365Y018060D01*
X005440Y018060D02*
X005215Y018060D01*
X005215Y017910D02*
X005215Y018360D01*
X005440Y018360D01*
X005515Y018285D01*
X005515Y018135D01*
X005440Y018060D01*
X005675Y018135D02*
X005825Y018135D01*
X005055Y017910D02*
X005055Y018360D01*
X004755Y018360D02*
X004755Y017910D01*
X005055Y017910D02*
X004755Y018360D01*
X007517Y018285D02*
X007517Y017985D01*
X007817Y018285D01*
X007817Y017985D01*
X007742Y017910D01*
X007592Y017910D01*
X007517Y017985D01*
X007517Y018285D02*
X007592Y018360D01*
X007742Y018360D01*
X007817Y018285D01*
X007977Y018210D02*
X008127Y018360D01*
X008127Y017910D01*
X007977Y017910D02*
X008278Y017910D01*
D16*
X011910Y010315D02*
X011910Y005715D01*
D17*
X012075Y006015D03*
X012075Y006515D03*
X012075Y007015D03*
X012075Y007515D03*
X012075Y008015D03*
X012075Y008515D03*
X012075Y009015D03*
X012075Y009515D03*
X012075Y010015D03*
X009085Y010015D03*
X009085Y009515D03*
X009085Y009015D03*
X009085Y008515D03*
X009085Y008015D03*
X009085Y007515D03*
X009085Y007015D03*
X009085Y006515D03*
X009085Y006015D03*
D18*
X014820Y005775D02*
X014820Y006275D01*
X015070Y006525D01*
X014820Y006775D01*
X014820Y007275D01*
X015070Y007525D01*
X014820Y007775D01*
X014820Y008275D01*
X015070Y008525D01*
X015570Y008525D01*
X015820Y008275D01*
X015820Y007775D01*
X015570Y007525D01*
X015820Y007275D01*
X015820Y006775D01*
X015570Y006525D01*
X015820Y006275D01*
X015820Y005775D01*
X015570Y005525D01*
X015070Y005525D01*
X014820Y005775D01*
X010950Y015936D02*
X010950Y016274D01*
X010495Y016424D02*
X010284Y016424D01*
X009830Y016274D02*
X009830Y015936D01*
M02*
