G75*
G70*
%OFA0B0*%
%FSLAX24Y24*%
%IPPOS*%
%LPD*%
%AMOC8*
5,1,8,0,0,1.08239X$1,22.5*
%
%ADD10R,0.0910X0.0280*%
%ADD11C,0.0520*%
%ADD12R,0.0512X0.0355*%
%ADD13R,0.0355X0.0512*%
%ADD14C,0.0780*%
%ADD15C,0.0571*%
%ADD16OC8,0.0780*%
%ADD17C,0.0600*%
%ADD18C,0.0631*%
%ADD19C,0.0276*%
%ADD20C,0.0355*%
%ADD21C,0.1542*%
D10*
X009680Y006865D03*
X009680Y007365D03*
X009680Y007865D03*
X009680Y008365D03*
X011740Y008365D03*
X011740Y007865D03*
X011740Y007365D03*
X011740Y006865D03*
D11*
X014690Y016375D03*
X014690Y018275D03*
D12*
X012620Y006429D03*
X012620Y005721D03*
D13*
X013325Y007855D03*
X014034Y007855D03*
D14*
X015320Y008025D03*
X015320Y007025D03*
X015320Y006025D03*
X012190Y011825D03*
X012190Y012825D03*
X012190Y013825D03*
X012190Y015825D03*
X011690Y018825D03*
X010690Y018825D03*
X009690Y018825D03*
X008690Y018825D03*
X007690Y018825D03*
X006690Y018825D03*
X006190Y009825D03*
X006190Y008825D03*
X006190Y007825D03*
X006190Y006825D03*
D15*
X012190Y010825D03*
D16*
X008230Y016135D03*
X008230Y017135D03*
X007230Y017135D03*
X007230Y016135D03*
X006230Y016135D03*
X006230Y017135D03*
X005230Y017135D03*
X005230Y016135D03*
D17*
X014500Y014045D03*
X014500Y013045D03*
X014500Y012045D03*
X014500Y011045D03*
X015500Y010545D03*
X015500Y011545D03*
X015500Y012545D03*
X015500Y013545D03*
D18*
X015356Y014683D03*
D19*
X010710Y015095D03*
X010500Y013065D03*
X008050Y008935D03*
X008050Y007955D03*
X008680Y005645D03*
X011900Y006065D03*
X011900Y006485D03*
D20*
X009565Y006180D03*
D21*
X004995Y005805D03*
X016680Y005745D03*
X016745Y019615D03*
X005025Y019615D03*
M02*
