G75*
G70*
%OFA0B0*%
%FSLAX24Y24*%
%IPPOS*%
%LPD*%
%AMOC8*
5,1,8,0,0,1.08239X$1,22.5*
%
%ADD10C,0.0000*%
D10*
X002333Y000888D02*
X019968Y000888D01*
X019968Y017483D01*
X002333Y017483D01*
X002333Y000888D01*
X004607Y003215D02*
X004609Y003249D01*
X004615Y003283D01*
X004625Y003316D01*
X004638Y003347D01*
X004656Y003377D01*
X004676Y003405D01*
X004700Y003430D01*
X004726Y003452D01*
X004754Y003470D01*
X004785Y003486D01*
X004817Y003498D01*
X004851Y003506D01*
X004885Y003510D01*
X004919Y003510D01*
X004953Y003506D01*
X004987Y003498D01*
X005019Y003486D01*
X005049Y003470D01*
X005078Y003452D01*
X005104Y003430D01*
X005128Y003405D01*
X005148Y003377D01*
X005166Y003347D01*
X005179Y003316D01*
X005189Y003283D01*
X005195Y003249D01*
X005197Y003215D01*
X005195Y003181D01*
X005189Y003147D01*
X005179Y003114D01*
X005166Y003083D01*
X005148Y003053D01*
X005128Y003025D01*
X005104Y003000D01*
X005078Y002978D01*
X005050Y002960D01*
X005019Y002944D01*
X004987Y002932D01*
X004953Y002924D01*
X004919Y002920D01*
X004885Y002920D01*
X004851Y002924D01*
X004817Y002932D01*
X004785Y002944D01*
X004754Y002960D01*
X004726Y002978D01*
X004700Y003000D01*
X004676Y003025D01*
X004656Y003053D01*
X004638Y003083D01*
X004625Y003114D01*
X004615Y003147D01*
X004609Y003181D01*
X004607Y003215D01*
M02*
