G75*
G70*
%OFA0B0*%
%FSLAX24Y24*%
%IPPOS*%
%LPD*%
%AMOC8*
5,1,8,0,0,1.08239X$1,22.5*
%
%ADD10R,0.0870X0.0240*%
%ADD11R,0.0315X0.0472*%
%ADD12C,0.0480*%
%ADD13R,0.0472X0.0315*%
%ADD14R,0.0800X0.0260*%
%ADD15R,0.0780X0.0210*%
%ADD16C,0.0740*%
%ADD17C,0.0840*%
%ADD18R,0.0740X0.0740*%
%ADD19C,0.0560*%
%ADD20C,0.0650*%
%ADD21R,0.0650X0.0650*%
%ADD22R,0.0780X0.0220*%
%ADD23C,0.0100*%
%ADD24C,0.0360*%
%ADD25C,0.0079*%
%ADD26C,0.0236*%
%ADD27C,0.0160*%
%ADD28C,0.0354*%
%ADD29C,0.0315*%
%ADD30C,0.0120*%
%ADD31C,0.0240*%
%ADD32C,0.1502*%
D10*
X017000Y019086D03*
X017000Y019586D03*
X017000Y020086D03*
X017000Y020586D03*
X019060Y020586D03*
X019060Y020086D03*
X019060Y019586D03*
X019060Y019086D03*
D11*
X017763Y021217D03*
X017055Y021217D03*
X018626Y002061D03*
X019334Y002061D03*
X020301Y002036D03*
X021009Y002036D03*
D12*
X020980Y003336D03*
X019080Y003336D03*
D13*
X005380Y003290D03*
X005380Y002581D03*
X011130Y016606D03*
X011130Y017315D03*
D14*
X016225Y014086D03*
X016225Y013586D03*
X016225Y013086D03*
X016225Y012586D03*
X016225Y012086D03*
X016225Y011586D03*
X016225Y011086D03*
X016225Y010586D03*
X016225Y010086D03*
X020085Y010086D03*
X020085Y010586D03*
X020085Y011086D03*
X020085Y011586D03*
X020085Y012086D03*
X020085Y012586D03*
X020085Y013086D03*
X020085Y013586D03*
X020085Y014086D03*
D15*
X012005Y012961D03*
X012005Y012461D03*
X012005Y011961D03*
X012005Y011461D03*
X012005Y010961D03*
X012005Y010461D03*
X012005Y009961D03*
X012005Y009461D03*
X012005Y008961D03*
X012005Y008461D03*
X012005Y007961D03*
X012005Y007461D03*
X012005Y006961D03*
X012005Y006461D03*
X012005Y005961D03*
X012005Y005461D03*
X008305Y005461D03*
X008305Y005961D03*
X008305Y006461D03*
X008305Y006961D03*
X008305Y007461D03*
X008305Y007961D03*
X008305Y008461D03*
X008305Y008961D03*
X008305Y009461D03*
X008305Y009961D03*
X008305Y010461D03*
X008305Y010961D03*
X008305Y011461D03*
X008305Y011961D03*
X008305Y012461D03*
X008305Y012961D03*
D16*
X006405Y012461D03*
X005405Y012461D03*
X004405Y012461D03*
X004405Y013561D03*
X005405Y013561D03*
X006405Y013561D03*
X006405Y011336D03*
X005405Y011336D03*
X004405Y011336D03*
X004530Y008586D03*
X005530Y008586D03*
X006530Y008586D03*
X006530Y007461D03*
X005530Y007461D03*
X004530Y007461D03*
X004530Y006336D03*
X005530Y006336D03*
X006530Y006336D03*
X006530Y005211D03*
X005530Y005211D03*
X004530Y005211D03*
X004255Y003436D03*
X004255Y002436D03*
X006730Y002411D03*
X006730Y003411D03*
X014405Y004836D03*
X014405Y005836D03*
X014405Y006836D03*
X014405Y007836D03*
X014405Y008836D03*
X014405Y009836D03*
X014405Y010836D03*
X014405Y011836D03*
X014405Y013836D03*
X012405Y015486D03*
X012405Y016486D03*
X012405Y017486D03*
X014905Y016836D03*
X015905Y016836D03*
X016905Y016836D03*
X017905Y016836D03*
X018905Y016836D03*
X019905Y016836D03*
X020405Y007836D03*
X020405Y006836D03*
X020405Y005836D03*
X020405Y004836D03*
D17*
X008844Y017799D02*
X008844Y018639D01*
X007466Y018639D02*
X007466Y017799D01*
X004994Y017774D02*
X004994Y018614D01*
X003616Y018614D02*
X003616Y017774D01*
D18*
X004255Y001436D03*
X006730Y001411D03*
D19*
X015005Y001375D03*
X016005Y001375D03*
X017005Y001375D03*
X016505Y002375D03*
X015505Y002375D03*
X017505Y002375D03*
X014530Y019336D03*
X013530Y019336D03*
X012530Y019336D03*
X011530Y019336D03*
X012030Y020336D03*
X013030Y020336D03*
X014030Y020336D03*
X015030Y020336D03*
D20*
X007755Y015886D03*
X003805Y015886D03*
D21*
X004805Y015886D03*
X008755Y015886D03*
D22*
X010981Y004013D03*
X010981Y003513D03*
X010981Y003013D03*
X010981Y002513D03*
X012921Y002513D03*
X012921Y003013D03*
X012921Y003513D03*
X012921Y004013D03*
D23*
X014345Y006861D02*
X013505Y007701D01*
X012245Y007701D01*
X012035Y007911D01*
X012005Y007961D01*
X013855Y007841D02*
X014345Y007841D01*
X014405Y007836D01*
X013855Y007841D02*
X013855Y008821D01*
X012455Y010221D01*
X012245Y010221D01*
X012005Y010461D01*
X012245Y010711D02*
X012525Y010711D01*
X014345Y008891D01*
X014405Y008836D01*
X014345Y009871D02*
X013015Y011201D01*
X012245Y011201D01*
X012035Y011411D01*
X012005Y011461D01*
X012175Y011761D02*
X013435Y011761D01*
X014345Y010851D01*
X014405Y010836D01*
X014975Y011271D02*
X014415Y011831D01*
X014405Y011836D01*
X014975Y011271D02*
X016025Y011271D01*
X016165Y011131D01*
X016225Y011086D01*
X016225Y011586D02*
X016165Y011621D01*
X015535Y011621D01*
X015535Y012111D02*
X016165Y012111D01*
X016225Y012086D01*
X016225Y012586D02*
X016165Y012601D01*
X015535Y012601D01*
X015535Y013091D02*
X016165Y013091D01*
X016225Y013086D01*
X016225Y013586D02*
X016165Y013651D01*
X016025Y013791D01*
X014415Y013791D01*
X014405Y013836D01*
X012005Y011961D02*
X012035Y011901D01*
X012175Y011761D01*
X012005Y010961D02*
X012035Y010921D01*
X012245Y010711D01*
X008305Y012961D02*
X008325Y013021D01*
X008255Y011971D02*
X007920Y011956D01*
X008255Y011971D02*
X008305Y011961D01*
X008305Y010461D02*
X008255Y010431D01*
X007995Y010471D01*
X005530Y008586D02*
X005595Y008471D01*
X006530Y007461D02*
X006575Y007491D01*
X006785Y007701D01*
X007920Y007951D02*
X008305Y007961D01*
X008305Y006961D02*
X008325Y006931D01*
X008710Y006946D01*
X008305Y005961D02*
X008255Y005951D01*
X006575Y005181D02*
X006530Y005211D01*
X006155Y005811D02*
X006085Y005811D01*
X005595Y006301D01*
X005530Y006336D01*
X005595Y005251D02*
X005530Y005211D01*
X006435Y013441D02*
X006405Y013561D01*
X008770Y015831D02*
X008755Y015886D01*
X018940Y007006D02*
X020365Y005881D01*
X020405Y005836D01*
X020925Y003361D02*
X020980Y003336D01*
X020995Y003291D01*
X020995Y002101D01*
X021009Y002036D01*
X021463Y001732D02*
X021194Y001458D01*
X018912Y001438D01*
X018691Y001661D01*
X018684Y001677D01*
X018680Y001734D01*
X018626Y002061D01*
X018685Y002101D01*
X018685Y003291D01*
X018965Y003291D01*
X019080Y003336D01*
X019035Y003291D01*
X018965Y003291D01*
X020925Y003361D02*
X020925Y010011D01*
X020575Y010361D01*
X020295Y010361D01*
X020085Y010571D01*
X020085Y010586D01*
X020295Y010851D02*
X020575Y010851D01*
X021415Y010011D01*
X021463Y001732D01*
X020295Y010851D02*
X020085Y011061D01*
X020085Y011086D01*
D24*
X018940Y007006D03*
X015535Y011621D03*
X015535Y012111D03*
X015535Y012601D03*
X015535Y013091D03*
X007200Y010446D03*
D25*
X007205Y010501D01*
X007975Y010501D01*
X008305Y010461D01*
X008305Y010961D02*
X008255Y010991D01*
X008045Y011201D01*
X006505Y011201D01*
X006435Y011271D01*
X006405Y011336D01*
X007205Y011691D02*
X006435Y012461D01*
X006405Y012461D01*
X006435Y013441D02*
X007920Y011956D01*
X008045Y011691D02*
X007205Y011691D01*
X008045Y011691D02*
X008255Y011481D01*
X008305Y011461D01*
X009636Y010114D02*
X009655Y010081D01*
X008745Y009171D01*
X008535Y009171D01*
X008325Y008961D01*
X008305Y008961D01*
X007920Y007951D02*
X007905Y007911D01*
X007695Y007701D01*
X006785Y007701D01*
X006530Y007461D01*
X007415Y007211D02*
X006575Y006371D01*
X006530Y006336D01*
X007415Y007211D02*
X008045Y007211D01*
X008255Y007421D01*
X008305Y007461D01*
X008710Y006946D02*
X008745Y006931D01*
X008745Y006721D01*
X008885Y006581D01*
X008885Y004341D01*
X007415Y004341D01*
X006575Y005181D01*
X005234Y003436D02*
X005245Y003361D01*
X005315Y003291D01*
X005380Y003290D01*
X010355Y003151D02*
X010845Y003151D01*
X010915Y003081D01*
X010981Y003013D01*
X010981Y004013D02*
X010985Y004061D01*
X010985Y004341D01*
X012875Y004061D02*
X012921Y004013D01*
X012875Y004061D02*
X012875Y006651D01*
X012525Y006651D01*
X012455Y006721D01*
X011545Y006721D01*
X011475Y006791D01*
X011475Y014981D01*
X012595Y014981D01*
X013645Y016031D01*
X013645Y017361D01*
X017355Y017361D01*
X017845Y016871D01*
X017905Y016836D01*
X018405Y016311D02*
X018895Y016801D01*
X018905Y016836D01*
X018405Y016311D02*
X013855Y016311D01*
X013855Y011691D01*
X014205Y011341D01*
X014625Y011341D01*
X014905Y011061D01*
X014905Y004271D01*
X013365Y002731D01*
X013155Y002731D01*
X012945Y002521D01*
X012921Y002513D01*
X012921Y003013D02*
X012945Y003081D01*
X012945Y003501D01*
X012921Y003513D01*
X012945Y003571D01*
X013155Y003781D01*
X013365Y003781D01*
X013435Y003851D01*
X013435Y006441D01*
X013015Y007211D02*
X014345Y005881D01*
X014405Y005836D01*
X014405Y006836D02*
X014345Y006861D01*
X013015Y007211D02*
X012245Y007211D01*
X012035Y007421D01*
X012005Y007461D01*
X012035Y007001D02*
X012005Y006961D01*
X012035Y007001D02*
X012525Y007001D01*
X012595Y006931D01*
X012665Y008471D02*
X012035Y008471D01*
X012005Y008461D01*
X012245Y008751D02*
X012595Y008751D01*
X012875Y008681D02*
X012665Y008471D01*
X012875Y008681D02*
X012875Y009451D01*
X012035Y009451D01*
X012005Y009461D01*
X012035Y008961D02*
X012005Y008961D01*
X012035Y008961D02*
X012245Y008751D01*
X014345Y009871D02*
X014405Y009836D01*
X012005Y012961D02*
X012035Y013021D01*
X012035Y013301D01*
X016165Y014141D02*
X016225Y014086D01*
X016165Y014141D02*
X016165Y014421D01*
X020085Y014086D02*
X020085Y016241D01*
X020645Y018426D02*
X020645Y013931D01*
X020505Y013791D01*
X020225Y013791D01*
X020085Y013651D01*
X020085Y013586D01*
X020645Y018426D02*
X020031Y019041D01*
X019105Y019041D01*
X019060Y019086D01*
X018895Y019391D02*
X018055Y019391D01*
X017495Y018831D01*
X015045Y018831D01*
X014555Y019321D01*
X014530Y019336D01*
X013575Y019881D02*
X014030Y020336D01*
X014485Y020791D01*
X015185Y020791D01*
X016165Y019811D01*
X016725Y019811D01*
X016935Y019601D01*
X017000Y019586D01*
X017000Y020086D02*
X016935Y020091D01*
X016725Y020301D01*
X015955Y020301D01*
X015255Y021001D01*
X013715Y021001D01*
X013085Y020371D01*
X013030Y020336D01*
X013085Y019881D02*
X013575Y019881D01*
X013085Y019881D02*
X012595Y019391D01*
X012530Y019336D01*
X011405Y018901D02*
X011353Y018910D01*
X017000Y020586D02*
X017005Y020651D01*
X017005Y021211D01*
X017055Y021217D01*
X019060Y020586D02*
X019105Y020581D01*
X019315Y020581D01*
X020435Y019461D01*
X019060Y019586D02*
X019035Y019531D01*
X018895Y019391D01*
D26*
X020435Y019461D03*
X020085Y016241D03*
X016165Y014421D03*
X012035Y013301D03*
X012595Y008751D03*
X012595Y006931D03*
X013435Y006441D03*
X010985Y004341D03*
X010355Y003151D03*
D27*
X010329Y002713D02*
X010410Y002632D01*
X010411Y002631D01*
X010411Y002513D01*
X010981Y002513D01*
X011551Y002513D01*
X011551Y002631D01*
X011552Y002632D01*
X011642Y002722D01*
X011691Y002839D01*
X011691Y003186D01*
X011659Y003263D01*
X011691Y003339D01*
X011691Y003686D01*
X011659Y003763D01*
X011691Y003839D01*
X011691Y004186D01*
X011642Y004304D01*
X011552Y004394D01*
X011435Y004443D01*
X011417Y004443D01*
X011356Y004589D01*
X011233Y004712D01*
X011072Y004779D01*
X010898Y004779D01*
X010737Y004712D01*
X010614Y004589D01*
X010553Y004443D01*
X010527Y004443D01*
X010410Y004394D01*
X010320Y004304D01*
X010301Y004259D01*
X010402Y021887D01*
X021524Y021887D01*
X021474Y021799D01*
X021401Y021527D01*
X021401Y021245D01*
X021474Y020972D01*
X021615Y020728D01*
X021814Y020529D01*
X022059Y020388D01*
X022331Y020315D01*
X022613Y020315D01*
X022885Y020388D01*
X022955Y020428D01*
X022955Y002470D01*
X022836Y002539D01*
X022564Y002612D01*
X022282Y002612D01*
X022010Y002539D01*
X021829Y002435D01*
X021785Y010012D01*
X021785Y010084D01*
X021785Y010085D01*
X021785Y010087D01*
X021756Y010153D01*
X021729Y010220D01*
X021728Y010221D01*
X021727Y010222D01*
X021676Y010273D01*
X020805Y011144D01*
X020805Y011279D01*
X020782Y011336D01*
X020805Y011392D01*
X020805Y011779D01*
X020782Y011836D01*
X020805Y011892D01*
X020805Y012279D01*
X020782Y012336D01*
X020805Y012392D01*
X020805Y012779D01*
X020782Y012836D01*
X020805Y012892D01*
X020805Y013279D01*
X020782Y013336D01*
X020805Y013392D01*
X020805Y013583D01*
X020849Y013626D01*
X020950Y013727D01*
X021004Y013859D01*
X021004Y018498D01*
X020950Y018630D01*
X020849Y018731D01*
X020547Y019033D01*
X020683Y019089D01*
X020806Y019213D01*
X020873Y019374D01*
X020873Y019548D01*
X020806Y019709D01*
X020683Y019832D01*
X020522Y019899D01*
X020505Y019899D01*
X019815Y020589D01*
X019815Y020769D01*
X019766Y020887D01*
X019676Y020977D01*
X019559Y021026D01*
X018561Y021026D01*
X018444Y020977D01*
X018354Y020887D01*
X018305Y020769D01*
X018305Y020402D01*
X018354Y020285D01*
X018444Y020195D01*
X018445Y020194D01*
X018445Y020086D01*
X019060Y020086D01*
X019060Y020086D01*
X018445Y020086D01*
X018445Y019978D01*
X018444Y019977D01*
X018354Y019887D01*
X018305Y019769D01*
X018305Y019750D01*
X017984Y019750D01*
X017851Y019695D01*
X017755Y019599D01*
X017755Y019769D01*
X017728Y019836D01*
X017755Y019902D01*
X017755Y020269D01*
X017728Y020336D01*
X017755Y020402D01*
X017755Y020769D01*
X017742Y020801D01*
X017763Y020801D01*
X017763Y021217D01*
X017763Y021633D01*
X017582Y021633D01*
X017536Y021621D01*
X017498Y021599D01*
X017483Y021634D01*
X017393Y021724D01*
X017276Y021773D01*
X016834Y021773D01*
X016716Y021724D01*
X016626Y021634D01*
X016577Y021517D01*
X016577Y021026D01*
X016501Y021026D01*
X016384Y020977D01*
X016294Y020887D01*
X016245Y020769D01*
X016245Y020660D01*
X016104Y020660D01*
X015560Y021204D01*
X015459Y021305D01*
X015326Y021360D01*
X013644Y021360D01*
X013511Y021305D01*
X013142Y020936D01*
X012911Y020936D01*
X012690Y020844D01*
X012530Y020684D01*
X012370Y020844D01*
X012149Y020936D01*
X011911Y020936D01*
X011690Y020844D01*
X011521Y020676D01*
X011430Y020455D01*
X011430Y020216D01*
X011521Y019996D01*
X011690Y019827D01*
X011911Y019736D01*
X012081Y019736D01*
X012021Y019676D01*
X011955Y019515D01*
X011923Y019577D01*
X011881Y019635D01*
X011830Y019687D01*
X011771Y019729D01*
X011707Y019762D01*
X011638Y019784D01*
X011566Y019796D01*
X011530Y019796D01*
X011530Y019336D01*
X011530Y019796D01*
X011494Y019796D01*
X011422Y019784D01*
X011353Y019762D01*
X011289Y019729D01*
X011230Y019687D01*
X011179Y019635D01*
X011137Y019577D01*
X011104Y019512D01*
X011081Y019444D01*
X011070Y019372D01*
X011070Y019336D01*
X011530Y019336D01*
X011530Y019336D01*
X011530Y019336D01*
X011070Y019336D01*
X011070Y019300D01*
X011081Y019228D01*
X011104Y019159D01*
X011137Y019095D01*
X011179Y019036D01*
X011230Y018985D01*
X011289Y018942D01*
X011353Y018910D01*
X011422Y018887D01*
X011494Y018876D01*
X011504Y018876D01*
X010791Y018162D01*
X010730Y018015D01*
X010730Y017751D01*
X010713Y017744D01*
X010622Y017654D01*
X010574Y017536D01*
X010574Y017094D01*
X010622Y016976D01*
X010638Y016961D01*
X010622Y016945D01*
X010574Y016828D01*
X010574Y016385D01*
X010622Y016268D01*
X010713Y016178D01*
X010830Y016129D01*
X011430Y016129D01*
X011547Y016178D01*
X011576Y016206D01*
X011774Y016206D01*
X011820Y016095D01*
X011929Y015986D01*
X011820Y015877D01*
X011715Y015623D01*
X011715Y015349D01*
X011718Y015340D01*
X011404Y015340D01*
X011271Y015285D01*
X011170Y015184D01*
X011116Y015052D01*
X011116Y006719D01*
X011170Y006587D01*
X011271Y006486D01*
X011295Y006463D01*
X011295Y006292D01*
X011329Y006211D01*
X011295Y006129D01*
X011295Y005792D01*
X011344Y005675D01*
X011434Y005585D01*
X011435Y005584D01*
X011435Y005461D01*
X012005Y005461D01*
X012005Y005461D01*
X011435Y005461D01*
X011435Y005332D01*
X011447Y005286D01*
X011471Y005245D01*
X011504Y005212D01*
X011546Y005188D01*
X011591Y005176D01*
X012005Y005176D01*
X012419Y005176D01*
X012464Y005188D01*
X012506Y005212D01*
X012516Y005222D01*
X012516Y004443D01*
X012467Y004443D01*
X012350Y004394D01*
X012260Y004304D01*
X012211Y004186D01*
X012211Y003839D01*
X012243Y003763D01*
X012211Y003686D01*
X012211Y003339D01*
X012243Y003263D01*
X012211Y003186D01*
X012211Y002839D01*
X012243Y002763D01*
X012211Y002686D01*
X012211Y002339D01*
X012260Y002222D01*
X012350Y002132D01*
X012467Y002083D01*
X013375Y002083D01*
X013492Y002132D01*
X013582Y002222D01*
X013631Y002339D01*
X013631Y002489D01*
X015109Y003966D01*
X015210Y004067D01*
X015264Y004199D01*
X015264Y010901D01*
X015505Y010901D01*
X015505Y010892D01*
X015528Y010836D01*
X015505Y010779D01*
X015505Y010392D01*
X015528Y010336D01*
X015505Y010279D01*
X015505Y009892D01*
X015554Y009775D01*
X015644Y009685D01*
X015761Y009636D01*
X016430Y009636D01*
X016441Y009609D01*
X016553Y009497D01*
X016700Y009436D01*
X019610Y009436D01*
X019757Y009497D01*
X019869Y009609D01*
X019930Y009756D01*
X019930Y009776D01*
X020085Y009776D01*
X020085Y010048D01*
X020085Y010048D01*
X020085Y009776D01*
X020509Y009776D01*
X020554Y009788D01*
X020555Y009788D01*
X020555Y008521D01*
X020542Y008526D01*
X020268Y008526D01*
X020014Y008421D01*
X019820Y008227D01*
X019715Y007973D01*
X019715Y007699D01*
X019820Y007445D01*
X019929Y007336D01*
X019820Y007227D01*
X019715Y006973D01*
X019715Y006865D01*
X019440Y007082D01*
X019440Y007105D01*
X019364Y007289D01*
X019223Y007430D01*
X019039Y007506D01*
X018841Y007506D01*
X018657Y007430D01*
X018516Y007289D01*
X018440Y007105D01*
X018440Y006906D01*
X018516Y006723D01*
X018657Y006582D01*
X018841Y006506D01*
X018976Y006506D01*
X019715Y005923D01*
X019715Y005699D01*
X019820Y005445D01*
X019929Y005336D01*
X019820Y005227D01*
X019715Y004973D01*
X019715Y004699D01*
X019820Y004445D01*
X020014Y004251D01*
X020268Y004146D01*
X020542Y004146D01*
X020555Y004151D01*
X020555Y003703D01*
X020505Y003653D01*
X020420Y003447D01*
X020420Y003224D01*
X020505Y003019D01*
X020625Y002899D01*
X020625Y002498D01*
X020581Y002453D01*
X020566Y002418D01*
X020528Y002440D01*
X020482Y002452D01*
X020301Y002452D01*
X020301Y002036D01*
X020301Y002036D01*
X020301Y002452D01*
X020119Y002452D01*
X020074Y002440D01*
X020033Y002416D01*
X019999Y002383D01*
X019975Y002342D01*
X019963Y002296D01*
X019963Y002036D01*
X020301Y002036D01*
X020301Y002036D01*
X019963Y002036D01*
X019963Y001817D01*
X019672Y001815D01*
X019672Y002061D01*
X019672Y002321D01*
X019660Y002367D01*
X019636Y002408D01*
X019602Y002441D01*
X019561Y002465D01*
X019516Y002477D01*
X019334Y002477D01*
X019153Y002477D01*
X019107Y002465D01*
X019069Y002443D01*
X019055Y002477D01*
X019055Y002776D01*
X019191Y002776D01*
X019397Y002861D01*
X019555Y003019D01*
X019640Y003224D01*
X019640Y003447D01*
X019555Y003653D01*
X019397Y003811D01*
X019191Y003896D01*
X018969Y003896D01*
X018763Y003811D01*
X018613Y003661D01*
X018611Y003661D01*
X018475Y003604D01*
X018371Y003500D01*
X018315Y003364D01*
X018315Y002580D01*
X018287Y002568D01*
X018197Y002478D01*
X018148Y002361D01*
X018148Y001761D01*
X018197Y001643D01*
X018287Y001553D01*
X018344Y001530D01*
X018347Y001525D01*
X018348Y001522D01*
X018375Y001455D01*
X018376Y001454D01*
X018376Y001453D01*
X018427Y001402D01*
X018478Y001350D01*
X018479Y001349D01*
X018599Y001228D01*
X018600Y001225D01*
X018651Y001176D01*
X018701Y001125D01*
X018703Y001124D01*
X018705Y001122D01*
X018771Y001096D01*
X018836Y001068D01*
X018839Y001068D01*
X018841Y001067D01*
X018913Y001068D01*
X018984Y001068D01*
X018986Y001069D01*
X021197Y001088D01*
X021270Y001089D01*
X021271Y001089D01*
X021338Y001118D01*
X021406Y001146D01*
X021406Y001146D01*
X021406Y001147D01*
X021417Y001157D01*
X021425Y001127D01*
X021509Y000981D01*
X017460Y000981D01*
X017514Y001035D01*
X017605Y001255D01*
X017605Y001494D01*
X017514Y001715D01*
X017454Y001775D01*
X017624Y001775D01*
X017845Y001866D01*
X018014Y002035D01*
X018105Y002255D01*
X018105Y002494D01*
X018014Y002715D01*
X017845Y002883D01*
X017624Y002975D01*
X017386Y002975D01*
X017165Y002883D01*
X017005Y002723D01*
X016845Y002883D01*
X016624Y002975D01*
X016386Y002975D01*
X016165Y002883D01*
X015996Y002715D01*
X015930Y002554D01*
X015898Y002616D01*
X015856Y002674D01*
X015805Y002726D01*
X015746Y002768D01*
X015682Y002801D01*
X015613Y002823D01*
X015541Y002835D01*
X015505Y002835D01*
X015505Y002375D01*
X015505Y002835D01*
X015469Y002835D01*
X015397Y002823D01*
X015328Y002801D01*
X015264Y002768D01*
X015205Y002726D01*
X015154Y002674D01*
X015112Y002616D01*
X015079Y002551D01*
X015056Y002483D01*
X015045Y002411D01*
X015045Y002375D01*
X015505Y002375D01*
X015505Y002375D01*
X015505Y002375D01*
X015045Y002375D01*
X015045Y002339D01*
X015056Y002267D01*
X015079Y002198D01*
X015112Y002134D01*
X015154Y002075D01*
X015205Y002024D01*
X015264Y001981D01*
X015328Y001949D01*
X015397Y001926D01*
X015469Y001915D01*
X015505Y001915D01*
X015541Y001915D01*
X015613Y001926D01*
X015682Y001949D01*
X015746Y001981D01*
X015805Y002024D01*
X015856Y002075D01*
X015898Y002134D01*
X015930Y002195D01*
X015996Y002035D01*
X016056Y001975D01*
X015886Y001975D01*
X015665Y001883D01*
X015505Y001723D01*
X015345Y001883D01*
X015124Y001975D01*
X014927Y001975D01*
X014982Y002109D01*
X014982Y002353D01*
X014889Y002580D01*
X014716Y002753D01*
X014490Y002846D01*
X014245Y002846D01*
X014019Y002753D01*
X013846Y002580D01*
X013752Y002353D01*
X013752Y002109D01*
X013846Y001883D01*
X014019Y001709D01*
X014245Y001616D01*
X014455Y001616D01*
X014405Y001494D01*
X014405Y001255D01*
X014496Y001035D01*
X014550Y000981D01*
X010282Y000981D01*
X010292Y002713D01*
X010329Y002713D01*
X010291Y002556D02*
X010411Y002556D01*
X010411Y002513D02*
X010411Y002379D01*
X010423Y002333D01*
X010447Y002292D01*
X010480Y002259D01*
X010522Y002235D01*
X010567Y002223D01*
X010981Y002223D01*
X011395Y002223D01*
X011440Y002235D01*
X011482Y002259D01*
X011515Y002292D01*
X011539Y002333D01*
X011551Y002379D01*
X011551Y002513D01*
X010981Y002513D01*
X010981Y002513D01*
X010981Y002513D01*
X010411Y002513D01*
X010411Y002397D02*
X010290Y002397D01*
X010289Y002239D02*
X010515Y002239D01*
X010289Y002080D02*
X013764Y002080D01*
X013752Y002239D02*
X013589Y002239D01*
X013631Y002397D02*
X013770Y002397D01*
X013836Y002556D02*
X013698Y002556D01*
X013857Y002714D02*
X013980Y002714D01*
X014015Y002873D02*
X016154Y002873D01*
X015996Y002714D02*
X015816Y002714D01*
X015929Y002556D02*
X015931Y002556D01*
X015505Y002556D02*
X015505Y002556D01*
X015505Y002714D02*
X015505Y002714D01*
X015194Y002714D02*
X014754Y002714D01*
X014899Y002556D02*
X015081Y002556D01*
X015045Y002397D02*
X014964Y002397D01*
X014982Y002239D02*
X015066Y002239D01*
X015150Y002080D02*
X014971Y002080D01*
X015252Y001922D02*
X015424Y001922D01*
X015505Y001922D02*
X015505Y001922D01*
X015505Y001915D02*
X015505Y002375D01*
X015505Y002375D01*
X015505Y001915D01*
X015586Y001922D02*
X015758Y001922D01*
X015860Y002080D02*
X015978Y002080D01*
X015505Y002080D02*
X015505Y002080D01*
X015505Y002239D02*
X015505Y002239D01*
X015505Y002397D02*
X015505Y002397D01*
X015465Y001763D02*
X015545Y001763D01*
X014451Y001605D02*
X010286Y001605D01*
X010287Y001763D02*
X013965Y001763D01*
X013829Y001922D02*
X010288Y001922D01*
X010285Y001446D02*
X014405Y001446D01*
X014405Y001288D02*
X010284Y001288D01*
X010283Y001129D02*
X014457Y001129D01*
X012253Y002239D02*
X011447Y002239D01*
X011551Y002397D02*
X012211Y002397D01*
X012211Y002556D02*
X011551Y002556D01*
X011635Y002714D02*
X012223Y002714D01*
X012211Y002873D02*
X011691Y002873D01*
X011691Y003031D02*
X012211Y003031D01*
X012212Y003190D02*
X011690Y003190D01*
X011691Y003348D02*
X012211Y003348D01*
X012211Y003507D02*
X011691Y003507D01*
X011691Y003665D02*
X012211Y003665D01*
X012217Y003824D02*
X011685Y003824D01*
X011691Y003982D02*
X012211Y003982D01*
X012211Y004141D02*
X011691Y004141D01*
X011644Y004299D02*
X012258Y004299D01*
X012516Y004458D02*
X011411Y004458D01*
X011329Y004616D02*
X012516Y004616D01*
X012516Y004775D02*
X011082Y004775D01*
X010888Y004775D02*
X010304Y004775D01*
X010305Y004933D02*
X012516Y004933D01*
X012516Y005092D02*
X010306Y005092D01*
X010307Y005250D02*
X011468Y005250D01*
X011435Y005409D02*
X010308Y005409D01*
X010308Y005567D02*
X011435Y005567D01*
X011322Y005726D02*
X010309Y005726D01*
X010310Y005884D02*
X011295Y005884D01*
X011295Y006043D02*
X010311Y006043D01*
X010312Y006201D02*
X011325Y006201D01*
X011295Y006360D02*
X010313Y006360D01*
X010314Y006518D02*
X011239Y006518D01*
X011133Y006677D02*
X010315Y006677D01*
X010316Y006835D02*
X011116Y006835D01*
X011116Y006994D02*
X010317Y006994D01*
X010318Y007152D02*
X011116Y007152D01*
X011116Y007311D02*
X010318Y007311D01*
X010319Y007469D02*
X011116Y007469D01*
X011116Y007628D02*
X010320Y007628D01*
X010321Y007786D02*
X011116Y007786D01*
X011116Y007945D02*
X010322Y007945D01*
X010323Y008103D02*
X011116Y008103D01*
X011116Y008262D02*
X010324Y008262D01*
X010325Y008420D02*
X011116Y008420D01*
X011116Y008579D02*
X010326Y008579D01*
X010327Y008737D02*
X011116Y008737D01*
X011116Y008896D02*
X010327Y008896D01*
X010328Y009054D02*
X011116Y009054D01*
X011116Y009213D02*
X010329Y009213D01*
X010330Y009371D02*
X011116Y009371D01*
X011116Y009530D02*
X010331Y009530D01*
X010332Y009688D02*
X011116Y009688D01*
X011116Y009847D02*
X010333Y009847D01*
X010334Y010005D02*
X011116Y010005D01*
X011116Y010164D02*
X010335Y010164D01*
X010336Y010322D02*
X011116Y010322D01*
X011116Y010481D02*
X010337Y010481D01*
X010337Y010639D02*
X011116Y010639D01*
X011116Y010798D02*
X010338Y010798D01*
X010339Y010956D02*
X011116Y010956D01*
X011116Y011115D02*
X010340Y011115D01*
X010341Y011273D02*
X011116Y011273D01*
X011116Y011432D02*
X010342Y011432D01*
X010343Y011590D02*
X011116Y011590D01*
X011116Y011749D02*
X010344Y011749D01*
X010345Y011907D02*
X011116Y011907D01*
X011116Y012066D02*
X010346Y012066D01*
X010347Y012224D02*
X011116Y012224D01*
X011116Y012383D02*
X010347Y012383D01*
X010348Y012541D02*
X011116Y012541D01*
X011116Y012700D02*
X010349Y012700D01*
X010350Y012858D02*
X011116Y012858D01*
X011116Y013017D02*
X010351Y013017D01*
X010352Y013175D02*
X011116Y013175D01*
X011116Y013334D02*
X010353Y013334D01*
X010354Y013492D02*
X011116Y013492D01*
X011116Y013651D02*
X010355Y013651D01*
X010356Y013809D02*
X011116Y013809D01*
X011116Y013968D02*
X010356Y013968D01*
X010357Y014126D02*
X011116Y014126D01*
X011116Y014285D02*
X010358Y014285D01*
X010359Y014443D02*
X011116Y014443D01*
X011116Y014602D02*
X010360Y014602D01*
X010361Y014760D02*
X011116Y014760D01*
X011116Y014919D02*
X010362Y014919D01*
X010363Y015077D02*
X011126Y015077D01*
X011222Y015236D02*
X010364Y015236D01*
X010365Y015394D02*
X011715Y015394D01*
X011715Y015553D02*
X010366Y015553D01*
X010366Y015711D02*
X011752Y015711D01*
X011817Y015870D02*
X010367Y015870D01*
X010368Y016028D02*
X011887Y016028D01*
X011782Y016187D02*
X011557Y016187D01*
X011130Y016606D02*
X012284Y016606D01*
X012405Y016486D01*
X012405Y017486D02*
X013630Y018711D01*
X013630Y019236D01*
X013530Y019336D01*
X014479Y019936D02*
X014539Y019996D01*
X014605Y020156D01*
X014637Y020095D01*
X014679Y020036D01*
X014730Y019985D01*
X014789Y019942D01*
X014853Y019910D01*
X014922Y019887D01*
X014994Y019876D01*
X015030Y019876D01*
X015066Y019876D01*
X015138Y019887D01*
X015207Y019910D01*
X015250Y019931D01*
X015146Y019828D01*
X015061Y019622D01*
X015039Y019676D01*
X014870Y019844D01*
X014649Y019936D01*
X014479Y019936D01*
X014534Y019991D02*
X014724Y019991D01*
X014609Y020149D02*
X014602Y020149D01*
X014882Y019832D02*
X015151Y019832D01*
X015030Y019876D02*
X015030Y020336D01*
X015030Y020336D01*
X015030Y019876D01*
X015030Y019991D02*
X015030Y019991D01*
X015030Y020149D02*
X015030Y020149D01*
X015030Y020308D02*
X015030Y020308D01*
X015039Y019674D02*
X015082Y019674D01*
X015981Y020783D02*
X016251Y020783D01*
X016348Y020942D02*
X015822Y020942D01*
X015664Y021100D02*
X016577Y021100D01*
X016577Y021259D02*
X015505Y021259D01*
X016577Y021417D02*
X010399Y021417D01*
X010398Y021259D02*
X013465Y021259D01*
X013306Y021100D02*
X010397Y021100D01*
X010396Y020942D02*
X013148Y020942D01*
X012629Y020783D02*
X012431Y020783D01*
X011629Y020783D02*
X010395Y020783D01*
X010395Y020625D02*
X011500Y020625D01*
X011435Y020466D02*
X010394Y020466D01*
X010393Y020308D02*
X011430Y020308D01*
X011458Y020149D02*
X010392Y020149D01*
X010391Y019991D02*
X011526Y019991D01*
X011685Y019832D02*
X010390Y019832D01*
X010389Y019674D02*
X011218Y019674D01*
X011105Y019515D02*
X010388Y019515D01*
X010387Y019357D02*
X011070Y019357D01*
X011091Y019198D02*
X010386Y019198D01*
X010385Y019040D02*
X011176Y019040D01*
X011459Y018881D02*
X010385Y018881D01*
X010384Y018723D02*
X011351Y018723D01*
X011193Y018564D02*
X010383Y018564D01*
X010382Y018406D02*
X011034Y018406D01*
X010876Y018247D02*
X010381Y018247D01*
X010380Y018089D02*
X010760Y018089D01*
X010730Y017930D02*
X010379Y017930D01*
X010378Y017772D02*
X010730Y017772D01*
X010606Y017613D02*
X010377Y017613D01*
X010376Y017455D02*
X010574Y017455D01*
X010574Y017296D02*
X010375Y017296D01*
X010375Y017138D02*
X010574Y017138D01*
X010621Y016979D02*
X010374Y016979D01*
X010373Y016821D02*
X010574Y016821D01*
X010574Y016662D02*
X010372Y016662D01*
X010371Y016504D02*
X010574Y016504D01*
X010590Y016345D02*
X010370Y016345D01*
X010369Y016187D02*
X010703Y016187D01*
X011130Y017315D02*
X011130Y017936D01*
X012530Y019336D01*
X011955Y019515D02*
X011955Y019515D01*
X012021Y019674D02*
X011842Y019674D01*
X011530Y019674D02*
X011530Y019674D01*
X011530Y019515D02*
X011530Y019515D01*
X011530Y019357D02*
X011530Y019357D01*
X009661Y019357D02*
X009044Y019357D01*
X008991Y019379D02*
X008697Y019379D01*
X008425Y019266D01*
X008217Y019058D01*
X008104Y018786D01*
X008104Y017652D01*
X008217Y017380D01*
X008425Y017172D01*
X008697Y017059D01*
X008991Y017059D01*
X009121Y017113D01*
X009350Y016768D01*
X009350Y016393D01*
X009261Y016482D01*
X009144Y016531D01*
X008366Y016531D01*
X008249Y016482D01*
X008159Y016392D01*
X008110Y016274D01*
X008110Y016245D01*
X008084Y016271D01*
X008020Y016318D01*
X007949Y016354D01*
X007873Y016378D01*
X007795Y016391D01*
X007755Y016391D01*
X007715Y016391D01*
X007637Y016378D01*
X007561Y016354D01*
X007490Y016318D01*
X007426Y016271D01*
X007370Y016215D01*
X007323Y016150D01*
X007287Y016080D01*
X007262Y016004D01*
X007250Y015926D01*
X007250Y015886D01*
X007755Y015886D01*
X007755Y016391D01*
X007755Y015886D01*
X007755Y015886D01*
X007755Y015886D01*
X007250Y015886D01*
X007250Y015846D01*
X007262Y015768D01*
X007287Y015692D01*
X007323Y015621D01*
X007370Y015557D01*
X007426Y015501D01*
X007490Y015454D01*
X007561Y015418D01*
X007637Y015393D01*
X007715Y015381D01*
X007755Y015381D01*
X007795Y015381D01*
X007873Y015393D01*
X007949Y015418D01*
X008020Y015454D01*
X008084Y015501D01*
X008110Y015527D01*
X008110Y015497D01*
X008159Y015380D01*
X008249Y015290D01*
X008316Y015262D01*
X008310Y015026D01*
X005442Y015026D01*
X005281Y014959D01*
X005106Y014784D01*
X005106Y014784D01*
X004982Y014660D01*
X004915Y014498D01*
X004915Y014047D01*
X004820Y013952D01*
X004812Y013932D01*
X004763Y013980D01*
X004693Y014031D01*
X004616Y014071D01*
X004534Y014097D01*
X004448Y014111D01*
X004425Y014111D01*
X004425Y013581D01*
X004385Y013581D01*
X004385Y014111D01*
X004362Y014111D01*
X004276Y014097D01*
X004194Y014071D01*
X004117Y014031D01*
X004047Y013980D01*
X003985Y013919D01*
X003935Y013849D01*
X003895Y013772D01*
X003869Y013690D01*
X003855Y013604D01*
X003855Y013581D01*
X004385Y013581D01*
X004385Y013541D01*
X003855Y013541D01*
X003855Y013518D01*
X003869Y013432D01*
X003895Y013350D01*
X003935Y013273D01*
X003985Y013203D01*
X004047Y013141D01*
X004117Y013090D01*
X004194Y013051D01*
X004276Y013024D01*
X004362Y013011D01*
X004385Y013011D01*
X004385Y013541D01*
X004425Y013541D01*
X004425Y013011D01*
X004448Y013011D01*
X004534Y013024D01*
X004616Y013051D01*
X004693Y013090D01*
X004763Y013141D01*
X004812Y013190D01*
X004820Y013170D01*
X004915Y013075D01*
X004915Y012947D01*
X004820Y012852D01*
X004812Y012832D01*
X004763Y012880D01*
X004693Y012931D01*
X004616Y012971D01*
X004534Y012997D01*
X004448Y013011D01*
X004425Y013011D01*
X004425Y012481D01*
X004385Y012481D01*
X004385Y013011D01*
X004362Y013011D01*
X004276Y012997D01*
X004194Y012971D01*
X004117Y012931D01*
X004047Y012880D01*
X003985Y012819D01*
X003935Y012749D01*
X003895Y012672D01*
X003869Y012590D01*
X003855Y012504D01*
X003855Y012481D01*
X004385Y012481D01*
X004385Y012441D01*
X003855Y012441D01*
X003855Y012418D01*
X003869Y012332D01*
X003895Y012250D01*
X003935Y012173D01*
X003985Y012103D01*
X004047Y012041D01*
X004117Y011990D01*
X004194Y011951D01*
X004276Y011924D01*
X004362Y011911D01*
X004385Y011911D01*
X004385Y012441D01*
X004425Y012441D01*
X004425Y011911D01*
X004448Y011911D01*
X004534Y011924D01*
X004616Y011951D01*
X004693Y011990D01*
X004763Y012041D01*
X004812Y012090D01*
X004820Y012070D01*
X004915Y011975D01*
X004915Y011822D01*
X004820Y011727D01*
X004812Y011707D01*
X004763Y011755D01*
X004693Y011806D01*
X004616Y011846D01*
X004534Y011872D01*
X004448Y011886D01*
X004425Y011886D01*
X004425Y011356D01*
X004385Y011356D01*
X004385Y011886D01*
X004362Y011886D01*
X004276Y011872D01*
X004194Y011846D01*
X004117Y011806D01*
X004047Y011755D01*
X003985Y011694D01*
X003935Y011624D01*
X003895Y011547D01*
X003869Y011465D01*
X003855Y011379D01*
X003855Y011356D01*
X004385Y011356D01*
X004385Y011316D01*
X003855Y011316D01*
X003855Y011293D01*
X003869Y011207D01*
X003895Y011125D01*
X003935Y011048D01*
X003985Y010978D01*
X004047Y010916D01*
X004117Y010865D01*
X004194Y010826D01*
X004276Y010799D01*
X004362Y010786D01*
X004385Y010786D01*
X004385Y011316D01*
X004425Y011316D01*
X004425Y010786D01*
X004448Y010786D01*
X004534Y010799D01*
X004616Y010826D01*
X004693Y010865D01*
X004763Y010916D01*
X004812Y010965D01*
X004820Y010945D01*
X005014Y010751D01*
X005268Y010646D01*
X005542Y010646D01*
X005796Y010751D01*
X005905Y010860D01*
X006014Y010751D01*
X006268Y010646D01*
X006542Y010646D01*
X006796Y010751D01*
X006886Y010841D01*
X006889Y010841D01*
X006776Y010729D01*
X006700Y010545D01*
X006700Y010346D01*
X006776Y010163D01*
X006917Y010022D01*
X007101Y009946D01*
X007299Y009946D01*
X007483Y010022D01*
X007598Y010137D01*
X007595Y010129D01*
X007595Y009792D01*
X007644Y009675D01*
X007734Y009585D01*
X007735Y009584D01*
X007735Y009461D01*
X008305Y009461D01*
X008305Y009461D01*
X007735Y009461D01*
X007735Y009338D01*
X007734Y009337D01*
X007644Y009247D01*
X007595Y009129D01*
X007595Y008792D01*
X007644Y008675D01*
X007734Y008585D01*
X007735Y008584D01*
X007735Y008461D01*
X008305Y008461D01*
X008875Y008461D01*
X008875Y008584D01*
X008876Y008585D01*
X008966Y008675D01*
X009015Y008792D01*
X009015Y008933D01*
X009682Y009600D01*
X009700Y000981D01*
X007270Y000981D01*
X007280Y001017D01*
X007280Y001391D01*
X006750Y001391D01*
X006750Y001431D01*
X007280Y001431D01*
X007280Y001805D01*
X007268Y001850D01*
X007244Y001891D01*
X007215Y001920D01*
X007315Y002020D01*
X007420Y002274D01*
X007420Y002548D01*
X007315Y002802D01*
X007206Y002911D01*
X007315Y003020D01*
X007420Y003274D01*
X007420Y003548D01*
X007315Y003802D01*
X007121Y003996D01*
X006867Y004101D01*
X006593Y004101D01*
X006339Y003996D01*
X006145Y003802D01*
X006040Y003548D01*
X006040Y003274D01*
X006145Y003020D01*
X006254Y002911D01*
X006145Y002802D01*
X006040Y002548D01*
X006040Y002274D01*
X006145Y002020D01*
X006245Y001920D01*
X006216Y001891D01*
X006192Y001850D01*
X006180Y001805D01*
X006180Y001431D01*
X006710Y001431D01*
X006710Y001391D01*
X006180Y001391D01*
X006180Y001017D01*
X006190Y000981D01*
X004784Y000981D01*
X004793Y000996D01*
X004805Y001042D01*
X004805Y001416D01*
X004275Y001416D01*
X004275Y001456D01*
X004805Y001456D01*
X004805Y001830D01*
X004793Y001875D01*
X004769Y001916D01*
X004740Y001945D01*
X004840Y002045D01*
X004897Y002181D01*
X004934Y002181D01*
X004963Y002153D01*
X005080Y002104D01*
X005680Y002104D01*
X005797Y002153D01*
X005888Y002243D01*
X005936Y002360D01*
X005936Y002803D01*
X005888Y002920D01*
X005872Y002936D01*
X005888Y002951D01*
X005936Y003069D01*
X005936Y003511D01*
X005888Y003629D01*
X005797Y003719D01*
X005680Y003768D01*
X005468Y003768D01*
X005461Y003775D01*
X005314Y003836D01*
X004831Y003836D01*
X004646Y004021D01*
X004392Y004126D01*
X004118Y004126D01*
X003864Y004021D01*
X003670Y003827D01*
X003565Y003573D01*
X003565Y003299D01*
X003670Y003045D01*
X003779Y002936D01*
X003670Y002827D01*
X003565Y002573D01*
X003565Y002299D01*
X003670Y002045D01*
X003770Y001945D01*
X003741Y001916D01*
X003717Y001875D01*
X003705Y001830D01*
X003705Y001456D01*
X004235Y001456D01*
X004235Y001416D01*
X003705Y001416D01*
X003705Y001042D01*
X003717Y000996D01*
X003726Y000981D01*
X003108Y000981D01*
X003156Y001064D01*
X003229Y001337D01*
X003229Y001619D01*
X003156Y001891D01*
X003015Y002136D01*
X002816Y002335D01*
X002571Y002476D01*
X002299Y002549D01*
X002017Y002549D01*
X001745Y002476D01*
X001625Y002407D01*
X001625Y020399D01*
X001682Y020367D01*
X001954Y020294D01*
X002236Y020294D01*
X002508Y020367D01*
X002753Y020508D01*
X002952Y020707D01*
X003093Y020951D01*
X003166Y021224D01*
X003166Y021506D01*
X003093Y021778D01*
X003030Y021887D01*
X009656Y021887D01*
X009665Y017669D01*
X009584Y017791D01*
X009584Y018786D01*
X009471Y019058D01*
X009263Y019266D01*
X008991Y019379D01*
X008644Y019357D02*
X001625Y019357D01*
X001625Y019515D02*
X009661Y019515D01*
X009661Y019674D02*
X001625Y019674D01*
X001625Y019832D02*
X009660Y019832D01*
X009660Y019991D02*
X001625Y019991D01*
X001625Y020149D02*
X009660Y020149D01*
X009659Y020308D02*
X002289Y020308D01*
X001901Y020308D02*
X001625Y020308D01*
X002681Y020466D02*
X009659Y020466D01*
X009659Y020625D02*
X002870Y020625D01*
X002996Y020783D02*
X009658Y020783D01*
X009658Y020942D02*
X003088Y020942D01*
X003133Y021100D02*
X009658Y021100D01*
X009657Y021259D02*
X003166Y021259D01*
X003166Y021417D02*
X009657Y021417D01*
X009657Y021576D02*
X003147Y021576D01*
X003105Y021734D02*
X009656Y021734D01*
X010401Y021734D02*
X016740Y021734D01*
X016602Y021576D02*
X010400Y021576D01*
X009662Y019198D02*
X009331Y019198D01*
X009479Y019040D02*
X009662Y019040D01*
X009662Y018881D02*
X009545Y018881D01*
X009584Y018723D02*
X009663Y018723D01*
X009663Y018564D02*
X009584Y018564D01*
X009584Y018406D02*
X009663Y018406D01*
X009664Y018247D02*
X009584Y018247D01*
X009584Y018089D02*
X009664Y018089D01*
X009664Y017930D02*
X009584Y017930D01*
X009596Y017772D02*
X009665Y017772D01*
X009210Y016979D02*
X001625Y016979D01*
X001625Y016821D02*
X009315Y016821D01*
X009350Y016662D02*
X001625Y016662D01*
X001625Y016504D02*
X004351Y016504D01*
X004299Y016482D02*
X004209Y016392D01*
X004160Y016274D01*
X004160Y016245D01*
X004134Y016271D01*
X004070Y016318D01*
X003999Y016354D01*
X003923Y016378D01*
X003845Y016391D01*
X003805Y016391D01*
X003765Y016391D01*
X003687Y016378D01*
X003611Y016354D01*
X003540Y016318D01*
X003476Y016271D01*
X003420Y016215D01*
X003373Y016150D01*
X003337Y016080D01*
X003312Y016004D01*
X003300Y015926D01*
X003300Y015886D01*
X003805Y015886D01*
X003805Y016391D01*
X003805Y015886D01*
X003805Y015886D01*
X003805Y015886D01*
X003300Y015886D01*
X003300Y015846D01*
X003312Y015768D01*
X003337Y015692D01*
X003373Y015621D01*
X003420Y015557D01*
X003476Y015501D01*
X003540Y015454D01*
X003611Y015418D01*
X003687Y015393D01*
X003765Y015381D01*
X003805Y015381D01*
X003845Y015381D01*
X003923Y015393D01*
X003999Y015418D01*
X004070Y015454D01*
X004134Y015501D01*
X004160Y015527D01*
X004160Y015497D01*
X004209Y015380D01*
X004299Y015290D01*
X004416Y015241D01*
X005194Y015241D01*
X005311Y015290D01*
X005401Y015380D01*
X005450Y015497D01*
X005450Y016274D01*
X005401Y016392D01*
X005311Y016482D01*
X005194Y016531D01*
X004416Y016531D01*
X004299Y016482D01*
X004189Y016345D02*
X004015Y016345D01*
X003805Y016345D02*
X003805Y016345D01*
X003805Y016187D02*
X003805Y016187D01*
X003805Y016028D02*
X003805Y016028D01*
X003805Y015886D02*
X003805Y015381D01*
X003805Y015886D01*
X003805Y015886D01*
X003805Y015870D02*
X003805Y015870D01*
X003805Y015711D02*
X003805Y015711D01*
X003805Y015553D02*
X003805Y015553D01*
X003805Y015394D02*
X003805Y015394D01*
X003927Y015394D02*
X004203Y015394D01*
X003683Y015394D02*
X001625Y015394D01*
X001625Y015236D02*
X008315Y015236D01*
X008311Y015077D02*
X001625Y015077D01*
X001625Y014919D02*
X005241Y014919D01*
X005082Y014760D02*
X001625Y014760D01*
X001625Y014602D02*
X004958Y014602D01*
X004915Y014443D02*
X001625Y014443D01*
X001625Y014285D02*
X004915Y014285D01*
X004915Y014126D02*
X001625Y014126D01*
X001625Y013968D02*
X004034Y013968D01*
X003914Y013809D02*
X001625Y013809D01*
X001625Y013651D02*
X003862Y013651D01*
X003859Y013492D02*
X001625Y013492D01*
X001625Y013334D02*
X003903Y013334D01*
X004013Y013175D02*
X001625Y013175D01*
X001625Y013017D02*
X004324Y013017D01*
X004385Y013017D02*
X004425Y013017D01*
X004486Y013017D02*
X004915Y013017D01*
X004827Y012858D02*
X004785Y012858D01*
X004425Y012858D02*
X004385Y012858D01*
X004385Y012700D02*
X004425Y012700D01*
X004425Y012541D02*
X004385Y012541D01*
X004385Y012383D02*
X004425Y012383D01*
X004425Y012224D02*
X004385Y012224D01*
X004385Y012066D02*
X004425Y012066D01*
X004788Y012066D02*
X004824Y012066D01*
X004915Y011907D02*
X001625Y011907D01*
X001625Y011749D02*
X004040Y011749D01*
X003917Y011590D02*
X001625Y011590D01*
X001625Y011432D02*
X003863Y011432D01*
X003858Y011273D02*
X001625Y011273D01*
X001625Y011115D02*
X003900Y011115D01*
X004007Y010956D02*
X001625Y010956D01*
X001625Y010798D02*
X004286Y010798D01*
X004385Y010798D02*
X004425Y010798D01*
X004524Y010798D02*
X004967Y010798D01*
X004815Y010956D02*
X004803Y010956D01*
X004425Y010956D02*
X004385Y010956D01*
X004385Y011115D02*
X004425Y011115D01*
X004425Y011273D02*
X004385Y011273D01*
X004385Y011432D02*
X004425Y011432D01*
X004425Y011590D02*
X004385Y011590D01*
X004385Y011749D02*
X004425Y011749D01*
X004770Y011749D02*
X004842Y011749D01*
X004022Y012066D02*
X001625Y012066D01*
X001625Y012224D02*
X003908Y012224D01*
X003860Y012383D02*
X001625Y012383D01*
X001625Y012541D02*
X003861Y012541D01*
X003910Y012700D02*
X001625Y012700D01*
X001625Y012858D02*
X004025Y012858D01*
X004385Y013175D02*
X004425Y013175D01*
X004425Y013334D02*
X004385Y013334D01*
X004385Y013492D02*
X004425Y013492D01*
X004425Y013651D02*
X004385Y013651D01*
X004385Y013809D02*
X004425Y013809D01*
X004425Y013968D02*
X004385Y013968D01*
X004776Y013968D02*
X004836Y013968D01*
X004797Y013175D02*
X004818Y013175D01*
X005407Y015394D02*
X007633Y015394D01*
X007755Y015394D02*
X007755Y015394D01*
X007755Y015381D02*
X007755Y015886D01*
X007755Y015886D01*
X007755Y015381D01*
X007877Y015394D02*
X008153Y015394D01*
X007755Y015553D02*
X007755Y015553D01*
X007755Y015711D02*
X007755Y015711D01*
X007755Y015870D02*
X007755Y015870D01*
X007755Y016028D02*
X007755Y016028D01*
X007755Y016187D02*
X007755Y016187D01*
X007755Y016345D02*
X007755Y016345D01*
X007545Y016345D02*
X005421Y016345D01*
X005450Y016187D02*
X007350Y016187D01*
X007270Y016028D02*
X005450Y016028D01*
X005450Y015870D02*
X007250Y015870D01*
X007281Y015711D02*
X005450Y015711D01*
X005450Y015553D02*
X007374Y015553D01*
X007965Y016345D02*
X008139Y016345D01*
X008301Y016504D02*
X005259Y016504D01*
X005141Y017034D02*
X004847Y017034D01*
X004575Y017147D01*
X004367Y017355D01*
X004254Y017627D01*
X004254Y018761D01*
X004367Y019033D01*
X004575Y019241D01*
X004847Y019354D01*
X005141Y019354D01*
X005413Y019241D01*
X005621Y019033D01*
X005734Y018761D01*
X005734Y017627D01*
X005621Y017355D01*
X005413Y017147D01*
X005141Y017034D01*
X005392Y017138D02*
X008506Y017138D01*
X008300Y017296D02*
X007795Y017296D01*
X007780Y017286D02*
X007857Y017341D01*
X007924Y017408D01*
X007979Y017484D01*
X008022Y017569D01*
X008051Y017658D01*
X008066Y017752D01*
X008066Y018159D01*
X007526Y018159D01*
X007526Y018279D01*
X007406Y018279D01*
X007406Y019237D01*
X007326Y019224D01*
X007236Y019195D01*
X007152Y019152D01*
X007075Y019097D01*
X007008Y019030D01*
X006953Y018953D01*
X006910Y018869D01*
X006881Y018779D01*
X006866Y018686D01*
X006866Y018279D01*
X007406Y018279D01*
X007406Y018159D01*
X006866Y018159D01*
X006866Y017752D01*
X006881Y017658D01*
X006910Y017569D01*
X006953Y017484D01*
X007008Y017408D01*
X007075Y017341D01*
X007152Y017286D01*
X007236Y017243D01*
X007326Y017214D01*
X007406Y017201D01*
X007406Y018159D01*
X007526Y018159D01*
X007526Y017201D01*
X007607Y017214D01*
X007696Y017243D01*
X007780Y017286D01*
X007958Y017455D02*
X008186Y017455D01*
X008120Y017613D02*
X008037Y017613D01*
X008066Y017772D02*
X008104Y017772D01*
X008104Y017930D02*
X008066Y017930D01*
X008066Y018089D02*
X008104Y018089D01*
X008104Y018247D02*
X007526Y018247D01*
X007526Y018279D02*
X008066Y018279D01*
X008066Y018686D01*
X008051Y018779D01*
X008022Y018869D01*
X007979Y018953D01*
X007924Y019030D01*
X007857Y019097D01*
X007780Y019152D01*
X007696Y019195D01*
X007607Y019224D01*
X007526Y019237D01*
X007526Y018279D01*
X007406Y018247D02*
X005734Y018247D01*
X005734Y018089D02*
X006866Y018089D01*
X006866Y017930D02*
X005734Y017930D01*
X005734Y017772D02*
X006866Y017772D01*
X006895Y017613D02*
X005728Y017613D01*
X005663Y017455D02*
X006974Y017455D01*
X007137Y017296D02*
X005563Y017296D01*
X004596Y017138D02*
X001625Y017138D01*
X001625Y017296D02*
X003253Y017296D01*
X003225Y017316D02*
X003302Y017261D01*
X003386Y017218D01*
X003476Y017189D01*
X003556Y017176D01*
X003556Y018134D01*
X003016Y018134D01*
X003016Y017727D01*
X003031Y017633D01*
X003060Y017544D01*
X003103Y017459D01*
X003158Y017383D01*
X003225Y017316D01*
X003106Y017455D02*
X001625Y017455D01*
X001625Y017613D02*
X003037Y017613D01*
X003016Y017772D02*
X001625Y017772D01*
X001625Y017930D02*
X003016Y017930D01*
X003016Y018089D02*
X001625Y018089D01*
X001625Y018247D02*
X003556Y018247D01*
X003556Y018254D02*
X003556Y018134D01*
X003676Y018134D01*
X003676Y018254D01*
X003556Y018254D01*
X003556Y019212D01*
X003476Y019199D01*
X003386Y019170D01*
X003302Y019127D01*
X003225Y019072D01*
X003158Y019005D01*
X003103Y018928D01*
X003060Y018844D01*
X003031Y018754D01*
X003016Y018661D01*
X003016Y018254D01*
X003556Y018254D01*
X003676Y018254D02*
X003676Y019212D01*
X003757Y019199D01*
X003846Y019170D01*
X003930Y019127D01*
X004007Y019072D01*
X004074Y019005D01*
X004129Y018928D01*
X004172Y018844D01*
X004201Y018754D01*
X004216Y018661D01*
X004216Y018254D01*
X003676Y018254D01*
X003676Y018247D02*
X004254Y018247D01*
X004216Y018134D02*
X003676Y018134D01*
X003676Y017176D01*
X003757Y017189D01*
X003846Y017218D01*
X003930Y017261D01*
X004007Y017316D01*
X004074Y017383D01*
X004129Y017459D01*
X004172Y017544D01*
X004201Y017633D01*
X004216Y017727D01*
X004216Y018134D01*
X004216Y018089D02*
X004254Y018089D01*
X004254Y017930D02*
X004216Y017930D01*
X004216Y017772D02*
X004254Y017772D01*
X004259Y017613D02*
X004195Y017613D01*
X004126Y017455D02*
X004325Y017455D01*
X004425Y017296D02*
X003980Y017296D01*
X003676Y017296D02*
X003556Y017296D01*
X003556Y017455D02*
X003676Y017455D01*
X003676Y017613D02*
X003556Y017613D01*
X003556Y017772D02*
X003676Y017772D01*
X003676Y017930D02*
X003556Y017930D01*
X003556Y018089D02*
X003676Y018089D01*
X003676Y018406D02*
X003556Y018406D01*
X003556Y018564D02*
X003676Y018564D01*
X003676Y018723D02*
X003556Y018723D01*
X003556Y018881D02*
X003676Y018881D01*
X003676Y019040D02*
X003556Y019040D01*
X003556Y019198D02*
X003676Y019198D01*
X003759Y019198D02*
X004532Y019198D01*
X004373Y019040D02*
X004039Y019040D01*
X004153Y018881D02*
X004304Y018881D01*
X004254Y018723D02*
X004206Y018723D01*
X004216Y018564D02*
X004254Y018564D01*
X004254Y018406D02*
X004216Y018406D01*
X003473Y019198D02*
X001625Y019198D01*
X001625Y019040D02*
X003193Y019040D01*
X003079Y018881D02*
X001625Y018881D01*
X001625Y018723D02*
X003026Y018723D01*
X003016Y018564D02*
X001625Y018564D01*
X001625Y018406D02*
X003016Y018406D01*
X003595Y016345D02*
X001625Y016345D01*
X001625Y016187D02*
X003400Y016187D01*
X003320Y016028D02*
X001625Y016028D01*
X001625Y015870D02*
X003300Y015870D01*
X003331Y015711D02*
X001625Y015711D01*
X001625Y015553D02*
X003424Y015553D01*
X005734Y018406D02*
X006866Y018406D01*
X006866Y018564D02*
X005734Y018564D01*
X005734Y018723D02*
X006872Y018723D01*
X006916Y018881D02*
X005684Y018881D01*
X005615Y019040D02*
X007018Y019040D01*
X007246Y019198D02*
X005456Y019198D01*
X007406Y019198D02*
X007526Y019198D01*
X007526Y019040D02*
X007406Y019040D01*
X007406Y018881D02*
X007526Y018881D01*
X007526Y018723D02*
X007406Y018723D01*
X007406Y018564D02*
X007526Y018564D01*
X007526Y018406D02*
X007406Y018406D01*
X007406Y018089D02*
X007526Y018089D01*
X007526Y017930D02*
X007406Y017930D01*
X007406Y017772D02*
X007526Y017772D01*
X007526Y017613D02*
X007406Y017613D01*
X007406Y017455D02*
X007526Y017455D01*
X007526Y017296D02*
X007406Y017296D01*
X008066Y018406D02*
X008104Y018406D01*
X008104Y018564D02*
X008066Y018564D01*
X008060Y018723D02*
X008104Y018723D01*
X008143Y018881D02*
X008016Y018881D01*
X007914Y019040D02*
X008209Y019040D01*
X008357Y019198D02*
X007686Y019198D01*
X009209Y016504D02*
X009350Y016504D01*
X009350Y015378D02*
X009350Y010389D01*
X009266Y010341D01*
X009015Y010341D01*
X009015Y010629D01*
X008981Y010711D01*
X009015Y010792D01*
X009015Y011129D01*
X008981Y011211D01*
X009015Y011292D01*
X009015Y011629D01*
X008981Y011711D01*
X009015Y011792D01*
X009015Y012129D01*
X008966Y012247D01*
X008876Y012337D01*
X008875Y012338D01*
X008875Y012461D01*
X008875Y012584D01*
X008876Y012585D01*
X008966Y012675D01*
X009015Y012792D01*
X009015Y013129D01*
X008966Y013247D01*
X008876Y013337D01*
X008759Y013386D01*
X008400Y013386D01*
X008372Y013395D01*
X008360Y013394D01*
X008360Y014028D01*
X008477Y014146D01*
X008593Y014146D01*
X008754Y014213D01*
X008878Y014337D01*
X009052Y014511D01*
X009112Y014567D01*
X009114Y014573D01*
X009118Y014577D01*
X009149Y014652D01*
X009183Y014727D01*
X009183Y014733D01*
X009185Y014738D01*
X009185Y014820D01*
X009196Y015262D01*
X009261Y015290D01*
X009350Y015378D01*
X009350Y015236D02*
X009195Y015236D01*
X009191Y015077D02*
X009350Y015077D01*
X009350Y014919D02*
X009187Y014919D01*
X009185Y014760D02*
X009350Y014760D01*
X009350Y014602D02*
X009128Y014602D01*
X008985Y014443D02*
X009350Y014443D01*
X009350Y014285D02*
X008826Y014285D01*
X008458Y014126D02*
X009350Y014126D01*
X009350Y013968D02*
X008360Y013968D01*
X008360Y013809D02*
X009350Y013809D01*
X009350Y013651D02*
X008360Y013651D01*
X008360Y013492D02*
X009350Y013492D01*
X009350Y013334D02*
X008880Y013334D01*
X008996Y013175D02*
X009350Y013175D01*
X009350Y013017D02*
X009015Y013017D01*
X009015Y012858D02*
X009350Y012858D01*
X009350Y012700D02*
X008977Y012700D01*
X008875Y012541D02*
X009350Y012541D01*
X009350Y012383D02*
X008875Y012383D01*
X008875Y012461D02*
X008305Y012461D01*
X008875Y012461D01*
X008976Y012224D02*
X009350Y012224D01*
X009350Y012066D02*
X009015Y012066D01*
X009015Y011907D02*
X009350Y011907D01*
X009350Y011749D02*
X008997Y011749D01*
X009015Y011590D02*
X009350Y011590D01*
X009350Y011432D02*
X009015Y011432D01*
X009007Y011273D02*
X009350Y011273D01*
X009350Y011115D02*
X009015Y011115D01*
X009015Y010956D02*
X009350Y010956D01*
X009350Y010798D02*
X009015Y010798D01*
X009011Y010639D02*
X009350Y010639D01*
X009350Y010481D02*
X009015Y010481D01*
X008405Y009961D02*
X008280Y009961D01*
X007595Y010005D02*
X007443Y010005D01*
X007595Y009847D02*
X001625Y009847D01*
X001625Y010005D02*
X006957Y010005D01*
X006776Y010164D02*
X001625Y010164D01*
X001625Y010322D02*
X006710Y010322D01*
X006700Y010481D02*
X001625Y010481D01*
X001625Y010639D02*
X006739Y010639D01*
X006843Y010798D02*
X006845Y010798D01*
X005967Y010798D02*
X005843Y010798D01*
X005667Y009276D02*
X005393Y009276D01*
X005139Y009171D01*
X004945Y008977D01*
X004937Y008957D01*
X004888Y009005D01*
X004818Y009056D01*
X004741Y009096D01*
X004659Y009122D01*
X004573Y009136D01*
X004550Y009136D01*
X004550Y008606D01*
X004510Y008606D01*
X004510Y009136D01*
X004487Y009136D01*
X004401Y009122D01*
X004319Y009096D01*
X004242Y009056D01*
X004172Y009005D01*
X004110Y008944D01*
X004060Y008874D01*
X004020Y008797D01*
X003994Y008715D01*
X003980Y008629D01*
X003980Y008606D01*
X004510Y008606D01*
X004510Y008566D01*
X003980Y008566D01*
X003980Y008543D01*
X003994Y008457D01*
X004020Y008375D01*
X004060Y008298D01*
X004110Y008228D01*
X004172Y008166D01*
X004242Y008115D01*
X004319Y008076D01*
X004401Y008049D01*
X004487Y008036D01*
X004510Y008036D01*
X004510Y008566D01*
X004550Y008566D01*
X004550Y008036D01*
X004573Y008036D01*
X004659Y008049D01*
X004741Y008076D01*
X004818Y008115D01*
X004888Y008166D01*
X004937Y008215D01*
X004945Y008195D01*
X005117Y008023D01*
X004945Y007852D01*
X004937Y007832D01*
X004888Y007880D01*
X004818Y007931D01*
X004741Y007971D01*
X004659Y007997D01*
X004573Y008011D01*
X004550Y008011D01*
X004550Y007481D01*
X004510Y007481D01*
X004510Y008011D01*
X004487Y008011D01*
X004401Y007997D01*
X004319Y007971D01*
X004242Y007931D01*
X004172Y007880D01*
X004110Y007819D01*
X004060Y007749D01*
X004020Y007672D01*
X003994Y007590D01*
X003980Y007504D01*
X003980Y007481D01*
X004510Y007481D01*
X004510Y007441D01*
X003980Y007441D01*
X003980Y007418D01*
X003994Y007332D01*
X004020Y007250D01*
X004060Y007173D01*
X004110Y007103D01*
X004172Y007041D01*
X004242Y006990D01*
X004319Y006951D01*
X004401Y006924D01*
X004487Y006911D01*
X004510Y006911D01*
X004510Y007441D01*
X004550Y007441D01*
X004550Y006911D01*
X004573Y006911D01*
X004659Y006924D01*
X004741Y006951D01*
X004818Y006990D01*
X004888Y007041D01*
X004937Y007090D01*
X004945Y007070D01*
X005117Y006898D01*
X004945Y006727D01*
X004937Y006707D01*
X004888Y006755D01*
X004818Y006806D01*
X004741Y006846D01*
X004659Y006872D01*
X004573Y006886D01*
X004550Y006886D01*
X004550Y006356D01*
X004510Y006356D01*
X004510Y006886D01*
X004487Y006886D01*
X004401Y006872D01*
X004319Y006846D01*
X004242Y006806D01*
X004172Y006755D01*
X004110Y006694D01*
X004060Y006624D01*
X004020Y006547D01*
X003994Y006465D01*
X003980Y006379D01*
X003980Y006356D01*
X004510Y006356D01*
X004510Y006316D01*
X003980Y006316D01*
X003980Y006293D01*
X003994Y006207D01*
X004020Y006125D01*
X004060Y006048D01*
X004110Y005978D01*
X004172Y005916D01*
X004242Y005865D01*
X004319Y005826D01*
X004401Y005799D01*
X004487Y005786D01*
X004510Y005786D01*
X004510Y006316D01*
X004550Y006316D01*
X004550Y005786D01*
X004573Y005786D01*
X004659Y005799D01*
X004741Y005826D01*
X004818Y005865D01*
X004888Y005916D01*
X004937Y005965D01*
X004945Y005945D01*
X005117Y005773D01*
X004945Y005602D01*
X004937Y005582D01*
X004888Y005630D01*
X004818Y005681D01*
X004741Y005721D01*
X004659Y005747D01*
X004573Y005761D01*
X004550Y005761D01*
X004550Y005231D01*
X004510Y005231D01*
X004510Y005761D01*
X004487Y005761D01*
X004401Y005747D01*
X004319Y005721D01*
X004242Y005681D01*
X004172Y005630D01*
X004110Y005569D01*
X004060Y005499D01*
X004020Y005422D01*
X003994Y005340D01*
X003980Y005254D01*
X003980Y005231D01*
X004510Y005231D01*
X004510Y005191D01*
X003980Y005191D01*
X003980Y005168D01*
X003994Y005082D01*
X004020Y005000D01*
X004060Y004923D01*
X004110Y004853D01*
X004172Y004791D01*
X004242Y004740D01*
X004319Y004701D01*
X004401Y004674D01*
X004487Y004661D01*
X004510Y004661D01*
X004510Y005191D01*
X004550Y005191D01*
X004550Y004661D01*
X004573Y004661D01*
X004659Y004674D01*
X004741Y004701D01*
X004818Y004740D01*
X004888Y004791D01*
X004937Y004840D01*
X004945Y004820D01*
X005139Y004626D01*
X005393Y004521D01*
X005667Y004521D01*
X005921Y004626D01*
X006030Y004735D01*
X006139Y004626D01*
X006393Y004521D01*
X006667Y004521D01*
X006709Y004538D01*
X007211Y004036D01*
X007344Y003981D01*
X008956Y003981D01*
X009089Y004036D01*
X009190Y004137D01*
X009244Y004269D01*
X009244Y006652D01*
X009190Y006784D01*
X009104Y006870D01*
X009104Y006929D01*
X009105Y006998D01*
X009104Y007000D01*
X009104Y007002D01*
X009078Y007066D01*
X009052Y007131D01*
X009051Y007132D01*
X009050Y007134D01*
X009001Y007183D01*
X008987Y007198D01*
X008981Y007211D01*
X009015Y007292D01*
X009015Y007629D01*
X008981Y007711D01*
X009015Y007792D01*
X009015Y008129D01*
X008966Y008247D01*
X008876Y008337D01*
X008875Y008338D01*
X008875Y008461D01*
X008305Y008461D01*
X008305Y008461D01*
X008305Y008461D01*
X007735Y008461D01*
X007735Y008338D01*
X007734Y008337D01*
X007644Y008247D01*
X007607Y008159D01*
X007601Y008152D01*
X007578Y008092D01*
X007546Y008060D01*
X006980Y008060D01*
X007115Y008195D01*
X007220Y008449D01*
X007220Y008723D01*
X007115Y008977D01*
X006921Y009171D01*
X006667Y009276D01*
X006393Y009276D01*
X006139Y009171D01*
X006030Y009062D01*
X005921Y009171D01*
X005667Y009276D01*
X005819Y009213D02*
X006241Y009213D01*
X006819Y009213D02*
X007630Y009213D01*
X007595Y009054D02*
X007037Y009054D01*
X007148Y008896D02*
X007595Y008896D01*
X007618Y008737D02*
X007214Y008737D01*
X007220Y008579D02*
X007735Y008579D01*
X007735Y008420D02*
X007208Y008420D01*
X007143Y008262D02*
X007658Y008262D01*
X007582Y008103D02*
X007023Y008103D01*
X007735Y009371D02*
X001625Y009371D01*
X001625Y009213D02*
X005241Y009213D01*
X005023Y009054D02*
X004821Y009054D01*
X004550Y009054D02*
X004510Y009054D01*
X004510Y008896D02*
X004550Y008896D01*
X004550Y008737D02*
X004510Y008737D01*
X004510Y008579D02*
X001625Y008579D01*
X001625Y008737D02*
X004001Y008737D01*
X004075Y008896D02*
X001625Y008896D01*
X001625Y009054D02*
X004239Y009054D01*
X004005Y008420D02*
X001625Y008420D01*
X001625Y008262D02*
X004086Y008262D01*
X004265Y008103D02*
X001625Y008103D01*
X001625Y007945D02*
X004268Y007945D01*
X004087Y007786D02*
X001625Y007786D01*
X001625Y007628D02*
X004006Y007628D01*
X004000Y007311D02*
X001625Y007311D01*
X001625Y007469D02*
X004510Y007469D01*
X004510Y007311D02*
X004550Y007311D01*
X004550Y007152D02*
X004510Y007152D01*
X004510Y006994D02*
X004550Y006994D01*
X004550Y006835D02*
X004510Y006835D01*
X004510Y006677D02*
X004550Y006677D01*
X004550Y006518D02*
X004510Y006518D01*
X004510Y006360D02*
X004550Y006360D01*
X004550Y006201D02*
X004510Y006201D01*
X004510Y006043D02*
X004550Y006043D01*
X004550Y005884D02*
X004510Y005884D01*
X004510Y005726D02*
X004550Y005726D01*
X004550Y005567D02*
X004510Y005567D01*
X004510Y005409D02*
X004550Y005409D01*
X004550Y005250D02*
X004510Y005250D01*
X004510Y005092D02*
X004550Y005092D01*
X004550Y004933D02*
X004510Y004933D01*
X004510Y004775D02*
X004550Y004775D01*
X004866Y004775D02*
X004990Y004775D01*
X005162Y004616D02*
X001625Y004616D01*
X001625Y004458D02*
X006790Y004458D01*
X006948Y004299D02*
X001625Y004299D01*
X001625Y004141D02*
X007107Y004141D01*
X007134Y003982D02*
X007341Y003982D01*
X007293Y003824D02*
X009694Y003824D01*
X009694Y003982D02*
X008959Y003982D01*
X009191Y004141D02*
X009694Y004141D01*
X009693Y004299D02*
X009244Y004299D01*
X009244Y004458D02*
X009693Y004458D01*
X009693Y004616D02*
X009244Y004616D01*
X009244Y004775D02*
X009692Y004775D01*
X009692Y004933D02*
X009244Y004933D01*
X009244Y005092D02*
X009692Y005092D01*
X009691Y005250D02*
X009244Y005250D01*
X009244Y005409D02*
X009691Y005409D01*
X009691Y005567D02*
X009244Y005567D01*
X009244Y005726D02*
X009690Y005726D01*
X009690Y005884D02*
X009244Y005884D01*
X009244Y006043D02*
X009690Y006043D01*
X009689Y006201D02*
X009244Y006201D01*
X009244Y006360D02*
X009689Y006360D01*
X009689Y006518D02*
X009244Y006518D01*
X009234Y006677D02*
X009688Y006677D01*
X009688Y006835D02*
X009139Y006835D01*
X009105Y006994D02*
X009688Y006994D01*
X009687Y007152D02*
X009032Y007152D01*
X009015Y007311D02*
X009687Y007311D01*
X009687Y007469D02*
X009015Y007469D01*
X009015Y007628D02*
X009686Y007628D01*
X009686Y007786D02*
X009013Y007786D01*
X009015Y007945D02*
X009686Y007945D01*
X009685Y008103D02*
X009015Y008103D01*
X008952Y008262D02*
X009685Y008262D01*
X009685Y008420D02*
X008875Y008420D01*
X008875Y008579D02*
X009684Y008579D01*
X009684Y008737D02*
X008992Y008737D01*
X009015Y008896D02*
X009683Y008896D01*
X009683Y009054D02*
X009137Y009054D01*
X009295Y009213D02*
X009683Y009213D01*
X009682Y009371D02*
X009454Y009371D01*
X009612Y009530D02*
X009682Y009530D01*
X007735Y009530D02*
X001625Y009530D01*
X001625Y009688D02*
X007638Y009688D01*
X005037Y008103D02*
X004795Y008103D01*
X004792Y007945D02*
X005038Y007945D01*
X004550Y007945D02*
X004510Y007945D01*
X004510Y008103D02*
X004550Y008103D01*
X004550Y008262D02*
X004510Y008262D01*
X004510Y008420D02*
X004550Y008420D01*
X004550Y007786D02*
X004510Y007786D01*
X004510Y007628D02*
X004550Y007628D01*
X004074Y007152D02*
X001625Y007152D01*
X001625Y006994D02*
X004237Y006994D01*
X004299Y006835D02*
X001625Y006835D01*
X001625Y006677D02*
X004098Y006677D01*
X004011Y006518D02*
X001625Y006518D01*
X001625Y006360D02*
X003980Y006360D01*
X003995Y006201D02*
X001625Y006201D01*
X001625Y006043D02*
X004063Y006043D01*
X004216Y005884D02*
X001625Y005884D01*
X001625Y005726D02*
X004335Y005726D01*
X004109Y005567D02*
X001625Y005567D01*
X001625Y005409D02*
X004016Y005409D01*
X003980Y005250D02*
X001625Y005250D01*
X001625Y005092D02*
X003992Y005092D01*
X004054Y004933D02*
X001625Y004933D01*
X001625Y004775D02*
X004194Y004775D01*
X003826Y003982D02*
X001625Y003982D01*
X001625Y003824D02*
X003669Y003824D01*
X003603Y003665D02*
X001625Y003665D01*
X001625Y003507D02*
X003565Y003507D01*
X003565Y003348D02*
X001625Y003348D01*
X001625Y003190D02*
X003610Y003190D01*
X003684Y003031D02*
X001625Y003031D01*
X001625Y002873D02*
X003716Y002873D01*
X003624Y002714D02*
X001625Y002714D01*
X001625Y002556D02*
X003565Y002556D01*
X003565Y002397D02*
X002708Y002397D01*
X002912Y002239D02*
X003590Y002239D01*
X003655Y002080D02*
X003047Y002080D01*
X003139Y001922D02*
X003746Y001922D01*
X003705Y001763D02*
X003190Y001763D01*
X003229Y001605D02*
X003705Y001605D01*
X003705Y001288D02*
X003216Y001288D01*
X003229Y001446D02*
X004235Y001446D01*
X004275Y001446D02*
X006180Y001446D01*
X006180Y001288D02*
X004805Y001288D01*
X004805Y001129D02*
X006180Y001129D01*
X006180Y001605D02*
X004805Y001605D01*
X004805Y001763D02*
X006180Y001763D01*
X006243Y001922D02*
X004764Y001922D01*
X004855Y002080D02*
X006120Y002080D01*
X006054Y002239D02*
X005884Y002239D01*
X005936Y002397D02*
X006040Y002397D01*
X006043Y002556D02*
X005936Y002556D01*
X005936Y002714D02*
X006109Y002714D01*
X006216Y002873D02*
X005907Y002873D01*
X005921Y003031D02*
X006140Y003031D01*
X006075Y003190D02*
X005936Y003190D01*
X005936Y003348D02*
X006040Y003348D01*
X006040Y003507D02*
X005936Y003507D01*
X005851Y003665D02*
X006089Y003665D01*
X006167Y003824D02*
X005343Y003824D01*
X005234Y003436D02*
X004255Y003436D01*
X004684Y003982D02*
X006326Y003982D01*
X006162Y004616D02*
X005898Y004616D01*
X007211Y005053D02*
X007220Y005074D01*
X007220Y005348D01*
X007172Y005465D01*
X007277Y005571D01*
X007735Y005571D01*
X007735Y005461D01*
X008305Y005461D01*
X008305Y005461D01*
X007735Y005461D01*
X007735Y005332D01*
X007747Y005286D01*
X007771Y005245D01*
X007804Y005212D01*
X007846Y005188D01*
X007891Y005176D01*
X008305Y005176D01*
X008526Y005176D01*
X008526Y004700D01*
X007564Y004700D01*
X007211Y005053D01*
X007220Y005092D02*
X008526Y005092D01*
X008526Y004933D02*
X007331Y004933D01*
X007489Y004775D02*
X008526Y004775D01*
X008305Y005176D02*
X008305Y005461D01*
X008305Y005461D01*
X008305Y005176D01*
X008305Y005250D02*
X008305Y005250D01*
X008305Y005409D02*
X008305Y005409D01*
X007768Y005250D02*
X007220Y005250D01*
X007195Y005409D02*
X007735Y005409D01*
X007735Y005567D02*
X007274Y005567D01*
X007277Y005571D02*
X007277Y005571D01*
X007371Y003665D02*
X009695Y003665D01*
X009695Y003507D02*
X007420Y003507D01*
X007420Y003348D02*
X009695Y003348D01*
X009696Y003190D02*
X007385Y003190D01*
X007320Y003031D02*
X009696Y003031D01*
X009696Y002873D02*
X007244Y002873D01*
X007351Y002714D02*
X009697Y002714D01*
X009697Y002556D02*
X007417Y002556D01*
X007420Y002397D02*
X009697Y002397D01*
X009698Y002239D02*
X007406Y002239D01*
X007340Y002080D02*
X009698Y002080D01*
X009698Y001922D02*
X007217Y001922D01*
X007280Y001763D02*
X009699Y001763D01*
X009699Y001605D02*
X007280Y001605D01*
X007280Y001446D02*
X009699Y001446D01*
X009700Y001288D02*
X007280Y001288D01*
X007280Y001129D02*
X009700Y001129D01*
X010981Y002223D02*
X010981Y002513D01*
X010981Y002223D01*
X010981Y002239D02*
X010981Y002239D01*
X010981Y002397D02*
X010981Y002397D01*
X010981Y002513D02*
X010981Y002513D01*
X010318Y004299D02*
X010301Y004299D01*
X010302Y004458D02*
X010559Y004458D01*
X010641Y004616D02*
X010303Y004616D01*
X012005Y005176D02*
X012005Y005461D01*
X012005Y005176D01*
X012005Y005250D02*
X012005Y005250D01*
X012005Y005409D02*
X012005Y005409D01*
X012005Y005461D02*
X012005Y005461D01*
X014332Y003190D02*
X018315Y003190D01*
X018315Y003348D02*
X014491Y003348D01*
X014649Y003507D02*
X018378Y003507D01*
X018618Y003665D02*
X014808Y003665D01*
X014966Y003824D02*
X018795Y003824D01*
X019365Y003824D02*
X020555Y003824D01*
X020555Y003982D02*
X015125Y003982D01*
X015240Y004141D02*
X020555Y004141D01*
X020518Y003665D02*
X019542Y003665D01*
X019615Y003507D02*
X020445Y003507D01*
X020420Y003348D02*
X019640Y003348D01*
X019626Y003190D02*
X020434Y003190D01*
X020500Y003031D02*
X019560Y003031D01*
X019409Y002873D02*
X020625Y002873D01*
X020625Y002714D02*
X019055Y002714D01*
X019055Y002556D02*
X020625Y002556D01*
X020301Y002397D02*
X020301Y002397D01*
X020301Y002239D02*
X020301Y002239D01*
X020301Y002080D02*
X020301Y002080D01*
X020014Y002397D02*
X019642Y002397D01*
X019672Y002239D02*
X019963Y002239D01*
X019963Y002080D02*
X019672Y002080D01*
X019672Y002061D02*
X019334Y002061D01*
X019334Y002477D01*
X019334Y002061D01*
X019334Y002061D01*
X019334Y002061D01*
X019672Y002061D01*
X019672Y001922D02*
X019963Y001922D01*
X019334Y002080D02*
X019334Y002080D01*
X019334Y002239D02*
X019334Y002239D01*
X019334Y002397D02*
X019334Y002397D01*
X018315Y002714D02*
X018014Y002714D01*
X018079Y002556D02*
X018274Y002556D01*
X018163Y002397D02*
X018105Y002397D01*
X018098Y002239D02*
X018148Y002239D01*
X018148Y002080D02*
X018032Y002080D01*
X018148Y001922D02*
X017901Y001922D01*
X018148Y001763D02*
X017465Y001763D01*
X017559Y001605D02*
X018235Y001605D01*
X018383Y001446D02*
X017605Y001446D01*
X017605Y001288D02*
X018540Y001288D01*
X018697Y001129D02*
X017553Y001129D01*
X017856Y002873D02*
X018315Y002873D01*
X018315Y003031D02*
X014174Y003031D01*
X015264Y004299D02*
X019966Y004299D01*
X019815Y004458D02*
X015264Y004458D01*
X015264Y004616D02*
X019749Y004616D01*
X019715Y004775D02*
X015264Y004775D01*
X015264Y004933D02*
X019715Y004933D01*
X019764Y005092D02*
X015264Y005092D01*
X015264Y005250D02*
X019844Y005250D01*
X019856Y005409D02*
X015264Y005409D01*
X015264Y005567D02*
X019769Y005567D01*
X019715Y005726D02*
X015264Y005726D01*
X015264Y005884D02*
X019715Y005884D01*
X019563Y006043D02*
X015264Y006043D01*
X015264Y006201D02*
X019362Y006201D01*
X019161Y006360D02*
X015264Y006360D01*
X015264Y006518D02*
X018810Y006518D01*
X018562Y006677D02*
X015264Y006677D01*
X015264Y006835D02*
X018469Y006835D01*
X018440Y006994D02*
X015264Y006994D01*
X015264Y007152D02*
X018459Y007152D01*
X018538Y007311D02*
X015264Y007311D01*
X015264Y007469D02*
X018752Y007469D01*
X019128Y007469D02*
X019810Y007469D01*
X019744Y007628D02*
X015264Y007628D01*
X015264Y007786D02*
X019715Y007786D01*
X019715Y007945D02*
X015264Y007945D01*
X015264Y008103D02*
X019769Y008103D01*
X019855Y008262D02*
X015264Y008262D01*
X015264Y008420D02*
X020014Y008420D01*
X020555Y008579D02*
X015264Y008579D01*
X015264Y008737D02*
X020555Y008737D01*
X020555Y008896D02*
X015264Y008896D01*
X015264Y009054D02*
X020555Y009054D01*
X020555Y009213D02*
X015264Y009213D01*
X015264Y009371D02*
X020555Y009371D01*
X020555Y009530D02*
X019790Y009530D01*
X019902Y009688D02*
X020555Y009688D01*
X020085Y009847D02*
X020085Y009847D01*
X020085Y010005D02*
X020085Y010005D01*
X020993Y010956D02*
X022955Y010956D01*
X022955Y010798D02*
X021151Y010798D01*
X021310Y010639D02*
X022955Y010639D01*
X022955Y010481D02*
X021468Y010481D01*
X021627Y010322D02*
X022955Y010322D01*
X022955Y010164D02*
X021752Y010164D01*
X021785Y010005D02*
X022955Y010005D01*
X022955Y009847D02*
X021786Y009847D01*
X021787Y009688D02*
X022955Y009688D01*
X022955Y009530D02*
X021788Y009530D01*
X021789Y009371D02*
X022955Y009371D01*
X022955Y009213D02*
X021790Y009213D01*
X021791Y009054D02*
X022955Y009054D01*
X022955Y008896D02*
X021792Y008896D01*
X021792Y008737D02*
X022955Y008737D01*
X022955Y008579D02*
X021793Y008579D01*
X021794Y008420D02*
X022955Y008420D01*
X022955Y008262D02*
X021795Y008262D01*
X021796Y008103D02*
X022955Y008103D01*
X022955Y007945D02*
X021797Y007945D01*
X021798Y007786D02*
X022955Y007786D01*
X022955Y007628D02*
X021799Y007628D01*
X021800Y007469D02*
X022955Y007469D01*
X022955Y007311D02*
X021801Y007311D01*
X021802Y007152D02*
X022955Y007152D01*
X022955Y006994D02*
X021803Y006994D01*
X021804Y006835D02*
X022955Y006835D01*
X022955Y006677D02*
X021805Y006677D01*
X021805Y006518D02*
X022955Y006518D01*
X022955Y006360D02*
X021806Y006360D01*
X021807Y006201D02*
X022955Y006201D01*
X022955Y006043D02*
X021808Y006043D01*
X021809Y005884D02*
X022955Y005884D01*
X022955Y005726D02*
X021810Y005726D01*
X021811Y005567D02*
X022955Y005567D01*
X022955Y005409D02*
X021812Y005409D01*
X021813Y005250D02*
X022955Y005250D01*
X022955Y005092D02*
X021814Y005092D01*
X021815Y004933D02*
X022955Y004933D01*
X022955Y004775D02*
X021816Y004775D01*
X021817Y004616D02*
X022955Y004616D01*
X022955Y004458D02*
X021817Y004458D01*
X021818Y004299D02*
X022955Y004299D01*
X022955Y004141D02*
X021819Y004141D01*
X021820Y003982D02*
X022955Y003982D01*
X022955Y003824D02*
X021821Y003824D01*
X021822Y003665D02*
X022955Y003665D01*
X022955Y003507D02*
X021823Y003507D01*
X021824Y003348D02*
X022955Y003348D01*
X022955Y003190D02*
X021825Y003190D01*
X021826Y003031D02*
X022955Y003031D01*
X022955Y002873D02*
X021827Y002873D01*
X021828Y002714D02*
X022955Y002714D01*
X022955Y002556D02*
X022774Y002556D01*
X022072Y002556D02*
X021829Y002556D01*
X021424Y001129D02*
X021366Y001129D01*
X021271Y001089D02*
X021271Y001089D01*
X017154Y002873D02*
X016856Y002873D01*
X019552Y006994D02*
X019724Y006994D01*
X019789Y007152D02*
X019421Y007152D01*
X019342Y007311D02*
X019904Y007311D01*
X016520Y009530D02*
X015264Y009530D01*
X015264Y009688D02*
X015640Y009688D01*
X015524Y009847D02*
X015264Y009847D01*
X015264Y010005D02*
X015505Y010005D01*
X015505Y010164D02*
X015264Y010164D01*
X015264Y010322D02*
X015523Y010322D01*
X015505Y010481D02*
X015264Y010481D01*
X015264Y010639D02*
X015505Y010639D01*
X015513Y010798D02*
X015264Y010798D01*
X013496Y012131D02*
X012714Y012131D01*
X012666Y012247D01*
X012576Y012337D01*
X012575Y012338D01*
X012575Y012461D01*
X012575Y012584D01*
X012576Y012585D01*
X012666Y012675D01*
X012715Y012792D01*
X012715Y013129D01*
X012666Y013247D01*
X012576Y013337D01*
X012473Y013380D01*
X012473Y013388D01*
X012406Y013549D01*
X012283Y013672D01*
X012122Y013739D01*
X011948Y013739D01*
X011834Y013692D01*
X011834Y014621D01*
X012666Y014621D01*
X012799Y014676D01*
X013496Y015373D01*
X013496Y012131D01*
X013496Y012224D02*
X012676Y012224D01*
X012575Y012383D02*
X013496Y012383D01*
X013496Y012541D02*
X012575Y012541D01*
X012575Y012461D02*
X012005Y012461D01*
X012005Y012461D01*
X012575Y012461D01*
X012677Y012700D02*
X013496Y012700D01*
X013496Y012858D02*
X012715Y012858D01*
X012715Y013017D02*
X013496Y013017D01*
X013496Y013175D02*
X012696Y013175D01*
X012580Y013334D02*
X013496Y013334D01*
X013496Y013492D02*
X012430Y013492D01*
X012305Y013651D02*
X013496Y013651D01*
X013496Y013809D02*
X011834Y013809D01*
X011834Y013968D02*
X013496Y013968D01*
X013496Y014126D02*
X011834Y014126D01*
X011834Y014285D02*
X013496Y014285D01*
X013496Y014443D02*
X011834Y014443D01*
X011834Y014602D02*
X013496Y014602D01*
X013496Y014760D02*
X012883Y014760D01*
X013041Y014919D02*
X013496Y014919D01*
X013496Y015077D02*
X013200Y015077D01*
X013358Y015236D02*
X013496Y015236D01*
X017755Y019674D02*
X017830Y019674D01*
X017729Y019832D02*
X018331Y019832D01*
X018445Y019991D02*
X017755Y019991D01*
X017755Y020149D02*
X018445Y020149D01*
X018344Y020308D02*
X017739Y020308D01*
X017755Y020466D02*
X018305Y020466D01*
X018305Y020625D02*
X017755Y020625D01*
X017749Y020783D02*
X018311Y020783D01*
X018408Y020942D02*
X018097Y020942D01*
X018101Y020957D02*
X018101Y021217D01*
X018101Y021477D01*
X018089Y021523D01*
X018065Y021564D01*
X018031Y021597D01*
X017990Y021621D01*
X017945Y021633D01*
X017763Y021633D01*
X017763Y021217D01*
X017763Y021217D01*
X017763Y021217D01*
X018101Y021217D01*
X017763Y021217D01*
X017763Y021217D01*
X017763Y020801D01*
X017945Y020801D01*
X017990Y020813D01*
X018031Y020837D01*
X018065Y020870D01*
X018089Y020911D01*
X018101Y020957D01*
X018101Y021100D02*
X021440Y021100D01*
X021401Y021259D02*
X018101Y021259D01*
X018101Y021417D02*
X021401Y021417D01*
X021414Y021576D02*
X018053Y021576D01*
X017763Y021576D02*
X017763Y021576D01*
X017763Y021417D02*
X017763Y021417D01*
X017763Y021259D02*
X017763Y021259D01*
X017763Y021100D02*
X017763Y021100D01*
X017763Y020942D02*
X017763Y020942D01*
X017369Y021734D02*
X021456Y021734D01*
X021491Y020942D02*
X019712Y020942D01*
X019809Y020783D02*
X021583Y020783D01*
X021718Y020625D02*
X019815Y020625D01*
X019938Y020466D02*
X021922Y020466D01*
X022955Y020308D02*
X020096Y020308D01*
X020255Y020149D02*
X022955Y020149D01*
X022955Y019991D02*
X020413Y019991D01*
X020683Y019832D02*
X022955Y019832D01*
X022955Y019674D02*
X020821Y019674D01*
X020873Y019515D02*
X022955Y019515D01*
X022955Y019357D02*
X020866Y019357D01*
X020792Y019198D02*
X022955Y019198D01*
X022955Y019040D02*
X020564Y019040D01*
X020698Y018881D02*
X022955Y018881D01*
X022955Y018723D02*
X020857Y018723D01*
X020977Y018564D02*
X022955Y018564D01*
X022955Y018406D02*
X021004Y018406D01*
X021004Y018247D02*
X022955Y018247D01*
X022955Y018089D02*
X021004Y018089D01*
X021004Y017930D02*
X022955Y017930D01*
X022955Y017772D02*
X021004Y017772D01*
X021004Y017613D02*
X022955Y017613D01*
X022955Y017455D02*
X021004Y017455D01*
X021004Y017296D02*
X022955Y017296D01*
X022955Y017138D02*
X021004Y017138D01*
X021004Y016979D02*
X022955Y016979D01*
X022955Y016821D02*
X021004Y016821D01*
X021004Y016662D02*
X022955Y016662D01*
X022955Y016504D02*
X021004Y016504D01*
X021004Y016345D02*
X022955Y016345D01*
X022955Y016187D02*
X021004Y016187D01*
X021004Y016028D02*
X022955Y016028D01*
X022955Y015870D02*
X021004Y015870D01*
X021004Y015711D02*
X022955Y015711D01*
X022955Y015553D02*
X021004Y015553D01*
X021004Y015394D02*
X022955Y015394D01*
X022955Y015236D02*
X021004Y015236D01*
X021004Y015077D02*
X022955Y015077D01*
X022955Y014919D02*
X021004Y014919D01*
X021004Y014760D02*
X022955Y014760D01*
X022955Y014602D02*
X021004Y014602D01*
X021004Y014443D02*
X022955Y014443D01*
X022955Y014285D02*
X021004Y014285D01*
X021004Y014126D02*
X022955Y014126D01*
X022955Y013968D02*
X021004Y013968D01*
X020984Y013809D02*
X022955Y013809D01*
X022955Y013651D02*
X020873Y013651D01*
X020849Y013626D02*
X020849Y013626D01*
X020805Y013492D02*
X022955Y013492D01*
X022955Y013334D02*
X020782Y013334D01*
X020805Y013175D02*
X022955Y013175D01*
X022955Y013017D02*
X020805Y013017D01*
X020791Y012858D02*
X022955Y012858D01*
X022955Y012700D02*
X020805Y012700D01*
X020805Y012541D02*
X022955Y012541D01*
X022955Y012383D02*
X020801Y012383D01*
X020805Y012224D02*
X022955Y012224D01*
X022955Y012066D02*
X020805Y012066D01*
X020805Y011907D02*
X022955Y011907D01*
X022955Y011749D02*
X020805Y011749D01*
X020805Y011590D02*
X022955Y011590D01*
X022955Y011432D02*
X020805Y011432D01*
X020805Y011273D02*
X022955Y011273D01*
X022955Y011115D02*
X020834Y011115D01*
X013485Y008668D02*
X013485Y008071D01*
X012715Y008071D01*
X012715Y008129D01*
X012666Y008247D01*
X012601Y008313D01*
X012682Y008313D01*
X012843Y008379D01*
X012966Y008503D01*
X013033Y008664D01*
X013033Y008838D01*
X012966Y008999D01*
X012843Y009122D01*
X012692Y009185D01*
X012666Y009247D01*
X012576Y009337D01*
X012575Y009338D01*
X012575Y009461D01*
X012575Y009578D01*
X013485Y008668D01*
X013485Y008579D02*
X012998Y008579D01*
X013033Y008737D02*
X013415Y008737D01*
X013257Y008896D02*
X013009Y008896D01*
X013098Y009054D02*
X012911Y009054D01*
X012940Y009213D02*
X012680Y009213D01*
X012781Y009371D02*
X012575Y009371D01*
X012575Y009461D02*
X012005Y009461D01*
X012575Y009461D01*
X012575Y009530D02*
X012623Y009530D01*
X012005Y009461D02*
X012005Y009461D01*
X012884Y008420D02*
X013485Y008420D01*
X013485Y008262D02*
X012652Y008262D01*
X012715Y008103D02*
X013485Y008103D01*
X008305Y012461D02*
X008305Y012461D01*
X005021Y006994D02*
X004823Y006994D01*
X004761Y006835D02*
X005054Y006835D01*
X005006Y005884D02*
X004844Y005884D01*
X004725Y005726D02*
X005069Y005726D01*
X005380Y002581D02*
X004401Y002581D01*
X004255Y002436D01*
X003705Y001129D02*
X003174Y001129D01*
D28*
X013430Y012936D03*
X009055Y013886D03*
D29*
X013295Y008555D03*
X012161Y004754D03*
X007702Y005034D03*
D30*
X008280Y004586D02*
X008305Y004611D01*
X008305Y005461D01*
X008255Y005951D02*
X007120Y005951D01*
X006955Y005786D01*
X006180Y005786D01*
X006155Y005811D01*
X008305Y009961D02*
X009366Y009961D01*
X009636Y010114D01*
X009730Y010167D01*
X009730Y016883D01*
X008844Y018219D01*
X008505Y014586D02*
X008380Y014586D01*
X007980Y014186D01*
X007980Y012986D01*
X008030Y012936D01*
X008280Y012936D01*
X008305Y012961D01*
D31*
X008505Y014586D02*
X005530Y014586D01*
X005355Y014411D01*
X005355Y013511D01*
X005405Y013561D01*
X005405Y012461D01*
X005355Y013511D02*
X005355Y011386D01*
X005405Y011336D01*
X008505Y014586D02*
X008745Y014826D01*
X008770Y015831D01*
D32*
X002158Y001478D03*
X022423Y001541D03*
X022472Y021386D03*
X002095Y021365D03*
M02*
