G75*
%MOIN*%
%OFA0B0*%
%FSLAX24Y24*%
%IPPOS*%
%LPD*%
%AMOC8*
5,1,8,0,0,1.08239X$1,22.5*
%
%ADD10C,0.0000*%
D10*
X004174Y005016D02*
X004190Y020430D01*
X017560Y020421D01*
X017510Y004935D01*
X004174Y005016D01*
X015061Y014683D02*
X015063Y014717D01*
X015069Y014751D01*
X015079Y014784D01*
X015092Y014815D01*
X015110Y014845D01*
X015130Y014873D01*
X015154Y014898D01*
X015180Y014920D01*
X015208Y014938D01*
X015239Y014954D01*
X015271Y014966D01*
X015305Y014974D01*
X015339Y014978D01*
X015373Y014978D01*
X015407Y014974D01*
X015441Y014966D01*
X015473Y014954D01*
X015503Y014938D01*
X015532Y014920D01*
X015558Y014898D01*
X015582Y014873D01*
X015602Y014845D01*
X015620Y014815D01*
X015633Y014784D01*
X015643Y014751D01*
X015649Y014717D01*
X015651Y014683D01*
X015649Y014649D01*
X015643Y014615D01*
X015633Y014582D01*
X015620Y014551D01*
X015602Y014521D01*
X015582Y014493D01*
X015558Y014468D01*
X015532Y014446D01*
X015504Y014428D01*
X015473Y014412D01*
X015441Y014400D01*
X015407Y014392D01*
X015373Y014388D01*
X015339Y014388D01*
X015305Y014392D01*
X015271Y014400D01*
X015239Y014412D01*
X015208Y014428D01*
X015180Y014446D01*
X015154Y014468D01*
X015130Y014493D01*
X015110Y014521D01*
X015092Y014551D01*
X015079Y014582D01*
X015069Y014615D01*
X015063Y014649D01*
X015061Y014683D01*
M02*
