G75*
G70*
%OFA0B0*%
%FSLAX24Y24*%
%IPPOS*%
%LPD*%
%AMOC8*
5,1,8,0,0,1.08239X$1,22.5*
%
%ADD10C,0.0480*%
%ADD11R,0.0780X0.0220*%
%ADD12C,0.0740*%
%ADD13C,0.0840*%
%ADD14R,0.0740X0.0740*%
%ADD15C,0.0560*%
%ADD16C,0.0650*%
%ADD17R,0.0650X0.0650*%
%ADD18R,0.0472X0.0472*%
%ADD19R,0.0472X0.0315*%
%ADD20R,0.0315X0.0472*%
%ADD21C,0.0100*%
%ADD22C,0.0360*%
%ADD23C,0.0079*%
%ADD24C,0.0236*%
%ADD25C,0.0160*%
%ADD26C,0.0354*%
%ADD27C,0.0315*%
%ADD28C,0.0240*%
%ADD29C,0.1502*%
D10*
X019080Y003336D03*
X020980Y003336D03*
D11*
X010966Y003506D03*
X010966Y004006D03*
X010966Y003006D03*
X010966Y002506D03*
X009026Y002506D03*
X009026Y003006D03*
X009026Y003506D03*
X009026Y004006D03*
D12*
X006730Y003411D03*
X006730Y002411D03*
X004255Y002436D03*
X004255Y003436D03*
X004530Y005211D03*
X005530Y005211D03*
X006530Y005211D03*
X006530Y006336D03*
X005530Y006336D03*
X004530Y006336D03*
X004530Y007461D03*
X005530Y007461D03*
X006530Y007461D03*
X006530Y008586D03*
X005530Y008586D03*
X004530Y008586D03*
X004405Y011336D03*
X005405Y011336D03*
X006405Y011336D03*
X006405Y012461D03*
X005405Y012461D03*
X004405Y012461D03*
X004405Y013561D03*
X005405Y013561D03*
X006405Y013561D03*
X012405Y015486D03*
X012405Y016486D03*
X012405Y017486D03*
X014905Y016836D03*
X015905Y016836D03*
X016905Y016836D03*
X017905Y016836D03*
X018905Y016836D03*
X019905Y016836D03*
X014405Y013836D03*
X014405Y011836D03*
X014405Y010836D03*
X014405Y009836D03*
X014405Y008836D03*
X014405Y007836D03*
X014405Y006836D03*
X014405Y005836D03*
X014405Y004836D03*
X020405Y004836D03*
X020405Y005836D03*
X020405Y006836D03*
X020405Y007836D03*
D13*
X008844Y017799D02*
X008844Y018639D01*
X007466Y018639D02*
X007466Y017799D01*
X004994Y017774D02*
X004994Y018614D01*
X003616Y018614D02*
X003616Y017774D01*
D14*
X004255Y001436D03*
X006730Y001411D03*
D15*
X015005Y001375D03*
X016005Y001375D03*
X017005Y001375D03*
X016505Y002375D03*
X015505Y002375D03*
X017505Y002375D03*
X014530Y019336D03*
X013530Y019336D03*
X012530Y019336D03*
X011530Y019336D03*
X012030Y020336D03*
X013030Y020336D03*
X014030Y020336D03*
X015030Y020336D03*
D16*
X007755Y015886D03*
X003805Y015886D03*
D17*
X004805Y015886D03*
X008755Y015886D03*
D18*
X004943Y010336D03*
X004117Y010336D03*
X008665Y001435D03*
X009491Y001435D03*
D19*
X008005Y001734D03*
X008005Y002443D03*
D20*
X005884Y009711D03*
X005176Y009711D03*
D21*
X005175Y009731D01*
X004965Y009941D01*
X004965Y010291D01*
X004943Y010336D01*
X005875Y009731D02*
X005884Y009711D01*
X005875Y009661D01*
X006575Y009171D02*
X006575Y008471D01*
X006530Y008586D01*
X006575Y009171D02*
X007200Y010446D01*
X005455Y011271D02*
X005405Y011336D01*
X005530Y008586D02*
X005525Y008401D01*
X005595Y008471D02*
X005530Y008586D01*
X005525Y007491D02*
X005530Y007461D01*
X005525Y007421D01*
X005525Y006371D02*
X005530Y006336D01*
X006715Y003431D02*
X004265Y003431D01*
X004255Y003436D01*
X004265Y002451D02*
X004255Y002436D01*
X004195Y002451D01*
X006715Y002451D02*
X006730Y002411D01*
X015535Y011621D02*
X015185Y011971D01*
X015185Y013231D01*
X015397Y013436D01*
X015852Y013433D01*
X020351Y008961D01*
X020365Y007841D01*
X020405Y007836D01*
X019665Y008471D02*
X019665Y004831D01*
X020225Y004271D01*
X020925Y004271D01*
X020925Y006301D01*
X020435Y006791D01*
X020405Y006836D01*
X018940Y007006D02*
X018890Y008706D01*
X015535Y012111D01*
X015535Y012601D02*
X019665Y008471D01*
X019875Y008751D02*
X019875Y005391D01*
X020365Y004901D01*
X020405Y004836D01*
X019875Y008751D02*
X015535Y013091D01*
X017845Y016871D02*
X017905Y016836D01*
X018895Y016871D02*
X018905Y016836D01*
X014530Y019336D02*
X014485Y019391D01*
X014485Y020584D01*
X014139Y020931D01*
X012595Y020931D01*
X012035Y020371D01*
X012030Y020336D01*
X013030Y020336D02*
X013085Y020301D01*
X013085Y019811D01*
X013505Y019391D01*
X013530Y019336D01*
X008844Y018219D02*
X008815Y017711D01*
D22*
X015535Y013091D03*
X015535Y012601D03*
X015535Y012111D03*
X015535Y011621D03*
X018940Y007006D03*
X007200Y010446D03*
D23*
X004545Y007491D02*
X004530Y007461D01*
X006785Y003501D02*
X006785Y003431D01*
X006730Y003411D01*
X006715Y003431D01*
X006785Y003501D02*
X008745Y003501D01*
X009026Y003506D01*
X009026Y002506D02*
X009025Y002451D01*
X008045Y002451D01*
X008005Y002443D01*
X007975Y002451D01*
X006785Y002451D01*
X006730Y002411D01*
X008005Y001734D02*
X008045Y001681D01*
X008045Y001471D01*
X008605Y001471D01*
X008665Y001435D01*
X009491Y001435D02*
X009165Y002241D01*
X009218Y002186D01*
X010355Y003151D02*
X010705Y003501D01*
X010915Y003501D01*
X010966Y003506D01*
X010985Y004341D02*
X011545Y004341D01*
X011545Y007701D01*
X012595Y008751D01*
X012595Y012741D01*
X012035Y013301D01*
X012035Y013907D01*
X012549Y014421D01*
X016165Y014421D01*
X016865Y015121D01*
X016865Y016801D01*
X016905Y016836D01*
X016865Y016871D01*
X016865Y017011D01*
X014555Y019321D01*
X014530Y019336D01*
X014975Y020021D02*
X015030Y020021D01*
X020085Y016241D02*
X020435Y016591D01*
X020435Y019461D01*
X014405Y009836D02*
X014345Y009801D01*
X013855Y009311D01*
X013855Y006861D01*
X013435Y006441D01*
X012595Y006931D02*
X014345Y005181D01*
X014345Y004901D01*
X014405Y004836D01*
X014415Y004831D01*
X014415Y002871D01*
X015465Y001821D01*
X015465Y000911D01*
X016165Y000911D01*
X016515Y001261D01*
X016515Y002311D01*
X016505Y002375D01*
X016305Y001961D02*
X016025Y002241D01*
X016025Y003011D01*
X015395Y003641D01*
X015395Y004551D01*
X014415Y005531D01*
X014415Y005811D01*
X014405Y005836D01*
X014625Y006371D02*
X014625Y006441D01*
X014415Y006651D01*
X014415Y006791D01*
X014405Y006836D01*
X014625Y006371D02*
X016445Y004551D01*
X016445Y003081D01*
X016935Y002591D01*
X016935Y001471D01*
X017005Y001401D01*
X017005Y001375D01*
X016305Y001681D02*
X016305Y001961D01*
X016305Y001681D02*
X016025Y001401D01*
X016005Y001375D01*
X015005Y001375D02*
X014975Y001401D01*
X014002Y001401D01*
X013225Y002507D01*
X011545Y002451D01*
X011545Y004341D01*
X010966Y002506D02*
X010985Y002451D01*
X011545Y002451D01*
X014625Y007351D02*
X014625Y007421D01*
X014415Y007631D01*
X014415Y007771D01*
X014405Y007836D01*
X014625Y007351D02*
X017397Y004404D01*
X017397Y003004D01*
X017425Y003151D01*
X017425Y002451D01*
X017495Y002381D01*
X017505Y002375D01*
D24*
X013435Y006441D03*
X012595Y006931D03*
X012595Y008751D03*
X010985Y004341D03*
X010355Y003151D03*
X012035Y013301D03*
X016165Y014421D03*
X020085Y016241D03*
X020435Y019461D03*
D25*
X020049Y019674D02*
X016253Y019674D01*
X016283Y019602D02*
X016189Y019828D01*
X016016Y020001D01*
X015790Y020095D01*
X015545Y020095D01*
X015365Y020020D01*
X015381Y020036D01*
X015423Y020095D01*
X015456Y020159D01*
X015479Y020228D01*
X015490Y020300D01*
X015490Y020336D01*
X015490Y020372D01*
X015479Y020444D01*
X015456Y020512D01*
X015423Y020577D01*
X015381Y020635D01*
X015330Y020687D01*
X015271Y020729D01*
X015207Y020762D01*
X015138Y020784D01*
X015066Y020796D01*
X015030Y020796D01*
X014994Y020796D01*
X014922Y020784D01*
X014853Y020762D01*
X014819Y020745D01*
X014799Y020794D01*
X014452Y021140D01*
X014348Y021244D01*
X014212Y021301D01*
X012521Y021301D01*
X012385Y021244D01*
X012281Y021140D01*
X012077Y020936D01*
X011911Y020936D01*
X011690Y020844D01*
X011521Y020676D01*
X011430Y020455D01*
X011430Y020216D01*
X011521Y019996D01*
X011690Y019827D01*
X011911Y019736D01*
X012081Y019736D01*
X012021Y019676D01*
X011955Y019515D01*
X011923Y019577D01*
X011881Y019635D01*
X011830Y019687D01*
X011771Y019729D01*
X011707Y019762D01*
X011638Y019784D01*
X011566Y019796D01*
X011530Y019796D01*
X011530Y019336D01*
X011530Y019796D01*
X011494Y019796D01*
X011422Y019784D01*
X011353Y019762D01*
X011289Y019729D01*
X011230Y019687D01*
X011179Y019635D01*
X011137Y019577D01*
X011104Y019512D01*
X011081Y019444D01*
X011070Y019372D01*
X011070Y019336D01*
X011530Y019336D01*
X011530Y019336D01*
X011530Y019336D01*
X011070Y019336D01*
X011070Y019300D01*
X011081Y019228D01*
X011104Y019159D01*
X011137Y019095D01*
X011179Y019036D01*
X011230Y018985D01*
X011289Y018942D01*
X011353Y018910D01*
X011422Y018887D01*
X011494Y018876D01*
X011530Y018876D01*
X011566Y018876D01*
X011638Y018887D01*
X011707Y018910D01*
X011771Y018942D01*
X011830Y018985D01*
X011881Y019036D01*
X011923Y019095D01*
X011955Y019156D01*
X012021Y018996D01*
X012190Y018827D01*
X012411Y018736D01*
X012649Y018736D01*
X012870Y018827D01*
X013030Y018987D01*
X013190Y018827D01*
X013411Y018736D01*
X013649Y018736D01*
X013870Y018827D01*
X014030Y018987D01*
X014190Y018827D01*
X014411Y018736D01*
X014632Y018736D01*
X015988Y017379D01*
X015948Y017386D01*
X015925Y017386D01*
X015925Y016856D01*
X015885Y016856D01*
X015885Y017386D01*
X015862Y017386D01*
X015776Y017372D01*
X015694Y017346D01*
X015617Y017306D01*
X015547Y017255D01*
X015498Y017207D01*
X015490Y017227D01*
X015296Y017421D01*
X015042Y017526D01*
X014768Y017526D01*
X014514Y017421D01*
X014320Y017227D01*
X014215Y016973D01*
X014215Y016699D01*
X014320Y016445D01*
X014514Y016251D01*
X014768Y016146D01*
X015042Y016146D01*
X015296Y016251D01*
X015490Y016445D01*
X015498Y016465D01*
X015547Y016416D01*
X015617Y016365D01*
X015694Y016326D01*
X015776Y016299D01*
X015862Y016286D01*
X015885Y016286D01*
X015885Y016816D01*
X015925Y016816D01*
X015925Y016286D01*
X015948Y016286D01*
X016034Y016299D01*
X016116Y016326D01*
X016193Y016365D01*
X016263Y016416D01*
X016312Y016465D01*
X016320Y016445D01*
X016506Y016259D01*
X016506Y015270D01*
X016095Y014859D01*
X016078Y014859D01*
X015917Y014792D01*
X015905Y014780D01*
X012478Y014780D01*
X012345Y014725D01*
X012244Y014624D01*
X011730Y014110D01*
X011676Y013978D01*
X011676Y013561D01*
X011664Y013549D01*
X011597Y013388D01*
X011597Y013214D01*
X011664Y013053D01*
X011787Y012929D01*
X011948Y012863D01*
X011965Y012863D01*
X012236Y012592D01*
X012236Y009011D01*
X012224Y008999D01*
X012157Y008838D01*
X012157Y008821D01*
X011341Y008005D01*
X011240Y007904D01*
X011186Y007772D01*
X011186Y004732D01*
X011072Y004779D01*
X010898Y004779D01*
X010737Y004712D01*
X010614Y004589D01*
X010547Y004428D01*
X010547Y004294D01*
X010507Y004284D01*
X010465Y004260D01*
X010432Y004226D01*
X010408Y004185D01*
X010396Y004140D01*
X010396Y004006D01*
X010700Y004006D01*
X010700Y004006D01*
X010396Y004006D01*
X010396Y003888D01*
X010395Y003887D01*
X010316Y003808D01*
X010525Y021887D01*
X021524Y021887D01*
X021474Y021799D01*
X021401Y021527D01*
X021401Y021245D01*
X021474Y020972D01*
X021615Y020728D01*
X021814Y020529D01*
X022059Y020388D01*
X022331Y020315D01*
X022613Y020315D01*
X022885Y020388D01*
X022955Y020428D01*
X022955Y002470D01*
X022836Y002539D01*
X022564Y002612D01*
X022282Y002612D01*
X022010Y002539D01*
X021765Y002398D01*
X021566Y002199D01*
X021425Y001954D01*
X021352Y001682D01*
X021352Y001400D01*
X021425Y001127D01*
X021509Y000981D01*
X017460Y000981D01*
X017514Y001035D01*
X017605Y001255D01*
X017605Y001494D01*
X017514Y001715D01*
X017454Y001775D01*
X017624Y001775D01*
X017845Y001866D01*
X018014Y002035D01*
X018105Y002255D01*
X018105Y002494D01*
X018014Y002715D01*
X017845Y002883D01*
X017784Y002909D01*
X017784Y003117D01*
X017791Y003154D01*
X017784Y003188D01*
X017784Y003222D01*
X017770Y003257D01*
X017762Y003294D01*
X017756Y003303D01*
X017756Y004398D01*
X017758Y004464D01*
X017756Y004470D01*
X017756Y004475D01*
X017731Y004536D01*
X017708Y004598D01*
X017704Y004602D01*
X017702Y004607D01*
X017655Y004654D01*
X015002Y007474D01*
X015095Y007699D01*
X015095Y007973D01*
X014990Y008227D01*
X014881Y008336D01*
X014990Y008445D01*
X015095Y008699D01*
X015095Y008973D01*
X014990Y009227D01*
X014881Y009336D01*
X014990Y009445D01*
X015095Y009699D01*
X015095Y009973D01*
X014990Y010227D01*
X014881Y010336D01*
X014990Y010445D01*
X015095Y010699D01*
X015095Y010973D01*
X014990Y011227D01*
X014881Y011336D01*
X014990Y011445D01*
X015035Y011554D01*
X015035Y011521D01*
X015111Y011338D01*
X015252Y011197D01*
X015436Y011121D01*
X015634Y011121D01*
X015818Y011197D01*
X015867Y011246D01*
X018524Y008550D01*
X018560Y007333D01*
X018516Y007289D01*
X018440Y007105D01*
X018440Y006906D01*
X018516Y006723D01*
X018657Y006582D01*
X018841Y006506D01*
X019039Y006506D01*
X019223Y006582D01*
X019295Y006654D01*
X019295Y004757D01*
X019351Y004621D01*
X019911Y004061D01*
X020015Y003957D01*
X020151Y003901D01*
X020999Y003901D01*
X021135Y003957D01*
X021239Y004061D01*
X021295Y004197D01*
X021295Y006374D01*
X021239Y006510D01*
X021082Y006667D01*
X021095Y006699D01*
X021095Y006973D01*
X020990Y007227D01*
X020881Y007336D01*
X020990Y007445D01*
X021095Y007699D01*
X021095Y007973D01*
X020990Y008227D01*
X020796Y008421D01*
X020727Y008449D01*
X020721Y008964D01*
X020721Y009035D01*
X020720Y009037D01*
X020720Y009039D01*
X020692Y009105D01*
X020664Y009171D01*
X020663Y009173D01*
X020662Y009174D01*
X020611Y009224D01*
X016114Y013694D01*
X016064Y013745D01*
X016062Y013746D01*
X016061Y013747D01*
X015994Y013775D01*
X015928Y013803D01*
X015926Y013803D01*
X015924Y013803D01*
X015853Y013803D01*
X015401Y013806D01*
X015329Y013807D01*
X015328Y013807D01*
X015326Y013807D01*
X015259Y013780D01*
X015193Y013753D01*
X015191Y013752D01*
X015190Y013751D01*
X015138Y013701D01*
X015067Y013632D01*
X015095Y013699D01*
X015095Y013973D01*
X015058Y014061D01*
X015905Y014061D01*
X015917Y014049D01*
X016078Y013983D01*
X016252Y013983D01*
X016413Y014049D01*
X016536Y014173D01*
X016603Y014334D01*
X016603Y014351D01*
X017069Y014816D01*
X017170Y014917D01*
X017224Y015049D01*
X017224Y016221D01*
X017296Y016251D01*
X017405Y016360D01*
X017514Y016251D01*
X017768Y016146D01*
X018042Y016146D01*
X018296Y016251D01*
X018405Y016360D01*
X018514Y016251D01*
X018768Y016146D01*
X019042Y016146D01*
X019296Y016251D01*
X019405Y016360D01*
X019514Y016251D01*
X019647Y016196D01*
X019647Y016154D01*
X019714Y015993D01*
X019837Y015869D01*
X019998Y015803D01*
X020172Y015803D01*
X020333Y015869D01*
X020456Y015993D01*
X020523Y016154D01*
X020523Y016171D01*
X020639Y016286D01*
X020740Y016387D01*
X020794Y016519D01*
X020794Y019201D01*
X020806Y019213D01*
X020873Y019374D01*
X020873Y019548D01*
X020806Y019709D01*
X020683Y019832D01*
X020522Y019899D01*
X020348Y019899D01*
X020187Y019832D01*
X020064Y019709D01*
X019997Y019548D01*
X019997Y019374D01*
X020064Y019213D01*
X020076Y019201D01*
X020076Y017512D01*
X020042Y017526D01*
X019768Y017526D01*
X019514Y017421D01*
X019405Y017312D01*
X019296Y017421D01*
X019042Y017526D01*
X018768Y017526D01*
X018514Y017421D01*
X018405Y017312D01*
X018296Y017421D01*
X018042Y017526D01*
X017768Y017526D01*
X017514Y017421D01*
X017405Y017312D01*
X017296Y017421D01*
X017042Y017526D01*
X016858Y017526D01*
X015502Y018882D01*
X015545Y018864D01*
X015790Y018864D01*
X016016Y018958D01*
X016189Y019131D01*
X016283Y019357D01*
X016283Y019602D01*
X016283Y019515D02*
X019997Y019515D01*
X020004Y019357D02*
X016283Y019357D01*
X016217Y019198D02*
X020076Y019198D01*
X020076Y019040D02*
X016098Y019040D01*
X015832Y018881D02*
X020076Y018881D01*
X020076Y018723D02*
X015661Y018723D01*
X015504Y018881D02*
X015503Y018881D01*
X015820Y018564D02*
X020076Y018564D01*
X020076Y018406D02*
X015978Y018406D01*
X016137Y018247D02*
X020076Y018247D01*
X020076Y018089D02*
X016295Y018089D01*
X016454Y017930D02*
X020076Y017930D01*
X020076Y017772D02*
X016612Y017772D01*
X016771Y017613D02*
X020076Y017613D01*
X019596Y017455D02*
X019214Y017455D01*
X018596Y017455D02*
X018214Y017455D01*
X017596Y017455D02*
X017214Y017455D01*
X017390Y016345D02*
X017420Y016345D01*
X017224Y016187D02*
X017669Y016187D01*
X017224Y016028D02*
X019699Y016028D01*
X019647Y016187D02*
X019141Y016187D01*
X019390Y016345D02*
X019420Y016345D01*
X019836Y015870D02*
X017224Y015870D01*
X017224Y015711D02*
X022955Y015711D01*
X022955Y015553D02*
X017224Y015553D01*
X017224Y015394D02*
X022955Y015394D01*
X022955Y015236D02*
X017224Y015236D01*
X017224Y015077D02*
X022955Y015077D01*
X022955Y014919D02*
X017170Y014919D01*
X017013Y014760D02*
X022955Y014760D01*
X022955Y014602D02*
X016854Y014602D01*
X016696Y014443D02*
X022955Y014443D01*
X022955Y014285D02*
X016583Y014285D01*
X016490Y014126D02*
X022955Y014126D01*
X022955Y013968D02*
X015095Y013968D01*
X015095Y013809D02*
X022955Y013809D01*
X022955Y013651D02*
X016158Y013651D01*
X016317Y013492D02*
X022955Y013492D01*
X022955Y013334D02*
X016477Y013334D01*
X016636Y013175D02*
X022955Y013175D01*
X022955Y013017D02*
X016796Y013017D01*
X016955Y012858D02*
X022955Y012858D01*
X022955Y012700D02*
X017114Y012700D01*
X017274Y012541D02*
X022955Y012541D01*
X022955Y012383D02*
X017433Y012383D01*
X017593Y012224D02*
X022955Y012224D01*
X022955Y012066D02*
X017752Y012066D01*
X017912Y011907D02*
X022955Y011907D01*
X022955Y011749D02*
X018071Y011749D01*
X018231Y011590D02*
X022955Y011590D01*
X022955Y011432D02*
X018390Y011432D01*
X018550Y011273D02*
X022955Y011273D01*
X022955Y011115D02*
X018709Y011115D01*
X018868Y010956D02*
X022955Y010956D01*
X022955Y010798D02*
X019028Y010798D01*
X019187Y010639D02*
X022955Y010639D01*
X022955Y010481D02*
X019347Y010481D01*
X019506Y010322D02*
X022955Y010322D01*
X022955Y010164D02*
X019666Y010164D01*
X019825Y010005D02*
X022955Y010005D01*
X022955Y009847D02*
X019985Y009847D01*
X020144Y009688D02*
X022955Y009688D01*
X022955Y009530D02*
X020303Y009530D01*
X020463Y009371D02*
X022955Y009371D01*
X022955Y009213D02*
X020623Y009213D01*
X020713Y009054D02*
X022955Y009054D01*
X022955Y008896D02*
X020722Y008896D01*
X020724Y008737D02*
X022955Y008737D01*
X022955Y008579D02*
X020726Y008579D01*
X020796Y008420D02*
X022955Y008420D01*
X022955Y008262D02*
X020955Y008262D01*
X021041Y008103D02*
X022955Y008103D01*
X022955Y007945D02*
X021095Y007945D01*
X021095Y007786D02*
X022955Y007786D01*
X022955Y007628D02*
X021066Y007628D01*
X021000Y007469D02*
X022955Y007469D01*
X022955Y007311D02*
X020906Y007311D01*
X021021Y007152D02*
X022955Y007152D01*
X022955Y006994D02*
X021086Y006994D01*
X021095Y006835D02*
X022955Y006835D01*
X022955Y006677D02*
X021086Y006677D01*
X021231Y006518D02*
X022955Y006518D01*
X022955Y006360D02*
X021295Y006360D01*
X021295Y006201D02*
X022955Y006201D01*
X022955Y006043D02*
X021295Y006043D01*
X021295Y005884D02*
X022955Y005884D01*
X022955Y005726D02*
X021295Y005726D01*
X021295Y005567D02*
X022955Y005567D01*
X022955Y005409D02*
X021295Y005409D01*
X021295Y005250D02*
X022955Y005250D01*
X022955Y005092D02*
X021295Y005092D01*
X021295Y004933D02*
X022955Y004933D01*
X022955Y004775D02*
X021295Y004775D01*
X021295Y004616D02*
X022955Y004616D01*
X022955Y004458D02*
X021295Y004458D01*
X021295Y004299D02*
X022955Y004299D01*
X022955Y004141D02*
X021272Y004141D01*
X021160Y003982D02*
X022955Y003982D01*
X022955Y003824D02*
X021265Y003824D01*
X021297Y003811D02*
X021091Y003896D01*
X020869Y003896D01*
X020663Y003811D01*
X020505Y003653D01*
X020420Y003447D01*
X020420Y003224D01*
X020505Y003019D01*
X020663Y002861D01*
X020869Y002776D01*
X021091Y002776D01*
X021297Y002861D01*
X021455Y003019D01*
X021540Y003224D01*
X021540Y003447D01*
X021455Y003653D01*
X021297Y003811D01*
X021442Y003665D02*
X022955Y003665D01*
X022955Y003507D02*
X021515Y003507D01*
X021540Y003348D02*
X022955Y003348D01*
X022955Y003190D02*
X021526Y003190D01*
X021460Y003031D02*
X022955Y003031D01*
X022955Y002873D02*
X021309Y002873D01*
X020651Y002873D02*
X019409Y002873D01*
X019397Y002861D02*
X019555Y003019D01*
X019640Y003224D01*
X019640Y003447D01*
X019555Y003653D01*
X019397Y003811D01*
X019191Y003896D01*
X018969Y003896D01*
X018763Y003811D01*
X018605Y003653D01*
X018520Y003447D01*
X018520Y003224D01*
X018605Y003019D01*
X018763Y002861D01*
X018969Y002776D01*
X019191Y002776D01*
X019397Y002861D01*
X019560Y003031D02*
X020500Y003031D01*
X020434Y003190D02*
X019626Y003190D01*
X019640Y003348D02*
X020420Y003348D01*
X020445Y003507D02*
X019615Y003507D01*
X019542Y003665D02*
X020518Y003665D01*
X020695Y003824D02*
X019365Y003824D01*
X019832Y004141D02*
X017756Y004141D01*
X017756Y004299D02*
X019673Y004299D01*
X019515Y004458D02*
X017758Y004458D01*
X017693Y004616D02*
X019356Y004616D01*
X019295Y004775D02*
X017541Y004775D01*
X017392Y004933D02*
X019295Y004933D01*
X019295Y005092D02*
X017243Y005092D01*
X017094Y005250D02*
X019295Y005250D01*
X019295Y005409D02*
X016945Y005409D01*
X016796Y005567D02*
X019295Y005567D01*
X019295Y005726D02*
X016647Y005726D01*
X016498Y005884D02*
X019295Y005884D01*
X019295Y006043D02*
X016349Y006043D01*
X016200Y006201D02*
X019295Y006201D01*
X019295Y006360D02*
X016050Y006360D01*
X015901Y006518D02*
X018810Y006518D01*
X019070Y006518D02*
X019295Y006518D01*
X018562Y006677D02*
X015752Y006677D01*
X015603Y006835D02*
X018469Y006835D01*
X018440Y006994D02*
X015454Y006994D01*
X015305Y007152D02*
X018459Y007152D01*
X018538Y007311D02*
X015156Y007311D01*
X015007Y007469D02*
X018556Y007469D01*
X018552Y007628D02*
X015066Y007628D01*
X015095Y007786D02*
X018547Y007786D01*
X018542Y007945D02*
X015095Y007945D01*
X015041Y008103D02*
X018538Y008103D01*
X018533Y008262D02*
X014955Y008262D01*
X014965Y008420D02*
X018528Y008420D01*
X018496Y008579D02*
X015045Y008579D01*
X015095Y008737D02*
X018340Y008737D01*
X018183Y008896D02*
X015095Y008896D01*
X015061Y009054D02*
X018027Y009054D01*
X017871Y009213D02*
X014996Y009213D01*
X014916Y009371D02*
X017715Y009371D01*
X017559Y009530D02*
X015025Y009530D01*
X015091Y009688D02*
X017402Y009688D01*
X017246Y009847D02*
X015095Y009847D01*
X015082Y010005D02*
X017090Y010005D01*
X016934Y010164D02*
X015016Y010164D01*
X014894Y010322D02*
X016778Y010322D01*
X016622Y010481D02*
X015005Y010481D01*
X015070Y010639D02*
X016465Y010639D01*
X016309Y010798D02*
X015095Y010798D01*
X015095Y010956D02*
X016153Y010956D01*
X015997Y011115D02*
X015036Y011115D01*
X014943Y011273D02*
X015175Y011273D01*
X015072Y011432D02*
X014977Y011432D01*
X014815Y012402D02*
X014796Y012421D01*
X014542Y012526D01*
X014268Y012526D01*
X014014Y012421D01*
X013820Y012227D01*
X013715Y011973D01*
X013715Y011699D01*
X013820Y011445D01*
X013929Y011336D01*
X013820Y011227D01*
X013715Y010973D01*
X013715Y010699D01*
X013820Y010445D01*
X013929Y010336D01*
X013820Y010227D01*
X013715Y009973D01*
X013715Y009699D01*
X013721Y009685D01*
X013651Y009615D01*
X013550Y009514D01*
X013496Y009382D01*
X013496Y007010D01*
X013365Y006879D01*
X013348Y006879D01*
X013212Y006822D01*
X013033Y007001D01*
X013033Y007018D01*
X012966Y007179D01*
X012843Y007302D01*
X012682Y007369D01*
X012508Y007369D01*
X012347Y007302D01*
X012224Y007179D01*
X012157Y007018D01*
X012157Y006844D01*
X012224Y006683D01*
X012347Y006559D01*
X012508Y006493D01*
X012525Y006493D01*
X013812Y005206D01*
X013715Y004973D01*
X013715Y004699D01*
X013820Y004445D01*
X014014Y004251D01*
X014056Y004234D01*
X014056Y002799D01*
X014067Y002773D01*
X014019Y002753D01*
X013846Y002580D01*
X013759Y002371D01*
X013538Y002686D01*
X013523Y002720D01*
X013498Y002744D01*
X013478Y002772D01*
X013446Y002792D01*
X013418Y002818D01*
X013386Y002830D01*
X013357Y002849D01*
X013320Y002855D01*
X013284Y002868D01*
X013250Y002867D01*
X013216Y002873D01*
X013179Y002865D01*
X011904Y002822D01*
X011904Y007552D01*
X012665Y008313D01*
X012682Y008313D01*
X012843Y008379D01*
X012966Y008503D01*
X013033Y008664D01*
X013033Y008838D01*
X012966Y008999D01*
X012954Y009011D01*
X012954Y012812D01*
X012900Y012944D01*
X012799Y013045D01*
X012473Y013371D01*
X012473Y013388D01*
X012406Y013549D01*
X012394Y013561D01*
X012394Y013758D01*
X012698Y014061D01*
X013752Y014061D01*
X013715Y013973D01*
X013715Y013699D01*
X013820Y013445D01*
X014014Y013251D01*
X014268Y013146D01*
X014542Y013146D01*
X014796Y013251D01*
X014815Y013270D01*
X014815Y013234D01*
X014814Y013163D01*
X014815Y013160D01*
X014815Y012402D01*
X014815Y012541D02*
X012954Y012541D01*
X012954Y012383D02*
X013976Y012383D01*
X013819Y012224D02*
X012954Y012224D01*
X012954Y012066D02*
X013753Y012066D01*
X013715Y011907D02*
X012954Y011907D01*
X012954Y011749D02*
X013715Y011749D01*
X013760Y011590D02*
X012954Y011590D01*
X012954Y011432D02*
X013833Y011432D01*
X013867Y011273D02*
X012954Y011273D01*
X012954Y011115D02*
X013774Y011115D01*
X013715Y010956D02*
X012954Y010956D01*
X012954Y010798D02*
X013715Y010798D01*
X013740Y010639D02*
X012954Y010639D01*
X012954Y010481D02*
X013805Y010481D01*
X013916Y010322D02*
X012954Y010322D01*
X012954Y010164D02*
X013794Y010164D01*
X013728Y010005D02*
X012954Y010005D01*
X012954Y009847D02*
X013715Y009847D01*
X013719Y009688D02*
X012954Y009688D01*
X012954Y009530D02*
X013566Y009530D01*
X013651Y009615D02*
X013651Y009615D01*
X013496Y009371D02*
X012954Y009371D01*
X012954Y009213D02*
X013496Y009213D01*
X013496Y009054D02*
X012954Y009054D01*
X013009Y008896D02*
X013496Y008896D01*
X013496Y008737D02*
X013033Y008737D01*
X012998Y008579D02*
X013496Y008579D01*
X013496Y008420D02*
X012884Y008420D01*
X012614Y008262D02*
X013496Y008262D01*
X013496Y008103D02*
X012456Y008103D01*
X012297Y007945D02*
X013496Y007945D01*
X013496Y007786D02*
X012139Y007786D01*
X011980Y007628D02*
X013496Y007628D01*
X013496Y007469D02*
X011904Y007469D01*
X011904Y007311D02*
X012368Y007311D01*
X012213Y007152D02*
X011904Y007152D01*
X011904Y006994D02*
X012157Y006994D01*
X012160Y006835D02*
X011904Y006835D01*
X011904Y006677D02*
X012229Y006677D01*
X012446Y006518D02*
X011904Y006518D01*
X011904Y006360D02*
X012658Y006360D01*
X012816Y006201D02*
X011904Y006201D01*
X011904Y006043D02*
X012975Y006043D01*
X013133Y005884D02*
X011904Y005884D01*
X011904Y005726D02*
X013292Y005726D01*
X013450Y005567D02*
X011904Y005567D01*
X011904Y005409D02*
X013609Y005409D01*
X013767Y005250D02*
X011904Y005250D01*
X011904Y005092D02*
X013764Y005092D01*
X013715Y004933D02*
X011904Y004933D01*
X011904Y004775D02*
X013715Y004775D01*
X013749Y004616D02*
X011904Y004616D01*
X011904Y004458D02*
X013815Y004458D01*
X013966Y004299D02*
X011904Y004299D01*
X011904Y004141D02*
X014056Y004141D01*
X014056Y003982D02*
X011904Y003982D01*
X011904Y003824D02*
X014056Y003824D01*
X014056Y003665D02*
X011904Y003665D01*
X011904Y003507D02*
X014056Y003507D01*
X014056Y003348D02*
X011904Y003348D01*
X011904Y003190D02*
X014056Y003190D01*
X014056Y003031D02*
X011904Y003031D01*
X011904Y002873D02*
X013215Y002873D01*
X013218Y002873D02*
X014056Y002873D01*
X013980Y002714D02*
X013525Y002714D01*
X013630Y002556D02*
X013836Y002556D01*
X013770Y002397D02*
X013741Y002397D01*
X014774Y003020D02*
X014774Y004242D01*
X014796Y004251D01*
X014990Y004445D01*
X014991Y004447D01*
X015036Y004402D01*
X015036Y003569D01*
X015090Y003437D01*
X015191Y003336D01*
X015666Y002862D01*
X015666Y002806D01*
X015613Y002823D01*
X015541Y002835D01*
X015505Y002835D01*
X015505Y002375D01*
X015505Y002835D01*
X015469Y002835D01*
X015397Y002823D01*
X015328Y002801D01*
X015264Y002768D01*
X015205Y002726D01*
X015154Y002674D01*
X015140Y002654D01*
X014774Y003020D01*
X014774Y003031D02*
X015496Y003031D01*
X015655Y002873D02*
X014921Y002873D01*
X015080Y002714D02*
X015194Y002714D01*
X015505Y002714D02*
X015505Y002714D01*
X015505Y002556D02*
X015505Y002556D01*
X015505Y002397D02*
X015505Y002397D01*
X015505Y002375D02*
X015505Y002375D01*
X015338Y003190D02*
X014774Y003190D01*
X014774Y003348D02*
X015179Y003348D01*
X015062Y003507D02*
X014774Y003507D01*
X014774Y003665D02*
X015036Y003665D01*
X015036Y003824D02*
X014774Y003824D01*
X014774Y003982D02*
X015036Y003982D01*
X015036Y004141D02*
X014774Y004141D01*
X014844Y004299D02*
X015036Y004299D01*
X017756Y003982D02*
X019990Y003982D01*
X018795Y003824D02*
X017756Y003824D01*
X017756Y003665D02*
X018618Y003665D01*
X018545Y003507D02*
X017756Y003507D01*
X017756Y003348D02*
X018520Y003348D01*
X018534Y003190D02*
X017784Y003190D01*
X017784Y003031D02*
X018600Y003031D01*
X018751Y002873D02*
X017856Y002873D01*
X018014Y002714D02*
X022955Y002714D01*
X022955Y002556D02*
X022774Y002556D01*
X022072Y002556D02*
X018079Y002556D01*
X018105Y002397D02*
X021765Y002397D01*
X021606Y002239D02*
X018098Y002239D01*
X018032Y002080D02*
X021498Y002080D01*
X021416Y001922D02*
X017901Y001922D01*
X017465Y001763D02*
X021374Y001763D01*
X021352Y001605D02*
X017559Y001605D01*
X017605Y001446D02*
X021352Y001446D01*
X021382Y001288D02*
X017605Y001288D01*
X017553Y001129D02*
X021424Y001129D01*
X013480Y006994D02*
X013040Y006994D01*
X012977Y007152D02*
X013496Y007152D01*
X013496Y007311D02*
X012822Y007311D01*
X013199Y006835D02*
X013243Y006835D01*
X011598Y008262D02*
X010367Y008262D01*
X010369Y008420D02*
X011756Y008420D01*
X011915Y008579D02*
X010371Y008579D01*
X010373Y008737D02*
X012073Y008737D01*
X012181Y008896D02*
X010375Y008896D01*
X010376Y009054D02*
X012236Y009054D01*
X012236Y009213D02*
X010378Y009213D01*
X010380Y009371D02*
X012236Y009371D01*
X012236Y009530D02*
X010382Y009530D01*
X010384Y009688D02*
X012236Y009688D01*
X012236Y009847D02*
X010386Y009847D01*
X010387Y010005D02*
X012236Y010005D01*
X012236Y010164D02*
X010389Y010164D01*
X010391Y010322D02*
X012236Y010322D01*
X012236Y010481D02*
X010393Y010481D01*
X010395Y010639D02*
X012236Y010639D01*
X012236Y010798D02*
X010397Y010798D01*
X010398Y010956D02*
X012236Y010956D01*
X012236Y011115D02*
X010400Y011115D01*
X010402Y011273D02*
X012236Y011273D01*
X012236Y011432D02*
X010404Y011432D01*
X010406Y011590D02*
X012236Y011590D01*
X012236Y011749D02*
X010408Y011749D01*
X010409Y011907D02*
X012236Y011907D01*
X012236Y012066D02*
X010411Y012066D01*
X010413Y012224D02*
X012236Y012224D01*
X012236Y012383D02*
X010415Y012383D01*
X010417Y012541D02*
X012236Y012541D01*
X012128Y012700D02*
X010419Y012700D01*
X010420Y012858D02*
X011969Y012858D01*
X011699Y013017D02*
X010422Y013017D01*
X010424Y013175D02*
X011613Y013175D01*
X011597Y013334D02*
X010426Y013334D01*
X010428Y013492D02*
X011640Y013492D01*
X011676Y013651D02*
X010430Y013651D01*
X010431Y013809D02*
X011676Y013809D01*
X011676Y013968D02*
X010433Y013968D01*
X010435Y014126D02*
X011746Y014126D01*
X011905Y014285D02*
X010437Y014285D01*
X010439Y014443D02*
X012063Y014443D01*
X012222Y014602D02*
X010441Y014602D01*
X010442Y014760D02*
X012430Y014760D01*
X012542Y014796D02*
X012268Y014796D01*
X012014Y014901D01*
X011820Y015095D01*
X011715Y015349D01*
X011715Y015623D01*
X011820Y015877D01*
X011929Y015986D01*
X011820Y016095D01*
X011715Y016349D01*
X011715Y016623D01*
X011820Y016877D01*
X011929Y016986D01*
X011820Y017095D01*
X011715Y017349D01*
X011715Y017623D01*
X011820Y017877D01*
X012014Y018071D01*
X012268Y018176D01*
X012542Y018176D01*
X012796Y018071D01*
X012990Y017877D01*
X013095Y017623D01*
X013095Y017349D01*
X012990Y017095D01*
X012881Y016986D01*
X012990Y016877D01*
X013095Y016623D01*
X013095Y016349D01*
X012990Y016095D01*
X012881Y015986D01*
X012990Y015877D01*
X013095Y015623D01*
X013095Y015349D01*
X012990Y015095D01*
X012796Y014901D01*
X012542Y014796D01*
X012814Y014919D02*
X016155Y014919D01*
X016313Y015077D02*
X012972Y015077D01*
X013048Y015236D02*
X016472Y015236D01*
X016506Y015394D02*
X013095Y015394D01*
X013095Y015553D02*
X016506Y015553D01*
X016506Y015711D02*
X013058Y015711D01*
X012993Y015870D02*
X016506Y015870D01*
X016506Y016028D02*
X012923Y016028D01*
X013028Y016187D02*
X014669Y016187D01*
X014420Y016345D02*
X013094Y016345D01*
X013095Y016504D02*
X014296Y016504D01*
X014230Y016662D02*
X013079Y016662D01*
X013013Y016821D02*
X014215Y016821D01*
X014218Y016979D02*
X012887Y016979D01*
X013008Y017138D02*
X014283Y017138D01*
X014390Y017296D02*
X013073Y017296D01*
X013095Y017455D02*
X014596Y017455D01*
X015214Y017455D02*
X015913Y017455D01*
X015925Y017296D02*
X015885Y017296D01*
X015885Y017138D02*
X015925Y017138D01*
X015925Y016979D02*
X015885Y016979D01*
X015885Y016662D02*
X015925Y016662D01*
X015925Y016504D02*
X015885Y016504D01*
X015885Y016345D02*
X015925Y016345D01*
X016154Y016345D02*
X016420Y016345D01*
X016506Y016187D02*
X015141Y016187D01*
X015390Y016345D02*
X015656Y016345D01*
X015603Y017296D02*
X015420Y017296D01*
X015754Y017613D02*
X013095Y017613D01*
X013033Y017772D02*
X015596Y017772D01*
X015437Y017930D02*
X012936Y017930D01*
X012752Y018089D02*
X015279Y018089D01*
X015120Y018247D02*
X010483Y018247D01*
X010481Y018089D02*
X012058Y018089D01*
X011874Y017930D02*
X010479Y017930D01*
X010477Y017772D02*
X011777Y017772D01*
X011715Y017613D02*
X010475Y017613D01*
X010474Y017455D02*
X011715Y017455D01*
X011737Y017296D02*
X010472Y017296D01*
X010470Y017138D02*
X011802Y017138D01*
X011923Y016979D02*
X010468Y016979D01*
X010466Y016821D02*
X011797Y016821D01*
X011731Y016662D02*
X010464Y016662D01*
X010463Y016504D02*
X011715Y016504D01*
X011716Y016345D02*
X010461Y016345D01*
X010459Y016187D02*
X011782Y016187D01*
X011887Y016028D02*
X010457Y016028D01*
X010455Y015870D02*
X011817Y015870D01*
X011752Y015711D02*
X010453Y015711D01*
X010452Y015553D02*
X011715Y015553D01*
X011715Y015394D02*
X010450Y015394D01*
X010448Y015236D02*
X011762Y015236D01*
X011838Y015077D02*
X010446Y015077D01*
X010444Y014919D02*
X011996Y014919D01*
X012604Y013968D02*
X013715Y013968D01*
X013715Y013809D02*
X012446Y013809D01*
X012394Y013651D02*
X013735Y013651D01*
X013800Y013492D02*
X012430Y013492D01*
X012510Y013334D02*
X013931Y013334D01*
X014196Y013175D02*
X012669Y013175D01*
X012827Y013017D02*
X014815Y013017D01*
X014814Y013175D02*
X014614Y013175D01*
X014815Y012858D02*
X012935Y012858D01*
X012954Y012700D02*
X014815Y012700D01*
X015075Y013651D02*
X015087Y013651D01*
X018141Y016187D02*
X018669Y016187D01*
X018420Y016345D02*
X018390Y016345D01*
X020334Y015870D02*
X022955Y015870D01*
X022955Y016028D02*
X020471Y016028D01*
X020539Y016187D02*
X022955Y016187D01*
X022955Y016345D02*
X020698Y016345D01*
X020788Y016504D02*
X022955Y016504D01*
X022955Y016662D02*
X020794Y016662D01*
X020794Y016821D02*
X022955Y016821D01*
X022955Y016979D02*
X020794Y016979D01*
X020794Y017138D02*
X022955Y017138D01*
X022955Y017296D02*
X020794Y017296D01*
X020794Y017455D02*
X022955Y017455D01*
X022955Y017613D02*
X020794Y017613D01*
X020794Y017772D02*
X022955Y017772D01*
X022955Y017930D02*
X020794Y017930D01*
X020794Y018089D02*
X022955Y018089D01*
X022955Y018247D02*
X020794Y018247D01*
X020794Y018406D02*
X022955Y018406D01*
X022955Y018564D02*
X020794Y018564D01*
X020794Y018723D02*
X022955Y018723D01*
X022955Y018881D02*
X020794Y018881D01*
X020794Y019040D02*
X022955Y019040D01*
X022955Y019198D02*
X020794Y019198D01*
X020866Y019357D02*
X022955Y019357D01*
X022955Y019515D02*
X020873Y019515D01*
X020821Y019674D02*
X022955Y019674D01*
X022955Y019832D02*
X020683Y019832D01*
X020187Y019832D02*
X016185Y019832D01*
X016027Y019991D02*
X022955Y019991D01*
X022955Y020149D02*
X015451Y020149D01*
X015490Y020308D02*
X022955Y020308D01*
X021922Y020466D02*
X015471Y020466D01*
X015490Y020336D02*
X015030Y020336D01*
X015030Y020796D01*
X015030Y020336D01*
X015030Y020336D01*
X015030Y020336D01*
X015490Y020336D01*
X015250Y019931D02*
X015146Y019828D01*
X015061Y019622D01*
X015039Y019676D01*
X014870Y019844D01*
X014855Y019851D01*
X014855Y019909D01*
X014922Y019887D01*
X014994Y019876D01*
X015030Y019876D01*
X015066Y019876D01*
X015138Y019887D01*
X015207Y019910D01*
X015250Y019931D01*
X015151Y019832D02*
X014882Y019832D01*
X015030Y019876D02*
X015030Y020336D01*
X015030Y019876D01*
X015030Y019991D02*
X015030Y019991D01*
X015030Y020149D02*
X015030Y020149D01*
X015030Y020308D02*
X015030Y020308D01*
X015030Y020336D02*
X015030Y020336D01*
X015030Y020466D02*
X015030Y020466D01*
X015030Y020625D02*
X015030Y020625D01*
X015030Y020783D02*
X015030Y020783D01*
X014919Y020783D02*
X014803Y020783D01*
X014651Y020942D02*
X021491Y020942D01*
X021440Y021100D02*
X014492Y021100D01*
X014313Y021259D02*
X021401Y021259D01*
X021401Y021417D02*
X010519Y021417D01*
X010518Y021259D02*
X012420Y021259D01*
X012241Y021100D02*
X010516Y021100D01*
X010514Y020942D02*
X012083Y020942D01*
X011629Y020783D02*
X010512Y020783D01*
X010510Y020625D02*
X011500Y020625D01*
X011435Y020466D02*
X010508Y020466D01*
X010507Y020308D02*
X011430Y020308D01*
X011458Y020149D02*
X010505Y020149D01*
X010503Y019991D02*
X011526Y019991D01*
X011685Y019832D02*
X010501Y019832D01*
X010499Y019674D02*
X011218Y019674D01*
X011105Y019515D02*
X010497Y019515D01*
X010496Y019357D02*
X011070Y019357D01*
X011091Y019198D02*
X010494Y019198D01*
X010492Y019040D02*
X011176Y019040D01*
X011459Y018881D02*
X010490Y018881D01*
X010488Y018723D02*
X014645Y018723D01*
X014803Y018564D02*
X010486Y018564D01*
X010485Y018406D02*
X014962Y018406D01*
X014136Y018881D02*
X013924Y018881D01*
X013136Y018881D02*
X012924Y018881D01*
X012136Y018881D02*
X011601Y018881D01*
X011530Y018881D02*
X011530Y018881D01*
X011530Y018876D02*
X011530Y019336D01*
X011530Y019336D01*
X011530Y018876D01*
X011530Y019040D02*
X011530Y019040D01*
X011530Y019198D02*
X011530Y019198D01*
X011530Y019357D02*
X011530Y019357D01*
X011530Y019515D02*
X011530Y019515D01*
X011530Y019674D02*
X011530Y019674D01*
X011842Y019674D02*
X012021Y019674D01*
X011955Y019515D02*
X011955Y019515D01*
X012003Y019040D02*
X011884Y019040D01*
X009761Y019040D02*
X009479Y019040D01*
X009471Y019058D02*
X009263Y019266D01*
X008991Y019379D01*
X008697Y019379D01*
X008425Y019266D01*
X008217Y019058D01*
X008104Y018786D01*
X008104Y017652D01*
X008217Y017380D01*
X008368Y017228D01*
X008359Y016528D01*
X008249Y016482D01*
X008159Y016392D01*
X008110Y016274D01*
X008110Y016245D01*
X008084Y016271D01*
X008020Y016318D01*
X007949Y016354D01*
X007873Y016378D01*
X007795Y016391D01*
X007755Y016391D01*
X007715Y016391D01*
X007637Y016378D01*
X007561Y016354D01*
X007490Y016318D01*
X007426Y016271D01*
X007370Y016215D01*
X007323Y016150D01*
X007287Y016080D01*
X007262Y016004D01*
X007250Y015926D01*
X007250Y015886D01*
X007755Y015886D01*
X007755Y016391D01*
X007755Y015886D01*
X007755Y015886D01*
X007755Y015886D01*
X007250Y015886D01*
X007250Y015846D01*
X007262Y015768D01*
X007287Y015692D01*
X007323Y015621D01*
X007370Y015557D01*
X007426Y015501D01*
X007490Y015454D01*
X007561Y015418D01*
X007637Y015393D01*
X007715Y015381D01*
X007755Y015381D01*
X007795Y015381D01*
X007873Y015393D01*
X007949Y015418D01*
X008020Y015454D01*
X008084Y015501D01*
X008110Y015527D01*
X008110Y015497D01*
X008159Y015380D01*
X008249Y015290D01*
X008366Y015241D01*
X009144Y015241D01*
X009261Y015290D01*
X009351Y015380D01*
X009400Y015497D01*
X009400Y016274D01*
X009351Y016392D01*
X009261Y016482D01*
X009238Y016492D01*
X009248Y017165D01*
X009263Y017172D01*
X009471Y017380D01*
X009584Y017652D01*
X009584Y018786D01*
X009471Y019058D01*
X009545Y018881D02*
X009760Y018881D01*
X009759Y018723D02*
X009584Y018723D01*
X009584Y018564D02*
X009758Y018564D01*
X009757Y018406D02*
X009584Y018406D01*
X009584Y018247D02*
X009756Y018247D01*
X009756Y018089D02*
X009584Y018089D01*
X009584Y017930D02*
X009755Y017930D01*
X009754Y017772D02*
X009584Y017772D01*
X009568Y017613D02*
X009753Y017613D01*
X009752Y017455D02*
X009502Y017455D01*
X009388Y017296D02*
X009751Y017296D01*
X009750Y017138D02*
X009247Y017138D01*
X009245Y016979D02*
X009749Y016979D01*
X009748Y016821D02*
X009243Y016821D01*
X009241Y016662D02*
X009747Y016662D01*
X009746Y016504D02*
X009238Y016504D01*
X009371Y016345D02*
X009745Y016345D01*
X009745Y016187D02*
X009400Y016187D01*
X009400Y016028D02*
X009744Y016028D01*
X009743Y015870D02*
X009400Y015870D01*
X009400Y015711D02*
X009742Y015711D01*
X009741Y015553D02*
X009400Y015553D01*
X009357Y015394D02*
X009740Y015394D01*
X009739Y015236D02*
X004837Y015236D01*
X004842Y015241D02*
X005194Y015241D01*
X005311Y015290D01*
X005401Y015380D01*
X005450Y015497D01*
X005450Y016274D01*
X005415Y016359D01*
X005423Y017157D01*
X005621Y017355D01*
X005734Y017627D01*
X005734Y018761D01*
X005621Y019033D01*
X005413Y019241D01*
X005141Y019354D01*
X004847Y019354D01*
X004575Y019241D01*
X004367Y019033D01*
X004254Y018761D01*
X004254Y017627D01*
X004367Y017355D01*
X004543Y017178D01*
X004537Y016531D01*
X004416Y016531D01*
X004299Y016482D01*
X004209Y016392D01*
X004160Y016274D01*
X004160Y016245D01*
X004134Y016271D01*
X004070Y016318D01*
X003999Y016354D01*
X003923Y016378D01*
X003845Y016391D01*
X003805Y016391D01*
X003765Y016391D01*
X003687Y016378D01*
X003611Y016354D01*
X003540Y016318D01*
X003476Y016271D01*
X003420Y016215D01*
X003373Y016150D01*
X003337Y016080D01*
X003312Y016004D01*
X003300Y015926D01*
X003300Y015886D01*
X003805Y015886D01*
X003805Y016391D01*
X003805Y015886D01*
X003805Y015886D01*
X003805Y015886D01*
X003300Y015886D01*
X003300Y015846D01*
X003312Y015768D01*
X003337Y015692D01*
X003373Y015621D01*
X003420Y015557D01*
X003476Y015501D01*
X003540Y015454D01*
X003611Y015418D01*
X003687Y015393D01*
X003765Y015381D01*
X003805Y015381D01*
X003814Y015381D01*
X003529Y015037D01*
X003506Y015021D01*
X003474Y014970D01*
X003436Y014924D01*
X003427Y014897D01*
X003135Y014438D01*
X003107Y014410D01*
X003088Y014365D01*
X003062Y014323D01*
X003055Y014285D01*
X001625Y014285D01*
X001625Y014443D02*
X003138Y014443D01*
X003055Y014285D02*
X003040Y014248D01*
X003040Y014199D01*
X003031Y014151D01*
X003040Y014113D01*
X003040Y013484D01*
X003015Y013423D01*
X003015Y002823D01*
X003082Y002662D01*
X003206Y002538D01*
X003650Y002094D01*
X003670Y002045D01*
X003770Y001945D01*
X003741Y001916D01*
X003717Y001875D01*
X003705Y001830D01*
X003705Y001456D01*
X004235Y001456D01*
X004235Y001416D01*
X003705Y001416D01*
X003705Y001042D01*
X003717Y000996D01*
X003726Y000981D01*
X003108Y000981D01*
X003156Y001064D01*
X003229Y001337D01*
X003229Y001619D01*
X003156Y001891D01*
X003015Y002136D01*
X002816Y002335D01*
X002571Y002476D01*
X002299Y002549D01*
X002017Y002549D01*
X001745Y002476D01*
X001625Y002407D01*
X001625Y020399D01*
X001682Y020367D01*
X001954Y020294D01*
X002236Y020294D01*
X002508Y020367D01*
X002753Y020508D01*
X002952Y020707D01*
X003093Y020951D01*
X003166Y021224D01*
X003166Y021506D01*
X003093Y021778D01*
X003030Y021887D01*
X009777Y021887D01*
X009673Y003811D01*
X009597Y003887D01*
X009596Y003888D01*
X009596Y004006D01*
X009596Y004140D01*
X009584Y004185D01*
X009560Y004226D01*
X009527Y004260D01*
X009485Y004284D01*
X009440Y004296D01*
X009026Y004296D01*
X009026Y004006D01*
X009026Y004296D01*
X008612Y004296D01*
X008567Y004284D01*
X008525Y004260D01*
X008492Y004226D01*
X008468Y004185D01*
X008456Y004140D01*
X008456Y004006D01*
X009026Y004006D01*
X009026Y004006D01*
X009026Y004006D01*
X009596Y004006D01*
X009026Y004006D01*
X009026Y004006D01*
X008456Y004006D01*
X008456Y003888D01*
X008455Y003887D01*
X008428Y003860D01*
X007256Y003860D01*
X007121Y003996D01*
X006867Y004101D01*
X006593Y004101D01*
X006339Y003996D01*
X006145Y003802D01*
X006145Y003801D01*
X004851Y003801D01*
X004840Y003827D01*
X004646Y004021D01*
X004392Y004126D01*
X004118Y004126D01*
X003895Y004034D01*
X003895Y009920D01*
X004079Y009920D01*
X004079Y010298D01*
X004155Y010298D01*
X004155Y009920D01*
X004377Y009920D01*
X004422Y009932D01*
X004429Y009936D01*
X004436Y009918D01*
X004526Y009828D01*
X004629Y009786D01*
X004651Y009731D01*
X004698Y009684D01*
X004698Y009411D01*
X004747Y009293D01*
X004837Y009203D01*
X004955Y009155D01*
X005123Y009155D01*
X004945Y008977D01*
X004937Y008957D01*
X004888Y009005D01*
X004818Y009056D01*
X004741Y009096D01*
X004659Y009122D01*
X004573Y009136D01*
X004550Y009136D01*
X004550Y008606D01*
X004510Y008606D01*
X004510Y009136D01*
X004487Y009136D01*
X004401Y009122D01*
X004319Y009096D01*
X004242Y009056D01*
X004172Y009005D01*
X004110Y008944D01*
X004060Y008874D01*
X004020Y008797D01*
X003994Y008715D01*
X003980Y008629D01*
X003980Y008606D01*
X004510Y008606D01*
X004510Y008566D01*
X003980Y008566D01*
X003980Y008543D01*
X003994Y008457D01*
X004020Y008375D01*
X004060Y008298D01*
X004110Y008228D01*
X004172Y008166D01*
X004242Y008115D01*
X004319Y008076D01*
X004401Y008049D01*
X004487Y008036D01*
X004510Y008036D01*
X004510Y008566D01*
X004550Y008566D01*
X004550Y008036D01*
X004573Y008036D01*
X004659Y008049D01*
X004741Y008076D01*
X004818Y008115D01*
X004888Y008166D01*
X004937Y008215D01*
X004945Y008195D01*
X005085Y008055D01*
X005085Y007992D01*
X004945Y007852D01*
X004937Y007832D01*
X004888Y007880D01*
X004818Y007931D01*
X004741Y007971D01*
X004659Y007997D01*
X004573Y008011D01*
X004550Y008011D01*
X004550Y007481D01*
X004510Y007481D01*
X004510Y008011D01*
X004487Y008011D01*
X004401Y007997D01*
X004319Y007971D01*
X004242Y007931D01*
X004172Y007880D01*
X004110Y007819D01*
X004060Y007749D01*
X004020Y007672D01*
X003994Y007590D01*
X003980Y007504D01*
X003980Y007481D01*
X004510Y007481D01*
X004510Y007441D01*
X003980Y007441D01*
X003980Y007418D01*
X003994Y007332D01*
X004020Y007250D01*
X004060Y007173D01*
X004110Y007103D01*
X004172Y007041D01*
X004242Y006990D01*
X004319Y006951D01*
X004401Y006924D01*
X004487Y006911D01*
X004510Y006911D01*
X004510Y007441D01*
X004550Y007441D01*
X004550Y006911D01*
X004573Y006911D01*
X004659Y006924D01*
X004741Y006951D01*
X004818Y006990D01*
X004888Y007041D01*
X004937Y007090D01*
X004945Y007070D01*
X005085Y006930D01*
X005085Y006867D01*
X004945Y006727D01*
X004937Y006707D01*
X004888Y006755D01*
X004818Y006806D01*
X004741Y006846D01*
X004659Y006872D01*
X004573Y006886D01*
X004550Y006886D01*
X004550Y006356D01*
X004510Y006356D01*
X004510Y006886D01*
X004487Y006886D01*
X004401Y006872D01*
X004319Y006846D01*
X004242Y006806D01*
X004172Y006755D01*
X004110Y006694D01*
X004060Y006624D01*
X004020Y006547D01*
X003994Y006465D01*
X003980Y006379D01*
X003980Y006356D01*
X004510Y006356D01*
X004510Y006316D01*
X003980Y006316D01*
X003980Y006293D01*
X003994Y006207D01*
X004020Y006125D01*
X004060Y006048D01*
X004110Y005978D01*
X004172Y005916D01*
X004242Y005865D01*
X004319Y005826D01*
X004401Y005799D01*
X004487Y005786D01*
X004510Y005786D01*
X004510Y006316D01*
X004550Y006316D01*
X004550Y005786D01*
X004573Y005786D01*
X004659Y005799D01*
X004741Y005826D01*
X004818Y005865D01*
X004888Y005916D01*
X004937Y005965D01*
X004945Y005945D01*
X005117Y005773D01*
X004945Y005602D01*
X004937Y005582D01*
X004888Y005630D01*
X004818Y005681D01*
X004741Y005721D01*
X004659Y005747D01*
X004573Y005761D01*
X004550Y005761D01*
X004550Y005231D01*
X004510Y005231D01*
X004510Y005761D01*
X004487Y005761D01*
X004401Y005747D01*
X004319Y005721D01*
X004242Y005681D01*
X004172Y005630D01*
X004110Y005569D01*
X004060Y005499D01*
X004020Y005422D01*
X003994Y005340D01*
X003980Y005254D01*
X003980Y005231D01*
X004510Y005231D01*
X004510Y005191D01*
X003980Y005191D01*
X003980Y005168D01*
X003994Y005082D01*
X004020Y005000D01*
X004060Y004923D01*
X004110Y004853D01*
X004172Y004791D01*
X004242Y004740D01*
X004319Y004701D01*
X004401Y004674D01*
X004487Y004661D01*
X004510Y004661D01*
X004510Y005191D01*
X004550Y005191D01*
X004550Y004661D01*
X004573Y004661D01*
X004659Y004674D01*
X004741Y004701D01*
X004818Y004740D01*
X004888Y004791D01*
X004937Y004840D01*
X004945Y004820D01*
X005139Y004626D01*
X005393Y004521D01*
X005667Y004521D01*
X005921Y004626D01*
X006030Y004735D01*
X006139Y004626D01*
X006393Y004521D01*
X006667Y004521D01*
X006921Y004626D01*
X007115Y004820D01*
X007220Y005074D01*
X007220Y005348D01*
X007115Y005602D01*
X006943Y005773D01*
X007115Y005945D01*
X007220Y006199D01*
X007220Y006473D01*
X007115Y006727D01*
X006943Y006898D01*
X007115Y007070D01*
X007220Y007324D01*
X007220Y007598D01*
X007115Y007852D01*
X006943Y008023D01*
X007115Y008195D01*
X007220Y008449D01*
X007220Y008723D01*
X007115Y008977D01*
X006965Y009126D01*
X007384Y009981D01*
X007483Y010022D01*
X007624Y010163D01*
X007700Y010346D01*
X007700Y010545D01*
X007624Y010729D01*
X007483Y010870D01*
X007299Y010946D01*
X007101Y010946D01*
X006917Y010870D01*
X006776Y010729D01*
X006700Y010545D01*
X006700Y010346D01*
X006718Y010303D01*
X006362Y009576D01*
X006362Y010011D01*
X006315Y010124D01*
X006315Y010646D01*
X006542Y010646D01*
X006796Y010751D01*
X006990Y010945D01*
X007095Y011199D01*
X007095Y011473D01*
X006990Y011727D01*
X006818Y011898D01*
X006990Y012070D01*
X007095Y012324D01*
X007095Y012598D01*
X006990Y012852D01*
X006831Y013011D01*
X006990Y013170D01*
X007095Y013424D01*
X007095Y013698D01*
X006990Y013952D01*
X006796Y014146D01*
X006542Y014251D01*
X006268Y014251D01*
X006014Y014146D01*
X005905Y014037D01*
X005796Y014146D01*
X005542Y014251D01*
X005268Y014251D01*
X005014Y014146D01*
X004820Y013952D01*
X004812Y013932D01*
X004763Y013980D01*
X004693Y014031D01*
X004616Y014071D01*
X004534Y014097D01*
X004448Y014111D01*
X004425Y014111D01*
X004425Y013581D01*
X004385Y013581D01*
X004385Y014111D01*
X004362Y014111D01*
X004276Y014097D01*
X004194Y014071D01*
X004117Y014031D01*
X004047Y013980D01*
X003985Y013919D01*
X003935Y013849D01*
X003920Y013820D01*
X003920Y014033D01*
X004186Y014451D01*
X004842Y015241D01*
X004706Y015077D02*
X009738Y015077D01*
X009737Y014919D02*
X004574Y014919D01*
X004443Y014760D02*
X009736Y014760D01*
X009735Y014602D02*
X004311Y014602D01*
X004181Y014443D02*
X009735Y014443D01*
X009734Y014285D02*
X004080Y014285D01*
X003980Y014126D02*
X004995Y014126D01*
X004836Y013968D02*
X004776Y013968D01*
X004425Y013968D02*
X004385Y013968D01*
X004385Y013809D02*
X004425Y013809D01*
X004425Y013651D02*
X004385Y013651D01*
X004385Y013541D02*
X004425Y013541D01*
X004425Y013011D01*
X004448Y013011D01*
X004534Y013024D01*
X004616Y013051D01*
X004693Y013090D01*
X004763Y013141D01*
X004812Y013190D01*
X004820Y013170D01*
X004979Y013011D01*
X004820Y012852D01*
X004812Y012832D01*
X004763Y012880D01*
X004693Y012931D01*
X004616Y012971D01*
X004534Y012997D01*
X004448Y013011D01*
X004425Y013011D01*
X004425Y012481D01*
X004385Y012481D01*
X004385Y013011D01*
X004385Y013541D01*
X004385Y013492D02*
X004425Y013492D01*
X004425Y013334D02*
X004385Y013334D01*
X004385Y013175D02*
X004425Y013175D01*
X004425Y013017D02*
X004385Y013017D01*
X004385Y013011D02*
X004362Y013011D01*
X004276Y013024D01*
X004194Y013051D01*
X004117Y013090D01*
X004047Y013141D01*
X003985Y013203D01*
X003935Y013273D01*
X003920Y013301D01*
X003920Y013273D01*
X003895Y013213D01*
X003895Y012671D01*
X003895Y012672D01*
X003935Y012749D01*
X003985Y012819D01*
X004047Y012880D01*
X004117Y012931D01*
X004194Y012971D01*
X004276Y012997D01*
X004362Y013011D01*
X004385Y013011D01*
X004324Y013017D02*
X003895Y013017D01*
X003895Y013175D02*
X004013Y013175D01*
X004025Y012858D02*
X003895Y012858D01*
X003895Y012700D02*
X003910Y012700D01*
X004385Y012700D02*
X004425Y012700D01*
X004425Y012858D02*
X004385Y012858D01*
X004486Y013017D02*
X004973Y013017D01*
X004827Y012858D02*
X004785Y012858D01*
X004425Y012541D02*
X004385Y012541D01*
X004385Y012441D02*
X004425Y012441D01*
X004425Y011911D01*
X004448Y011911D01*
X004534Y011924D01*
X004616Y011951D01*
X004693Y011990D01*
X004763Y012041D01*
X004812Y012090D01*
X004820Y012070D01*
X004992Y011898D01*
X004820Y011727D01*
X004812Y011707D01*
X004763Y011755D01*
X004693Y011806D01*
X004616Y011846D01*
X004534Y011872D01*
X004448Y011886D01*
X004425Y011886D01*
X004425Y011356D01*
X004385Y011356D01*
X004385Y011886D01*
X004362Y011886D01*
X004276Y011872D01*
X004194Y011846D01*
X004117Y011806D01*
X004047Y011755D01*
X003985Y011694D01*
X003935Y011624D01*
X003895Y011547D01*
X003895Y011546D01*
X003895Y012251D01*
X003895Y012250D01*
X003935Y012173D01*
X003985Y012103D01*
X004047Y012041D01*
X004117Y011990D01*
X004194Y011951D01*
X004276Y011924D01*
X004362Y011911D01*
X004385Y011911D01*
X004385Y012441D01*
X004385Y012383D02*
X004425Y012383D01*
X004425Y012224D02*
X004385Y012224D01*
X004385Y012066D02*
X004425Y012066D01*
X004788Y012066D02*
X004824Y012066D01*
X004983Y011907D02*
X003895Y011907D01*
X003895Y011749D02*
X004040Y011749D01*
X003917Y011590D02*
X003895Y011590D01*
X003895Y011126D02*
X003895Y011125D01*
X003935Y011048D01*
X003985Y010978D01*
X004047Y010916D01*
X004117Y010865D01*
X004194Y010826D01*
X004276Y010799D01*
X004362Y010786D01*
X004385Y010786D01*
X004385Y011316D01*
X004425Y011316D01*
X004425Y010786D01*
X004448Y010786D01*
X004472Y010790D01*
X004436Y010753D01*
X004429Y010736D01*
X004422Y010740D01*
X004377Y010752D01*
X004155Y010752D01*
X004155Y010374D01*
X004079Y010374D01*
X004079Y010752D01*
X003895Y010752D01*
X003895Y011126D01*
X003895Y011115D02*
X003900Y011115D01*
X003895Y010956D02*
X004007Y010956D01*
X003930Y010786D02*
X003930Y010036D01*
X003980Y009986D01*
X004005Y010011D01*
X004005Y010611D01*
X003905Y010711D01*
X003905Y009986D01*
X003880Y009961D01*
X003895Y009847D02*
X004507Y009847D01*
X004694Y009688D02*
X003895Y009688D01*
X003895Y009530D02*
X004698Y009530D01*
X004715Y009371D02*
X003895Y009371D01*
X003895Y009213D02*
X004827Y009213D01*
X004821Y009054D02*
X005023Y009054D01*
X004550Y009054D02*
X004510Y009054D01*
X004510Y008896D02*
X004550Y008896D01*
X004550Y008737D02*
X004510Y008737D01*
X004510Y008579D02*
X003895Y008579D01*
X003895Y008737D02*
X004001Y008737D01*
X004075Y008896D02*
X003895Y008896D01*
X003895Y009054D02*
X004239Y009054D01*
X004005Y008420D02*
X003895Y008420D01*
X003895Y008262D02*
X004086Y008262D01*
X004265Y008103D02*
X003895Y008103D01*
X003895Y007945D02*
X004268Y007945D01*
X004087Y007786D02*
X003895Y007786D01*
X003895Y007628D02*
X004006Y007628D01*
X003895Y007469D02*
X004510Y007469D01*
X004510Y007311D02*
X004550Y007311D01*
X004550Y007152D02*
X004510Y007152D01*
X004510Y006994D02*
X004550Y006994D01*
X004550Y006835D02*
X004510Y006835D01*
X004510Y006677D02*
X004550Y006677D01*
X004550Y006518D02*
X004510Y006518D01*
X004510Y006360D02*
X004550Y006360D01*
X004550Y006201D02*
X004510Y006201D01*
X004510Y006043D02*
X004550Y006043D01*
X004550Y005884D02*
X004510Y005884D01*
X004510Y005726D02*
X004550Y005726D01*
X004550Y005567D02*
X004510Y005567D01*
X004510Y005409D02*
X004550Y005409D01*
X004550Y005250D02*
X004510Y005250D01*
X004510Y005092D02*
X004550Y005092D01*
X004550Y004933D02*
X004510Y004933D01*
X004510Y004775D02*
X004550Y004775D01*
X004866Y004775D02*
X004990Y004775D01*
X005162Y004616D02*
X003895Y004616D01*
X003895Y004458D02*
X009677Y004458D01*
X009655Y004361D02*
X009655Y003486D01*
X009647Y003485D01*
X009640Y003481D01*
X009635Y003476D01*
X009631Y003469D01*
X009630Y003461D01*
X009630Y002186D01*
X009664Y002191D02*
X009662Y001851D01*
X009529Y001851D01*
X009529Y001473D01*
X009453Y001473D01*
X009453Y001851D01*
X009231Y001851D01*
X009186Y001839D01*
X009179Y001835D01*
X009172Y001852D01*
X009082Y001942D01*
X008964Y001991D01*
X008547Y001991D01*
X008513Y002073D01*
X008497Y002089D01*
X008500Y002091D01*
X008535Y002091D01*
X008572Y002076D01*
X009480Y002076D01*
X009597Y002125D01*
X009664Y002191D01*
X009630Y002186D02*
X009629Y002196D01*
X009625Y002205D01*
X009619Y002213D01*
X009611Y002219D01*
X009602Y002223D01*
X009592Y002224D01*
X009491Y001435D01*
X009453Y001397D02*
X009529Y001397D01*
X009529Y001019D01*
X009657Y001019D01*
X009657Y000981D01*
X009136Y000981D01*
X009172Y001017D01*
X009179Y001035D01*
X009186Y001031D01*
X009231Y001019D01*
X009453Y001019D01*
X009453Y001397D01*
X009453Y001288D02*
X009529Y001288D01*
X009529Y001129D02*
X009453Y001129D01*
X009453Y001605D02*
X009529Y001605D01*
X009529Y001763D02*
X009453Y001763D01*
X009662Y001922D02*
X009103Y001922D01*
X009491Y002080D02*
X009663Y002080D01*
X008561Y002080D02*
X008505Y002080D01*
X007513Y002089D02*
X007510Y002091D01*
X007345Y002091D01*
X007315Y002020D01*
X007215Y001920D01*
X007244Y001891D01*
X007268Y001850D01*
X007280Y001805D01*
X007280Y001431D01*
X006750Y001431D01*
X006750Y001391D01*
X007280Y001391D01*
X007280Y001017D01*
X007270Y000981D01*
X008194Y000981D01*
X008157Y001017D01*
X008118Y001111D01*
X007974Y001111D01*
X007841Y001166D01*
X007751Y001257D01*
X007705Y001257D01*
X007588Y001306D01*
X007497Y001396D01*
X007449Y001513D01*
X007449Y001956D01*
X007497Y002073D01*
X007513Y002089D01*
X007505Y002080D02*
X007340Y002080D01*
X007449Y001922D02*
X007217Y001922D01*
X007280Y001763D02*
X007449Y001763D01*
X007449Y001605D02*
X007280Y001605D01*
X007280Y001446D02*
X007477Y001446D01*
X007631Y001288D02*
X007280Y001288D01*
X007280Y001129D02*
X007930Y001129D01*
X006710Y001391D02*
X006180Y001391D01*
X006180Y001017D01*
X006190Y000981D01*
X004784Y000981D01*
X004793Y000996D01*
X004805Y001042D01*
X004805Y001416D01*
X004275Y001416D01*
X004275Y001456D01*
X004805Y001456D01*
X004805Y001830D01*
X004793Y001875D01*
X004769Y001916D01*
X004740Y001945D01*
X004806Y002011D01*
X006154Y002011D01*
X006245Y001920D01*
X006216Y001891D01*
X006192Y001850D01*
X006180Y001805D01*
X006180Y001431D01*
X006710Y001431D01*
X006710Y001391D01*
X006180Y001446D02*
X004275Y001446D01*
X004235Y001446D02*
X003229Y001446D01*
X003216Y001288D02*
X003705Y001288D01*
X003705Y001129D02*
X003174Y001129D01*
X003229Y001605D02*
X003705Y001605D01*
X003705Y001763D02*
X003190Y001763D01*
X003139Y001922D02*
X003746Y001922D01*
X003655Y002080D02*
X003047Y002080D01*
X002912Y002239D02*
X003505Y002239D01*
X003346Y002397D02*
X002708Y002397D01*
X003060Y002714D02*
X001625Y002714D01*
X001625Y002556D02*
X003188Y002556D01*
X003015Y002873D02*
X001625Y002873D01*
X001625Y003031D02*
X003015Y003031D01*
X003015Y003190D02*
X001625Y003190D01*
X001625Y003348D02*
X003015Y003348D01*
X003015Y003507D02*
X001625Y003507D01*
X001625Y003665D02*
X003015Y003665D01*
X003015Y003824D02*
X001625Y003824D01*
X001625Y003982D02*
X003015Y003982D01*
X003015Y004141D02*
X001625Y004141D01*
X001625Y004299D02*
X003015Y004299D01*
X003015Y004458D02*
X001625Y004458D01*
X001625Y004616D02*
X003015Y004616D01*
X003015Y004775D02*
X001625Y004775D01*
X001625Y004933D02*
X003015Y004933D01*
X003015Y005092D02*
X001625Y005092D01*
X001625Y005250D02*
X003015Y005250D01*
X003015Y005409D02*
X001625Y005409D01*
X001625Y005567D02*
X003015Y005567D01*
X003015Y005726D02*
X001625Y005726D01*
X001625Y005884D02*
X003015Y005884D01*
X003015Y006043D02*
X001625Y006043D01*
X001625Y006201D02*
X003015Y006201D01*
X003015Y006360D02*
X001625Y006360D01*
X001625Y006518D02*
X003015Y006518D01*
X003015Y006677D02*
X001625Y006677D01*
X001625Y006835D02*
X003015Y006835D01*
X003015Y006994D02*
X001625Y006994D01*
X001625Y007152D02*
X003015Y007152D01*
X003015Y007311D02*
X001625Y007311D01*
X001625Y007469D02*
X003015Y007469D01*
X003015Y007628D02*
X001625Y007628D01*
X001625Y007786D02*
X003015Y007786D01*
X003015Y007945D02*
X001625Y007945D01*
X001625Y008103D02*
X003015Y008103D01*
X003015Y008262D02*
X001625Y008262D01*
X001625Y008420D02*
X003015Y008420D01*
X003015Y008579D02*
X001625Y008579D01*
X001625Y008737D02*
X003015Y008737D01*
X003015Y008896D02*
X001625Y008896D01*
X001625Y009054D02*
X003015Y009054D01*
X003015Y009213D02*
X001625Y009213D01*
X001625Y009371D02*
X003015Y009371D01*
X003015Y009530D02*
X001625Y009530D01*
X001625Y009688D02*
X003015Y009688D01*
X003015Y009847D02*
X001625Y009847D01*
X001625Y010005D02*
X003015Y010005D01*
X003015Y010164D02*
X001625Y010164D01*
X001625Y010322D02*
X003015Y010322D01*
X003015Y010481D02*
X001625Y010481D01*
X001625Y010639D02*
X003015Y010639D01*
X003015Y010798D02*
X001625Y010798D01*
X001625Y010956D02*
X003015Y010956D01*
X003015Y011115D02*
X001625Y011115D01*
X001625Y011273D02*
X003015Y011273D01*
X003015Y011432D02*
X001625Y011432D01*
X001625Y011590D02*
X003015Y011590D01*
X003015Y011749D02*
X001625Y011749D01*
X001625Y011907D02*
X003015Y011907D01*
X003015Y012066D02*
X001625Y012066D01*
X001625Y012224D02*
X003015Y012224D01*
X003015Y012383D02*
X001625Y012383D01*
X001625Y012541D02*
X003015Y012541D01*
X003015Y012700D02*
X001625Y012700D01*
X001625Y012858D02*
X003015Y012858D01*
X003015Y013017D02*
X001625Y013017D01*
X001625Y013175D02*
X003015Y013175D01*
X003015Y013334D02*
X001625Y013334D01*
X001625Y013492D02*
X003040Y013492D01*
X003040Y013651D02*
X001625Y013651D01*
X001625Y013809D02*
X003040Y013809D01*
X003040Y013968D02*
X001625Y013968D01*
X001625Y014126D02*
X003037Y014126D01*
X003239Y014602D02*
X001625Y014602D01*
X001625Y014760D02*
X003340Y014760D01*
X003434Y014919D02*
X001625Y014919D01*
X001625Y015077D02*
X003562Y015077D01*
X003694Y015236D02*
X001625Y015236D01*
X001625Y015394D02*
X003683Y015394D01*
X003805Y015394D02*
X003805Y015394D01*
X003805Y015381D02*
X003805Y015886D01*
X003805Y015886D01*
X003805Y015381D01*
X003805Y015553D02*
X003805Y015553D01*
X003805Y015711D02*
X003805Y015711D01*
X003805Y015870D02*
X003805Y015870D01*
X003805Y016028D02*
X003805Y016028D01*
X003805Y016187D02*
X003805Y016187D01*
X003805Y016345D02*
X003805Y016345D01*
X003595Y016345D02*
X001625Y016345D01*
X001625Y016187D02*
X003400Y016187D01*
X003320Y016028D02*
X001625Y016028D01*
X001625Y015870D02*
X003300Y015870D01*
X003331Y015711D02*
X001625Y015711D01*
X001625Y015553D02*
X003424Y015553D01*
X004015Y016345D02*
X004189Y016345D01*
X004351Y016504D02*
X001625Y016504D01*
X001625Y016662D02*
X004538Y016662D01*
X004540Y016821D02*
X001625Y016821D01*
X001625Y016979D02*
X004541Y016979D01*
X004543Y017138D02*
X001625Y017138D01*
X001625Y017296D02*
X003253Y017296D01*
X003225Y017316D02*
X003302Y017261D01*
X003386Y017218D01*
X003476Y017189D01*
X003556Y017176D01*
X003556Y018134D01*
X003016Y018134D01*
X003016Y017727D01*
X003031Y017633D01*
X003060Y017544D01*
X003103Y017459D01*
X003158Y017383D01*
X003225Y017316D01*
X003106Y017455D02*
X001625Y017455D01*
X001625Y017613D02*
X003037Y017613D01*
X003016Y017772D02*
X001625Y017772D01*
X001625Y017930D02*
X003016Y017930D01*
X003016Y018089D02*
X001625Y018089D01*
X001625Y018247D02*
X003556Y018247D01*
X003556Y018254D02*
X003556Y018134D01*
X003676Y018134D01*
X003676Y018254D01*
X003556Y018254D01*
X003556Y019212D01*
X003476Y019199D01*
X003386Y019170D01*
X003302Y019127D01*
X003225Y019072D01*
X003158Y019005D01*
X003103Y018928D01*
X003060Y018844D01*
X003031Y018754D01*
X003016Y018661D01*
X003016Y018254D01*
X003556Y018254D01*
X003676Y018254D02*
X003676Y019212D01*
X003757Y019199D01*
X003846Y019170D01*
X003930Y019127D01*
X004007Y019072D01*
X004074Y019005D01*
X004129Y018928D01*
X004172Y018844D01*
X004201Y018754D01*
X004216Y018661D01*
X004216Y018254D01*
X003676Y018254D01*
X003676Y018247D02*
X004254Y018247D01*
X004216Y018134D02*
X003676Y018134D01*
X003676Y017176D01*
X003757Y017189D01*
X003846Y017218D01*
X003930Y017261D01*
X004007Y017316D01*
X004074Y017383D01*
X004129Y017459D01*
X004172Y017544D01*
X004201Y017633D01*
X004216Y017727D01*
X004216Y018134D01*
X004216Y018089D02*
X004254Y018089D01*
X004254Y017930D02*
X004216Y017930D01*
X004216Y017772D02*
X004254Y017772D01*
X004259Y017613D02*
X004195Y017613D01*
X004126Y017455D02*
X004325Y017455D01*
X004425Y017296D02*
X003980Y017296D01*
X003676Y017296D02*
X003556Y017296D01*
X003556Y017455D02*
X003676Y017455D01*
X003676Y017613D02*
X003556Y017613D01*
X003556Y017772D02*
X003676Y017772D01*
X003676Y017930D02*
X003556Y017930D01*
X003556Y018089D02*
X003676Y018089D01*
X003676Y018406D02*
X003556Y018406D01*
X003556Y018564D02*
X003676Y018564D01*
X003676Y018723D02*
X003556Y018723D01*
X003556Y018881D02*
X003676Y018881D01*
X003676Y019040D02*
X003556Y019040D01*
X003556Y019198D02*
X003676Y019198D01*
X003759Y019198D02*
X004532Y019198D01*
X004373Y019040D02*
X004039Y019040D01*
X004153Y018881D02*
X004304Y018881D01*
X004254Y018723D02*
X004206Y018723D01*
X004216Y018564D02*
X004254Y018564D01*
X004254Y018406D02*
X004216Y018406D01*
X003473Y019198D02*
X001625Y019198D01*
X001625Y019040D02*
X003193Y019040D01*
X003079Y018881D02*
X001625Y018881D01*
X001625Y018723D02*
X003026Y018723D01*
X003016Y018564D02*
X001625Y018564D01*
X001625Y018406D02*
X003016Y018406D01*
X001625Y019357D02*
X008644Y019357D01*
X008357Y019198D02*
X007686Y019198D01*
X007696Y019195D02*
X007607Y019224D01*
X007526Y019237D01*
X007526Y018279D01*
X007406Y018279D01*
X007406Y019237D01*
X007326Y019224D01*
X007236Y019195D01*
X007152Y019152D01*
X007075Y019097D01*
X007008Y019030D01*
X006953Y018953D01*
X006910Y018869D01*
X006881Y018779D01*
X006866Y018686D01*
X006866Y018279D01*
X007406Y018279D01*
X007406Y018159D01*
X006866Y018159D01*
X006866Y017752D01*
X006881Y017658D01*
X006910Y017569D01*
X006953Y017484D01*
X007008Y017408D01*
X007075Y017341D01*
X007152Y017286D01*
X007236Y017243D01*
X007326Y017214D01*
X007406Y017201D01*
X007406Y018159D01*
X007526Y018159D01*
X007526Y018279D01*
X008066Y018279D01*
X008066Y018686D01*
X008051Y018779D01*
X008022Y018869D01*
X007979Y018953D01*
X007924Y019030D01*
X007857Y019097D01*
X007780Y019152D01*
X007696Y019195D01*
X007526Y019198D02*
X007406Y019198D01*
X007406Y019040D02*
X007526Y019040D01*
X007526Y018881D02*
X007406Y018881D01*
X007406Y018723D02*
X007526Y018723D01*
X007526Y018564D02*
X007406Y018564D01*
X007406Y018406D02*
X007526Y018406D01*
X007526Y018247D02*
X008104Y018247D01*
X008066Y018159D02*
X007526Y018159D01*
X007526Y017201D01*
X007607Y017214D01*
X007696Y017243D01*
X007780Y017286D01*
X007857Y017341D01*
X007924Y017408D01*
X007979Y017484D01*
X008022Y017569D01*
X008051Y017658D01*
X008066Y017752D01*
X008066Y018159D01*
X008066Y018089D02*
X008104Y018089D01*
X008104Y017930D02*
X008066Y017930D01*
X008066Y017772D02*
X008104Y017772D01*
X008120Y017613D02*
X008037Y017613D01*
X007958Y017455D02*
X008186Y017455D01*
X008300Y017296D02*
X007795Y017296D01*
X007526Y017296D02*
X007406Y017296D01*
X007406Y017455D02*
X007526Y017455D01*
X007526Y017613D02*
X007406Y017613D01*
X007406Y017772D02*
X007526Y017772D01*
X007526Y017930D02*
X007406Y017930D01*
X007406Y018089D02*
X007526Y018089D01*
X007406Y018247D02*
X005734Y018247D01*
X005734Y018089D02*
X006866Y018089D01*
X006866Y017930D02*
X005734Y017930D01*
X005734Y017772D02*
X006866Y017772D01*
X006895Y017613D02*
X005728Y017613D01*
X005663Y017455D02*
X006974Y017455D01*
X007137Y017296D02*
X005563Y017296D01*
X005423Y017138D02*
X008367Y017138D01*
X008365Y016979D02*
X005421Y016979D01*
X005420Y016821D02*
X008363Y016821D01*
X008361Y016662D02*
X005418Y016662D01*
X005417Y016504D02*
X008301Y016504D01*
X008139Y016345D02*
X007965Y016345D01*
X007755Y016345D02*
X007755Y016345D01*
X007755Y016187D02*
X007755Y016187D01*
X007755Y016028D02*
X007755Y016028D01*
X007755Y015886D02*
X007755Y015381D01*
X007755Y015886D01*
X007755Y015886D01*
X007755Y015870D02*
X007755Y015870D01*
X007755Y015711D02*
X007755Y015711D01*
X007755Y015553D02*
X007755Y015553D01*
X007755Y015394D02*
X007755Y015394D01*
X007877Y015394D02*
X008153Y015394D01*
X007633Y015394D02*
X005407Y015394D01*
X005450Y015553D02*
X007374Y015553D01*
X007281Y015711D02*
X005450Y015711D01*
X005450Y015870D02*
X007250Y015870D01*
X007270Y016028D02*
X005450Y016028D01*
X005450Y016187D02*
X007350Y016187D01*
X007545Y016345D02*
X005421Y016345D01*
X005734Y018406D02*
X006866Y018406D01*
X006866Y018564D02*
X005734Y018564D01*
X005734Y018723D02*
X006872Y018723D01*
X006916Y018881D02*
X005684Y018881D01*
X005615Y019040D02*
X007018Y019040D01*
X007246Y019198D02*
X005456Y019198D01*
X002996Y020783D02*
X009771Y020783D01*
X009770Y020625D02*
X002870Y020625D01*
X002681Y020466D02*
X009769Y020466D01*
X009768Y020308D02*
X002289Y020308D01*
X001901Y020308D02*
X001625Y020308D01*
X001625Y020149D02*
X009767Y020149D01*
X009766Y019991D02*
X001625Y019991D01*
X001625Y019832D02*
X009766Y019832D01*
X009765Y019674D02*
X001625Y019674D01*
X001625Y019515D02*
X009764Y019515D01*
X009763Y019357D02*
X009044Y019357D01*
X009331Y019198D02*
X009762Y019198D01*
X008209Y019040D02*
X007914Y019040D01*
X008016Y018881D02*
X008143Y018881D01*
X008104Y018723D02*
X008060Y018723D01*
X008066Y018564D02*
X008104Y018564D01*
X008104Y018406D02*
X008066Y018406D01*
X009772Y020942D02*
X003088Y020942D01*
X003133Y021100D02*
X009773Y021100D01*
X009774Y021259D02*
X003166Y021259D01*
X003166Y021417D02*
X009775Y021417D01*
X009776Y021576D02*
X003147Y021576D01*
X003105Y021734D02*
X009777Y021734D01*
X010523Y021734D02*
X021456Y021734D01*
X021414Y021576D02*
X010521Y021576D01*
X015039Y019674D02*
X015082Y019674D01*
X015389Y020625D02*
X021718Y020625D01*
X021583Y020783D02*
X015141Y020783D01*
X009733Y014126D02*
X006815Y014126D01*
X006974Y013968D02*
X009732Y013968D01*
X009731Y013809D02*
X007049Y013809D01*
X007095Y013651D02*
X009730Y013651D01*
X009729Y013492D02*
X007095Y013492D01*
X007058Y013334D02*
X009728Y013334D01*
X009727Y013175D02*
X006992Y013175D01*
X006837Y013017D02*
X009726Y013017D01*
X009725Y012858D02*
X006983Y012858D01*
X007053Y012700D02*
X009724Y012700D01*
X009724Y012541D02*
X007095Y012541D01*
X007095Y012383D02*
X009723Y012383D01*
X009722Y012224D02*
X007054Y012224D01*
X006986Y012066D02*
X009721Y012066D01*
X009720Y011907D02*
X006827Y011907D01*
X006968Y011749D02*
X009719Y011749D01*
X009718Y011590D02*
X007046Y011590D01*
X007095Y011432D02*
X009717Y011432D01*
X009716Y011273D02*
X007095Y011273D01*
X007060Y011115D02*
X009715Y011115D01*
X009714Y010956D02*
X006995Y010956D01*
X006845Y010798D02*
X006843Y010798D01*
X006739Y010639D02*
X006315Y010639D01*
X006315Y010481D02*
X006700Y010481D01*
X006710Y010322D02*
X006315Y010322D01*
X006315Y010164D02*
X006650Y010164D01*
X006572Y010005D02*
X006362Y010005D01*
X006362Y009847D02*
X006494Y009847D01*
X006417Y009688D02*
X006362Y009688D01*
X007008Y009213D02*
X009704Y009213D01*
X009705Y009371D02*
X007085Y009371D01*
X007163Y009530D02*
X009706Y009530D01*
X009707Y009688D02*
X007241Y009688D01*
X007318Y009847D02*
X009708Y009847D01*
X009709Y010005D02*
X007443Y010005D01*
X007624Y010164D02*
X009710Y010164D01*
X009711Y010322D02*
X007690Y010322D01*
X007700Y010481D02*
X009712Y010481D01*
X009713Y010639D02*
X007661Y010639D01*
X007555Y010798D02*
X009714Y010798D01*
X009703Y009054D02*
X007037Y009054D01*
X007148Y008896D02*
X009703Y008896D01*
X009702Y008737D02*
X007214Y008737D01*
X007220Y008579D02*
X009701Y008579D01*
X009700Y008420D02*
X007208Y008420D01*
X007143Y008262D02*
X009699Y008262D01*
X009698Y008103D02*
X007023Y008103D01*
X007022Y007945D02*
X009697Y007945D01*
X009696Y007786D02*
X007142Y007786D01*
X007208Y007628D02*
X009695Y007628D01*
X009694Y007469D02*
X007220Y007469D01*
X007215Y007311D02*
X009693Y007311D01*
X009693Y007152D02*
X007149Y007152D01*
X007039Y006994D02*
X009692Y006994D01*
X009691Y006835D02*
X007006Y006835D01*
X007136Y006677D02*
X009690Y006677D01*
X009689Y006518D02*
X007201Y006518D01*
X007220Y006360D02*
X009688Y006360D01*
X009687Y006201D02*
X007220Y006201D01*
X007155Y006043D02*
X009686Y006043D01*
X009685Y005884D02*
X007054Y005884D01*
X006991Y005726D02*
X009684Y005726D01*
X009683Y005567D02*
X007129Y005567D01*
X007195Y005409D02*
X009682Y005409D01*
X009682Y005250D02*
X007220Y005250D01*
X007220Y005092D02*
X009681Y005092D01*
X009680Y004933D02*
X007162Y004933D01*
X007070Y004775D02*
X009679Y004775D01*
X009678Y004616D02*
X006898Y004616D01*
X007134Y003982D02*
X008456Y003982D01*
X008456Y004141D02*
X003895Y004141D01*
X003895Y004299D02*
X009676Y004299D01*
X009675Y004141D02*
X009596Y004141D01*
X009596Y003982D02*
X009674Y003982D01*
X009661Y003824D02*
X009673Y003824D01*
X010316Y003824D02*
X010331Y003824D01*
X010318Y003982D02*
X010396Y003982D01*
X010396Y004141D02*
X010320Y004141D01*
X010321Y004299D02*
X010547Y004299D01*
X010559Y004458D02*
X010323Y004458D01*
X010325Y004616D02*
X010641Y004616D01*
X010888Y004775D02*
X010327Y004775D01*
X010329Y004933D02*
X011186Y004933D01*
X011186Y004775D02*
X011082Y004775D01*
X011186Y005092D02*
X010331Y005092D01*
X010332Y005250D02*
X011186Y005250D01*
X011186Y005409D02*
X010334Y005409D01*
X010336Y005567D02*
X011186Y005567D01*
X011186Y005726D02*
X010338Y005726D01*
X010340Y005884D02*
X011186Y005884D01*
X011186Y006043D02*
X010342Y006043D01*
X010343Y006201D02*
X011186Y006201D01*
X011186Y006360D02*
X010345Y006360D01*
X010347Y006518D02*
X011186Y006518D01*
X011186Y006677D02*
X010349Y006677D01*
X010351Y006835D02*
X011186Y006835D01*
X011186Y006994D02*
X010353Y006994D01*
X010354Y007152D02*
X011186Y007152D01*
X011186Y007311D02*
X010356Y007311D01*
X010358Y007469D02*
X011186Y007469D01*
X011186Y007628D02*
X010360Y007628D01*
X010362Y007786D02*
X011191Y007786D01*
X011281Y007945D02*
X010364Y007945D01*
X010365Y008103D02*
X011439Y008103D01*
X009505Y004511D02*
X009455Y004461D01*
X009505Y004511D02*
X009528Y004509D01*
X009551Y004504D01*
X009573Y004495D01*
X009593Y004482D01*
X009611Y004467D01*
X009626Y004449D01*
X009639Y004429D01*
X009648Y004407D01*
X009653Y004384D01*
X009655Y004361D01*
X009026Y004141D02*
X009026Y004141D01*
X006326Y003982D02*
X004684Y003982D01*
X004841Y003824D02*
X006167Y003824D01*
X006162Y004616D02*
X005898Y004616D01*
X005505Y005186D02*
X005530Y005211D01*
X005555Y005211D01*
X005530Y005236D01*
X005530Y006436D01*
X005555Y006411D01*
X005555Y006336D01*
X005006Y005884D02*
X004844Y005884D01*
X004725Y005726D02*
X005069Y005726D01*
X004335Y005726D02*
X003895Y005726D01*
X003895Y005884D02*
X004216Y005884D01*
X005555Y006335D02*
X005541Y006390D01*
X005525Y006445D01*
X005054Y006835D02*
X004761Y006835D01*
X004823Y006994D02*
X005021Y006994D01*
X004299Y006835D02*
X003895Y006835D01*
X003895Y006677D02*
X004098Y006677D01*
X004011Y006518D02*
X003895Y006518D01*
X003895Y006360D02*
X003980Y006360D01*
X003995Y006201D02*
X003895Y006201D01*
X003895Y006043D02*
X004063Y006043D01*
X004109Y005567D02*
X003895Y005567D01*
X003895Y005409D02*
X004016Y005409D01*
X003980Y005250D02*
X003895Y005250D01*
X003895Y005092D02*
X003992Y005092D01*
X004054Y004933D02*
X003895Y004933D01*
X003895Y004775D02*
X004194Y004775D01*
X004237Y006994D02*
X003895Y006994D01*
X003895Y007152D02*
X004074Y007152D01*
X004000Y007311D02*
X003895Y007311D01*
X004510Y007628D02*
X004550Y007628D01*
X004550Y007786D02*
X004510Y007786D01*
X004510Y007945D02*
X004550Y007945D01*
X004550Y008103D02*
X004510Y008103D01*
X004510Y008262D02*
X004550Y008262D01*
X004550Y008420D02*
X004510Y008420D01*
X004795Y008103D02*
X005037Y008103D01*
X005038Y007945D02*
X004792Y007945D01*
X004155Y010005D02*
X004079Y010005D01*
X004079Y010164D02*
X004155Y010164D01*
X004117Y010336D02*
X004117Y010599D01*
X003930Y010786D01*
X003895Y010798D02*
X004286Y010798D01*
X004385Y010798D02*
X004425Y010798D01*
X004425Y010956D02*
X004385Y010956D01*
X004385Y011115D02*
X004425Y011115D01*
X004425Y011273D02*
X004385Y011273D01*
X004385Y011432D02*
X004425Y011432D01*
X004425Y011590D02*
X004385Y011590D01*
X004385Y011749D02*
X004425Y011749D01*
X004770Y011749D02*
X004842Y011749D01*
X004022Y012066D02*
X003895Y012066D01*
X003895Y012224D02*
X003908Y012224D01*
X004797Y013175D02*
X004818Y013175D01*
X004034Y013968D02*
X003920Y013968D01*
X005815Y014126D02*
X005995Y014126D01*
X004155Y010639D02*
X004079Y010639D01*
X004079Y010481D02*
X004155Y010481D01*
X004764Y001922D02*
X006243Y001922D01*
X006180Y001763D02*
X004805Y001763D01*
X004805Y001605D02*
X006180Y001605D01*
X006180Y001288D02*
X004805Y001288D01*
X004805Y001129D02*
X006180Y001129D01*
D26*
X013430Y012936D03*
X009055Y013886D03*
D27*
X013295Y008555D03*
X012161Y004754D03*
X007702Y005034D03*
D28*
X005530Y006336D02*
X005525Y006341D01*
X005525Y006445D01*
X005525Y007421D01*
X005530Y007461D02*
X005525Y007466D01*
X005525Y008401D01*
X005530Y008586D02*
X005875Y008806D01*
X005875Y009661D01*
X005875Y010866D01*
X005405Y011336D01*
X003455Y013336D02*
X003480Y013361D01*
X003480Y014161D01*
X003830Y014711D01*
X004805Y015886D01*
X004969Y015775D01*
X004994Y018194D01*
X008815Y017711D02*
X008790Y015896D01*
X008755Y015886D01*
X003455Y013336D02*
X003455Y002911D01*
X003915Y002451D01*
X004270Y002451D01*
X004255Y002436D01*
X004270Y002451D02*
X006715Y002451D01*
D29*
X002158Y001478D03*
X022423Y001541D03*
X022472Y021386D03*
X002095Y021365D03*
M02*
