G75*
%MOIN*%
%OFA0B0*%
%FSLAX24Y24*%
%IPPOS*%
%LPD*%
%AMOC8*
5,1,8,0,0,1.08239X$1,22.5*
%
%ADD10OC8,0.0630*%
%ADD11C,0.0600*%
%ADD12C,0.0540*%
%ADD13C,0.0560*%
%ADD14C,0.0160*%
%ADD15C,0.0236*%
%ADD16C,0.0236*%
%ADD17C,0.0079*%
D10*
X005680Y012816D03*
X006680Y012816D03*
X006680Y013816D03*
X006680Y014816D03*
X005680Y014816D03*
X005680Y013816D03*
X005680Y015816D03*
X006680Y015816D03*
X006680Y016816D03*
X006680Y017816D03*
X005680Y017816D03*
X005680Y016816D03*
X005680Y018816D03*
X006680Y018816D03*
X006680Y019816D03*
X005680Y019816D03*
X005680Y020816D03*
X005680Y021816D03*
X006680Y021816D03*
X006680Y020816D03*
X022680Y020816D03*
X022680Y021816D03*
X023680Y021816D03*
X023680Y020816D03*
X023680Y019816D03*
X022680Y019816D03*
X022680Y018816D03*
X023680Y018816D03*
X023680Y017816D03*
X022680Y017816D03*
X022680Y016816D03*
X023680Y016816D03*
X023680Y015816D03*
X022680Y015816D03*
X022680Y014816D03*
X023680Y014816D03*
X023680Y013816D03*
X022680Y013816D03*
X022680Y012816D03*
X023680Y012816D03*
D11*
X026880Y013816D02*
X027480Y013816D01*
X027480Y014816D02*
X026880Y014816D01*
X026880Y015816D02*
X027480Y015816D01*
X027480Y016816D02*
X026880Y016816D01*
X014491Y005793D02*
X014491Y005193D01*
X013491Y005193D02*
X013491Y005793D01*
X012491Y005793D02*
X012491Y005193D01*
X011491Y005193D02*
X011491Y005793D01*
X010491Y005793D02*
X010491Y005193D01*
X009491Y005193D02*
X009491Y005793D01*
X002980Y015816D02*
X002380Y015816D01*
X002380Y016816D02*
X002980Y016816D01*
X002980Y017816D02*
X002380Y017816D01*
X002380Y018816D02*
X002980Y018816D01*
X002980Y020816D02*
X002380Y020816D01*
X002380Y021816D02*
X002980Y021816D01*
X002980Y022816D02*
X002380Y022816D01*
X002380Y023816D02*
X002980Y023816D01*
D12*
X019967Y005814D02*
X019967Y005274D01*
X020967Y005274D02*
X020967Y005814D01*
X021967Y005814D02*
X021967Y005274D01*
D13*
X026680Y005316D03*
X026680Y006316D03*
X027680Y005816D03*
X027680Y004816D03*
X027680Y003816D03*
X027680Y002816D03*
X026680Y003316D03*
X026680Y004316D03*
X027680Y008316D03*
X027680Y009316D03*
X027680Y010316D03*
X026680Y010816D03*
X026680Y009816D03*
X026680Y008816D03*
X027680Y019316D03*
X027680Y020316D03*
X027680Y021316D03*
X026680Y021816D03*
X026680Y020816D03*
X026680Y019816D03*
X002680Y012316D03*
X002680Y011316D03*
X001680Y011816D03*
X001680Y012816D03*
X001680Y008816D03*
X001680Y007816D03*
X001680Y006816D03*
X002680Y007316D03*
X002680Y008316D03*
X002680Y006316D03*
D14*
X000264Y000900D02*
X000264Y026728D01*
X028966Y026728D01*
X028966Y010983D01*
X026053Y013896D01*
X026074Y013905D01*
X026146Y013977D01*
X026185Y014072D01*
X026185Y014128D01*
X026566Y014509D01*
X026631Y014443D01*
X026793Y014377D01*
X027567Y014377D01*
X027729Y014443D01*
X027852Y014567D01*
X027919Y014728D01*
X027919Y014903D01*
X027852Y015064D01*
X027729Y015188D01*
X027567Y015255D01*
X026793Y015255D01*
X026631Y015188D01*
X026508Y015064D01*
X026441Y014903D01*
X026441Y014888D01*
X025933Y014380D01*
X025877Y014380D01*
X025782Y014341D01*
X025710Y014268D01*
X025701Y014247D01*
X025449Y014500D01*
X025477Y014528D01*
X025516Y014623D01*
X025516Y014725D01*
X025477Y014820D01*
X025404Y014892D01*
X025394Y014896D01*
X026466Y015969D01*
X026520Y016099D01*
X026520Y016101D01*
X026719Y016301D01*
X026773Y016278D01*
X027587Y016278D01*
X027784Y016360D01*
X027936Y016511D01*
X028017Y016709D01*
X028017Y016923D01*
X027936Y017120D01*
X027784Y017271D01*
X027587Y017353D01*
X026773Y017353D01*
X026576Y017271D01*
X026424Y017120D01*
X026348Y016935D01*
X026111Y016698D01*
X026107Y016709D01*
X026034Y016782D01*
X025940Y016821D01*
X025838Y016821D01*
X025743Y016782D01*
X025703Y016742D01*
X024358Y016742D01*
X023877Y016261D01*
X023868Y016270D01*
X023492Y016270D01*
X023226Y016004D01*
X023226Y015628D01*
X023492Y015362D01*
X023868Y015362D01*
X024134Y015628D01*
X024134Y016004D01*
X024129Y016009D01*
X024506Y016385D01*
X025703Y016385D01*
X025743Y016346D01*
X025809Y016318D01*
X025809Y016317D01*
X024664Y015172D01*
X024564Y015072D01*
X024509Y014941D01*
X024509Y014879D01*
X024470Y014784D01*
X024470Y012892D01*
X023970Y012392D01*
X023898Y012392D01*
X024134Y012628D01*
X024134Y013004D01*
X023868Y013270D01*
X023492Y013270D01*
X023232Y013010D01*
X023232Y013044D01*
X022921Y013356D01*
X023175Y013611D01*
X023175Y013806D01*
X022690Y013806D01*
X022690Y013826D01*
X022670Y013826D01*
X022670Y014311D01*
X022475Y014311D01*
X022185Y014021D01*
X022185Y013826D01*
X022670Y013826D01*
X022670Y013806D01*
X022185Y013806D01*
X022185Y013611D01*
X022439Y013356D01*
X022128Y013044D01*
X022128Y012954D01*
X022065Y012928D01*
X021977Y012840D01*
X021973Y012851D01*
X021933Y012891D01*
X021933Y013813D01*
X022670Y013813D01*
X022690Y013813D02*
X023226Y013813D01*
X023175Y013826D02*
X023175Y014021D01*
X022885Y014311D01*
X022690Y014311D01*
X022690Y013826D01*
X023175Y013826D01*
X023175Y013971D02*
X023226Y013971D01*
X023226Y014004D02*
X023226Y013628D01*
X023492Y013362D01*
X023868Y013362D01*
X024134Y013628D01*
X024134Y014004D01*
X023868Y014270D01*
X023492Y014270D01*
X023226Y014004D01*
X023352Y014130D02*
X023066Y014130D01*
X022908Y014288D02*
X024470Y014288D01*
X024470Y014130D02*
X024008Y014130D01*
X024134Y013971D02*
X024470Y013971D01*
X024470Y013813D02*
X024134Y013813D01*
X024134Y013654D02*
X024470Y013654D01*
X024470Y013496D02*
X024002Y013496D01*
X023959Y013179D02*
X024470Y013179D01*
X024470Y013337D02*
X022940Y013337D01*
X023060Y013496D02*
X023358Y013496D01*
X023226Y013654D02*
X023175Y013654D01*
X022690Y013971D02*
X022670Y013971D01*
X022670Y014130D02*
X022690Y014130D01*
X022690Y014288D02*
X022670Y014288D01*
X022492Y014362D02*
X022868Y014362D01*
X023134Y014628D01*
X023134Y015004D01*
X022868Y015270D01*
X022492Y015270D01*
X022226Y015004D01*
X022226Y014628D01*
X022235Y014619D01*
X021576Y013960D01*
X021576Y012891D01*
X021537Y012851D01*
X021498Y012757D01*
X021498Y012654D01*
X021537Y012560D01*
X021609Y012487D01*
X021620Y012483D01*
X015033Y005896D01*
X015029Y005896D01*
X015029Y005900D01*
X014947Y006097D01*
X014795Y006248D01*
X014598Y006330D01*
X014384Y006330D01*
X014187Y006248D01*
X014035Y006097D01*
X013958Y005910D01*
X013936Y005977D01*
X013902Y006044D01*
X013857Y006105D01*
X013804Y006159D01*
X013743Y006203D01*
X013675Y006238D01*
X013603Y006261D01*
X013529Y006273D01*
X013511Y006273D01*
X013511Y005513D01*
X013471Y005513D01*
X013471Y006273D01*
X013453Y006273D01*
X013379Y006261D01*
X013307Y006238D01*
X013239Y006203D01*
X013178Y006159D01*
X013125Y006105D01*
X013080Y006044D01*
X013046Y005977D01*
X013023Y005905D01*
X013011Y005831D01*
X013011Y005513D01*
X013471Y005513D01*
X013471Y005473D01*
X013011Y005473D01*
X013011Y005155D01*
X013023Y005080D01*
X013046Y005009D01*
X013080Y004941D01*
X013125Y004880D01*
X013178Y004827D01*
X013239Y004782D01*
X013307Y004748D01*
X013379Y004725D01*
X013453Y004713D01*
X013471Y004713D01*
X013471Y005473D01*
X013511Y005473D01*
X013511Y004713D01*
X013529Y004713D01*
X013603Y004725D01*
X013675Y004748D01*
X013743Y004782D01*
X013804Y004827D01*
X013857Y004880D01*
X013902Y004941D01*
X013936Y005009D01*
X013958Y005076D01*
X014035Y004888D01*
X014187Y004737D01*
X014384Y004655D01*
X014598Y004655D01*
X014795Y004737D01*
X014947Y004888D01*
X015029Y005086D01*
X015029Y005184D01*
X015251Y005184D01*
X015381Y005239D01*
X015481Y005339D01*
X017741Y007598D01*
X017757Y007560D01*
X017830Y007487D01*
X017924Y007448D01*
X018026Y007448D01*
X018121Y007487D01*
X018161Y007527D01*
X020893Y007527D01*
X023256Y005165D01*
X026289Y005165D01*
X026325Y005078D01*
X026443Y004960D01*
X026597Y004897D01*
X026763Y004897D01*
X026917Y004960D01*
X027035Y005078D01*
X027099Y005232D01*
X027099Y005399D01*
X027035Y005553D01*
X026917Y005671D01*
X026763Y005735D01*
X026597Y005735D01*
X026443Y005671D01*
X026325Y005553D01*
X026312Y005522D01*
X023404Y005522D01*
X021146Y007779D01*
X021041Y007884D01*
X018161Y007884D01*
X018121Y007923D01*
X018082Y007939D01*
X022414Y012271D01*
X022438Y012271D01*
X022444Y012269D01*
X022445Y012269D01*
X022451Y012263D01*
X022521Y012263D01*
X023049Y011735D01*
X023180Y011680D01*
X024188Y011680D01*
X024318Y011735D01*
X024418Y011835D01*
X024786Y012203D01*
X025690Y011299D01*
X025671Y007538D01*
X025664Y007513D01*
X025671Y007468D01*
X025671Y007424D01*
X025681Y007399D01*
X025684Y007372D01*
X025707Y007334D01*
X025724Y007293D01*
X025743Y007274D01*
X025885Y007034D01*
X025902Y006992D01*
X025920Y006974D01*
X025934Y006952D01*
X025970Y006924D01*
X026002Y006892D01*
X026026Y006882D01*
X026047Y006867D01*
X026091Y006855D01*
X026133Y006838D01*
X026159Y006838D01*
X026184Y006832D01*
X026229Y006838D01*
X026804Y006838D01*
X026966Y006677D01*
X026921Y006709D01*
X026857Y006742D01*
X026788Y006764D01*
X026716Y006776D01*
X026680Y006776D01*
X026644Y006776D01*
X026572Y006764D01*
X026503Y006742D01*
X026439Y006709D01*
X026380Y006666D01*
X026329Y006615D01*
X026287Y006557D01*
X026254Y006492D01*
X026231Y006423D01*
X026220Y006352D01*
X026220Y006316D01*
X026680Y006316D01*
X026680Y006776D01*
X026680Y006316D01*
X026680Y006316D01*
X027140Y006316D01*
X027140Y006352D01*
X027129Y006423D01*
X027106Y006492D01*
X027073Y006557D01*
X027041Y006601D01*
X027305Y006338D01*
X027305Y006172D01*
X027241Y006109D01*
X027163Y005919D01*
X027163Y005713D01*
X027241Y005522D01*
X027387Y005377D01*
X027577Y005298D01*
X027783Y005298D01*
X027973Y005377D01*
X028119Y005522D01*
X028197Y005713D01*
X028197Y005919D01*
X028119Y006109D01*
X028016Y006212D01*
X028016Y006556D01*
X027962Y006686D01*
X027214Y007434D01*
X027157Y007491D01*
X027203Y007602D01*
X027203Y007753D01*
X027145Y007893D01*
X027039Y007999D01*
X026899Y008057D01*
X026748Y008057D01*
X026609Y007999D01*
X026502Y007893D01*
X026444Y007753D01*
X026444Y007602D01*
X026467Y007549D01*
X026406Y007549D01*
X026383Y007589D01*
X026387Y008516D01*
X026443Y008460D01*
X026597Y008397D01*
X026763Y008397D01*
X026917Y008460D01*
X027035Y008578D01*
X027099Y008732D01*
X027099Y008899D01*
X027035Y009053D01*
X026917Y009171D01*
X026763Y009235D01*
X026597Y009235D01*
X026443Y009171D01*
X026390Y009118D01*
X026392Y009511D01*
X026443Y009460D01*
X026597Y009397D01*
X026763Y009397D01*
X026917Y009460D01*
X027035Y009578D01*
X027099Y009732D01*
X027099Y009899D01*
X027035Y010053D01*
X026917Y010171D01*
X026763Y010235D01*
X026597Y010235D01*
X026443Y010171D01*
X026395Y010123D01*
X026396Y010373D01*
X026577Y010298D01*
X026783Y010298D01*
X026973Y010377D01*
X027119Y010522D01*
X027197Y010713D01*
X027197Y010919D01*
X027119Y011109D01*
X026973Y011254D01*
X026783Y011333D01*
X026661Y011333D01*
X026298Y011696D01*
X026249Y011746D01*
X026248Y011746D01*
X026248Y011747D01*
X025184Y012811D01*
X025185Y012829D01*
X025181Y012842D01*
X025181Y014263D01*
X028820Y010624D01*
X028820Y009827D01*
X027729Y008735D01*
X027597Y008735D01*
X027443Y008671D01*
X027325Y008553D01*
X027261Y008399D01*
X027261Y008232D01*
X027325Y008078D01*
X027443Y007960D01*
X027597Y007897D01*
X027763Y007897D01*
X027917Y007960D01*
X028035Y008078D01*
X028099Y008232D01*
X028099Y008399D01*
X028040Y008541D01*
X028966Y009468D01*
X028966Y000900D01*
X000264Y000900D01*
X000264Y000974D02*
X028966Y000974D01*
X028966Y001133D02*
X000264Y001133D01*
X000264Y001291D02*
X028966Y001291D01*
X028966Y001450D02*
X000264Y001450D01*
X000264Y001608D02*
X028966Y001608D01*
X028966Y001767D02*
X000264Y001767D01*
X000264Y001925D02*
X026540Y001925D01*
X026502Y001963D02*
X026609Y001856D01*
X026748Y001799D01*
X026899Y001799D01*
X027039Y001856D01*
X027145Y001963D01*
X027203Y002102D01*
X027203Y002253D01*
X027145Y002393D01*
X027039Y002499D01*
X026899Y002557D01*
X026748Y002557D01*
X026609Y002499D01*
X026502Y002393D01*
X026444Y002253D01*
X026444Y002102D01*
X026502Y001963D01*
X026452Y002084D02*
X000264Y002084D01*
X000264Y002242D02*
X026444Y002242D01*
X026510Y002401D02*
X000264Y002401D01*
X000264Y002559D02*
X027298Y002559D01*
X027287Y002575D02*
X027329Y002516D01*
X027380Y002465D01*
X027439Y002422D01*
X027503Y002389D01*
X027572Y002367D01*
X027644Y002356D01*
X027680Y002356D01*
X027716Y002356D01*
X027788Y002367D01*
X027857Y002389D01*
X027921Y002422D01*
X027980Y002465D01*
X028031Y002516D01*
X028073Y002575D01*
X028106Y002639D01*
X028129Y002708D01*
X028140Y002779D01*
X028140Y002816D01*
X028140Y002852D01*
X028129Y002923D01*
X028106Y002992D01*
X028073Y003057D01*
X028031Y003115D01*
X027980Y003166D01*
X027921Y003209D01*
X027857Y003242D01*
X027788Y003264D01*
X027716Y003276D01*
X027680Y003276D01*
X027644Y003276D01*
X027572Y003264D01*
X027503Y003242D01*
X027439Y003209D01*
X027380Y003166D01*
X027329Y003115D01*
X027287Y003057D01*
X027254Y002992D01*
X027231Y002923D01*
X027220Y002852D01*
X027220Y002816D01*
X027680Y002816D01*
X027680Y003276D01*
X027680Y002816D01*
X027680Y002816D01*
X027680Y002816D01*
X028140Y002816D01*
X027680Y002816D01*
X027680Y002816D01*
X027220Y002816D01*
X027220Y002779D01*
X027231Y002708D01*
X027254Y002639D01*
X027287Y002575D01*
X027230Y002718D02*
X000264Y002718D01*
X000264Y002876D02*
X026389Y002876D01*
X026387Y002877D02*
X026577Y002798D01*
X026783Y002798D01*
X026973Y002877D01*
X027119Y003022D01*
X027197Y003213D01*
X027197Y003419D01*
X027119Y003609D01*
X026973Y003754D01*
X026783Y003833D01*
X026577Y003833D01*
X026387Y003754D01*
X026241Y003609D01*
X026163Y003419D01*
X026163Y003213D01*
X026241Y003022D01*
X026387Y002877D01*
X026236Y003035D02*
X000264Y003035D01*
X000264Y003193D02*
X026171Y003193D01*
X026163Y003352D02*
X000264Y003352D01*
X000264Y003510D02*
X026200Y003510D01*
X026301Y003669D02*
X000264Y003669D01*
X000264Y003827D02*
X026563Y003827D01*
X026597Y003897D02*
X026763Y003897D01*
X026917Y003960D01*
X027035Y004078D01*
X027045Y004102D01*
X027104Y004102D01*
X027457Y004454D01*
X027597Y004397D01*
X027763Y004397D01*
X027917Y004460D01*
X028035Y004578D01*
X028099Y004732D01*
X028099Y004899D01*
X028035Y005053D01*
X027917Y005171D01*
X027763Y005235D01*
X027597Y005235D01*
X027443Y005171D01*
X027325Y005053D01*
X027261Y004899D01*
X027261Y004763D01*
X027040Y004542D01*
X027035Y004553D01*
X026917Y004671D01*
X026763Y004735D01*
X026597Y004735D01*
X026443Y004671D01*
X026325Y004553D01*
X026261Y004399D01*
X026261Y004232D01*
X026325Y004078D01*
X026443Y003960D01*
X026597Y003897D01*
X026417Y003986D02*
X000264Y003986D01*
X000264Y004144D02*
X026297Y004144D01*
X026261Y004303D02*
X000264Y004303D01*
X000264Y004461D02*
X026287Y004461D01*
X026391Y004620D02*
X000264Y004620D01*
X000264Y004778D02*
X009345Y004778D01*
X009404Y004754D02*
X009242Y004821D01*
X009119Y004944D01*
X009052Y005105D01*
X009052Y005880D01*
X009119Y006041D01*
X009242Y006165D01*
X009293Y006186D01*
X009293Y012946D01*
X008925Y013314D01*
X008869Y013314D01*
X008774Y013354D01*
X008702Y013426D01*
X008693Y013447D01*
X007496Y012249D01*
X007563Y012182D01*
X007603Y012087D01*
X007603Y011985D01*
X007563Y011890D01*
X007491Y011818D01*
X007397Y011779D01*
X007341Y011779D01*
X003058Y007497D01*
X003099Y007399D01*
X003099Y007232D01*
X003035Y007078D01*
X002917Y006960D01*
X002763Y006897D01*
X002597Y006897D01*
X002443Y006960D01*
X002325Y007078D01*
X002261Y007232D01*
X002261Y007399D01*
X002325Y007553D01*
X002443Y007671D01*
X002597Y007735D01*
X002763Y007735D01*
X002783Y007726D01*
X003804Y008747D01*
X002813Y008747D01*
X002789Y008724D01*
X002917Y008671D01*
X003035Y008553D01*
X003099Y008399D01*
X003099Y008232D01*
X003035Y008078D01*
X002917Y007960D01*
X002763Y007897D01*
X002597Y007897D01*
X002443Y007960D01*
X002325Y008078D01*
X002272Y008206D01*
X002060Y007994D01*
X002099Y007899D01*
X002099Y007732D01*
X002035Y007578D01*
X001917Y007460D01*
X001763Y007397D01*
X001597Y007397D01*
X001443Y007460D01*
X001325Y007578D01*
X001261Y007732D01*
X001261Y007899D01*
X001325Y008053D01*
X001443Y008171D01*
X001597Y008235D01*
X001763Y008235D01*
X001786Y008225D01*
X002230Y008669D01*
X002073Y008669D01*
X002035Y008578D01*
X001917Y008460D01*
X001763Y008397D01*
X001597Y008397D01*
X001443Y008460D01*
X001325Y008578D01*
X001261Y008732D01*
X001261Y008899D01*
X001325Y009053D01*
X001443Y009171D01*
X001597Y009235D01*
X001763Y009235D01*
X001917Y009171D01*
X002035Y009053D01*
X002047Y009026D01*
X002350Y009026D01*
X002482Y009157D01*
X002586Y009262D01*
X003807Y009262D01*
X005635Y011090D01*
X005031Y011090D01*
X004900Y011144D01*
X004800Y011244D01*
X004746Y011375D01*
X004746Y011516D01*
X004800Y011647D01*
X004900Y011747D01*
X004901Y011748D01*
X004516Y012133D01*
X003058Y012133D01*
X003035Y012078D01*
X002917Y011960D01*
X002763Y011897D01*
X002597Y011897D01*
X002443Y011960D01*
X002325Y012078D01*
X002261Y012232D01*
X002261Y012399D01*
X002325Y012553D01*
X002443Y012671D01*
X002597Y012735D01*
X002763Y012735D01*
X002917Y012671D01*
X003035Y012553D01*
X003061Y012490D01*
X004663Y012490D01*
X004726Y012427D01*
X004726Y012481D01*
X004765Y012575D01*
X004805Y012615D01*
X004805Y013173D01*
X005243Y013611D01*
X005226Y013628D01*
X005226Y014004D01*
X005492Y014270D01*
X005868Y014270D01*
X006134Y014004D01*
X006134Y013628D01*
X005868Y013362D01*
X005498Y013362D01*
X005162Y013025D01*
X005162Y012615D01*
X005201Y012575D01*
X005240Y012481D01*
X005240Y012379D01*
X005201Y012284D01*
X005129Y012212D01*
X005034Y012173D01*
X004981Y012173D01*
X005215Y011939D01*
X006062Y011939D01*
X006064Y011946D01*
X006137Y012018D01*
X006231Y012057D01*
X006334Y012057D01*
X006428Y012018D01*
X006496Y011950D01*
X007167Y012622D01*
X007167Y012740D01*
X013860Y019433D01*
X013860Y019489D01*
X013899Y019583D01*
X013971Y019656D01*
X014066Y019695D01*
X014168Y019695D01*
X014263Y019656D01*
X014335Y019583D01*
X014374Y019489D01*
X014374Y019387D01*
X014335Y019292D01*
X014263Y019220D01*
X014168Y019180D01*
X014112Y019180D01*
X009779Y014848D01*
X009847Y014780D01*
X009886Y014686D01*
X009886Y014583D01*
X009847Y014489D01*
X009774Y014417D01*
X009680Y014377D01*
X009624Y014377D01*
X009045Y013798D01*
X009066Y013790D01*
X009138Y013717D01*
X009177Y013623D01*
X009177Y013567D01*
X009650Y013094D01*
X009650Y006202D01*
X009740Y006165D01*
X009863Y006041D01*
X009930Y005880D01*
X009930Y005105D01*
X009863Y004944D01*
X009740Y004821D01*
X009578Y004754D01*
X009404Y004754D01*
X009637Y004778D02*
X010345Y004778D01*
X010404Y004754D02*
X010578Y004754D01*
X010740Y004821D01*
X010863Y004944D01*
X010930Y005105D01*
X010930Y005880D01*
X010863Y006041D01*
X010740Y006165D01*
X010673Y006192D01*
X010673Y009167D01*
X022226Y020719D01*
X022226Y020628D01*
X022135Y020628D01*
X022226Y020628D02*
X022439Y020414D01*
X022364Y020338D01*
X011405Y009380D01*
X011301Y009275D01*
X011301Y006189D01*
X011242Y006165D01*
X011119Y006041D01*
X011052Y005880D01*
X011052Y005105D01*
X011119Y004944D01*
X011242Y004821D01*
X011404Y004754D01*
X011578Y004754D01*
X011740Y004821D01*
X011863Y004944D01*
X011930Y005105D01*
X011930Y005880D01*
X011863Y006041D01*
X011740Y006165D01*
X011658Y006199D01*
X011658Y009128D01*
X022226Y019696D01*
X022226Y019628D01*
X022492Y019362D01*
X022868Y019362D01*
X023134Y019628D01*
X023134Y020004D01*
X023129Y020009D01*
X023487Y020366D01*
X023492Y020362D01*
X023868Y020362D01*
X024134Y020628D01*
X024858Y020628D01*
X024700Y020470D02*
X023976Y020470D01*
X024134Y020628D02*
X024134Y021004D01*
X023868Y021270D01*
X023492Y021270D01*
X023226Y021004D01*
X023226Y020628D01*
X023134Y020628D01*
X023134Y021004D01*
X023067Y021070D01*
X023167Y021070D01*
X023475Y021378D01*
X023492Y021362D01*
X023868Y021362D01*
X024134Y021628D01*
X024134Y022004D01*
X023868Y022270D01*
X023492Y022270D01*
X023226Y022004D01*
X023226Y021634D01*
X023019Y021427D01*
X022934Y021427D01*
X023134Y021628D01*
X023134Y022004D01*
X022868Y022270D01*
X022492Y022270D01*
X022226Y022004D01*
X022226Y021628D01*
X022428Y021426D01*
X022324Y021323D01*
X010317Y009315D01*
X010317Y006196D01*
X010242Y006165D01*
X010119Y006041D01*
X010052Y005880D01*
X010052Y005105D01*
X010119Y004944D01*
X010242Y004821D01*
X010404Y004754D01*
X010637Y004778D02*
X011345Y004778D01*
X011126Y004937D02*
X010856Y004937D01*
X010926Y005095D02*
X011056Y005095D01*
X011052Y005254D02*
X010930Y005254D01*
X010930Y005412D02*
X011052Y005412D01*
X011052Y005571D02*
X010930Y005571D01*
X010930Y005729D02*
X011052Y005729D01*
X011055Y005888D02*
X010927Y005888D01*
X010859Y006046D02*
X011123Y006046D01*
X011301Y006205D02*
X010673Y006205D01*
X010673Y006363D02*
X011301Y006363D01*
X011301Y006522D02*
X010673Y006522D01*
X010673Y006680D02*
X011301Y006680D01*
X011301Y006839D02*
X010673Y006839D01*
X010673Y006997D02*
X011301Y006997D01*
X011301Y007156D02*
X010673Y007156D01*
X010673Y007314D02*
X011301Y007314D01*
X011301Y007473D02*
X010673Y007473D01*
X010673Y007631D02*
X011301Y007631D01*
X011301Y007790D02*
X010673Y007790D01*
X010673Y007948D02*
X011301Y007948D01*
X011301Y008107D02*
X010673Y008107D01*
X010673Y008265D02*
X011301Y008265D01*
X011301Y008424D02*
X010673Y008424D01*
X010673Y008582D02*
X011301Y008582D01*
X011301Y008741D02*
X010673Y008741D01*
X010673Y008899D02*
X011301Y008899D01*
X011301Y009058D02*
X010673Y009058D01*
X010723Y009216D02*
X011301Y009216D01*
X011400Y009375D02*
X010881Y009375D01*
X011040Y009533D02*
X011559Y009533D01*
X011405Y009380D02*
X011405Y009380D01*
X011198Y009692D02*
X011717Y009692D01*
X011876Y009850D02*
X011357Y009850D01*
X011515Y010009D02*
X012034Y010009D01*
X012193Y010167D02*
X011674Y010167D01*
X011832Y010326D02*
X012351Y010326D01*
X012510Y010484D02*
X011991Y010484D01*
X012149Y010643D02*
X012668Y010643D01*
X012827Y010801D02*
X012308Y010801D01*
X012466Y010960D02*
X012985Y010960D01*
X013144Y011118D02*
X012625Y011118D01*
X012783Y011277D02*
X013302Y011277D01*
X013461Y011435D02*
X012942Y011435D01*
X013100Y011594D02*
X013619Y011594D01*
X013778Y011752D02*
X013259Y011752D01*
X013417Y011911D02*
X013936Y011911D01*
X014095Y012069D02*
X013576Y012069D01*
X013734Y012228D02*
X014253Y012228D01*
X014412Y012386D02*
X013893Y012386D01*
X014051Y012545D02*
X014570Y012545D01*
X014729Y012703D02*
X014210Y012703D01*
X014368Y012862D02*
X014887Y012862D01*
X015046Y013020D02*
X014527Y013020D01*
X014685Y013179D02*
X015204Y013179D01*
X015363Y013337D02*
X014844Y013337D01*
X015002Y013496D02*
X015521Y013496D01*
X015680Y013654D02*
X015161Y013654D01*
X015319Y013813D02*
X015838Y013813D01*
X015997Y013971D02*
X015478Y013971D01*
X015636Y014130D02*
X016155Y014130D01*
X016314Y014288D02*
X015795Y014288D01*
X015953Y014447D02*
X016472Y014447D01*
X016631Y014605D02*
X016112Y014605D01*
X016270Y014764D02*
X016789Y014764D01*
X016948Y014922D02*
X016429Y014922D01*
X016587Y015081D02*
X017106Y015081D01*
X017265Y015239D02*
X016746Y015239D01*
X016904Y015398D02*
X017423Y015398D01*
X017582Y015556D02*
X017063Y015556D01*
X017221Y015715D02*
X017740Y015715D01*
X017899Y015873D02*
X017380Y015873D01*
X017538Y016032D02*
X018057Y016032D01*
X018216Y016190D02*
X017697Y016190D01*
X017855Y016349D02*
X018374Y016349D01*
X018533Y016507D02*
X018014Y016507D01*
X018172Y016666D02*
X018691Y016666D01*
X018850Y016824D02*
X018331Y016824D01*
X018489Y016983D02*
X019008Y016983D01*
X019167Y017141D02*
X018648Y017141D01*
X018806Y017300D02*
X019325Y017300D01*
X019484Y017458D02*
X018965Y017458D01*
X019123Y017617D02*
X019642Y017617D01*
X019801Y017775D02*
X019282Y017775D01*
X019440Y017934D02*
X019959Y017934D01*
X020118Y018092D02*
X019599Y018092D01*
X019757Y018251D02*
X020276Y018251D01*
X020435Y018409D02*
X019916Y018409D01*
X020074Y018568D02*
X020593Y018568D01*
X020752Y018726D02*
X020233Y018726D01*
X020391Y018885D02*
X020910Y018885D01*
X021069Y019043D02*
X020550Y019043D01*
X020708Y019202D02*
X021227Y019202D01*
X021386Y019360D02*
X020867Y019360D01*
X021025Y019519D02*
X021544Y019519D01*
X021703Y019677D02*
X021184Y019677D01*
X021342Y019836D02*
X021861Y019836D01*
X022020Y019994D02*
X021501Y019994D01*
X021659Y020153D02*
X022178Y020153D01*
X022337Y020311D02*
X021818Y020311D01*
X021976Y020470D02*
X022384Y020470D01*
X022364Y020338D02*
X022364Y020338D01*
X022921Y020414D02*
X023134Y020628D01*
X023226Y020628D02*
X023235Y020619D01*
X022975Y020359D01*
X022921Y020414D01*
X022976Y020470D02*
X023086Y020470D01*
X023273Y020153D02*
X023375Y020153D01*
X023492Y020270D02*
X023226Y020004D01*
X023226Y019628D01*
X023277Y019577D01*
X023177Y019577D01*
X022869Y019269D01*
X022868Y019270D01*
X022492Y019270D01*
X022226Y019004D01*
X022226Y018628D01*
X022492Y018362D01*
X022868Y018362D01*
X023134Y018628D01*
X023134Y019004D01*
X023121Y019016D01*
X023325Y019220D01*
X023442Y019220D01*
X023226Y019004D01*
X023226Y018628D01*
X023492Y018362D01*
X023868Y018362D01*
X024134Y018628D01*
X024134Y019004D01*
X023918Y019220D01*
X023955Y019220D01*
X024059Y019324D01*
X025372Y020637D01*
X026300Y020637D01*
X026325Y020578D01*
X026443Y020460D01*
X026597Y020397D01*
X026763Y020397D01*
X026917Y020460D01*
X027035Y020578D01*
X027099Y020732D01*
X027099Y020899D01*
X027035Y021053D01*
X026917Y021171D01*
X026763Y021235D01*
X026597Y021235D01*
X026443Y021171D01*
X026325Y021053D01*
X026300Y020994D01*
X025224Y020994D01*
X024134Y019904D01*
X024134Y020004D01*
X023868Y020270D01*
X023492Y020270D01*
X023432Y020311D02*
X024541Y020311D01*
X024383Y020153D02*
X023985Y020153D01*
X024134Y019994D02*
X024224Y019994D01*
X024570Y019836D02*
X026261Y019836D01*
X026261Y019899D02*
X026261Y019732D01*
X026325Y019578D01*
X026443Y019460D01*
X026597Y019397D01*
X026763Y019397D01*
X026917Y019460D01*
X027035Y019578D01*
X027099Y019732D01*
X027099Y019899D01*
X027035Y020053D01*
X026917Y020171D01*
X026763Y020235D01*
X026597Y020235D01*
X026443Y020171D01*
X026325Y020053D01*
X026261Y019899D01*
X026300Y019994D02*
X024729Y019994D01*
X024887Y020153D02*
X026424Y020153D01*
X026433Y020470D02*
X025204Y020470D01*
X025046Y020311D02*
X027261Y020311D01*
X027261Y020232D02*
X027261Y020399D01*
X027325Y020553D01*
X027443Y020671D01*
X027597Y020735D01*
X027763Y020735D01*
X027917Y020671D01*
X028035Y020553D01*
X028099Y020399D01*
X028099Y020232D01*
X028035Y020078D01*
X027917Y019960D01*
X027763Y019897D01*
X027597Y019897D01*
X027443Y019960D01*
X027325Y020078D01*
X027261Y020232D01*
X027294Y020153D02*
X026936Y020153D01*
X027060Y019994D02*
X027409Y019994D01*
X027597Y019735D02*
X027443Y019671D01*
X027325Y019553D01*
X027261Y019399D01*
X027261Y019232D01*
X027325Y019078D01*
X027443Y018960D01*
X027597Y018897D01*
X027763Y018897D01*
X027917Y018960D01*
X028035Y019078D01*
X028099Y019232D01*
X028099Y019399D01*
X028035Y019553D01*
X027917Y019671D01*
X027763Y019735D01*
X027597Y019735D01*
X027458Y019677D02*
X027076Y019677D01*
X027099Y019836D02*
X028966Y019836D01*
X028966Y019994D02*
X027951Y019994D01*
X028066Y020153D02*
X028966Y020153D01*
X028966Y020311D02*
X028099Y020311D01*
X028070Y020470D02*
X028966Y020470D01*
X028966Y020628D02*
X027960Y020628D01*
X027857Y020889D02*
X027921Y020922D01*
X027980Y020965D01*
X028031Y021016D01*
X028073Y021075D01*
X028106Y021139D01*
X028129Y021208D01*
X028140Y021279D01*
X028140Y021316D01*
X028140Y021352D01*
X028129Y021423D01*
X028106Y021492D01*
X028073Y021557D01*
X028031Y021615D01*
X027980Y021666D01*
X027921Y021709D01*
X027857Y021742D01*
X027788Y021764D01*
X027716Y021776D01*
X027680Y021776D01*
X027644Y021776D01*
X027572Y021764D01*
X027503Y021742D01*
X027439Y021709D01*
X027380Y021666D01*
X027329Y021615D01*
X027287Y021557D01*
X027254Y021492D01*
X027231Y021423D01*
X027220Y021352D01*
X027220Y021316D01*
X027680Y021316D01*
X027680Y021776D01*
X027680Y021316D01*
X027680Y021316D01*
X027680Y021316D01*
X028140Y021316D01*
X027680Y021316D01*
X027680Y021316D01*
X027220Y021316D01*
X027220Y021279D01*
X027231Y021208D01*
X027254Y021139D01*
X027287Y021075D01*
X027329Y021016D01*
X027380Y020965D01*
X027439Y020922D01*
X027503Y020889D01*
X027572Y020867D01*
X027644Y020856D01*
X027680Y020856D01*
X027716Y020856D01*
X027788Y020867D01*
X027857Y020889D01*
X027953Y020945D02*
X028966Y020945D01*
X028966Y020787D02*
X027099Y020787D01*
X027080Y020945D02*
X027407Y020945D01*
X027272Y021104D02*
X026985Y021104D01*
X026973Y021377D02*
X026783Y021298D01*
X026577Y021298D01*
X026387Y021377D01*
X026241Y021522D01*
X026163Y021713D01*
X026163Y021919D01*
X026241Y022109D01*
X026387Y022254D01*
X026577Y022333D01*
X026783Y022333D01*
X026973Y022254D01*
X027119Y022109D01*
X027197Y021919D01*
X027197Y021713D01*
X027119Y021522D01*
X026973Y021377D01*
X027017Y021421D02*
X027231Y021421D01*
X027223Y021262D02*
X023876Y021262D01*
X023927Y021421D02*
X026343Y021421D01*
X026218Y021579D02*
X024086Y021579D01*
X024134Y021738D02*
X026163Y021738D01*
X026163Y021896D02*
X024134Y021896D01*
X024083Y022055D02*
X026219Y022055D01*
X026346Y022213D02*
X023925Y022213D01*
X023435Y022213D02*
X022925Y022213D01*
X023083Y022055D02*
X023277Y022055D01*
X023226Y021896D02*
X023134Y021896D01*
X023134Y021738D02*
X023226Y021738D01*
X023172Y021579D02*
X023086Y021579D01*
X023359Y021262D02*
X023484Y021262D01*
X023326Y021104D02*
X023201Y021104D01*
X023226Y020945D02*
X023134Y020945D01*
X023134Y020787D02*
X023226Y020787D01*
X024034Y021104D02*
X026375Y021104D01*
X026304Y020628D02*
X025363Y020628D01*
X025175Y020945D02*
X024134Y020945D01*
X024134Y020787D02*
X025017Y020787D01*
X024412Y019677D02*
X026284Y019677D01*
X026384Y019519D02*
X024253Y019519D01*
X024095Y019360D02*
X027261Y019360D01*
X027274Y019202D02*
X023936Y019202D01*
X024095Y019043D02*
X026715Y019043D01*
X026748Y019057D02*
X026609Y018999D01*
X026502Y018893D01*
X026444Y018753D01*
X026444Y018602D01*
X026502Y018463D01*
X026609Y018356D01*
X026748Y018299D01*
X026899Y018299D01*
X027039Y018356D01*
X027145Y018463D01*
X027203Y018602D01*
X027203Y018753D01*
X027145Y018893D01*
X027039Y018999D01*
X026899Y019057D01*
X026748Y019057D01*
X026933Y019043D02*
X027360Y019043D01*
X027148Y018885D02*
X028966Y018885D01*
X028966Y019043D02*
X028000Y019043D01*
X028086Y019202D02*
X028966Y019202D01*
X028966Y019360D02*
X028099Y019360D01*
X028049Y019519D02*
X028966Y019519D01*
X028966Y019677D02*
X027902Y019677D01*
X027311Y019519D02*
X026976Y019519D01*
X026499Y018885D02*
X024134Y018885D01*
X024134Y018726D02*
X026444Y018726D01*
X026459Y018568D02*
X024074Y018568D01*
X023916Y018409D02*
X026556Y018409D01*
X027091Y018409D02*
X028966Y018409D01*
X028966Y018251D02*
X023887Y018251D01*
X023868Y018270D02*
X023492Y018270D01*
X023226Y018004D01*
X023226Y017628D01*
X023231Y017623D01*
X023019Y017411D01*
X022918Y017411D01*
X023134Y017628D01*
X023134Y018004D01*
X022868Y018270D01*
X022492Y018270D01*
X022226Y018004D01*
X022226Y017628D01*
X022442Y017411D01*
X022429Y017411D01*
X022324Y017307D01*
X019319Y014301D01*
X019263Y014301D01*
X019168Y014262D01*
X019096Y014190D01*
X019057Y014095D01*
X019057Y013993D01*
X019096Y013898D01*
X019168Y013826D01*
X019263Y013787D01*
X019365Y013787D01*
X019460Y013826D01*
X019532Y013898D01*
X019571Y013993D01*
X019571Y014049D01*
X022226Y016704D01*
X022226Y016628D01*
X022428Y016426D01*
X022324Y016323D01*
X020460Y014459D01*
X020404Y014459D01*
X020310Y014419D01*
X020238Y014347D01*
X020198Y014253D01*
X020198Y014150D01*
X020238Y014056D01*
X020310Y013983D01*
X020404Y013944D01*
X020507Y013944D01*
X020601Y013983D01*
X020674Y014056D01*
X020713Y014150D01*
X020713Y014206D01*
X022226Y015719D01*
X022226Y015628D01*
X022492Y015362D01*
X022868Y015362D01*
X023134Y015628D01*
X023134Y016004D01*
X023067Y016070D01*
X023167Y016070D01*
X023475Y016378D01*
X023492Y016362D01*
X023868Y016362D01*
X024134Y016628D01*
X024134Y017004D01*
X023868Y017270D01*
X023492Y017270D01*
X023226Y017004D01*
X023226Y016634D01*
X023019Y016427D01*
X022934Y016427D01*
X023134Y016628D01*
X023134Y017004D01*
X023083Y017055D01*
X023167Y017055D01*
X023483Y017370D01*
X023492Y017362D01*
X023868Y017362D01*
X024134Y017628D01*
X024134Y018004D01*
X023868Y018270D01*
X024046Y018092D02*
X028966Y018092D01*
X028966Y017934D02*
X024134Y017934D01*
X024134Y017775D02*
X028966Y017775D01*
X028966Y017617D02*
X024123Y017617D01*
X023965Y017458D02*
X028966Y017458D01*
X028966Y017300D02*
X027716Y017300D01*
X027915Y017141D02*
X028966Y017141D01*
X028966Y016983D02*
X027993Y016983D01*
X028017Y016824D02*
X028966Y016824D01*
X028966Y016666D02*
X028000Y016666D01*
X027932Y016507D02*
X028966Y016507D01*
X028966Y016349D02*
X027757Y016349D01*
X027723Y016190D02*
X028966Y016190D01*
X028966Y016032D02*
X027866Y016032D01*
X027852Y016064D02*
X027729Y016188D01*
X027567Y016255D01*
X026793Y016255D01*
X026631Y016188D01*
X026508Y016064D01*
X026441Y015903D01*
X026441Y015728D01*
X026508Y015567D01*
X026631Y015443D01*
X026793Y015377D01*
X027567Y015377D01*
X027729Y015443D01*
X027852Y015567D01*
X027919Y015728D01*
X027919Y015903D01*
X027852Y016064D01*
X027919Y015873D02*
X028966Y015873D01*
X028966Y015715D02*
X027913Y015715D01*
X027841Y015556D02*
X028966Y015556D01*
X028966Y015398D02*
X027618Y015398D01*
X027605Y015239D02*
X028966Y015239D01*
X028966Y015081D02*
X027836Y015081D01*
X027911Y014922D02*
X028966Y014922D01*
X028966Y014764D02*
X027919Y014764D01*
X027868Y014605D02*
X028966Y014605D01*
X028966Y014447D02*
X027732Y014447D01*
X027664Y014260D02*
X027592Y014284D01*
X027518Y014296D01*
X027200Y014296D01*
X027200Y013836D01*
X027160Y013836D01*
X027160Y014296D01*
X026842Y014296D01*
X026768Y014284D01*
X026696Y014260D01*
X026628Y014226D01*
X026567Y014182D01*
X026514Y014128D01*
X026469Y014067D01*
X026435Y014000D01*
X026412Y013928D01*
X026400Y013853D01*
X026400Y013836D01*
X027160Y013836D01*
X027160Y013796D01*
X026400Y013796D01*
X026400Y013778D01*
X026412Y013703D01*
X026435Y013631D01*
X026469Y013564D01*
X026514Y013503D01*
X026567Y013449D01*
X026628Y013405D01*
X026696Y013371D01*
X026768Y013347D01*
X026842Y013336D01*
X027160Y013336D01*
X027160Y013796D01*
X027200Y013796D01*
X027200Y013836D01*
X027960Y013836D01*
X027960Y013853D01*
X027948Y013928D01*
X027925Y014000D01*
X027891Y014067D01*
X027846Y014128D01*
X027793Y014182D01*
X027732Y014226D01*
X027664Y014260D01*
X027565Y014288D02*
X028966Y014288D01*
X028966Y014130D02*
X027845Y014130D01*
X027934Y013971D02*
X028966Y013971D01*
X028966Y013813D02*
X027200Y013813D01*
X027200Y013796D02*
X027960Y013796D01*
X027960Y013778D01*
X027948Y013703D01*
X027925Y013631D01*
X027891Y013564D01*
X027846Y013503D01*
X027793Y013449D01*
X027732Y013405D01*
X027664Y013371D01*
X027592Y013347D01*
X027518Y013336D01*
X027200Y013336D01*
X027200Y013796D01*
X027160Y013813D02*
X026136Y013813D01*
X026140Y013971D02*
X026426Y013971D01*
X026515Y014130D02*
X026187Y014130D01*
X026346Y014288D02*
X026795Y014288D01*
X026628Y014447D02*
X026504Y014447D01*
X026317Y014764D02*
X025500Y014764D01*
X025509Y014605D02*
X026158Y014605D01*
X026000Y014447D02*
X025502Y014447D01*
X025661Y014288D02*
X025730Y014288D01*
X025473Y013971D02*
X025181Y013971D01*
X025181Y013813D02*
X025631Y013813D01*
X025790Y013654D02*
X025181Y013654D01*
X025181Y013496D02*
X025948Y013496D01*
X026107Y013337D02*
X025181Y013337D01*
X025181Y013179D02*
X026265Y013179D01*
X026424Y013020D02*
X025181Y013020D01*
X025181Y012862D02*
X026582Y012862D01*
X026741Y012703D02*
X025291Y012703D01*
X025450Y012545D02*
X026899Y012545D01*
X027058Y012386D02*
X025608Y012386D01*
X025767Y012228D02*
X027216Y012228D01*
X027375Y012069D02*
X025925Y012069D01*
X026084Y011911D02*
X027533Y011911D01*
X027692Y011752D02*
X026242Y011752D01*
X026401Y011594D02*
X027850Y011594D01*
X028009Y011435D02*
X026559Y011435D01*
X026919Y011277D02*
X028167Y011277D01*
X028326Y011118D02*
X027109Y011118D01*
X027180Y010960D02*
X028484Y010960D01*
X028643Y010801D02*
X027197Y010801D01*
X027168Y010643D02*
X027356Y010643D01*
X027380Y010666D02*
X027329Y010615D01*
X027287Y010557D01*
X027254Y010492D01*
X027231Y010423D01*
X027220Y010352D01*
X027220Y010316D01*
X027680Y010316D01*
X027680Y010776D01*
X027644Y010776D01*
X027572Y010764D01*
X027503Y010742D01*
X027439Y010709D01*
X027380Y010666D01*
X027251Y010484D02*
X027080Y010484D01*
X027220Y010326D02*
X026849Y010326D01*
X026921Y010167D02*
X027245Y010167D01*
X027254Y010139D02*
X027287Y010075D01*
X027329Y010016D01*
X027380Y009965D01*
X027439Y009922D01*
X027503Y009889D01*
X027572Y009867D01*
X027644Y009856D01*
X027680Y009856D01*
X027716Y009856D01*
X027788Y009867D01*
X027857Y009889D01*
X027921Y009922D01*
X027980Y009965D01*
X028031Y010016D01*
X028073Y010075D01*
X028106Y010139D01*
X028129Y010208D01*
X028140Y010279D01*
X028140Y010316D01*
X028140Y010352D01*
X028129Y010423D01*
X028106Y010492D01*
X028073Y010557D01*
X028031Y010615D01*
X027980Y010666D01*
X027921Y010709D01*
X027857Y010742D01*
X027788Y010764D01*
X027716Y010776D01*
X027680Y010776D01*
X027680Y010316D01*
X027680Y010316D01*
X027680Y010316D01*
X028140Y010316D01*
X027680Y010316D01*
X027680Y010316D01*
X027220Y010316D01*
X027220Y010279D01*
X027231Y010208D01*
X027254Y010139D01*
X027336Y010009D02*
X027054Y010009D01*
X027099Y009850D02*
X028820Y009850D01*
X028820Y010009D02*
X028024Y010009D01*
X028115Y010167D02*
X028820Y010167D01*
X028820Y010326D02*
X028140Y010326D01*
X028109Y010484D02*
X028820Y010484D01*
X028801Y010643D02*
X028004Y010643D01*
X027680Y010643D02*
X027680Y010643D01*
X027680Y010484D02*
X027680Y010484D01*
X027680Y010326D02*
X027680Y010326D01*
X027680Y010316D02*
X027680Y009856D01*
X027680Y010316D01*
X027680Y010316D01*
X027680Y010167D02*
X027680Y010167D01*
X027680Y010009D02*
X027680Y010009D01*
X027763Y009735D02*
X027597Y009735D01*
X027443Y009671D01*
X027325Y009553D01*
X027261Y009399D01*
X027261Y009232D01*
X027325Y009078D01*
X027443Y008960D01*
X027597Y008897D01*
X027763Y008897D01*
X027917Y008960D01*
X028035Y009078D01*
X028099Y009232D01*
X028099Y009399D01*
X028035Y009553D01*
X027917Y009671D01*
X027763Y009735D01*
X027867Y009692D02*
X028686Y009692D01*
X028527Y009533D02*
X028043Y009533D01*
X028099Y009375D02*
X028369Y009375D01*
X028210Y009216D02*
X028092Y009216D01*
X028052Y009058D02*
X028015Y009058D01*
X027893Y008899D02*
X027770Y008899D01*
X027735Y008741D02*
X027099Y008741D01*
X027099Y008899D02*
X027590Y008899D01*
X027345Y009058D02*
X027031Y009058D01*
X026808Y009216D02*
X027268Y009216D01*
X027261Y009375D02*
X026391Y009375D01*
X026391Y009216D02*
X026552Y009216D01*
X026990Y009533D02*
X027317Y009533D01*
X027493Y009692D02*
X027082Y009692D01*
X026439Y010167D02*
X026395Y010167D01*
X026396Y010326D02*
X026511Y010326D01*
X025685Y010326D02*
X020468Y010326D01*
X020310Y010167D02*
X025684Y010167D01*
X025683Y010009D02*
X020151Y010009D01*
X019993Y009850D02*
X025683Y009850D01*
X025682Y009692D02*
X019834Y009692D01*
X019676Y009533D02*
X025681Y009533D01*
X025680Y009375D02*
X019517Y009375D01*
X019359Y009216D02*
X025679Y009216D01*
X025679Y009058D02*
X019200Y009058D01*
X019042Y008899D02*
X025678Y008899D01*
X025677Y008741D02*
X018883Y008741D01*
X018725Y008582D02*
X025676Y008582D01*
X025675Y008424D02*
X018566Y008424D01*
X018408Y008265D02*
X025675Y008265D01*
X025674Y008107D02*
X018249Y008107D01*
X018091Y007948D02*
X025673Y007948D01*
X025672Y007790D02*
X021135Y007790D01*
X021294Y007631D02*
X025672Y007631D01*
X025670Y007473D02*
X021452Y007473D01*
X021611Y007314D02*
X025715Y007314D01*
X025813Y007156D02*
X021769Y007156D01*
X021928Y006997D02*
X025900Y006997D01*
X026131Y006839D02*
X022086Y006839D01*
X022245Y006680D02*
X026399Y006680D01*
X026269Y006522D02*
X022403Y006522D01*
X022562Y006363D02*
X026222Y006363D01*
X026220Y006316D02*
X026220Y006279D01*
X026231Y006208D01*
X026254Y006139D01*
X026287Y006075D01*
X026329Y006016D01*
X026380Y005965D01*
X026439Y005922D01*
X026503Y005889D01*
X026572Y005867D01*
X026644Y005856D01*
X026680Y005856D01*
X026716Y005856D01*
X026788Y005867D01*
X026857Y005889D01*
X026921Y005922D01*
X026980Y005965D01*
X027031Y006016D01*
X027073Y006075D01*
X027106Y006139D01*
X027129Y006208D01*
X027140Y006279D01*
X027140Y006316D01*
X026680Y006316D01*
X026680Y006316D01*
X026680Y006316D01*
X026220Y006316D01*
X026232Y006205D02*
X022720Y006205D01*
X022879Y006046D02*
X026307Y006046D01*
X026509Y005888D02*
X023037Y005888D01*
X023196Y005729D02*
X026583Y005729D01*
X026680Y005856D02*
X026680Y006316D01*
X026680Y005856D01*
X026680Y005888D02*
X026680Y005888D01*
X026680Y006046D02*
X026680Y006046D01*
X026680Y006205D02*
X026680Y006205D01*
X026680Y006316D02*
X026680Y006316D01*
X026680Y006363D02*
X026680Y006363D01*
X026680Y006522D02*
X026680Y006522D01*
X026680Y006680D02*
X026680Y006680D01*
X026961Y006680D02*
X026962Y006680D01*
X027091Y006522D02*
X027121Y006522D01*
X027138Y006363D02*
X027279Y006363D01*
X027305Y006205D02*
X027128Y006205D01*
X027053Y006046D02*
X027215Y006046D01*
X027163Y005888D02*
X026851Y005888D01*
X026777Y005729D02*
X027163Y005729D01*
X027221Y005571D02*
X027018Y005571D01*
X027094Y005412D02*
X027352Y005412D01*
X027099Y005254D02*
X028966Y005254D01*
X028966Y005412D02*
X028008Y005412D01*
X028139Y005571D02*
X028966Y005571D01*
X028966Y005729D02*
X028197Y005729D01*
X028197Y005888D02*
X028966Y005888D01*
X028966Y006046D02*
X028145Y006046D01*
X028023Y006205D02*
X028966Y006205D01*
X028966Y006363D02*
X028016Y006363D01*
X028016Y006522D02*
X028966Y006522D01*
X028966Y006680D02*
X027964Y006680D01*
X027809Y006839D02*
X028966Y006839D01*
X028966Y006997D02*
X027651Y006997D01*
X027492Y007156D02*
X028966Y007156D01*
X028966Y007314D02*
X027334Y007314D01*
X027175Y007473D02*
X028966Y007473D01*
X028966Y007631D02*
X027203Y007631D01*
X027188Y007790D02*
X028966Y007790D01*
X028966Y007948D02*
X027888Y007948D01*
X028047Y008107D02*
X028966Y008107D01*
X028966Y008265D02*
X028099Y008265D01*
X028089Y008424D02*
X028966Y008424D01*
X028966Y008582D02*
X028081Y008582D01*
X028239Y008741D02*
X028966Y008741D01*
X028966Y008899D02*
X028398Y008899D01*
X028556Y009058D02*
X028966Y009058D01*
X028966Y009216D02*
X028715Y009216D01*
X028873Y009375D02*
X028966Y009375D01*
X027354Y008582D02*
X027037Y008582D01*
X026829Y008424D02*
X027271Y008424D01*
X027261Y008265D02*
X026386Y008265D01*
X026385Y008107D02*
X027313Y008107D01*
X027472Y007948D02*
X027090Y007948D01*
X026558Y007948D02*
X026384Y007948D01*
X026384Y007790D02*
X026460Y007790D01*
X026444Y007631D02*
X026383Y007631D01*
X026387Y008424D02*
X026531Y008424D01*
X025686Y010484D02*
X020627Y010484D01*
X020785Y010643D02*
X025687Y010643D01*
X025687Y010801D02*
X020944Y010801D01*
X021102Y010960D02*
X025688Y010960D01*
X025689Y011118D02*
X021261Y011118D01*
X021419Y011277D02*
X025690Y011277D01*
X025554Y011435D02*
X021578Y011435D01*
X021736Y011594D02*
X025395Y011594D01*
X025237Y011752D02*
X024336Y011752D01*
X024494Y011911D02*
X025078Y011911D01*
X024920Y012069D02*
X024653Y012069D01*
X024123Y012545D02*
X024051Y012545D01*
X024134Y012703D02*
X024281Y012703D01*
X024134Y012862D02*
X024440Y012862D01*
X024470Y013020D02*
X024118Y013020D01*
X023401Y013179D02*
X023098Y013179D01*
X023232Y013020D02*
X023242Y013020D01*
X022420Y013337D02*
X021933Y013337D01*
X021933Y013179D02*
X022262Y013179D01*
X022128Y013020D02*
X021933Y013020D01*
X021962Y012862D02*
X021999Y012862D01*
X021576Y013020D02*
X015550Y013020D01*
X015392Y012862D02*
X021547Y012862D01*
X021498Y012703D02*
X015233Y012703D01*
X015075Y012545D02*
X021552Y012545D01*
X021523Y012386D02*
X014916Y012386D01*
X014758Y012228D02*
X021365Y012228D01*
X021206Y012069D02*
X014599Y012069D01*
X014441Y011911D02*
X021048Y011911D01*
X020889Y011752D02*
X014282Y011752D01*
X014124Y011594D02*
X020731Y011594D01*
X020572Y011435D02*
X013965Y011435D01*
X013807Y011277D02*
X020414Y011277D01*
X020255Y011118D02*
X013648Y011118D01*
X013490Y010960D02*
X020097Y010960D01*
X019938Y010801D02*
X013331Y010801D01*
X013173Y010643D02*
X019780Y010643D01*
X019621Y010484D02*
X013014Y010484D01*
X012856Y010326D02*
X019463Y010326D01*
X019304Y010167D02*
X012697Y010167D01*
X012539Y010009D02*
X019146Y010009D01*
X018987Y009850D02*
X012380Y009850D01*
X012222Y009692D02*
X018829Y009692D01*
X018670Y009533D02*
X012063Y009533D01*
X011905Y009375D02*
X018512Y009375D01*
X018353Y009216D02*
X011746Y009216D01*
X011658Y009058D02*
X018195Y009058D01*
X018036Y008899D02*
X011658Y008899D01*
X011658Y008741D02*
X017878Y008741D01*
X017719Y008582D02*
X011658Y008582D01*
X011658Y008424D02*
X017561Y008424D01*
X017402Y008265D02*
X011658Y008265D01*
X011658Y008107D02*
X017244Y008107D01*
X017085Y007948D02*
X011658Y007948D01*
X011658Y007790D02*
X016927Y007790D01*
X016768Y007631D02*
X011658Y007631D01*
X011658Y007473D02*
X016610Y007473D01*
X016451Y007314D02*
X011658Y007314D01*
X011658Y007156D02*
X016293Y007156D01*
X016134Y006997D02*
X011658Y006997D01*
X011658Y006839D02*
X015976Y006839D01*
X015817Y006680D02*
X011658Y006680D01*
X011658Y006522D02*
X015659Y006522D01*
X015500Y006363D02*
X011658Y006363D01*
X011658Y006205D02*
X012338Y006205D01*
X012404Y006232D02*
X012242Y006165D01*
X012119Y006041D01*
X012052Y005880D01*
X012052Y005105D01*
X012119Y004944D01*
X012242Y004821D01*
X012404Y004754D01*
X012578Y004754D01*
X012740Y004821D01*
X012863Y004944D01*
X012930Y005105D01*
X012930Y005880D01*
X012863Y006041D01*
X012740Y006165D01*
X012578Y006232D01*
X012404Y006232D01*
X012644Y006205D02*
X013242Y006205D01*
X013082Y006046D02*
X012859Y006046D01*
X012927Y005888D02*
X013020Y005888D01*
X013011Y005729D02*
X012930Y005729D01*
X012930Y005571D02*
X013011Y005571D01*
X013011Y005412D02*
X012930Y005412D01*
X012930Y005254D02*
X013011Y005254D01*
X013021Y005095D02*
X012926Y005095D01*
X012856Y004937D02*
X013084Y004937D01*
X013248Y004778D02*
X012637Y004778D01*
X012345Y004778D02*
X011637Y004778D01*
X011856Y004937D02*
X012126Y004937D01*
X012056Y005095D02*
X011926Y005095D01*
X011930Y005254D02*
X012052Y005254D01*
X012052Y005412D02*
X011930Y005412D01*
X011930Y005571D02*
X012052Y005571D01*
X012052Y005729D02*
X011930Y005729D01*
X011927Y005888D02*
X012055Y005888D01*
X012123Y006046D02*
X011859Y006046D01*
X010317Y006205D02*
X009650Y006205D01*
X009650Y006363D02*
X010317Y006363D01*
X010317Y006522D02*
X009650Y006522D01*
X009650Y006680D02*
X010317Y006680D01*
X010317Y006839D02*
X009650Y006839D01*
X009650Y006997D02*
X010317Y006997D01*
X010317Y007156D02*
X009650Y007156D01*
X009650Y007314D02*
X010317Y007314D01*
X010317Y007473D02*
X009650Y007473D01*
X009650Y007631D02*
X010317Y007631D01*
X010317Y007790D02*
X009650Y007790D01*
X009650Y007948D02*
X010317Y007948D01*
X010317Y008107D02*
X009650Y008107D01*
X009650Y008265D02*
X010317Y008265D01*
X010317Y008424D02*
X009650Y008424D01*
X009650Y008582D02*
X010317Y008582D01*
X010317Y008741D02*
X009650Y008741D01*
X009650Y008899D02*
X010317Y008899D01*
X010317Y009058D02*
X009650Y009058D01*
X009650Y009216D02*
X010317Y009216D01*
X010376Y009375D02*
X009650Y009375D01*
X009650Y009533D02*
X010535Y009533D01*
X010693Y009692D02*
X009650Y009692D01*
X009650Y009850D02*
X010852Y009850D01*
X011010Y010009D02*
X009650Y010009D01*
X009650Y010167D02*
X011169Y010167D01*
X011327Y010326D02*
X009650Y010326D01*
X009650Y010484D02*
X011486Y010484D01*
X011644Y010643D02*
X009650Y010643D01*
X009650Y010801D02*
X011803Y010801D01*
X011961Y010960D02*
X009650Y010960D01*
X009650Y011118D02*
X012120Y011118D01*
X012278Y011277D02*
X009650Y011277D01*
X009650Y011435D02*
X012437Y011435D01*
X012595Y011594D02*
X009650Y011594D01*
X009650Y011752D02*
X012754Y011752D01*
X012912Y011911D02*
X009650Y011911D01*
X009650Y012069D02*
X013071Y012069D01*
X013229Y012228D02*
X009650Y012228D01*
X009650Y012386D02*
X013388Y012386D01*
X013546Y012545D02*
X009650Y012545D01*
X009650Y012703D02*
X013705Y012703D01*
X013863Y012862D02*
X009650Y012862D01*
X009650Y013020D02*
X014022Y013020D01*
X014180Y013179D02*
X009565Y013179D01*
X009407Y013337D02*
X014339Y013337D01*
X014497Y013496D02*
X009248Y013496D01*
X009164Y013654D02*
X014656Y013654D01*
X014814Y013813D02*
X009059Y013813D01*
X009218Y013971D02*
X014973Y013971D01*
X015131Y014130D02*
X009376Y014130D01*
X009535Y014288D02*
X015290Y014288D01*
X015448Y014447D02*
X009805Y014447D01*
X009886Y014605D02*
X015607Y014605D01*
X015765Y014764D02*
X009854Y014764D01*
X009854Y014922D02*
X015924Y014922D01*
X016082Y015081D02*
X010012Y015081D01*
X010171Y015239D02*
X016241Y015239D01*
X016399Y015398D02*
X010329Y015398D01*
X010488Y015556D02*
X016558Y015556D01*
X016716Y015715D02*
X010646Y015715D01*
X010805Y015873D02*
X016875Y015873D01*
X017033Y016032D02*
X010963Y016032D01*
X011122Y016190D02*
X017192Y016190D01*
X017350Y016349D02*
X011280Y016349D01*
X011439Y016507D02*
X017509Y016507D01*
X017667Y016666D02*
X011597Y016666D01*
X011756Y016824D02*
X017826Y016824D01*
X017984Y016983D02*
X011914Y016983D01*
X012073Y017141D02*
X018143Y017141D01*
X018301Y017300D02*
X012231Y017300D01*
X012390Y017458D02*
X018460Y017458D01*
X018618Y017617D02*
X012548Y017617D01*
X012707Y017775D02*
X018777Y017775D01*
X018935Y017934D02*
X012865Y017934D01*
X013024Y018092D02*
X019094Y018092D01*
X019252Y018251D02*
X013182Y018251D01*
X013341Y018409D02*
X019411Y018409D01*
X019569Y018568D02*
X013499Y018568D01*
X013658Y018726D02*
X019728Y018726D01*
X019886Y018885D02*
X013816Y018885D01*
X013975Y019043D02*
X020045Y019043D01*
X020203Y019202D02*
X014219Y019202D01*
X014363Y019360D02*
X020362Y019360D01*
X020520Y019519D02*
X014362Y019519D01*
X014211Y019677D02*
X020679Y019677D01*
X020837Y019836D02*
X007134Y019836D01*
X007134Y019994D02*
X020996Y019994D01*
X021154Y020153D02*
X006985Y020153D01*
X006868Y020270D02*
X006492Y020270D01*
X006226Y020004D01*
X006226Y019628D01*
X006492Y019362D01*
X006868Y019362D01*
X007134Y019628D01*
X007134Y020004D01*
X006868Y020270D01*
X006868Y020362D02*
X007134Y020628D01*
X021630Y020628D01*
X021471Y020470D02*
X006976Y020470D01*
X006868Y020362D02*
X006492Y020362D01*
X006226Y020628D01*
X006134Y020628D01*
X005868Y020362D01*
X005492Y020362D01*
X005226Y020628D01*
X003484Y020628D01*
X003517Y020709D02*
X003517Y020923D01*
X003436Y021120D01*
X003284Y021271D01*
X003087Y021353D01*
X002273Y021353D01*
X002076Y021271D01*
X001924Y021120D01*
X001843Y020923D01*
X001843Y020709D01*
X001915Y020534D01*
X000450Y019069D01*
X000449Y019069D01*
X000400Y019019D01*
X000351Y018970D01*
X000351Y018969D01*
X000350Y018968D01*
X000324Y018904D01*
X000297Y018839D01*
X000297Y018838D01*
X000296Y018837D01*
X000297Y018767D01*
X000297Y018698D01*
X000297Y018697D01*
X000305Y017419D01*
X000304Y017351D01*
X000305Y017348D01*
X000305Y017345D01*
X000331Y017283D01*
X000357Y017220D01*
X000359Y017218D01*
X000360Y017215D01*
X000408Y017167D01*
X001848Y015694D01*
X001924Y015511D01*
X002076Y015360D01*
X002273Y015278D01*
X003087Y015278D01*
X003284Y015360D01*
X003436Y015511D01*
X003517Y015709D01*
X003517Y015923D01*
X003436Y016120D01*
X003284Y016271D01*
X003087Y016353D01*
X002273Y016353D01*
X002220Y016331D01*
X001015Y017564D01*
X001009Y018622D01*
X002665Y020278D01*
X003087Y020278D01*
X003284Y020360D01*
X003436Y020511D01*
X003517Y020709D01*
X003517Y020787D02*
X005226Y020787D01*
X005226Y020945D02*
X003508Y020945D01*
X003442Y021104D02*
X005326Y021104D01*
X005226Y021004D02*
X005492Y021270D01*
X005868Y021270D01*
X006134Y021004D01*
X006134Y020628D01*
X006226Y020628D02*
X006226Y021004D01*
X006492Y021270D01*
X006868Y021270D01*
X007134Y021004D01*
X007134Y020628D01*
X007134Y020787D02*
X021788Y020787D01*
X021947Y020945D02*
X007134Y020945D01*
X007034Y021104D02*
X022105Y021104D01*
X022264Y021262D02*
X006876Y021262D01*
X006868Y021362D02*
X006492Y021362D01*
X006226Y021628D01*
X006226Y022004D01*
X006492Y022270D01*
X006868Y022270D01*
X007134Y022004D01*
X007134Y021628D01*
X006868Y021362D01*
X006927Y021421D02*
X022422Y021421D01*
X022274Y021579D02*
X007086Y021579D01*
X007134Y021738D02*
X022226Y021738D01*
X022226Y021896D02*
X007134Y021896D01*
X007083Y022055D02*
X022277Y022055D01*
X022435Y022213D02*
X006925Y022213D01*
X006435Y022213D02*
X005925Y022213D01*
X005868Y022270D02*
X006134Y022004D01*
X006134Y021628D01*
X005868Y021362D01*
X005492Y021362D01*
X005226Y021628D01*
X005226Y022004D01*
X005492Y022270D01*
X005868Y022270D01*
X006083Y022055D02*
X006277Y022055D01*
X006226Y021896D02*
X006134Y021896D01*
X006134Y021738D02*
X006226Y021738D01*
X006274Y021579D02*
X006086Y021579D01*
X005927Y021421D02*
X006433Y021421D01*
X006484Y021262D02*
X005876Y021262D01*
X006034Y021104D02*
X006326Y021104D01*
X006226Y020945D02*
X006134Y020945D01*
X006134Y020787D02*
X006226Y020787D01*
X006384Y020470D02*
X005976Y020470D01*
X005868Y020270D02*
X006134Y020004D01*
X006134Y019628D01*
X005868Y019362D01*
X005492Y019362D01*
X005226Y019628D01*
X005226Y020004D01*
X005492Y020270D01*
X005868Y020270D01*
X005985Y020153D02*
X006375Y020153D01*
X006226Y019994D02*
X006134Y019994D01*
X006134Y019836D02*
X006226Y019836D01*
X006226Y019677D02*
X006134Y019677D01*
X006025Y019519D02*
X006335Y019519D01*
X006492Y019270D02*
X006226Y019004D01*
X006226Y018628D01*
X006492Y018362D01*
X006868Y018362D01*
X007134Y018628D01*
X007134Y019004D01*
X006868Y019270D01*
X006492Y019270D01*
X006424Y019202D02*
X005936Y019202D01*
X005868Y019270D02*
X006134Y019004D01*
X006134Y018628D01*
X005868Y018362D01*
X005498Y018362D01*
X005122Y017986D01*
X005122Y017497D01*
X005157Y017462D01*
X005274Y017579D01*
X005226Y017628D01*
X005226Y018004D01*
X005492Y018270D01*
X005868Y018270D01*
X006134Y018004D01*
X006134Y017628D01*
X005868Y017362D01*
X005561Y017362D01*
X005201Y017002D01*
X005201Y016647D01*
X001781Y013227D01*
X001917Y013171D01*
X001923Y013165D01*
X004752Y015994D01*
X005226Y015994D01*
X005226Y016004D01*
X005492Y016270D01*
X005868Y016270D01*
X006134Y016004D01*
X006134Y015628D01*
X005868Y015362D01*
X005492Y015362D01*
X005226Y015628D01*
X005226Y015637D01*
X004900Y015637D01*
X002099Y012837D01*
X002099Y012732D01*
X002035Y012578D01*
X001917Y012460D01*
X001763Y012397D01*
X001597Y012397D01*
X001443Y012460D01*
X001325Y012578D01*
X001268Y012715D01*
X001264Y012710D01*
X001264Y012543D01*
X001579Y012228D01*
X001580Y012228D01*
X001579Y012228D02*
X001597Y012235D01*
X001763Y012235D01*
X001917Y012171D01*
X002035Y012053D01*
X002099Y011899D01*
X002099Y011732D01*
X002035Y011578D01*
X001917Y011460D01*
X001763Y011397D01*
X001597Y011397D01*
X001443Y011460D01*
X001325Y011578D01*
X001261Y011732D01*
X001261Y011899D01*
X001303Y012000D01*
X000907Y012395D01*
X000907Y012858D01*
X001012Y012963D01*
X004844Y016795D01*
X004844Y017075D01*
X004798Y017094D01*
X004726Y017166D01*
X004687Y017261D01*
X004687Y017363D01*
X004726Y017457D01*
X004765Y017497D01*
X004765Y018134D01*
X005243Y018611D01*
X005226Y018628D01*
X005226Y019004D01*
X005492Y019270D01*
X005868Y019270D01*
X006095Y019043D02*
X006265Y019043D01*
X006226Y018885D02*
X006134Y018885D01*
X006134Y018726D02*
X006226Y018726D01*
X006286Y018568D02*
X006074Y018568D01*
X005916Y018409D02*
X006444Y018409D01*
X006492Y018270D02*
X006226Y018004D01*
X006226Y017628D01*
X006492Y017362D01*
X006868Y017362D01*
X007134Y017628D01*
X007134Y018004D01*
X006868Y018270D01*
X006492Y018270D01*
X006473Y018251D02*
X005887Y018251D01*
X006046Y018092D02*
X006314Y018092D01*
X006226Y017934D02*
X006134Y017934D01*
X006134Y017775D02*
X006226Y017775D01*
X006237Y017617D02*
X006123Y017617D01*
X005965Y017458D02*
X006395Y017458D01*
X006492Y017270D02*
X006226Y017004D01*
X006226Y016628D01*
X006492Y016362D01*
X006868Y016362D01*
X007134Y016628D01*
X007134Y017004D01*
X006868Y017270D01*
X006492Y017270D01*
X006363Y017141D02*
X005997Y017141D01*
X005868Y017270D02*
X006134Y017004D01*
X006134Y016628D01*
X005868Y016362D01*
X005492Y016362D01*
X005226Y016628D01*
X005226Y017004D01*
X005492Y017270D01*
X005868Y017270D01*
X005499Y017300D02*
X011727Y017300D01*
X011885Y017458D02*
X006965Y017458D01*
X007123Y017617D02*
X012044Y017617D01*
X012202Y017775D02*
X007134Y017775D01*
X007134Y017934D02*
X012361Y017934D01*
X012519Y018092D02*
X007046Y018092D01*
X006887Y018251D02*
X012678Y018251D01*
X012836Y018409D02*
X006916Y018409D01*
X007074Y018568D02*
X012995Y018568D01*
X013153Y018726D02*
X007134Y018726D01*
X007134Y018885D02*
X013312Y018885D01*
X013470Y019043D02*
X007095Y019043D01*
X006936Y019202D02*
X013629Y019202D01*
X013787Y019360D02*
X001747Y019360D01*
X001589Y019202D02*
X002095Y019202D01*
X002067Y019182D02*
X002014Y019128D01*
X001969Y019067D01*
X001935Y019000D01*
X001912Y018928D01*
X001900Y018853D01*
X001900Y018836D01*
X002660Y018836D01*
X002660Y019296D01*
X002342Y019296D01*
X002268Y019284D01*
X002196Y019260D01*
X002128Y019226D01*
X002067Y019182D01*
X001957Y019043D02*
X001430Y019043D01*
X001272Y018885D02*
X001905Y018885D01*
X001900Y018796D02*
X001900Y018778D01*
X001912Y018703D01*
X001935Y018631D01*
X001969Y018564D01*
X002014Y018503D01*
X002067Y018449D01*
X002128Y018405D01*
X002196Y018371D01*
X002268Y018347D01*
X002342Y018336D01*
X002660Y018336D01*
X002660Y018796D01*
X001900Y018796D01*
X001908Y018726D02*
X001113Y018726D01*
X001009Y018568D02*
X001968Y018568D01*
X002123Y018409D02*
X001010Y018409D01*
X001011Y018251D02*
X002283Y018251D01*
X002293Y018255D02*
X002131Y018188D01*
X002008Y018064D01*
X001941Y017903D01*
X001941Y017728D01*
X002008Y017567D01*
X002131Y017443D01*
X002293Y017377D01*
X003067Y017377D01*
X003229Y017443D01*
X003352Y017567D01*
X003419Y017728D01*
X003419Y017903D01*
X003352Y018064D01*
X003229Y018188D01*
X003067Y018255D01*
X002293Y018255D01*
X002036Y018092D02*
X001012Y018092D01*
X001013Y017934D02*
X001954Y017934D01*
X001941Y017775D02*
X001014Y017775D01*
X001015Y017617D02*
X001987Y017617D01*
X002117Y017458D02*
X001118Y017458D01*
X001273Y017300D02*
X004687Y017300D01*
X004727Y017458D02*
X003243Y017458D01*
X003373Y017617D02*
X004765Y017617D01*
X004765Y017775D02*
X003419Y017775D01*
X003406Y017934D02*
X004765Y017934D01*
X004765Y018092D02*
X003324Y018092D01*
X003077Y018251D02*
X004882Y018251D01*
X005041Y018409D02*
X003237Y018409D01*
X003232Y018405D02*
X003293Y018449D01*
X003346Y018503D01*
X003391Y018564D01*
X003425Y018631D01*
X003448Y018703D01*
X003460Y018778D01*
X003460Y018796D01*
X002700Y018796D01*
X002700Y018836D01*
X002660Y018836D01*
X002660Y018796D01*
X002700Y018796D01*
X002700Y018336D01*
X003018Y018336D01*
X003092Y018347D01*
X003164Y018371D01*
X003232Y018405D01*
X003392Y018568D02*
X005199Y018568D01*
X005226Y018726D02*
X003452Y018726D01*
X003460Y018836D02*
X003460Y018853D01*
X003448Y018928D01*
X003425Y019000D01*
X003391Y019067D01*
X003346Y019128D01*
X003293Y019182D01*
X003232Y019226D01*
X003164Y019260D01*
X003092Y019284D01*
X003018Y019296D01*
X002700Y019296D01*
X002700Y018836D01*
X003460Y018836D01*
X003455Y018885D02*
X005226Y018885D01*
X005265Y019043D02*
X003403Y019043D01*
X003265Y019202D02*
X005424Y019202D01*
X005335Y019519D02*
X001906Y019519D01*
X002064Y019677D02*
X005226Y019677D01*
X005226Y019836D02*
X002223Y019836D01*
X002381Y019994D02*
X005226Y019994D01*
X005375Y020153D02*
X002540Y020153D01*
X003167Y020311D02*
X021313Y020311D01*
X022049Y019519D02*
X022335Y019519D01*
X022226Y019677D02*
X022207Y019677D01*
X021890Y019360D02*
X022960Y019360D01*
X023025Y019519D02*
X023119Y019519D01*
X023134Y019677D02*
X023226Y019677D01*
X023226Y019836D02*
X023134Y019836D01*
X023134Y019994D02*
X023226Y019994D01*
X023307Y019202D02*
X023424Y019202D01*
X023265Y019043D02*
X023148Y019043D01*
X023134Y018885D02*
X023226Y018885D01*
X023226Y018726D02*
X023134Y018726D01*
X023074Y018568D02*
X023286Y018568D01*
X023444Y018409D02*
X022916Y018409D01*
X022887Y018251D02*
X023473Y018251D01*
X023314Y018092D02*
X023046Y018092D01*
X023134Y017934D02*
X023226Y017934D01*
X023226Y017775D02*
X023134Y017775D01*
X023123Y017617D02*
X023225Y017617D01*
X023066Y017458D02*
X022965Y017458D01*
X023254Y017141D02*
X023363Y017141D01*
X023412Y017300D02*
X026644Y017300D01*
X026445Y017141D02*
X023997Y017141D01*
X024134Y016983D02*
X026367Y016983D01*
X026237Y016824D02*
X024134Y016824D01*
X024134Y016666D02*
X024282Y016666D01*
X024123Y016507D02*
X024014Y016507D01*
X023965Y016349D02*
X023446Y016349D01*
X023412Y016190D02*
X023287Y016190D01*
X023254Y016032D02*
X023106Y016032D01*
X023134Y015873D02*
X023226Y015873D01*
X023226Y015715D02*
X023134Y015715D01*
X023063Y015556D02*
X023297Y015556D01*
X023456Y015398D02*
X022904Y015398D01*
X022899Y015239D02*
X023461Y015239D01*
X023492Y015270D02*
X023226Y015004D01*
X023226Y014628D01*
X023492Y014362D01*
X023868Y014362D01*
X024134Y014628D01*
X024134Y015004D01*
X023868Y015270D01*
X023492Y015270D01*
X023303Y015081D02*
X023057Y015081D01*
X023134Y014922D02*
X023226Y014922D01*
X023226Y014764D02*
X023134Y014764D01*
X023112Y014605D02*
X023248Y014605D01*
X023407Y014447D02*
X022953Y014447D01*
X022492Y014362D02*
X022487Y014366D01*
X021933Y013813D01*
X021933Y013654D02*
X022185Y013654D01*
X022300Y013496D02*
X021933Y013496D01*
X021576Y013496D02*
X016026Y013496D01*
X016184Y013654D02*
X021576Y013654D01*
X021576Y013813D02*
X019427Y013813D01*
X019562Y013971D02*
X020340Y013971D01*
X020207Y014130D02*
X019652Y014130D01*
X019810Y014288D02*
X020213Y014288D01*
X020376Y014447D02*
X019969Y014447D01*
X020127Y014605D02*
X020607Y014605D01*
X020765Y014764D02*
X020286Y014764D01*
X020444Y014922D02*
X020924Y014922D01*
X021082Y015081D02*
X020603Y015081D01*
X020761Y015239D02*
X021241Y015239D01*
X021399Y015398D02*
X020920Y015398D01*
X021078Y015556D02*
X021558Y015556D01*
X021716Y015715D02*
X021237Y015715D01*
X021395Y015873D02*
X021875Y015873D01*
X022033Y016032D02*
X021554Y016032D01*
X021712Y016190D02*
X022192Y016190D01*
X022350Y016349D02*
X021871Y016349D01*
X022029Y016507D02*
X022346Y016507D01*
X022226Y016666D02*
X022188Y016666D01*
X022000Y016983D02*
X019513Y016983D01*
X019671Y017141D02*
X022159Y017141D01*
X022317Y017300D02*
X019830Y017300D01*
X019988Y017458D02*
X022395Y017458D01*
X022237Y017617D02*
X020147Y017617D01*
X020305Y017775D02*
X022226Y017775D01*
X022226Y017934D02*
X020464Y017934D01*
X020622Y018092D02*
X022314Y018092D01*
X022473Y018251D02*
X020781Y018251D01*
X020939Y018409D02*
X022444Y018409D01*
X022286Y018568D02*
X021098Y018568D01*
X021256Y018726D02*
X022226Y018726D01*
X022226Y018885D02*
X021415Y018885D01*
X021573Y019043D02*
X022265Y019043D01*
X022424Y019202D02*
X021732Y019202D01*
X021842Y016824D02*
X019354Y016824D01*
X019196Y016666D02*
X021683Y016666D01*
X021525Y016507D02*
X019037Y016507D01*
X018879Y016349D02*
X021366Y016349D01*
X021208Y016190D02*
X018720Y016190D01*
X018562Y016032D02*
X021049Y016032D01*
X020891Y015873D02*
X018403Y015873D01*
X018245Y015715D02*
X020732Y015715D01*
X020574Y015556D02*
X018086Y015556D01*
X017928Y015398D02*
X020415Y015398D01*
X020257Y015239D02*
X017769Y015239D01*
X017611Y015081D02*
X020098Y015081D01*
X019940Y014922D02*
X017452Y014922D01*
X017294Y014764D02*
X019781Y014764D01*
X019623Y014605D02*
X017135Y014605D01*
X016977Y014447D02*
X019464Y014447D01*
X019231Y014288D02*
X016818Y014288D01*
X016660Y014130D02*
X019071Y014130D01*
X019066Y013971D02*
X016501Y013971D01*
X016343Y013813D02*
X019200Y013813D01*
X020572Y013971D02*
X021587Y013971D01*
X021746Y014130D02*
X020704Y014130D01*
X020795Y014288D02*
X021904Y014288D01*
X022063Y014447D02*
X020953Y014447D01*
X021112Y014605D02*
X022221Y014605D01*
X022226Y014764D02*
X021270Y014764D01*
X021429Y014922D02*
X022226Y014922D01*
X022303Y015081D02*
X021587Y015081D01*
X021746Y015239D02*
X022461Y015239D01*
X022456Y015398D02*
X021904Y015398D01*
X022063Y015556D02*
X022297Y015556D01*
X022226Y015715D02*
X022221Y015715D01*
X023014Y016507D02*
X023100Y016507D01*
X023134Y016666D02*
X023226Y016666D01*
X023226Y016824D02*
X023134Y016824D01*
X023134Y016983D02*
X023226Y016983D01*
X024152Y016032D02*
X025523Y016032D01*
X025682Y016190D02*
X024311Y016190D01*
X024469Y016349D02*
X025740Y016349D01*
X025365Y015873D02*
X024134Y015873D01*
X024134Y015715D02*
X025206Y015715D01*
X025048Y015556D02*
X024063Y015556D01*
X023904Y015398D02*
X024889Y015398D01*
X024731Y015239D02*
X023899Y015239D01*
X024057Y015081D02*
X024572Y015081D01*
X024509Y014922D02*
X024134Y014922D01*
X024134Y014764D02*
X024470Y014764D01*
X024470Y014605D02*
X024112Y014605D01*
X023953Y014447D02*
X024470Y014447D01*
X025181Y014130D02*
X025314Y014130D01*
X025419Y014922D02*
X026449Y014922D01*
X026524Y015081D02*
X025578Y015081D01*
X025736Y015239D02*
X026755Y015239D01*
X026742Y015398D02*
X025895Y015398D01*
X026053Y015556D02*
X026519Y015556D01*
X026447Y015715D02*
X026212Y015715D01*
X026370Y015873D02*
X026441Y015873D01*
X026492Y016032D02*
X026494Y016032D01*
X026609Y016190D02*
X026637Y016190D01*
X027160Y014288D02*
X027200Y014288D01*
X027200Y014130D02*
X027160Y014130D01*
X027160Y013971D02*
X027200Y013971D01*
X027200Y013654D02*
X027160Y013654D01*
X027160Y013496D02*
X027200Y013496D01*
X027200Y013337D02*
X027160Y013337D01*
X026833Y013337D02*
X026612Y013337D01*
X026521Y013496D02*
X026453Y013496D01*
X026428Y013654D02*
X026295Y013654D01*
X026770Y013179D02*
X028966Y013179D01*
X028966Y013337D02*
X027527Y013337D01*
X027839Y013496D02*
X028966Y013496D01*
X028966Y013654D02*
X027932Y013654D01*
X027087Y012862D02*
X028966Y012862D01*
X028966Y013020D02*
X026929Y013020D01*
X027246Y012703D02*
X028966Y012703D01*
X028966Y012545D02*
X027404Y012545D01*
X027563Y012386D02*
X028966Y012386D01*
X028966Y012228D02*
X027721Y012228D01*
X027880Y012069D02*
X028966Y012069D01*
X028966Y011911D02*
X028038Y011911D01*
X028197Y011752D02*
X028966Y011752D01*
X028966Y011594D02*
X028355Y011594D01*
X028514Y011435D02*
X028966Y011435D01*
X028966Y011277D02*
X028672Y011277D01*
X028831Y011118D02*
X028966Y011118D01*
X023032Y011752D02*
X021895Y011752D01*
X022053Y011911D02*
X022873Y011911D01*
X022715Y012069D02*
X022212Y012069D01*
X022370Y012228D02*
X022556Y012228D01*
X021576Y013179D02*
X015709Y013179D01*
X015867Y013337D02*
X021576Y013337D01*
X022092Y013971D02*
X022185Y013971D01*
X022250Y014130D02*
X022294Y014130D01*
X022409Y014288D02*
X022452Y014288D01*
X027189Y018568D02*
X028966Y018568D01*
X028966Y018726D02*
X027203Y018726D01*
X027290Y020470D02*
X026927Y020470D01*
X027056Y020628D02*
X027400Y020628D01*
X027680Y020856D02*
X027680Y021316D01*
X027680Y020856D01*
X027680Y020945D02*
X027680Y020945D01*
X027680Y021104D02*
X027680Y021104D01*
X027680Y021262D02*
X027680Y021262D01*
X027680Y021316D02*
X027680Y021316D01*
X027680Y021421D02*
X027680Y021421D01*
X027680Y021579D02*
X027680Y021579D01*
X027680Y021738D02*
X027680Y021738D01*
X027865Y021738D02*
X028966Y021738D01*
X028966Y021896D02*
X027197Y021896D01*
X027197Y021738D02*
X027495Y021738D01*
X027303Y021579D02*
X027142Y021579D01*
X027141Y022055D02*
X028966Y022055D01*
X028966Y022213D02*
X027014Y022213D01*
X028057Y021579D02*
X028966Y021579D01*
X028966Y021421D02*
X028129Y021421D01*
X028137Y021262D02*
X028966Y021262D01*
X028966Y021104D02*
X028088Y021104D01*
X028966Y022372D02*
X000264Y022372D01*
X000264Y022530D02*
X002045Y022530D01*
X002008Y022567D02*
X002131Y022443D01*
X002293Y022377D01*
X003067Y022377D01*
X003229Y022443D01*
X003352Y022567D01*
X003419Y022728D01*
X003419Y022903D01*
X003352Y023064D01*
X003229Y023188D01*
X003067Y023255D01*
X002293Y023255D01*
X002131Y023188D01*
X002008Y023064D01*
X001941Y022903D01*
X001941Y022728D01*
X002008Y022567D01*
X001957Y022689D02*
X000264Y022689D01*
X000264Y022847D02*
X001941Y022847D01*
X001983Y023006D02*
X000264Y023006D01*
X000264Y023164D02*
X002108Y023164D01*
X002196Y023371D02*
X002268Y023347D01*
X002342Y023336D01*
X002660Y023336D01*
X002660Y023796D01*
X001900Y023796D01*
X001900Y023778D01*
X001912Y023703D01*
X001935Y023631D01*
X001969Y023564D01*
X002014Y023503D01*
X002067Y023449D01*
X002128Y023405D01*
X002196Y023371D01*
X002036Y023481D02*
X000264Y023481D01*
X000264Y023323D02*
X028966Y023323D01*
X028966Y023481D02*
X003324Y023481D01*
X003346Y023503D02*
X003293Y023449D01*
X003232Y023405D01*
X003164Y023371D01*
X003092Y023347D01*
X003018Y023336D01*
X002700Y023336D01*
X002700Y023796D01*
X002700Y023836D01*
X002660Y023836D01*
X002660Y024296D01*
X002342Y024296D01*
X002268Y024284D01*
X002196Y024260D01*
X002128Y024226D01*
X002067Y024182D01*
X002014Y024128D01*
X001969Y024067D01*
X001935Y024000D01*
X001912Y023928D01*
X001900Y023853D01*
X001900Y023836D01*
X002660Y023836D01*
X002660Y023796D01*
X002700Y023796D01*
X003460Y023796D01*
X003460Y023778D01*
X003448Y023703D01*
X003425Y023631D01*
X003391Y023564D01*
X003346Y023503D01*
X003428Y023640D02*
X028966Y023640D01*
X028966Y023798D02*
X002700Y023798D01*
X002700Y023836D02*
X003460Y023836D01*
X003460Y023853D01*
X003448Y023928D01*
X003425Y024000D01*
X003391Y024067D01*
X003346Y024128D01*
X003293Y024182D01*
X003232Y024226D01*
X003164Y024260D01*
X003092Y024284D01*
X003018Y024296D01*
X002700Y024296D01*
X002700Y023836D01*
X002660Y023798D02*
X000264Y023798D01*
X000264Y023640D02*
X001932Y023640D01*
X001921Y023957D02*
X000264Y023957D01*
X000264Y024115D02*
X002004Y024115D01*
X002236Y024274D02*
X000264Y024274D01*
X000264Y024432D02*
X028966Y024432D01*
X028966Y024274D02*
X003124Y024274D01*
X003356Y024115D02*
X028966Y024115D01*
X028966Y023957D02*
X003439Y023957D01*
X002700Y023957D02*
X002660Y023957D01*
X002660Y024115D02*
X002700Y024115D01*
X002700Y024274D02*
X002660Y024274D01*
X002660Y023640D02*
X002700Y023640D01*
X002700Y023481D02*
X002660Y023481D01*
X003252Y023164D02*
X028966Y023164D01*
X028966Y023006D02*
X003377Y023006D01*
X003419Y022847D02*
X028966Y022847D01*
X028966Y022689D02*
X003403Y022689D01*
X003315Y022530D02*
X028966Y022530D01*
X028966Y024591D02*
X000264Y024591D01*
X000264Y024749D02*
X028966Y024749D01*
X028966Y024908D02*
X000264Y024908D01*
X000264Y025066D02*
X028966Y025066D01*
X028966Y025225D02*
X000264Y025225D01*
X000264Y025383D02*
X028966Y025383D01*
X028966Y025542D02*
X000264Y025542D01*
X000264Y025700D02*
X028966Y025700D01*
X028966Y025859D02*
X000264Y025859D01*
X000264Y026017D02*
X028966Y026017D01*
X028966Y026176D02*
X000264Y026176D01*
X000264Y026334D02*
X028966Y026334D01*
X028966Y026493D02*
X000264Y026493D01*
X000264Y026651D02*
X028966Y026651D01*
X014023Y019677D02*
X007134Y019677D01*
X007025Y019519D02*
X013872Y019519D01*
X011568Y017141D02*
X006997Y017141D01*
X007134Y016983D02*
X011410Y016983D01*
X011251Y016824D02*
X007134Y016824D01*
X007134Y016666D02*
X011093Y016666D01*
X010934Y016507D02*
X007014Y016507D01*
X006868Y016270D02*
X006492Y016270D01*
X006226Y016004D01*
X006226Y015628D01*
X006492Y015362D01*
X006868Y015362D01*
X007134Y015628D01*
X007134Y016004D01*
X006868Y016270D01*
X006948Y016190D02*
X010617Y016190D01*
X010459Y016032D02*
X007106Y016032D01*
X007134Y015873D02*
X010300Y015873D01*
X010142Y015715D02*
X007134Y015715D01*
X007063Y015556D02*
X009983Y015556D01*
X009825Y015398D02*
X006904Y015398D01*
X006868Y015270D02*
X006492Y015270D01*
X006226Y015004D01*
X006226Y014628D01*
X006492Y014362D01*
X006868Y014362D01*
X007134Y014628D01*
X007134Y015004D01*
X006868Y015270D01*
X006899Y015239D02*
X009666Y015239D01*
X009508Y015081D02*
X007057Y015081D01*
X007134Y014922D02*
X009349Y014922D01*
X009191Y014764D02*
X007134Y014764D01*
X007112Y014605D02*
X009032Y014605D01*
X008874Y014447D02*
X006953Y014447D01*
X006868Y014270D02*
X006492Y014270D01*
X006226Y014004D01*
X006226Y013628D01*
X006492Y013362D01*
X006868Y013362D01*
X007134Y013628D01*
X007134Y014004D01*
X006868Y014270D01*
X007008Y014130D02*
X008557Y014130D01*
X008715Y014288D02*
X003551Y014288D01*
X003709Y014447D02*
X005407Y014447D01*
X005492Y014362D02*
X005868Y014362D01*
X006134Y014628D01*
X006134Y015004D01*
X005868Y015270D01*
X005492Y015270D01*
X005226Y015004D01*
X005226Y014628D01*
X005492Y014362D01*
X005352Y014130D02*
X003392Y014130D01*
X003234Y013971D02*
X005226Y013971D01*
X005226Y013813D02*
X003075Y013813D01*
X002917Y013654D02*
X005226Y013654D01*
X005127Y013496D02*
X002758Y013496D01*
X002600Y013337D02*
X004969Y013337D01*
X004810Y013179D02*
X002441Y013179D01*
X002283Y013020D02*
X004805Y013020D01*
X004805Y012862D02*
X002124Y012862D01*
X002087Y012703D02*
X002521Y012703D01*
X002321Y012545D02*
X002002Y012545D01*
X002261Y012386D02*
X001421Y012386D01*
X001358Y012545D02*
X001264Y012545D01*
X001264Y012703D02*
X001273Y012703D01*
X000907Y012703D02*
X000264Y012703D01*
X000264Y012545D02*
X000907Y012545D01*
X000916Y012386D02*
X000264Y012386D01*
X000264Y012228D02*
X001075Y012228D01*
X001233Y012069D02*
X000264Y012069D01*
X000264Y011911D02*
X001266Y011911D01*
X001261Y011752D02*
X000264Y011752D01*
X000264Y011594D02*
X001318Y011594D01*
X001504Y011435D02*
X000264Y011435D01*
X000264Y011277D02*
X002220Y011277D01*
X002220Y011279D02*
X002231Y011208D01*
X002254Y011139D01*
X002287Y011075D01*
X002329Y011016D01*
X002380Y010965D01*
X002439Y010922D01*
X002503Y010889D01*
X002572Y010867D01*
X002644Y010856D01*
X002680Y010856D01*
X002716Y010856D01*
X002788Y010867D01*
X002857Y010889D01*
X002921Y010922D01*
X002980Y010965D01*
X003031Y011016D01*
X003073Y011075D01*
X003106Y011139D01*
X003129Y011208D01*
X003140Y011279D01*
X003140Y011316D01*
X003140Y011352D01*
X003129Y011423D01*
X003106Y011492D01*
X003073Y011557D01*
X003031Y011615D01*
X002980Y011666D01*
X002921Y011709D01*
X002857Y011742D01*
X002788Y011764D01*
X002716Y011776D01*
X002680Y011776D01*
X002644Y011776D01*
X002572Y011764D01*
X002503Y011742D01*
X002439Y011709D01*
X002380Y011666D01*
X002329Y011615D01*
X002287Y011557D01*
X002254Y011492D01*
X002231Y011423D01*
X002220Y011352D01*
X002220Y011316D01*
X002680Y011316D01*
X002680Y011776D01*
X002680Y011316D01*
X002680Y011316D01*
X002680Y011316D01*
X003140Y011316D01*
X002680Y011316D01*
X002680Y011316D01*
X002220Y011316D01*
X002220Y011279D01*
X002235Y011435D02*
X001856Y011435D01*
X002042Y011594D02*
X002313Y011594D01*
X002099Y011752D02*
X002535Y011752D01*
X002680Y011752D02*
X002680Y011752D01*
X002825Y011752D02*
X004897Y011752D01*
X004778Y011594D02*
X003047Y011594D01*
X003125Y011435D02*
X004746Y011435D01*
X004786Y011277D02*
X003140Y011277D01*
X003096Y011118D02*
X004962Y011118D01*
X005346Y010801D02*
X002183Y010801D01*
X002203Y010753D02*
X002145Y010893D01*
X002039Y010999D01*
X001899Y011057D01*
X001748Y011057D01*
X001609Y010999D01*
X001502Y010893D01*
X001444Y010753D01*
X001444Y010602D01*
X001502Y010463D01*
X001609Y010356D01*
X001748Y010299D01*
X001899Y010299D01*
X002039Y010356D01*
X002145Y010463D01*
X002203Y010602D01*
X002203Y010753D01*
X002203Y010643D02*
X005188Y010643D01*
X005029Y010484D02*
X002154Y010484D01*
X001964Y010326D02*
X004871Y010326D01*
X004712Y010167D02*
X000264Y010167D01*
X000264Y010009D02*
X004554Y010009D01*
X004395Y009850D02*
X000264Y009850D01*
X000264Y009692D02*
X004237Y009692D01*
X004078Y009533D02*
X000264Y009533D01*
X000264Y009375D02*
X003920Y009375D01*
X003798Y008741D02*
X002806Y008741D01*
X003006Y008582D02*
X003639Y008582D01*
X003481Y008424D02*
X003089Y008424D01*
X003099Y008265D02*
X003322Y008265D01*
X003164Y008107D02*
X003047Y008107D01*
X003005Y007948D02*
X002888Y007948D01*
X002847Y007790D02*
X002099Y007790D01*
X002079Y007948D02*
X002472Y007948D01*
X002313Y008107D02*
X002172Y008107D01*
X001985Y008424D02*
X001829Y008424D01*
X001826Y008265D02*
X000264Y008265D01*
X000264Y008107D02*
X001378Y008107D01*
X001281Y007948D02*
X000264Y007948D01*
X000264Y007790D02*
X001261Y007790D01*
X001303Y007631D02*
X000264Y007631D01*
X000264Y007473D02*
X001430Y007473D01*
X001503Y007242D02*
X001439Y007209D01*
X001380Y007166D01*
X001329Y007115D01*
X001287Y007057D01*
X001254Y006992D01*
X001231Y006923D01*
X001220Y006852D01*
X001220Y006816D01*
X001680Y006816D01*
X001680Y007276D01*
X001644Y007276D01*
X001572Y007264D01*
X001503Y007242D01*
X001369Y007156D02*
X000264Y007156D01*
X000264Y007314D02*
X002261Y007314D01*
X002293Y007156D02*
X001991Y007156D01*
X001980Y007166D02*
X001921Y007209D01*
X001857Y007242D01*
X001788Y007264D01*
X001716Y007276D01*
X001680Y007276D01*
X001680Y006816D01*
X001680Y006816D01*
X001680Y006816D01*
X002140Y006816D01*
X002140Y006852D01*
X002129Y006923D01*
X002106Y006992D01*
X002073Y007057D01*
X002031Y007115D01*
X001980Y007166D01*
X002104Y006997D02*
X002406Y006997D01*
X002577Y006833D02*
X002387Y006754D01*
X002241Y006609D01*
X002163Y006419D01*
X002163Y006213D01*
X002241Y006022D01*
X002387Y005877D01*
X002577Y005798D01*
X002783Y005798D01*
X002973Y005877D01*
X003119Y006022D01*
X003192Y006198D01*
X007135Y010142D01*
X008277Y011283D01*
X008331Y011414D01*
X008331Y011556D01*
X008277Y011686D01*
X008177Y011786D01*
X008046Y011840D01*
X007905Y011840D01*
X007774Y011786D01*
X006799Y010812D01*
X006786Y010817D01*
X006645Y010817D01*
X006514Y010763D01*
X006414Y010663D01*
X006360Y010532D01*
X006360Y010391D01*
X006365Y010378D01*
X002810Y006822D01*
X002783Y006833D01*
X002577Y006833D01*
X002826Y006839D02*
X002140Y006839D01*
X002140Y006816D02*
X001680Y006816D01*
X001680Y006816D01*
X001220Y006816D01*
X001220Y006779D01*
X001231Y006708D01*
X001254Y006639D01*
X001287Y006575D01*
X001329Y006516D01*
X001380Y006465D01*
X001439Y006422D01*
X001503Y006389D01*
X001572Y006367D01*
X001644Y006356D01*
X001680Y006356D01*
X001716Y006356D01*
X001788Y006367D01*
X001857Y006389D01*
X001921Y006422D01*
X001980Y006465D01*
X002031Y006516D01*
X002073Y006575D01*
X002106Y006639D01*
X002129Y006708D01*
X002140Y006779D01*
X002140Y006816D01*
X002120Y006680D02*
X002313Y006680D01*
X002205Y006522D02*
X002035Y006522D01*
X002163Y006363D02*
X001764Y006363D01*
X001680Y006363D02*
X001680Y006363D01*
X001680Y006356D02*
X001680Y006816D01*
X001680Y006816D01*
X001680Y006356D01*
X001596Y006363D02*
X000264Y006363D01*
X000264Y006205D02*
X002166Y006205D01*
X002232Y006046D02*
X001925Y006046D01*
X001899Y006057D02*
X001748Y006057D01*
X001609Y005999D01*
X001502Y005893D01*
X001444Y005753D01*
X001444Y005602D01*
X001502Y005463D01*
X001609Y005356D01*
X001748Y005299D01*
X001899Y005299D01*
X002039Y005356D01*
X002145Y005463D01*
X002203Y005602D01*
X002203Y005753D01*
X002145Y005893D01*
X002039Y005999D01*
X001899Y006057D01*
X001722Y006046D02*
X000264Y006046D01*
X000264Y005888D02*
X001500Y005888D01*
X001444Y005729D02*
X000264Y005729D01*
X000264Y005571D02*
X001458Y005571D01*
X001553Y005412D02*
X000264Y005412D01*
X000264Y005254D02*
X009052Y005254D01*
X009052Y005412D02*
X002094Y005412D01*
X002190Y005571D02*
X009052Y005571D01*
X009052Y005729D02*
X002203Y005729D01*
X002147Y005888D02*
X002376Y005888D01*
X002984Y005888D02*
X009055Y005888D01*
X009123Y006046D02*
X003128Y006046D01*
X003198Y006205D02*
X009293Y006205D01*
X009293Y006363D02*
X003356Y006363D01*
X003515Y006522D02*
X009293Y006522D01*
X009293Y006680D02*
X003673Y006680D01*
X003832Y006839D02*
X009293Y006839D01*
X009293Y006997D02*
X003990Y006997D01*
X004149Y007156D02*
X009293Y007156D01*
X009293Y007314D02*
X004307Y007314D01*
X004466Y007473D02*
X009293Y007473D01*
X009293Y007631D02*
X004624Y007631D01*
X004783Y007790D02*
X009293Y007790D01*
X009293Y007948D02*
X004941Y007948D01*
X005100Y008107D02*
X009293Y008107D01*
X009293Y008265D02*
X005258Y008265D01*
X005417Y008424D02*
X009293Y008424D01*
X009293Y008582D02*
X005575Y008582D01*
X005734Y008741D02*
X009293Y008741D01*
X009293Y008899D02*
X005892Y008899D01*
X006051Y009058D02*
X009293Y009058D01*
X009293Y009216D02*
X006209Y009216D01*
X006368Y009375D02*
X009293Y009375D01*
X009293Y009533D02*
X006526Y009533D01*
X006685Y009692D02*
X009293Y009692D01*
X009293Y009850D02*
X006843Y009850D01*
X007002Y010009D02*
X009293Y010009D01*
X009293Y010167D02*
X007160Y010167D01*
X007319Y010326D02*
X009293Y010326D01*
X009293Y010484D02*
X007477Y010484D01*
X007636Y010643D02*
X009293Y010643D01*
X009293Y010801D02*
X007794Y010801D01*
X007953Y010960D02*
X009293Y010960D01*
X009293Y011118D02*
X008111Y011118D01*
X008270Y011277D02*
X009293Y011277D01*
X009293Y011435D02*
X008331Y011435D01*
X008315Y011594D02*
X009293Y011594D01*
X009293Y011752D02*
X008211Y011752D01*
X007740Y011752D02*
X007314Y011752D01*
X007155Y011594D02*
X007581Y011594D01*
X007423Y011435D02*
X006997Y011435D01*
X006838Y011277D02*
X007264Y011277D01*
X007106Y011118D02*
X006680Y011118D01*
X006521Y010960D02*
X006947Y010960D01*
X006607Y010801D02*
X006363Y010801D01*
X006406Y010643D02*
X006204Y010643D01*
X006360Y010484D02*
X006046Y010484D01*
X005887Y010326D02*
X006313Y010326D01*
X006155Y010167D02*
X005729Y010167D01*
X005570Y010009D02*
X005996Y010009D01*
X005838Y009850D02*
X005412Y009850D01*
X005253Y009692D02*
X005679Y009692D01*
X005521Y009533D02*
X005095Y009533D01*
X004936Y009375D02*
X005362Y009375D01*
X005204Y009216D02*
X004778Y009216D01*
X004619Y009058D02*
X005045Y009058D01*
X004887Y008899D02*
X004461Y008899D01*
X004302Y008741D02*
X004728Y008741D01*
X004570Y008582D02*
X004144Y008582D01*
X003985Y008424D02*
X004411Y008424D01*
X004253Y008265D02*
X003827Y008265D01*
X003668Y008107D02*
X004094Y008107D01*
X003936Y007948D02*
X003510Y007948D01*
X003351Y007790D02*
X003777Y007790D01*
X003619Y007631D02*
X003193Y007631D01*
X003069Y007473D02*
X003460Y007473D01*
X003302Y007314D02*
X003099Y007314D01*
X003067Y007156D02*
X003143Y007156D01*
X002985Y006997D02*
X002954Y006997D01*
X002291Y007473D02*
X001930Y007473D01*
X002057Y007631D02*
X002403Y007631D01*
X001680Y007156D02*
X001680Y007156D01*
X001680Y006997D02*
X001680Y006997D01*
X001680Y006839D02*
X001680Y006839D01*
X001680Y006680D02*
X001680Y006680D01*
X001680Y006522D02*
X001680Y006522D01*
X001325Y006522D02*
X000264Y006522D01*
X000264Y006680D02*
X001240Y006680D01*
X001220Y006839D02*
X000264Y006839D01*
X000264Y006997D02*
X001256Y006997D01*
X001531Y008424D02*
X000264Y008424D01*
X000264Y008582D02*
X001323Y008582D01*
X001261Y008741D02*
X000264Y008741D01*
X000264Y008899D02*
X001261Y008899D01*
X001329Y009058D02*
X000264Y009058D01*
X000264Y009216D02*
X001552Y009216D01*
X001808Y009216D02*
X002541Y009216D01*
X002382Y009058D02*
X002031Y009058D01*
X002037Y008582D02*
X002143Y008582D01*
X001683Y010326D02*
X000264Y010326D01*
X000264Y010484D02*
X001493Y010484D01*
X001444Y010643D02*
X000264Y010643D01*
X000264Y010801D02*
X001464Y010801D01*
X001569Y010960D02*
X000264Y010960D01*
X000264Y011118D02*
X002264Y011118D01*
X002387Y010960D02*
X002078Y010960D01*
X002680Y010960D02*
X002680Y010960D01*
X002680Y010856D02*
X002680Y011316D01*
X002680Y011316D01*
X002680Y010856D01*
X002680Y011118D02*
X002680Y011118D01*
X002680Y011277D02*
X002680Y011277D01*
X002680Y011435D02*
X002680Y011435D01*
X002680Y011594D02*
X002680Y011594D01*
X002563Y011911D02*
X002094Y011911D01*
X002019Y012069D02*
X002334Y012069D01*
X002263Y012228D02*
X001780Y012228D01*
X001899Y013179D02*
X001936Y013179D01*
X001891Y013337D02*
X002095Y013337D01*
X002049Y013496D02*
X002253Y013496D01*
X002208Y013654D02*
X002412Y013654D01*
X002366Y013813D02*
X002570Y013813D01*
X002525Y013971D02*
X002729Y013971D01*
X002683Y014130D02*
X002887Y014130D01*
X002842Y014288D02*
X003046Y014288D01*
X003000Y014447D02*
X003204Y014447D01*
X003159Y014605D02*
X003363Y014605D01*
X003317Y014764D02*
X003521Y014764D01*
X003476Y014922D02*
X003680Y014922D01*
X003634Y015081D02*
X003838Y015081D01*
X003793Y015239D02*
X003997Y015239D01*
X003951Y015398D02*
X004155Y015398D01*
X004110Y015556D02*
X004314Y015556D01*
X004268Y015715D02*
X004472Y015715D01*
X004427Y015873D02*
X004631Y015873D01*
X004585Y016032D02*
X005254Y016032D01*
X005412Y016190D02*
X004744Y016190D01*
X004902Y016349D02*
X010776Y016349D01*
X008398Y013971D02*
X007134Y013971D01*
X007134Y013813D02*
X008240Y013813D01*
X008081Y013654D02*
X007134Y013654D01*
X007002Y013496D02*
X007923Y013496D01*
X007764Y013337D02*
X005474Y013337D01*
X005475Y013311D02*
X005185Y013021D01*
X005185Y012826D01*
X005670Y012826D01*
X005670Y013311D01*
X005475Y013311D01*
X005343Y013179D02*
X005315Y013179D01*
X005185Y013020D02*
X005162Y013020D01*
X005162Y012862D02*
X005185Y012862D01*
X005185Y012806D02*
X005185Y012611D01*
X005475Y012321D01*
X005670Y012321D01*
X005670Y012806D01*
X005185Y012806D01*
X005185Y012703D02*
X005162Y012703D01*
X005214Y012545D02*
X005251Y012545D01*
X005240Y012386D02*
X005409Y012386D01*
X005670Y012386D02*
X005690Y012386D01*
X005690Y012321D02*
X005885Y012321D01*
X006175Y012611D01*
X006175Y012806D01*
X005690Y012806D01*
X005690Y012826D01*
X005670Y012826D01*
X005670Y012806D01*
X005690Y012806D01*
X005690Y012321D01*
X005670Y012545D02*
X005690Y012545D01*
X005690Y012703D02*
X005670Y012703D01*
X005690Y012826D02*
X006175Y012826D01*
X006175Y013021D01*
X005885Y013311D01*
X005690Y013311D01*
X005690Y012826D01*
X005690Y012862D02*
X005670Y012862D01*
X005670Y013020D02*
X005690Y013020D01*
X005690Y013179D02*
X005670Y013179D01*
X006017Y013179D02*
X006401Y013179D01*
X006492Y013270D02*
X006226Y013004D01*
X006226Y012628D01*
X006492Y012362D01*
X006868Y012362D01*
X007134Y012628D01*
X007134Y013004D01*
X006868Y013270D01*
X006492Y013270D01*
X006358Y013496D02*
X006002Y013496D01*
X006134Y013654D02*
X006226Y013654D01*
X006226Y013813D02*
X006134Y013813D01*
X006134Y013971D02*
X006226Y013971D01*
X006352Y014130D02*
X006008Y014130D01*
X005953Y014447D02*
X006407Y014447D01*
X006248Y014605D02*
X006112Y014605D01*
X006134Y014764D02*
X006226Y014764D01*
X006226Y014922D02*
X006134Y014922D01*
X006057Y015081D02*
X006303Y015081D01*
X006461Y015239D02*
X005899Y015239D01*
X005904Y015398D02*
X006456Y015398D01*
X006297Y015556D02*
X006063Y015556D01*
X006134Y015715D02*
X006226Y015715D01*
X006226Y015873D02*
X006134Y015873D01*
X006106Y016032D02*
X006254Y016032D01*
X006412Y016190D02*
X005948Y016190D01*
X006014Y016507D02*
X006346Y016507D01*
X006226Y016666D02*
X006134Y016666D01*
X006134Y016824D02*
X006226Y016824D01*
X006226Y016983D02*
X006134Y016983D01*
X005363Y017141D02*
X005341Y017141D01*
X005226Y016983D02*
X005201Y016983D01*
X005201Y016824D02*
X005226Y016824D01*
X005226Y016666D02*
X005201Y016666D01*
X005061Y016507D02*
X005346Y016507D01*
X004844Y016824D02*
X003419Y016824D01*
X003419Y016903D02*
X003352Y017064D01*
X003229Y017188D01*
X003067Y017255D01*
X002293Y017255D01*
X002131Y017188D01*
X002008Y017064D01*
X001941Y016903D01*
X001941Y016728D01*
X002008Y016567D01*
X002131Y016443D01*
X002293Y016377D01*
X003067Y016377D01*
X003229Y016443D01*
X003352Y016567D01*
X003419Y016728D01*
X003419Y016903D01*
X003386Y016983D02*
X004844Y016983D01*
X004751Y017141D02*
X003275Y017141D01*
X003393Y016666D02*
X004715Y016666D01*
X004556Y016507D02*
X003292Y016507D01*
X003098Y016349D02*
X004398Y016349D01*
X004239Y016190D02*
X003366Y016190D01*
X003472Y016032D02*
X004081Y016032D01*
X003922Y015873D02*
X003517Y015873D01*
X003517Y015715D02*
X003764Y015715D01*
X003605Y015556D02*
X003454Y015556D01*
X003447Y015398D02*
X003322Y015398D01*
X003288Y015239D02*
X000264Y015239D01*
X000264Y015081D02*
X003130Y015081D01*
X002971Y014922D02*
X000264Y014922D01*
X000264Y014764D02*
X002813Y014764D01*
X002654Y014605D02*
X000264Y014605D01*
X000264Y014447D02*
X002496Y014447D01*
X002337Y014288D02*
X000264Y014288D01*
X000264Y014130D02*
X002179Y014130D01*
X002020Y013971D02*
X000264Y013971D01*
X000264Y013813D02*
X001862Y013813D01*
X001703Y013654D02*
X000264Y013654D01*
X000264Y013496D02*
X001545Y013496D01*
X001386Y013337D02*
X000264Y013337D01*
X000264Y013179D02*
X001228Y013179D01*
X001069Y013020D02*
X000264Y013020D01*
X000264Y012862D02*
X000911Y012862D01*
X002839Y012703D02*
X004805Y012703D01*
X004752Y012545D02*
X003039Y012545D01*
X003026Y012069D02*
X004580Y012069D01*
X004738Y011911D02*
X002797Y011911D01*
X002973Y010960D02*
X005505Y010960D01*
X005084Y012069D02*
X006614Y012069D01*
X006773Y012228D02*
X005145Y012228D01*
X005951Y012386D02*
X006467Y012386D01*
X006309Y012545D02*
X006109Y012545D01*
X006175Y012703D02*
X006226Y012703D01*
X006226Y012862D02*
X006175Y012862D01*
X006175Y013020D02*
X006242Y013020D01*
X006959Y013179D02*
X007606Y013179D01*
X007447Y013020D02*
X007118Y013020D01*
X007134Y012862D02*
X007289Y012862D01*
X007167Y012703D02*
X007134Y012703D01*
X007090Y012545D02*
X007051Y012545D01*
X006931Y012386D02*
X006893Y012386D01*
X007517Y012228D02*
X009293Y012228D01*
X009293Y012386D02*
X007633Y012386D01*
X007791Y012545D02*
X009293Y012545D01*
X009293Y012703D02*
X007950Y012703D01*
X008108Y012862D02*
X009293Y012862D01*
X009219Y013020D02*
X008267Y013020D01*
X008425Y013179D02*
X009061Y013179D01*
X008814Y013337D02*
X008584Y013337D01*
X009293Y012069D02*
X007603Y012069D01*
X007572Y011911D02*
X009293Y011911D01*
X005461Y015239D02*
X004502Y015239D01*
X004660Y015398D02*
X005456Y015398D01*
X005297Y015556D02*
X004819Y015556D01*
X004343Y015081D02*
X005303Y015081D01*
X005226Y014922D02*
X004185Y014922D01*
X004026Y014764D02*
X005226Y014764D01*
X005248Y014605D02*
X003868Y014605D01*
X002262Y016349D02*
X002203Y016349D01*
X002068Y016507D02*
X002048Y016507D01*
X001967Y016666D02*
X001893Y016666D01*
X001941Y016824D02*
X001738Y016824D01*
X001583Y016983D02*
X001974Y016983D01*
X002085Y017141D02*
X001428Y017141D01*
X000899Y016666D02*
X000264Y016666D01*
X000264Y016824D02*
X000744Y016824D01*
X000589Y016983D02*
X000264Y016983D01*
X000264Y017141D02*
X000434Y017141D01*
X000324Y017300D02*
X000264Y017300D01*
X000264Y017458D02*
X000304Y017458D01*
X000304Y017617D02*
X000264Y017617D01*
X000264Y017775D02*
X000303Y017775D01*
X000302Y017934D02*
X000264Y017934D01*
X000264Y018092D02*
X000301Y018092D01*
X000300Y018251D02*
X000264Y018251D01*
X000264Y018409D02*
X000299Y018409D01*
X000298Y018568D02*
X000264Y018568D01*
X000264Y018726D02*
X000297Y018726D01*
X000316Y018885D02*
X000264Y018885D01*
X000264Y019043D02*
X000424Y019043D01*
X000583Y019202D02*
X000264Y019202D01*
X000264Y019360D02*
X000741Y019360D01*
X000900Y019519D02*
X000264Y019519D01*
X000264Y019677D02*
X001058Y019677D01*
X001217Y019836D02*
X000264Y019836D01*
X000264Y019994D02*
X001375Y019994D01*
X001534Y020153D02*
X000264Y020153D01*
X000264Y020311D02*
X001692Y020311D01*
X001851Y020470D02*
X000264Y020470D01*
X000264Y020628D02*
X001876Y020628D01*
X001843Y020787D02*
X000264Y020787D01*
X000264Y020945D02*
X001852Y020945D01*
X001918Y021104D02*
X000264Y021104D01*
X000264Y021262D02*
X002066Y021262D01*
X002131Y021443D02*
X002008Y021567D01*
X001941Y021728D01*
X001941Y021903D01*
X002008Y022064D01*
X002131Y022188D01*
X002293Y022255D01*
X003067Y022255D01*
X003229Y022188D01*
X003352Y022064D01*
X003419Y021903D01*
X003419Y021728D01*
X003352Y021567D01*
X003229Y021443D01*
X003067Y021377D01*
X002293Y021377D01*
X002131Y021443D01*
X002186Y021421D02*
X000264Y021421D01*
X000264Y021579D02*
X002003Y021579D01*
X001941Y021738D02*
X000264Y021738D01*
X000264Y021896D02*
X001941Y021896D01*
X002004Y022055D02*
X000264Y022055D01*
X000264Y022213D02*
X002192Y022213D01*
X003168Y022213D02*
X005435Y022213D01*
X005277Y022055D02*
X003356Y022055D01*
X003419Y021896D02*
X005226Y021896D01*
X005226Y021738D02*
X003419Y021738D01*
X003357Y021579D02*
X005274Y021579D01*
X005433Y021421D02*
X003174Y021421D01*
X003294Y021262D02*
X005484Y021262D01*
X005226Y021004D02*
X005226Y020628D01*
X005384Y020470D02*
X003394Y020470D01*
X002700Y019202D02*
X002660Y019202D01*
X002660Y019043D02*
X002700Y019043D01*
X002700Y018885D02*
X002660Y018885D01*
X002660Y018726D02*
X002700Y018726D01*
X002700Y018568D02*
X002660Y018568D01*
X002660Y018409D02*
X002700Y018409D01*
X001054Y016507D02*
X000264Y016507D01*
X000264Y016349D02*
X001209Y016349D01*
X001364Y016190D02*
X000264Y016190D01*
X000264Y016032D02*
X001519Y016032D01*
X001674Y015873D02*
X000264Y015873D01*
X000264Y015715D02*
X001829Y015715D01*
X001906Y015556D02*
X000264Y015556D01*
X000264Y015398D02*
X002038Y015398D01*
X005122Y017617D02*
X005237Y017617D01*
X005226Y017775D02*
X005122Y017775D01*
X005122Y017934D02*
X005226Y017934D01*
X005229Y018092D02*
X005314Y018092D01*
X005387Y018251D02*
X005473Y018251D01*
X017298Y007156D02*
X021265Y007156D01*
X021106Y007314D02*
X017457Y007314D01*
X017615Y007473D02*
X017865Y007473D01*
X018085Y007473D02*
X020948Y007473D01*
X021423Y006997D02*
X017140Y006997D01*
X016981Y006839D02*
X021582Y006839D01*
X021740Y006680D02*
X016823Y006680D01*
X016664Y006522D02*
X019635Y006522D01*
X019647Y006552D02*
X019608Y006457D01*
X019608Y006355D01*
X019647Y006260D01*
X019719Y006188D01*
X019761Y006171D01*
X019736Y006161D01*
X019621Y006046D01*
X016189Y006046D01*
X016030Y005888D02*
X019558Y005888D01*
X019558Y005895D02*
X019558Y005193D01*
X019621Y005042D01*
X019736Y004927D01*
X019886Y004865D01*
X020049Y004865D01*
X020199Y004927D01*
X020314Y005042D01*
X020376Y005193D01*
X020376Y005895D01*
X020314Y006046D01*
X020621Y006046D01*
X020558Y005895D01*
X020558Y005193D01*
X020621Y005042D01*
X020736Y004927D01*
X020886Y004865D01*
X021049Y004865D01*
X021199Y004927D01*
X021314Y005042D01*
X021376Y005193D01*
X021376Y005895D01*
X021314Y006046D01*
X021429Y006046D01*
X021314Y006046D02*
X021199Y006161D01*
X021049Y006223D01*
X020886Y006223D01*
X020736Y006161D01*
X020621Y006046D01*
X020558Y005888D02*
X020376Y005888D01*
X020376Y005729D02*
X020558Y005729D01*
X020558Y005571D02*
X020376Y005571D01*
X020376Y005412D02*
X020558Y005412D01*
X020558Y005254D02*
X020376Y005254D01*
X020336Y005095D02*
X020599Y005095D01*
X020726Y004937D02*
X020209Y004937D01*
X019726Y004937D02*
X014967Y004937D01*
X015029Y005095D02*
X019599Y005095D01*
X019558Y005254D02*
X015396Y005254D01*
X015555Y005412D02*
X019558Y005412D01*
X019558Y005571D02*
X015713Y005571D01*
X015872Y005729D02*
X019558Y005729D01*
X019558Y005895D02*
X019621Y006046D01*
X019703Y006205D02*
X016347Y006205D01*
X016506Y006363D02*
X019608Y006363D01*
X019647Y006552D02*
X019719Y006624D01*
X019814Y006663D01*
X019916Y006663D01*
X020011Y006624D01*
X020050Y006585D01*
X021396Y006585D01*
X021795Y006185D01*
X021886Y006223D01*
X022049Y006223D01*
X022199Y006161D01*
X022314Y006046D01*
X022374Y006046D01*
X022314Y006046D02*
X022376Y005895D01*
X022376Y005193D01*
X022314Y005042D01*
X022199Y004927D01*
X022049Y004865D01*
X021886Y004865D01*
X021736Y004927D01*
X021621Y005042D01*
X021558Y005193D01*
X021558Y005895D01*
X021565Y005911D01*
X021248Y006228D01*
X020050Y006228D01*
X020046Y006223D01*
X020049Y006223D01*
X020199Y006161D01*
X020314Y006046D01*
X020093Y006205D02*
X020842Y006205D01*
X021093Y006205D02*
X021271Y006205D01*
X021376Y005888D02*
X021558Y005888D01*
X021558Y005729D02*
X021376Y005729D01*
X021376Y005571D02*
X021558Y005571D01*
X021558Y005412D02*
X021376Y005412D01*
X021376Y005254D02*
X021558Y005254D01*
X021599Y005095D02*
X021336Y005095D01*
X021209Y004937D02*
X021726Y004937D01*
X022209Y004937D02*
X026500Y004937D01*
X026318Y005095D02*
X022336Y005095D01*
X022376Y005254D02*
X023167Y005254D01*
X023008Y005412D02*
X022376Y005412D01*
X022376Y005571D02*
X022850Y005571D01*
X022691Y005729D02*
X022376Y005729D01*
X022376Y005888D02*
X022533Y005888D01*
X022216Y006205D02*
X022093Y006205D01*
X022057Y006363D02*
X021617Y006363D01*
X021776Y006205D02*
X021842Y006205D01*
X021899Y006522D02*
X021459Y006522D01*
X023354Y005571D02*
X026342Y005571D01*
X026860Y004937D02*
X027277Y004937D01*
X027261Y004778D02*
X014836Y004778D01*
X014146Y004778D02*
X013734Y004778D01*
X013511Y004778D02*
X013471Y004778D01*
X013471Y004937D02*
X013511Y004937D01*
X013511Y005095D02*
X013471Y005095D01*
X013471Y005254D02*
X013511Y005254D01*
X013511Y005412D02*
X013471Y005412D01*
X013471Y005571D02*
X013511Y005571D01*
X013511Y005729D02*
X013471Y005729D01*
X013471Y005888D02*
X013511Y005888D01*
X013511Y006046D02*
X013471Y006046D01*
X013471Y006205D02*
X013511Y006205D01*
X013740Y006205D02*
X014143Y006205D01*
X014014Y006046D02*
X013900Y006046D01*
X014839Y006205D02*
X015342Y006205D01*
X015183Y006046D02*
X014968Y006046D01*
X014015Y004937D02*
X013898Y004937D01*
X010126Y004937D02*
X009856Y004937D01*
X009926Y005095D02*
X010056Y005095D01*
X010052Y005254D02*
X009930Y005254D01*
X009930Y005412D02*
X010052Y005412D01*
X010052Y005571D02*
X009930Y005571D01*
X009930Y005729D02*
X010052Y005729D01*
X010055Y005888D02*
X009927Y005888D01*
X009859Y006046D02*
X010123Y006046D01*
X009056Y005095D02*
X000264Y005095D01*
X000264Y004937D02*
X009126Y004937D01*
X026797Y003827D02*
X027261Y003827D01*
X027261Y003899D02*
X027261Y003732D01*
X027325Y003578D01*
X027443Y003460D01*
X027597Y003397D01*
X027763Y003397D01*
X027917Y003460D01*
X028035Y003578D01*
X028099Y003732D01*
X028099Y003899D01*
X028035Y004053D01*
X027917Y004171D01*
X027763Y004235D01*
X027597Y004235D01*
X027443Y004171D01*
X027325Y004053D01*
X027261Y003899D01*
X027297Y003986D02*
X026943Y003986D01*
X027147Y004144D02*
X027416Y004144D01*
X027305Y004303D02*
X028966Y004303D01*
X028966Y004461D02*
X027918Y004461D01*
X028052Y004620D02*
X028966Y004620D01*
X028966Y004778D02*
X028099Y004778D01*
X028083Y004937D02*
X028966Y004937D01*
X028966Y005095D02*
X027993Y005095D01*
X027367Y005095D02*
X027042Y005095D01*
X026969Y004620D02*
X027118Y004620D01*
X027944Y004144D02*
X028966Y004144D01*
X028966Y003986D02*
X028063Y003986D01*
X028099Y003827D02*
X028966Y003827D01*
X028966Y003669D02*
X028073Y003669D01*
X027967Y003510D02*
X028966Y003510D01*
X028966Y003352D02*
X027197Y003352D01*
X027189Y003193D02*
X027417Y003193D01*
X027275Y003035D02*
X027124Y003035D01*
X027224Y002876D02*
X026971Y002876D01*
X027137Y002401D02*
X027481Y002401D01*
X027680Y002401D02*
X027680Y002401D01*
X027680Y002356D02*
X027680Y002816D01*
X027680Y002816D01*
X027680Y002356D01*
X027680Y002559D02*
X027680Y002559D01*
X027680Y002718D02*
X027680Y002718D01*
X027680Y002876D02*
X027680Y002876D01*
X027680Y003035D02*
X027680Y003035D01*
X027680Y003193D02*
X027680Y003193D01*
X027943Y003193D02*
X028966Y003193D01*
X028966Y003035D02*
X028085Y003035D01*
X028136Y002876D02*
X028966Y002876D01*
X028966Y002718D02*
X028130Y002718D01*
X028062Y002559D02*
X028966Y002559D01*
X028966Y002401D02*
X027879Y002401D01*
X027203Y002242D02*
X028966Y002242D01*
X028966Y002084D02*
X027195Y002084D01*
X027107Y001925D02*
X028966Y001925D01*
X027393Y003510D02*
X027160Y003510D01*
X027059Y003669D02*
X027287Y003669D01*
D15*
X027660Y005816D02*
X027680Y005816D01*
X027660Y005816D02*
X027660Y006485D01*
X026912Y007233D01*
X026873Y007194D01*
X026204Y007194D01*
X026026Y007493D01*
X026046Y011446D01*
X026676Y010816D01*
X026680Y010816D01*
X026046Y011446D02*
X024786Y012705D01*
X024826Y012784D01*
X024826Y014713D01*
X024865Y014753D01*
X024865Y014871D01*
X026164Y016170D01*
X026164Y016249D01*
X026715Y016800D01*
X027149Y016800D01*
X027180Y016816D01*
X024786Y012705D02*
X024117Y012036D01*
X023251Y012036D01*
X022582Y012705D01*
X022660Y012784D01*
X022680Y012816D01*
X022503Y012627D01*
X022267Y012627D01*
X015180Y005540D01*
X014550Y005540D01*
X014511Y005501D01*
X014491Y005493D01*
X007975Y011485D02*
X006834Y010343D01*
X006715Y010461D01*
X006834Y010343D02*
X002818Y006327D01*
X002700Y006327D01*
X002680Y006316D01*
X005101Y011446D02*
X005731Y011446D01*
X002680Y015816D02*
X002227Y015816D01*
X000660Y017418D01*
X000652Y018768D01*
X002700Y020816D01*
X002680Y020816D01*
D16*
X004944Y017312D03*
X008920Y013572D03*
X009629Y014635D03*
X007345Y012036D03*
X007975Y011485D03*
X006715Y010461D03*
X005731Y011446D03*
X005101Y011446D03*
X004983Y012430D03*
X006282Y011800D03*
X014117Y019438D03*
X019314Y014044D03*
X020456Y014201D03*
X021755Y012705D03*
X025259Y014674D03*
X025928Y014123D03*
X025889Y016564D03*
X017975Y007705D03*
X019865Y006406D03*
D17*
X021322Y006406D01*
X022070Y005658D01*
X021991Y005579D01*
X021967Y005544D01*
X023330Y005343D02*
X020967Y007705D01*
X017975Y007705D01*
X023330Y005343D02*
X026676Y005343D01*
X026680Y005316D01*
X027463Y004713D02*
X027582Y004713D01*
X027660Y004792D01*
X027680Y004816D01*
X027463Y004713D02*
X027030Y004280D01*
X026715Y004280D01*
X026680Y004316D01*
X027680Y008316D02*
X027700Y008335D01*
X027700Y008453D01*
X028999Y009753D01*
X028999Y010698D01*
X025141Y014556D01*
X025259Y014674D01*
X025928Y014123D02*
X026597Y014792D01*
X027149Y014792D01*
X027180Y014816D01*
X025889Y016564D02*
X024432Y016564D01*
X023684Y015816D01*
X023680Y015816D01*
X023093Y016249D02*
X023645Y016800D01*
X023680Y016816D01*
X023093Y017233D02*
X023645Y017784D01*
X023680Y017816D01*
X023093Y017233D02*
X022503Y017233D01*
X019314Y014044D01*
X020456Y014201D02*
X022503Y016249D01*
X023093Y016249D01*
X022680Y014816D02*
X022660Y014792D01*
X021755Y013886D01*
X021755Y012705D01*
X022680Y018816D02*
X022700Y018847D01*
X023251Y019398D01*
X023881Y019398D01*
X025298Y020816D01*
X026680Y020816D01*
X023684Y020816D02*
X023680Y020816D01*
X023684Y020816D02*
X022975Y020107D01*
X022818Y020264D01*
X022542Y020264D01*
X011479Y009201D01*
X011479Y005501D01*
X011491Y005493D01*
X010495Y005501D02*
X010491Y005493D01*
X010495Y005501D02*
X010495Y009241D01*
X022503Y021249D01*
X023093Y021249D01*
X023645Y021800D01*
X023680Y021816D01*
X014117Y019438D02*
X007345Y012666D01*
X007345Y012548D01*
X003881Y009083D01*
X002660Y009083D01*
X002424Y008847D01*
X001715Y008847D01*
X001680Y008816D01*
X001715Y007902D02*
X002739Y008926D01*
X003920Y008926D01*
X009629Y014635D01*
X008920Y013572D02*
X009471Y013020D01*
X009471Y005501D01*
X009491Y005493D01*
X007345Y012036D02*
X002700Y007390D01*
X002700Y007351D01*
X002680Y007316D01*
X001715Y007823D02*
X001680Y007816D01*
X001715Y007823D02*
X001715Y007902D01*
X001680Y011816D02*
X001715Y011839D01*
X001086Y012469D01*
X001086Y012784D01*
X005023Y016721D01*
X005023Y017075D01*
X005652Y017705D01*
X005652Y017784D01*
X005680Y017816D01*
X004944Y018060D02*
X004944Y017312D01*
X004944Y018060D02*
X005692Y018808D01*
X005680Y018816D01*
X005680Y015816D02*
X004826Y015816D01*
X001912Y012902D01*
X001794Y012902D01*
X001715Y012823D01*
X001680Y012816D01*
X002680Y012316D02*
X002700Y012312D01*
X004589Y012312D01*
X005141Y011760D01*
X006243Y011760D01*
X006282Y011800D01*
X004983Y012430D02*
X004983Y013099D01*
X005692Y013808D01*
X005680Y013816D01*
M02*
