G75*
%MOIN*%
%OFA0B0*%
%FSLAX24Y24*%
%IPPOS*%
%LPD*%
%AMOC8*
5,1,8,0,0,1.08239X$1,22.5*
%
%ADD10C,0.0236*%
%ADD11C,0.0040*%
%ADD12C,0.0000*%
%ADD13C,0.0050*%
%ADD14C,0.0060*%
%ADD15C,0.0260*%
%ADD16R,0.0240X0.0200*%
%ADD17C,0.0300*%
%ADD18R,0.0300X0.0200*%
%ADD19R,0.0300X0.0400*%
D10*
X020495Y001371D02*
X020495Y003410D01*
X022424Y003410D02*
X022424Y001371D01*
X020495Y001371D01*
D11*
X025519Y002497D02*
X025595Y002420D01*
X025902Y002420D01*
X025979Y002497D01*
X025979Y002650D01*
X025902Y002727D01*
X025979Y002881D02*
X025672Y002881D01*
X025519Y003034D01*
X025672Y003188D01*
X025979Y003188D01*
X025979Y003341D02*
X025519Y003341D01*
X025979Y003648D01*
X025519Y003648D01*
X025749Y003188D02*
X025749Y002881D01*
X025595Y002727D02*
X025519Y002650D01*
X025519Y002497D01*
X025672Y007920D02*
X025519Y008074D01*
X025672Y008227D01*
X025979Y008227D01*
X025979Y008381D02*
X025979Y008611D01*
X025902Y008688D01*
X025595Y008688D01*
X025519Y008611D01*
X025519Y008381D01*
X025979Y008381D01*
X025749Y008227D02*
X025749Y007920D01*
X025672Y007920D02*
X025979Y007920D01*
X025902Y008841D02*
X025595Y008841D01*
X025519Y008918D01*
X025519Y009071D01*
X025595Y009148D01*
X025672Y009301D02*
X025519Y009455D01*
X025979Y009455D01*
X025979Y009608D02*
X025979Y009301D01*
X025902Y009148D02*
X025979Y009071D01*
X025979Y008918D01*
X025902Y008841D01*
X028016Y013817D02*
X027940Y013893D01*
X027940Y014047D01*
X028016Y014124D01*
X028093Y014124D01*
X028170Y014047D01*
X028247Y014124D01*
X028323Y014124D01*
X028400Y014047D01*
X028400Y013893D01*
X028323Y013817D01*
X028170Y013970D02*
X028170Y014047D01*
X028247Y014277D02*
X027940Y014277D01*
X028247Y014277D02*
X028400Y014430D01*
X028247Y014584D01*
X027940Y014584D01*
X028016Y014737D02*
X027940Y014814D01*
X027940Y014968D01*
X028016Y015044D01*
X028093Y015044D01*
X028170Y014968D01*
X028247Y015044D01*
X028323Y015044D01*
X028400Y014968D01*
X028400Y014814D01*
X028323Y014737D01*
X028170Y014891D02*
X028170Y014968D01*
X025979Y018920D02*
X025672Y018920D01*
X025519Y019074D01*
X025672Y019227D01*
X025979Y019227D01*
X025979Y019381D02*
X025979Y019611D01*
X025902Y019688D01*
X025595Y019688D01*
X025519Y019611D01*
X025519Y019381D01*
X025979Y019381D01*
X025749Y019227D02*
X025749Y018920D01*
X025595Y019841D02*
X025902Y019841D01*
X025979Y019918D01*
X025979Y020071D01*
X025902Y020148D01*
X025902Y020301D02*
X025595Y020301D01*
X025519Y020378D01*
X025519Y020532D01*
X025595Y020608D01*
X025902Y020301D01*
X025979Y020378D01*
X025979Y020532D01*
X025902Y020608D01*
X025595Y020608D01*
X025595Y020148D02*
X025519Y020071D01*
X025519Y019918D01*
X025595Y019841D01*
X000979Y013990D02*
X000825Y013836D01*
X000825Y013913D02*
X000825Y013683D01*
X000979Y013683D02*
X000519Y013683D01*
X000519Y013913D01*
X000595Y013990D01*
X000749Y013990D01*
X000825Y013913D01*
X000902Y013529D02*
X000519Y013529D01*
X000519Y013222D02*
X000902Y013222D01*
X000979Y013299D01*
X000979Y013452D01*
X000902Y013529D01*
X000979Y013069D02*
X000979Y012762D01*
X000519Y012762D01*
X000519Y013069D01*
X000749Y012915D02*
X000749Y012762D01*
X000979Y012608D02*
X000979Y012301D01*
X000519Y012301D01*
X000519Y012148D02*
X000902Y012148D01*
X000979Y012071D01*
X000979Y011918D01*
X000902Y011841D01*
X000519Y011841D01*
X000595Y011688D02*
X000519Y011611D01*
X000519Y011457D01*
X000595Y011381D01*
X000902Y011381D01*
X000979Y011457D01*
X000979Y011611D01*
X000902Y011688D01*
X000595Y011688D01*
X000595Y011227D02*
X000519Y011150D01*
X000519Y010997D01*
X000595Y010920D01*
X000902Y010920D01*
X000979Y010997D01*
X000979Y011150D01*
X000902Y011227D01*
X000902Y008990D02*
X000595Y008990D01*
X000519Y008913D01*
X000519Y008683D01*
X000979Y008683D01*
X000979Y008913D01*
X000902Y008990D01*
X000979Y008529D02*
X000519Y008529D01*
X000519Y008222D02*
X000979Y008529D01*
X000979Y008222D02*
X000519Y008222D01*
X000672Y008069D02*
X000519Y007915D01*
X000672Y007762D01*
X000979Y007762D01*
X000979Y007608D02*
X000519Y007608D01*
X000672Y007455D01*
X000519Y007301D01*
X000979Y007301D01*
X000979Y007148D02*
X000519Y007148D01*
X000672Y006995D01*
X000519Y006841D01*
X000979Y006841D01*
X000902Y006688D02*
X000595Y006688D01*
X000519Y006611D01*
X000519Y006457D01*
X000595Y006381D01*
X000902Y006381D01*
X000979Y006457D01*
X000979Y006611D01*
X000902Y006688D01*
X000902Y006227D02*
X000979Y006150D01*
X000979Y005997D01*
X000902Y005920D01*
X000595Y005920D01*
X000519Y005997D01*
X000519Y006150D01*
X000595Y006227D01*
X000749Y007762D02*
X000749Y008069D01*
X000672Y008069D02*
X000979Y008069D01*
D12*
X004680Y000816D02*
X004680Y026816D01*
X024680Y026816D01*
X024680Y000816D01*
X004680Y000816D01*
D13*
X003164Y005703D02*
X002771Y005703D01*
X002771Y005900D01*
X001589Y005900D01*
X001589Y005703D01*
X001196Y005703D01*
X001196Y009428D01*
X001589Y009428D01*
X001589Y009231D01*
X002771Y009231D01*
X002771Y009428D01*
X003164Y009428D01*
X003164Y005703D01*
X003164Y010703D02*
X002771Y010703D01*
X002771Y010900D01*
X001589Y010900D01*
X001589Y010703D01*
X001196Y010703D01*
X001196Y013428D01*
X001589Y013428D01*
X001589Y013231D01*
X002771Y013231D01*
X002771Y013428D01*
X003164Y013428D01*
X003164Y010703D01*
X005180Y012316D02*
X005180Y013216D01*
X005280Y013316D01*
X005180Y013416D01*
X005180Y014216D01*
X005280Y014316D01*
X005180Y014416D01*
X005180Y015216D01*
X005280Y015316D01*
X005180Y015416D01*
X005180Y016216D01*
X005280Y016316D01*
X005180Y016416D01*
X005180Y017216D01*
X005280Y017316D01*
X005180Y017416D01*
X005180Y018216D01*
X005280Y018316D01*
X005180Y018416D01*
X005180Y019216D01*
X005280Y019316D01*
X005180Y019416D01*
X005180Y020216D01*
X005280Y020316D01*
X005180Y020416D01*
X005180Y021216D01*
X005280Y021316D01*
X005180Y021416D01*
X005180Y022316D01*
X006180Y022316D01*
X007180Y022316D01*
X007180Y021416D01*
X007080Y021316D01*
X007180Y021216D01*
X007180Y020416D01*
X007080Y020316D01*
X007180Y020216D01*
X007180Y019416D01*
X007080Y019316D01*
X007180Y019216D01*
X007180Y018416D01*
X007080Y018316D01*
X007180Y018216D01*
X007180Y017416D01*
X007080Y017316D01*
X007180Y017216D01*
X007180Y016416D01*
X007080Y016316D01*
X007180Y016216D01*
X007180Y015416D01*
X007080Y015316D01*
X007180Y015216D01*
X007180Y014416D01*
X007080Y014316D01*
X007180Y014216D01*
X007180Y013416D01*
X007080Y013316D01*
X007180Y013216D01*
X007180Y012316D01*
X006180Y012316D01*
X006180Y013216D01*
X006280Y013316D01*
X006180Y013416D01*
X006180Y014216D01*
X006280Y014316D01*
X006180Y014416D01*
X006180Y015216D01*
X006280Y015316D01*
X006180Y015416D01*
X006180Y016216D01*
X006280Y016316D01*
X006180Y016416D01*
X006180Y017216D01*
X006280Y017316D01*
X006180Y017416D01*
X006180Y018216D01*
X006280Y018316D01*
X006180Y018416D01*
X006180Y019216D01*
X006280Y019316D01*
X006180Y019416D01*
X006180Y020216D01*
X006280Y020316D01*
X006180Y020416D01*
X006180Y021216D01*
X006280Y021316D01*
X006180Y021416D01*
X006180Y022316D01*
X006180Y021416D02*
X006080Y021316D01*
X006180Y021216D01*
X006180Y020416D02*
X006080Y020316D01*
X006180Y020216D01*
X006180Y019416D02*
X006080Y019316D01*
X006180Y019216D01*
X006180Y018416D02*
X006080Y018316D01*
X006180Y018216D01*
X006180Y017416D02*
X006080Y017316D01*
X006180Y017216D01*
X006180Y016416D02*
X006080Y016316D01*
X006180Y016216D01*
X006180Y015416D02*
X006080Y015316D01*
X006180Y015216D01*
X006180Y014416D02*
X006080Y014316D01*
X006180Y014216D01*
X006180Y013416D02*
X006080Y013316D01*
X006180Y013216D01*
X006180Y012316D02*
X005180Y012316D01*
X002905Y014891D02*
X002905Y015191D01*
X002905Y015041D02*
X002455Y015041D01*
X002605Y014891D01*
X002005Y015416D02*
X002005Y015566D01*
X001930Y015641D01*
X001630Y015641D01*
X001555Y015566D01*
X001555Y015416D01*
X001630Y015341D01*
X001930Y015341D01*
X002005Y015416D01*
X002005Y015801D02*
X001555Y015801D01*
X001555Y016026D01*
X001630Y016101D01*
X001930Y016101D01*
X002005Y016026D01*
X002005Y015801D01*
X001930Y016261D02*
X001630Y016261D01*
X001555Y016336D01*
X001555Y016487D01*
X001630Y016562D01*
X001930Y016562D01*
X002005Y016487D01*
X002005Y016336D01*
X001930Y016261D01*
X002080Y016722D02*
X002080Y017022D01*
X001930Y017182D02*
X002005Y017257D01*
X002005Y017407D01*
X001930Y017482D01*
X001780Y017482D01*
X001780Y017332D01*
X001630Y017182D02*
X001930Y017182D01*
X001630Y017182D02*
X001555Y017257D01*
X001555Y017407D01*
X001630Y017482D01*
X002680Y019441D02*
X002455Y019666D01*
X002905Y019666D01*
X002905Y019891D02*
X002905Y020191D01*
X002905Y020041D02*
X002455Y020041D01*
X002605Y019891D01*
X002680Y019741D02*
X002680Y019441D01*
X001930Y020341D02*
X002005Y020416D01*
X002005Y020566D01*
X001930Y020641D01*
X001630Y020641D01*
X001555Y020566D01*
X001555Y020416D01*
X001630Y020341D01*
X001930Y020341D01*
X002005Y020801D02*
X001555Y020801D01*
X001555Y021026D01*
X001630Y021101D01*
X001930Y021101D01*
X002005Y021026D01*
X002005Y020801D01*
X001930Y021261D02*
X001630Y021261D01*
X001555Y021336D01*
X001555Y021487D01*
X001630Y021562D01*
X001930Y021562D01*
X002005Y021487D01*
X002005Y021336D01*
X001930Y021261D01*
X002080Y021722D02*
X002080Y022022D01*
X002005Y022182D02*
X002005Y022407D01*
X001930Y022482D01*
X001630Y022482D01*
X001555Y022407D01*
X001555Y022182D01*
X002005Y022182D01*
X002680Y024441D02*
X002680Y024741D01*
X002905Y024666D02*
X002455Y024666D01*
X002680Y024441D01*
X022180Y022316D02*
X022180Y021416D01*
X022280Y021316D01*
X022180Y021216D01*
X022180Y020416D01*
X022280Y020316D01*
X022180Y020216D01*
X022180Y019416D01*
X022280Y019316D01*
X022180Y019216D01*
X022180Y018416D01*
X022280Y018316D01*
X022180Y018216D01*
X022180Y017416D01*
X022280Y017316D01*
X022180Y017216D01*
X022180Y016416D01*
X022280Y016316D01*
X022180Y016216D01*
X022180Y015416D01*
X022280Y015316D01*
X022180Y015216D01*
X022180Y014416D01*
X022280Y014316D01*
X022180Y014216D01*
X022180Y013416D01*
X022280Y013316D01*
X022180Y013216D01*
X022180Y012316D01*
X023180Y012316D01*
X023180Y013216D01*
X023080Y013316D01*
X023180Y013416D01*
X023180Y014216D01*
X023080Y014316D01*
X023180Y014416D01*
X023180Y015216D01*
X023080Y015316D01*
X023180Y015416D01*
X023180Y016216D01*
X023080Y016316D01*
X023180Y016416D01*
X023180Y017216D01*
X023080Y017316D01*
X023180Y017416D01*
X023180Y018216D01*
X023080Y018316D01*
X023180Y018416D01*
X023180Y019216D01*
X023080Y019316D01*
X023180Y019416D01*
X023180Y020216D01*
X023080Y020316D01*
X023180Y020416D01*
X023180Y021216D01*
X023080Y021316D01*
X023180Y021416D01*
X023180Y022316D01*
X022180Y022316D01*
X023180Y022316D02*
X024180Y022316D01*
X024180Y021416D01*
X024080Y021316D01*
X024180Y021216D01*
X024180Y020416D01*
X024080Y020316D01*
X024180Y020216D01*
X024180Y019416D01*
X024080Y019316D01*
X024180Y019216D01*
X024180Y018416D01*
X024080Y018316D01*
X024180Y018216D01*
X024180Y017416D01*
X024080Y017316D01*
X024180Y017216D01*
X024180Y016416D01*
X024080Y016316D01*
X024180Y016216D01*
X024180Y015416D01*
X024080Y015316D01*
X024180Y015216D01*
X024180Y014416D01*
X024080Y014316D01*
X024180Y014216D01*
X024180Y013416D01*
X024080Y013316D01*
X024180Y013216D01*
X024180Y012316D01*
X023180Y012316D01*
X023180Y013216D02*
X023280Y013316D01*
X023180Y013416D01*
X023180Y014216D02*
X023280Y014316D01*
X023180Y014416D01*
X023180Y015216D02*
X023280Y015316D01*
X023180Y015416D01*
X023180Y016216D02*
X023280Y016316D01*
X023180Y016416D01*
X023180Y017216D02*
X023280Y017316D01*
X023180Y017416D01*
X023180Y018216D02*
X023280Y018316D01*
X023180Y018416D01*
X023180Y019216D02*
X023280Y019316D01*
X023180Y019416D01*
X023180Y020216D02*
X023280Y020316D01*
X023180Y020416D01*
X023180Y021216D02*
X023280Y021316D01*
X023180Y021416D01*
X026196Y022428D02*
X026196Y018703D01*
X026589Y018703D01*
X026589Y018900D01*
X027771Y018900D01*
X027771Y018703D01*
X028164Y018703D01*
X028164Y022428D01*
X027771Y022428D01*
X027771Y022231D01*
X026589Y022231D01*
X026589Y022428D01*
X026196Y022428D01*
X027405Y017630D02*
X027405Y017330D01*
X027405Y017480D02*
X026955Y017480D01*
X027105Y017330D01*
X027855Y017180D02*
X027855Y016880D01*
X027855Y017030D02*
X028305Y017030D01*
X028305Y016720D02*
X028155Y016570D01*
X028155Y016645D02*
X028155Y016420D01*
X028305Y016420D02*
X027855Y016420D01*
X027855Y016645D01*
X027930Y016720D01*
X028080Y016720D01*
X028155Y016645D01*
X028080Y016260D02*
X028080Y015959D01*
X028005Y015959D02*
X027855Y016110D01*
X028005Y016260D01*
X028305Y016260D01*
X028305Y015959D02*
X028005Y015959D01*
X027855Y015799D02*
X028230Y015799D01*
X028305Y015724D01*
X028305Y015574D01*
X028230Y015499D01*
X027855Y015499D01*
X027180Y013080D02*
X027180Y012780D01*
X026955Y013005D01*
X027405Y013005D01*
X027771Y011428D02*
X027771Y011231D01*
X026589Y011231D01*
X026589Y011428D01*
X026196Y011428D01*
X026196Y007703D01*
X026589Y007703D01*
X026589Y007900D01*
X027771Y007900D01*
X027771Y007703D01*
X028164Y007703D01*
X028164Y011428D01*
X027771Y011428D01*
X027771Y006928D02*
X027771Y006731D01*
X026589Y006731D01*
X026589Y006928D01*
X026196Y006928D01*
X026196Y002203D01*
X026589Y002203D01*
X026589Y002400D01*
X027771Y002400D01*
X027771Y002203D01*
X028164Y002203D01*
X028164Y006928D01*
X027771Y006928D01*
X023092Y004809D02*
X022642Y004809D01*
X022642Y004509D02*
X023092Y004809D01*
X023092Y004509D02*
X022642Y004509D01*
X022792Y004348D02*
X023092Y004348D01*
X022867Y004348D02*
X022867Y004048D01*
X022792Y004048D02*
X022642Y004198D01*
X022792Y004348D01*
X022792Y004048D02*
X023092Y004048D01*
X023017Y003888D02*
X023092Y003813D01*
X023092Y003663D01*
X023017Y003588D01*
X022717Y003588D01*
X022642Y003663D01*
X022642Y003813D01*
X022717Y003888D01*
X022717Y003428D02*
X022867Y003428D01*
X022942Y003353D01*
X022942Y003127D01*
X023092Y003127D02*
X022642Y003127D01*
X022642Y003353D01*
X022717Y003428D01*
X022942Y003278D02*
X023092Y003428D01*
X023092Y002967D02*
X023092Y002667D01*
X022642Y002667D01*
X022642Y002967D01*
X022867Y002817D02*
X022867Y002667D01*
X022867Y002507D02*
X022942Y002432D01*
X022942Y002207D01*
X023092Y002207D02*
X022642Y002207D01*
X022642Y002432D01*
X022717Y002507D01*
X022867Y002507D01*
X022642Y002046D02*
X023092Y002046D01*
X023092Y001746D02*
X022642Y001746D01*
X022792Y001896D01*
X022642Y002046D01*
X022642Y001586D02*
X023017Y001586D01*
X023092Y001511D01*
X023092Y001361D01*
X023017Y001286D01*
X022642Y001286D01*
X022642Y001126D02*
X022642Y000976D01*
X022642Y001051D02*
X023017Y001051D01*
X023092Y000976D01*
X023092Y000900D01*
X023017Y000825D01*
X021960Y004179D02*
X021733Y004179D01*
X021847Y004179D02*
X021847Y004519D01*
X021733Y004406D01*
X021010Y004406D02*
X021010Y004463D01*
X020953Y004519D01*
X020840Y004519D01*
X020783Y004463D01*
X021010Y004406D02*
X020783Y004179D01*
X021010Y004179D01*
X020060Y004236D02*
X020003Y004179D01*
X019890Y004179D01*
X019833Y004236D01*
X019947Y004349D02*
X020003Y004349D01*
X020060Y004292D01*
X020060Y004236D01*
X020003Y004349D02*
X020060Y004406D01*
X020060Y004463D01*
X020003Y004519D01*
X019890Y004519D01*
X019833Y004463D01*
X015716Y004597D02*
X015566Y004747D01*
X015716Y004897D01*
X015266Y004897D01*
X015266Y005057D02*
X015416Y005208D01*
X015266Y005358D01*
X015716Y005358D01*
X015716Y005057D02*
X015266Y005057D01*
X015266Y004597D02*
X015716Y004597D01*
X015491Y004437D02*
X015566Y004362D01*
X015566Y004137D01*
X015716Y004137D02*
X015266Y004137D01*
X015266Y004362D01*
X015341Y004437D01*
X015491Y004437D01*
D14*
X014991Y004743D02*
X014991Y003743D01*
X013991Y003743D01*
X012991Y003743D01*
X011991Y003743D01*
X010991Y003743D01*
X009991Y003743D01*
X008991Y003743D01*
X008991Y004743D01*
X009991Y004743D01*
X009991Y003743D01*
X010991Y003743D02*
X010991Y004743D01*
X009991Y004743D01*
X010991Y004743D02*
X011991Y004743D01*
X011991Y003743D01*
X011991Y004743D02*
X012991Y004743D01*
X012991Y003743D01*
X013991Y003743D02*
X013991Y004743D01*
X012991Y004743D01*
X013991Y004743D02*
X014991Y004743D01*
X019467Y004844D02*
X019467Y004044D01*
X019567Y003944D01*
X020367Y003944D01*
X020467Y004044D01*
X020567Y003944D01*
X021367Y003944D01*
X021467Y004044D01*
X021567Y003944D01*
X022367Y003944D01*
X022467Y004044D01*
X022467Y004844D01*
X022367Y004944D01*
X021567Y004944D01*
X021467Y004844D01*
X021367Y004944D01*
X020567Y004944D01*
X020467Y004844D01*
X020467Y004044D01*
X020467Y004844D02*
X020367Y004944D01*
X019567Y004944D01*
X019467Y004844D01*
X021467Y004844D02*
X021467Y004044D01*
X026930Y013316D02*
X026680Y013566D01*
X026680Y014066D01*
X026930Y014316D01*
X026680Y014566D01*
X026680Y015066D01*
X026930Y015316D01*
X026680Y015566D01*
X026680Y016066D01*
X026930Y016316D01*
X026680Y016566D01*
X026680Y017066D01*
X026930Y017316D01*
X027430Y017316D01*
X027680Y017066D01*
X027680Y016566D01*
X027430Y016316D01*
X027680Y016066D01*
X027680Y015566D01*
X027430Y015316D01*
X027680Y015066D01*
X027680Y014566D01*
X027430Y014316D01*
X027680Y014066D01*
X027680Y013566D01*
X027430Y013316D01*
X026930Y013316D01*
X003180Y015566D02*
X003180Y016066D01*
X002930Y016316D01*
X003180Y016566D01*
X003180Y017066D01*
X002930Y017316D01*
X003180Y017566D01*
X003180Y018066D01*
X002930Y018316D01*
X003180Y018566D01*
X003180Y019066D01*
X002930Y019316D01*
X002430Y019316D01*
X002180Y019066D01*
X002180Y018566D01*
X002430Y018316D01*
X002180Y018066D01*
X002180Y017566D01*
X002430Y017316D01*
X002180Y017066D01*
X002180Y016566D01*
X002430Y016316D01*
X002180Y016066D01*
X002180Y015566D01*
X002430Y015316D01*
X002930Y015316D01*
X003180Y015566D01*
X002930Y020316D02*
X002430Y020316D01*
X002180Y020566D01*
X002180Y021066D01*
X002430Y021316D01*
X002180Y021566D01*
X002180Y022066D01*
X002430Y022316D01*
X002180Y022566D01*
X002180Y023066D01*
X002430Y023316D01*
X002180Y023566D01*
X002180Y024066D01*
X002430Y024316D01*
X002930Y024316D01*
X003180Y024066D01*
X003180Y023566D01*
X002930Y023316D01*
X003180Y023066D01*
X003180Y022566D01*
X002930Y022316D01*
X003180Y022066D01*
X003180Y021566D01*
X002930Y021316D01*
X003180Y021066D01*
X003180Y020566D01*
X002930Y020316D01*
D15*
X019967Y003744D02*
X019967Y001794D01*
X020967Y001794D02*
X020967Y003744D01*
X021967Y003744D02*
X021967Y001794D01*
D16*
X021967Y003844D03*
X020967Y003844D03*
X019967Y003844D03*
X019967Y005044D03*
X020967Y005044D03*
X021967Y005044D03*
D17*
X014491Y003493D02*
X014491Y001243D01*
X013491Y001243D02*
X013491Y003493D01*
X012491Y003493D02*
X012491Y001243D01*
X011491Y001243D02*
X011491Y003493D01*
X010491Y003493D02*
X010491Y001243D01*
X009491Y001243D02*
X009491Y003493D01*
D18*
X009491Y003643D03*
X010491Y003643D03*
X011491Y003643D03*
X012491Y003643D03*
X013491Y003643D03*
X014491Y003643D03*
D19*
X014491Y004943D03*
X013491Y004943D03*
X012491Y004943D03*
X011491Y004943D03*
X010491Y004943D03*
X009491Y004943D03*
M02*
