G75*
%MOIN*%
%OFA0B0*%
%FSLAX24Y24*%
%IPPOS*%
%LPD*%
%AMOC8*
5,1,8,0,0,1.08239X$1,22.5*
%
%ADD10OC8,0.0670*%
%ADD11C,0.0640*%
%ADD12C,0.0580*%
%ADD13C,0.0600*%
%ADD14C,0.0631*%
%ADD15C,0.0276*%
D10*
X005680Y012816D03*
X006680Y012816D03*
X006680Y013816D03*
X006680Y014816D03*
X005680Y014816D03*
X005680Y013816D03*
X005680Y015816D03*
X006680Y015816D03*
X006680Y016816D03*
X006680Y017816D03*
X005680Y017816D03*
X005680Y016816D03*
X005680Y018816D03*
X006680Y018816D03*
X006680Y019816D03*
X005680Y019816D03*
X005680Y020816D03*
X005680Y021816D03*
X006680Y021816D03*
X006680Y020816D03*
X022680Y020816D03*
X022680Y021816D03*
X023680Y021816D03*
X023680Y020816D03*
X023680Y019816D03*
X022680Y019816D03*
X022680Y018816D03*
X023680Y018816D03*
X023680Y017816D03*
X022680Y017816D03*
X022680Y016816D03*
X023680Y016816D03*
X023680Y015816D03*
X022680Y015816D03*
X022680Y014816D03*
X023680Y014816D03*
X023680Y013816D03*
X022680Y013816D03*
X022680Y012816D03*
X023680Y012816D03*
D11*
X026880Y013816D02*
X027480Y013816D01*
X027480Y014816D02*
X026880Y014816D01*
X026880Y015816D02*
X027480Y015816D01*
X027480Y016816D02*
X026880Y016816D01*
X014491Y005793D02*
X014491Y005193D01*
X013491Y005193D02*
X013491Y005793D01*
X012491Y005793D02*
X012491Y005193D01*
X011491Y005193D02*
X011491Y005793D01*
X010491Y005793D02*
X010491Y005193D01*
X009491Y005193D02*
X009491Y005793D01*
X002980Y015816D02*
X002380Y015816D01*
X002380Y016816D02*
X002980Y016816D01*
X002980Y017816D02*
X002380Y017816D01*
X002380Y018816D02*
X002980Y018816D01*
X002980Y020816D02*
X002380Y020816D01*
X002380Y021816D02*
X002980Y021816D01*
X002980Y022816D02*
X002380Y022816D01*
X002380Y023816D02*
X002980Y023816D01*
D12*
X019967Y005814D02*
X019967Y005274D01*
X020967Y005274D02*
X020967Y005814D01*
X021967Y005814D02*
X021967Y005274D01*
D13*
X026680Y005316D03*
X026680Y006316D03*
X027680Y005816D03*
X027680Y004816D03*
X027680Y003816D03*
X027680Y002816D03*
X026680Y003316D03*
X026680Y004316D03*
X027680Y008316D03*
X027680Y009316D03*
X027680Y010316D03*
X026680Y010816D03*
X026680Y009816D03*
X026680Y008816D03*
X027680Y019316D03*
X027680Y020316D03*
X027680Y021316D03*
X026680Y021816D03*
X026680Y020816D03*
X026680Y019816D03*
X002680Y012316D03*
X002680Y011316D03*
X001680Y011816D03*
X001680Y012816D03*
X001680Y008816D03*
X001680Y007816D03*
X001680Y006816D03*
X002680Y007316D03*
X002680Y008316D03*
X002680Y006316D03*
D14*
X001824Y005678D03*
X001824Y010678D03*
X026824Y007678D03*
X026824Y002178D03*
X026824Y018678D03*
D15*
X025889Y016564D03*
X025259Y014674D03*
X025928Y014123D03*
X021755Y012705D03*
X020456Y014201D03*
X019314Y014044D03*
X014117Y019438D03*
X009629Y014635D03*
X008920Y013572D03*
X007345Y012036D03*
X007975Y011485D03*
X006715Y010461D03*
X005731Y011446D03*
X005101Y011446D03*
X004983Y012430D03*
X006282Y011800D03*
X004944Y017312D03*
X017975Y007705D03*
X019865Y006406D03*
M02*
