%
M48
M72
T01C0.0118
T02C0.0315
T03C0.0360
T04C0.0400
T05C0.0591
%
T01
X6715Y10461
X5731Y11446
X5101Y11446
X4983Y12430
X6282Y11800
X7345Y12036
X7975Y11485
X8920Y13572
X9629Y14635
X4944Y17312
X14117Y19438
X19314Y14044
X20456Y14201
X21755Y12705
X25259Y14674
X25928Y14123
X25889Y16564
X17975Y7705
X19865Y6406
T02
X26680Y6316
X26680Y5316
X26680Y4316
X26680Y3316
X27680Y3816
X27680Y4816
X27680Y5816
X27680Y8316
X27680Y9316
X27680Y10316
X26680Y10816
X26680Y9816
X26680Y8816
X27680Y2816
X27680Y19316
X27680Y20316
X27680Y21316
X26680Y21816
X26680Y20816
X26680Y19816
X2680Y12316
X2680Y11316
X1680Y11816
X1680Y12816
X1680Y8816
X1680Y7816
X1680Y6816
X2680Y7316
X2680Y8316
X2680Y6316
T03
X5680Y12816
X6680Y12816
X6680Y13816
X6680Y14816
X5680Y14816
X5680Y13816
X5680Y15816
X6680Y15816
X6680Y16816
X6680Y17816
X5680Y17816
X5680Y16816
X5680Y18816
X6680Y18816
X6680Y19816
X5680Y19816
X5680Y20816
X5680Y21816
X6680Y21816
X6680Y20816
X22680Y20816
X22680Y21816
X23680Y21816
X23680Y20816
X23680Y19816
X22680Y19816
X22680Y18816
X23680Y18816
X23680Y17816
X22680Y17816
X22680Y16816
X23680Y16816
X23680Y15816
X22680Y15816
X22680Y14816
X23680Y14816
X23680Y13816
X22680Y13816
X22680Y12816
X23680Y12816
X21967Y5544
X20967Y5544
X19967Y5544
T04
X14491Y5493
X13491Y5493
X12491Y5493
X11491Y5493
X10491Y5493
X9491Y5493
X2680Y15816
X2680Y16816
X2680Y17816
X2680Y18816
X2680Y20816
X2680Y21816
X2680Y22816
X2680Y23816
X27180Y16816
X27180Y15816
X27180Y14816
X27180Y13816
T05
X1824Y5678
X1824Y10678
X26824Y7678
X26824Y2178
X26824Y18678
M30
